<?xml version="1.0" encoding="utf-8"?>
<!-- Generator: Adobe Illustrator 24.1.0, SVG Export Plug-In . SVG Version: 6.00 Build 0)  -->
<svg version="1.1" id="Layer_1" xmlns="http://www.w3.org/2000/svg" xmlns:xlink="http://www.w3.org/1999/xlink" x="0px" y="0px"
	 viewBox="0 0 1224 792" style="enable-background:new 0 0 1224 792;" xml:space="preserve">
<path d="M315.19,479.81c-0.4-0.39-0.78-0.76-1.15-1.13c0-0.65,0-1.29,0-1.51c-0.95-1.59-1.72-2.88-2.51-4.22c0-0.79,0-1.63,0-2.62
	c-0.43-0.34-0.93-0.73-1.31-1.03c0-2.97-0.13-5.74,0.03-8.49c0.26-4.58-0.77-9.01-1.34-13.49c-0.11-0.84-0.7-1.61-1.21-2.71
	c0-0.72,0-1.77,0-2.94c-0.36-0.29-0.77-0.62-1.31-1.04c0-0.39-0.02-0.79,0-1.18c0.22-3.78,0.85-4.31-2.1-8.17
	c-0.34-0.44-0.4-1.1-0.58-1.65c0.58-0.28,1.01-0.49,1.42-0.69c-0.03-0.27,0.01-0.62-0.08-0.66c-1.48-0.63-0.81-2.56-2.02-3.32
	c-0.99-0.63-2.02-1.2-3-1.85c-0.27-0.18-0.38-0.58-0.62-0.83c-0.12-0.13-0.36-0.14-0.77-0.29c0.2-1.03,0.4-2.08,0.63-3.29
	c-0.07-0.08-0.27-0.31-0.49-0.57c0.5-0.26,1-0.52,1.37-0.72c0.78,0.15,1.5,0.3,2.34,0.47c0-0.85,0-1.47,0-2.31
	c-1.07-1.74-3.3-2.12-5.02-3.24c0.01-0.21,0.03-0.41,0.05-0.76c1.11,0,2.25,0,3.13,0c0.72-0.84,1.26-1.47,1.9-2.22
	c-0.73-0.62-1.61-1.37-2.53-2.16c0-0.34,0-0.76,0-1.24c-0.79-0.36-1.59-0.72-2.48-1.12c0-1.09,0-2.23,0-3.46
	c0.28-0.06,0.57-0.13,1.18-0.26c0.07-1.63,0.01-3.4,0.04-5.37c-0.33-0.2-0.78-0.47-1.11-0.66c-0.13-0.86-0.22-1.44-0.3-2
	c-0.36-0.09-0.65-0.17-1.05-0.27c0-0.68,0-1.39,0-1.88c-1-0.85-1.82-1.55-2.81-2.39c0.44-0.54,0.88-1.09,1.41-1.73
	c0-0.49,0-1.12,0-1.92c-0.66-0.56-1.42-1.21-2.44-2.09c0-0.29,0-1,0-1.62c0.66-0.46,1.3-0.9,1.99-1.38
	c-0.23-0.41-0.32-0.76-0.53-0.91c-0.82-0.54-1.69-1-2.73-1.6c0-0.68,0-1.61,0-2.21c-0.97-1.35-1.74-2.42-2.64-3.68
	c0.01-1.19,0.17-2.66-0.86-3.85c-1.12-1.3-0.11-2.65-0.02-3.94c0.12-1.78,0.7-3.54,1.17-5.69c0.97-1.62,2.42-3.24,5.27-2.45
	c0.21,0.22,0.57,0.61,0.9,0.96c3.54,0.47,6.98,1.13,10.34,2.13c1.68,0.5,3.42,1,4.84,2.16c0.16,0.13,0.31,0.3,0.49,0.34
	c4.4,0.93,7.72,3.95,11.57,5.92c2.01,1.03,4.04,2.25,6.13,2.83c1.85,0.51,3.12,1.73,4.75,2.43c0.81,0.35,1.49,1.02,2.42,1.68
	c0.32-1.63,0.06-3.19,0.18-4.77c-1.04-1.16-0.9-2.85-1.58-4.07c-0.81-1.45-1.02-2.83-1.12-4.33c-1.6-4.33-3.17-8.67-5.29-12.94
	c-0.67-0.82-1.34-1.91-2.26-2.71c-0.72-0.63-1.21-1.45-2.14-1.97c-0.88-0.49-1.35-1.68-2.05-2.53c-0.79-0.96-1.97-1.48-2.75-2.48
	c-0.7-0.9-1.56-1.66-1.98-2.79c-0.27-0.74-0.73-1.41-1.26-2.4c0-0.69,0-1.75,0-2.2c-0.56-1.44-1.06-2.33-1.22-3.28
	c-0.12-0.75-0.17-1.41-0.81-1.91c-0.23-0.18-0.5-0.5-0.49-0.73c0.13-2.22-1.44-3.5-2.68-4.95c-0.79-0.94-1.58-1.89-2.46-2.75
	c-0.92-0.9-1.94-1.69-2.95-2.57c-1.99,0.24-3.44-0.81-4.65-2.25c-0.18-2.21,0.01-4.3,1.12-6.26c0.77-1.36-0.72-2.51-0.5-3.82
	c0.2-1.16,0.92-2.17,0.47-3.5c-0.68-2-1.18-4.07-1.15-5.98c-0.59-1.15-1.09-2.11-1.62-3.15c-1.12,0.26-1.73,1.05-2.17,2.01
	c-0.41,0.89-1.01,1.79-1.08,2.72c-0.08,1.19-1.76,0.97-1.59,2.28c-0.93,0-1.86,0-2.38,0c-3.12,1.88-5.94,1.74-9.12,0.5
	c-0.16-1.93,0.03-4.06-0.59-5.94c-0.75-2.29-0.5-4.52-0.52-6.78c-0.02-3.81-0.2-7.56-1.24-11.28c-0.41-1.48-0.07-3.17-0.07-4.9
	c3.03-2.13,5.14-5.2,7.11-8.34c0.54-0.87,1.41-1.37,1.89-2.33c0.49-0.99,1.59-1.68,2.44-2.51c0-0.42,0-0.84,0-1.23
	c2.24-1.15,2.27-3.79,3.8-5.45c1.47-1.6,2.44-3.66,3.9-5.94c0.11-1.5-0.12-3.54,0.54-5.57c0.31-0.96,0.69-1.87,1.17-2.7
	c0.71-1.21,0.78-1.17,0.88-2.83c0.38-0.38,0.75-0.75,1.24-1.24c0-0.6,0-1.32,0-2.07c0.39-0.08,0.68-0.14,0.88-0.18
	c0.72-1.54,1.59-3,2.07-4.58c0.47-1.56,1.82-2.58,2.17-4.21c0.34-1.63,0.99-3.2,1.67-5.29c-0.03,0.03,0.35-0.35,0.81-0.81
	c0.21-1.88-0.5-4.09,1.29-5.75c0-2.73,0-5.49,0-7.81c1.41-2.38,2.61-4.45,3.85-6.49c1.21-1.98,3.18-3.42,4.01-5.67
	c2.69-0.56,2.52-3.99,4.89-4.89c0-0.42,0-0.84,0-1.25c3.22-2.14,3.68-6.39,6.78-8.65c0.46,0,0.99,0,1.85,0
	c0.74-0.82,1.62-1.81,2.77-3.09c0-0.07,0-0.57,0-1.06c1.03-0.13,1.46-0.72,1.65-1.55c1.26,0.15,0.69-1.03,1.04-1.39
	c0.8-0.81,1.07-1.96,2.21-2.63c1.16-0.69,1.86-2.13,2.85-3.16c2.19-2.29,3.83-4.95,5.52-7.6c0.66-1.03,1.73-1.67,2.36-2.84
	c0.42-0.78,0.84-1.87,2.06-2.37c1.09-0.45,1.84-1.71,2.78-2.64c0-1.23,0-2.5,0-3.93c0.44-0.32,0.95-0.69,1.31-0.96
	c0-2.81,0-5.36,0-7.8c2.64-3.69,0.64-7.27-0.08-10.9c-1-1.13-1.91-2.52-3.16-3.47c-0.85-0.65-0.18-2.38-1.81-2.24
	c-0.14-1.3-1.37-1.76-2.02-2.67c-0.64-0.9-1.27-1.8-1.83-2.75c-0.14-0.23-0.02-0.62-0.02-0.63c-2.1-2.83-4.05-5.45-6.35-8.53
	c0.02,0.15-0.04-0.35-0.1-0.89c-0.35-0.13-0.72-0.27-1.12-0.42c-0.05-0.49-0.11-0.99-0.11-0.98c-0.74-0.89-1.23-1.92-1.64-1.89
	c-1.2,0.09-0.62-1.15-1.32-1.41c-0.62-0.23-1.17-0.75-1.65-1.25c-0.46-0.49-0.73-1.16-1.2-1.64c-0.54-0.55-1.27-0.9-1.8-1.45
	c-0.48-0.5-0.81-1.16-1.3-1.9c0-3.82,0-7.86,0-11.9c-1.17-1.07-1.35-2.45-1.28-3.94c0.12-2.57-0.38-5.02-1.14-7.48
	c-0.38-1.24-0.07-2.68-0.07-4.02c0.39-0.09,0.67-0.16,1.09-0.26c0-4.5,0-9.04,0-13.2c0.78-1.15,1.21-2.14,1.94-2.79
	c0.88-0.78,0.43-1.8,0.8-2.56c0.53-1.08,1.5-1.93,2.49-3.14c0-0.03,0-0.45,0-0.94c0.36-0.12,0.73-0.25,1.18-0.41
	c0.04-0.46,0.09-0.97,0.14-1.47c1.91-0.92,3.75-2.09,6.19-1.34c0.3,0.3,0.75,0.75,1.3,1.3c-0.42,1.6,1.78,2.34,1.48,4.03
	c1.83,0.22,0.77,2.73,2.55,2.94c-0.55,2.01,0.82,3.05,1.78,4.29c0.59,0.76,1.44,1.25,1.98,2.1c0.43,0.67,1.06,1.37,1.76,1.69
	c2.06,0.93,3.83,2.27,5.41,3.82c0.96,0.95,2.82,0.67,3.12,2.4c1.24,0.58,2.49,1.17,3.71,1.74c0,0.28,0,0.49,0,0.7
	c0.18,0.11,0.34,0.29,0.52,0.3c0.91,0.05,1.88-0.13,2.6,0.65c2.24-0.35,4.5,0.5,6.79-0.53c1.08-0.49,2.61-0.64,3.83-0.64
	c2.33,0.01,4.29-1.06,6.43-1.53c1.81-0.4,3.55-1.16,5.32-1.76c1.77-0.6,3.51-1.35,5.32-1.76c1.87-0.43,3.82-0.7,5.74-0.75
	c4.14-0.11,8.29-0.09,12.43,0c1.4,0.03,2.79,0.48,4.2,0.58c1.48,0.11,3.1,0.39,4.43-0.05c2.58-0.86,5.16-0.34,7.73-0.58
	c1.3-0.12,2.7-0.82,3.85-0.51c1.32,0.36,2.59,0.51,3.91,0.52c1.38,0.02,2.76,0,3.42,0c3.12,0.7,4.82,2.82,7.35,3.24
	c0.02,1.79,1.88,1.09,2.7,1.92c0.65,0.66,1.32,1.47,2.29,1.91c0.81,0.37,1.35,1.31,2.12,1.83c0.72,0.49,1.59,0.77,2.84,1.35
	c1.65-0.19,3.77-0.59,5.91-0.65c4.03-0.11,8.08,0.15,12.11-0.09c3.68-0.21,7.26,0.53,10.89,0.79c2.2,0.15,4.34,1.22,6.48,1.97
	c1.48,0.52,3.03,1,4.32,1.84c1.07,0.7,2.16,0.93,3.32,1.28c1.48,0.44,2.77,1.49,4.15,2.27c1.37,0.78,2.74,1.57,4.28,2.45
	c0.03,0.3,0.07,0.8,0.09,1.08c1.19,0.8,2.22,1.59,3.33,2.24c1.96,1.16,3.88,2.42,5.98,3.26c0.85,0.34,2.1-0.3,3.13-0.49
	c0.49-1.55,2.22-2.47,1.46-4.27c0.51-0.18,0.88-0.32,1.31-0.47c0-1.02,0-2.07,0-2.95c-0.76-1.42-1.46-2.73-2.41-4.49
	c0-0.39,0-1.32,0-2.14c-0.49-0.49-0.86-0.86-1.35-1.35c0-0.6,0-1.32,0-1.98c-0.48-0.18-0.85-0.32-1.31-0.5c0-1.13,0-2.27,0-3.43
	c-0.39-0.09-0.68-0.15-1.03-0.23c-0.23-2.77-2.24-4.76-3.33-7.18c-0.16-0.36-0.73-0.74-0.65-0.97c0.46-1.5-0.93-2.2-1.31-3.31
	c-0.32-0.94-1.77-1.33-1.28-2.66c-0.9-0.47-1.26-1.22-1.49-2.21c-0.17-0.73-0.78-1.4-1.31-1.99c-1.08-1.17-2.24-2.27-3.47-3.5
	c0-1.24,0-2.59,0-3.96c0.96-0.29,1.98-0.8,3.04-0.87c0.96-0.07,1.95,0.34,2.98,0.54c0.5,2.09,2.84,3.19,2.87,5.52
	c0.18,0.09,0.36,0.16,0.53,0.26c2.44,1.49,5.24,2.32,7.62,3.87c1.64,1.07,2.96,2.64,4.42,3.98c-0.22,1.12,1.39,0.89,1.33,1.6
	c-0.09,1.12,1.81,0.41,1.33,1.65c0.7,0.33,1.46,0.59,2.09,1.02c1.17,0.81,2.36,1.63,3.36,2.63c0.81,0.81,1.71,1.68,2.56,2.28
	c0.85,0.6,2.2,0.71,3.21,1.42c0.37,0.26,1.37,0.12,1.4,0.3c0.27,1.44,1.93,1.31,2.53,2.41c0.96,1.76,2.68,2.86,4.09,4.23
	c1.57,1.52,3.36,2.5,5.31,3.39c1.27,0.58,2.32,1.66,3.43,2.49c0,1,0,1.83,0,2.36c0.93,1.65,1.71,3.03,2.63,4.65
	c0,0.76,0,1.81,0,2.92c1,0.56,1.1,1.57,1.45,2.55c0.28,0.8,1.34,1.25,1.1,2.42c-0.27,1.33,2.01,1.72,1.3,3.28
	c1.17,0.59,1,1.95,1.62,2.82c0.5,0.7,1.09,1.23,0.91,2.2c-0.05,0.27,0.03,0.63,0.19,0.86c1.54,2.24,3.11,4.46,4.83,6.92
	c0,1.08,0,2.43,0,3.65c1.13,1.13,1.49,2.39,1.32,3.76c-0.16,1.29,0.2,2.46,0.85,3.47c0.78,1.22,0.16,2.88,1.33,3.91
	c0.94,0.83-0.19,2.25,1.07,3.12c0.71,0.49,0.86,1.75,1.42,2.54c0.65,0.9,0.4,2.13,1.49,2.96c0.73,0.56-0.19,2.31,1.19,2.95
	c0.71,2.9,2.96,4.91,4.34,7.44c1.39,2.54,3.29,4.8,4.87,7.24c0.47,0.73,1.51,0.95,1.46,2.25c-0.03,0.79,1.09,1.62,1.69,2.44
	s1.58,1.57,1.72,2.45c0.24,1.49,1.31,2.47,1.98,3.59c0.78,1.31,1.35,2.75,1.77,4.06c0.83,2.54,2.14,5.08,1.63,7.95
	c-0.24,1.36,0.18,2.63,1.24,3.7c0.09,1.95-0.2,3.95,1.18,5.83c0.61,0.83,0.1,2.47,0.1,3.72c0.4,0.4,0.77,0.77,1.29,1.29
	c-0.97,1.76,1.44,2.61,1.31,4.38c-0.11,1.49,1.22,2.61,1.37,4.23c0.14,1.42,1.57,2.7,2.4,4.06c0.77,1.28,1.49,2.59,2.51,4.36
	c-0.25,1.84,0.76,3.9,1.89,5.96c-0.09,0.09-0.24,0.24-0.54,0.54c0.49,0.27,1,0.55,1.39,0.77c-0.51,2.25,0.33,3.74,1.09,5.29
	c0.6,1.23,1.32,2.38,1.4,3.91c0.06,1.19,1.33,2.16,1.22,3.62c-0.09,1.12,1.78,1.57,1.24,2.97c1.84,1.88,2.11,4.43,2.91,6.76
	c1.02,2.97,2.34,5.87,3.06,8.92c0.44,1.85,1.96,3.3,1.75,5.38c-0.05,0.52,0.76,1.14,1.21,1.69c1.44,1.77,2.93,3.48,4.88,4.66
	c0.42,1.06,0.85,2.15,1.51,3.83c0.03,1.07-0.31,2.86,1.05,4.32c0.23,0.24,0.15,0.78,0.21,1.18c0.24,1.6-0.55,3.3,0.52,4.83
	c0.07,0.1-0.43,0.6-0.77,1.07c0.63,0.45,1.15,0.81,1.53,1.08c0,1.32-0.14,2.4,0.04,3.43c0.15,0.84,0.73,1.6,1.03,2.43
	c0.17,0.47,0.22,1.01,0.19,1.51c-0.18,2.6,0.26,5.15,0.65,7.7c0.34,2.22,1.53,4.09,3.61,5.44c0.51-2.65,0.58-5.28-0.58-7.52
	c-1.89-3.65-2.69-7.4-2.4-11.45c0.07-0.95,0.03-1.91,0-2.87c-0.04-1.14,0.04-2.22,0.62-3.25c0.33-0.59,0.55-1.29,0.63-1.96
	c0.11-0.84,0-1.7,0.03-2.55c0.2-5.22,0.5-10.45,0.61-15.67c0.11-5.31-0.28-10.65,0.15-15.92c0.22-2.68,0.44-5.35,0.53-8.33
	c1.24-0.3,2.57-0.63,3.88-0.95c0.83,0.95,1.52,1.74,2.41,2.76c0.76,1.71,0.77,4.13,2.61,6.18c-0.11,1.75,0.35,3.64,1.09,5.57
	c0.54,1.38,0,3.15,0.23,4.7c0.22,1.45,1.32,2.71,1.2,4.26c-0.09,1.17,0.36,2.17,0.63,3.25c0.26,1.06,0.26,2.16,0.54,3.27
	c0.47,1.9,0.13,4,0.13,6.09c1.81,2.17,1.3,4.76,1.13,7.31c-0.01,0.15,0.31,6.3,0.37,6.45c0.12,0.27,0.37,0.52,0.4,0.79
	c0.24,2.67,0.6,5.35,0.59,8.02c-0.01,1.49,0.53,2.79,0.71,4.2c0.23,1.82,0.79,3.58,0.7,5.48c-0.04,0.78,0.7,1.6,1.2,2.65
	c0,3.51,0,7.33,0,11.15c0,1.17-0.09,2.35,0.03,3.5c0.11,1.11-0.28,2.19,0.34,3.37c0.48,0.92-0.07,2.36,0.34,3.36
	c0.54,1.31,0.39,2.61,0.61,3.9c0.21,1.25,0.83,2.42,1.14,3.66c0.17,0.7,0.09,1.46,0.09,2.19c0.01,1.49,0.04,2.98-0.01,4.46
	c-0.04,1.34,1.04,2.49,0.65,3.88c1.09,1.72,0.66,3.65,0.6,5.47c-0.08,2.5,0.28,4.85,1.48,7.13c1.07,0.5,2.22,1.05,3.43,1.62
	c0.91,2.6,0.45,5.47,0.98,8.13c0.81,4.09,0.27,8.13,0.52,12.19c0.15,2.47-0.29,4.82-1.1,7.19c-0.41,1.21-0.34,2.76,0.02,4
	c0.45,1.54,0.25,2.81-0.05,4.36c-0.48,2.54-0.13,5.23-0.13,7.96c1.31-0.49,1.48-1.83,2.58-2.39c1.08-0.55,1.83-1.74,2.74-2.63
	c2.55-2.49,5.7-4.03,8.82-5.64c0.9-0.46,2.13,0.27,2.85-0.81c3.95-0.1,7.89-1.21,11.83-0.57c2.17,0.36,4.6,0.81,5.85,3.75
	c0.37,0.49,1.66,0.23,2.33,1.3c0.69,1.11,2.17,1.5,2.74,2.97c0.33,0.84,0.66,1.92,0.31,2.32c-0.84,0.98-0.53,2-0.54,2.99
	c-0.05,3.93-0.02,7.86-0.02,11.78c0.38,0.38,0.76,0.76,1.22,1.22c0.22,2.03,0.49,4.15,0.68,6.28c0.27,2.92-1.11,5.72-0.63,8.66
	c-0.98,1.79-0.97,3.86-1.61,5.71c-0.29,0.85,0.35,0.98,0.4,1.51c0.2,2.31-0.49,4.48-0.84,6.7c-0.03,0.17-0.43,0.32-0.41,0.45
	c0.28,2.21-0.62,4.16-1.54,6.11c0.56,0.64,1.02,1.18,1.62,1.87c-0.44,0.53-0.88,1.07-1.4,1.71c0,0.93,0,1.98,0,3.1
	c0.38,0.41,0.82,0.86,1.24,1.3c0,0.65,0,1.28,0,1.88c-0.54,0.55-1.06,1.08-1.57,1.61c-0.23-0.21-0.45-0.41-0.83-0.75
	c0,1.5,0,2.84,0,4.08c-0.55,0.58-0.98,1.03-1.43,1.5c0,2.96,0,5.94,0,9.17c-0.37,0.26-0.88,0.63-1.06,0.77
	c0.22,1.95,0.4,3.57,0.61,5.42c0.28,0.33,0.74,0.86,1.37,1.6c-0.71,0.56-1.31,1.02-2.1,1.65c0,0.94,0,2.19,0,3.31
	c-2.06,2.87-2.88,5.93-2.61,9.26c-0.4,0.4-0.77,0.77-1.29,1.29c0,0.68-0.07,1.52,0.01,2.34c0.15,1.47-0.23,2.83-0.65,4.2
	c-0.87,2.85-0.86,4.76-0.06,8.1c0.11,0.46-0.05,1-0.15,1.49c-0.1,0.48-0.43,0.95-0.41,1.41c0.05,1.25-0.12,2.44-0.67,3.56
	c-0.96,1.95-1.97,3.88-3.15,6.2c0.09,1.12-0.39,2.81,0.59,4.34c0.14,0.23,0.15,0.71,0,0.93c-1.52,2.18,0.53,4.34,0.02,6.5
	c1.11,1.94,0.41,4.07,0.69,6.09c-1.04,0.98-2.04,1.92-2.93,2.77c-1.9,0.72-3.7,1.82-5.59,2c-1.8,0.17-3.7-0.6-6-1.05
	c-1.8,0.82-4.03,1.83-6.71,3.05c-0.54,0-1.59,0-2.85,0c-0.29-0.36-0.68-0.86-0.97-1.24c-0.63,0-1.06,0-1.63,0c0,2.82,0,5.65,0,8.24
	c-0.65,0.87-1.12,1.51-1.92,2.58c-0.38,0.14-1.3,0.48-2.48,0.92c-0.12,0.22-0.39,0.73-0.68,1.3c0.82,1.43,0.5,3.04,0.31,4.63
	c-0.07,0.58-0.53,1.18-0.43,1.71c0.33,1.92-0.37,3.72-0.8,5.45c-0.33,1.33-0.4,2.6-0.54,3.91c-0.1,0.99-0.79,2.07-0.52,2.9
	c0.36,1.11-0.14,2.01-0.11,3.01c0.03,1.01,0.15,2.04-0.59,2.95c-0.21,0.26-0.03,0.82-0.03,1.25c0,1.38,0.02,2.76,0,4.14
	c-0.02,1.22-0.07,2.37-0.54,3.6c-0.45,1.16-0.16,2.55-0.64,3.87c-0.41,1.12-0.09,2.52-0.09,3.79c0,1.16,0,2.32,0,2.86
	c-0.57,1.47-1.28,2.41-1.21,3.3c0.2,2.59-1.01,4.66-1.96,6.87c-0.35,0.81-0.42,1.73-0.66,2.59c-0.35,1.24-1.39,2.14-1.65,3.46
	c-0.25,1.25-0.73,2.45-1.11,3.68c-0.28,0.07-0.56,0.15-0.68,0.18c-0.89,2.71-1.75,5.32-2.86,8.73c0.16,1.5-0.6,3.69-1.28,5.92
	c-0.19,0.6-0.38,1.09-0.72,1.63c-0.85,1.33-1.49,2.73-1.99,4.28c-0.59,1.84-0.82,3.87-2.06,5.52c-0.38,0.5-0.02,1.68-0.43,2
	c-1.48,1.16-1,3.02-1.84,4.38c-0.35,0.57-0.66,1.31-0.61,1.95c0.07,1.05-0.67,1.47-1.32,2.2c0,0.59,0,1.3,0,1.9
	c-3.06,3.06-3.06,3.06-3.2,4.94c-0.54,1.18-2.44,1.68-1.94,3.46c-0.5,0.17-0.86,0.3-1.23,0.43c0,0.48,0,0.9,0,1.25
	c-0.73,0.55-1.41,1.06-2.28,1.71c0.92,0.6,1.56,1.02,2.2,1.44c0,1.41,0,2.76,0,4.15c-1.15,0.41-2.26,0.8-3.29,1.16
	c-0.57-0.58-1.2-1.23-1.6-1.65c-1.1,0-1.74,0-2.45,0c-0.79,1.28-2.55,1.83-2.86,3.56c-1.42,0.54-1.62,2.17-2.55,2.99
	c-2.22,1.96-3.04,4.77-4.76,7.02c-1.6,2.09-2.57,4.67-4.1,6.88c-0.17,0.25-0.29,0.53-0.5,0.75c-2.92,3.15-5.79,6.35-8.81,9.4
	c-1.33,1.34-2.78,2.55-4.56,3.44c-2.31,1.15-4.38,2.78-6.55,4.21c-2,1.32-3.8,2.84-5.18,4.83c-0.19,0.27-0.7,0.32-1.1,0.48
	c-0.05,0.48-0.11,0.99-0.12,1.15c-1.82,1.5-3.63,2.66-4.99,4.22c-0.92,1.05-1.95,2.05-2.87,3.08c-0.83,0.93-1.81,2.22-3.39,2.31
	c-2.53,2.1-5.13,4.13-7.55,6.34c-1.23,1.13-2.71,2.01-3.64,3.51c-0.37,0.6-1.2,0.92-1.9,1.42c0.95,0.76,1.78,1.44,2.57,2.07
	c0.45,1.76-0.12,3.09-1.54,4.43c-1.06-0.28-2.27-0.6-3.48-0.92c-0.66-1.22-1.27-2.36-1.89-3.52c-1.14,0-2.18,0-3.59,0
	c-0.11,0.3-0.34,0.94-0.44,1.2c-1.76,0-2.9,0-3.92,0c-0.49,0.49-0.86,0.86-1.26,1.26c-0.83,0-1.68,0.03-2.52-0.01
	c-3.05-0.13-6.23,0.6-9.03-1.27c-2.06,0.07-3.92-0.77-5.86-1.18c-1.93-0.41-4.02-0.09-6.04-0.09c-1.68-1.06-3.32-2.21-5.07-3.17
	c-1.74-0.96-3.67-1.44-5.17-2.99c-1.35-1.39-3.86-1.05-5.2-2.77c-0.52,0-1.06,0.06-1.58-0.02c-0.41-0.07-0.8-0.32-1.56-0.64
	c0.34,0.7,0.43,1.1,0.68,1.36c1.92,1.99,4.12,3.63,6.47,5.46c0.21,0.85,0.49,2.01,0.77,3.18c-1.24,2.73-1.24,2.73-4.26,4.16
	c-0.7-0.4-1.74-0.72-2.37-1.41c-1.3-1.42-2.6-2.91-3.52-4.59c-1.32-2.42-3.24-4.28-5.08-6.24c-1.02,0.12-0.66-0.87-0.98-1.29
	c-1.34-1.74-2.55-3.58-3.98-5.64c-2.03-0.37-3.2-2.36-4.44-4.09c-0.96-1.35-1.74-2.78-3.17-3.72c-1.26-0.83-0.9-2.66-2.14-3.59
	c-0.62-0.47-0.98-1.27-1.48-1.91c-0.54-0.69-1.02-1.85-1.66-1.95c-1.01-0.15-0.44-1.38-1.62-1.52c-1.25-0.14-1.68-1.98-2.87-2.8
	c-1.05-0.73-1.82-1.96-2.7-2.93c-1.34-1.49-2.82-2.93-4.3-4.33c-2.52-2.38-4.78-4.99-7.08-7.57c-0.81-0.91-1.6-1.84-2.38-2.78
	c-0.84-1.02-1.64-2.09-2.49-3.11c-0.91-1.1-1.78-2.25-2.81-3.23c-0.89-0.86-1.68-1.89-2.59-2.59c-1.23-0.94-2-2.19-2.94-3.28
	c-1.63-1.9-3.89-3.33-4.72-5.87c-2.6-0.98-3.27-3.86-5.34-5.41c-1.6-1.2-2.89-2.81-4.32-4.24c-0.9-0.9-1.78-1.83-2.71-2.7
	c-0.74-0.68-1.53-1.31-2.34-1.92c-0.96-0.73-2-1.36-2.94-2.12c-2.48-2-4.88-4.09-7.38-6.06c-1.17-0.93-2.42-1.81-3.76-2.45
	c-0.9-0.43-2.06-0.37-2.59-1.41c-0.41-0.81-1.95-0.41-1.78-1.76c-1.69-0.53-2.91-1.75-4.27-2.78c-2.52-1.9-5.24-3.53-7.48-5.78
	c-1.31-1.31-2.93-2.28-4.07-3.78c-0.04-0.05-0.27,0.04-0.3-0.01c-0.69-1.08-1.36-2.18-2.06-3.26c-0.64-0.98-1.79-1.39-2.48-2.41
	c-2.03-3-4.61-5.62-6.26-8.89c-1.37-0.48-0.77-2.02-1.55-2.88c-0.8-0.88-1.45-1.92-2.03-2.97c-0.52-0.94-1.7-1.59-1.38-2.93
	c-1.44-0.54-0.8-2.29-1.8-3.08c-1.01-0.79-0.37-2.54-1.8-3.08c-0.06-1.54-0.83-2.83-1.33-4.22c-0.64-1.76-1.46-3.44-2-5.23
	c-0.87-2.92-2.01-5.75-3.18-8.56c-0.74-1.78-1.51-3.5-1.34-5.54c0.06-0.66-0.7-1.38-1.18-2.25c0-1.06,0-2.33,0-3.6
	c-0.44-0.46-0.87-0.92-1.31-1.38c0-1.05,0-2.11,0-2.73c-0.89-2.09-1.63-3.81-2.51-5.88c0.17-1.27-0.6-2.66-1.17-4.18
	c-0.5-1.34-0.8-2.84-1.23-4.27c-0.45-1.52-0.06-3.28-1.17-4.29c-0.6-2.82-1.14-5.38-1.72-8.07c-0.26-0.26-0.63-0.63-1.01-1.01
	c-0.04-0.2-0.1-0.4-0.1-0.59c0.01-1.65-0.17-3.12-1.14-4.65c-0.67-1.06-1.59-2.26-1.48-3.86c0.09-1.36-1.55-2.37-1.21-3.93
	c-1.2-1.52-1.17-3.52-2.04-5.22c-0.95-1.85-1.43-3.93-3.04-5.42c0.52-1.97-1.37-3.3-1.37-5.2c0-0.89-0.75-1.78-1.21-2.66
	c-0.73-1.41-1.49-2.79-2.49-4.66c0-0.38,0-1.3,0-2.09c-1.31-1.39-2.36-2.73-2.82-4.74c-1.96-0.58-3.44,0.57-4.91,2.18
	c0.77,2.05-1.21,3.63-1.33,5.58c-0.94,1.01-1.88,2.01-2.75,2.94c-1.59,0-3.07,0-3.79,0c-2.88-1.06-5.09-1.88-7.34-2.71
	c0-0.65,0-1.27,0-2.08c-0.44-0.31-0.95-0.68-1.41-1.02C318.54,486.86,315.59,483.77,315.19,479.81z M356.13,266.38
	c-0.16,3.02,0.45,5.89-0.7,8.57c-0.41,0.97-0.57,1.9-0.64,2.93c-0.27,4.61,0.88,9.33-1.18,13.84c-0.48,1.06,0.01,2.52-0.1,3.79
	c-0.1,1.2-0.57,2.37-0.58,3.56c-0.07,4.89-0.05,9.77,0,14.66c0.01,0.77,0.37,1.53,0.57,2.33c-0.78,0.8-0.88,1.84-0.38,2.79
	c0.79,1.51,0.42,3,0.19,4.51c-0.07,0.48-0.38,0.95-0.38,1.42c-0.04,3.08,0.06,6.16-0.04,9.24c-0.1,3-0.96,5.94-0.63,8.98
	c0.08,0.73,0.3,1.68-0.05,2.19c-0.66,0.97-0.47,1.96-0.59,2.96c-0.14,1.09-0.54,2.16-0.59,3.24c-0.12,2.37,0.08,4.72-0.6,7.08
	c-0.48,1.68,0.08,3.43,0.75,4.93c2.34,1.53,4.93,0.45,7.39,0.98c0.33,0.38,0.68,0.77,1.01,1.15c0.57-0.56,1.1-1.08,1.63-1.6
	c0-0.65,0-1.29,0-1.82c0.78-0.82,1.51-1.59,2.28-2.4c0.49,0.11,1,0.17,1.47,0.34c0.46,0.16,0.88,0.43,0.78,0.38
	c1.49,2.78,1.17,5.39,1.2,7.97c0,0.32,0.02,0.64,0,0.96c-0.21,2.43,0.42,4.61,2.04,6.36c-0.52,1.4-0.88,2.63-1.42,3.79
	c-0.57,1.2-1.91,1.65-2.9,2.64c-1.91-0.26-3.95,0.35-5.91-0.46c-0.23,0.23-0.45,0.45-0.86,0.86c0.24,1.76-0.02,3.99,0.9,5.5
	c1.32,2.19,1.06,4.31,1.14,6.49c-0.42,0.42-0.8,0.8-1.19,1.19c0,0.48,0,0.98,0,1.39c1.06,0.53,2.03,1.01,2.93,1.47
	c1.52,0.3,3.08-0.31,4.65,0.66c0.48-1.22,0.95-2.4,1.52-3.85c1.22-0.22,2.58-0.47,3.52-0.64c2.87,3.04,5.44,5.75,7.99,8.45
	c2.02,0.26,3.94,0.51,5.76,0.75c0.6,1.41,1.21,2.85,1.74,4.08c1.44,0.54,2.25,1.35,2.58,2.49c1.3,0.67,2.71,1.09,3.71,1.98
	c1.36,1.21,3.03,1.5,4.59,2.05c1.77,0.62,3.77,0.66,5.48,1.39c1.54,0.65,3.2,0.96,4.5,0.46c1.88-0.73,3.68-0.29,5.39-0.55
	c2.64,2.79,6.3,3.6,9.34,5.48c0.89,0.55,1.55,0.39,2.19-0.32c0.01-0.01,0.14,0.1,0.59,0.44c0.34,0.81,0.83,1.98,1.4,3.36
	c0.61,0.67,1.41,1.5,2.16,2.37c0.72,0.84,1.29,2.28,2.13,2.45c1.44,0.29,1.66,1.57,2.5,2.26c1.98,1.63,4.33,2.48,6.4,3.82
	c1.76,1.14,3.51,1.85,5.4,1.89c0.44,1.8,1.73,2.97,2.87,3.44c2.23,0.93,2.43,3.09,3.65,4.59c-0.28,1.44,0.91,1.96,1.81,2.88
	c1.61-0.28,3.28-0.57,4.99-0.86c1.09,2.06,2.1,3.96,3.15,5.94c0.5-0.24,0.91-0.45,0.93-0.46c1.64,0.47,2.97,0.85,4.59,1.32
	c0.17,0.52,0.41,1.26,0.67,2.09c2.73,2.25,4.15,6.09,7.93,7.24c0.28,0.72,0.71,1.36,0.73,2c0.01,0.65-0.39,1.3-0.58,1.86
	c0.88,1.21,1.78,2.32,2.52,3.52c0.71,1.15,1.3,2.37,2.57,3.02c0,0.85,0,1.69,0,2.54c1.94,2.2,4.94,8.04,5.4,10.47
	c0.31,0.06,0.6,0.12,0.64,0.13c0.49,1.62,0.81,3.09,1.39,4.44c0.56,1.31,1.1,2.7,2.61,3.37c0.25,0.11,0.17,0.95,0.24,1.47
	c2.81,3.07,5.62,6.16,8.22,9c2.08,0.37,3.58-0.14,4.8-1.1c1.19,0,2.24,0,3.28,0c-0.11,0.13-0.21,0.26-0.32,0.38
	c0.64,0.39,1.28,0.78,1.72,1.05c0,1.52,0,2.78,0,3.69c-0.76,1.2-1.36,2.12-2.06,3.22c1.1,1.38,2.17,2.74,3.37,4.26
	c0,0.16,0,0.58,0,0.98c0.96,0.76,1.94,1.46,2.83,2.27c1.02,0.93,1.98,1.93,2.94,2.92c0.91,0.95,2.21,1.67,1.94,3.34
	c2.05,0.22,2.35,2.16,3.38,3.34c0.45,0.52,0.36,1.51,0.41,1.78c-0.77,0.92-1.23,1.47-1.7,2.03c-2.25-0.11-3.45-0.93-6.07-2.87
	c-1.84-1.37-4.09-2.18-6.19-3.27c0,1.28,0,2.63,0,4.19c1.98,1.14,0.78,3.44,1.35,5.01c0.55,0.17,0.83,0.25,1.2,0.37
	c0,1.18,0,2.32,0,3.46c0.11-0.04,0.23-0.07,0.34-0.11c0.76,1.71,1.52,3.41,2.26,5.08c-0.58,1.88-1.61,3.1-3.42,3.43
	c-2.15-0.73-3.08-2.41-3.99-4.29c-0.39-0.8,0.12-2.07-1.05-2.42c-1.2-0.36,0.07-1.82-1.18-2.28c-0.7-0.26-1.16-1.23-1.69-1.92
	c-0.17-0.22-0.15-0.57-0.27-0.84c-0.06-0.12-0.26-0.18-0.41-0.27c-0.29,0.31-0.56,0.6-0.74,0.79c0.99,1.93,0.52,4.38,2.54,5.87
	c0,0.86,0,1.79,0,2.72c2.35,1.56,2.03,4.57,3.73,6.46c-0.2,1.31,0.55,2.29,1.09,3.38c0.6,1.23,1.2,2.53,1.41,3.86
	c0.3,1.92,0.94,3.62,1.93,5.28c0.44,0.74,0.62,1.71,0.64,2.58c0.03,1.66,0.52,3.16,1.33,4.56c0.26,0.45,0.72,0.77,1.24,1.3
	c0,0.15,0,0.57,0,0.99c0.44,0.46,0.87,0.92,1.43,1.5c0,0.59,0,1.3,0,1.97c0.42,0.09,0.71,0.16,1.11,0.24c0,1.15,0,2.29,0,3
	c0.72,1.12,1.41,1.82,1.65,2.66c0.52,1.82,0.81,3.71,1.24,5.84c0.23,0.17,0.65,0.48,1.06,0.78c-0.53,2.21,0.48,3.96,1.64,5.43
	c0.77,0.97,0.78,1.85,0.8,2.4c0.99,1.86,1.48,3.68,2.65,4.75c1.27,1.16,2.05,2.54,2.95,3.88c0.92,1.37,1.69,2.85,2.52,4.26
	c0.35,0,0.67,0,1.23,0c1.12-1.25,2.34-2.62,3.42-3.81c0-1.59,0-2.86,0-3.73c1.33-2.29,2.49-4.27,3.83-6.56c0-0.22,0-0.86,0-1.32
	c1.51-2.07,2.48-4.23,3.17-6.51c0.32-1.05,0.1-2.44,0.72-3.18c1.45-1.73,1.35-3.67,1.16-5.58c-0.28-2.85,1.66-5.23,1.47-8.02
	c1.26-1.27,1.14-2.95,1.12-4.57c0.54-0.4,0.96-0.71,1.32-0.98c0-1.2,0-2.25,0-3.27c0.42-0.42,0.79-0.79,1.17-1.17
	c0.29-0.85-0.37-1.94,0.68-2.59c-0.26-1.45,1.19-2.35,1.26-3.6c0.13-2.37,1.03-4.64,0.71-7.07c-0.22-1.72-0.07-3.42-0.56-5.18
	c-0.45-1.6,0.15-3.41,0.41-5.14c0.45-2.91,0.07-5.93,0.15-8.9c0.02-0.89-0.4-1.54-0.63-2.3c-0.2-0.68-0.35-1.75,0.02-2.16
	c0.96-1.06,0.55-2.2,0.55-3.3c0.05-5.73,0.02-11.47,0.02-17.43c-0.38-0.29-0.88-0.68-1.29-0.99c0.22-2.88-1.06-5.47-0.62-8.2
	c-1.23-1.71-0.36-3.6-0.66-5.23c1.08-1.08,1.98-1.98,2.88-2.89c0.85,0,1.7,0,2.66,0c1.48-1.78,3-3.61,4.63-5.57
	c0.03-0.3,0.07-0.81,0.11-1.3c0.95-0.02,1.07-0.74,1.43-1.3c1.14-1.77,2.52-3.4,3.51-5.25c0.33-0.61,0.36-1.09,1.11-1.46
	c0.42-0.2,0.55-1.16,1.25-1.21c0.34-1.18,0.66-2.33,1.01-3.46c0.12-0.37,0.57-0.79,0.48-1.04c-0.51-1.46,1.28-1.96,1.25-2.99
	c-0.05-1.48,1.62-1.87,1.64-3.17c1.21,0.17,0.97-1.7,2.18-1.54c-0.16-1.26,1.63-1.52,1.41-2.96c-0.15-0.96,1.73-1.31,1.21-2.65
	c1.3-1.06,1.1-3.07,2.55-4.04c0-1.28,0-2.55,0-3.82c0.83-0.83,1.59-1.74,2.5-2.47c2.13-1.71,3.75-3.93,4.84-6.29
	c1.15-2.48,2.31-5.1,2.23-8c-0.03-1.28-0.27-2.61,0.54-3.98c-0.59,0.04-1.19-0.09-1.57,0.13c-1.68,0.97-3.17,2.11-4.13,3.94
	c-0.77,1.48-1.54,3.01-2.44,4.4c-1.2,1.84-1.85,3.93-3.02,5.79c-0.96,1.54-1.22,3.52-2.01,5.98c0.09-0.04-0.5,0.23-0.77,0.35
	c0,0.99,0,1.53,0,2.29c-1.06,0.69-2.23,1.46-3.42,2.24c-1.14-0.64-2.09-1.17-2.95-1.65c0-1.48,0-2.75,0-4.02
	c0.38-0.38,0.75-0.75,1.24-1.24c0-0.81,0-1.74,0-2.01c1.05-2.06,2.24-3.49,2.47-5.06c0.26-1.86,1.79-2.85,2.22-4.54
	c0.4-1.59,1.35-3.04,2.1-4.63c0.22-0.06,0.58-0.16,0.92-0.26c0-0.6,0-1.02,0-1.48c0.38-0.14,0.75-0.27,0.91-0.33
	c0.41-0.84,0.71-1.57,1.12-2.24c0.47-0.77,1.17-1.43,1.53-2.24c0.4-0.91,0.36-2.03,1.39-2.61c-0.59-1.92,1.87-2.95,1.4-4.84
	c0.95-1.1,1.04-2.58,1.63-3.78c0.78-1.59,2.44-2.75,2.2-4.83c0.94-0.94,1.62-2.02,2.01-3.31c0.37-1.24,2.08-1.71,1.97-3.27
	c1.67-0.52,1.71-2.49,2.97-3.34c1.37-0.93,1.78-2.54,2.78-3.74c1.15-1.37,2.42-2.85,2.91-4.5c0.46-1.51,1.3-2.07,2.46-2.79
	c2.66-1.66,5.17-3.54,8.05-5.55c-0.14,0,0.17,0,0.47,0c1.08-0.77,2.1-1.64,3.24-2.26c0.76-0.41,1.7-0.49,2.57-0.71
	c2.42-0.61,4.83-1.21,7.92-1.99c0.06-0.03,0.74-0.69,1.46-0.72c1.46-0.06,2.7-0.69,4.02-1.1c1.32-0.41,2.79-0.29,3.93-1.34
	c0.3-0.28,0.99-0.14,1.51-0.17c2.99-0.19,5.98-0.11,9-0.47c2.94-0.35,5.87-1.24,9.04-0.74c0-2.55,0.35-4.94-0.09-7.17
	c-0.57-2.9-1.25-5.75-1.19-8.73c0-0.19-0.09-0.38-0.14-0.58c-0.38-0.38-0.75-0.75-1.13-1.13c0-0.64,0-1.27,0-1.33
	c-1.93-4.56-5.59-7.8-5.12-12.75c-1.46-1.15-0.8-3.12-1.86-4.38c1.47-1.84-0.03-3.36-0.52-4.99c-0.09-0.29-0.18-0.61-0.13-0.89
	c0.51-3.05-1.81-5.67-1.29-8.72c-1.11-1.03-0.21-2.48-0.7-3.53c-0.56-1.2-0.53-2.37-0.58-3.57c-1.24-2.06-1.24-2.06-1.35-4.92
	c-0.61-0.96-0.93-1.98-1.63-2.43c-1.09-0.7-0.54-1.93-1.28-2.72c-0.58-0.62-0.84-1.54-1.25-2.34c-0.22-0.04-0.51-0.1-0.96-0.2
	c0.7-2.22-1.21-3.73-1.34-5.86c-0.11-1.82-1.55-3.55-2.47-5.48c0-1.11,0-2.37,0-3.55c-0.44-0.45-0.82-0.82-1.26-1.26
	c0.81-3.12-1.97-5.77-1.19-8.81c-1.37-1.39-0.78-3.39-1.57-4.58c-1.03-1.58-0.48-3.44-1.48-4.83c-1.07-1.48-0.7-3.14-0.79-4.22
	c-0.87-1.57-1.53-2.68-2.11-3.83c-0.62-1.23-1.68-2.53-1.61-3.73c0.1-1.61-1.55-2.05-1.56-3.62c0-1.2-1.45-2.38-1.08-3.88
	c-0.35-0.35-0.79-0.6-0.93-0.96c-1.27-3.2-2.45-6.42-4.16-9.44c-0.36-0.63-0.05-1.65-0.05-2.38c-0.81-0.92-2.02-3.88-2.58-5.44
	c-0.7-1.93-1.64-3.78-2.48-5.66c-0.45-1.14,0.38-2.37-0.59-3.61c-0.74-0.94-0.65-2.49-1.24-3.6c-0.71-1.33-0.8-2.7-0.9-4.1
	c-1.15-2.86-2.42-5.69-2.45-8.66c-0.8-1.67-1.53-3.18-2.46-5.12c0.21-1.27-0.65-2.8-1.06-4.45c-0.51-2.02-2.2-3.73-1.5-5.88
	c-0.51-0.51-0.89-0.89-1.38-1.38c0-0.81,0-1.74,0-2.7c-0.44-0.37-0.85-0.71-1.22-1.02c0-0.92,0-1.77,0-2.61
	c-0.59-0.94-1.17-1.96-1.21-2.99c-0.12-2.9-1.23-5.45-2.69-7.81c-0.82-1.32-2.19-2.29-3.33-3.41c-1.24-1.22-2.31-2.58-3.34-3.98
	c-0.6-0.81-1.19-1.64-1.81-2.44c-0.61-0.8-0.55-1.83-1.27-2.7c-0.85-1.02-1.96-1.89-2.41-3.39c-0.34-1.13-2.05-1.74-1.92-3.34
	c-1.43-0.37-1.65-1.82-2.4-2.78c-0.68-0.86-1.27-1.8-1.83-2.74c-0.5-0.84-0.71-2.01-1.41-2.55c-0.91-0.69,0.02-2.51-1.71-2.47
	c-0.03-2.16-1.96-3.18-2.91-4.79c-1.12-1.89-2.18-3.9-3.7-5.44c-0.92-0.93-1.01-2.17-2-3.08c-1.55-1.43-2.01-3.91-4.32-4.74
	c0-0.44,0-0.86,0-1.13c-1.47-1.19-2.76-2.37-3.81-3.83c-0.57-0.8-1.14-1.6-1.81-2.31c-0.56-0.58-1.33-0.95-1.89-1.53
	c-0.54-0.56-0.92-1.28-1.39-1.91c-1.06-1.41-2.05-2.89-3.21-4.2c-1.17-1.32-2.65-2.38-3.21-4.18c-0.05-0.17-0.56-0.15-0.8-0.31
	c-2.01-1.32-4.13-2.5-5.97-4.02c-2.96-2.44-6.39-4.13-9.52-6.27c-0.32-0.22-0.63-0.45-0.85-0.6c-1.69,0.56-1.69,0.56-4.93,0.04
	c-0.78-0.92-1.63-1.94-2.69-3.19c-0.39-0.12-1.14-0.37-1.89-0.61c-2.06-0.66-4.22-1.12-6.16-2.04c-2.23-1.05-4.46-1.64-6.91-1.83
	c-4.1-0.32-8.09,0.99-12.17,0.68c-1.29,0.94-2.91,0.71-4.34,1.01c-2.54,0.54-4.98,1.57-7.67,1.61c-1.53,0.02-3.15,0.57-4.54,1.27
	c-0.99,0.5-1.82,1.16-3.01,1.23c-1.2,0.07-2.29,0.64-3.56,0.68c-1.6,0.06-3.16,0.84-4.84,0.57c-0.68,1.04-2.16,0.33-2.95,1.46
	c-0.43,0.61-1.54,0.78-2.37,1.08c-0.74,0.27-1.52,0.42-2.28,0.66c-0.17,0.05-0.46,0.29-0.44,0.34c0.45,1.26-1.57,0.57-1.3,1.66
	c-1.59,0.91-2.94,2.29-4.91,2.59c-0.03,0.03-0.1,0.12-0.18,0.18c-1.24,0.91-1.85,2.6-3.57,2.93c-0.34,1.84-2.05,1.95-3.28,2.71
	c-0.53,0.33-0.79,1.12-1.18,1.71c-0.41,0-0.83,0-1.43,0c-1.17,1.21-2.24,2.78-3.72,3.73c-1.36,0.88-2.78,1.81-3.82,2.9
	c-1.13,1.18-2.62,2.02-3.46,3.55c-0.77,1.41-2.77,1.89-3.41,3.27c-0.78,1.65-2.35,2.16-3.41,3.32c-1.18,1.28-2.17,2.72-3.37,4.24
	c0,0.2,0,0.61,0,0.97c-0.45,0.28-1.01,0.44-1.21,0.8c-0.67,1.18-1.42,2.21-2.55,3.05c-1.42,1.05-2.05,2.95-3.78,3.72
	c-0.45,2.49-2.36,4.13-3.58,6.17c-0.65,1.09-1.37,2.28-1.5,3.49c-0.12,1.08-0.82,1.62-1.15,2.42c-0.39,0.94-0.43,2-1.42,2.55
	c-0.09,2.92-0.9,5.56-2.66,8.14c0,0.58,0,1.42,0,2.24c-0.41,0.17-0.77,0.32-1.25,0.51c0,0.66,0,1.38,0,1.79
	c-0.54,0.74-1.07,1.19-1.23,1.74c-0.54,1.9-1.54,3.63-2.03,5.54c-0.51,2.01-1.45,3.88-2.18,5.79c-0.57,1.48-0.91,2.85-0.92,4.3
	c-0.44,0.44-0.81,0.81-1.23,1.23c-0.03,0.67-0.07,1.38-0.09,2.01c-0.46,0.46-0.84,0.84-1.22,1.22c0,0.63,0,1.27,0,1.71
	c-1.51,2.12-2.38,4.31-2.7,6.72c-0.38,0.38-0.75,0.75-1.13,1.13c0,0.64,0,1.27,0,2.12c-0.38,0.3-0.88,0.69-1.31,1.03
	c0,0.77,0,1.4,0,1.99c-0.41,0.41-0.79,0.79-1.24,1.24c0,0.34,0,0.76,0,1.17c0,0.51,0,1.02,0,1.48c-0.52,0.18-0.89,0.31-0.81,0.29
	c-0.58,1.03-0.99,1.7-1.32,2.4c-0.34,0.71-0.53,1.49-0.93,2.16c-0.62,1.03-1.35,1.99-2.04,2.98c0.69,1.6-1.16,2.27-1.33,3.61
	c-0.09,0.72-1.11,1.33-1.16,2.03c-0.19,2.72-1.73,4.82-2.87,7.12c-0.39,0.79-0.71,1.62-0.99,2.45c-0.18,0.54-2.12,4.47-2.59,5.03
	c0,1.02,0,2.08,0,3.15c-1.88,1.39-2.12,3.86-3.62,5.5c-0.12,0.13-0.16,0.37-0.16,0.56c-0.02,0.52-0.01,1.04-0.01,1.5
	c-0.44,0.44-0.81,0.81-1.1,1.1c-0.19,1.1-0.23,2.15-0.58,3.08c-0.42,1.13-1.08,2.15-0.92,3.46c0.05,0.41-0.44,0.86-0.59,1.33
	c-0.33,1.04-0.59,2.1-1.05,3.75c0,0-0.54,0.34-0.86,0.54c-0.08,1.95,0.01,3.49-0.98,5.05c-0.75,1.19-0.63,2.9-0.97,4.36
	c-0.23,0.96-0.59,1.89-1,3.2C356.93,265.58,356.56,265.96,356.13,266.38z M483.46,553.99c0,0.84,0,1.79,0,2.7
	c-1.3,0.14-1.79,1.09-2.49,1.83c0,0.67,0,1.28,0,1.81c-1.37,1.49-2.8,2.57-4.35,2.19c-0.82-0.79-1.26-1.22-2.06-1.99
	c-0.68-1.43,1.78-3.41,0.06-5.24c0.99-1.19,2.09-2.05,3.56-2.35c0.08-0.02,0.14-0.15,0.48-0.54c0.41-1.87,0.9-4.1,1.4-6.35
	c1.64-0.51,2.4-2.09,3.63-3.05c0-1.22,0-2.26,0-3.27c0.45-0.16,0.82-0.29,1.18-0.41c0-1.34,0-2.61,0-4.01
	c0.73-0.59,1.52-1.22,2.54-2.05c0-0.57,0-1.49,0-2.45c1.17-0.53,1.23-2.1,2.56-2.4c0-0.43,0-0.85,0-1.09
	c-1.26-1.18-2.42-2.28-3.76-3.53c0-0.66,0-1.58,0-2.47c0.42-0.42,0.79-0.79,1.17-1.17c0.04-0.71,0.07-1.43,0.1-2.1
	c0.49-0.17,0.86-0.3,1.21-0.42c0-0.5,0-0.92,0-1.35c1.89-0.45,2.39-2.46,3.83-3.41c0.22-2.07,1.49-3.64,2.75-5.4
	c-2.76-2.27-4.36-5.53-7.33-7.65c-0.44,0.5-0.78,0.88-1.18,1.34c0,0.72,0,1.57,0,2.39c-0.48,0.48-0.88,0.98-1.38,1.37
	c-2.82,2.2-3.63,1.87-6.1,0c-0.5-0.38-0.86-0.95-1.37-1.33c-1.35-1.02-2.41-2.45-4.3-3.11c-1.9,2.78-3.76,5.5-5.78,8.46
	c-3,0.54-4.73,3.53-7.49,5.08c-1.01,0-2.06,0-3.22,0c-0.89-0.93-1.83-1.93-2.85-2.99c0-0.71,0-1.56,0-2.41
	c-0.13,0.12-0.26,0.25-0.39,0.37c-0.19-0.52-0.39-1.04-0.5-1.32c-0.43,0-0.57-0.04-0.64,0.01c-0.25,0.19-0.48,0.4-0.61,0.52
	c-2.08,0-4.07,0-6.1,0c-0.9-1.74-2.25-3.22-1.99-5.05c0.65-0.96,1.15-1.71,1.55-2.3c0.94-0.5,1.64-0.99,2.39-1.6
	c0.94-0.77,1.29-1.99,2.31-2.55c2.82-1.54,3.96-4.71,6.49-6.51c-0.48-1.27,1.86-0.63,1.32-1.95c0.71-0.53,1.5-1,2.13-1.62
	c2.02-1.97,3.96-4.02,5.02-6.83c-0.65-1.35-1.29-2.68-2.05-4.24c0-0.24,0-0.77,0-1.3c-1.34-1.78-4.01-2.24-4.53-4.86
	c-0.72,0.06-1.3,0.11-2.24,0.19c0.7,0.94,1.17,1.58,1.71,2.29c0,0.96,0,2.01,0,3.03c1.33,0.93,1.62,2.44,1.78,3.74
	c0.19,1.49-1.1,2.54-2.08,3.45c-2.37,0.58-3.52-1.1-4.86-2.44c-1.73-1.73-3.75-2.73-6.39-2.55c0,1.34,0,2.48,0,3.3
	c-0.95,0.7-1.66,1.23-2.39,1.77c-2.11,0-4.24,0.02-6.36,0c-3.24-0.03-5.92,1.08-7.76,3.56c0.99,0.98,1.88,1.85,2.44,2.41
	c0,1.58,0,2.5,0,3.43c-0.15-0.12-0.29-0.24-0.44-0.36c-0.37,0.65-0.74,1.31-1.21,2.15c-1.63-0.62-3.1-1.17-4.51-1.7
	c-0.43-2.08-1.23-3.62-2.56-5.02c-1.27,0.53-2.72,0.83-2.88,2.36c-2.32-1.32-4.43,1.06-6.27,0.23c-2.15,1.16-4.05,2-6.26,1.88
	c-2.05-0.11-3.94,0.81-5.92,1.05c-2.33,0.29-4.7,0.66-7.06-0.27c-2.39-0.95-4.97-1.31-7.44-2.03c-0.54-0.16-1.22,0.06-1.81,0.2
	c-1.84,0.44-3.61,1.3-4.96,1.08c-2.75-2.08-5.1-3.71-7.3-5.55c-2.94-2.46-6.16-4.41-9.64-5.99c-1.44-0.66-2.78-1.55-4.56-2.56
	c-1.11-0.13-2.82,0.46-4.27-0.62c-4.12,1.08-4.99,2.28-8.21,0.24c0-1.08,0-2.13,0-2.91c0.65-0.95,1.15-1.68,1.65-2.42
	c1.37-1.49,3.35-0.14,4.97-1.11c1.13-0.67,2.72-0.65,4.12-0.78c1.3-0.12,2.61-1.46,3.95-0.04c0.1,0.11,0.47,0.1,0.61,0
	c1.83-1.22,3.87-0.52,5.8-0.58c1.45-0.04,2.87-0.15,4.19-0.7c2.1-0.88,4.17-1.68,6.43-2.22c3.24-0.77,6.68-1.06,9.63-2.86
	c1.55,0.31,2.81-0.57,3.89-1.34c1.44-1.02,2.99-0.29,4.46-0.82c2.13-0.78,4.41-1.21,6.65-1.62c0.71-0.13,1.53,0.31,1.93,0.41
	c1.31-0.18,2.3-0.48,3.27-0.42c1.88,0.11,3.63-0.3,5.35-0.98c0.37-0.14,0.77-0.2,1.14-0.33c1.99-0.74,4.21-0.37,6.16-1.27
	c1.65-0.77,3.25-0.98,4.87,0.46c1.14,2.08,1.45,2.3,4.29,2.94c0.12,0.37,0.25,0.73,0.22,0.67c1.95,0.87,3.57,1.58,5.18,2.31
	c1.76,0.8,3.63,1.56,5.51,1.2c1.78-0.33,3.4,1.55,5.39,0.23c-1.21-1.84-3.2-2.68-4.24-4.41c-0.16-0.27-0.72-0.27-1.05-0.48
	c-0.68-0.42-1.33-0.9-2-1.34c-0.13-0.09-0.29-0.13-0.43-0.18c-0.4,0.4-0.77,0.78-0.9,0.9c-1.89,0.31-3.49,0.57-5.16,0.85
	c-0.97-0.49-2.02-1.03-2.62-1.34c-0.74-1-1.22-1.64-1.75-2.35c0-1.81,0-3.71,0-5.5c-1.26-1.71-1.62-3.88-3.59-5.01
	c-0.71-0.41-0.96-1.59-1.64-2.12c-0.79-0.61-0.91-1.67-1.88-2.2c-0.63-0.35-1.06-1.16-1.74-1.67c-0.7-0.52-1.02-1.74-1.74-2
	c-0.99-0.35-0.97-1.54-2.1-1.79c-0.66-0.14-0.92-1.73-1.63-2.04c-2.06-0.88-3.01-2.87-4.66-4.12c-1.7-1.28-3.33-2.67-5.12-3.8
	c-2-1.27-3.8-2.82-6.09-3.76c-1.38-0.57-2.94-0.72-4.15-1.5c-2.5-1.6-5.42-1.82-8.11-2.73c-1.42-0.48-3.3-0.53-4.72,0.57
	c-1.85-0.89-3.57-2.27-5.41-2.46c-2.48-0.25-4.18-1.8-6.77-2.63c-2.11,0.44-4.22-0.79-6.2-2.03c-1.19,0.61-2.23,1.15-2.97,1.54
	c-0.58,1.02-1.17,1.75-1.41,2.58c-0.25,0.87-0.17,1.84-0.23,2.72c-0.41,0.41-0.79,0.79-1.28,1.28c0,0.6,0,1.31,0,1.69
	c-0.87,0.65-1.51,1.13-2.29,1.71c-1.9,0.55-3.49-0.73-5.32-1.56c0-1.73,0-3.5,0-5.22c-1.78-1.45-2.92-3.45-5.03-4.34
	c0.5-1.8-2.37-2.59-1.05-4.69c-0.62-0.41-1.15-0.75-1.58-1.03c0-1.06,0-1.89,0-2.73c-1.48-0.75-0.96-2.73-2.32-3.52
	c0.22-1.55-1.1-2.57-1.37-3.88c-0.57-2.76-2.11-5.4-1.3-8c-3.27-5.18-6.53-9.93-11.28-13.33c-3.2-1.01-6.11-3.08-10.01-2.61
	c0.33-0.83,0.53-1.31,0.82-2.06c-2.2-1.25-4.63-2.28-6.65-3.85c-2.21-1.72-4.93-2-7.27-3.28c-2.3-1.26-5.05-0.86-7.46-1.68
	c-1.45,2.06-1.96,3.14-1.47,4.87c0.42,1.49,0.7,3.09,1.83,4.35c0.44,0.49,0.62,1.21,1.2,2.43c0.4,0.4,1.32,1.27,2.19,2.21
	c0.59,0.64,1.09,1.37,1.66,2.03c0.62,0.73,1.28,1.44,1.91,2.16c-0.72,1.57,1.21,1.98,1.43,3.25c0.19,1.1,1.1,2.08,1.73,3.09
	c0.64,1.02,1.27,2.05,2.03,2.98c0.77,0.95,1.71,1.76,2.53,2.68c2.14,2.41,3.13,5.57,5.12,8.06c1.13,1.42,1.19,3.49,2.94,4.56
	c0.99,0,2.05,0,3.13,0c0.97,0.71,1.95,1.42,2.83,2.06c0,1.05,0,1.9,0,2.73c-1.59,1.59-3.17,3.17-4.43,4.43
	c-1.12,0.41-1.86,0.68-2.29,0.84c-3.4-0.17-3.07-3.67-4.92-4.85c-0.89,0-1.6,0-2.41,0c0.34,3.11-0.58,6.16,0.68,9.08
	c-0.48,3.04,0.73,5.96,0.66,8.98c-0.02,1.09,0.02,2.13,0.49,3.29c0.67,1.63,0.69,3.6,0.71,5.42c0.02,1.46,0.31,2.82,0.68,4.2
	c0.34,1.25,0.62,2.52,0.99,4.03c0.18,0.17,0.56,0.53,0.95,0.9c-0.07,1.76,0.21,3.45,0.52,5.19c0.4,2.27,0.26,4.67,0.05,6.99
	c-0.21,2.33,0.78,4.47,0.69,6.75c-0.05,1.37-0.01,2.74-0.01,4.01c1.3,1.38,1.36,3.01,1.27,4.54c0.53,0.49,0.92,0.85,1.29,1.19
	c0,0.67,0,1.31,0,1.93c0.38,0.38,0.76,0.76,0.92,0.92c0.35,1.11,0.64,1.95,0.89,2.8c0.68,2.27,1.42,4.52,1.97,6.83
	c0.27,1.11,0.52,2.31,1.44,2.87c1.04,0.64,2.24,1.52,3.38,0.83c0.45-1.17,0.66-2.19,1.2-2.98c0.71-1.01,0.22-2.04,0.38-3.04
	c0.16-0.99,0.78-1.83,0.68-2.93c-0.09-1.01-0.17-2.24,0.33-3.02c0.78-1.22-0.27-1.9-0.33-2.39c0.33-1.04,0.54-1.7,0.87-2.78
	c0.77-0.6,2.1-1.31,2.97-2.39c0.88-1.1,1.97-1.84,2.88-2.65c1.17,0,2.21,0,2.66,0c1.12,1.02,1.9,1.72,2.55,2.31
	c0.72,1.98,1.48,3.8,1.71,5.82c0.18,1.54,0.8,3.05,1.31,4.54c0.47,1.39,0.92,2.83,1.63,4.1c0.78,1.39,0.71,3.09,1.84,4.36
	c0.63,0.71,0.96,1.71,1.29,2.63c0.43,1.21,0.4,2.75,1.17,3.62c1.06,1.22,0.46,2.78,1.38,3.94c0.48,0.6,0.71,1.4,1.36,2.74
	c0,0.42,0,1.56,0,2.7c0.11-0.03,0.21-0.07,0.32-0.1c0.82,1.79,1.63,3.58,2.49,5.46c0.72,0,1.43,0,2.23,0c0,0.74,0.07,1.38-0.02,1.99
	c-0.08,0.47-0.43,0.89-0.55,1.36c-0.1,0.4-0.24,1.02-0.04,1.22c1.2,1.18,0.31,2.63,0.77,4.24c0.22,0.17,0.72,0.56,1.15,0.9
	c0,0.99,0,1.83,0,2.64c0.41,0.41,0.78,0.78,1.16,1.16c0.07,0.92-0.2,2.17,0.29,2.72c1.45,1.61,0.57,4.04,2.17,5.52
	c0.18,0.16,0.13,0.58,0.17,0.87c0.22,1.51,0.03,3.25,0.74,4.45c0.85,1.43-0.14,3.16,1.13,4.33c-0.13,1.86,1.13,3.55,0.69,5.46
	c-0.04,0.16,0.14,0.36,0.21,0.54c0.29,0.08,0.58,0.15,1.09,0.28c0,0.73,0,1.52,0,2.44c0.5,0.32,0.94,0.6,1.41,0.9
	c-0.98,2.26,1.01,3.71,1.17,5.66c0.15,1.96,1.6,3.71,1.3,5.16c0.52,1.62,0.87,2.64,1.18,3.67c0.58,1.89,1.08,3.8,1.72,5.66
	c0.69,2.05,1.22,4.22,2.31,6.04c1.16,1.93,1.06,4.22,2.31,6.08c0.75,1.12,0.99,2.58,1.71,3.74c0.72,1.17,0.49,2.66,1.17,3.65
	c0.92,1.33,1.4,2.91,2.34,4.12c1.04,1.33,1.21,2.94,2.08,4.27c0.39,0.58,0.71,1.21,1.14,1.76c1.43,1.81,1.95,4.2,3.7,5.81
	c0.12,0.11,0.03,0.42,0.13,0.57c1.57,2.2,2.99,4.56,4.83,6.51c0.79,0.84,1.36,1.87,2.29,2.63c0.91,0.76,2.13,1.42,2.32,2.83
	c1.06,0.12,1.15,1.2,1.76,1.75c0.74,0.68,1.54,1.42,2.46,1.73c1.15,0.39,1.82,1.23,2.69,1.9c0.93,0.71,2.07,1.14,3,1.95
	c1.13,0.98,2.39,1.85,3.72,2.54c1.35,0.7,2.21,1.96,3.61,2.66c1.96,0.98,3.66,2.48,5.44,3.81c0.89,0.67,1.5,1.62,2.65,2.07
	c0.98,0.39,1.77,1.27,2.65,1.93c0.81,0.61,1.68,1.14,2.43,1.82c1.18,1.07,2.16,2.37,3.42,3.33c1.29,0.98,2.14,2.33,3.32,3.37
	c1.64,1.43,3.33,2.79,5,4.18c-0.01,0.84,0.16,1.58,0.62,2.03c0.87,0.85,1.85,1.61,2.88,2.26c1.11,0.7,1.35,2.09,2.6,2.77
	c0.98,0.53,1.71,1.76,2.26,2.83c0.64,1.23,1.61,2.12,2.52,3.1c2.94,3.14,5.88,6.27,8.78,9.43c0.82,0.9,1.34,2.18,2.31,2.81
	c1.16,0.76,1.68,1.77,2.2,2.91c0.07,0.16,0.3,0.24,0.47,0.35c1.21,0.73,1.91,1.94,2.82,2.96c1.04,1.18,2.82,1.52,3.41,3.33
	c0.22,0.68,1.45,0.97,2.07,1.59c0.62,0.62,0.9,1.72,1.6,2.08c0.96,0.49,1.76,1.08,2.35,1.9c0.57,0.79,0.94,1.73,1.41,2.59
	c0.05,0.09,0.14,0.16,0.23,0.21c3.12,1.7,4.93,4.83,7.7,6.85c0.64,0.22,1.5,0.37,1.8,0.86c0.43,0.69,0.68,1.39,1.71,1.52
	c0,0.49,0,0.99,0,1.17c2.1,1.93,3.99,3.67,5.93,5.45c3.79,0.55,7.18,2.46,10.71,3.94c1,0.42,1.86,1.81,2.72,1.75
	c1.45-0.11,1.89,1.16,2.98,1.43c1.13,0.28,2.21,0.8,3.3,1.25c0.74,0.31,1.03,1.16,2.01,1.33c1.45,0.24,2.78,0.87,4.03,1.81
	c1.78,1.34,3.9,2,6.19,1.96c3.01-0.06,5.69,0.94,8.46,2.55c1.44,0,3.14-0.12,4.82,0.03c1.7,0.15,3.2-0.46,4.75-0.9
	c1.61-0.45,3.16-1.19,4.74-1.59c2.02-0.52,3.68-1.35,5.31-2.63c2.54-1.99,4.66-4.52,7.68-5.9c0.72-0.33,1.51-1.06,1.76-1.78
	c0.55-1.56,1.79-1.98,3.08-2.55c1.86-0.82,3.48-1.99,4.98-3.43c1.43-1.38,2.72-2.93,4.23-4.16c1.11-0.9,1.62-2.36,2.85-2.92
	c1.4-0.65,2.22-1.84,3.33-2.75c0.38-0.31,0.91-0.43,1.27-0.75c0.4-0.35,0.61-0.94,1.04-1.24c1.63-1.17,3.32-2.25,4.96-3.39
	c2.32-1.61,4.36-3.6,6.86-4.98c0.96-0.53,1.66-1.46,2.61-2.1c0.99-0.67,1.06-2.45,2.5-2.99c0.14-0.05,0.2-0.33,0.28-0.51
	c1.3-2.83,2.95-5.42,5.07-7.74c1.48-1.61,2.41-3.65,3.38-5.6c0.72-1.43,2.1-2.31,2.88-3.6c0.76-1.25,1.92-2.2,2.57-3.35
	c1.48-2.59,3.59-4.5,5.55-6.61c0.97-1.05,1.78-2.24,2.72-3.32c0.93-1.07,1.72-2.13,2.37-3.47c1.14-2.34,3.04-4.3,4.36-6.07
	c0.88-1.77,1.59-3.16,2.27-4.58c0.68-1.42,0.78-3.07,1.81-4.35c-0.5-1.81,1.2-2.89,1.53-4.49c0.31-1.52,1.3-2.91,1.16-4.8
	c0.39-0.3,0.89-0.69,0.85-0.66c0.6-1.81,1-3.03,1.41-4.24c0.32-1.44,0.59-2.81,1.24-4.29c0.81-1.84,2.28-3.68,1.58-5.86
	c0.5-0.5,0.87-0.87,1.36-1.36c0-0.81,0-1.74,0-2.55c0.41-0.41,1-0.75,0.97-1.01c-0.2-1.52,1.63-2.15,1.51-3.53
	c-0.12-1.44,1-2.36,1.33-3.61c0.22-0.83,1.14-1.56,1.16-2.35c0.04-1.42,0.94-2.42,1.27-3.63c0.36-1.34-0.03-2.82,0.67-4.2
	c0.44-0.86,0.59-1.92,0.65-2.9c0.13-2.15-0.15-4.32,0.63-6.44c0.41-1.12,0.55-2.35,0.65-3.55c0.11-1.37-0.13-2.78,0.07-4.14
	c0.22-1.56,0.75-3.07,1.12-4.48c-0.19-0.62-0.66-1.34-0.47-1.72c1.03-2,0.45-4.09,0.57-6.14c0.08-1.32-0.1-2.67,0.65-3.88
	c0.82-1.31,0.54-2.77,0.66-4.19c0.16-1.83-0.61-3.77,0.61-5.47c-0.86-1.42,0.64-2.99-0.07-4.21c-0.72-1.23-0.46-2.4-0.55-3.6
	c-0.06-0.85,0.07-1.71-0.04-2.55c-0.09-0.67-0.26-1.42-0.64-1.95c-0.74-1.03-0.6-2.14-0.6-3.26c-0.01-1.38,0-2.75,0-3.8
	c-0.53-0.85-1.07-1.41-1.24-2.06c-0.38-1.44-1.81-2.49-1.5-4.16c-1.25-0.46-0.79-1.94-1.63-2.7c-0.78-0.7-1.4-1.58-1.92-2.19
	c0-1.29,0-2.33,0-3.28c1.58-0.95,2.66-2.85,4.84-2.02c0.23,0.23,0.42,0.5,0.68,0.67c0.58,0.38,1.19,0.71,1.86,1.1
	c3.21,0,3.21,0,5.02,0.82c1.18,3.47,3.89,5.55,5.61,8.1c0.66,0,0.98,0,0.81,0c0.75-0.83,1.27-1.4,1.85-2.04
	c-1.32-3.47-1.32-3.47,0.38-6.03c1.05-0.31,2.09-0.63,3.04-0.91c2.05,1.09,3.3,2.79,4.37,4.73c0.52-0.38,0.82-0.67,1.18-0.83
	c1.59-0.7,3.02-1.81,3.98-3.1c1.2-1.62,1.82-3.68,2.67-5.56c0.86-1.89,1.41-3.91,2.17-5.79c0.81-1.99,0.97-4.07,1.49-6.06
	c0.7-2.65,0.62-5.53,0.73-8.31c0.06-1.47,0.15-2.85,1.22-3.95c0.08-0.93-0.12-2.02,0.3-2.75c1.28-2.2,1.01-4.55,1.07-7.14
	c0.37-0.28,0.87-0.66,1.31-0.98c0-1.43,0-2.69,0-3.87c1.48-2.63,1.48-2.63,0.78-4.08c0.4-2.06,0.86-3.79,1.05-5.56
	c0.18-1.72,0.18-3.43,0.58-5.17c0.42-1.8,0.09-3.78,0.09-5.58c0.47-0.47,0.85-0.85,1.27-1.27c0-1.22-0.5-2.87,0.11-3.66
	c0.98-1.26,0.21-2.58,0.85-3.84c0.6-1.19,0.25-2.86,0.31-4.32c0.03-0.81,0.28-1.54,0.54-2.32c0.47-1.4,0.99-2.89,0.76-4.49
	c-0.2-1.37,0.16-2.63,1.23-3.66c0-2.09,0-4.21,0-6.33c0.44-0.46,0.87-0.92,1.31-1.38c0-1.48,0-2.96,0-4.43
	c1.09-0.99,1.31-2.25,1.27-3.64c-0.05-1.8-0.05-3.61,0-5.42c0.04-1.38-0.19-2.64-1.29-3.67c0-0.38-0.02-0.8,0-1.22
	c0.3-4.79-0.66-9.64,0.6-14.4c0.15-0.55-0.08-1.21-0.2-1.81c-0.15-0.79-0.37-1.56-0.57-2.37c-0.88-1.02-1.81-2.11-2.95-3.44
	c-0.54-0.27-1.42-0.72-2.57-1.31c-2.43,0-5.22-0.25-7.93,0.08c-2.42,0.29-4.85,0.67-7.03,2.27c-2.15,1.58-4.11,3.39-6.23,4.96
	c-2.44,1.8-4.16,4.2-6.1,6.38c-2.29,2.57-3.62,5.92-5.12,9c-1.06,2.17-1.76,4.55-2.96,6.44c-0.88,0.43-1.59,0.78-1.92,0.94
	c-1.52,2.17-2.74,4.09-3.74,6.14c-0.34,0.7-0.49,1.53-0.94,2.15c-0.55,0.77-1.32,1.38-2,2.05c-0.14,0.14-0.31,0.26-0.43,0.36
	c-1.1,0-2.15,0-3.25,0c-0.14-0.38-0.19-0.82-0.42-1.1c-0.33-0.4-0.79-0.69-0.92-0.81c0-1.28,0-2.2,0-3.1
	c0.34-0.02,0.55-0.04,1.19-0.09c-0.47-1.22,0.4-1.93,1.11-2.81c0.66-0.81,1.36-1.97,1.28-2.91c-0.12-1.48,1.7-1.76,1.5-3.32
	c-0.11-0.83,1.47-1.55,1.21-2.97c-0.21-1.09,2.05-1.43,1-3.06c-0.33-0.17-0.86-0.44-1.44-0.74c-3.17,0-6.43,0-9.72,0
	c-0.07,0.59-0.12,1.1-0.18,1.59c-1.11,0.46-2.17,1.18-3.29,1.29c-1.41,0.14-1.98,1.31-3.02,1.86c-1.07,0.57-2.01,1.37-3.23,2.22
	c-0.38-0.11-1.02-0.29-1.73-0.49c-1.96,0.83-4.03,1.71-6.12,2.59c-0.49-0.69-0.84-1.17-1.15-1.61c0.32-0.42,0.52-0.68,0.86-1.12
	c-0.74,0-1.15,0-1.88,0c-0.59,0.78-1.24,1.82-2.07,2.7c-0.74,0.79-1.86,1.28-2.48,2.13c-0.65,0.9-1.42,1.7-2.11,2.55
	c-0.78,0.95-1.21,2.12-1.88,3.02c-0.58,0.77-0.83,1.9-2.05,2.43c-0.8,0.35-1.08,1.88-1.46,2.64c1.21,0.85,2.41,1.45,3.28,2.37
	c1.29,1.36,1.58,3.76,0.28,4.61c-1.48,0.97-1.48,2.73-2.77,3.69c-0.35,0.26-0.27,1.08-0.42,1.74c0.68,0.33,1.21,0.59,1.75,0.84
	c0.53,0.25,1.07,0.48,1.69,0.76c1.56-1.55,1.04-4.03,3.45-5.69c1.14-0.65,3.13-0.11,4.74-0.24c2.97,1.68,6.08,2.56,7.83,5.05
	c0.7,0.05,1.1,0.08,1.46,0.1c0.1,0.4,0.18,0.69,0.24,0.92c1.69,0.62,3.32,1.31,5.01,1.84c3.24,1,6.31,2.71,9.89,2.29
	c2.77-0.32,4.92,0.91,6.82,3c-0.17,0.61-0.36,1.25-0.51,1.78c0.19,0.71,0.37,1.37,0.55,2.04c0.78,0.35,1.58,0.72,2.08,0.94
	c0.69,1.08,1.22,1.91,1.78,2.8c-0.66,1-1.25,1.9-1.85,2.82c-1.38,0-2.96,0.43-4.1-0.09c-2.86-1.29-5.94-1.53-8.88-2.4
	c-2.6-0.77-5.26-1.53-8.06-1.35c-1.38,0.08-2.77,0.08-4.14-0.01c-0.67-0.05-1.31-0.39-1.37-0.41c-1.75,0.24-2.96,0.28-4.1,0.59
	c-1.16,0.32-2.24,0.92-4.02,1.67c2.36,0.41,4.05,0.6,5.68,1.02c1.7,0.44,3.33,0.61,4.6,0c1.97,0.59,3.66,1.12,5.36,1.61
	c0.86,0.25,1.73,0.57,2.6,0.62c2.15,0.13,4.28,0.07,6.45,0.56c1.77,0.4,3.53,0.75,5.1,1.58c2.18,1.15,4.38,2.24,6.57,3.37
	c2.19,1.13,4.27,2.47,6.26,3.63c-0.27,1.45-0.5,2.73-0.76,4.16c-1,1.1-2.4,1.44-4.03,1.4c-2.96-0.08-5.93-0.02-8.62-0.02
	c-1.43,0.85-2.82,1.33-3.21,2.95c-0.09,0.37-0.77,0.6-1.19,0.87c-0.76,0.48-1.55,0.89-2.28,1.4c-2.83,1.98-5.68,3.93-8.25,6.28
	c-0.71,0.64-1.69,0.98-2.37,1.37c-0.83-0.33-1.5-0.41-1.91-0.78c-1.27-1.16-2.46-0.64-3.63,0.04c-0.95,0.56-1.84,1.23-2.71,1.92
	c-0.26,0.21-0.29,0.68-0.51,0.97c-0.81,1.09-2.7,2.11-4.55,2.86c-1.93,0.78-4.19,0.62-5.89,1.91c-2.15,1.64-4.71,2-7.19,2.67
	c-0.29,0.7-0.58,1.41-0.86,2.07c2.15,1.97,4.72,2.62,7.28,2.8c2.15,0.15,3.7,0.84,4.88,2.41c0,0.67,0,1.21,0,1.95
	c-0.88,0.64-1.85,1.36-2.73,2.01c-0.53-0.2-0.97-0.48-1.43-0.53c-0.84-0.08-2.01,0.32-2.48-0.1c-1.31-1.17-2.96-0.18-4.38-1.09
	c-1.17-0.74-2.96-0.46-4.44-0.76c-2.04-0.42-4.1-0.84-6.07-1.5c-1.39-0.46-2.75-1.16-3.92-2.03c-1.28-0.95-2.82-0.87-4.19-1.46
	c-2.85-1.22-5.83-2.18-9.05-2.03c-2.53,0.12-5.07,0.02-7.75,0.02c-0.88-1.18-1.76-2.36-2.54-3.4c0.59-0.98,0.88-1.61,0.15-2.46
	c-0.56-0.65-0.86-1.53-1.32-2.37c-0.2-0.08-0.55-0.21-1.21-0.45c0.66-1.13,1.19-2.05,1.82-3.14c-0.47-0.14-0.82-0.24-1.19-0.34
	c-1.1,2.02-2.01,4-3.19,5.82c-2.24,3.45-4.7,6.76-6.94,10.2c-1.83,2.81-3.03,5.76-2.95,9.32c0.21,8.6,0.08,17.21,0.05,25.81
	c0,1.08-0.25,2.17-0.41,3.47c0.09,0.3,0.37,0.85,0.4,1.42c0.07,1.48,0.02,2.97,0.02,4.46c0,2.12-0.08,4.25,0.02,6.37
	c0.11,2.15,0.36,4.29,0.64,6.43c0.07,0.55,0.48,1.06,0.67,1.47c-1.8,2.53-1.21,5.29-1.35,7.85c-0.43,0.43-0.81,0.81-1.29,1.29
	c0,0.81,0,1.74,0,2.66c-1.28,1.83-2.26,3.77-3.13,5.76c-0.35,0.81-0.7,1.75-0.61,2.59c0.18,1.62-0.65,2.96-0.9,4.44
	c-0.06,0.38-0.46,0.76-0.4,1.09c0.26,1.65-0.72,2.89-1.16,3.85c0.21,1.14,0.69,2.07,0.43,2.66c-0.66,1.5-0.54,3.01-0.58,4.55
	c-0.01,0.4,0.03,0.9-0.17,1.19c-1.63,2.28-1.51,5.39-3.58,7.44c0.4,1.36-1.25,1.91-1.28,2.95c-0.08,2.3-1.63,4.03-2.13,6.16
	c-0.29,1.24-0.87,2.4-1.3,3.54c0.77,0.51,1.33,0.94,1.95,1.25c0.61,0.3,1.29,0.48,1.61,0.59c1.38,1.29,2.53,2.38,3.9,3.67
	c-0.62,1.08-1.24,2.17-1.63,2.85c-0.72,0.47-1.02,0.78-1.37,0.88c-0.49,0.14-1.06,0.26-1.52,0.13c-2.08-0.6-4.14-1.29-6.17-1.93
	c-2.68,1.94-5.3,3.83-7.91,5.73c-0.81,0-1.64,0-2.01,0c-1.07-0.93-1.87-1.61-2.6-2.25c0-0.32,0.05-0.55-0.01-0.74
	c-0.18-0.56-0.34-1.15-0.64-1.64c-1.07-1.79-2.02-3.71-3.35-5.28c-1.45-1.71-1.53-1.61-2.4-3.43c-0.51-1.06-1.07-2.13-1.64-3.13
	c-0.9-1.57-2.31-2.86-3.48-4.23c0-1.36,0-2.62,0-3.82c-1.63-2.03-1.65-4.51-2.27-6.79c-0.3-1.08-0.22-2.26-0.32-3.46
	c-0.31-0.31-0.69-0.69-1.18-1.18c0-0.6,0-1.31,0-1.91c-0.49-0.49-0.86-0.86-1.26-1.26c0-0.4,0-0.82,0-1.29
	c-0.83-0.78-1.68-1.58-2.44-2.3c-0.34-1.3,0.08-2.53-0.71-3.7c-0.64-0.94-0.56-2.34-1.16-3.32c-0.81-1.33-0.83-2.69-0.81-4.07
	c-0.42-0.42-0.8-0.8-1.28-1.28c0-0.73,0.33-1.81-0.07-2.35c-1.01-1.36-0.78-3.18-1.69-4.4c-1.07-1.42-1.08-3.19-2.06-4.59
	c-0.57-0.81-1.41-1.37-1.37-2.66c0.03-0.87-0.79-1.76-1.18-2.66c-0.55-1.26-1.73-2.3-1.42-3.88c0.01-0.06-0.13-0.16-0.22-0.22
	c-0.74-0.54-0.87-1.26-0.99-2.16c-0.12-0.92-0.79-1.78-1.29-2.63c-0.12-0.2-0.52-0.24-0.68-0.3c-0.61,0.65-1.13,1.21-1.65,1.76
	c0.38,0.38,0.75,0.75,1.06,1.06c-1.72,1.69-3.44,3.39-5.03,4.97c0,1.11,0,1.95,0,2.84C485.23,550.48,485.05,552.82,483.46,553.99z
	 M338.26,89.98c1.09,0.42,2.41,0.68,2.85,2.07c1.61,0.41,1.87,2.46,3.49,2.85c-0.43,1.24,1.34,0.63,1.33,1.63
	c-0.01,2.21,2.7,2.95,2.87,5.1c1.31,0.51,1.47,1.96,2.28,2.8c0.94,0.97,1.78,1.94,2.51,3.08c0.71,1.12,1.53,2.26,2.55,3.06
	c1.5,1.18,1.94,3.27,3.76,4.1c-0.52,1.29,1.61,0.61,1.42,1.97c-0.09,0.62,1,1.41,1.53,2.09c0.7,0.33,1.41,0.67,1.97,0.94
	c0.26,1.38,0.5,2.66,0.68,3.62c-0.86,2.14-0.28,4.16-0.57,6.53c-0.23,0.14-0.78,0.48-1.28,0.79c0,2.05,0.4,4.07-0.1,5.82
	c-0.68,2.39-1.2,4.72-1.09,7.19c0.01,0.19-0.1,0.38-0.18,0.65c-0.33,0.31-0.72,0.67-1.09,1.01c0,0.89,0,1.74,0,2.1
	c-0.66,2.1-1.83,3.03-3.53,3.41c-0.55,0.12-1.51,0.72-1.47,0.85c0.43,1.35-1.9,0.68-1.39,1.97c-0.96,0.8-1.63,1.86-2.48,2.77
	c-0.89,0.96-1.28,2.37-2.6,2.99c0.36,1.2-1.43,0.72-1.22,1.31c0.56,1.56-1.66,1.36-1.44,2.58c-1.11,0.16-1.34,1.53-2.4,1.76
	c-0.03,0.5-0.06,1.01-0.05,0.88c-1.32,1.31-2.46,2.09-3.12,3.17c-0.95,1.56-1.21,3.58-3.24,4.33c-0.2,1.45-1.87,1.61-2.37,2.49
	c-0.72,1.26-1.65,1.94-2.77,2.62c-0.44,0.27-0.96,0.67-1.1,1.12c-0.78,2.4-3.11,3.71-4.09,5.96c-1.77-0.32-0.47,2.11-1.89,2.1
	c-1.38,1.72-3.17,3.08-4.36,4.97c-1.23,1.95-2.54,3.84-3.89,5.86c0,1.36,0,2.83,0,4.22c-0.45,0.45-0.82,0.82-1.2,1.2
	c0,2.34,0,4.67,0,7.22c-0.38,0.3-0.88,0.69-0.94,0.74c-0.72,2.39-1.29,4.28-1.93,6.39c-0.21,0.2-0.58,0.58-0.96,0.96
	c0,0.64,0,1.27,0,1.43c-2.34,4.93-5.76,8.84-6.54,14.08c-0.36,0.34-0.74,0.7-0.86,0.82c-0.32,2.33-0.43,4.39-0.93,6.37
	c-0.62,2.49-1.46,5.01-3.21,6.92c-1.12,1.22-1.33,3.01-2.83,3.92c-0.27,0.16-0.25,0.74-0.48,1.05c-0.9,1.22-1.19,2.95-2.88,3.54
	c-1.74,2.45-3.45,4.92-5.23,7.33c-1.1,1.49-2.3,2.9-3.55,4.46c1.64,1.15-0.7,3.05,0.38,4.59c-1.3,1.2-0.37,2.45,0.03,3.61
	c0.76,2.22,0.59,4.49,0.61,6.76c0.01,0.96,0.07,1.92-0.02,2.87c-0.12,1.29,0.36,2.34,1.06,3.34c1.32-0.82,1.32-0.82,1.53-2.35
	c1.23-1.21,3.06-2.25,3.67-3.79c0.85-2.15,3.06-1.29,4.1-2.6c0.1-0.13,0.36-0.14,0.43-0.16c0.65,0.22,1.2,0.51,1.77,0.58
	c1.83,0.22,3.24,0.92,4.06,2.69c0.46,0.98,1.45,1.59,1.34,3c-0.08,1.08,1.74,1.81,1.18,3.29c1.07,1.25,0.11,2.98,0.78,4.12
	c0.86,1.47,0.78,3.1,0.35,4.22c-0.61,1.58-0.31,3.06-0.49,4.57c-0.2,1.62,0.45,2.9,1.42,4.21c0.55,0.74,1.31,1.24,1.81,2.03
	c0.45,0.73,1.15,1.44,1.91,1.79c1.15,0.54,0.36,1.81,1.35,2.55c1.26,0.94,2.09,2.47,3.06,3.78c1.21,1.64,2.37,3.31,3.8,5.31
	c-0.62,2.25,1.94,4.46,1.35,6.81c0.7,1.38,1.18,2.47,1.78,3.49c1.31,2.22,3.52,3.62,5.26,5.45c1.45,1.53,2.31,3.57,4.19,4.73
	c0.28,0.17,0.01,1.25,0.28,1.41c1.52,0.86,0.81,3.09,2.46,3.75c0,1.33,0,2.6,0,4.08c0.39,0.31,0.88,0.7,0.87,0.69
	c0.48,1.41,0.75,2.26,1.05,3.1c0.66,1.85,1.47,3.72,1.81,5.6c0.53,2.86,1.9,5.11,3.6,7.37c1.27-1.4,1.59-2.95,1.6-4.61
	c0.01-2.37-0.3-4.79,0.65-7.06c0.79-1.89,0.58-3.85,0.62-5.8c0.03-1.22-0.05-2.39,0.57-3.59c0.53-1.03,0.63-2.33,0.68-3.53
	c0.33-7.34-0.53-14.71,0.59-22.05c0.28-1.86-0.52-3.85-0.53-5.78c-0.07-7.33-0.04-14.66-0.02-21.99c0-1.11,0.22-2.17,0.5-3.27
	c0.47-1.83,0.96-3.74,0.83-5.76c-0.15-2.24-0.07-4.48,0.47-6.77c0.69-2.89,0.64-5.95,0.92-9.12c0.9-0.81,1.28-2.07,1.07-3.45
	c-0.26-1.71,0.49-3.2,0.79-4.79c0.09-0.48,0.46-0.92,0.48-1.38c0.09-1.93-0.32-3.94,1.27-5.55c0.21-0.22,0-0.82,0.04-1.25
	c0.04-0.5-0.03-1.17,0.26-1.47c1.07-1.13,0.92-2.61,1.09-3.7c0.53-0.53,0.83-0.83,1.27-1.27c-0.72-2.62,1.84-4.83,1.2-7.35
	c0.37-0.73,0.72-1.23,0.9-1.79c0.71-2.17,2.61-3.76,2.94-6.11c1.69-0.83,1.24-2.7,1.8-4.04c0.85-2.02,2.1-3.8,2.93-5.79
	c0.95-2.26,1.52-4.69,2.9-6.77c-0.39-1.28,1.12-1.78,1.19-2.67c0.11-1.23,0.25-2.26,1.32-2.99c-0.46-1.38,1.27-1.9,1.27-2.96
	c-0.01-1.92,1.39-3.26,1.75-5.05c0.39-1.89,1.46-3.64,2.58-5.29c0.83-1.21,1.77-2.54,1.99-3.92c0.28-1.73,1.53-2.98,1.74-4.75
	c0.14-1.17,1.35-2.17,1.9-3.33c0.49-1.06,0.82-2.2,1.32-3.28c0.54-1.14,0.05-2.73,1.57-3.33c0-1.02,0-1.85,0-2.62
	c0.44-0.44,0.82-0.82,1.1-1.1c0.11-1.02,0.11-1.97,0.34-2.86c0.25-0.94,1.27-1.63,1.03-2.75c-0.26-1.19,0.99-1.49,1.35-2.51
	c0-0.66,0-1.49,0-1.86c0.97-1.77,2.14-3.1,2.37-4.57c0.23-1.46,0.92-2.63,1.44-3.9c0.49-1.19,0.93-2.38,1.35-3.59
	c0.6-1.71,0.91-3.72,2.5-5.03c0-0.64,0-1.26,0-1.8c0.45-0.45,0.82-0.82,1.2-1.2c0-0.64,0-1.27,0-2.12c0.38-0.3,0.88-0.69,1.36-1.07
	c-0.47-2.01,0.73-3.44,1.65-4.78c0.56-0.82,0.7-1.65,0.98-2.44c0.42-0.13,0.78-0.24,1.13-0.35c0-0.55,0-0.97,0-1.38
	c1.81-0.72,2.01-3.02,3.79-3.77c0-0.41,0-0.84,0-0.87c0.48-1.69,2.14-1.7,2.71-3.04c0.51-1.19,2.19-1.63,2.42-3.14
	c1.71,0.11,0.73-2.47,2.4-2.4c0.98-1.4,1.95-2.8,2.93-4.2c2.07-0.31,2.21-2.53,3.56-3.58c1.14-0.89,2.24-1.86,3.27-2.88
	c0.99-0.99,1.82-2.15,2.81-3.13c0.56-0.56,1.31-0.91,1.97-1.37c0.74-0.52,1.45-1.44,2.22-1.49c1.25-0.08,0.92-1.85,2.16-1.64
	c0.61-2.28,2.84-2.75,4.49-3.68c1.4-0.8,2.4-1.87,3.58-2.83c1.11-0.9,1.47-2.66,2.77-2.92c1.74-0.34,2.8-1.51,4.16-2.32
	c0.49-0.3,1.13-0.36,1.74-0.54c0.31-0.77,0.57-1.47,1.7-1.8c1.68-0.48,3.22-1.43,4.84-2.14c1.53-0.67,2.85-1.83,4.75-1.72
	c0.45,0.02,1.23-0.48,1.96-0.56c0.78-0.08,1.65-0.22,2.26-0.65c0.95-0.68,1.96-0.73,2.95-0.56c1.92,0.32,3.62-0.75,5.48-0.67
	c0.97-1.13,2.37-0.35,3.49-0.76c0.39-0.41,0.75-0.79,1-1.05c1.28-0.13,2.44-0.11,3.54-0.37c3.14-0.76,6.22-1.76,9.51-1.65
	c0.53,0.02,1.27,0.23,1.56-0.04c1.27-1.16,2.92-0.06,4.15-0.8c1.51-0.91,3.09-0.18,4.6-0.45c0.19-0.03,0.37-0.13,0.61-0.22
	c0-0.48,0-0.98,0-1.46c-2.11-0.69-3.8-2.17-6.12-2.38c-1.06-0.09-2.17-0.81-3.33-1.15c-1.22-0.36-2.43-0.27-3.58-0.57
	c-2.37-0.63-4.88-0.94-7.12-2.5c-3.86,0-7.89-0.08-11.92,0.03c-2.68,0.07-5.35,0.37-8.02,0.63c-0.67,0.07-1.55,0.78-1.93,0.55
	c-1.57-0.99-3.26-0.33-4.86-0.64c-0.64-1.12-2.3-0.61-2.97-2.16c-0.49-1.14-2.17-1.76-3.66-2.85c0.04,0-0.37-0.02-0.8-0.04
	c-1.58-1.26-3.17-2.53-4.2-3.35c-1.86-0.64-3.06-1.55-4.92-1.58c-5.35-0.09-11.42,0.27-17.49,0.51c-0.44,0.02-0.87,0.43-1.28,0.63
	c-0.5-0.24-0.93-0.62-1.38-0.63c-2.02-0.07-4.04,0.05-6.05-0.05c-1.94-0.1-3.86-0.47-5.79-0.59c-1.59-0.1-3.19,0.02-4.78-0.03
	c-1.48-0.05-2.87,0.09-3.99,1.3c-1.18,0.01-2.32,0.13-3.54,0.53c-1.78,0.59-3.45,1.47-5.24,1.98c-1.91,0.55-3.96,0.69-5.82,1.35
	c-2.03,0.73-4.18,0.47-6.19,1.2c-1.48,0.54-3.05,0.83-4.68,1.26c-0.9-1.1-2.25-0.48-3.45-0.57c-1.62-0.12-3.33,0.26-4.65-1.09
	c-1.64,0.16-2.51-1.47-4.11-1.68c-1.38-0.18-2.64-1.24-3.94-1.91c-0.31-0.75-0.49-1.57-0.94-2.18c-1.06-1.42-2.95-2.04-3.76-3.76
	c-0.08-0.17-0.59-0.1-0.82-0.26c-0.91-0.64-1.86-1.26-2.65-2.03c-0.63-0.61-0.99-1.48-1.58-2.14c-0.77-0.88-1.64-1.66-2.58-2.6
	c0-0.6,0-1.31,0-1.99c-0.48-0.16-0.84-0.28-1.15-0.39c0.06-2.35-2.09-3.22-3.01-4.84c-0.1-0.18-0.8-0.02-1.05-0.02
	c-1.48,0.96-2.14,2.52-3.62,3.56c0,0.53,0,1.24,0,1.85c-0.49,0.49-0.86,0.86-1.26,1.26c0,1.24,0,2.51,0,3.79
	c-0.44,0.46-0.87,0.92-1.17,1.23c0,5.32,0,10.49,0,15.63c0.42,0.09,0.71,0.16,1.1,0.25c0,3.69,0,7.38,0,11.02
	c0.29,0.14,0.46,0.23,0.65,0.3c0.18,0.07,0.37,0.13,0.67,0.24c0,1.95,0,3.94,0,5.81c0.49,0.49,0.86,0.86,1.24,1.24
	c0.03,0.71,0.07,1.43,0.1,2.09c0.49,0.17,0.86,0.3,1.21,0.42C338.26,88.99,338.26,89.41,338.26,89.98z M524.5,48.7
	c0,1.89,0,3.03,0,4.28c0.26,0.26,0.64,0.64,1.02,1.02c0.22,2.21,0.6,3.11,2.81,6.72c0,0.95,0,2.09,0,2.57
	c2.67,3.22,4.42,6.33,6.03,9.37c-1.31,3.37-3.04,6.47-4.77,9.51c0,1.37,0,2.72,0,4.02c0.75,0.29,1.72,0.36,1.97,0.82
	c0.99,1.84,3,2.02,4.51,2.96c1.42,0.89,2.96,1.49,4.26,2.69c1.69,1.56,3.73,2.74,5.61,4.08c1.1,2.81,3.61,4.58,5.2,7.04
	c0.43,0.67,0.95,1.32,1.39,1.95c1.54,2.2,4.06,3.6,5.34,6.1c0.04,0.09,0.54-0.07,0.6,0.02c1.13,1.94,3.13,3.12,4.26,5.12
	c0.46,0.82,1.27,1.51,1.5,2.52c1.45,0.22,1.53,1.68,2.18,2.56c1.48,2,2.74,4.16,4.09,6.26c1.44-0.12,1.08,1.49,1.94,2.06
	c0.76,0.5,1.28,1.55,1.62,2.46c0.31,0.86,1.96,0.91,1.32,2.27c1.17,1.14,1.93,2.52,2.61,4.02c0.64,1.41,1.27,2.9,2.47,4.04
	c0.56,0.53,1.32,1.41,1.21,1.98c-0.27,1.34,1.66,0.86,1.36,1.98c1.22,1.4,2.19,3.04,3.87,4.07c0,0.39,0,0.8,0,1.3
	c0.32,0.07,0.61,0.13,1.05,0.22c0.28,0.81,0.28,1.85,1.18,2.58c0.76,0.62,1.08,1.84,1.88,2.33c0.88,0.55,0.56,1.89,1.93,2.17
	c0.77,0.16,1.31,1.44,2.11,2.4c0.29-0.04,0.85-0.1,1.29-0.16c-0.27-1.51-0.5-2.79-0.76-4.2c-0.27-0.27-0.64-0.64-1.06-1.06
	c0-0.58,0.25-1.58-0.04-1.78c-1.31-0.91-1.38-2.48-2.06-3.67c-1.02-1.79-2.82-3.1-3.14-5.4c-0.13-0.95-1.41-1.74-2.39-2.86
	c-0.01-0.1-0.07-0.6-0.13-1.08c-0.42-0.15-0.79-0.28-1.13-0.4c-0.03-0.57-0.06-1.07-0.09-1.53c-0.43-0.11-0.87-0.09-0.98-0.28
	c-1.95-3.32-4.09-6.54-5.73-10.06c-0.22-0.05-0.51-0.1-0.9-0.18c0-0.99,0-1.92,0-2.48c-1.4-2.05-2.59-3.8-3.75-5.49
	c-0.07-0.73-0.14-1.42-0.19-1.96c-0.54-0.15-0.82-0.22-1.2-0.32c0-0.98,0-1.9,0-2.78c-0.47-0.44-0.86-0.8-1.34-1.25
	c0-0.65,0-1.36,0-2.31c-0.38-0.23-0.83-0.51-1.15-0.71c0-3.02,0-3.02-1.34-5.31c0-0.95,0-2.08,0-3.1c-0.67-0.72-1.35-1.17-1.26-2.22
	c0.08-0.93-1.36-1.14-1.31-2.34c0.02-0.66-0.76-1.35-1.28-2.18c0-0.45,0-1.06,0-1.49c-0.91-0.73-1.68-1.35-2.48-1.98
	c0-1.04,0-2.1,0-2.62c-2.04-4.38-4.49-7.99-6.33-12.26c0.37-4.46-2.05-7.25-6.41-8.66c0-0.42,0-0.85,0-1.45
	c-2.19-0.09-2.58-2.41-4.15-3.47c-1.58-1.06-2.72-2.76-3.84-3.95c-1.16-0.59-2.14-1.04-3.08-1.58c-0.69-0.39-1.33-0.89-2-1.34
	c-0.66-0.45-1.3-0.95-1.99-1.34c-2.76-1.55-5.35-3.33-7.55-5.64C526.57,50.57,525.78,49.9,524.5,48.7z M637.94,288.63
	c0.21,0.44,0.4,0.79,0.54,1.15c0.65,1.75,1.26,3.51,1.92,5.26c0.56,1.47,0.88,3.17,1.85,4.29c0.73,0.83,0.27,1.91,1.04,2.47
	c0.9,0.66,0.96,1.52,0.95,2.5c0,0.26,0.2,0.58,0.4,0.77c1.26,1.26,0.82,3.31,2.13,4.54c0.58,2.88,1.77,5.66,1.3,8.71
	c-0.07,0.44,0.27,0.94,0.38,1.42c0.38,1.56,1.15,3.05,0.88,4.74c-0.07,0.41-0.15,0.95,0.05,1.24c1.55,2.18,1.14,4.69,1.22,7
	c0.48,0.48,0.86,0.86,1.31,1.31c-0.73,3.53,1.95,6.09,2.78,9.14c0.38,0.09,0.67,0.16,0.99,0.24c-0.26,0.39-0.46,0.71-0.8,1.22
	c0.85,0.59,0.72,2,2.11,2.09c0,0.5,0,0.92,0,1.33c0.55,0.28,1.07,0.55,1.69,0.87c0.54-1.1,0.95-2.28,0.86-3.67
	c-0.37-5.32,0.62-10.68-0.61-15.99c-0.33-1.41,0.03-2.97-0.07-4.45c-0.09-1.3-0.48-2.58-0.59-3.88c-0.12-1.42-0.23-2.8-0.56-4.22
	c-0.43-1.86-0.18-3.83-0.65-5.79c-0.44-1.85,0.15-3.91-0.73-5.77c0.45-4.51-0.68-8.94-0.64-13.43c0.02-2.55,0-5.1,0-7.64
	c0-0.53,0.22-1.24-0.04-1.56c-1.01-1.23-0.06-2.84-0.69-3.85c-0.84-1.36-0.34-2.64-0.54-3.93c-0.06-0.41,0.17-1.01-0.04-1.25
	c-1.25-1.4,0-3.22-0.7-4.49c-0.86-1.55-0.37-3.05-0.52-4.57c-0.12-1.26,0.27-2.65-0.14-3.77c-0.71-1.93-0.74-3.94-1.1-5.9
	c-0.4-2.21,0.05-4.47-0.57-6.76c-0.57-2.12-0.44-4.49-0.61-6.72c-0.2-2.68-0.72-5.21-1.46-7.73c-0.08-0.28-0.62-0.44-1.02-0.7
	c-0.55,1.62,0.05,3.05-0.75,4.48c-0.53,0.94-0.36,2.58,0.08,3.69c0.98,2.49,0.13,4.99,0.45,7.45c-1.28,1.17-0.1,2.87-0.85,4.1
	c-0.84,1.4-0.36,2.87-0.39,4.29c-0.09,4.24-0.03,8.49-0.03,12.74c0.63,1.03,0.86,2.21,1.37,3.25c1.73,3.59,2,4.33,1.8,6.57
	c-0.03,0.37-0.34,0.71-0.51,1.03c0.39,0.73,0.81,1.51,0.92,1.71c-0.22,1.98-0.37,3.37-0.54,4.93c-1.12,0.82-2.34,1.73-3.7,2.73
	c-1-0.24-2.05-0.57-3.13-0.75c-1.69-0.29-2.82-1.32-3.86-2.56c-0.25-0.29-0.61-0.49-1.17-0.93
	C637.94,286.9,637.94,287.83,637.94,288.63z M399.65,485.92c-1.03-1.99-1.84-3.68-2.77-5.3c-0.44-0.77-1.21-1.23-1.35-2.33
	c-0.13-0.97-1.44-1.67-1.31-2.93c-2.08-0.58-1.79-2.67-2.32-4.07c-0.56-1.48-1.18-2.74-2.36-3.75c-0.58,0.92-1.61,0.32-2.27,0.66
	c-1.36,0.71-2.9,0.63-4.27,1.22c-1.44,0.63-3.07,0.47-4.52,1.4c-1.19,0.76-2.92,0.62-4.22,1.28c-0.71,0.36-1.33,0.59-2.02,0.49
	c-1.32-0.2-2.33,0.44-3.38,1c0,0.43,0,0.85,0,1.16c4.43,3.08,8.79,6.12,13.43,9.35c0.66,0.1,1.57-0.31,2.55-0.59
	c1.48-0.43,3,0.2,4.49,0.55c2.14,0.5,4.4,0.62,6.43,1.39C397.01,485.93,398.09,485.99,399.65,485.92z M612.31,393.45
	c1.28-0.97,2.25-1.68,3.2-2.43c1.08-0.85,2.34-0.58,3.4-0.89c2.12,0.39,2.29-2.08,4.17-2.43c1.22-0.23,2.2-1.77,3.47-2.88
	c-4.28-0.59-8.3,0.53-12.47-0.93c-1.61,1.21-3.4,2.5-5.14,3.85c-1.23,0.96-1.9,2.29-2.53,3.72c-0.6,1.35-1.6,2.53-2.43,3.77
	c-0.17,0.25-0.39,0.46-0.5,0.59c0,0.97,0,1.81,0,2.6c1.51,1.07,3.11,1.32,4.49,0.19c0.78-0.63,1.6-1.28,2.31-2.02
	c0.66-0.69,1.41-1.31,1.99-2.06C612.49,394.28,612.31,393.73,612.31,393.45z M408.36,469.14c-2.18-0.61-3.97-1.34-5.81-1.57
	c-1.85-0.23-3.68-1.46-5.78-0.31c0.18,0.73,0.15,1.71,0.62,2.22c0.65,0.7,0.83,1.36,0.82,2.24c0,0.35,0.21,0.85,0.48,1.04
	c1.1,0.76,0.86,2.17,1.66,3.18c0.71,0.89,2.07,1.82,1.67,3.39c1.5,1.39,2.35,3.46,4.52,4.14c0.8,0.25,1.51,0.76,2.3,1.18
	c0.7-1.02,1.38-2.01,2.02-2.93c0-0.9,0-1.72,0-2.43c-0.47-0.33-0.86-0.57-1.2-0.86c-0.4-0.35-0.77-0.74-1.27-1.23
	c0-1.25,0-2.73,0-4.25c0.4-0.42,0.84-0.87,1.25-1.3C410.02,470.17,408.78,469.63,408.36,469.14z M607.35,454.2
	c-1.88-0.17-3.16,0.26-4.53,0.75c-2.13,0.75-3.95,2.22-6.25,2.56c-0.96,0.14-1.97,0.41-2.79,0.9c-1.21,0.73-2.45,0.81-3.8,0.84
	c-1.86,0.04-3.6,0.5-4.86,2.03c-0.12,0.14-0.13,0.37-0.29,0.85c0.35,0.16,0.83,0.39,1.31,0.62c2.06,0.53,4.5-0.24,6.73,0.9
	c0.32-0.24,0.63-0.48,0.98-0.75c1.63,1.37,3.47,0.71,5.18,0.74c1.71,0.03,3.53,0.5,5.01-0.58c1.04,0.48,1.99,0.91,3.32,1.51
	c-0.39-1.99,0.48-3.65-0.73-5.17c-0.19-0.24-0.14-0.95,0.07-1.19C607.8,457.01,606.98,455.63,607.35,454.2z M621.12,235.66
	c1.32-2.37-1.37-4.2-1.12-6.59c-1.47-1.81-2.35-4.09-4.31-5.82c-0.1,2.45,0.46,2.3,1.57,6.2c1.05,3.67,4,6.46,4.21,10.38
	c1.42,2.4,2.13,5.08,2.92,7.7c0.33,1.08,0.69,2.03,1.32,2.97c0.77,1.14,1.54,2.37,1.85,3.67c0.22,0.94,0.36,1.74,1.09,2.44
	c0.76,0.73,0.2,1.85,0.79,2.87c1.13,1.91,1.61,4.21,2.52,6.78c0.01,0.01,0.39,0.39,0.76,0.76c0.03,2.71,0.53,4.15,2.07,5.47
	c-0.17-2.09-0.33-3.93-0.46-5.78c-0.12-1.76,0.04-3.59-0.39-5.27c-0.44-1.73-0.99-3.42-1.26-5.22c-0.26-1.74-0.97-3.42-1.59-5.48
	c-1.18-0.99-2.28-2.68-4.14-3.58c-0.72-0.35-1.46-1.06-1.78-1.78c-1.21-2.7-2.49-5.4-2.74-8.42
	C622.06,236.6,621.69,236.23,621.12,235.66z M428.26,467.54c4.28,1.81,7.15,5.14,11.43,3.23c1.32,0.43,2.52,0.91,3.76,1.19
	c1.37,0.31,2.91-0.48,4.1,0.54c0.55-0.28,1.08-0.56,1.9-0.97c-1.06-0.11-1.84-0.2-2.1-0.22c-1.06-0.57-1.65-0.97-2.29-1.22
	c-1.03-0.39-2.06-0.74-3.24-0.71c-1.07,0.03-2.15-0.46-3.24-0.57c-2.11-0.2-4.07-0.8-6.03-1.62c-3.63-1.52-6.7-4.16-10.66-5.08
	c-1.05-0.24-2.42-0.65-2.94-0.21c-0.96,0.83-2.1,0.07-2.9,0.77c-0.01,0.24-0.02,0.45-0.04,0.87c0.46,0.06,0.94,0.13,1.5,0.2
	C420.66,466.82,424.66,467.56,428.26,467.54z M595.43,425.48c1.88-0.18,1.71-2.42,3.07-3.07c1.63-3.17,3.66-6.14,5.14-9.85
	c-0.98,0.2-1.65,0.16-2.08,0.46c-1.24,0.88-2.25,2.28-3.6,2.76c-1.6,0.57-2,1.86-2.07,2.93c-0.1,1.43-1.08,2.33-1.32,3.31
	C594.89,423.31,595.15,424.36,595.43,425.48z M615.18,452.22c-0.3,1.24-0.41,2.59-0.97,3.71c-0.69,1.4-0.54,2.79-0.59,4.32
	c0.64,0.54,1.33,1.12,1.92,1.62c2.58-2,5.58-3.54,4.18-7.8c-0.25-0.4-0.74-1.16-1.19-1.85
	C617.34,452.22,616.28,452.22,615.18,452.22z M627.95,452.26c-1.02,2.19-1.02,2.19-0.8,6.24c0.91,0,1.83,0,2.38,0
	c1.18-0.46,2.08-0.86,3.01-1.17c1.48-0.5,3-0.89,4.46-1.43c0.41-0.15,0.68-0.69,1.17-1.23c-0.62-0.37-1.07-0.63-1.9-1.12
	c-0.87-0.16-2.35-0.44-3.83-0.69C630.95,452.61,629.32,453.4,627.95,452.26z M435.46,444.31c0.84,0.85,1.66,1.48,2.21,2.29
	c0.66,0.97,1.44,1.67,2.53,2.06c-0.26,1.54,1.84,0.87,2.07,2.29c0.16,0.96,1.35,1.75,1.92,2.42c0.74,0,1.24,0,1.71,0
	c-0.27-1.48-0.51-2.83-0.77-4.24c-0.71-0.71-1.55-1.38-2.18-2.21C440.91,444.25,439.37,443.64,435.46,444.31z M640.34,389.75
	c-0.74,0-1.48,0.11-2.16-0.03c-0.64-0.14-1.22-0.54-1.85-0.84c-0.76,1.27-2.18,1.69-2.32,3.12c-1.53,0.22-1.73,1.79-2.64,2.63
	c-0.72,0.67-0.83,1.36-0.13,2.22c1.65-0.54,3.32-1.09,5.44-1.79c0.31-0.31,1-0.96,1.64-1.65c0.62-0.68,1.19-1.41,2.03-2.42
	C640.34,390.96,640.34,390.46,640.34,389.75z M427.78,472.94c-0.61,1.98-0.22,3.38,0.52,4.57c0.77,0.24,1.42,0.44,2.02,0.62
	c0.69-0.2,1.43-0.4,2.22-0.63c0-0.48,0-0.98,0-1.57C431.06,475,429.56,474.05,427.78,472.94z M647.22,382.08
	c-1.32,0.18-2.7-0.49-3.65,1.07c1.22,0.93,2.46,1.88,3.72,2.84c0.7-0.07,1.38-0.14,2.36-0.23
	C648.76,384.41,648.05,383.34,647.22,382.08z M417.97,481.21c0.67,0.91,1.42,1.28,2.28,0.86c1.2-0.6,0.87-1.76,0.84-2.56
	c-0.61-0.91-1.12-1.66-1.55-2.3c-0.54,0-1.04,0-1.57,0C417.97,478.59,417.97,479.85,417.97,481.21z"/>
<path d="M523.25,670.22c1.72,0,3.74,0,5.94,0c1.53-2.06,3.71-2.95,6.25-2.53c1.65-1.34,3.62-1.76,5.41-1.82
	c1.96-0.06,3.55-0.78,5.08-1.66c1.22-0.7,2.36-1.05,3.73-1.03c0.56,0.01,1.12-0.37,1.7-0.47c1.21-0.22,2.45-0.44,3.5,0.5
	c2.2-0.39,4.22,0.63,5.93,0.71c0.71,0.69,1.15,1.12,1.84,1.79c0.47,1.74-1.2,3.41-1.38,5.58c-0.77,0.73-1.69,1.61-2.75,2.61
	c-2.08,0.19-3.44,1.83-4.75,3.41c-1.28,1.53-2.48,3.19-3.39,4.95c-1.03,1.99-2.95,2.56-4.71,3.18c-1.42,0.5-2.9-0.4-4.27-1.07
	c-0.88-0.43-1.78-1.03-2.86-0.75c-0.38,0.1-0.71,0.33-1.02,0.48c-0.83-0.41-1.71-0.83-2.76-1.34c-0.09-0.61-0.08-1.45-0.36-2.18
	c-0.28-0.73-0.8-1.84-1.33-1.91c-1.4-0.18-0.86-1.15-1.11-1.95c-1.93,0-3.92,0-6.14,0c-0.3,0.46-0.72,1.12-1.19,1.85
	c-0.26-0.11-0.58-0.16-0.79-0.34c-1-0.87-1.97-1.77-3.19-2.87c0-0.64,0-1.68,0-2.89C521.3,671.9,522.09,671.21,523.25,670.22z"/>
<path d="M564.61,651.13c-1.97-1.14-3.91-0.72-5.71-0.6c-1.83,0.13-2.9,1.8-4.3,3.2c-0.83-0.16-1.79-0.35-2.98-0.58
	c-0.72,0.36-1.79,0.94-2.86,0.28c-1.19-0.74-2.44-0.25-3.65-0.42c-1.1,1.53-2.19,0.02-3.42-0.07c-0.71,0.37-1.5,0.77-2.61,1.34
	c-0.89,0-2.16-0.09-3.41,0.03c-1.18,0.11-2.33-0.08-3.2-0.71c-1.23-0.89-2.71-0.93-3.98-1.11c-2.6-0.38-5.29-0.14-7.93-0.09
	c-0.35,0.01-0.68,0.38-0.89,0.5c-2.26-0.37-4.41-0.73-6.65-1.09c0-0.68,0-1.18,0-1.57c-0.64-0.64-1.16-1.16-1.68-1.68
	c-0.22,0.2-0.45,0.41-0.73,0.67c-0.11-0.33-0.19-0.61-0.27-0.86c0.59-0.5,1.14-0.95,2.19-1.83c2.09-0.72,4.91,2.15,7.71-0.11
	c0.55-0.7,1.23-1.56,1.87-2.38c2.89,0.95,5.59,1.95,8.57,2.02c1.54,0.04,3.06,0.7,4.77,1.12c0.76-0.37,1.73-0.85,2.82-1.38
	c0.47-1.23,1-2.61,1.58-4.13c0.6,0,1.3,0,2.16,0c1.31,1.19,1.29,1.21,1.48,2.49c1.03,0.83,1.97,1.59,3.03,2.45c1.29,0,2.77,0,4.26,0
	c0.99-1.28,1.95-2.64,3.91-3.3c0.2,0.53,0.44,1.15,0.42,1.08c2.39,0.77,3.58-0.38,4.93-0.94c2.04,1.21,4.3,0.3,6.42,0.67
	c2.05,0.36,4.06,0.96,5.91,1.42c1.08,0.95,2.08,1.85,2.97,2.64c0,0.6,0,1.01,0,1.38c-0.12,0.12-0.19,0.25-0.27,0.26
	c-1.5,0.22-3.22,0.97-4.43,0.48c-1.29-0.52-2.45-0.18-3.56-0.5C566.23,650.24,565.45,650.67,564.61,651.13z"/>
<path d="M533.31,708.46c-0.53,0-0.74,0-1.15,0c-0.21-1.61,0.04-3.43-1.23-4.62c-0.31-1.87-0.59-3.63-0.97-5.97
	c0.8,0.54,1.29,0.68,1.42,0.98c0.85,1.98,0.47,4.27,1.85,6.2C533.77,705.82,533.31,707.31,533.31,708.46z"/>
<path d="M533.76,708.4c0.28,0.52,0.57,1.04,0.83,1.58c0.59,1.23,0.65,2.62,1.65,3.79c0.72,0.85,1.59,2.21,0.61,3.61
	c-0.21,0-0.42,0-0.87,0c0.19-1.28-0.8-2.08-1.36-3.11c-0.5-0.93-0.71-2.02-1.31-2.94c0-0.95,0-1.9,0-2.86
	C533.46,708.44,533.61,708.42,533.76,708.4z"/>
</svg>
