<?xml version="1.0" encoding="utf-8"?>
<!-- Generator: Adobe Illustrator 24.1.0, SVG Export Plug-In . SVG Version: 6.00 Build 0)  -->
<svg version="1.1" id="Layer_1" xmlns="http://www.w3.org/2000/svg" xmlns:xlink="http://www.w3.org/1999/xlink" x="0px" y="0px"
	 viewBox="0 0 1224 792" style="enable-background:new 0 0 1224 792;" xml:space="preserve">
<path d="M1040.61,507.96c-2.03,0.48-4.05,1.24-6.11,1.4c-5.12,0.39-9.98,1.74-14.64,3.74c-1.52,0.65-2.65,2.16-4.02,3.2
	c-2.15,1.65-4.29,3.31-6.52,4.83c-2.73,1.85-5.44,3.78-8.37,5.23c-2.12,1.05-3.71,2.42-4.89,4.38c-1.33,2.21-3.14,4.26-3.89,6.65
	c-0.98,3.14-0.88,6.5,0.46,9.71c0.65,1.55,0.94,3.19-0.75,4.48c-1.68,1.28-3.42,1.54-5.29,0.57c-0.52-0.27-0.99-0.65-1.45-1.01
	c-0.56-0.43-1.05-0.98-1.66-1.33c-2.08-1.2-2.28-3.02-1.38-4.89c1.14-2.35,0.6-4.49,0.13-6.87c-0.5-2.49-0.76-5.26-0.15-7.66
	c0.64-2.51,1.16-4.77-0.26-7.68c0.72-0.51,1.55-0.98,2.23-1.61c1.3-1.21,2-2.57,1.02-4.4c-0.37-0.69-0.54-1.61-0.48-2.4
	c0.43-6.11-1.65-11.8-2.64-17.69c-0.57-3.38,0.26-6.98,0.38-10.49c0.04-1.26-0.19-2.53-0.26-3.79c-0.15-2.82-0.51-5.66-0.37-8.47
	c0.5-9.58-2.05-18.43-5.87-27.05c-0.84-1.91-1.26-4-1.86-6.01c-3.1-10.42-6.01-20.87-5.19-31.94c0.11-1.47-0.11-2.96-0.22-5.31
	c-1.1,1.28-1.69,1.78-2.06,2.42c-1.79,3.07-1.97,3.15-5.21,1.6c-0.31-0.15-0.63-0.28-0.96-0.42c-0.41,2.63-0.84,5.2-1.21,7.77
	c-0.54,3.82-0.94,7.67-1.56,11.48c-1.09,6.79-4.83,11.65-11.04,14.58c-2.73,1.29-4.99,2.81-4.41,6.38c0.07,0.41-0.07,1.09-0.35,1.3
	c-3.01,2.18-5.46,5.09-9.66,5.52c-3.44,0.35-6.76,1.75-10.15,2.58c-2.67,0.66-5.38,1.17-8.08,1.74c-0.12,2.24,3.48,3.69,0.57,5.85
	c-0.97-1.06-1.86-2.1-2.83-3.06c-2.42-2.41-5.43-1.84-8.3-1.4c-4.2,0.65-8.18,1.97-12.16,3.58c-3.58,1.44-6.65,3.35-9.54,5.78
	c-0.69,0.58-1.68,0.78-2.51,1.22c-0.71,0.37-1.9,0.74-1.97,1.24c-0.39,2.88-2.71,2.67-4.56,2.88c-2.09,0.24-4.23,0.06-6.97,0.06
	c0.88,0.99,1.33,1.51,2.12,2.4c-1.73,0.43-3.16,1.01-4.62,1.11c-4.83,0.35-9.7,0.23-14.49,0.85c-4.27,0.55-6.66-1.38-8.51-4.67
	c0.08-0.32,0.06-0.69,0.19-0.75c3.65-1.58,6.63-4.42,10.6-5.48c1.95-0.52,3.71-1.74,5.64-2.69c-2.41-3.46-5.41-3.63-8.67-3.59
	c-10.65,0.12-21.3,0.04-31.94,0.08c-4.76,0.02-9.13-1.2-12.99-3.97c-1.85-1.33-3.71-1.74-5.99-1.39c-3.61,0.54-7.28,0.7-10.92,1.06
	c-6.7,0.66-12.79-1.84-18.98-3.73c-6.36-1.95-12.76-3.44-19.47-3.41c-2.34,0.01-4.78-0.18-7.01-0.84c-5-1.47-10.09-1.34-15.14-1.14
	c-9.02,0.36-17.94-0.5-26.81-1.91c-5.07-0.8-8.54-4.33-12-7.74c-6.38-6.28-12.45-12.9-19.16-18.81c-5.14-4.52-11.4-7.56-17.79-10.11
	c-1.08-0.43-2.27-0.67-3.43-0.81c-4.83-0.57-7.91-3.43-9.88-7.61c-1.15-2.44-2.02-5.01-3.11-7.75c-1.7,1.42-2.08,3.5-2.09,5.48
	c-0.03,4.7-0.37,9.39,0.92,14.09c0.76,2.76,0.52,5.88,0.23,8.8c-0.11,1.1-1.44,2.38-2.54,3c-1.52,0.85-2.63-0.35-3.49-1.59
	c-0.6-0.87-1.17-1.75-1.96-2.94c-1.62,3.87-1.65,7.81-1.6,11.52c0.11,8.28-2.63,15.67-5.52,23.21c-2.48,6.46-4.02,13.29-5.95,19.96
	c-0.52,1.81-1.1,3.61-1.42,5.46c-1.04,6.03-1.9,12.09-2.97,18.12c-0.62,3.47-1.49,6.89-2.26,10.34c-0.1,0.46-0.3,0.91-0.34,1.37
	c-0.56,5.75-1.1,11.5-1.64,17.25c-0.08,0.82-0.17,1.64-0.25,2.46c-0.26,2.43-0.51,4.87-0.77,7.3c-0.14,1.29-0.27,2.58-0.43,3.87
	c-0.93,7.48-1.78,14.97-2.84,22.43c-0.66,4.66-1.64,9.27-2.43,13.9c-0.2,1.16-0.29,2.35-0.3,3.52c-0.04,4.38-0.04,8.75-0.04,13.13
	c0.01,4.26-0.06,8.47-1.07,12.68c-0.6,2.48-0.29,5.17-0.38,7.77c-0.08,2.14-0.76,1.74-2.15,4.18c-1.2,2.09-3.85,3.4-3.71,6.29
	c0.15,3.22-1.12,5.9-3.2,8.32c-0.65,0.76-0.88,1.87-1.31,2.83c-4.05,0.04-6.08-2.16-6.28-6.28c-1.34,0.28-2.24,0.57-3.15,0.63
	c-1.12,0.07-2.26,0.01-3.38-0.12c-1.16-0.13-2.29-0.54-3.44-0.6c-2.46-0.13-5.13,1.34-7.22-1.4c-0.46-0.6-2.02-0.61-3.04-0.5
	c-4.24,0.46-7.36-1.03-10.13-4.36c-3.47-4.17-5.21-8.77-5.72-14.09c-0.71-7.39-1.71-14.76-2.58-22.14c-0.1-0.82-0.12-1.65-0.13-2.48
	c-0.18-7.82-1.74-15.4-3.73-22.93c-1.24-4.67-2.24-9.4-3.37-14.1c-1.07-4.43-2.32-8.83-3.22-13.3c-0.98-4.84-1.7-9.73-2.46-14.61
	c-0.85-5.46-1.65-10.92-2.4-16.39c-0.45-3.27-0.65-6.57-1.13-9.83c-0.9-6-0.77-11.95-0.21-18c0.4-4.29-0.25-8.71-0.74-13.04
	c-0.77-6.79-1.64-13.58-2.78-20.32c-0.62-3.7-1.78-7.33-2.92-10.92c-0.24-0.75-1.4-1.5-2.27-1.69c-6.69-1.5-13.38-0.8-20.07,0.19
	c-3.38,0.5-6.81,1.06-10.21,1.04c-8.67-0.06-17.16,1.55-25.73,2.43c-6.07,0.62-12.15,1.31-18.33,0.78
	c-3.95-0.34-8.03,0.16-11.99,0.7c-9.82,1.35-19.57,3.36-29.43,4.28c-7.37,0.68-14.9,0.55-22.29-0.09
	c-9.39-0.81-18.7-2.46-28.04-3.83c-10.16-1.49-20.27-3.28-30.45-4.55c-7.25-0.9-14.57-1.22-21.87-1.71
	c-5.3-0.35-10.62-0.42-15.91-0.88c-4.23-0.37-6.26-1.61-6.08-6.86c0.17-4.71,0.02-9.43,0.05-14.14c0.03-4.35-0.17-8.68,1.44-12.91
	c1.63-4.28,2.7-8.76,4.28-13.06c1.51-4.14,4.92-6.52,8.76-8.3c13.2-6.12,27.18-9.39,41.52-11.43c5.13-0.73,10.2-1.87,15.29-2.88
	c5.31-1.05,10.64-2.05,15.91-3.28c6.78-1.58,13.53-3.3,20.25-5.11c1.89-0.51,3.61-1.62,5.45-2.34c1.52-0.6,3.07-1.36,4.65-1.49
	c11.04-0.91,21.87-4.04,33.05-3.38c2.33,0.14,4.71,0.5,6.94,1.18c4.85,1.48,9.58,3.36,14.44,4.8c2,0.59,4.22,0.35,6.31,0.68
	c5.48,0.87,10.94,1.86,16.41,2.79c0.68,0.11,1.36,0.15,2.38,0.26c0.35-2.33,0.86-4.51,0.99-6.71c0.3-5.42,0.36-10.85,0.64-16.27
	c0.1-1.95-0.91-3.07-2.28-4.1c-2.73-2.07-5.58-3.99-8.13-6.26c-8.99-8.02-17.84-16.19-26.8-24.25c-1.66-1.49-3.47-2.85-5.37-4.04
	c-1.73-1.08-3.6-1.47-5.75-0.76c-2.88,0.96-5.85,1.87-8.85,2.18c-2.84,0.29-5.33,0.8-7.54,4.13c0.46-5.7-3.57-5.82-6.49-6.98
	c-1.83-0.73-3.71-0.75-4.35-3.35c-0.29-1.2-2.03-1.9-3.8-2.37c-3.06-0.81-6.54-2.3-8.5-4.64c-5.11-6.1-11.03-10.47-18.86-12.05
	c-7.06-1.42-14.11-3.04-21.24-3.98c-4.45-0.59-8.85-1.15-13.21-2.29c-2.79-0.73-3.66-0.11-5.01,2.58c-0.69,1.37-1.19,2.83-1.89,4.19
	c-1.38,2.72-2.81,5.43-4.28,8.1c-2.11,3.82-4.28,7.6-6.41,11.41c-0.52,0.93-0.78,2.12-1.53,2.76c-0.77,0.66-2.06,1.18-2.99,1.01
	c-0.67-0.13-1.51-1.45-1.57-2.3c-0.13-1.87,0.09-3.78,0.32-5.65c0.78-6.32,1.91-12.61,2.37-18.95c0.32-4.47-1.11-8.8-2.88-12.94
	c-0.18-0.43-0.57-0.78-0.73-1.21c-0.97-2.62-0.02-4.17,2.75-4.24c7.69-0.17,15.32,0.05,22.93,1.63
	c12.79,2.65,24.51,7.74,35.69,14.32c1.11,0.65,2.33,1.14,3.53,1.6c7.27,2.79,14.55,5.53,21.82,8.33c4.17,1.61,8.25,3.51,12.49,4.92
	c5.6,1.87,11.3,3.45,16.99,5c1.01,0.27,2.34,0.04,3.32-0.41c2.14-0.97,4.08-2.41,6.24-3.33c2.25-0.95,4.62-1.87,7.01-2.17
	c2.91-0.37,5.91-0.16,8.86-0.04c3.57,0.15,6.41,2.97,6.02,6.51c-0.69,6.28,0.56,12.21,2.36,18.11c0.1,0.34,0.23,0.7,0.19,1.04
	c-0.67,6.6,3.48,10.45,8.04,14.04c2.17,1.71,4.46,3.29,7.06,5.19c0.81-3.69,1.72-6.64,0.86-9.9c-0.73-2.78,0.23-4.7,2-4.94
	c1.76-0.24,3.58,1.85,3.46,4.49c-0.16,3.4-0.52,6.8-1.09,10.16c-0.41,2.4-0.07,4.32,1.58,6.2c3.11,3.54,6.15,7.16,8.97,10.93
	c4.47,5.95,8.86,11.96,13.04,18.11c2.17,3.2,3.93,6.7,5.66,10.18c1.12,2.26,2.39,4.2,4.48,5.75c7.22,5.35,12.15,12.58,15.51,20.76
	c2.59,6.3,4.51,12.89,6.72,19.35c0.46,1.34,0.92,2.67,1.34,4.02c1.58,5.08,0.05,8.42-4.85,10.52c-1.74,0.74-3.54,1.34-5.28,2.08
	c-2.61,1.1-3.08,1.93-2.5,4.63c0.69,3.22,1.45,6.43,2.23,9.64c1.42,5.86,1.76,11.88,2.71,17.79c1.77,10.98,0.47,21.97,1.3,32.9
	c0.57,7.49,2.03,14.92,3.02,22.38c0.47,3.51,0.56,7.07,1.17,10.55c0.98,5.56,2.23,11.08,3.42,16.6c1.21,5.62,2.46,11.22,3.75,16.82
	c0.37,1.59,0.88,3.16,1.37,4.72c1.96,6.18,2.84,12.57,3.63,18.98c0.24,1.99,0.35,3.99,0.53,5.98c0.22,2.47,0.46,4.93,0.67,7.4
	c0.28,3.29,0.4,6.59,0.84,9.86c0.62,4.66,1.36,9.3,4.37,13.21c1.32,1.72,2.98,2.69,5.05,2.94c4.56,0.54,9.14,1.03,13.71,1.49
	c0.92,0.09,1.87,0.01,3.1,0.01c-0.72-3.07,0.16-5.32,2.57-7c2.52-1.76,2.35-4.44,2.21-7.07c-0.25-4.71-0.26-4.7,4.08-5.86
	c3.63-0.97,5.05-4.05,5.65-7.11c0.93-4.72,1.44-9.6,1.44-14.41c0-3.36-1-6.76-1.83-10.07c-2-7.99-4.77-15.84-6.08-23.93
	c-1-6.2-1.08-12.71,0.45-19.03c0.27-1.09,0.08-2.3,0.04-3.46c-0.06-1.79,0.35-3.35,2.19-4.02c1.56-0.56,3.92,0.77,4.38,2.7
	c0.58,2.39,0.98,4.88,1.07,7.33c0.18,4.93-0.01,9.87,0.18,14.8c0.09,2.44,0.76,4.85,1.01,7.29c0.22,2.11,0.2,4.24,0.34,6.36
	c0.1,1.48,0.28,2.95,1.09,4.49c0.31-0.81,0.79-1.59,0.92-2.42c0.76-5.25,1.49-10.5,2.14-15.76c0.64-5.15,1.1-10.32,1.77-15.47
	c0.77-5.96,1.67-11.9,2.55-17.84c0.45-3.02,0.95-6.03,1.48-9.03c1.41-8.01,2.39-16.12,4.37-23.99c2.52-10.01,4.55-20.18,9.11-29.62
	c2.88-5.97,3.79-12.56,4.23-19.21c0.41-6.23,1.22-12.43,1.77-18.65c0.61-6.93,1.3-13.86,1.65-20.81c0.42-8.39,1.26-16.66,3.89-24.71
	c0.9-2.75,1.05-5.81,1.14-8.74c0.22-7.21-0.11-14.44,0.41-21.62c0.36-5,1.73-9.92,2.71-14.87c0.54-2.76,1.08-5.53,1.82-8.24
	c1.3-4.76,2.39-9.63,4.23-14.19c3.43-8.49,9.03-15.13,17.83-18.64c2.32-0.92,4.52-0.86,6.91-0.21c4.75,1.28,8.37,4.23,11.83,7.48
	c3.18,2.99,6.33,6.02,9.51,9.01c1.49,1.41,1.89,3.67,0.82,5.89c-1.06,2.21-2.34,4.31-3.41,6.52c-2.5,5.19-6.19,9.46-10.03,13.67
	c-1.9,2.09-3.61,4.36-5.28,6.65c-0.64,0.87-0.92,1.99-0.79,3.37c2.49-1.71,4.93-3.49,7.47-5.11c1.79-1.14,3.69-2.09,5.57-3.07
	c0.62-0.32,1.6-0.31,1.92-0.78c2.12-3.07,5.25-2.51,8.08-2.11c8.52,1.2,17.01,2.6,25.49,4.05c5.92,1.01,11.81,2.26,17.71,3.36
	c1.04,0.19,2.11,0.23,3.18,0.27c7.56,0.24,15.13,0.24,22.67,0.76c4.93,0.34,9.8,1.43,14.7,2.2c11.54,1.82,23.1,3.57,34.62,5.53
	c4.29,0.73,8.49,2.03,12.75,2.96c6.46,1.41,12.94,2.71,19.4,4.1c6.92,1.49,13.8,3.14,20.74,4.54c3.93,0.79,7.91,1.38,11.89,1.78
	c6.87,0.69,13.51,2.09,19.85,4.91c1.69,0.75,3.62,1.13,5.48,1.29c8.22,0.71,15.79,3.93,23.64,6.04c2.85,0.77,5.71,1.5,8.59,2.11
	c5.71,1.2,11.27,2.78,15.99,6.39c1.76,1.35,3.6,2.8,4.82,4.6c3.62,5.34,7.99,10.23,10.35,16.37c0.16,0.41,0.43,0.79,0.69,1.26
	c6.54-4.41,8.83-10.76,9.37-18.13c0.24-3.38,1.24-6.69,1.58-10.07c0.27-2.66,0.24-5.39,0.02-8.06c-0.42-5.17-1.08-10.32-1.6-15.48
	c-0.16-1.53-0.24-3.05-2.75-3.61c0.35,2.72,0.78,5.12,0.91,7.52c0.09,1.7-0.2,3.42-0.38,5.12c-0.06,0.57-0.52,1.15-0.46,1.68
	c0.4,3.23-1.37,4.65-4.19,5.45c-1.86,0.53-2.84,0.28-3.07-1.55c-0.59-4.56-1.15-9.14-1.45-13.72c-0.61-9.42-0.9-18.87-1.62-28.28
	c-0.28-3.62-1.44-7.16-2.06-10.77c-0.7-4.07-1.12-8.19-1.91-12.23c-1.04-5.31-2.26-10.59-3.5-15.86c-1.63-6.9-3.07-13.82-2.99-20.97
	c0.02-1.4-0.25-2.81-0.4-4.22c-0.08-0.7-0.25-1.4-0.26-2.11c-0.05-2.35,0.97-3.84,2.64-3.96c1.68-0.12,2.91,1.25,3.12,3.57
	c0.24,2.7,0.38,5.42,0.63,8.12c0.27,2.94,0.34,5.93,1,8.78c1.8,7.7,4.06,15.29,5.76,23c0.8,3.63,0.69,7.46,1.14,11.18
	c0.29,2.41,0.82,4.8,1.25,7.19c0.28,0.04,0.56,0.08,0.83,0.12c0.4-0.58,1.04-1.12,1.17-1.76c0.58-3.01,1.17-6.03,1.48-9.08
	c0.41-4.11,0.57-8.24,0.82-12.36c0.49-8.01,0.78-16.03,1.52-24.02c0.67-7.27,1.67-14.52,2.85-21.73c0.7-4.27,1.9-8.46,3.07-12.64
	c2.36-8.46,3.82-17.02,3.12-25.84c-0.25-3.17-0.49-6.34-0.67-9.51c-0.1-1.75,0.16-3.37,2.24-3.87c1.66-0.4,3.28,0.45,4.12,2.55
	c0.55,1.38,0.94,2.98,0.84,4.44c-0.62,8.32,0.59,16.58,1.81,24.69c1.07,7.13,0.68,14.39,2.37,21.42c0.16,0.68,0.12,1.42,0.08,2.12
	c-0.34,6.22-0.71,12.45-1.05,18.67c-0.04,0.7-0.06,1.42,0.07,2.1c0.94,4.82,0.18,9.6-0.04,14.42c-0.26,5.64,0.18,11.31,0.38,16.96
	c0.15,4.25,0.39,8.5,0.63,12.74c0.19,3.4,0.47,6.79,0.65,10.18c0.03,0.54-0.38,1.1-0.41,1.66c-0.11,2.08-0.17,4.17-0.19,6.25
	c-0.01,0.79,0.3,1.58,0.24,2.36c-0.26,3.2,1.14,4.67,4.49,4.66c1.07,0,2.14,0.1,3.74,0.18c-3.43,2.99-3.43,2.99-0.83,8
	c1.25-0.78,1.07-3.71,3.34-2.7c1.37,0.61,2.47,1.83,3.96,2.99c-2.47,1.02-2.32,3.1-2.19,5.09c0.15,2.29-0.13,4.22-2.6,5.18
	c-0.52,0.2-0.93,0.72-1.34,1.14c-1.25,1.28-2.48,2.58-4.11,4.27c0.42,0.29,1.17,0.8,2.3,1.56c-0.99,1.49-1.77,3.09-2.94,4.3
	c-1.19,1.23-2.82,1.9-2.64,4.17c0.06,0.74-1.44,1.61-2.22,2.42c2.65,2.18,6.29,2.36,8.98,0.69c2.05-1.28,4.25-2.35,6.45-3.34
	c0.45-0.2,1.24,0.32,2.04,1.19c-1.41,0.67-2.83,1.3-4.22,2.01c-1.57,0.8-3.17,1.57-4.61,2.56c-0.55,0.38-0.71,1.32-1.05,2.01
	c0.82,0.32,1.67,0.93,2.46,0.88c1.01-0.07,1.95-0.75,2.96-1.06c0.39-0.12,0.87,0.08,1.64,0.18c-2.01,3.29-4.83,4.25-8.44,4.43
	c0.1-1.01,0.18-1.85,0.25-2.67c-3.87-1.31-5.61-0.55-7.17,3.24c2.2,0.18,4.35,0.36,6.5,0.53c0.09,0.25,0.18,0.51,0.27,0.76
	c-1.49,1.02-2.96,2.06-4.47,3.04c-0.38,0.25-0.93,0.22-1.35,0.42c-2.94,1.41-3.74,3.37-2.68,6.45c-1.14,1.78-2.17,3.64-3.44,5.33
	c-2.97,3.95-2.2,8.48-2.22,12.91c0,0.81-0.1,1.63-0.13,2.44c-0.08,2.45-0.54,4.96-0.12,7.32c0.64,3.65,1.95,7.17,2.85,10.78
	c0.65,2.61,1.1,5.28,1.69,8.17c0.91-0.14,1.76-0.28,3.02-0.47c-0.21,1.42-0.41,2.72-0.64,4.29c1.18-0.2,2.17-0.36,3.49-0.59
	c-0.34,0.87-0.63,1.56-0.89,2.27c-0.98,2.62-1.18,4.98,0.18,7.79c1.34,2.77,1.85,6.07,2.14,9.19c0.71,7.6,1.35,15.18,1.01,22.88
	c-0.29,6.67,0.55,13.42,1.35,20.09c0.46,3.89,1.81,7.67,2.81,11.73c0.38-0.43,0.93-0.93,1.31-1.53c1.01-1.59,2.34-2.24,4.27-2.64
	c2.77-0.58,6.08-0.86,6.79-4.83c0.27-1.53,1.28-3.01,2.21-4.32c0.98-1.38,2.37-1.18,3.88-0.35c-0.62,1.21-1.19,2.3-1.8,3.48
	c1.81,1.25,3.31,0.96,4.58-0.38c1.47-1.55,2.93-2.25,5.28-1.9c2.45,0.36,4.72-0.95,6.54-2.53c-1.01-3.9-4.11-1.04-6.3-2.34
	c0.79-0.54,1.24-0.98,1.79-1.2c2.88-1.17,5.79-2.29,8.81-3.47c-1.06-2.79-3.92,0.3-4.86-2.23c0.85-0.95,1.83-2.05,3.08-3.45
	c3,4.1,9.48,2.83,11.99,8.55c-2.26-0.5-4.35-1.24-5.39,1.68c1.9,1.23,3.94,2.55,5.97,3.86
	C1040.61,503.22,1040.61,505.59,1040.61,507.96z M474.38,360.98c-0.1,0.22-0.19,0.43-0.29,0.65c1.13,0.75,2.22,1.56,3.4,2.23
	c5.46,3.11,10.54,6.62,14.6,11.59c3.64,4.47,7.83,8.49,11.63,12.83c0.85,0.97,1.7,2.56,1.52,3.7c-0.52,3.34-1.41,6.65-2.47,9.87
	c-0.61,1.85-3.58,3.01-4.68,2.08c-1.59-1.34-0.73-2.73,0.22-4.03c0.14-0.19,0.28-0.38,0.38-0.6c1.4-3.05,1.41-5.89-0.97-8.56
	c-2.12-2.38-3.96-5.01-6.18-7.28c-3.7-3.79-7.27-7.82-11.5-10.93c-4.61-3.4-9.91-5.88-14.92-8.75c-0.4-0.23-0.88-0.34-1.32-0.5
	c-2.78-0.99-5.54-2.02-8.34-2.96c-0.91-0.31-1.91-0.39-3.26-0.65c0.17,1.36,0.12,2.2,0.4,2.91c1.72,4.39,3.22,8.91,5.36,13.1
	c3.66,7.2,2.41,14.58,0.76,21.71c-1.81,7.83-7.48,12.48-15.22,14.84c-4.57,1.39-9.16,2.03-13.88,2.4
	c-11.77,0.92-20.93-4.06-28.1-12.79c-5.05-6.15-7.46-13.87-10.48-21.13c-2.44-5.86-4.05-12.07-6.11-18.09
	c-0.45-1.32-1.16-2.58-1.87-3.79c-0.94-1.59-2.27-2.2-4.2-1.67c-2.95,0.81-6.02,1.2-8.93,2.13c-7.89,2.52-15.87,4.46-24.09,5.66
	c-8.87,1.3-17.64,3.21-26.47,4.79c-9.94,1.77-19.6,4.42-28.6,9.12c-3.48,1.82-6.1,4.45-7.38,8.24c-0.67,1.99-1.24,4.03-1.79,6.06
	c-0.89,3.3-2.18,6.57-2.47,9.92c-0.45,5.17-0.17,10.4-0.26,15.6c-0.03,2.01,0.87,3.1,2.85,3.33c3.98,0.46,7.95,1.06,11.94,1.36
	c5.18,0.38,10.39,0.34,15.55,0.83c4.1,0.39,8.13,1.38,12.21,1.99c12.61,1.86,25.22,3.62,37.83,5.49c4.78,0.71,9.53,2.18,14.31,2.26
	c10.48,0.16,21.01,1.07,31.44-1.24c4.36-0.97,8.96-0.89,13.29-1.97c7.54-1.88,15.24-1.58,22.86-2.25c5.63-0.5,11.32-0.43,16.96-0.83
	c4.46-0.31,8.9-1.05,13.36-1.4c4.82-0.38,9.69-0.29,14.49-0.81c8.43-0.92,16.81-2.3,25.34-1.38c0.42,0.05,0.88-0.23,1.72-0.47
	c-0.1-1.63-0.04-3.26-0.33-4.83c-0.72-3.93-1.8-7.8-2.36-11.74c-1.39-9.81-2.83-19.59-5.55-29.17c-1.24-4.35-3.3-7.49-7.48-9.09
	c-6.38-2.45-12.78-4.83-19.21-7.15C476.95,361.16,475.63,361.17,474.38,360.98z M833.96,366.1c3.46,2.33,6.23,4.08,8.87,6
	c4.77,3.47,9.79,6.79,12.88,11.97c2.53,4.24,4.59,8.76,6.77,13.2c0.62,1.25,1.14,2.62,1.36,3.99c0.81,4.99,1.97,9.99,0.17,15.02
	c-0.15,0.43-0.1,0.94-0.09,1.41c0.07,3.34-1.05,6.4-3.11,8.86c-3.39,4.07-6.88,8.12-10.8,11.67c-5.71,5.17-11.35,5-16.41-0.76
	c-4.73-5.38-8.94-11.26-13.02-17.17c-4-5.79-6.57-12.15-5.8-19.46c0.33-3.14,0.15-6.35,0.64-9.46c0.68-4.28,4.01-5.51,7.38-2.75
	c1.99,1.64,3.65,3.7,5.36,5.64c0.44,0.49,0.81,1.32,0.73,1.94c-0.35,2.67-0.84,5.31-1.34,7.96c-0.55,2.89-3.23,3.85-5.17,5.3
	c0,0.54-0.06,0.9,0.01,1.23c0.12,0.58,0.26,1.17,0.51,1.69c3.53,7.21,7.43,14.07,13.22,19.9c3.55,3.57,8.45,2.96,11.66-0.09
	c3.14-2.99,5.9-6.42,8.61-9.83c0.9-1.13,1.25-2.77,1.63-4.23c0.42-1.59,0.71-3.23,0.85-4.87c0.19-2.33,0.39-4.68,0.24-7.01
	c-0.37-5.79-3-10.83-5.51-15.93c-2.42-4.91-5.84-8.91-10.39-11.82c-5.65-3.62-11.43-7.06-17.25-10.41
	c-2.75-1.59-5.84-1.92-8.93-0.94c-6.3,1.99-12.64,3.88-18.85,6.12c-4.31,1.56-8.61,3.32-12.6,5.55c-5.7,3.17-10.4,7.68-15,12.31
	c-3.76,3.78-5.94,8.45-8.38,13c-0.42,0.79-0.45,1.82-0.54,2.76c-0.25,2.7-0.4,5.4-0.67,8.1c-0.45,4.5,1.44,7.67,5.19,10.07
	c3.77,2.41,7.38,5.07,11.07,7.62c4.47,3.08,8.91,6.21,13.42,9.23c3.14,2.1,6.36,4.08,9.57,6.06c2.42,1.49,4.79,2.61,7.95,2.19
	c4.3-0.57,8.71-0.49,13.08-0.43c9.92,0.16,19.84,0.37,29.75,0.76c7.66,0.3,15.31,0.9,22.97,1.37c1.99,0.12,4.06,0.67,5.96,0.33
	c4.65-0.84,9.25-1.64,14-1.98c11.4-0.81,22.13-4.55,32.85-8.22c2.01-0.69,3.99-1.44,5.99-2.15c2.41-0.86,3.62-2.48,3.41-5.12
	c-0.44-5.46-1.6-10.77-4.64-15.36c-3.14-4.74-5.93-9.56-8.09-14.87c-1.99-4.88-4.42-9.83-8.81-13.07
	c-6.42-4.75-13.7-7.83-21.47-9.77c-5.37-1.34-10.75-2.73-16.02-4.41c-3.34-1.07-6.45-2.82-9.74-4.07c-1.97-0.75-4.11-1.02-6.12-1.66
	c-7.66-2.42-15.36-4.7-23.36-5.68C836.9,365.69,835.8,365.96,833.96,366.1z M791.41,450.82c0.11-0.35,0.22-0.71,0.33-1.06
	c-2.72-2-5.45-4-8.16-6.01c-7.48-5.54-14.77-11.33-22.77-16.19c-3.93-2.39-5.99-6.24-5.17-11.19c0.27-1.61,0.29-3.32,0.09-4.95
	c-0.88-7.37,2.53-13.22,6.58-18.81c1.38-1.9,3.15-3.51,4.75-5.25c7.5-8.13,16.36-14.25,26.89-17.77c5.49-1.84,11.04-3.47,16.55-5.25
	c0.66-0.21,1.21-0.8,2.45-1.66c-1.75-0.43-2.73-0.71-3.73-0.9c-3.37-0.62-6.73-1.26-10.11-1.8c-6.87-1.1-13.73-2.83-20.64-3.05
	c-14.65-0.45-29.33-0.1-44-0.06c-0.94,0-1.88,0.26-2.82,0.27c-5.43,0.06-10.87,0.33-16.29,0.06c-8.24-0.4-16.46-1.35-24.71-1.72
	c-4.46-0.2-8.95,0.45-13.43,0.51c-3.45,0.04-6.51,1.24-9.4,2.83c-4.23,2.33-8.4,4.79-12.43,7.44c-3.44,2.26-6.83,4.66-9.91,7.38
	c-1.8,1.59-3.27,3.77-4.29,5.97c-2.11,4.58-4,9.14-1.84,14.54c1.47,3.68,3.52,6.56,6.93,8.17c4.04,1.91,8.56,2.86,12.45,4.98
	c5.69,3.1,10.88,7.02,15.46,11.71c4.93,5.06,10.17,9.82,15.12,14.87c3.99,4.08,8.97,6,14.33,7.27c5.44,1.28,10.97,1.49,16.55,1.49
	c5.66,0,11.32,0.38,16.97,0.67c2.47,0.13,4.92,0.51,7.39,0.67c7.2,0.45,14.4,0.94,21.3,3.2c7.22,2.36,14.46,4.43,22.18,3.92
	C789.16,451.04,790.29,450.92,791.41,450.82z M642.92,367.62c0.17,0.19,0.34,0.38,0.51,0.57c0.86-0.43,1.84-0.72,2.57-1.31
	c7.02-5.68,14.78-10.12,22.91-13.99c3.39-1.61,6.8-2.47,10.54-2.59c12.66-0.41,25.22,1.11,37.83,1.78
	c4.57,0.25,9.18-0.27,13.78-0.29c15.02-0.06,30.04-0.21,45.06,0.02c5.52,0.08,11.04,0.96,16.52,1.74c6.19,0.88,12.32,2.19,18.51,3.1
	c7.82,1.15,15.73,1.74,23.48,3.2c9.03,1.7,17.95,4.05,26.9,6.19c3.33,0.79,6.77,1.4,9.89,2.73c7.62,3.27,15.39,5.99,23.49,7.81
	c1.04,0.23,2.09,0.48,3.06,0.89c6.07,2.6,12.35,4.82,18.08,8.03c3.37,1.89,6.47,4.95,8.61,8.2c2.75,4.16,5.09,8.65,6.98,13.4
	c1.76,4.41,4.95,8.24,7.18,12.5c1.4,2.66,2.23,5.63,3.24,8.49c0.35,1,0.41,2.09,0.74,3.1c0.77,2.34,2.06,2.77,3.94,1.23
	c2.83-2.32,4.78-5.12,5.07-8.98c0.28-3.73,1-7.43,1.29-11.16c0.51-6.54,0.36-13.15-2.85-18.99c-2.47-4.5-5.86-8.51-8.99-12.63
	c-1.34-1.76-2.9-3.42-4.6-4.83c-3.11-2.55-6.95-3.4-10.82-4.1c-3.13-0.56-6.29-1.06-9.37-1.87c-4.1-1.08-8.07-2.65-12.19-3.62
	c-3.54-0.84-7.21-1.05-10.8-1.71c-2.06-0.38-4.33-0.69-6.02-1.78c-4.1-2.64-8.53-3.93-13.27-4.58c-6.3-0.87-12.74-0.71-18.88-2.77
	c-2.35-0.79-4.74-1.51-7.15-2.03c-6.57-1.42-13.18-2.66-19.74-4.08c-6.22-1.34-12.4-2.89-18.63-4.22
	c-3.46-0.74-6.97-1.24-10.47-1.78c-8.04-1.26-16.08-2.47-24.12-3.72c-5.59-0.86-11.16-2.09-16.78-2.53
	c-7.62-0.6-15.29-0.61-22.94-0.88c-1.3-0.05-2.6-0.08-3.89-0.21c-14.08-1.44-27.7-5.63-41.95-6.52c-7.41-0.46-13.55,0.98-19.15,5.3
	c-5.6,4.32-10.97,8.95-16.4,13.5c-0.78,0.66-1.43,1.54-1.96,2.43c-2.41,4.06-4.8,8.13-7.1,12.25
	C644.21,364.4,643.62,366.05,642.92,367.62z M427.54,356.07c-0.05-0.32-0.1-0.63-0.16-0.95c-1.31-0.17-2.62-0.37-3.94-0.49
	c-5.04-0.46-10.16-0.51-15.11-1.43c-5.13-0.95-10.04-1.07-15.01,0.54c-3.33,1.08-3.86,1.76-2.92,5.13
	c2.44,8.72,4.66,17.53,8.33,25.83c2,4.51,4.35,8.91,6.96,13.1c2.45,3.94,5.75,7.15,10.18,9.02c10.59,4.48,20.83,2.58,30.86-1.79
	c1.6-0.7,2.93-2.35,4.03-3.83c2.84-3.83,3.48-8.45,4-13.01c0.27-2.32,0.48-4.9-0.25-7.03c-2.03-5.88-4.55-11.59-6.95-17.34
	c-0.74-1.78-2.1-2.4-3.81-1.62c-0.17,0.35-0.26,0.45-0.26,0.55c0.01,0.59,0.04,1.17,0.06,1.76c0.36,9.93,0.49,19.82-2.79,29.42
	c-1.18,3.46-2.03,7.03-3.08,10.54c-0.32,1.05-0.86,2.08-2.24,1.71c-1.34-0.36-1.9-1.32-1.62-2.71c0.02-0.12,0.06-0.23,0.08-0.34
	c1.17-6.38,2.38-12.75,3.49-19.14c0.72-4.12,0.54-8.24,0.25-12.56c-1.59,2.38-2.72,4.62-4.35,6.4c-2.23,2.43-4.83,4.68-8.26,5.15
	c-5.02,0.7-9.88-0.48-14.61-2.03c-2.36-0.77-2.72-2.01-2.12-4.49c0.24-0.97,0.09-2.04,0.38-2.99c0.49-1.63,0.87-3.43,1.85-4.74
	c1.54-2.06,3.68-3.67,5.31-5.68c2.33-2.88,5.21-4.7,8.79-5.57C425.65,357.22,426.57,356.55,427.54,356.07z M631.62,363.66
	c0.97-0.71,1.3-0.87,1.52-1.12c2.8-3.3,5.27-6.95,8.44-9.84c5.18-4.73,9.91-9.82,13.04-16.05c4.33-8.63,10.46-15.84,16.49-23.23
	c2.45-3.01,3.65-7.04,5.38-10.63c0.59-1.23,0.13-2.23-0.78-3.18c-4.94-5.13-10.32-9.7-16.65-13.04c-0.67-0.36-1.68-0.66-2.32-0.42
	c-2.75,1.03-5.95,1.67-8.01,3.53c-6.24,5.65-10.45,12.64-12,21.11c-0.95,5.2-2.45,10.31-3.45,15.5c-0.91,4.74-1.82,9.52-2.09,14.32
	c-0.36,6.25-0.11,12.53-0.07,18.79C631.12,360.64,631.4,361.88,631.62,363.66z M974.64,315.6c2.52,0.81,2.73-0.44,2.79-2.09
	c0.19-5.3,0.49-10.6,0.7-15.9c0.23-6.09,0.6-12.18,0.56-18.27c-0.09-14.53-0.33-29.05-0.65-43.58c-0.06-2.59-0.76-5.16-1.27-8.42
	c-2.44,2.47-3.13,4.82-3.52,7.2c-1.19,7.2-2.27,14.41-3.32,21.63c-1.15,7.91-2.34,15.8-2.42,23.84c-0.05,4.58-0.57,9.18-1.16,13.73
	c-0.67,5.23-0.68,5.41,4.17,7.03c0.21,0.07,0.39,0.25-0.06-0.05c0.48,1.93,0.44,3.57,1.23,4.54c1.47,1.81,1.87,3.48,0.47,5.73
	C975.41,311.26,975.04,313.38,974.64,315.6z M512.21,379.87c-1.06,2.94-0.44,5.22-0.06,7.43c1.23,7.16,2.58,14.31,3.86,21.46
	c0.6,3.34,1.08,6.71,1.73,10.04c0.2,1.02,0.59,2.11,1.22,2.91c0.48,0.61,1.46,1.08,2.25,1.12c0.89,0.05,1.81-0.44,2.72-0.71
	c3.41-1.02,4.42-2.57,3.65-6.01c-0.92-4.11-1.96-8.2-3.01-12.28c-1.98-7.71-5.18-14.86-9.93-21.28
	C514.05,381.77,513.31,381.08,512.21,379.87z M356.13,260.01c0.07-0.34,0.15-0.68,0.22-1.02c-1.78-0.84-3.51-1.83-5.36-2.48
	c-8.46-2.99-17.02-5.69-25.97-6.66c-4.38-0.47-8.9-0.96-13.35,0.98c0.93,3.98,2.25,7.69,2.57,11.49c0.32,3.73-0.37,7.55-0.62,11.34
	c0.26,0.1,0.52,0.2,0.78,0.3c0.72-0.98,1.62-1.87,2.13-2.95c2.07-4.36,4.13-8.74,5.99-13.19c1.45-3.48,2.4-4.01,6.09-2.91
	c3.38,1.01,6.76,2.08,10.2,2.77c4.73,0.95,9.52,1.59,14.29,2.3C354.09,260.14,355.12,260.01,356.13,260.01z M497.15,362.63
	c-0.65-4.48-18.54-28.28-21.94-29.58c-0.38,6.95-0.76,13.82-1.15,21.03C481.28,356.76,488.96,359.6,497.15,362.63z M431.91,285.86
	c2.77,3.33,6.04,5.22,8.93,7.56c2.92,2.37,4.95,5.77,8.46,7.92c0.29-0.82,0.6-1.26,0.57-1.66c-0.29-3.38-0.38-6.82-1.06-10.12
	c-0.4-1.95-0.94-4.47-3.25-5.15C441.11,283.12,436.63,282.77,431.91,285.86z M421.3,377.02c2.89-0.16,5.06-1.09,6.79-3.16
	c1.41-1.68,1.56-3.6,0.37-5.14c-1.46-1.9-3.73-2.62-5.62-1.36c-1.53,1.02-2.89,2.4-4.02,3.87c-0.87,1.13-1.25,2.64-1.85,3.98
	C418.42,375.81,419.86,376.42,421.3,377.02z M413.56,285.19c-4.88-2.53-8.73-3.38-11.28-2.51
	C406.27,285.82,408.88,286.4,413.56,285.19z M973.76,323.75c1.14,0,2.34,0,3.59,0c0-2.19,0-4.09,0-6.14
	c-1.43,0.32-2.53,0.57-3.31,0.74C973.94,320.25,973.86,321.76,973.76,323.75z M436.87,367.21c-0.08-4.73-1.42-7.34-4.74-4.98
	C433.72,363.9,435.27,365.53,436.87,367.21z M986.91,351.63c0.74,0.3,1.15,0.63,1.38,0.53c2.35-1,4.66-2.07,7.35-3.28
	c-1.42-0.44-2.38-0.73-2.97-0.91C990.76,349.19,989.15,350.21,986.91,351.63z"/>
<path d="M128.36,740.81c5.97,0.77,11.93,1.56,17.9,2.31c5.27,0.66,10.53,1.31,15.81,1.89c8.44,0.93,16.89,1.8,25.33,2.71
	c6.8,0.73,13.62,1.34,20.4,2.25c6.43,0.86,12.82,2.06,19.23,3.07c8.74,1.37,17.5,2.64,26.24,4.07c8.97,1.46,17.94,2.92,26.87,4.61
	c12.74,2.42,25.38,5.44,38.31,6.83c12.66,1.36,25.31,2.82,37.97,4.22c8.44,0.93,16.88,1.84,25.33,2.69
	c1.62,0.16,3.26,0.02,5.56,0.02c-0.86-1.18-1.29-1.96-1.89-2.57c-2.72-2.79-5.66-5.39-8.17-8.35c-2.58-3.04-4.89-6.35-7.06-9.7
	c-3.73-5.75-7.83-11.16-12.95-15.77c-2.18-1.97-4.02-4.31-6.09-6.41c-8.35-8.5-17.34-16.42-24.35-26.17
	c-3.24-4.5-6.46-9.01-9.79-13.44c-1.26-1.67-2.85-3.1-4.21-4.7c-2.22-2.59-4.22-5.38-6.6-7.81c-5.07-5.16-9.51-10.8-13.38-16.87
	c-2.4-3.77-4.42-7.79-6.77-11.6c-3.84-6.22-8.02-12.23-11.66-18.56c-3.28-5.7-6.29-11.59-8.93-17.61
	c-4.13-9.39-7.95-18.9-12.69-28.03c-2.09-4.04-3.3-8.54-4.89-12.83c-2.29-6.18-4.55-12.37-6.83-18.55
	c-0.65-1.75-1.31-3.49-1.98-5.23c-0.21-0.55-0.5-1.07-0.97-2.06c-3.94,5.98-9.44,8.23-14.6,10.96c-1.98,1.04-3.99,1.33-6.17,0.75
	c-3.63-0.97-7.28-1.87-10.92-2.78c-4.53-1.14-7.47-4.39-10.18-7.84c-2.18-2.78-4.44-5.55-6.16-8.61c-1.17-2.08-1.53-4.63-2.12-7.01
	c-1.13-4.58-2.08-9.2-3.24-13.77c-1.19-4.67-2.63-9.28-3.81-13.95c-1.65-6.53-3.87-12.72-7.2-18.68
	c-2.96-5.29-4.71-11.27-6.93-16.97c-2-5.14-3.86-10.34-5.88-15.48c-3.15-8.01-9.75-12.53-16.94-16.39
	c-2.08-1.12-4.26-2.05-6.36-3.16c-3.36-1.77-4.13-3.36-3.18-6.92c1.66-6.2,2.62-12.47,2.52-18.9c-0.05-2.92,0.07-5.84,0.07-8.76
	c0-1.85,1.21-2.71,2.63-3.44c4.41-2.27,9.22-2.89,14.06-3.23c7.35-0.53,14.12,1.77,20.17,5.54c3.96,2.46,8.15,2.89,12.41,3.62
	c3.37,0.58,6.75,1.07,10.12,1.61c0.93,0.15,1.87,0.58,2.78,0.5c3.66-0.31,5.66,1.61,7.08,4.7c0.68,1.47,1.85,2.7,2.73,4.09
	c2,3.17,3.91,6.4,5.94,9.54c2.17,3.36,4.49,6.62,6.66,9.99c2.09,3.26,4.06,6.59,6.11,9.88c2.62,4.2,5.19,8.43,7.92,12.56
	c3.06,4.64,4.31,9.66,3.5,15.14c-0.19,1.28-0.82,2.49-1.57,3.65c0.51-8.31-3.9-14.44-8.64-20.27c-2.68-3.31-5.43-6.46-7.52-10.24
	c-1.93-3.5-4.59-6.58-6.76-9.95c-4.08-6.33-8.1-12.71-12.01-19.15c-1.41-2.32-3.31-3.63-5.9-4.07c-5.93-0.99-11.85-2-17.8-2.9
	c-2.5-0.38-4.77-1.03-6.79-2.7c-3.92-3.24-8.56-5.12-13.56-5.66c-4.21-0.45-8.55-0.63-12.56,1.25c-0.81,0.38-1.7,1.29-1.91,2.12
	c-0.59,2.28-0.84,4.64-1.22,6.97c-0.92,5.56-1.83,11.13-2.75,16.69c-0.4,2.42,0.19,3,2.9,4.54c4.5,2.55,8.99,5.17,13.25,8.1
	c6.3,4.34,9.58,10.83,12.03,17.88c3.06,8.77,6.01,17.61,9.66,26.14c1.97,4.6,4.97,8.79,6.44,13.65c0.95,3.14,1.48,6.4,2.27,9.58
	c2.38,9.59,4.52,19.25,7.36,28.7c1.08,3.6,3.75,6.74,5.77,10.04c2.96,4.84,7.98,6.58,12.99,7.87c4.73,1.22,9.05-0.91,13.13-3.16
	c3.96-2.18,5.79-5.71,6.03-10.12c0.1-1.77-0.06-3.55,0.02-5.32c0.1-2.21,1.41-3.92,3.18-4.1c1.89-0.19,3.24,0.87,3.9,2.49
	c3,7.42,5.99,14.84,8.79,22.34c3.05,8.16,6.04,16.34,8.76,24.61c2.13,6.44,5.93,12.01,8.77,18.06c1.19,2.54,1.88,5.31,2.86,7.95
	c3.64,9.75,8.35,18.94,14.07,27.67c5.43,8.28,10.28,16.93,15.62,25.26c2.71,4.22,5.9,8.14,8.95,12.14c2.35,3.08,4.79,6.1,7.25,9.09
	c2.92,3.54,6.02,6.94,8.85,10.56c3.12,3.99,5.98,8.18,9.05,12.22c6.74,8.87,15.06,16.24,22.76,24.2
	c5.72,5.91,11.69,11.59,16.52,18.32c3.43,4.78,6.89,9.56,10.64,14.09c2.78,3.35,6.04,6.3,9.08,9.42c0.66,0.68,1.47,1.25,1.99,2.02
	c3,4.44,7.7,4.97,12.4,5.47c6.22,0.66,12.44,1.28,18.65,1.9c5.75,0.57,11.51,1.1,17.26,1.69c6.22,0.63,12.42,1.39,18.65,1.91
	c3.53,0.29,7.1,0.02,10.63,0.31c3.59,0.29,7.15,0.95,10.79,1.95c-3.44,2.12-7.23,3.02-10.83,4.39c-114.06,0-228.12,0-342.18,0
	C128.36,773.47,128.36,757.14,128.36,740.81z"/>
<path d="M929.86,789.8c3.05-4.48,6.09-8.97,9.16-13.45c0.6-0.88,1.13-1.87,1.93-2.53c3.79-3.1,6.49-7.08,9.44-10.92
	c6.22-8.08,11.37-16.73,15.88-25.84c1.82-3.69,3.9-7.25,5.7-10.94c1.01-2.06,1.69-4.28,2.01-6.93c-2.88,1.67-5.79,3.27-8.62,5.01
	c-2.72,1.67-6.08,1.46-7.08-1.06c-0.72-1.81-0.74-4.19-0.28-6.13c1.91-7.98,5.75-15.23,10.01-22.1c3.58-5.77,7.39-11.53,12.67-16.06
	c1.78-1.53,3.19-3.49,4.98-5.01c3.23-2.74,6.65-5.25,9.93-7.94c1.08-0.89,1.94-2.05,2.92-3.07c1.75-1.81,4.05-2.09,5.63-0.72
	c1.83,1.59,1.9,3.34,0.22,5.58c-2.19,2.93-3.11,5.42-3.45,9.64c2.93-1.81,4.66-4.5,6.7-6.83c4.95-5.63,9.06-11.86,11.48-18.95
	c1.66-4.87,2.59-10.01,3.62-15.08c0.37-1.81,0.37-3.6,2.55-4.13c1.68-0.4,4.06,1.02,4.68,3.02c0.48,1.54,0.92,3.32,0.62,4.84
	c-1.29,6.65-1.85,13.23,0.54,19.8c-2.92,0.02-2.92,0.02-6.42-3.96c-0.43,0.25-1.19,0.43-1.33,0.82
	c-2.82,8.09-8.95,14.04-13.44,21.04c-3.12,4.86-7.39,8.53-11.44,12.47c-3.34,3.25-5.83,7.12-7.97,11.18
	c-3.4,6.46-6.65,12.99-9.8,19.58c-1.57,3.29-2.58,6.85-4.19,10.13c-3.27,6.67-6.88,13.16-10.14,19.83
	c-3.81,7.81-9.29,14.45-14.33,21.41c-0.55,0.76-1.15,1.5-1.77,2.21c-4.43,5.03-8.87,10.05-13.31,15.08
	C934.59,789.8,932.22,789.8,929.86,789.8z M966.42,714.8c8.46-4.77,13.05-12.91,18.83-19.87c1.31-1.58,4.98-14.23,4.95-16.2
	C982.23,682.92,966.81,704.63,966.42,714.8z"/>
<path d="M1040.61,480.98c-0.49-3.35-1.04-6.69-1.46-10.05c-1.14-9.12-2.23-18.25-3.32-27.38c-0.8-6.67-1.82-13.33-2.28-20.02
	c-0.7-10.23-1.26-20.49-1.38-30.75c-0.11-9.79-0.03-19.63,0.78-29.38c0.83-10.02,0.97-20.03,1.39-30.05
	c0.47-11.06,1.67-22.09,2.55-33.13c0.03-0.35,0.06-0.71,0.07-1.06c0.26-7.9,0.41-15.81,0.82-23.71c0.55-10.71,1.36-21.42,1.93-32.13
	c0.24-4.48,0.1-8.98,0.23-13.47c0.04-1.25,0.44-2.5,0.68-3.74C1040.61,311.07,1040.61,396.03,1040.61,480.98z"/>
<path d="M713.23,11.75c-11.13,0.27-21.76,0.51-32.39,0.79c-7.06,0.19-14.13,0.26-21.18,0.73c-5.75,0.38-11.48,1.19-17.2,1.94
	c-6.78,0.89-13.57,1.79-20.31,2.96c-4.29,0.75-8.51,1.95-12.74,3.03c-6.41,1.63-12.74,3.61-19.2,4.94
	c-14.55,3.01-29.16,5.71-43.74,8.53c-5.32,1.03-10.63,2.19-15.98,3.03c-7.46,1.17-14.96,2.06-22.43,3.16
	c-4.78,0.7-9.54,1.57-14.31,2.37c-16.06,2.7-32.1,5.52-48.19,8.05c-7.1,1.11-14.3,1.54-21.44,2.45c-4.8,0.61-9.56,1.47-14.32,2.3
	c-11.51,2-23.04,3.95-34.52,6.12c-6.95,1.31-13.83,3.01-20.74,4.51c-7.38,1.6-14.75,3.33-22.17,4.72
	c-10.25,1.91-19.74,5.68-28.43,11.33c-5.5,3.58-9.55,8.73-13.52,13.91c-3.88,5.06-8.16,9.85-11.69,15.13
	c-4.32,6.45-8.61,13.03-11.89,20.03c-3.98,8.5-7.11,17.42-10.18,26.31c-1.92,5.55-3.39,11.31-4.44,17.09
	c-1.37,7.52-2.14,15.15-3.13,22.74c-0.99,7.6-1.92,15.21-2.91,22.81c-0.84,6.41-1.95,12.8-2.56,19.23
	c-0.74,7.85-1.17,15.73-1.59,23.61c-0.54,10.14-1.27,20.28-1.32,30.43c-0.15,33.6-0.02,67.2-0.03,100.8
	c0,12.87,0.12,25.74-0.24,38.6c-0.11,3.99-1.52,7.97-2.6,11.88c-0.23,0.83-1.63,1.86-2.51,1.88c-1.59,0.05-2.01-1.43-1.94-2.83
	c0.2-3.89,0.55-7.77,0.7-11.66c0.29-7.44,0.65-14.87,0.7-22.31c0.12-16.53,0.01-33.06,0.11-49.58c0.04-7.2,0.55-14.39,0.55-21.59
	c-0.01-8.14-0.61-16.29-0.48-24.43c0.17-10.74,0.8-21.46,1.25-32.2c0.49-11.91,0.81-23.84,1.59-35.74
	c0.37-5.7,1.62-11.35,2.47-17.02c0.04-0.23,0.09-0.47,0.11-0.7c0.76-7.74,1.38-15.5,2.31-23.22c0.89-7.49,1.98-14.96,3.18-22.41
	c0.93-5.8,2.03-11.58,3.3-17.32c2.08-9.46,5.49-18.49,8.96-27.51c3.62-9.4,8.62-18.08,13.82-26.64c2.5-4.11,5.92-7.64,8.76-11.56
	c5.49-7.58,11.49-14.71,18.62-20.78c2.57-2.18,5.71-3.71,8.65-5.44c6.99-4.11,14.46-6.7,22.5-8.14c11.27-2.02,22.39-4.88,33.63-7.13
	c12.15-2.43,24.36-4.58,36.54-6.85c4.18-0.78,8.34-1.64,12.54-2.26c6.42-0.95,12.87-1.71,19.29-2.59
	c7.71-1.06,15.44-2.02,23.13-3.27c17.47-2.85,34.9-5.9,52.36-8.77c10.48-1.72,20.98-3.31,31.48-4.86
	c10.76-1.59,21.41-3.62,31.99-6.16c7.11-1.71,14.41-2.61,21.56-4.17c5.53-1.21,10.93-3,16.45-4.31c6.89-1.63,13.8-3.2,20.76-4.49
	c6.49-1.21,13.03-2.34,19.61-2.92c7.28-0.65,14.62-0.69,21.94-0.93c8.38-0.27,16.75-0.47,25.13-0.68c9.8-0.24,19.63-1.03,29.39-0.54
	c11.88,0.59,23.85,0.2,35.64,2.5c4.27,0.83,8.69,0.89,12.98,1.64c4.3,0.75,8.52,1.92,12.77,2.9c11.39,2.62,22.79,5.17,34.15,7.88
	c12.86,3.07,25.68,6.31,38.54,9.4c6.66,1.6,13.4,2.91,20.04,4.61c5.14,1.32,10.18,3.04,15.26,4.59c0.23,0.07,0.45,0.14,0.67,0.24
	c5.76,2.67,11.52,5.33,17.26,8.03c0.74,0.35,1.44,0.84,2.06,1.37c5.7,4.92,12.29,8.34,19.07,11.43c1.28,0.58,2.68,0.91,4.05,1.25
	c6.09,1.51,11.26,4.18,15.59,9.1c2.86,3.24,7.08,5.43,10.97,7.58c4.96,2.73,10.22,4.91,15.31,7.4c9.38,4.57,16.68,11.44,22.07,20.35
	c1.83,3.02,3.56,6.11,5.23,9.23c2.65,4.96,3.27,10.19,2.51,15.8c-0.86,6.42-1.1,12.91-1.71,19.36c-0.43,4.58-0.94,9.16-1.59,13.71
	c-0.83,5.84-1.89,11.65-2.76,17.49c-1.4,9.42-3.22,18.81-3.92,28.28c-0.6,8.1,0.1,16.29,0.24,24.44c0.07,3.75,0.16,7.51,0.29,11.26
	c0.17,4.48,0.44,8.96,0.58,13.44c0.08,2.6,0.09,5.21-0.01,7.81c-0.27,7.57-1.17,15.03-4.23,22.07c-1.23,2.84-3.21,4.89-6.17,5.94
	c-1.44,0.51-2.61,0.18-3.35-1.13c-0.79-1.4,0.14-2.25,1.22-2.86c4.5-2.55,4.5-7.3,5.22-11.44c1.58-8.96,1.84-18.06,1.47-27.14
	c-0.17-4.12-0.71-8.22-1.07-12.33c-0.08-0.94-0.2-1.88-0.2-2.83c-0.04-7.91,0.09-15.82-0.13-23.72c-0.19-6.8,1.11-13.38,2.11-20.03
	c0.82-5.48,1.42-10.99,2.25-16.47c0.7-4.67,1.79-9.28,2.36-13.96c1.01-8.18,1.8-16.4,2.6-24.6c0.34-3.52,0.45-7.06,0.7-10.59
	c0.39-5.46-1.62-10.15-4.6-14.55c-0.59-0.88-1.19-1.76-1.66-2.71c-4.01-7.97-10.71-13.39-17.75-18.39
	c-2.57-1.82-5.56-3.15-8.52-4.29c-9.67-3.71-18.74-8.39-26.19-15.72c-2.22-2.18-4.78-3.45-7.67-4.16
	c-3.92-0.96-7.67-2.22-11.13-4.42c-4.77-3.04-9.74-5.76-14.55-8.75c-4.65-2.89-9.42-5.41-14.85-6.53c-1.02-0.21-2.29-0.43-2.92-1.12
	c-3.89-4.22-9.35-5-14.37-6.38c-11.83-3.26-23.77-6.14-35.71-8.98c-6.54-1.56-13.18-2.69-19.76-4.09c-1.71-0.36-3.35-1.1-5.06-1.47
	c-9.8-2.16-19.61-4.23-29.41-6.4c-1.71-0.38-3.34-1.14-5.03-1.64c-7.73-2.31-15.66-3.41-23.69-4.01
	c-5.17-0.39-10.31-1.13-15.47-1.72c-0.82-0.09-1.64-0.3-2.46-0.32C733.29,12.22,723.01,11.98,713.23,11.75z"/>
<path d="M695.09,700.96c0.21,0.94,0.24,1.3,0.37,1.62c1.62,4.12,0.92,5.27-3.47,5.68c-0.47,0.04-0.95,0.04-1.41,0.14
	c-8.39,1.94-16.8,3.81-25.15,5.89c-5.72,1.42-11.31,3.36-17.05,4.68c-4.12,0.95-8.39,1.3-12.6,1.85
	c-6.78,0.89-13.55,2.08-20.36,2.45c-4.88,0.26-9.88-0.02-14.27-3.09c-2.78-1.95-5.94-2.17-9.47-1.59
	c-9.34,1.53-18.45,3.92-27.61,6.22c-2.61,0.66-5.35,0.96-8.05,1.12c-2.68,0.16-5.03-2.22-5.01-4.9c0-0.7,0.47-1.66,1.03-2.03
	c1.06-0.7,2.31-1.27,3.55-1.51c4.28-0.84,8.57-1.61,12.89-2.22c1.84-0.26,2.62-0.98,2.85-2.87c0.64-5.16,3.59-7.68,8.78-7.79
	c2.13-0.05,4.26-0.08,6.38-0.16c0.33-0.01,0.65-0.22,0.95-0.33c0.37-3.26,0.32-3.52-2.39-3.83c-2.08-0.24-4.22,0.05-6.33,0.05
	c-8.39-0.01-16.75,0.34-25.03,1.93c-1.14,0.22-2.7-0.08-3.62-0.76c-1.69-1.25-3.4-1.21-5.32-1.24c-7.73-0.1-15.28,1.17-22.85,2.47
	c-1.21,0.21-2.56-0.05-3.78-0.34c-1.57-0.37-2.34-1.5-2.2-3.17c0.13-1.61,0.96-2.64,2.52-3.02c1.03-0.25,2.07-0.52,3.12-0.65
	c4.92-0.58,9.84-1.15,14.77-1.66c3.05-0.32,6.13-0.43,9.17-0.81c2.03-0.25,3.74-1.1,4.83-3.1c1.12-2.06,2.57-3.93,3.87-5.89
	c1.33-2.02,2.66-4.04,4.07-6.2c0.97,3.36-0.77,6.01-2.19,8.75c-0.83,1.6-1.53,3.27-2.61,5.61c2.68,0.06,4.53,0.31,6.34,0.12
	c10.23-1.1,20.49-1.5,30.78-1.31c9.09,0.17,18.19,0.74,27.27,0.61c7.3-0.11,14.59-0.99,21.88-1.55c4.94-0.38,9.9-0.64,14.81-1.22
	c7.37-0.86,14.77-1.69,22.07-3.02c9.51-1.74,18.86-4.33,28.4-5.86c7.68-1.23,15.52-0.55,23.3-0.15c3.4,0.18,6.81,0,10.21-0.03
	c1.3-0.01,2.6-0.02,3.9-0.12c3.88-0.29,7.75-0.64,11.63-0.93c1.75-0.13,3.59-0.5,5.24-0.14c1.32,0.29,2.96,1.31,3.48,2.45
	c0.42,0.92-0.34,2.68-1.04,3.76c-1.31,1.99-3.5,2.77-5.8,3.02c-2.1,0.23-4.24,0.21-6.34,0.45c-2.91,0.34-5.84,0.66-8.7,1.3
	c-10.72,2.38-21.42,4.8-32.09,7.37C704.27,698.08,699.81,699.58,695.09,700.96z M672.07,693.08c0.04,0.31,0.08,0.61,0.13,0.92
	c8.25,0.16,16.47-0.61,24.6-2.09c8.06-1.46,16.04-3.39,24.06-5.11c-8.24-2.32-16.23-1.04-24.2,0.8c-6.53,1.51-13.07,2.97-19.61,4.44
	C675.39,692.4,673.73,692.73,672.07,693.08z M612.98,703.63c-3.91-0.62-7.82-1.27-11.74-1.83c-1.98-0.28-3.99-0.57-5.97-0.49
	c-0.81,0.03-1.57,1.06-2.35,1.63c0.79,0.54,1.52,1.44,2.37,1.57C601.14,705.42,607,705.86,612.98,703.63z M646.62,712.67
	c-3.67-1.42-5.44-1.02-7.74,1.23C641.68,713.45,644.15,713.06,646.62,712.67z"/>
<path d="M906.4,476.69c-1.32-0.32-2.02-0.43-2.69-0.65c-1.8-0.59-3.08-1.76-3.38-3.68c-0.21-1.33,1.62-3.68,3.35-4.02
	c2.29-0.45,4.65-0.64,6.99-0.81c1.83-0.13,3.53,0.78,3.8,2.48c0.17,1.05-0.83,2.76-1.8,3.43
	C910.59,474.86,908.2,475.79,906.4,476.69z"/>
</svg>
