<?xml version="1.0" encoding="utf-8"?>
<!-- Generator: Adobe Illustrator 24.1.0, SVG Export Plug-In . SVG Version: 6.00 Build 0)  -->
<svg version="1.1" id="Layer_1" xmlns="http://www.w3.org/2000/svg" xmlns:xlink="http://www.w3.org/1999/xlink" x="0px" y="0px"
	 viewBox="0 0 1224 792" style="enable-background:new 0 0 1224 792;" xml:space="preserve">
<path d="M547.33,365.32c0.55-4.21,1.16-8.41,1.63-12.63c2.32-20.65,2.16-41.36,1.18-62.06c-0.79-16.77-1.39-33.51-0.64-50.3
	c0.37-8.3-0.18-16.63,0.03-24.94c0.12-4.63,0.94-9.24,1.47-13.86c0.37-3.27,0.71-6.56,1.2-9.81c0.45-3.02,0.93-6.05,1.68-9.01
	c1.08-4.24,2.54-8.39,3.61-12.63c1.73-6.89,5.04-12.92,9.44-18.44c6.24-7.82,12.3-15.78,18.65-23.5c2.54-3.09,5.6-5.78,8.49-8.57
	c6.85-6.61,13.76-13.16,20.62-19.77c6.6-6.37,14.41-11.07,22.44-15.21c10.3-5.31,19.14-12.7,28.78-18.93
	c6.15-3.97,11.67-8.98,18.02-12.53c12.37-6.92,24.7-14.02,38.64-17.63c6.98-1.8,13.66-4.71,20.96-5.33
	c9.65-0.82,19.26-1.74,28.97-0.54c8.25,1.03,16.58,1.43,24.83,2.52c3.71,0.49,7.4,1.69,10.89,3.09
	c13.28,5.32,26.64,10.47,39.63,16.42c9.54,4.37,18.58,9.82,27.77,14.91c4.6,2.55,8.93,5.6,13.6,8c6.48,3.33,12.35,7.45,17.84,12.2
	c4.34,3.75,8.9,7.28,12.98,11.29c6.81,6.67,13.51,13.48,19.88,20.57c2.9,3.23,4.99,7.21,7.28,10.95c3.05,4.99,5.92,10.09,8.89,15.13
	c6.15,10.41,11.74,21.11,16.92,32.04c5.02,10.59,10.14,21.13,15.4,31.59c2.41,4.8,5.53,9.25,7.89,14.07
	c3.75,7.67,7.05,15.56,10.72,23.28c2.2,4.63,4.92,9.02,7.09,13.67c2.41,5.17,4.45,10.52,6.67,15.79c0.85,2.01,1.76,3.99,2.4,5.45
	c5.34-0.24,10.2-0.23,15.02-0.72c6.07-0.61,12.18-1.25,18.12-2.58c6.73-1.5,13.04-0.95,19.35,1.64c3.33,1.37,4.25,4.23,4.72,7.26
	c1.15,7.37,2.04,14.77,3.12,22.15c0.54,3.7,1.54,7.35,1.8,11.05c0.28,3.87-0.11,7.79-0.15,11.69c-0.06,5.6,0.1,11.21-0.16,16.8
	c-0.16,3.36-1.15,6.68-1.39,10.05c-0.27,3.78-0.25,7.59-0.06,11.38c0.09,1.91,0.41,4.02,1.33,5.65c4.28,7.6,3.01,14.59-2.04,21.15
	c-1.05,1.36-2.76,2.75-4.37,3.05c-6.47,1.23-10.74,5.4-13.9,10.55c-4.47,7.27-8.33,14.92-12.36,22.46c-0.79,1.48-1.16,3.2-1.69,4.82
	c-0.79,2.43-1.7,4.83-2.3,7.31c-0.92,3.77-1.77,7.57-2.4,11.4c-0.69,4.21-1.95,5.17-6.15,4.43c-5.3-0.93-10.68-1.5-15.92-2.7
	c-5.32-1.23-10.51-3.05-15.77-4.59c-0.57-0.17-1.17-0.2-2.3-0.38c-0.12,1.69-0.41,3.21-0.3,4.7c0.39,5.5,0.98,10.98,1.34,16.48
	c0.1,1.54-0.06,3.21-0.59,4.63c-0.3,0.8-1.61,1.68-2.46,1.68c-0.88,0-1.97-0.87-2.56-1.67c-0.54-0.71-0.67-1.82-0.74-2.78
	c-0.53-6.55-0.87-13.12-1.53-19.66c-0.34-3.37-0.92-6.78-1.91-10.01c-0.92-2.98-2.33-5.86-3.93-8.55c-1.46-2.45-1.98-4.98-0.63-7.3
	c1.5-2.58,1.41-5.19,1.14-7.81c-0.3-2.88-1.09-5.71-1.8-9.18c-1.13,0.66-2.07,0.92-2.58,1.55c-3.8,4.61-7.49,9.32-11.27,13.95
	c-5.42,6.62-8.77,14.35-11.85,22.2c-2.85,7.25-5.43,14.61-8.41,21.81c-4.69,11.34-5.98,23.1-4.91,35.2c0.28,3.15,1.02,6.26,1.6,9.37
	c0.43,2.3-0.16,4.18-1.42,6.2c-1.1,1.76-1.82,4.06-1.84,6.13c-0.11,12.26,0,24.52,0.09,36.79c0.03,4.48-1.07,8.66-2.72,12.79
	c-1.85,4.64-3.45,9.38-5.16,14.07c-0.21,0.57-0.29,1.28-0.67,1.69c-4.31,4.48-5.68,10.38-7.95,15.88c-1.43,3.46-3.61,6.6-5.48,9.87
	c-2.42,4.22-5.08,8.31-7.27,12.64c-5.95,11.72-14.15,21.61-24.01,30.19c-3.03,2.63-6.2,5.1-9.28,7.67
	c-1.75,1.46-3.21,2.82-3.21,5.63c0,2.61-1.74,4.91-4.81,5.21c-7.07,0.69-11.79,5.15-16.61,9.77c-5.32,5.1-11.47,9.13-18.26,12.12
	c-1,0.44-2.07,0.81-2.95,1.44c-5.77,4.11-12.36,5.98-19.24,6.7c-3.11,0.33-6.35-0.22-9.49-0.69c-5.45-0.8-10.96-1.48-16.27-2.88
	c-6.94-1.84-13.55-4.3-18.99-9.63c-8.44-8.26-16.74-16.69-27.49-22.32c-6.53-3.42-12.62-7.95-18.27-12.73
	c-9.24-7.82-18.2-16-26.79-24.52c-4.29-4.26-7.51-9.6-11.22-14.45c-2.08-2.71-4-5.57-6.3-8.08c-6.1-6.62-9.86-14.47-12.77-22.87
	c-1.79-5.18-3.74-10.31-5.8-15.38c-1.73-4.26-3.65-8.46-5.62-12.62c-3.31-6.97-8.94-12.05-14.2-17.48
	c-7.8-8.05-16.13-15.63-22.15-25.31c-4.25-6.83-9.22-13.21-13.89-19.78c-3.37-4.74-6.74-9.5-10.19-14.18
	c-2.12-2.87-3.72-2.98-6.93-1.48c-4.74,2.22-9.46,4.76-14.47,6.06c-4.03,1.05-8.52,0.94-12.73,0.51
	c-8.02-0.83-15.98-2.21-23.95-3.45c-7.83-1.22-14.48-4.68-18.78-11.47c-1.85-2.92-3.03-6.41-3.92-9.79
	c-1.86-7.16-6.09-12.63-11.19-17.73c-3.65-3.65-7.93-6.03-12.6-7.96c-3.17-1.3-6.24-2.86-9.35-4.29c-0.89-0.41-1.77-1.07-2.69-1.14
	c-4.7-0.35-7.69-3.36-10.69-6.47c-7.63-7.92-15.32-15.78-22.89-23.77c-1.4-1.48-2.46-3.35-3.39-5.18c-2.1-4.13-4.14-8.3-5.98-12.56
	c-1.93-4.47-3.72-9-5.32-13.59c-1.06-3.04-0.27-5.98,1.26-8.8c3.63-6.64,7.24-13.29,10.68-20.03c3.47-6.8,9.18-10.71,16.22-12.84
	c8.13-2.46,15.93-0.89,23.57,2.32c3.04,1.28,6.34,1.98,9.32,3.37c2.94,1.38,5.74,3.15,8.4,5.05c1.66,1.19,2.76,1.4,4.49,0.07
	c3.54-2.73,4.82-2.59,8.48,0.04c1.09,0.78,2.16,1.61,3.31,2.3c3.31,2,4.54,1.73,6.93-1.31c1.37-1.74,3.25-2.07,5.29-1.58
	c2.14,0.51,2.03,2.41,1.87,3.89c-0.76,7.03,4.51,11.14,7.13,16.52C546.48,365.53,546.91,365.43,547.33,365.32z M553.59,469
	c0.69-1.25,0.91-2.01,1.4-2.49c5.23-5.05,11.04-8.96,18.64-9.13c3.8-0.09,7.6-0.01,11.4-0.08c2.31-0.04,3.98-0.78,4.1-3.59
	c0.11-2.77,0.66-5.52,0.89-8.28c0.14-1.71,0.52-3.21,2.3-3.8c1.61-0.53,3.29-0.5,4.28,1.09c0.86,1.38,1.72,2.9,1.99,4.46
	c0.55,3.2,0.97,3.59,4.31,3.35c5.57-0.4,10.84-1.83,15.93-4.1c2.37-1.06,4.46-0.38,4.7,1.66c0.18,1.51-0.33,3.45-1.24,4.67
	c-1.78,2.38-4.26,3.8-7.49,3.9c-3.16,0.1-6.37,0.44-9.45,1.15c-3.18,0.73-3.8,2.47-2.67,5.53c0.42,1.13,0.67,2.32,0.99,3.48
	c0.54,1.96,1.01,3.93,1.61,5.87c0.32,1.03,1.04,1.97,1.22,3.01c0.42,2.33,1.72,3.84,3.92,4.34c2.62,0.6,3.7,2.13,3.6,4.72
	c-0.06,1.59-0.09,3.18,0.02,4.76c0.07,1.06,0.14,2.29,0.69,3.12c2.62,3.96,5.38,7.83,8.17,11.67c0.77,1.06,2.34,1.78,2.66,2.9
	c0.86,2.99,2.46,5.41,4.1,8c3.46,5.48,6.93,10.93,11.37,15.64c6.2,6.58,12.6,12.98,18.97,19.42c6.45,6.52,11.21,14.05,14.33,22.69
	c2.11,5.85,4.57,11.57,6.85,17.36c0.66,1.69,1.3,3.39,1.84,5.12c1.43,4.54,3.02,8.97,6.03,12.78c3.16,4.01,6.2,8.12,9.3,12.17
	c3.19,4.17,6.03,8.69,9.68,12.4c6.23,6.32,13.06,12.04,19.48,18.17c5.85,5.58,11.83,10.95,18.76,15.19
	c4.88,2.98,9.71,6.05,14.46,9.24c7.63,5.13,14.81,10.8,20.67,17.97c4.36,5.34,10.59,7.4,16.83,9.04c5.42,1.43,11.1,1.84,16.63,2.88
	c8.21,1.54,15.86,0.01,22.93-4.23c6.27-3.75,12.39-7.76,18.53-11.72c2.86-1.85,5.45-4.01,7.26-7.34c-0.92-0.27-1.6-0.66-2.25-0.63
	c-4.4,0.23-8.8,0.6-13.2,0.83c-3.3,0.17-6.61,0.35-9.9,0.22c-3.16-0.12-4.94-1.76-5.16-4.21c-0.3-3.38,2.85-5.67,6.82-4.92
	c1.08,0.2,2.13,0.78,3.19,0.77c7.35-0.1,14.7-0.37,22.06-0.48c6.39-0.09,12.42-1.04,17.03-6.09c0.4-0.44,1.02-0.67,1.53-1.01
	c10.04-6.85,18.92-14.75,26.1-24.77c6.02-8.4,10.2-17.73,15.33-26.57c3.97-6.83,6.96-14.23,10.32-21.42
	c1.59-3.4,3.1-6.84,4.51-10.31c2.2-5.43,4.86-10.81,5-16.77c0.25-10.42,0.13-20.84,0.14-31.27c0-1.31-0.2-2.62-0.36-4.54
	c-1.42,0.56-2.56,0.7-3.26,1.33c-5.96,5.39-10.93,11.44-12.73,19.56c-0.2,0.91-0.65,1.95-1.33,2.55c-3.1,2.75-6.17,5.59-9.55,7.97
	c-3.03,2.13-4.76,1.6-7.28-1.2c-3.76-4.18-7.27-8.64-11.4-12.42c-4.64-4.25-6.62-9.88-9.23-15.22c-0.51-1.03-0.63-2.44-0.45-3.6
	c0.89-5.8,1.97-11.6,4.45-16.95c1-2.14,1.36-3.71-0.21-5.65c-2.08-2.56-1.84-5.43-0.55-8.31c4.01-8.96,10.07-16.11,18.48-21.28
	c3.15-1.93,6.26-2.48,9.79-1.24c7.69,2.69,14.72,6.56,21.27,11.36c0.95,0.7,2,1.25,3.41,2.12c0.7-1.72,1.37-2.99,1.75-4.34
	c1.23-4.33,2.03-8.81,3.57-13.02c3.73-10.19,7.56-20.37,11.78-30.37c4.08-9.65,10.78-17.67,17.24-25.79
	c3.95-4.96,8.06-9.8,12.02-14.76c1.65-2.07,3.55-2.88,5.33-1.86c2.12,1.22,1.92,3.07,1.43,5.14c-0.53,2.23-1.19,4.6-0.96,6.82
	c0.79,7.65,1.63,15.32,3.04,22.87c1.34,7.18,5.69,12.04,13.08,13.74c0.95,0.22,1.94,0.43,2.8,0.86c5.27,2.62,11.02,3.18,16.72,3.71
	c3.68,0.35,4.11-0.21,5.27-3.63c1.6-4.72,2.98-9.54,4.98-14.09c4.73-10.74,10.98-20.65,17.41-30.44c2.92-4.45,6.79-7.64,11.67-9.64
	c4.88-2,7.25-5.44,7.26-10.72c0-1.79,0.39-3.67-1.89-4.7c-0.63-0.28-1.12-1.61-1.11-2.45c0.09-6.74,0.12-13.49,0.55-20.21
	c0.59-9.4,1.77-18.77,2.18-28.17c0.22-4.96-1.09-9.97-0.98-14.94c0.21-8.81-2.57-17.18-3.24-25.84c-0.23-2.96-1.69-4.41-4.19-4.78
	c-6.28-0.94-12.44,0.21-18.41,1.8c-3.08,0.82-6.02,1.77-9.25,1.83c-1.55,0.03-3.08,0.76-4.65,1c-1.03,0.16-2.18,0.26-3.14-0.05
	c-6.25-2.01-8.43-0.92-10.21,5.34c-1.93,6.81-3.58,13.7-5.79,20.42c-2.15,6.53-4.79,12.9-7.34,19.29c-0.67,1.68-1.62,3.31-2.71,4.75
	c-0.98,1.29-2.41,2.41-4.06,0.99c-1.29-1.12-2.33-2.4-1.3-4.45c2.32-4.64,3.55-9.55,3.64-14.82c0.03-1.8,0.74-4.1,1.99-5.29
	c5.8-5.51,6.79-12.83,7.88-20.03c0.77-5.09-1.5-9.82-2.85-14.65c-1.99-7.11-5.13-13.69-8.45-20.23c-2.7-5.32-5.38-10.66-7.91-16.06
	c-3.51-7.51-6.26-15.45-10.44-22.56c-4.98-8.46-9.49-17.13-13.42-26.07c-5.03-11.42-10.55-22.55-16.8-33.33
	c-4.47-7.71-8.72-15.54-13-23.37c-3.82-7-8.11-13.67-13.72-19.38c-6.43-6.55-13.02-12.94-19.5-19.44
	c-9.74-9.76-21.47-16.78-33.02-24.03c-7.34-4.6-14.72-9.19-22.36-13.26c-6.89-3.67-14.1-6.78-21.3-9.84
	c-7.09-3.01-14.51-5.29-21.46-8.57c-5.25-2.48-10.57-4.65-16.16-5.83c-13.01-2.74-26.32-2.61-39.52-2.94
	c-11.2-0.28-22.13,1.88-32.73,5.63c-2.51,0.89-5.33,0.95-7.76,1.98c-13.83,5.87-27.51,12.02-39.61,21.18
	c-5.72,4.34-12.03,7.91-17.67,12.34c-7.92,6.21-16.56,11.22-25.27,16.11c-7.95,4.47-15.33,9.56-21.63,16.17
	c-1.52,1.6-3.09,3.14-4.64,4.71c-7.4,7.47-15.04,14.72-22.11,22.49c-5.17,5.68-9.58,12.04-14.33,18.1
	c-4.6,5.89-8.88,11.92-9.33,19.79c-0.04,0.68-0.66,1.31-0.86,2c-1.33,4.53-3.28,9-3.78,13.62c-0.94,8.72-3.09,17.34-2.58,26.2
	c0.01,0.24-0.1,0.48-0.1,0.73c-0.05,4.99-0.14,9.99-0.13,14.98c0,3.17,0.32,6.34,0.19,9.5c-0.25,5.6-1.13,11.19-1.05,16.78
	c0.2,13.96,0.98,27.91,1.17,41.87c0.18,13.11,0.23,26.24-0.28,39.34c-0.37,9.52-1.79,18.99-2.66,28.49
	c-0.29,3.17,0.02,3.67,3.08,4.33c4.78,1.03,9.59,2.13,14.44,2.62c11.32,1.13,22.68,1.85,34.02,2.86c8.89,0.8,17.75,1.89,26.64,2.65
	c4.14,0.36,8.42-0.29,12.46,0.47c7.19,1.35,14.38,3.03,21.33,5.29c7.43,2.41,14.59,5.66,21.88,8.51c2.96,1.15,6,2.08,8.92,3.32
	c3.24,1.38,6.24,3.53,9.59,4.36c4.25,1.06,6.31,3.97,8.09,7.34c3.13,5.9,2.37,7.61-3.86,9.31c-0.31,5.1,2.91,9.02,5.07,13.05
	c6.08,11.39,12.09,22.86,20.2,33.04c7.19,9.03,14.52,17.97,21.22,27.35c3.94,5.51,7.39,11.56,9.95,17.82
	c2.75,6.71,4.64,13.87,6.12,20.99c1.66,7.98,2.08,16.23,5.95,23.65c0.28,0.53,0.23,1.21,0.46,1.77c2.42,5.86,4.46,11.98,9.24,16.48
	c3.71,3.49,7.69,6.7,11.51,10.08c1.1,0.97,2.37,1.9,3.06,3.13c3.21,5.75,7.88,10.15,12.81,14.35c2.72,2.32,5.82,3.62,9.38,3.72
	c3.31,0.1,6.62,0.09,9.93,0.04c1.94-0.03,3.79-0.45,4.96-1.68c-0.89-1.75-1.92-3.05-2.22-4.5c-1.09-5.27-2.18-10.57-0.21-15.92
	c0.28-0.77,0.18-1.7,0.18-2.56c0.02-4.39,0.55-8.78-1.3-13.05c-0.81-1.87-0.33-3.96,1.77-5.07c2.06-1.09,4.06-0.93,5.68,0.86
	c0.55,0.61,0.81,1.48,1.21,2.23c0.37-0.23,0.73-0.45,1.1-0.68c0.12-1.16,0.39-2.32,0.35-3.47c-0.34-8.92-0.68-17.83-1.12-26.74
	c-0.44-9.01,0.38-17.92,3.33-26.41c3.5-10.06,9.19-19.07,14.85-28.04c3.13-4.96,6.44-9.83,9.11-15.04
	c4.61-8.99,10.38-17.16,16.98-24.7c6.03-6.88,12.52-13.39,19.07-19.8c7.31-7.15,13.27-15.32,18.89-23.77
	c3.25-4.89,6.02-10.01,7.64-15.76c0.89-3.13,2.5-6.12,4.17-8.94c1.79-3,3.98-3.59,6.44-2.09c10.01,6.11,20.9,10.04,32.05,13.4
	c5.49,1.65,11.07,1.83,16.73,1.71c2.71-0.06,5,2.46,4.87,4.85c-0.11,2.1-3.07,4.42-5.45,4.4c-4.17-0.05-8.08-0.82-12.05-2.34
	c-6.03-2.3-12.4-3.69-18.54-5.73c-5.44-1.81-10.71-4.13-16.14-5.97c-4.39-1.49-4.94-1.11-6.49,3.11
	c-6,16.28-16.15,29.74-28.32,41.85c-5.53,5.51-10.98,11.1-16.34,16.77c-2.18,2.3-4.14,4.82-6.02,7.38
	c-3.03,4.13-6.11,8.25-8.79,12.61c-3.95,6.42-7.41,13.14-11.35,19.58c-5.73,9.37-11.27,18.83-15.83,28.83
	c-0.75,1.65-1.46,3.45-1.63,5.23c-0.62,6.45-1.26,12.92-1.39,19.39c-0.1,4.99,0.63,9.98,0.84,14.98c0.44,10.53,0.95,21.06,1.09,31.6
	c0.08,6.16,0.6,12.2,2.03,18.19c1.14,4.79-0.39,7.36-4.85,9.31c-8.11,3.54-16.6,4.34-25.22,3.23c-3.79-0.49-7.91-1.46-11.02-3.51
	c-3.89-2.56-6.97-6.4-10.27-9.81c-4.33-4.48-8.61-9.02-12.79-13.65c-3.99-4.43-9.1-7.9-11.64-13.57c-1.4-3.11-2.92-6.18-4.12-9.37
	c-2.58-6.84-5.2-13.68-7.35-20.66c-0.95-3.09-0.57-6.57-1.21-9.78c-2.3-11.46-6.61-22.24-12.54-32.23
	c-3.53-5.95-8.18-11.25-12.45-16.74c-3.29-4.23-7.02-8.13-10.12-12.49c-4.8-6.77-9.41-13.65-13.6-20.87
	c-5.76-9.93-11.41-19.84-16.24-30.27c-3.35-7.23-7.57-13.88-15.96-16.72c-7.72-2.61-15.18-5.98-22.81-8.86
	c-2.15-0.81-4.56-0.91-6.76-1.62c-8.01-2.62-16.18-3.51-24.6-3.47c-6.83,0.03-13.82-0.14-20.46-1.55
	c-7.51-1.59-15.07-1.57-22.59-2.36c-10.58-1.11-21.29-0.81-31.8-3c-1.85-0.39-3.96,0.58-5.96,0.83c-1.51,0.19-3.04,0.36-4.56,0.33
	c-0.92-0.02-1.83-0.45-3.16-0.8c-0.31,1.51-0.79,2.77-0.77,4.02c0.03,1.66,0.35,3.33,0.71,4.96c0.65,2.95,1.43,5.87,2.15,8.81
	c0.32,1.3,0.85,2.6,0.88,3.9c0.06,3.34-2.44,5.09-5.64,4.27c-3.29-0.84-4.89-3.1-5.39-6.25c-0.31-1.93-0.42-3.89-0.55-5.85
	c-0.43-6.1-0.84-12.2-1.22-18.31c-0.14-2.29-0.6-4.44-2.58-5.83c-3.5-2.46-7.09-4.8-10.63-7.2c-1.5-1.02-2.99-2.04-4.43-3.14
	c-5.52-4.2-10.91-8.59-16.58-12.57c-2.35-1.65-5.24-2.59-7.99-3.58c-4.47-1.61-8.92-3.58-13.55-4.36
	c-10.15-1.7-17.97,3.57-22.62,12.98c-2.48,5.02-5.17,9.93-7.85,14.85c-1.08,1.99-1.65,3.91-1.35,6.28
	c0.74,5.74,2.86,11.03,4.62,16.47c3.58,11.09,10.51,19.71,18.76,27.55c3.62,3.44,6.92,7.21,10.52,10.66c1.54,1.48,3.34,3.1,5.3,3.65
	c11.8,3.34,22.87,7.93,31.82,16.68c4.02,3.93,7.73,8.15,10.02,13.32c1.82,4.12,3.22,8.42,4.8,12.65c2.02,5.41,5.73,9.23,11.42,10.27
	c8.55,1.55,17.16,2.89,25.8,3.71c4.32,0.41,8.85-0.13,13.13-1c5.66-1.16,9.8-5.22,14.05-8.87c0.12-0.1,0.01-0.46,0.01-1.16
	c-1.53-0.49-3.3-1.63-4.92-1.45c-2.66,0.31-3.13-1.79-4.5-2.94c-0.32-0.27-1.16-0.03-1.73,0.12c-0.58,0.15-1.2,0.8-1.65,0.67
	c-4.52-1.28-9.23-0.29-13.62-0.96c-3.67-0.56-7.45-0.97-11.12-1.75C556.8,470.39,555.35,469.65,553.59,469z M945.83,515.19
	c-0.36-5.21-0.58-9.11-0.94-13.01c-0.09-0.93-0.4-2.05-1.01-2.68c-2.12-2.15-4.18-4.5-6.7-6.09c-4.12-2.59-8.5-4.81-12.93-6.87
	c-3.71-1.72-7.67-2.05-11.16,0.62c-3.2,2.44-6.41,4.95-9.18,7.84c-2.61,2.72-4.2,6.08-2.16,10.01c0.16,0.31,0.3,0.73,0.24,1.06
	c-0.85,4.19-0.29,8.49-2.8,12.56c-3.77,6.13-4.02,13.13,0.11,19.12c3.85,5.59,8.83,10.41,13.38,15.5c1.43,1.6,3.17,1.44,4.4-0.23
	c1.58-2.13,2.97-4.4,4.3-6.7c0.85-1.47,1.29-3.19,2.18-4.64c4.61-7.51,11.03-13.42,17.81-18.83
	C944.47,520.37,946.24,517.85,945.83,515.19z M566.63,464.95c-0.05,0.27-0.1,0.55-0.14,0.82c0.86,0.38,1.71,1.06,2.58,1.08
	c2.19,0.07,4.38-0.2,6.58-0.26c3.76-0.12,7.54-0.38,11.29-0.2c1.75,0.09,3.43,1.18,5.19,1.61c0.87,0.21,2.44,0.24,2.66-0.19
	c0.41-0.8,0.36-2.1,0-2.99c-1.36-3.34-3.84-3.91-7.05-1.86c-0.88,0.56-2.17,1.61-2.75,1.34c-5.38-2.52-10.77,1.34-16.12-0.19
	C568.23,463.95,567.37,464.66,566.63,464.95z"/>
<path d="M756.67,550.65c0,1.23-0.07,2.46,0.01,3.68c0.27,3.8-1.1,6.87-3.78,9.55c-5.09,5.09-10.19,10.17-15.04,15.48
	c-3.91,4.28-8.57,5.71-13.95,4.16c-9.01-2.6-17.07-6.85-22.18-15.15c-2.17-3.53-3.74-7.32-4.12-11.62
	c-0.35-3.88-1.26-7.71-2.04-11.54c-1.21-5.96-1.18-11.73,2.58-16.87c1.21-1.65,2.58-3.52,4.33-4.39c4.56-2.29,9.24-4.54,14.12-5.98
	c6.08-1.79,12.51-2.4,18.6-4.14c6.88-1.97,11.8,2.26,14.19,6.87c3.62,7,5.41,14.62,7.03,22.24c0.52,2.46,0.08,5.13,0.08,7.7
	C756.55,550.65,756.61,550.65,756.67,550.65z M714.13,525.87c-1.02,0.11-1.49,0.09-1.93,0.22c-5.99,1.78-10.05,6.7-9.92,12.94
	c0.11,5.11,0.89,10.2,1.53,15.29c0.56,4.51,1.86,8.69,4.69,12.47c3.29,4.39,7.65,7.3,12.45,9.38c5.11,2.22,10.29,3.07,14.54-2.37
	c2.92-3.74,6.16-7.32,9.73-10.43c3.25-2.84,5.05-5.94,5.44-10.26c0.93-10.3-1.3-19.94-5.69-29.14c-0.72-1.51-2.33-2.92-3.87-3.64
	c-2.18-1.02-3.46,0.36-2.89,2.73c0.37,1.54,0.57,3.19,1.26,4.59c3.35,6.81,3.03,14,2.43,21.23c-0.24,2.82-1.58,5.09-3.64,6.99
	c-2.37,2.19-6.36,2.29-8.57-0.08c-2.07-2.22-4.15-4.54-5.7-7.13c-1.49-2.49-3.11-3.22-5.95-2.7c-4.61,0.85-7.16-1.31-6.88-6.08
	c0.19-3.36,1.3-6.67,2.02-10C713.46,528.65,713.77,527.43,714.13,525.87z"/>
<path d="M714.09,219.46c1.46-0.41,2.74-1.22,3.71-0.95c3.37,0.95,6.15-0.29,9.07-1.8c-0.71,2.32-0.62,5.08-4.02,5.29
	c-0.45,0.03-0.89,0.37-1.3,0.62C718.08,224.76,716.39,224.16,714.09,219.46z"/>
<path d="M926.98,520.13c-1.49-0.62-2.56-0.93-3.48-1.48c-4.36-2.58-9.01-3.6-14.05-3.01c-2.39,0.28-4.53-0.59-5.58-2.7
	c-0.6-1.21-0.69-3.09-0.21-4.36c1.27-3.4,2.92-6.66,4.54-9.91c0.81-1.62,1.7-3.27,2.87-4.62c2.63-3.01,5.69-2.75,7.68,0.66
	c1.07,1.83,1.62,3.96,2.57,5.87c0.51,1.02,1.2,2.11,2.11,2.71c1.61,1.06,3.46,1.76,5.2,2.62c3.89,1.93,4.78,4.76,2.75,8.6
	c-0.51,0.96-0.73,2.12-1.4,2.93C929.1,518.5,927.93,519.3,926.98,520.13z"/>
</svg>
