<?xml version="1.0" encoding="utf-8"?>
<!-- Generator: Adobe Illustrator 24.1.0, SVG Export Plug-In . SVG Version: 6.00 Build 0)  -->
<svg version="1.1" id="Layer_1" xmlns="http://www.w3.org/2000/svg" xmlns:xlink="http://www.w3.org/1999/xlink" x="0px" y="0px"
	 viewBox="0 0 1224 792" style="enable-background:new 0 0 1224 792;" xml:space="preserve">
<path d="M516.96,469.49c-2.68-1.27-2.68-1.27-2.9-5.91c-0.39-0.28-0.86-0.64-1.36-0.98c-0.4-0.27-0.83-0.52-1.13-0.71
	c-0.98-1.88,0.84-4.97-3.05-5.52c-0.24,0.84-0.78,1.74-0.71,2.58c0.57,6.85,1.32,13.7,1.86,20.55c0.09,1.13-0.19,2.64-0.91,3.41
	c-1.8,1.93-3.14,4.37-5.7,5.57c-0.55,0.26-0.86,1.04-1.52,1.89c-0.2-0.73-0.59-1.33-0.43-1.72c1.44-3.56,1.47-3.55,0.22-6.91
	c-1.41-0.7-2.49-1.37-3.66-1.76c-0.84-0.28-1.95-0.48-2.69-0.15c-1.03,0.46-1.14,1.53-0.22,2.7c1,0,2.15,0,3.61,0
	c-0.43,0.78-0.6,1.43-1.02,1.77c-1.52,1.22-1.98,2.8-1.76,4.64c0.23,1.89-0.45,3.33-1.8,4.64c-1.75,1.71-3.34,3.59-5.06,5.33
	c-1.22,1.25-2.81,1.5-4.48,1.3c-6.68-0.79-8.28-1.19-13.04-4.25c-3.31-2.13-6.36-4.67-9.62-6.88c-5.37-3.64-9.66-8.4-13.79-13.29
	c-1.97-2.33-4.29-4.28-6.14-6.78c-1.86-2.53-3.26-4.98-4.2-7.99c-1.67-5.38-2.64-10.74-2.37-16.39c0.28-6.06,0.05-12.16,0.49-18.21
	c0.35-4.89,1.28-9.74,2.1-14.58c0.65-3.84,2.31-7.5,2.95-11.25c0.61-3.55,2.25-6.38,3.67-9.44c0.97-2.11,2.1-4.14,3.07-6.25
	c2.06-4.47,5.79-7.6,8.88-11.24c0.96-1.13,1.95-2.24,2.92-3.36c4.82-5.57,10.9-6.88,17.81-5.15c5.24,1.32,9.57,4.48,14.06,7.25
	c4.42,2.73,8.74,5.67,12.11,9.75c0.36,0.44,1.07,0.91,1.57,0.86c2.68-0.28,3.99,1.64,5.55,3.21c1.21,1.22,2.43,2.43,3.53,3.53
	c1.86-0.26,2.02-1.68,2.56-2.73c1.73-3.37,3.51-6.71,5.04-10.17c1.24-2.8,2.16-5.74,3.18-8.63c1.25-3.54,2.43-7.11,3.69-10.65
	c0.49-1.37,1.39-2.63,1.64-4.03c0.79-4.3,4.33-7.48,4.7-11.91c0.16-1.97,0.34-3.94,0.5-5.91c0.48-6.28,0.05-12.53-0.7-18.76
	c-0.1-0.86-0.17-1.75-0.05-2.6c0.43-3.06-0.18-6.14,0.06-9.17c0.36-4.77,0.08-9.65,1.89-14.24c0.18-0.45,0.18-0.98,0.19-1.47
	c0.06-7.29,3.08-13.87,5.1-20.67c0.83-2.8,1.97-5.38,4.26-7.59c1.46-1.4,2.58-3.58,3.52-5.51c0.96-1.99,2.38-2.56,4.19-3.07
	c0.91-0.25,1.84-0.7,2.55-1.31c4.1-3.51,8.26-6.96,12.16-10.69c2.93-2.8,5.65-5.87,8.2-9.03c3.48-4.3,6.75-8.76,10.03-13.21
	c2.03-2.75,3.84-5.66,5.85-8.43c3.33-4.59,6.73-9.12,10.12-13.66c0.44-0.59,1.04-1.05,1.55-1.59c0.67-0.71,1.7-1.35,1.91-2.19
	c1.18-4.6,5.26-7,7.79-10.57c1.26-1.78,3.18-3.12,3.61-5.46c0.04-0.21,0.29-0.39,0.46-0.57c2.32-2.48,4.75-4.87,6.92-7.46
	c1.71-2.03,3.38-4.09,4.45-6.64c1.14-2.7,2.77-4.94,5.92-6.15c6.79-2.6,13.27-5.93,19.06-10.44c1.06-0.83,2.31-1.47,3.56-1.99
	c5.6-2.3,11.23-4.55,16.86-6.78c2.72-1.08,5.44-2.16,8.21-3.08c7.85-2.62,15.72-5.15,23.58-7.72c0.24-0.08,0.46-0.28,0.69-0.28
	c6.66-0.1,12.55-3.59,19.05-4.34c0.6-0.07,1.21-0.05,1.81-0.11c2.67-0.27,5.44-0.05,7.74-1.94c0.52-0.42,1.38-0.42,2.08-0.63
	c2.13-0.61,4.24-1.33,6.4-1.83c6.22-1.43,12.09-4.03,18.68-4.35c4.03-0.2,7.81,0.11,11.68,0.89c1.93,0.38,3.92,0.44,5.88,0.73
	c6.95,1.03,13.91,2.08,20.85,3.19c0.8,0.13,1.73,0.5,2.25,1.08c1.5,1.65,3.45,2.37,5.44,3.08c0.58,0.21,1.27,0.26,1.75,0.6
	c4.4,3.12,9.5,4.81,14.45,6.66c4.24,1.59,8.76,2.54,13.24,3.34c6.08,1.08,12.23,1.78,18.45,1.63c2.18-0.05,4.14,0.94,5.27,2.94
	c1.57,2.76,3.24,5.51,4.47,8.43c2.53,6.04,3.88,12.47,5.76,18.73c1.93,6.42,2.4,13.09,4.16,19.52c0.35,1.28,0.03,2.73,0.19,4.08
	c0.15,1.19,0.59,2.35,0.83,3.53c0.24,1.19,0.55,2.4,0.55,3.61c0.01,4.1,0.14,8.16,1.37,12.12c0.21,0.69,0.16,1.48,0.16,2.22
	c0.02,4.59,0.04,9.17,1.34,13.64c0.24,0.81,0.16,1.73,0.1,2.6c-0.4,6.07,1.22,11.73,3.35,17.31c1.18,3.1,2.54,6.13,2.85,9.53
	c0.16,1.68,0.89,3.33,1.5,4.94c1.61,4.3,2.17,8.81,3.08,13.28c0.98,4.84,0.63,9.89,2.45,14.58c0.34,0.89,0.21,1.96,0.31,2.94
	c0.49,4.66,0.84,9.35,1.58,13.97c0.23,1.45,1.37,2.73,0.12,4.19c-0.06,0.07-0.02,0.25,0.01,0.36c1.27,5.38,2.52,10.76,3.82,16.13
	c0.55,2.28,1.18,4.54,1.8,6.8c0.92,3.31,2.02,6.59,2.77,9.94c1,4.44,1.83,8.93,2.55,13.42c1.25,7.73,0.68,15.53,0.61,23.3
	c-0.03,2.91-0.9,5.84-1.62,8.7c-0.92,3.63-1.24,7.29-1.32,11.02c-0.13,6.19-0.53,12.37-0.71,18.55c-0.04,1.59,0.33,3.18,0.5,4.78
	c0.1,0.98,0.34,1.99,0.24,2.95c-0.67,6.24-1.43,12.46-2.11,18.7c-0.08,0.78,0.18,1.59,0.35,2.91c2.71-2.64,4.38-5.3,5.34-8.34
	c0.88-2.82,2.45-5.09,4.52-7.12c1.21-1.19,2.49-1.57,4.03-0.78c1.46,0.76,2.88,1.59,2.85,3.53c-0.03,1.33-0.14,2.65-0.21,3.98
	c1.42,0.48,2.19-0.46,2.76-1.36c1.92-3.01,5-4.69,7.64-6.88c1.6-1.32,3.16-2.7,4.66-4.13c1.8-1.72,3.69-3.29,6.06-4.17
	c1.33-0.49,2.89-0.91,3.74,0.41c0.57,0.89,0.78,2.55,0.33,3.44c-1.22,2.36-1.15,4.79-1.15,7.26c-0.01,4.6-0.05,9.2,0.07,13.79
	c0.06,2.22,0.41,4.43,0.68,6.64c0.19,1.56,0.93,3.02,0.31,4.71c-0.25,0.68,0.12,1.77,0.53,2.48c3.07,5.25-0.51,8.52-3.6,11.76
	c-2.92,3.06-5.88,5.98-7.58,10c-1.3,3.07-3.05,5.96-4.61,8.92c-0.17,0.33-0.5,0.65-0.5,0.98c-0.02,3.29-1.9,5.16-4.64,6.54
	c-0.97,0.49-1.82,1.31-2.6,2.1c-3.64,3.7-7.42,7.28-10.78,11.22c-3.12,3.65-5.68,7.76-8.65,11.55c-2.95,3.76-6.45,6.7-11.64,6.82
	c-2.7,0.06-5.42,0.32-8.1,0.73c-1.16,0.18-2.34,0.79-3.33,1.47c-3.06,2.12-6.22,2.79-9.76,1.29c-1.92-0.82-4-1.28-5.92-2.11
	c-2.17-0.93-3.97-2.39-5.04-4.58c-1.8-3.7-4.28-6.9-7.18-9.77c-2.04-2.02-4.7-1.63-6.71,0.35c-4.32,4.26-6.54,9.68-7.91,15.26
	c-0.88,3.57-1.9,7.21-1.59,11.25c0.51,6.52-2,12.48-6.17,17.7c-2.14,2.68-3.84,5.72-5.65,8.66c-2.45,3.98-4.71,8.09-7.26,12
	c-2.97,4.55-6.08,9.02-9.29,13.4c-4.09,5.59-7.03,11.84-10.62,17.71c-1.8,2.94-3.76,5.77-5.55,8.71
	c-3.08,5.07-6.01,10.25-9.16,15.28c-2.08,3.33-4.45,6.48-6.69,9.7c-1.2,1.72-2.53,3.37-3.56,5.19c-4.35,7.75-9.55,14.89-14.96,21.92
	c-1.26,1.63-2.14,3.63-2.86,5.58c-1.74,4.75-3.79,9.47-4.74,14.39c-0.84,4.38-2.17,8.58-3.17,12.89
	c-1.37,5.89-4.01,11.07-7.65,15.87c-2.38,3.15-4.21,6.71-7.16,9.44c-1.63,1.51-3.2,3.07-4.79,4.61c-3.47,3.35-6.88,6.76-10.41,10.04
	c-2.63,2.44-5.44,4.33-9.35,4.61c-3.53,0.25-7,1.43-10.48,2.31c-5.27,1.34-10.52,2.75-15.76,4.19c-1.06,0.29-2.27,0.57-3.02,1.27
	c-1.36,1.28-2.97,1.93-4.67,2.03c-4.2,0.23-8.43,0.48-12.61,0.16c-2.31-0.18-4.7-1.55-5.01-4.29c-0.27-2.36-1.79-3.89-3.17-5.29
	c-4.84-4.92-10.1-9.42-15.85-13.28c-5.24-3.51-10.56-6.88-15.87-10.29c-3.74-2.4-7.7-4.5-11.22-7.19
	c-4.79-3.66-9.75-7.06-13.93-11.57c-4-4.32-8.73-8.02-13.43-11.61c-4.15-3.17-7.71-6.86-10.94-10.88c-1.34-1.67-1.97-3.91-2.98-5.85
	c-2.67-5.15-4.65-10.57-6.46-16.06c-1.5-4.54-2.69-9.18-4.13-13.73c-0.6-1.88-1.3-3.78-2.31-5.46c-2.07-3.46-2.93-7.29-4-11.08
	c-1.14-3.99-1.44-8.19-3.1-12.06c-0.41-0.96-0.13-2.21-0.2-3.33c-0.27-4.86-1.66-9.56-1.77-14.48c-0.08-3.52-1.4-7-2.05-10.51
	c-1.23-6.65-2.4-13.3-3.55-19.96c-0.15-0.85-0.03-1.74-0.07-2.6c-0.16-2.91,0.06-5.73-1.2-8.67c-1.27-2.97-0.87-6.6-1.83-9.76
	c-1.32-4.36-0.78-9.16-3.21-13.23c-0.24-0.41-0.29-0.94-0.4-1.42c-1.39-6.21-3.56-12.08-6.29-17.88c-1.95-4.14-2.35-9.03-3.4-13.59
	c-0.17-0.72,0.15-1.69-0.22-2.19c-1.93-2.56-1.12-5.47-1.3-8.26c-0.12-1.82,0.32-3.73-1.07-5.34c-0.34-0.39-0.43-1.23-0.28-1.77
	c0.82-2.93-0.23-5.44-1.26-8.13C517.98,475.51,517.64,472.51,516.96,469.49z M753.65,480.18c-1.26,0-2.71,0.09-4.15-0.03
	c-1.29-0.1-2.09,0.29-2.67,1.48c-1.33,2.75-2.64,5.46-3.63,8.41c-1.56,4.65-3.96,9.01-6,13.5c-0.25,0.56-0.55,1.1-0.74,1.67
	c-1.15,3.5-2.02,7.11-3.47,10.48c-2.66,6.2-4.73,12.58-6.77,18.99c-0.55,1.74-1.15,3.56-2.18,5.02c-1.05,1.5-1.18,2.99-0.89,4.58
	c1.19,6.67,2.55,13.32,3.64,20.01c0.47,2.91,0.53,5.9,0.58,8.86c0.02,0.92-0.46,1.93-0.94,2.76c-0.97,1.68-2.45,2.27-4.08,1.82
	c-1.4-0.38-2.2-1.55-2.4-3.37c-0.16-1.47-0.34-2.93-0.58-4.39c-0.26-1.57-0.6-3.12-0.89-4.69c-0.12-0.66-0.2-1.33-0.3-2.02
	c-2.12,0.41-2.55,1.86-2.57,3.39c-0.02,1.85-1.06,2.98-2.36,3.99c-0.67,0.52-1.38,0.98-2.13,1.52c0.32,2.95-0.44,5.46-2.39,7.61
	c-0.37,0.41-0.49,1.12-0.56,1.72c-0.31,2.32-0.66,4.65-0.8,6.98c-0.29,4.91-0.52,9.83-0.66,14.75c-0.11,3.94,0.07,7.88-0.12,11.81
	c-0.21,4.44-1.49,5.84-5.65,7.03c-0.57,0.16-1.07,0.56-1.49,0.79c-0.23,1.17-0.29,2.18-0.64,3.09c-1.61,4.19-3.9,8.1-4.33,12.77
	c-0.26,2.84-3.16,4.44-5.82,3.82c-2.58-0.6-3.46-2.23-2.91-5.46c0.21-1.21,0.68-2.41,0.69-3.62c0.07-6.59,0.05-13.17,0.01-19.76
	c-0.02-2.47-0.08-2.59-2.7-2.96c-1.62-0.23-2.5-0.92-2.58-2.57c-0.24-4.66-0.53-9.31,1.05-13.86c0.72-2.06,1.29-4.25,1.42-6.41
	c0.31-5.06,0.3-10.14,0.46-15.21c0.05-1.71-0.42-3.2-1.64-4.4c-0.96-0.94-1.28-2.05-1.28-3.36c0.01-3.21-0.05-6.42-0.08-9.64
	c-0.02-2.2,0.5-4.61-0.22-6.55c-1.03-2.76-0.92-5.48-1.15-8.26c-0.49-5.66-1.1-11.3-1.66-16.95c-0.01-0.12-0.02-0.26-0.08-0.36
	c-1.68-2.72-1.12-5.77-1.3-8.71c-0.08-1.22-0.29-2.45-0.54-3.65c-0.8-3.72-1.37-7.53-2.59-11.12c-0.87-2.57-1.08-5.61-3.81-7.74
	c-1.18,1.34-2.37,2.56-3.41,3.9c-3.29,4.23-7.7,6.77-12.88,7.34c-7.76,0.86-14.68-1.55-20.48-6.87c-5.45-5-9.07-11.13-11.71-18.03
	c-0.75-1.97-0.93-4.01-1.72-5.89c-3.1-7.45-4.01-15.39-5.17-23.27c-0.22-1.53,0.41-3.17,0.31-4.74c-0.33-5.11,1.49-9.2,5.35-12.51
	c3.15-2.71,6.81-4.51,10.58-6.11c1.36-0.58,2.54-1.27,3.66-2.63c-1.47-0.76-2.64-1.45-3.86-1.99c-2.24-1-4.45-1.95-6.57-3.3
	c-2.14-1.36-4.69-2.77-7.69-1.92c-0.9,0.25-2.48-0.09-3.05-0.76c-2.49-2.95-6.13-3.34-9.37-3.97c-4.68-0.92-9.57-0.84-14.36-1.19
	c-0.86-0.06-1.72-0.15-2.58-0.26c-4.77-0.62-9.54-1.28-14.31-1.86c-4.98-0.61-9.99-0.98-14.93-1.78c-1.8-0.29-3.28-0.31-5,0.37
	c-3.76,1.49-7.49,0.94-11.06-0.84c-0.77-0.38-1.5-1.13-2.27-1.16c-1.97-0.07-2.53-1.25-2.72-2.86c-0.24-2.05,0.18-2.72,2.15-3.82
	c1.55-0.86,3.16-1.26,4.97-1.28c2.56-0.04,4.92,0.57,7.18,1.63c1.31,0.61,2.52,0.8,3.92,0.21c2.75-1.17,5.55-0.67,8.33-0.01
	c1.8,0.43,3.62,0.79,5.41,1.27c7.21,1.92,14.7,1.66,22.01,2.86c6.2,1.02,12.48,1.52,18.52,3.45c1.22,0.39,2.61,0.24,4.05,0.36
	c0.37-2.15,0.85-3.95,0.95-5.78c0.4-6.7,0.14-13.36-1.87-19.85c-0.94-3.05-1.7-6.16-2.54-9.24c-0.25-0.93-0.79-1.99,1.07-2.25
	c1.86,3.24,3.86,6.46,5.04,10.12c0.4,1.24,0.67,2.66,2.31,3.1c0.24-0.44,0.45-0.74,0.57-1.07c1.48-4.33,3.4-8.44,5.96-12.26
	c3.36-5.03,7.94-7.58,14.03-7.49c2.52,0.04,4.25,0.94,5.21,3.35c2.11,5.25,4.19,10.51,6.47,15.68c3.03,6.89,6.25,13.7,9.38,20.55
	c0.92,2.02,1.57,4.18,2.71,6.06c2.75,4.51,4.24,9.71,7.72,13.82c0.5,0.59,0.54,1.59,0.78,2.4c0.62,2.17,1.69,3.99,4.03,5.41
	c0.11-1.05,0.39-1.79,0.23-2.4c-0.78-2.84-1.69-5.65-2.53-8.47c-0.63-2.1-1.4-4.17-1.78-6.32c-0.61-3.49-1.59-6.87-2.51-10.28
	c-0.71-2.62-1.39-5.25-1.95-7.9c-0.82-3.86-1.51-7.74-2.3-11.6c-0.72-3.48-1.53-6.95-2.25-10.43c-0.75-3.62-1.44-7.26-2.16-10.89
	c-0.26-1.33-0.56-2.65-0.78-3.99c-0.39-2.31-0.88-4.61-1.04-6.93c-0.13-1.9-0.11-3.89,0.32-5.73c0.47-2.01,2.45-2.57,4.66-2.95
	c-0.33-2.25-0.77-4.29-0.91-6.35c-0.55-7.62-1.05-15.24-1.46-22.86c-0.16-2.97,0.22-5.99-0.07-8.94c-0.3-2.96,1.2-5.83,0.19-8.8
	c-0.16-0.46,0.37-1.14,0.57-1.72c0.24-0.7,0.66-1.4,0.66-2.1c0.02-3.93,2.49-6.6,4.77-9.33c1.27-1.52,2.57-1.52,4.23-0.29
	c0.68,0.5,1.29,1.13,1.83,1.79c1.5,1.83,2.6,3.81,3.1,6.2c1.07,5.16,3.99,9.8,4.35,15.19c0.05,0.7,0.66,1.34,0.83,2.06
	c0.31,1.29,0.46,2.61,0.75,3.91c0.16,0.71,0.47,1.38,0.79,2.29c1.83-12.5,1.95-24.75,1.7-37.05c-1.04-1.13-3.03-1.57-2.68-3.84
	c0.85-0.32,1.73-0.65,2.4-0.9c0.49-2.13,0.96-4.04,1.35-5.96c0.22-1.08,0.53-2.22,0.41-3.29c-0.39-3.57,0.87-6.85,1.68-10.19
	c0.17-0.68,0.76-1.25,1.07-1.91c0.67-1.43,1.87-1.51,3.15-1.25c1.33,0.28,1.75,1.32,1.69,2.53c-0.2,3.7-0.64,7.4-0.64,11.1
	c0.01,5.8-0.41,11.58-0.18,17.39c0.41,10.53,0.6,21.06,0.87,31.6c0.05,2.11-0.05,4.23,0.1,6.33c0.4,5.91,1.05,11.81,1.3,17.73
	c0.24,5.71,0.11,11.43,0.15,17.15c0.01,0.87-0.01,1.74,0.06,2.6c0.42,4.67,0.98,9.33,1.28,14c0.37,5.81,0.59,11.63,0.76,17.45
	c0.14,4.7-0.12,9.38,0.66,14.08c0.48,2.91,0.11,5.95,0.16,8.93c0.05,2.94,0.03,5.89,0.28,8.81c0.12,1.37,0.12,3.03,1.88,3.91
	c0.38-0.25,0.83-0.45,1.17-0.77c1.02-0.99,2.09-1.9,3.6-1.2c1.52,0.7,1.85,2.05,2.08,3.65c0.44,3.03,1.77,5.91,1.61,9.06
	c2.18,3.04,1.11,6.84,2.51,10.23c1.46,3.53,1.28,7.73,1.85,11.64c0.07,0.51,0.29,1,0.56,1.92c1.79-4.39,2.46-8.37,2.28-12.57
	c-0.19-4.46,0.05-8.95-0.08-13.42c-0.17-5.52,1.37-10.72,2.62-16c0.94-3.94,2-7.83,2.09-12.01c0.09-4.25-0.21-8.54,0.52-12.8
	c0.54-3.15,0.64-6.39,0.74-9.6c0.58-18.23-0.77-36.49,0.8-54.7c0.34-3.94,0.53-7.89,0.79-11.84c0.02-0.37,0.01-0.76,0.11-1.11
	c0.45-1.52,2.02-2.61,3.4-2.22c1.45,0.4,2.26,1.16,1.92,2.97c-0.31,1.64-0.14,3.38-0.05,5.07c0.13,2.71,0.52,5.41,0.54,8.12
	c0.08,10.06,0.05,20.13,0.07,30.2c0,0.74,0.14,1.48,0.21,2.22c0.8-1.19,1.01-2.37,1.2-3.55c0.61-3.77,0.94-7.61,1.94-11.27
	c0.57-2.06,1-4.04,1.06-6.16c0.03-1.1,0.26-2.2,0.48-3.29c0.79-3.99,1.8-7.95,2.39-11.98c0.68-4.66,1.69-9.19,3.61-13.52
	c0.45-1.01,0.84-2.12,0.89-3.21c0.2-3.92,2.62-6.85,4.45-10c1.13-1.94,3.01-2.62,4.38-2c1.79,0.81,1.91,2.54,1.7,4.15
	c-0.51,4.03-0.88,8.12-1.9,12.04c-0.8,3.07-1.05,6.1-1.03,9.19c0.01,0.93,0.15,2.08,0.7,2.75c1.05,1.28,0.82,2.5,0.41,3.82
	c-0.41,1.29-0.92,2.56-1.22,3.88c-0.52,2.28-0.89,4.59-1.36,6.89c-0.49,2.38-1.05,4.75-1.52,7.14c-0.88,4.47-1.73,8.95-2.58,13.43
	c-0.62,3.27-1.23,6.54-1.82,9.81c-1.19,6.55-2.38,13.1-3.56,19.65c-0.23,1.27-0.43,2.53-0.65,3.8c1.23-1.18,2.07-2.5,2.51-3.95
	c1.32-4.34,2.48-8.73,3.73-13.09c0.2-0.7,0.81-1.41,0.72-2.04c-0.43-3.09,1.36-5.66,1.97-8.49c1.59-7.33,3.76-14.54,5.72-21.79
	c0.13-0.46,0.4-0.89,0.61-1.33c0.74-1.56,1.46-3.13,2.24-4.67c0.86-1.7,1.86-3.2,4.1-3.21c3.02,0,2.87-0.07,3.43-2.85
	c0.66-3.24,1.48-6.46,2.48-9.61c0.92-2.91,2.3-5.67,3.25-8.56c1.23-3.73,1.96-7.65,3.43-11.27c1.61-3.96,3.77-7.7,5.77-11.5
	c0.83-1.58,2.9-2.24,4.48-1.61c1.27,0.5,1.75,1.97,1.23,3.86c-0.13,0.47-0.37,0.92-0.57,1.37c-2.38,5.26-3.32,11.1-6.43,16.08
	c-0.24,0.39-0.13,0.98-0.26,1.45c-1.1,4.01-1.86,8.17-3.44,11.99c-1.6,3.86-2.85,7.8-4.02,11.77c-1.21,4.13-2.48,8.24-3.21,12.52
	c-0.53,3.1-1.84,6.07-2.57,9.15c-0.94,3.95-1.57,7.97-2.47,11.93c-1.64,7.22-3.37,14.42-5.1,21.63c-0.43,1.79-1.32,3.53-1.43,5.33
	c-0.24,3.88-1.54,7.47-2.53,11.16c-0.89,3.32-1.63,6.68-2.48,10.01c-0.28,1.1,0.23,1.78,1.17,2.82c0.8-2.8,2.43-4.93,2.25-7.67
	c-0.03-0.47,0.01-1.13,0.3-1.41c1.95-1.84,0.68-5.11,3.04-6.74c0.96-5.8,3.54-11.19,4.15-17.07c0.04-0.36,0.08-0.79,0.28-1.06
	c2.47-3.38,2.32-7.71,4.08-11.35c0.58-1.19,1.21-2.46,1.36-3.74c0.48-3.92,1.58-7.63,3.01-11.3c2.27-5.83,3.42-12.03,6-17.78
	c1.59-3.56,1.86-7.62,3.86-11.07c0.36-0.63,0.44-1.41,0.66-2.12c0.66-2.09,1.2-4.23,2.02-6.25c1.3-3.2,2.84-6.3,4.2-9.47
	c1.41-3.28,3.1-6.49,4-9.91c0.61-2.31,2.42-3.7,3.15-5.74c1.65-4.62,4.35-8.69,6.62-12.98c1.55-2.93,3.66-5.58,5.1-8.55
	c3.73-7.7,8.49-14.68,14.08-21.13c0.73-0.84,1.61-2.05,2.73-1.38c0.93,0.55,1.62,1.79,2.02,2.87c0.25,0.69-0.04,1.75-0.42,2.47
	c-1.54,2.88-1.64,6.16-2.69,9.17c-0.68,1.98-1.59,3.96-1.8,6.01c-0.39,3.7-1.85,7.1-2.54,10.7c-0.16,0.83-0.41,1.8-0.96,2.38
	c-0.79,0.84-0.54,1.66-0.68,2.6c-0.52,3.63-2.31,7.02-2.16,10.81c-1.82,1.88-0.94,4.53-1.85,6.68c-0.17,0.41,0.3,1.1,0.44,1.54
	c0.44,0.13,0.71,0.32,0.9,0.25c1.59-0.53,2.89-0.28,3.85,1.22c0.92,1.43,0.75,2.83-0.09,4.2c-0.32,0.53-0.69,1.02-1.06,1.52
	c-2.72,3.68-4.79,7.71-6.51,11.94c-2.23,5.47-4.63,10.84-6.19,16.59c-1.27,4.71-3.39,9.18-5.15,13.76
	c-0.53,1.38-0.68,2.76-0.23,4.35c3.38-4.33,6.56-8.48,9.84-12.56c0.84-1.05,1.88-1.96,2.94-2.79c1.28-1.01,3-1.04,4.15-0.26
	c1.28,0.86,1.67,2.08,1.04,3.93c-0.39,1.15-1.01,2.24-1.59,3.31c-3.78,6.98-5.78,14.69-8.93,21.94c-0.57,1.32-0.71,3.04,0.36,4.7
	c0.71-0.58,1.3-0.88,1.63-1.35c1.4-2,2.54-4.23,4.13-6.06c3.57-4.11,7.35-8.03,11.06-12.02c0.25-0.27,0.59-0.45,0.89-0.67
	c1.64-1.19,3.04-0.35,4.45,0.5c1.52,0.92,1.18,2.36,0.93,3.66c-0.12,0.65-0.75,1.2-1.13,1.78c3.37,2.92,3.51,4.78,0.64,8.08
	c-0.16,0.19-0.4,0.31-0.55,0.5c-2.1,2.59-4.2,5.17-6.27,7.79c-2.21,2.79-4.4,5.58-6.57,8.4c-1.55,2.01-3.04,4.07-4.52,6.06
	c1.53,1.73,2.59,0.55,3.52-0.02c4.02-2.42,7.95-4.99,11.97-7.43c7.4-4.48,15.01-8.58,23.15-11.61c1.27-0.47,2.5-1.13,3.81-1.37
	c1.62-0.3,3.5,1.02,4.14,2.56c0.63,1.53-0.55,2.29-1.4,3.14c-0.69,0.7-1.53,1.25-2.28,1.88c-2.35,1.98-4.62,4.02-4.69,7.68
	c2.06,0.11,4.19,0.62,6.17,0.25c3.22-0.59,5.13,0.79,6.92,3.35c-0.94,1.98-2.06,3.91-2.78,5.98c-0.73,2.12-1.07,4.39-1.57,6.56
	c3.21,1.1,3.88,1.63,5.76,4.13c0.74,0.99,1.52,1.95,2.4,2.81c3.25,3.19,5.99,6.89,9.93,9.4c1.71,1.09,1.78,3.43,0.36,4.9
	c-2.52,2.61-4.29,3.63-7.53,0.46c-4.53-4.42-9.71-7.92-15.36-11.37c-1.37,1.24-2.75,2.46-4.08,3.72c-0.62,0.59-1.1,1.33-1.72,1.92
	c-2.06,1.99-3.31,2.24-4.78,1.04c-2.18-1.78-2.47-3.72-0.86-6.11c0.68-1.01,1.44-1.96,2.43-3.29c-0.95-0.6-1.77-1.36-2.73-1.69
	c-3.63-1.23-7.28-2.4-10.98-3.38c-0.79-0.21-1.99,0.23-2.7,0.77c-3.44,2.63-6.91,5.23-10.11,8.14c-5.31,4.83-11.19,8.87-17.11,12.87
	c-0.52,0.35-0.84,1.02-1.4,1.73c3.04,1.37,5.89,1.89,8.87,2.12c4.3,0.32,8.62,0.73,12.87,1.44c3.47,0.58,4.71,3.33,2.99,6.52
	c-0.87,1.63-0.39,2.54,0.74,3.52c2.76,2.4,4.62,5.49,6.36,8.62c0.85,1.53,1.93,2.45,3.54,3.02c1.26,0.45,2.65,0.95,3.57,1.85
	c2.74,2.67,5.46,5.34,7.6,8.62c3.46,5.3,6.54,10.75,8.94,16.6c2.21,5.38,4.45,10.75,6.7,16.11c1.01,2.42,1.2,4.8-0.21,7.13
	c-0.88,1.44-0.52,2.57,0.72,3.57c0.67,0.54,1.21,1.47,1.95,1.67c2.95,0.8,3.46,3.39,4.04,5.65c0.39,1.55,1.07,2.4,2.38,2.97
	c0.91,0.39,1.97,0.54,2.74,1.09c2.42,1.74,4.95,1.43,7.42,0.42c4.07-1.67,8.2-2.77,12.66-2.3c2,0.21,3.65-0.6,4.97-2.06
	c2.06-2.27,4.1-4.57,6.15-6.85c3.13-3.49,6.17-7.06,9.43-10.43c3.35-3.47,6.92-6.72,10.34-10.12c0.86-0.86,1.61-1.88,2.24-2.92
	c1.47-2.44,2.79-4.97,4.24-7.42c2.07-3.5,4.02-7.09,6.34-10.41c1.76-2.52,4-4.7,6.08-6.99c1.17-1.29,1.46-2.45,0.17-3.89
	c-1.75-1.95-2.21-4.33-2.01-6.91c0.23-2.96,0.52-5.92,0.51-8.88c-0.02-3.96-0.28-7.91-0.47-11.87c-0.03-0.66-0.26-1.31-0.48-2.37
	c-2.99,2.44-5.77,4.47-8.26,6.8c-3.23,3.02-6.41,6.03-10.11,8.52c-4.35,2.93-9.29,5.26-11.86,10.3c-0.32,0.62-1.01,1.06-1.57,1.54
	c-2.97,2.5-6.76,3.4-10.21,4.89c-2.56,1.1-4.89-1.56-4.09-4.3c0.24-0.8,0.77-1.51,1.11-2.29c0.29-0.65,0.74-1.35,0.71-2.02
	c-0.14-3.22,0.76-6.25,1.31-9.37c1.12-6.39,1.44-12.94,1.9-19.43c0.34-4.75,0.3-9.53,0.59-14.29c0.14-2.33,0.37-4.73,1.1-6.93
	c0.84-2.55,1.01-5.08,1.02-7.69c0.01-2.84-0.27-5.7,1.23-8.36c0.39-0.69,0.25-1.7,0.26-2.56c0.03-2.36,0.03-4.72,0.01-7.08
	c-0.03-2.61,0.24-5.15,0.96-7.7c0.49-1.71,0.33-3.66,0.19-5.48c-0.23-3.07-0.95-6.12-0.99-9.18c-0.1-8.76-2.51-17.04-5.07-25.27
	c-1.18-3.78-2.69-7.44-2.63-11.49c0.01-0.61-0.03-1.31-0.32-1.81c-1.13-1.93-1.03-4.04-1.12-6.15c-0.04-1.1-0.35-2.18-0.51-3.27
	c-0.31-2.19-0.84-4.39-0.86-6.58c-0.05-5.21-0.53-10.35-1.37-15.5c-0.76-4.62-1.71-9.19-1.85-13.95c-0.1-3.35-1.49-6.71-2.61-9.96
	c-0.58-1.7-1.34-3.36-1.95-5.03c-0.71-1.93-0.58-3.99-1.5-5.82c-2.41-4.83-3.84-9.92-4.77-15.27c-0.62-3.58-0.79-7.11-0.91-10.7
	c-0.14-4.07,0.34-8.17-0.73-12.22c-0.53-2.01-0.59-4.15-0.75-6.24c-0.12-1.48,0.07-3-0.11-4.47c-0.66-5.39-1.4-10.76-2.13-16.14
	c-0.36-2.68-0.45-5.46-1.23-8.01c-0.56-1.81-1.01-3.53-1.03-5.41c-0.01-0.73-0.17-1.47-0.38-2.18c-0.82-2.83-1.85-5.6-2.48-8.47
	c-1.22-5.54-3.07-10.84-5.24-16.08c-1.32-3.2-3.24-4.58-6.72-4.53c-3.82,0.05-7.65-0.3-11.46-0.7c-1.68-0.18-3.3-1.3-4.96-1.33
	c-7.09-0.16-13.55-2.61-19.97-5.22c-3.76-1.53-7.45-3.25-11.18-4.87c-1.02-0.44-2.05-1.09-3.1-1.15c-3.31-0.19-6.18-1.61-9.2-2.71
	c-2.99-1.09-6.12-1.84-9.23-2.49c-2.89-0.6-5.84-0.95-8.78-1.26c-3.8-0.4-7.67-1.19-11.42-0.85c-4.76,0.43-9.6,1.35-14.1,2.93
	c-7.19,2.52-14.78,3.87-21.65,7.33c-0.4,0.2-0.93,0.24-1.38,0.19c-4.43-0.52-8.68,0.4-12.68,2.1c-3.9,1.66-7.68,3.41-12.06,3.04
	c-0.46-0.04-0.95,0.26-1.42,0.42c-3.01,0.99-6.02,2-9.03,2.98c-3.98,1.29-8,2.49-11.95,3.85c-3.73,1.28-7.5,2.52-11.08,4.16
	c-3.57,1.63-7.42,2.88-10.15,6.04c-0.77,0.89-2.04,1.36-3.1,2c-1.48,0.89-2.99,1.74-4.46,2.65c-2.82,1.74-5.46,3.86-8.46,5.19
	c-4.33,1.93-7.78,4.74-10.44,8.57c-2.03,2.92-4.76,5.32-6.06,8.79c-0.49,1.31-1.71,2.38-2.7,3.46c-2.89,3.18-5.96,6.21-8.71,9.5
	c-2.74,3.28-4.76,7.15-7.81,10.18c-5.33,5.3-10.27,10.93-14.72,16.99c-1.3,1.77-2.81,3.39-4.06,5.19
	c-3.43,4.93-6.28,10.37-10.28,14.77c-4.79,5.25-9.25,11.02-15.62,14.68c-1.15,0.66-1.99,1.84-2.99,2.77c-2.15,2-4.31,3.98-6.69,6.18
	c0.16,1.11-0.31,2.22-1.81,3.17c-2.71,1.7-4.15,4.3-3.45,7.53c0.38,1.76-0.3,3.44-1.28,3.98c-2.41,1.33-2.29,3.56-2.72,5.58
	c-0.56,2.64-0.89,5.34-1.24,8.03c-0.38,2.88-1.04,5.77-1.32,8.6c-0.6,6.13-0.35,12.35-0.41,18.53c-0.01,1.23,0.04,2.49,0.23,3.7
	c0.66,4.15,1.41,8.29,1.21,12.53c-0.1,1.98-0.13,3.98-0.03,5.96c0.17,3.3-1.38,6.12-2.34,9.11c-1.05,3.24-3.49,5.86-3.82,9.51
	c-0.16,1.81-1.78,3.45-2.48,5.26c-1.53,3.96-1.6,8.48-4.51,11.93c-0.14,0.17-0.22,0.48-0.2,0.7c0.47,3.79-3.31,5.87-3.71,9.3
	c-1.63,1.31-2.11,3.25-2.82,5.08c-0.59,1.52-1.08,3.05-2.23,4.38c-1.23,1.42-0.84,3.07,0.33,4.7c1.91,2.67,4.03,4.96,7.58,5.24
	c0.36,0.03,0.78,0.1,1.06,0.3c1.32,0.93,2.74,1.88,2.62,3.76c-0.12,1.76-1.54,2.43-2.91,3.05c-0.55,0.25-1.18,0.31-1.79,0.41
	c-0.82,0.14-1.64,0.24-2.36,0.35c-0.8,4.43,1.2,7.89,3.11,11.28c2.93,5.2,0.68,10.12-5.18,10.73c-2.04,0.21-4.06,0.56-6.19,0.11
	c-1.62-0.35-3.39,0.01-5.02,0.06c-0.97,5.25-0.81,5.99,1.78,9.59c0.35,0.48,0.57,1.06,0.85,1.59c2.73,5.1,5.47,10.18,8.17,15.29
	c0.34,0.64,0.54,1.36,0.71,2.07c0.7,3,1.17,6.07,2.08,9c1.26,4.02,2.63,7.96,2.43,12.29c-0.1,2.29-0.43,4.73,1.23,6.79
	c0.26,0.32,0.19,0.97,0.13,1.46c-0.55,4.79,1.17,9.29,1.86,13.92c0.47,3.15,1.23,6.25,2.74,9.13c2.71,5.18,3.41,11.06,5.49,16.47
	c0.74,1.93,1.65,3.94,1.72,5.94c0.1,2.92,1,5.59,1.7,8.34c0.33,1.31,1.25,2.56,1.27,3.85c0.06,3.61,0.77,7.06,1.56,10.57
	c0.92,4.07,1.02,8.31,1.65,12.45c0.85,5.6,1.93,11.17,2.78,16.78c0.55,3.64,2.08,7.06,1.77,10.91c-0.43,5.44,2.13,10.66,1.6,16.16
	c-0.05,0.55,0.43,1.15,0.62,1.73c0.71,2.1,1.94,4.2,1.98,6.31c0.06,3.63,1.29,6.79,2.8,9.9c2.65,5.48,4.17,11.35,6.17,17.06
	c1.41,4.04,2.19,8.32,3.79,12.26c2.09,5.13,4.71,10.05,7.12,15.05c0.16,0.33,0.43,0.61,0.69,0.87c2.53,2.37,5,4.81,7.61,7.08
	c4.67,4.05,9.61,7.77,13.98,12.2c3.99,4.03,8.2,7.89,12.65,11.4c4.15,3.27,8.73,6,13.17,8.9c5.47,3.58,11.2,6.79,16.42,10.7
	c5.62,4.21,11.03,8.75,15.68,14.09c1.29,1.48,2.6,2.97,4.03,4.3c0.7,0.65,1.68,1.32,2.57,1.38c3.95,0.27,7.94,0.61,11.46-1.95
	c2.34-1.7,4.98-2.69,7.87-3.11c3.41-0.5,6.94-0.74,10.17-1.83c4.03-1.36,8.18-1.96,12.3-2.52c3.4-0.46,6.1-1.76,8.41-4.16
	c0.68-0.7,1.48-1.29,2.19-1.96c4.58-4.31,9.62-8.23,13.59-13.04c4.43-5.38,8.53-11.19,10.72-18.02c0.44-1.39,1.18-2.69,1.54-4.1
	c0.76-2.97,1.35-5.99,2.03-8.98c0.41-1.8,0.74-3.64,1.35-5.39c1.28-3.69,2.88-7.27,4.03-11c1.44-4.68,3.9-8.73,6.91-12.51
	c2.14-2.7,4.88-5.12,6.27-8.16c2.28-4.98,5.64-9.22,8.38-13.87c2.87-4.88,6.58-9.26,9.64-14.04c3.3-5.16,6.28-10.52,9.4-15.8
	c0.94-1.58,1.92-3.14,2.84-4.73c2.55-4.38,4.93-8.87,7.68-13.12c2.99-4.62,6.36-9,9.52-13.51c3.46-4.95,6.99-9.83,9.74-15.26
	c1.77-3.49,4.4-6.53,6.4-9.92c2.1-3.57,4.35-7.07,3.9-11.63c-0.63-6.4,1.81-12.37,3.47-18.36c1.09-3.94,3.25-7.59,5.01-11.56
	c-0.65-2.28-2.62-2.89-4.86-2.74c-3.34,0.21-6.4-0.89-9.3-2.17c-4.22-1.87-8.4-2.44-12.86-1.33c-3.54,0.89-7.07,1.93-10.67,2.49
	c-4.09,0.63-8.23,0.61-11.76-2.11c-1.85-1.43-3.76-2.85-5.31-4.58c-2.19-2.43-4.09-5.14-6.11-7.73c-1.44-1.85-2.84-3.73-4.29-5.56
	c-1.04-1.32-1.69-2.76-1.41-4.46c0.58-3.52,1.18-7.04,1.87-10.54c0.38-1.93,0.61-4.01,1.52-5.69c1.97-3.65,3.44-7.64,6.95-10.35
	c1.26-0.98,1.93-2.73,2.97-4.29c-1.57-0.6-2.78-0.51-4.02,0.31c-1.14,0.74-2.33,1.43-3.57,1.99c-6.48,2.97-11.17,8.05-15.5,13.44
	C758.33,472.72,756.21,476.39,753.65,480.18z M475.72,470.82c2.4-1.55,4.94-2.99,8.13-2.73c0.57,0.05,1.33-0.06,1.74-0.41
	c1.3-1.12,2.48-2.38,3.7-3.58c-0.93-2.06,1.65-3.45,1.04-5.44c-0.24-0.79-0.47-1.59-0.74-2.37c-0.22-0.67-0.8-1.39-0.67-1.97
	c0.4-1.85-0.41-3.2-1.1-4.82c-1.75-4.15-1.27-5.75,2.52-7.43c0.79-0.35,1.65-0.54,2.43-0.9c4.78-2.22,8.25-5.59,9.57-11.21
	c-1.56-1.82-3.09-3.75-4.78-5.51c-1.59-1.66-2.2-3.54-1.95-5.76c0.72-6.49,1.32-13,2.22-19.47c0.46-3.26,1.48-6.44,2.31-9.95
	c-0.85-1.14-1.75-2.82-3.08-4.01c-1.7-1.53-3.55-2.86-5.12-4.59c-4.06-4.47-9.72-6.68-14.69-9.86c-0.79-0.5-1.91-0.79-2.83-0.71
	c-1.83,0.16-3.62,0.73-5.44,0.96c-2.34,0.31-3.99,1.42-5.62,3.18c-3.68,3.97-7.29,7.96-9.94,12.72c-1.67,3-3.38,5.99-4.9,9.07
	c-2.7,5.47-3.51,11.52-5.05,17.34c-0.94,3.55-1.11,7.3-1.61,10.96c-0.25,1.83-0.66,3.67-0.64,5.5c0.06,8.77-0.84,17.57,1.28,26.27
	c0.89,3.67,2.13,7.16,4.49,9.96c6.85,8.14,14.1,15.92,23.13,21.75c1.91,1.23,3.88,2.78,6.48,1.16c0.7-0.44,1.9-0.23,2.84-0.1
	c1.67,0.24,2.86-0.14,3.44-1.83c-2.94-1.95-2.94-1.95-2.49-4.45c1.25-0.2,2.52-0.4,4.19-0.67c-0.84-1.74-1.5-3.13-2.14-4.47
	C476.03,476.37,474.59,475.07,475.72,470.82z M669.37,288.23c-0.66,0.69-1.2,0.99-1.27,1.37c-0.7,3.75-2.01,7.37-1.8,11.3
	c0.23,4.21,0.05,8.44,0.07,12.66c0.02,2.81-0.03,5.63,0.14,8.44c0.22,3.54,0.61,7.07,0.96,10.61c0.33,3.31,0.69,6.61,1.08,9.91
	c0.19,1.59,0.54,3.15,0.71,4.74c0.13,1.23,0.01,2.49,0.18,3.72c0.64,4.52,1.39,9.01,2.03,13.53c1.05,7.44,2.05,14.89,3.08,22.33
	c0.2,1.46,0.6,2.91,0.68,4.38c0.14,2.84-0.16,5.71,1.35,8.35c0.33,0.58,0.17,1.46,0.21,2.2c0.23,4.09,1.11,8.05,2.53,11.88
	c1.1,2.97,2.59,5.85,3.27,8.92c1.3,5.86,4.37,11.2,4.84,17.3c0.11,1.39,0.89,2.79,1.6,4.06c0.33,0.59,1.23,0.85,2.16,1.43
	c0.32-1.56,0.27-2.79,0.8-3.67c1.82-3.05,1.2-6.24,0.71-9.38c-0.78-5.11-1.79-10.19-2.65-15.28c-0.58-3.4-0.63-6.98-1.75-10.18
	c-1.03-2.94-1.02-5.81-1.17-8.76c-0.05-0.87,0.12-1.79-0.13-2.59c-1.74-5.64-1.13-11.54-2.01-17.27c-0.52-3.4-0.67-6.87-0.82-10.32
	c-0.32-7.17-0.46-14.35-0.81-21.52c-0.13-2.58-0.27-5.25-1.03-7.69c-2-6.36-2.14-13.05-3.92-19.47c-1.3-4.69-1.87-9.63-3.21-14.36
	c-0.44-1.54-1.32-3.05-1.34-4.58C673.78,295.86,671.67,292.32,669.37,288.23z M652.96,433.87c-3.24-2.69-6.89-3.82-10.68-4.4
	c-2.61-0.4-5.2,0.02-7.5,1.54c-0.62,0.41-1.2,1.06-1.87,1.17c-4.19,0.68-6.41,4-9.09,6.66c-1.61,1.6-2.39,3.62-2.23,6.06
	c0.21,3.09,0.04,6.21,0.07,9.31c0.01,0.86-0.09,1.84,0.27,2.56c1.5,2.96,1.61,6.29,2.46,9.4c1.9,6.93,3.69,13.79,7.93,19.74
	c3.99,5.61,8.71,10.03,15.97,10.98c3.49,0.46,6.47-0.32,9.57-1.85c3.85-1.9,5.22-5.46,6.71-8.92c0.62-1.45,0.54-3.2-0.8-4.83
	c-3.62-4.41-3.51-4.5-2.96-9.6c-3.05-0.62-4.49,0.46-3.8,3.12c0.63,2.43,0.3,4.34-1.68,5.95c-2.35-0.58-3.55-1.83-4.16-4.23
	c-0.85-3.34-1.98-6.76-6.5-7c-1.22-0.07-1.97-1.07-2.51-2.4c-0.72-1.8,0.04-3.11,0.68-4.55c0.29-0.65,0.94-1.23,0.99-1.88
	c0.46-5.67,1.76-11.17,3.13-16.66c0.43-1.72,0.9-3.38,3.1-3.66c1.42-0.18,2.06-1.26,2.3-2.57
	C652.6,436.49,652.77,435.16,652.96,433.87z M664.89,425.32c-0.43-3.99-2.66-6.77-4.05-9.84c-2.88-6.35-6.37-12.42-9.26-18.77
	c-2.94-6.47-5.41-13.15-8.17-19.7c-1.05-2.5-2.24-4.95-3.57-7.32c-1.21-2.17-3.07-2.91-5.25-1.98c-1.42,0.61-3.15,1.51-3.77,2.77
	c-1.14,2.29-2.9,4.12-3.91,6.59c-1.86,4.56-3.63,9.12-4.75,13.89c-1.15,4.89-1.92,9.88-2.74,14.84c-0.26,1.57,0.38,2.92,1.88,3.72
	c2.94,1.56,5.81,3.25,8.81,4.68c4.79,2.29,9.67,4.38,14.48,6.63c1.54,0.72,2.92,1.78,4.47,2.47c3.33,1.48,6.38,3.96,10.4,3.14
	C661.15,426.1,662.82,425.75,664.89,425.32z M820.09,458.46c-1.8-3.26-3.33-5.87-5.6-7.98c-1.64-1.52-3.71-2.19-5.81-1.92
	c-4.28,0.54-8.54,1.29-12.74,2.24c-1.47,0.33-3.04,1.26-4.05,2.38c-2.04,2.25-3.54,5-5.63,7.19c-3.49,3.66-5.79,7.95-7.47,12.61
	c-2.24,6.22-1.91,12.09,2.72,17.27c1.64,1.83,3.1,3.82,4.74,5.66c3.53,3.97,7.64,6.73,13.29,5.68c3.63-0.67,7.22-1.53,10.91-2.33
	c-3.59-2.82-6.39-6-8.2-10.16c-1.97-4.51-1.81-9.15-1.68-13.84c0.01-0.35,0.21-0.7,0.35-1.04c0.92-2.19,2.47-4.26,4.65-6.3
	c0.35-0.33,0.6-0.78,0.88-1.18c0.93-1.3,1.79-2.68,2.81-3.91C811.93,459.64,814.87,456.93,820.09,458.46z M808.77,273.98
	c-1.78,2.77-3.76,5.44-5.3,8.34c-3.06,5.73-5.94,11.57-8.79,17.41c-1.24,2.54-2.2,5.21-3.35,7.8c-1.35,3.02-2.95,5.95-4.13,9.04
	c-2.23,5.89-4.23,11.86-6.35,17.79c-1.85,5.2-3.86,10.34-5.55,15.59c-2.31,7.16-4.41,14.39-6.55,21.6
	c-0.87,2.93-1.67,5.88-2.44,8.84c-0.65,2.49-1.08,5.05-1.82,7.51c-1.2,4-2.6,7.93-3.84,11.92c-0.17,0.56,0.1,1.26,0.17,1.89
	c1.28-0.84,1.97-1.81,2.47-2.87c3.36-7.22,6.67-14.47,10.01-21.7c2.97-6.43,5.99-12.83,8.91-19.29c3.41-7.55,6.7-15.16,10.09-22.72
	c1.61-3.6,3.69-7.02,4.95-10.74c1.65-4.87,2.75-9.92,3.97-14.93c0.9-3.71,1.5-7.49,2.42-11.2c0.79-3.21,1.87-6.36,2.77-9.55
	c0.76-2.69,1.27-5.47,2.23-8.1C809.4,278.45,809.53,276.33,808.77,273.98z M851.45,501.04c-0.88-2.23-1.63-4.39-2.57-6.46
	c-1.46-3.24-3.31-6.33-4.48-9.66c-0.96-2.73-2.36-5.11-3.87-7.5c-0.52-0.82-0.83-1.8-1.43-2.55c-1.54-1.93-2.75-4.19-5.08-5.77
	c-0.28,0.8-0.58,1.25-0.58,1.7c-0.01,4.99-1.22,9.71-3.03,14.31c-1.75,4.44-4.45,8.18-8.26,11.09c-1.17,0.89-2.25,1.91-4,3.42
	c4.11,1.1,7.39,2.16,10.74,2.83c2.77,0.56,5.68,0.42,8.42,1.04C842.16,504.59,846.62,504.05,851.45,501.04z M686.33,494.57
	c-0.99,3.22-1.36,6.04-4.39,7.09c0.06,1.41,0.01,2.66,0.2,3.87c0.42,2.67,0.79,5.37,1.48,7.98c1.69,6.39,1,13.01,2.09,19.47
	c0.59,3.52,0.52,7.14,0.84,10.71c0.05,0.57,0.55,1.11,1.13,2.22c0.95-2.57,1.71-4.51,2.38-6.48c0.86-2.54,1.72-5.1,2.42-7.69
	c0.34-1.27,0.64-2.69,0.42-3.95c-0.56-3.27-1.55-6.47-2.11-9.75c-0.85-4.97-1.5-9.98-2.17-14.98
	C688.27,500.39,688.29,497.65,686.33,494.57z M816.07,405.89c-3.84-1.89-4.92-2.12-6.84-1.32c-3.79,1.59-7.06,4.01-10.22,6.59
	c-2.92,2.39-4.73,5.68-7.1,8.52c-1.36,1.62-2.19,3.39-3.01,5.37c0.61,0.19,1.06,0.49,1.27,0.37
	C799.63,420.08,807.78,413.02,816.07,405.89z M730.36,447.45c0.17,0.04,0.33,0.08,0.5,0.13c0.28-0.5,0.67-0.96,0.82-1.5
	c1.11-3.86,1.95-7.78,3.28-11.59c1.2-3.45,1.99-7.04,2.94-10.58c0.57-2.14,0.65-4.55,1.74-6.37c1.51-2.53,1.73-5.36,2.51-8
	c0.96-3.28,1.86-6.6,2.74-9.92c0.92-3.44,1.4-7,1.92-10.52c0.23-1.56,0.1-3.03,1.26-4.47c0.94-1.17,1.35-2.96,1.52-4.53
	c0.24-2.23,0.43-4.4,1.47-6.46c0.28-0.55-0.12-1.44-0.21-2.18c-0.72,0.46-0.91,0.88-1,1.32c-0.37,1.8-0.38,3.76-1.13,5.39
	c-1.77,3.83-2.86,7.8-3.34,11.97c-0.07,0.61-0.17,1.23-0.37,1.8c-0.86,2.5-1.87,4.96-2.63,7.5c-1.49,4.96-2.86,9.95-4.25,14.93
	c-0.56,2.01-1.41,4.02-1.53,6.06c-0.21,3.45-2.82,6.38-1.98,9.99c-2.37,3.75-2.43,8.2-3.69,12.29
	C730.45,444.22,730.52,445.87,730.36,447.45z M709.29,476.8c0.31-3.34,0.43-5.73-0.44-8.12c-0.42-1.14-0.6-2.38-0.77-3.59
	c-0.61-4.51-1.05-9.04-1.79-13.53c-0.8-4.84-1.79-9.66-2.89-14.44c-0.32-1.37-0.08-3.35-2.13-3.84c-1.9,2.05-0.68,4.26-0.75,6.39
	c-0.15,4.53,1.47,8.72,2.19,13.08c0.73,4.46,2.3,8.78,3.43,13.18c0.74,2.86,1.33,5.76,2.03,8.62
	C708.3,475.07,708.65,475.54,709.29,476.8z M832.02,401.88c0.13,0.2,0.21,0.49,0.4,0.59c3.57,1.86,7.54,2.24,11.4,2.95
	c0.78,0.14,2.21-0.47,2.52-1.12c1.23-2.55,2.9-5.15,1.45-8.23C841.48,395.44,835.43,395.07,832.02,401.88z M794.18,373.87
	c-0.29,0.22-0.67,0.37-0.81,0.64c-5.01,9.23-9.47,18.72-13.44,28.45c-0.18,0.43,0.07,1.04,0.12,1.63c4.08-1.4,6.48-3.91,7.13-7.95
	c0.02-0.12,0.07-0.24,0.12-0.35c3.71-6.79,4.98-14.39,7.17-21.68C794.52,374.44,794.31,374.18,794.18,373.87z M810.5,488.59
	c5.98-7.05,8.1-19.16,5.36-23.79c-3.19,1.62-3.35,5.37-5.57,7.68c2.06,3.85,1.12,6.91-2.19,9.04
	C807.54,484.44,809.6,486.02,810.5,488.59z M823.27,462.29c-0.12,0.6-0.39,1.11-0.28,1.51c1.37,5.21,0.17,10.21-1.04,15.26
	c-0.69,2.88-1.85,5.56-2.99,8.25c-0.45,1.07-0.89,2.08,0.92,3.19c0.43-0.61,0.92-1.29,1.39-1.98c2.07-3.06,3.27-6.52,4.57-9.93
	c0.47-1.24,1.2-2.46,1.32-3.74c0.23-2.58,0.28-5.2,0.09-7.77C827.06,464.78,826.02,462.89,823.27,462.29z M676.24,472.81
	c-0.3-0.04-0.6-0.09-0.89-0.13c-1.18,2.18-1.58,4.58-1.61,7.08c-0.03,2.5,2.21,7.43,4.4,9.65c0.22-0.3,0.63-0.59,0.62-0.87
	c-0.16-3.43-0.19-6.89-0.64-10.28C677.86,476.39,676.89,474.62,676.24,472.81z M693.58,616.92c1.77-2.03,2.42-3.77,2.5-5.81
	c0.1-2.43-0.36-4.95,1.25-7.18c0.37-0.51,0.41-1.59,0.12-2.17c-0.84-1.68-0.91-3.35-0.74-5.16c0.08-0.82-0.47-1.67-1.85-1.24
	C694.39,602.25,692.85,609.1,693.58,616.92z M793.13,442.18c-1.74-0.31-3.13-0.58-4.54-0.79c-1.68-0.25-3.07,0.22-4.28,1.52
	c-0.93,1-2.28,1.68-1.82,3.12c2.42-0.34,4.69-0.78,6.98-0.95C791.09,444.95,792.29,444.49,793.13,442.18z M506.1,395.13
	c-2.05,4.11,0.33,7.07,1.19,10.45c3.6-1.93,2.03-4.93,2.34-7.48C508.54,397.18,507.51,396.32,506.1,395.13z M659.43,439.7
	c-0.75,1.81-0.94,3.09,0.64,4.13c2.2,1.44,3.86,3.37,5.17,5.66c0.37,0.64,1.24,0.99,1.96,1.54c0.9-1.81,0.56-3-0.68-4.2
	c-1.58-1.53-2.95-3.28-4.47-4.88C661.32,441.18,660.45,440.56,659.43,439.7z M779.22,410.93c-2.05,0.43-3.51,1.27-4.45,3.31
	c-1.4,3.01-1.38,3.41,2.04,4.65C778.17,416.47,780.64,414.42,779.22,410.93z M697.38,503.51c-2.72,3.77-2.75,7.32-0.23,11.22
	C699.9,511.2,699.43,507.56,697.38,503.51z M656.35,453.42c-0.81,4.31-0.83,6.93-0.11,9.99c2.16-1.37,2.51-3.42,2.6-5.7
	C658.93,455.81,658.4,454.41,656.35,453.42z M768.62,405.1c-2.56,1.89-3.72,4.66-5.02,7.32c-0.2,0.41,0.08,1.05,0.15,1.73
	C767.67,412.18,768.59,408.88,768.62,405.1z M761.65,457.84c-3.28-0.73-3.25-0.72-4.53,1.54c-0.67,1.17-1.53,2.23-2.14,3.43
	c-0.4,0.78-0.5,1.72-0.73,2.59C757.2,463.17,758.86,460.06,761.65,457.84z M480.68,490.46c1.76,2.69,3.12,3.46,4.64,2.91
	c1.52-0.54,2.01-1.9,1.63-4.68C484.98,489.25,483.02,489.8,480.68,490.46z M502.44,413.75c0.18,3.18-1.47,6.27,2.32,8.22
	C505.99,418.67,504.89,416.32,502.44,413.75z M517.15,427.49c0.06,0.32,0.13,0.63,0.19,0.95c1.31,0.46,2.62,0.93,4.56,1.62
	c-0.86-1.99,1.63-3.68-1.18-5.18C519.59,425.71,518.37,426.6,517.15,427.49z"/>
<path d="M690.65,659.99c-1,1.64,0.27,3.64-1.56,4.67c-1.29-0.95-2.58-1.88-3.86-2.82c-2.32-1.71-2.42-4.46-0.07-6.22
	c3.22-2.41,6.83-3.91,10.93-4.09c3.68-0.16,7.36-0.47,11.04-0.67c2.66-0.15,4.68,1.46,6.81,2.66c3.23,1.82,6.11,4.13,8.58,6.92
	c1.26,1.43,2.64,2.32,4.75,2.44c3.2,0.17,4.27,1.97,3.57,5.05c-0.75,3.28-2.03,6.32-3.88,9.14c-0.94,1.43-1.65,3.01-2.59,4.44
	c-2.03,3.06-4.89,4.99-8.58,5.04c-2.68,0.03-5.41-0.36-8.05-0.9c-3.27-0.67-6.5-1.35-9.88-1.24c-3.69,0.11-4.49-0.77-5.6-4.46
	c-1.1-3.67-0.8-7.39-0.5-11.06c0.14-1.65,1.45-3.24,2.33-4.8c0.55-0.96,1.45-1.74,1.89-2.73c0.3-0.67,0.37-1.83-0.02-2.29
	c-0.41-0.48-1.57-0.67-2.27-0.48C692.55,658.88,691.49,659.58,690.65,659.99z"/>
</svg>
