<?xml version="1.0" encoding="utf-8"?>
<!-- Generator: Adobe Illustrator 24.1.0, SVG Export Plug-In . SVG Version: 6.00 Build 0)  -->
<svg version="1.1" id="Layer_1" xmlns="http://www.w3.org/2000/svg" xmlns:xlink="http://www.w3.org/1999/xlink" x="0px" y="0px"
	 viewBox="0 0 1224 792" style="enable-background:new 0 0 1224 792;" xml:space="preserve">
<path d="M950.13,424.23c-3.65-0.88-7.21-1.43-10.78,0.06c-3.11,1.29-4.11,3.14-3.51,6.44c0.17,0.93,0.48,1.83,0.62,2.75
	c0.16,1.03,0.23,2.07,0.28,3.12c0.08,1.74-0.58,3.1-2.31,3.67c-1.27,0.42-3.26-0.76-3.79-2.62c-0.71-2.48-1.1-5.07-1.49-7.64
	c-0.18-1.17-0.03-2.4-0.03-3.84c-2.31,0.9-2.35,2.48-2.36,4.05c-0.02,3.24,0.03,6.49,0,9.73c-0.01,1.04-0.05,2.11-0.33,3.1
	c-0.59,2.08-1.96,2.94-3.98,2.73c-1.93-0.2-3.21-1.44-3.29-3.55c-0.09-2.39-0.09-4.81,0.2-7.17c0.17-1.44-0.21-2.26-1.45-2.68
	c-2.16-0.74-4.32-1.58-6.55-2.04c-7.67-1.57-15.37-2.96-23.04-4.47c-4.09-0.81-8.25-1.45-12.22-2.66
	c-8.77-2.68-17.51-5.51-26.15-8.58c-7.85-2.79-15.56-5.99-23.35-8.97c-1.66-0.63-3.36-1.17-5.07-1.63
	c-2.01-0.54-3.84-0.17-5.67,0.98c-6.78,4.28-13.75,8.3-20.43,12.74c-2.46,1.63-4.41,4.08-6.43,6.3c-0.96,1.05-1.54,2.43-2.32,3.71
	c0.42,1.43,1.55,1.74,2.91,1.68c3.96-0.16,7.93-0.33,11.9-0.45c1.14-0.03,2.28,0.12,3.43,0.16c1.98,0.08,4.04,0.51,5.93,0.14
	c5.97-1.16,11.62,0.24,17.28,1.7c4.06,1.05,8.01,1.36,11.75-1.12c1.04-0.69,2.21-1.19,3.37-1.66c2.25-0.92,3.61-0.23,4.22,2.12
	c0.18,0.7,0.16,1.45,0.21,2.18c0.19,3.01,0.68,3.64,3.73,3.82c5.1,0.3,10.21,0.41,15.31,0.68c1.87,0.1,3.75,0.34,5.59,0.71
	c2.8,0.57,3.89,2.19,4.2,5.01c0.3,2.68,0.58,5.47,1.59,7.91c0.65,1.56,2.4,2.99,4,3.78c6.4,3.17,10.83,8.39,15.13,13.79
	c1.2,1.5,2.1,3.16,1.35,5.21c-0.04,0.1-0.07,0.21-0.06,0.31c0.62,7.23-4.12,10.67-9.64,13.43c-7.88,3.94-16.19,6.65-24.81,8.57
	c-5.37,1.19-10.46,0.88-15.71-0.79c-10.76-3.42-21.6-6.49-33-7.13c-5.3-0.3-10.58-1.13-15.83-1.96c-6.8-1.07-13.58-2.31-20.34-3.6
	c-2.45-0.47-4.82-1.34-7.25-1.94c-3.42-0.84-6.47-2.21-8.86-4.97c-1.28-1.48-2.89-2.74-4.52-3.84c-1.82-1.22-2.82-2.72-2.78-4.92
	c0.01-0.61-0.07-1.28-0.3-1.84c-0.61-1.5-2.14-1.75-3.2-0.5c-0.6,0.71-0.95,1.62-1.52,2.36c-1.95,2.55-3.91,5.1-5.94,7.59
	c-3.49,4.27-7.06,8.46-10.2,13.04c-5.14,7.5-8.25,15.84-11.52,24.2c-1.86,4.77-3.93,9.42-5.1,14.44c-0.32,1.37-1.33,2.59-2.08,3.84
	c-5.51,9.22-10.91,18.5-16.61,27.59c-1.86,2.97-4.45,5.5-6.82,8.13c-4.46,4.95-9.03,9.8-13.52,14.73
	c-5.13,5.63-10.12,11.4-15.36,16.93c-5.2,5.5-11.59,9.39-18.79,11.49c-8.39,2.45-16.59,1.8-23.7-4.06
	c-2.24-1.85-4.29-3.92-6.53-5.76c-1.98-1.62-2.81-3.88-3.6-6.12c-2.4-6.81-5.29-13.37-8.84-19.67c-1.21-2.16-1.8-4.66-3.02-6.82
	c-2.56-4.51-5.42-8.85-8-13.35c-1.08-1.88-1.78-3.98-2.62-6c-2.55-6.05-5.06-12.12-7.64-18.16c-2.65-6.2-5.51-12.32-7.99-18.59
	c-1.21-3.06-2-6.35-2.53-9.61c-0.55-3.35-2.42-5.94-4.05-8.71c-0.63-1.07-1.28-2.14-2.15-3.61c-3.61,0.26-7.47,0.35-11.26,0.87
	c-5.36,0.73-10.65,2.1-16.03,2.61c-6.02,0.57-12.1,0.76-18.15,0.61c-4.95-0.13-9.49,1.25-14.07,2.66c-3.2,0.99-6.31,2.27-9.53,3.15
	c-1.56,0.43-3.3,0.42-4.93,0.27c-2.38-0.21-4.73-0.73-7.1-1.12c-4.12-0.69-8.27-1.2-12.34-2.1c-6.82-1.51-13.56-3.37-20.38-4.9
	c-6.61-1.49-13.29-2.61-19.88-4.16c-6.59-1.55-13.12-3.35-19.64-5.2c-3.09-0.88-6.18-1.89-9.1-3.23c-2.63-1.21-5.26-2.66-7.47-4.51
	c-7.77-6.48-12.38-14.9-14.02-24.84c-0.91-5.51-2.15-11.16-1.75-16.64c0.37-5.04,2.35-10.15,7.35-13.09
	c1.08-0.63,2.05-1.44,3.06-2.18c0.84-0.62,1.63-1.32,2.51-1.87c2.39-1.49,5.8-1.76,6.28-5.5c0.06-0.43,0.9-0.84,1.44-1.13
	c5.07-2.76,10.18-4.97,16.26-4.83c9.43,0.22,18.79,0.73,28.02,2.72c4.28,0.93,8.61,1.87,12.72,3.33c8.08,2.88,16.36,3.94,24.88,4.13
	c4.57,0.11,9.24,0.5,13.64,1.63c4.09,1.04,7.95,3.11,11.81,4.94c4.04,1.92,8.04,3.96,11.89,6.23c2.48,1.47,4.68,3.43,6.98,5.19
	c0.46,0.35,0.85,0.8,1.73,1.65c-0.08-1.09,0.06-1.68-0.17-1.96c-3.67-4.51-6.65-9.56-11.21-13.37c-1.94-1.62-3.17-4.05-4.89-5.97
	c-5.97-6.69-12.09-13.26-18-19.99c-3.72-4.23-7.48-8.48-10.68-13.09c-5.82-8.38-11.22-17.05-16.82-25.59
	c-1.93-2.95-3.96-5.84-5.85-8.82c-0.75-1.19-1.7-1.73-3.07-1.81c-2.5-0.14-5.01-0.28-7.49-0.56c-5.18-0.58-10.4-0.99-15.51-1.93
	c-7.58-1.4-15.04-3.44-22.64-4.75c-8.22-1.42-16.51-2.53-24.81-3.35c-6-0.59-12.06-0.42-18.1-0.71c-4.69-0.22-9.37-0.66-14.05-0.93
	c-1.6-0.09-3.21,0.03-5.4,0.07c1.36,1.76,2.27,2.94,3.22,4.17c-2.13,1.99-4.56,1.7-6.77,1.98c-0.54,0.07-1.44-0.79-1.79-1.43
	c-1.7-3.05-3.57-3.81-6.79-2.56c-0.47,0.18-0.95,0.34-1.71,0.62c-0.07-0.87-0.13-1.51-0.19-2.26c-0.12-0.02-0.41-0.11-0.7-0.1
	c-1.23,0.05-2.79,0.65-3.61,0.1c-1.69-1.12-3.02-2.79-4.38-4.35c-0.26-0.3-0.1-1.24,0.19-1.67c1.11-1.65,2.59-2.6,4.74-2.47
	c4.9,0.29,9.8,0.47,14.7,0.68c10.23,0.44,20.47,0.66,30.67,1.37c10.93,0.76,21.85,1.74,32.63,3.84c7.28,1.42,14.52,3.03,21.79,4.43
	c2.62,0.51,5.3,0.67,8.09,1.01c0.11-0.89,0.19-1.39,0.23-1.88c0.19-2.52,1.24-3.74,3.57-4.48c3.08-0.98,6.01-0.24,8.92,0.66
	c3.68,1.14,7.25,2.71,11,3.5c4.17,0.88,8.48,1.05,12.72,1.61c1,0.13,2,0.48,2.93,0.89c1.82,0.8,2.22,2.41,2.03,4.18
	c-0.19,1.84-1.56,2.75-3.15,3.05c-2.14,0.41-4.34,0.53-6.52,0.73c-1.43,0.13-2.86,0.16-4.74,0.26c0.38,1.22,0.51,2.14,0.93,2.9
	c6.29,11.45,13.4,22.38,21.3,32.76c4.22,5.55,9.23,10.51,13.87,15.73c5.2,5.85,10.41,11.7,15.6,17.56c2.69,3.04,5.31,6.16,8.04,9.17
	c4.22,4.64,8.29,9.42,10.98,15.12c1.47,3.11,3.63,5.34,6.66,6.68c8.59,3.8,14.71,10.43,20.68,17.38
	c4.68,5.45,9.59,10.74,14.85,15.63c3.81,3.55,8.52,5.63,14.04,3.76c0.68-0.23,1.44-0.38,2.14-0.34c1.45,0.07,2.23,1.06,2.61,2.35
	c0.4,1.32-0.23,2.39-1.37,2.83c-2.52,0.96-5.08,2.12-7.71,2.45c-4.44,0.56-8.96,0.51-13.44,0.79c-1.4,0.09-2.78,0.44-4.86,0.78
	c2.64,3.11,3.15,6.72,6.11,8.9c0.83,0.61,1.64,1.97,1.58,2.93c-0.26,4.2,2.05,7.61,3.17,11.37c1.27,4.29,2.93,8.47,4.53,12.65
	c1.93,5.06,3.98,10.07,5.99,15.1c0.65,1.64,1.18,3.35,2.01,4.9c2.75,5.13,5.63,10.2,8.44,15.31c0.65,1.18,1.2,2.4,1.78,3.61
	c2.69,5.63,5.37,11.27,8.05,16.91c2.22,4.69,4.13,9.57,6.71,14.05c3.95,6.85,9.86,10.7,18.1,10.83c7.65,0.12,13.88-3.02,19.75-7.44
	c4.54-3.41,8.19-7.68,11.96-11.87c7.82-8.68,15.01-17.91,23.55-25.96c2.53-2.39,4.47-5.48,6.35-8.47
	c3.11-4.93,5.94-10.04,8.92-15.06c1.9-3.21,3.96-6.34,5.74-9.62c0.83-1.53,1.14-3.33,1.7-5c1.26-3.75,2.46-7.52,3.83-11.22
	c1.3-3.52,2.91-6.93,4.13-10.48c1.92-5.61,5.15-10.48,8.48-15.26c3.14-4.51,6.74-8.69,10.06-13.08c1.76-2.32,3.35-4.76,5.01-7.15
	c1.07-1.54,1.98-3.22,3.22-4.61c4.14-4.64,7.04-10.07,10.15-15.38c2.21-3.78,4.61-7.43,6.88-11.17c0.4-0.66,0.96-1.59,0.76-2.16
	c-0.79-2.29,0.36-3.93,1.74-5.3c3.33-3.3,6.7-6.58,10.31-9.57c5.16-4.27,10.85-7.75,16.92-10.63c1.21-0.57,2.01-2.01,3-3.05
	c1.1-1.16,0.89-2.27,0.25-3.69c-1.03-2.28,0.36-4.81,2.88-4.69c3.75,0.18,5.89-1.92,8.32-4.13c4.37-3.97,9.68-6.53,14.92-9.15
	c0.93-0.47,1.82-1.02,2.79-1.37c1.33-0.48,2.71-1.07,4.09-1.13c2.8-0.12,4.16,1.52,3.39,4.18c-0.73,2.49-1.8,4.9-2.92,7.25
	c-2.14,4.51-2,4.86,3.03,5.74c0.51,0.09,1.03,0.2,1.55,0.23c8.13,0.47,16.25,0.96,24.38,1.35c1.32,0.06,2.65-0.33,3.99-0.46
	c0.92-0.08,1.9-0.27,2.76-0.06c4.82,1.19,9.56-0.35,14.34-0.33c5.31,0.03,10.63,0.04,15.94,0.08c2.3,0.02,4.6,0.05,6.9,0.17
	c1.56,0.08,3.11,0.3,4.66,0.53c1.6,0.24,2.72,1.08,2.85,2.82c0.12,1.51-1.25,3.78-2.65,4.23c-1.99,0.64-4,1.22-6.03,1.71
	c-8.03,1.96-16.22,1.89-24.33,1.25c-5.14-0.41-10.17-2.21-15.27-3.24c-2.45-0.5-4.96-0.75-7.45-0.95
	c-6.66-0.52-13.33-0.97-19.99-1.39c-1.84-0.12-3.69-0.02-5.59,0.33c26.22,11.53,53.22,20.27,82.37,24.05
	c-1.41-1.31-2.28-2.55-3.47-3.14c-3.07-1.52-4.38-4.36-5.82-7.1c-0.32-0.61-0.36-1.86,0.02-2.2c0.44-0.39,1.57-0.33,2.26-0.07
	c1.05,0.4,1.98,1.13,2.96,1.72c1.16,0.7,2.26,1.52,3.49,2.08c2.15,0.98,3.93,0.13,4.55-2.15c0.48-1.75,1.07-3.56,1.1-5.35
	c0.16-7.82,2.72-15.1,4.83-22.47c1.6-5.59,3.62-11.07,5.03-16.71c2.35-9.41,4.56-18.87,6.43-28.39c1.24-6.32,1.66-12.8,2.64-19.18
	c0.55-3.59,1.4-7.15,2.29-10.67c1.27-5.06,2.7-10.07,4.06-15.11c1.6-5.93,3.26-11.84,4.74-17.8c0.62-2.52,0.94-5.13,1.22-7.72
	c0.78-7.06,1.19-14.19,0.04-21.2c-1.24-7.57-2.88-15.06-5.63-22.33c-2.12-5.6-4.87-10.8-7.86-15.92c-2.15-3.69-4.41-7.34-6.83-10.86
	c-2.65-3.86-5.6-7.52-8.3-11.34c-4.18-5.91-7.09-12.5-10.03-19.06c-2.17-4.85-3.97-9.88-6.22-14.69
	c-4.39-9.38-10.28-17.71-18.68-23.94c-6.31-4.68-13.35-8.13-20.63-11.08c-6.87-2.78-13.7-5.68-20.58-8.43
	c-4.19-1.67-8.55-2.61-13.05-3.15c-3.72-0.45-7.41-1.28-11.06-2.18c-4.26-1.05-8.5-1.88-12.9-2.29c-4.65-0.43-9.23-1.65-13.83-2.61
	c-4.7-0.97-9.4-1.96-14.07-3.08c-7.2-1.74-14.39-3.51-21.54-5.44c-4.93-1.33-9.75-3.08-14.68-4.44c-5.64-1.55-11.35-2.81-17-4.31
	c-10.4-2.76-20.79-5.53-31.14-8.46c-7.53-2.13-15.03-4.41-22.47-6.86c-5.44-1.79-10.72-4.05-16.12-5.94
	c-7.08-2.48-14.22-4.8-21.33-7.18c-5.64-1.88-11.26-3.8-16.93-5.58c-3.68-1.15-7.41-2.16-11.16-3.07
	c-4.76-1.16-9.55-2.22-14.36-3.19c-1.93-0.39-3.93-0.6-5.9-0.61c-9.42-0.04-18.84-0.11-28.25,0.1c-3.29,0.08-6.61,0.75-9.84,1.5
	c-4.15,0.97-8.23,2.24-12.31,3.49c-1.37,0.42-2.65,1.17-3.96,1.8c-5.24,2.54-10.55,4.96-15.7,7.68c-5.8,3.07-11.43,6.48-17.18,9.64
	c-3.02,1.66-6.16,3.12-9.23,4.68c-4.47,2.26-8.96,4.48-13.39,6.82c-5.43,2.88-10.7,6.11-16.24,8.75c-5.45,2.6-11.13,4.73-16.76,6.92
	c-6.13,2.38-12.29,4.7-18.5,6.87c-6.31,2.2-12.73,4.09-19.04,6.27c-6.01,2.08-12.01,4.19-17.89,6.6c-6.85,2.81-13.62,5.86-20.33,9
	c-6.03,2.83-11.92,5.94-17.88,8.91c-3.08,1.54-6.22,2.97-9.26,4.58c-5.52,2.92-9.34,7.65-12.85,12.62
	c-5.32,7.52-9.09,15.91-13.14,24.13c-2.99,6.08-6.15,12.06-9.08,18.17c-2.07,4.3-3.59,8.89-5.88,13.06
	c-2.28,4.16-3.71,8.59-5.17,13.03c-1.13,3.45-2.57,6.88-3.09,10.43c-0.96,6.48-3.45,12.42-5.65,18.48c-0.48,1.33-0.79,2.5-0.46,3.91
	c0.18,0.76,0.04,1.7-0.26,2.44c-0.45,1.11-1.56,1.37-2.22,0.39c-1.84-2.74-3.91-5.47-3-9.13c0.12-0.5,0.3-0.99,0.53-1.45
	c3.05-6.28,5.13-12.87,6.79-19.65c0.93-3.79,1.33-7.78,3.61-11.21c1.01-1.52,1.36-3.47,2.03-5.22c1.97-5.13,3.93-10.27,5.93-15.39
	c0.38-0.97,0.9-1.88,1.4-2.8c2.23-4.11,4.55-8.17,6.64-12.35c0.44-0.88,0.34-2.24,0.03-3.24c-0.76-2.45,0.06-4.51,2.46-5.45
	c0.58-0.23,1.41-0.21,1.73-0.61c0.5-0.63,1.16-1.9,0.89-2.26c-1.49-2.03-0.11-3.42,1.18-4.22c2.95-1.83,4.1-4.72,5.78-7.49
	c4.78-7.85,10.24-15.29,17.7-20.87c2.48-1.85,5.47-3.06,8.29-4.41c11.69-5.57,23.35-11.22,35.14-16.56
	c4.84-2.19,9.99-3.67,15.01-5.46c5.5-1.97,10.99-3.94,16.5-5.87c3.25-1.14,6.55-2.15,9.81-3.27c4.62-1.59,9.23-3.24,13.85-4.84
	c2.17-0.75,4.34-1.5,6.53-2.19c9.59-3.05,18.52-7.62,27.47-12.09c7.08-3.54,13.95-7.48,20.89-11.28c8.6-4.71,17.12-9.58,25.79-14.16
	c6.08-3.21,12.18-6.53,18.6-8.94c6.22-2.33,12.77-4.19,19.33-5.1c6.77-0.93,13.74-0.45,20.63-0.59c3.55-0.07,7.11-0.3,10.65-0.15
	c3.01,0.12,6.04,0.47,8.99,1.09c6.33,1.32,12.64,2.78,18.91,4.38c2.51,0.64,4.86,1.9,7.34,2.7c6.94,2.24,13.93,4.36,20.88,6.6
	c2.58,0.83,5.09,1.87,7.63,2.8c7.84,2.88,15.67,5.81,23.53,8.62c2.95,1.05,5.98,1.86,8.99,2.76c8.5,2.53,17,5.1,25.53,7.55
	c6.02,1.73,12.1,3.27,18.14,4.96c2.1,0.59,4.12,1.46,6.23,2.03c9.47,2.56,18.94,5.07,28.43,7.56c6.66,1.75,13.32,3.53,20.03,5.12
	c8.02,1.9,16,4.27,24.14,5.24c8.44,1.01,16.59,3.38,24.95,4.45c7.9,1.01,15.14,3.76,22.46,6.47c5.67,2.1,11.36,4.21,16.89,6.65
	c7.55,3.33,14.98,6.98,21.28,12.45c2.99,2.6,5.81,5.39,8.54,8.26c1.27,1.33,2.1,3.07,3.18,4.59c4.94,6.94,8.48,14.55,11.51,22.49
	c2.11,5.53,4.88,10.82,7.6,16.09c3.66,7.08,8.77,13.19,13.36,19.66c7.28,10.27,12.94,21.44,16.45,33.56
	c3,10.36,4.67,20.97,3.99,31.8c-0.24,3.84-0.81,7.68-1.55,11.46c-0.98,5-2.27,9.95-3.46,14.91c-0.32,1.31-0.83,2.58-1.16,3.89
	c-2.01,7.96-4.15,15.89-5.92,23.9c-0.9,4.05-1.07,8.26-1.64,12.38c-0.65,4.74-1.25,9.5-2.11,14.2c-0.82,4.5-1.89,8.96-2.98,13.41
	c-0.81,3.34-1.83,6.63-2.73,9.95c-1.21,4.5-2.36,9.03-3.6,13.52c-0.99,3.59-2.09,7.16-3.19,10.87c3.99,2.19,4.5,5.66,4.66,9.46
	c0.15,3.42,0.75,6.83,1.23,10.24c0.25,1.76,1.52,2.52,3.19,1.71c2.57-1.23,5-0.89,7.58-0.1c2.48,0.75,5.05,1.23,7.58,1.79
	c4.68,1.03,6.44,3.03,6.76,7.58c0.64,9.14-2.51,17.23-6.53,25.04c-2.28,4.44-5.31,8.49-7.91,12.77c-0.73,1.19-1.14,2.58-1.71,3.87
	c-0.12,0.28-0.21,0.59-0.4,0.81c-5.13,5.72-6.55,12.76-7.47,20.09c-0.58,4.62-0.51,9.35-2.36,13.8c-0.91,2.19-1.55,4.59-1.78,6.94
	c-0.66,6.7-3.53,12.57-6.38,18.48c-0.81,1.69-1.41,3.48-2.3,5.12c-2.42,4.47-4.77,8.98-7.47,13.27c-2.4,3.82-4.91,4.22-8.78,1.89
	c-1.25-0.75-2.35-1.74-3.59-2.5c-1.92-1.18-2.62-0.79-3.66,1.13c-2.77,5.11-5.78,10.09-8.49,15.23c-1.5,2.84-3.01,5.78-3.77,8.86
	c-1.14,4.63-3.74,8.58-5.31,12.97c-2.17,6.06-5.92,11.26-9.21,16.65c-3.39,5.56-7.96,10.39-11.68,15.77
	c-2.91,4.2-6.92,7.23-10.35,10.85c-5.23,5.53-10.15,11.36-15.42,16.84c-4.47,4.65-9.14,9.12-13.94,13.44
	c-8.86,7.97-18.88,13.9-30.15,18.06c-10.85,4-21.96,7.38-32.35,12.59c-9.31,4.66-18.58,9.42-27.95,13.95
	c-6,2.91-12.13,5.57-18.26,8.21c-9.2,3.96-18.44,7.86-27.71,11.67c-3.37,1.39-6.91,2.35-10.32,3.65
	c-8.52,3.24-16.39,7.82-24.28,12.29c-5.15,2.92-9.98,6.43-14.9,9.74c-3.63,2.44-7.03,5.27-10.82,7.43
	c-4.53,2.59-9.41,4.31-14.68,5.17c-8.08,1.33-16.21,1.5-24.33,1.86c-6.61,0.3-13.1-0.63-19.33-3.12c-3.09-1.23-6.37-2-9.52-3.1
	c-4.92-1.71-9.84-3.46-14.71-5.31c-3.22-1.22-6.3-2.81-9.54-3.98c-6.27-2.26-11.26-6.27-15.84-10.93c-1.45-1.48-2.94-2.92-4.35-4.44
	c-4.55-4.88-9.17-9.7-13.57-14.71c-3.99-4.53-7.69-9.31-11.6-13.92c-8.25-9.7-16.56-19.34-24.82-29.04
	c-1.88-2.21-3.56-4.61-5.49-6.77c-3.74-4.2-7.64-8.25-11.36-12.46c-1.5-1.69-3-3.49-4.03-5.48c-2.63-5.08-6.64-9.1-10.07-13.56
	c-3.11-4.05-6.42-7.94-9.79-11.78c-5.64-6.43-11.43-12.73-17.08-19.15c-1.58-1.79-2.85-3.85-4.32-5.75
	c-4.38-5.69-8.8-11.34-13.17-17.04c-4.19-5.46-8.33-10.97-12.5-16.45c-4.85-6.38-9.69-12.77-14.56-19.14
	c-5.94-7.78-11.71-15.71-17.93-23.27c-5.1-6.19-10.76-11.93-16.18-17.86c-3.5-3.83-5.75-8.42-7.98-13.04
	c-2.66-5.51-4.01-11.35-5.09-17.35c-1.24-6.88-2.82-13.72-4.65-20.47c-1.63-6.01-3.65-11.92-5.76-17.78
	c-5.83-16.19-15.68-29.82-27.29-42.29c-2.27-2.44-4.94-4.51-7.19-6.97c-1.51-1.65-2.84-3.58-3.84-5.58
	c-1.2-2.41-1.94-5.04-2.93-7.55c-0.25-0.64-0.73-1.19-1.52-2.43c-0.25,1.54-0.38,2.41-0.54,3.27c-0.22,1.22-0.5,2.42-0.69,3.64
	c-0.17,1.02-0.36,2.06-0.36,3.08c0.03,5.19,0.12,10.39,0.2,15.58c0.01,0.93,0.04,1.87,0.1,2.8c0.11,1.6-0.3,3.01-1.9,3.57
	c-1.43,0.5-2.9,0.4-4.02-0.9c-2.32-2.67-4.72-5.27-6.91-8.04c-0.74-0.94-1.15-2.25-1.39-3.45c-0.64-3.18-1.34-6.3-3.13-9.08
	c-0.33-0.51-0.54-1.15-0.61-1.75c-0.51-4.45-0.95-8.92-1.47-13.37c-0.09-0.8-0.42-1.58-0.64-2.37c-0.14-0.49-0.49-1.04-0.38-1.47
	c1.03-4.12-0.48-8.19-0.2-12.3c0.04-0.62-0.03-1.27-0.19-1.87c-1.6-5.85-1.7-11.65,0.24-17.48c1.21-3.64,2.03-7.42,3.23-11.06
	c1.24-3.76,2.7-7.45,4.1-11.16c2.14-5.65,4.29-11.3,6.47-16.94c0.34-0.87,0.67-1.86,1.31-2.48c0.93-0.89,2.16-2.08,3.22-2.02
	c1.04,0.05,2.34,1.29,2.94,2.35c1.18,2.07,2.15,4.31,2.87,6.58c1.89,5.97,5.55,10.91,8.95,16.02c0.82,1.23,1.73,2.41,2.6,3.61
	c0.27-0.08,0.54-0.15,0.8-0.23c0.08-0.73,0.32-1.49,0.21-2.19c-0.47-2.78-0.9-5.58-1.64-8.29c-1.36-5.03-1.49-10.16-1.11-15.26
	c0.33-4.35-0.24-8.56-0.99-12.76c-0.65-3.68-0.13-7.25,0.54-10.82c1.26-6.65,2.91-13.24,3.86-19.93c0.47-3.34-0.25-6.85-0.47-10.28
	c-0.09-1.45-0.32-2.9-0.42-4.35c-0.45-6.22-0.92-12.44-1.31-18.66c-0.23-3.75-0.57-7.52-0.41-11.26c0.18-4.15,0.76-8.28,2.13-12.27
	c1.17-3.43,2.14-6.92,3.23-10.38c0.44-1.39,0.83-2.82,1.51-4.09c1.27-2.35,1.16-4.84,1.08-7.35c-0.01-0.41-0.06-0.91-0.3-1.2
	c-2.39-2.9-4.8-5.79-7.25-8.64c-1.49-1.74-3.06-3.41-4.74-5.27c0.17-0.61,0.38-1.36,0.75-2.64c-1.25,0-2.35-0.3-3.13,0.07
	c-1.09,0.53-1.85,0.44-2.42-0.45c-0.34-0.54-0.65-1.61-0.37-1.93c0.52-0.61,1.46-1.18,2.24-1.2c4.43-0.09,8.38,1.45,12,3.91
	c2.93,1.99,5.88,3.94,8.76,6c1.44,1.03,2.81,2.19,4.08,3.42c1.39,1.35,1.34,3.67-0.19,5.39c-3.2,3.59-4.07,8.15-5.42,12.51
	c-0.55,1.78-0.95,3.6-1.46,5.4c-1.1,3.89-2.59,7.71-3.24,11.66c-0.71,4.39-0.72,8.91-0.9,13.37c-0.07,1.65,0.25,3.32,0.38,4.98
	c0.23,3.02,0.47,6.03,0.68,9.05c0.24,3.54,0.42,7.09,0.69,10.62c0.19,2.5,0.59,4.98,0.74,7.47c0.13,2.05,0.32,4.16-0.01,6.17
	c-0.79,4.82-2.03,9.57-2.76,14.39c-0.56,3.69-0.84,7.45-0.82,11.18c0.01,3.73,0.75,7.46,0.8,11.19c0.05,3.85-0.38,7.71-0.55,11.57
	c-0.28,6.45,1.04,12.58,3.41,18.59c1.63,4.14,2.7,8.5,4.23,12.69c0.74,2.02,2.01,3.85,2.95,5.81c0.4,0.83,0.68,1.75,0.81,2.65
	c0.22,1.55-0.12,3-1.7,3.7c-1.57,0.69-3.12,0.41-4.38-0.73c-2.32-2.1-4.46-4.42-6.89-6.38c-2.2-1.78-3.86-3.98-5.66-6.1
	c-0.57-0.67-1.32-1.33-2.12-1.62c-1.43-0.51-2.01-1.43-1.94-2.84c0.13-2.5-0.61-4.53-2.91-5.8c-0.18-0.1-0.4-0.26-0.44-0.43
	c-1.03-4.46-5.05-7.32-6.29-11.68c-0.22-0.76-0.69-1.45-1.87-2.72c-0.24,0.56-0.5,1.12-0.73,1.69c-1.73,4.36-3.59,8.67-5.13,13.09
	c-1.81,5.19-3.79,10.4-4.88,15.76c-0.95,4.69-2.4,9.44-1.09,14.47c0.78,2.98,0.56,6.22,0.81,9.34c0.09,1.14,0.22,2.28,0.35,3.42
	c0.3,2.69,0.86,5.38,0.84,8.07c-0.03,3.83,0.81,7.4,2.17,10.93c0.71,1.83,1.16,3.76,1.79,5.62c0.15,0.43,0.56,0.78,1.13,1.54
	c0.47-0.9,1.01-1.46,1.02-2.03c0.07-6.06,0.01-12.11,1.19-18.11c0.4-2.01,0.12-4.16,0.54-6.16c0.6-2.87,2.18-4.07,4.47-3.92
	c2.19,0.14,3.37,1.67,4.14,4.4c0.81,2.89,2.03,5.66,3.09,8.48c1.07,2.83,2.06,5.7,3.27,8.46c2.03,4.62,4.9,8.67,8.64,12.1
	c5.17,4.73,9.9,9.86,13.87,15.65c2.88,4.21,5.89,8.36,8.46,12.76c3.1,5.3,6.08,10.7,8.6,16.3c1.83,4.06,2.89,8.48,4.16,12.77
	c1.26,4.26,2.45,8.56,3.51,12.88c1.04,4.24,1.86,8.54,2.78,12.81c1.4,6.51,2.82,13.05,5.39,19.2c2.14,5.13,5.6,9.51,9.29,13.66
	c4.64,5.21,9.36,10.34,13.84,15.69c4.34,5.19,8.47,10.56,12.58,15.93c5.38,7.05,10.62,14.2,15.98,21.27
	c9.14,12.07,18.23,24.17,27.53,36.12c3.95,5.08,8.59,9.62,12.51,14.71c5.05,6.56,11.06,12.2,16.53,18.34
	c4.02,4.51,7.93,9.14,11.65,13.9c1.98,2.53,3.71,5.32,5.11,8.21c2.02,4.17,5.42,7.11,8.38,10.47c3.1,3.52,6.13,7.09,9.19,10.65
	c1.36,1.58,2.74,3.15,4.07,4.76c4.69,5.7,9.28,11.49,14.07,17.11c4.46,5.24,9.18,10.27,13.68,15.47c3.34,3.85,6.47,7.87,9.8,11.73
	c1.77,2.04,3.75,3.9,5.64,5.84c2.9,2.99,5.73,6.06,8.73,8.95c3.77,3.62,7.73,6.94,12.8,8.78c5,1.82,9.92,3.88,14.74,6.14
	c3.9,1.83,7.87,3.17,12.12,3.95c3.26,0.6,6.41,1.82,9.62,2.72c1.4,0.39,2.83,0.68,4.26,0.96c6.62,1.32,13.3,1.2,19.94,0.4
	c6-0.72,11.98-1.73,17.88-3.03c4.24-0.93,8.3-2.45,11.91-5.21c3.72-2.85,7.83-5.18,11.82-7.67c4.78-2.99,9.48-6.16,14.45-8.79
	c7.28-3.86,14.67-7.54,22.19-10.9c9.99-4.46,20.15-8.54,30.23-12.79c6.43-2.71,12.9-5.32,19.25-8.2c5.02-2.28,9.85-4.98,14.82-7.37
	c6.59-3.17,13.23-6.24,19.87-9.31c4.16-1.93,8.36-3.78,12.55-5.66c0.48-0.21,0.93-0.53,1.42-0.64c5.15-1.06,9.86-3.31,14.73-5.16
	c5.1-1.94,9.94-4.3,14.6-6.99c5.77-3.33,11.13-7.27,16.36-11.49c7.23-5.83,13-12.93,19.31-19.58c6.53-6.9,13.04-13.82,19.52-20.77
	c5.23-5.6,9.06-12.21,13.35-18.49c3.86-5.66,6.23-11.99,8.91-18.22c1.5-3.49,2.42-7.06,3.41-10.67c0.51-1.88,1.34-3.72,2.3-5.41
	c1.79-3.14,4.07-6.03,5.63-9.27c1.6-3.3,2.58-6.9,3.83-10.36c0.18-0.49,0.23-1.08,0.54-1.45c2.2-2.63,1.45-5.3,0.31-8.07
	c-0.32-0.79-0.52-1.91-0.2-2.64c2.36-5.45,4.83-10.85,7.35-16.23c0.48-1.02,1.24-1.94,2.02-2.78c1.2-1.3,3.67-1.7,5.2-0.96
	c1.74,0.84,1.77,2.43,1.71,4.04c-0.02,0.41-0.04,0.85-0.18,1.24c-1.34,3.82-2.9,7.58-4.01,11.47c-1,3.51-3.03,6.86-2.13,10.78
	c0.21,0.91,0.1,1.78,1.23,2.28c0.56,0.24,1.03,1.07,1.21,1.72c0.44,1.58,1.68,2.39,2.98,2.29c0.87-0.07,1.93-1.17,2.42-2.08
	c1.73-3.19,3.25-6.51,4.87-9.76c1.29-2.58,2.75-5.08,3.9-7.72c1.37-3.13,2.57-6.34,3.7-9.56c0.51-1.46,0.6-3.06,1.01-4.56
	c0.76-2.79,1.71-5.54,2.4-8.35c0.57-2.32,1.03-4.69,1.28-7.07c0.23-2.16,0.12-4.36,0.17-6.54c0.01-0.41,0.01-0.86,0.15-1.24
	c2.61-7.34,4.73-14.83,8.67-21.71c3.31-5.79,6.94-11.35,10.53-16.95c0.81-1.26,0.95-2.94,1.42-4.41
	C950.36,434.6,951.5,429.58,950.13,424.23z M477.33,489.23c-0.07-0.57-0.05-0.7-0.11-0.77c-6.15-8.11-9.17-17.68-12.53-27.07
	c-1.19-3.34-1.45-3.74-4.76-4.25c-3.5-0.55-7.04-1.04-10.44-1.98c-3.8-1.05-7.61-1.21-11.48-1.21c-2.02,0-3.59,0.65-4.92,2.23
	c-1.48,1.75-3.02,3.51-4.8,4.94c-1.94,1.55-4.11,2.85-6.31,4c-1.62,0.84-3.71,0.21-4.54-1.03c-1.22-1.81,0-2.96,1.21-3.98
	c2.71-2.29,5.23-4.94,8.28-6.63c4.31-2.39,5.92-6.34,7.2-10.48c1.19-3.86,1.89-7.89,2.54-11.88c0.35-2.14,0.47-4.42,0.11-6.54
	c-0.26-1.52-1.26-3.1-2.37-4.23c-0.56-0.57-2.07-0.33-3.15-0.27c-2.5,0.14-5,0.64-7.48,0.53c-5-0.23-10.04-0.41-14.95-1.27
	c-7.78-1.37-14.24,0.84-19.7,6.24c-1.43,1.41-3.06,3.27-3.31,5.1c-0.52,3.79-0.6,7.75-0.08,11.53c0.69,5,0.92,10.13,3.41,14.85
	c0.99,1.88,1.93,3.56,3.55,4.9c0.55,0.45,1.23,0.96,1.45,1.58c1.08,3.04,3.38,5.12,5.99,6.51c4.13,2.19,8.41,4.32,12.89,5.58
	c8.62,2.44,17.42,4.25,26.14,6.32c10.26,2.43,20.51,4.88,30.77,7.3C472.36,489.8,474.8,490.02,477.33,489.23z M848.36,443.18
	c2.57,2.28,4.57,4.03,6.55,5.82c2.14,1.93,3.79,4.15,4.02,7.17c0.39,5.09-0.01,10.01-2.79,14.5c-0.43,0.7-0.54,1.64-1.06,2.25
	c-1.61,1.87-3.02,4.32-5.1,5.28c-5.32,2.46-11.02,2.25-16.49,0.23c-3.02-1.12-5.85-2.76-8.76-4.18c-4.11-2.01-8.13-4.22-12.35-5.97
	c-2.87-1.19-4.07-3.39-5.1-5.96c-0.87-2.18-0.51-4.07,1.09-5.79c0.33-0.36,0.46-0.93,0.64-1.42c1.21-3.33,3.24-6.06,5.92-8.34
	c2.14-1.82,4.34-3.58,6.46-5.42c0.81-0.7,1.48-1.56,2.32-2.46c-3.3-2.22-6.44-3.53-9.98-3.71c-7.09-0.35-14.18-0.58-21.28,0.04
	c-5.65,0.49-5.63,0.42-8.25,5.5c-1.07,2.08-2.3,4.08-3.46,6.11c-0.2-0.1-0.4-0.2-0.6-0.3c0.96-2.87,1.93-5.73,3.03-9.02
	c-4.38,0.23-7.14,2.42-9.92,4.58c-1.64,1.28-3.31,2.53-4.93,3.83c-1.29,1.03-2.53,2.12-3.77,3.21c-4.14,3.65-5.61,7.88-3.66,13.36
	c0.7,1.98,0.97,4.13,2.61,5.52c2.46,2.07,4.9,4.37,7.75,5.72c3.44,1.64,7.25,2.69,11,3.46c6.22,1.27,12.52,2.21,18.81,3.09
	c6.51,0.92,13.04,1.61,19.57,2.4c2.28,0.27,4.56,0.55,6.84,0.75c3.43,0.31,7.11-0.12,10.22,1.04c2.94,1.09,6.09,1.46,8.87,2.8
	c6.04,2.91,12.11,2.02,18.23,0.51c0.39-0.1,0.77-0.32,1.09-0.56c1.12-0.83,2.2-1.7,3.27-2.53c-1.09-0.46-2.33-0.99-4.19-1.79
	c3-1.12,5.24-0.55,7.48-0.33c4.57,0.44,8.88-0.38,12.91-2.61c1.44-0.79,2.92-1.51,4.34-2.33c0.82-0.47,2.12-0.79,0.99-2.22
	c-0.18-0.23-0.05-0.77,0.05-1.13c0.98-3.34,0.51-4.81-2.2-6.99c-2.1-1.68-4.65-2.86-6.03-5.37c-0.22-0.4-0.79-0.66-1.25-0.86
	c-1.99-0.87-3.96-1.8-6-2.5c-2.64-0.91-3.59-2.81-3.93-5.42c-0.31-2.35-0.87-4.68-1.54-6.95c-0.24-0.8-1.02-1.69-1.78-2.04
	c-1.48-0.67-3.11-1.3-4.71-1.39c-3.86-0.21-7.74-0.11-11.61-0.08C850.81,442.69,849.95,442.93,848.36,443.18z M559.37,481.09
	c-1.85-3.72-3.59-7.26-5.36-10.79c-1.12-2.22-1.94-4.71-3.5-6.57c-3.07-3.68-6.47-7.09-9.9-10.44c-1.9-1.85-2.76-1.58-5.34-0.34
	c-2.61,1.26-5.34,2.36-8.11,3.19c-1.19,0.36-2.81,0.2-3.94-0.34c-4.03-1.91-5.93-5.74-7.99-9.5c2.16,0.63,4.16,1.43,5.95,2.55
	c3.42,2.14,7.79,1.67,11.04-1.75c-0.78-0.64-1.59-1.28-2.38-1.93c-1.52-1.25-3.35-2.28-4.5-3.82c-3.35-4.5-8.43-6.34-13.01-8.97
	c-0.33-0.19-0.79-0.13-1.6-0.24c-0.17,1.17-0.38,2.23-0.46,3.3c-0.08,1.03-0.03,2.08-0.03,3.11c0.01,3.65-0.2,7.31,0.09,10.93
	c0.48,6.02,1.48,12.01,1.88,18.04c0.25,3.83-0.14,7.7-0.33,11.55c-0.12,2.35-0.4,4.69-0.63,7.24c1.16,0.08,1.97,0.22,2.77,0.18
	c3.64-0.17,7.28-0.43,10.93-0.59c3.24-0.13,6.5,0.05,9.71-0.28c5.91-0.61,11.81-1.39,17.67-2.34
	C554.61,482.93,557.22,483.35,559.37,481.09z M470.83,418.74c-0.7-0.25-1.06-0.44-1.44-0.5c-5.98-1.02-11.81-2.52-17.59-4.42
	c-12.32-4.05-25.07-5.35-37.99-4.98c-3.08,0.09-6.11,0.66-9.21,2.71c3.31,0.27,6.14,0.2,8.83,0.8c5.11,1.14,10.18,2.08,15.46,1.63
	c1.73-0.15,3.57,0.2,5.26,0.66c5.22,1.45,7.13,4.67,7.88,11.17c0.54,4.68-0.79,9.29-2.02,13.84c-0.83,3.09-1.38,6.27-2.12,9.72
	c2.65,0.37,5.13,0.61,7.56,1.08c4.2,0.8,8.37,1.75,12.56,2.59c1.71,0.34,3.45,0.54,5.06-0.35
	C460.87,442.22,461.28,428.76,470.83,418.74z M475.5,458.7c-4.65-1.08-5.4,0.7-4.01,4.46c1.69,4.59,3.69,9.06,5.45,13.63
	c2,5.2,5.51,9.31,9.41,13.11c0.74,0.72,2.07,1.28,3.06,1.19c3.42-0.28,6.86-0.64,10.2-1.41c4.79-1.11,6.02-2.88,6.4-7.9
	c0.15-1.97,0.28-3.96,0.56-5.91c0.87-5.97-0.81-11.82-0.74-17.76c0-0.2-0.11-0.4-0.18-0.6c-0.91-2.74-2.8-3.66-5.53-2.74
	c-0.99,0.33-2,0.61-3.02,0.8c-1.33,0.26-2.16,0.93-2.8,2.18c-0.9,1.74-1.8,3.69-3.26,4.87c-3.24,2.63-7.27,3.61-11.37,3.91
	c-1.07,0.08-2.62-0.53-3.23-1.36C475.11,463.37,474.3,461.2,475.5,458.7z M852.51,460.68c0.76-3.91-1.35-6.77-4.58-9.15
	c-2.07-1.52-3.21-1.45-4.58,0.81c-1.18,1.95-2.02,4.11-3.19,6.07c-0.61,1.01-1.45,2.12-2.47,2.6c-3.03,1.43-8.3-1.23-9.01-4.55
	c-0.32-1.48-1.02-2.07-2.36-2.48c-1.68-0.51-3.33-1.2-4.93-1.95c-2.58-1.21-3.73-0.94-5.07,1.56c-0.69,1.28-1.16,2.68-1.75,4.01
	c-1.3,2.93-1.04,4.05,1.87,5.53c5.28,2.7,10.75,5.03,15.93,7.89c4.79,2.64,9.58,2.24,14.5,0.92c0.87-0.23,2.08-0.7,2.35-1.37
	C850.47,467.45,852.98,464.74,852.51,460.68z M484.35,427.56c-2.7-0.42-5.15-0.78-7.58-1.19c-2.61-0.44-4.21,0.99-5.27,3.05
	c-3.65,7.09-3.69,14.66-2.62,22.29c0.41,2.93,1.43,3.38,4.98,3.3c2.02-0.04,2.53-0.63,3.07-3.47c0.06-0.31,0.13-0.62,0.11-0.93
	c-0.36-4.77,2.02-8.87,3.31-13.21C481.31,434.16,482.88,431.11,484.35,427.56z M547.86,450.43c-0.46,2.34,1.03,3.3,2.16,4.37
	c3.58,3.41,6.65,7.19,8.75,11.68c1.23,2.63,1.97,5.55,3.48,7.99c4.84,7.79,3.16,7.75,12.59,6.5c0.49-0.06,0.97-0.16,1.82-0.3
	c-2.9-2.99-5.62-5.66-8.19-8.48c-5.46-6-10.81-12.1-16.28-18.08C550.92,452.74,549.31,451.66,547.86,450.43z M503.99,438.27
	c-0.24-2.74-0.25-5.14-0.76-7.43c-0.2-0.9-1.43-2.04-2.35-2.21c-2.85-0.53-5.78-0.73-8.68-0.86c-0.71-0.03-1.74,0.47-2.12,1.06
	c-1.43,2.23-2.66,4.59-4.02,7c0.77,0.3,1.08,0.55,1.33,0.5c3.85-0.75,7.34,0.75,10.96,1.61
	C500.03,438.33,501.84,438.16,503.99,438.27z M827.2,385.35c-3.1-0.15-8.95,3.25-12.02,6.85
	C818.3,395.98,825.89,391.19,827.2,385.35z M501.32,451.79c-1.45-2.6-2.48-4.59-3.67-6.48c-0.35-0.55-1.1-0.96-1.75-1.18
	c-1.38-0.46-2.32,0.21-2.17,1.63c0.23,2.12,0.69,4.21,1.09,6.47C496.97,452.09,498.78,451.97,501.32,451.79z M822.57,447.02
	c1.66,1.46,2.86,1.35,4.04,0.72c2.6-1.38,5.17-2.82,7.74-4.25c0.06-0.03,0.06-0.19,0.08-0.29c-2.31-2.53-3.11-2.96-4.87-1.75
	C827.19,443.09,825.03,445.03,822.57,447.02z M489.46,420.38c-1.88-1.5-8.83-1.97-12.13-0.83
	C482.61,421.82,487.71,422.18,489.46,420.38z"/>
<path d="M672.44,683.14c-3.85-0.08-7-0.73-9.86-2.42c-1.81-1.07-3.53-1.2-5.63-0.58c-5.09,1.5-10.24,2.83-15.44,3.9
	c-4.42,0.91-8.43-0.91-12.25-2.88c-4.16-2.15-8.38-4.25-12.27-6.83c-3.09-2.05-6.07-4.49-8.44-7.31c-1.97-2.35-1.09-5.6-0.32-8.41
	c0.52-1.89,1.47-3.68,2.3-5.47c0.3-0.65,0.69-1.38,1.25-1.75c4.04-2.71,8.06-5.48,12.24-7.97c4.27-2.55,8.97-2.2,13.69-1.51
	c3.91,0.58,7.83,1.24,11.77,1.41c3.84,0.16,7.7-0.4,11.56-0.39c3.12,0.01,6.27,0.18,9.33,0.72c2.1,0.37,4.12,1.38,6.06,2.34
	c4.86,2.41,9.71,4.85,13.46,8.98c0.6,0.66,1.83,0.87,2.81,1.06c3.25,0.63,4.55,3.6,2.27,5.92c-1.52,1.55-2.06,3.28-2.52,5.21
	c-1.64,6.9-5.7,11.62-12.46,14.08C677.35,682.18,674.8,683.36,672.44,683.14z M682.24,656.24c-6.37-6.74-18.39-10.02-25.92-7.18
	c1.33,2.08,3.15,4.05,3.94,6.38c0.77,2.27,2,2.61,3.92,2.5c3.94-0.24,7.89-0.39,11.82-0.71
	C678.01,657.07,679.99,656.61,682.24,656.24z M674.02,666.7c1.4,3.39,4.04,4.76,6.43,6.37c0.49,0.33,1.44,0.4,1.97,0.15
	c2.55-1.18,4.42-5.27,3.94-8.69C682.12,664.11,678.17,665.31,674.02,666.7z M627.7,652.44c-4.74,0.71-6.44,3.36-5.71,8.24
	C624.01,657.76,625.85,655.1,627.7,652.44z M674.46,677.18c-1.97-4.1-3.98-4.32-7.11-0.99C669.5,677.62,671.81,677.51,674.46,677.18
	z"/>
</svg>
