<?xml version="1.0" encoding="utf-8"?>
<!-- Generator: Adobe Illustrator 24.1.0, SVG Export Plug-In . SVG Version: 6.00 Build 0)  -->
<svg version="1.1" id="Layer_1" xmlns="http://www.w3.org/2000/svg" xmlns:xlink="http://www.w3.org/1999/xlink" x="0px" y="0px"
	 viewBox="0 0 1224 792" style="enable-background:new 0 0 1224 792;" xml:space="preserve">
<path d="M761.33,468.36c-1.45,2.6-2.64,4.98-4.07,7.19c-1.04,1.62-2.48,2.96-4.69,2.25c-2.15-0.7-2.48-2.44-2.59-4.48
	c-0.11-2.04-0.68-4.05-1.04-6.08c-0.26-0.02-0.52-0.05-0.78-0.07c-0.57,2.84-1.02,5.72-1.75,8.52c-1.91,7.35-1.15,14.84-1.52,22.28
	c-0.18,3.52-1.86,6.97-2.87,10.44c-2.26,7.78-4.69,15.51-6.75,23.34c-1.82,6.91-3.38,13.89-4.8,20.89
	c-1.15,5.69-1.83,11.47-2.9,17.18c-0.78,4.19-1.8,8.33-2.8,12.47c-1.57,6.45-2.91,12.99-4.91,19.3c-1.69,5.34-3.95,10.53-6.38,15.58
	c-4.94,10.29-10.15,20.46-15.26,30.67c-3.49,6.96-6.92,13.94-10.53,20.83c-4.19,8-8.52,15.93-12.85,23.87
	c-0.43,0.79-1.21,1.4-1.85,2.07c-5.08,5.34-10.51,10.39-15.14,16.1c-5.42,6.68-10.11,13.95-15.17,20.92
	c-1.09,1.51-2.31,2.95-3.64,4.25c-4.34,4.21-6.51,9.81-9.72,14.75c-3.04,4.68-6.42,9.14-9.52,13.79c-1.02,1.53-1.46,3.44-2.42,5.02
	c-1.97,3.27-4,6.52-6.23,9.61c-1.35,1.87-3.47,2.22-5.8,2.46c-8.71,0.87-16.1-2.22-23.1-6.92c-7.69-5.16-15.65-9.94-23.13-15.38
	c-9.73-7.09-19.86-13.78-27.74-23.1c-5.71-6.75-11.32-13.57-17-20.34c-5.01-5.97-10.07-11.91-15.07-17.88
	c-4.87-5.81-9.47-11.89-14.62-17.44c-6.64-7.14-10.55-15.87-15.23-24.17c-0.56-0.99-1.12-2.05-1.93-2.81
	c-6.56-6.19-9.7-14.43-13.16-22.38c-4.33-9.95-5.84-20.74-8.47-31.2c-1.26-5.03-2.76-10-4.22-14.98
	c-2.25-7.68-4.41-15.39-6.91-22.99c-1.97-6.01-4.73-11.77-6.54-17.81c-2.74-9.13-5.32-18.34-7.29-27.67
	c-2.73-12.89-4.79-25.92-7.19-38.87c-2.58-13.9-5.08-27.82-7.94-41.66c-0.65-3.15-1.33-6.85-5.42-8.11
	c-0.78-0.24-1.4-1.47-1.79-2.37c-0.58-1.32-0.74-2.83-1.37-4.12c-0.45-0.93-1.37-2.26-2.08-2.26c-0.85,0-1.94,1.07-2.5,1.94
	c-2.53,3.91-4.63,8.12-7.41,11.84c-2.58,3.46-5.75,6.51-8.79,9.61c-1.52,1.55-3.33,2.82-5.04,4.17c-3.08,2.43-5.64,2.34-7.61-1
	c-2.51-4.27-4.69-8.79-6.47-13.41c-2.64-6.87-5.05-13.84-7.09-20.91c-1.11-3.86-1.76-8-1.72-12c0.12-12.18,0.69-24.35,1.04-36.53
	c0.06-1.97,0.04-3.97-0.21-5.92c-0.34-2.61-0.4-5,0.86-7.53c1.33-2.67,1.88-5.72,3.01-8.51c2.74-6.74,7.89-11.69,13.01-16.54
	c2.84-2.69,6.78-2.24,10.46-1.9c6.42,0.6,12.4,2.49,17.97,5.77c0.9,0.53,2.24,0.3,3.38,0.42c-0.15-1.15,0.04-2.51-0.52-3.41
	c-2.33-3.78-4.91-7.41-7.35-11.13c-0.56-0.86-1.21-1.79-1.37-2.76c-0.78-4.81-1.89-9.64-2-14.48c-0.45-20-0.44-40.01-0.89-60.01
	c-0.14-6.22-1.3-12.41-1.76-18.63c-0.64-8.5-1.23-17.01-1.48-25.52c-0.07-2.49,0.88-5.08,1.66-7.53c2.53-7.95,5.9-15.45,10.43-22.55
	c5.41-8.48,9.87-17.55,15.03-26.19c5.16-8.65,10.72-17.06,16-25.64c3.49-5.66,6.73-11.46,10.22-17.12
	c4.17-6.75,9.43-12.58,15.03-18.22c9.22-9.28,19.48-17.07,31.62-21.84c12.38-4.87,25.5-6.58,38.67-4.56
	c10.23,1.56,19.91,5.42,28.65,11.1c5.74,3.73,11.09,8.06,16.78,11.87c2.56,1.71,5.53,2.84,8.34,4.17c6.76,3.2,13.44,6.6,20.34,9.47
	c6.71,2.79,13.66,5,20.5,7.47c6.65,2.4,13.29,4.84,19.94,7.23c7.82,2.82,15.84,5.2,23.41,8.58c3.93,1.75,7.37,4.94,10.55,7.99
	c5.18,4.96,9.92,10.36,14.93,15.5c3.55,3.64,7.26,7.13,10.85,10.73c4.91,4.93,9.76,9.91,14.66,14.85c6.07,6.12,12,12.39,18.28,18.29
	c5.65,5.31,8.76,11.99,10.24,19.23c1.53,7.49,1.83,15.23,2.68,22.86c1.21,10.84,0.94,21.87,3.95,32.45
	c1.07,3.76,2.82,7.34,4.47,10.9c2.26,4.88,5.04,9.55,7,14.54c1.54,3.93,2.2,8.2,3.21,12.34c2.57,10.48,4.79,21.06,7.77,31.43
	c3.01,10.46,6.86,20.68,10.16,31.07c2.01,6.33,3.72,12.75,5.45,19.17c0.34,1.27,0.01,2.72,0.31,4.02c0.26,1.1,0.72,2.55,1.55,3.02
	c0.84,0.47,2.5,0.29,3.37-0.27c3.66-2.37,7.09-5.07,10.73-7.48c3.04-2.01,6.22-3.8,9.37-5.64c1.62-0.95,3.36-1.34,4.96,0.02
	c7.12,6.08,14.13,12.28,19.58,20.01c1.2,1.71,1.31,3.35,0.59,5.28c-3.22,8.65-6.7,17.22-9.39,26.03c-1.65,5.4-2.49,11.16-2.87,16.81
	c-0.43,6.28-1.83,12.14-4.89,17.55c-2.76,4.87-5.95,9.5-8.78,14.33c-4.34,7.39-11.24,11.38-18.62,15.06
	c-4.66,2.32-9.45,3.11-14.46,3.21c-4.56,0.08-6.97-3.31-9.26-6.53C764.06,473.4,762.82,470.92,761.33,468.36z M518.59,391.41
	c0.86,0.91,1.24,1.54,1.8,1.89c7.63,4.67,13.92,10.86,19.95,17.36c4.43,4.78,8.2,9.76,9.1,16.57c0.65,4.93,2.21,9.74,3.06,14.65
	c0.5,2.86,1.27,5.34,3.45,7.43c2.68,2.56,4.6,5.55,4.24,9.62c-0.14,1.61,0.54,3.28,0.65,4.93c0.32,4.6,1.62,9.42-2.9,13
	c-0.61,0.48-0.97,1.69-0.91,2.52c0.45,5.81,1.09,11.6,1.57,17.4c0.14,1.65,0.87,2.27,2.45,2.62c1.12,0.25,2.45,0.98,3.06,1.91
	c2.9,4.39,7.45,5.38,12.08,5.96c2.6,0.33,4.31,1.23,5.06,3.78c0.2,0.68,0.51,1.38,0.94,1.93c6.29,8.12,12.53,16.28,20.41,22.99
	c6.79,5.78,12.1,12.88,17.65,19.76c0.38,0.47,0.61,1.08,0.9,1.63c2.33,4.5,4.54,9.07,7.01,13.48c3.81,6.79,8.06,13.35,11.64,20.26
	c2.37,4.58,2.74,4.95,6.12,0.96c6.9-8.18,13.96-16.24,20.47-24.71c3.36-4.37,5.35-9.68,4.28-15.45c-0.81-4.37-1.97-8.67-2.97-13
	c-0.88-3.84-2.18-7.64-2.55-11.53c-1.06-11.16-0.24-22.4-1.39-33.58c-0.75-7.31,2.04-14.19,4.19-20.94
	c2.8-8.79,6.74-17.21,10.13-25.81c0.94-2.38,2.32-4.84,2.36-7.29c0.15-10.49-0.09-20.99-0.27-31.48
	c-0.12-7.07-0.28-14.15-0.61-21.21c-0.18-3.92,1.02-6.42,4.88-7.18c10.26-2.02,20.51-4.81,31.04-1c3.92,1.42,5.53,4.31,3.79,8.16
	c-2.27,5.01-6.58,8.24-10.36,11.94c-0.67,0.66-1.33,1.33-2.35,2.35c3.62-0.51,6.58-0.84,9.5-1.34c8.01-1.38,15.97-0.36,23.31,2.48
	c8.41,3.24,15.49,8.8,20.71,16.45c1.86,2.73,4.21,5.13,6.28,7.71c1.33,1.67,3.01,3.24,3.75,5.15c0.95,2.46,1.5,5.21,1.56,7.86
	c0.1,5.18,0.5,10.74-3.23,14.89c-3.34,3.72-3.64,7.4-1.8,11.64c0.82,1.9,1.61,3.84,2.67,5.61c3.19,5.31,7.09,6.68,13,4.69
	c1.48-0.5,2.96-1.03,4.37-1.7c5.57-2.64,11.19-5.32,15.2-10.17c5.8-7.01,10.75-14.66,13.24-23.47c1.71-6.04,2.77-12.33,3.48-18.58
	c1.16-10.16,5.12-19.4,8.58-28.83c1.21-3.3,3.02-6.86,0.12-10.01c-4-4.35-8.31-8.42-12.61-12.48c-1.77-1.67-3.9-1.66-6.06-0.37
	c-3.55,2.12-7.28,3.93-10.73,6.2c-8.19,5.39-15.8,11.28-21.15,19.89c-2.26,3.63-6.3,6.24-9.84,8.92c-0.97,0.74-3.26,0.47-4.56-0.14
	c-1.81-0.85-1.38-2.68-0.81-4.41c1.68-4.99,5.79-7.69,9.69-10.64c1.14-0.86,2.69-1.7,3.14-2.89c1.31-3.46,2.56-7.03,3.09-10.67
	c1.24-8.61-2.03-16.56-4.38-24.6c-1.16-3.98-3.01-7.76-4.17-11.74c-2.79-9.56-5.46-19.16-7.97-28.79
	c-2.51-9.64-4.89-19.31-7.09-29.02c-1.4-6.18-3.79-11.87-7.28-17.11c-3.64-5.47-6.07-11.31-6.66-17.93
	c-0.45-4.97-1.37-9.89-1.89-14.85c-0.68-6.52-1.39-13.04-1.69-19.58c-0.29-6.56-0.18-13.16-2.67-19.35
	c-1.62-4.02-3.36-8.12-5.85-11.62c-2.44-3.43-5.89-6.14-8.9-9.15c-3.31-3.31-6.69-6.55-9.94-9.92
	c-5.19-5.38-10.24-10.89-15.45-16.25c-5.94-6.11-12.11-12.01-17.97-18.2c-5.58-5.9-11.05-12.01-18.31-15.76
	c-5.14-2.66-10.82-4.3-16.29-6.28c-15.45-5.57-30.97-10.95-46.36-16.68c-6.21-2.31-12.21-5.22-18.23-8.04
	c-3.85-1.81-7.67-3.73-11.27-5.98c-7.4-4.62-14.47-9.81-22.01-14.18c-9.29-5.39-19.32-9.07-30.25-8.69
	c-9.26,0.32-18.51,1.37-27.21,4.86c-4.52,1.81-9.16,3.64-13.16,6.34c-6.62,4.47-13.07,9.26-18.39,15.37
	c-3.95,4.54-8.71,8.52-11.96,13.49c-9.38,14.33-18.3,28.96-27.18,43.62c-4.52,7.46-8.47,15.25-12.82,22.82
	c-3.76,6.55-8.42,12.62-10.73,19.95c-1.37,4.35-3.66,8.71-3.75,13.11c-0.2,9.33,0.67,18.7,1.27,28.04c0.58,9.01,1.72,17.99,1.99,27
	c0.36,11.98-0.19,23.98,0.25,35.95c0.37,10.17,0,20.53,6.22,29.68c3.61,5.3,7.74,9.68,13.53,12.37c2.38,1.11,4.95,2.58,6.83-0.75
	c0.56,1.01,0.9,1.86,1.44,2.55c3.16,4.06,7.14,7.42,11.88,9.05c3.62,1.24,5.45,4.59,8.96,5.77c1.94,0.65,3.53,2.35,5.28,3.57
	c0.59,0.41,1.32,0.67,1.77,1.19c1.39,1.62,2.53,3.47,4.03,4.96c2.42,2.4,4.83,4.95,7.67,6.76c2.56,1.63,5.91,2,8.54,3.56
	c3.28,1.95,7.53,1.63,10.25,4.75c0.92,1.06,2.01,2.24,3.27,2.67c3.9,1.33,7.86,2.57,11.89,3.38c6.52,1.31,13.17,2.01,19.67,3.42
	c6.9,1.5,13.71,3.45,20.49,5.43c0.94,0.27,2.23,2.07,2.04,2.81c-0.32,1.25-1.53,2.84-2.69,3.18c-3.48,1.02-7.12,1.48-10.68,2.2
	C520.66,390.68,519.85,391.02,518.59,391.41z M396.03,343.5c0-1.02-0.08-1.75,0.01-2.47c0.56-4.26-1.48-6.78-5.18-8.61
	c-5.73-2.83-11.75-4.09-18.08-4.03c-1.11,0.01-2.56,0.05-3.27,0.71c-4.26,3.94-8.73,7.89-10.96,13.35
	c-2.56,6.27-3.86,12.96-3.98,19.76c-0.06,3.5-0.19,6.93-0.57,10.44c-0.83,7.53-0.86,15.17-0.91,22.77
	c-0.07,9.47,2.28,18.53,5.51,27.34c2.18,5.93,4.7,11.73,7.28,17.5c1.13,2.52,2.32,2.59,4.33,0.9c2.21-1.86,4.55-3.6,6.64-5.59
	c5.84-5.53,9.95-12.25,12.77-19.71c1.9-5.03,3.98-7.61,8.75-2.07c2.13,2.47,5.31,4.15,7.09,6.8c3.85,5.75,5.81,12.36,6.84,19.2
	c0.97,6.47,1.81,12.95,2.87,19.41c1.52,9.3,3.23,18.57,4.78,27.86c0.58,3.48,0.79,7.03,1.47,10.48c1.5,7.64,2.95,15.29,4.86,22.83
	c2.08,8.23,4.49,16.4,7.06,24.49c2.67,8.41,5.79,16.68,8.52,25.07c1.99,6.12,3.73,12.32,5.46,18.52c1.76,6.3,3.67,12.57,5,18.96
	c1.82,8.76,3.92,17.43,7.65,25.57c2.76,6.02,5.38,12.14,10.88,16.5c1.84,1.46,3.04,3.96,4.05,6.2c4.18,9.25,9.61,17.66,16.19,25.39
	c8.09,9.5,16.08,19.09,24.04,28.7c8.82,10.65,16.88,22,27.45,31.03c7.02,6,14.4,11.63,21.94,16.96c6.88,4.86,14.24,9.03,21.3,13.65
	c5.55,3.63,11.38,6.13,18.16,5.45c1.17-0.12,2.72-0.34,3.35-1.12c2.2-2.74,4.17-5.67,6.02-8.66c1.19-1.92,1.84-4.17,3.04-6.08
	c4.09-6.5,8.31-12.9,12.48-19.35c0.84-1.3,1.53-2.71,2.47-3.94c3.86-5.01,8.03-9.81,11.65-14.99c6.9-9.91,14.2-19.45,22.82-27.94
	c1.4-1.38,2.98-2.65,4.05-4.26c2.12-3.19,4.06-6.51,5.85-9.9c9-17.07,18.05-34.11,26.82-51.3c3.91-7.67,7.27-15.62,10.79-23.48
	c1.1-2.46,2.1-4.99,2.81-7.58c1.21-4.49,2.18-9.04,3.2-13.57c1.91-8.48,3.88-16.94,5.64-25.44c1.85-8.96,3.2-18.03,5.31-26.92
	c1.8-7.55,4.15-14.99,6.67-22.34c2.08-6.06,3.19-12.11,3.22-18.57c0.03-5.77,1.26-11.54,2.05-17.3c0.86-6.28,1.96-12.52,2.7-18.81
	c0.38-3.24-0.29-3.6-3.5-4.22c-5.99-1.17-11.95-1.32-18-0.38c-2.96,0.46-6.04,0.39-9.05,0.26c-5.69-0.25-10.24-6.15-9.6-12.66
	c0.65-6.71,1.51-13.4,2.52-20.06c0.52-3.43,1.58-6.78,2.53-10.76c-1.41,0.72-2.63,1.07-3.47,1.83c-2.55,2.29-5.25,4.5-7.36,7.17
	c-4.24,5.36-8.16,10.99-12.14,16.56c-0.49,0.69-0.78,1.76-0.69,2.6c0.4,3.52-0.55,6.53-2.07,9.78
	c-4.97,10.62-9.88,21.32-12.56,32.81c-1.13,4.83-2.38,9.72-2.63,14.63c-0.43,8.42-0.38,16.89-0.01,25.31
	c0.21,4.93,1.13,9.89,2.26,14.71c1.31,5.64,3.45,11.1,4.72,16.75c0.59,2.63,0.48,5.65-0.14,8.3c-1.62,6.98-5.21,13.07-9.66,18.65
	c-6.86,8.6-13.63,17.28-20.54,25.85c-2.3,2.85-5.65,2.17-6.74-1.24c-2.58-8.08-6.5-15.42-11.4-22.35
	c-3.35-4.73-6.29-9.77-9.25-14.76c-1.69-2.84-2.71-6.14-4.68-8.75c-2.86-3.8-6.11-7.35-9.55-10.64c-3.53-3.37-7.86-5.93-11.16-9.48
	c-5.15-5.53-9.86-11.5-14.48-17.5c-1.52-1.97-3.2-3.17-5.48-3.74c-2.73-0.68-5.46-1.36-8.22-1.89c-2.94-0.56-3.34-0.2-3.44,2.7
	c-0.05,1.35-0.03,2.71,0.06,4.06c0.19,2.91,0.5,5.8,0.66,8.71c0.11,1.89-0.61,3.36-2.73,3.45c-1.9,0.08-2.81-1.11-3.03-2.89
	c-0.07-0.52-0.04-1.04-0.08-1.56c-0.51-6.32-1-12.65-1.53-18.97c-0.71-8.48-1.51-16.95-2.17-25.43c-0.27-3.5-0.36-3.62-3.85-3.54
	c-5.72,0.13-11.44,0.25-17.15,0.14c-3.41-0.07-6.83-1.03-8.96-3.79c-5.63-7.3-10.93-14.86-16.46-22.24
	c-2.57-3.43-2.25-6.62-0.06-10.06c1.16-1.83,1.92-3.92,2.86-5.89c-0.2-0.33-0.4-0.66-0.6-0.99c-4.73,0.42-9.62,0.22-14.13,1.45
	c-4.41,1.2-8.42,3.85-12.45,5.79c0.28-6.61,0.97-7.57,7.3-9.71c0.49-0.17,0.99-0.32,1.5-0.44c6.94-1.68,13.95-2.32,21.09-1.81
	c1.62,0.12,3.29-0.15,4.91-0.38c4.4-0.62,8.49-0.17,12.1,2.75c1.44,1.16,2.99,2.25,4.65,3.03c3.67,1.73,7.42,3.29,11.19,4.82
	c0.76,0.31,1.71,0.16,2.57,0.22c0.03-0.79,0.2-1.62,0.05-2.38c-0.65-3.36-1.49-6.69-2.08-10.07c-0.91-5.25-2.87-9.94-6.79-13.69
	c-0.83-0.79-1.55-1.69-2.29-2.56c-12.23-14.3-27.75-22.19-46.47-23.92c-2.27-0.21-4.59-0.52-6.74-1.24
	c-8.94-2.96-17.36-7.08-25.19-12.29c-8.13-5.41-16.08-11.11-24.08-16.72c-0.75-0.53-1.57-1.18-1.96-1.97
	c-0.6-1.21-1.54-2.99-1.08-3.81c0.59-1.05,2.39-1.76,3.76-1.95c1.71-0.23,3.52,0.23,5.29,0.39c-0.47-1.17-1.19-1.76-1.87-2.38
	c-6.61-6.08-14.77-9.57-22.67-13.48c-0.75-0.37-1.91,0.07-2.88,0.14c-1.76,0.14-3.68,1.49-5.17-0.53c-1.5-2.04-2.88-4.15-4.32-6.24
	c-1.85,0.89-2.38,1.9-1.86,3.65c0.44,1.46,0.56,3.05,0.64,4.59c0.16,3.01-0.16,6.09,0.34,9.04c1.73,10.14,3.78,20.23,5.58,30.37
	c0.58,3.24,1.16,6.65-2.14,9.5c-1.88-2.87-2.48,0.59-3.97,0.84c-0.64-0.84-1.23-1.62-1.93-2.54c-1.47,1.03-2.67,1.76-0.87,3.44
	c0.42,0.4,0.3,1.38,0.43,2.09c-0.76-0.09-1.6-0.01-2.26-0.31c-0.5-0.22-0.99-0.88-1.11-1.43c-1.01-4.51-3.55-8.66-2.96-13.57
	c0.18-1.47-0.51-3.03-0.72-4.55c-0.53-3.93-1.02-7.87-1.57-12.24c-2.25-2.26-4.9-4.92-8-8.03c1.07,0,1.19-0.03,1.28,0
	c1.59,0.72,3.24,2.17,4.74,2.03c2.72-0.25,1.42-2.96,1.78-4.6C390.48,343.73,392.8,342.23,396.03,343.5z M732.09,407.28
	c-1.25-0.48-1.91-0.96-2.55-0.94c-3.53,0.13-7.05,0.38-10.58,0.59c-2.06,0.13-3.19,1.35-3.7,3.24c-0.95,3.5-2.06,6.97-2.74,10.53
	c-1.06,5.51-2.09,11.05-2.65,16.62c-0.53,5.34,2.09,7.94,7.44,8.13c1.25,0.05,2.5-0.01,3.75-0.01c7.9,0.01,15.82-0.57,23.66,1.24
	c1.56,0.36,3.42-0.02,5.02-0.48c1.98-0.57,3.73-0.61,4.33,1.56c0.66,2.39,2.3,2.86,4.23,2.69c2.03-0.18,4.05-0.65,6.02-1.21
	c0.55-0.16,1.27-1.05,1.28-1.61c0.05-3.89,0.26-7.82-0.23-11.66c-0.5-4.01-3.81-6.53-6.19-9.51c-2.59-3.24-5.03-6.6-7.68-9.79
	c-0.63-0.76-1.84-1.05-2.78-1.55c-0.36,0.92-0.84,1.81-1.06,2.76c-1.6,6.82-4.83,12.45-11.68,15.11c-1.31,0.51-3.82,0.42-4.49-0.42
	c-1.76-2.21-3.66-4.89-3.97-7.56C726.8,418.87,726.21,412.43,732.09,407.28z M524.66,438.95c-2.96-0.57-5.54-1.28-8.15-1.47
	c-1.01-0.08-2.54,0.74-3.09,1.62c-1.54,2.44-2.85,5.06-3.9,7.74c-0.39,1-0.25,2.66,0.36,3.52c5.04,7.1,10.1,14.19,15.52,21
	c1.18,1.48,3.78,2.48,5.77,2.55c5.59,0.2,11.19-0.26,16.79-0.33c2.44-0.03,3.37-1.01,3.11-3.45c-0.56-5.06-0.94-10.14-1.5-15.19
	c-0.44-3.97-1.57-7.55-6.13-8.65c-0.39-0.09-0.71-0.43-1.07-0.63c-5.56-3.18-6.45-2.58-7.42,3.65c-0.56,3.63-1.85,7.19-3.14,10.66
	c-0.82,2.21-3.15,3.14-5.18,2.54c-1.7-0.51-4-2.02-4.36-3.5c-1.22-5-2.51-10.18,0.27-15.21
	C523.26,442.45,523.77,440.99,524.66,438.95z M685.26,419.72c0.22,0.1,0.45,0.21,0.67,0.31c0.94-1.32,1.88-2.65,2.83-3.97
	c3.76-5.2,7.31-10.57,11.37-15.52c3.21-3.91,7.16-7.21,10.55-10.99c0.98-1.09,1.82-3.08,1.49-4.33c-0.24-0.91-2.52-1.83-3.87-1.8
	c-5.5,0.12-11.02,0.34-16.46,1.03c-5.27,0.67-6.73,2.62-6.65,7.96c0.13,8.5,1.03,17-0.1,25.49
	C685.01,418.5,685.2,419.12,685.26,419.72z M446.63,359.12c-0.25,0.47-0.5,0.93-0.75,1.4c1.5,0.76,3,1.5,4.49,2.28
	c0.5,0.27,1.23,0.54,1.38,0.98c1.13,3.3,3.68,4.84,6.77,5.93c1.01,0.36,1.85,1.26,2.7,1.99c3.5,2.97,7.43,5.06,12.05,5.86
	C465.09,370.32,457.12,362.83,446.63,359.12z M735.44,426.78c0.48-0.8,0.67-0.97,0.68-1.14c0.05-1.34,0.07-2.69,0.07-4.04
	c0-1.79,0.38-3.1,2.67-2.77c0.61,0.09,1.48-0.16,1.9-0.58c1.21-1.24,0.85-6.32-0.61-7.21c-0.81-0.49-2.26-0.74-3.05-0.35
	c-4.07,2.03-6.24,10.48-3.77,14.3C733.77,425.67,734.61,426.09,735.44,426.78z M496.77,384.07c-5.79-5.75-13.46-6.96-18.22-3.14
	C484.1,384.29,490.16,384.19,496.77,384.07z M525.95,453.75c3.64-2.02,4.51-6.96,2-10.73C526.23,446.43,524.15,449.66,525.95,453.75
	z M504.87,380.8c-0.05,0.3-0.1,0.6-0.14,0.9c4.33,1.88,8.66,3.76,13.5,3.15c0.09-0.4,0.17-0.8,0.26-1.21
	C513.94,382.69,509.4,381.74,504.87,380.8z M754.81,465.86c0.47,0,0.95,0,1.42,0c0.45-2.48,1.02-4.95,1.26-7.45
	c0.06-0.6-0.99-1.31-1.53-1.96c-0.47,0.45-1.35,0.89-1.36,1.34C754.56,460.47,754.72,463.17,754.81,465.86z"/>
<path d="M616.17,682.97c-6.09-0.66-12.2-1.15-18.24-2.1c-1.65-0.26-3.26-1.7-4.54-2.96c-0.66-0.65-0.99-2.29-0.63-3.09
	c0.32-0.69,1.91-1.26,2.82-1.13c3.06,0.45,6.04,1.57,9.11,1.83c4.53,0.38,9.1,0.25,13.66,0.31c1.35,0.02,2.73-0.23,4.03-0.02
	c2.14,0.35,3.32,1.84,3.14,3.98c-0.18,2.1-1.68,3.03-3.7,3c-1.87-0.03-3.73-0.21-5.6-0.32C616.21,682.64,616.19,682.8,616.17,682.97
	z"/>
</svg>
