<?xml version="1.0" encoding="utf-8"?>
<!-- Generator: Adobe Illustrator 24.1.0, SVG Export Plug-In . SVG Version: 6.00 Build 0)  -->
<svg version="1.1" id="Layer_1" xmlns="http://www.w3.org/2000/svg" xmlns:xlink="http://www.w3.org/1999/xlink" x="0px" y="0px"
	 viewBox="0 0 1224 792" style="enable-background:new 0 0 1224 792;" xml:space="preserve">
<path d="M738.92,425.64c-0.71,1.43-1.36,2.12-1.35,2.81c0.09,7.24-2.54,14.05-3.33,21.14c-0.53,4.78-0.73,9.6-1.04,14.4
	c-0.07,1.16,0.09,2.33,0.04,3.5c-0.12,2.73-1.41,4.29-3.64,4.5c-2.21,0.2-4.24-1.66-4.35-4.47c-0.14-3.49,0.04-6.99,0.14-10.49
	c0.08-2.64,0.22-5.28,0.41-7.91c0.21-2.95,0.51-5.89,0.79-8.93c-2.67,2.08-2.41,5.35-2.95,8.16c-1.34,7.01-2.52,14.07-3.44,21.14
	c-0.88,6.75-1.63,13.54-1.94,20.33c-0.55,12.3-0.8,24.62-1.03,36.93c-0.14,7.52-1.45,14.78-3.64,21.98
	c-2.45,8.07-4.21,16.35-6.51,24.47c-2.17,7.66-4.48,15.3-7.03,22.84c-2.69,7.97-5.42,15.96-8.71,23.69
	c-6.3,14.79-13.45,29.18-20.6,43.58c-3.73,7.5-7.58,14.99-10.15,23.1c-2,6.29-5.34,12.15-7.71,18.34
	c-2.76,7.2-6.59,13.69-11.32,19.75c-6.96,8.9-14.65,16.9-25.73,20.49c-3.6,1.17-7.5,1.4-11.26,2.05c-5.23,0.9-10.52,1.53-15.67,2.77
	c-5.14,1.24-10.16,3-15.17,4.69c-3.75,1.27-7.33,3.04-11.12,4.15c-6.78,1.99-12.65,5.82-18.83,8.99
	c-7.66,3.93-15.06,8.36-22.67,12.41c-9.96,5.3-20.02,10.51-31.15,12.84c-8.34,1.74-16.54,0.28-24.29-3.18
	c-7.25-3.23-14.25-7.07-21.63-9.97c-5.38-2.11-11.18-3.16-16.81-4.61c-5.15-1.32-10.44-2.19-15.45-3.88
	c-5.96-2.01-11.4-4.98-15.88-9.74c-3.97-4.22-8.58-7.82-12.91-11.69c-9.79-8.76-18.17-18.81-26.29-29.07
	c-2.24-2.83-4.16-5.98-5.76-9.22c-3.01-6.11-5.97-12.27-8.4-18.63c-4.02-10.51-7.75-21.14-11.32-31.81
	c-2.2-6.58-4.56-13.23-5.61-20.03c-1.02-6.61-2.84-12.93-4.44-19.36c-2.87-11.53-4.76-23.24-6.27-35.02
	c-0.49-3.79-1.44-7.51-2.19-11.26c-1.22-6.17-2.37-12.35-3.7-18.49c-1.08-4.98-2.38-9.91-3.58-14.86c-0.12-0.48-0.2-0.98-0.23-1.48
	c-0.76-11.95-4.06-23.49-5.74-35.29c-0.51-3.61-0.36-7.31-0.49-10.96c-0.05-1.5,0.24-3.07-0.13-4.49
	c-1.77-6.87-1.94-13.79-1.19-20.79c0.38-3.57,0.43-7.19,1.05-10.71c0.33-1.85,0-3.11-1.01-4.59c-2.51-3.69-4.84-7.51-7.44-11.59
	c-1.09,0-2.68-0.49-3.62,0.08c-5.61,3.44-12.3,3.17-18.22,5.63c-6.12,2.55-12.46,4.78-18.9,6.3c-9.24,2.19-18.36,1.2-26.09-4.78
	c-2.64-2.04-4.9-5.23-6.09-8.37c-5.05-13.21-12-25.46-18.29-38.05c-2.57-5.14-4.06-10.83-5.88-16.33
	c-3.59-10.86-7.1-21.76-10.59-32.66c-2.28-7.12-4.67-14.2-6.61-21.41c-1.28-4.76-1.91-9.71-2.73-14.59
	c-0.42-2.49,0.74-4.35,2.37-6.25c5.99-6.97,12.21-13.81,14.97-22.94c0.32-1.07,1.62-2.19,2.72-2.61c2.9-1.11,4.32-2.97,3.94-5.97
	c5.52-2.36,7.98-7.38,11.38-11.38c-0.58-0.94-1-1.63-1.37-2.23c0.33-0.44,0.49-0.88,0.7-0.91c2.97-0.41,5.19-1.87,7.04-4.25
	c1.31-1.68,2.93-3.26,4.73-4.39c2.09-1.31,1.2-4.5,4.31-5.41c1.81-0.53,2.94-3.35,4.43-5.09c0.64-0.75,1.34-1.65,2.21-1.97
	c3.78-1.41,4.77-4.72,5.72-8.04c2.75-9.6,6.82-18.66,11.43-27.47c5.05-9.65,10.07-19.32,15.48-28.77
	c5.11-8.91,10.73-17.53,16.08-26.29c2.07-3.39,3.92-6.93,6.08-10.26c2.61-4.02,5.38-7.94,8.19-11.82
	c4.64-6.41,9.31-12.81,14.09-19.12c5.12-6.74,10.27-13.46,15.62-20.02c4.82-5.92,9.91-11.62,14.9-17.4
	c9.16-10.6,20.04-19.37,30.54-28.54c4.25-3.71,8.19-7.77,12.32-11.61c5.75-5.36,12.34-9.34,19.47-12.72
	c15.8-7.5,32.75-9.74,49.81-11.46c6.76-0.68,13.65-1.38,20.38-0.83c11.05,0.9,22.3,0.61,33.06,3.94c3.63,1.13,7.31,2.34,10.68,4.07
	c10.82,5.56,20.67,12.56,30.04,20.34c8.81,7.32,18.07,14.08,27.14,21.08c8.52,6.57,17.59,12.56,25.42,19.87
	c7.02,6.57,15.23,11.09,22.89,16.56c4.67,3.34,8.61,7.78,12.58,12.01c6.52,6.93,13.74,12.29,23.41,14.21
	c4.47,0.89,8.86,2.98,12.83,5.31c7.89,4.61,15.68,9.54,21.78,16.48c5.57,6.34,11.22,12.52,15.63,19.93
	c4.73,7.95,8.69,16.3,13.62,24.14c3.15,5,5.27,10.64,8,15.92c1.45,2.8,3.13,5.48,4.87,8.11c5.49,8.3,10.77,16.77,16.69,24.76
	c4.21,5.68,8.64,11.38,15,15.03c0.7,0.4,1.46,0.71,1.46,0.71c6.96-3.37,13.19-6.81,19.74-9.44c7.68-3.08,15.74-3.67,23.98-1.99
	c4.79,0.98,7.92,4.25,11.04,7.35c3.87,3.86,7.17,8.3,10.67,12.53c2.78,3.36,3.35,7.06,3.2,11.55c-0.38,11.46,0.16,22.94,0.39,34.42
	c0.1,5.16,0.33,10.32,0.5,15.48c0.33,9.6,0.05,19.27,1.2,28.76c0.89,7.33-0.46,13.95-3.31,20.32c-1.73,3.86-4.6,7.24-7.11,10.72
	c-6.2,8.6-12.91,16.87-18.63,25.77c-5,7.78-8.91,16.3-11.82,25.11c-1.48,4.5-2.63,9.17-2.7,14.12c-0.07,4.6-1.21,9.21-2.19,13.75
	c-1.05,4.87-2.19,9.75-3.78,14.46c-2.11,6.29-6.05,11.49-11.35,15.44c-4.26,3.18-8.08,2.63-11.97-1.07
	c-5.06-4.82-7.7-11.18-10.52-17.32c-5.07-11.03-7.74-22.83-10.31-34.63c-0.74-3.4-1.46-6.81-2.28-10.19
	C740.49,427.29,739.88,426.85,738.92,425.64z M307.67,469c-0.28,1.39-0.59,2.18-0.58,2.97c0.1,9,0.24,17.99,0.39,26.99
	c0.01,0.66,0.15,1.32,0.26,1.97c1.11,6.35,2.29,12.69,3.31,19.05c0.97,6.04,1.7,12.12,2.67,18.16c1.13,7.02,2.4,14.01,3.6,21.02
	c0.11,0.66,0,1.39,0.25,1.97c2,4.58,3.1,9.31,3.55,14.33c0.47,5.22,1.56,10.41,2.62,15.56c1.16,5.65,1.19,11.46,3.25,17.03
	c1.47,3.97,1.5,8.47,2.33,12.7c0.45,2.25,1.38,4.41,1.87,6.65c0.88,4.04,1.36,8.17,2.41,12.16c1.64,6.21,3.6,12.33,5.45,18.48
	c2.14,7.12,3.97,14.34,6.54,21.3c2.89,7.84,6.39,15.46,9.75,23.12c3.02,6.89,7,13.12,12.53,18.34c2.76,2.6,5.09,5.66,7.64,8.48
	c2.45,2.71,4.85,5.48,7.45,8.04c5.78,5.69,11.88,11.08,17.47,16.96c5.35,5.62,11.65,9.18,19.16,10.8c4.23,0.91,8.48,1.77,12.64,2.96
	c4.94,1.41,9.9,2.85,14.63,4.8c6.75,2.78,13.22,6.24,19.95,9.06c7.76,3.25,15.82,5.44,24.27,2.95c4.13-1.22,8.33-2.56,12.13-4.54
	c11.62-6.06,23-12.58,34.59-18.7c7.46-3.94,14.98-7.86,22.74-11.14c15.23-6.44,31.54-9.05,47.59-12.49
	c7.29-1.56,14.3-3.33,18.7-10.12c0.44-0.68,1.15-1.19,1.73-1.79c8.69-8.93,14.74-19.4,18.8-31.17c3.35-9.7,8.12-18.8,12.67-27.98
	c0.5-1.01,0.78-2.14,1.15-3.22c0.37-1.08,0.56-2.25,1.12-3.23c3.41-6.02,7.19-11.86,10.3-18.03c3.78-7.53,7.13-15.29,10.45-23.05
	c3.32-7.75,6.47-15.57,9.51-23.43c1.66-4.28,3.1-8.67,4.37-13.08c2.57-8.92,4.8-17.94,7.44-26.83c2.75-9.25,5.24-18.53,5.64-28.23
	c0.38-9.15,0.65-18.3,1.03-27.45c0.27-6.63-0.32-13.33,1.75-19.84c0.54-1.68,0.11-3.65,0.32-5.47c0.75-6.59,1.42-13.2,2.44-19.76
	c0.96-6.16,2.24-12.28,3.53-18.39c1.26-5.97,2.67-11.92,4.12-17.85c0.35-1.42,1.34-2.69,1.66-4.12c1.98-8.81,5.46-16.97,10.4-24.51
	c0.73-1.11,1.53-2.18,2.38-3.21c1.23-1.48,2.9-1.7,4.55-1.03c1.9,0.76,1.99,2.37,1.62,4.19c-0.36,1.78-0.47,3.62-0.7,5.43
	c-1.03,8.13,1.44,15.85,2.98,23.64c1.96,9.93,4.23,19.8,6.83,29.58c2.16,8.16,4.65,16.27,7.64,24.16c1.43,3.77,4.12,7.16,6.67,10.39
	c2.28,2.89,3.98,2.72,6.67,0.25c2.35-2.16,4.49-4.45,5.32-7.69c1.93-7.52,4.17-14.97,5.81-22.56c1.15-5.34,1.39-10.87,2.27-16.28
	c1.28-7.84,5.29-14.65,8.74-21.62c2.28-4.6,4.72-9.18,7.61-13.41c6.46-9.45,13.23-18.69,19.93-27.97
	c3.81-5.28,6.03-10.93,5.65-17.63c-0.52-9.28-0.56-18.58-0.94-27.86c-0.22-5.28-0.95-10.56-1.01-15.84
	c-0.16-12.83-0.2-25.66-0.01-38.49c0.06-4.19-0.46-7.94-3.37-11.09c-2.92-3.17-6.04-6.18-8.74-9.53c-3.47-4.3-8.13-5.45-13.23-5.85
	c-4.72-0.38-9.22,0.39-13.64,2.11c-7.49,2.92-14.72,6.19-20.26,12.33c-1.18,1.31-2.09,2.46-1.53,4.39c1.01,3.49-0.33,6.62-2.1,9.47
	c-4.72,7.6-10.05,14.85-14.29,22.69c-4.38,8.1-10.44,14.55-17.38,20.23c-2.74,2.25-6.31,3.74-9.74,4.82
	c-3.96,1.24-6.15-0.74-5.87-4.83c0.12-1.75,0.72-3.59,1.52-5.16c6.92-13.52,15.63-25.84,25.25-37.55c3.16-3.85,6.54-7.52,9.7-11.37
	c2.85-3.48,2.69-4.11-0.01-7.72c-3.66-4.9-7.35-9.8-10.7-14.91c-4.99-7.61-9.74-15.38-14.5-23.13c-3.73-6.06-7.5-12.11-10.96-18.33
	c-5.13-9.24-9.72-18.8-15.1-27.89c-3.27-5.52-7.73-10.33-11.42-15.63c-4.82-6.91-10.69-12.69-17.9-17
	c-6.94-4.16-13.95-7.92-22.01-10.02c-9.55-2.49-17.66-8.11-24.56-15.38c-5.78-6.09-10.67-13.39-19.51-15.75
	c-0.6-0.16-1.11-0.71-1.63-1.11c-6.57-4.96-13.13-9.92-19.69-14.89c-0.53-0.4-0.94-0.95-1.45-1.37
	c-5.85-4.91-11.62-9.91-17.57-14.69c-7.1-5.71-14.61-10.93-21.49-16.89c-12.66-10.97-26.6-19.83-41.79-26.8
	c-1.64-0.75-3.41-1.42-5.19-1.65c-6.59-0.86-13.26-1.21-19.81-2.32c-11.94-2.02-23.79-1.89-35.65,0.42
	c-4.08,0.8-8.18,1.52-12.24,2.37c-7.16,1.51-14.38,2.83-21.44,4.72c-8.93,2.39-16.93,6.84-23.83,12.98
	c-5.44,4.84-10.53,10.08-15.75,15.16c-4.01,3.9-7.98,7.83-11.97,11.74c-0.24,0.23-0.52,0.42-0.78,0.62
	c-9.8,7.1-17.15,16.65-24.87,25.7c-8.9,10.45-16.81,21.75-25.1,32.72c-4.25,5.63-8.92,10.94-12.03,17.4
	c-1.75,3.65-4.86,6.41-6.71,10.21c-2.63,5.41-6.76,10.08-9.98,15.23c-2.97,4.75-5.68,9.67-8.34,14.6
	c-5.97,11.08-11.87,22.19-17.74,33.33c-1.54,2.91-2.96,5.89-4.24,8.93c-1.55,3.67-2.88,7.4-2.64,11.53c0.13,2.21,1.05,3.42,3.26,3.6
	c0.83,0.06,1.66,0.06,2.5,0.09c5.87,0.21,10.13,2.69,12.39,8.36c2.63,6.6,5.43,13.14,8.18,19.7c1.16,2.76,2.82,5.38,3.5,8.24
	c2.18,9.22,5.78,17.86,9.93,26.32c2.52,5.16,5.14,10.33,6.1,16.04c1.3,7.78,0.97,15.88-8.51,19.96c-0.52,0.22-0.82,0.94-1.32,1.55
	c5.48,8.76,12.94,15.24,21.24,20.85c0.82,0.55,1.78,0.91,2.71,1.27c2.85,1.11,4.53,0.69,5.78-1.97c2.11-4.48,4.13-9.02,5.8-13.68
	c0.82-2.26,1.2-4.85-0.11-7.29c-2.73,0.22-5.37,0.64-7.99,0.58c-3.16-0.07-5.09-3.25-3.62-6.02c1.16-2.18,2.76-4.16,5.48-4.7
	c3.42-0.67,6.81-1.83,10.24-1.98c5.28-0.23,10.9-0.83,15.83,0.6c8.27,2.4,16.68,3.19,25.08,3.87c15.58,1.27,31.16,2.35,46.35,6.37
	c1.8,0.48,3.52,1,5.24-0.28c1.7-1.27,3-0.48,4.34,0.84c2.24,2.21,4.48,4.49,7.01,6.33c6.44,4.69,12.86,9.35,18.08,15.5
	c1.56,1.83,3.8,3.17,5.91,4.43c5.94,3.54,11.03,8.22,14.78,13.78c2.37,3.51,5.03,6.49,8.05,9.24c7.37,6.69,14.83,13.29,22.38,19.78
	c1.31,1.12,3.13,1.97,4.83,2.25c7.3,1.22,12.63,5.3,17.29,10.79c3.56,4.2,4.89,9.41,7.16,14.18c1.04,2.18,1.88,4.62,2.05,6.99
	c0.24,3.41,0.75,6.63,2.89,9.35c1.05,1.33,1.15,2.56,0.65,4.15c-2.29,7.29-1.29,14.46,1.05,21.55c2.59,7.86,5.03,15.77,7.72,23.59
	c2.26,6.56,4.78,13.03,7.21,19.53c1.5,4.01,3.35,7.93,4.48,12.04c1.18,4.28,1.6,8.76,2.55,13.11c0.47,2.16,0.68,4.74,4.3,5.42
	c1.7-3.25,3.78-6.45,5.13-9.94c2.98-7.71,5.73-15.52,8.3-23.37c1.54-4.72,3.01-9.55,3.73-14.45c1.29-8.71,2.18-17.46,5.79-25.65
	c0.93-2.11,1.88-4.34,2.15-6.6c0.59-4.98,3.08-9.02,5.56-13.15c2.88-4.81,6.26-9.45,8.29-14.61c5.85-14.89,13.17-28.99,21.59-42.54
	c2.66-4.29,4.94-8.52,4.66-13.91c-0.25-4.79,1.42-6.42,6.22-6.35c7.14,0.11,13.98-0.34,19.87-5.05c1.61-1.28,3.8-1.22,5.06,0.25
	c2.94,3.42,6.38,2.96,10,1.92c6.32-1.82,12.46-1.3,18.63,0.86c2.79,0.98,5.8,1.51,8.75,1.76c1.49,0.12,3.26-0.55,4.57-1.39
	c5.7-3.67,7.81-3.44,12.26,1.79c2.26,2.65,2.43,4.27-0.43,6.25c-3.9,2.71-7.85,5.62-13.01,5.7c-1.52,0.02-3.03,0.54-4.74,0.87
	c0.37,1.3,0.49,1.95,0.74,2.55c3.55,8.38,7.06,16.78,10.7,25.12c1.24,2.85,3.13,5.45,4.16,8.36c3.02,8.54,2.85,17.49,1.13,26.08
	c-1.81,9.04-4.4,18.13-8.14,26.53c-3.31,7.42-8.15,9.55-15.29,5.42c-4.88-2.82-9.6-5.92-14.25-9.1c-2.94-2.01-4.83-4.76-5.56-8.48
	c-1.15-5.84-2.8-11.58-4.26-17.35c-1.38-5.45-2.86-10.88-4.15-16.35c-0.99-4.19-1.78-8.42-2.6-12.64
	c-1.2-6.17-2.36-12.35-3.53-18.53c-0.78-4.12-0.6-8.49-3.1-12.71c-3.71,2.3-7.07,4.38-10.42,6.49c-1.64,1.03-2.44,2.37-2.58,4.48
	c-0.46,6.63-1.81,7.5-8.1,5.95c-0.32-0.08-0.66-0.09-0.96-0.12c-4.61,5.48-8.39,11.44-11.2,18.03c-1.62,3.81-3.7,7.43-5.32,11.23
	c-2.46,5.77-4.36,11.8-7.12,17.41c-3.34,6.78-7.56,13.09-10.26,20.24c-2.72,7.17-5.03,14.39-6,22.03c-0.9,7.07-1.9,14.08-4.64,20.8
	c-2.44,5.98-4.24,12.25-6.01,18.49c-2.95,10.41-6.79,20.4-13.13,29.25c-1.12,1.56-2.7,3.01-4.39,3.88
	c-3.71,1.91-7.27-0.22-7.87-4.39c-0.14-0.98-0.3-1.97-0.5-2.94c-0.89-4.34-1.7-8.7-2.72-13.02c-1.13-4.83-2.38-9.63-3.71-14.4
	c-0.7-2.53-1.71-4.97-2.51-7.47c-0.45-1.43-0.66-2.93-1.15-4.34c-1.47-4.19-3.09-8.32-4.53-12.52c-2.57-7.54-5.01-15.12-7.58-22.66
	c-1.6-4.71-4.15-9.25-4.84-14.07c-1.07-7.52-1.14-15.21-1.25-22.84c-0.13-8.84-2.69-16.71-8.54-23.34
	c-3.57-4.04-8.42-4.31-12.86-1.09c-3.66,2.66-5.96,1.82-6.88-2.61c-0.27-1.27-0.42-2.67-0.19-3.93c0.5-2.68-0.34-4.55-2.04-6.75
	c-4.36-5.62-10.02-9.69-15.32-14.21c-1.72-1.47-3.4-2.98-5.09-4.47c-0.34,0.18-0.67,0.36-1.01,0.54c0.31,2.37,0.61,4.74,0.92,7.11
	c0.86,6.58,1.16,13.24,3.11,19.67c1.76,5.79,2,11.79,1.91,17.81c-0.04,2.82,0.01,5.69,0.46,8.47c1.61,9.83,3.75,19.6,5.01,29.47
	c0.64,5.03-0.08,10.25-0.38,15.38c-0.11,1.96-0.7,3.89-1.17,5.82c-0.47,1.91-0.76,3.95-1.65,5.66c-2.14,4.12-4.55,8.1-6.9,12.1
	c-1.68,2.84-3.45,5.63-5.17,8.45c-1.36,2.23-2.47,4.64-4.09,6.65c-1.87,2.31-4.15,4.31-6.32,6.37c-4.47,4.23-9.79,3.23-11.74-2.64
	c-3.02-9.09-5.77-18.3-8.15-27.58c-2.38-9.27-4.26-18.67-6.21-28.04c-1.69-8.13-3.21-16.29-4.75-24.45
	c-1.01-5.39-2.56-10.77-2.73-16.19c-0.29-9.38-2.36-18.48-3.37-27.72c-1.33-12.05-2.19-24.15-2.92-36.25
	c-0.43-7.27-0.27-14.57-0.28-21.86c0-4.43-1.77-6.32-6.23-7.02c-1.98,2.05-3.34,4.46-5.37,5.36c-4.52,2.02-9.32,3.51-14.11,4.8
	c-8.07,2.17-15.91,0.72-23.36-2.66c-8.45-3.84-16.75-8-25.11-12.04c-2.88-1.39-5.84-2.17-9.12-1.76c-0.38,0.94-0.78,1.68-0.97,2.47
	c-0.68,2.9-0.87,5.99-2,8.69c-2.11,5.01-4.72,9.81-7.17,14.68c-1.39,2.77-2.83,5.52-4.32,8.23c-1.03,1.87-2.5,2.38-4.61,1.57
	c-7.08-2.72-13.52-6.67-18.92-11.81c-12.4-11.79-22.92-25.28-33.2-38.92c-0.4-0.53-0.62-1.18-0.96-1.75
	c-2.01-3.44-3.98-6.91-6.08-10.3c-0.54-0.88-1.47-1.52-2.45-2.5c-0.78,1.05-1.28,1.68-1.74,2.33c-3.34,4.74-3.83,4.96-9.36,2.62
	c-1.77-0.75-3.11-0.32-4.73,0.29c-3.96,1.48-6.69-0.61-5.98-4.77c0.27-1.59,1.63-3.12,2.78-4.42c1.85-2.08,3.84-4.08,5.97-5.87
	c5.24-4.4,5.98-9.08,3.74-15.83c-2.62-7.92-3.05-16.57-4.48-24.89c-0.1-0.58-0.59-1.1-1.26-2.31c-1.72,1.43-3.31,2.49-4.58,3.85
	c-3.5,3.74-6.89,7.58-10.28,11.42c-5.73,6.46-11.67,12.76-17.07,19.49c-5.14,6.42-9.75,13.27-14.47,20.01
	c-1.51,2.16-2.67,4.54-2.13,7.39c1.1,5.86,1.78,11.82,3.31,17.56c1.79,6.69,4.38,13.17,6.47,19.78c2.44,7.72,4.7,15.49,7.08,23.23
	c0.97,3.16,2.32,6.23,2.97,9.45c0.97,4.78,2.7,9.14,5.33,13.23c1.86,2.9,3.61,5.91,5.09,9.02c2.25,4.71,6.14,8.41,7.94,13.41
	c0.93,2.59,2.53,4.93,3.69,7.44c1.38,2.99,2.65,5.83,5.38,8.11c4.35,3.63,9.31,3.18,14.16,2.88c8.57-0.52,16.42-4.05,24.45-6.75
	c4.72-1.59,9.38-3.35,14.04-5.11c4.29-1.62,6.05-4.77,5.85-9.35c-0.16-3.6-0.35-7.21,1.77-10.61c1.7-2.72,3.27-4.02,6.26-3.59
	c2.72,0.4,4.1,1.97,4.08,5.32c-0.02,3.98-0.5,7.96-0.51,11.94c-0.02,3.73,0.2,7.47,1.18,10.99c3.56,0.5,5.22-1.53,6.9-3.69
	c4.3-5.51,9.65-8.15,16.63-5.5c3.36,1.28,6.62,2.83,10.62,4.56c-0.04,0.01,0.88-0.06,1.51-0.52c5.56-4.01,11.75-6.82,17.91-9.69
	c0.3-0.14,0.59-0.33,0.83-0.56c3.87-3.85,8.56-6.84,11.67-11.51c1.9-2.85,4.21-5.43,6.26-8.02c2.19,0.4,2.09,1.75,1.79,3.11
	c-1.23,5.49-4.03,10.42-8.02,14c-5.21,4.68-9.69,10.23-16.78,12.95c-5.28,2.02-9.83,6.02-14.57,9.34c-4.29,3-5.95,2.84-8.92-1.49
	c-0.28-0.41-0.47-0.9-0.79-1.27c-3.15-3.6-8.56-3.63-11.16,0.27c-1.85,2.78-3.35,5.9-4.45,9.07c-1.16,3.35,1.49,5.93,2.89,8.59
	c1.4,2.65,3.27,2.82,5.77,0.95c2.12-1.59,4.02-3.46,6.04-5.18c2.28-1.93,4.87-2.09,7.48-0.94c4.78,2.1,7.66,7.98,7.68,12.44
	c0.01,1.09-0.84,2.7-1.74,3.13c-0.85,0.4-2.67-0.07-3.4-0.81c-2.07-2.09-4.4-3.46-7.08-4.08c-3.19,2.61-5.96,5.55-9.32,7.45
	C315.82,472.88,312.09,469.29,307.67,469z M461.07,441.28c-5.9,2.23-8.98-0.85-11.03-4.95c-2.06-4.11-3.97-8.43-5.02-12.88
	c-1.91-8.06-2.83-16.36-4.77-24.42c-1.04-4.32-0.74-8.06,1.21-11.91c1.76-3.47,3.03-7.18,1.16-10.91c-1.7-3.37-3.6-6.75-6.04-9.6
	c-2.23-2.6-5.07-4.84-8.04-6.59c-3.01-1.77-4.97-5.51-9.29-5.35c-0.29,0.91-0.74,1.68-0.77,2.46c-0.19,6.28-0.46,12.57-0.38,18.85
	c0.05,3.98,0.68,7.95,1.05,11.93c0.78,8.43,1.56,16.86,2.36,25.29c0.06,0.66,0.31,1.3,0.41,1.95c1.12,7.22,2.27,14.43,3.34,21.66
	c0.92,6.21,1.62,12.46,2.65,18.65c0.96,5.73,2.22,11.4,3.36,17.1c0.85,4.23,1.62,8.47,2.59,12.67c1.6,6.93,3.76,13.76,4.85,20.77
	c0.67,4.34,2.04,8.33,3.38,12.41c0.36,1.09,0.91,2.17,1.01,3.29c0.25,2.75,1.53,4.92,2.97,6.9c4.2-0.5,5.23-3.79,6.75-6.47
	c1.87-3.28,3.2-6.91,5.34-9.98c5.73-8.21,8.19-17.28,7.95-27.15c-0.1-4.14-0.74-8.26-0.77-12.4c-0.03-4.48-0.95-8.5-3.79-12.11
	c-1.47-1.87-2.13-4.32-1.08-6.62C462.25,449.97,461.1,446.08,461.07,441.28z M696.69,450.23c-1.4,0-2.53,0.11-3.62-0.03
	c-1.08-0.14-2.26-0.33-3.15-0.89c-3.38-2.09-6.77-4.2-9.95-6.57c-4.03-3.01-7.69-6.43-7.58-12.07c0.08-4.14,0.25-8.27,0.43-12.4
	c0.17-3.91,1.45-7.9-1.31-11.53c-0.53-0.69-0.51-1.94-0.46-2.91c0.23-3.91,0.58-7.81,0.94-12.34c-1.9-2.36-4.9-1.43-7.75-0.65
	c-2.98,0.82-2.41,3.57-2.79,5.78c-0.55,3.15,0.78,5.42,3.12,7.36c3.65,3.02,3.32,6.74,2.02,10.69c-4.44,0.66-5.27-4.76-9.26-4.75
	c-0.06,0.78-0.13,1.59-0.19,2.39c-0.56,7.94,2.24,15.34,3.77,22.92c1.8,8.91,4.19,17.7,6.15,26.58c0.91,4.11,2.12,7.9,5.76,10.47
	c2.84,2.01,5.56,4.2,8.41,6.2c4.46,3.13,8.5,2.14,10.14-3.02c2.19-6.92,3.78-14.04,5.5-21.11
	C697.15,453.13,696.77,451.77,696.69,450.23z M254.51,283.49c0.45,1.85,0.3,4.46,1.5,5.49c3.43,2.94,4.28,6.49,4.3,10.65
	c0.01,1.27,0.59,2.59,1.12,3.79c1.84,4.21,4.23,8.25,5.54,12.61c1.62,5.41,4.69,9.36,9.26,12.39c2.31,1.54,3.36,1.43,4.99-0.57
	c1.46-1.78,2.14-3.71,1.38-6.02c-1.87-5.66-3.55-11.39-5.59-16.99c-1.75-4.81-4.09-9.4-5.84-14.2
	c-3.96-10.87-7.66-21.82-11.57-32.71c-1.98-5.51-5.41-8.76-11.91-8.12c-4.86,0.48-5.84,0.91-6.3,5.65
	c-0.06,0.66-0.05,1.33-0.11,1.99c-0.9,9.18,2.5,17.63,4.49,26.32c0.16,0.68,1.03,1.19,1.52,1.73
	C251.76,283.45,251.76,283.45,254.51,283.49z M753.99,276.73c-1.68,1.55-2.61,2.22-3.3,3.08c-5.03,6.36-10.06,12.72-14.97,19.16
	c-2,2.62-3.78,5.42-5.52,8.22c-0.4,0.65-0.22,1.66-0.32,2.74C736.74,307.13,751.87,286.59,753.99,276.73z M693.14,430.44
	c0.19,3.31,0.03,6.75,3.7,9.13C697.46,435.3,696.73,432.26,693.14,430.44z"/>
<path d="M564.23,678.98c5.4,1.11,9.54,2.05,13.72,2.79c9.39,1.66,18.87,1.61,28.36,1.25c1.98-0.07,3.94-0.55,5.92-0.77
	c2.1-0.24,4.25-0.72,6.46,0.79c-2.22,4.6-6.42,5.79-10.47,6.92c-11.27,3.12-22.66,2.63-34.11,0.9c-9.67-1.46-19.36-2.79-29.08-3.86
	c-3.19-0.35-5.09-2.31-7.07-4.19c-1.47-1.39-0.97-4.45,0.85-5.77c1.42-1.03,3.25-1.51,4.9-2.22c1.73-0.74,3.96-0.38,5.53-2.56
	c-0.93-0.42-1.59-0.95-2.29-0.99c-1.99-0.14-4-0.17-5.99-0.1c-8.21,0.32-16.26-0.66-24.26-2.43c-3.01-0.67-6.17-0.75-9.1-1.62
	c-3.23-0.96-5.04-4.02-4.31-6.31c0.85-2.7,3.88-4.15,7.33-3.46c6.18,1.23,12.32,2.7,18.54,3.69c11.11,1.78,22.18,1.2,33.21-0.99
	c3.41-0.68,6.99-0.61,10.34-1.47c6.73-1.73,13.42-3.64,19.99-5.89c4.36-1.49,8.74-1.97,13.25-1.82c2.63,0.09,3.87,1.45,4.77,4.26
	c0.72,2.24-0.43,3.76-2.09,4.53c-3.57,1.65-7.33,2.91-11,4.35c-10.02,3.93-20.62,6.42-29.88,12.18
	C566.82,676.76,566.03,677.54,564.23,678.98z"/>
</svg>
