<?xml version="1.0" encoding="utf-8"?>
<!-- Generator: Adobe Illustrator 24.1.0, SVG Export Plug-In . SVG Version: 6.00 Build 0)  -->
<svg version="1.1" id="Layer_1" xmlns="http://www.w3.org/2000/svg" xmlns:xlink="http://www.w3.org/1999/xlink" x="0px" y="0px"
	 viewBox="0 0 1224 792" style="enable-background:new 0 0 1224 792;" xml:space="preserve">
<path d="M870.99,516.91c-3.4,2.71-7.71,4.99-12.76,4.81c-1.66-0.06-3.3-1.53-4.89-2.46c-2.31-1.35-4.49-2.94-6.87-4.15
	c-2.97-1.51-6.14-2.62-9.1-4.14c-2.91-1.5-7.02,0.39-7.55,4.11c-0.67,4.62-0.71,9.33-1.17,13.99c-0.12,1.19-0.77,2.32-1.17,3.48
	c-0.91-0.96-2.33-1.79-2.62-2.91c-0.87-3.38-1.31-6.88-2.5-10.45c-1.21,5.21-2.23,10.24-10.16,10.14c1.79,1.59,2.55,2.86,3.41,2.93
	c4.3,0.34,5.7,2.92,5.9,6.74c0.03,0.53,0.48,1.04,1.16,2.43c-1.77-0.43-2.82-0.68-4.24-1.02c0,2.29,0,4.83,0,8.52
	c-3.88-3.52-7.15-6.08-9.9-9.12c-1.99-2.2-4.19-1.58-5.83-0.66c-0.94,0.52-1.15,3.07-0.99,4.63c0.16,1.6,1.16,3.11,1.85,4.82
	c-2.69,1.47-3.59,5.23-7.82,4.45c-1.95-0.36-2.16,2.47-0.06,4.99c-0.28,0.2-0.54,0.54-0.83,0.57c-4.05,0.37-7.53,3.45-7.99,7.63
	c-0.28,2.55-1.96,3.67-3.37,5.42c-3.28,4.07-5.64,8.89-8.31,13.44c-2.89,4.92,1.74,8.7,2.16,13.17c0.66,7,2.56,13.92,2.86,20.92
	c0.21,5.15-1.24,10.38-2.1,15.56c-0.16,0.96-0.91,1.89-1.57,2.7c-3.7,4.55-8.26,8.63-10.97,13.7c-3.16,5.9-6.24,12.23-6.07,19.3
	c0.15,6.3-1.09,12.13-4.51,17.49c-1.02,1.59-1.82,3.41-2.29,5.24c-1.64,6.49-7.75,8.03-12.28,11.27c-4.52,3.23-9.62,5.36-13.75,9.5
	c-2.59,2.6-7.67,3.55-11.69,3.7c-6.8,0.25-13.65-0.61-20.47-1.22c-9.09-0.82-18.24-1.36-27.22-2.89c-14.66-2.5-29.43-4.5-43.59-9.56
	c-5.82-2.08-12.21-2.54-18.36-3.68c-0.67-0.12-1.5-0.03-2.1,0.28c-8.24,4.26-16.51,8.47-24.65,12.92
	c-12.18,6.65-25.08,8.72-38.66,6.18c-3.26-0.61-6.25-2.89-9.49-3.26c-9.87-1.13-13.79-9.56-19.49-15.56
	c-7.14-7.53-12.95-16.33-20.16-23.79c-10.9-11.28-22.66-21.71-33.76-32.79c-11.12-11.11-21.88-22.58-32.79-33.9
	c-8.85-9.17-17.73-18.3-26.53-27.51c-9.54-10-19.19-19.93-26.2-31.99c-4.13-7.1-5.31-14.95-6.17-23.06
	c-1.08-10.22,1.12-20.08,1.76-30.1c0.06-0.96,0.39-1.93,0.31-2.87c-1.11-12.87,2.5-24.91,6.25-36.98
	c3.23-10.38,1.75-20.94,0.33-31.43c-0.59-4.38-1.44-8.72-1.91-13.11c-0.11-0.99,0.69-2.24,1.39-3.12c1.79-2.26,3.91-4.26,5.63-6.57
	c2.63-3.53,1.15-6.95-3.21-6.92c-3.35,0.02-4.87-1.63-6.54-4.07c-9.7-14.18-10.76-29.55-7.42-45.92c2.01-9.85,2.73-19.96,4.36-29.9
	c0.37-2.26,1.66-4.83,3.35-6.32c8.21-7.18,18.64-10.04,28.77-12.6c6.87-1.74,14.58-1.66,21.44,1.91c6.67,3.48,13.5,6.75,19.82,10.79
	c3.44,2.2,5.93,5.85,8.91,8.79c2.04,2.02,3.62,1.63,4.22-1.1c2.52-11.56,4.74-23.2,7.52-34.7c1.36-5.63,3.74-11,5.57-16.52
	c0.71-2.15,0.87-4.54,1.85-6.54c2.16-4.41,4.59-8.7,7.13-12.91c0.51-0.85,2.02-1.61,3.02-1.55c3.24,0.19,4.11-1.64,4.56-4.29
	c2.27-13.47,6.18-26.43,12.21-38.71c7.99-16.28,15.42-32.87,24.19-48.72c6.38-11.51,14.42-22.11,21.95-32.96
	c13.39-19.3,29.42-36.24,48.34-50.07c7.54-5.51,16.55-9.34,25.34-12.77c15.44-6.03,31.22-11.2,46.88-16.66
	c8.21-2.86,16.67-1.53,25.03-1.09c11.28,0.59,22.58,1.03,33.8,2.24c11.82,1.28,23.63,2.94,35.28,5.26
	c12.48,2.48,24.73,6.09,37.16,8.85c4.83,1.07,8.08,4.17,11.42,7.2c6.93,6.28,14.16,12.34,20.31,19.34
	c5.58,6.35,10.41,13.52,14.59,20.89c4.77,8.43,8.52,17.44,12.57,26.26c3.3,7.19,6.82,14.31,9.46,21.75
	c5.14,14.48,9.49,29.17,9.11,44.86c-0.2,8.05,0.58,16.11,0.51,24.17c-0.15,15.14-1.34,30.21-3.94,45.16
	c-1.14,6.54-1.59,13.22-3.04,19.68c-1.33,5.92-3.8,11.58-5.41,17.46c-2.31,8.43-4.27,16.96-6.44,25.43
	c-0.28,1.09-0.96,2.07-1.38,3.14c-2.46,6.19-4.87,12.4-7.35,18.58c-1.15,2.86-2.61,5.6-3.59,8.51c-1.78,5.29-4.47,10.61-4.7,16
	c-0.43,9.97-2.85,19.51-4.37,29.25c-1.07,6.83-2.19,13.66-3.1,20.51c-0.15,1.11,0.69,2.35,1.07,3.53c1.17-0.46,2.33-0.96,3.52-1.36
	c3.11-1.04,6.16-2.36,9.36-2.98c7.53-1.46,15.14-2.47,22.68-3.86c3.26-0.6,6.01-0.66,9.25,1.05c6.76,3.56,13.91,6.42,21,9.32
	c3.86,1.58,4.75,2.79,4.38,7.04c-0.29,3.35-0.26,6.72-0.3,10.09c-0.07,6.36,0.14,12.74-0.24,19.08c-0.2,3.28-1.35,6.51-2.18,9.74
	c-0.56,2.2-1.32,4.34-1.97,6.52c-0.14,0.46,0.03,1.12-0.24,1.4c-2.66,2.84-3.68,6.69-5.78,9.73c-3.36,4.87-7.76,9.03-11.75,13.48
	c-1.4,1.56-3.03,2.94-4.23,4.63C871.23,513.59,871.35,514.96,870.99,516.91z M722.46,636.43c-0.24-0.92-0.75-1.78-0.59-2.49
	c0.42-1.85,0.66-4.08,1.85-5.32c1.6-1.68,3.66-1.01,5.38,0.73c0.61,0.62,1.95,0.49,2.93,0.78c3.3,0.97,4.99-1.84,7.13-3.29
	c0.72-0.49,0.35-2.51,0.61-3.8c0.16-0.81,0.51-1.61,0.89-2.35c1.5-2.96,2.04-6,5.21-8.55c3.95-3.18,6.3-8.44,9.03-12.99
	c2.48-4.14,4.77-8.43,6.67-12.85c0.65-1.51,0.4-3.92-0.38-5.43c-1.68-3.25-3.9-6.24-6.03-9.24c-5.56-7.83-11.16-15.64-16.83-23.4
	c-2.11-2.89-4.91-5.35-6.64-8.43c-3.93-6.98-7.42-14.21-11.03-21.37c-1.12-2.23-2.13-4.52-3.06-6.83c-1.38-3.41,0.01-6.57,3.76-9.79
	c1.42-1.22,4.8-2.77,2.09-4.9c-4.72-3.71-0.51-7.87-2.56-12.46c4.52,1.32,7.76,2.65,11.12,3.13c3.76,0.54,7.68-0.05,11.44,0.51
	c2.77,0.41,5.44,1.73,8.02,2.93c0.62,0.29,1.12,1.79,0.96,2.59c-0.42,2.07-1.32,4.04-1.86,6.1c-0.6,2.3-1.75,3.28-4.19,2.48
	c-4.31-1.42-8.9-2.61-12.5,1.07c-2.55,2.61-5.49,5.84-6.05,9.17c-1.06,6.28,2.16,11.76,6.34,16.47c0.54,0.61,1.29,1.08,1.72,1.76
	c3.26,5.08,6.25,10.35,9.72,15.28c6.21,8.82,12.7,17.45,19.23,26.37c1.48-2.47,3.46-2.19,5.66-0.26c0.4-3.53,0.3-6.78,3.83-8.39
	c0.6-0.27,1.01-1.71,0.94-2.57c-0.27-3.04,0.48-5.39,3.78-6.37c-1.67-4.87-1.41-8.75,4.07-10.66c0.65-0.23,1.19-2.06,1.04-3.04
	c-0.51-3.41,1.32-5.58,2.88-8.35c1.72-3.05,3.29-5.58,6.44-7.05c0.16-0.08,0.23-0.41,0.3-0.64c2.12-6.82,6.68-11.89,11.77-16.62
	c0.93-0.86,1.58-2.11,2.11-3.29c1.61-3.62,2.98-7.34,4.65-10.93c2.4-5.16,4.35-5.73,9.27-2.95c1.65,0.93,3.03,1.68,4.61-0.47
	c1.87-2.54,3.54-2.19,5.19,0.61c0.4,0.67,0.81,1.34,1.55,2.58c1.19-2.58,2.13-4.62,3.41-7.4c2.19,6.45,2.2,6.47,7.83,5.1
	c3.11-0.76,6.15-1.84,9.29-2.32c1.42-0.22,3.14,0.4,4.48,1.1c4.19,2.2,8.51,3.2,13.65,2.59c-1.56-1.39-2.67-2.39-4.29-3.83
	c2.71,0,4.29,0.15,5.84-0.03c3.33-0.38,5.87-1.83,7.59-5c1.89-3.49,4.49-6.59,6.41-10.06c0.82-1.49,0.52-3.55,1.04-5.26
	c2.35-7.71,4.4-15.34,2.69-23.61c-0.75-3.61-1.5-6.43-5.49-7.47c-1.45-0.38-2.68-1.54-4.06-2.25c-5.67-2.95-11.32-5.86-18.09-3.92
	c-3.33,0.96-6.71,1.81-10.12,2.41c-4.96,0.88-10.06,1.1-14.92,2.3c-6.39,1.58-12.37,4.07-17.46,8.69
	c-4.15,3.78-8.94,6.78-10.78,12.54c-0.49,1.54-1.5,2.98-2.5,4.29c-6.53,8.58-15.66,14.24-23.83,20.98
	c-2.37,1.96-4.89,1.52-7.02-0.88c-1.75-1.97-3.56-3.91-5.53-5.66c-5.23-4.65-10.02-9.61-13.11-16.04
	c-1.49-3.1,0.74-14.28,3.56-16.28c0.65-0.46,1.59-0.48,2.33-0.85c1.28-0.63,2.51-1.37,4.68-2.58c-2.7-1.16-4.39-1.72-5.91-2.58
	c-3.34-1.89-5.32-0.48-7.09,2.39c-2.63,4.27-5.28,8.55-8.31,12.54c-1.64,2.16-3.94,3.89-6.19,5.45c-0.83,0.58-2.92,0.61-3.48,0.01
	c-0.76-0.81-0.83-2.5-0.75-3.78c0.05-0.86,0.93-1.64,1.37-2.5c2.91-5.75,6-11.42,8.58-17.32c0.7-1.61-0.15-3.89-0.28-5.86
	c-1.43,1.35-3.35,2.44-4.2,4.09c-3.3,6.45-5.95,13.24-9.42,19.59c-3.13,5.72-4.51,12.47-9.9,16.94c-1.89,1.57-3.3,3.64-6.13,1.85
	c-2.61-1.64-2.19-3.82-1.58-6.35c1.03-4.31,1.71-8.69,2.54-13.05c-0.51-0.3-1.03-0.61-1.54-0.91c-0.36,0.75-0.73,1.49-1.07,2.24
	c-1.61,3.57-3.26,7.13-4.81,10.72c-2.85,6.61-5.85,13.1-6.73,20.43c-0.67,5.63-2.56,11.11-3.32,16.73
	c-1.29,9.59-1.64,19.32-3.33,28.83c-1.13,6.39-3.75,12.54-6,18.7c-0.71,1.96-2.79,3.41-3.51,5.37c-2.17,5.94-3.89,12.05-5.98,18.03
	c-0.84,2.41-1.9,4.83-3.35,6.91c-2.66,3.84-11.53,5.41-15.35,2.72c-1.06-0.74-1.55-2.52-1.95-3.92c-0.49-1.7-0.6-3.51-0.88-5.27
	c-1.12-6.97-2.52-13.91-3.27-20.92c-0.54-5-0.21-10.1-0.29-15.15c-0.15-9.13-0.25-18.27-0.51-27.4c-0.08-2.65,0.07-5.67-1.14-7.83
	c-1.69-3.02-1.35-5.67-0.68-8.64c1.39-6.16,2.88-12.31,3.96-18.53c0.9-5.23,0.54-10.73,4.54-15.08c0.85-0.93,0.85-2.68,1.13-4.08
	c0.45-2.23,0.77-4.48,1.23-6.71c0.99-4.83,2.21-9.63,2.96-14.49c0.38-2.44,0.54-5.24-0.27-7.48c-2.23-6.18-4.56-12.42-7.69-18.17
	c-5.72-10.52-11.8-20.87-18.25-30.95c-2.57-4.02-6.52-7.15-9.83-10.69c-0.39,0.2-0.78,0.41-1.17,0.61c0.47,2.23,0.66,4.57,1.48,6.66
	c1.7,4.35,0.63,9.7,4.92,13.18c0.71,0.57,0.57,2.48,0.44,3.72c-0.16,1.53-0.56,3.08-1.16,4.49c-1.49,3.46-2.25,7.46-6.34,9.8
	c-0.25-1.14-0.67-1.89-0.49-2.44c1.71-5.24,0.71-9.86-1.24-15.09c-2.7-7.21-3.32-15.18-5.17-22.74c-0.89-3.64-0.4-7.97-4.84-10.19
	c-8.95-4.47-15.2-12.33-22.8-18.49c-7.34-5.94-12.72-14.62-22.98-16.76c-2.54-0.53-2.86-3.05-1.32-5.27
	c1.64-2.37,4.18-2.7,6.45-1.66c3.65,1.67,6.95,4.1,10.59,5.8c4.55,2.12,8.66,4.63,11.51,8.89c1.97,2.96,4.24,4.33,8.34,3.89
	c8.51-0.92,13.49,0.31,15.78,10.94c1.51,7.06,5.03,12.81,10.85,17.27c3.36,2.58,6.83,5.33,9.28,8.71
	c5.29,7.3,10.33,14.84,14.75,22.69c4.43,7.86,8.07,16.18,11.9,24.37c3.16,6.76,6.32,13.64,4.74,21.39
	c-1.13,5.58-3.11,10.99-4.13,16.59c-2.1,11.5-3.79,23.07-5.68,34.61c-0.44,2.7-1.48,5.37-1.5,8.06
	c-0.11,19.63-0.34,39.26,0.18,58.88c0.16,5.95,2.29,11.92,4.06,17.72c0.92,3.01,3.14,2.88,4.79,0.04c0.54-0.93,0.82-2,1.23-3
	c3.18-7.9,6.45-15.76,9.51-23.71c2.23-5.78,4.97-11.53,6.09-17.55c1.61-8.69,1.97-17.61,2.85-26.43c0.52-5.24,0.38-10.65,1.67-15.68
	c3.87-15.06,10.92-28.91,17.36-42.98c1.02-2.24,1.11-3.32-1.86-3.25c-1.07,0.02-2.88-0.73-3.09-1.49c-0.34-1.17-0.03-3.05,0.78-3.92
	c2.19-2.36,4.92-4.21,7.16-6.52c1.89-1.95,4.05-4.04,4.93-6.49c1.58-4.38,2.41-9.04,3.32-13.63c1.07-5.4,2.14-10.81,2.74-16.27
	c0.66-6.02,4.52-11.89,1.03-18.18c-0.3-0.54-0.09-1.44,0.06-2.13c1.28-5.91,5.91-9.09,10.37-12.29c0.82-0.59,2.65-0.3,3.78,0.16
	c3.67,1.48,7.3,3.1,10.81,4.92c6.39,3.31,12.79,6.49,20.05,7.52c1.72,0.25,3.9,0.82,4.89,2.04c2.35,2.9,5.27,2.78,8.42,2.84
	c3.31,0.06,5.91,2.81,5.75,6.13c-0.27,5.48-0.49,10.99-1.4,16.38c-0.25,1.48-2.84,3.49-4.45,3.59c-2.46,0.14-1.91-2.4-1.79-4.19
	c0.19-3,0.23-6,0.45-9c0.21-2.85-1.33-3.68-3.84-4.09c-3.65-0.59-7.24-1.55-10.85-2.34c-2.92-0.64-5.82-1.58-8.78-1.82
	c-7.43-0.61-14.88-1-22.33-1.23c-1.01-0.03-2.79,1.23-2.97,2.14c-2.59,12.63-5.33,25.24-7.24,37.97c-1.24,8.23-1.12,16.67-1.75,25
	c-0.16,2.07-0.9,4.09-1.27,6.16c-0.19,1.06-0.12,2.16-0.17,3.24c0.43,0.08,0.87,0.16,1.3,0.24c3.36-6.86,6.87-13.65,10.03-20.59
	c3.18-6.98,5.8-14.23,9.07-21.17c2.95-6.26,5.7-6.45,10.42-1.27c0.16,0.18,0.29,0.44,0.49,0.52c1.53,0.58,3.27,1.86,4.59,1.53
	c3.81-0.95,7.43-2.6,11.16-3.88c7.16-2.46,14.38-4.75,21.51-7.29c6.68-2.38,11.08-0.37,13.57,6.36c2.37,6.38,4.84,12.73,7.3,19.08
	c0.5,1.29,1.11,2.54,2.12,4.86c1.51-2.3,2.87-3.66,3.37-5.29c0.91-2.97,1.42-6.07,1.89-9.16c0.73-4.87,1.18-9.78,1.95-14.65
	c1.17-7.41,3-14.75,3.64-22.2c0.49-5.63,0.5-11.08,3.08-16.41c3.11-6.45,5.43-13.3,8.02-20c3.15-8.14,6.61-16.19,9.25-24.5
	c3.74-11.78,7.13-23.68,10.14-35.67c1.63-6.47,2.39-13.2,3.13-19.85c1.38-12.51,2.98-25.03,3.52-37.59
	c0.46-10.65-0.97-21.37-0.59-32.03c0.49-14.07-3.92-26.95-8.39-39.82c-2.63-7.58-6.56-14.69-9.56-22.15
	c-9.51-23.61-21.79-45.1-42.54-61.01c-8.53-6.54-17.39-11.25-28.02-12.72c-3.8-0.53-7.6-1.32-11.3-2.36
	c-17.35-4.88-35.16-6.69-53.03-8.1c-8.26-0.65-16.57-0.69-24.83-1.33c-11-0.86-21.78-0.72-32.18,3.75c-6.06,2.61-12.32,4.81-18.55,7
	c-9.16,3.23-18.51,5.94-27.54,9.49c-15.97,6.29-27.61,18.49-39.4,30.29c-5.25,5.25-9.97,11.07-14.47,16.99
	c-6.74,8.85-13.1,17.98-19.56,27.05c-0.77,1.08-1.11,2.47-1.65,3.72c0.27,0.2,0.54,0.41,0.81,0.61c2.35-2.28,4.46-4.9,7.1-6.78
	c7.22-5.15,14.48-10.31,22.07-14.87c6.06-3.64,11.81-7.27,15.66-13.47c0.98-1.58,3.2-2.99,5.02-3.24c1.08-0.15,3.54,2.15,3.51,3.3
	c-0.04,1.8-1.54,3.65-2.68,5.31c-0.94,1.37-2.43,2.35-3.37,3.72c-5.96,8.71-11.8,17.51-17.76,26.22
	c-4.81,7.03-9.75,13.96-14.61,20.95c-3.77,5.43-7.49,10.89-11.27,16.31c-6.98,10.02-13.36,20.53-21.15,29.87
	c-8.33,9.99-16.2,20.17-22.17,31.72c-3.72,7.2-6.58,14.78-5.81,23.06c0.75,8.09,2.03,16.13,3.07,24.19
	c0.43,3.35-1.85,7.66,4.53,9.04c-5.07,1.18-5.28,1.96-3.21,5.14c0.59,0.91,0.58,2.63,0.13,3.68c-0.5,1.18-1.7,2.15-2.79,2.95
	c-0.89,0.66-2.1,1.37-3.09,1.27c-0.68-0.07-1.54-1.39-1.78-2.3c-0.55-2.06-0.82-4.2-1.1-6.32c-0.45-3.46-0.73-6.94-1.29-10.38
	c-0.14-0.89-1.41-2.43-1.58-2.35c-2.55,1.11-5.85,1.85-7.28,3.87c-2.43,3.44-3.34,7.69-3.31,12.2c0.03,5.22-0.79,10.46-1.43,15.67
	c-0.13,1.07-1.11,2.03-1.71,3.05c-2.09,3.56-4.67,6.85-2.89,11.58c0.67,1.8-0.21,4.16-0.32,6.27c-0.07,1.38-0.36,2.85,0,4.12
	c1.47,5.29,3.25,10.51,4.69,15.81c0.4,1.48,0.06,3.16,0.06,5.08c-2.24-0.92-3.84-1.74-5.54-2.22c-2.51-0.71-4.02-1.92-4.8-4.68
	c-1.43-5.06-3.27-10.03-5.33-14.87c-1.1-2.59-1.53-4.76-0.58-7.56c0.7-2.07,1.1-5.35-0.03-6.75c-5.25-6.5-10.73-12.89-16.78-18.63
	c-7.02-6.65-15.62-10.85-25.36-11.72c-11.58-1.04-21.87,3.25-31.57,9.03c-2.92,1.74-4.98,4.36-5.26,8.15
	c-0.28,3.82-1.02,7.61-1.6,11.4c-0.85,5.65-1.72,11.29-2.6,16.94c-0.24,1.53-0.77,3.04-0.78,4.56c-0.02,3.42-0.02,6.86,0.39,10.25
	c0.33,2.8,1.94,5.57,1.76,8.27c-0.35,5.25,1.09,9.16,5.69,11.87c0.88,0.52,1.35,1.7,2.18,2.34c2.34,1.78,4.58,3.89,7.23,5
	c2.81,1.18,6.05,1.33,9.09,1.98c3.17,0.68,6.44,1.14,9.47,2.23c4.43,1.6,8.67,3.74,13.04,5.52c2.43,0.98,4.19,2.18,4.01,5.2
	c-0.07,1.12,0.25,2.48,0.88,3.39c5.28,7.54,11.72,14.12,19.28,19.19c8.66,5.81,18.06,10.52,27.01,15.9c1.29,0.77,2.8,2.83,2.59,3.99
	c-0.23,1.26-2.22,2.56-3.72,3.1c-1.18,0.43-2.82-0.08-4.16-0.51c-4.17-1.33-8.3-2.82-13.39-4.57c0.63,2.51,0.85,4.14,1.44,5.61
	c2.23,5.56,4.72,11.02,6.84,16.62c3.86,10.19,7.54,20.45,11.29,30.69c2.6,7.1,4.96,14.3,7.81,21.3
	c5.82,14.32,11.77,28.6,17.94,42.77c2.32,5.33,5.38,10.35,8.18,15.46c1.95,3.56,4.13,7,6.01,10.6c2.39,4.59,4.43,9.36,6.9,13.9
	c2.86,5.26,5.82,10.49,9.13,15.46c4.35,6.53,8.75,13.09,13.78,19.09c3.82,4.56,8.63,8.31,13.07,12.34
	c6.02,5.45,11.88,11.12,18.24,16.16c7.68,6.09,15.76,11.71,23.76,17.38c4.94,3.51,9.98,6.97,16.58,3.85
	c4.76-2.25,9.55-4.46,14.46-6.35c7.49-2.89,14.95-6,22.68-8.07c8.44-2.26,17.17-3.48,25.78-5.1c2.35-0.44,4.74-0.75,7.12-0.99
	c8.19-0.83,15.37-3.58,20.61-10.32c0.86-1.11,2.01-2.56,3.21-2.76c7.01-1.21,7.17-8.84,11.8-12.19
	C715.92,639.01,719.21,637.78,722.46,636.43z M385.74,441.84c-0.34,1.92-0.44,3.2-0.81,4.4c-0.29,0.97-1.11,1.8-1.32,2.78
	c-1.14,5.21-4.04,10.02-3.16,15.75c0.2,1.32-2.16,2.86-2.61,4.49c-1.67,6.15-4.99,11.88-4.42,18.64c0.3,3.56-0.17,7.2-0.42,10.8
	c-0.7,9.91-1.82,19.8-2.12,29.72c-0.28,9.06,1.85,17.89,7.41,25.13c7.23,9.41,14.72,18.73,23.03,27.16
	c15.42,15.64,31.46,30.65,47.34,45.83c8.33,7.96,17.02,15.55,25.26,23.6c8.83,8.63,17.49,17.44,25.91,26.47
	c7.75,8.32,15.14,16.99,22.55,25.62c4.78,5.56,10.93,9.16,17.61,11.39c8.32,2.77,16.96,1.83,25.17-1.08
	c3.9-1.38,7.49-3.67,11.18-5.62c5.41-2.85,10.81-5.73,16.17-8.67c2.46-1.35,2.66-2.68,0.12-4.49c-6.99-5-13.93-10.08-20.69-15.38
	c-7.47-5.86-14.8-11.9-22.03-18.05c-4.48-3.8-9.09-7.58-12.89-12.02c-5.4-6.32-10.37-13.05-15.04-19.94
	c-4.21-6.2-7.95-12.74-11.55-19.32c-2.88-5.26-5.04-10.91-7.89-16.18c-3.7-6.84-8.26-13.25-11.56-20.26
	c-4.07-8.65-7.41-17.67-10.75-26.65c-4.14-11.12-7.72-22.45-11.96-33.52c-5.02-13.11-10.39-26.08-15.79-39.04
	c-3.26-7.84-6.82-15.57-10.33-23.3c-0.48-1.05-1.48-1.86-2.65-3.27c-1.61,3.82-2.91,6.91-4.22,10c-0.36,0-0.71,0.01-1.07,0.01
	c-0.42-2.12-1.54-4.38-1.14-6.33c1.54-7.36,1.66-7.1-5.46-9.21c-5.72-1.69-11.87-3.06-16.76-6.22c-8-5.16-15.1-11.69-22.65-17.55
	c-1.91-1.48-2.1-3.09-1.09-5.03c0.47-0.91,1.14-1.73,1.81-2.73c-4.13-2.46-5.21,1.57-6.81,3.24c-1.13,1.18-1.76,4.11-1.07,5.48
	c1.42,2.82,3.9,5.07,8.12,4.04c-0.61,1.32-1.45,2.11-2.33,2.86c-1.1,0.94-2.58,1.63-3.3,2.8c-1.85,3.01-0.95,6.08-0.06,8.11
	c2.02,0.94,3.24,1.5,4.46,2.07C387.02,439.81,386.11,441.25,385.74,441.84z M620.01,693.07c1.82,0.84,2.81,1.42,3.87,1.77
	c4.91,1.6,9.79,3.36,14.78,4.65c5.8,1.5,11.66,2.86,17.58,3.76c7.95,1.21,15.98,1.93,23.97,2.82c9.08,1.02,18.15,2.13,27.25,2.95
	c5.37,0.48,10.67,0.17,14.37-4.76c0.33-0.44,1-0.63,1.52-0.92c4.48-2.46,8.84-5.19,13.48-7.31c6.42-2.93,10.04-8.2,12.4-14.35
	c0.99-2.59,0.57-5.74,0.63-8.64c0.04-1.88-0.42-3.78-0.3-5.65c0.15-2.25,0.51-4.51,1.1-6.68c0.67-2.48,1.21-5.21,2.65-7.22
	c4.66-6.49,9.85-12.59,14.58-19.03c6.18-8.41,4.69-18.04,3.76-27.47c-0.29-2.93-1.35-5.8-2.27-8.63c-0.67-2.05-1.92-2.12-2.99-0.25
	c-1.65,2.91-3.15,5.9-4.76,8.84c-3.54,6.45-7.11,12.88-10.64,19.33c-1.48,2.7-2.55,5.71-4.42,8.08c-2.35,2.98-5.29,5.51-8.08,8.12
	c-1.56,1.46-3.31,2.73-5,4.04c-3.46,2.69-6.99,5.31-10.4,8.06c-2.23,1.8-4.16,4-6.47,5.67c-4.28,3.08-8.61,6.11-13.16,8.76
	c-4.18,2.44-8.46,5.16-13.06,6.32c-8.02,2.01-16.33,2.81-24.49,4.31c-8.74,1.6-17.51,3.09-26.12,5.25
	c-5.54,1.39-10.82,3.86-16.18,5.93C622.57,691.22,621.69,692,620.01,693.07z M493.24,228.76c6.01-2.84,70.06-91.6,70.48-97.28
	c-3.83,2.05-7.57,3.68-10.89,5.9c-12.58,8.42-21.08,20.52-28.93,33.08c-5.21,8.34-10.03,16.92-14.82,25.51
	c-4.72,8.46-9.25,17.03-13.7,25.64C494.39,223.53,494.09,225.82,493.24,228.76z M777.11,415.3c3.55,3.92,6.26,7.54,9.6,10.43
	c4.46,3.86,9.33,7.29,14.21,10.64c2.26,1.55,3.17,3.39,3.3,5.98c0.05,1.11,0.65,2.19,1.28,4.18c1.1-1.96,1.42-3.47,2.25-3.85
	c2.62-1.18,2.44-3.28,1.78-5.17c-2.39-6.89-5.01-13.7-7.59-20.52c-0.66-1.75-1.79-3.37-2.22-5.17c-1.03-4.29-2.05-4.92-6.27-3.32
	c-0.9,0.34-1.85,0.54-2.73,0.92C786.24,411.34,781.77,413.29,777.11,415.3z M802.39,451.38c-3.2-0.24-5.81-0.52-8.43-0.6
	c-2.46-0.08-4.74,0.1-5.75,3.12c-0.69,2.08-1.85,4.04-3.02,5.91c-1.71,2.75-4.39,3.72-7.11,2c-2.34-1.48-2.92-3.88-2.12-6.92
	c0.75-2.83,2.56-6.09-0.22-9.15c-1.59,1.11-2.87,2.17-4.3,2.96c-4.78,2.62-6.94,7.86-3.76,12.3c3.19,4.45,7.82,7.85,11.59,11.92
	c1.97,2.13,3.31,1.59,5.06-0.09c4.76-4.56,9.67-8.98,14.4-13.57C800.9,457.16,802.44,454.65,802.39,451.38z M437.01,435.55
	c-1.04-1.12-1.56-1.73-2.13-2.29c-5.83-5.82-11.66-11.64-17.51-17.43c-2.21-2.19-4.33-4.53-6.81-6.39c-1.02-0.76-2.86-0.5-4.33-0.47
	c-0.18,0-0.73,1.63-0.45,2.1c1.78,2.96,0.45,5.22-1.13,6.8c3.24,3.47,6.33,6.64,9.26,9.96c5.2,5.89,12.51,6.64,19.51,8.15
	C434.36,436.18,435.42,435.76,437.01,435.55z M776.19,435.86c0.26-2.76,0.42-4.89,0.66-7c0.58-4.94-0.87-6.82-5.53-7.09
	c-2.88-0.17-7.65,4.05-7.48,6.9c0.05,0.92,1.01,2.07,1.87,2.6c2.03,1.23,4.24,2.19,6.42,3.17
	C773.34,434.97,774.63,435.32,776.19,435.86z M746.05,373.37c0.77-0.33,1.91-0.78,3-1.35c0.1-0.05-0.08-1.15-0.28-1.2
	c-3.12-0.8-6.25-1.57-9.42-2.14c-0.35-0.06-1.32,1.17-1.28,1.75c0.04,0.6,0.86,1.48,1.5,1.66
	C741.51,372.63,743.52,372.89,746.05,373.37z M617.04,344.36c0.49-4.04-1.69-6.96-4.54-7.03c-0.52-0.01-1.37,0.24-1.51,0.6
	c-0.22,0.56-0.24,1.62,0.12,1.93C612.85,341.35,614.75,342.66,617.04,344.36z"/>
<path d="M808.94,575.07c3.2-1.73,5.39-3,7.7-4c0.19-0.08,1.17,1.69,1.79,2.6c-2.41,1.35,0.22,6.01-3.4,5.94
	C813.28,579.57,811.59,577.15,808.94,575.07z"/>
<path d="M803.19,586.07c3.38,0.3,6.8,0.6,10.27,0.91c-0.45,2.55-1.5,5.13-5.21,4.95C805.65,591.8,803.14,588.58,803.19,586.07z"/>
<path d="M555.36,388.9c-0.92-2.03-1.48-3.1-1.9-4.22c-0.46-1.22-0.63-2.57-1.21-3.72c-1.98-3.96-0.44-7.12,4.03-7.79
	c7.37-1.11,14.27,0.7,21.09,3.33c3.97,1.53,8.12,2.59,12.15,3.96c0.98,0.33,1.95,0.93,2.71,1.64c3.48,3.23,7.07,6.39,10.27,9.88
	c3.55,3.88,7.08,7.87,10.01,12.22c6.26,9.27,9.1,19.58,8.02,30.85c-0.35,3.69-6.09,7.28-9.72,6.6c-7.27-1.37-13.93-4.16-20.65-7.11
	c-2.82-1.24-6.56-0.69-9.85-0.49c-4.9,0.3-6.1-0.82-6.26-5.8c-0.13-4.17-0.82-8.32-1.19-12.49c-0.77-8.68,1.93-16.56,5.72-24.17
	c2.38-4.78,2.22-5.59-2.93-7.22c-4.33-1.37-8.82-2.33-13.29-3.16c-3.12-0.58-5.49,0.38-5.54,4.24
	C556.81,386.27,556.16,387.07,555.36,388.9z M613.27,428.06c0.15-0.03,0.3-0.07,0.45-0.1c-0.68-3-0.89-6.21-2.15-8.94
	c-2.23-4.82-5.06-9.38-7.79-13.96c-0.36-0.6-1.62-0.91-2.44-0.88c-0.32,0.01-0.55,1.37-0.88,2.09c-1.4,3.03-2.61,6.18-4.28,9.06
	c-2.86,4.95-8.17,5.65-13.06,7.11c-1.11,0.33-1.89,1.76-2.83,2.68c1.16,0.66,2.26,1.56,3.51,1.92c4.3,1.24,8.69,2.21,12.99,3.44
	c4.13,1.18,8.16,2.71,12.3,3.81c2.57,0.68,4.21-0.45,4.17-3.36C613.25,429.98,613.27,429.02,613.27,428.06z"/>
<path d="M661.12,644.92c-6.62,0.01-10.58-3.29-13.87-8.25c-2.68-4.04-6.13-7.58-8.68-11.69c-1.3-2.09-1.1-5.05-2.07-7.41
	c-0.64-1.55-1.9-3.46-3.33-3.96c-4.38-1.54-9.02-2.32-13.46-3.74c-1.49-0.48-2.65-1.97-3.96-3c1.29-1.24,2.52-3.42,3.9-3.52
	c3.16-0.21,6.4,0.53,9.59,1c1.54,0.23,3.02,0.9,4.56,1.04c1.91,0.18,3.4-0.33,3.99-2.66c1.19-4.7,7.07-8.94,11.94-8.45
	c4.49,0.45,9,1.16,13.37,2.27c5.72,1.46,8.66,6.57,12.36,10.56c2.19,2.36,4.27,5,5.65,7.87c0.91,1.89,1.01,4.53,0.56,6.64
	c-0.72,3.35-1.59,6.97-3.51,9.69c-2.75,3.91-6.28,7.38-9.93,10.51C666.37,643.44,663.53,643.92,661.12,644.92z M650.89,626.76
	c0.87,2.1,1.2,3.25,1.79,4.24c4.15,6.88,11.88,5.81,14.57,1.76c0.99-1.49,1.82-3.66-0.42-4.11
	C661.88,627.67,656.77,627.41,650.89,626.76z"/>
</svg>
