<?xml version="1.0" encoding="utf-8"?>
<!-- Generator: Adobe Illustrator 24.1.0, SVG Export Plug-In . SVG Version: 6.00 Build 0)  -->
<svg version="1.1" id="Layer_1" xmlns="http://www.w3.org/2000/svg" xmlns:xlink="http://www.w3.org/1999/xlink" x="0px" y="0px"
	 viewBox="0 0 1224 792" style="enable-background:new 0 0 1224 792;" xml:space="preserve">
<path d="M693.36,370.89c0.96-2.06,1.98-4.08,2.86-6.17c1.56-3.72,3.14-7.44,4.51-11.23c1.59-4.43,3-8.93,4.42-13.43
	c0.57-1.81,1.29-3.51,3.25-4.07c2.41-0.69,4.87-1.53,7.34-1.65c10.61-0.49,20.5,2.38,29.96,6.98c1.34,0.65,2.82,1.04,4.13,1.73
	c0.74,0.39,1.16,1.4,1.9,1.75c3.86,1.81,6.55,4.96,9.33,7.99c2.92,3.19,5.88,6.36,8.59,9.72c1.62,2.02,2.79,4.4,4.16,6.62
	c0.1,0.17,0.21,0.36,0.24,0.55c0.5,2.96,1.32,5.92,1.38,8.9c0.07,3.21,0.87,6.14,1.82,9.12c0.39,1.22,0.7,2.57,0.59,3.82
	c-0.26,2.9-0.62,5.82-1.25,8.66c-1.02,4.62-2.16,9.22-3.49,13.76c-1.16,3.95-2.57,7.85-4.04,11.7c-3.05,7.98-6.2,15.93-9.34,23.88
	c-0.37,0.93-0.83,1.84-1.39,2.66c-2.8,4.05-5.65,8.07-8.47,12.1c-2.55,3.63-5.18,7.21-7.59,10.93c-2.23,3.44-4.36,6.97-6.24,10.61
	c-0.85,1.64-1,3.64-1.43,5.48c-0.53,2.23-1.18,4.44-1.45,6.71c-0.13,1.08,0.49,2.25,0.76,3.32c-1.02,0.94-2.12,1.93-3.2,2.94
	c-2.14,2.02-3.67,2.07-5.65-0.12c-2.03-2.23-3.95-4.57-5.85-6.92c-2.66-3.28-5.26-6.62-7.91-9.91c-0.36-0.45-0.87-0.77-1.61-1.41
	c-0.7,1.03-1.41,1.84-1.87,2.79c-3.46,7-8.1,13.21-12.72,19.45c-0.7,0.95-1.68,1.89-2.74,2.33c-2.82,1.19-5.76,2.1-8.86,3.19
	c-0.08,0.15-0.43,0.49-0.43,0.85c-0.05,4.33-1.05,8.51-2.36,12.56c-1.39,4.3-3.37,8.41-5.01,12.64c-0.79,2.04-1.42,4.15-2.12,6.23
	c-0.13,0.38-0.24,0.77-0.41,1.13c-1.88,4.09-3.85,8.13-5.61,12.27c-0.93,2.18-1.56,4.51-2.23,6.79c-0.16,0.54-0.14,1.3,0.12,1.77
	c1.31,2.33,1.19,4.59-0.23,6.93c0.83,0.53,1.54,0.99,2.24,1.44c-0.66,1.95-1.79,0.85-2.87,0.53c-0.6,0.63-1.2,1.26-1.94,2.04
	c2.52,3.13,0.53,6.53,0.78,9.95c-0.8,0.6-1.75,1.31-2.8,2.1c0.37,0.92,0.69,1.73,1.05,2.62c0.59-0.04,1.21-0.08,1.85-0.13
	c0.01,2.24-0.27,2.77-1.93,2.4c-2.45-0.55-3.68,0.68-4.49,2.55c-0.98,2.28-1.82,4.56-1.75,7.21c0.07,2.53-0.7,5.08-0.94,6.58
	c-2.79,3.76-4.89,6.69-7.1,9.54c-5.37,6.94-11.11,13.54-17.8,19.28c-4.2,3.6-8.34,7.31-12.16,11.3
	c-5.77,6.03-11.47,12.16-16.72,18.64c-3.08,3.8-5.17,8.38-7.8,12.55c-1.65,2.63-3.3,5.3-5.24,7.72
	c-4.88,6.06-11.26,9.95-18.59,12.42c-4.48,1.51-8.14,4.42-11.68,7.42c-6.9,5.83-14.86,9.46-23.76,10.32
	c-4.73,0.46-9.61-0.61-14.42-1.04c-6.36-0.57-12.41-2.5-18.54-4.16c-6-1.63-12.22-2.39-18.33-3.61c-6.81-1.36-13.44-3.11-19.88-5.98
	c-8.53-3.8-15.79-9.32-22.97-15.01c-6.07-4.81-11.69-10.18-17.75-15.02c-5.33-4.25-11.02-8.04-16.47-12.15
	c-3.21-2.42-6.27-5.04-9.34-7.65c-1.6-1.36-3.04-2.89-4.58-4.32c-5.44-5.04-8.54-11.66-12.16-17.94c-1.1-1.91-2.36-3.73-3.54-5.6
	c-2.31-3.65-4.92-7.14-6.84-10.98c-2.92-5.83-4.99-12.03-7.14-18.2c-1.34-3.85-2.14-7.71-2.99-11.62c-0.11-0.49-0.25-0.99-0.24-1.49
	c0.01-4.7-1.73-9.05-2.78-13.53c-0.66-2.84-1.34-5.67-2.11-8.48c-1.57-5.71-3.03-11.46-4.88-17.07c-0.96-2.92-2.84-5.54-4.01-8.41
	c-3.25-8.02-6.07-16.18-8.18-24.6c-1.3-5.19-1.49-10.52-2.47-15.7c-1.81-9.54-1.09-19.13-1.32-28.66
	c-0.23-9.38-0.5-18.93,1.85-28.23c0.51-2.03,0.51-4.19,0.83-6.28c0.5-3.32-0.71-6.4-1.51-9.47c-1.24-4.75-3.04-9.35-4.52-14.04
	c-1.84-5.83-3.38-11.77-5.47-17.5c-1.08-2.95-1.7-5.82-2-8.94c-0.34-3.51-1.4-6.97-2.41-10.38c-0.81-2.74-1.99-5.37-3.12-8.34
	c-0.6-0.23-1.08,0.25-1.37,1.16c-0.89,2.71-1.65,5.48-2.77,8.1c-1,2.32-3.26,3.49-5.37,4.68c-0.69,0.39-1.49,0.6-2.2,0.95
	c-1.88,0.91-3.75,1.32-5.84,0.65c-7.09-2.28-14.22-4.43-21.3-6.74c-3.15-1.03-6.25-2.21-9.29-3.5c-1.55-0.66-3.03-1.6-4.37-2.64
	c-5.4-4.21-10.72-8.52-16.11-12.74c-0.92-0.73-2.02-1.23-3.42-2.07c-1.48-2.91-4.57-4.72-7.54-6.6c-3.13-1.98-5.21-4.77-6.48-8.12
	c-1.09-2.89-1.86-5.89-2.74-8.86c-0.97-3.26-1.93-6.53-2.83-9.81c-1.11-4.07-2.24-8.15-3.19-12.26c-0.41-1.78-1.41-3.43-0.89-5.49
	c0.22-0.88-0.84-2.09-1.43-3.11c-0.52-2.68,2.48-5.32,0.45-7.48c0-3.26,0-5.92,0-8.35c0.65-1.41,1.26-2.72,2.02-4.37
	c1.85-0.75,3.54-2.4,5.13-4.25c1.28-1.49,2.64-3,4.25-4.07c1.82-1.21,3.95-1.97,5.98-2.84c1-0.43,2.09-0.63,3.12-0.98
	c1.36-0.47,2.71-0.98,4.04-1.62c1.33-0.51,2.64-1.08,3.99-1.52c2.49-0.8,4.95-1.81,7.51-2.22c3.96-0.65,6.95-2.4,8.8-6.01
	c0.64-1.26,1.59-2.12,3.13-1.89c1.52,0.23,2.33,1.24,2.41,2.69c0.09,1.77,1.44,2.59,2.47,3.64c2.53,2.58,5.15,5.07,7.6,7.72
	c1.06,1.15,2.09,1.99,3.68,2.4c3.72,0.96,6.32,3.46,8.05,6.81c3.08,5.97,7.59,10.63,12.95,14.54c4.83,3.53,7.87,8.35,9.75,13.88
	c0.73,2.14,0.75,4.55,0.95,6.85c0.12,1.38-0.32,2.65-1.81,3.15c-1.38,0.46-2.65,0.06-3.59-0.98c-0.65-0.73-1.31-1.6-1.56-2.52
	c-1.53-5.63-4.83-10.42-7.44-15.51c-1.68-3.28-5.11-5.17-8.46-6.61c-4.17-1.79-7.27-4.58-9.55-8.46c-1.78-3.04-3.78-5.86-6.62-8.14
	c-2.41-1.94-4.32-4.49-6.51-6.71c-0.51-0.52-1.28-0.78-1.96-1.17c-0.87,1.56-1.29,3.25-2.37,4c-1.11,0.78-2.92,0.47-4.3,0.96
	c-1.19,0.42-2.21,1.3-3.28,1.96c0,3.89,2.16,6.09,4.99,7.92c1.24,0.8,2.49,1.66,3.51,2.72c3.74,3.86,6.61,8.23,8.61,13.3
	c1.53,3.89,3.82,7.48,5.73,11.12c1.28,0.19,2.23,0.32,3.04,0.44c1.37,1.72,0.18,3-0.56,4.45c1.92,3.53,3.84,7.03,5.93,10.87
	c0.01-0.14,0.08,0.23-0.06,0.45c-0.9,1.4-1.32,3.47-3.39,3.48c-1.99,0.01-2.75-1.78-3.61-3.27c-0.75-1.31-1.56-2.58-2.44-4.03
	c-0.7,0.14-1.41,0.28-2.22,0.44c-0.05-0.45-0.22-0.82-0.1-1c1.19-1.88,0.98-3.71,0.27-5.76c-1.18-3.41-1.71-7.08-3.13-10.37
	c-2.42-5.59-4.06-11.65-7.85-15.28c-3.35-1.74-6.02-2.64-8.04-4.32c-1.69-1.4-2.83-3.62-3.83-5.66c-1.04-2.13-1.63-4.48-2.43-6.75
	c-2.23-0.78-4.24,0.12-6.13,0.97c-5.05,2.24-10.14,4.5-14.32,8.22c-2.2,1.96-3.85,4.14-4.6,7.38c-1.88,8.21-1.16,16.13,0.96,24.09
	c1.04,3.89,1.85,7.84,2.92,11.72c0.8,2.91,1.83,5.75,2.79,8.61c0.63,1.89,1.2,3.81,2.02,5.62c0.43,0.96,1.23,1.84,2.07,2.51
	c5.11,4.09,10.29,8.09,15.42,12.14c3.78,2.98,7.76,5.77,11.23,9.08c3.04,2.91,6.83,4.2,10.39,5.97c2.11,1.05,4.68,1.14,6.96,1.91
	c4.39,1.48,8.7,3.23,13.11,4.67c1.88,0.62,3.91,0.98,5.89,1.05c2.45,0.09,4.35-1.51,5.18-3.84c0.17-0.47,0.23-1.03,0.53-1.39
	c2.96-3.49,3.67-8.03,5.56-12.02c0.84-1.78,1.14-3.84,1.55-5.8c0.11-0.51-0.13-1.24-0.46-1.69c-1.69-2.29-1.7-4.42,0.39-6.47
	c0.18-0.18,0.11-0.59,0.21-0.86c0.06-0.17,0.24-0.29,0.34-0.4c2.8,0.01,4.73,1.38,5.88,4.01c1.61-0.9,1.06-2.19,1.05-3.29
	c-0.05-5,0.21-10.04-0.28-15c-0.58-5.9,0.73-11.92-1.25-17.71c-0.94-2.74-1.76-5.53-2.46-8.35c-0.41-1.65-0.61-3.38-0.7-5.08
	c-0.31-5.82-1.25-11.65,0.27-17.44c0.13-0.48,0.16-1,0.18-1.5c0.24-6.04,0.44-12.09,0.71-18.13c0.08-1.91,0.39-3.81,0.47-5.72
	c0.18-4.66-0.84-9.15-2.1-13.61c-0.27-0.95-0.4-1.96-0.41-2.95c-0.02-1.81,0.01-3.64,0.18-5.44c0.16-1.68,0.55-3.35,0.83-5.02
	c0.53-3.17,1.08-6.34,1.57-9.52c1.23-8.06,2.21-16.17,3.7-24.19c1.37-7.39,3.03-14.74,4.98-22c2.21-8.25,4.7-16.43,8.8-24.03
	c3.09-5.73,5.92-11.6,8.82-17.44c1.07-2.16,1.91-4.43,3-6.57c3.77-7.44,7.51-14.89,11.43-22.24c2.55-4.78,5.63-9.28,8.04-14.12
	c2.08-4.19,5.54-6.31,9.46-8.36c3.27-1.71,6.17-4.17,9.16-6.38c7.18-5.3,13.42-11.56,18.8-18.68c1.09-1.44,2.01-3.01,2.99-4.53
	c4.52-6.98,9.99-13.14,16.36-18.47c5.18-4.34,11.19-7.04,17.77-8.63c4.94-1.2,9.89-1.68,14.97-1.76c5.93-0.1,11.84-1.07,17.77-1.15
	c5.82-0.08,11.65,0.42,17.46,0.79c2.7,0.17,5.4,0.99,8.08,0.93c6.46-0.13,12.57,1.59,18.77,2.91c7.88,1.68,15.77,3.28,23.6,5.18
	c4,0.97,7.86,2.5,11.79,3.78c0.38,0.13,0.75,0.33,1.14,0.41c6.1,1.29,11.38,4.57,16.89,7.21c4.99,2.39,9.36,5.87,13.6,9.46
	c2.45,2.08,4.95,4.1,7.34,6.25c3.06,2.75,6.04,5.6,9.03,8.42c0.95,0.9,1.8,1.91,2.77,2.79c4.34,3.94,8.39,8.11,11.2,13.35
	c0.52,0.96,1.45,1.68,2.05,2.61c2.34,3.62,4.75,7.21,6.89,10.95c2.24,3.93,4.25,7.99,6.26,12.04c2.05,4.14,3.91,8.37,5.99,12.49
	c2.31,4.57,4.71,9.1,7.23,13.56c2.86,5.08,5.76,10.16,8.9,15.07c3.26,5.09,6.73,10.06,10.3,14.94c3.14,4.29,6.48,8.43,9.88,12.52
	c2.17,2.61,4.57,5.03,6.96,7.45c0.84,0.84,1.86,1.62,2.95,2.08c4.42,1.86,7.79,5.08,10.73,8.65c1.59,1.94,2.69,4.52,2.5,7.25
	c-0.25,3.51-0.76,7.01-0.91,10.52c-0.21,4.75-1.42,9.33-2.01,14c-0.29,2.26,0.17,4.61,0.26,6.92c0.03,0.8,0.05,1.6-0.04,2.39
	c-0.27,2.49-0.64,4.97-0.89,7.46c-0.24,2.4-0.52,4.81-0.56,7.22c-0.04,3.01,0.11,6.02,0.25,9.02c0.25,5.34,0.35,10.64-0.31,16
	c-0.42,3.38,0.28,6.9,0.43,10.36c0.11,2.51,0.14,5.01,0.21,7.52c0.01,0.5-0.05,1.04,0.09,1.5c1.52,5,1.11,10.2,1.44,15.31
	c0.24,3.69-0.37,7.42-0.29,11.12c0.06,2.89,0.68,5.76,0.91,8.65c0.17,2.1,0.54,4.32,0.07,6.3c-1.74,7.31-2.13,14.74-2.54,22.18
	c-0.18,3.3-0.6,6.58-0.79,9.88c-0.06,1.01,0.27,2.05,0.42,3.08C692.72,370.84,693.04,370.86,693.36,370.89z M464.71,380.22
	c-0.01,0.25-0.01,0.5-0.02,0.74c2.07,0.71,4.18,1.34,6.22,2.16c5.14,2.07,10.59,3.66,15.29,6.49c6.54,3.94,13.46,7.35,19.31,12.4
	c4.2,3.62,7.48,7.82,9.41,13.08c1.08,2.92,2.19,5.91,3.79,8.56c4.59,7.58,5.53,16.15,6.93,24.57c0.79,4.76,0.96,9.61,1.47,14.42
	c0.72,6.79,1.61,13.57,2.21,20.37c0.53,5.91,1.73,11.78,1.35,17.76c-0.01,0.2,0.01,0.41,0.05,0.6c1.27,6.38,1.43,12.95,3.19,19.26
	c0.8,2.88,0.96,5.96,1.9,8.78c1.62,4.82,3.63,9.51,5.47,14.26c0.91,2.34,1.81,4.69,2.66,7.05c0.7,1.94,1.31,3.9,2.06,6.17
	c1.28-0.52,2.34-0.81,3.25-1.35c2.48-1.46,4.94-2.96,7.35-4.54c3.6-2.36,7.4-4.51,10.68-7.27c6.51-5.49,12.73-11.34,19.06-17.05
	c0.37-0.33,0.71-0.75,0.91-1.19c0.77-1.7,1.48-3.42,2.27-5.27c-0.22-0.51-0.52-1.22-0.85-2c0.82-0.46,1.5-0.84,2.08-1.17
	c0.29-1.12,0.24-2.35,0.84-3c1.97-2.16,2.05-4.73,2.03-7.32c2.14-1.59,2.43-3.85,2.79-6.44c-5.73-1.35-11.34,1.14-17.06-0.18
	c-0.4-0.94-0.83-1.93-1.31-3.06c1.09-2.13,2.46-4.15,3.18-6.38c1.49-4.61,4.65-8.18,7.11-12.17c1.67-2.72,4.01-5.02,4.22-8.47
	c0.03-0.52,0.57-1.01,0.88-1.52c0.79,0,1.47,0,2.06,0c1.08-1.46,2.18-2.78,3.09-4.22c0.87-1.37,2.72-2.32,2.07-4.58
	c-2.15-1.37-2.75-3.41-2-5.7c1.56-1.36,2.96-2.59,4.43-3.88c3.19,0.25,5.76-1.45,8.22-3.21c2.36-1.7,5.69-2.6,5.68-6.21
	c1.13-0.73,2.05-1.33,2.91-1.89c0.75-3.18,2.06-5.94,3.94-8.1c3.37,0.11,5.65,1.8,7.49,3.89c2.68,0.18,3.67-3.2,6.24-2.33
	c1.09-1.15,2.04-2.16,2.94-3.11c4.21,1,5.04,0.92,8.73-0.85c4.41,1.44,8.11,5.3,13.21,5.38c0.43-0.57,0.77-1.02,1.23-1.64
	c2.55,0.94,5.03,1.85,8.29,3.05c1.57,1.23,1.65,5.57,5.92,4.74c0.24,0.71,0.42,1.26,0.74,2.24c2.66,0.92,5.58,1.91,8.48,2.97
	c0.74,0.27,1.47,0.69,2.09,1.19c2.44,1.97,5.33,3.27,7.47,5.75c1.11,1.29,2.22,2.31,2.83,4.02c1.25,3.52,2.73,7.16,5.66,9.51
	c2.14,1.71,3.36,3.79,4.65,5.98c0.71,1.21,1.49,2.39,2.37,3.48c0.79,0.98,1.95,1.7,2.61,2.74c1.47,2.38,2.63,4.95,4.11,7.32
	c1.47,2.37,3.5,4.22,5.95,5.74c1.83-3.05,3.54-5.75,5.08-8.54c0.95-1.72,1.64-3.59,2.6-5.72c1.83-0.33,1.69-2.22,1.76-3.18
	c1.26-2.01,2.14-3.43,3.26-5.21c4.14-1.46,4.79-5.76,5.9-9.62c1.07-0.12,1.84-0.2,3.01-0.33c1.59-2.86,3.29-5.81,4.88-8.81
	c1.17-2.2,2.19-4.49,3.28-6.73c0.47-0.97,1.02-1.91,1.43-2.9c1.34-3.23,2.63-6.48,3.94-9.73c0.71-1.77,1.42-3.53,2.09-5.31
	c1.12-3,2.14-6.03,3.3-9.01c1.75-4.5,3.23-9.02,4.08-13.84c0.93-5.26,1.45-10.35-0.08-15.53c-0.14-0.46-0.02-1-0.02-1.52
	c-0.44,0.09-0.77,0.17-1.13,0.24c-1.45-1.97,0.5-3.89,0.04-6.09c-0.34-0.55-0.81-1.31-1.19-1.93c0-1.28,0.11-2.39-0.02-3.46
	c-0.43-3.71-2.75-6.58-4.66-9.55c-2.27-3.54-4.99-6.7-8.11-9.64c-3.38-3.19-7.2-5.45-11.15-7.67c-4.99-2.81-10.53-4.04-15.97-5.49
	c-4.12-1.09-8.38-1.22-12.61-0.78c-2.32,0.24-4.4,1.35-5.3,3.51c-2.34,5.64-4.38,11.4-6.6,17.09c-1.53,3.93-3.17,7.81-4.73,11.72
	c-2.6,6.53-5.45,12.97-7.68,19.63c-1.71,5.12-2.58,10.52-3.92,15.78c-0.34,1.33-0.87,2.68-1.62,3.83c-0.7,1.08-1.76,2.1-3.3,1.49
	c-1.41-0.56-2.55-1.69-2.44-3.18c0.24-3.47,0.41-7.02,1.32-10.35c1.16-4.23,3.09-8.24,4.56-12.39c0.49-1.39,0.8-2.92,0.81-4.39
	c0.08-6.94-0.15-13.89,0.07-20.83c0.19-6.13,0.82-12.25,1.27-18.37c0.02-0.3,0.09-0.61,0.2-0.88c1.04-2.5,0.91-5.13,0.89-7.76
	c-0.02-4.64,0.02-9.29,0-13.93c-0.02-5.33,0.05-10.67-0.14-16c-0.17-4.7-0.82-9.39-0.95-14.09c-0.18-6.66-0.03-13.33-0.12-20
	c-0.03-2.72-0.32-5.43-0.46-8.14c-0.23-4.29-0.45-8.59-0.66-12.88c-0.02-0.5-0.08-1.04,0.06-1.51c1.96-6.54,0.39-13.46,2.28-20.05
	c0.73-2.53,0.49-5.34,0.69-8.02c0.17-2.31,0.32-4.62,0.53-6.92c0.22-2.3,0.33-4.64,0.83-6.89c0.41-1.82,0.31-3.38-0.73-4.89
	c-1.08-1.57-2.02-3.26-3.28-4.67c-4.16-4.65-8.27-9.36-12.71-13.73c-5.49-5.41-9.71-11.82-14.52-17.75
	c-3.49-4.3-6.77-8.73-9.39-13.67c-2.16-4.08-4.76-7.94-7.06-11.95c-2.2-3.84-4.38-7.7-6.36-11.66c-2.52-5.03-4.74-10.22-7.25-15.26
	c-2.41-4.85-4.98-9.63-7.59-14.37c-1.84-3.35-3.74-6.68-5.83-9.87c-5.28-8.04-11.77-15.06-18.56-21.83c-1-1-1.99-2.02-3.09-2.89
	c-8.06-6.34-15.56-13.45-24.43-18.71c-3.2-1.9-6.52-3.7-9.98-5.01c-5.64-2.14-11.41-3.95-17.2-5.68
	c-5.29-1.58-10.64-2.97-16.01-4.23c-4.12-0.96-8.33-1.52-12.47-2.35c-6.73-1.35-13.47-2.49-20.35-2.59c-1.5-0.02-3-0.34-4.5-0.42
	c-3.81-0.22-7.64-0.6-11.45-0.53c-4.31,0.08-8.62,0.58-12.93,0.92c-2.41,0.19-4.82,0.67-7.22,0.6c-6.02-0.18-11.83,0.8-17.59,2.48
	c-4.7,1.37-9,3.42-12.85,6.44c-5.06,3.96-9.02,8.91-12.59,14.17c-3.33,4.91-6.82,9.63-10.79,14.08
	c-6.98,7.84-15.24,13.99-23.75,19.96c-3.44,2.42-6.7,5.25-9.5,8.38c-2.1,2.35-3.41,5.42-4.92,8.26c-2.77,5.23-5.4,10.54-8.12,15.8
	c-1.94,3.75-3.96,7.46-5.86,11.23c-2.95,5.85-5.51,11.91-8.82,17.54c-2.93,4.98-4.96,10.28-7.09,15.58
	c-0.33,0.83-0.81,1.62-1.05,2.48c-0.97,3.48-1.89,6.96-2.79,10.46c-1.12,4.36-2.3,8.72-3.29,13.11c-0.86,3.83-1.58,7.7-2.22,11.57
	c-0.97,5.94-1.87,11.89-2.68,17.85c-0.56,4.08-0.93,8.18-1.4,12.27c-0.05,0.39-0.29,0.76-0.37,1.15c-0.23,1.18-0.49,2.35-0.6,3.54
	c-0.39,4.04,1.6,7.66,2.08,11.55c0.26,2.09,0.61,4.18,0.66,6.28c0.05,1.9-0.25,3.81-0.36,5.72c-0.2,3.52-0.35,7.04-0.57,10.55
	c-0.16,2.49-0.55,4.97-0.59,7.46c-0.11,6.04,0.12,12.1-0.19,18.13c-0.25,5.02,1.71,9.45,2.93,14.09c0.53,2.02,0.99,4.07,1.35,6.12
	c0.19,1.08,0.14,2.21,0.16,3.32c0.08,7.55,0.49,15.11,0.1,22.64c-0.22,4.29,0.45,8.43,0.63,12.64c0.08,1.88,0.59,3.76,1.09,5.58
	c0.28,1.01,0.95,1.91,1.45,2.86c2.87,0,5.48,0.01,8.1-0.01c0.39,0,0.8-0.13,1.16-0.3c2.18-1.03,4.42-1.98,6.51-3.17
	c2.29-1.31,4.53-1.15,6.59,0.15c5.64,3.55,11.52,6.62,17.61,9.31c2.03,0.9,4.08,1.73,6.13,2.59c3.79,1.6,7.79,2.85,11.33,4.87
	c7.69,4.39,15.96,6.65,24.64,7.71c2.07,0.25,4.19,0.04,6.23,0.04c2.86-5.69,7.73-7.02,13.08-5.98c6.97,1.36,14.01,1.47,21.02,1.69
	c9.26,0.29,18.5-0.69,27.68-2.13c1.6-0.25,3.53-0.12,4.96,0.56c5.24,2.5,9.46,6.46,13.62,10.42c1.58,1.5,3.26,2.61,5.26,3.43
	c2.88,1.17,5.86,2.27,8.46,3.93c5.18,3.3,10.17,6.9,15.16,10.48c2.49,1.79,4.61,3.94,4.26,7.42c-2.26,0.76-3.37,0.43-4.6-1.29
	c-0.64-0.9-1.26-1.81-1.98-2.64c-2.21-2.57-5.28-4.08-7.62-6.67c-3.2-3.55-7.42-6.19-12.42-7.03c-0.78-0.13-1.49-0.59-2.24-0.88
	c-5.17-2.04-8.88-6.22-13.37-9.26c-1.76-1.2-3.38-2.01-5.52-1.94c-2.42,0.07-4.84-0.07-7.26-0.17
	C472.54,380.62,468.63,380.41,464.71,380.22z M325.05,368.55c0.61,3.63,0.03,7.08,2.85,9.61c1.73,1.54,1.68,3.44,0.63,5.22
	c-0.91,1.54-1.08,2.96-0.47,4.59c0.77,2.04,1.4,4.14,2.23,6.15c0.71,1.71,1.58,3.18,1.26,5.32c-0.28,1.85,0.45,3.95,1.08,5.82
	c0.61,1.84,2.17,3.48,2.4,5.32c0.49,3.94,2.72,7.29,3.16,11.27c0.36,3.33,1.9,6.52,2.53,9.85c0.89,4.72-0.34,9.41-0.83,14.09
	c-0.5,4.8-1.58,9.55-1.9,14.36c-0.34,5.13-0.17,10.3-0.07,15.45c0.09,5.24,0.22,10.49,0.59,15.71c0.29,4.21,0.98,8.38,1.46,12.58
	c0.23,2,0.14,4.07,0.62,6c1.05,4.29,2.15,8.59,3.63,12.74c1.98,5.58,4.29,11.04,6.52,16.54c1.4,3.44,3.2,6.76,4.27,10.29
	c1.84,6.06,3.29,12.24,4.83,18.39c1.21,4.85,2.59,9.69,3.39,14.62c1.05,6.47,2.33,12.83,4.73,18.95c1.1,2.8,1.82,5.75,2.95,8.54
	c1.01,2.51,2.01,5.13,3.58,7.29c5.76,7.93,10.43,16.53,15.49,24.89c2.1,3.47,4.25,6.91,7.45,9.43c6.32,4.99,12.66,9.97,19.23,14.63
	c5.36,3.8,10.48,7.86,15.28,12.32c7.4,6.87,15.27,13.16,23.67,18.72c8.13,5.38,16.99,9.09,26.93,9.92
	c4.28,0.36,8.53,1.45,12.74,2.43c5.98,1.39,11.87,3.23,17.89,4.42c6.29,1.25,12.63,2.19,19.16,1.66c7.66-0.62,14.14-3.62,20.06-8.27
	c4.83-3.79,9.62-7.74,15.43-9.91c8.13-3.04,13.9-8.78,18.72-15.64c2.25-3.2,4.11-6.68,6.2-10.01c1.18-1.87,2.32-3.79,3.7-5.51
	c2.46-3.05,4.98-6.08,7.69-8.92c5.01-5.24,10.09-10.43,15.32-15.46c5.28-5.09,11.21-9.54,15.24-15.83c0.16-0.25,0.37-0.48,0.58-0.69
	c4.7-4.46,8.32-9.73,11.55-15.28c-0.87-3.2-0.22-6.02,1.39-8.76c1.21-2.05,2.13-4.26,3.15-6.42c0.21-0.45,0.26-0.96,0.43-1.44
	c0.74-2.14,0.94-4.42,1.52-6.56c2.34-8.52,4.94-16.98,7.58-25.42c1.23-3.93,2.71-7.78,4.17-11.63c2.06-5.43,4.09-10.89,6.36-16.23
	c1.32-3.09,1.97-6.23,2.45-9.54c0.64-4.43,2.09-8.73,3.09-13.11c0.26-1.13,0.16-2.34,0.24-3.9c-19.31-5.39-38.74-8.35-58.69-8.89
	c-1.09,1.65-2.15,3.24-3.2,4.83c-1.1,1.67-2.28,3.3-3.27,5.04c-1.16,2.05-2.71,3.44-5.01,3.76c-3.61-2.48-3.79-3.33-2.01-7
	c0.54-1.12,0.67-2.44,0.98-3.66c1.08,0.82,1.74,0.64,2.01-0.94c-1.47-0.5-2.77-1.43-4.22-0.25c-1.8,3.22-1.54,7.13-3.74,10.14
	c-0.16,0.22-0.16,0.58-0.22,0.87c-0.97,5.05-2.26,9.97-4.79,14.55c-2.74,4.97-6.56,9.06-10.92,12.37c-3.48,2.63-6.46,5.74-9.85,8.41
	c-5.05,3.98-10.07,8.01-15.1,12.02c-1.01,0.81-2.06,1.58-3.05,2.4c-2.94,2.43-6.24,4.15-10.04,4.52c-3.55,0.35-4.58-0.81-5.3-4.27
	c-0.79-3.82-1.71-7.65-2.96-11.34c-1.28-3.79-2.94-7.46-4.57-11.12c-1.84-4.14-2.83-8.52-4.02-12.85c-0.66-2.42-1.51-4.79-2.3-7.17
	c-0.08-0.25-0.34-0.45-0.54-0.7c-0.72,0.19-1.39,0.38-1.99,0.54c-3.02-1.86-3.15-2.18-2.63-5.38c0.16-0.99,0.22-2,0.27-3.01
	c0.2-4.11,0.39-8.21,0.58-12.32c0.11-2.22,0.39-4.44,0.29-6.64c-0.08-1.87-0.83-3.72-0.86-5.58c-0.04-2.57-0.48-4.98-1.48-7.34
	c-0.59-1.38-1.21-2.81-1.43-4.28c-0.19-1.22-0.3-3.01,0.39-3.69c2-1.95,1.94-3.98,1.36-6.37c-0.28-1.15-0.06-2.42-0.16-3.62
	c-0.23-2.7-0.43-5.41-0.82-8.09c-0.39-2.67-1.43-5.31-1.46-7.97c-0.08-6.58-3.36-12.08-5.58-17.93c-1.27-3.36-2.85-6.59-4.24-9.91
	c-1.56-3.72-3.04-7.58-6.5-9.95c-5.89-4.04-11.84-8.02-17.97-11.68c-3.27-1.95-6.9-3.37-10.51-4.63c-4.17-1.45-8.46-2.66-12.77-3.62
	c-5.79-1.29-11.64-2.33-17.5-3.3c-2.45-0.41-4.99-0.62-7.46-0.44c-3.1,0.22-6.17,0.9-9.24,1.44c-1.26,0.22-2.51,0.88-3.75,0.86
	c-4.15-0.08-8.3-1.13-12.46-0.03c-0.09,0.02-0.2-0.05-0.3-0.05c-6.8-0.36-13.29-2.33-19.83-4c-1.45-0.37-2.85-0.99-4.22-1.6
	c-3.12-1.37-6.12-3.1-9.34-4.16c-5.96-1.96-11.65-4.42-17.08-7.55c-2.61-1.51-5.33-2.87-8.09-4.09c-3.52-1.56-6.75-0.74-9.15,2.17
	c-1.04,1.25-2.3,1.93-3.89,2.04c-1.2,0.08-2.4,0.15-3.48,0.22c-1.52,1.31-2.14,3.86-4.47,3.35
	C328.86,370.81,327.25,369.64,325.05,368.55z M682.95,490.46c-1.39,1.21-2.43,2.08-3.43,3c-1.26,1.16-2.43,2.42-3.74,3.5
	c-1.54,1.27-3.45,1.97-5.36,1.52c-2.37-0.56-4.62-1.59-7.04-2.46c0.11-0.99,0.21-1.95,0.32-2.93c-2.11-0.42-4.06-0.81-6.15-1.23
	c0.02-1.52-0.73-2.57-2.2-3.15c-0.43-0.17-0.84-0.57-1.11-0.97c-1.99-2.92-2.83-6.22-2.73-9.7c0.05-1.78,0.24-3.64,0.83-5.31
	c0.75-2.12,1.96-4.08,2.97-6.1c-0.57-1.03-1.08-1.95-1.79-3.25c3.27-0.93,5.92,0.92,9.03,0.87c0.23-0.28,0.63-0.73,0.97-1.22
	c0.16-0.23,0.19-0.55,0.49-1.46c-4.49-2.56-5.48-8.5-10.35-11.19c-0.91,0-1.86,0-3.07,0c0.26-1.19,0.46-2.08,0.69-3.11
	c-2.56-0.27-4.46,0.95-6.01,2.48c-3.15,3.1-6.26,6.27-9.07,9.68c-2.02,2.46-3.9,5.19-5.17,8.09c-3.06,7-5.78,14.15-8.52,21.28
	c-0.67,1.74-0.92,3.64-1.43,5.76c19.24,2.27,38.08,4.5,56.42,6.67c1.42-1.76,2.74-3.06,3.65-4.6
	C682.13,494.97,683.19,493.21,682.95,490.46z M691.38,463.02c-0.13,0-0.25,0-0.38,0.01c-0.18-1.36-0.14-2.79-0.58-4.06
	c-0.5-1.44-1.16-3.01-2.22-4.03c-3.02-2.9-7.09-4.07-10.81-5.78c-0.79-0.36-1.96,0.17-2.94,0.1c-0.85-0.06-2.23-0.17-2.42-0.63
	c-1.02-2.59-3.57-2.74-5.54-3.71c-1.56-0.77-3.38-1.17-4.89,0.36c0.48,1.16,0.79,2.23,1.33,3.16c1.88,3.27,3.61,6.67,6.52,9.19
	c1.82,1.58,3.8,2.97,5.68,4.48c2.92,2.35,5.54,4.96,6.82,8.61c0.9,2.56,1.74,5.14,2.57,7.73c0.43,1.34,0.76,2.7,1.13,4.06
	c0.23,0,0.45,0,0.68,0c0.18-0.81,0.53-1.62,0.5-2.41c-0.12-3.75,0.16-7.26,2.41-10.58C690.48,467.7,690.7,465.21,691.38,463.02z
	 M624.45,448.25c-2.19,0.36-2.55,1.52-2.92,2.67c-2.33,7.23-5.96,14.01-7.56,21.5c-0.4,1.86-0.62,3.76-0.95,5.64
	c-0.17,0.97-0.26,1.99-0.62,2.89c-1.2,2.99-2.58,5.9-3.73,8.9c-0.39,1.04-0.3,2.26-0.42,3.34c4.28,1.03,4.93,0.65,6.34-2.82
	c2-4.94,4.07-9.84,6.19-14.73c1.42-3.27,2.43-6.58,2.53-10.2c0.08-3.11,0.53-6.22,0.75-9.33
	C624.22,453.64,624.3,451.16,624.45,448.25z M692.83,500.36c-0.1-1.86,0.64-3.17,2-4.26c0.68-0.54,1.24-1.35,1.59-2.15
	c0.88-2.01,1.26-4.33,2.48-6.08c2.06-2.94,3.24-6.04,3.31-9.71c-0.94-2.5-1.92-5.17-5.49-5.45c-1.2,3.46-2.41,6.95-3.62,10.45
	c-0.62,1.79-1.18,3.61-1.9,5.36c-1.27,3.05-2.75,6.01-3.93,9.09c-0.7,1.83-0.98,3.81-1.43,5.6
	C689.66,505.65,690.38,501.43,692.83,500.36z M589.25,494.09c3.64,0.58,7.05,0.01,10.63-0.92c-0.96-3.06,0.89-4.55,3.34-5.81
	c0.18-1.96,0.36-3.91,0.55-5.99c0.56-0.69,1.33-1.49,1.94-2.39c0.84-1.23,0.66-2.48-0.25-3.63c-1.02-1.3-2.06-2.59-3.16-3.97
	c-0.33,0.19-0.78,0.3-0.99,0.59c-1.73,2.33-3.5,4.64-5.1,7.07c-2.25,3.43-4.25,7.03-6.59,10.4
	C588.56,490.95,588.26,492.25,589.25,494.09z M672.8,490.56c4.47-4.51,5.62-9.75,3.19-14.68c-0.89-1.8-1.66-3.69-2.8-5.32
	c-0.92-1.32-1.71-2.99-3.78-3.47c-0.18,1.27-0.35,2.42-0.52,3.6c1.17,1.02,2.29,2.01,3.29,2.88c0.32,3.58,0.24,3.77-2.1,6.01
	c-0.36,0.34-0.76,0.7-0.97,1.13C667.51,484.06,669.15,488.56,672.8,490.56z M636.07,452.1c1.76-2.76,3.24-5.08,4.86-7.61
	c-3.76-2.11-7.18-0.64-10.82-0.09c-0.08,3.53-0.3,6.86,0.16,10.48C632.65,453.74,634.61,452.8,636.07,452.1z"/>
<path d="M396.18,444.81c-2.83,0.78-4.95,1.86-6.91,3.62c-2.38,2.13-5.25,3.71-7.85,5.6c-4.07,2.96-8.35,5.76-9.96,10.98
	c-0.14,0.46-0.52,0.86-0.82,1.26c-1.53,2.02-2.8,2.44-4.63,1.55c-1.61-0.79-2.18-2.48-1.37-4.71c1.57-4.37,4.2-8.15,7.69-11.06
	c3.93-3.27,8.35-5.95,12.57-8.88c2.15-1.49,4.4-2.86,6.48-4.45c2.86-2.18,5.85-1.76,8.85-0.59c0.71,0.28,1.25,1.21,1.69,1.95
	c0.5,0.84,0.66,1.9,1.2,2.7c2.41,3.54,4.42,7.26,8.01,10.03c2.35,1.81,3.67,4.99,5.39,7.6c1.49,2.27,2.86,4.63,4.37,6.89
	c0.66,0.99,1.55,1.83,2.06,2.42c1.23,1.86,2.08,3.58,3.32,4.94c2.64,2.89,5.46,5.6,8.24,8.35c1.55,1.53,1.92,4.05,0.54,6.08
	c-3.25,4.76-6.82,9.23-11.83,12.34c-3.15,1.96-6.22,4.06-9.35,6.05c-0.93,0.59-1.97,1.02-2.95,1.54c-7.49,4-14.25,1.82-20.55-2.67
	c-3.64-2.6-6.33-6.2-8.46-10.13c-1.43-2.65-1.05-5.58-0.18-8.25c1.45-4.48,3.05-8.92,6.16-12.66c0.83-0.99,1.16-2.52,1.39-3.86
	c0.59-3.37,1.69-4.64,5.3-5.47c0.41,0.81,0.85,1.67,1.41,2.77c2.62,0.74,5.45,1.46,8.22,2.33c4.38,1.36,5.98,5.13,3.62,8.99
	c-1.35,2.21-3.25,4.08-4.79,6.19c-0.67,0.92-1.31,2-1.53,3.1c-0.4,1.96-0.43,4-0.69,6c-0.36,2.87-2.12,4.45-4.89,4.12
	c-0.96-0.12-2.22-0.72-2.68-1.5c-1.27-2.15-2.23-4.49-3.21-6.81c-0.19-0.46,0.11-1.13,0.19-1.81c1.04-0.3,1.98-0.57,2.91-0.84
	c1.67-2.82,1.32-5.32-1.15-7.47c-3.18,3.53-4.48,7.73-4.31,12.36c0.04,1.19,0.81,2.5,1.59,3.48c2.83,3.6,6.51,6.04,11.04,6.88
	c1.51,0.28,3.23,0.02,4.75-0.38c3.22-0.85,6.35-1.95,8.02-5.3c0.37-0.74,1.3-1.21,2.08-1.91c0-0.69,0-1.48,0-2.6
	c1.03-1.02,2.19-2.17,3.66-3.62c0.85,2.32,0.6,3.94-0.67,5.48c1.57,0.08,1.59,0.09,5.14-3.87c1.51-1.69,2.93-3.47,4.18-4.95
	c-0.19-0.73-0.18-0.97-0.29-1.12c-4.29-5.29-8.38-10.71-12.13-16.4c-2.77-4.19-5.86-8.17-9.56-11.63c-0.86-0.81-1.5-1.88-2.17-2.87
	c-1.62-2.42-3.15-4.91-4.81-7.3C397.9,446.41,397.04,445.71,396.18,444.81z"/>
<path d="M542.06,650.32c-1.76-0.27-3.47-0.36-5.07-0.82c-4.7-1.35-8.85-0.69-12.01,3.25c-2.36,2.95-5.26,3.24-8.68,2.66
	c-4.48-0.76-7.81-3.25-10.37-6.74c-0.84-1.14-0.77-2.96-1.24-5.04c-1.7-0.27-3.89-0.62-6.26-1c0,1.67,0,2.84,0,4.5
	c-0.85-0.79-1.57-1.27-2.06-1.92c-1.39-1.85-2.8-3.69-3.97-5.67c-0.56-0.94-0.6-2.18-0.8-2.98c1.22-1.48,2.31-1.73,3.6-1.37
	c1.84,0.51,3.69,1.02,5.55,1.48c8.24,2.04,16.64,2.65,25.08,3.19c4.48,0.28,8.89,1.58,13.33,2.45c2.85,0.55,4.37,2.3,4.56,5.45
	C543.36,648.32,542.87,649.07,542.06,650.32z"/>
</svg>
