<?xml version="1.0" encoding="utf-8"?>
<!-- Generator: Adobe Illustrator 24.1.0, SVG Export Plug-In . SVG Version: 6.00 Build 0)  -->
<svg version="1.1" id="Layer_1" xmlns="http://www.w3.org/2000/svg" xmlns:xlink="http://www.w3.org/1999/xlink" x="0px" y="0px"
	 viewBox="0 0 1224 792" style="enable-background:new 0 0 1224 792;" xml:space="preserve">
<path d="M421.43,339.66c-1.4,0-2.63,0.03-3.85-0.01c-1.34-0.04-2.37-0.62-2.91-1.92c-0.52-1.27,0.08-2.16,0.91-3.06
	c4.71-5.08,9.44-10.15,14.07-15.3c2.47-2.74,4.77-5.63,7.13-8.46c1.66-1.98,3.61-2.82,6.29-2.24c2.65,0.57,3.46-0.16,3.82-2.75
	c1.27-8.93,4.3-17.15,8.92-24.94c3.19-5.37,5.53-11.25,8.23-16.91c1.3-2.74,2.8-5.42,3.74-8.28c1.59-4.85,2.85-9.81,4.18-14.75
	c0.66-2.46-0.44-4.65-1.28-6.86c-1.78-4.68-3.59-9.35-5.33-14.04c-1.35-3.64-2.69-7.29-3.87-10.99c-1.14-3.61-2.09-7.28-3.09-10.93
	c-1.01-3.74-2.09-7.47-2.93-11.25c-1.07-4.8-1.94-9.65-2.86-14.49c-0.69-3.62-1.52-7.23-1.93-10.89c-0.32-2.81-0.32-5.7-0.01-8.51
	c0.14-1.26,1.25-2.55,2.2-3.55c6.26-6.6,13.59-11.83,21.36-16.46c4.4-2.62,8.85-5.18,13.24-7.82c3.08-1.85,6.06-3.88,9.16-5.69
	c3.44-2.01,6.99-3.8,10.44-5.79c5.68-3.27,11.33-6.59,16.95-9.96c7.74-4.64,15.34-9.52,23.17-13.99c7.18-4.09,14.82-7.4,21.82-11.75
	c5.85-3.64,12.41-5.76,18.16-9.49c1.19-0.78,2.37-1.58,3.58-2.33c4.04-2.49,8.61-2.93,13.16-3.24c5.71-0.38,11.41-0.13,16.98,1.39
	c0.63,0.17,1.32,0.22,1.98,0.2c4.05-0.11,7.89,1.06,11.76,1.96c10.91,2.53,20.98,7.3,31.19,11.72c5.55,2.4,11.45,4.03,16.94,6.56
	c6.28,2.89,12.91,4.53,19.48,6.38c3.72,1.05,7.64,1.51,11.5,1.96c6.93,0.81,13.56,2.51,19.97,5.36c5.11,2.28,9.15,5.69,12.31,10.2
	c2.55,3.64,4.86,7.41,6.73,11.5c2.78,6.1,6.02,11.99,9.03,17.98c1.32,2.62,2.51,5.31,3.88,7.89c2.85,5.35,5.3,10.88,7.61,16.47
	c1.92,4.64,3.76,9.32,5.65,13.97c1.11,2.72,2.29,5.41,3.34,8.15c0.71,1.84,1.29,3.73,1.87,5.61c1.61,5.25,3.14,10.52,4.78,15.76
	c1.35,4.31,2.9,8.56,4.18,12.89c0.78,2.63,1.16,5.38,1.83,8.05c0.85,3.39,2.09,6.71,2.65,10.15c0.51,3.12,1.37,6.1,2.43,9.04
	c1.75,4.88,3.6,9.72,5.34,14.61c1.4,3.92,2.74,7.86,4.02,11.82c0.62,1.91,0.64,2.01,3.05,1.46c-0.53,0.79-1.02,1.34-1.28,1.98
	c-0.23,0.56-0.39,1.26-0.28,1.84c0.77,4.28,1.62,8.55,2.44,12.82c0.09,0.47-0.04,1.04,0.18,1.4c1.74,2.86,1.71,5.96,1.38,9.12
	c-0.01,0.09-0.04,0.21,0,0.28c1.53,2.64,1.36,5.66,1.86,8.52c0.16,0.92,0.51,1.81,0.58,2.73c0.41,5.3,0.74,10.61,1.13,15.91
	c0.39,5.38,0.88,10.76,1.2,16.15c0.09,1.51,0.48,2.74,1.5,3.86c0.63,0.69,1.03,1.6,1.66,2.3c0.87,0.96,1.81,1.88,2.81,2.7
	c1.02,0.84,2.18,1.5,3.23,2.31c1.8,1.37,3.42,3.06,5.37,4.14c4.65,2.55,9.37,5.03,14.24,7.14c3.64,1.59,7.5,2.76,11.35,3.79
	c6.69,1.79,11.98,5.57,16.31,10.85c2.35,2.86,4.71,5.71,6.96,8.65c0.46,0.61,0.68,1.59,0.63,2.37c-0.29,4.89-1.17,9.76-3.93,13.8
	c-1.75,2.57-4.34,4.9-7.05,6.45c-9.03,5.15-18.65,9.04-28.64,11.98c-2.91,0.86-3.62,1.77-3.75,4.88c-0.03,0.67-0.03,1.33-0.04,2
	c-0.12,6.64,0.01,13.28-0.81,19.91c-0.93,7.45-0.21,14.97-0.52,22.44c-0.25,6.04-0.94,12.1-1.87,18.08
	c-1.03,6.64-2.96,13.05-5.63,19.27c-1.52,3.54-2.38,7.35-3.59,11.03c-1.51,4.58-3.05,9.16-4.62,13.72c-0.83,2.41-1.94,4.74-2.59,7.2
	c-1.3,4.83-2.27,9.74-3.56,14.57c-0.93,3.47-2.15,6.87-3.25,10.29c-1.4,4.33-2.88,8.63-4.22,12.97c-1.45,4.68-2.76,9.41-4.18,14.1
	c-1.75,5.81-3.35,11.67-5.38,17.38c-3.04,8.56-6.16,17.11-9.69,25.48c-3.4,8.06-7.42,15.86-11.07,23.82
	c-2.61,5.67-4.94,11.47-7.62,17.11c-1.9,4-4.33,7.75-6.21,11.77c-3.04,6.5-5.76,13.16-8.75,19.69c-1.31,2.86-2.27,5.86-4.98,8.04
	c-2,1.61-3.41,4.07-4.79,6.32c-2.78,4.52-6.65,8.01-10.35,11.69c-2.96,2.95-6.13,5.74-8.69,9c-1.8,2.29-3.31,4.8-5.52,6.76
	c-1.41,1.26-2.76,2.58-4.18,3.82c-1.5,1.3-3.17,2.42-4.57,3.82c-4.47,4.44-9.9,7.32-15.48,10.02c-3.09,1.5-6.11,3.12-9.69,3.06
	c-0.36-0.01-0.74,0.17-1.09,0.3c-4.29,1.66-8.75,2.61-13.33,2.92c-6.54,0.44-13.08,1.1-19.63,1.15c-5.49,0.04-11.04-0.28-16.46-1.11
	c-6.51-1-12.71-3.26-18.29-6.91c-7.31-4.78-14.83-9.27-21.81-14.49c-5.83-4.37-11.02-9.6-16.48-14.46
	c-3.26-2.91-6.37-5.99-9.77-8.72c-2.28-1.82-4.87-3.33-7.48-4.65c-4.33-2.18-8.88-3.91-13.15-6.18c-2.12-1.13-3.85-3.02-5.68-4.64
	c-4.98-4.41-7.59-10.35-10.33-16.19c-2.94-6.26-5.95-12.5-8.76-18.82c-1.26-2.85-2.02-5.91-3.17-8.81
	c-1.39-3.51-3.06-6.92-4.42-10.45c-1.18-3.07-2.07-6.25-3.16-9.36c-0.78-2.24-1.75-4.41-2.48-6.66c-0.76-2.33-1.38-4.71-1.96-7.1
	c-1.04-4.32-2.06-8.64-2.98-12.98c-0.67-3.15-1.16-6.34-1.76-9.51c-0.68-3.62-1.41-7.22-2.08-10.84c-0.84-4.58-1.49-9.19-2.49-13.73
	c-1.39-6.29-2.95-12.55-4.6-18.79c-1.26-4.75-2.86-9.41-4.13-14.16c-1.03-3.82-1.71-7.73-2.69-11.57
	c-1.31-5.13-2.76-10.22-4.14-15.33c-0.15-0.55-0.2-1.12-0.3-1.68c-0.47-2.7-0.94-5.41-1.4-8.11c-0.3-1.76-0.61-3.53-0.9-5.3
	c-0.67-4.01-1.33-8.02-1.99-12.04c-0.66-4.01-1.39-8.02-1.97-12.05c-1.04-7.23-1.96-14.48-2.99-21.72c-0.27-1.87-0.84-3.7-1.14-5.57
	c-0.43-2.61-0.66-5.25-1.11-7.86c-0.42-2.42-1.02-4.82-1.55-7.22c-0.3-1.38-0.7-2.74-0.94-4.14c-0.74-4.29-1.38-8.6-2.2-12.88
	c-0.14-0.74-0.78-1.71-1.42-1.97c-2.74-1.08-3.94-3.46-5.29-5.75c-0.77-1.31-1.57-2.6-2.38-3.89c-1.03-1.64-2.43-2.18-4.39-1.77
	c-2.78,0.59-5.61,0.96-8.43,1.39c-0.75,0.11-1.52,0.1-2.28,0.1c-1.19,0.01-2.55-0.13-2.81-1.41c-0.2-0.99,0-2.43,0.63-3.14
	c2.6-2.98,4.83-6.24,7.96-8.86c3.65-3.06,7.65-5.6,11.33-8.59c1.1-0.9,1.64-1.76,1.49-3.11c-0.01-0.09,0-0.19-0.01-0.29
	c-0.52-5.57-1.12-11.14-1.52-16.72c-0.27-3.87-0.26-7.76-0.37-11.64c-0.02-0.66-0.06-1.32-0.04-1.97c0.1-2.74,0.19-5.47,0.36-8.2
	c0.06-1.04,0.35-2.06,0.47-3.1c0.67-5.74,1.14-11.51,2.04-17.22c0.97-6.17,2.35-12.27,3.51-18.41c0.19-1,0.13-2.04,0.21-3.38
	c-6.07-0.26-11.85-1.34-17.87-0.67c-0.28,2.4-0.61,4.63-0.73,6.88c-0.03,0.5,0.58,1.17,1.07,1.53c3.04,2.25,4,5.35,4.01,8.98
	c0.01,2.37,0.42,4.74,0.39,7.11c-0.04,3.42-0.06,6.87-0.53,10.24c-1.04,7.51-2.34,15-4.75,22.21c-1.52,4.57-3.36,9.06-5.3,13.48
	c-2.05,4.67-4.23,9.29-6.64,13.77c-1.77,3.29-4.5,3.17-6.63,0.07c-1.62-2.35-2.26-4.95-2.47-7.77c-0.25-3.4-0.81-6.78-1.17-10.18
	c-0.24-2.26-0.31-4.55-0.55-6.81c-0.61-5.66-1.24-11.32-1.96-16.96c-0.41-3.2-0.86-6.41-1.56-9.56
	C423.37,345.46,422.38,342.78,421.43,339.66z M814.5,347.44c-0.64-1.7-0.97-2.99-1.58-4.14c-1.06-1.99-1.52-4.06-1.4-6.31
	c0.36-7.21-0.64-14.37-1.07-21.54c-0.33-5.49-0.9-10.97-1.37-16.46c-0.06-0.66-0.21-1.31-0.33-1.96c-0.58-3.06-1.17-6.12-1.76-9.18
	c-0.54-2.78-0.93-5.61-1.66-8.34c-1.52-5.76-4.06-11.19-5.65-16.96c-1.53-5.54-4.28-10.72-5.66-16.35
	c-0.95-3.85-2.07-7.66-2.98-11.52c-0.93-3.95-1.55-7.98-2.58-11.91c-1.67-6.41-3.55-12.76-5.35-19.14c-0.43-1.54-0.9-3.08-1.3-4.63
	c-0.88-3.39-1.56-6.84-2.62-10.18c-1.2-3.78-2.61-7.5-4.13-11.16c-3.25-7.79-6.57-15.54-9.98-23.26c-1.5-3.38-3.3-6.62-4.94-9.94
	c-2.34-4.76-4.58-9.57-6.99-14.3c-2.46-4.82-5.11-9.53-7.6-14.33c-2.84-5.46-6.91-9.79-12.35-12.58c-2.84-1.46-5.99-2.52-9.12-3.17
	c-4.82-0.99-9.77-1.35-14.63-2.21c-7.19-1.26-14.36-2.69-21.16-5.49c-1.47-0.61-2.89-1.42-4.42-1.81
	c-8.8-2.24-16.82-6.48-25.19-9.81c-6.89-2.73-13.64-5.75-20.79-7.86c-8.08-2.38-16.32-3.79-24.62-4.59
	c-7.78-0.75-15.53-0.3-22.58,4.2c-6.55,4.19-14.17,6.31-20.86,10.41c-6.77,4.15-14.1,7.38-21.06,11.26
	c-6.8,3.8-13.47,7.84-20.12,11.89c-5.43,3.3-10.69,6.88-16.17,10.1c-3.1,1.82-6.67,2.86-9.71,4.77c-9.58,6-19.4,11.59-28.91,17.72
	c-5.46,3.52-10.42,7.55-15.45,11.57c-1.99,1.59-3.2,3.4-2.86,6.1c0.4,3.2,0.96,6.43,0.83,9.62c-0.14,3.51,0.88,6.76,1.45,10.1
	c0.74,4.37,1.9,8.67,2.91,13c0.87,3.76,1.61,7.55,2.72,11.24c1.95,6.52,4.21,12.94,6.75,19.26c0.94,2.33,1.86,4.67,2.79,7
	c0.24-0.03,0.47-0.06,0.71-0.09c0.59-2.8,1.28-5.59,1.73-8.42c0.59-3.75,0.95-7.53,1.49-11.29c0.64-4.49,1.36-8.98,2.05-13.47
	c0.06-0.38,0.08-0.76,0.17-1.13c1.03-4.31,2.05-8.62,3.12-12.93c1.23-4.96,2.36-9.96,3.81-14.86c2.73-9.22,8.18-16.82,14.68-23.73
	c1.69-1.8,3.64-3.35,5.34-5.15c1.36-1.45,2.51-3.09,3.77-4.64c1.23-1.51,2.61-1.74,3.94-0.66c1.63,1.31,1.82,2.78,0.82,4.35
	c-0.58,0.92-0.98,2-1.22,3.07c-0.76,3.4-1.42,6.83-2.09,10.25c-0.47,2.41-0.95,4.82-1.34,7.24c-0.33,2.06-0.5,4.14-0.83,6.19
	c-0.77,4.87-1.61,9.72-2.39,14.59c-0.56,3.47-0.94,6.98-1.62,10.42c-0.93,4.73-2.05,9.43-3.12,14.13
	c-1.47,6.46-2.97,12.92-4.47,19.37c-0.41,1.74-0.89,3.46-1.31,5.2c-0.31,1.27-0.53,2.57-0.87,3.84c-0.8,3.03-1.71,6.04-2.47,9.08
	c-0.93,3.76-1.53,7.63-2.67,11.32c-1.88,6.08-3.52,12.21-4.56,18.49c-0.36,2.18,0.11,4.12,1.32,5.91
	c2.89,4.28,6.79,7.58,10.68,10.88c0.84,0.71,1.96,1.18,1.55,3.05c-3.29-0.72-5.51-3.02-7.89-4.85c-2.51-1.94-4.71-4.28-7.56-6.92
	c-3.74,11.47-6.72,22.56-8.33,34.35c4.54,0.68,8.64,1.32,12.75,1.9c3.84,0.54,7.7,0.94,11.53,1.55c3.19,0.51,6.32,1.57,9.51,1.77
	c3.19,0.2,6.17,1,9.14,1.91c4.34,1.34,8.57,3.04,12.9,4.46c5.2,1.71,9.77,4.59,14.28,7.57c3.02,2,5.05,4.8,6.47,8.14
	c0.91,2.14,1.9,4.31,3.22,6.21c4.26,6.14,7.65,12.9,12.88,18.33c2.55,2.64,5.22,5.22,8.13,7.44c2.93,2.24,6.31,3.86,9.34,5.99
	c4.72,3.32,9.3,6.85,13.97,10.26c0.64,0.47,1.45,0.71,2.13,1.03c0.76-1.44,1.38-2.59,1.97-3.77c0.56-1.12,1.06-2.26,1.6-3.42
	c1.86,1.77,2.1,2.54,1.61,4.79c-0.22,1.01-0.71,2.13-0.47,3.04c0.81,3.12,0.18,6.45,1.61,9.5c0.76,1.61-0.37,3.37-2,3.83
	c-1.71,0.48-3.01-0.34-3.72-2.14c-0.62-1.57-1.14-3.34-2.22-4.55c-2.21-2.45-4.73-4.64-7.22-6.82c-1.42-1.25-2.99-2.34-4.57-3.39
	c-4.35-2.88-8.65-5.84-13.14-8.49c-4.42-2.6-8.3-5.84-11.34-9.83c-3.73-4.89-7-10.16-10.25-15.41c-2.29-3.7-4.18-7.64-6.33-11.43
	c-0.6-1.06-1.34-2.12-2.26-2.89c-3.87-3.26-8.19-5.84-12.9-7.72c-2.65-1.06-5.31-2.09-7.97-3.09c-2.65-0.99-5.26-2.21-7.99-2.84
	c-5.18-1.19-10.43-2.12-15.68-3c-5.15-0.86-10.32-1.6-15.5-2.26c-2.82-0.36-5.68-0.48-8.52-0.66c-1.48-0.1-2.54,0.39-2.96,2.02
	c-1.88,7.26-3.33,14.6-4.1,22.06c-0.31,3.02-0.19,6.13-0.84,9.07c-1.01,4.59-1.1,9.23-1.36,13.86c-0.15,2.64,0.3,5.3,0.41,7.96
	c0.25,5.69,0.39,11.39,0.7,17.08c0.13,2.39,0.55,4.77,0.88,7.4c0.93-0.43,1.45-0.63,1.93-0.9c5.21-2.91,10.03-6.48,15.72-8.61
	c4.17-1.56,8.2-3.38,12.58-4.43c4.14-0.99,8.16-2.53,12.14-4.08c7.07-2.76,14.1-5.65,21.09-8.61c4.45-1.89,8.97-2.8,13.85-2.71
	c4.48,0.08,7.9,1.98,10.76,4.99c2.48,2.6,4.68,5.5,6.06,8.9c0.35,0.87,0.78,1.72,1.11,2.6c0.91,2.48,2.04,4.91,2.62,7.46
	c0.72,3.19,0.55,3.46,3.79,3.94c4.68,0.69,8.99,2.29,13.2,4.37c4.8,2.38,8.32,5.95,10.54,10.75c1.11,2.39,1.68,5.03,2.69,7.47
	c2.41,5.83,2.67,11.7-0.15,17.37c-1.22,2.46-1.53,4.57-0.32,6.97c0.49,0.98,0.9,2.01,1.32,3.03c2.3,5.58,4.57,11.18,6.89,16.75
	c0.62,1.49,1.46,2.88,2.06,4.37c1.58,3.94,2.96,7.97,4.64,11.87c1.73,4,3.84,7.84,5.56,11.85c1.6,3.72,3.06,7.52,4.32,11.36
	c0.96,2.93,2.23,5.83,1.84,9.09c-0.21,1.77-0.42,3.65-0.06,5.36c0.61,2.85,1.71,5.59,2.56,8.38c1.35,4.41,2.76,8.81,3.98,13.26
	c0.95,3.46,1.58,7.01,2.51,10.47c0.83,3.1,3.15,5.2,6.08,5.14c4.01-0.08,7.77,1.1,11.43,2.23c6.03,1.86,11.37,1.41,16.98-1.66
	c8.83-4.83,15.6-11.38,19.78-20.56c0.12-0.26,0.21-0.53,0.26-0.81c0.75-4.09,1.77-8.15,2.15-12.28c0.36-3.86,0.38-7.83-0.04-11.68
	c-0.53-4.9-1.67-9.73-2.52-14.6c-1.14-6.53-0.63-13.1-0.47-19.66c0.12-4.93,0.59-9.85,0.92-14.77c0.15-2.27,0.18-4.57,0.55-6.81
	c1.02-6.25,0.64-12.53,0.63-18.8c0-1.65-0.76-2.83-2.5-3.38c-3-0.94-5.88-2.14-8.47-4c-0.98-0.71-2.26-0.99-3.28-1.66
	c-0.99-0.65-1.88-1.47-2.68-2.35c-0.55-0.61-0.78-1.49-1.27-2.17c-3.45-4.75-2.74-9.72-0.42-14.53c2.54-5.29,5.47-10.39,8.2-15.6
	c1.17-2.24,2.99-4.24,2.54-7c2.73-0.67,4.87-2.24,5.37-4.26c1.21-4.87,2.28-9.78,3.39-14.68c0.08-0.36,0.03-0.75,0-1.13
	c-0.3-4.47,0.11-8.81,1.34-13.17c1.79-6.34,3.13-12.8,4.66-19.21c0.35-1.48,0.97-2.94,1.05-4.42c0.27-5.09,1.8-9.78,3.98-14.33
	c1.67-3.49,3.92-5.99,8.12-6.16c1.18-0.05,2.35-0.7,3.51-1.1c0.72-0.25,1.4-0.69,2.13-0.79c3.84-0.5,7.69-1,11.54-1.34
	c2.36-0.21,4.75-0.21,7.12-0.17c3.39,0.06,6.78,0.25,10.17,0.35c1.5,0.04,3.25-0.5,4.43,0.12c1.45,0.76,2.72,0.89,4.26,0.93
	c2.93,0.07,3.79,2,2.08,4.33c-0.5,0.68-1.1,1.33-1.79,1.81c-1.79,1.24-3.81,2.19-5.45,3.58c-7.29,6.21-14.6,12.43-20.85,19.73
	c-3.94,4.6-7.69,9.38-11.39,14.19c-1.9,2.47-3.88,4.95-4.75,8.05c-0.48,1.75-0.97,3.52,0.85,4.9c3.34-1.52,6.72-2.82,9.85-4.56
	c2.65-1.48,5.48-2.06,8.35-2.42c2.79-0.34,5.64-0.16,8.46-0.28c1.13-0.05,2.25-0.29,3.37-0.46c0.94-0.15,1.86-0.44,2.8-0.48
	c4.75-0.22,9.5-0.38,14.25-0.58c1.13-0.05,2.33-0.46,3.36-0.19c3.65,0.95,7.23,2.16,10.86,3.19c0.9,0.26,1.9,0.45,2.8,0.32
	c3.95-0.55,7.88-1.2,11.82-1.86c2.71-0.46,5.38-1.21,8.11-1.46c5.34-0.49,10.59-1.66,15.95-1.91
	C811.34,348.45,812.69,347.89,814.5,347.44z M482.19,394.49c-0.92,0.19-1.53,0.16-1.94,0.42c-3.11,2.02-6.22,4.04-9.22,6.21
	c-0.63,0.45-1.13,1.6-1.07,2.38c0.2,2.73,0.63,5.45,1.05,8.15c0.76,4.85,1.67,9.68,2.36,14.54c1.02,7.2,2.94,14.25,3.48,21.53
	c0.05,0.74,0.35,1.47,0.52,2.21c0.57,2.48,1.25,4.95,1.68,7.46c0.56,3.26,0.84,6.57,1.38,9.84c0.56,3.43,1.42,6.82,1.91,10.26
	c0.6,4.21,0.96,8.46,1.42,12.69c0.02,0.19,0.05,0.38,0.08,0.56c0.79,4.18,1.6,8.35,2.37,12.54c0.68,3.73,1.32,7.46,1.94,11.2
	c0.56,3.36,0.97,6.75,1.61,10.1c0.89,4.65,1.96,9.27,2.92,13.9c0.23,1.11,0.18,2.28,0.47,3.37c0.99,3.72,2.09,7.42,3.13,11.13
	c0.85,3.02,1.69,6.04,2.49,9.07c1.09,4.1,2.16,8.2,3.21,12.3c0.33,1.28,0.49,2.6,0.84,3.87c0.8,2.91,1.75,5.79,2.5,8.71
	c0.63,2.47,1.05,5,1.62,7.48c0.78,3.41,2.19,6.69,1.88,10.3c-0.04,0.46,0.11,0.94,0.19,1.41c0.31,1.75,0.64,3.5,0.92,5.26
	c0.15,0.94,0.16,1.9,0.36,2.82c0.97,4.44,1.98,8.86,2.98,13.29c1.02,4.53,1.89,9.11,3.11,13.58c1.04,3.81,2.46,7.52,3.77,11.25
	c1.4,4.01,2.77,8.04,4.34,11.98c1.65,4.14,3.58,8.17,5.27,12.3c0.93,2.27,1.42,4.74,2.44,6.96c3.24,7.05,6.42,14.14,10.06,20.98
	c1.8,3.4,4.16,6.69,6.95,9.3c2.42,2.27,5.7,3.75,8.79,5.15c9.77,4.42,18.92,9.68,26.2,17.77c2.54,2.82,5.08,5.72,8.02,8.09
	c5.75,4.64,11.68,9.06,17.71,13.34c4.4,3.12,8.94,6.09,13.65,8.71c6.39,3.57,13.37,5.41,20.7,5.74c3.02,0.13,6.04,0.12,9.06,0.05
	c4.27-0.11,8.54-0.51,12.81-0.47c6.83,0.05,13.43-1.15,19.96-2.97c2-0.56,4.12-0.83,5.99-1.68c4.14-1.88,8.2-3.97,12.19-6.15
	c1.38-0.75,2.5-2,3.68-3.09c0.9-0.83,1.63-1.87,2.59-2.63c4.78-3.78,9.04-8.04,12.91-12.77c2.62-3.21,5.82-5.95,8.76-8.9
	c1.66-1.67,3.46-3.23,4.95-5.05c2.28-2.78,4.25-5.81,6.53-8.6c3.25-3.97,6.18-8.09,8.21-12.86c1.59-3.75,3.56-7.35,5.3-11.04
	c1.37-2.9,2.56-5.89,3.99-8.77c2.99-6.03,6.17-11.96,9.11-18.01c1.82-3.74,3.29-7.66,5.04-11.44c1.82-3.94,3.97-7.73,5.65-11.72
	c3.57-8.46,7.62-16.71,10.42-25.49c1.43-4.49,3.04-8.92,4.53-13.39c0.54-1.62,0.9-3.3,1.42-4.92c1.22-3.78,2.56-7.53,3.7-11.33
	c1.13-3.79,2.04-7.65,3.13-11.45c0.88-3.09,1.85-6.16,2.84-9.22c0.98-3.04,2.09-6.05,3.04-9.1c0.9-2.9,1.68-5.84,2.5-8.76
	c1.23-4.37,2.35-8.78,3.69-13.12c1.38-4.43,2.99-8.79,4.46-13.19c1.25-3.77,2.28-7.62,3.69-11.33c2.73-7.18,5.62-14.32,6.64-21.98
	c0.92-6.86,1.53-13.76,2.09-20.66c0.32-3.88,0.23-7.79,0.42-11.68c0.19-3.88,0.55-7.75,0.74-11.63c0.24-4.93,0.41-9.87,0.57-14.81
	c0.06-1.96,0.01-3.93,0.01-5.91c-2.74-0.67-5.05-0.2-7.4,0.12c-8.65,1.19-17.31,2.26-25.96,3.41c-2.07,0.27-4.11,0.74-6.18,0.97
	c-2.81,0.31-5.64,0.46-8.45,0.73c-4.16,0.4-8.31,0.93-12.47,1.24c-3.69,0.27-7.41,0.45-11.11,0.44c-3.49-0.01-6.98-0.43-10.48-0.45
	c-10.07-0.05-20.14-0.03-30.22,0.04c-2.75,0.02-5.5,0.3-8.25,0.5c-5.75,0.41-11.38-0.51-17-1.49c-3.05-0.53-3.49-0.16-3.52,2.95
	c-0.03,3.14,0.43,6.38-0.19,9.4c-1.08,5.21-0.92,10.41-0.95,15.63c-0.01,1.71,0.36,3.61-0.25,5.09c-0.96,2.33-0.91,4.64-0.92,6.99
	c-0.03,5.98,0.02,11.95,0.09,17.93c0.01,1.03,0.28,2.06,0.45,3.09c0.57,3.55,1.31,7.07,1.7,10.64c0.83,7.52-0.06,15-1.21,22.42
	c-0.52,3.34-1.49,6.64-3.36,9.6c-2.49,3.92-5.03,7.68-8.53,10.92c-4.81,4.46-10.09,8.04-15.94,10.83c-4.81,2.3-9.68,2.21-14.63,0.14
	c-1.71-0.71-3.66-0.87-5.53-1.17c-3-0.48-6.11-0.54-9-1.38c-2.9-0.85-5.6-2.46-7-5.4c-2.38-5.02-3.35-10.45-4.59-15.82
	c-1.02-4.42-1.84-8.98-3.66-13.08c-1.66-3.74-2.18-7.4-2.04-11.33c0.04-1.24-0.08-2.49,0.05-3.71c0.3-2.77-0.63-5.34-1.64-7.72
	c-3.78-8.98-7.88-17.82-11.8-26.74c-2.51-5.72-4.88-11.49-7.37-17.22c-1.44-3.3-2.97-6.56-4.51-9.81c-0.48-1.01-0.98-2.05-2.44-2.03
	c-2.92,0.04-5.85,0.04-8.78-0.05c-5.99-0.18-11.97-0.42-17.96-0.64c-0.57-0.02-1.14-0.11-1.7-0.21c-5.36-0.93-10.53-2.52-15.58-4.5
	c-6.89-2.71-13.78-5.42-20.71-8.04c-2.13-0.8-4.32-1.51-6.55-1.93c-4.01-0.75-8.07-1.24-12.1-1.87c-0.65-0.1-1.36-0.22-1.9-0.56
	c-2.89-1.83-5.82-3.59-7.11-7.1c-0.48-1.3-1.39-2.49-2.26-3.6c-1.88-2.39-4.03-4.57-5.77-7.05c-2.12-3.04-4.99-5.15-7.95-7.21
	c-2.21-1.54-2.59-3.06-1.24-5.31C481.32,395.77,481.64,395.33,482.19,394.49z M807.96,389.28c-1.18,1.63-1.99,2.9-2.94,4.06
	c-3.62,4.4-7.97,7.83-13.37,9.81c-2.85,1.04-5.72,2.05-8.6,3c-1.65,0.54-3.27,0.14-4.56-0.91c-3.32-2.7-5.28-6.39-7.05-10.19
	c-1.66-3.55-2.18-7.39-2.89-11.21c-0.52-2.82-0.37-5.43,0.57-8.12c0.62-1.76,1.81-2.65,3.48-2.98c1.01-0.2,2.08-0.16,3.12-0.11
	c3.11,0.15,6.25,0.13,9.3,0.65c1.55,0.27,3.14,1.34,4.3,2.47c0.57,0.56,0.5,2.16,0.2,3.13c-0.4,1.3-1.7,0.92-2.71,0.7
	c-0.74-0.16-1.44-0.57-2.18-0.67c-2.43-0.35-4.88-0.84-7.32-0.85c-2.52,0-3.17,1.04-3.38,3.58c-0.17,2.07,0.51,3.9,1.14,5.78
	c0.91,2.68,1.57,5.45,2.67,8.04c1.05,2.48,4.62,4.4,6.56,3.8c5.22-1.63,10.11-3.9,14.11-7.73c1.65-1.59,3.42-3.53,3.22-5.83
	c-0.21-2.43-0.79-4.9-2.36-7.14c-2.97-4.24-7.24-6.95-10.98-10.29c-3.96-3.53-8.53-3.77-13.6-3.14c-7.09,0.88-13.75,2.98-20.22,5.76
	c-3.38,1.45-6.57,3.4-9.7,5.36c-2.65,1.66-4.02,4.15-4.02,7.42c0,4.86,0.33,9.54,2.22,14.2c2.78,6.85,6.34,12.98,12.37,17.45
	c2.05,1.52,4.1,3.06,6.06,4.7c2.67,2.23,5.47,3.99,9.17,3.73c0.66-0.05,1.42,0.46,2.05,0.85c1.97,1.24,4.16,1.5,6.32,1.07
	c4.86-0.96,9.12-3.57,12.84-6.52c4.41-3.51,8.16-7.9,11.96-12.12c2.68-2.97,4.83-6.39,5.83-10.33
	C810.17,394.21,810.36,391.69,807.96,389.28z M765.41,429.79c0.03-0.18,0.06-0.35,0.09-0.53c-1.2-0.74-2.42-1.45-3.59-2.22
	c-5.56-3.65-11.2-7.2-15.5-12.43c-0.9-1.09-2.31-1.86-2.93-3.06c-1.86-3.61-3.61-7.3-5.09-11.09c-1.12-2.89-1.68-5.99-2.61-8.96
	c-1.53-4.88-0.54-9.56,0.98-14.21c1.31-4,4.35-6.3,7.92-8.12c1.37-0.7,3.03-1.13,4.03-3.4c-1.25,0.45-1.99,0.67-2.7,0.98
	c-2.16,0.97-4.28,2.01-6.44,2.95c-2.51,1.1-5.12,1.98-7.56,3.21c-2.79,1.4-5.38,3.19-8.17,4.59c-1.85,0.92-3.98,1.27-5.84,2.17
	c-4,1.95-7.91,4.08-11.85,6.16c-2.4,1.27-4.32,3.04-5.61,5.48c-0.53,0.99-1.29,1.87-2.04,2.71c-1.77,1.97-3.63,3.85-5.37,5.85
	c-0.38,0.43-0.52,1.2-0.52,1.81c-0.01,2.45,0.1,4.91,0.12,7.36c0.05,4.57,0.06,9.14,0.14,13.7c0.05,2.97,0.56,3.54,3.37,4.3
	c0.73,0.2,1.43,0.52,2.13,0.8c2.93,1.17,5.94,1.83,9.12,2.02c6.82,0.41,13.63-0.78,20.44-0.06c0.46,0.05,0.95-0.07,1.42-0.1
	c2.84-0.15,5.67-0.37,8.51-0.41c4.94-0.06,9.88-0.05,14.82,0.03c2.84,0.05,5.68,0.32,8.52,0.44
	C762.6,429.84,764.01,429.79,765.41,429.79z M825.3,362.49c0.8,4.13,1.47,7.62,2.16,11.1c0.07,0.36,0.35,0.68,0.46,1.04
	c1.24,4.16,2.53,8.3,3.67,12.48c0.91,3.35,1.45,6.81,2.5,10.11c1.03,3.22,2.61,6.27,3.76,9.46c1.43,3.98,2.67,8.03,4.12,12.43
	c1.46-0.32,2.94-0.5,4.34-0.96c2.61-0.87,5.17-1.91,7.76-2.84c1.68-0.6,3.45-1,5.07-1.74c1.8-0.83,3.48-1.93,5.2-2.93
	c2.53-1.48,5.2-2.78,7.55-4.51c4.21-3.09,5.2-7.74,5.37-12.63c0.02-0.54-0.16-1.18-0.47-1.61c-2.11-2.91-4.23-5.82-6.48-8.62
	c-0.75-0.93-1.88-1.56-2.88-2.27c-1.61-1.14-3.13-2.69-4.93-3.22c-3.18-0.94-6.32-1.95-9.39-3.21c-4.9-2.02-9.86-3.9-14.69-6.08
	c-3.36-1.52-6.52-3.49-9.81-5.17C827.78,362.89,826.78,362.84,825.3,362.49z M784.35,358.75c1.19,0.83,2.02,1.61,3,2.05
	c6.45,2.88,10.9,8.21,15.71,13.01c4.55,4.54,8.34,9.76,11.82,15.19c0.88,1.37,1.25,2.59,0.83,4.24c-1.17,4.55-3.04,8.78-5.6,12.69
	c-1.71,2.61-3.46,5.21-5.47,7.59c-1.83,2.16-3.98,4.06-6.1,5.96c-1.97,1.76-4.11,3.33-6.14,5.03c-0.95,0.8-1.81,1.71-2.94,2.79
	c2.75,0.66,4.85,0.14,6.92-0.59c0.44-0.16,0.85-0.44,1.3-0.5c4.28-0.52,8.57-0.96,12.85-1.52c1.1-0.14,2.14-0.83,3.23-0.94
	c5.47-0.53,10.96-0.88,16.43-1.43c1.85-0.19,3.66-0.79,5.42-1.18c0.14-0.71,0.26-1.07,0.27-1.44c0.02-0.47-0.01-0.95-0.07-1.41
	c-0.89-6.24-2.98-12.15-5.25-17.97c-1.26-3.24-2.58-6.51-5.01-9.21c-0.82-0.92-1.09-2.4-1.42-3.68c-1-3.84-1.92-7.7-2.84-11.56
	c-1.34-5.63-2.65-11.27-4.01-16.89c-0.28-1.18-0.76-2.31-1.11-3.47c-0.45-1.54-1.3-1.99-2.98-1.75c-5.17,0.74-10.38,1.16-15.55,1.88
	c-3.75,0.53-7.47,1.32-11.19,2.06C785.86,357.81,785.32,358.25,784.35,358.75z M482.16,260.95c0.44-1.2,0.98-2.37,1.29-3.59
	c1.26-4.95,2.39-9.94,3.68-14.89c1.36-5.22,2.92-10.38,4.26-15.61c1.75-6.8,3.42-13.62,5.02-20.46c1.47-6.26,2.9-12.52,4.15-18.82
	c0.92-4.63,1.44-9.35,2.28-14c1.66-9.24,2.14-18.67,4.51-27.8c0.29-1.12,0.04-2.38,0.04-4.16c-1.27,0.65-2.27,0.86-2.81,1.48
	c-5.46,6.27-11.29,12.31-13.56,20.68c-0.47,1.73-1.23,3.38-1.69,5.11c-1.42,5.3-2.95,10.58-4.07,15.95
	c-0.67,3.21-2.07,6.33-1.66,9.74c0.07,0.55-0.08,1.14-0.18,1.7c-1.26,7.38-2.53,14.77-3.79,22.15c-0.53,3.07-1.18,6.14-1.52,9.23
	c-0.25,2.24-0.54,4.65,0.06,6.74c0.51,1.76,0.88,3.43,0.88,5.24c0,2.67,0.01,5.33,0.05,7.99
	C479.18,252.19,480.55,256.5,482.16,260.95z M435.09,395.26c2.93-3.25,4.42-7.12,5.95-10.82c2.49-6.02,4.49-12.25,6.44-18.47
	c1.21-3.86,2.1-7.85,2.81-11.84c0.57-3.23,0.76-6.55,0.93-9.83c0.19-3.7,0.37-7.42,0.14-11.11c-0.16-2.53-0.78-5.11-3.86-6.04
	c-3.29-0.99-3.58-1.69-2.35-4.94c0.94-2.49,0.69-4.97,0.41-7.45c-3.11-0.74-5.52-0.31-7.48,2.04c-2.06,2.48-4.24,4.87-6.38,7.28
	c-2.27,2.56-4.57,5.09-6.8,7.67c-0.46,0.53-0.71,1.25-1.06,1.89c0.42,0.31,0.62,0.57,0.86,0.63c2.21,0.47,2.9,1.82,3.11,4.06
	c0.58,6.04,1.34,12.08,2.33,18.06c1.31,7.96,2.16,15.94,2.16,24.02c0,0.85,0.1,1.7,0.21,2.55c0.29,2.34,0.65,4.68,0.89,7.02
	C433.56,391.78,433.44,393.61,435.09,395.26z M736.73,307.57c-2.75-0.18-5.49-0.55-8.22-0.49c-3.12,0.06-6.26,0.38-9.35,0.82
	c-2.42,0.34-4.88,0.79-7.15,1.65c-3.56,1.34-7.14,2.93-8.38,7.04c-0.71,2.34-1.21,4.76-1.63,7.18c-0.54,3.16-0.9,6.36-1.35,9.54
	c-0.04,0.28-0.2,0.53-0.26,0.81c-0.66,2.84-1.3,5.69-1.95,8.54c-0.23,1.01-0.5,2.01-0.68,3.03c-0.19,1.04-0.03,2.23-0.48,3.13
	c-1.36,2.75-2.35,5.54-2.21,8.67c0.07,1.61-0.01,3.23,0.03,4.84c0.02,0.71,0.15,1.42,0.27,2.41c3.71-1.49,6.74-2.79,7.81-7.11
	c1.05-4.24,1.91-8.51,5.32-12.15c3.71-3.95,7.2-8.32,10.07-13.05c2.93-1.43,2.86-4.88,4.72-7.13c1.3-1.57,2.13-3.13,4.32-3.61
	c1.89-0.41,2.37-1.36,2.57-3.45c0.06-0.62,0.25-1.38,0.67-1.77c1.12-1.06,2.59-1.8,3.56-2.97
	C735.66,311.96,738.13,310.84,736.73,307.57z M451.72,309.27c5.77,0.38,11.16,0.73,16.55,1.1c1.76,0.12,2.4-0.64,2.77-2.4
	c1.41-6.77,2.98-13.5,4.62-20.22c1.23-5.05,2.71-10.04,3.95-15.08c0.31-1.24,0.58-2.8,0.11-3.88c-2.01-4.66-3.07-9.57-4.28-14.44
	c-0.13-0.53-0.59-0.99-1.07-1.76c-0.47,0.75-0.76,1.1-0.93,1.51c-1.91,4.52-3.77,9.06-5.73,13.56c-0.6,1.38-1.53,2.62-2.18,3.99
	c-1.86,3.92-3.24,8.14-5.57,11.76c-4.54,7.03-6.9,14.71-8.21,22.82C451.61,307.05,451.72,307.9,451.72,309.27z M519,423.63
	c-0.21-1.24-0.21-1.91-0.43-2.49c-1.19-3.12-1.76-6.33-1.88-9.68c-0.24-6.79,0.7-13.44,1.92-20.08c0.45-2.45,0.23-3.09-1.98-4.04
	c-2.93-1.26-6.12-1.6-9.18-1.04c-3.9,0.71-7.67,2.09-11.53,3.02c-4.04,0.97-6.48,3.67-8.36,7.13c-0.54,1-0.47,1.8,0.25,2.59
	c1.35,1.47,2.7,2.93,4.06,4.38c1.81,1.93,3.79,3.72,5.43,5.78c2.6,3.25,4.88,6.74,7.48,9.99c1.31,1.63,3,2.75,5.39,2.69
	c1.67-0.04,3.35,0.53,5.02,0.87C516.29,422.98,517.37,423.26,519,423.63z M568.95,400.69c1.04,8.64-0.03,16.91-4.17,24.58
	c-2.58,4.78-6.21,8.37-11.87,9.32c-0.27,0.05-0.5,0.35-0.89,0.63c2.01,0.55,3.77,0.93,5.47,1.51c3.64,1.25,7.35,1.75,11.21,1.74
	c4.84-0.01,9.68,0.32,14.53,0.4c1.4,0.02,2.84-0.16,4.21-0.47c2.41-0.55,2.68-0.88,1.78-3.07c-1.37-3.32-2.95-6.56-4.55-9.78
	c-1.01-2.03-2.34-3.9-3.34-5.93c-1.55-3.12-3.58-5.78-6.5-7.75c-3.15-2.12-3.19-5.08,0.01-7.55c0.89,0.88,1.71,1.9,2.73,2.63
	c1.07,0.76,2.47,1.08,3.48,1.89c0.9,0.73,1.55,1.83,2.16,2.85c2.7,4.56,5.32,9.17,8.02,13.73c0.26,0.44,0.93,0.64,1.94,1.29
	c0-1.74,0.24-2.91-0.04-3.94c-0.86-3.18-1.72-6.38-2.93-9.44c-2.11-5.32-6.11-8.92-11.42-10.89
	C575.69,401.31,572.56,400.03,568.95,400.69z M750.48,357.41c-0.1-1.18-0.92-1.03-1.83-0.94c-5.67,0.57-11.28,1.61-17.02,1.56
	c-2.32-0.02-4.75,0.61-6.94,1.45c-4.26,1.63-8.39,3.58-12.55,5.46c-0.66,0.3-1.22,0.88-1.74,1.42c-1.59,1.63-3.21,3.24-4.69,4.97
	c-0.92,1.07-1.84,2.24-2.37,3.52c-0.84,2.02,0.25,3.27,2.31,2.56c3.04-1.05,6.19-2.08,8.85-3.8c2.29-1.48,4.56-2.09,7.13-2.23
	c0.16-0.01,0.31-0.2,0.55-0.35c0.08-0.29,0.18-0.65,0.29-1.01c0.64-2.07,0.74-2.02,2.99-1.97c1.18,0.02,2.41-0.3,3.54-0.69
	c1.34-0.47,2.56-1.24,3.88-1.77c1.67-0.68,3.46-1.11,5.08-1.88C742.15,361.68,746.27,359.54,750.48,357.41z M547.58,413.34
	c-0.31-1.14-0.74-2.1-0.79-3.1c-0.04-0.66,0.26-1.65,0.74-1.95c0.45-0.28,1.37,0.07,2.04,0.28c0.3,0.1,0.5,0.54,0.73,0.84
	c2.19,2.87,5.15,3.67,8.58,3.24c1.92-0.24,2.74-0.95,2.92-2.85c0.13-1.41-0.04-2.86,0.1-4.27c0.34-3.33-1.47-5.51-4.04-6.96
	c-5.41-3.05-10.93-2.67-16.22,0.4c-3.07,1.78-3.9,4.18-2.87,7.33c0.38,1.17,0.83,2.32,1.36,3.43
	C541.97,413.65,543.48,414.43,547.58,413.34z M683.95,392.71c-1.18,1.02-2.68,1.76-3.31,2.96c-2.1,4-4.09,8.1-5.73,12.31
	c-0.87,2.23-1.14,4.74,0.2,7.13c1.1,1.96,2.17,3.55,4.48,4.64c1.79,0.85,3.47,2.14,5.47,2.74c2.57,0.76,3.05,0.31,2.82-2.29
	c-0.36-4.05-0.65-8.12-0.84-12.18c-0.08-1.67-0.33-2.99-1.71-4.24c-2.14-1.95-2.37-3.49-0.83-5.49
	C685.94,396.4,685.74,394.88,683.95,392.71z M527.96,384.35c3.28,1.41,6.2,1.71,9.09,2.02c5.38,0.57,10.68,1.49,15.74,3.48
	c1.24,0.49,2.47,0.84,3.91-0.03c-0.31-0.8-0.46-1.55-0.85-2.14c-2.21-3.31-4.53-6.58-7.9-8.79c-1.2-0.79-2.76-1.35-4.19-1.42
	c-1.86-0.09-3.77,0.28-5.62,0.67C534.25,378.98,531.13,381.17,527.96,384.35z M524.73,391.96c-0.35-0.01-0.7-0.02-1.04-0.03
	c-0.35,1.23-0.75,2.44-1.04,3.69c-1.35,5.87-1.43,11.86-1.22,17.82c0.18,5.09,2.28,5.68,6.2,4.5c4.37-1.31,4.55-1.81,2.68-6.13
	c-0.97-2.23-1.68-4.59-2.32-6.94C526.83,400.58,525.81,396.26,524.73,391.96z M451.82,415.96c0.09,0.19,0.18,0.38,0.27,0.56
	c1.04,0,2.11,0.16,3.12-0.03c3.81-0.7,6.38,0.85,8.18,4.13c1.11,2.03,2.35,3.99,3.53,5.98c0.2-0.08,0.4-0.17,0.61-0.25
	c0.28-7.05-1.68-13.78-2.94-21.06C459.4,408.41,456.09,412.76,451.82,415.96z M544.48,432.77c0.21-0.26,0.43-0.52,0.64-0.77
	c-2.49-2.37-5.28-4.5-7.38-7.17c-1.82-2.33-3.71-3.15-6.45-2.5c-2.31,0.55-4.7,0.87-6.98,2.45
	C531.32,427.55,537.9,430.16,544.48,432.77z M697.13,378.27c-1.17,0.52-2.21,1.43-3.02,1.26c-2.68-0.58-2.02,2.46-3.57,2.96
	c0.24,2.83-0.96,5.73,0.3,8.6C694.65,388.38,697.3,383.1,697.13,378.27z M547.75,418.94c6.27,5.15,10.4,5.36,12.02,0.82
	C556.04,417.9,552.19,418.35,547.75,418.94z M538.94,393.95c-3.1-1.75-5.87-1.03-8.62-1.09c0.21,3.76,0.21,3.76,1.99,5.7
	C534.39,397.13,536.46,395.69,538.94,393.95z M525.72,378.09c-2.6,0.31-5,0.99-6.42,3.61C522.26,382.39,522.94,382.03,525.72,378.09
	z"/>
<path d="M774.23,735.45c0.96,2.4,1.94,4.6,2.67,6.87c0.2,0.62-0.12,1.94-0.57,2.14c-2.58,1.18-5.09,2.98-8.17,1.99
	c-0.8-0.26-1.79-0.85-2.1-1.55c-0.58-1.3,0.72-1.69,1.61-2.19c0.14-0.08,0.18-0.31,0.51-0.92c-1.1-0.08-2.01-0.15-2.92-0.22
	c-0.2-1.49,0.7-3.29,2.26-3.89C769.75,736.82,772.07,736.16,774.23,735.45z"/>
<path d="M818.71,629.28c2.65-2,5.4-1.76,7.24,0.64c0.29,0.38,0.28,1.48-0.02,1.74c-0.8,0.69-1.86,1.55-2.79,1.53
	c-1.41-0.03-3.16-0.08-3.86-1.84C819,630.68,818.88,629.94,818.71,629.28z"/>
<path d="M646.21,640.93c2.56-2.28,5.75-1.43,8.57-0.92c1.71,0.31,3.15,2.25,4.63,3.56c2.61,2.3,5.25,4.6,7.72,7.05
	c2.45,2.43,5.34,4.65,5.28,8.67c-0.04,2.71,1.4,4.34,3.94,5.27c2.17,0.8,3.86,3.6,3.8,5.81c-0.05,2-1.83,3.91-3.9,4.05
	c-1.71,0.11-3.43,0.05-5.14,0.11c-1.05,0.03-2.14,0.07-2.19,1.86c3.14-1.29,6.17-0.79,9.19-0.09c-0.61,3.18-0.81,3.28-3.3,1.45
	c-0.77,1.67,0.11,2.64,1.27,3.62c0.86,0.72,2.08,1.4,1.35,3.3c-1.37-1.63-2.54-2.15-4.7-1.51c-1.94,0.57-4.38-0.52-6.59-0.89
	c-1.02-0.17-2.04-0.38-2.98-0.56c-2.33,2.52-2.41,2.5-4.34-1.29c-2.07,0.24-4.22,0.48-6.83,0.79c0.36,0.25,0.09,0.16,0.07,0.03
	c-0.4-2.62-0.47-2.39-3.11-3.24c-2.7-0.87-5.28-0.1-7.91-0.06c-2,0.03-3.42-0.54-4.64-2.12c-0.81-1.04-0.84-2-0.59-3.18
	c0.36-1.64,0.84-3.32,0.81-4.98c-0.06-3.31,0.58-6.36,2-9.35c0.72-1.53,1.11-3.24,1.44-4.92c0.34-1.72-0.2-2.44-1.91-2.28
	c-3.19,0.29-6.34,0.56-9.1,2.74c-1.54,1.22-3.1,2.07-3.46,4.23c-0.12,0.73-0.71,0.71-1.95,0.24c-0.64,0.9-1.1,2.1-1.96,2.56
	c-0.78,0.42-2.02,0.15-3-0.05c-2.35-0.47-2.95-1.97-1.7-4.16c1.78-3.13,4.48-5.4,7.36-7.44c3.06-2.17,6.44-3.63,10.24-4.04
	c1.11-0.12,2.19-0.54,3.29-0.83c0-0.38,0.12-0.78-0.02-0.89c-2.22-1.98-2.39-4.57-2.34-7.3c0.08-3.8,0.04-7.59,0.05-11.39
	c0.01-3,1.93-4.82,4.36-5.64c3.31-1.11,6.77-1.63,10.39-0.96c2.4,0.44,4.93,0.21,7.4,0.24c0.99,0.01,1.5-0.57,1.74-1.54
	c0.34-1.38,0.67-2.79,1.26-4.07c0.96-2.06,2.73-2.4,4.39-0.84c2.59,2.44,4.02,5.55,4.8,9.01c0.44,1.92,0.92,3.88,1.75,5.65
	c0.92,1.98,0.24,3.56-0.73,5.09c-0.97,1.53-4,1.73-4.96,0.04c-2.22-3.9-5.98-3.18-9.3-3.43c-2.06-0.16-3.71-0.2-5.32-1.89
	c-2.81-2.96-9.46-1.79-10.72,1.74c-0.46,1.29-0.59,2.86-0.33,4.2C640.98,635.94,641.73,639.55,646.21,640.93z M649.44,657.88
	c-0.36,3.19,0.04,6.09,2.67,7.92c2.19,1.52,5.1,0.82,7.16-1.16C656.85,661.37,653.27,659.74,649.44,657.88z"/>
</svg>
