<?xml version="1.0" encoding="utf-8"?>
<!-- Generator: Adobe Illustrator 24.1.0, SVG Export Plug-In . SVG Version: 6.00 Build 0)  -->
<svg version="1.1" id="Layer_1" xmlns="http://www.w3.org/2000/svg" xmlns:xlink="http://www.w3.org/1999/xlink" x="0px" y="0px"
	 viewBox="0 0 1224 792" style="enable-background:new 0 0 1224 792;" xml:space="preserve">
<path d="M473.23,615.61c-2.94-0.49-3.74,0.87-4.58,3.12c-2.69,7.21-5.74,14.3-8.83,21.35c-0.62,1.42-2.01,2.5-3.08,3.71
	c-4.77,5.39-9.41,10.91-14.37,16.12c-6.46,6.77-14.33,11.09-23.46,13.53c-12.96,3.46-26.16,3.86-39.41,4.61
	c-11.51,0.65-23.14,1.27-34.42,3.45c-9.73,1.88-19.38,4.92-28.27,9.78c-4.48,2.45-9.23,3.65-14.27,1.32
	c-6.16-2.85-11.93-1.74-17.42,1.89c-1.26,0.83-2.61,1.52-3.94,2.25c-3.98,2.19-6.49,1.69-9.69-1.68c-1.45-1.52-2.98-3.12-4.79-4.12
	c-2.99-1.65-5.04-0.92-7.33,1.76c-3.73,4.37-8.22,7.07-14.26,6.97c-5.35-0.09-9.09-1.82-11.5-7.04c-2.37-5.13-5.5-9.96-8.72-14.62
	c-3.18-4.61-5.04-9.7-6.81-14.91c-2.39-7.03-5.04-13.97-7.55-20.96c-1.89-5.26-4.01-10.46-5.49-15.83
	c-0.99-3.59-1.31-7.43-1.45-11.18c-0.3-7.85-2.23-15.31-4.57-22.74c-3.08-9.8-4.79-19.83-5.04-30.16
	c-0.14-5.78-1.43-11.53-2.01-17.32c-0.32-3.21-0.38-6.45-0.32-9.68c0.06-3.01,0.78-6.02,0.62-9c-0.44-8.17-1.17-16.32-1.83-24.48
	c-0.42-5.26-0.78-10.54-1.42-15.78c-1.09-8.99-2.39-17.95-3.58-26.92c-0.57-4.26-1-8.54-1.69-12.78c-0.9-5.48-1.32-11.01-1.11-16.51
	c0.52-14.23,1.29-28.45,2.13-42.66c0.3-5.16,0.95-10.32,1.66-15.44c0.54-3.93,1.53-7.79,2.14-11.71c0.93-5.95,1.58-11.94,2.6-17.87
	c0.45-2.62,1.57-5.12,2.29-7.7c0.43-1.54,0.85-3.12,0.93-4.7c0.09-1.84-0.58-3.17-2.78-3.67c-2.78-0.64-3.72-2.37-3.79-5.22
	c-0.03-1.02-0.17-2.24-0.75-3c-2.14-2.82-4.23-5.75-6.81-8.14c-3.9-3.63-8.19-6.83-12.3-10.24c-1.05-0.87-1.96-0.83-2.72,0.31
	c-0.59,0.9-1.53,1.82-1.58,2.78c-0.25,4.6-3.29,8.15-4.4,12.34c-1.23,4.65-2.02,9.45-2.52,14.24c-0.4,3.85-0.1,7.77-0.09,11.65
	c0.01,3.95-3.26,8.09-7.08,8.49c-0.95,0.1-2.71-0.8-2.93-1.59c-0.95-3.25-2.07-6.06-4.25-8.5c1.5-0.7,2.86-1.34,4.37-2.04
	c-0.22-1.07-0.49-2.4-0.77-3.76c-2.74,1.25-2.68,1.2-4.74-1.03c-0.55-0.6-1.62-0.72-2.03-0.89c0.79-4.94,1.61-9.99,2.42-15.05
	c1.34,4.23,1.17,9.21,6.02,11.88c0.85-0.86,1.94-1.51,1-3.15c-2.48-4.31-2.43-4.41,1.01-8.07c-0.26-0.96-0.66-1.97-0.79-3.02
	c-0.31-2.48-0.12-4.8,2.65-5.94c0.1-0.04,0.18-0.12,0.27-0.18c4.12-2.83,4.22-3.39,1.03-7.6c2.34-2.14,4.7-4.31,7.38-6.77
	c-0.3-2.71,0.02-3.39,3.09-5.33c-0.56-0.85-1.11-1.71-1.75-2.68c0.53-0.33,0.9-0.76,1.23-0.72c5.22,0.56,7.06-3.42,8.95-6.95
	c5.19-9.68,10.26-19.42,15.19-29.23c1.78-3.54,3.09-7.33,4.46-11.07c1.55-4.22,2.93-8.5,4.37-12.76c0.62-1.83,1.97-2.5,3.79-2.3
	c0.83,0.09,1.63,0.41,2.93,0.75c0.68-3.4,1.29-6.64,1.99-9.85c2.03-9.36,3.61-18.86,6.31-28.03c1.83-6.23,5.25-11.98,7.96-17.95
	c3.07-6.75,5.72-13.75,9.38-20.17c2.6-4.57,4.88-9.35,8.73-13.38c5.08-5.32,9.09-11.68,13.44-17.69c2.14-2.96,4.07-6.08,6-9.19
	c6.91-11.15,13.27-22.69,20.83-33.38c6.03-8.53,13.82-15.71,23.46-20.34c7.84-3.77,15.74-7.44,23.76-10.78
	c12.03-5.01,24.2-9.7,36.32-14.5c16.95-6.71,34.5-10.91,52.76-9.72c10.83,0.7,21.63,2.72,30.69,9.85c4.48,3.52,9.65,6.15,14.17,9.63
	c5.31,4.09,11.09,7.54,15.53,12.85c4.94,5.91,10.81,11.04,15.97,16.78c8.92,9.92,17.89,19.78,25.64,30.72
	c4.65,6.56,10.18,12.5,15.37,18.67c3.66,4.35,7.33,8.71,11.15,12.92c1.87,2.06,3.99,3.95,6.19,5.66c6.26,4.87,13.5,7.04,21.37,7.07
	c7.56,0.03,14.44,2.37,20.91,6.01c2.68,1.51,4.47,3.97,5.63,6.86c3.88,9.69,5.55,19.87,6.82,30.14c0.86,6.93,1.63,13.88,2.37,20.83
	c0.23,2.14,0.12,4.32,0.33,6.47c1.15,11.68,1.49,23.41,3.5,35.05c1.39,8.08,1.99,16.37-0.68,24.6c-2.25,6.93-3.41,14.2-5.42,21.22
	c-1.98,6.92-4.27,13.76-6.69,20.54c-2.63,7.35-5.56,14.59-8.41,21.86c-1.32,3.38-2.77,6.71-4.12,10.08
	c-2.03,5.09-3.85,10.27-6.09,15.26c-1.01,2.26-0.24,3.09,1.62,3.92c4.51,2.01,8.99,4.07,13.47,6.16c6.04,2.81,6.6,5.26,3.77,11.22
	c-3.68,7.76-9.66,13.67-15.09,20.04c-3.14,3.69-6.1,7.57-9.5,11c-4.05,4.09-8.99,6.6-14.94,6.73c-3.27,0.07-3.81,0.72-4.58,3.85
	c-3.24,13.17-6.59,26.31-12.87,38.45c-3.3,6.38-6.84,12.65-10.14,19.03c-2.85,5.5-5.5,11.1-8.27,16.64
	c-0.63,1.25-1.53,2.38-2.03,3.67c-0.72,1.86-1.13,3.83-1.79,5.71c-0.4,1.14-1.01,2.2-1.57,3.28c-0.14,0.27-0.64,0.42-0.66,0.67
	c-0.29,2.46-2.27,4.5-2.64,6.48c-0.78,4.19-2.91,7.56-4.54,11.26c-1.69,3.84-3.02,7.84-4.81,11.63c-2.74,5.8-5.76,11.48-8.63,17.22
	c-1.01,2.02-1.88,4.11-2.86,6.14c-4.58,9.48-9.36,18.88-13.71,28.47c-2.2,4.85-3.71,10.03-5.32,15.13
	c-0.36,1.15,0.18,2.59,0.32,3.89C472.94,613.04,473.07,614.15,473.23,615.61z M318.13,355.69c0.62,2.33,0.94,4.32,1.66,6.14
	c1.78,4.47,3.77,8.87,5.63,13.31c2.2,5.25,4.27,10.56,6.56,15.77c1.77,4.04,4.04,7.87,5.62,11.97c3.59,9.33,6.73,18.83,10.36,28.14
	c2.29,5.86,2.71,12.02,3.01,18.06c0.74,14.98,0.77,29.99,1.14,44.99c0.06,2.58,0.24,5.19,0.68,7.74c1.04,6.04,2.33,12.03,3.39,18.07
	c1.43,8.17,2.7,16.37,4.12,24.54c0.42,2.43,1.13,4.8,1.81,7.65c3.13-2.53,5.87-4.53,8.35-6.81c3.81-3.5,7.3-7.34,11.17-10.77
	c8.17-7.26,17.77-12.98,24.09-22.25c2.96-4.35,6.27-8.51,8.75-13.12c4.98-9.24,5.3-19.39,4.56-29.58
	c-0.47-6.45-0.96-12.92-1.95-19.3c-1.03-6.56-2.73-13.02-4.04-19.54c-0.35-1.73-0.61-3.57-0.41-5.3c0.59-5.27,1.48-10.5,2.13-15.76
	c0.29-2.37,0.11-4.82,2.91-5.98c0.43-0.18,0.88-1.05,0.84-1.56c-0.21-2.44,1.1-3.64,3.04-4.81c2.89-1.74,2.98-4.23,0.58-6.7
	c-0.86-0.88-1.74-1.74-2.84-2.84c2.45-0.62,4.55-1.15,6.74-1.7c-1.82-4,0.65-8.43,4.19-8.37c4.46,0.06,6.57-1.86,6.46-6.29
	c-0.06-2.35-0.67-4.68-0.88-7.03c-0.08-0.85,0.02-2.22,0.52-2.52c3.18-1.88,3.4-5.1,4.5-8.13c1.24-3.43,3.13-6.59,3.04-10.39
	c0-0.08,0.17-0.15,0.2-0.25c1.05-3.32,2.69-6.59,3.02-9.99c0.74-7.43,4.55-10.97,12.01-10.31c1.71,0.15,3.46,0.09,5.18-0.06
	c9.03-0.79,18.05-1.56,27.06-2.51c3.07-0.32,6.11-1.04,9.13-1.75c2.48-0.58,5.46,0.38,7.25,2.49c2.85,3.36,5.71,6.72,8.64,10
	c2.37,2.66,2.6,5.24,0.31,8.05c-1.45,1.79-3.14,3.39-5.31,5.72c2.01,0,3.53,0.41,4.66-0.08c3.67-1.58,6.96-0.56,10.29,0.9
	c1.08,0.47,2.16,0.95,3.27,1.32c4.6,1.52,9.25,2.89,13.8,4.53c8,2.88,15.95,5.88,23.9,8.9c2.29,0.87,3.71,0.24,4.64-1.97
	c1.33-3.17,2.71-6.31,4.1-9.45c1.99-4.51,4.18-8.95,5.96-13.54c3.42-8.82,6.64-17.72,9.89-26.6c2.54-6.95,5.4-13.82,7.4-20.92
	c2.8-9.94,6.59-19.79,4.92-30.51c-0.5-3.19-0.38-6.46-0.73-9.68c-0.97-8.88-2.38-17.72-2.97-26.62
	c-0.77-11.49-0.68-22.99-2.67-34.43c-1.47-8.46-2.6-16.92-5.02-25.2c-1.86-6.38-5.62-10.24-12.01-11.53c-3.06-0.62-6.2-1.17-9.3-1.2
	c-12.17-0.13-22.82-3.69-31.14-12.97c-5.18-5.78-10.56-11.38-15.49-17.36c-6.47-7.87-12.54-16.07-18.87-24.07
	c-3.61-4.56-7.26-9.1-11.11-13.44c-5.94-6.68-11.78-13.49-18.2-19.69c-6.07-5.86-11.7-12.22-19.2-16.61
	c-6.84-4.01-13.03-9.13-19.58-13.64c-2.44-1.69-4.87-3.67-8.22-3.1c-0.38,0.06-0.82-0.26-1.24-0.34c-5.61-0.97-11.2-2.54-16.84-2.73
	c-6.52-0.22-13.08,0.86-19.63,1.22c-9.94,0.55-19.04,4.46-28.43,7.14c-5.33,1.52-10.28,4.37-15.47,6.44
	c-9.4,3.75-18.91,7.25-28.27,11.09c-5.18,2.12-10.37,4.37-15.18,7.19c-4.79,2.81-9.43,6.06-13.59,9.74
	c-4.77,4.23-9.49,8.64-12.88,14.19c-3.58,5.86-7.21,11.69-10.82,17.53c-3.39,5.49-6.68,11.05-10.22,16.44
	c-4.06,6.19-8.2,12.34-12.58,18.31c-4.35,5.94-9.49,11.23-12.25,18.36c-2.51,6.47-6.16,12.49-9.12,18.8
	c-2.13,4.55-4.08,9.2-5.85,13.91c-1.16,3.09-2,6.32-2.75,9.54c-1.64,7.02-3.17,14.06-4.67,21.11c-0.18,0.85,0.1,1.79,0.19,3.02
	c0.78-0.43,1.27-0.53,1.47-0.83c3.65-5.68,7.99-11.02,8.21-18.31c0.05-1.58,1.01-3.28,1.97-4.63c1.08-1.51,2.77-2.02,4.61-1.01
	c1.73,0.94,2.48,2.29,1.99,4.29c-0.59,2.4-1.55,4.83-1.54,7.24c0.02,7.7-1,15.25-2.57,22.75c-1.47,7.05-2.72,14.17-4.73,21.06
	c-1.65,5.66-3.8,11.15-5.4,16.87c-2.86,10.23-4.02,20.67-5.42,31.11c-0.29,2.13-0.72,4.26-0.87,6.4c-0.35,4.94-0.67,9.89-0.75,14.84
	c-0.02,1.05,0.78,2.57,1.67,3.1c2.5,1.49,6.27,0.28,8.15-2.38c1.51,2.36,3.75,3.08,6.4,2.99c1.18-0.04,2.36,0.25,3.54,0.31
	c6.78,0.33,13.65,1.45,20.31,0.7c5.12-0.58,9.99-0.82,14.98,0.2c0.31,0.06,0.66,0.11,0.97,0.05c1.76-0.34,2.95,0.35,4.28,1.56
	c1.42,1.3,3.21,2.63,5.53,1.32c0.51-0.28,1.51,0.01,2.15,0.32c4.06,1.95,8.24,3.06,12.79,2.19c0.58-0.11,1.29,0.08,1.86,0.32
	c4.03,1.74,8.23,3.19,11.99,5.39c4.45,2.61,10.76,2.48,13.04,8.45c0.06,0.17,0.32,0.28,0.51,0.38c2.66,1.34,5.3,2.72,7.99,3.99
	c1.73,0.82,2.86,3.06,2.31,5.17c-0.51,1.98-1.71,3.2-3.92,3.12C320.65,355.67,319.72,355.69,318.13,355.69z M471.1,590.73
	c0.14,0.11,0.29,0.23,0.43,0.34c0.83-1.26,1.79-2.45,2.46-3.78c0.95-1.89,1.59-3.93,2.51-5.83c2.54-5.2,5.16-10.35,7.75-15.52
	c1.3-2.59,2.54-5.21,3.93-7.75c2.03-3.71,4.37-7.25,6.19-11.05c2.02-4.23,3.66-8.65,5.37-13.03c1.85-4.75,3.62-9.53,5.36-14.32
	c0.44-1.2,0.46-2.58,0.98-3.73c2.37-5.17,4.79-10.33,7.32-15.43c3.49-7.03,6.98-14.06,10.66-20.98
	c5.76-10.83,12.03-21.43,15.68-33.23c2.22-7.18,4.17-14.47,5.86-21.79c1.08-4.68,0.38-4.98-4.28-5.71
	c-4.99-0.78-10.07-1.58-14.8-3.25c-6.49-2.3-12.89-5.04-18.95-8.29c-10.06-5.39-20.77-7.3-31.89-6.39
	c-5.91,0.48-10.98-0.79-16.05-3.47c-5.21-2.75-12.65-1.96-15.83,1.95c-2.17,2.66-4.64,3.84-7.85,4.49
	c-6.38,1.29-11.42,6.95-12.24,13.24c-0.08,0.62-0.18,1.59-0.56,1.77c-2.64,1.23-1.96,4.07-3.39,6.09c1.81,1.25,3.45,2.38,5.12,3.54
	c-1.34,3.5-1.78,6.92-0.1,10.38c0.3,0.62,0.07,1.49,0.13,2.23c0.52,6.59-0.24,13.17-0.06,19.79c0.28,10.52,1.61,21.16-1.01,31.58
	c-0.88,3.5-1.99,7.1-3.81,10.18c-3.2,5.43-6.89,10.59-10.62,15.69c-4.4,6.03-9.54,11.42-15.73,15.64
	c-5.88,4.02-10.47,9.33-14.83,14.78c-4.27,5.33-9.24,9.54-15.28,12.55c-4.28,2.13-7.03,0.25-7.46-4.5c-0.33-3.66-1.18-7.28-1.9-10.9
	c-0.42-2.11-1.21-4.16-1.52-6.28c-1.33-9.06-2.54-18.13-3.78-27.19c-0.98-7.14-2.33-14.26-2.84-21.44
	c-0.61-8.61-0.49-17.27-0.71-25.91c-0.16-5.93-0.06-11.89-0.64-17.78c-0.54-5.54-1.48-11.1-2.87-16.48
	c-1.15-4.44-3.15-8.66-4.91-12.93c-3.19-7.73-6.46-15.42-9.75-23.11c-0.16-0.38-0.85-0.53-1.45-0.89c-1.49,1.56-2.78,3.15-4.32,4.47
	c-2.74,2.35-3.03,3.38-2.25,6.71c1.64,7.02,3.27,14.05,4.6,21.13c1.45,7.71,2.61,15.48,3.8,23.24c0.26,1.69,0.25,3.45,0.18,5.17
	c-0.08,1.91-1.23,2.98-3.14,3.02c-1.84,0.04-3.17-0.88-3.49-2.73c-0.86-4.86-1.72-9.73-2.37-14.63c-0.65-4.91-0.82-9.89-1.62-14.77
	c-0.75-4.56-1.83-9.09-3.16-13.51c-0.95-3.16-2.4-3.31-5.02-1.28c-1.51,1.17-3.05,2.65-4.8,3.13c-7.95,2.17-16.04,3.34-24.33,2.64
	c-4.63-0.4-9.29-0.46-13.89-1.04c-3.72-0.47-7.4-1.36-11.04-2.3c-5.63-1.46-11.25-3.03-16.81-4.73c-3.89-1.19-7.71-2.63-11.51-4.09
	c-1.77-0.68-2.78-2.18-2.58-4.09c0.49-4.81,1.02-9.62,1.76-14.4c0.53-3.39,1.66-6.7,2.14-10.1c0.71-5,2.07-6.54,6.83-8.21
	c5.2-1.83,10.56-2.34,15.94-2.31c7,0.04,14,0.48,21,0.91c2.26,0.14,4.5,0.77,6.74,1.17c-6.52-6.75-6.52-6.75-6.98-9.71
	c1.56,0.91,2.77,1.69,4.06,2.33c0.82,0.41,2.09,1.14,2.57,0.83c2.18-1.42,4.09-0.44,6.18,0.07c3.19,0.78,4.1,0.2,4.82-2.05
	c-1.12-1.54-1.96-2.82-2.93-3.98c-0.89-1.06-1.77-2.28-2.93-2.94c-2.32-1.32-4.84-2.29-7.26-3.45c-3.07-1.48-6.05-3.2-9.21-4.47
	c-3.88-1.56-8-2.53-11.83-4.17c-7.23-3.11-14.35-6.31-22.28-7.41c-6.53-0.91-12.98-2.2-19.57-0.81c-2.86,0.6-3.95,1.84-3.18,4.51
	c1.26,4.43,2.59,8.91,4.56,13.05c2.12,4.44,5.1,8.47,7.55,12.77c0.71,1.26,1.26,2.85,1.21,4.26c-0.18,5.59-0.74,11.17-0.96,16.76
	c-0.31,7.97-0.46,15.95-0.6,23.93c-0.02,0.89,0.22,2.25,0.81,2.61c1.59,0.97,1.64,2.37,1.8,3.87c0.3,2.87,0.67,5.73,0.96,8.6
	c0.22,2.18-1.37,3.05-2.98,3.73c-1.72,0.73-2.86-0.13-3.68-1.66c-0.84-1.56-1.79-3.07-2.57-4.41c0.14-1.26,0.47-2.56,0.39-3.82
	c-0.44-6.65-1.03-13.29-1.47-19.95c-0.38-5.67-2.3-10.89-4.05-16.48c-1.16,1.34-1.86,2.52-2.88,3.21c-0.86,0.58-2.46,1.16-3.1,0.75
	c-1-0.64-2.1-2.15-2.05-3.23c0.32-6.87,1.01-13.72,1.44-20.58c0.23-3.63,0.77-7.34-1.44-10.68c-0.46-0.69-0.61-1.6-0.84-2.42
	c-0.56-1.97-1.09-3.96-1.63-5.94c-1.17,2.38-1.8,4.6-2.24,6.86c-1,5.16-1.99,10.33-2.83,15.52c-1.5,9.23-3.06,18.46-4.28,27.74
	c-0.67,5.13-0.8,10.33-0.99,15.51c-0.19,5.14-0.19,10.3-0.18,15.44c0.01,3.01,0.28,6.01,0.33,9.02c0.1,6.77-0.16,13.56,0.28,20.31
	c0.54,8.5,1.6,16.97,2.49,25.44c0.78,7.39,1.63,14.76,2.49,22.14c0.87,7.5,2.06,14.97,2.64,22.5c0.72,9.47,0.76,19,1.48,28.47
	c0.55,7.18,1.69,14.32,2.6,21.47c0.43,3.39,0.71,6.82,1.49,10.13c1.8,7.64,3.96,15.19,5.79,22.83c0.95,3.97,2,8.03,2.11,12.08
	c0.18,7.1,1.85,13.84,4.1,20.41c2.91,8.51,6.52,16.77,9.54,25.25c3.44,9.66,9.14,17.98,14.7,26.44c2.29,3.48,5.64,3.68,8.82,2.73
	c1.63-0.49,3.24-1.75,4.37-3.08c3.95-4.69,8.73-6.31,14.43-4.02c2.33,0.93,4.43,2.54,6.44,4.11c2.45,1.92,4.57,2.31,7.39,0.98
	c3.1-1.46,6.21-2.87,9.35-4.24c3.47-1.51,6.87-1.39,10.29,0.4c3.13,1.65,6.52,2.49,10.02,1.42c3.3-1.01,6.47-2.44,9.76-3.46
	c8.62-2.67,17.14-6.16,25.97-7.59c11.36-1.85,22.98-2.01,34.49-2.91c10.74-0.83,21.61-0.39,32.13-3.3
	c4.05-1.12,8.14-2.18,12.05-3.67c5.99-2.29,10.41-6.85,14.76-11.34c4.03-4.17,7.93-8.5,11.65-12.94c1.71-2.04,3.09-4.44,4.22-6.85
	c1.4-3,2.23-6.26,3.61-9.27c3.54-7.72,6.82-15.54,8.92-23.79C469.44,597.73,470.25,594.23,471.1,590.73z M568.22,367.38
	c-1.08-0.76-1.39-1.1-1.78-1.23c-4.98-1.75-9.93-3.56-14.95-5.16c-5.32-1.7-10.7-3.23-16.07-4.75c-4.95-1.4-9.9-2.8-14.91-3.94
	c-2.16-0.49-4.57-0.88-6.67-0.41c-6.37,1.43-12.69,3.16-18.94,5.05c-6.74,2.04-11.45,7.08-16.32,11.79
	c-0.87,0.84-1.62,1.82-2.42,2.73c1.46,0.43,2.61,0.4,3.71,0.13c3.35-0.82,6.64-2.18,10.03-2.53c7.13-0.72,11.9-4.1,14.6-10.76
	c0.83-2.05,2.68-3.47,5.24-2.83c2.85,0.71,5.43,2.05,6.12,5.12c0.58,2.56,0.52,5.27,0.77,8.15c0.28,0.22,0.73,0.78,1.31,0.99
	c6.68,2.36,13.29,4.99,20.11,6.89c4.78,1.33,6.59,2.91,6.45,7.88c-0.12,4.01,0.12,7.99,1.7,11.74c1.16,2.74,0.93,3.89-1.67,5.16
	c-1.33,0.65-2.91,1.24-4.33,1.15c-5.97-0.38-10.96,3.64-16.83,3.55c-0.11,0-0.23,0.32-0.59,0.83c1.01,0.57,1.93,1.26,2.97,1.64
	c6.29,2.34,12.72,3.94,19.51,3.97c3.8,0.02,4.31-0.34,5.61-3.87c2.15-5.82,4.41-11.61,6.83-17.32
	C561.08,383.37,564.66,375.47,568.22,367.38z M445.93,367.02c0.78,1.55,1.84,2.78,3.74,2.13c1.79-0.61,3.66-1.22,3.9-3.73
	c0.36-3.78,0.96-4.24,4.35-2.75c2.18,0.96,3.84,0.52,5.79-0.38c4-1.84,8-3.75,12.16-5.13c6.23-2.07,12.56-3.78,17.34-8.71
	c0.96-0.99,2.31-1.58,3.41-2.45c3.38-2.68,6.72-5.39,10.07-8.11c1.32-1.07,1.8-2.37,0.97-4c-2.62-5.17-8.16-8.05-14-7.41
	c-2.46,0.27-4.95,0.44-7.42,0.41c-5.62-0.08-11.23-0.26-16.32,2.76c-0.35,0.21-0.85,0.12-1.24,0.29c-3.06,1.3-6.11,2.62-9.16,3.95
	c-0.17,0.08-0.37,0.32-0.38,0.49c-0.24,2.95-2.44,4.07-4.91,5.01c0.18,0.55,0.19,1.07,0.45,1.32c2.42,2.35,0.68,3.97-0.94,5.61
	c-0.38,0.38-0.9,0.61-1.28,0.99c-1.96,1.93-2.64,6.05-1.12,8.26c1.18,1.72,0.93,2.65-0.91,3.49c-0.75,0.34-1.3,1.11-1.95,1.68
	c0.14,0.21,0.27,0.41,0.41,0.62c1,0.11,1.99,0.23,2.99,0.34C451.46,365.42,448.19,365.52,445.93,367.02z M267.32,372.9
	c-1.3-0.33-1.71-0.51-2.12-0.52c-6.04-0.11-12.09-0.36-18.12-0.2c-2.75,0.07-5.51,0.81-8.2,1.52c-3.41,0.9-5.08,3.45-5.58,6.84
	c-0.66,4.47-1.34,8.94-1.96,13.42c-0.6,4.36-0.57,4.36,3.44,6.15c0.49,0.22,1,0.4,1.53,0.53c5.13,1.25,10.31,2.34,15.39,3.78
	c4.96,1.41,9.7,3.41,15.03,3.55c4.5,0.11,8.98,0.95,13.46,1.58c10.61,1.5,20.44,0.28,28.34-7.88c0.58-0.6,1.57-1.42,1.46-1.96
	c-0.54-2.62-1.09-5.31-2.25-7.68c-0.6-1.24-2.47-1.85-3.66-2.67c-5.99,3.99-6.27,3.84-8.81,8.64c-1.89,3.56-4.8,5.77-8.02,7.61
	c-5.91,3.4-13.38,3.93-19.08-2.57c-2.6-2.96-4.61-6.44-6.74-9.78c-3.87-6.07-2.92-10.37,1.98-16.03
	C264.55,375.92,265.74,374.65,267.32,372.9z M196.69,245.64c-0.35-0.09-0.71-0.18-1.06-0.27c-0.38,0.47-0.88,0.9-1.13,1.43
	c-1.69,3.52-3.25,7.11-5,10.6c-1.62,3.24-3.54,6.32-5.12,9.58c-1.38,2.85-2.43,5.85-3.67,8.77c-1.88,4.42-3.97,8.76-5.61,13.27
	c-0.85,2.34-0.58,4.52,1.75,6.61c3.98,3.58,7.42,7.75,11.03,11.73c1.93,2.13,3.73,4.39,5.59,6.6c1.84-1.74,2.26-3.27,1.64-6.26
	c-1.07-5.17-1.95-10.29-1.63-15.65c0.51-8.61,0.4-17.25,0.84-25.86c0.23-4.5,1.09-8.96,1.63-13.44
	C196.24,250.37,196.45,248,196.69,245.64z M556.07,413.68c2.13-0.2,3.63-0.1,4.98-0.52c3.91-1.23,7.08-3.6,9.48-6.94
	c4.45-6.19,8.94-12.36,13.28-18.62c1.63-2.35,3.05-4.88,4.3-7.45c0.88-1.81,0.61-3.62-1.53-4.6c-3.33-1.52-6.64-3.1-10.02-4.52
	c-2-0.84-3.42-0.29-4.25,1.96c-1.38,3.73-2.91,7.42-4.57,11.04C563.46,393.4,559.42,402.86,556.07,413.68z M458.35,389.11
	c4.92,2.94,9.32,4.74,14.21,5.1c4.84,0.36,9.77,0.05,14.51,0.88c6.44,1.13,12.73,3.07,19.09,4.65c1.04,0.26,2.1,0.46,3.65,0.8
	c-0.37-1.05-0.4-1.54-0.66-1.8c-4.47-4.34-8.69-9-14.46-11.76c-3.81-1.82-4.26-4.29-1.34-7.31c0.65-0.68,1.52-1.3,2.41-1.57
	c2.09-0.64,2.05-1.81,0.99-3.97C483.28,376.64,469.64,378.43,458.35,389.11z M509.51,388.36c3.51,2.96,6.62,5.74,9.93,8.26
	c0.94,0.72,2.51,1.08,3.7,0.92c3.5-0.48,7-1.16,10.41-2.07c1.1-0.29,2.43-1.37,2.82-2.4c1.61-4.3-1.98-9.97-6.58-10.86
	c-0.72-0.14-1.37-0.59-2.07-0.84c-5.46-1.99-10.91-4-16.39-5.93c-2.01-0.71-3.56-0.26-3.89,2.29c0.77,0.51,1.54,1.11,2.39,1.57
	C515.61,382.45,515.72,384.52,509.51,388.36z M280.21,400.52c1.99-0.68,4.32-0.94,5.88-2.16c1.95-1.53,3.38-3.78,4.85-5.85
	c2.83-3.98,2.2-3.89-1.08-7.57c-0.41-0.46-1.09-0.68-1.6-1.07c-4.46-3.44-9.79-3.12-14.85-2.87c-6.27,0.3-7.6,2.87-5.4,8.77
	c0.15,0.4,0.15,0.86,0.33,1.25C270.65,395.91,274.69,400.7,280.21,400.52z M216.88,219.16c-2.62,3.8-5.05,7.46-7.62,11.01
	c-2.52,3.49-4.14,7.18-4.19,11.63c-0.08,6.47-0.64,12.93-0.79,19.41c-0.06,2.95,0.39,5.91,0.61,8.86c1.09-2.32,1.61-4.68,2.36-6.96
	c2.18-6.59,4.09-13.3,6.81-19.66c2.67-6.27,3.02-12.93,4.4-19.41C218.83,222.31,219.13,220.32,216.88,219.16z M282.88,337.07
	c0.82,1.26,1.63,2.14,2.04,3.19c2.63,6.81,8.76,7.11,14.6,7.87c0.6,0.08,1.94-0.89,1.89-1.1c-0.43-1.71-0.65-4.27-1.81-4.87
	C294.48,339.55,289.15,337.25,282.88,337.07z M304.22,365.57c1.23-0.73,3.13-1.2,3.79-2.37c2.01-3.54-0.01-6.83-4.08-7.17
	c-0.64-0.05-1.31-0.14-1.92,0c-0.87,0.2-2.26,0.42-2.42,0.94c-0.35,1.14-0.53,2.78,0.05,3.68
	C300.77,362.39,302.47,363.76,304.22,365.57z M459.3,379.71c4.58-4.31,9.16-8,12.6-12.99c-1.29-0.02-2.42,0.2-3.37,0.74
	c-2.43,1.36-4.79,2.85-7.16,4.31C457.12,374.36,457.13,374.37,459.3,379.71z M198.7,285.53c-1.27,7.69,0.12,15.26,1.28,22.84
	C201.04,300.69,200.73,293.08,198.7,285.53z M211.51,357.64c-1.38,4.97,1.64,8.52,2.74,13.26
	C216.14,365.37,214.91,359.67,211.51,357.64z M272.63,339.1c0.11-0.25,0.21-0.49,0.32-0.74c-2.42-3.71-8.13-5.73-11.38-3.51
	C265.22,336.25,268.93,337.68,272.63,339.1z M316.76,376.45c-0.17,1.83-0.5,3.21-0.35,4.52c0.11,0.89,0.72,2.03,1.45,2.44
	c0.56,0.31,2.13-0.1,2.4-0.62c0.35-0.68,0-1.85-0.32-2.72c-0.3-0.84-0.86-1.63-1.45-2.32C318.05,377.23,317.37,376.89,316.76,376.45
	z"/>
<path d="M311.13,617.48c-0.9-1.1-1.71-2.3-2.73-3.29c-1.74-1.69-1.7-3.56-1.01-5.65c0.74-2.24,2.48-2.84,4.55-2.9
	c8.3-0.25,16.6-0.58,24.9-0.66c2.19-0.02,4.4,0.68,6.58,1.16c4.09,0.9,8.23,1.65,12.21,2.89c4.66,1.44,9.71,1.79,13.82,4.94
	c2.85,2.18,3.44,5.05,1.24,7.94c-4.84,6.39-11.45,9.03-19.26,9.46c-2.07,0.11-4.28,0.76-6.1,1.75c-2.63,1.44-5.16,1.75-7.65,0.27
	c-3.2-1.9-6.53-2.63-10.2-2.43c-2.35,0.13-4.72,0.21-6.76-1.54c-0.66-0.57-1.82-0.65-2.78-0.75c-5.23-0.56-10.46-1.15-15.7-1.52
	c-2.96-0.21-4.08-0.86-4.24-3.19c-0.17-2.37,1.45-4.34,3.98-4.67c2.86-0.37,5.74-0.6,8.61-0.9
	C310.78,618.1,310.95,617.79,311.13,617.48z M352.14,620.02c-3.74-2.13-7.63-2.49-11.53-1.76c-0.91,0.17-1.74,1.71-2.2,2.8
	c-0.14,0.33,0.97,1.67,1.65,1.81C344.44,623.7,348.35,622.22,352.14,620.02z"/>
</svg>
