<?xml version="1.0" encoding="utf-8"?>
<!-- Generator: Adobe Illustrator 24.1.0, SVG Export Plug-In . SVG Version: 6.00 Build 0)  -->
<svg version="1.1" id="Layer_1" xmlns="http://www.w3.org/2000/svg" xmlns:xlink="http://www.w3.org/1999/xlink" x="0px" y="0px"
	 viewBox="0 0 1224 792" style="enable-background:new 0 0 1224 792;" xml:space="preserve">
<path d="M389.58,385.86c3.5-1.06,6.99-2.12,10.97-3.33c-0.78,4.36-2.81,5.07-10.97,4.92C389.58,386.92,389.58,386.39,389.58,385.86z
	"/>
<path d="M964.05,383.89c4.26,2.87,7.81,5.27,11.57,7.8c2.11-4.26-1.21-9.3,1.91-13.17c3.61,0.53,3.74,3.1,4.17,5.39
	c0.95,5.02,1.77,10.06,2.8,15.07c0.54,2.61,2.32,4.35,5.03,4.2c10.37-0.56,17.41,4.53,23.01,12.7c5.04,7.35,11.31,13.94,13.53,22.95
	c0.41,1.65,0.93,3.26,1.42,4.95c3.16,0.51,7.25-1.56,8.98,3.91c-1.2,2.61-2.72,5.65-4.01,8.78c-4.7,11.44-7.07,23.16-3.61,35.43
	c0.35,1.23,1.16,2.34,2.24,4.43c-0.78,1.29-1.63,3.29-3,4.81c-3.34,3.7-6.62,7.55-11.53,9.37c-0.86,0.32-1.65,1.11-2.5,1.15
	c-6.53,0.36-10.88,4.2-14.96,9.37c-0.19,0.81-0.48,2.09-0.62,2.71c-1.91,2.79-3.77,4.9-4.95,7.35c-2.71,5.64-7.6,9.23-11.93,13.35
	c-0.76,0.72-1.66,1.34-2.24,2.18c-4.77,6.9-13.29,8.07-19.15,2.26c-3.35-3.33-6.54-6.96-9.1-10.91c-1.71-2.64-2.2-6.07-3.24-9.15
	c-0.4-1.2-0.81-2.4-1.21-3.6c-0.45,0.05-0.89,0.1-1.34,0.15c-0.6,7.3-1.21,14.61-1.81,21.91c-0.45-0.1-0.9-0.21-1.34-0.31
	c-1.34,3.2-2.69,6.4-4.02,9.61c-4.34,10.42-8.82,20.78-12.95,31.28c-2.15,5.47-3.5,11.25-5.55,16.77c-1.03,2.77-2.27,5.86-4.36,7.77
	c-6.61,6.05-9.28,14.02-11.36,22.16c-2.29,9-5,17.85-10.32,25.44c-4.46,6.36-6.36,13.57-8.6,20.69c-1.69,5.39-4.4,9.94-7.84,14.44
	c-3.04,3.97-4.57,9.08-6.8,13.67c-1.77,3.66-3.53,7.32-5.39,10.94c-1.38,2.69-3.03,5.24-4.31,7.97c-2.97,6.37-8.19,10.88-12.6,16.1
	c-6.46,7.64-15.59,11.56-23.18,17.6c-4.48,3.56-10.65,5.06-16.13,7.29c-4.64,1.89-9.53,3.2-14.04,5.34
	c-4.13,1.95-7.76,4.96-11.89,6.94c-2.44,1.17-5.4,1.23-7.93,1.76c-2.91-4.34-0.73-7.21,1.2-9.69c1.57-2.02,3.96-3.43,6.05-5.02
	c1.34-1.02,2.79-1.88,4.19-2.82c-0.32-0.48-0.64-0.96-0.96-1.43c-1.45,0-2.99-0.3-4.35,0.05c-7.39,1.93-14.19,1.01-21.03-2.61
	c-7.56-4-15.81-6.74-23.28-10.89c-5.69-3.16-10.82-7.44-15.86-11.64c-7.37-6.14-14.37-12.72-21.64-18.98
	c-2.38-2.04-5.19-3.03-8.48-1.86c-2.88,1.03-5.5,0.29-7.57-1.98c-3.53-3.87-7.95-6.22-12.64-8.54c-8.5-4.2-16.53-9.34-24.83-13.96
	c-2.26-1.26-4.71-2.3-7.2-3c-5.85-1.65-10.39-5.03-13.96-9.83c-5.08-6.84-10.75-13.11-18.3-17.25c-2.3-1.26-5.09-1.93-7.72-2.19
	c-4.95-0.49-6-1.42-5.42-6.42c0.29-2.47,0.35-5.13,1.36-7.32c1.6-3.47,4.31-6.02,9.08-5.96c-8.35-10-15.9-20.18-21.02-31.85
	c-5.11-11.65-9.83-23.46-15.1-35.03c-0.53-1.6-1.01-3.22-1.59-4.8c-4.35-11.79-8.66-23.59-13.11-35.34
	c-1.61-4.27-3.86-8.31-5.27-12.64c-1.66-5.07-2.71-10.34-4.04-15.52c-1.27-4.97-2.33-10-3.88-14.88c-2.3-7.26-4.71-14.5-7.51-21.57
	c-3.17-7.99-4.96-16.73-11.84-22.89c-1.24-1.11-1.78-3.14-2.35-4.84c-0.62-1.85-1.24-3.22-3.42-2.13c-0.17,0.41-0.41,0.7-0.35,0.89
	c3.49,11.37-4.56,13.81-14.22,14.55c-7.33,0.56-11.61-3.68-15.37-9.16c-2.44-3.55-5.88-6.49-7.9-10.23
	c-2.19-4.07-3.81-8.65-4.69-13.19c-1.32-6.83-2.71-13.5-7.7-18.69c-2.36-2.45-4.77-5.11-7.69-6.69
	c-5.79-3.13-10.03-7.59-13.45-13.03c-1.14-1.81-2.2-3.66-3.3-5.49c-0.41,0.4-0.83,0.8-1.24,1.21c-3.28-9.02-6.4-18.1-9.9-27.03
	c-1.54-3.94-1.39-7.7-0.55-11.63c0.55-2.57,1-5.15,1.53-7.9c-1.66-1.17-3.15-2.21-5.45-3.82c1.72-8.43,8.37-13.61,14.02-19.25
	c6.92-6.92,15.35-4.34,22.77-2.27c3.85-2.1,2.85-7.68,7.91-7.7c2.49,0.59,3.62,2.48,3.84,5.1c0.27,3.15,0.79,6.31,0.78,9.46
	c-0.03,9.26,4.25,16.95,8.78,24.51c1.45,2.42,3.68,4.36,5.74,6.73c-6.8,8.61-8.31,18.75-8.01,28.95c-5.36,2.7-7.42,1.58-7.99-3.54
	c-1.05-9.43-2.21-18.85-3.34-28.27c-0.05-0.39-0.16-0.78-0.24-1.16c-1.68-8.08-5.87-9.82-11.42-6.13
	c-6.57-0.55-11.93-1.01-17.08-1.44c-4.15,6.7-3.08,13.09-2.09,19.23c0.77,4.74,2.71,9.3,4.12,13.94c0.23,0.75,0.21,1.7,0.67,2.25
	c6.49,7.78,10.33,17.6,20.02,22.94c8.69,4.78,14.01,13.01,17.02,22.48c0.94,2.97,1.16,6.15,1.85,9.21
	c1.88,8.29,7.67,14.31,12.42,20.89c2.23,3.08,7.51,3.06,11.09,0.36c1.52-4.95-6.5-7.79-2.26-13.28c-2.02-1.38-3.76-2.15-4.92-3.45
	c-1.94-2.17-4.47-4.46-5.03-7.07c-1.35-6.29,2.27-9.55,8.64-8.34c5.43,1.03,10.8,2.43,16.21,3.57c1.65,0.35,3.38,0.48,5.07,0.47
	c3.56-0.03,5.6,1.52,6.5,5.04c0.29,1.12,0.45,2.58,1.22,3.22c6.78,5.6,7.99,13.73,9.7,21.51c2.44,11.05,4.33,22.22,6.64,33.31
	c0.41,1.99,1.73,3.79,2.04,5.84c1.82,5.69,3.76,11.35,5.42,17.09c1.27,4.39,2.02,8.93,3.31,13.32c3.37,11.46,6.63,22.96,10.45,34.27
	c3.96,11.71,8.3,23.31,12.92,34.78c4.22,10.47,8.66,20.88,13.74,30.94c2.51,4.97,6.72,9.07,10.07,13.64
	c5.05,6.88,9.66,14.12,15.12,20.65c4,4.78,8.54,9.5,13.77,12.77c8.18,5.11,15.15,11.15,21.39,18.48c4.39,5.16,10,9.32,15.26,13.68
	c1.32,1.09,3.37,1.42,5.15,1.82c5.49,1.21,10.63,3.11,15.03,6.75c1,0.83,2.28,1.31,3.39,2.01c4.87,3.05,9.86,5.93,14.54,9.25
	c4.49,3.19,8.81,6.67,12.9,10.36c3.59,3.23,6.55,7.16,10.17,10.35c2.92,2.58,6.19,4.95,9.67,6.69c8.36,4.18,16.83,8.21,25.46,11.79
	c8.17,3.4,15.93,2.56,22.21-6.24c3.28-4.6,7.17-8.79,11.02-12.94c1.27-1.37,3.19-2.37,5.01-2.98c4.22-1.42,6.96,0.99,6.58,5.45
	c-0.69,8.1-4.64,14.4-10.62,19.65c-1.5,1.32-2.76,2.89-4.13,4.35c0.2,0.38,0.4,0.76,0.6,1.14c1.5,0,3.16,0.44,4.46-0.07
	c7.69-3.01,15.67-5.49,22.02-11.21c1.84-1.66,4.07-2.89,6.15-4.27c9.34-6.22,17.31-13.82,22.76-23.69
	c5.98-10.82,10.86-22.32,17.56-32.66c5-7.72,7.59-16.11,10.97-24.37c2.33-5.7,5.19-11.28,8.52-16.45
	c4.84-7.51,5.83-16.28,9.04-24.28c2.33-5.81,5.14-11.61,8.77-16.69c3.71-5.2,5.79-10.67,7.46-16.74c1.93-7.05,5.25-13.72,7.97-20.56
	c0.05-0.12,0.14-0.23,0.18-0.35c4.29-11.28,9.36-22.33,12.59-33.91c2.45-8.75,2.54-18.16,3.83-28.44c-1.94,0.91-3.57,1.25-4.59,2.22
	c-3.65,3.46-7.98,4.72-12.88,5.36c-7.17,0.94-14.24,2.56-21.19,3.86c-1.68,3.35,0.72,7.82-5.27,9.78c-1.25-0.54-4.46-0.96-5.85-2.78
	c-1.35-1.76-0.83-4.96-1.21-8.26c-4.69,0.21-9.24,0.52-13.8,0.57c-1.74,0.02-3.48-0.65-5.24-0.86c-3.58-0.42-7.26-1.37-10.75-0.92
	c-4.77,0.61-7.42-0.88-7.66-5.81c-0.11-2.21-0.02-4.43-0.02-6.92c-2.94-0.51-7.06,1.22-8.69-4.3c0.89-0.86,1.9-2.48,3.34-3.1
	c6.85-2.96,13.22-6.4,18.14-12.3c3.8-4.56,8.97-6.54,15.03-6.75c3.48-0.12,7.01-1.08,10.36-2.18c3.19-1.04,5.89-0.67,7.84,1.88
	c2.41,3.14,5.41,3.38,8.85,2.78c6.88-1.19,13.78-2.3,20.65-3.56c2.84-0.52,5.1,0.16,7.27,2.06c3.75,3.29,7.59,6.49,11.55,9.52
	c2.47,1.88,3.62,4.03,4.22,7.17c0.87,4.6,2.6,9.08,4.4,13.44c0.56,1.36,2.51,2.14,4.58,3.8c3.12,7.9,6.71,16.68,13.89,23.83
	c5.35-3.03,9.96-6.88,13.29-11.99c2.13-3.27,3.35-7.11,5.38-10.46c3.55-5.86,8.65-9.84,15.45-11.46c1.91-0.46,3.89-0.92,5.63-1.79
	c6.28-3.15,7.22-5.34,6.59-12.32c-0.34-3.78-0.1-7.62-0.07-11.44c0.01-1.67,0.17-3.34,0.26-5.01c-0.35-0.19-0.69-0.39-1.04-0.58
	c-1.32,1.6-2.48,3.39-4,4.77c-2.75,2.5-5.47,5.24-8.69,6.97c-2.79,1.5-5.65-0.97-5.21-4.26c0.27-1.99,1.25-4,2.34-5.75
	c3.17-5.12,7.19-9.82,9.7-15.22c3.27-7.06,7.75-14.63,4.1-22.59c-3.64-7.94-8.42-15.45-13.4-22.67c-3.47-5.02-8.66-5.63-14.8-3.59
	c-3.11,1.03-6.41,1.47-9.6,2.27c-5.76,1.45-10.32,4.39-13.11,9.93c-2.07,4.1-4.49,4.56-8.9,2.32c-3.28-5.6,4.75-9.71,1.66-16.16
	c-5.32-0.19-11.22-0.88-17.03-0.48c-6.39,0.44-12.8,1.54-19.02,3.07c-2.89,0.71-5.71,2.76-7.97,4.84
	c-7.1,6.56-14.73,12.14-23.33,16.72c-11.06,5.89-19.94,14.56-27.19,24.86c-5.8,8.25-12.25,15.95-21.44,20.66
	c-4.18,2.15-5.9,5.46-5.95,9.89c-0.04,3.04-0.26,6.12,0.15,9.1c1.07,7.63-0.23,14.87-2.3,22.2c-2.08,7.35-3.46,14.91-5.12,22.38
	c-2.04,9.17-3.16,18.29-1.72,27.8c1.09,7.21,0.63,14.65,0.84,21.99c0.02,0.52-0.03,1.08-0.19,1.57c-2.76,8.36-5.44,16.75-8.36,25.06
	c-1.15,3.27-3.85,4.48-7.27,4.13c-2.52-1.79-2.06-3.62-0.94-6.17c1.97-4.51,3.38-9.27,4.83-13.99c0.7-2.27,0.94-4.69,1.39-7.04
	c-0.37-0.12-0.74-0.24-1.1-0.36c-0.44,0.95-0.9,1.9-1.31,2.86c-1.74,4.09-2.89,8.57-5.32,12.19c-3.19,4.74-3.19,9.61-2.65,14.78
	c0.18,1.7,0.54,3.39,0.79,5.08c0.69,4.64-1.55,7.17-6.12,7.7c-6.9,0.79-13.79,1.73-20.62,2.99c-5.44,1-7.16,0.34-9.23-5.1
	c-6.02,2.77-9.81-0.96-13.52-4.91c-0.63-0.67-1.2-1.55-1.99-1.91c-6.37-2.87-7.27-8.74-8.25-14.62c-1.58-9.45-3.11-18.92-4.84-28.35
	c-2.6-14.22-5.05-28.47-8.2-42.57c-1.29-5.81-1.69-11.04-0.19-16.95c1.51-5.97-1.84-19.09-8.7-25.35c-0.1-0.35-0.32-0.74-0.29-1.11
	c0.64-8.74-2.99-16.8-4.02-25.1c-1.02-8.22-5.34-16.13-3.26-24.79c0.38-1.59-0.48-3.48-0.77-5.24c-0.31,0.2-0.61,0.41-0.92,0.61
	c-2.97-1.96-5.93-3.92-8.52-5.63c0-2.42,0-3.85,0-5.77c-1.28-0.19-2.51-0.42-3.75-0.54c-1.31-0.13-2.77,0.2-3.92-0.28
	c-7.33-3.03-15.14-1.66-22.69-2.61c-7.17-0.9-13.83,1.43-20.39,4.03c-2.19,0.87-4.54,1.88-6.81,1.85c-4.49-0.05-7.67,2.14-10.96,4.7
	c-2.72,2.12-5.74,3.92-10.4,4.3c3.15-5.73,6.77-9.77,11.25-12.55c3.46-2.14,7.8-2.87,11.76-4.21c2.1-0.71,4.21-1.39,6.32-2.07
	c5.71-1.84,11.42-3.68,18.13-5.84c-25.1-12.86-51.63-19.89-78.17-27.31c-3.26,5.83-8.13,4.56-12.85,3.9
	c-8.47-1.18-16.92-2.53-25.41-3.44c-3.97-0.42-6.76-1.86-7.98-5.12c-13.65-1.99-27.01-3.93-40.14-5.85
	c-2.14-6.8,1.27-13.66-2.96-19.95c-3.42,3.19-6.35,7.19-11.41,5.87c-1.51-0.39-2.64-2.2-3.95-3.36c0.41-0.13,0.82-0.25,1.22-0.38
	c0.51-5.3,1-10.61,1.56-15.9c0.14-1.29,0.18-2.79,0.86-3.79c2.28-3.34,2.4-7.07,3.02-10.87c0.7-4.28,2.9-8.3,4.28-12.49
	c3.26-9.88,6.75-19.71,9.54-29.73c3.92-14.08,7.39-28.29,10.85-42.49c5.76-23.66,9.66-47.53,7.38-72.03
	c-0.35-3.8-0.04-7.67-0.51-11.44c-1.09-8.78,2.03-16.89,3.55-25.26c0.37-2.06,0.5-4.16,0.77-6.59c-4.62-2.03-9.27-1.79-13.96-1.1
	c-1.96,0.28-3.88,0.87-5.84,0.97c-2.82,0.14-3.46-0.47-4.87-3.8c0.65-0.5,1.27-1.33,2.06-1.54c6.34-1.69,12.66-3.6,19.11-4.72
	c3.29-0.57,6.14-1.18,8.25-3.9c1.84-2.38,4.15-2.85,7.06-1.97c1.37,0.42,3.3,0.4,4.51-0.27c12.93-7.13,26.69-8.7,41.09-6.68
	c11.87,1.66,23.73,0.91,35.56-0.47c10.48-1.22,20.92-2.84,31.43-3.65c12.25-0.94,24.42-0.6,36.44,2.98c7.67,2.29,15.8,3,23.58,4.99
	c8.92,2.29,17.84,4.8,26.48,7.97c11.83,4.34,23.83,3.37,36,2.97c10.07-0.33,20.16-2.33,30.31,0.11c3.63,0.87,7.62,0.12,11.41,0.46
	c4.93,0.44,9.82,1.29,14.74,1.86c4.96,0.57,9.93,1.37,14.9,1.43c9.92,0.12,19.71,0.55,29.4,3.14c4.76,1.27,8.13,4.01,10.57,7.75
	c6.76,10.38,12.99,21.06,16.83,32.97c3.72,11.54,8.39,22.81,11.39,34.52c4.58,17.85,8.14,35.97,11.99,54.01
	c0.68,3.2,1.12,6.59,0.89,9.84c-0.76,10.79,1.93,20.99,5.03,31.1c2.03,6.63,4.81,13.04,7.02,19.62c0.7,2.07,0.4,4.46,0.98,6.59
	c2.99,11.06,6.09,22.09,9.21,33.11C960.1,370.49,962.15,377.36,964.05,383.89z M844.03,413.26c-0.13-0.1-0.48-0.55-0.93-0.73
	c-1.93-0.74-4.12-1.66-3.34-4.07c0.52-1.62,2.12-3.11,3.6-4.14c2.04-1.41,4.38-2.42,6.66-3.43c1.42-0.63,2.97-1.35,4.46-1.33
	c4.28,0.04,8.58,0.82,12.83,0.59c10.79-0.58,21.32,1.18,31.89,2.8c7.24,1.11,14.07,1.03,21.09-2.56c8.51-4.35,17.75-7.28,26.73-10.7
	c2.77-1.05,5.71-1.67,8.73-2.53c-0.11-1.85-0.01-3.19-0.3-4.43c-3.13-13.05-5.96-26.18-9.62-39.08
	c-3.38-11.9-7.98-23.45-11.49-35.31c-2.34-7.93-4.75-16.07-5.29-24.24c-0.87-13.14-1.11-26.2-4.54-39.11
	c-4.28-16.12-6.06-32.89-12.59-48.45c-0.3-0.72-0.38-1.54-0.62-2.29c-2.45-7.79-4.52-15.72-7.48-23.31
	c-2.52-6.48-6.27-12.47-9.08-18.85c-3.19-7.25-8.64-11.18-16.16-13.22c-7.76-2.11-15.56-2.16-23.49-2.5
	c-15.01-0.65-29.96-2.71-44.97-3.48c-11.17-0.57-22.4,0.02-33.61-0.03c-8.09-0.03-15.79,2.28-24.3-1.47
	c-17.45-7.71-35.66-13.69-54.91-15.6c-9.56-0.95-19.1-3.2-28.63-3.06c-12.72,0.19-25.44,1.84-38.1,3.38
	c-12.52,1.52-25.01,2.08-37.53,0.62c-8.8-1.02-17.52-0.99-25.82,2.1c-6.4,2.38-12.4,5.81-18.59,8.77c0.13,0.46,0.27,0.91,0.4,1.37
	c1.51,0.25,3.01,0.55,4.52,0.75c6.14,0.82,12.35,1.31,18.42,2.51c4.46,0.88,5.64,3.87,4.09,8.07c-0.86,2.34-1.67,4.71-2.38,7.1
	c-1.81,6.09-4.05,8.06-10.37,8.37c-2.47,0.12-5.01-0.13-7.44-0.62c-3.86-0.77-7.66-1.88-12.22-3.03c-0.98,2.1-2.46,4.2-2.91,6.51
	c-0.73,3.74-0.98,7.6-1.1,11.42c-0.33,10.93-0.16,21.89-0.82,32.79c-0.49,8.11-1.82,16.18-3.05,24.23
	c-1.08,7.02-2.33,14.03-3.91,20.95c-2.2,9.62-4.71,19.16-7.23,28.7c-2.92,11.05-6.03,22.05-8.98,33.09
	c-1.39,5.19-3.71,10.43-3.65,15.62c0.08,7.71,1.83,15.41,3.02,23.09c0.59,3.82,1.51,7.58,2.28,11.33c0.8,0.04,1.21,0.16,1.56,0.06
	c6.32-1.78,6.32-1.64,9.83,3.72c1.37,2.1,3.24,4.41,5.42,5.31c2.66,1.1,5.9,0.78,8.89,1.13c2.73,0.32,5.53,0.41,8.16,1.12
	c5.59,1.51,11.04,3.51,16.62,5.03c8.77,2.39,17.66,4.36,26.39,6.87c7.98,2.3,15.81,5.09,23.71,7.66
	c10.38,3.39,20.82,6.58,31.1,10.23c9.06,3.22,17.93,6.99,26.91,10.47c4.76,1.85,9.93,2.98,14.22,5.57
	c5.46,3.29,10.93,4.61,17.22,4.5c6.73-0.11,13.01,1.46,17.5,7.42c1.86,2.47,4.41,4.7,7.11,6.2c5.77,3.21,10.56,7.21,14.02,12.92
	c2.62,4.33,2.96,9.05,3.97,14.35c-8.3,3.43-14.07-2.12-20.59-4.87c-2.06,3.79-0.46,7.22,0.26,10.59c1.22,5.74,2.74,11.41,3.99,17.14
	c0.56,2.56,0.37,5.34,1.23,7.77c2.43,6.92,5.65,13.59,7.72,20.61c1.3,4.4,1.42,9.24,1.52,13.89c0.12,5.51-1.25,11.16-0.41,16.51
	c2.18,14.01,5.22,27.89,7.9,41.83c0.99,5.17,1.92,10.36,2.92,15.53c1.04,5.41,2.02,10.84,3.28,16.2c0.35,1.49,1.6,2.77,2.81,4.75
	c1.01-1.55,1.54-2.39,2.09-3.21c2.49-3.79,5.43-4.21,8.99-1.37c4.4,3.51,9.11,6.68,13.18,10.52c4.07,3.84,7.85,2.35,12.44,0.62
	c0-1.89-0.03-3.72,0-5.54c0.12-6.6,1.87-12.66,5.5-18.25c1.62-2.49,2.83-5.28,3.96-8.04c2.29-5.58,3.79-11.5,8.49-15.87
	c1.14-1.06,1.6-3.24,1.73-4.96c0.37-5.11,0.51-10.25,0.56-15.38c0.13-13.23,5.52-25.41,7.61-38.24c1-6.1,2.47-12.21,2.63-18.34
	c0.3-11.39,0.24-22.71,3.82-33.76c1.25-3.86,1.09-8.18,1.57-12.29c-0.43,0.07-0.86,0.14-1.29,0.2c-1.96-2.12-3.93-4.24-6.46-6.97
	c2.45-1.9,3.99-3.52,5.87-4.46c3.18-1.58,5.35-3.57,5.83-7.33c0.45-3.52,1.2-7.02,2.13-10.44
	C840.65,423.96,842.36,418.75,844.03,413.26z M846.97,435.45c2.64-0.97,4.83-1.37,6.57-2.48c9.57-6.15,19.53-11.32,30.44-14.85
	c4.55-1.47,8.46-4.93,12.65-7.48c-1.42-1.26-2.61-1.7-3.84-1.95c-11.25-2.22-22.56-1.5-33.83-0.25c-1.54,0.17-3.3,1.6-4.27,2.94
	c-1.43,1.98-2.11,4.47-3.33,6.62C848.5,423.03,847.05,428.39,846.97,435.45z M926.97,488.2c-7.22,1.08-14.1,2.01-20.92,3.2
	c-1.38,0.24-3.22,1.21-3.77,2.36c-2.87,6.06-2.14,12.45-1.49,18.74c13.41,2.07,30.19-5.28,36.08-15.57
	C933.52,493.97,930.14,490.99,926.97,488.2z M888.64,491.36c-2.21,0.14-4.04-0.14-5.57,0.42c-5.66,2.07-11.32,4.21-16.8,6.71
	c-4.61,2.11-6.38,7.09-4.68,13.22c8.94-2.4,17.74,3.64,27.59,0.64C888.14,505.46,892.01,498.66,888.64,491.36z M885.11,429.76
	c-3.48-1.58-6.04-0.78-8.43,0.67c-7.19,4.37-14.47,8.61-21.45,13.29c-4.69,3.15-8.84,6.79-9.58,13.25
	c-0.47,4.06-2.45,7.94-3.63,11.93c-0.29,0.99-0.14,2.11-0.24,4.01c1.93-1.09,3.28-1.49,4.09-2.39c3.45-3.77,7.3-7.34,9.98-11.63
	c6.75-10.8,14.89-20.03,26.06-26.39C882.94,431.9,883.77,430.92,885.11,429.76z M547.21,135.48c-1.61,4.66-1.68,8.55,1.94,11.12
	c4,2.83,8.82,4.01,13.51,2.2c4.35-1.68,3.12-6.41,4.74-10.16C560.82,134.41,553.95,135.96,547.21,135.48z M454.57,326.61
	c-1.17-3.27-3.93-3.02-6.26-3.22c-2.36-0.21-3.95,1.05-4.53,3.4C446.84,329.23,450.42,329.21,454.57,326.61z M958.11,396.28
	c-3.03,1-5.51,1.82-7.98,2.64c0.1,0.49,0.21,0.99,0.31,1.48c2.84,0,5.68,0,8.92,0C958.96,399.11,958.68,398.17,958.11,396.28z"/>
<path d="M695.97,494.42c-3.39,4.64-5.79,10.17-12.34,11.78c-7.54,1.86-15.04,3.95-22.89,3.43c-2.03-0.13-4.18-0.74-5.98-1.69
	c-4.84-2.55-9.84-3.84-15.26-2.7c-6.54,1.38-12.27,0.34-16.94-4.86c-1.01-1.12-2.74-1.56-3.96-2.55c-4.05-3.27-8.4-6.3-11.86-10.12
	c-2.07-2.29-0.9-6,1.27-7.97c6.06-5.51,11.75-11.75,20.83-12.5c2.99-0.25,5.88-1.63,8.81-2.49c-0.02-0.59-0.04-1.18-0.06-1.77
	c-2.57-0.42-5.16-1.27-7.72-1.18c-4.77,0.18-9.48,0.68-13.97-1.61c-1.13-0.58-2.55-0.62-3.85-0.85c-7.69-1.39-10.2-0.01-12.98,7.25
	c-0.79,2.06-1.62,3.89-5.16,3.67c0.28-2.11,0.58-4.05,0.78-6c0.17-1.62,0.71-3.41,0.25-4.86c-1.23-3.88-0.83-5.37,2.68-7.44
	c4.72-2.78,9.71-2.25,14.61-0.97c5.75,1.51,11.35,2.35,17.45,2.07c5-0.23,10.34,1.68,15.13,3.63c6.45,2.62,12.42,6.41,18.78,9.27
	c2.92,1.32,6.26,2.02,9.48,2.32c10.73,1.01,19.5,9.12,20.99,19.72c0.27,1.92,0.84,3.8,1.27,5.69
	C695.55,493.95,695.76,494.19,695.97,494.42z M643.9,486.12c-2.86-2.63-3.76-6.22-0.22-10.75c-1.67-0.79-3.19-2.18-4.24-1.89
	c-8.04,2.22-17.77,0.71-23,10.86c-0.02,2.22,2.09,3.9,4.38,5.53c2.62,1.87,5.39,3.6,7.74,5.77c3.51,3.26,9.44,4.51,13.4,2
	c1.05-0.67,1.66-2.52,1.86-3.91C644.13,491.59,643.9,489.37,643.9,486.12z M662.62,492.21c-1.26,2.31-2.82,5.15-4.87,8.9
	c2.84,0.47,5.27,1.46,7.48,1.11c4.78-0.76,9.51-2.02,14.15-3.44c3.99-1.22,5.02-3.36,4.57-7.45c-0.17-1.55-0.03-3.14-0.03-5.38
	c-1.67-2.07-3.63-4.51-5.6-6.95c0.5,6.93-0.17,8.49-6.56,11.22C669.1,491.36,666.02,491.51,662.62,492.21z M673.51,478.64
	c-0.09-0.43-0.18-0.86-0.27-1.3c-3.8-0.51-7.59-1.01-11.39-1.52c-0.1,0.39-0.21,0.78-0.31,1.17c2.21,1.29,4.41,2.58,6.92,4.05
	C670.15,480.24,671.83,479.44,673.51,478.64z"/>
<path d="M781.33,677.8c0.38,0,0.99-0.19,1.4,0.03c6.98,3.73,14.13,1.66,21.25,0.7c0.91-0.12,1.89-0.44,2.74-0.25
	c6.9,1.48,13.92,2.63,20.57,4.87c2.07,0.7,4.02,4.3,4.4,6.81c0.44,2.91-2.43,4.62-5.14,5.78c-1.9,0.81-3.97,1.61-5.44,2.98
	c-2.49,2.32-5.29,2.96-8.38,2.42c-4.07-0.71-7.79-0.28-11.45,1.77c-3.11,1.74-7.12,0.79-9.97-1.42c-1.41-1.1-3.45-2.15-5.1-2.02
	c-3.07,0.24-5.54-0.58-7.55-2.62c-3.05-3.09-6.58-3.47-10.53-2.52c-1.15,0.28-2.33,0.53-3.51,0.58c-2.35,0.1-5.14-0.3-5.15-2.98
	c-0.01-1.73,1.76-4.07,3.39-5.08c2.41-1.49,5.39-2.05,8.14-2.97C777.22,681.79,777.22,681.8,781.33,677.8z"/>
<path d="M595.16,527.81c3.55-3.99,5.76-2.42,8.8-0.07c-1.33,1.16-2.53,3.01-3.48,2.88C598.78,530.4,597.23,528.99,595.16,527.81z"/>
<path d="M730.94,244.86c-0.66,2.11-1.02,3.25-1.49,4.72c-1.56-0.29-2.76-0.51-4.2-0.78c0-1.52,0-2.71,0-4.55
	C727.14,244.45,728.64,244.61,730.94,244.86z"/>
</svg>
