<?xml version="1.0" encoding="utf-8"?>
<!-- Generator: Adobe Illustrator 24.1.0, SVG Export Plug-In . SVG Version: 6.00 Build 0)  -->
<svg version="1.1" id="Layer_1" xmlns="http://www.w3.org/2000/svg" xmlns:xlink="http://www.w3.org/1999/xlink" x="0px" y="0px"
	 viewBox="0 0 1224 792" style="enable-background:new 0 0 1224 792;" xml:space="preserve">
<path d="M660.81,781.77c0.78-1.29,1.53-2.6,2.35-3.86c3.85-5.86,7.75-11.69,11.58-17.57c2.34-3.58,4.51-7.27,6.9-10.82
	c1.27-1.88,1.84-3.82,1.68-6.1c-0.12-1.74-0.02-3.49-0.02-5.69c0.88,0.58,1.33,0.97,1.83,1.2c1.8,0.82,3.52-0.45,3.59-2.55
	c0.02-0.74,0.11-1.58,0.47-2.19c1.31-2.27,2.87-4.38,4.09-6.7c0.64-1.21,0.63-2.79,1.14-4.09c1.55-3.94,3.33-7.79,4.79-11.76
	c1.19-3.24,2.05-6.61,3.05-9.92c0.12-0.39,0.14-0.83,0.31-1.19c2.05-4.33,4.14-8.63,6.15-12.98c0.59-1.28,0.9-2.7,1.42-4.01
	c0.72-1.79,1.54-3.54,2.29-5.32c0.2-0.47,0.37-0.98,0.41-1.48c0.18-2.76,0.31-5.52,0.48-8.53c2.02-0.21,2.83-1.78,3.13-4.03
	c0.31-2.24,0.96-4.42,1.48-6.77c-0.18-0.23-0.39-0.58-0.67-0.86c-1.01-1.02-0.88-1.81,0.14-2.84c1.97-2,3.04-4.16,2.13-7.41
	c-0.55-1.96,0.31-4.39,0.73-6.57c0.08-0.4,1.1-0.61,1.78-0.95c1.17-3.74,1.57-7.71,1.55-11.79c-0.01-1.88,0.76-3.76,1.22-5.63
	c0.06-0.24,0.36-0.57,0.57-0.58c2.79-0.18,2.24-2.7,2.78-4.41c0.52-1.66,0.62-3.5,1.34-5.03c1.53-3.23,2.22-6.61,2.27-10.15
	c0.08-5.51-0.01-11.02,0.04-16.52c0.03-3.48-0.75-6.75-1.91-9.99c-0.44-1.22-0.52-2.63-0.5-3.96c0.03-2.77,2.27-4.2,4.7-3.1
	c0.62,0.28,1.19,0.68,2.19,1.27c0.51-2.17,0.81-4.17,1.45-6.04c1.46-4.24,0.58-9.05,3.01-13.08c0.52-0.87,0.47-2.2,0.47-3.32
	c0.05-9.56-0.03-19.12,0.09-28.68c0.05-4.13,0.46-8.25,0.7-12.38c0.11-1.95,0.05-3.92,0.34-5.84c1-6.75,2.96-13.2,5.46-19.49
	c0.75-1.89,1.33-3.92,1.61-5.94c0.39-2.84,0.3-5.68,1.11-8.55c0.95-3.4,0.96-7.09,1.41-10.65c0.09-0.7,0.32-1.4,0.57-2.07
	c1.12-3.02-0.08-5.5-3.17-6.22c-1.33-0.31-2.74-0.35-4.11-0.36c-1.79-0.01-1.79,0.06-3.28,2.02c-2.04-0.52-2.76-0.3-2.91,1.55
	c-0.22,2.59-1.45,3.93-3.7,4.57c-0.42,0.12-0.87,0.52-1.09,0.92c-0.85,1.51-1.72,3.02-2.37,4.63c-0.38,0.94-0.34,2.06-0.52,3.35
	c-0.77-0.1-1.7-0.23-2.78-0.37c-0.67,1.89,0.95,2.74,1.52,4.04c0.26,0.6,0.23,1.65-0.11,2.16c-0.56,0.83-1.35,0.65-1.87-0.3
	c-0.07-0.13-0.32-0.16-0.69-0.34c-0.12,0.61-0.4,1.21-0.31,1.73c0.65,3.9-0.85,7.53-1.31,11.28c-0.3,2.45-1.39,4.79-2.11,7.19
	c-0.58,1.95-1.99,2.81-3.76,3.01c-2.34,0.27-4.76,0.82-7.03,0.47c-3.08-0.47-6.2-1.34-8.12-4.45c-2.1-3.39-4.4-6.62-5.74-10.49
	c-0.4-1.17-1.45-2.16-2.36-3.04c-2.29-2.23-4.67-4.36-7.58-7.04c-1.05,0.4-2.8,0.91-4.42,1.73c-2.54,1.28-5.17,1.31-7.81,0.87
	c-2.05-0.35-3.47-2.8-3.28-5.1c0.04-0.51,0.18-1.07,0.04-1.54c-0.66-2.28-0.4-4.5,0.09-6.76c0.19-0.86,0.03-1.81,0.03-2.82
	c-0.56,0.06-0.97-0.02-1.09,0.13c-2.01,2.76-3.99,5.55-5.97,8.34c-0.23,0.33-0.38,0.72-0.65,1.01c-2.04,2.23-4.11,4.43-6.15,6.66
	c-2.04,2.24-4.08,4.49-6.07,6.79c-0.51,0.59-1.02,1.34-1.14,2.09c-0.89,5.49-1.62,11.01-2.53,16.5c-0.54,3.26-1.31,6.47-1.97,9.7
	c-0.1,0.51-0.32,1.02-0.28,1.52c0.35,4.02-1.35,7.67-1.84,11.53c-0.3,2.36-0.6,4.72-0.98,7.07c-1.23,7.73-0.79,15.68-2.92,23.29
	c-0.19,0.68-0.26,1.45-0.2,2.16c0.34,3.58-1.13,6.77-1.9,10.1c-1.2,5.18-2.57,10.32-3.77,15.5c-0.3,1.29-0.28,2.68-0.29,4.02
	c-0.02,6.24,0.07,12.47-0.02,18.71c-0.05,3.1-0.51,6.19-0.61,9.3c-0.25,8.09-0.39,16.18-0.58,24.27c1.6,4.03,0.21,8.31,0.96,12.44
	c0.22,1.23-0.09,2.71-0.55,3.91c-1.22,3.25-2.6,6.44-4.01,9.61c-0.84,1.9-2.46,2.6-4.37,2.59c-2.01,0-2.93-1.41-3.59-3.16
	c-1.42-3.79-2.31-7.6-1.63-11.78c0.84-5.12-0.79-9.25-4.78-12.57c-2.35-1.96-4.27-4.55-6.2-7.01c-2.31-2.94-4.47-6.02-6.63-9.1
	c-1.57-2.24-3.37-4.4-4.45-6.9c-1.24-2.88-2.03-6.03-2.62-9.15c-0.84-4.45-1.33-8.98-1.96-13.48c-0.16-1.12-0.39-2.25-0.43-3.38
	c-0.09-2.59-0.3-5.09-0.91-7.66c-0.9-3.77-1.09-7.73-1.46-11.63c-0.19-1.94,0.18-3.96-0.94-5.74c-0.2-0.32-0.25-0.81-0.21-1.21
	c0.45-4.4-0.76-8.61-1.26-12.91c-0.33-2.82-2.06-4.42-4-5.84c-1.32-0.97-2.22,0.2-2.86,1.25c-0.52,0.86-0.86,1.87-1.19,2.85
	c-0.35,1.06-1.07,1.62-2.01,1.35c-0.75-0.22-1.73-0.75-2-1.41c-1.08-2.64-2.3-5.2-2.26-8.29c0.03-2.21-1.01-4.42-1.17-6.66
	c-0.35-4.86-2.31-9.09-4.24-13.37c-1.26-2.79-2.49-5.6-3.56-8.48c-2.97-7.98-5.83-16-8.78-23.98c-0.26-0.69-0.83-1.25-1.42-2.1
	c-0.85,0.94-1.53,1.54-2.03,2.27c-1.1,1.6-2.54,1.83-4.2,1.36c-1.78-0.5-1.71-2.01-1.72-3.5c0-0.7-0.14-1.41-0.22-2.18
	c-1.78-0.35-2.5,1.03-3.5,1.93c-0.87,0.78-1.8,1.79-2.83,2c-3.21,0.67-5.13-1.7-5.28-4.32c-0.15-2.49-0.58-2.95-2.78-3.04
	c-2.45-0.1-4.9-0.2-7.21,1.14c-1.08,0.63-2.46,0.67-3.68,1.07c-1.57,0.51-2.96-0.11-3.56-1.42c-0.49-1.06-0.52-2.74-0.05-3.81
	c0.82-1.86,2.14-3.49,4.3-3.94c0.67-0.14,1.39-0.33,1.93-0.73c3.5-2.65,7.53-4.07,11.57-5.37c3.31-1.06,4.96-3.51,6.03-6.66
	c1.35-4,2.65-8.01,3.92-12.04c0.48-1.51,0.3-2.84-1.13-3.8c-1.61-1.08-2.29-2.76-2.57-4.7c-0.66-4.6-1.28-9.21-2.12-13.78
	c-0.28-1.53-1.17-2.94-1.97-4.86c0.29-0.65,0.96-1.8-0.04-3.15c-0.36-0.48-0.12-1.42-0.24-2.13c-0.26-1.5-0.62-2.98-0.87-4.47
	c-0.17-1.01-0.27-2.05-0.32-3.08c-0.06-1.55,0.17-3.14-0.95-4.44c-0.18-0.21-0.32-0.59-0.29-0.87c0.52-4.29-0.74-8.71,0.87-12.91
	c0.07-0.19,0.17-0.39,0.2-0.59c0.46-3.66,0.87-7.32,1.37-10.97c0.75-5.45-0.04-10.91,0.11-16.37c0.06-2.15-0.03-4.3-0.06-6.45
	c-0.03-2.51,0.24-4.79,2.35-6.57c1.05-0.89,2.59-1.64,2.56-3.56c0-0.26,0.85-0.84,1.07-0.73c0.56,0.28,1.14,0.77,1.42,1.34
	c1.3,2.59,3.3,4.51,4.81,6.39c1.47-1.68,2.78-3.14,4.04-4.65c0.51-0.62,0.98-1.3,1.36-2.01c0.92-1.74,2.31-2.59,4.14-2.2
	c1.81,0.38,3.82,0.14,4.6,2.99c0.62,2.28,2.31,4.24,3.54,6.33c0.6,1.03,1.22,2.05,1.96,3.28c-1.32,1.66-0.66,3.36,0.24,5.2
	c0.6,1.22,1.03,2.71,1,4.06c-0.11,5.85,1.15,11.48,2.1,17.17c0.97,5.81,1.75,11.65,2.72,17.46c0.52,3.12,1.28,6.2,1.9,9.3
	c0.5,2.51,1.04,5.01,1.37,7.55c0.22,1.74,0.9,2.97,2.45,3.5c1.76,0.6,3.56,1.03,5.7,1.64c0.29-0.74,0.82-1.52,0.89-2.35
	c0.3-3.3,0.42-6.62,0.68-9.92c0.12-1.54,0.38-3.06,0.61-4.59c0.12-0.82,0.4-1.62,0.45-2.44c0.45-7.02,0.76-14.05,1.32-21.06
	c0.48-5.98,1.25-11.93,1.87-17.89c0.18-1.75,0.33-3.5,0.41-5.26c0.13-2.78,0.47-5.52,0.83-8.28c0.61-4.78,2.02-9.5,1.63-14.44
	c-0.11-1.36,0.47-2.78,0.74-4.17c0.1-0.5,0.33-1.01,0.3-1.51c-0.29-4.94,1.32-9.56,2.16-14.32c0.77-4.37,1.87-8.71,2.22-13.11
	c0.38-4.73,1.52-9.22,2.69-13.72c0.66-2.53,2.16-3.18,4.44-2.49c1.78,0.53,3.65,0.77,5.45,1.25c0.81,0.21,1.91,0.47,2.26,1.1
	c1.99,3.55,4.93,6.65,4.65,11.34c-0.09,1.52,0.75,3.11,1.2,4.82c0.64-0.07,1.2-0.13,1.85-0.2c0.73-3.21,1.43-6.38,2.18-9.55
	c0.21-0.9,0.41-1.86,0.86-2.63c0.56-0.93,1.23-1.93,2.62-1.48c1.49,0.49,2.48,1.68,2.35,3.15c-0.09,1.03-0.37,2.04-0.55,3.06
	c-0.38,2.22-0.65,4.47-1.12,6.67c-0.83,3.89-1.79,7.75-2.68,11.63c-0.3,1.29-0.42,2.64-0.86,3.87c-1.51,4.21-0.78,8.76-2.05,13.07
	c-1.01,3.41-1.13,7.13-1.43,10.74c-0.24,2.87,0.41,5.96-0.41,8.58c-0.68,2.15-0.02,4.15-0.55,6.2c-0.51,1.95,0.18,4.25-0.35,6.18
	c-1.58,5.7-0.6,11.58-1.47,17.31c-0.09,0.59,0.07,1.23,0.12,1.84c0.06,0.93,0.42,1.98,0.13,2.76c-1.07,2.88-1.02,5.89-1.23,8.88
	c-0.09,1.32-0.02,2.65-0.08,3.97c-0.04,0.9,0.01,1.9-0.34,2.67c-0.88,1.9-0.5,3.77-0.44,6.36c4.6-8.95,7.38-17.92,10.65-26.69
	c2.83-7.6,6.13-15.01,9.51-22.36c2.74-5.96,5.85-11.73,8.89-17.53c1.09-2.08,2.4-4.03,3.67-6.01c1.86-2.9,3.7-5.83,5.68-8.64
	c1.28-1.81,2.71-3.52,4.25-5.09c2.34-2.41,5.39-1.58,6.93,1.48c1.47,2.93,1.27,6.07,1.31,9.12c0.1,6.83,0.03,13.67-0.26,20.49
	c-0.12,2.73-1.02,5.42-1.51,8.15c-0.31,1.72-0.59,3.46-0.73,5.21c-0.19,2.35,0.08,4.69-0.95,7.01c-0.53,1.17-0.09,2.82-0.09,4.53
	c1.05-0.57,2-0.9,2.75-1.51c3.03-2.45,5.97-5.03,9-7.47c1.63-1.31,3.34-2.57,5.12-3.63c2.67-1.58,4.01-4.19,5.2-6.93
	c1.22-2.81,2.14-5.79,3.57-8.47c2.86-5.36,5.16-10.86,6.35-16.94c0.45-2.32,1.23-4.53,1.04-6.95c-0.04-0.49,0.17-1.01,0.3-1.51
	c1.44-5.63,2.79-11.3,4.37-16.89c1.98-7.03,1.71-14.3,2.23-21.48c0.1-1.37-0.51-2.78-0.67-4.19c-0.1-0.88-0.11-1.84,0.1-2.69
	c0.43-1.73,0.94-3.35-0.21-5.06c-0.39-0.59-0.22-1.6-0.32-2.42c-0.1-0.92,0.07-2.05-0.38-2.71c-0.97-1.46-0.68-2.7-0.03-4.08
	c0.21-0.45,0.46-1.2,0.27-1.47c-1.88-2.65,0.26-5.17,0.28-7.74c0.02-2.48,1.11-4.96,1.73-7.43c0.12-0.5,0.24-1,0.35-1.51
	c0.74-3.39,1.68-6.76,2.13-10.19c0.34-2.59,1.01-5.35-0.33-7.89c-1.01-1.92,0.34-2.93,1.34-3.97c1.19-1.25,3.04-1.6,4.04-0.64
	c0.97,0.93,2.13,2.22,2.23,3.43c0.23,2.74-0.17,5.53-0.28,8.3c-0.03,0.72,0.03,1.45,0.07,2.17c0.16,2.77,0.25,5.55,0.52,8.31
	c0.13,1.26-0.9,2.89,0.93,3.77c0.22,0.1,0.26,1.02,0.12,1.47c-1.12,3.59-0.22,7.16-0.03,10.75c0.15,2.88-0.2,5.78-0.23,8.68
	c-0.04,3.82,0.35,7.69-0.05,11.46c-0.37,3.57,0.47,7.2-0.62,10.69c-0.09,0.29-0.11,0.62-0.09,0.93c0.56,9.16-1.09,18.2-1.35,27.33
	c-0.12,4.3-1.18,8.56-1.8,12.85c-0.16,1.12-0.39,2.25-0.4,3.37c-0.01,4.57-1.61,8.71-3.08,12.89c-2.21,6.29-4.44,12.57-6.63,18.87
	c-1.81,5.21-3.61,10.42-5.31,15.67c-0.92,2.82-1.52,5.75-2.44,8.58c-1.86,5.76-3.85,11.47-5.76,17.21c-0.25,0.74-0.36,1.54-0.59,2.6
	c1.04,0.13,1.8,0.38,2.53,0.29c2.72-0.35,5.44-0.78,8.14-1.29c0.48-0.09,1.09-0.59,1.28-1.07c1.13-2.81,2.35-5.61,3.16-8.53
	c0.71-2.59,1.9-4.53,3.84-6.38c5.78-5.52,11.87-10.56,18.47-14.92c1.33-0.88,2.75-1.62,4.12-2.43c3.17-1.88,6.42-3.64,9.5-5.67
	c2.38-1.58,3.42-4.17,3.83-7.05c0.14-0.98,0.37-1.95,0.57-2.92c0.44-2.12,0.96-4.22,1.33-6.35c0.51-2.94,0.92-5.9,1.37-8.84
	c0.75-4.91,1.47-9.82,2.27-14.72c0.31-1.92,0.79-3.81,1.24-5.7c1.33-5.58,2.71-11.15,4.04-16.74c0.55-2.3,0.9-4.65,1.53-6.92
	c1.17-4.23,2.85-8.27,4.05-12.52c0.84-3.01,0.73-5.34-0.08-8.19c-0.94-3.31-1.06-6.87-1.66-10.3c-0.26-1.5-0.72-2.99-1.23-4.42
	c-0.78-2.22-1.8-4.35-2.49-6.6c-0.96-3.14-3.32-5.05-5.34-7.27c-0.68-0.74-1.55-1.37-2.03-2.23c-2.21-4-5.22-7.23-8.6-10.09
	c-1.35-1.15-2.05-2.49-2.63-4.24c-1.14-3.41-1.3-7.21-3.5-10.22c-0.6-0.82-1.01-1.79-1.67-2.54c-0.95-1.08-1.51-2.23-1.96-3.68
	c-0.59-1.88-2.03-3.46-3.06-5.2c-1.34-2.26-2.65-4.55-3.93-6.84c-2.74-4.9-4.52-10.2-5.9-15.67c-0.12-0.5-0.21-1.02-0.43-1.47
	c-0.93-1.93-1.35-3.95-1.61-6.12c-0.38-3.15-1.22-6.25-2.02-9.33c-1.25-4.86-2.63-9.68-3.95-14.52c-0.05-0.2-0.14-0.39-0.16-0.6
	c-0.44-3.77-0.75-7.56-1.34-11.3c-0.52-3.25-1.26-6.46-2.07-9.64c-1.44-5.69-3.01-11.35-4.47-17.03c-0.17-0.66,0.03-1.42-0.05-2.12
	c-0.38-3.36-0.8-6.71-1.22-10.07c-0.02-0.2-0.19-0.38-0.22-0.58c-0.48-3.35-0.88-6.71-1.45-10.04c-0.43-2.53-1.08-5.02-1.63-7.53
	c-0.22-1.01-0.6-2.01-0.62-3.03c-0.08-3.47-1.39-6.38-3.45-8.99c-3.78-4.77-7.39-9.7-11.39-14.25c-3.19-3.63-6.81-6.84-10.31-10.15
	c-1.52-1.43-3.25-2.62-4.86-3.95c-2.07-1.71-4.22-3.33-6.17-5.19c-5.11-4.89-11.29-7.79-17.55-10.44c-2.57-1.09-5.46-1.55-8.25-1.78
	c-3.63-0.3-7.29-0.06-10.94-0.11c-1.17-0.02-2.35-0.17-3.52-0.33c-4.33-0.59-8.11,0.39-11.01,4.09c-3.85,4.91-6.53,10.39-8.63,16.4
	c-1.63,4.65-1.64,9.3-2.16,14c-0.49,4.45-2.38,8.42-4.2,12.43c-2.54,5.58-5.06,11.2-7.2,16.96c-1.08,2.91-1.02,6.27-1.96,9.25
	c-1.17,3.72-0.38,7.34-0.41,11.03c-0.04,4.53-0.39,9.07-2.27,13.46c-2.19,5.12-5.61,9.21-8.65,13.64c-1.84,2.68-3.95,5.15-5.83,7.81
	c-3.65,5.15-6.58,10.78-9.89,16.16c-2.67,4.35-4.76,8.98-6.94,13.56c-1.84,3.86-3.09,8.02-4.61,12.04
	c-1.85,4.89-3.78,9.75-5.57,14.67c-1.69,4.62-3.24,9.25-4.19,14.18c-1,5.16-1.53,10.36-2.16,15.54c-0.78,6.53-0.92,13.15-1.33,19.73
	c-0.02,0.31,0.02,0.64-0.07,0.92c-1.32,3.87-2.93,7.66-3.94,11.61c-1.34,5.25-3.6,10.16-4.35,15.67c-0.44,3.26-0.85,6.49-1.01,9.78
	c-0.14,2.91,0.13,5.59,2.83,7.63c-3.09,1.13-4.22,3.15-3.83,6.14c0.08,0.6-0.14,1.24-0.14,1.86c0.03,3.42,0.03,6.76-1.45,10.01
	c-0.74,1.61-0.68,3.63-0.97,5.47c-0.1,0.61-0.03,1.28-0.24,1.84c-2.4,6.32-3.74,12.99-5.72,19.45c-1.57,5.14-2.32,10.37-2.44,15.8
	c-0.07,3.43-1.04,6.85-1.77,10.24c-0.44,2.06-0.78,4.05,0.14,6.21c-1.42,0.91-1.72,2.31-1.88,4.08c-0.29,3.14-1.18,6.21-1.67,9.34
	c-0.82,5.23-1.14,10.46,0.23,15.67c0.26,0.98,0.3,2.05,0.3,3.07c0.05,10.91-0.02,21.83,0.16,32.74c0.08,4.96,0.64,9.91,0.96,14.87
	c0.06,0.93,0.07,1.87,0.07,2.8c0.02,6.24,0.02,12.47,0.04,18.71c0.01,3.73,0.06,7.42,0.95,11.13c0.79,3.29,0.59,6.84,1.41,10.11
	c0.82,3.22,0.65,6.75,2.63,9.68c0.46,0.68,0.22,2.01,0.07,3.01c-0.4,2.68-0.77,5.32,0.44,7.92c0.28,0.61,0.17,1.42,0.26,2.14
	c0.39,2.93,0.8,5.85,1.56,8.79c1.47-3.28,0.47-7.08,2.25-10.59c1.26,1.65,2.22,3.07,2.24,5.01c0.02,2.06-0.17,4.14,0.98,6.03
	c0.28,0.46,0.16,1.21,0.17,1.83c0.05,3.22-0.02,6.45,0.14,9.66c0.16,3.44-0.77,6.52-2.34,9.44c-0.95,1.76-1.47,3.55-1.35,5.62
	c0.15,2.59,0.06,5.19,0.1,7.79c0.02,2.03,0.75,3.89,0.79,6.01c0.12,5.31,0.23,10.71,2.44,15.76c0.57,1.3,0.27,3.07,0.23,4.62
	c-0.07,3.06,0.4,5.94,1.69,8.75c0.66,1.43,0.59,3.22,0.96,4.82c0.75,3.32,1.49,6.65,2.41,9.92c0.46,1.64,1.04,3.17,3.08,3.73
	c2.41,0.67,3.76,2.96,4.87,5.16c2.8,5.51,4.56,11.43,5.81,17.52c0.57,2.8,0.98,5.63,1.51,8.72c4.35-0.55,7.63-3.66,11.74-3.64
	c-3.08,3.46-6.7,6.04-10.75,7.87c-1.85,0.84-3.87-0.3-4.8-2.5c-0.51-1.22-0.98-2.57-1.02-3.88c-0.14-4.94-1.55-9.6-2.8-14.25
	c-0.79-2.95-2.36-5.68-3.68-8.45c-0.51-1.07-1.45-1.36-2.5-0.65c-0.25,0.17-0.49,0.35-0.74,0.51c-2.84,1.78-3.91,1.5-5.13-1.73
	c-0.75-1.99-1.18-4.12-1.63-6.22c-0.54-2.52-0.88-5.09-1.43-7.61c-0.91-4.22-1.91-8.42-2.88-12.62c-0.16-0.7-0.52-1.36-0.6-2.06
	c-0.46-3.98-0.85-7.97-1.35-12.7c-1.2,2.13-2.08,3.55-2.19,5.42c-0.29,4.81-1.55,9.36-3.79,13.56c-2.02,3.81-4.79,4.57-7.68,1.81
	c-1.14-1.09-2.77-1.55-3.32-3.38c-0.17-0.57-1-0.94-1.55-1.36c-0.4-0.3-1.06-0.41-1.25-0.8c-1.59-3.36-5.43-3.77-7.51-6.41
	c-1.24-1.57-2.45-3.29-3.17-5.16c-2.09-5.45-3.96-10.99-5.82-16.52c-0.61-1.83-0.94-3.77-1.39-5.66c-0.78-3.29-1.73-6.55-2.3-9.88
	c-0.64-3.74-0.86-7.56-1.4-11.32c-0.57-3.98-1.21-7.95-1.98-11.9c-1.56-7.9-3.05-15.82-4.9-23.64c-1.86-7.89-4.14-15.67-6.17-23.51
	c-1.14-4.39-3.68-8.12-5.09-12.37c-0.19-0.58-0.61-1.13-0.65-1.71c-0.31-4.5-2.15-8.54-3.33-12.77c-0.06-0.2-0.18-0.39-0.18-0.59
	c-0.04-1.82-0.77-3.84,0.79-5.3c1.71-1.6,3.5-0.38,4.9,0.54c2.15,1.42,4.19,3.12,5.97,5.01c2,2.12,3.73,3.78,6.83,2.05
	c1.86-1.04,4.55,0.61,5.99,3.42c1.15,2.25,1.81,4.8,3.07,6.96c2,3.42,2.82,7.85,7.06,9.53c0.77,0.31,1.21,1.55,1.81,2.35
	c1.17,1.57,2.64,2,4.45,1.4c2.67-0.89,5.69,0.19,7.44,2.71c1.48,2.13,2.87,4.34,4.48,6.79c0.6-2.87,0.32-5.5,0.12-8.13
	c-0.32-4.13-0.85-8.25-0.89-12.38c-0.13-15.17-0.1-30.35-0.13-45.52c0-0.73,0.09-1.5-0.11-2.17c-1.31-4.36-0.86-8.85-1.06-13.3
	c-0.21-4.75-0.63-9.49-0.96-14.23c-0.01-0.21-0.12-0.45-0.05-0.61c1.89-4.56-0.3-9.76,1.99-14.28c0.34-0.67,0.13-1.64,0.27-2.45
	c0.21-1.19,0.6-2.36,0.75-3.56c0.28-2.14,0.8-4.35,0.56-6.45c-0.32-2.82,0.37-5.29,1.14-7.86c0.52-1.77,0.74-3.63,1.1-5.45
	c0.48-2.4,0.82-4.85,1.48-7.2c1.27-4.53,2.1-9.17,3.99-13.56c1.4-3.24,1.74-6.98,2.56-10.49c0.54-2.31,0.87-4.71,1.7-6.9
	c0.84-2.22,0.84-4.44,0.92-6.72c0.07-1.96,0.37-3.91,0.5-5.87c0.24-3.51,0.55-7.02,0.61-10.54c0.08-5.1,1.02-10.04,2.01-14.98
	c0.16-0.81,0.39-1.64,0.36-2.45c-0.1-2.18,0.68-3.94,1.78-5.75c0.86-1.42,1.23-3.18,1.7-4.83c1.05-3.65,2.06-7.32,3-11
	c0.35-1.39,0.52-2.84,0.68-4.27c0.59-5.36,1.16-10.72,1.35-16.13c0.11-3.14,1.21-6.24,1.85-9.36c0.12-0.61,0.27-1.23,0.26-1.84
	c-0.04-5.05,1.93-9.63,2.97-14.43c0.67-3.09,2.42-5.62,3.43-8.51c0.66-1.88,1.02-3.87,1.53-5.86c0.76-1.31,1.83-2.65,2.39-4.19
	c2.5-6.97,4.86-14.01,8.19-20.59c3.8-7.49,7.94-14.79,12.8-21.6c3.83-5.36,7.68-10.71,11.59-16.02c2.2-2.99,3.48-6.35,4.65-9.9
	c1.88-5.73,0.66-11.53,0.99-17.29c0.34-5.85,1.61-11.33,4.03-16.6c1.27-2.76,2.05-5.78,3.25-8.58c1.05-2.45,2.43-4.73,3.57-7.14
	c1.98-4.17,3.81-8.35,3.45-13.25c-0.43-5.79,1.69-10.97,4.03-15.99c1.77-3.8,3.79-7.48,5.88-11.1c0.85-1.48,2.16-2.67,3.29-3.98
	c1.38-1.61,2.85-3.14,4.17-4.8c1.88-2.37,3.18-2.38,5.87-1.48c2.75,0.92,5.74,1.21,8.64,1.4c3.54,0.24,7.11,0.27,10.64,0.05
	c3.88-0.24,7.35,1.18,10.92,2.34c4.57,1.48,8.58,4.12,12.57,6.76c1.79,1.19,3.16,3.04,4.84,4.45c2.62,2.19,5.41,4.15,7.98,6.4
	c2.19,1.91,4.11,4.17,6.26,6.14c5.96,5.46,11.45,11.38,16.47,17.8c0.62,0.79,1.33,1.6,2.16,2.09c3.04,1.82,4.06,4.89,4.85,8.16
	c0.82,3.4,2.1,6.74,2.43,10.19c0.35,3.66,1.7,6.92,2.53,10.37c1.21,4.99,1.78,10.14,1.42,15.34c-0.04,0.51-0.15,1.25,0.1,1.51
	c2.7,2.69,1.47,6.74,3.11,9.8c0.31,0.58,0.25,1.43,0.21,2.14c-0.24,3.81,0.67,7.37,1.99,10.86c0.21,0.57,0.31,1.2,0.36,1.81
	c0.31,3.7,1.16,7.26,2.19,10.81c0.62,2.15,0.64,4.49,1.14,6.69c0.86,3.79,1.89,7.53,2.81,11.31c0.73,3,1.51,5.98,2.1,9.01
	c1.47,7.53,3.86,14.74,6.58,21.84c0.68,1.78,2.08,3.24,3.04,4.92c3.84,6.71,8.04,13.21,10.85,20.53c2.8,2.54,3.76,6.41,6.17,9.36
	c1.95,2.39,4.26,4.61,5.82,7.5c1.48,2.73,4.03,4.78,5.88,7.32c2.31,3.18,3.67,6.88,4.47,10.93c0.66-0.04,1.27-0.09,2.29-0.16
	c0,2.71,0,5.24,0,8.31c1.78-1.8,2.26-3.36,2.25-5.29c-0.05-7.06,0.01-14.12,0.04-21.18c0.01-3.39-0.08-6.8,0.14-10.18
	c0.06-0.92,0.96-2.36,1.69-2.53c1.2-0.28,3.03-0.18,3.77,0.61c1.22,1.3,1.95,3.21,2.57,4.99c0.47,1.36,0.81,2.75,0.28,4.44
	c-0.53,1.68-0.12,3.7-0.12,5.76c0.65,0.43,1.36,0.89,2.41,1.58c-3.26,3-2.58,6.79-2.27,10.49c0.26,3.08-0.63,5.86-1.82,8.58
	c-0.16,0.37-0.52,0.7-0.57,1.08c-0.46,4.07-0.99,8.14-1.22,12.22c-0.08,1.35,0.66,2.74,1.03,4.12c1.04,3.86-0.21,7.7-0.1,11.57
	c0.16,5.89-0.12,11.76,2,17.43c0.61,1.64,0.27,3.66,0.5,5.48c0.43,3.48,0.78,6.99,1.48,10.42c1.09,5.33,2.09,10.64,2.14,16.14
	c0.03,3.09,0.55,6.17,0.84,9.25c0.11,1.13,0.26,2.27,0.24,3.41c-0.1,4.87-0.32,9.74-0.36,14.61c-0.03,2.65,0.26,5.31,0.3,7.96
	c0.04,2.36,0.06,4.73-0.15,7.08c-0.51,5.6-0.35,11.15,0.08,16.76c0.42,5.46,0.09,10.99,0.1,16.49c-1.77,3.49-0.57,7.54-2.03,11.18
	c-1,2.49-0.95,5.43-1.46,8.15c-0.38,2.02-0.88,4.02-1.35,6.03c-0.9,3.9-2.29,7.66-2.32,11.78c-0.01,1.52-0.95,3.02-1.35,4.57
	c-0.38,1.47-0.59,3-0.93,4.48c-0.2,0.86-0.51,1.68-0.75,2.53c-0.57,2.05-1.02,4.14-1.71,6.15c-1.76,5.12-0.59,10.47-1.42,15.63
	c2.53,0.56,5.04-0.42,5.94-2.99c1.11-3.15,3.52-4.79,5.67-6.82c2.1-1.98,4.18-3.92,5.54-6.69c1.11-2.25,2.78-4.25,4.46-6.1
	c4.02-4.41,8.24-8.61,12.3-12.99c1.08-1.17,1.85-2.66,2.73-4.02c0.94-1.44,1.76-2.97,2.79-4.33c0.88-1.17,3.75-1.14,4.92-0.1
	c1.22,1.07,1.49,3.42,0.38,5.14c-1.32,2.05-2.85,3.93-4.21,5.95c-0.5,0.75-0.78,1.67-1.26,2.72c1.12,0.29,1.87,0.29,2.4,0.66
	c1.28,0.89,2.61,1.8,3.62,2.99c1.03,1.21,0.89,2.65,0.33,4.31c-0.73,2.19-0.76,4.64-1.17,6.97c-0.89,4.99-3.39,9.21-5.91,13.42
	c-2.67,4.46-5.35,8.92-7.82,13.5c-0.95,1.75-1.81,3.55-2.78,5.29c-0.99,1.77-1.09,4.11-1.52,6.2c-0.52,2.5-0.97,5.01-1.48,7.52
	c-1.09,5.34-2.18,10.69-3.33,16.02c-0.28,1.29-0.78,2.53-1.19,3.79c-1.42,4.4-2.91,8.77-4.24,13.19c-1.82,6.08-3.53,12.19-5.24,18.3
	c-0.86,3.05-1.68,6.12-2.4,9.21c-0.81,3.48-0.89,6.99,0.31,10.42c0.42,1.19,0.36,2.23-0.76,3.15c-2.08-0.39-3.35-1.86-4.2-3.83
	c-1.27-2.93-1.6-6.07-1.07-9.16c1.01-5.9,2.14-11.74,4.14-17.43c2.51-7.15,4.33-14.57,6.41-21.88c1.1-3.86,2.14-7.74,3.16-11.63
	c0.22-0.84,0.21-1.75,0.31-2.61c-1.46-0.37-1.83,0.35-2.2,1.31c-1.2,3.04-1.94,6.53-3.87,8.95c-2.27,2.84-3.57,6.06-4.86,9.28
	c-1.71,4.26-2.9,8.77-4.3,13.17c-0.97,3.03-1.93,6.06-2.88,9.09c-0.25,0.79-0.62,1.62-0.58,2.4c0.23,3.94-1.27,7.47-2.19,11.14
	c-0.08,0.3-0.2,0.6-0.21,0.9c-0.04,5.3-2.31,9.99-3.77,14.88c-1.09,3.64-3.39,6.68-5.38,9.89c-2.78,4.48-6.19,8.28-9.68,12.07
	c-0.48,0.52-0.96,1.07-1.52,1.48c-2.25,1.64-4.08,0.81-4.94-1.93c-0.67-2.12-1.66-4.13-2.47-6.11c-1.57-0.64-2.49,0.14-2.94,1.4
	c-0.88,2.41-1.76,4.84-2.34,7.33c-1.3,5.5-2.73,11.01-3.49,16.6c-0.49,3.61-1.51,7-2.2,10.47c-0.75,3.75-1.97,7.32-2.93,10.95
	c-2.6,9.9-4.8,19.97-9.4,29.17c-1.37,2.73-2.81,5.44-3.93,8.29c-1.91,4.84-3.77,9.71-5.33,14.68c-2.31,7.38-4.93,14.58-8.75,21.26
	c-3.8,6.65-7.47,13.37-11.3,19.99c-2.39,4.13-4.93,8.17-7.49,12.18c-0.87,1.37-2.07,2.5-3,3.84c-2.15,3.08-4.22,6.22-6.32,9.34
	C665.54,781.77,663.18,781.77,660.81,781.77z M613.37,493.64c-0.25-0.06-0.49-0.12-0.74-0.17c-0.49,1.55-1.42,3.11-1.38,4.65
	c0.22,8.3-0.62,16.51-1.31,24.75c-0.16,1.94-0.2,3.89-0.5,5.81c-0.52,3.33-1.29,6.61-1.79,9.94c-0.55,3.66-0.9,7.35-1.39,11.03
	c-0.11,0.81-0.45,1.59-0.69,2.38c-0.45,1.44-1.28,2.33-2.83,2.12c-1.67-0.22-2.33-1.27-2.35-2.99c-0.01-0.95,0.33-2.41-1.14-2.38
	c-1.42,0.02-1.29,1.58-1.6,2.6c-0.08,0.28,0.01,0.62,0.02,0.93c0.08,2.05,0.04,4.11,0.27,6.14c0.45,3.9-0.07,7.83,1.02,11.74
	c0.93,3.33,1.35,6.91,1.46,10.39c0.21,6.73,0.68,13.42,2.45,19.9c1.03,3.75,2.03,7.61,3.79,11c3.46,6.67,8.22,12.37,13.62,17.42
	c4.36,4.08,7.32,8.84,7.52,15.18c0.01,0.22,0.3,0.42,0.74,1.02c0.26-2.75,0.68-5.07,0.67-7.39c-0.01-4.56-0.36-9.12-0.34-13.67
	c0.01-3.09,0.36-6.19,0.65-9.27c0.44-4.72,0.3-9.52,1.58-14.14c0.08-0.29,0.02-0.62,0.03-0.93c0.02-3.12,0.06-6.23,0.03-9.35
	c-0.01-0.96-0.19-1.92-0.38-3.69c-2.21,2.28-3.94,3.91-5.5,5.71c-1.41,1.62-2.18,2.03-3.47,1.32c-1.62-0.89-2.77-2.84-2.14-4.28
	c0.96-2.2,0.77-4.45,0.85-6.72c0.06-1.87,0.09-3.73,0.24-5.59c0.28-3.51,0.64-7,0.96-10.51c0.11-1.23,0.15-2.48,0.37-3.7
	c0.59-3.25,1.28-6.47,1.89-9.71c1.24-6.58,2.14-13.25,3.74-19.74c2.15-8.73,1.93-17.42,0.76-26.2c-0.29-2.13-0.73-4.24-1.13-6.47
	c-0.89,0.09-1.78,0.49-2.19,0.18c-2.2-1.64-3.5-0.26-5.02,1.22c-1.27,1.24-4.57,1.28-5.89,0.3c-1.71-1.28-1.72-3.07-1.32-5.02
	C613.19,496.17,613.23,494.89,613.37,493.64z M756.18,431.8c1-1.49,2.09-2.57,2.53-3.89c1.39-4.17,2.8-8.37,3.72-12.68
	c1.88-8.88,3.44-17.81,4.39-26.89c0.8-7.68,2.37-15.26,3.66-22.88c0.48-2.83,1.12-5.63,1.67-8.45c0.47-2.42,0.73-4.91,1.41-7.26
	c0.86-2.97,0.9-5.87,0.42-8.88c-0.24-1.51-0.16-3.07-0.28-4.6c-0.21-2.78-0.04-5.7-0.83-8.3c-0.62-2.05-0.78-4-0.87-6.05
	c-0.05-1.14,0.03-2.31-0.17-3.42c-0.78-4.32-3.35-8.07-3.65-12.58c-0.09-1.4-0.55-2.77-0.92-4.14c-0.31-1.18-0.59-2.41-1.14-3.47
	c-0.9-1.74-2.23-1.72-3.03,0.05c-0.71,1.56-1.27,3.23-1.66,4.91c-0.94,4.01-1.72,8.05-2.59,12.08c-1.07,4.93-2.29,9.83-3.2,14.79
	c-0.75,4.05-1.17,8.17-1.68,12.27c-0.13,1.01,0.08,2.07-0.09,3.06c-0.6,3.62-1.28,7.23-1.95,10.84c-0.51,2.74-0.82,5.55-1.6,8.19
	c-1.03,3.48-1.92,6.94-1.91,10.62c0.01,2.91,0,5.82-0.05,8.72c-0.02,0.92-0.14,1.85-0.34,2.74c-0.61,2.78-1.42,5.52-1.9,8.33
	c-0.62,3.64-1,7.32-1.46,10.98c-0.17,1.31-0.13,2.67-0.48,3.91c-0.99,3.49-0.24,5.2,2.93,6.55c2.54,1.08,5.33,1.99,5,5.86
	c-0.03,0.35,0.33,0.73,0.49,1.1C753.73,425.98,754.85,428.64,756.18,431.8z M627.45,438.03c1.91-4.56,3.42-8.61,5.27-12.48
	c2.3-4.8,4.86-9.45,7.35-14.15c5.28-9.97,10.76-19.79,18.16-28.25c0.58-0.66,0.97-1.53,1.4-2.32c1.77-3.24,1.14-7.04,2.23-10.49
	c1.49-4.69,1.02-9.75,2.25-14.58c1.02-4.03,1.1-8.36,1.33-12.57c0.26-4.77,0.3-9.55,0.27-14.33c-0.01-1.78,0.03-3.85-2.26-4.56
	c-0.35,0.21-0.8,0.33-1,0.64c-2.6,3.86-5.35,7.63-7.71,11.65c-3.37,5.76-6.74,11.55-9.59,17.6c-3.25,6.93-5.96,14.15-8.82,21.29
	c-0.36,0.89-0.55,2.25-0.15,3.01c1.33,2.54,1.22,4.88,0.02,7.39c-0.33,0.68-0.14,1.64-0.23,2.46c-0.06,0.61-0.08,1.26-0.3,1.81
	c-1.17,2.95-1.66,6.05-2.06,9.19c-0.39,3.04-0.88,6.07-1.45,9.08c-0.6,3.12-1.55,6.17-1.99,9.3c-0.67,4.71-2.05,9.19-3.22,13.75
	C626.45,433.4,625.66,435.59,627.45,438.03z M747.48,531.52c1.62-3.04,2.93-5.73,4.45-8.27c1.98-3.29,4.19-6.43,6.2-9.71
	c1.49-2.43,3.82-4.18,4.11-7.58c0.65-7.49-0.32-15.08,1.43-22.52c0.84-3.57,0.72-7.39,1.47-10.99c0.98-4.72,2.42-9.33,3.62-13.99
	c1.1-4.27,2.56-8.49,3.1-12.84c0.59-4.76,2.12-9.24,2.91-13.92c0.72-4.27,1.81-8.56,1.87-12.86c0.24-16.3,0.13-32.61,0.13-48.91
	c0-0.96-0.19-1.93-0.29-2.89c-1.03,1.31-1.53,2.62-1.94,3.95c-1.75,5.6-0.81,11.56-2.29,17.28c-1.56,6.04-0.96,12.52-2.5,18.66
	c-0.65,2.58-0.83,5.3-1.53,7.86c-1.28,4.76-2.78,9.46-4.2,14.19c-0.41,1.37-0.63,2.85-1.27,4.09c-2.46,4.77-2.69,10.17-3.47,15.29
	c-0.59,3.91-1.67,7.65-2.32,11.51c-0.46,2.73-1.39,5.46-1.3,8.17c0.13,4.13-1.14,7.85-2.18,11.63c-1.3,4.74-3.08,9.32-4.49,14.03
	c-1,3.35-1.91,6.72-1.79,10.34c0.13,3.84,0.33,7.74-0.17,11.51C746.35,520.76,746.62,525.84,747.48,531.52z M598.62,427.77
	c0.2-0.62,0.52-1.22,0.58-1.85c0.14-1.44-0.01-2.93,0.26-4.34c1.06-5.63,2.24-11.24,3.36-16.86c0.53-2.62,0.99-5.26,1.57-7.86
	c0.61-2.72,1.39-5.4,1.98-8.12c1.45-6.66,2.51-13.39,4.39-19.96c1.19-4.13,2.08-8.42,2.57-12.7c0.29-2.59,0.46-5.09,1.67-7.42
	c0.31-0.6,0.45-1.33,0.59-2.01c0.54-2.7,0.62-5.61,1.67-8.08c1.72-4.05,0.54-8.36,1.63-12.51c0.61-2.32-0.36-5.22-0.24-7.93
	c0.13-2.87-0.31-5.78-0.5-8.67c-0.07-1.03-0.09-2.07-0.23-3.09c-0.27-1.92-0.58-3.83-0.93-5.74c-0.23-1.29-0.57-2.56-0.83-3.84
	c-0.16-0.8-0.27-1.62-0.35-2.43c-0.08-0.82,0.11-1.75-0.2-2.46c-0.27-0.62-0.99-1.22-1.63-1.42c-0.85-0.27-1.4,0.29-1.65,1.29
	c-0.36,1.37-0.71,2.84-1.47,3.96c-0.35,0.52-0.79,0.87-0.91,1.61c-0.4,2.4-0.46,5.02-1.47,7.12c-1.99,4.16-2.03,8.5-2.15,12.93
	c-0.03,1.29-0.54,2.56-0.75,3.86c-0.37,2.3-2.43,4.45-0.52,6.97c0.18,0.24,0.15,0.97-0.05,1.18c-2.07,2.09-1.9,4.78-2.09,7.48
	c-0.18,2.53,0.33,5.17-1.07,7.6c-0.4,0.69,0.05,1.99,0.23,2.99c0.12,0.66,0.45,1.28,0.85,2.35c-2.77,0.14-2.39,2.14-2.44,3.91
	c-0.05,1.87,0.37,3.94-0.26,5.56c-1.07,2.74-0.83,5.48-0.96,8.25c-0.04,0.92-0.23,1.84-0.37,2.76c-0.24,1.62-0.66,3.23-0.72,4.86
	c-0.14,3.53,0.3,7.14-0.23,10.58c-0.85,5.47-0.93,10.94-0.97,16.44C596.94,410.66,596.91,419.14,598.62,427.77z M727.4,429.11
	c2.14,0.23,2.73-1.12,3.14-2.71c0.2-0.76,0.23-1.8,0.72-2.19c1.99-1.63,2.33-4.18,2.71-6.32c0.59-3.34,2.05-6.62,1.4-10.19
	c-0.1-0.56,0.19-1.21,0.32-1.81c0.66-2.99,1.28-5.99,2-8.96c1.09-4.49,2.24-8.96,3.37-13.44c0.49-1.94,1.73-3.74,1.12-5.83
	c-1.64-0.79-2.96-0.62-4.22,0.59c-0.64,0.61-1.47,1.1-2.29,1.38c-4.68,1.6-7.74,5.81-11.97,8.15c-1.59,0.88-2.9,2.35-4.3,3.62
	c-1.61,1.46-3.3,2.85-4.72,4.5c-2.61,3.05-5.42,5.98-5.45,10.6c-0.02,2.5-0.51,5-0.78,7.48c1.03,1.38,2.28,0.8,3.54,0.56
	c2.14-0.39,4.38-0.9,5.04,2.41c0.94-0.4,1.64-0.69,2.04-0.86c3,2.27,2.08,5.6,2.17,8.55c1.63,0,2.87,0,4.09,0
	C726.05,426.16,726.68,427.55,727.4,429.11z M567.3,413.79c-0.34,0.17-0.67,0.35-1.01,0.52c-0.18,2.95-0.38,5.94,0.2,8.86
	c1.23,6.17,0.77,12.4,0.79,18.61c0,0.96-0.66,2.26-1.4,2.78c-0.6,0.42-2.17,0.25-2.64-0.3c-1.21-1.41-2.34-3.06-2.99-4.83
	c-1.5-4.06-2.69-8.24-4.01-12.4c-0.64,0.19-1.11,0.19-1.16,0.35c-0.66,1.91-1.3,3.83-1.84,5.77c-0.11,0.41,0.21,0.95,0.33,1.44
	c0.23,0.95,0.77,1.95,0.63,2.83c-0.28,1.81,0.24,2.82,1.68,3.85c2.05,1.46,2.03,2.62,1.26,5.34c-0.41,1.44-0.44,3.08-0.28,4.59
	c0.17,1.6,0.72,3.17,1.2,4.72c0.57,1.84,3.37,3.48,5.18,3.6c1.51,0.1,3,0.71,4.46,1.21c0.85,0.29,1.64,0.78,2.65,1.28
	c0.95-3.7,1.77-6.89,1.71-10.38c-0.08-4.23,0.07-8.52,0.71-12.69c0.45-2.96-0.02-6.12,1.5-8.95c0.31-0.58-0.21-2.26-0.81-2.65
	c-1.25-0.83-1.58-2.03-2.03-3.27c-1.05-2.9-2.12-5.79-3.22-8.67C567.97,414.82,567.6,414.32,567.3,413.79z M634.26,560.71
	c0.69-1.64,1.33-2.61,1.5-3.66c0.55-3.42,0.94-6.87,1.38-10.31c0.07-0.51,0.04-1.04,0.14-1.55c0.69-3.63,1.55-7.23,2.08-10.89
	c0.97-6.75,1.71-13.54,2.6-20.3c0.35-2.66,0.8-5.32,1.27-7.96c0.88-4.98,1.84-9.94,2.68-14.93c0.23-1.34,0.14-2.74,0.2-4.11
	c-0.22-0.09-0.45-0.17-0.67-0.26c-0.71,0.78-1.6,1.45-2.1,2.35c-1.18,2.14-1.92,4.36-2.2,6.95c-0.43,3.94-1.66,7.78-2.63,11.65
	c-1.07,4.28-2.25,8.54-3.34,12.81c-0.2,0.79-0.25,1.64-0.26,2.46c-0.05,3.94-0.05,7.87-0.12,11.81c-0.02,1.03-0.17,2.06-0.32,3.08
	c-0.26,1.72-0.57,3.44-0.84,5.16c-0.25,1.63-0.58,3.25-0.68,4.9c-0.2,3.09-0.38,6.2-0.31,9.3
	C632.64,558.18,633.5,559.14,634.26,560.71z M695.03,351.56c0.39,0.43,0.5,0.64,0.66,0.71c3.66,1.57,3.76,1.85,3.23,6.01
	c-0.18,1.45-0.03,2.94-0.03,4.41c0.23,0.06,0.46,0.12,0.68,0.18c0.52-1.16,1.09-2.29,1.53-3.48c0.24-0.66,0.13-1.48,0.43-2.09
	c2.73-5.6,4.47-11.61,6.48-17.5c0.62-1.82,0.96-3.77,1.27-5.69c0.57-3.56,1.04-7.15,1.53-10.72c0.29-2.14,0.69-4.27,0.79-6.42
	c0.15-3-0.06-6.03,0.14-9.02c0.14-2.14,0.9-4.23,1.01-6.37c0.19-3.82,0.11-7.66,0.11-11.5c0-0.76-0.17-1.51-0.26-2.27
	c-0.24,0-0.48-0.01-0.71-0.01c-0.04,1.16-0.09,2.31-0.13,3.47c-0.13,3.83,0.08,7.63-1.24,11.4c-1.4,4.01-2.19,8.25-3.27,12.39
	c-0.27,1.03-0.1,1.82,0.83,2.38c0.48,0.29,0.92,0.66,1.85,1.32c-1.29,0.13-2.01,0.2-3.01,0.31c0,1.47,0.45,3.11-0.09,4.24
	c-1.41,3-2.47,6.02-2.42,9.4c-1.84,1.96-1.79,4.75-2.81,7.07c-0.73,1.66-1.69,3.21-2.57,4.79
	C697.68,346.94,696.32,349.29,695.03,351.56z M579.68,494.9c1.6-1.13,1.67-2.59,1.77-4.16c0.25-3.92,0.66-7.83,0.99-11.74
	c0.34-4.08,1.2-8.22,0.84-12.24c-0.33-3.78-0.51-7.57-0.55-11.34c-0.05-5.4-1.85-10.33-2.76-15.54c-1.97,0.19-2.56,1.24-2.38,2.99
	c0.11,1.11,0.53,2.51,0.07,3.31c-1.02,1.78-0.8,3.6-0.85,5.43c-0.08,3.32,0.13,6.67-0.18,9.96c-0.49,5.21-1.21,10.4-0.96,15.66
	c0.09,1.76-0.22,3.62,0.21,5.27C576.97,486.66,578.38,490.72,579.68,494.9z M760.17,580.14c-0.35-0.14-0.7-0.29-1.05-0.43
	c-0.41,0.58-0.89,1.11-1.23,1.74c-0.33,0.62-0.39,1.41-0.77,1.98c-1.65,2.54-3.57,4.91-5.02,7.57c-3.12,5.71-6.04,11.53-8.97,17.35
	c-1.26,2.51-0.53,4.96,1.95,6.73c0.85-0.73,1.85-1.41,2.63-2.3c4.92-5.58,8.07-12.19,9.99-19.49c0.71-2.68,1.55-5.33,2.1-8.05
	C760.15,583.59,760.06,581.84,760.17,580.14z M570.29,406.26c1.21-14.62-0.4-28.6-7.86-41.49c-1.86,1.3-2.36,2.95-2.05,4.78
	c0.78,4.62,1.62,9.24,2.57,13.83c0.66,3.21,1.34,6.45,2.36,9.54C566.8,397.43,568.61,401.82,570.29,406.26z M663.61,394.07
	c2.2-1.92,3.95-3.55,5.79-5.04c2.73-2.21,5.58-4.26,8.27-6.52c0.88-0.74,1.74-1.81,2.08-2.91c0.9-2.91,1.54-5.92,2.22-8.91
	c0.06-0.27-0.33-0.65-0.64-1.23c-0.98,0.8-1.71,1.71-2.63,2.11c-4.93,2.12-8.12,6.42-11.78,10.15c-2.84,2.9-3.09,6.76-3.68,10.5
	C663.17,392.58,663.38,393,663.61,394.07z M658.79,416.85c8.09-6.65,15.69-13.12,17.35-24.56c-0.79,0.04-1.18,0.01-1.55,0.09
	c-0.27,0.06-0.62,0.2-0.75,0.42c-1.91,3.2-5.47,4.22-7.94,6.76c-2.81,2.88-5.99,5.11-6.9,9.67
	C658.49,411.74,658.29,414.02,658.79,416.85z M671.09,425c-0.9,0.32-1.48,0.38-1.9,0.69c-2.38,1.81-4.85,3.52-7.03,5.56
	c-2.57,2.41-5.71,4.58-5.02,9.1c0.11,0.74-0.44,1.57-0.61,2.38c-0.55,2.71-0.61,5.42-0.2,8.19c3.08-0.67,4.24-1.8,5.56-4.86
	c0.93-2.15,1.94-4.26,3-6.34C667.23,435.1,669.27,430.35,671.09,425z M555.48,421.85c-0.39-1.55-0.88-2.99-1.12-4.49
	c-0.57-3.57-0.99-7.17-1.52-10.74c-0.9-6.11-2.5-12.12-2.2-18.41c0.07-1.42-0.33-2.88-0.63-4.29c-0.19-0.89-0.61-1.73-0.93-2.58
	c-0.59,1.12-0.66,2.04-0.66,2.96c0.01,9.97-0.02,19.93,0.09,29.9c0.03,2.78,0.47,5.56,0.8,8.33c0.07,0.56,0.46,1.07,0.69,1.58
	C551.78,423.38,553.4,422.71,555.48,421.85z M721.35,474.91c-1.5-1.1-2.64-1.64-3.36-2.54c-1.09-1.37-2.07-1.07-3.38-0.5
	c-2.24,0.97-4.56,1.71-6.84,2.6c-0.68,0.27-1.3,0.71-2.01,1.11c1.29,2.07,2.75,3.73,3.43,5.7c0.57,1.66,1.52,2.49,2.85,2.72
	c1.83,0.31,3.73,0.32,5.58,0.17c0.76-0.06,1.94-0.75,2.11-1.4C720.46,480.14,720.87,477.42,721.35,474.91z M561.45,475.01
	c0.84,2.23,1.44,3.74,1.97,5.27c0.92,2.67,2.39,5.32,2.55,8.05c0.23,3.83,2.54,6.67,3.3,10.16c0.13,0.6,0.65,1.1,1.37,2.26
	c0.26-1.92,0.63-3.13,0.55-4.31c-0.28-4.17-1.32-8.12-3.25-11.81c-0.84-1.6-0.77-3.43,0.6-4.14c2.56-1.33,2.32-3.53,2.3-5.8
	c-0.02-1.87-0.01-3.73-0.03-5.6c-0.01-0.62,0.09-1.33-0.17-1.83c-0.21-0.41-0.85-0.71-1.32-0.76c-0.2-0.02-0.59,0.71-0.67,1.15
	c-0.06,0.35,0.2,0.77,0.34,1.16c0.76,2.19-0.13,4.12-2.22,4.7c-0.65,0.18-1.39,0.03-2.04,0.22
	C563.67,474.05,562.66,474.53,561.45,475.01z M639.3,451.61c-0.23-0.12-0.47-0.24-0.7-0.36c-0.52,0.5-1.13,0.92-1.56,1.5
	c-2.51,3.41-5.06,6.79-7.43,10.3c-1.06,1.57-1.99,3.3-1.95,5.39c0.02,0.8-0.06,1.71-0.4,2.4c-1.35,2.76-0.55,5.57-0.4,8.47
	c0.87-0.92,1.46-1.93,1.95-2.99c1.68-3.61,3.02-7.44,5.07-10.79c2.22-3.62,3.77-7.47,5.1-11.48
	C639.24,453.31,639.2,452.44,639.3,451.61z M612.19,416.75c-0.31,0.04-0.62,0.07-0.93,0.11c-0.42,1.86-1.01,3.7-1.21,5.59
	c-0.35,3.36-1.81,6.54-1.4,10.03c0.05,0.43-0.39,0.92-0.56,1.4c-0.26,0.77-0.75,1.6-0.67,2.34c0.34,2.92-1.2,5.3-1.78,7.94
	c-0.39,1.77-0.37,3.69-0.2,5.51c0.05,0.58,1.17,1.05,1.72,1.5c0.57-1.17,1.24-2.08,1.48-3.11c1.04-4.58,2.7-9.04,2.5-13.87
	c-0.04-0.91,0.28-1.82,0.4-2.74c0.25-2.04,0.52-4.09,0.71-6.14c0.2-2.15,0.38-4.31,0.45-6.47
	C612.73,418.14,612.37,417.44,612.19,416.75z M648.74,419.66c-4.71,7.15-9.35,14.4-12.47,22.59c-0.19,0.49-0.02,1.13-0.02,2.21
	c2.41-2.14,4.73-3.64,5.16-6.84c0.28-2.1,1.16-3.66,3.42-4.07c0.63-0.11,1.42-0.85,1.67-1.5c1.26-3.22,2.42-6.49,3.49-9.79
	C650.28,421.33,650.3,420.17,648.74,419.66z M683.6,429.51c4.75-4.88,9.12-9.35,13.46-13.85c0.23-0.24,0.2-0.74,0.33-1.26
	c-0.47-0.17-0.85-0.45-1.16-0.38c-2.42,0.56-4.85,1.1-7.22,1.84c-0.75,0.24-1.62,0.93-1.94,1.66c-1.32,3.03-2.5,6.12-3.61,9.24
	C683.23,427.41,683.52,428.27,683.6,429.51z M802.04,484.12c2.63-0.06,3.63-0.9,4.26-3.55c0.2-0.84,0.71-1.6,0.9-2.44
	c0.52-2.27,1.15-4.55,1.35-6.86c0.14-1.53-0.81-2.16-2.09-1.58c-2.6,1.17-4.83,2.93-6.88,5.05c1.19,1.63,2.67,2.87,3.06,4.41
	C803.02,480.66,802.28,482.47,802.04,484.12z M684.03,437.4c0.1,0.29,0.2,0.58,0.31,0.87c2.19,0.8,3.48-2.36,5.6-1.59
	c0.07-2.87,0.08-2.83,2.62-3.34c1.85-0.37,3.53-1.18,4.67-2.85c0.68-0.99,1.13-2.18,1.88-3.09c1.23-1.5,0.82-2.9,0.24-4.62
	c-0.53,0.45-0.98,0.64-1.1,0.96c-0.8,2.21-2.36,3.4-4.47,3.96c-0.35,0.09-0.67,0.39-0.94,0.66
	C689.89,431.37,686.96,434.38,684.03,437.4z M674.92,429.79c-0.26,0.51-0.5,0.96-0.72,1.42c-0.71,1.47-1.4,2.95-2.11,4.41
	c-1.19,2.44-2.44,4.85-3.58,7.32c-0.27,0.59-0.22,1.35-0.32,2.03c0.71,0.11,1.43,0.35,2.14,0.3c2.61-0.21,4.17-1.94,4.55-4.46
	c0.51-3.38,0.62-6.84,0.89-10.26C675.78,430.49,675.64,430.42,674.92,429.79z M585.68,439.88c0.98-2.29,2.47-12.06,2.21-13.5
	c-0.31-1.69-2.42-3.36-3.91-3.1c-1.15,0.2-1.52,1.34-1.16,3.64c0.06,0.4,0.21,0.79,0.3,1.19c0.28,1.29,0.54,2.58,0.82,3.86
	C584.47,434.43,585.01,436.88,585.68,439.88z M648.33,409.65c5.59-3.28,9.61-10.64,8.34-15.22c-3.98,3.92-5.98,9.15-8.73,13.85
	C647.78,408.54,648.18,409.16,648.33,409.65z M628.3,563.49c-0.67,1.23-1.47,2.08-1.59,3.02c-0.4,3.16-0.59,6.35-0.77,9.54
	c-0.06,1.1,0.12,2.25,1.3,2.76c2.11-2.04,3.18-5.69,2.56-8.73C629.39,568.09,628.9,566.1,628.3,563.49z M499.94,595.74
	c0.3,0.58,0.4,1.03,0.67,1.27c0.72,0.63,1.54,1.66,2.25,1.61c0.62-0.05,1.41-1.27,1.69-2.13c0.83-2.52,1.46-5.12,2.13-7.69
	c0.42-1.61-0.26-2.48-2.16-3C505.49,590.51,502.13,592.85,499.94,595.74z M490.78,577.3c0.2-0.02,0.4-0.04,0.61-0.06
	c0.61-5.93,0.59-11.82-1.35-17.74c-0.58-0.1-1.19-0.22-1.7-0.31C489.16,565.35,489.97,571.33,490.78,577.3z"/>
<path d="M562.58,781.77c0.11-1.12,0.04-2.31,0.37-3.36c1.71-5.42,0.16-10.32-1.85-15.26c-1.68-4.15-3.14-8.4-4.48-12.69
	c-0.66-2.12-0.89-4.4-1.17-6.62c-0.16-1.34-0.08-2.74,1.57-3.49c1.67,1.11,2.83,2.59,3.18,4.81c0.35,2.23,0.67,4.5,1.39,6.61
	c1.7,5.02,4.06,9.84,5.32,14.97c1.01,4.11,1.36,8.58-0.65,12.72c-0.35,0.71-0.49,1.54-0.72,2.31
	C564.56,781.77,563.57,781.77,562.58,781.77z"/>
<path d="M372.64,779.27c8.17,0.22,16.34,0.37,24.5,0.67c8.75,0.32,17.49,0.77,26.23,1.21c1.24,0.06,2.47,0.41,3.71,0.62
	c-18.15,0-36.29,0-54.44,0C372.64,780.94,372.64,780.11,372.64,779.27z"/>
<path d="M599.69,682.7c-0.1-1.09-0.19-2.11-0.31-3.49c-1.4-0.05-2.85-0.25-4.28-0.13c-3.33,0.27-6.64,0.7-9.96,1.06
	c-1.86,0.2-3.71,0.44-5.57,0.57c-1.21,0.09-2.46,0.01-2.7-1.68c-0.18-1.28,0.78-2.42,2.34-2.66c1.84-0.29,3.71-0.53,5.57-0.62
	c5.8-0.27,11.6-0.37,17.39-0.74c1.94-0.12,3.83-0.91,5.76-1.25c1.74-0.3,3.52-0.6,5.27-0.53c6.42,0.27,12.78-0.48,19.11-1.34
	c3.2-0.44,6.33-1.41,9.51-2.02c2.7-0.51,5.37-0.88,8.17-0.23c1.75,0.4,3.68,0.09,5.51-0.05c1.85-0.14,3.69-0.55,5.54-0.68
	c1.24-0.09,2.11,0.64,2.1,2.05c-0.02,1.62,0.76,2.62,1.82,3.69c1.46,1.47,1.02,3.65-0.81,4.61c-0.86,0.45-1.86,0.82-2.8,0.82
	c-2.3-0.01-4.22,0.8-5.98,2.28c-0.44,0.37-1.02,0.73-1.57,0.78c-6.56,0.56-12.88,2.64-19.55,2.81c-5.45,0.14-10.88,1.66-16.29,2.69
	c-1.91,0.37-3.75,1.13-5.63,1.69c-1.69,0.5-3.31,0.95-5.19,0.71c-2-0.25-4.09,0.32-6.14,0.46c-3.04,0.2-6.08,0.47-9.12,0.45
	c-2.67-0.02-4.48-2.96-2.98-4.92c0.95-1.24,2.7-1.96,4.23-2.53c1.65-0.61,3.46-0.74,5.19-1.14
	C598.77,683.28,599.18,682.96,599.69,682.7z"/>
</svg>
