<?xml version="1.0" encoding="utf-8"?>
<!-- Generator: Adobe Illustrator 24.1.0, SVG Export Plug-In . SVG Version: 6.00 Build 0)  -->
<svg version="1.1" id="Layer_1" xmlns="http://www.w3.org/2000/svg" xmlns:xlink="http://www.w3.org/1999/xlink" x="0px" y="0px"
	 viewBox="0 0 1224 792" style="enable-background:new 0 0 1224 792;" xml:space="preserve">
<path d="M390.53,414.89c2.02-6.58,3.59-12.36,5.58-17.99c1.5-4.25,3.44-8.35,5.36-12.43c4.49-9.57,9.1-19.08,13.64-28.62
	c0.47-0.99,1.04-2.03,1.11-3.08c0.3-4.22,2.2-7.88,3.79-11.66c0.11-0.25,0.28-0.48,0.36-0.74c1.62-5.48,2.82-11.14,4.95-16.41
	c2.45-6.05,4.53-12.23,7.27-18.19c2.46-5.37,6.43-9.72,8.7-15.11c2.56-6.07,5.17-12.12,7.84-18.14c1.6-3.61,3.34-7.16,5.09-10.7
	c3.44-6.96,6.83-13.94,10.43-20.81c2.02-3.86,4.39-7.54,6.63-11.27c2.39-3.98,4.84-7.93,7.21-11.92c0.34-0.57,0.45-1.28,0.59-1.94
	c0.14-0.66-0.05-1.65,0.34-1.95c2.75-2.17,3.79-5.57,5.88-8.09c3.77-4.55,7.18-9.24,9.83-14.5c0.48-0.96,1.22-1.8,1.86-2.68
	c3.1-4.25,7.24-7.88,8.12-13.49c0.08-0.49,0.44-1.06,0.84-1.36c4.51-3.39,7.18-8,9.37-13.11c1.27-2.96,3.64-5.43,5.34-8.22
	c2.22-3.62,4.09-7.47,6.44-10.99c3.62-5.41,5.19-11.75,8.36-17.33c1.48-2.6,3.07-5.27,5.14-7.38c5.29-5.38,10.89-10.46,16.36-15.66
	c0.2-0.19,0.38-0.41,0.61-0.55c3.44-2.23,6.78-4.66,10.38-6.61c3.86-2.09,7.94-3.79,11.98-5.52c2.52-1.08,5.12-2.01,7.72-2.86
	c7.42-2.44,14.96-2.09,22.41-0.4c12.08,2.74,24.25,4.74,36.62,5.71c5.46,0.43,10.83,1.97,16.29,2.44c11.76,1,23.37,3.22,35.29,3.2
	c7.74-0.01,15.47,2.11,23.22,3.13c8.21,1.08,16.27,2.71,23.95,5.9c1.63,0.68,3.25,1.43,4.78,2.32c7.27,4.2,14.37,8.64,20.83,14.06
	c1.23,1.03,2.97,1.45,4.24,2.45c4.61,3.65,9.29,7.25,13.61,11.23c3.23,2.97,4.09,7.32,5.22,11.43c2.65,9.63,1.3,19.33,0.64,29.02
	c-0.1,1.49,0.08,3.01,0.25,4.5c0.74,6.26,1.19,12.57,3.65,18.52c0.71,1.73,0.58,3.8,1.04,5.66c1.07,4.39,2.42,8.73,3.36,13.15
	c1.56,7.37,3.06,14.77,4.27,22.2c1.49,9.22,2.75,18.48,3.94,27.74c0.81,6.26,1.19,12.57,2.01,18.82c1.13,8.61,1.52,17.24,1.64,25.91
	c0.13,8.83-0.17,17.58-1.85,26.29c-0.62,3.19-0.43,6.55-0.48,9.84c-0.13,9.22-0.05,18.46-0.34,27.67
	c-0.16,5.21-0.96,10.39-1.33,15.59c-0.4,5.73,0.3,11.48-1.57,17.18c-0.79,2.39,0.1,5.42,0.53,8.11c0.63,3.93,2.25,7.84,2.12,11.71
	c-0.15,4.29,1.09,8.11,2.01,12.08c0.78,3.35,1.75,3.78,4.9,2.37c7.47-3.35,13.41-8.57,18.03-15.23c2.87-4.15,6.35-6.09,11.52-5.4
	c4.21,0.56,8.51,0.51,12.77,0.59c4.11,0.07,7.15,2.92,7.35,7.1c0.05,0.96-0.1,1.99,0.2,2.86c0.95,2.8,0.33,5.11-1.73,7.17
	c-0.57,0.57-0.99,1.32-1.38,2.05c-3.24,6.04-6.43,12.12-9.69,18.15c-5.61,10.38-11.03,20.9-18.07,30.39
	c-3.82,5.15-8.5,9.69-12.98,14.32c-3.35,3.46-6.68,6.68-8.23,11.58c-1.14,3.58-3.59,6.77-5.56,10.07c-1.39,2.32-3.58,3.52-6.28,3.07
	c-3.51-0.58-6.99-1.39-10.47-2.19c-3.07-0.71-3.99-0.33-4.97,2.55c-2.86,8.44-5.43,16.99-8.6,25.32c-1.69,4.45-3.84,8.92-6.68,12.71
	c-7.5,10.04-13.88,20.77-20.52,31.35c-2.18,3.47-4.38,6.93-6.7,10.31c-0.66,0.97-1.67,1.82-2.71,2.38
	c-5.53,3.03-11.11,5.96-16.69,8.9c-10.34,5.47-18.79,13.33-26.83,21.64c-3.32,3.44-6.01,7.48-9.06,11.19
	c-4.01,4.86-8.1,9.65-12.15,14.48c-1.24,1.47-2.45,2.97-3.66,4.47c-3.62,4.49-7.2,9-10.86,13.46c-3.56,4.35-7.04,8.78-10.82,12.93
	c-5.33,5.86-8.99,12.77-12.96,19.5c-1.87,3.18-3.53,6.55-4.82,10.01c-1.02,2.74-1.83,5.82,0.87,8.48c2.62-1.06,5.07-2.04,7.52-3.03
	c-4.78,5.88-11.53,8.67-17.54,12.52c-6.25,4-12.43,8.16-18.97,11.64c-6.89,3.66-14.13,6.7-21.31,9.79
	c-3.55,1.53-7.36,2.01-11.28,2.12c-3.4,0.1-6.76,1.11-10.16,1.52c-4.08,0.5-8.18,0.85-12.28,1.15c-2.45,0.18-4.67-0.66-6.41-2.36
	c-2.74-2.68-5.63-5.28-7.92-8.31c-1.81-2.4-4-3.67-6.71-4.36c-5.46-1.37-11.06-2.32-16.37-4.14c-8.13-2.78-16.48-5.14-23.32-10.91
	c-3.91-3.3-6.63-7.31-8.91-11.7c-5.38-10.34-7.39-21.72-9.83-32.95c-0.44-2.01-1.06-4-1.28-6.03c-0.26-2.42-0.52-4.94-0.16-7.31
	c0.65-4.22,0.36-8.1-1.7-11.94c-2.33-4.35-4.24-8.93-6.49-13.33c-4.55-8.89-10.57-16.67-17.98-23.36c-2.55-2.31-5.1-4.62-7.67-6.9
	c-3.7-3.28-5.55-7.69-6.18-12.29c-0.87-6.41-4.38-11.17-8.3-15.77c-6.34-7.43-11.65-15.57-16.39-24.05
	c-2.28-4.07-3.26-8.72-3.3-13.46c-0.07-8.12,0.18-16.25-1.95-24.21c-0.6-2.25-0.88-4.5-2.42-6.47c-0.91-1.17-1.06-2.93-1.74-4.97
	c-2.3,3.15-2.42,6.01-1.42,8.94c0.74,2.18,2.17,4.2,0.5,6.59c-1.67,2.4-4.14,1.92-6.4,1.8c-8.48-0.45-17.05-0.46-25.41-1.74
	c-9.38-1.44-17.84-5.65-24.37-12.75c-3.12-3.39-5.58-7.42-8.18-11.26c-3.45-5.1-6.88-10.23-10.03-15.52
	c-1.14-1.92-1.6-4.31-2.09-6.54c-0.31-1.45,0.3-3.18-0.22-4.5c-1.81-4.53-0.58-8.42,1.45-12.56c1.66-3.38,2.38-7.22,3.55-10.84
	c0.29-0.89,0.75-1.73,1.05-2.62c0.6-1.78,1.47-3.55,1.61-5.37c0.15-2.04,0.78-3.68,1.97-5.27c1.05-1.39,1.95-2.9,2.86-4.39
	c2.97-4.87,7.12-7.99,12.65-9.7c4.03-1.25,7.78-3.37,11.69-5.03c1-0.42,2.15-0.85,3.18-0.76c3.51,0.3,6.18-1.47,8.53-3.54
	c2.25-1.99,4.64-3.45,7.55-3.95c1.83-0.32,2.57-1.31,2.72-3.04c0.41-4.78,0.86-9.56,1.31-14.34c0.56-6.01,1.1-12.02,1.73-18.03
	c0.17-1.65,0.46-3.4,2.69-3.55c2.33-0.16,3.32,1.55,3.56,3.3c0.36,2.55,0.16,5.18,0.18,7.77c0.02,3.57-0.03,7.13,0.08,10.7
	C388.96,412.9,389.64,413.48,390.53,414.89z M854.08,431.04c-0.99-0.18-2.03-0.49-3.09-0.53c-4.72-0.16-8.8,0.58-11.62,5.27
	c-2.09,3.47-4.87,6.69-8.68,8.64c-4.89,2.5-9.75,5.07-14.71,7.41c-3.71,1.75-5.87,0.71-6.79-3.19c-0.78-3.33-1.23-6.75-1.85-10.12
	c-1.1-5.93-1.96-11.92-3.42-17.76c-1.15-4.61-2.54-9.04-0.07-13.6c0.19-0.34,0.17-0.8,0.21-1.21c0.57-6.7,1.23-13.39,1.68-20.1
	c0.41-6.16,0.67-12.34,0.84-18.51c0.09-3.13-0.37-6.28-0.22-9.41c0.18-3.84,0.76-7.65,1.14-11.48c0.59-5.87,0.94-11.77,1.79-17.61
	c1.45-10.03,0.56-20.05,0.3-30.08c-0.17-6.58-2.69-12.91-2.22-19.58c0.03-0.41-0.04-0.82-0.09-1.23c-1.06-8.3-2.04-16.6-3.21-24.89
	c-1.1-7.76-2.11-15.54-3.68-23.21c-2-9.79-4.44-19.5-6.85-29.2c-1.79-7.2-2.9-14.5-3.87-21.83c-0.16-1.21-0.04-2.46-0.02-3.69
	c0.11-7.01,0.38-14.02,0.25-21.03c-0.05-2.68-0.91-5.37-1.63-7.99c-1.72-6.25-6.69-9.89-11.45-13.59c-3.46-2.69-7.27-4.93-10.75-7.6
	c-6.56-5.03-13.45-9.62-21-12.88c-6.26-2.7-12.75-5.02-19.67-5.85c-3.95-0.47-7.81-1.59-11.74-2.27c-7.71-1.33-15.39-3.1-23.31-1.91
	c-0.8,0.12-1.65,0.03-2.47-0.06c-7.63-0.84-15.26-1.6-22.87-2.59c-4.21-0.55-8.34-1.67-12.55-2.22c-7.08-0.93-14.2-1.55-21.28-2.42
	c-2.84-0.35-5.64-1.04-8.46-1.51c-5.14-0.85-10.28-1.71-15.44-2.45c-5.58-0.79-11.2-1.88-16.78-0.25
	c-8.34,2.44-16.18,6.03-23.44,10.85c-6.41,4.26-12.72,8.64-18.01,14.3c-4.13,4.42-8.26,8.83-10.1,14.82
	c-1.28,4.17-2.35,8.47-6.27,11.17c-0.32,0.22-0.56,0.61-0.76,0.97c-3.45,6.07-6.78,12.21-10.36,18.2
	c-4.88,8.18-8.6,17.02-14.73,24.51c-4.37,5.34-8.02,11.28-11.77,17.09c-5.18,8.05-10.09,16.27-15.22,24.36
	c-8.31,13.11-15.7,26.7-22.07,40.86c-4.34,9.64-8.76,19.25-13.29,28.81c-2.47,5.2-5.54,10.14-7.83,15.41
	c-2.79,6.41-5.08,13.04-7.53,19.59c-1.77,4.75-3.33,9.59-5.18,14.31c-3.15,8.04-6.31,16.08-9.76,23.99
	c-3.17,7.28-6.82,14.36-10.09,21.6c-6.01,13.36-8.5,27.81-12.68,41.74c-0.37,1.22-0.55,2.43,0.87,3.24
	c2.23,1.27,2.33,3.57,1.78,5.48c-1,3.5,0.49,6.03,2.11,8.84c3.25,5.62,5.34,11.71,6.41,18.14c0.34,2.02,0.63,4.05,1.16,6.02
	c0.87,3.25,0.22,5.5-2.06,6.34c-2.16,0.79-3.85-0.73-5.46-3.84c-1.8-3.48-4.12-6.7-6.73-10.86c-0.82,2.08-1.49,3.13-1.64,4.25
	c-0.68,5.17-1.15,10.37-1.84,15.55c-0.29,2.15-0.68,4.35-1.48,6.34c-0.67,1.66-3.19,2.39-4.62,1.66c-1.55-0.79-1.82-2.13-1.67-3.82
	c0.32-3.62,0.4-7.26,0.63-11.9c-2.68,3.61-4.65,6.96-9.26,4.7c-1.51-5.92-3.19-11.84-4.47-17.84c-0.47-2.18-0.09-4.57,0.09-6.85
	c0.19-2.45,0.55-4.89,0.95-7.31c0.39-2.35,0.93-4.68,1.44-7.18c-7.33,0.48-13.8,2.36-20.08,5.4c-4.84,2.34-8.33,5.67-10.6,10.45
	c-3.72,7.81-7.73,15.49-9.73,24.02c-1.48,6.32-1.66,12.51,1.56,18.36c1.85,3.36,3.94,6.58,6.06,9.78c2.49,3.78,5.27,7.37,7.67,11.21
	c3.73,5.98,9.44,9.49,15.46,12.48c8.56,4.26,17.9,3.79,27.1,3.63c4.64-0.08,5.85-1.48,5.87-6.04c0-1.23,0.05-2.53-0.3-3.67
	c-0.56-1.84-0.12-3.18,1.23-4.44c1.1-1.02,2.09-2.18,3.11-3.28c3.74-4.04,7.26-2.37,9.1,1.63c1.47,3.21,2.79,6.64,3.3,10.11
	c1.35,9.09,2.4,18.24,3.2,27.4c0.47,5.31,1.84,10.4,4.01,15.07c4.51,9.75,10.91,18.35,17.85,26.53c3.01,3.55,4.89,7.66,5.53,12.24
	c0.49,3.57,2.05,6.6,4.38,9.13c2.78,3.02,5.81,5.83,8.9,8.55c5.75,5.04,10.3,11.09,14.18,17.55c5.58,9.29,10.46,18.97,14.18,29.2
	c0.81,2.22,0.96,4.16-0.17,6.32c-0.6,1.14-1.04,2.65-0.86,3.89c1.58,10.69,3.1,21.4,6.83,31.64c3.32,9.12,8.01,17.19,16.65,22.26
	c3.3,1.94,6.78,3.58,10.24,5.24c7.01,3.39,14.37,5.5,22.2,5.57c3.41,0.03,6.06,1.23,8.44,3.6c2.73,2.71,5.58,5.32,8.58,7.71
	c1.19,0.95,2.95,1.65,4.45,1.64c3.28-0.02,6.56-0.49,9.82-0.91c3.13-0.41,6.23-1.02,9.35-1.49c2.71-0.41,5.49-0.54,8.14-1.17
	c10.24-2.45,19.61-7.02,28.66-12.26c3.19-1.85,6.12-4.15,9.3-6.03c2.34-1.38,4.89-2.39,7.32-3.63c0.93-0.48,1.78-1.12,2.63-1.66
	c-0.17-0.72-0.2-1.14-0.37-1.49c-2.01-4-1.99-7.78,0.58-11.65c2.5-3.77,4.94-7.64,6.81-11.74c2.43-5.31,5.66-10.02,9.32-14.49
	c5.9-7.22,11.83-14.4,17.78-21.57c2.1-2.54,4.33-4.97,6.4-7.53c3.01-3.72,5.9-7.53,8.91-11.25c2.41-2.98,4.95-5.86,7.4-8.81
	c3.94-4.74,7.51-9.85,11.84-14.2c9.74-9.78,20.72-17.97,33.13-24.19c2.91-1.46,5.56-3.54,8.11-5.6c5.99-4.84,9.6-11.55,13.56-17.95
	c1.7-2.75,3.24-5.61,4.81-8.36c-4.58-3.59-4.83-5.36-2.01-9.93c3.33-5.39,5.69-11.21,7.41-17.3c2.65-9.35,5.29-18.7,7.93-28.05
	c0.56-1.99,2.76-3.75,4.51-3.58c1.75,0.17,2.71,1.69,2.76,4.43c0.03,1.43,0,2.85,0,4.28c1.18-1.31,1.81-2.66,2.5-3.99
	c0.95-1.82,0.78-3.41-0.83-4.8c-3.59-3.1-4.07-7.29-3.98-11.65c0.01-0.38,0.23-0.76,0.4-1.29c0.82,0.19,1.59,0.38,2.63,0.62
	c-0.54,2.64-0.2,4.97,1.57,6.97c2,2.27,3.88,2.13,4.93-0.63c1.32-3.45,2.39-7,3.67-10.47c0.8-2.19,1.62-4.4,2.74-6.44
	c0.89-1.61,4.32-2.71,4.98-1.69c0.8,1.24,0.99,2.97,1.12,4.51c0.06,0.71-0.68,1.47-0.96,2.25c-1.63,4.52-3.3,9.02-4.78,13.59
	c-0.27,0.83-0.04,2.42,0.55,2.84c3.1,2.23,6.79,2.07,10.35,1.78c2.79-0.23,3.96-2.81,5.3-4.78c0.97-1.44,1.62-3.26,1.86-4.98
	c0.61-4.26,3.26-7.15,6.08-9.99c1.55-1.56,3.24-2.99,4.64-4.67c2.28-2.74,4.18-5.81,6.57-8.44c7.24-7.94,12.19-17.18,16.09-27.08
	c1.05-2.67,2.23-5.21,4.01-7.58c1.82-2.42,2.77-5.5,4.11-8.29c-0.27-0.17-0.54-0.34-0.8-0.51c-1.19,1.25-2.5,2.42-3.55,3.78
	c-1.43,1.84-2.51,3.97-4.02,5.74c-1.95,2.28-3.95,4.63-6.33,6.39c-2.46,1.82-4.84,0.3-5.11-2.8c-0.2-2.34,1.27-3.75,2.63-5.34
	c2.31-2.71,5-5.29,6.53-8.41c2.1-4.27,4.01-8.27,8.79-10.19C853.32,434.9,854.81,433.53,854.08,431.04z"/>
<path d="M357.86,421.61c0.77-2.99,2.25-4.93,4.51-6.05c4.65-2.32,9.44-2.69,14.24-0.34c1.15,0.56,2.22,1.34,1.72,2.86
	c-0.48,1.45-1.57,2.21-3.15,2.08c-0.27-0.02-0.54-0.1-0.8-0.18c-5.13-1.53-9.99-0.52-14.76,1.5
	C359.28,421.61,358.85,421.54,357.86,421.61z"/>
<path d="M531.35,460.94c6.02,5.3,12.5,10.99,18.96,16.71c0.82,0.73,1.59,1.55,2.23,2.43c1.73,2.38,1.65,4.59-0.47,6.65
	c-1.87,1.81-3.97,3.38-6,5.01c-2.13,1.71-4.35,3.32-6.46,5.06c-1.5,1.24-2.7,2.65-2.61,4.88c0.07,1.64-0.83,2.79-2.49,3.38
	c-3.07,1.09-6.08,2.37-9.15,3.49c-1.8,0.65-3.63,1.4-5.5,1.63c-8.98,1.09-17.81,0.61-26.24-3.05c-3.86-1.67-6.7-4.25-7.29-8.69
	c-0.11-0.82-0.16-1.67-0.45-2.43c-3.54-9.38,1.51-15.96,7.43-22.06c1.65-1.69,4.12-2.72,6.38-3.65c3.41-1.4,6.97-2.45,10.46-3.66
	c0.51-0.18,1.14-0.27,1.49-0.62c3.91-3.85,8.9-5.25,14.27-6.5c-3.99-2.26-8.66-3.57-11.25-7.51c-2.54-3.87-4.6-8.06-7.02-12.37
	c-4.75,2.2-9.05,5.3-13.04,8.81c-1.73,1.52-3.42,2.19-5.76,1.08c-0.98-2.65,0.67-4.44,2.45-5.87c3.42-2.74,7.04-5.23,10.59-7.81
	c0.89-0.65,1.84-1.21,2.71-1.88c1.32-1.02,1.64-2.06,0.98-3.89c-2.2-6.1-3.33-12.45-3.11-18.96c0.05-1.63,0.25-3.3,0.68-4.87
	c0.98-3.57,3.96-4.27,6.4-1.44c1.51,1.76,2.72,3.78,4.05,5.69c0.47,0.68,0.97,1.36,1.29,2.11c1.73,3.98,4.57,5.45,9.04,5.47
	c5.77,0.02,11.02,2.39,15.21,6.48c1.72,1.68,3.39,2.33,5.82,2.27c6.52-0.15,12.5,1.36,17.13,6.5c3.62,4.02,4.22,8.72,3.58,13.78
	c-0.29,2.3-0.82,4.58-1.07,6.89c-0.38,3.44-1.74,5.16-5.11,6.1c-0.79,0.22-1.59,0.43-2.39,0.63c-1.49,0.36-2.48,1.14-2.46,2.82
	c0.02,1.8-0.47,3.35-2.42,3.82c-2.12,0.52-4.23-0.34-4.96-2.1c-1.99-4.82-6.4-3.43-9.88-4.22
	C535.23,460.55,532.9,460.94,531.35,460.94z M519.17,471.84c-4.05,0.44-8.2,1.03-11.6,3.87c-4.84,4.03-9.69,8.05-14.36,12.27
	c-3.96,3.58-3.6,10.19,0.89,13.08c5.68,3.66,12.14,3.82,18.63,2.95c2.09-0.28,2.93-1.79,3.05-3.8c0.16-2.6,0.27-5.21,0.6-7.78
	c0.32-2.55,0.91-5.07,1.34-7.61c0.2-1.21,0.29-2.44,0.43-3.67C518.46,478.23,518.78,475.32,519.17,471.84z M546.39,482.05
	c-4.73-4.11-9.01-7.93-13.4-11.6c-1.64-1.37-3.54-2.47-5.62-2c0.52,5.47,0.85,10.65,1.58,15.78c0.44,3.14,0.45,6.66,3.95,8.9
	C537.69,490.26,541.67,486.38,546.39,482.05z M546.1,434.02c0.39,1.55,0.36,3.1,1.1,4.04c2.77,3.53,3.19,7.8,4.26,11.88
	c0.33,1.26,0.71,2.52,1.05,3.68c5.43-0.43,6.18-1.08,6.85-5.68c0.14-0.95,0.2-1.91,0.21-2.87
	C559.68,437.49,554.57,433.02,546.1,434.02z M516.98,437.33c0.49,1.78,1.39,3.6,3.35,3.55c2.18-0.06,3.33-1.89,4.04-3.83
	C520.78,434.55,519.56,434.62,516.98,437.33z M540.65,445.8c0.47-3.98-1.46-6.6-5.18-7.72c0.13,0.42,0.16,0.83,0.36,1.11
	C537.29,441.23,538.78,443.25,540.65,445.8z"/>
<path d="M735.37,459.36c1.19,0.36,1.88,0.47,2.47,0.77c3.22,1.64,6,1.77,7.82-2.04c0.21-0.44,0.83-0.7,1.28-1.01
	c1.3-0.89,2.32-2.54,4.31-1.55c2.04,1.02,3.13,2.77,3.22,4.92c0.12,2.74,0.14,5.53-0.29,8.23c-0.72,4.51-1.37,8.78,1.03,13.16
	c1.01,1.85,0.87,4.56,0.62,6.81c-0.32,2.83-1.53,5.56-1.94,8.39c-0.52,3.54-2.38,6.21-5.05,8.21c-3.06,2.3-6.37,4.31-9.74,6.12
	c-1.36,0.73-3.2,0.86-4.8,0.8c-7.17-0.26-12.68-4.87-14.31-11.81c-0.78-3.32-1.47-6.66-2.2-9.99c-0.12-0.54-0.35-1.1-0.28-1.61
	c0.42-3.04,1.74-6.25,1.17-9.07c-0.67-3.31,0.26-6,1.25-8.77c0.58-1.61,1.95-2.94,2.98-4.37c0.77-1.06,1.57-2.1,3.03-4.04
	c-2.89,0.17-4.74,0.15-6.56,0.4c-7.87,1.08-15.34-0.65-22.59-3.39c-1.96-0.74-3.64-2.42-5.24-3.9c-2.3-2.14-2.52-4.89-1.21-7.58
	c5.77-11.86,14.39-21.4,25.07-28.93c5.44-3.84,11.79-5.88,18.71-5.2c1.06,0.1,2.18-0.07,3.23-0.33c4.91-1.19,8.34,0.47,10.25,5.08
	c1.91,4.63,2.66,9.53,3.03,14.46c0.09,1.21-0.71,2.54-1.27,3.73c-0.7,1.47-1.8,2.77-2.34,4.28c-2.18,6.19-5.28,11.74-10.29,16.11
	C736.25,457.64,736.01,458.33,735.37,459.36z M727.04,491.4c-0.32,3.68,0.76,6.49,2.08,9.15c0.53,1.08,1.83,2.04,3,2.49
	c5.47,2.09,13.6-2.44,14.89-8.18c0.08-0.35-0.16-0.77-0.38-1.69C740.12,494.43,733.72,493.7,727.04,491.4z M706.85,443.68
	c-0.27-0.22-0.54-0.44-0.81-0.66c-2.34,2.11-4.53,4.31-8.12,4.04c-0.82-0.06-2.04,2.01-2.64,3.3c-0.67,1.43,0.67,2.28,1.71,2.88
	c1.52,0.88,3.1,1.91,4.77,2.24c4.43,0.88,8.93,1.88,13.41,1.93c3.61,0.04,7.25-1.17,10.85-1.99c0.75-0.17,1.33-1.07,2.41-1.98
	c-1.03-0.08-1.44-0.22-1.78-0.12c-5.52,1.63-11.19,1.07-16.79,0.92c-4.05-0.11-5.81-3.14-4.4-6.89
	C705.92,446.12,706.39,444.9,706.85,443.68z M731.82,476.49c2.48,0.24,4.87,0.59,7.26,0.66c1.76,0.05,2.47-1.23,2.02-2.76
	c-0.41-1.4-1.19-2.72-1.95-3.99c-1.63-2.74-2.37-3-5.28-2.09c-2.37,0.74-2.96,1.75-2.64,4.66
	C731.35,474.02,731.58,475.07,731.82,476.49z"/>
<path d="M576.66,643.29c-0.77-0.53-1.61-0.99-2.31-1.6c-3.18-2.8-6.56-2.82-10.36-1.25c-2.78,1.15-5.76,1.78-8.67,2.59
	c-3.73,1.04-7.03,0.27-9.82-2.43c-2.2,0.17-4.39,0.34-6.58,0.51c-2.11,0.17-3.38-0.85-4-2.8c-0.65-2.06,0.3-3.49,1.93-4.52
	c1.04-0.66,2.17-1.23,3.34-1.59c2.08-0.64,3.47-1.71,4.55-3.77c0.71-1.35,2.58-2.42,4.15-2.92c7.98-2.53,16.13-4.47,24.44-5.53
	c3.96-0.5,7.92-0.25,11.02,3.02c2.24,2.35,2.14,3.9-0.36,6.08c-3.17,2.76-6.19,5.68-9.45,8.69c1.03,1.8,1.93,3.38,2.84,4.97
	C577.14,642.92,576.9,643.1,576.66,643.29z"/>
<path d="M450.09,451.92c-0.39-0.67-0.79-1.34-1.44-2.46c-1.25,0.53-2.56,1.08-3.87,1.62c-1.5,0.63-2.96,1.4-4.51,1.81
	c-0.54,0.14-1.51-0.46-1.92-1c-0.24-0.32,0.07-1.59,0.42-1.73c3.24-1.33,6.49-2.68,9.85-3.62c0.73-0.2,2.34,1.02,2.77,1.94
	c0.4,0.85-0.22,2.19-0.39,3.32C450.7,451.85,450.39,451.89,450.09,451.92z"/>
</svg>
