<?xml version="1.0" encoding="utf-8"?>
<!-- Generator: Adobe Illustrator 24.1.0, SVG Export Plug-In . SVG Version: 6.00 Build 0)  -->
<svg version="1.1" id="Layer_1" xmlns="http://www.w3.org/2000/svg" xmlns:xlink="http://www.w3.org/1999/xlink" x="0px" y="0px"
	 viewBox="0 0 1224 792" style="enable-background:new 0 0 1224 792;" xml:space="preserve">
<path d="M576.89,211.58c0.61-10.07,1.09-19.93,1.85-29.78c0.76-9.92,1.8-19.82,2.77-30.19c-3.53,1.15-4.32,4.07-5.43,6.66
	c-1.1,2.57-2.04,5.21-3.02,7.73c0-5.88,0.08-11.72-0.02-17.56c-0.14-7.85,2.72-14.51,7.46-20.62c3.35-4.31,7.56-6.45,12.92-6.24
	c3.18,0.12,5.59-0.78,8-3.08c9.56-9.09,21.08-14.12,34.08-16.4c13.58-2.38,27.02-5.6,40.55-8.27c26.9-5.31,52.35-14.99,77.46-25.65
	c12.84-5.46,25.25-12,38.23-17.07c10.33-4.03,21.25-6.57,31.9-9.79c13.06-3.96,26.32-3.37,39.62-1.73c1.8,0.22,3.56,0.83,5.32,1.31
	c18.43,4.98,36.73,10.56,55.33,14.81c18.78,4.29,32.16-2.8,42.93-19.57c1.78-2.77,5.53-5.22,8.28-3.97c1.7,0.77,3.05,3.29,3.68,5.29
	c7.57,23.92,14.82,47.94,22.52,71.81c3.06,9.47,7.3,18.56,10.49,28c1.43,4.21,2.94,8.05,6.5,10.86c0.46,0.37,0.97,1.24,0.84,1.71
	c-1.69,6,2.51,10.48,4.1,15.57c2.65,8.47,7.6,15.91,11.45,23.83c3.1,6.38,6.8,12.46,9.63,18.95c2.36,5.42,4.37,11,6.52,16.52
	c0.3,0.77,0.74,1.57,0.76,2.36c0.08,3.45,0.3,6.35,4.73,7.43c2.56,0.62,3.75,6.17,2.56,9.88c-1.01,3.16-0.53,5.81,0.35,9.05
	c1.16,4.28,0.32,9.11,0.3,13.71c-0.03,8.95-0.04,17.9-0.15,26.84c-0.05,3.82-0.38,7.63-0.5,11.44c-0.04,1.32-0.34,3.08,0.35,3.9
	c6.22,7.46-0.14,14.96,1.02,23.3c-0.27-0.21,0.3,0.37,0.98,0.74c4.01,2.18,4.33,3.7,1.81,7.31c-0.91,1.3-1.81,2.89-1.94,4.41
	c-0.24,2.81-0.77,5.19-3.33,6.85c-0.68,0.44-0.93,1.62-1.28,2.5c-0.69,1.76-1.26,3.57-1.98,5.32c-0.93,2.25-2.56,4.53,1.39,6.56
	c-3.3,1.56-5.99,3.14-8.89,4.11c-2.89,0.96-4.98,2.23-6.01,5.33c-0.59,1.79-2.11,3.29-3.31,4.84c-3.29,4.23-3.65,9.38-4.64,14.34
	c-0.19,0.97-0.01,2.5-0.56,2.84c-4.58,2.81-3.03,8.63-6.13,12.1c-0.22,0.24-0.52,0.58-0.49,0.84c0.73,5.89,0.46,12.19,2.6,17.52
	c1.75,4.35,2.16,8.54,2.76,12.92c0.26,1.9,0.7,3.86,1.51,5.58c1.14,2.44,2.39,4.65-1.23,6.28c1.16,1.52,2.04,2.5,2.73,3.61
	c0.68,1.09,1.84,2.48,1.6,3.43c-0.82,3.27-0.69,6.14,1.01,9.17c1.3,2.31,1.91,5.01,2.82,7.54c0.35-0.03,0.7-0.06,1.06-0.09
	c-0.67,1.21-1.34,2.43-2.11,3.81c2.71,1.94,5.35,3.83,7.75,5.55c-1.45,3.1-2.71,5.77-3.97,8.45c0.27,0.19,0.53,0.39,0.8,0.58
	c-1.03,0.48-2.08,0.93-3.09,1.45c-3.49,1.81-4.23,4.44-1.27,7.09c3.63,3.24,4.46,6.76,2.83,11.85c-1.13,0-2.64,0.33-3.93-0.06
	c-3.83-1.16-4.25,0.8-4.87,3.98c-2.32,11.88-5.37,23.62-7.58,35.51c-2.78,14.94-10.28,28.06-15.3,42.12
	c-3.86,10.8-5.91,22-3.9,33.77c1.57,9.16,1.87,18.53,2.73,27.81c1.09,11.69-3.46,21.71-8.9,31.63c-5.44,9.9-11,19.92-12.01,31.45
	c-0.67,7.6-0.83,15.3-0.39,22.91c0.28,4.79-0.69,8.94-3.12,12.78c-1.77,2.8-4.13,5.21-6.11,7.88c-2.55,3.44-4.98,6.96-7.46,10.45
	c-0.29,0.4-0.53,0.85-0.85,1.22c-4.92,5.72-20.36,9.02-27.24,5.68c-9.76-4.74-20.23-6.57-30.84-7.82
	c-20.21-2.38-40.12-6.14-59.56-12.23c-19.88-6.23-39.58-13.02-58.28-22.2c-12-5.9-22.76-13.72-30.3-25.28
	c-6.79-10.41-15.78-18.94-25.25-26.79c-3.26-2.71-8.07-4.08-12.39-4.86c-5.67-1.02-11.55-1.16-17.34-1.12
	c-4.82,0.03-7.69-1.12-8.21-5.16c-1.89-14.89-8-28.13-16.34-40.26c-5.15-7.49-11.01-14.63-17.42-21.08
	c-11.02-11.09-22.65-21.58-34.13-32.2c-7.56-6.99-15.36-13.72-22.98-20.66c-6.82-6.21-11.76-13.87-16.93-21.44
	c-7.14-10.44-10.69-22.45-16.29-33.53c-10.63-21-16.76-43.67-25.02-65.56c-5.39-14.28-10.35-28.73-15.91-42.94
	c-4.18-10.66-9.2-20.98-13.51-31.59c-4.68-11.51-9.18-23.1-13.36-34.8c-2.79-7.81-5.39-15.75-7.1-23.84
	c-1.33-6.29-1.54-12.9-1.55-19.37c-0.02-13.29,0.27-26.6,0.78-39.88c0.16-4.25,1.17-8.54,2.28-12.68
	c0.99-3.71,10.35-7.76,13.97-6.42c3.13,1.16,3.78,4.97,1.11,7.28c-1.11,0.96-2.52,1.62-3.88,2.23c-5.2,2.36-7.14,6.66-7.26,12.04
	c-0.07,3.33-0.05,6.67-0.15,10c-0.26,8.64-0.75,17.29-0.8,25.93c-0.08,13.81,3.13,27.06,7.94,39.88
	c4.85,12.9,10.11,25.65,15.31,38.42c3.13,7.69,6.75,15.18,9.71,22.93c4.03,10.55,7.66,21.26,11.41,31.92
	c7.34,20.86,14.33,41.85,22.08,62.56c4.47,11.95,10.25,23.41,15.24,35.17c7.77,18.3,20.36,32.74,34.75,46.2
	c19.05,17.83,39.7,33.98,57.03,53.65c8.54,9.69,14.22,21.23,20.7,32.21c2.88,4.88,4.12,10.79,5.72,16.34c1.07,3.73,3,5.64,6.96,5.82
	c4.31,0.19,8.65,0.53,12.91,1.23c9.83,1.62,18.09,6.03,24.65,13.77c6.88,8.12,14.68,15.51,21.08,23.97
	c4.28,5.65,9.08,10.49,14.26,15.2c8.35,7.59,18.6,11.63,28.69,15.88c19.19,8.08,38.96,14.61,59.24,19.31
	c9.84,2.28,20.02,3.15,30.05,4.62c12.16,1.79,24.33,3.18,36.19,6.98c8.35,2.67,16.84,1.79,23.33-5.53
	c3.71-4.19,7.49-8.33,11.26-12.46c2.98-3.26,3.98-7.21,4.06-11.48c0.09-4.66,0.5-9.35,0.17-13.99c-0.79-11.22,3.07-21.25,7.49-31.14
	c3.65-8.17,7.6-16.21,11.38-24.33c0.49-1.04,1.08-2.19,1.07-3.28c-0.14-9.65-0.35-19.29-0.66-28.93c-0.32-9.97-2.03-20.1-0.78-29.86
	c1.14-8.87,4.66-17.71,8.55-25.89c6.55-13.76,11.32-28.03,14.61-42.8c2.37-10.66,3.62-21.57,5.74-32.3c1.6-8.1-0.8-15.44-3.34-22.83
	c-0.53-1.55-1.22-3.05-1.76-4.37c0.3-0.6,0.37-1.02,0.61-1.16c5.55-3.37,5.94-4.53,4.27-10.82c-0.59-2.21-0.47-4.6-0.99-6.83
	c-1.49-6.4-3.13-12.77-4.72-19.15c-0.27-1.09-1.18-2.48-0.79-3.19c2.34-4.3,0.1-8.26-0.91-12.11c-2.94-11.26-2.98-22.68-2.27-34.09
	c0.26-4.19,2.16-8.31,3.47-12.41c1.59-4.96,3.35-9.86,5.24-15.4c4.28,0.15,7.25-2.73,9.43-7.42c1.91-4.12,5.62-7.51,7.06-11.72
	c2.35-6.85,4.05-14.03,4.99-21.21c0.83-6.36,0.19-12.9,0.31-19.36c0.16-8.97,0.6-17.93,0.58-26.89c-0.02-9.12,0.52-18.41-1.05-27.29
	c-1.02-5.76-1.82-11.69-3.32-17.34c-1.42-5.33-4.78-10.1-6.86-15.29c-2.63-6.55-4.71-13.33-7.24-19.92
	c-2.35-6.09-4.99-12.07-7.5-18.1c-0.13-0.31-0.39-0.59-0.41-0.9c-1.22-15.12-9.67-27.74-14.51-41.6
	c-6.35-18.19-13.33-36.17-19.7-54.36c-4.34-12.39-8.09-24.99-12.15-37.48c-0.65-2-1.58-3.91-2.69-6.62
	c-2.64,2.27-4.6,4.23-6.83,5.82c-5.51,3.94-10.79,8.39-16.79,11.38c-8.83,4.4-18.49,3.84-27.88,1.63
	c-9.21-2.17-18.35-4.66-27.44-7.31c-12.46-3.62-24.7-7.88-37.68-9.63c-9.58-1.3-18.96-0.83-28.26,1.18
	c-18.94,4.09-37.22,10.29-54.82,18.41c-6.49,2.99-12.69,6.6-19.2,9.53c-7.4,3.33-14.86,6.65-22.55,9.21
	c-17.21,5.72-34.52,11.15-51.91,16.29c-6.02,1.78-12.44,2.21-18.62,3.49c-12.51,2.61-25.13,4.85-37.42,8.28
	c-7.33,2.05-13.33,6.87-18.62,12.81c-6.61,7.43-11.06,15.84-13.86,25.08c-1.96,6.47-3.15,13.31-3.65,20.05
	c-0.89,12.11-1.27,24.27-1.32,36.41c-0.04,8.95,3.72,16.77,8.99,23.89c3.98,5.37,3.85,5.31-0.34,10.69
	c-1.83,2.34-3.14,5.09-4.7,7.65c-3.59,5.89-8.44,9.21-15.72,8.27c-2.26-0.29-4.62,0.24-6.94,0.36c-5.12,0.25-10.32-4.26-11.09-9.6
	c-0.54-3.75,2.81-7.45,7.92-8.76c0.63-0.16,1.25-0.36,1.99-0.58c1.19-5.42,0.39-10.11-4.55-14.63c-0.8,3.35-1.44,6.02-2.13,8.89
	c-3.67-3.21-5-9.33-2.65-13.78c1.28-2.42,1.08-4.16,0.07-6.48c-1.3-3.01-2.26-6.22-2.9-9.43c-0.29-1.43,0.08-3.92,1-4.44
	c1.2-0.68,3.58-0.44,4.86,0.36C564.73,203.21,570.33,207.16,576.89,211.58z M572.88,241.77c-0.01,5.19,2.67,7.24,7.12,5.46
	c3.08-1.23,6.24-6.87,5.77-10.27c-1.8-13.01-12.32-19.49-20.79-27.43c-1.45-1.36-3.06,0.05-2.65,1.95
	c0.89,4.18,1.45,8.53,5.78,11.11c1.39,0.83,2.69,2.68,3.02,4.27c0.94,4.57,4.75,8.85,1.77,13.93
	C572.75,241.03,572.87,241.44,572.88,241.77z"/>
<path d="M772.84,533.82c1.75,2.16,3.83,4.13,5.19,6.51c4.69,8.21,9.2,16.47,11.54,25.83c0.96,3.86,3.25,7.64,5.77,10.79
	c2.88,3.61,6.53,3.47,10.05,0.39c4.81-4.21,7.6-9.46,8.36-15.92c0.54-4.6,1.82-9.1,2.55-13.68c0.52-3.23,0.5-6.55,1.05-9.77
	c0.47-2.76,1.24-5.49,2.15-8.13c3.36-9.71,6.33-19.53,7.34-29.8c0.22-2.24-0.16-4.54-0.3-7.53c-3.01,0.66-5.43,1-7.73,1.74
	c-5.74,1.84-11.47,2.15-17.18,0.15c-14.12-4.95-28.19-10.06-42.31-15c-3.9-1.36-7.94-2.3-11.86-3.59c-1.45-0.48-2.75-1.43-3.96-2.68
	c5.16-0.86,10.01-0.58,14.91,1.21c13.22,4.82,25.77,11.67,40.02,13.45c1.28,0.16,2.49,0.91,3.73,1.39
	c9.02,3.48,16.16-1.56,23.41-5.44c2.38-1.27,2.17-11.25,0.36-14.84c4.17-4.21,6.83-9.26,8.81-14.66c0.74-2.01,1.17-4.21,1.26-6.35
	c0.42-10.22,4.53-19.58,6.69-29.4c1.96-8.91,3.97-17.82,6.16-26.68c1.71-6.9,3.68-13.73,5.64-20.56c0.79-2.75,0.5-4.68-1.56-7.16
	c-4.14-4.99-5.41-11.42-5.88-17.72c-0.7-9.45-0.86-18.94-1.09-28.42c-0.11-4.61,2.87-7.66,7.54-7.33
	c7.28,0.51,14.59,1.19,21.78,2.43c3.83,0.66,6.24-0.22,8.68-3.08c5.28-6.19,10.39-12.68,16.51-17.95c3.7-3.18,9-5.09,13.89-6.16
	c6.12-1.34,12.56-1.59,18.87-1.59c3.01,0,6.49,0.97,8.93,2.68c4.9,3.44,10.09,4.46,15.89,4.74c13.82,0.66,27.47,2.59,40.54,7.41
	c5.73,2.11,11.43,4.3,17.04,6.71c9.24,3.98,14.57,13.48,14.04,23.29c-0.25,4.61-1.25,9.19-1.44,13.81
	c-0.08,2.01,0.83,4.14,1.61,6.09c0.98,2.43,1.84,4.39-1.99,5.02c-1.11,0.18-2.43,1.58-2.89,2.73c-1.22,3.04-3.09,4.96-6.36,5.67
	c-1.42,0.31-2.81,1.09-4.05,1.9c-6.52,4.29-12.79,9.01-19.53,12.9c-7.74,4.47-15.73,8.57-23.91,12.16
	c-5.59,2.45-11.69,3.73-17.55,5.58c-14.01,4.43-27.86,3.4-41.74-0.83c-5.8-1.77-8.89-6.84-13.51-9.97
	c-7.13-4.83-14.41-9.45-21.73-13.98c-3.32-2.06-7.04-1.52-10.71-0.84c-2.21,0.41-3.66,1.4-3.92,3.8c-0.58,5.26-2.99,10.36-1.3,15.83
	c0.17,0.54-0.03,1.44-0.41,1.87c-4.49,5.04-4.47,10.98-3.54,17.11c0.05,0.33,0.26,0.74,0.13,0.96c-4.92,8.21-4.1,17.87-6.64,26.7
	c-1.73,6-2.12,12.37-3.27,18.55c-0.32,1.73-0.97,3.5-1.88,5.01c-4.29,7.09-7.16,14.41-7.21,22.98c-0.05,10.97-0.74,21.96-1.73,32.89
	c-0.7,7.73-2.41,15.33-5.44,22.61c-1.13,2.7-1.24,5.83-1.84,8.76c-1.13,5.52-2.37,11.02-3.35,16.57c-0.37,2.1-0.62,4.42-0.12,6.44
	c1.28,5.19-1.53,8.58-4.57,11.98c-0.32,0.36-0.88,0.52-1.21,0.88c-2.45,2.67-4.44,6.09-7.42,7.85c-2.95,1.74-6.89,1.8-11.52,2.85
	c2.63,4.04,4.71,7.51,7.06,10.78c2.11,2.93,4.11,5.72,2.37,9.57c-1.61,3.57-3.92,4.13-7.05,1.74c-6.31-4.82-12.62-9.63-19.04-14.3
	c-1.86-1.36-4.02-2.33-6.12-3.32c-3.87-1.83-6.2-4.69-5.77-7.31c0.49-2.94,3.43-4.54,8.36-4.56c0.65,0,1.29-0.09,2.3-0.17
	c-0.22-0.8-0.26-1.43-0.55-1.9c-3.74-6.07-3.32-8.83,2.42-12.82c2.71-1.88,2.03-4.04,1.53-6.6c-2.04-10.36-7.62-19.01-12.98-27.78
	c-0.39-0.64-0.66-1.34-0.98-2.02C772.4,534.1,772.62,533.96,772.84,533.82z M952.66,332.54c1.65,0.4,2.43,0.7,3.22,0.76
	c3.92,0.32,5.52,3.43,6.04,6.37c0.28,1.57-1.76,4.05-3.38,5.35c-4.51,3.63-9.19,7.1-14.08,10.2c-6.61,4.18-14.12,6.73-21.79,5.53
	c-6.47-1.01-12.73-3.58-19.44-3.43c-2.03,0.05-4.25,0.11-6.03,0.94c-4.98,2.33-8.05,1.93-10.25-3c-2.48-5.55-3.96-11.54-6.1-17.25
	c-0.64-1.71-1.79-4.05-3.15-4.42c-1.19-0.32-3.81,1.41-4.41,2.83c-2.26,5.32-4.13,10.83-5.79,16.37c-1.42,4.73,0.17,7.1,4.95,8.58
	c1.89,0.58,3.97,0.95,5.58,1.99c8.08,5.22,16.53,10.04,23.91,16.13c9.7,8.02,20.15,12.47,32.83,12.04
	c14.68-0.49,27.88-5.97,40.99-11.65c8.35-3.62,15.97-8.38,23.05-14.46c6.02-5.16,10.46-10.84,13.79-17.79
	c2.77-5.77,2.19-11.98,2.9-18.05c1.18-10.17-1.06-12.05-9-16.22c-7.47-3.92-16.29-5.33-24.57-7.65c-3.17-0.89-6.48-1.3-9.75-1.81
	c-3.17-0.49-6.36-0.83-8.41-1.09C959.84,313.38,956.3,322.82,952.66,332.54z M898.76,313.38c3.21,0,5.31,0.05,7.42-0.01
	c4.8-0.14,8.62,2.07,12.16,4.99c1.54,1.27,2.89,2.98,4.65,3.71c6.12,2.55,12.34,4.89,18.63,6.97c1.23,0.41,3.73-0.22,4.33-1.19
	c3.77-6.08,6.96-12.44,6.87-19.92c-0.04-3.07-1.42-4.92-4.14-6.17c-2.87-1.31-5.5-3.19-8.44-4.28c-3.22-1.2-6.65-2.4-10.01-2.48
	c-4.79-0.11-9.59,1.1-14.4,1.22c-6.15,0.15-9.67,3.89-12.64,8.45C901.66,307,900.63,309.64,898.76,313.38z M870.1,323.25
	c-3.9-2.15-8.22-1.76-12.43-1.15c-1.03,0.15-2.54,1.81-2.64,2.9c-0.85,8.62-0.54,17.15,3.59,26.11c0.94-1.68,1.73-2.76,2.2-3.96
	c2.99-7.6,3.5-16.21,9.26-22.69C870.24,324.27,870.1,323.83,870.1,323.25z M934.76,338.36c-6.12-1.36-11.85-2.75-17.63-3.8
	c-0.91-0.17-2.32,0.96-3.08,1.84c-0.95,1.1-1.45,2.58-2.17,3.88c-1.91,3.47-1.44,4.72,2.22,6.43
	C920.09,349.5,932.32,345.52,934.76,338.36z"/>
<path d="M698.81,222.1c0,2.77,0.15,5.54-0.03,8.3c-0.87,13.74,2.19,26.71,7.32,39.34c1.31,3.23,2.13,6.66,3.36,9.92
	c1.89,5.01,0.68,9.83-1.97,13.82c-6.73,10.15-5.38,20.45-1.9,31.08c1.86,5.66,3.43,11.3,3.11,17.47
	c-0.64,12.32,2.23,24.08,6.89,35.43c0.88,2.15,1.76,4.3,2.66,6.44c1.74,4.12,4.06,7.77,8.8,8.79c6.5,1.4,9.49,6.24,11.99,11.68
	c0.86,1.88,1.85,3.7,3.2,6.38c1.18-1.99,1.82-3.08,2.46-4.17c2.68-4.54,5.2-9.19,8.11-13.58c1.67-2.52,3.84-2.29,4.68,0.48
	c0.57,1.85,0.35,4.22-0.27,6.11c-2.53,7.71-5.28,15.36-8.13,22.96c-0.78,2.07-1.9,4.16-3.36,5.8c-2.51,2.82-4.3,2.57-5.92-0.99
	c-3.02-6.63-5.92-13.34-8.41-20.19c-2.12-5.83-5.04-8.39-11.23-8.64c-2.49-0.1-5-0.18-7.46-0.55c-2.9-0.43-4.01,0.73-3.93,3.53
	c0.14,4.83,0.24,9.66,0.25,14.49c0,1.64-0.06,3.38-0.58,4.91c-2.65,7.89-4.51,9.16-13.04,9.65c-15.44,0.89-30-3.4-44.58-7.55
	c-5.44-1.55-11.08-2.57-16.27-4.7c-8.02-3.3-16.74-4.54-24.56-7.94c-9.92-4.32-16.94-12.78-20.54-22.72
	c-2.35-6.49-6.43-8.74-11.94-10.42c-7.46-2.27-14.92-4.55-22.42-6.7c-3.24-0.93-5.25-2.65-5.42-6.22c-0.1-2.15-0.33-4.32-0.75-6.43
	c-1.79-8.93,2.35-15.46,8.6-21.02c1.28-1.14,3.18-1.72,4.89-2.2c3.33-0.92,6.78-1.47,10.11-2.39c9.03-2.51,18.17-4.58,27.56-3.58
	c6.58,0.7,13.11,2.12,19.57,3.64c7.9,1.86,15.68,4.23,23.55,6.22c4.31,1.09,7.34,3.72,9.83,7.2c1.15,1.61,2.55,3.05,3.59,4.72
	c1.24,1.99,2.58,2.35,4.97,1.91c5.66-1.05,8.39,0.82,9.21,6.22c0.51,3.38,2.44,4.24,5.35,4.78c5.2,0.97,10.44,1.95,15.47,3.54
	c3.94,1.25,7.6,3.37,9.76,7.33c0.69,1.28,1.87,2.29,3.69,3.28c-0.3-2.66-0.65-5.32-0.9-7.99c-1.24-12.74-2.05-25.54-3.84-38.2
	c-0.87-6.14-3.12-12.21-5.54-17.97c-2.36-5.59-2.85-10.68-0.08-16.2c1.7-3.4,2.88-7.07,4.09-10.69c1.25-3.74,0.81-7.37-0.29-11.23
	c-1.4-4.9-1.96-10.07-2.59-15.16C694.34,247.36,693.74,234.61,698.81,222.1z M664.44,382.26c-0.56-0.12-1.12-0.25-1.68-0.37
	c-0.62,1.68-1.78,3.36-1.76,5.04c0.03,3.3,0.78,6.58,1.1,9.88c0.34,3.46,0.99,6.97,0.67,10.38c-0.53,5.78-4.89,7.77-9.46,4.31
	c-5.54-4.2-10.97-8.61-15.99-13.41c-5.86-5.61-11.9-11.25-16.62-17.77c-4.1-5.66-6.79-12.46-9.38-19.03
	c-0.63-1.6,1.16-4.67,2.61-6.43c1.68-2.05,3.95-0.77,5.84,0.46c2.09,1.36,4.14,2.81,6.32,4.02c4.9,2.72,10.02,4.06,15.42,2.18
	c0.14-0.58,0.23-0.75,0.2-0.9c-0.1-0.65-0.23-1.3-0.35-1.95c-0.94-5.11-0.17-5.87,4.87-5.32c1.43,0.16,2.94-0.34,4.85-0.59
	c-2.98-6.86-8.03-9.49-14.06-11.09c-6.09-1.61-12.04-3.74-18.11-5.46c-2.71-0.77-5.52-1.29-8.31-1.61
	c-13.97-1.59-27.53,0.2-40.67,5.23c-7.11,2.73-13.38,8.81-12.88,18.14c0.13,2.4,0.7,4.22,2.97,5.26c5.23,2.37,9.7,6.32,15.88,6.73
	c2.7,0.18,5.32,1.74,7.95,2.73c2.33,0.88,4.56,2.32,6.95,2.68c3.47,0.52,5.32,2.29,6.37,5.44c0.89,2.68,1.89,5.34,3.04,7.91
	c3.21,7.17,7.31,12.51,16.04,14.62c10.57,2.55,20.53,7.55,30.82,11.31c7.31,2.67,14.57,5.79,22.14,7.35
	c7.92,1.63,16.16,1.97,24.28,2.24c6.57,0.22,9.81-3.1,10.22-9.68c0.32-5.15,0.74-10.4,0.07-15.47c-0.76-5.73-2.53-11.36-4.21-16.92
	c-0.48-1.61-1.88-3.32-3.33-4.2c-6.75-4.09-13.94-7.15-21.97-7.41c-1.45-0.05-3.87,0.65-4.2,1.58c-0.49,1.41,0.18,3.44,0.84,5.01
	c2.19,5.17,4.79,10.18,6.84,15.4c1.25,3.17-0.3,5.67-3.39,6.57c-3,0.88-4.3-0.94-5.16-3.34
	C667.59,391.27,666.02,386.77,664.44,382.26z M653.11,402.35c0.37-0.35,0.73-0.69,1.1-1.04c0.24-10.09-3.09-19.4-6.7-28.61
	c-0.48-1.21-2.01-2.83-3.08-2.85c-4.6-0.07-9.22,0.27-13.81,0.71c-2.1,0.2-2.84,1.93-1.9,3.69c2.4,4.47,4.63,9.12,7.69,13.11
	c3,3.91,6.84,7.2,10.5,10.56C648.76,399.64,651.03,400.89,653.11,402.35z"/>
<path d="M902.19,663.59c-3.14-0.58-6.33-1.31-9.56-1.74c-8.24-1.1-16.51-2.07-24.76-3.09c-3.77-0.46-6.96,0.23-10.08,2.92
	c-3.62,3.11-8.01,5.32-12.03,7.96c-2.24,1.47-4.24,0.85-5.83-0.88c-2.01-2.2-3.83-4.58-5.59-6.99c-2.5-3.41-5.37-5.81-10.02-5.14
	c-2.79,0.4-5.66,0.19-8.46,0.54c-3.49,0.43-5.42-1.52-6.51-4.27c-1.08-2.72,1-4.19,2.99-5.61c3.59-2.56,7.73-2.78,11.49-1.54
	c9.7,3.22,19.81,2.1,29.67,3.45c3.08,0.42,4.14-1.71,3.36-4.01c-1.3-3.88-3.26-7.54-4.98-11.27c-0.66-1.44-1.43-2.83-1.75-4.46
	c5.26,4.69,9.39,10.11,11.19,16.96c0.74,2.83,2.49,4.32,5.17,4.68c11.67,1.56,23.35,3.08,35.04,4.48c2.29,0.28,4.73-0.4,6.96,0.07
	c1.92,0.4,4.32,1.4,5.22,2.9c0.71,1.19-0.13,3.77-0.98,5.35c-2.42,4.48-5.21,8.76-8.2,13.7c2.04,0.85,3.46,1.56,4.95,2.04
	c8.37,2.73,16.77,5.39,25.14,8.1c0.94,0.31,1.88,0.72,2.72,1.24c4.57,2.8,4.49,6.59-0.17,9.1c-5.84,3.16-9.97,2.41-14.96-2.17
	c-1.41-1.3-3.61-1.75-5.9-2.8c1.07,8.92-9.09,19.23-15.77,21.02c-12.47,3.34-25.08,5.27-38.01,3.75c-9.07-1.06-18.28-1.58-27.14-3.6
	c-8.35-1.91-16.24-5.72-24.48-8.23c-8.07-2.46-16.28-4.48-24.5-6.39c-2.82-0.66-5.24-1.2-5.5-4.61c-0.28-3.73,2.17-4.76,5.2-5.43
	c8.64-1.94,17.31-3.31,26.21-2.73c1.58,0.1,3.21-0.42,4.61-0.62c0.25-0.75,0.49-1.09,0.43-1.35c-1.61-6.84-1.11-7.62,6.01-8.63
	c2.46-0.35,4.96-0.5,7.45-0.66c9.28-0.61,18.57-1.72,27.85-1.64c8.43,0.08,16.96,0.86,25.24,2.41
	C894.07,678.3,901.26,673.27,902.19,663.59z M836.35,706.04c-0.07,0.39-0.15,0.78-0.22,1.17c2.83,0.75,5.61,1.73,8.49,2.21
	c4.58,0.76,9.21,1.39,13.84,1.72c12.46,0.88,24.96,1.33,37-2.84c3.01-1.04,5.83-3.07,8.27-5.19c1.93-1.68,1.29-3.77-1.34-4.42
	c-4.12-1.03-8.29-1.6-12.6-0.35c0.25,0.85,0.35,1.33,0.52,1.78c1.96,5.04,0.59,6.83-4.74,6.17c-3.79-0.47-7.57-0.97-11.36-1.38
	c-6.58-0.71-13.18-2.01-19.74-1.84C848.4,703.21,842.39,704.98,836.35,706.04z M835.92,684.96c4.27,4.12,35.24,4.98,41.06,0.89
	C862.66,682.56,849.28,684.21,835.92,684.96z M838.71,657.1c1.51,3.6,2.84,6.41,5.84,5.95c3.13-0.48,5.92-2.43,7.45-5.95
	C847.52,657.1,843.53,657.1,838.71,657.1z M810.91,697.1c4.93,1.93,15.19,2.09,18.34,0C823.42,697.1,817.58,697.1,810.91,697.1z"/>
<path d="M724.96,410.27c0.89,1.68,1.65,2.54,1.82,3.51c1.88,10.34,4.37,20.41,10.14,29.47c2.7,4.23,1.05,7.75-3.27,10.05
	c-8.46,4.51-17.47,8.37-24.99,14.15c-10.84,8.31-22.79,12.51-35.97,14.47c-11.26,1.68-22.47,2.57-33.78,0.62
	c-4.15-0.71-7.72-1.9-11.13-4.82c-4.85-4.16-10.32-7.83-16.04-10.66c-4.85-2.4-7.97-6.09-10.39-10.37
	c-3.79-6.71-8.26-12.79-13.64-18.29c-1.37-1.4-1.99-3.61-2.71-5.54c-0.86-2.31-1.45-4.73-2.18-7.1c-1.16-3.73-2.33-7.45-3.91-12.47
	c2.52,0.98,4.08,1.27,5.22,2.12c1.15,0.86,2.34,2.15,2.73,3.47c1.78,6.13,6.77,10.04,10.02,15.13c3.36,5.26,5.71,11.23,9.48,16.13
	c3.95,5.12,8.98,9.44,13.72,13.91c1.4,1.32,3.47,1.91,5.17,2.93c7.12,4.28,14.76,6.75,23.12,6.62c10.81-0.17,21.65,0.01,32.4-0.85
	c6.72-0.53,13.18-2.92,19.03-6.73c8.76-5.71,17.72-11.11,26.6-16.64c3.69-2.3,4.15-3.03,2.05-7.86c-4.02-9.28-3.2-19.27-4.74-28.91
	C723.64,412.24,724.12,411.78,724.96,410.27z"/>
<path d="M762.48,521.2c-1.76-1.84-3.54-3.66-5.27-5.53c-8.31-9.02-16.6-18.05-24.89-27.09c-2.69-2.93-5.59-5.71-7.89-8.92
	c-0.92-1.29-1.19-3.9-0.51-5.31c2.37-4.95,8.76-6.9,13.75-4.54c0.78,0.37,1.76,1.31,1.79,2.02c0.03,0.69-0.98,1.49-1.64,2.13
	c-0.33,0.31-0.92,0.34-1.38,0.53c-3.89,1.62-4.04,2.12-2.08,5.72c4.61,8.47,10.41,16.05,16.71,23.34
	c4.51,5.22,8.42,10.97,12.6,16.48C763.28,520.42,762.88,520.81,762.48,521.2z"/>
</svg>
