<?xml version="1.0" encoding="utf-8"?>
<!-- Generator: Adobe Illustrator 24.1.0, SVG Export Plug-In . SVG Version: 6.00 Build 0)  -->
<svg version="1.1" id="Layer_1" xmlns="http://www.w3.org/2000/svg" xmlns:xlink="http://www.w3.org/1999/xlink" x="0px" y="0px"
	 viewBox="0 0 1224 792" style="enable-background:new 0 0 1224 792;" xml:space="preserve">
<path d="M991.24,438.34c-1.69-2.84-3.48-5.62-5.03-8.53c-1.86-3.48-3.52-7.08-5.28-10.62c-0.8-1.61-1.7-1.84-3.59-0.73
	c-2.87,1.68-5.61,3.61-8.54,5.18c-4.29,2.3-8.71,4.38-13.07,6.56c-0.35,0.17-0.69,0.35-1.4,0.7c0.91,1.01,1.59,1.9,2.41,2.63
	c4.58,4.07,9.2,8.1,13.8,12.16c4.87,4.3,8.11,9.76,10.34,15.73c0.74,2,0.46,4.58,0.03,6.77c-1.55,7.89-3.82,15.59-8.33,22.37
	c-1,1.5-2.47,2.84-4,3.81c-9.63,6.08-19.1,4.86-28.58-0.62c-6.74-3.9-12.63-8.78-18.08-14.25c-0.29-0.3-0.58-0.6-0.9-0.87
	c-1.75-1.54-3.06-1.29-4.26,0.68c-0.69,1.14-1.37,2.39-2.37,3.21c-2.34,1.91-5.44,0.51-5.78-2.49c-0.07-0.61-0.02-1.25,0.08-1.87
	c0.5-3.17,1.19-6.31,1.49-9.5c0.13-1.36-0.29-2.91-0.9-4.16c-1.31-2.7-2.85-5.3-4.43-7.86c-0.44-0.71-1.32-1.15-2-1.71
	c-0.54,0.69-1.29,1.31-1.59,2.09c-1.49,3.87-2.95,7.75-4.24,11.69c-1.65,5.01-2.91,10.16-4.77,15.08c-1.45,3.84-1.84,7.93-3.79,11.7
	c-2.65,5.14-4.16,10.85-6.55,16.14c-2.06,4.57-4.19,9.05-5.2,14.02c-1.05,5.19-2.26,10.34-3.55,15.48
	c-0.91,3.62-2.08,7.17-3.14,10.75c-0.15,0.5-0.46,0.96-0.55,1.46c-1.76,9.31-5.86,17.79-9.92,26.17
	c-4.07,8.41-8.34,16.78-13.71,24.51c-3.85,5.54-7.5,11.22-11.23,16.84c-4.08,6.15-8.1,12.35-12.28,18.43
	c-1.52,2.22-3.23,4.37-5.18,6.2c-4.16,3.91-6.68,9-9.95,13.53c-5.23,7.26-9.89,14.93-15.08,22.22c-3.11,4.38-7.2,7.46-12.57,9.24
	c-5.49,1.81-10.73,4.55-15.84,7.32c-6.4,3.47-12.45,7.57-18.85,11.06c-3.94,2.15-8.28,3.61-12.91,2.99
	c-1.8-0.24-3.56-0.95-5.26-1.63c-2.02-0.81-3.96-1.81-5.94-2.72c-0.19-0.09-0.45-0.06-0.59-0.19c-3.02-2.75-7.11-3.26-10.61-5.03
	c-4.95-2.51-10.11-4-15.95-3.22c-3.05,0.4-6.42-0.57-9.47-1.51c-4.67-1.44-9.15-3.47-13.76-5.11c-5.97-2.12-11.96-4.21-18-6.1
	c-7.74-2.42-15.54-4.65-23.32-6.94c-3.09-0.91-6.19-1.83-9.3-2.65c-4.28-1.13-7.57-3.45-10.43-6.94c-3.27-4-7.21-7.45-10.89-11.11
	c-1.39-1.38-2.79-2.76-4.33-3.96c-4.85-3.75-9.87-7.29-14.63-11.16c-2.06-1.68-3.75-3.85-5.39-5.98
	c-4.74-6.16-6.92-13.68-10.65-20.38c-1.51-2.72-2.9-5.52-4.52-8.18c-0.57-0.93-1.74-1.47-2.54-2.28c-4.6-4.61-9.2-9.21-13.74-13.89
	c-2.69-2.77-3.6-6.53-4.95-9.97c-2.36-5.98-4.37-12.1-6.52-18.17c-0.76-2.16-1.32-4.41-2.27-6.48c-2.56-5.56-5.16-11.11-8.01-16.53
	c-1.31-2.5-2.74-4.84-2.97-7.76c-0.11-1.42-0.81-2.78-1.18-4.19c-1.83-6.89-1.69-14.01-2.52-21.02c-0.36-3-0.57-6.04-1.31-8.95
	c-0.44-1.71-1.77-3.2-2.91-5.14c-1.46,0.68-2.84,1.3-4.2,1.96c-4.39,2.15-8.62,4.75-13.19,6.37c-4.79,1.69-9.92,2.24-15.07,1.53
	c-2.71-0.38-2.93-0.17-3.68,2.4c-0.43,1.48-0.99,2.93-1.62,4.33c-0.55,1.23-1.42,2.07-2.96,1.61c-1.43-0.43-2.53-1.24-2.51-2.81
	c0.04-3.12-0.45-6.47,0.53-9.29c1.74-5.02,2.24-10.11,2.55-15.28c0.62-10.31-2.48-19.43-8.83-27.52c-1.93-2.45-3.63-5.08-5.57-7.52
	c-3.1-3.9-6.07-7.93-9.51-11.51c-6.33-6.6-13-12.86-19.45-19.35c-3.66-3.69-7.31-7.41-10.69-11.35c-2.93-3.43-1.92-6.88,2.29-8.73
	c5.34-2.33,10.62-4.87,16.12-6.74c6.2-2.11,12.63-2.72,18.88,0.15c3.11,1.43,6.14,3.02,9.17,4.6c1.54,0.8,2.74,1.31,4.51-0.02
	c2.13-1.61,4.75-2.57,7.16-3.81c5.08-2.62,10.1-5.38,15.27-7.79c2.4-1.12,3.02-2.94,2.7-5.04c-0.5-3.26-1.47-6.44-2.24-9.66
	c-0.1-0.4-0.29-0.78-0.36-1.19c-0.85-5.11-1.66-10.22-2.56-15.32c-0.21-1.2-0.74-2.35-1.08-3.53c-0.28-0.98-0.53-1.98-0.74-2.98
	c-0.5-2.32-1.01-4.65-1.45-6.98c-0.39-2.04-0.68-4.1-1.05-6.14c-0.69-3.88-1.42-7.75-2.12-11.63c-0.78-4.29-1.55-8.58-2.32-12.87
	c-0.47-2.65-0.9-5.31-1.4-7.95c-1.09-5.72-2.27-11.42-3.29-17.15c-0.46-2.55-0.69-5.15-0.93-7.74c-0.36-3.98-1.43-5.29-5.51-5.17
	c-4.04,0.12-8.05,0.9-12.08,1.29c-6.32,0.61-12.64,1.12-18.96,1.71c-6.73,0.62-13.46,1.23-20.17,1.94
	c-5.17,0.55-10.33,1.22-15.48,1.88c-1.55,0.2-3.07,0.71-4.61,0.77c-2.15,0.08-4.35,0.09-6.45-0.31c-0.86-0.16-1.91-1.37-2.12-2.28
	c-0.17-0.73,0.56-2.04,1.28-2.54c1.34-0.94,2.93-1.57,4.47-2.19c9.92-3.94,20.28-6.42,30.78-7.73c8.22-1.02,16.62-0.91,24.93-0.77
	c6.32,0.11,12.63,1.06,18.95,1.62c2.2,0.2,3.09-0.53,3.04-2.84c-0.05-2.6-0.36-5.19-0.55-7.78c-0.33-4.56-0.75-9.13-0.95-13.7
	c-0.34-7.54-0.8-15.08-0.73-22.62c0.08-8.73,0.69-17.45,1.03-26.17c0.17-4.47-0.18-8.94,1.03-13.36c0.53-1.95,0.06-4.16,0.24-6.23
	c0.13-1.53,0.45-3.09,0.94-4.55c0.58-1.74,2.07-2.28,3.77-2.07c1.66,0.21,2.78,1.32,2.75,2.91c-0.06,4.56-0.32,9.13-0.57,13.69
	c-0.07,1.34-0.43,2.66-0.53,4.01c-0.24,3.11-0.48,6.22-0.59,9.33c-0.09,2.58-0.31,5.21,0.09,7.72c0.44,2.78-0.66,5.09-1.37,7.56
	c-0.17,0.59-0.54,1.17-0.54,1.76c-0.06,7.27-0.07,14.55-0.08,21.82c0,0.62,0.06,1.25,0.12,1.87c0.35,4.02,0.67,8.04,1.07,12.06
	c0.26,2.58,0.72,5.13,0.93,7.71c0.21,2.49,0.32,4.99,0.27,7.49c-0.03,1.75,0.43,2.77,2.34,2.93c4.35,0.35,8.7,0.79,13.04,1.17
	c3.01,0.27,6.01,0.55,9.02,0.74c4.38,0.27,7.78,2.63,11.14,5.08c3.19,2.33,6.33,4.74,9.5,7.08c5.93,4.37,11.79,8.85,17.85,13.02
	c1.73,1.19,4.05,1.54,6.13,2.16c5.96,1.77,11.32,4.73,16.45,8.16c0.24,0.16,0.57,0.18,1.27,0.39c0.32-2.72-2.14-6.71,3.14-7.44
	c0.36,0.81,0.74,1.61,1.09,2.44c1.52,3.65,2.95,7.35,4.59,10.94c0.49,1.08,1.38,2.15,2.37,2.82c8.33,5.67,16.06,12.27,25.25,16.62
	c1.26,0.6,1.8,1.53,2.03,2.9c0.48,2.96,1.24,5.88,1.68,8.85c0.43,2.87,0.99,5.8,0.76,8.66c-0.21,2.77-0.74,5.72-3.39,8.15
	c1.42,1.89,2.79,3.94,4.39,5.79c1.36,1.57,2.4,3.08,2.08,5.3c-0.1,0.73,0.21,1.66,0.62,2.31c4.79,7.56,9.56,15.14,13.16,23.35
	c2.46,5.61,4.8,11.29,6.7,17.11c3.74,11.42,8.52,22.29,14.88,32.54c3.74,6.03,8.94,9.95,14.87,13.35c3.54,2.03,7.2,3.22,11.29,3.04
	c0.94-0.04,1.88,0.05,2.82,0.03c2.84-0.05,5.73-0.24,7.49,3.32c2.77-2.9,5.44-5.24,7.57-8c5.97-7.76,11.31-15.95,16.05-24.54
	c1.41-2.55,2.98-5.01,4.43-7.54c2.53-4.43,5.05-8.86,7.51-13.32c1.61-2.91,1.57-2.94,4.99-2.24c1.65,0.34,3.88-0.55,4.51-2.04
	c3.35-7.95,8.1-15.3,10.27-23.75c1.31-5.13,2.48-10.3,3.72-15.45c0.24-1.01,0.5-2.02,0.79-3.02c2.84-9.57,5.84-19.09,8.5-28.71
	c1.57-5.69,2.74-11.51,3.81-17.33c0.34-1.87-0.26-3.91-0.35-5.88c-0.04-0.91-0.23-2.07,0.22-2.72c2.31-3.34,2.05-7.91,5.25-10.83
	c0.45-0.41,0.45-1.34,0.61-2.04c0.41-1.81,1.38-2.92,3.11-3.92c1.83-1.06,3.02-3.16,4.63-4.66c2.38-2.2,2.42-5.49,3.95-8.09
	c0.37-0.62-0.04-1.7-0.1-2.82c2.36,0,4.75-0.22,7.06,0.07c1.73,0.22,3.79,0.48,4.03,3.08c0.05,0.52,1.03,1.16,1.7,1.38
	c1.55,0.5,3.17,0.78,4.76,1.15c0.1,0.02,0.21,0.08,0.3,0.06c3.25-0.38,6.24,0.05,9.48,1.1c2.94,0.95,6.53-0.23,9.84-0.27
	c3.42-0.04,6.85,0.15,10.27,0.25c1.35,0.04,2.71,0,4.04,0.17c3.59,0.46,7.16,1.23,10.76,1.45c3.92,0.24,7.87,0.01,11.8-0.04
	c1.95-0.02,3.9-0.12,5.85-0.15c1.04-0.02,2.1,0.17,3.12,0.03c3.54-0.49,6.96-0.45,10.2,1.36c3.98,2.23,8.52,1.66,12.8,2.35
	c3.79,0.61,7.63,0.94,11.43,1.46c1.62,0.22,3.14,0.9,3.5,2.66c0.35,1.72,0.59,3.58-1.07,4.91c-1.46,1.17-3.14,1.39-4.65,0.34
	c-3.24-2.24-7.04-1.86-10.58-2.19c-5.98-0.56-11.58-2.44-17.28-4.03c-0.69-0.19-1.42-0.46-2.12-0.41c-2.49,0.17-5.06,0.13-7.44,0.76
	c-3.71,0.98-7.42,0.95-11.17,0.98c-4.77,0.04-9.59-0.28-14.29,0.35c-2.85,0.39-5.51,2.26-8.24,3.5c-0.65,0.3-1.22,0.98-1.87,1.06
	c-3.88,0.43-6.86,2.89-10.26,4.38c-2.46,1.08-5.07,1.84-7.55,2.88c-4.2,1.77-8.23,3.69-10.81,7.87c-2.17,3.52-5.24,6.46-6.77,10.42
	c-1.05,2.72-2.4,5.35-3.11,8.16c-0.62,2.45-0.53,5.07-0.81,8.36c1.45-0.59,2.38-0.82,3.15-1.31c5.09-3.25,10.05-6.72,15.25-9.79
	c4.14-2.45,8.59-3.72,13.35-1.27c1.27,0.66,2.82,0.76,4.17,1.3c2.25,0.9,4.15,1.21,6.33-0.63c2.16-1.82,5.2-0.52,5.74,2.32
	c0.42,2.19,1.6,3.03,3.53,3.28c2.88,0.37,5.77,0.72,8.66,1.03c1.24,0.13,2.55-0.06,3.72,0.26c6.12,1.67,12.26,3.28,18.28,5.29
	c2.07,0.69,4.08,2.18,5.6,3.79c1.97,2.09,4.47,3,6.88,4.19c2.65,1.3,3.09,2.06,2.64,4.85c-0.39,2.47-1.61,4.48-3.2,6.32
	c-3.45,3.99-7.66,7.02-12.36,9.3c-2.32,1.12-4.84,1.84-7.33,2.56c-5.29,1.53-10.7,2.7-15.91,4.46c-7.25,2.44-14.66,1.48-22.02,1.55
	c-2.48,0.03-4.99-0.27-7.45-0.65c-4.9-0.75-9.49,0.51-14.08,1.92c-1.19,0.37-2.4,0.99-3.59,0.97c-1.25-0.02-2.81-0.33-3.67-1.12
	c-4.18-3.86-6.74-8.63-7.27-14.41c-0.21-2.28-0.46-4.57-0.97-6.79c-0.43-1.9-0.19-3.44,1.04-4.96c0.87-1.08,1.53-2.33,2.29-3.51
	c-0.16-0.16-0.31-0.31-0.47-0.47c-0.68,0.37-1.42,0.65-2.02,1.12c-4.52,3.53-7.35,8.15-8.73,13.69c-0.18,0.71-0.33,1.43-0.57,2.11
	c-0.8,2.21-2.79,3.28-4.65,2.55c-1.69-0.66-2.5-2.68-1.83-4.74c1.71-5.25,3.76-10.4,5.12-15.74c1.93-7.6,5.63-14.54,7.67-22.05
	c1.28-4.7,3.34-8.93,5.92-12.99c2.4-3.78,5.07-7.3,8.96-9.71c1.51-0.93,2.89-2.07,4.44-2.92c1.15-0.63,2.44-1.08,3.73-1.38
	c3.15-0.72,6-1.97,8.63-3.71c-0.05-0.26-0.1-0.53-0.15-0.79c-1.83-0.09-3.69-0.42-5.48-0.2c-2.62,0.31-5.18,1.1-7.79,1.53
	c-1.53,0.25-3.15,0-4.66,0.31c-1.78,0.37-3.51,1.06-5.23,1.67c-0.86,0.31-1.63,0.85-2.49,1.14c-3.24,1.1-5.99,2.97-8.17,5.56
	c-0.9,1.06-1.74,2.48-1.9,3.82c-0.75,6.46-1.5,12.91-3,19.26c-1.56,6.57-3.01,13.16-4.45,19.75c-1.38,6.3-2.67,12.62-4.02,18.93
	c-0.13,0.6-0.22,1.43-0.63,1.72c-0.96,0.68-2.1,1.45-3.19,1.49c-0.69,0.03-1.62-1.07-2.1-1.87c-0.45-0.74-0.45-1.75-0.78-3.22
	c-0.8,0.84-1.61,1.3-1.77,1.92c-0.99,3.71-1.77,7.48-2.76,11.19c-1.1,4.11-2.02,8.31-3.6,12.24c-2.33,5.78-5.27,11.32-7.78,17.04
	c-2.22,5.03-4.03,10.25-6.34,15.24c-3.99,8.59-6.79,17.62-10.19,26.43c-2.46,6.37-5.99,12.33-9.17,18.41
	c-1.04,1.99-1.87,3.95-1.68,6.22c0.18,2.19-0.94,3.1-2.85,4.18c-2.65,1.49-4.79,3.89-7.11,5.95c-0.54,0.48-0.88,1.18-1.4,1.67
	c-1.9,1.76-3.39,1.63-4.97-0.41c-0.31-0.4-0.55-0.86-0.82-1.28c-1.54,0.87-2.87,1.98-4.39,2.4c-1.56,0.42-3.31,0.14-4.98,0.21
	c-3.32,0.15-6.64,0.35-9.97,0.48c-0.61,0.02-1.31-0.01-1.82-0.29c-3.84-2.12-8.24-2.08-12.3-3.3c-3.98-1.19-7.9-2.61-11.78-4.09
	c-1.64-0.62-1.94-2.14-0.97-3.59c0.89-1.33,2.18-1.92,3.76-1.8c1.02,0.08,2.03,0.27,3.31,0.45c-0.1-1.05,0.07-2.08-0.31-2.82
	c-3.27-6.35-4.49-13.5-7.96-19.8c-2.31-4.2-4.57-8.35-7.49-12.2c-2.31-3.04-3.91-6.62-5.83-9.96c-1.03-1.8-2-3.63-3.13-5.37
	c-2.03-3.13-2-3.52,0.2-6.82c0.44-0.66,0.61-1.86,0.33-2.6c-2.3-6.23-4.43-12.56-7.23-18.58c-2.49-5.35-5.71-10.37-8.72-15.47
	c-1.48-2.5-3.27-4.81-4.8-7.28c-0.92-1.49-2.1-2.2-3.85-2.14c-2.19,0.07-4.38-0.02-6.57,0.08c-2,0.09-2.94,1.23-1.99,2.8
	c3.01,4.94,1.95,10.7,3.47,15.93c0.43,1.48,1.03,2.29,2.36,2.95c1.05,0.52,2.13,1.34,2.74,2.31c1.01,1.63,0.53,3.45-1.2,4.26
	c-2.49,1.17-4.89,2.72-7.98,2.03c-1.33-0.29-2.88,0.21-4.29,0.55c-4.76,1.13-9.49,2.34-14.24,3.52c-2.73,0.68-5.54,1.12-8.15,2.11
	c-3.38,1.28-6.72,1.06-10.15,0.66c-4.86-0.56-9.72-1.18-14.6-1.43c-2.22-0.12-4.47,0.71-6.73,0.83c-1.49,0.08-3.44,0.17-4.41-0.65
	c-2.93-2.47-5.4-1.2-8.02,0.24c-1.34,0.74-2.79,1.32-4.02,2.21c-0.62,0.45-1.12,1.4-1.17,2.16c-0.05,0.73,0.54,1.51,0.88,2.34
	c-1.93,2.52-4.69,1.02-7.16,1.6c0.32,2.73,3.54,4.83,1.76,8.17c-0.91-0.71-1.77-1.37-3.32-2.57c0.82,9.05,2.72,17.1,4.81,25.12
	c0.34,0,0.69,0,1.03,0c0.77-1.51,1.55-3.02,2.64-5.17c1.2,4.67,2.2,8.51,0.62,12.71c-1.63,4.34-1.81,8.87-0.91,13.5
	c0.87,4.48,1.34,9.05,1.91,13.59c0.33,2.65,0.97,3.11,3.43,2.09c0.96-0.4,1.81-1.05,2.77-1.43c1.76-0.69,2.63,0,2.43,1.86
	c-0.07,0.62-0.25,1.23-0.44,1.82c-0.65,2.1-0.91,4.12,1.25,5.5c-2.52,3-2.5,3.27,0.43,5.76c-0.33,0.66-0.68,1.37-0.95,1.91
	c-1.49-0.42-2.79-0.79-4.62-1.3c0.48,1.11,0.7,1.62,1.01,2.34c-0.88,0.43-1.76,0.86-2.86,1.4c0.57,3.18,1.15,6.33,1.68,9.49
	c0.71,4.2,1.12,8.47,2.15,12.59c1.08,4.32,2.62,8.53,4.19,12.7c1.17,3.09,3.02,5.77,5.02,8.49c2.2,2.98,3.09,6.96,4.44,10.55
	c1.6,4.27,3.14,8.57,4.59,12.89c1.12,3.33,1.9,6.78,3.14,10.06c2,5.29,4.69,10.19,8.91,14.13c4.03,3.77,8.15,7.48,11.81,11.59
	c2.03,2.27,3.35,5.24,4.75,8.01c2.54,5.02,4.88,10.14,7.34,15.19c2.57,5.27,6.48,9.32,11.15,12.84c5.06,3.81,9.81,8.03,14.67,12.09
	c1.75,1.46,3.51,2.93,5.14,4.52c3.35,3.25,6.6,6.6,9.93,9.87c0.57,0.56,1.29,1.1,2.04,1.34c8.12,2.61,16.23,5.26,24.41,7.7
	c6.77,2.02,13.68,3.56,20.41,5.7c4.13,1.32,8.01,3.43,12.04,5.07c2.98,1.21,6.04,2.25,9.06,3.37c3.09,1.15,6.34,1.13,9.52,0.89
	c5.59-0.42,10.73,0.78,15.57,3.53c0.27,0.15,0.52,0.35,0.81,0.48c6.14,2.77,12.27,5.55,18.44,8.26c0.83,0.37,1.82,0.55,2.73,0.53
	c4.78-0.09,9.28-1.16,13.25-3.99c0.84-0.6,1.73-1.16,2.64-1.65c7.19-3.77,14.36-7.59,21.62-11.23c2.95-1.48,6.28-2.27,9.12-3.92
	c2.74-1.6,5.36-3.63,7.48-5.97c2.71-2.98,4.87-6.47,7.26-9.74c3.74-5.12,7.41-10.3,11.23-15.36c5.14-6.81,10.54-13.43,15.55-20.34
	c3.65-5.04,6.81-10.43,10.23-15.63c3.31-5.04,6.59-10.11,10.03-15.06c4.24-6.09,7.82-12.53,10.87-19.29
	c2.44-5.4,5.46-10.56,7.48-16.1c2.26-6.21,5.2-12.2,6.22-18.9c0.7-4.58,2.63-8.97,3.84-13.48c1.32-4.91,2.31-9.92,3.73-14.8
	c1.25-4.28,2.69-8.52,4.4-12.63c4.08-9.81,7.61-19.78,10.53-30c0.97-3.38,2.52-6.6,3.85-9.88c2.59-6.36,5.26-12.68,7.8-19.06
	c0.48-1.22,0.7-2.63,0.67-3.95c-0.12-5.59,1.72-10.57,5.25-14.7c3.99-4.67,6.91-9.84,9.07-15.53c0.59-1.55,1.33-3.09,2.24-4.47
	c1.51-2.28,1.01-4.1-0.44-6.27c-2.02-3-3.65-6.28-5.29-9.52c-1.14-2.24-1.02-4.62-0.17-6.99c0.63-1.75,0.96-3.64,1.79-5.29
	c1.88-3.74,4.87-5.31,8.65-4.72c0.92,0.14,1.77,0.69,3.2,1.27c-1.01,0.61-1.38,0.99-1.81,1.08c-3.38,0.74-5.49,2.83-5.98,6.22
	c-0.55,3.77,0.26,7.26,2.55,10.34c1.64,2.21,3.35,2.12,4.41-0.4c1.41-3.35,2.74-6.75,3.86-10.2c1.82-5.64,3.58-11.31,5.11-17.04
	c2.04-7.64,3.4-15.42,3.89-23.33c0.14-2.31-0.42-4.46-1.07-6.69c-0.86-2.97-0.94-6.16-1.55-9.22c-1.64-8.13-1.42-16.38-1.62-24.58
	c-0.14-5.71,0.7-11.46,0.42-17.16c-0.39-7.74-2.27-15.17-6.89-21.65c-1.14-1.61-2.29-3.23-3.23-4.96c-0.57-1.05-1.02-2.33-1.02-3.5
	c-0.01-2.82-1.1-5.21-2.31-7.65c-0.84-1.71-2.12-2.54-3.9-2.65c-1.49-0.08-2.62-0.53-3.18-2.02c-0.7-1.85-2.27-1.86-3.61-1.17
	c-3.33,1.71-5.8,0.39-8.61-1.45c-1.99-1.3-4.61-2-7.01-2.21c-4.14-0.36-8.34-0.18-12.51-0.13c-1.13,0.01-2.25,0.36-3.37,0.54
	c-1.53,0.24-3.07,0.62-4.61,0.67c-2.3,0.07-4.52-0.03-6.46,1.69c-0.62,0.55-1.98,0.55-2.93,0.38c-3.82-0.67-7.58-0.37-11.41-0.04
	c-1.98,0.17-4.07-0.58-6.07-1.08c-1.19-0.29-2.3-0.89-3.76-1.48c1.58-1.2,2.71-2.58,1.9-4.63c-0.65-1.63-1.03-3.43-1.98-4.86
	c-1.12-1.68-2.1-3.09-0.74-5.07c0.21-0.31,0.08-0.99-0.1-1.41c-1.36-3.08-0.63-6.18-0.55-9.58c1.92,0.63,3.36,1.03,3.76,2.91
	c0.09,0.42,0.8,0.86,1.3,0.97c0.24,0.05,0.7-0.61,0.95-1.02c0.48-0.77,0.88-1.58,1.31-2.38c0.24,0.06,0.48,0.12,0.72,0.18
	c0.77,3.15,1.53,6.29,2.32,9.55c1.12,0.06,2.13,0.12,3.39,0.2c0.43,2.62,1.9,4.34,4.75,4.79c0.72,0.11,1.39,0.89,1.99,1.47
	c2.11,2.03,4.48,1.92,6.95,0.9c2.02-0.84,4.03-1.68,5.98-2.66c1.83-0.91,3.32-0.78,4.8,0.72c0.69,0.7,1.71,1.45,2.62,1.5
	c4.14,0.24,8.29,0.37,12.43,0.28c3.52-0.08,7.04-0.49,10.55-0.85c1.11-0.11,2.18-0.53,3.61-0.9c-1.12-3.59-2.06-6.96-3.23-10.25
	c-2.3-6.47-4.3-13.09-7.21-19.29c-2.49-5.29-5.09-10.76-10.05-14.45c-4.06-3.03-8.56-5.19-13.49-6.2c-5.94-1.22-7.8-2.96-7.93-8.85
	c-0.05-2.19-0.95-3.29-2.96-3.7c-2.86-0.59-4.32-2.49-5.36-5.13c-1.48-3.76-3.17-7.46-4.99-11.07c-2.91-5.75-8.31-7.4-14.12-7.54
	c-5.99-0.15-11.83-0.76-17.5-2.7c-3.08-1.05-6.09-2.32-8.17-4.93c-1.09-1.37-2.34-1.72-3.82-1.43c-1.83,0.36-3.66,0.85-5.42,1.48
	c-8.73,3.1-17.69,4.9-26.97,4.3c-7-0.45-13.73-2.39-18.89-7.28c-3.81-3.62-6.77-8.13-10.07-12.28c-1.15-1.45-2.03-3.15-3.31-4.46
	c-1.66-1.69-3.97-1.81-6.17-1.49c-8.49,1.23-16.74,3.25-24.54,7.01c-3.9,1.89-7.68,4.22-12.1,4.82c-2.97,0.4-6.01,1.17-8.93,0.88
	c-3.86-0.38-7.46,0.5-11.11,1.19c-2.63,0.5-5.12,1.68-7.72,2.34c-9.16,2.3-17.4,6.94-26.15,10.27c-3.67,1.4-7.16,3.26-10.83,4.66
	c-4.85,1.85-9.95,2.19-15.09,1.85c-2.81-0.19-4.7-2.59-4.21-5.46c0.41-2.45,1.28-4.82,1.74-7.26c0.72-3.87,1.39-7.76,1.83-11.68
	c0.21-1.89-1.24-2.9-3.15-2.01c-3.47,1.62-6.93,3.38-10.07,5.55c-7.01,4.86-13.68,10.21-20.75,14.98
	c-7.76,5.24-15.7,10.22-23.75,15.01c-10.21,6.07-20.99,11.05-32.01,15.46c-6.27,2.51-12.68,4.68-18.97,7.15
	c-2.42,0.95-4.74,2.18-6.98,3.5c-1.13,0.67-2.11,1.71-2.93,2.76c-2.12,2.75-1.78,3.45,1.5,4.42c1.87,0.55,3.78,1.23,5.42,2.25
	c1.81,1.13,2.89,2.96,2.98,5.23c0.03,0.73-0.06,1.53,0.2,2.17c1.52,3.73,0.1,7.15-1.07,10.56c-1.12,3.25-2.46,6.42-3.76,9.6
	c-0.67,1.64-1.57,3.11-4.04,3.97c0.17-1.46,0.18-2.5,0.43-3.49c1.31-5.14,2.87-10.22,3.92-15.41c0.41-2.02-0.11-4.3-0.51-6.41
	c-0.37-1.94-1.94-2.79-3.78-2.43c-3.26,0.64-5.92-0.76-8.55-2.25c-2.14-1.21-2.49-2.28-1.87-4.69c1.63-6.4,6.04-10.28,11.89-12.68
	c5.76-2.37,11.62-4.52,17.43-6.75c3.3-1.27,6.67-2.38,9.91-3.79c5.15-2.23,10.18-4.73,15.33-6.98
	c11.41-4.97,21.79-11.78,32.42-18.12c2.82-1.68,5.14-4.19,7.89-5.99c3.65-2.4,7.59-4.35,11.26-6.73c3.58-2.32,7.11-4.74,10.39-7.45
	c3.64-3.01,7.83-4.74,12.2-6.12c2.71-0.85,5.24,1.09,4.9,3.92c-0.65,5.57-1.65,11.1-2.5,16.64c-0.24,1.54-0.53,3.07-0.7,4.61
	c-0.17,1.59,0.69,2.41,2.22,2.25c3.2-0.32,6.39-0.72,9.58-1.16c5.06-0.7,9.32-3.5,13.9-5.44c5.47-2.31,10.74-5.18,16.34-7.08
	c9.14-3.11,18.22-6.8,28.01-7.31c4.52-0.24,8.91-0.74,13.14-2.3c2.82-1.04,5.6-2.2,8.36-3.4c4.79-2.08,9.63-3.92,14.84-4.65
	c3.9-0.55,7.78-1.28,11.68-1.81c2.73-0.37,4.89,0.79,6.49,2.97c2.22,3.01,4.46,6.01,6.59,9.09c3.47,5.03,7.27,9.79,13.23,11.87
	c6.25,2.18,12.71,3.17,19.34,1.7c1.42-0.31,2.91-0.34,4.3-0.75c6.38-1.89,12.77-3.77,19.08-5.88c2.94-0.98,4.05-1.11,5.48,1.53
	c1.79,3.28,4.9,4.44,7.97,5.58c2.8,1.04,5.76,1.5,8.85,1.55c4.14,0.07,8.4,0.32,12.39,1.35c5.83,1.5,10.59,4.62,12.64,10.92
	c0.92,2.83,2.61,5.41,4.01,8.07c1.74,3.29,4.69,4.42,8.24,4.63c1.18,0.07,2.4,0.57,3.46,1.15c1.55,0.84,1.78,2.19,0.89,3.72
	c-0.36,0.63-0.76,1.26-0.98,1.94c-0.59,1.83-0.15,2.69,1.59,3.48c5.17,2.35,10.35,4.71,15.51,7.1c0.54,0.25,1.18,0.57,1.46,1.04
	c2.86,4.69,5.85,9.31,8.4,14.16c2.07,3.94,3.65,8.13,5.3,12.28c1.31,3.28,2.42,6.63,3.55,9.98c1.12,3.34,2.17,6.7,3.23,10.06
	c0.87,2.77,1.46,5.67,2.64,8.3c0.65,1.44,2.25,2.46,3.72,3.97c4.17-3.18,7.94-6.09,11.74-8.95c1.58-1.18,3.24-2.24,4.86-3.37
	c1.43-1,2.79-0.62,4.06,0.27c1.32,0.92,1.71,2.15,1.48,3.8c-0.6,4.3-3.09,7.68-5.15,11.28c-1.81,3.16-3.56,6.37-5.28,9.58
	c-1.04,1.95-1.17,3.84,0.03,5.9c1.82,3.13,3.4,6.41,5.02,9.66c0.41,0.82,0.54,1.78,0.85,2.66c0.68,1.96,1.25,3.9,3.38,5
	c2.27,1.17,2.79,3.25,2.73,5.81c-0.13,5.8-0.02,11.62,0.22,17.42c0.17,4.15,0.58,8.3,1.11,12.41c0.51,3.92,1,7.89,2.09,11.66
	c0.79,2.75,2.72,5.14,3.81,7.83c1.19,2.93,3.34,4.99,5.54,7.05c2.02,1.9,4.33,2.58,7.18,2.04c4.75-0.89,9.4-1.86,13.39-4.83
	c0.83-0.62,1.8-1.05,2.71-1.55c2.04-1.1,4.01-1.02,4.86,0.17c0.8,1.12,0.39,3.41-1.18,4.8c-1.31,1.16-2.85,2.08-4.39,2.94
	c-4.06,2.27-7.03,5.78-10.4,8.84c-5.94,5.39-11.07,11.53-16.5,17.39c-2.36,2.55-2.5,5.09-2.02,8c0.29,1.73,0.87,3.42,1.39,5.1
	c0.44,1.43,1.44,1.79,2.64,0.93c1.26-0.9,2.32-2.12,3.63-2.92c1.74-1.07,3.55-2.21,5.48-2.7c2.51-0.63,3.95,1.03,3.46,3.59
	c-0.17,0.89-0.49,2.02-1.14,2.49c-3.6,2.62-4.84,6.66-6.59,10.42c-0.43,0.92-0.96,1.87-1.68,2.56c-1.51,1.48-3.39,2.05-5.48,1.46
	c-1.18-0.33-2.27-0.48-3.16,0.54c-4.65,5.31-9.76,10.37-10.72,17.87c-0.13,1.05-0.04,2.37,0.5,3.21c1.68,2.6,3.5,5.13,5.51,7.47
	c1.19,1.39,2.94,1.57,4.87,1.42c7.85-0.61,14.62-3.79,20.99-8.14c2.23-1.52,4.5-3,6.79-4.44c2.16-1.35,2.19-3.18,1.76-5.45
	c-0.54-2.84-0.89-5.76-0.9-8.64c-0.02-4.11,3.22-6.21,7.04-4.71c2.71,1.06,5.33,2.33,7.99,3.51c0,3.55,0,7.09,0,10.64
	c-1.08,0.96-2.09,2.04-3.27,2.87c-2.12,1.49-2.21,3.71-1.47,5.6c1.29,3.34,3.13,6.47,4.75,9.68
	C991.24,429.99,991.24,434.16,991.24,438.34z M568.75,363.69c-0.3-1.09-0.46-2.05-0.84-2.93c-4-9.34-7.92-18.72-10.75-28.48
	c-0.94-3.24-1.31-6.69-1.55-10.07c-0.15-2.02-1.02-3.15-2.49-4.35c-3.86-3.16-7.66-6.4-11.28-9.82c-2.71-2.56-4.92-5.65-7.67-8.15
	c-2.37-2.14-5.2-3.77-7.81-5.64c-3.63-2.6-7.22-5.26-10.89-7.8c-3.76-2.6-7.62-5.07-11.41-7.64c-2.81-1.9-5.73-3.22-9.26-3.26
	c-3.84-0.05-7.69-0.41-11.51-0.84c-3.61-0.4-4.15-0.18-4.01,3.45c0.23,6.02,1.54,11.86,3.32,17.61c0.33,1.07,0.65,2.27,0.51,3.35
	c-0.4,3.01,0.36,5.79,1.18,8.6c0.37,1.24,0.92,2.05,2.43,1.77c1.1-0.21,2.1-0.03,2.21,1.38c-0.75,1.52-3.74,0.53-3.35,3.09
	c0.24,1.62,0.65,3.21,1.01,4.81c0.18,0.81,0.43,1.61,0.62,2.42c1.43,6.14,1.68,12.5,3.35,18.6c0.65,2.39,1.23,4.82,2.18,7.1
	c1.32,3.17,1.77,6.34,1.38,9.76c-0.17,1.45,0.1,3.18,0.81,4.42c0.62,1.09,0.97,1.94,0.72,3.14c-0.14,0.7-0.28,1.61,0.04,2.15
	c1.37,2.31,0.89,4.85,1.22,7.29c0.33,2.43,0.89,4.83,1.43,7.61c5.32-3.73,10.97-5.43,16.86-6.34c3.28-0.5,6.61-0.81,9.92-0.99
	c3.41-0.18,6.83-0.08,10.24-0.17c0.55-0.01,1.08-0.41,1.58-0.61c-0.79-5.22,0.63-7.05,5.7-7.48c3.31-0.28,6.62-0.45,9.93-0.71
	C557.72,364.58,562.89,364.16,568.75,363.69z M423.98,405.09c5.45,7.3,10.63,14.26,17.07,20.21c3.75,3.46,7.49,6.98,10.77,10.86
	c5.1,6.03,10.03,12.23,14.58,18.68c3.33,4.71,7.35,9.19,8.56,15.09c0.79,3.84,1.47,7.78,1.48,11.68c0.01,3.92-0.87,7.84-1.39,11.75
	c-0.19,1.38,0.29,2.16,1.69,2.47c5.71,1.27,11.54,1.2,17.02-0.37c5.25-1.5,10.13-4.28,15.19-6.45c2.24-0.96,3.14-2.56,2.74-4.94
	c-0.12-0.72-0.18-1.44-0.31-2.16c-0.71-4.2-1.55-8.39-2.1-12.61c-0.22-1.71-0.86-2.54-2.47-3.09c-3.92-1.34-3.91-1.44-3.86-5.61
	c0.07-6.23-0.77-12.27-3.85-17.79c-1.06-1.89-2.38-3.65-3.67-5.4c-1.6-2.16-3.13-4.42-5-6.32c-4.08-4.15-8.34-8.13-12.57-12.12
	c-6.88-6.49-13.8-12.99-22.21-17.51c-3.63-1.95-7.47-3.5-11.86-3.07c-5.48,0.54-10.49,2.46-15.45,4.6
	C426.96,403.59,425.61,404.3,423.98,405.09z M916.08,439.76c3.15,1.93,4.35,3.8,5.26,7.19c0.62,2.3,1.47,4.54,2.37,6.75
	c0.88,2.16,2.12,2.75,4.38,2.6c1.22-0.08,2.46-0.09,3.67,0.06c1.14,0.14,2.38,0.42,2.44,1.93c0.06,1.53-1.01,2.09-2.28,2.57
	c-2.42,0.91-4.87,1.8-7.17,2.96c-3.73,1.86-4.52,5.22-1.99,8.47c1.46,1.88,3.27,3.48,4.89,5.23c5.96,6.45,13,11.28,21.23,14.37
	c8.97,3.37,18.62-2.43,21.88-9.73c1.52-3.4,2.63-7.02,3.6-10.63c1.1-4.1,1.28-8.4-1-12.13c-2.05-3.34-4.53-6.5-7.26-9.31
	c-2.29-2.35-5.26-4.03-7.84-6.11c-2.5-2.02-4.87-4.19-7.33-6.25c-3.91-3.28-7.9-6.29-12.98-7.81c-3.94-1.18-7.07-4.15-7.76-8.31
	c-0.79-4.71-4.07-7.24-6.98-10.33C918.46,420.38,917.25,430.11,916.08,439.76z M834.43,344.46c-0.13,0.22-0.26,0.44-0.39,0.65
	c1.73,1.9,3.52,3.76,5.18,5.72c2.07,2.44,1.53,5.22-1.27,6.75c-0.91,0.5-1.86,0.96-2.85,1.27c-1.88,0.61-3.21,1.76-4.23,3.46
	c-1.7,2.83-4.4,3.16-6.61,0.63c-1.33-1.53-2.69-1.78-4.42-1.3c-2.91,0.8-5.82,1.57-8.71,2.44c-3.28,0.99-4.98,0.04-5.61-3.32
	c-0.15-0.81-0.2-1.66-0.17-2.49c0.1-3.32,0.22-6.65,0.39-9.97c0.16-3.14,0.16-3.23-2.97-3.99c-1.92-0.47-3.9-0.68-5.8-1.21
	c-1.86-0.52-3.55-0.2-5.12,0.67c-2.77,1.53-5.91,2.65-7.34,5.9c-0.24,0.54-0.75,1.02-1.25,1.37c-2.6,1.81-3.91,4.51-5.1,7.29
	c-0.24,0.55-0.57,1.17-0.52,1.72c0.24,2.67,0.44,5.37,0.97,8c0.34,1.7,0.97,3.44,1.9,4.89c1.21,1.89,2.83,3.19,5.5,2.38
	c5.63-1.72,11.46-1.65,17.28-1.45c5.61,0.2,11.22,0.5,16.84,0.53c2.36,0.01,4.79-0.32,7.08-0.9c3.63-0.92,7.16-2.21,10.74-3.28
	c6.72-2.01,13.03-4.92,19.02-8.51c1.14-0.68,2.15-1.67,3-2.69c1.47-1.77,1.26-2.83-0.55-4.16c-1.84-1.36-3.79-2.58-5.49-4.08
	c-2.25-1.99-4.79-3.29-7.67-4C842.36,345.8,838.51,344.45,834.43,344.46z M941.65,333.14c0.28,3.03,0.84,5.74,0.71,8.4
	c-0.23,4.56-0.62,9.15-1.43,13.64c-1.04,5.71-2.26,11.42-3.96,16.96c-2.97,9.65-6.31,19.19-9.62,28.74
	c-1.23,3.54-0.3,6.11,3.35,7.95c0.21-0.35,0.47-0.68,0.63-1.06c3.1-7.22,7.1-13.89,12.19-19.88c0.97-1.14,1.2-2.38,0.73-3.79
	c-1.13-3.35-2.09-6.77-3.43-10.03c-0.85-2.07-0.54-3.9,0.32-5.7c0.57-1.21,1.39-2.35,2.3-3.33c4.86-5.28,9.79-10.49,14.68-15.74
	c1.42-1.53,2.76-3.15,4.55-5.19c-1.73-0.11-2.65-0.23-3.57-0.22c-2.94,0.03-5.65-0.79-7.69-2.89c-2.53-2.59-4.8-5.42-7.18-8.15
	c-0.26-0.3-0.53-0.6-0.81-0.93C942.74,332.38,942.15,332.79,941.65,333.14z M576.56,398.18c-0.13-0.73-0.11-0.87-0.17-0.92
	c-5.95-4.83-11.91-9.65-17.87-14.46c-1.32-1.06-2.25-0.75-2.85,0.81c-0.73,1.9-2.31,2.84-4.16,2.7c-2.62-0.21-3.71,1.24-4.57,3.29
	c-0.32,0.76-0.78,1.46-1.17,2.2c-1.13,2.11-2.33,4.18-3.36,6.33c-1.23,2.56-0.64,3.55,2.14,3.93c2.16,0.3,4.35,0.44,6.47,0.89
	c3.08,0.64,5.93,0.02,8.87-0.83c3.67-1.06,7.45-1.78,11.18-2.64C572.87,399.04,574.66,398.62,576.56,398.18z M500.92,399.78
	c0.53,0.03,0.93,0.09,1.33,0.08c4.95-0.04,9.9-0.19,14.84-0.1c3.74,0.07,5.87-1.86,5.14-5.49c-0.92-4.58-0.46-8.85,1.75-12.95
	c0.07-0.13-0.08-0.39-0.2-0.88c-2.04,0-4.21-0.27-6.28,0.07c-2.32,0.39-4.59,1.25-6.82,2.06c-3,1.1-5.97,2.27-8.88,3.57
	c-1.51,0.68-2.46,2.02-2.26,3.76C499.92,393.18,500.44,396.44,500.92,399.78z M501.55,431.44c0.55-5.03-0.76-9.05-1.6-13.06
	c-0.67-3.2-2.27-6.15-2.04-9.62c0.16-2.45-0.49-2.81-2.94-2.97c-5.38-0.37-10.75-0.8-16.13-1.14c-1.67-0.11-3.36-0.02-5.04-0.02
	c-0.05,0.23-0.1,0.47-0.16,0.7C482.77,413.87,491.89,422.4,501.55,431.44z M598.94,356.01c0.31-0.13,0.61-0.26,0.92-0.39
	c-0.67-4.67-1.1-9.39-2.08-13.99c-0.64-3.03-1.96-5.93-5.27-7.28c-0.93-0.38-1.66-1.24-2.51-1.83c-2.55-1.77-5.07-3.6-7.69-5.26
	c-1.93-1.23-2.84-0.68-2.89,1.66c-0.07,3.03,0.95,5.73,2.85,8.06c4.64,5.7,9.3,11.38,14.02,17.01
	C596.98,354.82,598.05,355.34,598.94,356.01z M574.07,375.67c-1.09-2.9-1.83-5.46-5.21-5.49c-6.93-0.07-13.86-0.04-20.69,1.33
	c-0.4,0.08-0.7,0.67-1.33,1.32C556.04,374.54,564.71,376.41,574.07,375.67z M542.11,381.69c-3.16-1.12-6.59-1.92-9.33-0.18
	c-3.54,2.25-4.25,6.29-4.27,10.61c3.56-0.78,6.82-1.5,10.98-2.41C541.04,388.08,541.69,385.08,542.11,381.69z M570.85,334.34
	c-0.08,5.66,2.91,9.77,3.99,14.42c1.08,4.66,3.31,9.03,7.19,13.21c-0.29-2.3-0.41-4.02-0.75-5.7c-0.6-2.94-1.47-5.82-1.98-8.77
	C578.39,342.16,575.82,337.95,570.85,334.34z M696.08,457.18c-0.36-0.3-0.71-0.61-1.07-0.91c-0.26,0.57-0.43,1.22-0.81,1.7
	c-2.52,3.15-5.06,6.28-7.65,9.38c-1.33,1.59-2.83,3.04-4.17,4.62c-1.19,1.41-0.62,2.77,1.24,3.16c2.7,0.56,4.87-0.59,6.01-3.14
	c0.68-1.52,1.43-3.01,2.09-4.53C693.19,464.03,694.63,460.6,696.08,457.18z M481.17,397.25c2.94,2.4,5.86,2.24,8.74,2.26
	c5.94,0.03,6.72-1.07,4.67-6.62c-0.04-0.1-0.08-0.19-0.12-0.29c-0.57-1.47-1.46-1.86-2.91-1.05c-2.08,1.15-4.24,2.17-6.34,3.29
	C483.96,395.51,482.76,396.29,481.17,397.25z M550.72,306.41c-0.17,0.26-0.34,0.51-0.5,0.77c1.5,1.47,2.84,3.16,4.53,4.36
	c3.64,2.61,6.62,6.41,11.61,6.78c0.46,0.03,0.91,0.74,1.28,1.21c0.42,0.53,0.73,1.15,1.23,1.95c1.18-2.6-0.04-3.97-1.76-5.16
	c-3.51-2.42-6.94-4.95-10.54-7.22C554.76,307.97,552.67,307.29,550.72,306.41z M595.7,365.05c-3.44-3.43-5.01-8.02-9.9-10.52
	c0.11,1.75,0.1,2.86,0.26,3.93c0.19,1.23,0.61,2.43,0.79,3.66c0.5,3.39,2.3,4.71,5.74,4.03
	C593.49,365.97,594.34,365.54,595.7,365.05z M580.21,390.45c0.12-0.18,0.24-0.36,0.36-0.54c-0.66-1.37-1.3-2.75-1.99-4.1
	c-1.77-3.49-4.26-4.21-8.49-2.12c2.42,1.99,4.63,3.95,6.99,5.68C577.92,390,579.15,390.11,580.21,390.45z M653.2,467.02
	c0.39,0.67,0.48,1.07,0.69,1.15c3.23,1.3,6.48,2.56,9.73,3.81c0.27,0.1,0.74,0.14,0.9-0.01c0.55-0.53,1.24-1.1,1.42-1.77
	c0.11-0.43-0.47-1.43-0.92-1.57c-2.56-0.78-5.15-1.52-7.78-1.99C656.02,466.42,654.71,466.85,653.2,467.02z M817.19,348.11
	c-2.57-1.07-3.67-1.07-3.94,0.1c-0.49,2.2-0.82,4.5-0.74,6.74c0.05,1.41,1.57,1.63,2.68,1.09c0.44-0.21,0.85-1.59,0.59-1.94
	C814.03,351.71,814.74,349.87,817.19,348.11z M510.58,406.68c-1.9-1.82-3.61-1.46-5.22-1.35c-1.38,0.1-2.43,0.76-2.23,2.38
	c0.16,1.3,1.74,2.15,3.18,1.52C507.7,408.63,508.93,407.68,510.58,406.68z M909.18,449.21c0.56-2.28,1.17-4.55-0.02-6.95
	C906.88,444.29,906.82,446.49,909.18,449.21z M695.86,472.56c3.22-1.68,4.16-3.88,3.05-6.52
	C697.8,468.41,696.83,470.48,695.86,472.56z M924.14,241.96c-0.05,0.3-0.11,0.6-0.16,0.9c0.69,0.33,1.6,1.1,2.02,0.89
	c1.32-0.67,1.64-1.88,0.86-3.56C925.81,240.87,924.97,241.42,924.14,241.96z"/>
<path d="M991.24,108.48c-0.35-0.74-0.89-1.45-1.01-2.22c-0.76-5.09-3.17-9.56-5.19-14.18c-0.78-1.78-1.3-3.67-1.94-5.51
	c2.68,0,5.37,0,8.14,0C991.24,93.87,991.24,101.17,991.24,108.48z"/>
<path d="M845.37,248.24c-0.28,0.61-0.36,1.19-0.71,1.48c-1.96,1.65-3.04,3.77-4.08,6.08c-0.61,1.35-2.33,2.28-3.69,3.17
	c-2.47,1.62-5.06,3.08-7.82,4.74c-1.31-0.49-1.65-1.79-1.88-3.31c-0.12-0.79-0.66-2.01-1.22-2.15c-1.94-0.46-2.02-1.82-2.13-3.44
	c0.43-0.35,0.91-0.73,1.38-1.12c1.34-1.09,1.51-2.3,0.64-3.84c-1.67-2.93-1.52-3.51,0.8-5.93c0.65-0.68,1.08-1.55,1.75-2.54
	c0.35,0.3,0.83,0.61,1.19,1.03c0.37,0.43,0.64,0.95,0.99,1.5c2.63-3.26,2.6-3.52,0.07-6.25c-0.37-0.39-0.7-1.16-0.56-1.59
	c0.14-0.43,0.95-0.95,1.38-0.89c0.63,0.09,1.47,0.56,1.7,1.09c0.34,0.82,0.31,1.82,0.31,2.75c-0.01,1.54,0.16,2.88,1.82,3.61
	c0.52,0.23,1.04,0.78,1.28,1.32c1.43,3.27,4.16,4.11,7.38,4.1C844.36,248.05,844.76,248.16,845.37,248.24z"/>
<path d="M568.06,456.62c0.68,1.2,1.2,1.69,1.11,2.03c-0.62,2.27-1.32,4.52-2.1,6.74c-0.27,0.76-1,1.36-1.27,2.12
	c-1.77,4.85-6.47,5.71-10.37,7.6c-1.22,0.59-2.47-0.05-3.25-1.19c-0.79-1.17-1.81-2.23-1.14-3.94c1.24-3.16,6.08-6.32,9.45-5.69
	c1.84,0.34,2.73-0.56,3.58-1.78C565.29,460.76,566.46,458.97,568.06,456.62z"/>
<path d="M528.51,313.09c-2.84,3.87-5.08,7.39-9.47,8.43c-1.7,0.4-2.15,1.42-2.16,2.92c-0.03,4.17-0.01,8.32,1.81,12.21
	c0.59,1.26,1.25,2.52,1.55,3.86c0.26,1.17,0.3,2.5,0.03,3.66c-1.01,4.39-3.44,6.88-8.75,9.29c-1.93-0.64-2.35-2.11-2.32-3.94
	c0.07-3.86-0.01-7.71,0.07-11.57c0.11-5.12-0.06-10.21-1.53-15.17c-0.59-1.97-0.16-3.57,1.47-5.03c0.72-0.65,1.03-1.92,1.23-2.96
	c0.34-1.73,0.3-3.53,0.68-5.25c0.43-1.99,2.21-3.33,3.73-3.08c1.38,0.22,3.11,2.21,3.21,3.78c0.06,0.93-0.04,1.88,0,2.81
	c0.1,2.36,0.88,2.99,3.15,2.35c1.6-0.45,3.12-1.13,4.7-1.67C526.56,313.53,527.23,313.41,528.51,313.09z"/>
</svg>
