<?xml version="1.0" encoding="utf-8"?>
<!-- Generator: Adobe Illustrator 24.1.0, SVG Export Plug-In . SVG Version: 6.00 Build 0)  -->
<svg version="1.1" id="_x32_4_xA0_Image_1_" xmlns="http://www.w3.org/2000/svg" xmlns:xlink="http://www.w3.org/1999/xlink"
	 x="0px" y="0px" viewBox="0 0 949 1213" style="enable-background:new 0 0 949 1213;" xml:space="preserve">
<path d="M415.97,32.63c6.24,0.93,12.65,1.22,18.67,2.93c13.89,3.94,27.61,8.47,41.35,12.95c17.54,5.72,34.87,12.19,52.59,17.27
	c16.22,4.65,33.08,5.64,49.95,5.95c28.8,0.52,57.61,0.83,86.39,1.98c20.84,0.83,40.52,6.42,59.24,16.1
	c12.23,6.32,24.25,12.84,33.95,22.52c12.12,12.09,21.03,26.45,26.73,42.76c4.11,11.77,8.37,23.5,13.14,35.02
	c3.42,8.27,8.65,15.85,11.57,24.26c6.36,18.35,11.76,37.02,17.54,55.57c1.83,5.87,3.99,11.66,5.31,17.64
	c2.76,12.48,5.48,25,7.47,37.63c3.52,22.33,6.15,44.81,9.76,67.13c4.94,30.56,10.34,61.07,6.53,92.2
	c-2.46,20.14-5.39,40.22-8.11,60.32c-0.21,1.54-0.4,3.08-0.78,5.97c1.95-1.45,2.97-1.91,3.56-2.69c7.44-9.77,14.7-19.68,22.28-29.35
	c2.54-3.25,5.91-5.83,8.77-8.84c9.53-10.06,33.03-10.27,42.69,3.51c4.55,6.49,10.46,12.02,15.39,18.27
	c1.48,1.88,1.96,4.67,2.53,7.13c0.74,3.2,2.31,6.89,1.38,9.64c-1.85,5.44-0.23,10.2,0.58,15.28c0.2,1.27-2.08,2.76-2.55,4.34
	c-1.2,3.98-1.92,8.1-3.04,12.1c-0.38,1.36-1.37,2.56-2.1,3.81c-2.47,4.2-4.55,8.72-7.55,12.51c-3.13,3.97-2.84,9.28-7.16,13.13
	c-3.96,3.53-5.51,9.79-8,14.92c-3.83,7.87-8.18,15.57-11.16,23.76c-4.88,13.42-9.92,26.95-12.78,40.87
	c-1.85,9.02,0.02,18.81,0.26,28.25c0.26,10.12,0.41,20.24,0.95,30.35c0.21,4.02,1.38,7.98,2.05,11.97c0.2,1.19,0.68,3.18,0.18,3.5
	c-4.33,2.79-2.29,6.39-1.88,8.26c-2.08,3.72-3.44,6.39-5.01,8.92c-4.04,6.51-10.36,9.45-17.54,11.05
	c-8.72,1.95-17.32,4.63-26.51,3.35c-1.08-0.15-3.38,2.04-3.61,3.4c-0.9,5.4-0.97,10.94-1.79,16.36c-2.31,15.26-4.48,30.56-7.4,45.71
	c-3.18,16.48-7.06,32.82-10.77,49.19c-3.7,16.35-7.98,32.59-11.18,49.04c-1.57,8.06-4.9,15.07-8.77,22.03
	c-0.48,0.87-0.85,2.08-1.61,2.47c-2.06,1.05-4.5,2.65-6.42,2.26c-1.2-0.25-2.6-3.81-2.4-5.73c0.76-7.59,1.93-15.16,3.28-22.68
	c3.94-21.75,8.48-43.41,11.95-65.23c3.39-21.35,5.85-42.85,8.52-64.3c1.72-13.86,3.35-27.74,4.42-41.66
	c0.24-3.07-1.28-6.95-3.28-9.39c-4.4-5.36-7.27-11.24-8.07-17.96c-1.06-8.89-1.47-17.85-2.33-26.76c-0.24-2.48-1.07-4.9-1.63-7.35
	c-0.73,0-1.45,0.01-2.18,0.01c-6.65,14.21-13.31,28.41-19.94,42.63c-5.76,12.35-11.3,24.82-17.28,37.06
	c-6.12,12.52-12.23,25.08-19.14,37.17c-11.52,20.16-23.39,40.14-35.65,59.86c-10.59,17.05-21.29,34.11-33.11,50.32
	c-12.01,16.49-25.27,32.09-38.3,47.82c-16.15,19.49-33.85,37.29-54.23,52.6c-11.07,8.32-20.15,19.28-30.26,28.91
	c-14.92,14.22-29.96,28.31-44.94,42.46c-7.49,7.08-14.57,14.64-22.51,21.16c-13.73,11.29-27.92,22.02-42.05,32.82
	c-7.07,5.4-15.16,6.12-23.2,2.88c-20.65-8.31-41.63-16.04-61.52-25.93c-9.49-4.72-18.12-12.76-24.82-21.15
	c-13.97-17.49-26.57-36.08-39.37-54.47c-6.06-8.7-12.13-17.58-16.7-27.09c-7.1-14.79-13.07-30.14-19.23-45.37
	c-3.67-9.08-6.95-18.34-10.11-27.62c-3.59-10.54-6.36-21.37-10.36-31.74c-5.06-13.14-10.91-25.98-16.58-38.88
	c-5.69-12.92-11.53-25.77-17.41-38.59c-2.48-5.41-4.95-10.87-8.1-15.89c-0.94-1.5-4.15-1.96-6.35-2.04
	c-0.65-0.02-1.36,2.91-2.12,4.45c-1.43,2.9-2.83,5.82-4.4,8.64c-0.63,1.14-2.48,2.1-2.41,3.04c0.66,8.92-7.61,9.97-12.21,14.24
	c-1.3,1.21-2.91,2.38-3.59,3.92c-3.91,8.83-11.03,9.64-17.33,2.29c-3.75-4.38-8.53-7.87-12.61-11.99c-2.3-2.32-4.67-4.85-6.07-7.74
	c-10.71-22.09-21.44-44.18-31.61-66.53c-3.06-6.74-4.78-14.19-6.38-21.48c-3.83-17.52-10.34-34-18.18-50.03
	c-6.92-14.17-13.75-28.39-20.64-42.58c-7.53-15.51-15.74-30.73-22.35-46.61c-3.78-9.09-5.09-19.24-7.25-28.97
	c-1.04-4.69-1.4-9.52-2.17-14.27c-3.95-24.23,23.01-52.95,53.14-47.2c8.01,1.53,11.01,7.77,14.99,13.47
	c5.78,8.27,11.83,16.35,17.95,24.37c0.94,1.23,2.88,1.68,5.55,3.13c-1.62-8.68-2.57-16.08-4.42-23.25
	c-4.63-17.92-8.96-35.81-8.19-54.56c0.21-5.13-0.64-10.3-0.85-15.46c-0.13-3.05-1.52-3.77-4.48-3.73
	c-10.15,0.12-20.31-0.1-30.47-0.2c-0.67-0.01-1.35,0.03-1.99-0.09c-3.63-0.69-8.22-1.16-7.64-6.03c0.57-4.78,5.06-3,8.17-2.96
	c10.48,0.14,20.97,0.3,31.45,0.58c4.07,0.11,5.36-1.9,4.92-5.59c-0.82-6.76-1.93-13.49-2.42-20.28c-1.2-16.59-3.39-33.25-2.82-49.8
	c0.72-21.05-0.43-42.33,4.4-63.12c3.56-15.35,5.7-31.23,11.16-45.88c6.93-18.58,16.36-36.25,25.11-54.11
	c9.13-18.63,17.94-37.5,28.39-55.38c9.01-15.42,19.71-29.92,30.46-44.23c9.76-12.99,20.11-25.6,31.05-37.62
	c14.76-16.22,30.92-30.97,47.95-44.96c17.47-14.35,36.85-24.14,57.82-31.53c0.31-0.11,0.56-0.35,0.84-0.52
	C357.97,32.63,386.97,32.63,415.97,32.63z M173.91,778.98c3.04-2.8,3.56-5.66,2.15-8.86c-1.14-2.57-2.7-4.97-3.67-7.59
	c-0.47-1.27-0.55-3.25,0.14-4.28c2-2.99,4.67-5.47,8.74-4.21c4.54,1.4,7.31,4.68,7.7,9.36c0.24,2.93-0.8,5.94-0.74,8.9
	c0.21,11.1,1.32,22.24,0.76,33.3c-0.43,8.57,1.76,16.28,5.01,23.66c6.42,14.56,13.79,28.69,20.46,43.14
	c7.49,16.24,14.73,32.59,21.89,48.98c2.52,5.77,4.4,11.83,6.69,17.71c1.92,4.94,4.29,9.71,5.99,14.72
	c5.1,15.07,9.71,30.31,15.01,45.3c3.64,10.29,8.72,20.09,12.05,30.47c3.82,11.9,9.75,22.61,16.53,32.84
	c11.66,17.58,23.66,34.96,36.02,52.06c10.69,14.79,22.93,28.3,39.84,36.18c10.54,4.91,21.61,8.68,32.51,12.8
	c8.06,3.05,16.1,6.28,24.4,8.5c3.33,0.89,7.94,0.33,10.89-1.4c7.87-4.61,15.61-9.68,22.57-15.55c15.88-13.4,31.51-27.11,46.78-41.2
	c16.86-15.57,33.15-31.75,49.8-47.56c9.27-8.81,18.32-17.94,28.28-25.92c12.4-9.93,24.17-20.35,34.27-32.64
	c5.9-7.18,12.26-14,18.11-21.22c10.25-12.64,20.97-24.97,30.21-38.32c14.47-20.91,28.08-42.42,41.65-63.93
	c10.01-15.86,19.83-31.88,28.89-48.29c8.02-14.53,15.08-29.6,22.18-44.62c5.39-11.41,9.97-23.21,15.26-34.67
	c8.79-19.01,17.93-37.86,26.72-56.86c1.05-2.27,1.2-5.12,1.15-7.69c-0.07-3.96-0.91-7.9-0.99-11.86c-0.09-4.52,3.19-7.88,7.59-7.22
	c3.76,0.57,5.25-1,6.23-4c3.83-11.79,8.07-23.48,8.28-36.11c0.02-1.28,0.58-2.55,0.89-3.83c1.52-6.22,3.92-12.38,4.34-18.67
	c0.5-7.59-0.94-15.29-1.03-22.94c-0.04-3.73,1.45-7.47,1.59-11.23c0.19-4.94-0.97-10.14,4.74-13.01c0.36-0.18,0.63-0.81,0.71-1.28
	c1.01-6.06,2.84-12.13,2.8-18.18c-0.14-20.46-0.65-40.93-1.6-61.36c-0.92-19.96-2.44-39.9-3.91-59.84
	c-0.55-7.39-1.43-14.78-2.63-22.1c-2.27-13.94-4.05-28.02-7.52-41.67c-5.14-20.25-11.46-40.2-17.5-60.22
	c-1.76-5.85-2.25-12.38-7.48-17.22c-1.19,2.49-2.31,4.53-3.17,6.67c-2.96,7.37-7.51,14.41-6.38,22.79
	c1.83,13.66,3.19,27.47,6.34,40.84c4.39,18.65,12.07,36.09,23.57,51.7c1.1,1.49,1.17,4.45,0.55,6.34c-0.97,2.97-2.94,5.61-4.64,8.66
	c-0.78-0.42-1.9-0.66-2.37-1.35c-1.84-2.68-4.03-2.9-7.24-2.64c-11.38,0.94-22.81,1.29-34.23,1.76c-1.28,0.05-2.58-0.6-3.88-0.84
	c-7.46-1.4-14.9-3.78-22.38-3.93c-14.26-0.28-28.43,1.51-42.33,5.11c-11.38,2.95-22.91,5.35-34.31,8.24
	c-19.46,4.94-36.28,14.99-50.96,28.35c-11.3,10.29-21.89,21.4-32.37,32.54c-3.34,3.55-5.6,8.24-7.82,12.67
	c-0.82,1.65-0.09,4.07-0.07,6.14c2.03-0.12,4.37,0.37,6.03-0.48c7.7-3.95,15.15-8.36,22.79-12.42c5.54-2.94,10.96-6.58,16.9-8.2
	c25.48-6.92,51.23-4.34,76.89-0.88c10.36,1.39,20.65,3.35,30.95,5.23c11.1,2.02,22.27,3.79,33.19,6.52c9.33,2.33,18.49,5.51,27.46,9
	c3.84,1.49,7.46,4.28,10.35,7.28c4,4.14,2.82,8.04-2.84,9.59c-5.25,1.44-10.79,2.96-16.12,2.71c-20.87-0.99-41.1,1.84-60.93,8.25
	c-10.85,3.51-21.83,4.85-33.36,3.17c-5.93-0.86-12.31-2.8-18.42,0.96c-2.23,1.37-4.96,0.97-5.65-3.17
	c-0.27-1.64-3.42-3.89-5.35-3.98c-7.93-0.39-15.93-0.52-23.84,0.12c-13.2,1.08-26.27,4.56-39.55-0.16
	c-5.03-1.78-10.6-2.03-16.15-3.02c-0.85,6.47-2.26,12.66-2.34,18.87c-0.11,8.97,1.17,17.96,1.07,26.94
	c-0.17,16.43-0.73,32.86-1.48,49.28c-0.6,13.23-3.06,26.52-2.28,39.64c1.17,19.66,0.24,39.14-1.47,58.64
	c-0.51,5.78-2.6,11.4-3.69,17.15c-1.04,5.5-1.68,11.08-2.61,16.61c-0.15,0.93-0.62,2.17-1.34,2.57c-3.99,2.25-3.81,4.66-1.1,6.62
	c-0.51,2.85-0.61,5.1-1.36,7.11c-0.58,1.56-1.87,3.92-2.99,4.01c-3.63,0.28-4.83,1.93-5.2,5.3c-0.22,2.06-0.83,4.63-2.23,5.92
	c-4.77,4.38-3.27,9.74-3.09,14.94c0.04,1.26,0.28,2.52,0.39,3.43c-1.79,1.11-3.83,1.63-4.36,2.83c-2.83,6.37-5.99,12.72-7.74,19.42
	c-4.49,17.13-13.27,29.66-31.89,32.82c-3.76,0.64-7.64,0.72-11.32,1.63c-5.65,1.4-6.45,3.12-4.41,8.61
	c1.57,4.24-0.77,6.31-4.08,7.58c-3.85,1.48-8.01-0.74-10.57-5.39c-1.27-2.31-1.83-5.1-3.4-7.15c-6.07-7.97-12.21-15.9-18.71-23.53
	c-6.28-7.37-13.29-14.12-19.47-21.57c-4.66-5.62-10.87-10.48-11.14-18.87c-0.05-1.41-1.63-2.76-2.48-4.16
	c-7.12-11.77-18.49-20.15-24.67-33.02c-3.98-8.29-12.1-14.64-18.67-21.57c-0.97-1.03-3.68-0.77-5.52-0.54
	c-6.83,0.84-12.44-2.37-13.07-7.77c-0.44-3.78-0.75-7.57-1.12-11.35c-0.49-4.99-1-9.97-1.49-14.96c-0.86-8.74-2.06-17.47-2.44-26.23
	c-0.22-5.23,2.85-7.73,7.39-7.14c5.1,0.66,4.65,4.43,4.02,8c-0.81,4.61,0.68,7.88,4.47,10.76c2.75,2.09,4.73,5.2,7.06,7.85
	c1.92,2.17,3.86,4.33,5.79,6.49c0.61,1.74-0.81,4.88,0.17,6.8c4.29,8.35,9.27,16.34,14,24.47c0.72,1.24,1.8,2.4,2.12,3.74
	c3.14,13.25,10.13,24.28,20.72,32.46c8.58,6.63,13.24,15.91,17.77,24.83c5.4,10.63,10.97,20.82,19.39,29.27
	c1.07,1.07,3.62,2.12,4.61,1.58c5.37-2.93,8.79-0.66,11.91,3.53c9.18,12.34,22.47,14.44,36.53,14.4c1.56,0,3.36-0.61,4.65-1.5
	c8.21-5.69,12.19-13.55,12.3-23.63c0.03-3.11,1.23-6.34,2.47-9.27c3.98-9.41,8.3-18.67,12.35-28.05c2.68-6.21,5.18-12.5,7.63-18.8
	c3.95-10.15,8.17-20.23,11.51-30.58c1.44-4.47,0.49-9.65,1.48-14.34c2.61-12.39,4.32-24.81,3.62-37.51
	c-1.31-23.61-0.02-47.09,2.01-70.67c1.77-20.49,1.82-41.24,1.02-61.81c-0.65-16.85-3.67-33.61-5.65-50.41
	c-0.16-1.32-0.29-2.66-0.61-3.95c-1.58-6.27-3.87-7.41-10.27-7.59c-4.63-0.13-9.74-0.79-13.69-2.96c-5.15-2.82-9.9-5.9-15.96-6.44
	c-2.38-0.21-4.63-1.67-6.99-2.41c-3.49-1.09-4.42-3.67-3.3-6.66c1.98-5.28,3.63-10.94,6.81-15.45
	c12.26-17.38,25.05-34.38,37.72-51.47c2.43-3.27,5.18-6.31,7.82-9.42c5.32-6.29,11.89-11.89,15.74-18.97
	c7.45-13.69,15.74-26.48,26.87-37.46c4.82-4.75,8.74-10.4,13.31-15.42c4.66-5.12,9.24-10.4,14.52-14.83
	c6.61-5.54,15.44-5.59,23.31-8.09c12-3.81,23.45-2.4,34.64,2.03c12.93,5.11,25.99,9.13,39.98,9.9c6.46,0.36,12.95,1.14,19.28,2.45
	c2.53,0.52,6.16,2.65,6.61,4.66c0.68,3.01-2.29,5.04-5.69,5.63c-3.77,0.66-7.47,1.69-11.19,2.56c-14.25,3.32-28.51,6.66-42.76,9.96
	c-18.9,4.38-38.07,7.86-56.65,13.34c-16.56,4.88-32.04,12.82-46.37,22.71c-6.66,4.6-10.99,10.32-10.98,18.95
	c0.01,4.42-1,8.89-1.94,13.25c-4.28,19.92-6.2,40.09-6.62,60.44c-0.07,3.65-0.56,7.3-0.53,10.95c0.01,1.29,1,2.58,1.55,3.86
	c1.16-0.53,2.58-0.8,3.43-1.65c3.05-3.06,6.09-6.15,8.8-9.51c12.26-15.19,27.2-27.46,43.54-37.72c15.93-10,33.49-16.36,52.44-18.72
	c11.35-1.41,22.53-4.16,33.83-6.05c18.52-3.09,36.88-3.85,55.52,0.56c7.63,1.8,16.17-0.03,24.27-0.6c3.37-0.24,4.93-2.42,3.52-6.03
	c-1.56-3.98-3.09-7.98-4.38-12.05c-3.76-11.87-8.08-23.62-10.86-35.72c-2.59-11.3-4.12-22.95-4.9-34.53
	c-0.51-7.64-0.04-15.76,2.1-23.05c3.35-11.42,6.08-22.37,1.25-33.97c-1.35-3.23,2.11-7.35,5.74-6.61c2.33,0.47,4.75,2.26,6.4,4.11
	c8.92,9.99,12.23,22.65,15.94,35.04c3.99,13.33,7.74,26.73,11.35,40.16c4.22,15.7,8.49,31.4,12.12,47.24
	c2.1,9.2,3.2,18.66,4.34,28.06c1.4,11.51,2.58,23.06,3.47,34.62c1.04,13.42,1.66,26.87,2.46,40.3c1.93-8.8,3.49-17.57,3.23-26.28
	c-0.36-12.1-1.94-24.17-3.27-36.23c-0.61-5.55-1.92-11.03-2.78-16.55c-0.82-5.24-1.47-10.51-2.19-15.76
	c-2.52-18.4-5.05-36.8-7.53-55.2c-0.36-2.63-0.43-5.3-0.72-7.95c-2.1-19.64-8.08-38.38-13.61-57.2
	c-4.54-15.45-7.82-31.52-14.41-46.07c-10.16-22.44-19.08-45.3-28.1-68.18c-5.58-14.15-13.44-27.37-25.21-37.19
	c-8.6-7.17-18.6-12.74-28.24-18.59c-17.62-10.69-37.3-15.37-57.48-16.48c-27.91-1.54-55.91-2.13-83.87-2
	c-39.4,0.18-76.3-10.2-112.27-24.85c-20.56-8.37-41.4-14.27-63.92-13.52c-12.96,0.43-26.03,0.22-38.95-0.88
	c-25.95-2.22-50.27,2.64-72.13,16.59c-13.11,8.37-25.69,17.92-37.16,28.41c-13.21,12.06-25.62,25.17-37.13,38.87
	c-14.39,17.13-27.58,35.27-41.18,53.06c-14.06,18.39-22.2,40.11-33.17,60.22c-8.24,15.11-14.51,31.3-21.61,47.03
	c-5.63,12.49-12.6,24.27-13.68,38.67c-1.03,13.7-5.23,27.15-6.45,40.85c-1.65,18.53-2.33,37.19-2.37,55.79
	c-0.03,12.6,1.59,25.21,2.8,37.79c0.71,7.41,2.41,14.74,2.98,22.16c0.29,3.78,1.73,5.39,5.1,4.96c9.06-1.17,18.41-1.57,27.03-4.25
	c13.72-4.26,27.53-6.31,41.79-6.12c7.15,0.1,14.36,0.71,21.45,0.08c27.84-2.45,55.47-7.38,83.54-7.22
	c6.58,0.04,12.59-1.92,17.87-5.53c16.16-11.02,33.86-11.66,51.1-5.17c12.23,4.6,23.12,12.79,34.5,19.55
	c0.99,0.59,1.41,2.44,1.74,3.79c3.04,12.61,2.26,26.34,11.02,37.26c0.3,0.37,0.47,0.91,0.54,1.39c1.87,12.74-0.65,24.04-10.48,33.14
	c-1.45,1.34-3.01,3.51-3.02,5.3c-0.06,11.98,0.47,23.96,0.43,35.93c-0.02,8.96-0.3,17.95-1.01,26.88
	c-0.73,9.21-2.22,18.36-3.17,27.56c-1.14,11.08,0.45,22.1,2.79,32.79c1.44,6.57,0.9,15.61,11.35,16.98c1.36,0.18,3.32,3.67,3.11,5.4
	c-0.16,1.32-3.48,3.42-5.11,3.18c-5.6-0.81-11.07-2.5-15.14-3.5c-1.06-5.85-1.26-10.08-2.61-13.91
	c-6.27-17.76-7.07-35.64-3.18-54.06c3.97-18.83,3.92-38,3.19-57.17c-0.38-9.98-0.68-19.97-0.7-29.95c-0.02-8.69,0.19-8.67-8.57-6.96
	c-1.13,0.22-2.32,0.14-3.48,0.27c-7.4,0.83-14.85,1.35-22.18,2.58c-11.27,1.9-22.37,5.16-33.69,6.24c-13.87,1.31-27.91,1-41.87,1.31
	c-4.49,0.1-8.99-0.09-13.48-0.08c-8.54,0.01-17.1,0.5-25.6-0.02c-8.42-0.51-16.77-2.17-25.18-3.06
	c-12.72-1.35-25.49-2.28-38.17-3.89c-1.98-0.25-3.61-3.2-5.4-4.91c1.44-1.36,2.66-3.27,4.37-3.98c7.82-3.24,15.69-6.4,23.71-9.12
	c11.45-3.88,22.98-7.58,34.6-10.9c7.02-2.01,14.39-2.78,21.41-4.76c10.08-2.84,20.02-6.2,29.96-9.5c1.56-0.52,3.35-1.65,4.12-3.01
	c2.39-4.21,5.47-3.92,9.37-2.54c3.18,1.12,6.59,1.99,9.93,2.18c5.96,0.33,12.24,1.19,17.87-0.23c7.28-1.84,12.52,0.11,19.35,2.76
	c12,4.67,23.83,9.16,34.58,16.33c1.49,0.99,3.46,1.26,5.21,1.86c0.1-1.9,0.59-3.87,0.23-5.67c-2.99-14.75-10-27.79-17.98-40.3
	c-1.22-1.92-4.55-2.59-6.99-3.61c-2.38-0.99-4.87-1.71-7.32-2.52c-1.64-0.54-3.3-1.47-4.96-1.49c-14.79-0.17-28.59,4.53-42.06,9.75
	c-9.52,3.69-19.04,5.85-29.16,5.49c-5.65-0.2-11.28-0.96-16.93-0.99c-23.95-0.15-47.3,4.7-70.77,8.56
	c-9.19,1.51-18.45,2.62-27.72,3.54c-13.07,1.3-26.18,2.3-39.27,3.31c-4.49,0.35-6.04,2.34-6.2,7.01
	c-0.85,24.66,3.03,48.61,9.83,72.2c1.14,3.97,1.9,8.11,2.27,12.23c0.73,8.21,2.94,15.02,12.32,16.88c2.43,0.48,4.69,1.78,7.11,2.31
	c4.02,0.88,8.1,1.44,12.16,2.13c0.14,0.46,0.28,0.93,0.42,1.4c-2.44,0.88-4.87,2.46-7.31,2.47c-4.12,0.01-8.28-0.75-12.34-1.62
	c-6.84-1.47-7.63-1.02-6.5,5.69c1.04,6.19,2.22,12.39,3.87,18.44c4.36,16.03,8.93,32.01,13.57,47.96c4.36,15,9.25,29.85,13.3,44.92
	C160.37,743.24,164.7,761.54,173.91,778.98z M65.01,557.68c-24.5-1.49-39.53,23.11-37.57,38.84c1.44,11.51,3.37,23.15,6.85,34.17
	c4.14,13.07,9.65,25.79,15.55,38.2c6.05,12.73,13.69,24.7,19.87,37.38c6.1,12.52,11.65,25.35,16.7,38.33
	c4.27,10.97,7.67,22.3,11.08,33.59c3.75,12.42,7.72,24.61,14.25,36.02c5.25,9.18,9.67,18.98,13.22,28.95
	c4.99,14.04,12.8,25.64,24.44,34.94c3.52,2.81,5.43,1.95,7.71-0.96c4.19-5.35,8.8-10.42,12.56-16.06
	c11.3-16.95,14.81-34.78,5.49-53.99c-11.24-23.18-20.61-47-26.41-72.25c-3.75-16.29-9.26-32.17-14.05-48.22
	c-3.93-13.17-8.38-26.2-11.85-39.49c-3.49-13.34-6.17-26.91-8.95-40.42c-0.81-3.96-2.51-6.49-6.32-8.16
	c-3.29-1.44-6.92-3.22-9.1-5.91c-7.17-8.86-14.01-18.01-20.43-27.42C74.6,560.17,70.55,557.37,65.01,557.68z M929.72,556.52
	c-3.26-1.87-3.39-5.63-2.09-9.12c2.55-6.84,0.7-12.59-3.43-17.96c-2.32-3.02-4.93-5.81-7.36-8.75
	c-8.35-10.08-20.78-10.53-30.36-1.52c-10.4,9.77-19.21,20.8-25.92,33.28c-5.66,10.52-13.01,19.93-12.39,33.72
	c0.61,13.66,4.92,25.62,9.3,38.49c1.67-1.55,3.01-2.79,4.35-4.03c0.43,0.12,0.86,0.24,1.29,0.35c-0.24,2.09-0.48,4.18-0.71,6.27
	c-1.8-0.38-3.72-0.49-5.35-1.23c-1.54-0.7-2.78-2.06-4.41-3.33c0.32,2.78,0.6,5.19,0.82,7.05c3.29,3.42,6.58,6.83,9.86,10.24
	c-0.19,0.69-0.37,1.38-0.56,2.07c-3.47,0.19-6.94,0.37-10.35,0.55c-3.78,8.41,6.09,4.25,8.17,8.24c-2.85,0.52-5.13,0.94-6.97,1.28
	c1.06,6.68,2.04,12.89,3.07,19.4c-1.75-0.23-2.97-0.39-4.64-0.61c-0.73,8.94-1.26,17.54-2.16,26.1c-1,9.51-0.66,18.65,5.28,26.76
	c0.86,1.17,1.24,2.78,2.25,3.75c6.34,6.08,12.77,12.06,19.25,17.99c0.87,0.79,2.15,1.13,3.23,1.68c0.52-1.12,1.5-2.26,1.47-3.37
	c-0.22-9.47-0.31-18.96-1.06-28.4c-0.93-11.76-3.07-23.43,2.13-34.88c2.03-4.46,2.98-9.4,4.41-14.13
	c2.15-7.13,3.52-14.62,6.56-21.34c7.25-16.01,15.41-31.6,22.92-47.49c2.43-5.15,3.33-11.09,6.1-16c2.95-5.21,4.47-10.46,4.94-16.31
	C927.56,562.64,928.73,560.06,929.72,556.52z M731.82,319.78c-0.07-0.56-0.13-1.11-0.2-1.67c-1.51-0.46-2.99-1.09-4.53-1.34
	c-4.1-0.65-8.31-0.75-12.31-1.75c-10.49-2.61-20.96-5.34-31.3-8.48c-14.54-4.41-28.37-0.94-41.81,3.91
	c-9.15,3.3-14.23,11.43-18.99,19.66c-2.52,4.36-6.32,8.02-9.76,11.8c-5.74,6.28-11.7,12.38-17.49,18.62
	c-0.79,0.85-1.16,2.08-1.72,3.13c0.28,0.31,0.55,0.62,0.83,0.93c4.62-2.49,9.14-5.18,13.86-7.45
	c23.07-11.09,47.84-16.95,72.42-23.37c15.59-4.07,31.24-7.92,46.84-11.95C729.12,321.44,730.43,320.48,731.82,319.78z
	 M295.31,539.92c-3.29-5.52-6.98-10.7-9.55-16.39c-1.79-3.96-2-8.62-2.98-12.95c-0.76-3.35-2.63-3.93-5.92-2.93
	c-7.03,2.13-13.1,6.23-20.92,7.1c-12.45,1.37-24.6,5.35-36.98,7.65c-11.05,2.06-20.51,7.58-30.91,12.01
	C195.11,540.09,281.63,543.96,295.31,539.92z M561.4,405.16c-2.55,1.93-4.11,2.67-5.04,3.89c-8.13,10.67-16.44,21.23-24.11,32.23
	c-5,7.17-9.41,14.82-13.33,22.64c-2.29,4.55-0.36,6.44,4.48,7.66c5.39,1.36,11.12,2.61,15.74,5.47c6.41,3.96,12.94,1.68,19.39,2.17
	c0.73,0.06,2.15-1.93,2.34-3.12c1.04-6.46,2.4-12.95,2.52-19.46c0.25-13.44-0.13-26.9-0.44-40.35
	C562.88,413.07,562.08,409.86,561.4,405.16z M649.79,502.43c-0.34-1.76-0.55-2.68-0.69-3.61c-1.07-6.92-3.35-8.18-9.62-5.4
	c-0.78,0.35-2,0.52-2.69,0.16c-5.13-2.71-10.22-1.5-14.85,0.73c-9.42,4.54-18.7,9.41-27.76,14.63c-2.16,1.24-3.52,4.26-4.63,6.74
	c-0.39,0.86,0.93,3.58,1.74,3.71c8.48,1.33,17.03,3.17,25.55,3.16c13.41-0.01,26.83-1.32,40.24-2.13c1.06-0.06,2.1-0.51,3.11-0.77
	c-1.14-6.59-2.03-12.81-3.39-18.93c-0.35-1.59-2.15-2.87-3.28-4.29c-0.93,1.35-1.86,2.7-2.77,4.06
	C650.51,500.84,650.37,501.25,649.79,502.43z M784.13,513.55c0.01-0.46,0.03-0.92,0.04-1.38c-0.67-0.45-1.28-1.05-2.01-1.32
	c-14.17-5.29-28.61-9.58-43.6-11.85c-0.97-0.15-2,0.1-2.97-0.02c-2.88-0.36-5.75-0.84-8.63-1.24c-3.71-0.52-9.19-2.8-10.79-1.2
	c-4.87,4.89-14.29,4.18-15.83,12.87c-0.06,0.35-0.72,0.65-1.15,0.89c-3.66,2.05-7.33,4.08-9.84,5.48c-0.67,4.1-1.12,6.82-1.61,9.86
	c0.05,0.02,0.63,0.52,1.22,0.51c9.41-0.08,18.82,0.67,28.04-2.55c20.1-7.02,40.73-10.89,62.16-9.26
	C780.78,514.46,782.47,513.83,784.13,513.55z M837.93,640.63c-2.05,3.59-6.53,5.21-6.28,10.73c0.18,4.18-1.03,8.93-3.13,12.54
	c-1.92,3.28-4.88,5.69-3.96,10.1c0.22,1.07-0.48,2.85-1.35,3.54c-4.32,3.38-4.69,6.9-0.38,10.94c-4.86,2.53-3.62,4.71-0.22,6.98
	c1.78,1.19,3.97,2.45,4.78,4.22c1.54,3.37,3.82,3.72,7.37,3.04C843.49,682.63,837.13,661.49,837.93,640.63z M814.93,879.56
	c0.58,0.09,1.16,0.18,1.74,0.27c5.12-27.16,12.78-54.01,10-82.24c-1.09,0.5-1.71,1.16-1.72,1.83c-0.13,4.96,2.1,10.33-2.72,14.46
	c-0.36,0.31-0.12,1.28-0.2,1.94c-1.61,12.68-3.36,25.34-4.81,38.04C816.25,862.4,815.68,870.99,814.93,879.56z M307.39,539.81
	c13.05-2.26,26.95-3.29,39.83-9.55c-4.77-1.84-9.99-2.3-14.17-4.63c-4.71-2.63-7.73-1.28-11.09,1.63
	C317.12,531.45,312.26,535.62,307.39,539.81z M859.35,775.66c-0.69-1.22-1.76-3.09-3.39-5.97c-1.12,5.48-3.63,7.14-7.89,6.59
	c-3.84-0.49-5.78,2.1-4.69,5.82c1.06,3.6,4.08,4.56,7.06,4.07c6.05-1.01,12.04-2.53,17.96-4.16c1.04-0.29,2.37-2.22,2.26-3.26
	c-0.14-1.33-1.5-3.45-2.53-3.57C865.36,774.85,862.51,775.42,859.35,775.66z M310.62,517.7c-0.58-0.65-1.41-2-2.6-2.8
	c-2.81-1.9-5.74-3.67-8.75-5.24c-1.17-0.61-3.22-1.22-3.9-0.66c-0.85,0.7-1.18,2.71-0.91,3.98c0.82,3.86,2.14,7.6,3.07,11.44
	c0.87,3.58,3.6,4.13,6.09,2.98C307.16,525.75,310.17,523.1,310.62,517.7z M357.54,519.15c-8.29-7.34-19.35-10.43-24.02-6.71
	C336.26,515.88,354.7,521.04,357.54,519.15z M374.32,476.41c-0.41,0.41-0.81,0.82-1.22,1.22c3.2,7.55,6.4,15.1,9.6,22.65
	c0.48-0.15,0.96-0.3,1.44-0.45c0.19-0.57,0.64-1.21,0.52-1.7c-1.34-5.06-2.34-10.28-4.35-15.07
	C379.22,480.46,376.38,478.6,374.32,476.41z M669.24,507.66c1.98,2.75,3.51,4.88,5.04,7.01c1.42-1.71,4.25-3.74,3.95-5.06
	c-0.54-2.35-2.97-4.27-4.61-6.37C672.36,504.51,671.11,505.78,669.24,507.66z M178.45,790.73c0-3.12,0.18-5.71-0.11-8.25
	c-0.08-0.71-1.55-1.25-2.38-1.87c-0.28,0.99-1.02,2.13-0.75,2.93C175.98,785.84,177.17,787.99,178.45,790.73z"/>
<path d="M2.97,48.63c13.67-1.87,27.33-3.76,41-5.6c13.42-1.8,26.84-3.55,40.26-5.33c0.18,0.51,0.36,1.02,0.54,1.53
	c-5.09,2.61-10.09,5.4-15.28,7.77c-4.22,1.93-8.76,3.17-13,5.06c-4.74,2.12-9.2,4.85-13.96,6.91c-8.22,3.56-16.56,6.85-24.89,10.16
	c-4.85,1.93-9.77,3.66-14.66,5.48C2.97,65.97,2.97,57.3,2.97,48.63z"/>
<path d="M409.65,888.04c-1.67-5.32,9.69-8.43,0.73-13.58c2.38-4.55,4.06-9.46,10.53-8.91c0.62,0.05,1.3-0.26,1.92-0.48
	c7.75-2.83,10.97-1.92,13.01,3.7c2.65,7.31,0.07,14.52-6.71,16.3C422.82,886.71,416.18,887.1,409.65,888.04z"/>
</svg>
