<?xml version="1.0" encoding="utf-8"?>
<!-- Generator: Adobe Illustrator 24.1.0, SVG Export Plug-In . SVG Version: 6.00 Build 0)  -->
<svg version="1.1" id="Layer_1" xmlns="http://www.w3.org/2000/svg" xmlns:xlink="http://www.w3.org/1999/xlink" x="0px" y="0px"
	 viewBox="0 0 1224 792" style="enable-background:new 0 0 1224 792;" xml:space="preserve">
<path d="M736.48,376.45c1.86-2.94,3.28-5.74,5.22-8.1c1.68-2.05,3.78-3.87,6.01-5.31c2.62-1.7,5.98-1.21,7.36,1.23
	c3.87,6.9,8.81,13.89,8.28,22.08c-0.87,13.41-2.79,26.76-4.52,40.11c-0.64,4.89-2.16,9.65-3.01,14.52
	c-1.08,6.13-2.14,12.29-2.72,18.48c-0.27,2.84,0.69,5.78,0.95,8.69c0.07,0.82-0.05,2.05-0.57,2.46c-4.91,3.78-7.74,8.17-6.19,14.82
	c0.29,1.23-2.19,3.1-4,5.47c1.23,4.3-1.36,8.33-5.22,11.88c-0.18,0.17-0.39,0.45-0.37,0.66c0.35,5.83-4.69,8.53-7.55,12.35
	c-2.24,2.99-5.91,1.49-8.81,0.08c-3.19-1.55-5.83-0.91-8.43,0.95c1.65,2.5,3.09,4.68,4.83,7.31c-3.77,0.64-5.71-1.29-6.53-3.32
	c-0.8-2.01-1.56-3.02-3.67-3.12c-0.6-0.03-1.22-0.4-1.75-0.74c-4.1-2.57-6.05-1.58-6.09,3.37c-0.05,5.93-2.26,11.17-4.34,16.58
	c-2.75,7.13-3.05,14.55-2.78,22.33c0.21,5.97,1.74,12.34-1.51,18.59c-2.81,5.4-3.73,11.77-5.54,17.69
	c-3.09,10.09-4.04,20.49-5.34,30.91c-0.93,7.41-3.89,14.78-7.1,21.63c-5.8,12.37-12.22,24.48-16.28,37.57
	c-2.79,9-4.62,18.29-7.29,27.33c-2.23,7.56-4.79,15.06-7.7,22.38c-4.34,10.9-10.71,20.72-18.8,29.12
	c-6.03,6.26-11.96,12.88-20.14,16.74c-3.49,1.65-6.91,3.61-9.98,5.94c-5.26,4-11,4.22-16.83,2.48c-6.82-2.04-13.96-3.83-20.01-7.37
	c-4.82-2.81-8.62-7.75-12.13-12.32c-11.63-15.14-22.91-30.56-34.36-45.84c-4.03-5.38-8.03-10.79-12.29-15.98
	c-1.04-1.26-3.05-1.76-4.67-2.51c-2.28-1.05-4.98-1.55-6.82-3.1c-2.94-2.46-5.72-5.31-7.83-8.49c-2.03-3.05-2.98-6.8-4.68-10.1
	c-2.48-4.81-5.27-9.45-7.78-14.25c-0.61-1.17-1.3-2.97-0.83-3.92c1.47-2.93,0.45-5.29-0.4-8.11c-2.96-9.88-5.6-19.86-8.1-29.87
	c-4.1-16.4-8.21-32.8-11.9-49.29c-2.09-9.34-3.21-18.89-5-28.3c-1.23-6.47-2.97-12.85-4.31-19.3c-1.75-8.48-3.33-16.99-4.98-25.49
	c-1.16-5.98-2.24-11.97-3.5-17.93c-1.34-6.3-2.37-12.73-4.41-18.8c-1.92-5.71-4.86-11.1-7.63-16.49c-0.5-0.98-2.32-1.62-3.58-1.72
	c-0.55-0.04-1.59,1.58-1.82,2.58c-1.45,6.43-2.58,12.94-4.11,19.35c-1.93,8.06-10.95,11.45-17.17,6.51
	c-7.63-6.04-15.14-12.39-19.83-21.02c-5.44-9.99-5.98-21.2-6.71-32.35c-0.63-9.64-1.61-19.31-3.39-28.79
	c-0.77-4.1-4.1-7.68-5.98-11.64c-1.3-2.73-2.76-5.65-2.97-8.58c-0.43-6.07-0.21-12.2,0.01-18.3c0.08-2.28,0.54-4.67,1.4-6.77
	c4.36-10.71,13.61-9.82,20.55-4.38c5.78,4.53,10.82,10.01,16.12,15.14c1.47,1.42,2.6,2.15,4.62,0.64c2.27-1.69,4.75-1.61,7.13,0.39
	c1.75,1.47,3.82,2.58,6.46,4.31c1-3.84,1.94-7.1,2.7-10.41c1.89-8.31,3.75-16.63,5.53-24.96c0.94-4.4,1.73-8.84,2.54-13.27
	c1.39-7.61,2.72-15.23,4.13-22.84c1.09-5.86,2.28-11.7,3.41-17.55c1.34-6.98,2.72-13.96,3.98-20.95c1.36-7.5,2.64-15.02,3.88-22.55
	c1.47-8.95,2.9-17.91,4.27-26.88c0.76-4.99,1.13-10.04,2.11-14.98c2.27-11.4,4.68-22.77,7.27-34.1c1.26-5.53,2.57-11.14,4.69-16.37
	c5.13-12.66,10.61-25.18,16.24-37.63c3.87-8.57,8.15-16.97,12.37-25.38c8.69-17.34,19.22-33.4,33.2-47c3-2.92,6.41-4.94,10.77-5.73
	c13.9-2.53,26.76-0.15,38.81,7.13c5.98,3.62,12.28,6.76,18.01,10.74c12.55,8.71,25.18,17.45,35.06,29.31
	c15.72,18.87,30.43,38.48,42.03,60.26c6.26,11.76,13.04,23.24,19.05,35.12c7.97,15.74,13.57,32.45,18.2,49.43
	c1.87,6.84,2.59,13.99,4.32,20.88c1.67,6.64,3.88,13.16,6.01,19.67c3.38,10.32,7.01,20.56,10.31,30.91
	c2.23,6.99,3.94,14.14,6.15,21.14c1.4,4.43,4.08,8.6,4.73,13.1c0.96,6.67,2.57,11.72,10.01,13.83c3.16,0.89,6.38,3.82,8.22,6.7
	c3.78,5.91,1.49,16.56-4,22.27c-1.17,1.22-2.4,2.38-3.65,3.51C733.24,372.93,733.6,374.6,736.48,376.45z M446.09,371.38
	c0.02-0.3,0.04-0.59,0.07-0.89c3.25,0,6.5,0.18,9.73-0.04c6.83-0.46,12.92,1.03,18.86,4.72c3.85,2.4,8.57,3.67,13.07,4.71
	c10.67,2.48,20.29,5.86,26.88,15.84c6.98,10.58,15.12,20.45,19.27,32.62c2.51,7.37,6.48,13.38,12.93,17.83
	c5.42,3.74,5.87,6.8,1.61,11.78c-2.13,2.49-2.17,4.76-0.93,7.48c1.44,3.17,2.94,6.32,4.13,9.59c5.2,14.3,10.69,28.51,15.29,43
	c3.39,10.67,5.26,21.8,8.35,32.58c2.63,9.17,5.77,18.21,9.2,27.12c1.67,4.33,5.18,5.65,9.14,4.77c5.54-1.24,5.64-1.4,6.3-7.41
	c0.11-0.99,0.68-1.92,1.02-2.89c1.1-3.15,2.8-6.24,3.18-9.48c1.36-11.69,2.23-23.43,3.38-35.15c1.59-16.12,2.85-32.29,5.05-48.32
	c1.81-13.18,4.52-26.25,7.35-39.26c1.58-7.27,1.24-14.66,2.92-22.01c2.21-9.68,6.08-18.64,9.02-27.97
	c2.94-9.34,9.5-16.43,16.21-22.81c6.94-6.61,15.33-11.78,23.42-17.08c10.87-7.11,23.14-10.7,35.85-12.88
	c2.68-0.46,5.4-0.9,8.11-0.91c3.63-0.02,5-1.69,4.35-5.09c-0.56-2.91-1.16-5.82-2.04-8.64c-3.45-11.07-6.98-22.12-10.54-33.16
	c-3.93-12.19-7.94-24.36-11.88-36.55c-1.27-3.93-2.73-7.84-3.57-11.87c-1.37-6.57-1.78-13.38-3.56-19.82
	c-2.85-10.32-6.24-20.52-9.84-30.61c-6.82-19.08-16.63-36.75-26.8-54.17c-6.87-11.78-14.11-23.4-21.95-34.56
	c-5.99-8.52-12.99-16.35-19.86-24.22c-8.65-9.9-18.97-17.99-29.78-25.33c-8.45-5.74-17.46-10.64-26.13-16.05
	c-8.84-5.52-18.54-5.38-28.3-4.33c-4.76,0.51-8.82,2.86-11.93,6.7c-1.79,2.21-3.67,4.36-5.68,6.37
	c-8.69,8.7-14.69,19.32-20.79,29.79c-4.74,8.14-8.81,16.68-12.98,25.14c-3.58,7.27-6.98,14.64-10.25,22.06
	c-2.02,4.59-3.7,9.34-5.45,14.05c-1.79,4.81-3.89,9.55-5.14,14.5c-2.64,10.52-5,21.13-7.13,31.77c-1.95,9.76-3.57,19.58-5.08,29.42
	c-1.43,9.34-2.28,18.77-3.81,28.08c-1.58,9.57-3.77,19.04-5.52,28.59c-2.47,13.5-4.81,27.03-7.14,40.56
	c-1.06,6.13-1.68,12.35-2.99,18.43c-2.58,12-5.33,23.97-8.36,35.86c-0.97,3.81,0.44,5.08,3.72,5.4
	C426.75,369.59,436.42,370.47,446.09,371.38z M435.41,485.93c0,2.38-0.05,4.11,0.02,5.83c0.03,0.88,0.31,1.75,0.41,2.63
	c0.57,4.86,0.82,9.78,1.73,14.57c1.96,10.28,4.39,20.46,6.38,30.74c2.66,13.71,5.06,27.46,7.64,41.18c0.45,2.4,1.37,4.71,1.82,7.11
	c1.68,8.9,2.84,17.92,4.96,26.71c2.69,11.13,5.92,22.15,9.32,33.1c2.76,8.89,5.84,17.68,12.28,24.87
	c4.63,5.17,9.06,10.55,13.2,16.12c7.79,10.46,15.32,21.12,22.96,31.69c5.07,7.01,10.08,14.07,15.22,21.03
	c5.13,6.93,10.66,13.59,15.54,20.69c6.42,9.33,14.7,15.94,25.59,19.05c6.94,1.98,13.99,2.16,20.35-1.7
	c8.98-5.44,17.77-11.23,24.82-19.19c8.29-9.36,15.56-19.41,19.39-31.49c3.36-10.59,6.09-21.4,9.7-31.9
	c5.45-15.87,11.48-31.55,17.15-47.35c2.96-8.26,6.04-16.51,8.36-24.96c1.57-5.69,1.6-11.79,2.86-17.59
	c2.65-12.25,6.13-24.34,8.38-36.66c2.3-12.59,3.46-25.39,5.26-38.08c0.76-5.34,1.88-10.63,2.85-15.93
	c0.63-3.42,1.81-6.84,1.81-10.26c0.01-10.33,2.15-15.02,9.91-18.4c2.89-1.26,5.33-1.42,7.08,1.5c1.47,2.45,3.07,2.96,5.74,1.72
	c3.37-1.56,5.42-0.27,5.94,3.4c0.4,2.82,0.44,5.71,1.03,8.48c0.31,1.47,1.44,2.77,2.2,4.14c1.23-0.97,2.96-1.69,3.58-2.96
	c1.92-3.94,3.36-8.1,5.09-12.14c3.75-8.78,7.87-17.34,9.68-26.92c3.51-18.54,8.42-36.83,11.33-55.45
	c1.71-10.95,4.27-22.46-0.98-33.42c-1.02-2.13-2.29-4.14-3.45-6.21c-1.59,1.52-3.68,2.77-4.67,4.6c-3.86,7.16-11.17,12.91-9.5,22.42
	c0.04,0.2-0.27,0.44-0.34,0.68c-0.67,2.52-1.92,5.07-1.84,7.57c0.09,3.27-1.05,5.32-3.58,7.08c-2.45,1.71-4.99,2.79-7.39,0.44
	c-2.26-2.21-2.34-4.77-0.63-7.74c3.66-6.32,5.45-13.33,6.22-20.55c0.15-1.36-0.72-2.84-1.08-4.14c-6.2,3.2-11.72,6.98-17.83,8.93
	c-6.17,1.97-12.92,2.11-20.39,3.19c5.25,3.23,9.48,5.65,13.51,8.37c4.3,2.91,7.51,14.21,5.6,19.02c-0.28,0.71-0.79,1.33-1.24,1.95
	c-4.32,5.88-10.56,8.74-17.37,10.15c-6.59,1.36-13.33,2.05-20.02,2.91c-12.87,1.65-25.75,3.58-38.69,0.58
	c-2.16-0.5-3.55-0.03-4.08,2.24c-0.8,3.4-1.82,6.76-2.41,10.2c-1.88,10.95-3.78,21.9-5.36,32.9c-1.5,10.5-2.98,21.02-3.8,31.59
	c-1.03,13.3-1.26,26.67-2.07,39.99c-0.39,6.41,0.01,13.04-3.8,18.81c-0.46,0.69-0.34,1.76-0.52,2.65
	c-1.71,8.69-3.39,14.85-14.74,15.79c-7.33,0.61-13.56-1.36-16.42-8.2c-3.77-9.01-6.98-18.35-9.42-27.81
	c-4.65-18.03-7.86-36.4-15.75-53.53c-4.57-9.93-7.8-20.47-11.88-30.64c-1.97-4.91-2.53-4.77-7.66-3.67
	c-6.83,1.48-13.78,3.85-20.6,3.59c-10-0.38-19.98-2.51-29.87-4.39c-4.52-0.86-8.58-3.66-10.6-7.85c-2.16-4.48-3.03-9.45,1.06-13.75
	c0.17-0.18-0.01-0.68-0.04-1.08c-0.48-0.05-0.86-0.17-1.23-0.12c-4.98,0.63-8.99,2.78-12.23,6.8c-0.9,1.12-3.48,0.9-5.29,1.29
	c0.25-1.72-0.1-4.04,0.88-5.05c2.3-2.35,5.09-4.34,7.96-6c6.52-3.79,13.86-3.8,21.13-4.32c10.36-0.75,20.66-1.42,30.91,1.06
	c3.96,0.96,8.03,1.49,12.78,2.35c-0.3-2.18-0.21-3.75-0.74-5.07c-5.34-13.39-14.14-24.6-23.15-35.58c-2.4-2.93-3.55-7.36-8.21-8.26
	c-2.92-0.56-5.81-1.39-8.63-2.33c-5.14-1.71-10.48-3.09-15.26-5.53c-5.08-2.6-10.03-4.67-15.84-4.53
	c-10.24,0.26-20.48,0.31-30.72,0.56c-1.13,0.03-2.97,0.54-3.26,1.29c-1.61,4.24-4.43,3.74-7.94,2.91c-2.98-0.71-6.18-0.46-9.25-0.84
	c-0.54-0.07-0.88-1.23-1.44-1.76c-2.33-2.23-4.71-4.41-7.05-6.59c-0.49,0.53-0.77,0.69-0.81,0.9c-0.57,3.1-5.76,9.15-8.15,8.84
	c-4.3-0.56-4.34-4.93-6.09-7.75c-0.32-0.52-0.15-1.31-0.42-1.89c-1.69-3.71-3.07-7.64-5.29-11c-1.96-2.95-4.64-5.58-7.48-7.74
	c-2.12-1.61-5.2-3.41-7.43-2.96c-1.79,0.36-3.76,3.79-4.19,6.13c-1.02,5.45-1.44,11.06-1.52,16.62c-0.04,2.49,1.02,5.14,2.11,7.48
	c2.06,4.43,5.7,8.47,6.54,13.06c1.92,10.53,2.41,21.32,3.76,31.96c1.01,7.94,1.46,16.16,3.94,23.66
	c3.1,9.39,10.53,16.07,18.33,22.02c4.42,3.37,7.53,1.98,8.41-3.63c1.1-7.04,2.24-14.07,3.42-21.09c0.68-4.07,2.94-5.83,7.11-5.5
	c5.72,0.45,10.14,3.24,12.9,8.2c1.94,3.47,3.61,7.14,4.94,10.89C429.98,469.29,432.76,478,435.41,485.93z M632.42,409.32
	c0.34,0.32,0.68,0.64,1.02,0.96c3.12-1.74,6.26-3.46,9.37-5.23c8.63-4.93,17.24-9.88,25.88-14.79c0.61-0.35,1.38-0.51,2.09-0.57
	c2.03-0.16,4.11,0,6.11-0.34c7.24-1.24,14.47-2.56,21.69-3.97c6.41-1.25,13.32-1.36,17.72-7.49c1.36-1.9,2.74-4.11,4.67-5.21
	c3.67-2.1,4.03-5.1,3.51-8.62c-0.92-6.26-1.83-12.53-3.02-18.74c-0.17-0.89-1.85-2.07-2.88-2.12c-14.06-0.7-26.93,4.34-39.07,10.19
	c-12.28,5.92-23.18,14.11-32.13,25.1c-5.77,7.08-9.25,14.69-12.1,22.97C634.38,404.09,633.38,406.7,632.42,409.32z M508.34,463.71
	c4.69-0.43,5.11-0.92,4.23-5.39c-0.17-0.88-0.7-1.73-0.72-2.6c-0.05-2.47-0.41-5.08,0.24-7.39c1.06-3.74,0.97-4.15-3-4.49
	c-3.97-0.34-7.92-0.94-11.89-1.34c-2.96-0.3-5.93-0.67-8.89-0.61c-3.42,0.07-8.06,4.62-8.47,7.88c-0.49,3.86,1.64,7.67,5.88,8.81
	C493.18,460.59,500.79,462.03,508.34,463.71z M670.51,426.71c-2.84-0.68-4.45-1.1-6.08-1.45c-6.39-1.38-7.62-2.74-8.53-9.17
	c-0.41-2.89-1.01-5.76-1.63-9.26c-8.35,3.44-15.97,6.79-21.71,13.33c-4.08,4.64-3.12,7.66,2.93,8.89
	c10.63,2.17,21.2,0.36,31.77-0.64C668.03,428.33,668.74,427.66,670.51,426.71z M674.73,426.54c9.26,0.63,16.87-1.47,23.54-6.24
	c1.54-1.1,2.43-3.92,2.57-6.03c0.46-6.62-3.54-10.13-9.41-11.96c-2.71-0.85-5.45-1.64-8.17-2.46c-0.78,2.89-1.67,5.75-2.3,8.67
	c-0.3,1.37-0.12,2.84-0.13,4.26C680.83,417.87,679.75,422.54,674.73,426.54z M663.67,410.27c0.06,1.13-0.43,3.42,0.45,4.92
	c0.94,1.62,3.16,2.51,4.81,3.72c0.89-1.33,2.12-2.55,2.59-4.01c0.71-2.2,1-4.56,1.27-6.88c0.36-3.17-1.81-5.93-4.58-6.04
	c-3.6-0.14-4.81,1.84-4.55,5.14C663.72,407.89,663.67,408.67,663.67,410.27z M525.05,461.26c3.64-1.1,6.65-1.85,9.5-2.99
	c0.68-0.27,1.41-2.03,1.15-2.78c-0.74-2.16-1.81-4.27-3.09-6.16c-0.43-0.64-2.08-1.05-2.85-0.74c-3.55,1.4-6.56,6.22-6.21,9.86
	C523.63,459.39,524.49,460.26,525.05,461.26z M728.06,343.8c1.09,6.82,2.03,12.73,3.14,19.67c4.69-4.19,5.21-8.71,5.07-12.94
	C736.14,346.8,732.74,345.2,728.06,343.8z M708.33,506.22c-0.22,0.68-0.44,1.36-0.67,2.03c1.64,0.48,3.29,0.95,4.93,1.43
	c0.18-0.56,0.36-1.13,0.53-1.69C711.53,507.4,709.93,506.81,708.33,506.22z"/>
<path d="M730.12,767.79c0.33-2.04,0.61-3.28,0.72-4.55c0.3-3.29,2.26-4,4.82-2.71c1.56,0.79,2.69,2.42,4.01,3.67
	c-1.36,0.74-2.66,1.64-4.1,2.19C734.06,766.98,732.42,767.22,730.12,767.79z"/>
<path d="M690.63,613.63c-1.37,1.09-2.16,1.72-2.95,2.34c-0.7-0.96-1.63-1.84-1.99-2.91c-0.13-0.37,1.32-1.84,1.71-1.72
	C688.42,611.66,689.24,612.58,690.63,613.63z"/>
<path d="M586.11,680.87c-0.8-3.21,3.71-9.51-4.61-7.82c-0.49,1.29-1.01,2.65-2.05,5.41c-0.85-5.75-3.18-4.44-6.17-3.68
	c-3.05,0.77-6.48,0.26-9.71-0.07c-0.67-0.07-1.77-1.89-1.62-2.7c0.19-1.02,1.32-2.36,2.3-2.64c5.23-1.49,10.5-2.92,15.84-3.95
	c7.12-1.37,14.3-2.49,21.49-3.41c1.84-0.23,4.17,0.19,5.69,1.2c7.29,4.87,8.97,12.21,4.87,20.18c-1.69,3.28-3.54,6.47-5.75,10.47
	c-2.92-4.76-5.58-3.29-8.47-0.9c-0.89,0.73-2.46,0.64-4.06,1.01c0.67-3.09,1.18-5.49,1.78-8.26c-1.9,0-3.13,0-4.41,0
	C592.19,681.6,591.26,679.75,586.11,680.87z"/>
</svg>
