<?xml version="1.0" encoding="utf-8"?>
<!-- Generator: Adobe Illustrator 24.1.0, SVG Export Plug-In . SVG Version: 6.00 Build 0)  -->
<svg version="1.1" id="Layer_1" xmlns="http://www.w3.org/2000/svg" xmlns:xlink="http://www.w3.org/1999/xlink" x="0px" y="0px"
	 viewBox="0 0 1224 792" style="enable-background:new 0 0 1224 792;" xml:space="preserve">
<path d="M660.33,426.54c-3.32,0.38-6.09,0.7-8.85,1.02c-6.7,0.77-13.39,1.56-20.09,2.31c-2.72,0.3-5.46,0.52-8.19,0.75
	c-2.96,0.25-5.97,0.17-8.87,0.75c-5.52,1.09-10.94,0.25-16.4-0.18c-2.25-0.18-4.52,0-6.78,0.03c-5.04,0.05-10.08,0.13-15.12,0.17
	c-4.57,0.03-9.14-0.11-13.7,0.04c-5.42,0.18-10.05-1.63-14.26-4.9c-1.16-0.9-2.54-1.51-3.75-2.34c-1.23-0.85-2.65-1.77-2.24-3.52
	c0.37-1.59,1.69-2.27,3.3-2.58c8.87-1.74,17.73-3.58,26.6-5.29c1.78-0.34,3.73,0.01,5.45-0.49c4.31-1.25,8.51-2.89,12.81-4.2
	c4.56-1.39,9.12-2.94,14.04-2.07c0.84,0.15,1.76-0.27,2.65-0.38c3.63-0.46,7.22-1.12,10.8,0.48c4.79,2.13,9.95,2.42,15.09,2.89
	c6.04,0.55,12.04,1.4,17.69,3.89c1.49,0.66,3.23,0.77,5.59,1.3c-0.28-1.92-0.37-3.2-0.67-4.44c-0.24-0.98-0.66-1.94-1.14-2.83
	c-2.88-5.36-2.88-11.33-3.88-17.12c-0.87-5.03-2.02-10.11-3.93-14.82c-1.73-4.27-4.6-8.09-7.04-12.06
	c-1.37-2.23-2.75-4.48-4.38-6.52c-3.8-4.75-9.07-7.47-14.26-10.44c-6.27-3.59-12.95-3.84-19.81-3.97
	c-6.97-0.13-13.95-0.89-20.91-0.74c-5.58,0.12-11.19,0.96-16.15,3.98c-0.1,0.06-0.18,0.16-0.28,0.2c-4.6,1.69-9.16,3.48-13.81,5.01
	c-2.64,0.87-6.32-1.47-6.33-4.25c0-2.09-0.96-3.1-2.27-4.22c-2.49-2.14-2.17-2.37-1.41-5.58c1-4.19,1.7-8.53,1.88-12.83
	c0.27-6.53,1.1-12.93,2.62-19.27c0.05-0.22,0.14-0.45,0.13-0.67c-0.29-6.6,2.52-12.49,4.13-18.67c1.29-4.93,1.96-10.02,2.99-15.02
	c0.27-1.33,0.94-2.57,1.25-3.9c0.99-4.22,1.79-8.48,2.86-12.67c0.9-3.54,2-7.02,3.13-10.5c2.59-8.02,5.3-16,7.86-24.03
	c1.37-4.31,2.79-8.64,3.71-13.06c2.04-9.87,5.46-19.31,8.33-28.92c2.22-7.42,3.78-15.05,7.05-22.13c3.54-7.67,7.33-15.2,11.9-22.35
	c2.27-3.55,3.81-7.56,5.91-11.22c5.24-9.12,10.42-18.28,15.99-27.2c3.31-5.3,7.13-10.33,11.09-15.17c2.74-3.34,6.02-6.28,9.26-9.18
	c4.68-4.2,9.57-8.16,14.3-12.31c2.58-2.26,4.95-4.75,7.52-7.02c3.77-3.32,7.51-6.68,11.48-9.75c9.4-7.27,18.89-14.45,28.43-21.54
	c5.14-3.81,11.22-5.68,17.26-7.46c4.49-1.32,9.07-2.65,13.69-3.12c5.33-0.54,10.75-0.18,16.14-0.1c0.86,0.01,1.69,0.65,2.55,0.96
	c3.33,1.22,6.65,2.46,10.01,3.61c4.43,1.52,8.96,2.79,13.31,4.52c1.95,0.77,3.85,2.13,5.29,3.68c6,6.44,11.97,12.92,17.64,19.65
	c3.82,4.53,7.35,9.34,10.6,14.29c5.53,8.42,9.45,17.66,12.77,27.15c0.15,0.43,0.31,0.89,0.28,1.33c-0.3,5.56,2.45,10.15,4.75,14.85
	c3.93,8.04,6.47,16.55,9,25.08c1.07,3.61,2.13,7.22,3.07,10.86c1.29,4.96,2.67,9.92,3.67,14.94c1.76,8.86,4.38,17.47,6.78,26.15
	c1.51,5.47,1.96,11.23,3.07,16.83c0.6,3.01,1.6,5.94,2.4,8.91c0.51,1.88,1.01,3.76,1.46,5.66c1.15,4.88,2.31,9.77,3.38,14.67
	c0.28,1.3,0.29,2.66,0.38,3.99c0.28,4.27-0.54,8.54,0.4,12.86c0.58,2.64,0.29,5.48,0.3,8.23c0.01,8.4,1.61,16.56,3.42,24.72
	c1.42,6.42,2.04,13.02,3.47,19.43c2.51,11.25,0.71,22.6,1.21,33.89c0.07,1.65-0.67,3.31-0.83,4.99c-0.24,2.5-0.5,5.02-0.38,7.52
	c0.22,4.31,0.72,8.6,1.1,12.9c0.31,0.07,0.61,0.14,0.92,0.21c0.74-1.31,1.68-2.55,2.2-3.95c2.99-8,9.32-13.17,15.64-18.27
	c1.34-1.08,3.67-1.25,5.55-1.28c4.47-0.07,8.83-0.04,13.12-1.88c3.33-1.43,6.69,0.98,6.74,4.46c0.1,6.76,0.03,13.52-0.38,20.4
	c-0.17-0.41-0.35-0.81-0.52-1.22c-0.12-0.01-0.24-0.02-0.35-0.03c0,3.11,0.15,6.23-0.05,9.33c-0.15,2.36-0.8,4.68-1.09,7.04
	c-0.39,3.17-0.5,6.38-0.98,9.54c-0.95,6.21-2.18,12.38-3.09,18.59c-0.44,3.03-0.44,6.13-0.61,9.19c-0.18,3.19-0.34,6.38-0.5,9.57
	c-0.2,3.88-0.63,7.77-0.55,11.65c0.1,4.61-1.17,8.75-3.25,12.76c-0.46,0.88-0.8,1.92-0.86,2.9c-0.38,6.29-1.5,12.41-3.79,18.29
	c-0.16,0.42-0.38,0.9-0.33,1.32c0.71,6.63-3.92,10.16-8.04,14.1c0.2,5.45-1.51,7.91-6.88,9.71c-3.35,1.12-6.69,2.3-10.09,3.27
	c-1.26,0.36-2.68,0.23-4.02,0.22c-1.1-0.01-2.2-0.17-3.21-0.26c-0.17,0.55-0.3,0.75-0.29,0.95c0.3,4.43,2.76,6.66,6.99,7.87
	c2.9,0.83,5.49,2.73,8.19,4.19c3.13,1.69,3.95,4.49,2.11,7.04c-0.52,0.72-4.63,2.36-5.19,1.8c-2.34-2.31-5.36-1.04-7.84-1.2
	c-3.87-0.25-6.87-2.27-10.34-3.19c-1.2-0.32-2.26-1.12-3.41-1.62c-2.29-0.99-3.91-2.53-5.16-4.77c-2.16-3.87-4.87-7.31-8.44-10.12
	c-1.25-0.98-1.5-3.2-2.33-4.79c-0.41-0.78-1.11-1.4-1.68-2.09c-0.32,0.15-0.63,0.31-0.95,0.46c0.25,0.9,0.51,1.81,0.75,2.71
	c0.19,0.73,0.46,1.45,0.53,2.19c0.4,4.28-0.59,8.28-2,12.33c-1.15,3.28-1.62,6.85-2.03,10.33c-0.52,4.5,0.66,9.13-1.22,13.57
	c-0.5,1.18-0.22,2.72-0.2,4.09c0.1,6.03-2.05,11.63-3.27,17.41c-0.62,2.96-1.07,6.16-0.57,9.08c0.36,2.14-0.25,3.67-0.83,5.43
	c-0.27,0.83-0.84,1.68-0.79,2.48c0.34,4.69-0.09,9.28-1.13,13.86c-0.58,2.58-0.75,5.19,0.71,7.68c0.42,0.72,0.28,1.78,0.33,2.69
	c0.2,4.13,1.11,4.87,5.07,3.91c0.87,2.07,1.71,4.18,2.65,6.25c0.6,1.33,0.14,2.04-0.97,2.84c-2.94,2.1-2.93,3.48-1.96,7.02
	c0.73,2.67,0.74,5.63,0.55,8.42c-0.13,1.94-3.53,2.71-5.41,1.09c-1.2-1.03-1.98-2.71-2.61-4.24c-0.95-2.32-1.43-4.83-2.4-7.13
	c-1.23-2.91-2.97-3.05-4.61-0.37c-1.06,1.72-2.34,3.68-2.41,5.57c-0.19,5.14-4.01,8.91-4.68,13.84c-0.22,1.59-1.92,2.63-3.76,2.22
	c-1.66-0.37-2.92-1.29-2.91-3.29c0-0.87-0.19-1.74-0.33-2.92c-5,3.65-6.58,9.02-8.89,13.88c-2.1,4.43-3.95,8.97-5.96,13.44
	c-0.27,0.6-0.77,1.17-1.3,1.56c-6.26,4.59-10.49,10.78-13.94,17.58c-2,3.94-4.92,7.13-8.09,10.15c-0.98,0.94-1.81,2.04-2.7,3.07
	c-5.12,5.93-9.3,12.45-11.95,19.86c-0.41,1.14-0.45,2.5-0.32,3.73c0.26,2.43-0.88,4.11-2.41,5.78c-7.45,8.1-14.4,16.62-19.75,26.26
	c-1.98,3.57-3.95,7.14-4.35,11.64c-0.64,7.21-2.4,14.33-3.93,21.44c-0.76,3.51-3,5.96-6.4,7.52c-6.66,3.05-13.19,6.38-19.79,9.55
	c-1.62,0.78-3.28,1.57-5,2.05c-3.29,0.93-6.64,1.66-9.98,2.43c-3.54,0.83-6.64,0.66-9.18-2.66c-2.68-3.5-7.09-4.47-10.86-6.35
	c-1.94-0.96-4.15-1.48-5.89-2.7c-1.84-1.29-4.07-2.09-4.88-4.93c-0.5-1.75-2.91-3.04-4.61-4.35c-1.45-1.12-2.38-2.25-3.19-4.07
	c-0.99-2.23-3.49-3.88-5.54-5.53c-0.81-0.65-2.14-0.75-3.25-0.91c-1.54-0.23-2.24-1.07-2.2-2.55c0.07-2.47-1.58-3.6-3.4-4.72
	c-3.02-1.85-6.01-3.74-8.92-5.74c-1.01-0.69-1.83-1.71-2.6-2.68c-1.61-2.06-2.86-4.49-4.76-6.21c-3.04-2.76-5.02-6.14-7.11-9.56
	c-1.42-2.32-3.2-4.48-5.14-6.4c-1.98-1.96-3.06-4.02-2.26-6.74c0.54-1.81-0.19-2.92-1.34-4.25c-2.74-3.19-5.27-6.57-7.81-9.92
	c-4.96-6.55-9.63-13.33-14.87-19.65c-5.4-6.52-9.19-13.75-11.98-21.69c-1.54-4.4-3.84-8.53-5.7-12.83
	c-0.63-1.45-0.95-3.04-1.45-4.55c-0.25-0.76-0.5-1.55-0.92-2.22c-3.13-4.86-3.53-10.48-4.55-15.94c-0.46-2.45-1.29-4.85-2.1-7.22
	c-2.39-7.01-4.62-13.92-4.87-21.55c-0.16-4.96-0.54-9.92-0.47-14.91c0.02-1.31-0.74-2.87-1.62-3.91c-1.19-1.42-1.81-2.82-1.76-4.66
	c0.07-2.29-0.06-4.59,0-6.88c0.13-4.87-1.43-9.44-2.27-14.14c-0.9-5.05-1.2-10.21-1.93-15.29c-0.58-4.05-1.37-8.06-2.13-12.08
	c-0.61-3.22-1.29-6.43-1.97-9.63c-1.12-5.19-1.22-10.56-3.48-15.57c-1.57-3.48-2.24-7.35-3.51-10.98c-1.13-3.21-2.57-6.32-3.81-9.49
	c-0.58-1.48-1.13-2.99-1.47-4.53c-1.09-4.88-1.96-9.81-3.16-14.66c-0.35-1.42-1.55-2.64-2.73-4.55c-0.95,2.58-1.51,4.49-2.34,6.27
	c-0.95,2.02-1.93,4.09-3.3,5.83c-2.54,3.22-5.75,5.79-9.25,7.92c-2.31,1.41-4.85,2.46-7.22,3.79c-1.59,0.9-3.01,2.08-4.58,3.02
	c-6.06,3.63-11.45,1.02-13.12-5.83c-0.76-3.14-2.66-6.01-4.05-8.99c-0.19-0.41-0.57-0.75-0.7-1.18c-1.7-5.66-5.58-10.17-8.03-15.43
	c-1.13-2.42-2.48-4.19-5.63-2.87c0.78-1.42,2-2.64,1.91-3.76c-0.1-1.27-1.4-2.44-2.12-3.68c-1.79-3.05-3.64-6.07-5.31-9.19
	c-3.14-5.87-5.28-12.11-6.26-18.71c-0.15-1-0.03-2.04,0-3.07c0.15-4.81,0.1-9.53-0.76-14.35c-0.87-4.91-2.29-9.76-2.89-14.6
	c-0.83-6.83-2.3-13.83-0.48-20.81c0.28-1.08,0.12-2.28,0.15-3.43c0.06-2.61-0.17-5.21,1.03-7.75c0.54-1.15,0.36-2.71,0.28-4.07
	c-0.38-6.08,2.69-10.3,7.54-13.23c2.91-1.75,6.22-2.87,9.42-4.11c4.86-1.9,9.85-1.64,14.89-0.75c2.58,0.45,5.21,0.68,7.83,0.76
	c1.98,0.07,3.48,0.53,4.65,2.3c1.25,1.9,3.15,3.42,4.2,5.4c1.97,3.7,3.98,7.49,5.13,11.49c1.35,4.68,1.91,9.61,2.6,14.47
	c0.43,3.05,0.34,6.17,0.7,9.24c0.65,5.42,0.97,10.82,0.44,16.28c-0.16,1.67,0.33,3.4,0.46,5.11c0.06,0.8,0.06,1.62-0.05,2.4
	c-0.34,2.37-1.85,3.74-3.82,3.57c-1.97-0.18-2.82-1.35-3.04-3.85c-0.35-3.87-0.66-7.75-1.26-11.58c-1.03-6.54-2.47-13.01-3.39-19.56
	c-0.6-4.29-0.74-8.66-0.81-12.99c-0.04-2.45-0.66-4.52-2.33-6.24c-1.19-1.22-1.9-2.55-1.78-4.28c0.15-2.28-1.19-3.65-3.03-4.55
	c-1.33-0.65-2.74-1.25-4.18-1.56c-8.14-1.75-15.97-1.09-23.07,3.66c-3.44,2.3-4.33,6.2-4.91,9.86c-1.29,8.13-2.61,16.31-1.88,24.6
	c0.31,3.62,0.45,7.42,1.71,10.74c3.07,8.07,4.41,16.28,3.7,24.83c-0.47,5.65,1.32,10.78,3.19,15.92c0.74,2.03,1.5,4.06,2.43,6
	c0.78,1.63,1.45,3.65,2.81,4.62c3.92,2.81,4.97,7.18,6.95,11.09c1.33,2.62,3.1,5.02,4.49,7.61c1.77,3.3,3.35,6.69,5.03,10.04
	c0.46,0.92,1.05,1.77,1.46,2.71c0.94,2.18,2.02,4.33,2.64,6.6c1.02,3.72,3.57,5.02,6.78,2.97c2.2-1.41,4.18-3.14,6.26-4.73
	c0.54-0.41,1.06-0.95,1.68-1.17c3.76-1.34,6.05-4.42,8.61-7.19c0.45-0.49,0.97-1.09,1.09-1.71c0.62-3.34,1-6.73,1.68-10.05
	c0.72-3.55,1.48-7.12,2.6-10.55c0.86-2.62,2.83-3.79,4.84-3.63c1.95,0.15,3.85,2.03,4.68,4.4c1.75,5.02,3.8,9.95,5.32,15.04
	c1.36,4.56,2.13,9.3,3.26,13.93c0.65,2.66,0.97,5.59,2.35,7.83c1.94,3.15,2.1,6.63,3.09,9.94c1.6,5.33,2.98,10.74,6.09,15.48
	c1.33,2.02,1.99,4.23,2.26,6.71c0.26,2.38,1.32,4.67,2.04,7c0.17,0.54,0.58,1.09,0.53,1.59c-0.5,4.59,2.67,8.2,3.28,12.49
	c0.24,1.67,0.87,3.32,0.91,4.98c0.13,5.16,0.02,10.32,0.08,15.48c0.08,7.33,0.9,14.56,2.46,21.75c1.15,5.33,2.1,10.72,1.68,16.27
	c-0.27,3.53-0.14,7.11,0.01,10.66c0.08,1.79,0.56,3.57,0.94,5.34c0.57,2.66,1.12,5.32,1.86,7.93c0.99,3.51,2.18,6.95,3.21,10.45
	c0.38,1.3,0.53,2.67,0.84,3.99c0.84,3.53,1.51,7.11,2.64,10.55c1.06,3.23,2.61,6.31,3.93,9.46c1.64,3.88,3.31,7.75,4.88,11.65
	c0.98,2.42,1.77,4.91,2.72,7.34c2.28,5.86,6.45,10.41,10.41,15.13c3.42,4.08,7.51,7.65,9.8,12.65c0.6,1.3,1.8,2.32,2.67,3.51
	c3.1,4.2,5.76,8.66,9.44,12.5c3.68,3.83,6.47,8.53,9.67,12.82c0.96,1.28,1.98,2.52,3.01,3.74c4.74,5.6,10.11,10.6,15.74,15.21
	c6.61,5.41,12.34,11.93,20,16.06c1.67,0.9,3.03,2.45,4.33,3.88c0.63,0.7,1.22,1.88,1.1,2.74c-0.67,4.63,2.53,6.8,5.52,9.1
	c3.8,2.92,7.62,5.83,11.51,8.63c3.97,2.85,8.42,2.52,12.87,1.57c6.31-1.34,12.03-4.26,17.88-6.84c2.81-1.24,5.51-2.76,8.17-4.31
	c0.83-0.48,1.68-1.37,1.97-2.26c0.92-2.85,1.59-5.77,2.35-8.67c-0.3-0.14-0.6-0.29-0.91-0.43c-0.67,0.82-1.26,1.73-2.04,2.44
	c-1.08,0.98-2.17,2.13-3.48,2.62c-1.55,0.57-3.19,0.12-4.2-1.48c-1.08-1.73-1.01-4.99,0.12-6.55c3.22-4.43,6.47-8.85,9.66-13.31
	c2.58-3.61,5.25-7.11,6.94-11.33c0.9-2.23,3-3.97,4.47-5.99c5.52-7.57,11.02-15.16,16.51-22.75c0.46-0.64,1.15-1.33,1.19-2.04
	c0.29-4.71,3.22-8.3,5.3-12.17c1.6-2.98,4.07-5.5,6.25-8.14c2.85-3.43,5.9-6.71,8.68-10.19c2.2-2.75,4.18-5.67,6.15-8.59
	c2.17-3.21,4.18-6.54,6.34-9.76c0.63-0.94,1.41-1.9,2.35-2.48c4.5-2.76,6.43-7.23,8.36-11.8c1.14-2.71,2.67-5.26,4.03-7.88
	c2.04-3.95,4.23-7.83,6.09-11.87c1.53-3.31,2.61-6.82,4.03-10.19c1.37-3.26,2.97-6.43,4.37-9.68c0.85-1.97,1.51-4.03,2.3-6.03
	c0.5-1.27,0.77-3.03,1.73-3.63c1.89-1.19,2.25-2.93,2.89-4.72c1.04-2.89,2.49-5.65,3.29-8.59c0.49-1.81,0.51-3.98-0.01-5.76
	c-0.51-1.76-0.1-2.93,0.96-4.01c2.06-2.12,3.18-4.5,3.78-7.47c1.29-6.37,3.19-12.62,4.69-18.95c0.68-2.89,1.09-5.85,1.43-8.8
	c0.69-6.01,1.17-12.03,1.88-18.04c0.7-5.88,1.58-11.73,2.37-17.59c0.14-1.02,0.32-2.06,0.26-3.07c-0.4-7.4-0.88-14.8-1.3-22.19
	c-0.13-2.23-1.79-2.87-3.46-3.23c-3.42-0.74-6.74-1.83-10.38-1.74c-2.41,0.06-4.83-1.27-7.29-1.79c-4.91-1.03-9.85-1.9-14.78-2.87
	c-1.54-0.3-3.06-0.68-4.59-1.03c-4.44-1.03-8.88-2.08-13.33-3.08c-1.89-0.43-3.81-0.76-5.72-1.13c-3.64-0.71-4.67,0.15-5.17,3.77
	c-0.31,2.25-1.04,4.43-1.5,6.66c-0.43,2.09-0.78,4.2-1.13,6.3c-0.52,3.13-1.16,6.26-1.49,9.41c-0.29,2.81-0.27,5.65-0.29,8.48
	c-0.01,1.34,1.15,2.85-0.73,3.84c-0.1,0.05-0.14,0.51-0.04,0.63c2.26,2.73-0.63,5.05-0.63,7.63c0,2-0.91,3.99-0.93,6
	c-0.11,9.63,0.05,19.27-0.1,28.9c-0.07,4.57,1.2,8.87,2.09,13.25c0.32,1.57,0.25,2.74-0.55,4.17c-1.21,2.15-2,4.54-2.98,6.82
	c-0.22,0.52-0.35,1.17-0.74,1.51c-3.19,2.85-4.33,6.56-4.75,10.63c-0.06,0.53-0.42,1.04-0.68,1.55c-0.31,0.61-0.54,1.36-1.03,1.77
	c-2.36,2.01,0.44,5.69-2.41,7.43c-2.51,1.53-3.06,4.15-4,6.57c-0.99,2.54-1.89,5.12-2.93,7.64c-0.87,2.1-1.93,4.13-2.83,6.22
	c-1.75,4.05-2.93,8.35-6.05,11.74c-0.65,0.71-0.63,2.1-0.75,3.2c-0.09,0.78,0.16,1.59,0.17,2.39c0.03,2.38-1.28,4.44-3.02,4.84
	c-1.72,0.4-4.08-0.87-4.97-2.94c-1.12-2.62-2.04-5.32-3.04-7.99c-1.65-4.36-2.6-9.17-5.11-12.97c-3.62-5.49-6.38-11.71-11.66-16.02
	c-0.52-0.43-1.05-0.92-1.39-1.49c-0.99-1.66-2.06-1.38-3.4-0.42c-1.2,0.86-2.53,1.55-3.83,2.28c-1.89,1.07-3.64,0.75-4.86-0.98
	c-1.98-2.83-4.31-5.33-3.9-9.45c0.31-3.08-0.86-6.3-1.36-9.47c-0.57-3.61-1.39-7.21-1.62-10.85c-0.17-2.7,0.63-5.45,0.68-8.18
	c0.1-5.01-0.05-10.03-0.06-15.05c-0.01-3.66-0.13-7.33,0.12-10.98c0.61-9.15,1.19-18.25-0.62-27.37c-0.89-4.47-0.78-9.17-1.91-13.56
	c-1.54-5.95-3.87-11.69-5.81-17.53c-1.68-5.07-3.3-10.16-4.94-15.25c-0.14-0.43-0.09-0.95-0.31-1.33
	c-2.77-4.78-4.19-10.1-6.18-15.19C660.45,426.55,660.21,426.43,660.33,426.54z M648.32,362.99c0.37-0.44,0.56-0.59,0.65-0.78
	c1.72-3.48,3.85-3.92,6.58-1.37c0.84,0.78,1.75,1.49,2.53,2.32c2.7,2.87,5.42,5.55,6.37,9.8c0.59,2.64,1.01,5.31,1.59,7.95
	c1.19,5.44,2.69,10.81,3.83,16.25c0.75,3.57,1.01,7.24,1.62,10.83c0.75,4.35,1.66,8.66,2.47,13c0.87,4.69,1.45,9.44,2.63,14.05
	c1.25,4.86,3.39,9.51,4.52,14.39c1.36,5.86,2.79,11.86,2.88,17.83c0.1,6.52,1.83,12.6,3,18.85c1.14,6.15,2.46,12.26,3.52,18.42
	c1.11,6.52,1.81,13.11,3.06,19.59c1.08,5.57,2.96,10.99,2.61,16.78c-0.04,0.75,0.33,1.54,0.61,2.28c1.98,5.34,4.46,10.54,5.84,16.03
	c1.43,5.67,3.18,11.12,5.82,16.34c2.79,5.52,7.53,9.19,12.3,12.68c3.34,2.45,7.71,0.2,9.22-4.02c1.65-4.61,3.15-9.26,5.87-13.45
	c3.15-4.84,5.06-10.2,5.2-16.07c0.03-1.25,0.02-2.5,0.13-3.75c0.49-5.54,1.24-11.07,1.44-16.62c0.12-3.2-1.13-6.26-0.73-9.69
	c1.12-9.75,1.61-19.57,2.26-29.36c0.17-2.6,0.04-5.21,0.06-7.82c0.01-1.72-0.16-3.47,0.12-5.15c1.17-6.86,0.86-13.86,2.34-20.74
	c1.11-5.17,2.8-10.1,4.35-15.1c0.98-3.15,2.59-6.14,3.31-9.33c0.59-2.63,1.47-5.43,0.64-8.3c-1.43,0.23-2.48,0.4-3.85,0.62
	c0.39-1.41,0.68-2.45,0.94-3.37c-2.57-2.34-5.01-4.47-5.68-7.6c2.86-0.63,5.23-1.24,7.64-1.66c3.06-0.53,4.52-1.9,5.31-4.9
	c0.66-2.5,0.83-5.63,2.45-7.27c3.54-3.57,5.01-8.15,7.38-12.27c0.71-1.23,1.33-2.52,2.08-3.97c-0.91-0.21-1.34-0.38-1.78-0.41
	c-1.73-0.14-3.18-0.74-3.7-2.53c-0.53-1.83,0.55-3.24,1.87-4.11c1.89-1.25,3.97-2.24,6.08-3.08c2.33-0.93,5.01-1.17,7.12-2.41
	c5.21-3.07,10.3-6.36,15.21-9.88c5.74-4.12,12.54-5.38,18.97-7.63c2.48-0.87,4.12-0.05,4.72,1.52c0.85,2.22,0.01,4.69-1.86,5.98
	c-1.74,1.21-3.38,2.57-4.96,3.78c0.65,2.31,2.13,2.31,3.67,2.16c6.46-0.64,12.95-1.77,19.28,0.77c0.31,0.12,0.68,0.07,1.02,0.14
	c4.36,0.85,8.74,1.63,13.08,2.6c1.87,0.42,3.64,1.3,5.5,1.81c2.49,0.68,3.41,0.18,3.85-2.4c0.32-1.9,0.35-3.88,0.26-5.82
	c-0.26-5.96,0.1-11.85,1.12-17.74c0.42-2.42,0.05-4.99-0.13-7.48c-0.18-2.48-0.89-4.96-0.8-7.42c0.15-3.97,1.18-7.92,1.11-11.87
	c-0.13-7.2,1.92-14.24,1.01-21.52c-0.75-6.1-0.54-12.29-1.99-18.36c-1.19-4.98-1.88-10.08-2.79-15.13c-0.54-3.02-1.4-6.02-1.56-9.06
	c-0.59-11.31-0.9-22.63-1.43-33.95c-0.1-2.12-0.65-4.23-1.09-6.33c-0.52-2.44-1.2-4.85-1.72-7.3c-0.54-2.57-0.77-5.23-1.5-7.74
	c-1.83-6.23-3.8-12.37-4.37-18.93c-0.34-3.94-1.57-7.81-2.52-11.68c-0.93-3.75-1.9-7.5-3.06-11.18c-1.74-5.56-3.25-11.16-3.68-17
	c-0.07-1.02-0.33-2.04-0.63-3.01c-2.54-8.16-5.22-16.27-7.62-24.47c-1.77-6.03-3.83-11.9-6.72-17.51
	c-1.67-3.24-3.11-6.69-3.98-10.21c-1.75-7.09-3.16-14.27-6.35-20.9c-2.48-5.15-4.64-10.55-7.88-15.2
	c-4.96-7.11-10.68-13.69-16.13-20.46c-6.89-8.56-15.43-14.43-26.5-16.17c-0.77-0.12-1.54-0.46-2.25-0.81
	c-4.61-2.28-9.46-3.31-14.61-3.21c-5.38,0.11-10.67,0.22-16.04,1.23c-9.54,1.79-18.23,5.41-26.05,10.92
	c-6.04,4.26-11.55,9.28-17.36,13.86c-3.41,2.69-7.07,5.06-10.44,7.8c-4.7,3.82-9.24,7.86-13.85,11.79
	c-3.83,3.27-7.69,6.52-11.49,9.81c-3.44,2.98-6.87,5.99-10.24,9.05c-0.91,0.83-1.63,1.89-2.41,2.86c-0.64,0.79-1.22,1.63-1.86,2.43
	c-1.42,1.78-3.09,3.4-4.26,5.33c-5.4,8.89-10.73,17.83-15.97,26.81c-3.8,6.5-7.49,13.07-11.13,19.67
	c-3.03,5.49-6.15,10.95-8.77,16.64c-1.85,4.01-2.98,8.36-4.34,12.59c-1.72,5.32-3.38,10.66-5.01,16c-1.49,4.9-2.91,9.83-4.33,14.75
	c-1.67,5.77-3.37,11.54-4.95,17.34c-1.2,4.37-2.03,8.85-3.39,13.17c-1.58,5-3.35,9.96-5.43,14.78c-3.05,7.07-4.11,14.67-6.29,21.97
	c-0.61,2.05-1.4,4.17-1.43,6.27c-0.06,5.15-2.44,9.7-3.39,14.61c-1.25,6.46-4.06,12.61-3.6,19.42c0.11,1.67-0.41,3.38-0.67,5.06
	c-0.62,3.95-2.04,7.97-1.68,11.83c0.38,4-0.4,7.69-0.83,11.49c-0.31,2.75,0.64,4.14,3.41,4.44c5.78,0.64,11.35-0.57,16.9-1.96
	c5.75-1.45,11.39-3.44,17.49-2.85c4.1,0.4,8.21,0.57,12.32,0.87c2.16,0.16,4.33,0.32,6.48,0.56c1,0.12,2.12,0.21,2.93,0.72
	c3.31,2.06,7.1,2.83,10.76,3.16c4.78,0.44,8.09,3.23,11.56,5.77c3.49,2.56,6.42,5.92,10,8.33c2.83,1.91,4.58,3.94,5.24,7.38
	C645.72,359.76,645.89,362.17,648.32,362.99z M774.94,422.08c1.23-1.15,2.2-2.14,3.26-3.02c0.48-0.4,1.12-0.82,1.71-0.84
	c1.36-0.06,2.2-0.72,3.24-1.54c1.26-0.99,3.04-1.81,4.61-1.84c9.89-0.15,19.6,0.69,28.73,5.19c6.8,3.36,13.23,7.16,18.79,12.34
	c1,0.93,1.87,2.06,2.99,2.8c3.28,2.17,5.72,4.93,7.85,8.29c2.74,4.31,0.72,12.9-3.52,15.98c-2,1.45-2.44,2.72-1.86,5.01
	c0.45,1.75,0.73,3.54,1.13,5.3c0.28,1.21,0.58,2.42,0.97,3.59c1.65,4.97,4.91,8.97,8.05,13.02c0.21,0.27,0.79,0.26,1.12,0.36
	c0.28-0.32,0.56-0.5,0.55-0.65c-0.09-1.13-0.24-2.25-0.36-3.38c-0.31-3.07,0.46-4.29,3.49-4.74c2.92-0.44,5.89-0.6,8.84-0.82
	c4.81-0.36,9.2-1.61,12.53-5.44c0.81-0.94,1.75-1.91,2.84-2.43c2.15-1.04,3.22-2.84,4.15-4.84c0.68-1.45,1.17-3.04,2.1-4.31
	c2.92-3.98,3.78-8.74,5.09-13.29c1.65-5.77,2.98-11.63,4.22-17.5c0.75-3.56,1.08-7.2,1.54-10.81c0.46-3.6,1.28-7.22,1.16-10.8
	c-0.34-9.96,2.18-19.37,4.76-28.8c0.18-0.65,0.4-1.3,0.47-1.96c0.51-4.87,1.09-9.74,1.41-14.62c0.14-2.22-0.38-4.47-0.44-6.71
	c-0.08-3.03-0.55-6.2,0.12-9.08c1.03-4.46,0.53-8.78,0.44-13.13c-4.74,0.09-9.13,0.16-13.51,0.27c-0.44,0.01-0.96,0.15-1.29,0.41
	c-3.78,3.1-8.14,5.68-10.51,10.14c-1.81,3.4-3.15,7.04-4.66,10.59c-0.53,1.25-1.1,2.53-1.35,3.86c-0.81,4.43-1.32,8.91-3.76,12.89
	c-1.01,1.64-1.72,3.48-2.41,5.28c-1.1,2.9-1.48,5.7,1.14,8.18c4.55,4.31,9,8.72,13.53,13.05c0.74,0.71,1.67,1.21,2.44,1.89
	c1.24,1.11,1.63,2.39,0.76,3.99c-0.9,1.65-1.69,3.37-4.03,3.02c-1.58-0.24-3.18-0.45-4.72-0.86c-5.74-1.53-11.43-3.25-17.19-4.69
	c-3.99-1-8.03-1.92-12.1-2.41c-4.4-0.54-8.86-0.46-13.29-0.82c-2.15-0.18-4.28-1.16-6.38-1.05c-5.54,0.3-11.17,0.32-16.46,2.45
	c-1.58,0.64-3.11,1.42-4.72,1.98c-6.04,2.09-12.11,4.09-18.15,6.2c-0.92,0.32-1.72,1.06-2.53,1.67c-3.33,2.54-5.66,6.17-9.37,8.33
	C775.11,418.51,773.99,419.74,774.94,422.08z M867.08,396.47c0.28-0.4,0.55-0.8,0.83-1.2c-0.93-1.18-1.77-2.45-2.81-3.53
	c-4.29-4.45-9.84-6.8-15.49-8.89c-7.37-2.72-15.14-3.43-22.91-3.83c-4.57-0.23-9.16-0.12-13.74,0c-3.65,0.1-7.31,0.33-10.93,0.75
	c-1.26,0.15-2.83,0.75-3.55,1.69c-1.17,1.51-2.6,1.99-4.25,2.57c-3.8,1.36-6.92,3.58-7.98,7.93c-1.81-0.38-3.29,0.24-3.42,2.17
	c-0.22,3.34-2.16,4.52-5.12,4.88c-0.58,0.07-1.47,0.54-1.6,1c-0.59,2.13-0.96,4.31-1.53,7.08c2.04-0.86,3.7-1.47,5.28-2.23
	c3.69-1.76,7.22-3.95,11.06-5.29c8.08-2.83,16.34-5.15,24.47-7.83c4.16-1.37,8.28-1.47,12.51-0.64c2.01,0.4,4.05,0.67,6.09,0.9
	c7.49,0.84,14.99,1.56,22.46,2.5C860.03,394.95,863.55,395.8,867.08,396.47z M820.99,432.56c-0.08,0.51-0.05,0.99-0.24,1.34
	c-1.21,2.25-1.41,4.31,0.78,6.15c0.35,0.29,0.59,0.99,0.53,1.45c-0.27,2.05-0.19,4.22-2.09,5.73c-1.54,1.23-2.97,2.6-4.92,4.31
	c0.53,0.3,0.99,0.7,1.52,0.83c2.21,0.54,4.44,1.38,6.66,1.41c4.09,0.06,8.2-0.27,12.29-0.65c3.18-0.3,4.94-4.48,2.9-7.2
	c-1.74-2.33-3.52-4.79-6.88-5.27c-1.7-0.24-2.77-1.38-3.75-3.07c-1.65-2.88-3.49-5.78-7.33-6.66c-2.38-0.54-4.51-2.1-6.8-3.09
	c-1.35-0.58-2.79-0.92-4.18-1.41c-0.95-0.33-1.95-0.61-2.79-1.12c-4.32-2.62-8.92-2.4-13.56-1.31c-0.69,0.16-1.21,1.08-1.81,1.65
	c0.06,0.28,0.11,0.55,0.17,0.83c5.44,0.13,10.72,1.12,15.91,2.53c0.42,0.11,0.96-0.17,1.35-0.02c1.78,0.67,3.72,1.15,5.22,2.23
	C816.15,432.78,818.26,433.43,820.99,432.56z M557.5,423.7c2.8,1.34,5.38,0.72,7.97,0.62c4.31-0.17,8.63-0.13,12.94-0.14
	c4-0.01,8,0.09,12-0.01c1.15-0.03,2.29-0.61,3.88-1.07c-1.07-1.33-1.99-2.1-2.44-3.09c-1.5-3.32-3.91-3.41-7.08-2.75
	c-7.03,1.46-14.14,2.5-21.2,3.87C561.54,421.52,559.13,421.23,557.5,423.7z M696.97,564.07c-1-2.72-2.21-5.74-3.24-8.83
	c-1.19-3.57-2.4-7.15-3.26-10.81c-0.8-3.41-1.15-6.93-1.73-10.4c-0.01-0.08-0.37-0.11-0.62-0.18c-0.11,0.31-0.34,0.64-0.31,0.94
	c0.49,5.21-1.44,10.29-0.27,15.67c0.73,3.36,0.79,6.97,1.6,10.42c0.52,2.22,2.1,3.18,3.89,4
	C694.25,565.44,695.58,566.24,696.97,564.07z M661.44,406.33c0.33-0.01,0.67-0.02,1-0.03c0.17-1.04,0.54-2.1,0.47-3.13
	c-0.2-2.72-0.45-5.45-0.92-8.13c-0.8-4.56-1.73-9.1-2.72-13.63c-0.5-2.3-1.33-4.53-1.81-6.83c-0.33-1.56-0.82-2.81-2.56-3.39
	c-1.2,0.76-1.75,1.58-0.8,3.03c0.46,0.71,0.66,1.64,0.83,2.49c0.55,2.75,0.96,5.54,1.56,8.28c0.7,3.19,1.58,6.34,2.32,9.53
	C659.7,398.45,660.56,402.39,661.44,406.33z M598.4,416.23c1.6,1.18,3.15,1.79,3.78,2.91c1.35,2.39,3.6,3.01,5.85,3.65
	c1.99,0.57,3.58-0.41,4.72-2.01c1.66-2.34,0.64-5.7-1.91-5.86c-3.4-0.21-6.84-0.05-10.25,0.06
	C600.02,414.99,599.47,415.59,598.4,416.23z M624.21,414.45c-0.45,2.4-0.89,4.05-1.03,5.72c-0.19,2.32,0.35,2.97,2.73,2.73
	c3.61-0.36,7.2-1.02,10.78-1.63c0.81-0.14,1.58-0.57,2.67-0.99c-1.68-1.65-3.55-1.03-5.07-1.55c-1.69-0.58-3.18-1.72-4.83-2.44
	C627.95,415.63,626.34,415.19,624.21,414.45z M786.1,441.35c-0.3-0.5-0.38-0.81-0.53-0.84c-3.06-0.76-6.42,0.4-9.33-1.46
	c-0.15-0.09-0.46-0.01-0.66,0.08c-2.17,0.9-4.33,1.81-6.5,2.72c0.99,1.84,3.37,3,5.62,2.2c1.51-0.54,2.48-0.3,3.73,0.43
	c1.39,0.81,2.76,0.59,3.81-0.83c-0.69-0.6-1.2-1.04-2.13-1.84C782.48,441.64,784.22,441.5,786.1,441.35z M790.2,448.27
	c2.39,0.93,4.68,1.46,7.64,1.07C794.28,446.09,792.47,445.89,790.2,448.27z M652.71,369.65c0.7-3.64-0.02-4.69-3.22-5.14
	C648.93,367.11,651.12,367.96,652.71,369.65z M723,601.75c1.91-1.49,1.91-1.49,1.72-4.3C721.9,597.48,721.59,598.15,723,601.75z"/>
<path d="M726.37,666.32c0.44,2.09-0.61,4.59-1.89,7.08c-1.4,2.73-3.61,3.86-6.58,4.23c-4.07,0.51-8.13,1.2-12.13,2.13
	c-1.82,0.43-3.05,0.2-4.28-1.13c-1.67-1.81-3.57-2.7-6.26-2.83c-3.24-0.15-6.44-1.23-9.19-3.41c-2.67-2.13-5.74-3.76-8.46-5.84
	c-1.7-1.3-3.47-2.83-4.44-4.66c-0.69-1.29-0.65-3.53,0.03-4.87c2.4-4.77,5.47-9.15,11.14-10.41c4.1-0.91,8.29-1.85,12.5-0.8
	c4.75,1.19,9.47,2.47,14.14,3.92c1.72,0.53,3.37,1.49,4.85,2.54c2.97,2.1,5.78,4.41,8.68,6.6
	C726.82,660.65,726.19,663.18,726.37,666.32z"/>
</svg>
