<?xml version="1.0" encoding="utf-8"?>
<!-- Generator: Adobe Illustrator 24.1.0, SVG Export Plug-In . SVG Version: 6.00 Build 0)  -->
<svg version="1.1" id="Layer_1" xmlns="http://www.w3.org/2000/svg" xmlns:xlink="http://www.w3.org/1999/xlink" x="0px" y="0px"
	 viewBox="0 0 1224 792" style="enable-background:new 0 0 1224 792;" xml:space="preserve">
<path d="M731.33,486.05c0.67,3.47,1.7,6.8,3.47,9.93c0.67,1.19,1.28,2.59,1.35,3.92c0.16,2.95-1.47,4.33-4.42,4.16
	c-3.64-0.21-3.61-0.21-4.12,3.5c-0.14,1.05-0.43,2.09-0.74,3.11c-1.5,5-2.97,10-4.55,14.97c-1.32,4.17-2.81,8.29-4.14,12.46
	c-0.47,1.46-0.51,3.06-1.02,4.5c-1.85,5.26-3.62,10.56-5.77,15.7c-2.43,5.82-4.4,11.65-5.51,17.94c-1.32,7.52-1.27,15.14-2.59,22.61
	c-0.44,2.51-1.52,4.95-2.53,7.32c-1.93,4.57-4,9.08-6.05,13.59c-1.42,3.12-3.02,6.16-4.34,9.33c-2.35,5.63-5.74,10.8-7.05,16.92
	c-0.66,3.09-2.07,6.03-3.26,9c-1.31,3.28-2.6,6.58-4.21,9.71c-1.29,2.51-3.23,4.68-4.55,7.18c-2.93,5.55-5.65,11.2-8.47,16.81
	c-1.58,3.14-3.21,6.26-4.78,9.41c-0.68,1.37-1.2,2.81-1.91,4.16c-0.43,0.81-0.97,1.62-1.65,2.22c-4.25,3.81-8.35,7.85-12.91,11.24
	c-2.9,2.16-6.44,3.59-9.86,4.9c-5.83,2.22-9.4,6.65-12.48,11.69c-0.43,0.7-0.7,1.53-1.22,2.15c-3.8,4.56-7.7,9.05-11.47,13.64
	c-2.65,3.23-4.8,6.75-8.87,8.76c-2.56,1.26-4.69,3.38-7.49,4.59c-3.46,1.49-6.55,3.83-9.79,5.82c-2.57,1.58-5.22,2.26-8.12,0.88
	c-0.64-0.3-1.36-0.43-2.04-0.64c-4.31-1.36-8.21-3.28-11.89-6.11c-4.21-3.23-9.15-5.51-13.77-8.21c-1.52-0.89-2.96-1.93-4.55-2.68
	c-1.48-0.7-3.06-1.36-4.67-1.58c-7.08-0.95-13.52-3.62-19.69-7.04c-0.92-0.51-1.71-1.28-2.52-1.96c-0.64-0.54-1.13-1.43-1.85-1.65
	c-4.03-1.24-6.86-4.11-9.82-6.84c-0.58-0.54-1.45-0.82-2.24-1.07c-7.12-2.3-14.19-4.79-21.4-6.76c-6.05-1.66-12.32-2.5-18.4-4.07
	c-3.66-0.95-7.22-2.39-10.67-3.97c-9.28-4.26-18.5-8.63-27.67-13.13c-3.95-1.93-7.67-4.33-11.55-6.41
	c-2.72-1.45-5.45-2.98-8.34-4.02c-7.02-2.53-12.31-7.25-16.53-13.1c-4.1-5.68-7.51-11.86-11.49-17.64
	c-4.18-6.06-8.79-11.82-12.99-17.86c-5.48-7.89-12.75-14.38-17.23-23.1c-4.39-8.53-9.5-16.69-14.31-25
	c-0.47-0.81-1.05-1.6-1.71-2.26c-5.84-5.78-9.78-12.66-12.88-20.27c-4.22-10.33-8.9-20.48-14.64-30.09
	c-0.91-1.53-1.61-3.19-2.51-4.73c-0.69-1.18-1.55-2.27-2.34-3.4c-0.31,0.05-0.62,0.1-0.93,0.15c-0.17,1.17-0.48,2.34-0.49,3.52
	c-0.04,5,0.05,10.01-0.01,15.01c-0.02,1.53-0.34,3.06-0.51,4.59c-0.24,2.17-1.39,3.54-3.58,3.81c-2.3,0.28-4.75,0.39-5.92-2.14
	c-2.49-5.39-4.85-10.84-7.16-16.3c-0.69-1.63-1.15-3.37-1.52-5.1c-1.03-4.86-1.94-9.75-2.92-14.62c-0.18-0.89-0.46-1.76-0.78-2.95
	c-5.16,2.91-9.72,6-13.57,10.07c-3.2,3.38-3.58,3.21-8.02,1.73c-3.58-1.19-6.62-2.97-9.57-5.3c-2.58-2.03-5.78-3.26-8.56-5.06
	c-1.53-0.99-3.13-2.22-4.07-3.73c-4.06-6.55-9.71-9.97-17.48-9.35c-3.26,0.26-5.66-0.78-7.83-3.2c-5.73-6.4-11.21-13.01-14.8-20.87
	c-2.21-4.82-4.05-9.83-4.05-15.35c0-2.57-0.82-5.14-1.28-7.71c-1.47-8.06-2.63-16.18-4.51-24.14c-1.56-6.56-3.95-12.92-6.04-19.35
	c-0.54-1.65-0.45-3.15,0.91-4.22c2.75-2.15,3.8-5.36,5.48-8.2c2.47-4.19,4.89-8.41,7.55-12.48c0.71-1.09,2.12-1.94,3.39-2.41
	c2.45-0.9,4.99-1.85,7.56-2.06c6.15-0.5,12.35-1.08,18.33,1.31c3.2,1.28,6.42,2.74,9.77,3.35c3.08,0.56,6.35,0.15,9.54,0.02
	c3.98-0.16,7.95-0.66,11.92-0.6c1.78,0.03,3.66,0.85,5.28,1.72c3.23,1.74,6.45,3.57,9.41,5.73c2.48,1.8,4.66,4.03,6.83,6.22
	c3.11,3.13,7.3,4.56,11.45,3.53c-0.46-2.53-0.59-5.2-1.45-7.6c-2.12-5.92-4.61-11.71-6.86-17.59c-0.62-1.62-1.29-3.34-1.32-5.03
	c-0.13-7.26,0.06-14.53-0.04-21.8c-0.06-4.27-0.59-8.54-0.64-12.81c-0.11-9.63,0.45-19.22,1.77-28.79
	c0.62-4.54,0.34-9.29-0.18-13.87c-0.92-8.01-3.11-15.79-4.85-23.65c-1.29-5.81-1.58-11.98-0.28-18.08c0.81-3.81,0.88-7.77,1.3-11.66
	c0.76-6.96,1.53-13.93,2.3-20.89c0.65-5.9,1.15-11.82,1.99-17.7c0.93-6.46,2.02-12.9,3.34-19.29c1-4.88,2.31-9.71,3.76-14.48
	c0.89-2.92,2.08-5.81,3.55-8.49c4.35-7.9,8.5-15.96,13.49-23.45c5.84-8.77,11.07-18.05,18.8-25.47c3.51-3.37,6.43-7.44,10.24-10.38
	c7.24-5.57,14.76-10.77,23.27-14.41c5.55-2.38,10.73-5.62,16.29-7.96c8.86-3.73,17.77-7.4,27.32-9.12
	c5.72-1.03,11.41-2.33,17.15-3.21c5.04-0.77,10.16-1.1,15.23-1.69c3.54-0.41,7.05-1.05,10.6-1.36c6.62-0.59,13.26-1.2,19.9-1.48
	c9.38-0.4,18.78-0.75,28.17-0.67c5.07,0.05,10.12,1.16,15.2,1.59c3.9,0.33,7.83,0.34,11.75,0.5c11.16,0.43,22.45-0.01,33.38,2.36
	c7.17,1.55,14.26,3.26,21.57,4.14c3.98,0.48,7.89,1.67,11.78,2.72c3.32,0.9,6.81,1.6,9.81,3.18c5.13,2.7,10.84,3.52,16.08,5.68
	c5.37,2.21,10.41,5.18,15.62,7.78c5.63,2.81,11.31,5.53,16.93,8.39c2.74,1.39,5.5,2.81,8.03,4.55c4.69,3.24,9.35,6.54,13.72,10.17
	c2.03,1.69,3.22,4.36,5.06,6.32c4.44,4.72,7.28,10.47,10.68,15.87c1.32,2.09,3.33,3.78,4.46,5.95c3.94,7.56,7.83,15.16,11.36,22.92
	c3.59,7.89,6.69,15.99,10.11,23.96c0.84,1.95,2.14,3.69,3.11,5.59c3.03,5.96,6.94,11.31,11.34,16.32c0.53,0.6,1.16,1.42,1.16,2.14
	c0,4.94,3.12,8.64,4.94,12.85c2.83,6.52,5.75,13.01,8.75,19.46c1.45,3.1,3.16,6.09,4.76,9.11c1.77,3.33,3.57,6.64,5.32,9.98
	c2.05,3.92,4.16,7.82,6.06,11.81c1.92,4.02,4.12,7.85,6.32,11.71c1.77,3.09,2.21,6.92,3.34,10.39c1.11,3.39,1.91,6.81,1.8,10.4
	c-0.01,0.43,0.28,0.89,0.5,1.31c2.52,4.9,1.74,10.08,1.83,15.32c0.1,5.79-2.17,11.42-0.62,17.27c0.59,2.24-0.07,4.8,0.43,7.09
	c0.7,3.22,1.94,6.33,2.95,9.49c1.22,3.83,2.43,7.67,3.65,11.5c0.21,0.65,0.47,1.28,0.95,2.56c1.49-1.81,2.72-3.16,3.8-4.63
	c4.01-5.46,7.81-11.08,12.02-16.38c2.34-2.95,5.24-5.49,8.07-8.01c2.47-2.21,5.03-4.41,7.84-6.15c5.64-3.47,11.68-3.62,17.78-1.18
	c1.67,0.67,2.49,2.07,2.8,3.86c0.6,3.5,1.52,6.95,1.94,10.46c1.41,11.88,11.58,18.95,22.3,18.92c2.73-0.01,5.46-0.25,8.18-0.44
	c1.65-0.12,5.93,2.05,6.12,3.5c0.13,1.01-0.5,2.19-0.96,3.22c-1.64,3.66-3.61,7.2-4.94,10.97c-1.03,2.91-0.78,5.98,0.21,9.1
	c1.11,3.5-0.23,7.02-1.17,10.44c-0.62,2.28-1.45,4.52-2.16,6.78c-0.25,0.79-0.35,1.64-0.66,2.41c-1.43,3.56-4.61,6.4-4.34,10.65
	c-4.02,5.82-7.13,12.26-13.28,16.51c-7.21,4.98-12.04,12.16-15.56,20.02c-1.39,3.11-1.21,6.96-1.54,10.49
	c-0.37,3.9-0.44,7.83-0.76,11.74c-0.28,3.47-2.66,5.54-5.43,7.05c-5.33,2.9-10.83,5.34-16.87,6.58c-5.7,1.16-11.29,2.88-16.92,4.35
	c-2.83,0.74-5.2,0.19-7.64-1.67c-5.75-4.38-11.82-8.34-17.62-12.67c-3.22-2.41-6.11-5.25-9.2-7.84c-1.04-0.87-2.22-1.56-3.33-2.34
	C731.82,485.57,731.58,485.81,731.33,486.05z M281.65,426.96c-1.48,1.24-2.45,2.6-3.73,3.02c-3.54,1.18-6.52-1.59-6.12-5.43
	c0.35-3.41,0.11-3.78-2.64-5.39c-0.99-0.58-1.81-1.49-2.66-2.29c-5.03-4.79-9.29-10.21-16.56-12.49c-5.61-1.76-11.06-3.34-16.93-3.5
	c-5.49-0.14-10.87-0.69-15.94-3.19c-2.96-1.46-6.13-2.82-9.35-3.37c-7.63-1.31-14.9-0.49-19.67,6.66
	c-2.82,4.23-5.03,8.88-7.74,13.19c-2.12,3.37-1.86,6.71-0.66,10.21c0.19,0.56,0.5,1.14,0.47,1.7c-0.25,4.92,2.16,9.24,3.55,13.68
	c2.16,6.92,3.65,13.95,5.15,21c0.61,2.88,1.38,5.83,1.31,8.73c-0.13,4.92,1.31,9.34,3.08,13.77c2.51,6.28,6.78,11.41,10.79,16.72
	c1.3,1.72,3,2.5,5.26,2.38c2.59-0.14,5.24-0.18,7.79,0.22c5.72,0.9,9.75,4.57,13.48,8.7c1.5,1.66,3.12,3.28,4.91,4.62
	c3.32,2.48,6.86,4.67,10.2,7.12c3.72,2.74,5.46,2.63,9.09-0.47c1.98-1.69,4.21-3.08,6.35-4.58c2.97-2.09,5.96-4.15,9.37-6.52
	c-1.43-1.21-2.3-1.96-3.18-2.7c-3.06-2.57-2.34-6.69,1.02-8.69c2.93-1.75,4.81-5.02,8.26-6.19c0.25-0.08,0.33-0.61,0.52-0.91
	c2.39-3.83,5.66-3.8,7.88,0.15c0.81,1.44,1.32,3.04,2.01,4.54c2.44,5.28,4.97,10.51,7.32,15.82c1.66,3.75,2.3,8,5.53,10.97
	c0.3,0.27,0.31,0.86,0.44,1.3c0.76,2.6,1.23,5.34,2.32,7.79c3.26,7.35,6.74,14.6,10.19,21.86c1.12,2.35,2.52,4.56,3.59,6.93
	c1.5,3.35,2.61,6.89,4.25,10.16c1.8,3.6,3.61,7.32,6.14,10.39c4.01,4.86,8.12,9.58,11.02,15.26c2.05,4.01,4.51,7.81,6.71,11.75
	c2.13,3.84,3.75,8.03,6.3,11.54c6.9,9.51,14.22,18.72,21.29,28.1c2.92,3.88,5.72,7.85,8.43,11.88c4.24,6.33,8.58,12.58,14.16,17.82
	c2.61,2.45,5.49,4.44,9.17,5.22c1.75,0.37,3.32,1.68,4.92,2.64c0.8,0.48,1.42,1.26,2.23,1.71c6.02,3.33,12.02,6.69,18.11,9.9
	c6.3,3.32,12.6,6.66,19.05,9.67c8.98,4.18,18.47,6.84,28.18,8.74c1.75,0.34,3.6,0.32,5.26,0.89c9.88,3.38,19.72,6.88,29.57,10.35
	c0.44,0.15,0.89,0.41,1.2,0.75c2.62,2.82,6,4.57,9.1,6.74c5.35,3.75,11.18,5.55,17.48,6.64c2.86,0.49,5.81,1.46,8.29,2.94
	c5.19,3.1,10.08,6.69,15.11,10.06c2.07,1.38,4.13,2.79,6.29,4.01c5.06,2.85,9.37,0.53,13.62-2.12c3.1-1.93,6.23-3.8,9.33-5.73
	c1-0.62,2.09-1.18,2.89-2.01c3.3-3.4,6.7-6.73,9.69-10.39c4.58-5.61,8.79-11.52,13.28-17.2c2.88-3.65,6.01-7.11,10.74-8.44
	c5.1-1.44,9.62-3.93,13.99-6.92c2.29-1.57,3.86-3.45,5.08-5.79c0.38-0.73,0.6-1.57,1.06-2.25c5.07-7.61,9.61-15.51,13.25-23.92
	c1.31-3.03,2.74-6.13,4.72-8.74c5.16-6.82,8.36-14.63,11.4-22.44c2.46-6.31,5.3-12.41,8.15-18.53c1.1-2.36,2.11-4.77,3.12-7.17
	c1.42-3.39,2.68-6.86,4.24-10.18c1.74-3.7,3.25-7.36,3.01-11.59c-0.11-1.99,0.18-4.04,0.54-6.01c0.66-3.61,1.43-7.2,2.3-10.76
	c1.6-6.56,2.71-13.33,5.11-19.59c3.91-10.21,7.65-20.46,10.77-30.93c1.52-5.11,2.68-10.36,4.53-15.35c1.41-3.8,2.57-7.61,3.51-11.53
	c0.48-2.02,0.04-3.5-1.37-4.83c-2.95-2.77-5.89-5.54-8.9-8.24c-1.99-1.78-2.23-2.69-1.52-5.34c1.15-4.28,4.25-6.38,8.15-7.71
	c4.71-1.61,9.16,0.09,13.68,1.01c2.79,0.57,5.23,1.78,7.03,3.93c4.21,5.01,9.36,8.96,14.5,12.89c3.58,2.73,7.48,5.04,11.09,7.73
	c1.92,1.43,3.74,1.72,5.99,1.03c3.97-1.22,7.93-2.69,12.01-3.21c4.5-0.57,8.56-2.1,12.41-4.19c1.74-0.95,3.45-2.7,4.21-4.5
	c0.89-2.11,1.05-4.67,0.95-7.01c-0.25-6.6,2.8-12.45,3.93-18.73c0.14-0.76,0.74-1.49,1.27-2.12c4.04-4.83,8.08-9.66,12.21-14.42
	c1.39-1.61,2.97-3.06,4.56-4.48c1.52-1.35,1.5-4.33,4.44-4.18c0.14,0.01,0.35-0.32,0.44-0.53c1.37-3.12,2.74-6.24,4.09-9.37
	c1.36-3.15,2.68-6.31,4.05-9.46c1.5-3.45,3.73-6.69,2.47-10.82c-0.29-0.94,0.01-2.12,0.27-3.14c0.48-1.94,1.21-3.81,1.69-5.75
	c1-4.03,1.87-8.09,2.86-12.12c0.38-1.56,0.91-3.08,1.42-4.79c-1.11-0.27-1.79-0.61-2.44-0.56c-3.5,0.26-6.78-0.58-10.15-1.43
	c-6.22-1.57-11.39-4.63-15.74-9.27c-1.77-1.89-2.73-4.04-3.29-6.58c-1.1-4.98-2.51-9.88-3.79-14.82c-0.48-1.85-1.68-2.75-3.56-2.96
	c-3.66-0.41-7.1-0.25-9.92,2.64c-1.15,1.18-2.66,2-3.93,3.07c-2.82,2.36-6.15,4.38-8.29,7.26c-5.08,6.84-9.77,13.99-14.26,21.23
	c-3.08,4.97-5,10.43-4.17,16.5c0.4,2.91-1.23,4.54-4.14,4.37c-2.47-0.14-3.38-1.29-3.61-4.34c-0.45-5.8-0.7-11.63-1.52-17.38
	c-0.52-3.61-1.91-7.09-2.94-10.62c-1.44-4.9-2.99-9.78-4.35-14.7c-0.56-2.03-1.06-4.16-1.05-6.24c0.02-4.15,0.44-8.3,0.65-12.45
	c0.44-8.72-0.13-17.34-2.7-25.75c-1.07-3.51-1.73-7.16-3.03-10.58c-1.56-4.09-3.59-8-5.44-11.98c-3.3-7.1-6.59-14.21-9.96-21.28
	c-2.09-4.39-4.46-8.66-6.48-13.08c-4.24-9.29-8.1-18.77-12.57-27.96c-3.77-7.76-9.78-14.25-13.15-22.3
	c-2.34-5.58-4.86-11.08-7.28-16.62c-0.99-2.27-1.86-4.59-2.87-6.84c-1.89-4.23-4.19-8.31-5.69-12.67
	c-2.34-6.8-5.68-13.06-9.42-19.12c-3.29-5.34-6.76-10.61-10.52-15.64c-2.75-3.69-6-7.03-9.21-10.34c-1.64-1.69-3.65-3.03-5.56-4.44
	c-3.24-2.38-6.36-5-9.84-6.95c-6.74-3.77-13.8-6.96-20.55-10.72c-6.98-3.89-13.85-7.85-21.87-9.27c-1.96-0.35-4-1.02-5.66-2.08
	c-7.29-4.67-15.66-5.51-23.84-6.7c-4.59-0.67-9.26-0.82-13.58-2.64c-6.6-2.77-13.6-3.4-20.57-3.83c-8.66-0.54-17.35-0.52-26.03-0.79
	c-1.78-0.05-3.55-0.3-5.32-0.44c-7.22-0.57-14.43-1.38-21.66-1.61c-5.81-0.18-11.65,0.7-17.46,0.49c-14.38-0.52-28.35,2.8-42.52,4.2
	c-4.96,0.49-9.84,1.7-14.79,2.26c-7.49,0.84-14.67,2.73-21.79,5.15c-11.07,3.75-21.78,8.3-32.01,13.91
	c-10.77,5.9-20.75,12.75-29.09,22.05c-6.78,7.57-12.7,15.71-18.4,24.02c-4.35,6.35-8.15,13.11-11.86,19.86
	c-2.22,4.04-4.34,8.29-5.5,12.71c-1.29,4.89-3.76,9.53-3.72,14.76c0,0.11-0.07,0.23-0.1,0.34c-1.05,4.26-2.5,8.44-2.34,12.93
	c0.03,0.81-0.3,1.63-0.42,2.45c-0.79,5.37-1.56,10.75-2.33,16.13c-0.02,0.12,0.01,0.24,0,0.36c-0.26,3.43-0.47,6.86-0.81,10.28
	c-0.65,6.49-1.56,12.97-2,19.47c-0.33,4.92-2.06,9.71-0.9,14.81c1.18,5.19,1.39,10.61,2.73,15.75c1.11,4.25,2.06,8.44,2.69,12.81
	c1.08,7.57,1.11,15.07,0.39,22.61c-0.93,9.71-0.91,19.44-0.7,29.17c0.06,2.98,0.15,5.95,0.18,8.93c0.03,3.43,0,6.85,0.03,10.28
	c0.03,3.44-0.37,6.98,0.3,10.29c0.67,3.29,2.58,6.32,3.69,9.55c1.66,4.82,3.19,9.68,4.59,14.58c1.27,4.45,1.73,4.91,6.38,4.84
	c1.43-0.02,2.86,0.05,4.29-0.02c3.26-0.17,6.27,0.42,9.33,1.78c3.54,1.57,7.37,2.54,11.14,3.54c1.82,0.48,3.8,0.3,5.66,0.65
	c2.51,0.48,4.69,3.08,4.37,4.94c-0.31,1.81-2.83,2.89-5.61,2.66c-3.54-0.29-7.1-0.52-10.66-0.53c-2.73-0.01-5.34,0.55-7.77,2.11
	c-1.33,0.85-3.11,1.19-4.73,1.38c-4.72,0.56-6.1,2.29-4.63,6.91c0.75,2.37-0.46,3.6-1.77,4.95c-1.21,1.25-2.8,1.36-4.31,0.73
	c-1.83-0.76-2.04-2.46-2.03-4.21c0-0.95,0.1-1.94-0.11-2.85C282.61,429.41,282.07,428.17,281.65,426.96z M285.16,547.32
	c1.54-7.89,0.7-15.76,0.61-23.62c-0.01-0.82-0.6-1.63-0.91-2.41c-3.86,1.14-5.2,3.49-4.61,7.03c0.6,3.61,1.53,7.2,1.71,10.83
	C282.12,542.29,283.7,544.67,285.16,547.32z"/>
<path d="M463.24,448.67c2.36,0.91,2.86-0.58,3.4-1.68c1.04-2.11,2.11-4.29,4.87-3.88c2.84,0.42,3.02,2.93,3.33,5.21
	c0.34,2.5,0.7,5.01,1.21,7.48c0.45,2.18,1.15,4.31,1.68,6.48c0.89,3.62,1.71,7.25,2.63,10.86c0.25,0.97,0.7,1.9,1.17,2.79
	c1.34,2.53,3.66,4.62,3.23,7.94c-0.07,0.57,0.87,1.61,1.57,1.9c2.8,1.13,5.68,2.05,8.67,3.1c-1.03,3.93-4.11,3.39-7.05,3.41
	c-0.83,2.34-0.56,4.63,0.12,6.91c0.94,3.16,1.75,6.38,2.92,9.45c1.35,3.54,2.7,7.16,4.65,10.38c4.19,6.9,5.56,14.46,6.22,22.3
	c0.73,8.75,1.64,17.49,2.48,26.23c0.08,0.83,0.32,1.66,0.27,2.48c-0.21,3.52,0.76,6.71,1.95,10c1.35,3.73,2.56,7.55,2.55,11.71
	c-0.02,5.15,1.51,9.87,6.11,12.98c0.97,0.66,1.99,1.49,3.08,1.68c6.02,1.06,11.02,4.3,16.05,7.43c3.86,2.41,7.92,3.75,12.49,3.51
	c1.42-0.07,2.87-0.02,4.27,0.18c3.96,0.55,7.2-0.79,10.01-3.49c6.62-6.36,9.59-14.07,9.27-23.28c-0.22-6.15,0.58-12.36,0.16-18.48
	c-0.37-5.4,0.55-10.92-1.32-16.25c-0.73-2.08-0.79-4.44-0.94-6.69c-0.34-5.21-0.49-10.43-0.83-15.65c-0.19-2.96-0.7-5.89-0.85-8.85
	c-0.11-2.23,0.17-4.47,0.17-6.71c0.03-8.81-0.01-17.63,0.06-26.44c0.02-2.61,0.24-5.22,0.51-7.81c0.45-4.24-0.64-8.15-1.81-12.18
	c-0.99-3.45-1.02-7.2-1.24-10.83c-0.19-3.05-0.04-6.12-0.04-9.78c-0.93,0.76-1.77,1.17-2.18,1.84c-1.03,1.71-2.48,1.73-4.03,1.18
	c-1.54-0.54-2.15-1.89-2.04-3.42c0.09-1.16,0.39-2.34,0.76-3.45c1.48-4.4,4.27-8.64,1.19-13.53c-0.7-0.21-1.78-0.53-3.46-1.02
	c2.16-1.56,4.17-1.22,5.51-0.71c3.52,1.35,5.67-0.76,8-2.48c3.59-2.67,6.85-5.72,11.39-7.03c2.13-0.62,3.31-0.86,4.12,1.45
	c0.21,0.59,0.89,1.01,1.44,1.61c3.23-2.01,3.55-5.7,5.39-8.37c0.25-0.36-0.53-1.43-0.71-1.89c2.51-2.42,4.92-4.65,7.21-6.99
	c1.39-1.42,2.84-2.21,4.74-1.2c1.8,0.96,2.99,0.02,4.48-0.92c5.4-3.41,8.51-8.76,12.08-13.73c2-2.79,3.66-5.87,5.94-8.39
	c1.71-1.89,4.13-3.16,6.3-4.6c2.86-1.89,5.78-3.7,8.69-5.51c8.3-5.17,17.4-8.74,26.17-12.96c3.52-1.7,6.99-3.53,10.44-5.35
	c2.65-1.4,4.41-1.36,5.78,0.37c1.24,1.57,1.32,3.24,0.28,4.98c-3.21,5.41-6.63,10.71-9.53,16.28c-1.89,3.65-2.89,7.76-4.51,11.56
	c-1.48,3.47-3.28,6.8-4.94,10.19c-1.93,3.91-3.51,8.05-5.87,11.68c-4.45,6.87-8.03,14.55-15.54,18.94
	c-4.54,2.66-9.28,4.75-14.51,5.64c-5.56,0.95-10.16,3.89-14.46,7.35c-0.41,0.33-0.56,0.97-1,1.76c0.98,0.29,1.75,0.76,2.45,0.68
	c3.47-0.43,5.74,1.49,7.44,4c1.69,2.49,3.9,3.3,6.68,3.27c3.19-0.03,6.38,0.06,9.56-0.09c2.9-0.14,5.42,0.41,7.37,2.76
	c0.6,0.73,1.29,1.48,2.1,1.91c4.76,2.52,7.26,6.77,8.58,11.66c2.04,7.56,0.77,12.97-7.03,15.83c-1.78,0.65-3.55,1.49-5.4,1.8
	c-4.21,0.7-7.41,2.82-10.17,6c-0.8,0.92-2.45,1.49-3.73,1.52c-2.01,0.05-3.46-0.95-4.06-3.24c-0.79-3.04-1.52-3.35-4.57-3.25
	c-2.38,0.08-4.77-0.01-7.14,0.16c-2.35,0.18-4.72,0.44-7.02,0.94c-3.04,0.66-5.9,1.06-8.16-1.75c-0.28-0.35-0.74-0.66-1.18-0.78
	c-4.09-1.15-7.65-3.13-10.18-6.66c-2.43,1.68-1.89,4-2.14,6.02c-0.41,3.35-1.06,4.11-4.36,4.32c-1.64,0.11-3.29,0.02-5.5,0.02
	c0.21,3.22,0.43,6.08,0.57,8.95c0.03,0.66-0.23,1.33-0.33,2c-0.4,2.92-1.1,5.83-1.11,8.75c-0.02,4.74,0.37,9.49,0.67,14.23
	c0.46,7.34,0.36,14.78,1.67,21.97c1.16,6.38,0.62,12.8,1.7,19.08c0.69,4.03,0.92,7.94,0.55,12c-0.17,1.91,0.77,3.89,1,5.86
	c0.74,6.25-0.58,12.45-0.96,18.63c-0.34,5.63-2.36,11.25-7.6,15.05c-3.23,2.34-5.82,5.56-8.76,8.31c-2.14,2.01-4.62,2.45-7.55,1.82
	c-2.63-0.56-5.39-0.58-8.1-0.72c-2.11-0.11-4.27,0.21-6.34-0.09c-3.1-0.45-6.15-1.28-9.87-2.09c-3.22,2.89-7.19,1.67-10.6-1.11
	c-5.15-4.21-10.13-8.66-14.8-13.39c-1.9-1.93-2.91-4.82-4.07-7.38c-0.38-0.83-0.22-2.14,0.16-3.03c0.91-2.1,0.22-3.37-1.6-4.42
	c-2.6-1.51-2.7-2.02-1.87-4.77c0.36-1.18,0.51-2.47,0.5-3.71c-0.02-3.18-0.07-6.36-0.33-9.52c-0.29-3.53-0.67-7.06-1.28-10.54
	c-0.99-5.62-2.41-11.17-2.08-16.94c0.22-3.89-0.61-7.55-2.1-11.12c-1.32-3.16-2.2-6.52-3.73-9.55c-2.05-4.06-4.64-7.85-6.82-11.86
	c-1.36-2.5-2.13-5.34-3.62-7.74c-2.24-3.6-1.58-8.3-4.79-11.68c-2.82,1.43-5.5,3.09-7.1,6.02c-1.54,2.8-4.07,4.1-7.04,4.1
	c-3.55,0.01-7.2-0.02-10.62-0.83c-11-2.6-22.14-2.76-33.33-2.67c-3.33,0.03-6.66-0.26-9.99-0.25c-2.39,0.01-4.35-0.84-6.27-2.16
	c-4.21-2.9-8.5-5.68-12.77-8.5c-3.44-2.27-3.9-3.73-2.1-7.36c1.58-3.19,3.18-6.45,6.72-7.94c1.12-0.47,2.53-0.81,3.68-0.57
	c5.4,1.13,10.64-0.09,15.92-0.75c0.81-0.1,1.6-0.47,2.34-0.84c2.19-1.07,4.35-2.19,7.08-3.58c0.1-0.31,0.27-1.38,0.75-2.3
	c1-1.9,3.28-2.37,5.54-1.72c2.36,0.68,4.83,1,7.26,1.4c0.35,0.06,0.78-0.36,1.85-0.9c-1.78-0.98-3.07-1.67-4.33-2.41
	c-5.94-3.47-12.17-6.55-17.72-10.57c-4.88-3.53-9.01-8.1-13.47-12.22c-0.26-0.24-0.66-0.51-0.68-0.8c-0.37-3.59-3.25-3.89-5.87-4.66
	c-4.33-1.27-8.6-2.71-12.92-4c-2.82-0.84-3.24-0.65-3.99,2.28c-1.11,4.36-3.71,7.33-7.77,9.14c-3.68,1.63-6.42,0.97-9.3-1.81
	c-4.17-4.03-6.61-8.81-6.17-14.59c0.23-3.02,1.21-6.06,2.32-8.9c1.07-2.74,3.65-3.49,6.81-3.08c-2.28-4.85-5-8.77-9.36-11.34
	c-1.23-0.73-2.57-1.3-3.68-2.18c-3.63-2.9-7.48-2.25-11.51-1.09c-5.69,1.64-11.5,2.88-17.14,4.68c-4.09,1.3-8.19,1.38-12.35,1.19
	c-1.52-0.07-3.12-0.32-4.51-0.91c-2.67-1.13-2.91-4.32-0.49-5.94c3.35-2.25,6.74-4.46,10.21-6.53c1.62-0.97,3.41-1.73,5.2-2.32
	c5.08-1.67,10.21-3.18,15.31-4.79c5.49-1.73,11.04-2.55,16.83-2c3.76,0.36,7.59,0.35,11.37,0.21c9.52-0.35,18.37,1.87,26.57,6.66
	c0.91,0.53,1.62,1.37,2.47,2.01c4.93,3.66,10.84,5.33,16.31,7.88c0.68,0.32,1.97-0.21,2.77-0.69c2.84-1.68,5.59-1.3,6.98,1.45
	c2.29,4.52,5.85,7.55,10.59,8.89c7.79,2.2,14.31,6.61,19.94,12.05c5.09,4.92,9.31,10.74,13.86,16.22c1.43,1.72,1.82,3.81,1.57,6.04
	C463.15,446.54,463.24,447.6,463.24,448.67z M330.44,395.02c0.11,0.42,0.21,0.84,0.32,1.27c1.07-0.18,2.15-0.3,3.21-0.54
	c3.7-0.83,7.4-1.7,11.09-2.56c2.24-0.52,4.24,0.1,6.07,1.37c0.98,0.67,1.94,1.36,2.89,2.06c4.43,3.25,8.5,6.79,11.31,11.67
	c2.55,4.42,5.27,8.75,8.18,12.94c1.02,1.47,2.62,2.95,4.26,3.5c3.58,1.18,7.23,2.13,10.64,3.81c0.94,0.46,2.06,0.65,3.11,0.72
	c0.93,0.06,1.88-0.21,3.21-0.39c-1.85-3.11-3.42-5.61-4.86-8.18c-0.94-1.68-1.77-3.47-0.18-5.27c1.42-1.61,3.4-1.9,5.86-0.91
	c0.68,0.27,1.39,0.47,2.67,0.88c-0.79-1.39-1.18-2.25-1.73-3c-1.36-1.9-2.5-3.71-0.95-6.15c0.81-1.28-0.28-2.17-1.34-2.86
	c-1.79-1.16-3.52-2.4-5.34-3.5c-3.74-2.27-7.4-4.72-11.33-6.62c-4.65-2.26-9.84-2.77-14.93-2.95c-7.57-0.26-15.15-0.22-22.64,1.33
	C336.6,392.33,333.53,393.67,330.44,395.02z M619.11,428.38c3.69,0.47,6.55,0.38,9.17-1.41c0.66-0.45,1.46-0.95,2.21-0.98
	c3.67-0.14,6.39-2.08,8.97-4.39c4.97-4.44,7.73-10.42,10.98-16.02c1.69-2.91,2.27-6.42,5.29-8.57c0.77-0.55,1.04-1.83,1.51-2.78
	c0.73-1.47,1.5-2.92,2.15-4.42c1.18-2.72,3.09-5.23,2.63-9.23c-1.66,1.1-2.96,1.81-4.07,2.73c-1.54,1.27-2.88,2.78-4.4,4.06
	c-2.17,1.84-4.49,3.46-4.84,6.69c-0.1,0.95-0.94,1.91-1.65,2.68c-6.79,7.39-13.69,14.69-20.42,22.14
	C624.04,421.75,621.82,424.94,619.11,428.38z M617.71,480.66c0.12-0.27,0.25-0.53,0.37-0.79c-4.73-4.7-6.89-10.39-7.05-16.93
	c-0.05-1.9-1.39-2.7-3.67-1.72c-4.54,1.95-9.03,4.11-13.3,6.58c-2.69,1.56-3.11,4.42-0.87,6.58c3.19,3.09,6.89,5.65,11.21,7.1
	c0.22,0.07,0.47,0.09,0.7,0.08C609.3,481.26,613.5,480.96,617.71,480.66z M424.49,496.59c0.14-0.33,0.28-0.66,0.42-0.99
	c-2.65-3.93-5.28-7.86-7.95-11.78c-1.03-1.52-2.29-2.05-4.26-1.57c-5.31,1.27-10.6,2.73-16.17,2.4c-2.28-0.14-3.33,1.43-3.88,3.79
	c0.88,0.57,1.73,1.14,2.61,1.68c2,1.23,4,2.45,6.02,3.64c0.71,0.42,1.47,0.78,2.23,1.12C410.35,497.99,417.5,495.95,424.49,496.59z
	 M463.51,490.22c-3.28-1.61-6.02-2.94-8.75-4.28c-1.48-0.72-3.34-1.09-4.36-2.22c-3.53-3.9-7.55-1.74-12.22-1.81
	c0.8,2,1.42,3.33,1.87,4.72c0.65,1.99,1.33,3.99,1.73,6.04c0.26,1.36,0.05,2.81,0.05,4.54c4.3,1.04,8.71,1.8,13.19,1.31
	c1.39-0.15,2.89-1.2,3.91-2.25C460.47,494.69,461.64,492.74,463.51,490.22z M627.56,462.63c1.61,5.26,2.03,10.53,1.63,15.89
	c-0.06,0.82,0.8,2.17,1.55,2.47c0.71,0.28,2.24-0.21,2.72-0.86c2.74-3.73,5.39-7.55,7.84-11.48c1.24-2,0.49-3.54-1.76-4.55
	c-1.3-0.58-2.72-0.95-3.92-1.68C633.01,460.84,630.5,460.75,627.56,462.63z M649.2,383.45c-2.84-0.66-4.56-0.41-6.3,0.54
	c-2.6,1.42-5.24,2.76-7.91,4.05c-6.75,3.28-11.59,8.5-15.19,14.95c-0.45,0.81-0.51,1.85-0.88,3.29c1.22-0.4,1.87-0.45,2.3-0.79
	c3.27-2.53,6.46-5.15,9.73-7.67c4.13-3.18,8.35-6.25,12.48-9.44C645.23,386.99,646.9,385.42,649.2,383.45z M428.57,434.28
	c-0.16-0.46-0.19-0.83-0.39-1.07c-3.53-4.17-7.11-8.29-10.61-12.48c-1.83-2.19-3.35-4.67-5.35-6.67c-2.27-2.27-4.73-4.69-9.29-3.33
	c1.18,1.61,1.94,2.89,2.93,3.95c2.76,2.95,5.57,5.86,8.46,8.68c3.41,3.31,6.91,6.55,10.45,9.72
	C425.75,433.94,426.83,435.09,428.57,434.28z M361.1,425.12c-1.8,4.34-0.82,7.77,1.35,11.08c0.94,1.43,2.02,3.17,3.78,2.65
	c1.38-0.41,2.69-1.85,3.51-3.16c1.43-2.28,0.6-6.35-1.33-7.33C366.21,427.23,363.89,426.34,361.1,425.12z M422.8,441.56
	c0.16-0.26,0.32-0.53,0.47-0.79c-2.14-1.43-4.25-2.93-6.45-4.27c-2.11-1.29-4.42-2.27-6.44-3.66c-4.77-3.29-4.72-3.35-6.61-2.96
	C408.74,436.24,416.45,437.77,422.8,441.56z M589.84,434.4c-2.13,3.56-6.69,6.18-4.67,12.19
	C587.15,442.14,590.17,438.96,589.84,434.4z M430.88,450.52c2.56,3.52,6.11,4.61,10.18,4.52
	C437.38,454.09,435.74,448.75,430.88,450.52z M439.8,424.39c-0.3,0.08-0.6,0.16-0.9,0.24c0.29,0.79,0.36,1.8,0.9,2.32
	c2.64,2.55,4.75,5.78,8.69,6.79C445.96,430.27,442.88,427.33,439.8,424.39z M431.18,488.32c-0.45-1.25-0.66-2.08-1.04-2.81
	c-0.49-0.92-1-1.89-1.75-2.59c-0.48-0.44-1.39-0.42-2.75-0.78C427.21,484.95,427.65,487.52,431.18,488.32z"/>
<path d="M572.3,680.31c2.38,0.71,4.51,1.37,6.66,1.98c2.15,0.61,4.36,1.03,6.45,1.78c1.47,0.53,2.81,1.52,2.59,3.4
	c-0.17,1.49-1.82,2.4-3.99,2.07c-4.1-0.62-8.16-1.6-12.28-2.06c-10.13-1.13-20.23-2.82-30.49-2.15c-1.54,0.1-3.1,0.07-4.64-0.07
	c-2.28-0.2-4.56-2.44-4.52-4.31c0.04-1.91,2.25-4.09,4.46-4.29c4.83-0.42,9.73-0.45,14.5-1.27c5.72-0.99,11.33-2.61,16.97-4.01
	c2.32-0.58,4.55-0.78,6.2,1.31c1.18,1.49,0.56,3.92-1.4,6.41C572.67,679.26,572.63,679.51,572.3,680.31z"/>
</svg>
