<?xml version="1.0" encoding="utf-8"?>
<!-- Generator: Adobe Illustrator 24.1.0, SVG Export Plug-In . SVG Version: 6.00 Build 0)  -->
<svg version="1.1" id="Layer_1" xmlns="http://www.w3.org/2000/svg" xmlns:xlink="http://www.w3.org/1999/xlink" x="0px" y="0px"
	 viewBox="0 0 1224 792" style="enable-background:new 0 0 1224 792;" xml:space="preserve">
<path d="M757.03,290.08c2.66,0.85,5.11,1.47,5.35,4.65c0.05,0.7,0.39,1.47,0.84,2.02c3.32,4.06,2.85,8.78,2.62,13.53
	c-0.17,3.43-0.32,6.91,1.33,10.13c0.19,0.37,0.22,0.95,0.51,1.12c3.92,2.34,3.21,6.28,3.21,9.8c0,3.37,0.83,4.65,3.81,5.95
	c3.05,1.33,5.76,0.63,8.35-0.71c7.63-3.93,15.29-2.71,23.03-0.54c1.71,0.48,3.51,0.68,5.17,1.28c2.76,0.98,5.54,1.99,8.12,3.36
	c1.73,0.92,2.52,2.52,1.86,4.81c-1.36,4.76-2.17,9.62-2.18,14.62c-0.01,2.39-0.77,4.76-1.01,7.16c-0.52,5.32-1,10.65-1.35,15.99
	c-0.2,3.03,0.06,6.09-0.19,9.11c-0.19,2.26-0.76,4.5-1.34,6.7c-1.03,3.95-2.18,7.87-3.31,11.78c-1.21,4.18-2.49,8.34-3.69,12.52
	c-0.16,0.55-0.19,1.32,0.08,1.78c1.05,1.8,0.26,2.74-1.35,3.43c-0.28,0.12-0.62,0.28-0.77,0.53c-1.55,2.49-3.52,4.26-6.36,5.45
	c-2.65,1.11-4.93,3.17-7.29,4.92c-0.68,0.5-1.13,1.35-1.63,2.07c-0.16,0.23-0.02,0.78-0.19,0.87c-3.81,2.03-3.47,6.13-4.73,9.43
	c-0.53,1.37-1.04,2.76-1.43,4.18c-0.91,3.32-2.07,6.63-2.52,10.02c-0.57,4.25-0.72,8.59-0.66,12.89c0.02,1.78,0.69,3.81,1.72,5.27
	c1.36,1.93,3.8,1.31,5.87,1.27c1.68-0.03,3.35-0.22,5.02-0.16c4.14,0.14,6.67,4.82,3.71,8.24c-2.95,3.41-5.94,6.79-9.11,10
	c-3.22,3.27-7.18,5.93-9.85,9.57c-2.13,2.91-4.57,3.52-7.63,3.94c-1.71,0.24-3.35,1-5.35,1.63c1.95,1.77,3.57,3.4,6.07,3.9
	c2.06,0.41,4.08,1.04,6.09,1.65c2.59,0.78,3.66,2.16,3.17,3.91c-0.56,1.99-2.7,3.33-4.97,2.88c-4.3-0.85-8.73-1.22-12.73-3.23
	c-1.52-0.76-2.92-0.78-4.54-0.29c-5.13,1.54-9.58-0.22-13.42-3.49c-1.54-1.31-2.42-3.38-3.68-5.05c-0.49-0.65-1.19-1.15-2.2-2.1
	c-0.49,0.95-1.13,1.64-1.19,2.38c-0.51,5.54-0.67,11.13-1.42,16.63c-0.57,4.13-1.77,8.19-2.88,12.22c-1.28,4.66-3.28,9.17-4.06,13.9
	c-1.13,6.85-4.85,12.72-6.48,19.34c-1.22,4.97-2.46,9.96-4.19,14.76c-1.34,3.71-1.82,7.8-4.44,11.03c-0.57,0.7-0.65,1.77-1.09,2.59
	c-0.85,1.61-1.44,3.16-3.43,4.2c-1.99,1.04-3.28,3.43-4.87,5.23c-0.63,0.71-1.16,1.52-1.86,2.14c-3.82,3.42-6.39,7.74-8.71,12.22
	c-2.65,5.12-5.37,10.21-7.77,15.44c-1.69,3.69-2.67,7.72-4.4,11.38c-1.78,3.77-3.85,7.41-6.88,10.45c-2.51,2.52-4.54,5.5-6.99,8.09
	c-1.5,1.59-3.25,3.05-5.12,4.17c-6.5,3.88-11.82,9.25-17.79,13.8c-0.49,0.37-0.84,0.93-1.24,1.42c-2.26,2.79-4.88,5.06-7.99,7.01
	c-4.68,2.93-9.26,6.21-13.29,9.97c-3.42,3.19-7.33,4.62-11.58,5.84c-6.47,1.86-12.95,3.55-19.67,4.29
	c-2.79,0.31-5.61,0.67-7.62,3.23c-0.49,0.63-2.13,0.43-3.24,0.47c-1.76,0.06-3.53-0.06-5.29,0c-1.73,0.06-3.36,0.48-4.38-1.77
	c-0.45-1-2.16-1.86-3.38-1.98c-3.02-0.3-6.07-2.06-9.36,0.28c-0.78-3.64-3.09-4.62-6.28-4.71c-1.41-0.04-2.37-0.07-3.2,1.21
	c-0.3,0.46-1.18,0.53-2.26,0.97c0.15-1.39,0.24-2.26,0.35-3.21c-0.24-0.05-0.52-0.16-0.8-0.15c-2.19,0.09-4.35,0.03-6.18,1.76
	c-1.03,0.98-3.46,0.18-4.59-1.43c-2.27-3.22-4.45-6.52-6.55-9.86c-0.77-1.23-1.79-1.59-3.11-1.79c-1.42-0.22-2.8-0.7-4.19-1.08
	c-1.43-0.39-2.15-1.28-1.69-3.22c-1.86,0.94-3.36,0.99-4.63-0.95c-0.94,1.71-1.67,3.04-2.46,4.48c-1.2-0.2-2.31-0.39-3.79-0.64
	c-0.16,1.57-0.32,3.08-0.48,4.65c-2.42,1.66-3.43-0.86-5.71-2.44c-0.51,0.88-1.02,1.75-1.56,2.68c-0.96-0.35-1.41-0.77-0.67-1.78
	c0.51-0.69,1.05-1.46,1.23-2.27c0.23-1.05-0.26-2.42,0.25-3.2c0.42-0.65,1.84-0.65,2.97-0.98c-2.44-3.55-5.4-6.24-9.62-7.52
	c-1.17-0.36-2.17-1.54-3.04-2.53c-0.59-0.66-0.84-1.64-1.31-2.63c-2.28,0.65-4.44,1.27-6.88,1.96c-1.39-1.97-2.84-4-4.26-6.05
	c-1.97-2.84-2.82-6.37-6.04-8.47c-1.32-0.86-1.74-3.01-2.83-4.36c-1.17-1.45-2.68-2.62-3.99-3.96c-2.11-2.16-4.16-4.4-6.29-6.55
	c-1.9-1.92-3.91-3.73-5.82-5.64c-1.11-1.11-1.96-2.52-3.19-3.45c-2.73-2.09-5.64-3.96-8.45-5.94c-0.58-0.41-1.13-0.89-1.6-1.42
	c-4.34-4.85-8.67-9.71-12.97-14.59c-3.31-3.77-7-7.2-9.38-11.76c-1.34-2.57-3.48-4.72-4.94-7.25c-1.66-2.85-3.57-5.54-4.9-8.64
	c-1.09-2.55-3.03-4.77-4.78-6.99c-2.59-3.29-5.38-6.43-8-9.69c-2.7-3.37-4.51-7.23-6.15-11.21c-0.83-2.02-2.02-3.91-3.14-5.8
	c-3.21-5.42-5.7-11.14-7.93-17.05c-1.62-4.29-4.09-8.26-6.29-12.32c-2.59-4.79-5.44-9.44-7.9-14.29c-1.21-2.39-1.74-5.13-2.69-7.67
	c-1.13-3.04-2-6.24-4.65-8.47c-0.36-0.3-0.67-0.9-0.66-1.35c0.1-3.17-1.89-5.41-3.31-7.92c-0.76-1.34-1.35-2.78-2-4.19
	c-0.09-0.19-0.03-0.47-0.16-0.6c-2.73-2.98-2.04-7.17-3.71-10.5c-0.76-1.52-1.92-2.84-3.08-4.51c-1.18,1.88-2.14,3.26-2.94,4.71
	c-1.4,2.54-3.59,3.73-6.4,3.88c-1.37,0.08-2.74,0.02-4.11,0.11c-2.68,0.19-4.23-0.76-4.68-3.36c-0.88-5.11-2.83-9.82-4.75-14.6
	c-1.83-4.55-2.97-9.37-4.42-14.08c-1.04-3.4-2.28-6.75-3.08-10.2c-1.02-4.38-1.64-8.86-2.53-13.28c-1.31-6.48-2.7-12.95-4.08-19.42
	c-0.87-4.1-1.66-8.21-2.71-12.26c-1.07-4.13-2.45-8.19-3.63-12.3c-0.23-0.79-0.12-1.68-0.25-2.5c-0.28-1.73-0.79-3.44-0.87-5.18
	c-0.09-1.74,0.31-3.5,0.34-5.25c0.03-1.96-0.11-3.92-0.18-6.12c-1.31,0-2.23-0.02-3.14,0c-2.2,0.06-4.41,0.26-6.61,0.17
	c-3.46-0.15-5.54-3.23-4.22-6.41c1.12-2.7,2.55-5.29,4.02-7.83c1.21-2.08,2.37-4.36,4.13-5.9c3.46-3.02,2.85-6.78,2.53-10.48
	c-0.28-3.23-0.9-6.43-1.53-9.61c-0.47-2.35-1.3-4.63-1.76-6.98c-0.43-2.15-0.85-4.37-0.8-6.55c0.08-3.33,0.56-6.66,0.9-10.24
	c2.9,0.86,4.31-1.6,6.29-2.95c1.11-0.76,2.22-1.52,3.36-2.25c2.6-1.67,5.29-3.22,7.8-5.02c2.38-1.72,2.67-4.66,3.61-7.18
	c2.22-5.98,4.31-12,6.43-18.01c0.59-1.68,1.05-3.41,1.66-5.09c2.06-5.64,4.61-11.03,7.91-16.09c1.54-2.36,2.64-5.01,3.82-7.59
	c2.31-5.05,4.21-10.32,6.9-15.16c1.85-3.33,3.33-6.92,6.17-9.75c4.08-4.08,7.64-8.67,11.63-12.84c2.75-2.89,5.75-5.57,8.82-8.13
	c3.43-2.85,6.39-6.04,8.57-9.94c0.41-0.73,0.74-1.61,1.37-2.09c3.96-3.03,6.38-7.11,8.4-11.57c3.08-6.81,8.88-11.42,14.08-16.42
	c3.72-3.58,7.11-7.4,10.37-11.38c4.18-5.11,8.51-10.07,13.86-14.12c6.78-5.13,13.19-10.74,19.9-15.96c4.39-3.4,9.04-6.46,13.57-9.68
	c0.52-0.37,1.1-0.67,1.53-1.12c4.92-5.13,11.26-7.9,17.62-10.66c4.72-2.05,9.49-4.06,14-6.5c1.72-0.93,2.88-2.98,4.19-4.61
	c6.02-7.45,12.22-14.72,19.76-20.72c4.89-3.9,10.53-5.86,16.71-6.67c4.77-0.63,9.47-1.79,14.23-2.59c4.02-0.68,8.07-1.22,12.11-1.76
	c4.58-0.61,9.16-1.44,13.77-1.64c3.53-0.16,7.14,0.28,10.65,0.86c8.65,1.42,16.98,4.04,25.14,7.2c1.75,0.68,3.39,1.68,5.05,2.59
	c7.01,3.88,13.79,8.09,18.93,14.42c3.5,4.31,6.92,8.67,10.37,13.01c0.39,0.49,0.72,1.04,1.15,1.5c7.28,7.74,14.62,15.41,21.81,23.22
	c1.76,1.91,3.12,4.21,4.55,6.4c3.5,5.38,7,10.76,10.37,16.21c2.09,3.38,3.99,6.88,5.92,10.35c0.34,0.62,0.38,1.4,0.61,2.1
	c0.26,0.79,0.38,1.75,0.91,2.32c2.78,3.06,4.38,6.68,5.9,10.49c1.37,3.42,3.61,6.49,5.48,9.71c3.78,6.5,7.41,13.09,11.4,19.46
	c2.13,3.4,3.72,7.01,5.45,10.59c0.88,1.83,2.12,3.22,3.75,4.53c1.53,1.22,2.43,3.25,3.54,4.98c0.32,0.49,0.26,1.23,0.6,1.69
	c6.56,8.8,11.66,18.41,15.45,28.68c1,2.7,1.61,5.69,1.68,8.56c0.09,3.92,1.95,7.25,2.83,10.89c0.12,0.5,1.08,0.82,1.67,1.19
	c0.93,0.6,1.84,1.29,1.2,2.53c-1,1.93-0.1,3.49,0.86,5c0.73,1.14,1.55,2.27,2.52,3.21c1.95,1.88,3.17,4.09,3.88,6.7
	c0.24,0.89,1.11,1.68,1.83,2.37c1.76,1.69,1.93,2.64,1.05,4.99C757.3,287.87,757.24,289.02,757.03,290.08z M659.64,358.96
	c0.24,0.16,0.47,0.33,0.71,0.49c0.83-0.71,1.71-1.37,2.48-2.13c2.67-2.65,5.21-5.43,7.97-7.99c2.46-2.28,5.37-4.11,7.65-6.55
	c3.04-3.26,6.4-5.97,10.25-8.17c4.78-2.74,9.08-6.31,14.52-7.87c1.6-0.46,3.19-1.15,4.62-2.01c4.39-2.63,9.19-2.9,14.06-2.57
	c5.76,0.38,11.46,1.66,17.28,1.01c0.49-0.05,1.05,0.1,1.5,0.32c3,1.46,4.83-1.26,7.19-2.04c0.28-0.09,0.44-0.93,0.43-1.42
	c-0.03-1.15,0.03-2.37-0.34-3.43c-2.07-6.07-4.14-12.15-6.42-18.14c-1.59-4.17-2.53-8.72-6.48-11.7c-0.91-0.69-1.44-2.44-1.43-3.69
	c0.02-5.86-1.04-11.58-2.81-17.05c-3.17-9.79-6.91-19.39-10.35-29.09c-0.59-1.65-0.9-3.4-1.31-5.11c-0.93-3.86-0.99-7.96-3.19-11.48
	c-0.27-0.43-0.35-0.98-0.46-1.49c-0.89-4.21-1.74-8.42-2.67-12.62c-0.2-0.91-0.57-1.82-1.04-2.62c-2.22-3.79-4.59-7.49-6.73-11.32
	c-5.74-10.25-11.65-20.38-18.5-29.96c-3.34-4.67-7.07-8.89-11.26-12.72c-5.81-5.31-11.74-10.5-17.59-15.76
	c-1.63-1.47-3.24-2.98-4.76-4.56c-4.22-4.41-8.49-8.74-11.21-14.37c-1.19-2.47-2.91-4.78-4.76-6.82c-4.61-5.11-9.76-9.6-16.14-12.46
	c-1.81-0.81-3.67-1.53-5.46-2.41c-2.73-1.34-5.35-2.9-8.12-4.15c-2.19-0.99-4.52-1.65-6.79-2.44c-3.27-1.14-6.5-2.4-9.82-3.37
	c-6.04-1.76-12.21-3.1-18.16-5.1c-4.97-1.67-10.06-2.21-15.16-2.61c-5.03-0.39-10.12-0.24-15.16-0.02
	c-4.19,0.18-8.4,0.59-12.53,1.31c-3.09,0.54-6.37,1.19-9.03,2.74c-6.24,3.63-12.45,7.21-19.3,9.57c-0.58,0.2-1.1,0.63-1.59,1.02
	c-3.22,2.56-5.83,5.68-8.24,9c-4.88,6.72-8.94,13.92-13.23,21c-3.61,5.95-5.74,12.5-9.06,18.54c-2.16,3.95-3,8.62-5.97,12.24
	c-0.13,0.16-0.23,0.36-0.32,0.54c-2.06,4-4.12,8-6.17,12c-0.48,0.93-0.88,1.92-1.42,2.81c-3.88,6.34-7.61,12.75-9.37,20.09
	c-0.09,0.39-0.42,0.72-0.6,1.09c-1.36,2.71-2.91,5.35-4.03,8.15c-2.31,5.82-4.54,11.68-6.52,17.62c-1.35,4.04-3.59,7.83-3.39,12.36
	c0.07,1.58-0.75,3.24-1.34,4.8c-1.12,2.94-2.41,5.82-3.54,8.76c-0.67,1.74-0.81,3.77-1.76,5.31c-3.04,4.92-4.18,10.72-7.43,15.51
	c-0.17,0.24-0.15,0.61-0.24,0.91c-0.99,3.32-1.93,6.66-2.98,9.96c-2.54,8-6.86,15.31-9.12,23.42c-0.06,0.2-0.22,0.36-0.28,0.56
	c-0.91,3.11-2.32,6.17-2.59,9.34c-0.39,4.53-1.61,8.84-2.39,13.26c-0.58,3.3-1.48,6.62-1.53,9.94c-0.15,9.36-0.06,18.72-0.86,28.07
	c-0.13,1.5,1.22,3.14,1.89,4.71c3.01,0.02,6.04,0.27,9.02-0.03c1.38-0.14,1.48-1.75,0.25-2.58c-1.31-0.89-2.65-1.66-4.41-1
	c-0.72,0.27-1.83,0.36-2.41-0.02c-0.89-0.58-1.94-1.57-2.07-2.5c-0.19-1.42,0.37-2.92,1.93-3.66c1.23-0.58,2.72-0.91,3.62-1.82
	c5.16-5.23,12.08-6.9,18.69-8.51c4.67-1.14,9.85-0.35,14.8-0.17c5.45,0.2,10.89,0.86,16.34,1.03c11.26,0.37,22.49-0.15,33.71-1.14
	c2.41-0.21,4.81-0.62,7.22-0.64c9.87-0.11,19.63-0.2,29.34,2.83c8.09,2.53,7.1,4.03,7.84,9.74c0.35,2.69,0.73,5.5,1.79,7.95
	c1.07,2.5,2.67,4.78,3.15,7.54c0.03,0.18,0.25,0.33,0.38,0.49c2.46,2.96,3.03,6.65,3.51,10.24c0.39,2.96,0.49,3.9,3.19,4.66
	c1.95,0.55,2.83,1.77,3.13,3.52c0.25,1.44,0.33,2.93,0.28,4.39c-0.08,2.37,0.27,4.65,1.41,6.71c2.17,3.92,4.35,7.85,6.77,11.62
	c0.92,1.43,1.08,2.68,0.56,4.13c-0.24,0.66-0.66,1.25-0.94,1.75c1.43,1.68,2.58,3.33,4.02,4.67c2.51,2.32,4.07,5.67,7.59,6.94
	c0.69,0.25,1.26,1.1,1.66,1.8c3.99,7.16,8.56,13.92,13.78,20.25c0.78,0.95,1.37,2.11,1.81,3.27c0.77,2.04,1.36,4.16,2.13,6.58
	c0,0-0.24,0.34-0.41,0.71c-1.56,3.22-3.93,3.88-6.26,1.34c-2.14-2.33-4.74-3.66-7.38-4.71c0.37,3.44,0.93,6.92,1.07,10.42
	c0.11,2.71-0.36,5.44-0.47,8.17c-0.2,5.04-0.28,10.09-0.49,15.13c-0.15,3.55-0.69,7.11-0.64,10.65c0.08,6.3,0.45,12.59,0.76,18.88
	c0.13,2.62,0.06,5.33,0.73,7.83c1.55,5.71,2.66,11.46,2.85,17.37c0.05,1.62,0.7,2.68,2.23,3.47c1.94,1.01,3.75,2.29,5.51,3.6
	c1.51,1.12,2.82,2.51,4.31,3.67c5.83,4.54,12.18,8.23,18.89,11.31c2,0.92,4.02,1.97,6.15,2.4c1.95,0.39,3.62,0.88,4.9,2.45
	c0.59,0.72,1.27,1.53,2.09,1.87c0.97,0.41,2.55,0.9,3.13,0.44c3.41-2.73,7.82-4.78,7.78-10.23c-0.01-0.84,0.62-1.8,1.18-2.52
	c1.87-2.39,3.83-4.72,5.79-7.05c4.05-4.81,8.09-9.64,12.2-14.39c4.11-4.75,6.27-9.86,3.85-16.18c-0.63-1.63-0.95-3.44-1.09-5.19
	c-0.26-3.36-1.19-6.33-3.63-8.79c-2-2.02-4.11-4.01-5.66-6.35c-1.6-2.4-3.11-5.09-3.72-7.87c-1.12-5.08-0.22-10.52-2.53-15.45
	c-0.21-0.44-0.09-1.04-0.12-1.56c-0.58-12.06,0.69-24.12-0.92-36.23c-1.09-8.17-0.27-16.6-0.33-24.91c-0.01-1.41-0.14-2.82-0.23-4.5
	c-1.85,0.74-1.95,2-2.31,3.18c-0.58,1.93-3.84,3.49-5.66,2.82c-1.61-0.59-2.29-2.6-1.6-4.88c0.24-0.8,0.57-1.59,0.98-2.32
	c1.75-3.09,3.68-6.1,5.29-9.26c1.33-2.61,2.99-5.33,3.27-8.12c0.49-4.89,0.48-9.94-0.14-14.82c-1.08-8.54,0.68-16.74,2.08-25
	c0.87-5.16,2.09-10.27,3.3-15.37c1.06-4.46,4.21-7.35,7.97-9.58c0.73-0.43,1.95-0.48,2.77-0.2c2.45,0.83,5.15,1.24,7.03,3.3
	c0.42,0.46,0.97,0.88,1.16,1.43c0.8,2.25,1.48,4.47,1.49,6.99c0.02,5.6-0.65,11.04-2.47,16.34
	C659.71,357.3,659.74,358.15,659.64,358.96z M507.55,599.26c-0.35-1.13-0.35-2.46-1.01-3.05c-1.44-1.29-3.24-1.73-5.18-0.73
	c-2.24,1.16-4.27,0.45-6.18-0.91c-1.78-1.26-3.66-2.4-5.33-3.79c-1.92-1.59-4.62-1.98-6.11-4.18c-2.18-3.21-5.12-5.32-8.95-6.21
	c-1.77-0.41-3.47-0.93-3.48-3.37c-0.01-1.99-1.47-2.53-3.22-2.73c-1.53-0.17-3.02-0.68-4.56-0.86c-0.73-0.08-1.82,0.02-2.19,0.48
	c-0.48,0.6-0.74,1.77-0.49,2.48c0.37,1.03,1.17,1.99,1.98,2.77c2.34,2.26,5.65,3.89,4.9,8.03c1.91,4.28,3.59,8.71,7.1,12.02
	c2.28,2.15,4.74,4.11,7.01,6.27c4.87,4.63,9.88,9.15,14.43,14.08c4.45,4.81,8.22,10.25,13.53,14.24c0.24,0.18,0.38,0.49,0.58,0.73
	c2.08,2.57,4.07,5.23,6.27,7.69c1.15,1.28,2.53,2.49,4.05,3.28c3.68,1.93,7.52,3.54,11.25,5.38c2.16,1.07,4.33,2.17,6.32,3.52
	c5.34,3.62,10.51,7.49,15.9,11.03c2.78,1.82,5.75,3.29,9.22,3.82c4.32,0.67,8.78,1.46,12.73,3.22c4.57,2.03,9.26,1.68,13.9,2.15
	c2.89,0.29,5.87-0.19,8.8-0.48c2.91-0.28,5.85-0.57,8.7-1.19c4.09-0.88,8.11-2.08,12.16-3.11c3.45-0.87,6.95-1.54,10.34-2.59
	c4.11-1.27,8.07-3.01,12.18-4.28c6.37-1.97,12.21-5.05,18-8.24c7.09-3.91,13.48-8.82,19.48-14.23c1.24-1.11,2.29-2.43,3.47-3.61
	c1.76-1.78,3.82-3.33,5.28-5.33c2.99-4.08,4.72-8.84,6.4-13.58c0.1-0.29,0.16-0.61,0.19-0.93c0.45-6.57,3.24-12.55,5.02-18.76
	c1.26-4.39,3.32-8.6,5.41-12.69c2.59-5.07,2.6-10.74,4.16-16.05c1.37-4.65,2.75-9.25,5.19-13.42c2.05-3.51,4.07-6.81,4.89-11.04
	c0.94-4.84,3.32-9.42,5.19-14.06c1.33-3.3,3.02-6.47,4.24-9.81c1.74-4.79,2.61-10,4.96-14.44c2.14-4.05,2.51-8.5,4.38-12.58
	c2.3-5.04,3.69-10.5,5.41-15.8c0.51-1.58,0.63-3.3,1.25-4.83c1.72-4.27,3.76-8.42,5.38-12.73c2.43-6.47,4.61-13.04,6.91-19.57
	c0.58-1.65,1.47-3.11,3.35-3.44c1.76-0.31,3.01,0.62,3.98,2.03c0.88,1.29,1.71,2.63,2.71,3.82c2.03,2.43,4.91,3.22,7.68,2.29
	c3.14-1.05,3.55-4.07,3.47-7.1c-0.13-5.12-0.08-5.12,5.16-5.7c0.2-0.02,0.39-0.14,0.8-0.3c0.54-1.16,1.23-2.45,1.76-3.8
	c2.18-5.61,1.07-11.45,0.95-17.19c-0.09-4.19-0.84-8.36-0.95-12.54c-0.18-6.52-0.05-13.05-0.09-19.58
	c-0.01-1.04-0.04-2.14-0.36-3.11c-1.97-5.85-4.65-11.46-5.56-17.64c-0.09-0.62-0.38-1.2-0.59-1.8c-0.59-1.66-2.02-2.1-3.52-2.17
	c-1.52-0.07-2.13,1.01-2.52,2.35c-0.93,3.25-2.54,6.04-5.21,8.28c-1.63,1.36-2.45,3.31-2.4,5.6c0.08,3.36-0.17,6.7,0.94,10
	c0.71,2.11-0.26,3.19-2.45,3.39c-2.29,0.22-3.85-0.72-4.29-3.11c-0.5-2.77-0.55-5.61-0.91-8.41c-0.12-0.98-0.29-2.23-0.93-2.81
	c-1.6-1.45-1.78-3.18-1.9-5.13c-0.36-5.76-0.89-11.51-1.29-17.27c-0.12-1.7-0.96-2.3-2.6-2.49c-3.34-0.39-6.67-0.9-9.97-1.54
	c-5.12-1-10.26-1.35-15.34-0.09c-5.94,1.47-11.99,1.97-18.04,2.55c-5.29,0.5-10.4,1.43-14.53,5.17c-0.38,0.35-0.9,0.54-1.36,0.8
	c-4.4,2.43-8.79,4.86-13.19,7.29c-2.2,1.21-4.46,2.33-6.58,3.66c-2.89,1.82-5.65,3.85-8.53,5.69c-3,1.92-6,3.76-8.12,6.76
	c-1.33,1.88-3.14,3.42-4.39,5.34c-1.83,2.79-3.37,5.77-4.97,8.7c-0.26,0.48-0.22,1.13-0.36,1.95c3.93-1.38,7.11-3.86,11.13-3.94
	c0.2,0,0.39-0.15,0.58-0.24c6.02-2.86,12.73-2.54,19.06-4.01c4.06-0.94,8.32-1.22,12.5-1.41c7.56-0.35,15.13-0.42,22.7-0.56
	c0.7-0.01,1.46,0.25,2.11,0.55c1.96,0.92,3.03,2.93,2.54,4.59c-0.43,1.46-2.29,2.32-4.46,2.05c-0.21-0.03-0.41-0.11-0.62-0.11
	c-5.56-0.18-11.15-0.83-16.64,0.71c-1.3,0.37-2.62,0.66-3.93,0.98c-3.06,0.73-6.13,1.42-9.18,2.2c-0.37,0.1-0.62,0.7-1.29,1.51
	c1.27,0.31,2.11,0.66,2.96,0.69c1.36,0.05,2.74-0.06,4.1-0.21c6.48-0.73,12.78-0.09,18.83,2.47c0.58,0.25,1.14,0.57,1.74,0.72
	c6.41,1.58,11.42,5.75,16.76,9.23c3.98,2.59,6.48,6.79,9.55,10.37c2.91,3.4,5.13,7.38,9.05,9.97c2.86,1.88,2.37,7.9-0.63,9.58
	c-1.99,1.12-4.2,2.18-6.42,2.49c-5.29,0.76-10.65,1.14-15.98,1.52c-5.14,0.37-10.33,0.24-15.42,0.92
	c-6.99,0.92-13.9,0.09-20.77-0.56c-7.3-0.69-14.53-2.21-21.77-3.51c-4.15-0.74-8.16-2.01-11.84-4.19c-1.39-0.82-2.29-1.87-2.53-3.41
	c-0.57-3.73-1.18-7.46,0.3-11.16c0.43-1.07,0.69-2.21,0.89-3.35c0.11-0.64-0.04-1.32-0.09-2.24c-1.82,0.54-3.33,0.94-4.8,1.45
	c-1.46,0.51-2.15,1.71-2.18,3.18c-0.06,3.03-0.4,6.12,0.08,9.08c1.19,7.41,0.74,14.86,1.12,22.29c0.06,1.15,0.28,2.3,0.36,3.45
	c0.24,3.56,1.11,7.23,0.52,10.65c-1.19,7-0.77,13.8,0.68,20.64c0.39,1.85,0.88,3.73,0.88,5.59c0,5.9,2.54,10.66,6.92,14.18
	c3.32,2.67,4.47,6.54,6.77,9.74c0.27,0.38,0.17,1.02,0.25,1.53c0.31,2.07,0.55,4.15,0.94,6.2c0.66,3.4,1.51,6.77,2.09,10.18
	c0.34,2.03-0.09,3.87-1.97,5.3c-1.3,0.99-2.32,2.4-3.29,3.75c-2.12,2.96-4.1,6.01-6.17,9c-0.6,0.86-1.33,1.63-1.93,2.49
	c-1.37,1.96-2.69,3.96-4.05,5.92c-2.68,3.85-5.72,7.51-7.96,11.6c-1.59,2.9-3.52,5.39-5.98,7.35c-2.51,2.01-5.39,3.61-8.25,5.12
	c-2.54,1.35-5.24,0.51-7-1.77c-0.45-0.58-0.91-1.15-1.42-1.67c-2.89-2.98-6.85-3.94-10.49-5.52c-2.97-1.29-5.83-2.81-8.75-4.2
	c-1.56-0.74-3.16-1.42-5.07-2.27c-0.1,1.32-0.24,2.14-0.21,2.95c0.05,1.71-0.26,3.15-2.13,3.77c-1.63,0.54-2.95,0.01-4.35-1.68
	c-1.14-1.37-2.35-2.68-3.59-3.96c-4.78-4.97-7.89-10.83-9.12-17.61c-0.9-4.95-1.51-9.96-2.37-14.92c-0.74-4.22-1.94-8.38-2.45-12.63
	c-0.7-5.84-1.17-11.72-1.3-17.6c-0.12-5.35,0.34-10.71,0.56-16.07c0.11-2.52,0.38-5.04,0.35-7.56c-0.03-1.87,0.03-3.97-0.78-5.54
	c-1.15-2.23-1.47-4.57-2.08-6.88c-0.32-1.22-0.69-2.44-0.9-3.68c-0.91-5.25-1.94-10.5-2.57-15.78c-0.37-3.08-0.54-3.59-3.65-3.45
	c-0.84,0.04-1.66,0.25-2.5,0.34c-4.69,0.52-9.39,1.04-14.08,1.55c-4.8,0.53-9.65,0.81-14.4,1.62c-7.56,1.3-15.18,1.76-22.81,2.09
	c-0.31,0.01-0.63,0-0.95-0.03c-5.57-0.63-11.09,0.01-16.61,0.6c-2.5,0.27-5.02,0.61-7.53,0.61c-2.94,0-5.89-0.59-8.81-0.47
	c-4.17,0.17-7.67-1.59-10.85-3.72c-3.81-2.54-7.21-5.71-10.74-8.66c-2.05-1.71-2.26-2.72-0.76-4.87c2.65-3.8,5.38-7.55,9.55-9.92
	c3.35-1.9,6.47-4.17,10.08-5.62c4.11-1.65,8.19-3.29,12.72-3.42c3.13-0.09,6.27-0.26,9.39-0.58c2.4-0.25,4.75-1.03,7.15-1.14
	c6.8-0.31,13.61-0.1,20.39,0.51c3.87,0.35,7.73,0.82,11.57,1.38c3.21,0.47,6.41,1.1,9.59,1.75c4.06,0.82,8.09,1.77,12.15,2.57
	c0.84,0.17,1.75-0.06,2.63-0.1c0.07-0.22,0.14-0.45,0.2-0.67c-3.19-2.29-5.92-5.26-9.69-6.64c-2.11-0.78-4.58-0.56-6.68-1.35
	c-3.3-1.25-6.94-1.84-9.68-4.37c-0.36-0.33-0.94-0.46-1.44-0.58c-3.91-0.98-7.08-3.97-11.29-4.14c-0.27-0.01-0.51-0.39-0.8-0.48
	c-1.09-0.37-2.17-0.81-3.29-1.03c-2.27-0.43-4.56-0.73-6.85-1.07c-6.99-1.02-13.54,0.26-19.57,3.93c-1.73,1.05-3.4,1.09-5.06,0.12
	c-2.17-1.26-2.48-4.19-0.4-5.43c3.49-2.09,6.93-4.44,11.23-4.68c0.93-0.05,1.86-0.32,2.78-0.52c5.06-1.13,10.18-1.57,15.36-1.28
	c1.99,0.11,3.97,0.42,5.96,0.56c5.28,0.38,10.5,0.93,14.8,4.53c0.8,0.67,1.66,1.3,2.58,1.81c2.37,1.31,4.71,2.74,7.23,3.7
	c1.18,0.45,2.27,0.67,3.19,1.69c1.1,1.21,2.41,2.35,4.55,1.91c-0.57-1.81-0.86-3.58-1.64-5.09c-2.56-4.95-5.32-9.79-7.95-14.7
	c-0.38-0.72-0.76-1.64-0.64-2.39c0.36-2.18-0.75-3.84-1.6-5.62c-0.31-0.66-0.78-1.27-0.97-1.96c-1.15-4.25-2.24-8.52-3.34-12.79
	c-0.42-1.62-0.79-3.26-1.19-4.88c-0.66-2.63-1.3-5.26-2.02-7.87c-0.16-0.57-0.54-1.17-0.99-1.57c-2.44-2.15-4.97-4.11-8.57-3.59
	c-0.68,0.1-1.44-0.23-2.15-0.41c-5.57-1.35-11.22-1.68-16.91-1.26c-1.46,0.11-2.9,0.61-4.36,0.67c-5.54,0.2-11.08,0.36-16.62,0.42
	c-8.08,0.09-16.16,0.08-24.23,0.12c-0.94,0.01-1.97-0.08-2.8,0.26c-0.78,0.32-1.77,1.04-1.95,1.76c-0.53,2.2-2.01,3.03-3.97,3.55
	c-2.84,0.77-5.67,1.57-8.45,2.5c-1.98,0.66-3.86,1.66-5.84,2.31c-3.26,1.08-6.58,2-9.94,3.01c0,1.31,0,2.3,0,3.56
	c3.91,0,7.64-0.05,11.37,0.03c1.23,0.03,2.52,0.26,3.66,0.71c0.64,0.25,1.29,1.1,1.41,1.78c0.08,0.47-0.66,1.17-1.17,1.63
	c-0.37,0.33-0.94,0.46-1.44,0.63c-3.06,1.05-6.14,2.05-9.19,3.14c-0.68,0.24-1.27,0.75-2.05,1.23c4.08,2.86,4.07,2.87,5.63,7.86
	c0.35,1.1,0.65,2.24,1.15,3.28c2.79,5.82,3.85,12.17,5.78,18.26c0.56,1.77,1.1,3.61,1.27,5.45c0.25,2.73,0.33,5.44,1.47,8.01
	c0.47,1.05,0.66,2.22,0.98,3.33c0.37,1.26,0.04,2.28-1.07,3.02c-2.19,1.44-5.41,0.42-6.52-1.99c-1.29-2.81-2.68-5.57-4.09-8.48
	c-0.41,0.45-0.62,0.58-0.65,0.74c-0.08,0.41-0.06,0.84-0.11,1.26c-0.53,4.07,0.99,7.87,1.56,11.79c0.39,2.7,0.93,5.39,1.6,8.03
	c1.23,4.77,2.75,9.46,3.87,14.25c0.83,3.52,1.95,6.92,1.56,10.8c-0.33,3.31,0.89,6.79,1.51,10.18c1.01,5.57,2.07,11.12,3.13,16.68
	c0.49,2.58,0.94,5.17,1.57,7.72c1.37,5.59,2.84,11.15,4.29,16.72c0.81,3.14,1.62,6.28,2.5,9.4c0.82,2.92,1.75,5.81,2.56,8.73
	c1.23,4.45,3.97,6.71,8.22,6.69c0.09-1.14,0.18-2.27,0.32-4.08c1.23,1.36,1.85,2.17,2.59,2.85c1.45,1.34,3.18,2.44,4.41,3.95
	c1.49,1.83,3.52,3.58,3.24,6.26c-0.29,2.8,1.23,4.02,3.54,4.73c1.07,0.33,2.01,0.7,1.81,1.84c-1.14,0.91-2.1,1.68-3.07,2.45
	c0.9,0.63,1.58,0.88,2.07,0.68c3.84-1.54,6.44,0.65,8.96,2.96c0.32,0.29,0.17,1.11,0.29,2.17c-1.64-1.05-2.73-1.73-4.23-2.69
	c-0.15,1.31-0.23,2.05-0.33,2.97c0.96-0.2,1.62-0.33,2.49-0.51c0,1.08,0,1.95,0,2.78c4.23,1.06,4.23,1.06,3.75,3.65
	c-0.85,0-1.73,0-3.13,0c0.73,0.67,1.15,1.32,1.44,1.27c2.96-0.55,5.01,1.98,7.72,2.22c0.37,0.03,0.88,0.3,1.05,0.62
	c2.34,4.12,7.39,5.23,10.01,9.04c0.28,0.41,0.81,0.67,1.25,0.94c2.32,1.42,4.63,2.86,6.98,4.23c1.08,0.63,2.21,1.21,3.39,1.64
	c3.34,1.21,4.32,2.51,4.05,6.15c-0.1,1.43-0.1,2.69,0.85,3.86c0.26,0.32,0.16,0.92,0.27,1.68c-0.7-0.21-1.3-0.22-1.41-0.46
	c-0.36-0.77-0.66-1.73-1.68-1.14c-0.71,0.4-1.34,1.19-1.67,1.95c-0.35,0.81-0.3,1.78-0.41,2.56
	C510.84,598.42,509.22,598.83,507.55,599.26z M361.58,493.97c0.91,0.7,1.57,1.22,2.25,1.72c1.2,0.88,1.5,1.93,0.77,3.29
	c-1.3,2.41-0.6,4.49,0.71,6.79c1.53,2.69,2.61,5.67,3.61,8.62c1.17,3.44,1.71,7.12,3.13,10.43c1.6,3.72,4,7.09,5.85,10.72
	c2.14,4.2,4.11,8.49,6.07,12.77c1.61,3.52,2.94,7.18,4.71,10.63c2.33,4.56,4.97,8.96,7.47,13.44c1.68,3.02,3.28,6.08,5.05,9.05
	c1.23,2.06,2.6,4.06,4.06,5.97c3.62,4.74,7.34,9.41,11,14.12c0.31,0.4,0.61,0.89,0.71,1.38c0.71,3.51,2.92,6.23,4.89,9.03
	c1.98,2.8,4.06,5.55,6.12,8.27c2.97,3.92,5.75,7.9,9.54,11.09c1.09,0.92,2.21,1.84,3.12,2.92c2.03,2.42,3.51,5.63,6.03,7.21
	c2.1,1.32,3.56,3.14,5.45,4.51c4.98,3.6,9.3,7.86,13.46,12.34c3.62,3.9,7.89,7.17,11.09,11.48c0.18,0.24,0.48,0.38,0.73,0.57
	c2.6,1.92,5.24,3.8,7.81,5.76c1.75,1.34,3.26,3.71,5.13,4.01c4.73,0.76,6.79,4.09,9.55,7.25c2.19,2.5,5.13,4.83,8.94,5.04
	c0.41,0.02,0.81,0.2,1.2,0.33c2.57,0.85,5.08,2.08,7.72,2.49c6.74,1.03,11.48,5.43,16.36,9.43c3.09,2.54,6.18,4.32,10.2,4.49
	c1.09,0.05,2.41,0.27,3.18,0.94c1.72,1.5,3.72,1.71,5.79,2.13c3.94,0.8,8.09,1.08,11.32,4.07c0.93,0.86,2.42,1.29,3.73,1.52
	c3.09,0.54,6.22,0.92,9.34,1.21c2.9,0.27,5.86,0.73,8.71,0.4c5.82-0.69,11.58-1.86,17.37-2.82c6.6-1.09,12.35-3.87,17.4-8.28
	c2.21-1.93,4.72-3.52,7.05-5.32c3.39-2.61,7.09-4.93,10.04-7.97c5.16-5.32,11.11-9.67,16.91-14.13c5.17-3.97,10.36-7.77,14.81-12.62
	c4.75-5.18,7.08-11.55,9.9-17.72c0.13-0.29-0.14-0.76-0.32-1.54c-1.52,0.97-2.9,1.7-4.11,2.64c-6.86,5.31-14.45,9.45-22.29,12.98
	c-8.01,3.61-16.05,7.24-24.68,9.34c-6.64,1.61-13.17,3.66-19.76,5.46c-8.41,2.3-17.03,2.62-25.65,2.33
	c-2.54-0.09-5.05-1.23-7.57-1.89c-3.53-0.94-7.05-1.92-10.59-2.82c-1.93-0.49-3.97-0.62-5.83-1.29c-3.08-1.11-6.07-2.32-9.37-0.63
	c-0.14-0.59-0.29-0.89-0.26-1.17c0.3-3.03,0.3-2.99-2.77-3.77c-0.65-0.16-1.6-0.65-1.7-1.14c-0.48-2.2-2.31-2.65-3.95-3.19
	c-1.47-0.49-2.52-1.26-3.47-2.48c-0.58-0.75-1.85-1.73-2.47-1.54c-3.03,0.95-4.44-0.94-6.02-2.85c-1.41-1.71-2.88-3.35-5.5-3.15
	c-0.68,0.05-1.47-0.61-2.13-1.06c-0.59-0.41-0.98-1.16-1.6-1.45c-2.92-1.4-5.6-3-7.77-5.54c-3.91-4.58-8.03-8.99-12.11-13.42
	c-1.34-1.46-2.78-2.86-4.31-4.11c-1.66-1.36-3.63-2.27-3.81-4.92c-0.06-0.89-1.31-1.83-2.2-2.49c-1.04-0.77-2.28-1.26-3.49-1.9
	c-1.18,0-2.61,0.27-3.85-0.08c-1.24-0.35-2.64-1.09-3.36-2.1c-0.61-0.85-0.34-2.32-0.46-3.57c-2.42,0.07-6.07-2.23-6.93-4.66
	c0.63-0.2,1.26-0.41,2.18-0.71c-1.53-2.19-2.8-4.23-4.3-6.09c-2.98-3.7-6.7-6.74-7.74-11.88c-0.53-2.64-2.47-5.02-3.91-7.44
	c-2.26-3.77-4.72-7.42-6.94-11.21c-2.1-3.59-0.41-6.38,3.82-6.97c1.5-0.21,2.97-0.96,4.33-1.69c0.44-0.24,0.87-1.44,0.65-1.79
	c-1.09-1.77-2.07-3.96-3.72-4.94c-1.57-0.93-2.21-1.99-2.76-3.46c-0.63-1.67-1.33-3.31-2.07-4.93c-0.25-0.54-0.64-1.18-1.14-1.4
	c-4.25-1.9-5.62-5.32-5.15-9.68c0.33-3.07-0.53-5.82-1.94-8.48c-1.38-2.6-2.67-5.24-4.06-7.83c-0.2-0.38-0.72-0.59-1.04-0.85
	c-0.56,1.45-1.16,2.66-1.49,3.95c-0.33,1.31-0.62,2.48-2.29,2.5c-1.33,0.02-2.74,0.36-3.96,0.02c-1.67-0.47-2.26-1.86-2.22-3.71
	c0.07-3.33,0.01-6.69-0.31-10c-0.38-3.85-1.07-7.68-1.71-11.5c-0.28-1.65-0.59-3.35-1.24-4.88c-0.41-0.96-1.39-2.2-2.26-2.33
	c-2.48-0.37-5.04-0.34-6.43,2.5c-0.36,0.73-1.01,1.35-1.64,1.89c-5.33,4.58-11.22,8.03-18.36,8.89c-4.49,0.55-8.85,0.4-12.64-2.46
	c-2.52-1.9-5.16-3.7-7.39-5.9c-2.96-2.92-6.8-4.95-8.83-8.85c-0.74-1.42-2.08-2.53-3.13-3.76
	C359.68,488.64,362.57,491.87,361.58,493.97z M355.65,358.46c1.01,0.26,2.36,0.7,3.73,0.93c4.23,0.72,8.48,1.35,12.72,2.03
	c0.41,0.07,0.78,0.34,1.19,0.42c1.33,0.27,2.67,0.71,3.99,0.68c3.04-0.08,6.09-0.31,9.11-0.64c2.87-0.31,5.16-3.36,5.02-6.19
	c-0.18-3.67-0.27-7.35-0.28-11.03c0-1.02,0.41-2.04,0.61-3.06c0.62-3.18,1.36-6.35,1.81-9.55c0.61-4.37,0.88-8.78,1.49-13.14
	c0.36-2.6,1.1-5.14,1.67-7.71c1.54-6.97,3.02-13.95,4.68-20.9c0.41-1.71,1.2-3.4,2.15-4.88c4.46-6.93,6.65-14.65,8.44-22.59
	c0.82-3.67,2.11-7.27,3.54-10.75c1.47-3.57,3.53-6.89,5.02-10.46c1.04-2.49,1.43-5.23,2.29-7.81c1.42-4.27,2.98-8.5,4.5-12.74
	c2.08-5.81,3.96-11.67,6.22-17.43c2.2-5.6,5.39-10.87,6.44-16.91c0.07-0.38,0.35-0.79,0.65-1.06c1.78-1.57,2.17-3.78,2.82-5.89
	c0.4-1.3,0.85-2.6,1.47-3.8c1.67-3.27,3.46-6.47,5.15-9.73c1.98-3.82,3.88-7.69,5.86-11.51c0.9-1.75,2.06-3.37,2.86-5.16
	c1.88-4.2,3.41-8.56,5.45-12.68c3.35-6.78,6.95-13.43,10.53-20.1c2.68-4.99,5.51-9.88,9.06-14.34c0.92-1.15,1.37-2.67,2.2-4.33
	c-0.9,0.05-1.35-0.04-1.7,0.11c-2.29,0.98-4.63,1.87-6.81,3.06c-4.12,2.26-8.27,4.51-12.17,7.12c-4.7,3.14-9.15,6.67-13.73,9.99
	c-2.19,1.59-4.5,3.02-6.67,4.64c-0.99,0.74-1.62,2.05-2.67,2.59c-4.92,2.55-9.03,6.09-12.93,9.95c-4.11,4.08-8.37,8-12.39,12.16
	c-2.84,2.94-5.37,6.18-8.05,9.27c-4.88,5.61-10.1,10.96-14.56,16.89c-2.77,3.69-6.23,7.55-4.68,13.21c-2.93-0.7-4.55,0.62-5.69,2.73
	c-0.66,1.22-0.89,3.08-1.88,3.65c-2.2,1.26-3.38,3.42-5.19,4.91c-5.86,4.79-11.23,10.06-16.36,15.61
	c-4.16,4.51-9.09,8.33-11.68,14.16c-1.35,3.05-3.13,5.9-4.52,8.93c-1.47,3.2-2.57,6.58-4.11,9.74c-2.23,4.58-4.74,9.03-7.08,13.57
	c-0.57,1.1-0.74,2.41-1.38,3.46c-2.12,3.48-4.09,6.98-5.19,10.97c-1.36,4.91-3.2,9.69-4.52,14.61c-1,3.75-2.79,7.12-4.3,10.63
	c-0.4,0.94-0.53,2.33-0.12,3.21c0.59,1.3,1.69,0.51,2.68,0.05c0.8-0.38,1.77-0.4,2.84-0.62c0.29,1.11,0.52,1.98,0.78,2.96
	c-0.89,0.31-1.8,0.36-2.19,0.84c-0.43,0.53-0.76,1.8-0.46,2.12c1.19,1.26,2.48,2.69,4.03,3.29c2.17,0.83,4.61,0.96,7.17,1.43
	c0.45,3.35,3.05,3.81,5.86,3.91c1.25-1.64,2.4-3.16,3.61-4.75c-1-0.46-1.86-0.67-2.48-1.18c-1.05-0.87-0.96-2.36,0.03-3.31
	c1.34-1.28,2.5-1.33,3.4,0.12c0.85,1.36,2.48,2.63,1.03,4.49c2.47,0.65,4.66,1.23,6.86,1.81c-1.11,1.07-2.54,1.31-2.97,2.09
	c-0.42,0.77,0.18,2.09,0.36,3.35c-3.21,0.34-3.71,2.82-4.25,4.86c1.79,1.13,3.32,2.1,4.84,3.07c0.53,0.34,1.01,0.87,1.59,1
	c3.76,0.8,6.07,3.9,9.22,5.67c2.82,1.59,5.38,3.92,8.39,4.84c2.81,0.86,4.08,2.17,4.44,5.25c-0.84,0.59-1.75,1.52-2.85,1.93
	c-1.36,0.5-2.87,0.69-4.33,0.8c-2.18,0.16-3.57,1.06-3.96,3.31c-0.06,0.32-0.45,0.59-0.82,1.03c-1.74-1.31-2.12-5.88-5.44-2.31
	c-2.96-1.86-3.22-1.78-5.47,0.88c-0.69,0.81-1.54,1.48-2.4,2.28c-0.49-0.62-0.74-0.83-0.86-1.09c-1.28-2.83-1.32-2.8-4.19-2.46
	c-1.45,0.17-2.93,0.08-4.39,0.05c-3.99-0.07-7.99-0.17-11.98-0.27c-2.83-0.07-5.75,0.26-8.46-0.34c-3.8-0.85-6.93-0.01-10.06,2.27
	c1.02,0.52,1.9,0.97,2.9,1.47c-0.53,1.62-1.09,3.08-1.45,4.58c-0.15,0.63,0.13,1.36,0.22,2.04c0.77-0.12,1.63-0.06,2.27-0.41
	c0.81-0.44,1.43-1.22,2.14-1.85c2.67-2.38,5.6-3.61,9.25-2.43c1.49,0.48,3.1,0.55,4.64,0.91c3.55,0.83,7.41,0.46,10.57,2.8
	c0.31,0.23,0.82,0.16,1.21,0.29c2.21,0.71,3.27-1.01,4.42-2.32c1.38,0.77,0.65,3.03,2.66,2.95
	C349.15,358.6,352.27,358.55,355.65,358.46z M434,490.48c0.16-0.83,0.51-1.72,0.45-2.57c-0.13-1.78-0.33-3.57-0.76-5.3
	c-1.82-7.32-3.66-14.64-5.66-21.91c-1.41-5.16-3.1-10.24-4.64-15.36c-0.54-1.8-0.83-3.71-1.57-5.42c-1.39-3.25-1.49-7.05-4.12-9.79
	c-0.31-0.33-0.45-0.93-0.47-1.42c-0.27-4.88-0.11-9.79-1.4-14.58c-0.22-0.8-0.3-1.67-0.29-2.51c0.04-3.58,0.05-7.16,0.25-10.73
	c0.07-1.21,0.34-2.65,1.07-3.52c1.66-1.98,1.48-4,0.93-6.23c-0.35-1.42-0.7-2.89-0.68-4.33c0.06-4.74-0.35-9.11-4.99-11.99
	c-2.05-1.27-1.99-2.14-1.05-4.19c0.68-1.49,0.41-1.99-1.17-2.41c-4.51-1.21-9.12-1.49-13.75-1.22c-1.64,0.1-3.24,0.73-4.86,1.08
	c-3.17,0.69-6.32,1.72-9.52,1.94c-8.69,0.6-17.41,0.85-26.7,1.26c-1.82-0.96-2.97-3.03-2.87-5.88c-1.02-0.11-1.85-0.31-2.66-0.26
	c-6.17,0.36-12.29,1.12-18.48,1.41c-5.82,0.27-11.6,1.48-17.3,3.15c-5.91,1.73-5.33,2.22-4.85,7.12c0.63,6.37,1.1,12.78,2.14,19.08
	c0.61,3.69,2.37,7.17,3.29,10.83c1.01,4.03,3.45,6.69,7.12,8.18c3.19,1.29,6.46,2.53,9.82,3.24c6.84,1.44,6.79,1.32,9.66,7.68
	c1.93,4.29,4.17,8.43,6.17,12.68c1.84,3.89,3.63,7.81,5.28,11.79c1.68,4.04,3.03,8.21,4.76,12.22c1.16,2.69,2.64,5.25,4.15,7.77
	c2.09,3.47,4.2,6.96,6.61,10.21c1.54,2.08,3.48,3.98,5.59,5.48c1.01,0.72,1.64,1.45,2.23,2.43c0.57,0.95,1.22,1.88,1.94,2.72
	c1.62,1.9,3.37,3.69,4.95,5.61c3.7,4.48,8.42,5.54,13.91,4.45c4.12-0.82,7.49-3.24,11.11-5.07c2.31-1.17,4.15-3.3,3.66-6.44
	c-0.08-0.49-0.02-1.17,0.27-1.52c2.33-2.83,4.57-5.75,7.15-8.32c1.62-1.61,4.04-1.23,5.39,0.28c1.97,2.2,1.94,4.18-0.06,6.2
	c-0.19,0.19-0.23,0.54-0.31,0.73C426.61,489.6,430.07,490.15,434,490.48z M505.5,82.1c0.15,0.16,0.29,0.31,0.44,0.47
	c2.58-1.45,5.33-2.67,7.72-4.39c5.57-3.99,11.94-5.79,18.53-6.44c6.68-0.66,13.45-0.41,20.17-0.79c6.2-0.36,12.15,0.85,18.05,2.41
	c5.69,1.5,11.25,3.6,17.01,4.69c7.42,1.41,14.26,4.32,21.13,7.17c5.03,2.09,9.86,4.68,14.66,7.26c3.22,1.73,6.3,3.74,9.31,5.81
	c1.72,1.18,3.26,2.66,4.75,4.15c2.07,2.08,4.23,4.12,5.94,6.48c2.68,3.7,4.12,8.16,7.51,11.51c4.01,3.97,7.45,8.53,11.45,12.52
	c4.61,4.6,9.53,8.88,14.38,13.24c1.49,1.34,2.97,2.79,5.77,3.59c-1.52-3.14-2.83-5.63-3.95-8.19c-3.48-7.94-8.44-15-13.44-21.98
	c-2.73-3.81-6.23-7.07-9.38-10.59c-2.8-3.13-5.44-6.42-8.43-9.36c-4.74-4.68-8.79-9.88-12.74-15.22c-2.67-3.61-5.84-6.87-8.91-10.16
	c-3.74-4.01-8.79-6.15-13.49-8.65c-4.7-2.51-9.8-4.26-14.73-6.34c-0.1-0.04-0.2-0.05-0.31-0.07c-5.03-0.97-10.11-1.77-15.09-2.97
	c-4.95-1.19-9.8-0.65-14.69,0.06c-4.58,0.67-9.14,1.41-13.71,2.17c-3,0.5-5.98,1.09-8.98,1.64c-1.54,0.28-3.06,0.67-4.61,0.82
	c-5.06,0.49-10.07,1.3-14.57,3.76c-6.88,3.76-12.93,8.58-17.66,14.94C506.99,80.52,506.22,81.29,505.5,82.1z M803.11,414.14
	c1.41-2.45,2.58-4.15,3.4-6.02c0.75-1.72,1.32-3.57,1.6-5.42c0.92-5.9,2.28-11.83,2.32-17.76c0.04-5.09,0.85-9.98,1.45-14.96
	c0.9-7.49,1.82-14.98,2.64-22.48c0.21-1.98-1.17-4.16-3.02-4.76c-3.59-1.17-7.19-2.43-10.89-3.15c-6.46-1.26-12.75-0.47-18.75,2.4
	c-1.62,0.78-2.22,1.83-1.76,3.51c0.64,2.34,1.43,4.6,3.31,6.27c1.18,1.05,1.5,2.38,1.66,3.93c0.51,5.01,1.4,9.93,3.75,14.51
	c1.73,3.38,2.98,6.92,2.58,10.85c-0.11,1.04-0.01,2.1,0.04,3.15c0.39,7.21,0.8,14.42,1.2,21.64c0.09,1.57,0.13,3.15,0.27,4.72
	c0.34,3.86,0.8,7.71,1.07,11.58c0.15,2.26,0.03,4.53,0.03,6.78c2.63,0.26,4.09-0.91,4.87-3.39c0.43-1.36,0.84-3.01,1.84-3.86
	C803.39,419.39,803.44,416.59,803.11,414.14z M762.27,449c-0.32,0.38-0.94,0.85-1.18,1.47c-1.3,3.31-2.48,6.66-3.75,9.97
	c-0.82,2.13-1.78,4.21-2.57,6.36c-0.87,2.35-1.47,4.79-2.43,7.1c-1.88,4.53-4.3,8.88-5.81,13.53c-1.79,5.53-4.48,10.83-4.75,16.83
	c-0.12,2.83,0.83,4.47,3.67,4.78c4.68,0.51,9.37,1.18,14.06,1.21c3.53,0.02,7.47-0.03,10.49-1.54c4.18-2.09,7.75-5.46,11.41-8.49
	c1.84-1.53,3.31-3.51,4.89-5.34c0.48-0.56,0.78-1.28,1.44-2.38c-1.63-0.14-2.65-0.19-3.66-0.33c-1.14-0.16-2.27-0.42-3.4-0.63
	c-2.96-0.54-5.75-3.36-5.73-6.27c0.03-3.87-0.71-7.65-0.31-11.6c0.61-6.06,0.99-12.11,2.91-17.94c0.17-0.53,0.02-1.17,0.02-2.24
	c-2.86,0-5.73,0.57-8.23-0.16C766.86,452.6,764.75,450.58,762.27,449z M678.62,403.55c-6.24-0.25-11.66,1.18-16.08,5.3
	c-2.32,2.16-4.14,4.7-4.89,7.91c-0.42,1.81-1.54,3.51-1.68,5.31c-0.37,4.7,1.03,8.42,6.21,9.33c1.75,0.31,3.44,1.03,5.19,1.3
	c8.4,1.26,16.84,2.3,25.22,3.67c6.75,1.1,13.39,0.44,20.09-0.38c4.04-0.5,8.14-0.76,12.21-0.65c3.95,0.11,7.74-0.25,11.41-1.71
	c2.54-1.01,2.85-2.42,1.1-4.52c-2.88-3.47-5.72-6.96-8.61-10.43c-1.41-1.7-2.84-3.38-4.35-4.99c-0.71-0.75-1.56-1.42-2.45-1.94
	c-1.43-0.84-2.81-0.45-3.47,0.99c-0.72,1.59-1.43,3.35-1.48,5.06c-0.21,7.12-6.11,13.44-13.29,14.34
	c-6.82,0.85-12.22-1.99-17.33-5.94c-1.31-1.01-2.66-2.03-4.13-2.74c-3.77-1.82-6.13-6.16-5.64-10.3
	C677.02,409.97,676.6,406.65,678.62,403.55z M350.1,461.39c-1.02-1.91-2.05-3.36-2.61-4.96c-2.29-6.52-4.97-12.84-8.47-18.82
	c-1.58-2.7-2.96-5.59-3.94-8.56c-0.67-2.04-1.72-3.33-3.62-3.97c-4.55-1.54-9.12-3-13.68-4.47c-0.15-0.05-0.37,0.14-0.9,0.36
	c-0.06,0.95-0.33,2.09-0.15,3.16c0.59,3.51,1.23,7.01,2.05,10.47c1.49,6.33,3.12,12.63,4.67,18.94c1.51,6.12,3.39,12.09,6.18,17.79
	c1.19,2.43,2.99,4.58,3.06,7.66c0.05,2.3,1.92,2.77,4.99,1.81c0-2.64,0.34-5.39-0.11-8c-0.37-2.15,0.15-3.41,1.82-4.5
	c1.63-1.07,2.76-2.33,2.95-4.51c0.16-1.9,1.51-2.67,3.67-2.69C347.21,461.1,348.42,461.27,350.1,461.39z M519.16,442.07
	c-0.76-0.16-1.51-0.41-2.27-0.45c-4.5-0.24-9-0.64-13.5-0.57c-4.92,0.07-8.6-2.6-12.08-5.3c-3.74-2.91-6.71-6.62-7.49-11.66
	c-0.32-2.09-1.49-2.8-3.59-2.72c-1.04,0.04-2.12,0.17-3.09,0.53c-3.22,1.16-6.55,2.15-9.54,3.76c-3.69,1.97-7.2,4.33-10.57,6.83
	c-2.9,2.15-2.76,4.66-0.01,6.99c0.72,0.61,1.68,1.03,2.21,1.77c2.6,3.67,6.46,4.5,10.52,4.74c3.02,0.18,6.06,0.11,9.09,0.08
	c3.03-0.03,6.1,0.12,9.1-0.26c6.78-0.87,13.55-0.87,20.37-0.8C511.95,445.03,515.86,445.24,519.16,442.07z M754.13,338.77
	c-0.45-2.91-1.49-5.11-4.81-5.14c-0.19,0-0.39-0.15-0.57-0.25c-6.38-3.43-13.37-4.06-20.41-4.38c-2.62-0.12-5.27-0.41-7.87-0.19
	c-3.64,0.31-7.43,0.48-10.81,1.69c-4.41,1.57-8.56,3.93-12.67,6.24c-3.37,1.89-6.7,3.96-9.7,6.39c-4.59,3.73-8.88,7.83-13.28,11.8
	c-0.14,0.12,0.01,0.56,0.04,1.37c1.68-0.79,3.17-1.4,4.58-2.17c5.17-2.8,10.21-5.84,15.49-8.41c4.03-1.97,8.26-3.34,12.91-3.65
	c6.36-0.43,12.72-1.36,18.99-2.56c3.12-0.6,6.21-1.25,9.34-1c4.38,0.36,8.74,1.04,13.1,1.63
	C750.5,340.42,752.48,340.74,754.13,338.77z M652.12,336.22c-1.17,1.86-2.81,3.62-3.45,5.69c-1.32,4.29-2.15,8.73-3.09,13.13
	c-0.68,3.18-0.94,6.48-1.86,9.58c-1.34,4.52-1.72,9.07-1.34,13.71c0.06,0.71,0.6,1.38,0.92,2.06c0.63-0.46,1.66-0.81,1.82-1.4
	c0.54-1.92,1.83-3.21,3.07-4.6c0.55-0.61,0.91-1.41,1.28-2.16c0.69-1.38,1.33-2.79,1.97-4.2c0.26-0.57,0.54-1.14,0.67-1.75
	c0.94-4.39,1.99-8.77,2.7-13.2c0.55-3.4,0.86-6.86,0.92-10.31C655.78,340.25,655.23,337.72,652.12,336.22z M727.46,543.23
	c-0.69,2.27-1.51,3.84-1.57,5.44c-0.12,3.05-1.63,5.29-3.39,7.55c-1.78,2.29-3.65,4.59-4.94,7.15c-0.9,1.79-0.91,4.04-1.25,6.09
	c-0.51,3.1-1.2,6.19-1.35,9.31c-0.12,2.55-0.55,4.71-2.46,6.55c-0.8,0.77-1.19,1.95-1.77,2.95c-3.21,5.48-4.2,11.76-6.35,17.62
	c-0.38,1.03-0.05,2.31-0.05,3.76c3.34-1.32,4.37-4,5.5-6.37c2.63-5.53,3.82-11.61,6.19-17.26c0.89-2.11,1.24-4.44,1.95-6.64
	c1.39-4.25,2.31-8.67,4.58-12.61c0.61-1.06,0.79-2.38,1.1-3.59c0.94-3.72,1.36-7.68,2.93-11.1
	C727.85,549.29,728.16,546.8,727.46,543.23z M331.91,331.33c0,1.38,0.15,2.49-0.03,3.54c-0.36,2.04-1.03,4.03-1.34,6.08
	c-0.27,1.81,0.37,2.5,2.28,2.57c2.42,0.08,4.87,0.21,7.25-0.14c1.65-0.24,3.5-0.12,4.85-1.79c1.96-2.43,2.45-2.33,4.77-0.22
	c0.3,0.28,0.64,0.52,1.07,0.87c2.38-1.83,5.12,1.27,7.96-0.85c-1.3-1.24-2.41-2.44-3.67-3.46c-2.04-1.66-2.46-1.58-4.46,0.3
	c-1.34,1.25-2.02,1.03-2.49-0.78c-0.64-2.49-3.99-5.76-6.41-5.47c-2.01,0.24-3.06-1.38-4.62-1.46c-1.58-0.07-3.18,0.49-4.77,0.77
	C332.1,331.32,331.9,331.33,331.91,331.33z M722.7,217.46c-0.24,0.1-0.49,0.21-0.73,0.31c-0.05,0.4-0.22,0.82-0.15,1.2
	c0.68,3.25,1.38,6.5,2.12,9.74c0.3,1.32,0.54,2.68,1.07,3.91c1.3,3.04,3.34,5.81,3.25,9.36c-0.01,0.57,0.44,1.16,0.71,1.72
	c0.77,1.61,1.87,3.15,2.24,4.85c0.5,2.25,1.78,3.02,4.31,3.33c-0.12-2.41,0-4.61-0.39-6.72c-0.45-2.46-1.3-4.85-2.06-7.25
	c-1.93-6.11-3.8-12.24-8.06-17.27C724.17,219.63,723.47,218.52,722.7,217.46z M753.04,308.33c1.62-6.71-1.51-12.76-2.31-19.01
	c-0.85-6.54-5.17-11.73-8.08-17.5c-0.05,2.5-1.72,5.25,1.57,7.05c1.07,0.59,0.83,1.65,0.1,2.67c-0.55,0.77-0.94,1.78-1.06,2.73
	c-0.3,2.4,0.6,4.61,1.14,6.92c1.11,4.73,3.63,8.75,5.78,12.97C750.85,305.49,751.87,306.65,753.04,308.33z M320.63,332.7
	c-1-1-1.59-1.76-2.35-2.3c-0.67-0.48-1.56-0.63-2.26-1.07c-3.45-2.13-4.2-1.91-6.47,1.48c-1.38,2.06-2.95,3.99-4.48,5.95
	c-0.85,1.09-0.7,2.16-0.02,3.19c0.68,1.03,1.27,2.26,2.94,1.73c1.08-0.34,2.23-0.82,3.32-0.74c3.06,0.22,6.1,0.69,9.43,1.1
	c-0.28-2.06-0.51-3.78-0.73-5.46c-1.43-0.13-2.68-0.24-4.01-0.35C316.44,333.66,318.42,333.69,320.63,332.7z M506.81,435.12
	c0.15-1.99-0.18-3.27-1.83-4.01c-1.5-0.68-2.02-2.08-1.98-3.64c0.02-1.05,0.24-2.09,0.29-3.13c0.15-3.12-0.91-4.28-4.05-4.21
	c-1.67,0.04-3.37,0.19-4.98,0.62c-3.1,0.83-3.94,3-2.34,5.78C495.17,432.17,500.25,434.65,506.81,435.12z M645.24,406.57
	c8.88-2.47,15.66-8.04,22.6-13.49c-0.34-0.29-0.48-0.51-0.64-0.52c-0.41-0.03-0.85-0.04-1.24,0.08c-3.19,0.98-6.52,1.67-9.51,3.09
	c-3.66,1.74-7.64,2.98-10.59,6.08C644.43,403.31,643.81,404.61,645.24,406.57z M523.79,441.73c0.96,0.33,1.5,0.73,1.9,0.62
	c2.49-0.71,5.03-1.34,7.39-2.37c2.36-1.03,4.25-2.94,7.1-3.09c1.55-0.08,2.05-1.61,2-3.12c-0.06-1.63-1.2-2.14-2.53-2.26
	c-2.3-0.21-3.95,1.03-5.45,2.6c-0.98,1.03-1.93,2.13-3.08,2.94C528.92,438.6,526.6,439.96,523.79,441.73z M437.04,345.91
	c-5.56-2.13-10.93-0.29-16.33,0.54c-0.4,0.06-0.69,0.82-1.48,1.84C425.8,349.02,431.44,347.63,437.04,345.91z M480.61,565.57
	c-3.77,0.74-6.47-2.83-10.33-1.9c0.12,0.4,0.12,0.75,0.29,0.96c1.34,1.63,3.47,2.55,3.98,4.99c0.11,0.53,2.2,1.28,2.87,0.93
	C479.02,569.71,480.61,568.51,480.61,565.57z M691.37,406.83c-2.24-2-3.79-0.37-5.29,0.46c-2.2,1.22-2.7,3.24-1.99,5.71
	C686.48,410.98,688.8,409.02,691.37,406.83z M295.43,364.13c1.54,1.53,2.92,1.96,4.33,1.11c1.36-0.81,0.82-2.24,0.55-3.45
	c-0.18-0.77-0.54-1.5-0.84-2.31C296.81,360.11,297.28,362.82,295.43,364.13z M524.11,430.7c1.86-0.28,3.52-0.96,3.99-2.92
	c0.34-1.41-0.78-2.21-1.92-2.83C523.92,426.36,523.74,428.38,524.11,430.7z M551.56,427.98c-3.01-2.24-6.66-2.78-8.73-1.37
	c1.47,0.52,2.92,1.14,4.43,1.52C548.63,428.47,550.19,430.26,551.56,427.98z"/>
<path d="M522.8,726.43c0.53-2.38,1.92-2.8,3.59-2.82c1.08-0.01,1.82,0.43,1.8,1.63c-0.02,1.21-0.6,2.08-1.86,1.99
	C525.22,727.15,524.14,726.75,522.8,726.43z"/>
<path d="M648.44,615.02c3.55,3.68,3.57,7.27,0.68,10.98c-1.93,2.47-3.62,5.13-5.49,7.64c-1.94,2.61-4.21,4.61-7.8,4.64
	c-2.24,0.01-4.13-0.45-5.7-2.1c-2.04-2.14-4.32-3.92-7.02-5.25c-2.16-1.07-4.17-2.49-3.62-5.59c0.23-1.32-0.97-1.8-2.13-1.68
	c-2.19,0.22-4.35,0.61-6.54,0.86c-1.34,0.16-2.71,0.38-4.03,0.25c-1.3-0.13-2.35-0.86-2.65-2.32c-0.29-1.42,0.24-2.66,1.39-3.26
	c2.57-1.34,5.02-3.15,8.11-3.08c3.35,0.08,6.32-1.28,9.46-2.12c5.44-1.46,10.61-3.83,16.33-4.42c2.87-0.3,5.67-1.47,8.43-2.45
	c1.81-0.64,3.28-0.36,4.68,0.82c2.34,1.97,1.97,4.81-0.83,6.05C650.77,614.38,649.76,614.6,648.44,615.02z"/>
<path d="M354.45,321.36c-1.79,0.4-2.6,3.65-5.4,1.87C350.54,321.39,352.34,320.97,354.45,321.36z"/>
</svg>
