<?xml version="1.0" encoding="utf-8"?>
<!-- Generator: Adobe Illustrator 24.1.0, SVG Export Plug-In . SVG Version: 6.00 Build 0)  -->
<svg version="1.1" id="Layer_1" xmlns="http://www.w3.org/2000/svg" xmlns:xlink="http://www.w3.org/1999/xlink" x="0px" y="0px"
	 viewBox="0 0 1224 792" style="enable-background:new 0 0 1224 792;" xml:space="preserve">
<path d="M668.19,502.38c-5.55,6.94-10.94,13.4-16.02,20.1c-6.92,9.12-14.24,17.8-22.83,25.47c-6.17,5.51-12.28,11.18-16.79,18.33
	c-1.98,3.13-4.63,5.84-7.07,8.65c-8.59,9.91-17.26,19.75-25.83,29.68c-6.36,7.37-13.5,14.11-18.73,22.4
	c-2.62,4.14-4.75,8.59-7.11,12.89c-0.35,0.63-0.83,1.21-1.07,1.87c-0.51,1.4-0.89,2.85-1.53,4.94c-3.53,1.06-4.74,5.39-7.16,8.55
	c-3.77,4.92-7.13,10.16-10.67,15.26c-0.83,1.19-1.63,2.39-2.55,3.5c-1.5,1.81-3.23,3.33-5.07,4.84c-3.04,2.5-5.73,4.26-9.86,4.85
	c-3.24,0.46-6.14,3.34-9.17,5.2c-3.12,1.91-5.98,4.52-9.35,5.65c-3.06,1.03-5.8,2.54-8.71,3.77c-6.32,2.67-12.63,5.5-19.18,7.47
	c-8.02,2.42-16.14,4.55-24.79,3.27c-6.41-0.95-12.94-1.08-19.41-1.59c-0.84-0.07-1.71-0.09-2.51-0.33
	c-5.97-1.83-12.12-1.7-18.27-1.94c-4.42-0.17-8.88-0.84-13.19-1.83c-1.94-0.44-3.52-2.31-5.37-3.34c-3.86-2.16-7.86-4.07-11.67-6.32
	c-1.7-1.01-3.06-2.59-4.58-3.89c-8.87-7.57-17.81-15.07-26.59-22.73c-7.89-6.88-15.49-14.09-23.46-20.87
	c-4.1-3.49-9.04-6.03-13.05-9.62c-6.08-5.46-11.69-11.44-16.41-18.18c-1.65-2.35-3.86-4.3-5.51-6.65
	c-4.68-6.7-9.33-13.44-13.76-20.31c-4.35-6.75-8.43-13.68-12.62-20.54c-1.28-2.09-3.02-3.5-5.13-4.86c-3.51-2.25-6.62-5.16-9.71-8
	c-3.53-3.24-6.45-7.1-11.09-9.1c-1.46-0.63-2.24-2.72-3.45-4.03c-5.14-5.54-9.3-11.74-12.97-18.34
	c-4.14-7.42-8.58-14.68-12.92-21.98c-1.1-1.85-2.48-3.54-3.43-5.45c-0.82-1.65-2.2-3.27-1.33-5.39c0.13-0.32,0.15-0.73,0.08-1.07
	c-0.96-4.66-1.96-9.32-2.91-13.99c-0.26-1.26-0.35-2.56-0.54-4c-2.39-0.89-4.81-1.11-7.28-0.08c-2.56,1.06-5.3,1.81-7.67,3.2
	c-5.2,3.05-10.21,2.07-15.19-0.24c-5.35-2.48-10.61-5.17-15.93-7.72c-3.47-1.66-7.06-3.09-10.47-4.85
	c-4.38-2.26-8.65-4.74-12.94-7.17c-1.57-0.89-3.16-1.77-4.55-2.9c-1.05-0.85-2.39-1.97-2.59-3.15c-0.8-4.73-1.41-9.52-1.68-14.31
	c-0.18-3.22,0.21-6.49,0.54-9.72c0.7-6.82,1.21-13.69,2.45-20.42c0.66-3.57,2.24-7.19,4.21-10.27
	c6.42-10.03,12.84-20.09,19.97-29.61c6.05-8.09,13.25-15.3,21.27-21.57c3.25-2.54,7.31-3.06,11.25-3.55
	c2.13-0.27,4.39-0.32,6.5,0.06c6.85,1.24,13.87,1.98,20.06,5.63c0.77,0.46,1.74,0.59,3.04,1.01c0-3.45-0.06-6.49,0.01-9.52
	c0.22-9.62-0.06-19.31,2.93-28.64c0.62-1.93,1.36-3.87,2.35-5.63c2.7-4.77,2.39-9.89-0.79-14.37c-3.02-4.26-5.28-8.87-5.59-14.24
	c-0.07-1.18-0.53-2.33-0.77-3.51c-0.21-1.05-0.69-2.2-0.45-3.16c0.26-1.04,1.04-2.36,1.93-2.72c0.85-0.34,2.34,0.11,3.19,0.71
	c1.11,0.8,1.87,2.09,3.16,3.61c0.85-1.45,1.62-2.48,2.1-3.63c1.35-3.22,2.72-6.44,3.79-9.76c0.51-1.58,1.09-2.62,2.81-2.75
	c1.63-0.12,2.61,0.53,3.39,2.06c2.18,4.28,4.57,8.45,6.89,12.66c0.33,0.6,0.8,1.12,1.45,2.02c0.61-0.94,1.27-1.53,1.42-2.24
	c2.08-9.64,4.04-19.31,6.12-28.94c0.84-3.88,2.06-7.69,2.85-11.58c1.03-5.04,1.66-10.17,2.76-15.19c0.36-1.64,1.54-3.14,2.52-4.59
	c0.87-1.28,2.2-2.27,2.97-3.59c3.17-5.42,7.21-10.17,11.5-14.68c6.3-6.63,12.98-12.89,19.22-19.57c3.26-3.5,5.95-7.55,8.83-11.39
	c3.75-5,7.19-10.25,11.19-15.04c6.63-7.93,13.69-15.49,20.4-23.35c3.51-4.12,6.77-8.46,9.92-12.86c5.94-8.31,13.26-15,21.72-20.75
	c9.14-6.21,19.25-10.31,29.22-14.69c8.69-3.81,17.82-6.62,26.74-9.94c4.28-1.59,8.51-3.32,12.76-4.99
	c10.18-4,20.36-8.02,30.55-11.99c5.83-2.27,11.67-4.51,17.54-6.69c5.52-2.05,11.12-3.92,16.61-6.04c8.72-3.36,17.83-5.07,26.97-6.63
	c4.5-0.77,9.07-1.21,13.63-1.5c6.89-0.44,13.64,0.46,20.43,1.89c11.18,2.35,22.5,4.06,33.76,6.09c9.2,1.66,18.12,4.39,25.99,9.47
	c7.3,4.71,13.49,10.87,19.09,17.53c6.35,7.55,13.91,13.59,22.45,18.47c3.54,2.02,7.12,4,10.55,6.2
	c7.97,5.12,12.64,12.72,15.61,21.48c1.93,5.67,3.67,11.41,5.57,17.09c2.2,6.6,4.58,13.14,6.7,19.76c1.83,5.71,3.32,11.53,5.14,17.25
	c1.68,5.27,3.66,10.45,5.39,15.71c2.2,6.71,4.22,13.48,6.4,20.2c1.67,5.14,3.59,10.2,5.16,15.37c1.68,5.51,3.37,11.04,4.52,16.67
	c1.85,9.07,3.29,18.22,4.84,27.35c1.58,9.35,1.55,18.72-0.4,28c-0.81,3.86-2.05,7.65-3.39,11.36c-3.76,10.39-7.66,20.73-11.52,31.08
	c-3.96,10.59-7.62,21.25-9.47,32.47c-0.78,4.73-2.14,9.36-3.18,14.04c-0.22,1-0.22,2.04-0.37,3.68c6.66-4.14,13.14-3.13,19.72-1.84
	c8.19,1.61,16.29,1.1,24.28-1.46c1.63-0.52,3.49-0.35,5.25-0.49c4.08-0.31,8.15-0.61,12.23-0.9c2.28-0.16,4.57-0.42,6.86-0.38
	c3.1,0.05,4.19,1.26,4.56,4.36c0.63,5.44,3.72,9.6,7.44,13.25c3.62,3.55,7.24,7.02,9.89,11.41c0.92,1.52,2.23,2.82,3.49,4.11
	c2.01,2.07,2.9,4.3,1.94,7.21c-1.74,5.23-2.89,10.71-5.1,15.72c-2.47,5.58-5.43,11.05-8.94,16.03c-3.51,4.98-7.39,10.03-12.15,13.7
	c-4.33,3.34-7.86,7.36-11.91,10.89c-6.07,5.3-11.67,11.16-17.82,16.37c-5.39,4.57-11.09,8.82-16.99,12.71
	c-2.51,1.66-5.87,2.03-8.84,2.98c-7.15,2.29-14.51,3.43-21.99,3.77C677.94,504.79,672.97,505.04,668.19,502.38z M217.97,372.83
	c-0.09-1.14-0.49-2.36-0.22-3.4c1.34-5.24,2.93-10.41,4.27-15.65c0.56-2.2,1.06-4.52,0.98-6.76c-0.34-10.01,0.46-19.93,1.85-29.84
	c0.4-2.85,0.39-5.78,0.28-8.66c-0.04-1.17-0.86-2.3-1.32-3.45c-1.35,0.66-3.06,1.01-3.95,2.06c-0.83,0.97-1.03,2.67-1.08,4.06
	c-0.09,3.01,0.15,6.03,0.16,9.04c0,1.31-0.1,2.64-0.38,3.91c-0.33,1.48-1.08,2.86-2.94,2.48c-1.62-0.34-2.34-1.56-2.3-3.23
	c0.03-1.44,0.1-2.9-0.03-4.33c-0.06-0.68-0.56-1.33-0.85-1.99c-0.96,1.47-1.44,2.84-1.51,4.23c-0.47,8.9-0.4,17.8-0.08,26.7
	c0.12,3.3,0.64,6.44,2.59,9.25c0.57,0.83,0.74,2.02,0.87,3.07c0.35,2.74,0.59,5.5,0.86,8.26c0.18,1.93,0.94,3.45,2.85,4.21
	c-0.93,1.39-1.69,2.94-2.82,4.14c-1.72,1.83-3.29,1.7-4.71-0.42c-0.73-1.1-1.1-2.55-1.29-3.88c-0.54-3.92-0.84-7.87-1.37-11.79
	c-0.12-0.89-0.65-1.79-1.2-2.53c-2.41-3.29-5.58-5.58-9.37-7.11c-7.17-2.88-14.61-4.13-22.29-3.7c-3.42,0.19-6.69,1.35-9.3,3.61
	c-9.9,8.55-18.35,18.42-25.57,29.3c-4.24,6.4-8,13.11-12.14,19.58c-2.48,3.88-3.77,8.02-3.9,12.58c-0.05,1.93-0.03,3.89-0.37,5.77
	c-1.44,8.1-1.97,16.26-1.08,24.43c0.47,4.25,1.84,8.39,5.77,10.73c3.91,2.33,8.09,4.22,12.17,6.25c3.02,1.5,6.07,2.92,9.11,4.37
	c6.3,3,12.3,6.75,19.29,8.04c1.97,0.36,4.24,0.72,6.04,0.1c5.91-2.04,11.71-4.42,17.43-6.93c1.42-0.62,3.03-2.02,3.49-3.41
	c1.35-4.1,2.37-8.34,3.11-12.59c0.6-3.44,1.75-5.34,3.96-5.07c2.06,0.25,3.09,2.69,2.54,5.92c-0.7,4.15-1.36,8.31-2.08,12.45
	c-0.12,0.69-0.42,1.39-0.76,2.01c-1.47,2.68-1.47,5.54-1.19,8.46c0.23,2.39,0.51,4.78,0.61,7.18c0.3,7.07,2.03,13.81,5.3,20.02
	c3.63,6.9,7.91,13.46,11.56,20.36c3.4,6.44,7.22,12.6,12.34,17.7c5.78,5.77,12.08,11.01,18.27,16.36c2.72,2.35,6.17,3.98,8.47,6.65
	c2.96,3.43,5.17,7.52,7.55,11.42c3.07,5.02,5.81,10.26,9.03,15.18c4.94,7.53,9.91,15.07,15.37,22.22
	c4.74,6.21,10.02,12.02,15.36,17.74c3.35,3.59,6.91,7.18,10.98,9.87c8.09,5.34,15.48,11.41,22.31,18.25
	c3.91,3.92,7.72,8.04,12.12,11.35c6.33,4.77,11.66,10.75,18.67,14.71c3.74,2.11,6.87,5.27,10.47,7.65
	c3.71,2.45,7.56,4.73,11.54,6.71c5.74,2.86,12.15,3.15,18.36,3.39c6.06,0.23,11.98,1.05,17.94,1.99c11.85,1.87,23.63,2.5,35.39-1.17
	c12.83-4,25.1-8.89,36.13-16.86c5.31-3.84,11.31-7.02,17.42-9.38c9.24-3.56,14.58-10.03,17.28-19.18c0.17-0.56,0.38-1.12,0.63-1.64
	c1.57-3.24,5.25-5.17,5.69-9.15c0.04-0.38,0.59-0.73,0.94-1.06c5.39-4.91,9.1-11.08,13.1-17.07c3.6-5.39,7.42-10.68,11.59-15.63
	c6.98-8.27,14.43-16.16,21.5-24.36c7.4-8.57,14.63-17.29,21.88-25.99c6.17-7.4,12.49-14.62,19.73-21.05
	c4.04-3.58,7.87-7.52,11.18-11.78c6.34-8.16,12.23-16.68,18.32-25.03c5.26-7.21,6.89-15.66,8.38-24.18c0.45-2.6,0.98-5.21,1.84-7.69
	c0.52-1.49,1.82-2.59,3.73-2.1c1.64,0.42,2.95,2.27,2.86,4.1c-0.02,0.36-0.14,0.71-0.18,1.07c-0.36,3.71-0.7,7.42-1.06,11.13
	c-0.07,0.72-0.04,1.5-0.33,2.13c-1.4,3.02-0.37,5.9,0.27,8.84c0.44,2.02,1.65,2.9,3.58,2.81c2.04-0.1,4.08-0.34,6.12-0.55
	c8.55-0.86,17.05-2.08,24.76-6.13c4.85-2.54,9.7-5.27,14.02-8.59c4.92-3.78,9.26-8.32,13.85-12.53c4.79-4.4,9.75-8.63,14.27-13.3
	c1.98-2.05,3.95-3.94,6.21-5.71c5.32-4.17,10.08-9.03,12.99-15.29c2.77-5.95,5.63-11.88,7.89-18.02c1.59-4.32,2.19-8.99-1.21-13.04
	c-2.23-2.66-4.32-5.49-6.81-7.89c-4.88-4.71-9.27-9.78-12.75-15.59c-2.08-3.48-2.46-3.71-6.44-3.13c-3.57,0.52-7.16,0.86-10.75,1.26
	c-2.62,0.29-5.25,0.52-7.86,0.86c-6.08,0.78-12.1,1.93-18.31,0.79c-3.66-0.67-7.43-0.74-11.16-0.95c-4.68-0.26-7.57,2.13-9.55,6.26
	c-0.78,1.62-2.24,3.14-3.76,4.14c-2.08,1.36-5-0.27-4.95-2.78c0.09-4.31,0.21-8.69,1-12.91c1.24-6.62,3.43-13.08,4.54-19.71
	c1.36-8.11,3.59-15.9,6.47-23.56c3.72-9.89,7.53-19.75,11.07-29.71c2.13-5.99,4.1-12.06,5.64-18.23c1.88-7.53,1.98-15.27,1.64-23
	c-0.09-2.05,0.04-4.12-0.28-6.13c-0.77-4.85-1.68-9.69-2.67-14.5c-1.24-6.01-2.45-12.03-3.99-17.96c-1.27-4.88-3.05-9.63-4.55-14.45
	c-1.85-5.96-3.55-11.96-5.49-17.89c-3.37-10.29-6.98-20.5-10.31-30.81c-3.39-10.5-6.53-21.09-9.87-31.61
	c-1.96-6.18-4.2-12.27-6.12-18.46c-2.43-7.81-6.5-14.54-13.16-19.31c-4.58-3.28-9.71-5.77-14.43-8.86
	c-4.41-2.89-8.91-5.78-12.82-9.29c-4.73-4.23-8.96-9.04-13.28-13.72c-10.69-11.56-24.06-17.68-39.46-19.96
	c-10.47-1.55-20.9-3.39-31.34-5.2c-2.96-0.51-5.84-1.52-8.8-2.03c-11.08-1.92-21.87,0.7-32.57,2.83c-6.9,1.37-13.88,2.57-20.51,5.52
	c-7.67,3.42-15.89,5.58-23.73,8.65c-7.27,2.84-14.32,6.23-21.52,9.23c-3.32,1.38-6.81,2.37-10.19,3.62
	c-5.88,2.17-11.73,4.41-17.59,6.61c-14.54,5.45-29.34,10.19-43.25,17.26c-7.43,3.78-14.82,7.51-21.03,13.2
	c-4.26,3.91-8.1,8.11-11.68,12.73c-7.43,9.59-15.58,18.61-23.31,27.97c-5.9,7.14-11.61,14.44-17.38,21.69
	c-5.39,6.78-10.51,13.78-16.17,20.32c-6.1,7.06-13.27,13.14-18.65,20.88c-2.71,3.89-5.98,7.39-8.81,11.2
	c-1.04,1.4-1.79,3.13-2.25,4.83c-0.65,2.42-0.81,4.97-1.33,7.43c-1.94,9.28-3.89,18.56-5.91,27.83c-1.84,8.45-3.57,16.94-5.73,25.31
	c-0.92,3.57-0.27,6.27,2.02,8.95c1.31,1.53,2.71,3.24,3.27,5.1c0.99,3.3,1.89,6.17,5.1,8.38c2.17,1.5,3.38,4.6,4.64,7.17
	c3.02,6.15,5.78,12.42,8.7,18.63c4.9,10.43,12.64,17.73,23.71,21.32c2.1,0.68,4.14,1.53,6.39,2.36c-1.66,3.02-4.75,1.24-6.13,2.66
	c-2.17-1.16-4.1-2.09-5.92-3.18c-4.73-2.85-9.99-5.15-13.98-8.82c-5.32-4.89-8.47-11.6-11.54-18.15c-1.99-4.24-3.99-8.46-6.1-12.64
	c-0.39-0.77-1.31-1.27-2.33-2.22c-1.36,2.66-2.7,4.92-3.72,7.33c-2.34,5.52-4.48,11.12-6.8,16.66c-1.25,2.98-3.18,5.76-3.93,8.84
	c-2.24,9.21-4.02,18.54-6.04,27.81C222.94,372.14,222,372.79,217.97,372.83z M221.53,264.62c-3.41,4.83-4.2,9.5-4.69,14.08
	c-0.39,3.64-0.01,7.45,0.61,11.09c0.71,4.17,4.01,6.51,8.21,6.32c0.73-0.03,1.9-0.81,2.04-1.43c0.71-3.02,1.21-6.09,1.65-9.16
	c0.75-5.17-1.53-9.62-3.65-14.04C224.64,269.27,223.16,267.27,221.53,264.62z M234.33,301.05c-1.64,7.98-4.15,15.51-3.2,23.72
	c0.41-0.23,0.72-0.29,0.79-0.45c2-4.72,4.09-9.41,5.93-14.2C239.33,306.27,238.51,304.24,234.33,301.05z"/>
<path d="M751.89,649.74c-1.76,3.45-2.95,4.09-5.76,3.2c-1.39-0.44-2.63-1.35-2.1-2.78c0.38-1.01,1.75-2.2,2.76-2.29
	C748.62,647.7,750.64,647.98,751.89,649.74z"/>
<path d="M543,530.75c-1.05-0.57-1.81-1.22-2.68-1.41c-1.21-0.27-2.57-0.5-3.74-0.22c-1.82,0.44-3.9,0.93-5.21,2.12
	c-1.78,1.62,0.35,3.51,0.57,5.31c0.93,7.54-1.54,14.18-5.59,20.36c-0.89,1.35-1.92,1.86-3.66,1.27c-1.71-0.58-3.6-0.64-6.13-1.04
	c-0.7-1.49-2.5-2.11-4.95-1.59c-0.72,0.15-2.05-0.42-2.4-1.05c-1.9-3.45-3.19-7.03-1.02-10.92c1.57-2.83,3.24-5.63,4.51-8.6
	c0.62-1.46,0.62-3.28,0.57-4.93c-0.07-2.38,0.25-4.07,2.45-5.83c2.53-2.03,4.15-5.21,6.12-7.92c0.25-0.35,0.36-1.01,0.21-1.39
	c-1.15-2.95,0.59-5.22,1.58-7.74c0.92-2.35,2.8-3,4.83-3.11c4.06-0.22,8.13-0.13,12.2-0.12c1.12,0,2.23,0.16,3.35,0.24
	c0.06,0.27,0.11,0.53,0.17,0.8c-0.92,0.65-1.83,1.3-3.11,2.19c2.69,1.37,5.2,2.64,7.9,4.01c-0.58,0.46-1.09,0.86-2.12,1.67
	c3.19,0.75,6,1.4,9.04,2.11c-1.01,1.93-2.88,1.23-4.32,1.99c0.71,0.73,1.79,1.34,1.97,2.15c0.17,0.77-0.59,1.75-1.07,2.94
	c0.54,0.42,1.35,1.05,2.43,1.88c-0.85,0.34-1.64,0.96-2.05,0.76c-4.08-1.92-5.74,2.38-8.68,3.35
	C543.58,528.22,543.44,529.63,543,530.75z M527.25,543c-0.2-1.58-0.19-2.45-0.43-3.23c-0.48-1.58-0.82-3.71-2.81-3.64
	c-0.92,0.03-1.8,1.84-2.67,2.86c-0.23,0.27-0.4,0.6-0.54,0.93c-0.69,1.64-1.56,2.63-3.68,2.7c-2.36,0.08-4.95,4.36-4.2,6.23
	c0.81,2.05,9.15,3.88,10.77,2.37c0.17-0.16,0.38-0.33,0.46-0.54C525.27,547.92,526.37,545.16,527.25,543z"/>
<path d="M722.33,462.34c-0.35,4.2-0.63,8.4-1.07,12.59c-0.4,3.85-3.7,7.16-7.65,7.27c-6.25,0.17-12.52,0.17-18.76-0.13
	c-4.68-0.23-7.83-2.96-9.07-7.51c-1.57-5.75-1.28-11.42,1.11-16.97c0.71-1.65,1.8-2.44,3.42-2.85c1.75-0.44,3.45-1.13,5.21-1.45
	c3.18-0.58,4.42-2.52,4.5-5.58c0.11-3.82,1.6-7.2,3.33-10.55c1.94-3.75,6.33-4.65,8.83-1.35c1.44,1.91,3.32,3.49,5.01,5.2
	c3.96,4.03,4.01,9.38,4.75,14.44c0.33,2.24,0.06,4.58,0.06,6.87C722.11,462.33,722.22,462.33,722.33,462.34z M705.31,466.23
	c-0.08-0.33-0.15-0.65-0.23-0.98c-1.62,0-3.28-0.18-4.87,0.04c-2.16,0.31-2.73,1.73-1.85,3.86c0.18,0.43,0.14,0.94,0.25,1.79
	c-3.2-2.86-3.43-4.54-0.71-6.56c1.59-1.18,1.37-1.92,0.68-2.67c-2.59,0.13-4.77,0.23-7.21,0.35c-1.61,2.58-1.36,5.77-1.07,8.85
	c0.28,2.95,3.37,5.49,6.24,5.47c4.8-0.02,9.61-0.1,14.41-0.29c0.86-0.03,1.83-0.58,2.52-1.16c2.29-1.92,2.48-4.75,0.58-8.37
	c-3.17,1.04-6.38,2.09-9.82,3.22C702.35,468.33,703.51,467.23,705.31,466.23z M704.71,449.75c3.85,0.17,7.71,0.43,9.25,5.14
	c1.97-4.61-0.56-11.84-4.49-13.45c-0.68-0.28-1.91,0.09-2.56,0.58C704.41,443.93,704.25,446.63,704.71,449.75z"/>
<path d="M145.6,427.76c-0.64-7.7,1.39-14.68,6.85-20.18c2.68-2.7,5.66-5.65,10.22-5.09c3.46,0.43,6.85,3.46,7.88,6.85
	c0.28,0.93,1.34,1.92,2.28,2.29c1.88,0.74,3.9,1.34,5.9,1.52c3.16,0.29,4.76,2.36,5.7,4.86c2.78,7.47,4.64,15.12,4.71,23.2
	c0.11,11.64-10.55,17.13-18.21,16.96c-0.83-0.02-1.68-0.18-2.48-0.41c-11.52-3.26-19.49-10.16-22.5-22.09
	c-0.15-0.58-0.31-1.18-0.32-1.78C145.58,431.86,145.6,429.81,145.6,427.76z M152.15,437.84c0.27,1.08,0.43,1.87,0.67,2.64
	c2.16,6.79,13.87,12.87,19.39,12.44c6.22-0.49,12.82-4.61,12.48-12.69c-0.23-5.62-1.56-10.92-2.58-16.35
	c-0.92-4.91-3.94-6.88-8.41-7.42c-1.67-0.2-3.37-0.2-5.05-0.21c-1.77-0.01-2.62,0.81-2.44,2.72c0.32,3.48,0.42,6.97,0.78,10.44
	c0.17,1.61-0.21,2.77-1.87,2.84c-1.77,0.07-2.72,1.2-4,2.09c-1.82,1.27-3.97,2.06-6.04,2.94
	C154.26,437.62,153.3,437.63,152.15,437.84z M160.07,421.86c0-0.7,0.02-1.18,0-1.66c-0.14-2.91-0.87-3.86-3.3-4.3
	c-1.9-0.34-2.87,0.59-4.08,3.15c-1.36,2.86-1.26,5.82-1.21,8.82c0.03,1.57,0.42,3.19,2.12,3.24c1.23,0.04,2.9-0.64,3.64-1.57
	C159.01,427.29,160.53,424.77,160.07,421.86z M168.97,410.85c0.11-0.3,0.23-0.59,0.34-0.89c-1.97-2.14-4.03-4.17-7.4-3.84
	c-2.33,0.23-4.1,1.89-4.86,4.72C161.08,410.85,165.03,410.85,168.97,410.85z"/>
<path d="M496.13,507.13c1.29-4.88,3.3-9.39,6.05-13.7c2.97-4.65,5.44-9.62,8.13-14.45c1.99-3.56,3.92-7.16,6.02-10.66
	c0.52-0.87,1.49-1.63,2.42-2.08c7.02-3.37,13.84-6.95,21.5-9.15c9.43-2.71,18.8-2.16,28.27-2.39c6.84-0.17,13.66-0.91,20.5-1.24
	c4.08-0.2,8.2-0.41,12.26-0.07c3.28,0.28,6.13,1.83,8.22,4.69c1.34,1.82,3.21,3.25,4.8,4.89c2.45,2.52,0.65,9.29-2.75,10.14
	c-0.7,0.17-1.77-0.05-2.3-0.51c-2.08-1.78-4.2-3.59-5.97-5.66c-2.47-2.89-1.7-4.45,2.51-5.16c-1.84-3.28-5-3.85-8.03-3.81
	c-5.64,0.06-11.27,0.59-16.9,0.96c-3.48,0.23-6.95,0.61-10.43,0.75c-3.25,0.13-6.54,0.28-9.76-0.04
	c-9.64-0.97-18.69,1.59-27.53,4.75c-4.48,1.6-8.52,4.44-12.72,6.79c-0.57,0.32-1.02,1.01-1.34,1.62
	c-2.77,5.18-5.37,10.46-8.29,15.55c-3.23,5.63-6.65,11.14-10.19,16.58c-0.83,1.27-2.47,2.02-3.74,3
	C496.62,507.65,496.38,507.39,496.13,507.13z"/>
<path d="M394.57,541.58c-2.91,1.11-5.91,0.97-8.56-1.03c-0.73-0.55-1.48-1.89-1.31-2.68c0.65-3.13-0.26-5.59-2.28-7.39
	c0.17-2.1,0.5-3.87,0.42-5.63c-0.12-2.72,0.89-4.95,2.59-6.91c1.57-1.81,3.42-3.4,4.87-5.29c2.1-2.74,4.85-3.51,7.99-2.92
	c2.61,0.49,4.68-0.01,6.39-2.07c0.3-0.36,0.75-0.6,1.17-0.84c1.85-1.06,3.1-0.51,3.22,1.57c0.06,1.04-0.43,2.1-0.5,3.17
	c-0.16,2.35-0.83,4.89-0.18,7.02c1.71,5.6,1.22,11.2,0.76,16.8c-0.18,2.22-1.02,4.44-1.89,6.52c-1.27,3.01-4.13,4.01-7.21,2.63
	C398.2,543.69,396.46,542.6,394.57,541.58z M404.79,530.69c-0.37-0.17-0.73-0.34-1.1-0.51c-1.73,1.74-3.56,3.39-5.13,5.27
	c-0.43,0.51-0.42,2.01,0.01,2.47c0.83,0.89,2.06,1.55,3.24,1.89c0.34,0.1,1.41-1.13,1.6-1.88
	C404.01,535.55,404.35,533.11,404.79,530.69z"/>
<path d="M464.67,646.45c-2.57,1.3-4.78,2.63-7.15,3.58c-3.91,1.57-7.89,2.97-11.9,4.24c-0.93,0.29-2.11-0.22-3.38-0.39
	c-0.36,0.49-0.7,1.11-1.19,1.58c-0.48,0.47-1.47,1.23-1.6,1.12c-1.67-1.44-4.17-0.09-5.89-2.14c-0.99-1.18-3.46-1.11-4.88-1.5
	c-1.12-2.25-2.25-4.31-3.18-6.45c-0.41-0.93-0.34-2.05-0.63-3.05c-0.18-0.62-0.57-1.61-0.95-1.66c-0.69-0.08-1.49,0.34-2.15,0.73
	c-0.37,0.22-0.45,0.89-0.8,1.17c-0.51,0.4-1.24,0.94-1.71,0.82c-0.44-0.12-0.78-0.99-0.98-1.6c-0.41-1.2-0.59-2.49-1.06-3.66
	c-0.7-1.73-0.4-2.82,1.33-3.31c0.91-0.26,1.91-0.31,2.86-0.26c4.26,0.2,7.66-1.38,10.41-4.63c1.47-1.75,6.29-1.79,8.32-0.17
	c1.22,0.97,2.72,1.88,3.41,3.18c1.4,2.65,3.61,2.87,6.09,2.86c2.53-0.01,5.06-0.03,7.59,0.06c1.8,0.07,3.63,0.16,5.38,0.55
	c4.89,1.09,5.65,3.35,2.68,7.33C464.85,645.44,464.75,646.26,464.67,646.45z M451.24,644.12c-4.22-2.67-5.21-2.59-6.84,0.43
	C446.63,645.61,448.78,646.2,451.24,644.12z"/>
<path d="M375.9,470.22c-0.72,1.04-1.25,1.82-1.77,2.57c-3.87-1.52-5.94,1.98-9.07,2.69c0.72,1.28,2.04,2.71,1.74,3.29
	c-0.71,1.37-2.18,2.36-3.38,3.46c-0.69,0.64-1.45,1.21-2.2,1.78c-0.46,0.35-1.01,0.93-1.46,0.88c-2.42-0.25-4.47,0.03-5.81,2.45
	c-0.2,0.36-1.48,0.12-2.88,0.2c2.76-6.25,5.29-12.02,7.88-17.76c0.69-1.52,1.84-2.88,2.27-4.46c0.72-2.6,2.37-3.42,4.8-3.41
	c0.96,0.01,2.09,0.21,2.86-0.21c3.34-1.8,6.03-1,8.84,1.32c1.72,1.42,3.96,2.29,6.07,3.15c7.38,3.01,13.27,8.17,19.35,13.09
	c4.48,3.63,8.94,7.34,13.76,10.48c4.97,3.23,8.81,7.36,12.19,12.12c1.38,1.94,3.25,3.52,5.07,5.44c-0.85,1.67-1.81,2.19-3.69,0.98
	c-1.58-1.02-3.02-2.41-4.15-3.92c-3.21-4.27-6.65-8.07-11.54-10.65c-4.87-2.57-9.42-5.79-13.98-8.91c-1.85-1.26-3.42-2.95-5-4.56
	c-1.08-1.1-1.82-2.62-3.81-2.1c-0.33,0.09-1.05-0.28-1.19-0.61c-1.73-4.24-6.13-4.26-9.43-5.94
	C379.83,470.81,377.92,470.7,375.9,470.22z"/>
<path d="M626.52,294.94c3.58,1.47,4.68,1.43,6.37-3.11c2.91-0.03,5.45,0.86,7.68,2.97c-0.58,1.16-1.04,2.09-1.6,3.2
	c3.4,2.39,6.33,5.3,10.61,5.89c2.28,0.31,3.39,1.96,4.89,4.61c-3.32-0.87-5.89-1.42-8.01-3.16c-1.67-1.36-3.29-1.9-5.29-0.41
	c-0.12,1.65,1.46,3.02,0.13,5.02c-2.2,3.32-5.16,4.03-8.54,1.78c-3.17-2.12-6.71-3.67-10.04-5.57c-0.82-0.47-2.01-1.24-2.07-1.95
	c-0.23-2.94-0.1-5.91-0.1-9.15C623.7,296.96,623.7,296.96,626.52,294.94z"/>
</svg>
