<?xml version="1.0" encoding="utf-8"?>
<!-- Generator: Adobe Illustrator 24.1.0, SVG Export Plug-In . SVG Version: 6.00 Build 0)  -->
<svg version="1.1" id="Layer_1" xmlns="http://www.w3.org/2000/svg" xmlns:xlink="http://www.w3.org/1999/xlink" x="0px" y="0px"
	 viewBox="0 0 1224 792" style="enable-background:new 0 0 1224 792;" xml:space="preserve">
<path d="M310.64,417.02c3.53-0.62,6.72,0.37,9.94,0.89c1.61,0.26,3.81-0.51,4.34-1.93c0.33-0.89-0.02-2.03-0.08-3.33
	c0.54-0.25,1.45-0.68,2.38-1.11c-1.08-5.97-0.57-11.9-0.47-17.79c0.05-2.92,0.77-5.84,1.28-8.74c0.11-0.6,0.54-1.37,1.04-1.64
	c2.97-1.62,5.8-3.51,9.44-3.56c7.29-0.11,14.56-0.09,21.8,0.86c0.73,0.1,1.75,0.24,2.2-0.15c2.53-2.2,4.76-1.63,7.08,0.62
	c1.13-1,2.2-2.58,3.94-1.92c1.76,0.66,3.78,1.35,4.98,2.67c1.71,1.89,3.01,4.27,4.07,6.63c1.56,3.49,2.68,7.18,4.15,10.72
	c0.41,0.98,1.3,1.84,2.17,2.51c1.79,1.4,3.75,2.58,5.57,3.94c1.88,1.41,3.3,3.06,3.08,5.7c-0.12,1.51,0.06,1.53,2.45,1.79
	c1.11-1.83,1.81-3.75,2.01-5.99c0.16-1.87,0.72-3.79,1.52-5.5c2.25-4.82,4.61-9.59,7.1-14.29c2.49-4.69,5.22-9.26,7.78-13.92
	c0.54-0.99,1.02-2.1,1.15-3.2c0.78-6.69,3.05-12.95,5.29-19.24c1.69-4.73,2.82-9.67,4.7-14.32c1.9-4.71,4.42-9.16,6.66-13.74
	c0.69-1.41,1.25-2.89,2.02-4.26c2.32-4.13,4.03-8.58,7.12-12.31c0.94-1.14,0.92-3.08,1.43-5c1.23-1.16,3.3-2.35,4.26-4.14
	c2.61-4.84,6.69-8.5,9.78-12.95c3.16-4.54,6.63-8.85,10.96-12.48c3.64-3.05,7.09-6.44,10.1-10.12c2.47-3.02,4.27-6.61,6.15-10.06
	c2.26-4.14,4.11-8.5,6.47-12.58c6.12-10.58,13.16-20.55,20.6-30.24c1.86-2.43,4.09-4.63,5.56-7.27c0.89-1.6,1.68-3.13,3.05-4.35
	c5.15-4.61,9.25-10.16,13.68-15.4c2.42-2.86,4.82-5.74,7.27-8.58c2.81-3.26,4.77-7.04,6.87-10.75c2.63-4.64,5.59-9.09,8.49-13.57
	c2.58-3.99,5.26-7.91,7.9-11.85c1.09-1.63,3.04-2.19,4.8-1.4c1.65,0.74,2.35,2.72,1.58,4.69c-0.29,0.73-0.96,1.33-1.16,2.07
	c-0.23,0.87-0.15,1.83-0.22,3.14c5.9-5.07,11.25-9.88,16.83-14.41c4.75-3.85,9.77-7.32,15.06-10.48c4.14-2.47,8.54-4.17,12.89-6.02
	c1.47-0.63,3.42-0.7,5.02-0.36c3.76,0.79,7.41,1.9,10.97,3.59c3.33,1.58,7.17,2.13,10.79,3.07c1.98,0.51,3.99,0.87,5.97,1.36
	c6.73,1.66,13.51,3.02,20.44,3.57c1.66,0.13,3.25,0.92,4.9,1.28c5.21,1.15,10.42,2.28,15.64,3.36c2.87,0.6,5.78,1.05,8.65,1.65
	c1,0.21,1.95,0.64,2.91,1c6.47,2.43,12.91,4.93,19.41,7.3c4.16,1.52,8.32,3.07,12.59,4.21c4.1,1.09,7.29,3.63,10.74,5.8
	c0.67,0.42,1.3,0.9,1.99,1.28c4.87,2.67,9.75,5.33,14.63,7.99c0.6,0.33,1.17,0.83,1.81,0.95c6.19,1.13,10.91,5.41,16.58,7.64
	c4.75,1.88,9.53,3.72,14.35,5.4c2.66,0.93,5.22,2.01,7.59,3.5c0.71,0.44,1.19,1.25,1.89,2.01c-2.52,2.13-5.07,1.44-7.57,0.87
	c-1.09-0.25-2.13-0.76-3.22-0.98c-2.69-0.53-5.3-1.2-7.7-2.61c-0.93-0.55-1.99-1.04-3.41-0.13c0.58,0.48,0.96,0.86,1.4,1.14
	c5.16,3.27,10.44,6.38,15.47,9.85c3.16,2.17,5.97,4.86,8.94,7.32c1.22,1.01,2.44,2.02,3.65,3.04c0.52,0.44,1.17,0.79,1.54,1.33
	c1.29,1.84,2.43,3.8,3.75,5.61c1.29,1.77,2,3.6,2.43,5.82c1.08,5.55,2.73,10.99,4.18,16.47c0.75,2.84,1.44,5.7,2.37,8.49
	c0.55,1.67,1.5,3.21,2.54,5.38c-0.27,2.18,1.41,11.84,2.84,14.3c0.96-2.13,2-4.01,2.66-6.02c1.34-4.07,2.53-8.2,3.66-12.33
	c0.8-2.93,1.3-5.95,2.17-8.86c0.41-1.35,1.15-2.75,3.01-2.83c1.49-0.07,2.79,0.31,3.49,1.65c0.46,0.88,0.85,1.99,0.75,2.93
	c-0.21,1.9-0.79,3.75-1.19,5.63c-0.23,1.1-0.6,2.21-0.57,3.3c0.06,2.48,0.34,4.96,0.51,7.44c0.04,0.57,0.04,1.14,0.01,1.71
	c-0.2,3.29-0.76,6.59-0.55,9.85c0.31,4.75-1.12,9.23-1.52,13.86c-0.78,8.84-1.02,17.65-0.04,26.49c0.04,0.34,0.07,0.69,0.01,1.02
	c-1.14,6.41,0.36,12.65,1.21,18.93c0.21,1.57,0.16,3.18,0.21,4.78c0.24,7.62,0.69,15.24,0.61,22.86c-0.04,3.51,0.01,7,0.16,10.49
	c0.1,2.38,0.64,4.76,0.54,7.12c-0.23,5.9-0.84,11.79-1.05,17.69c-0.19,5.47-0.19,10.95-0.03,16.42c0.08,2.87,0.08,5.63-1.02,8.34
	c-0.33,0.82-0.41,1.77-0.47,2.66c-0.08,1.25-0.04,2.51-0.05,3.76c-0.04,4.05,0.38,8.09-1.95,11.87c-1.7,2.75-1.47,6.14-2.02,9.26
	c-0.33,1.88,0.11,3.91-1.35,5.51c-0.13,0.14-0.08,0.44-0.11,0.67c-0.47,3.82-0.88,7.66-1.45,11.46c-0.25,1.67-0.78,3.31-1.34,4.91
	c-1.27,3.61-1.79,7.43-3.45,10.95c-0.61,1.3-0.68,3.15-0.31,4.57c0.91,3.47,0.52,5.3-2.42,7.19c-1.14,0.73-1.7,1.62-2.15,2.89
	c-0.66,1.89-1.77,3.61-2.59,5.45c-1.02,2.27-1.98,4.56-2.91,6.87c-0.97,2.42-1.95,4.84-2.74,7.32c-0.29,0.89-0.05,1.95-0.05,3.2
	c2.61-0.35,5.09-0.4,7.54-1.57c1.99-0.95,4.32-1.41,6.54-1.58c2.06-0.16,4.07,0.4,4.8,2.93c0.45,1.55,1.85,1.82,3.3,1.9
	c3.06,0.17,6.12,0.38,9.17,0.61c2.2,0.17,4.2,0.74,5.81,2.47c1.07,1.15,2.51,1.96,3.68,3.03c2.44,2.25,2.4,4.92-0.27,6.89
	c-1.55,1.14-2.46,2.57-3.58,4.65c1.06-0.26,1.64-0.42,2.23-0.54c2.33-0.46,4.64-1.02,6.98-1.32c2.14-0.27,4.33-0.18,6.48-0.36
	c2.06-0.17,4.41,1.32,4.86,3.24c0.27,1.13-0.08,2.11-1.06,2.66c-3.68,2.09-5.09,5.9-7.32,9.15c-2.55,3.72-5.36,7.22-9.34,9.73
	c-5.56,3.51-10.86,7.41-16.31,11.09c-1.98,1.34-4.02,2.6-6.13,3.73c-1.07,0.58-2.32,0.92-3.53,1.15c-4.24,0.81-8.49,1.53-12.74,2.27
	c-3.46,0.6-6.93,1.18-10.4,1.78c-0.42,0.07-0.81,0.25-1.51,0.48c1.07,1.49,2.45,1.99,3.85,2.19c2.59,0.37,5.2,0.61,7.8,0.78
	c2.93,0.19,5.89,0.09,8.82,0.4c4.03,0.42,4.61,2.76,4.15,5.99c-0.18,1.27-1.25,1.61-2.26,1.72c-1.47,0.16-2.97,0.02-4.44,0.16
	c-1.28,0.12-2.55,0.43-3.74,0.64c0.92,1.81,2.02,3.21,2.36,4.77c0.66,3.09-1.38,4.8-4.39,3.95c-0.65-0.18-1.32-0.48-1.83-0.9
	c-4.5-3.76-9.85-6.1-14.86-9.01c-3.13-1.82-6.17-3.8-9.33-5.57c-2.34-1.31-4.81-2.38-7.27-3.58c-1.51,1.36-1.6,2.94-1.15,4.49
	c0.71,2.46,0.37,4.69-0.78,6.93c-0.56,1.09-0.82,2.35-1.19,3.54c-1.03,3.27-3.23,4.03-5.89,2c-0.8-0.61-1.49-1.35-2.21-2.01
	c-1.09,2.5-2.43,4.9-3.19,7.46c-1.17,3.93-2.55,7.69-4.95,11.07c-0.97,1.36-1.39,3.1-2.12,4.63c-3.04,6.33-6,12.68-8.18,19.37
	c-0.86,2.66-2.14,5.19-3.17,7.8c-0.32,0.81-0.48,1.68-0.84,2.96c-0.86,0.09-1.95,0.34-3.02,0.28c-3.57-0.19-4.41-1.93-3.07-5.23
	c1.88-4.61,3.83-9.19,4.88-14.11c0.63-2.94,1.81-5.76,2.71-8.52c-1.62-1.39-2.66-0.75-3.59,0.19c-1.98,2-4.15,3.88-5.82,6.12
	c-4.11,5.53-7.99,11.24-11.97,16.88c-0.39,0.56-0.83,1.08-1.24,1.62c-3.37,4.38-6.32,9.03-9.38,13.62
	c-3.13,4.69-6.2,9.51-10.27,13.58c-2.47,2.47-4.37,5.5-6.52,8.29c-0.55,0.72-1.06,1.48-1.65,2.16c-3.35,3.85-6.88,7.57-10.04,11.57
	c-2.65,3.36-5.06,6.95-6.53,11.03c-0.37,1.01-0.4,2.19-0.39,3.28c0.01,0.7-0.33,1.08-0.58,1.61c-0.5,1.09-0.27,2.52-0.39,4.6
	c-1.44,1.21-3.36,2.96-5.41,4.52c-2.61,1.99-5.32,3.85-8.01,5.74c-2.49,1.76-4.75,3.84-7.72,4.9c-1.25,0.45-2.31,1.44-3.48,2.14
	c-1.45,0.88-2.83,1.98-4.39,2.52c-4.91,1.69-9.15,4.54-13.35,7.45c-1.93,1.34-3.4,3.35-5.3,4.76c-1.49,1.11-3.26,1.94-5.02,2.57
	c-2.3,0.82-4.52,2.13-7.16,1.67c-0.43-0.07-0.99,0.49-1.46,0.81c-3.13,2.12-6.6,3.46-10.18,4.6c-1.69,0.54-3.45,1.24-4.63,3.05
	c0.6,0.66,1.18,1.3,1.92,2.11c-0.41,1.05-0.84,2.16-1.41,3.65c-1.19-1.42-1.96-2.54-2.92-3.44c-1.21-1.13-1.93-0.86-2.87,0.6
	c-1.09,1.7-1.48,3.22,0.29,4.76c0.44,0.39,0.89,1.44,0.67,1.81c-1.12,1.96,0.44,3.14,1.26,4.66c-0.6,0.81-1.18,1.6-1.98,2.71
	c-1.72-1.21-3.28-2.3-5.01-3.52c-0.19,2.67-0.19,2.67,1.22,5.84c-1.32,0.18-2.34-0.31-2.9-1.37c-1.47-2.78-3.91-1.88-6.14-1.69
	c-0.27,0.02-0.46,0.9-0.84,1.7c-1.56-0.5-3.1-1.15-4.71-1.47c-1.16-0.23-2.43-0.17-3.62,0.01c-2.63,0.39-3.49-0.34-3.58-3.32
	c0.08-0.08,0.14-0.22,0.23-0.24c0.87-0.24,1.74-0.46,2.3-0.6c1.2,0.68,2.12,1.27,3.1,1.74c2.87,1.37,2.88,1.35,4.33-1.72
	c0.57,0.07,1.21,0.17,1.85,0.22c0.56,0.04,1.12,0.01,1.82,0.01c0.28-0.78,0.54-1.51,0.78-2.16c-1.68-0.99-3.23-1.9-4.99-2.93
	c-0.24,0.98-0.37,1.5-0.57,2.34c-1.03-0.06-2.4,0.28-3.18-0.25c-2.89-1.95-5.96-1.3-8.92-0.8c-3.51,0.6-6.77-0.04-9.93-1.27
	c-2.57-1-5.11-1.8-7.91-1.78c-1.92,0.01-3.85-0.38-5.77-0.37c-1.46,0.01-3.07,0.03-4.33,0.63c-1.83,0.87-3.51,0.65-4.92,0.34
	c-1.89-2.34-3.61-4.43-5.28-6.56c-1.24-1.59-2.53-3.15-3.55-4.87c-1.96-3.29-5.04-5.45-7.69-8.05c-1.8-1.76-3.73-3.26-3.9-6.11
	c-0.05-0.89-0.87-1.83-1.54-2.58c-5.42-6.14-10.77-12.35-16.37-18.33c-3.18-3.39-6.84-6.33-10.2-9.57
	c-2.94-2.84-5.88-5.69-8.58-8.76c-1.71-1.94-3.12-4.2-4.4-6.46c-2.47-4.34-6.46-7.24-9.73-10.82c-6.55-7.14-14.75-12.47-21.26-19.66
	c-1.97-2.18-4.29-4.04-6.31-6.19c-2-2.13-4.06-4.27-5.65-6.7c-1.41-2.13-4.61-2.3-5.05-5.63c-0.32-2.45-1.89-4.8-3.17-7.05
	c-3.59-6.3-7.4-12.46-10.95-18.78c-1.94-3.46-3.73-7.03-5.2-10.71c-1.14-2.83-1.62-5.91-2.5-8.84c-1.36-4.56-2.61-9.16-4.29-13.6
	c-1.11-2.94-2.85-5.65-4.41-8.41c-1.78-3.15-3.81-6.17-5.5-9.37c-2.21-4.19-5.11-7.92-7.5-11.98c-0.78-1.32-1.06-2.95-1.44-4.48
	c-0.43-1.76-0.71-3.55-1.07-5.33c-0.11-0.55-0.35-1.09-0.42-1.65c-0.45-3.64,0.31-4.68,3.93-5.46c0.43-0.09,0.85-0.2,1.41-0.34
	c0.14-2.23,0.34-4.24-0.59-6.38c-0.79-1.83-0.93-3.96-1.26-5.97c-1.15-7.06-2.38-14.1-4.48-20.96c-0.33-1.06-0.27-2.25-0.35-3.38
	c-0.4-5.78-0.91-11.52-2.35-17.18c-0.58-2.27-0.36-4.75-0.46-7.14c-0.05-1.14-0.01-2.28-0.01-3.54c-1.1-0.91-2.13-2-3.37-2.74
	c-4.41-2.65-7.65-6.46-10.37-10.67c-2.68-4.14-6.12-7.56-9.59-10.96c-2.18-2.13-4.59-4.05-7.06-5.83c-1.53-1.1-3.3-2.21-5.1-2.52
	c-1.91-0.33-3.07-1.16-3.86-2.85c-2.94,1.89-5.79,0.54-8.58,0.09c-1.89-0.31-3.7-1.1-5.56-1.58c-1.42-0.37-2.38-0.84-2.6-2.61
	c-0.3-2.42-1.17-2.9-3.86-3.24c-1.01-0.13-2-0.42-2.99-0.68c-3.05-0.8-6-2.13-9.28-1.81c-0.29,0.03-0.61-0.24-0.91-0.4
	C310.84,417.62,310.82,417.47,310.64,417.02z M586.43,636.57c0.17,1.32-0.05,2.67,0.51,3.49c1.43,2.12,1.03,4.53,1.44,6.78
	c0.52,2.84,0.81,5.67,2.08,8.35c0.76,1.61,0.96,3.45-0.49,5.24c-1.12-1.02-2.12-1.93-3.26-2.96c-1.17,0-2.49,0-3.72,0
	c-1.07-2.15-1.08-2.13-3.4-3.68c-0.45-0.3-0.87-0.73-1.16-1.19c-1.73-2.79-4.93-3.76-7.19-5.89c-0.27-0.26-0.87-0.31-1.28-0.25
	c-1.57,0.24-2.2-0.77-2.87-1.91c-1.19-2.02-2.47-3.99-3.74-5.97c-2.39-3.75-5.42-7.04-9.15-9.3c-2.11-1.28-3.56-2.92-5-4.69
	c-1.37-1.69-0.92-4.01,1.06-4.9c1.28-0.58,2.83-0.61,4.27-0.73c0.65-0.05,1.33,0.42,1.99,0.41c1.78-0.04,3.48-0.65,4.34-2.23
	c0.71-1.31-0.14-2.62-1.02-3.72c-0.57-0.71-1.1-1.46-1.76-2.08c-3.72-3.46-7.47-6.89-11.26-10.37c-0.61,0.21-1.13,0.46-1.67,0.57
	c-3.15,0.63-5.07-0.7-5.58-3.88c-0.11-0.67-0.01-1.38-0.15-2.04c-0.41-1.95-1.13-3.6-3.19-4.51c-1.2-0.53-2.26-1.54-3.15-2.54
	c-1.84-2.05-1.42-3.91,1.04-5.25c0.57-0.31,1.18-0.56,1.93-0.91c-0.44-1.09-0.95-1.97-1.17-2.92c-1.72-7.56-2.56-15.26-2.04-22.98
	c0.3-4.48-0.15-8.81-0.65-13.2c-0.17-1.44-0.26-3.05,0.19-4.38c1.27-3.79,1.59-7.75,2.33-11.63c0.74-3.9,1.05-7.89,1.93-11.75
	c1.24-5.44,2.19-10.89,2.22-16.47c0.06-10.95,0.03-21.91,0.02-32.86c0-0.6-0.21-1.21-0.3-1.69c-0.99,0.81-1.86,1.5-2.7,2.23
	c-0.87,0.75-1.96,1.12-2.81,0.42c-1.66-1.36-3.21-0.74-4.77-0.06c-2.28,0.99-4.72,1.77-6.73,3.17c-5.27,3.68-11.06,3.05-16.81,2.33
	c-3.81-0.48-7.52-1.95-11.32-2.19c-5.93-0.39-11.37-2.16-16.68-4.57c-1.02-0.46-2.12-0.89-2.96-1.6
	c-4.36-3.65-8.61-7.43-12.98-11.07c-2.08-1.73-4.32-3.27-6.49-4.89c-3-2.25-6-4.5-9.01-6.73c-3.18-2.36-6.64-4.31-8.92-7.78
	c-2.36-3.59-5.06-6.97-7.65-10.41c-0.93-1.23-1.11-2.64-0.44-3.85c0.73-1.31,2.24-1.52,3.65-1.21c0.75,0.16,1.47,0.6,2.14,1.02
	c2.42,1.5,4.84,3,7.21,4.58c4.1,2.74,9.11,4.09,12.47,8c0.14,0.16,0.37,0.26,0.58,0.36c3,1.43,4.94,3.93,6.56,6.68
	c0.93,1.58,1.82,3.06,3.3,4.26c2.24,1.83,2.32,2.82,1.14,5.78c3.6,5.08,8.78,8.34,14.04,11.51c0.18,0.11,0.45,0.07,0.66,0.16
	c5.54,2.18,11.38,3.15,17.21,4.12c2.69,0.45,5.37,0.94,8.07,1.32c3.72,0.53,7.17-0.35,10.65-1.7c2.88-1.12,5.45-2.56,8.13-4.63
	c-1.35-1.97-2.17-4.09-4.58-5.28c-4.64,2.47-9.81,2.32-14.92,2.17c-4.41-0.13-7.82-2.11-9.67-6.29c-0.5-1.13-0.88-2.32-1.3-3.48
	c-0.41-1.16-1.01-2.12-2.42-1.94c-2.86,0.35-4.49-1.41-5.77-3.49c-2.24-3.65-4.6-7.17-6.17-11.3c-1.81-4.76-2.88-9.53-3.36-14.51
	c-0.16-1.66-0.62-3.05-1.66-4.37c-0.59-0.75-0.86-1.79-1.1-2.74c-0.55-2.17-0.98-4.38-1.47-6.6c-4.07-0.5-7.78-0.91-11.48-1.41
	c-4.39-0.59-8.23,1.34-12.24,2.54c-2.7,0.81-5.41,1.71-8.18,2.09c-2.27,0.32-4.24-1.32-4.73-3.17c-0.29-1.14,1.3-4.67,2.53-5.25
	c3.9-1.84,7.82-3.59,12.32-3.19c1.47,0.13,3,0.21,4.43-0.07c5.81-1.11,11.61-2.2,17.57-2.07c0.56,0.01,1.13-0.16,1.7-0.17
	c1.92-0.04,3.84-0.19,5.75-0.04c3.01,0.25,6,0.71,9.61,1.16c-3.05-5.42-7.27-8.29-12.17-10.37c-2.6-1.1-5.18-2.23-7.8-3.26
	c-1.57-0.61-3.18-1.38-4.81-1.5c-6.41-0.49-12.43,0.59-17.38,5.16c-0.15,0.14-0.42,0.14-0.8,0.26c-0.38-0.23-0.92-0.46-1.32-0.83
	c-1.86-1.71-1.73-2.1-0.57-4.32c1.22-2.32,3.53-2.78,5.52-3.7c5.56-2.56,11.52-2.42,17.45-2.12c1.19,0.06,2.37,0.68,3.5,1.17
	c2.08,0.9,4.11,1.91,6.18,2.85c2.17,0.98,4.41,1.83,6.53,2.91c6.45,3.29,9.66,9.45,12.99,15.35c0.94,1.67,1.8,3.07,3.42,3.99
	c1.88,1.06,3.77,2.13,5.7,3.1c2.26,1.13,4.34,2.45,6.05,4.36c1.53,1.71,3.24,3.25,4.88,4.87c0.28-0.95,0.16-1.68-0.22-2.22
	c-1.04-1.49-1.32-3.13-1.19-4.88c0.13-1.76,1.41-2.48,2.81-3.1c1.3-0.59,2.28,0.06,2.99,0.98c0.72,0.95,1.49,2.05,1.7,3.18
	c0.34,1.86,1.31,3.13,2.78,4.06c1.14,0.72,2.39,1.31,3.65,1.78c3.95,1.5,7.87,3.07,11.05,5.94c1.97,1.78,3.72,3.81,5.87,6.04
	c0-2.51-0.08-4.76,0.02-7.01c0.16-3.68-0.16-7.25-1.5-10.74c-0.77-2-1.32-4.13-1.65-6.25c-0.67-4.23-2.21-8.06-4.54-11.64
	c-1.54-2.38-3.16-4.76-4.24-7.35c-0.88-2.1-2.26-3.72-3.8-5.14c-6.22-5.73-11.97-11.85-16.63-18.94c-0.87-1.31-2.07-1.98-3.6-2.36
	c-4.18-1.04-8.36-2.11-12.47-3.39c-4-1.24-7.91-2.22-11.94-0.18c-0.8,0.4-1.76,0.46-2.63,0.74c-3.55,1.14-7.45,1.2-10.63,3.52
	c-0.41,0.3-1.09,0.41-1.62,0.36c-2.14-0.18-4.27-0.45-6.46-0.7c-0.39-0.72-0.79-1.39-1.15-2.09c-1.08-2.09-0.52-3.81,1.79-4.5
	c6.72-2.02,13.09-5.17,20.06-6.41c0.71-0.13,1.35-0.67,2.46-1.24c-1.5-1.86-3.19-3.31-4.05-5.15c-1.47-3.16-3.87-3.76-6.94-3.81
	c-1.27-0.02-2.64-0.68-3.77-1.37c-1.13-0.7-1.52-2.02-1.15-3.33c0.33-1.17,1.18-1.91,2.49-2.01c3.06-0.23,6.12-0.48,9.18-0.7
	c1.13-0.08,2.29-0.01,3.41-0.19c3.42-0.56,6.55,0.16,9.39,2.04c2.58,1.7,4.84,3.74,6.35,6.55c0.69,1.29,1.68,2.42,2.61,3.57
	c2.83,3.52,5.63,7.06,8.58,10.47c1.24,1.44,2.71,2.76,4.31,3.78c1.61,1.03,3.56,1.51,5.27,2.41c2.78,1.45,4.82,3.71,6.36,6.41
	c0.83,1.45,1.48,3.02,2.34,4.45c3.22,5.35,6.74,10.52,9.66,16.03c2.81,5.31,5.49,10.63,9.87,14.89c1.06,1.03,1.67,2.41,1.58,4.02
	c-0.06,1.02,0.19,2.06,0.09,3.07c-0.22,2.25,0.82,3.52,2.77,4.51c1.01,0.51,2.32,1.65,2.37,2.57c0.17,2.92-0.12,5.88-0.37,8.82
	c-0.14,1.67-0.94,3.36-0.79,4.98c0.39,4.27,1.07,8.53,1.75,12.77c0.95,5.94,2.14,11.75,1.19,17.92c-0.62,4.01-0.4,8.12-2.08,11.98
	c-0.57,1.32-0.53,2.89-0.85,4.33c-0.29,1.29-1.2,1.8-2.52,1.85c-2.97,0.1-6.09-3.55-5.28-6.42c1.45-5.14,2.98-10.25,3.31-15.63
	c0.05-0.9,0.01-1.59-1.05-1.69c-0.22,0.16-0.5,0.25-0.56,0.42c-1.71,5.06-3.49,10.12-3.4,15.55c0.04,2.22,0.06,4.32-1.67,6.02
	c-1.16,1.14-1.26,2.62-1.18,4.14c0.21,4.32,0.44,8.64,0.59,12.96c0.33,9.24-0.2,18.45-0.69,27.67c-0.02,0.45-0.09,0.92-0.24,1.34
	c-1.72,4.61-2.49,9.4-2.81,14.28c-0.02,0.33,0.2,0.77,0.06,0.99c-1.88,2.85-0.59,5.96-1.03,8.9c1.02,0.71,1.84,1.28,2.66,1.86
	c0.02,2.89,0.94,5.84-1.71,7.94c0.16,0.5,0.2,0.87,0.38,1.14c1.17,1.78,1.81,3.6,0.84,5.72c-0.22,0.48-0.13,1.13-0.1,1.69
	c0.06,1.23-0.24,2.16-1.42,2.85c-0.57,0.33-1.17,1.21-1.16,1.84c0.05,3.01,0.51,6.02,0.44,9.03c-0.08,3.23,1.26,5.61,3.36,7.87
	c1.37,1.47,2.63,3.16,3.5,4.96c1.73,3.55,3.13,7.26,4.71,10.88c0.27,0.61,0.67,1.21,1.15,1.69c2.96,2.95,5.96,5.86,8.94,8.8
	c0.82,0.81,1.69,1.08,2.76,0.3c-0.09-0.33-0.11-0.69-0.28-0.95c-3.17-4.95-6.35-9.9-9.53-14.84c-0.3-0.47-0.73-0.94-0.8-1.45
	c-0.16-1.23-0.35-2.57,1.11-3.28c1.29-0.62,3.59-0.32,4.36,0.93c2.7,4.37,7.18,7.26,9.65,11.83c0.8,1.48,2.29,2.64,2.9,4.17
	c1.81,4.57,4.81,8.22,8.36,11.45c3.18,2.91,6.5,5.67,9.79,8.45c0.48,0.41,1.13,0.63,1.67,0.91c2.16-2.37,2.62-2.54,6.01-3.06
	c4.6-0.71,9.13-1.79,13.86-1.48c1.67,0.11,3.38-0.38,5.06-0.67c0.52-0.09,1.21-0.31,1.47-0.71c1.19-1.82,3.03-2.21,4.95-2.67
	c1.42-0.34,2.93-0.79,4.1-1.62c2.7-1.9,5.47-3.9,4.78-7.94c-0.11-0.63-0.01-1.45,0.31-1.99c1.19-2,1.03-4.16,1-6.33
	c-0.02-1.48-0.16-2.92,1.43-3.94c0.63-0.4,0.91-1.48,1.17-2.31c0.76-2.38,1.33-4.82,2.15-7.17c0.79-2.27,1.43-4.45,0.76-6.92
	c-0.88-3.23-1.08-6.51,0.05-9.76c0.44-1.28,0.86-2.57,1.23-3.88c1.23-4.26,2.39-8.53,3.66-12.77c0.51-1.71,1.57-3.31,1.76-5.04
	c0.22-2,1.22-2.96,2.78-3.93c1.2-0.74,2.14-1.94,3.13-3c0.77-0.83,1.37-1.82,2.15-2.63c2.44-2.55,3.21-5.88,4.28-9.07
	c0.47-1.38,0.61-2.9,1.21-4.21c1.53-3.33,2.13-6.63,1.09-10.27c-0.61-2.13-0.29-4.26,1.73-5.85c0.95-0.75,1.74-1.81,2.35-2.88
	c1.52-2.64,2.89-5.36,4.61-8.6c-0.82-0.62-1.69-1.36-2.63-1.98c-1.04-0.69-1.82-1.5-1.25-2.8c0.56-1.27,1.68-1.87,3.06-1.73
	c1.12,0.12,2.23,0.38,3.33,0.64c2.82,0.64,4.11,0.14,5.82-2.15c2.5-3.35,5.07-6.64,7.56-9.99c1.88-2.52,3.69-5.1,5.15-7.12
	c-0.92-2.78-1.76-4.86-2.29-7.02c-0.51-2.07-0.7-4.23-1.04-6.39c-3.09,1.2-3.74,1.21-5.27,0.13c-2.18-1.54-2.74-4.05-1.1-6.98
	c1.03-1.85,1.28-3.7,0.84-5.57c-0.38-1.59-1.3-3.05-1.94-4.48c-0.4-0.06-0.67-0.19-0.83-0.11c-1.22,0.6-2.43,1.23-3.64,1.86
	c-2.15,1.14-4.07,0.64-5.26-1.39c-2.03-3.46,0.98-8.81,4.99-9.07c2.25-0.15,4.61-0.27,6.7-1.02c4.91-1.76,9.68-3.91,14.51-5.86
	c2.12-0.85,3.33-2.3,3.38-4.64c0.02-0.78,0.13-1.56,0.23-2.76c1.58-0.47,3.16-0.97,4.76-1.39c1.21-0.32,2.47-0.46,3.65-0.85
	c0.41-0.14,0.91-0.76,0.92-1.18c0.01-0.41-0.45-0.98-0.85-1.24c-0.56-0.36-1.26-0.51-1.91-0.73c-1.5-0.51-3.03-0.96-4.52-1.51
	c-1.96-0.73-2.81-2.72-2.12-4.77c0.53-1.57,1.58-1.75,3.88-1.35c3.34,0.59,6.72,1.11,10.1,1.25c5.24,0.22,10.5,0.03,15.74,0.15
	c1.79,0.04,3.62,0.36,5.36,0.85c3.15,0.88,6.22,1.97,9.43,2.7c1.96,0.45,3.86,1.89,5.39,3.32c2.11,1.97,1.72,3.93-0.53,5.71
	c-1,0.79-1.84,1.8-3.22,3.18c5.58,1.92,10.87,1.95,15.82,3.44c5,1.5,10.15,2.55,15.13,4.11c5.09,1.59,10.14,3.4,15.08,5.41
	c4.79,1.95,9.43,4.27,14.34,6.52c0.36-3.69,0.7-7.28-0.26-10.65c-0.88-3.05-0.89-6.06-0.98-9.12c-0.04-1.33,0.37-2.41,1.22-3.43
	c2.67-3.18,3.78-7.18,4.01-11.05c0.32-5.34,0.8-10.61,1.68-15.87c0.74-4.47,1.42-8.96,2.03-13.45c0.76-5.63,1.4-11.28,2.12-16.91
	c0.13-1.01,0.41-2,0.63-3c0.21-1,0.53-1.98,0.63-2.99c0.54-5.3,1.94-10.52,1.49-15.91c-0.03-0.33,0.13-0.67,0.17-1.01
	c0.64-5.29,1.3-10.58,1.9-15.88c0.39-3.5,0.62-7.02,1.04-10.52c0.73-6.19,1.52-12.38,2.35-18.57c0.42-3.15,0.87-6.3,1.52-9.41
	c0.6-2.87,1.67-5.64,2.19-8.52c0.32-1.74,0.4-3.73-0.12-5.38c-1.89-5.98-2.88-12.11-3.75-18.3c-0.45-3.2-1.19-6.36-2.25-9.48
	c-1.81-5.36-3.06-10.91-4.45-16.4c-0.75-2.96-1.24-5.98-2.01-8.93c-0.45-1.72-1.11-3.41-1.88-5.01c-1.34-2.79-3.36-5.04-5.62-7.19
	c-3.45-3.3-6.77-6.72-10.74-9.38c-6.04-4.04-12.18-7.93-18.28-11.88c-4.48-2.9-9.02-5.69-13.07-9.23
	c-3.16-2.76-6.54-5.31-10.04-7.63c-3.98-2.63-8.22-4.86-12.31-7.33c-7.64-4.61-15.74-8.18-24.28-10.75
	c-0.98-0.3-1.97-0.54-2.95-0.84c-5.65-1.71-11.31-3.41-16.95-5.14c-1.73-0.53-3.39-1.27-5.14-1.72c-3.26-0.85-6.75-0.74-9.81-2.52
	c-1.03-0.6-2.35-0.73-3.55-1.04c-3.08-0.78-6.14-1.68-9.26-2.24c-2.2-0.4-4.51-0.6-6.74-0.42c-2.82,0.22-5.6,0.88-8.39,1.4
	c-4.46,0.82-9.1,0.72-13.31,2.74c-1.64,0.79-3.33,1.5-5.04,2.12c-2.89,1.04-6.02,1.59-8.68,3.02c-4.9,2.64-10.49,3.71-15.1,6.95
	c-0.34,0.24-0.87,0.26-1.32,0.31c-3.69,0.44-6.45,2.82-9.15,4.92c-4.45,3.47-8.51,7.45-12.75,11.19c-1.19,1.05-2.37,2.18-3.73,2.97
	c-6.41,3.72-13.01,7.04-19.93,9.75c-2.09,0.82-4.26,1.83-5.9,3.32c-3.64,3.3-6.36,7.4-8.54,11.81c-2.18,4.4-4.97,8.44-7.24,12.78
	c-1.71,3.26-3.99,6.23-6.13,9.26c-2.59,3.68-4.74,7.64-7.65,11.14c-3.17,3.81-6.03,7.9-8.81,12.02c-2.96,4.38-5.69,8.92-8.45,13.43
	c-0.89,1.46-3.05,2.47-4.68,1.92c-1.51-0.5-2.36-2.03-2.05-3.87c0.11-0.65,0.39-1.31,0.75-1.86c2.29-3.51,1.77-7.82,3.3-11.55
	c0.14-0.33-0.11-0.82-0.21-1.41c-1.36,0.66-2.79,0.99-3.68,1.87c-1.18,1.17-1.96,2.75-2.86,4.18c-3.26,5.18-6.04,10.74-9.88,15.44
	c-3.51,4.29-5.99,9.17-9.21,13.59c-2.83,3.89-4.71,8.49-6.95,12.8c-0.93,1.79-1.71,3.66-2.56,5.49c-1.51,3.26-3.15,6.43-4.51,9.79
	c-1.85,4.57-4.72,8.72-6.39,13.43c-0.48,1.37-1.19,2.65-1.79,3.98c-1.53,3.37-3.04,6.76-4.58,10.12c-1.02,2.22-2.14,4.4-3.12,6.64
	c-0.72,1.65-1.22,3.39-1.92,5.05c-0.78,1.85-1.81,3.6-2.51,5.48c-1.24,3.38-2.14,6.88-3.49,10.21c-1.66,4.08-3.54,8.09-5.49,12.04
	c-1.49,3.03-3.22,5.95-4.89,8.88c-1.22,2.15-2.65,4.18-3.78,6.37c-1.52,2.92-2.86,5.93-4.24,8.91c-1.33,2.88-2.67,5.75-3.9,8.67
	c-0.78,1.86-1.26,3.86-2.05,5.72c-2.3,5.42-4.68,10.8-5.2,16.78c-0.09,1.09-0.68,2.17-1.21,3.17c-1.02,1.93-1.91,2.23-3.9,1.54
	c-2.26-0.79-3.16-1.94-2.66-3.98c0.37-1.49,0.32-3.01,0.79-4.54c0.68-2.21,0.4-4.72,0.56-7.73c-1.59,1.76-1.93,3.25-1.63,4.69
	c0.53,2.5-0.88,4.27-2.17,5.88c-1.76,2.17-2.32,4.56-2.7,7.19c-0.32,2.22-0.88,4.46-1.7,6.54c-0.86,2.21-2.96,3.12-5.29,2.72
	c-2.3-0.39-2.67-2.13-2.87-3.83c0.48-0.78,0.92-1.32,1.19-1.94c2.39-5.59,1.7-9.63-3.84-11.52c-1.82-0.62-3.64-1.32-5.51-1.74
	c-1.45-0.33-2.53-0.96-3.22-2.25c-1.5-2.8-3.21-5.51-4.45-8.42c-1.72-4.06-3.89-7.68-7.55-10.28c-0.72-0.51-1.19-1.35-1.81-1.99
	c-1.74-1.8-3.47-3.74-5.98-4.36c-4.96-1.24-9.89-2.7-15.12-2.32c-1.22,0.09-2.48-0.2-3.72-0.36c-3.15-0.41-6.15,0.3-8.96,1.55
	c-0.98,0.43-1.91,1.74-2.19,2.82c-0.62,2.38-0.81,4.88-1.26,7.83c3.81-0.23,6.03,2.03,8.1,4.54c1.01,1.22,2.15,2.35,3.07,3.64
	c0.7,0.98,1.22,2.11,1.7,3.23c0.61,1.39,0.95,2.92,2.28,4.32c1.03-1.56,2.01-2.82,2.75-4.2c2-3.7,4.99-6.46,8.3-8.89
	c2.8-2.06,6.45-0.41,7.05,3c0.32,1.84-0.36,3.27-1.62,4.62c-1.31,1.4-2.49,2.94-3.58,4.52c-0.81,1.19-1.24,2.65-2.11,3.79
	c-1.64,2.17-3.48,4.19-5.44,6.52c0.39,0.63,0.72,1.48,1.32,2.03c0.98,0.91,2.11,1.67,3.22,2.44c3.07,2.12,6.14,4.23,9.25,6.28
	c0.43,0.28,1.09,0.23,1.65,0.31c2.49,0.37,3.32,1.52,2.69,3.91c-0.16,0.6-0.66,1.12-1.06,1.76c1.2,0.94,2.29,1.59,3.89,0.62
	c-0.3-0.88-0.58-1.69-0.83-2.42c0.59-0.73,1.12-1.45,1.73-2.11c0.37-0.4,0.81-0.83,1.31-1c2.07-0.72,6.23,0.35,7.29,2.26
	c1.34,2.42,3.34,3.13,5.8,3.16c1.79,0.02,3.35,0.49,4.65,1.78c0.39,0.39,0.9,0.78,1.41,0.89c2.12,0.45,2.29,2.08,2.12,3.68
	c-0.15,1.42-0.18,2.62,0.67,3.89c0.45,0.68,0.47,1.73,0.46,2.61c0,1.22-0.21,2.43-0.32,3.58c-0.94,0.56-1.38,1.66-2.64,6.45
	c3.3,0.93,4.34,2.25,3.8,5c-1.51,0.14-3.05,0.28-4.98,0.45c0.21,1.12,0.08,2.36,0.56,2.67c1.9,1.22,2.76,2.54,1.37,4.63
	c1.06,4.11-2.48,7.68-1.4,11.81c0.06,0.24-0.36,0.58-0.44,0.9c-0.16,0.73-0.36,1.49-0.34,2.23c0.03,1.36,0.15,2.72,0.34,4.06
	c0.52,3.59,0.72,7.29,1.8,10.71c0.6,1.9,0.87,3.69,0.95,5.6c0.04,1.02-0.13,2.15,0.22,3.05c1.81,4.65,1.53,9.63,2.37,14.43
	c0.27,1.56,1.18,3.02,1.13,4.43c-0.16,4.39,1.57,8.18,3.18,12.04c0.55,1.33,1.22,2.62,1.85,3.97c0.51-0.16-0.26-2.51,1.56-1.22
	c-1.16,2.36-1.08,4.76-0.13,7.13c0.84,2.1,1.84,4.13,2.68,6.23c1.77,4.45,4.03,8.53,7.24,12.19c1.81,2.07,3.83,4.05,5.01,6.78
	c0.76,1.75,2.44,3.42,5.05,4.61c-0.29-1.68-0.35-2.89-0.71-4c-0.67-2.04-1.5-4.02-2.29-6.02c-2.04-5.16-4.17-10.29-6.13-15.47
	c-1.6-4.23-3.3-8.45-4.41-12.82c-0.66-2.6-1.55-4.89-3.2-6.96c-0.48-0.6-1.06-1.35-1.09-2.05c-0.1-2.39-0.12-4.8,0.11-7.17
	c0.16-1.71,1.98-3.13,3.53-3.17c1.89-0.05,3.77,1.08,3.69,2.8c-0.1,2.11,0.76,3.93,1.03,5.9c0.22,1.64,0.68,3.41,1.59,4.76
	c1.26,1.89,2.3,3.81,3.21,5.89c2.65,6.1,6,11.88,7.3,18.57c0.71,3.66,2.28,7.14,3.36,10.73c0.46,1.51,0.59,3.12,0.96,4.67
	c0.7,2.98,1.62,5.92,2.13,8.92c0.32,1.85,1.42,3.37,1.47,5.41c0.06,2.12-0.21,4.71,1.91,6.41c1.17,0.94,1.39,2.23,1.04,3.7
	c-0.15,0.63,0,1.34,0.08,2.01c0.32,3.01-0.48,6.13,0.96,9.02c-1.74,2.77,0.32,4.6,1.6,6.66c1.2,1.93,2.24,3.82,1.72,6.35
	c-0.63,3.08,1.06,5.54,2.76,8c1.43,2.08,4.12,3.19,4.58,6.05c0.07,0.46,0.97,0.93,1.58,1.14c2.5,0.86,4.27,2.3,4.84,5.05
	c0.17,0.8,1.03,1.43,1.48,2.2c1.38,2.32,4.96,2.28,5.68,5.29c1.44-0.05,1.51,1.51,2.44,2.1c1.02,0.65,1.91,1.5,2.86,2.26
	c0.98,0.78,2.02,1.47,2.92,2.33c1.44,1.38,3.5,2.11,4.28,4.23c0.2,0.54,1.03,0.83,1.55,1.26c0.77,0.65,1.53,1.3,2.28,1.98
	c2.8,2.56,4.45,5.89,6.31,9.12c3.43,5.91,8.23,10.68,13.17,15.34c3.46,3.26,6.73,6.73,10.03,10.16c3.29,3.42,6.35,7.06,9.78,10.33
	c5.47,5.22,10.51,10.74,14.56,17.16c2.04,3.24,4.11,6.54,7.25,8.92c0.8,0.6,1.62,1.34,2.55,1.57c3.73,0.94,7.3,2.62,11.31,2.26
	c1.89-0.17,3.81-0.04,5.72,0.06c0.78,0.04,1.55,0.33,2.31,0.55c2,0.57,4,1.16,6,1.75c0.24-0.17,0.48-0.33,0.72-0.5
	c-2.28-0.83-2.67-2.27-2.17-4.23c1.37,2.03,2.56,4.36,4.76,4.75c2.71,0.48,5.62,0.59,8.4-0.13c0.55-1.78,0.72-3.44-0.9-4.44
	c-1.96-1.22-3.34-2.6-2.76-5.02c-0.49-0.11-0.78-0.28-0.91-0.19c-1.42,0.96-2.77,1.39-4.19-0.05c-0.26-0.27-0.89-0.14-1.31-0.29
	c-1.75-0.63-3.36-1.47-4.04-3.36c-0.58-1.62-1.06-3.27-1.87-5.82c-0.99,4.25-4.15,4.28-6.68,5.52c-0.2-0.99-0.38-1.86-0.45-2.25
	c-1.52-1.17-2.99-1.83-3.75-2.97c-1.53-2.32-2.58-4.96-4-7.36c-1.57-2.64-3.47-5.27-6.2-6.58c-3.34-1.6-5.73-3.77-7.49-6.98
	c-1.46-2.66-2.78-5.48-5.35-7.4c-0.68-0.51-1.45-1.43-1.48-2.19c-0.13-2.71-1.96-4.47-3.25-6.54c-1.2-1.94-2.45-3.81-4.55-4.98
	c-1.81-1-2.7-2.85-3.17-4.71c-0.46-1.82-0.24-3.79-0.55-5.66c-0.28-1.7,0.34-2.82,1.57-3.87c1.73-1.48,3.35-3.07,5.06-4.58
	c1.61-1.42,3.07-3.15,4.93-4.09c4.54-2.3,9.21-4.4,13.95-6.24c3.42-1.33,7.11-1.7,10.69-0.53c2.04,0.66,3.88,1.89,5.88,2.71
	c2.1,0.87,4.27,1.56,6.4,2.33c4.19-1.29,8.17,0.6,12.06,1.37c4.32,0.86,8.67,1.79,13.02,2.51c4.38,0.73,7.09,3.35,9.21,6.9
	c0.76,1.27,1.66,2.56,2,3.96c0.82,3.42,3.88,5.19,5.5,8c0.4,0.69,1.55,1.43,2.26,1.35c2.46-0.28,3.92,1.52,5.84,2.35
	c1.56,0.68,3.15,1.29,4.72,1.94c0.94,0.39,1.94,0.7,2.8,1.22c2.16,1.31,2.99,3.26,2.48,5.46c-0.4,1.73-2.72,3.49-4.86,3.63
	c-1.13,0.07-2.27,0.01-3.13,0.01c-1.06,1.61-1.93,2.93-3.2,4.86c1.8-0.24,2.89-0.57,3.94-0.46c1.09,0.11,2.13,0.74,3.22,0.98
	c0.77,0.17,1.59,0.07,2.39,0.07c1.6,0,3.22-0.16,4.79,0.04c1.31,0.17,2.73,0.51,3.81,1.22c1.87,1.23,1.7,3.53-0.19,4.78
	c-0.64,0.43-1.44,0.61-2.17,0.91c-1.78,0.73-4.01,1.04-5.23,2.31c-1.26,1.32-2.46,1.73-4.03,1.88c-0.15,0.02-0.28,0.3-0.42,0.47
	c0.23,0.56,0.46,1.12,0.69,1.69c-0.88,0.37-1.59,0.67-2.18,0.92c-0.8,3.15,0.1,5.74,1.93,8.52c1.25-0.39,2.78-0.56,3.95-1.29
	c3.37-2.1,6.58-4.43,9.88-6.65c6.01-4.05,11.96-8.22,18.09-12.08c2.66-1.67,5.62-3.22,8.64-3.88c3.56-0.78,6.59-2.08,9.44-4.33
	c3.91-3.09,5.33-7.76,7.99-11.63c2.11-3.07,3.89-6.37,6.06-9.39c2.04-2.83,4.48-5.38,6.6-8.16c2.54-3.32,4.75-6.91,7.42-10.12
	c3.34-4,7.02-7.71,10.53-11.57c0.76-0.83,1.44-1.75,2.08-2.67c0.77-1.12,1.4-2.34,2.21-3.42c3.83-5.08,7.77-10.08,11.54-15.21
	c5.84-7.95,11.17-16.29,18.16-23.33c1.36-1.37,2.13-2.79,1.6-5.16c0.94,0.42,1.55,0.92,1.82,0.77c1.74-0.93,3.76-1.68,5.03-3.08
	c2.03-2.25,4.13-3.4,7.25-2.37c1.15-2.93,2.51-5.65,3.26-8.52c1.27-4.8,3.52-9.24,4.49-14.2c0.78-3.98,2.96-7.69,4.66-11.89
	c-1.06-0.53-2.22-1.18-3.43-1.71c-1.54-0.69-3.23-1.1-4.65-1.98c-1.46-0.9-2.53-2.29-2.39-4.23c0.12-1.73,1.54-2.1,2.77-2.66
	c0.62-0.28,1.29-0.46,1.91-0.75c2-0.94,3.95-0.93,5.9,0.14c1,0.55,2.1,0.95,3,1.63c0.9,0.68,1.69,0.84,2.82,0.65
	c2.76-0.47,5.01,0.96,5.55,3.58c0.32,1.56,1.06,2.45,2.54,2.82c1.1,0.27,2.19,0.53,3.3,0.77c3.73,0.81,7.46,0.02,11.19,0.03
	c8.58,0.03,16.94-1.62,25.23-3.56c3.05-0.71,6.07-1.99,8.81-3.52c4.75-2.65,9.14-5.93,13.92-8.51c5.96-3.23,10.37-7.93,14.05-13.45
	c0.39-0.59,0.43-1.42,0.7-2.4c-0.97,0.1-1.64,0.11-2.28,0.23c-4.86,0.94-9.28,3.09-13.57,5.38c-5.69,3.03-11.68,5.61-16.63,9.95
	c-0.94,0.83-2.21,1.79-3.73,1.01c-1.46-0.75-2.73-1.68-2.78-3.78c3.06-2.66,6-5.69,9.41-8.05c5.12-3.54,9.31-7.96,13.29-12.64
	c1.07-1.26,1.86-2.74,2.93-4.35c-3.55-1.41-6.67-2.73-10.13-2.9c-5.09-0.24-10.18-0.63-15.26-0.6c-2.21,0.01-4.43,0.86-6.62,1.45
	c-0.45,0.12-0.91,0.7-1.12,1.18c-1.03,2.26-1.98,4.56-2.97,6.83c-1.19,2.72-1.74,3.04-4.59,2.63c-0.54-0.08-1.07-0.21-1.9-0.39
	c-0.47,1.4-0.84,2.7-1.34,3.93c-1,2.46-2.78,3.12-5.2,2.19c-2.11-0.81-3.01-2.26-2.91-4.48c0.13-2.94,0.22-5.89,0.3-8.83
	c0.07-2.83-0.13-5.69,0.18-8.49c0.59-5.36,0.24-6.58-3.93-10c-1.05-0.86-2.18-1.6-3.33-2.45c-1.87,0.96-3.97,1.21-5.04,3.34
	c-0.3,0.59-1.25,1.07-1.96,1.19c-2.84,0.47-4.52,2.32-6.16,4.45c-1.93,2.5-4.1,4.83-6.25,7.16c-1.15,1.25-2.62,1.66-4.36,1.32
	c-4.18-0.82-8.33-0.55-12.55,0.03c-2.53,0.35-5.47,0.58-7.7-0.37c-3.2-1.36-5.49-4.27-7.46-7.24c-1.77-2.68-1.19-5.69-1.33-8.61
	c-0.09-1.81-0.04-3.7-0.58-5.38c-0.8-2.48-0.54-4.84-0.09-7.26c0.32-1.73,0.03-2.29-1.7-2.38c-0.9-0.05-1.86-0.04-2.7,0.23
	c-1.28,0.41-2.27-0.01-3.14-0.77c-0.76-0.67-1.52-1.42-2.01-2.29c-0.71-1.25-1.67-1.52-2.87-1.09c-3.39,1.19-6.75,2.45-10.28,3.75
	c0.89,4.49-2.39,5.86-5.45,7.57c1.87,2.46,3.46,4.79,5.3,6.91c3.86,4.45,7.79,8.85,11.82,13.14c3.07,3.26,5.83,6.85,9.96,9.01
	c1.21,0.63,2.38,2,2.82,3.29c0.94,2.69,2.93,3.91,5.3,4.87c3.26,1.32,6.51,2.66,9.8,3.91c0.94,0.36,1.99,0.62,2.99,0.61
	c2.38-0.01,4.79-0.04,7.14-0.38c1.99-0.28,3.9-1.38,5.88-1.45c3.42-0.13,6.35-1.38,9.26-2.93c1.75-0.93,3.53-0.82,5.23,0.13
	c1.26,0.7,2.44,3.48,1.62,4.42c-2.02,2.32-3.63,5.14-7.49,5.22c-2.27,0.05-4.95,0.67-6.67,2.02c-3.68,2.9-7.58,2.94-11.58,1.82
	c-5.12-1.44-10.21-3.1-15.15-5.09c-6.86-2.77-13.36-6.22-18.96-11.26c-1.82-1.63-3.11-3.56-4.63-5.37
	c-3.23-3.84-7.15-6.9-11.33-9.65c-0.76-0.5-1.76-0.93-2.13-1.65c-1.04-2-2.73-2.11-4.59-2.05c-3.51,0.12-7.03,0.37-10.54,0.3
	c-3.52-0.07-7.03-0.39-9.81-3.04c-0.53-0.5-1.32-0.73-2.22-1.21c-0.6,1.05-1.11,1.91-1.58,2.78c-1.43,2.64-3.94,3.11-6.1,1
	c-0.93-0.9-1.6-2.08-2.5-3.27c-1.7,2.27-3.79,4.1-4.2,7.23c-0.33,2.53-1.45,4.95-2.2,7.43c-0.89,2.92-1.85,5.83-2.63,8.78
	c-0.97,3.71-1.62,7.53-3.42,10.97c-0.65,1.24-1.71,2.08-1.72,3.86c-0.01,1.64-3,2.49-2.23,4.89c0.01,0.03-0.17,0.13-0.37,0.28
	c-0.76-0.07-1.63-0.14-2.73-0.24c0,1,0,1.84,0,2.77c-0.95,0.09-1.67,0.15-2.14,0.2c-1.58,2.92-0.91,5.69,0.2,8.12
	c0.84,1.83,0.85,3.14-0.41,4.45c0.74,1.6,1.38,3.01,2.01,4.38c-2.16,1.89-4.34,3.7-6.42,6.33c1.27,0.54,2.19,0.93,3.19,1.35
	c-0.12,0.25-0.21,0.75-0.51,1.02c-1.9,1.75-2.32,3.99-2.64,6.45c-0.26,1.92,0.08,4-0.63,5.73c-1.37,3.37,0.19,6.7-0.26,10.08
	c-0.28,2.11,1.39,4.42,1.88,6.7c0.65,3.04,1.82,6.3-1.67,8.63c-0.43,0.29-0.87,0.91-0.9,1.4c-0.11,2.07-1.66,3.09-2.85,4.42
	c-0.89,0.99-1.61,2.15-2.27,3.31c-0.95,1.66-1.65,2.07-3.21,1.1c-2.13-1.32-3.84-0.92-5.94,0.29c-2.39,1.38-5.02,2.55-7.99,2.32
	c-0.99-0.07-2,0.13-3.1,0.21c-0.23,3.61-2.61,4.5-5.52,4.83c-0.76,0.09-1.78,0.3-2.15,0.82c-1.29,1.82-2.85,1.82-4.94,1.93
	c-4.16,0.23-8.27,1.04-12.48,0.49c-0.97-0.13-2.01,0.36-3.02,0.36c-1.09,0-2.35,0.05-3.23-0.46c-1.37-0.8-2.35-0.55-3.38,0.37
	c-0.76,0.68-1.52,1.36-2.22,2.1c-0.19,0.2-0.16,0.62-0.24,1.03C584.92,635.73,585.6,636.11,586.43,636.57z M707.47,459.44
	c6.37-0.19,12.84-0.38,19.31-0.56c0.44-0.01,0.91,0.03,1.31,0.18c3.91,1.48,7.93,2.74,11.68,4.57c4.1,2,8.39,3.33,12.74,4.45
	c5.85,1.51,11.6,3.21,16.92,6.15c4.58,2.53,9.44,4.37,14.45,5.9c4.54,1.38,8.95,3.21,13.42,4.85c1.56,0.57,3.13,1.14,5.09,1.86
	c0.19-1.24,0.41-2.08,0.42-2.92c0.01-1.24-0.22-2.49-0.18-3.74c0.15-4.42,0.32-8.85,0.57-13.27c0.2-3.62,0.52-7.24,0.8-10.86
	c0.18-2.26,0.46-4.52,0.54-6.78c0.07-1.91-1.79-4.51-3.6-4.82c-3.22-0.56-6.43-1.56-9.78-0.5c-0.77,0.24-1.96,0.16-2.57-0.29
	c-2.3-1.69-4.98-2.02-7.62-2.62c-7.18-1.62-14.4-1.98-21.64-0.67c-1.61,0.29-2.8,0.01-4.19-0.65c-3.17-1.49-6.47-2.72-9.65-4.19
	c-2.15-0.99-3.93-0.4-5.77,0.73c-2.6,1.6-5.29,3.05-7.88,4.67c-4.03,2.52-8.71,3.75-12.51,6.8c-3.95,3.17-8.3,5.86-12.46,8.77
	c-0.15,0.11-0.22,0.33-0.25,0.39C706.88,457.69,707.12,458.4,707.47,459.44z M832.01,282.58c-0.23,0.01-0.46,0.01-0.7,0.02
	c-0.24,0.62-0.58,1.23-0.69,1.87c-0.73,4.01-1.49,8.02-2.09,12.05c-0.74,4.93-1.41,9.88-2,14.83c-0.59,4.96-0.73,9.99-1.61,14.88
	c-1.15,6.42-1.5,12.91-2.49,19.34c-0.62,4-1.24,7.99-1.87,11.99c-0.72,4.57-1.47,9.14-2.19,13.71c-0.05,0.33,0.01,0.69-0.03,1.02
	c-0.54,4.86-0.71,9.79-1.76,14.54c-0.72,3.29-0.9,6.51-1.04,9.8c-0.18,4.2-0.37,8.41-0.78,12.59c-0.16,1.64-0.7,3.36-1.5,4.81
	c-1.49,2.69-1.67,5.5-1.44,8.41c0.41,5.07,1.6,10.11,1.02,15.22c-0.57,5.03,0.52,9.33,4.24,13.02c2.45,2.43,4.35,5.41,7.07,7.56
	c0.34-0.27,0.64-0.38,0.67-0.55c0.96-4.44,2.61-8.59,4.88-12.54c2.44-4.23,3.38-8.92,2.98-13.72c-0.35-4.26-0.54-8.48-0.02-12.73
	c0.38-3.04,0.75-6.08,1.12-9.12c0.87-7.2,3.31-14.13,3.7-21.41c0.02-0.45,0.17-0.89,0.27-1.33c0.73-3.2,1.99-6.38,2.1-9.6
	c0.28-7.97,0.4-15.97-0.15-23.91c-0.27-3.86-1.87-7.66-2.67-11.56c-1.34-6.48-2.57-12.92-2.37-19.57c0.05-1.71-0.07-3.42-0.11-5.13
	c-0.16-5.8-0.34-11.6-0.46-17.4c-0.04-1.91,0.37-3.87,0.1-5.74C833.63,290.12,832.75,286.36,832.01,282.58z M648.04,127.59
	c-1.07-0.62-1.33-0.87-1.64-0.94c-4.42-0.98-8.87-1.86-13.26-2.94c-2.08-0.51-4.05-1.42-6.09-2.09c-2.13-0.7-4.12-1.95-6.52-1.61
	c-3.88,0.55-7.5,1.78-10.81,3.91c-1.14,0.73-2.28,1.5-3.49,2.11c-5.11,2.56-9.65,5.93-13.91,9.72c-2.54,2.27-5.31,4.28-7.75,6.65
	c-2.92,2.85-5.92,5.71-8.3,8.99c-3.24,4.47-5.91,9.33-8.83,14.03c-0.66,1.06-1.39,2.08-1.92,3.21c-0.28,0.6-0.21,1.37-0.38,2.71
	c4.03-1.93,7.49-3.56,10.93-5.24c3.07-1.51,6-3.23,8.26-5.88c0.15-0.17,0.34-0.31,0.53-0.43c7.56-4.99,13.91-11.62,21.86-16.07
	c1.78-1,3.5-2.18,5.4-2.85c6.4-2.28,12.91-4.24,19.29-6.57C636.8,132.32,642.09,130,648.04,127.59z M472.99,280.53
	c-2.24,0.21-2.91,1.48-3.72,2.53c-0.34,0.44-0.46,1.03-0.8,1.46c-2.6,3.25-5.13,6.56-7.86,9.7c-3.99,4.58-6.04,10.28-9.12,15.38
	c-1.26,2.09-1.97,4.45-4.19,5.84c-0.54,0.34-1,0.96-1.28,1.55c-0.63,1.32-1.09,2.72-1.67,4.07c-1.17,2.68-2.02,5.59-3.64,7.97
	c-2.58,3.79-4.29,7.85-5.12,12.28c-0.57,3.04-1.05,6.03-3.19,8.47c-0.49,0.56-0.7,1.36-1.01,2.07c-2.42,5.42-3.15,11.3-4.61,16.99
	c-0.13,0.52-0.02,1.14,0.1,1.69c0.46,2.12-0.22,3.73-1.91,5.08c-0.87,0.69-1.67,1.58-2.2,2.55c-1.47,2.68-2.78,5.44-4.09,8.05
	c1.97,3.25,1.94,3.25,1.26,6.84c-0.09,0.49,0.22,1.07,0.38,1.72c0.89-1.64,1.65-2.96,2.35-4.31c0.83-1.62,1.81-3.2,2.39-4.91
	c1.62-4.76,4.5-8.87,6.8-13.27c1.67-3.19,3.85-6.08,4.82-9.66c0.67-2.47,1.45-5.09,2.89-7.14c2.19-3.11,3.67-6.47,4.91-9.99
	c0.97-2.77,1.77-5.62,2.95-8.3c2.29-5.17,4.79-10.25,7.24-15.35c1.51-3.15,3.17-6.24,4.58-9.43c2.12-4.82,3.99-9.76,6.14-14.57
	c1.94-4.32,4.16-8.52,6.16-12.81C472.13,283.74,472.43,282.31,472.99,280.53z M558.46,696.57c-0.71,0.47-1.91,1.44-2.05,1.31
	c-1.27-1.2-2.05,0.17-2.99,0.43c-1.05,0.29-2.06,0.74-3.21,1.17c-1.59-2.68-1.8-6.76-6.25-5.56c-2.13-3.76-2.13-3.76-4.78-1.79
	c0.97,0.08,1.92,0.17,3.01,0.26c-0.05,0.65,0.06,1.16-0.14,1.5c-1.1,1.84-0.64,3.41,0.57,5.01c0.74,0.98,1.3,2.11,1.83,3.23
	c1.06,2.24,1.86,4.65,4.41,5.76c1.55,0.67,3.04,1.51,4.61,2.12c1.44,0.56,2.5,1.41,3.36,2.73c0.58,0.89,1.55,1.63,2.5,2.16
	c1.68,0.94,3.65,1.43,5.19,2.53c2.14,1.53,4.55,2.2,6.98,2.57c3.28,0.5,6.65,0.44,9.57-1.54c1.14-0.77,2.06-1.42,3.65-1.24
	c1.98,0.22,3.59-1.85,3.83-4.54c-1.36,0.09-2.66,0.18-3.73,0.25c-1.05-0.99-1.99-1.89-2.96-2.81c0.28-0.18,0.55-0.5,0.85-0.52
	c0.76-0.06,1.53-0.01,2.3,0.02c1.37,0.04,1.81-0.49,1.41-1.85c-0.12-0.4-0.47-0.74-0.75-1.16c-0.4,0.14-0.71,0.23-1,0.37
	c-0.38,0.18-0.75,0.39-0.79,0.41c-3.8-1.06-2.75-4.9-4.52-6.93c-2.22,0.69,0.57,3.37-2.04,3.86c-0.56-0.78-1.17-1.65-1.71-2.41
	c-2.28-0.02-2.46,1.89-3.37,3.06c1.23,2.68,1.23,3.01-0.14,5.31c-1.72-2.63-0.87-5.72-1.71-8.91c-1.33,0.75-2.42,1.36-3.59,2.02
	c-0.76-1.11-1.55-2.27-2.26-3.3c0.62-1.47,2.88-2.38,0.83-4.14C563.63,698.96,562.09,699.09,558.46,696.57z M506.11,409.73
	c-0.19,1.05-0.29,1.27-0.25,1.46c0.04,0.21,0.25,0.38,0.33,0.59c0.52,1.47-0.06,3.36-1.44,4.44c-1.34,1.05-2.5,0.58-3.65-0.45
	c-0.53-0.47-1.25-0.71-2.22-1.25c-0.15,1.75-0.26,3.04-0.36,4.34c-0.12,1.56-0.25,3.12-0.34,4.68c-0.04,0.67,0.15,1.36,0.05,2.01
	c-1.03,6.78-0.42,13.33,2.36,19.67c1.34,3.06,3.12,4.48,6.37,4.51c1.48,0.01,2.96-0.03,4.44-0.09c1.87-0.07,3.2-0.92,3.96-2.7
	c0.63-1.46,1.53-2.81,2.07-4.3c0.78-2.13,1.68-4.49,0.36-6.58c-1.62-2.56-1.45-4.65,0.08-7.2c1.1-1.83,1.25-4.37-0.2-6.12
	C514.11,418.41,510.24,414.33,506.11,409.73z M754.85,481.64c1.16,1.71,2.07,3.09,3.02,4.45c1.76,2.51,3.23,5.03,3.77,8.22
	c0.61,3.64,1.99,7.14,3,10.61c4.97,0.84,6.39,0.29,8.64-3.69c1.16-2.04,2.69-3.64,4.57-4.99c1.82-1.32,3.57-2.74,5.78-4.44
	c-1.7-1.01-2.98-1.65-4.13-2.49c-4.45-3.23-9.43-5.55-14.47-7.55C762.09,480.59,758.66,480.51,754.85,481.64z M812.95,496.07
	c1.3-3.24,2.64-6.33,3.78-9.48c1.42-3.92,2.88-7.84,3.93-11.86c0.47-1.77,0.64-4.15-0.18-5.63c-2.18-3.94-4.96-7.56-7.53-11.28
	c-0.4-0.58-0.94-1.05-1.91-2.12c-0.4,2.47-0.77,4.22-0.96,6c-0.29,2.71-0.42,5.43-0.68,8.14c-0.16,1.69-0.6,3.37-0.63,5.06
	c-0.1,5.02,0.11,10.05-0.13,15.05C808.49,493.29,810.14,494.91,812.95,496.07z M603.41,724.37c-0.37,0.98-0.44,2.14-0.97,2.42
	c-1.63,0.85-1.87,2.19-1.84,3.71c0.03,1.56,0.17,3.11,0.27,4.71c-1.08,0.7-2.11,1.36-3.06,1.97c-1.17-0.63-2.16-1.16-2.94-1.59
	c-0.24-0.78-0.43-1.37-0.61-1.96c-0.71,2.7,0.69,4.89,1.42,7.18c0.86,2.69,1.13,2.6-1.67,4.33c-0.02-0.36-0.07-0.68-0.04-1
	c0.08-0.91-0.48-1.38-1.2-1.11c-0.41,0.15-0.85,1.07-0.76,1.53c0.38,1.76,1.41,2.62,3.22,2.23c2.17-0.47,4.35-1.24,6.31-2.28
	c1.31-0.7,3.46-0.88,3.37-3.21c0-0.1,0.34-0.22,0.58-0.37c0.7,0.25,1.44,0.52,2.31,0.83c0.87-0.88,2.61-1.05,2.25-3.2
	c-1.02-0.28-2.31-0.56-2.42-2.07c0.5-0.53,0.98-1.03,1.59-1.69c-0.78-0.09-1.2-0.14-2.01-0.24c0.31-1.58,0.61-3.07,0.86-4.35
	C606.55,728.32,605.03,726.41,603.41,724.37z M714.88,430.86c-1.24-0.39-1.89-0.78-2.53-0.76c-3.05,0.09-6.11,0.24-9.15,0.5
	c-0.86,0.07-1.85,0.41-2.49,0.96c-3.01,2.56-5.92,5.24-8.95,7.94c0.43,0.58,0.61,1.05,0.95,1.27c2.42,1.58,3.01,3.41,1.29,5.98
	c-0.61,0.91-0.64,2.32,0.2,3.42c3.55-1.99,4.69-4.94,4.9-8.25c0.23-3.54,1.17-4.29,4.48-3.44c1.98,0.51,3.54,0.21,4.96-1.28
	C710.49,435.18,712.53,433.22,714.88,430.86z M527.88,416.39c1.09,0.92,1.66,1.45,2.27,1.93c2.68,2.07,4.53,4.67,5.59,7.93
	c0.62,1.91,1.83,3.61,2.56,5.5c0.93,2.44,3.27,4.1,3.63,6.83c0.32,2.47,0.74,4.92,1.06,7.39c0.13,0.98,0.12,1.98,0.17,2.98
	c0.21,0.01,0.42,0.02,0.62,0.03c1.09-4.6,2.18-9.2,3.24-13.69c-1.08-0.95-1.87-1.78-2.79-2.44c-2.52-1.83-3.86-4.08-4.28-7.33
	C539.28,420.17,534.39,416.57,527.88,416.39z M744.86,425.66c-0.09,0.24-0.18,0.48-0.26,0.72c1.34,1.48,2.41,3.45,4.07,4.32
	c3.18,1.67,6.68,2.93,10.36,2.91c5.51-0.02,11.02-0.31,16.76-0.49c-0.39-0.29-0.68-0.63-1.04-0.76c-3.73-1.3-7.42-2.73-11.21-3.77
	c-3.26-0.89-6.63-1.41-9.98-1.94C750.66,426.21,747.75,425.99,744.86,425.66z M520.46,230.37c4.18-3.93,7.07-8.87,10.52-13.38
	c3.87-5.05,8.54-12.33,8.96-15.32c-1.31,0.74-2.52,1.13-3.35,1.92C528.79,211,522.84,219.56,520.46,230.37z M696.51,481.12
	c3.69-0.14,6.51-1.27,9.1-2.93c0.9-0.57,1.89-1.43,2.22-2.37c0.62-1.76,1.79-2.48,3.42-2.92c4.32-1.18,8.63-2.41,12.93-3.67
	c0.74-0.22,1.42-0.66,2.13-1c-0.06-0.25-0.13-0.49-0.19-0.74c-2.82,0-5.65-0.1-8.46,0.03c-1.8,0.08-3.71,0.17-5.33,0.84
	c-2.77,1.15-5.94,1.51-8.1,4.03c-2.12,2.48-4.45,4.78-6.68,7.18C697.23,479.9,697.04,480.32,696.51,481.12z M561.1,162.36
	c-5.99,7.38-12.71,13.93-17.41,22.09c-0.3,0.52-0.41,1.15-0.8,2.27c3.5-2.56,6.63-4.59,9.44-6.99c1.68-1.44,3.04-3.35,4.2-5.26
	c1.57-2.6,2.81-5.4,4.19-8.11C561.34,165.16,561.93,163.96,561.1,162.36z M837.21,281.16c1.68-0.68,1.42-1.82,1.53-2.8
	c0.18-1.46,0.24-2.95,0.55-4.38c0.96-4.38,0.92-8.82,0.85-13.26c-0.02-1.22-0.19-2.31-2.14-2.32c-1.69,3.58-2.52,7.57-3.61,11.47
	c-0.11,0.39,0.16,0.88,0.25,1.32c0.56,2.54,1.09,5.09,1.69,7.63C836.52,279.56,836.88,280.27,837.21,281.16z M489.64,435.89
	c-0.17-1.42-0.24-2.41-0.42-3.38c-0.36-1.88-0.85-3.74-1.18-5.63c-0.86-4.99-2.14-9.85-4.16-14.5c-0.33-0.77-0.54-1.85-1.92-1.45
	c-1.13,1.76-0.01,3.51,0.22,5.21c0.6,4.44,0.35,9.1,2.8,13.14C486.29,431.44,486.8,434.15,489.64,435.89z M588.04,679.99
	c2.88,1.53,5.29,2.9,7.79,4.1c1.43,0.7,2.96,0.58,4.89-0.16c-1.52-2.77-2.97-5.26-4.27-7.83c-0.75-1.47-1.99-1.97-3.35-1.67
	c-1.48,0.32-2.87,1.09-4.27,1.73c-0.23,0.11-0.3,0.56-0.47,0.91c0.37,0.68,0.74,1.35,1.1,2
	C589.03,679.35,588.7,679.56,588.04,679.99z M599.74,705.86c0.44,0.77,1.35,1.71,0.05,2.89c-2.8-0.33-5.7-0.35-8.36-1.91
	c-1.6-0.94-3.23,0.09-3.15,1.67c0.1,1.92,2.94,3.79,4.76,2.94c2.84-1.33,5.77-1.72,8.85-1.56c2.05,0.1,4.08,0.03,5.48-0.94
	c0.29-2.09,0.54-3.86,0.78-5.62c-1.05-0.36-2.16-0.75-3.22-1.12c-0.1,0.63-0.01,1.49-0.29,1.63
	C603.12,704.58,601.51,705.15,599.74,705.86z M489.07,328.43c1.11,3.49,2.68,5.93,5.15,7.69c1.88,1.34,3.55,2.77,4.32,5.06
	c0.2,0.59,0.68,1.24,1.21,1.54c1.85,1.04,3.76,1.99,6.65,1.76c-1.5-1.67-2.55-3.13-3.89-4.25c-2.73-2.31-4.67-5.15-6.29-8.27
	c-0.29-0.57-0.84-1.02-1.34-1.46C493.38,329.16,491.46,328.98,489.07,328.43z M340.46,418.23c-0.92-5.33-2.99-9.88-7.17-14.01
	c-0.23,0.98-0.39,1.37-0.42,1.78c-0.2,2.53,0.44,4.9,1.1,7.32C335.29,418.1,335.16,418.13,340.46,418.23z M756.61,505.27
	c-2.09-3.77-3.85-7.65-7.49-11.12c0,2.13-0.1,3.6,0.02,5.04C749.52,503.78,752.29,506.09,756.61,505.27z M582.23,738.24
	c0.95,1.42,1.83,2.65,2.61,3.94c0.32,0.54,0.51,1.21,0.6,1.84c0.43,2.85,0.61,2.99,3.66,2.46c-1-3.19-0.81-6.96-4.73-8.91
	C584.01,737.68,583.28,737.91,582.23,738.24z M730.79,424.16c3.29,2.8,7.47,3.07,11.49,0.63
	C738.38,423.07,734.75,422.4,730.79,424.16z M426.59,600.31c0.24-0.21,0.47-0.42,0.71-0.64c-1.36-3.09-2.72-6.18-4.34-9.87
	c-1.23,4.2,1.12,6.71,2.23,9.54C425.36,599.78,426.11,600,426.59,600.31z M489.47,406.54c0.01,3.16,0.87,5.54,2.96,7.52
	C494.12,411.52,493,408.64,489.47,406.54z M571.9,730.49c1.18,1.95,2.44,3.74,5.38,3.62c-0.62-1.45-1.01-2.7-1.66-3.79
	C574.78,728.88,573.41,728.96,571.9,730.49z M342.53,421.98c-1.94-2.55-3.54-3.13-6.19-2.24
	C337.65,422.55,337.95,422.66,342.53,421.98z M703.61,493.63c-1.41,0.79-2.52,1.42-3.62,2.04c0.08,0.26,0.16,0.53,0.24,0.79
	c1.89,0.37,3.78,1.14,5.98-0.54C705.29,495.12,704.57,494.47,703.61,493.63z M613.64,732.65c-1.26,0.9-2.22,1.59-3.46,2.48
	c1.65,0.95,2.98,0.86,4.39,0.47C615.12,733.95,614.8,732.93,613.64,732.65z"/>
<path d="M454.41,723.08c-0.93,0.42-1.3,0.74-1.66,0.73c-2.27-0.05-4.57-0.44-6.8-0.19c-2.48,0.28-4.32-1.16-6.45-1.76
	c-0.6-0.17-0.98-1.16-1.87-2.3c1.89,0,3.51-0.45,4.62,0.12c1.31,0.67,2.28,0.58,3.48,0.17c1.81-0.61,3.43-0.74,4.87,1.07
	C451.31,721.81,452.69,722.15,454.41,723.08z"/>
<path d="M766.22,42.13c0.89-0.95,1.79-1.91,2.8-3c1.76,0.51,3.47,1,5.18,1.49C772.95,44.83,769.77,45.5,766.22,42.13z"/>
<path d="M322.06,533.14c0,1.2,0,2.4,0,3.54c-1.16,0.86-2.37,1.08-3.07-0.09c-0.44-0.74-0.56-2.12-0.15-2.83
	C319.45,532.69,320.67,532.03,322.06,533.14z"/>
<path d="M433.22,714.92c2.59-1.65,2.59-1.65,8.14-0.52c0.49,1.27-0.25,1.72-1.3,1.6C437.97,715.76,435.91,715.35,433.22,714.92z"/>
<path d="M696.45,368.32c0.34-2.01,1.42-2.67,2.89-2.86c1.2-0.16,2.38-0.03,2.81,1.29c0.21,0.65,0.24,1.69-0.14,2.13
	c-0.8,0.95-1.98,1.64-3.31,1.03C697.9,369.56,697.24,368.91,696.45,368.32z"/>
</svg>
