<?xml version="1.0" encoding="utf-8"?>
<!-- Generator: Adobe Illustrator 24.1.0, SVG Export Plug-In . SVG Version: 6.00 Build 0)  -->
<svg version="1.1" id="_x33_0_xA0_Image_1_" xmlns="http://www.w3.org/2000/svg" xmlns:xlink="http://www.w3.org/1999/xlink"
	 x="0px" y="0px" viewBox="0 0 860 801" style="enable-background:new 0 0 860 801;" xml:space="preserve">
<path d="M590.19,474.18c1.62-1.09,3.24-2.04,4.7-3.2c7.67-6.1,15.31-12.25,22.95-18.39c2.38-1.92,4.83-1.6,7.52-0.65
	c2.48,0.87,5.18,2.09,7.65,1.84c6.82-0.68,10.44,3.43,13.74,8.17c5.46,7.84,5.84,17.05,3.52,25.46c-1.67,6.05-6.76,11.28-10.8,16.51
	c-4.04,5.23-8.93,9.8-12.95,15.04c-3.86,5.03-9.07,8.22-14.05,11.74c-4.12,2.91-7.11,5.86-6.84,11.7
	c0.25,5.19-1.05,10.48-1.93,15.68c-0.22,1.31-1.59,2.38-2.22,3.67c-5.04,10.29-5.67,21.05-3.09,32.05c0.57,2.43-0.24,4.02-1.53,5.93
	c-6.76,9.95-16.44,16.5-26.65,22.08c-9.71,5.31-18.73,11.45-27.09,18.6c-6.43,5.5-12.82,11.06-19.12,16.71
	c-1.71,1.54-3.37,3.31-4.5,5.29c-5.11,8.9-10.02,17.93-15.03,26.89c-3.95,7.07-7.58,14.36-12.03,21.1
	c-5.35,8.09-10.4,16.52-19.54,21.39c-3.42,1.82-5.86,5.4-9.05,7.76c-6.78,5.01-13.49,10.19-20.74,14.45
	c-5.39,3.17-11.53,5.08-17.41,7.35c-1.66,0.64-3.59,0.78-5.4,0.8c-8,0.11-16-0.09-23.99,0.17c-7.8,0.25-15.43-0.87-22.51-3.8
	c-12.2-5.06-24.92-7.11-37.9-8.17c-10.14-0.82-20.24-1.9-29.9-5.26c-4.22-1.47-8.39-3.26-12.29-5.43
	c-9.15-5.07-18.12-10.48-27.18-15.72c-6.05-3.49-11.99-7.21-18.24-10.29c-5.94-2.93-10.78-7.18-15.66-11.45
	c-12.26-10.72-24.53-21.43-36.71-32.24c-5.22-4.63-9.92-9.88-15.38-14.19c-8.46-6.7-17.32-12.9-26.09-19.21
	c-12.96-9.32-25.87-18.7-39.03-27.74c-6.55-4.5-10.43-10.98-14.58-17.33c-3.63-5.55-6.94-11.31-10.38-16.98
	c-0.52-0.85-1-1.73-1.73-2.99c-2.14,1.95-3.4,3.21-4.77,4.32c-4.9,3.99-9.4,3.21-13.76-1.4c-3.05-3.22-6.94-5.65-10.45-8.43
	c-6.94-5.51-12.95-11.72-17.92-19.22c-3.46-5.23-3.2-10.78-3.78-16.24c-0.88-8.24-0.94-16.58-1.21-24.88
	c-0.07-2.31,0.24-4.64,0.57-6.94c0.72-5.04-0.77-8.2-5.26-10.75c-1.16-0.66-2.28-1.38-3.48-1.95c-2.83-1.37-2.02-3.83-1.94-6.1
	c0.08-2.26,1.61-3.41,3.47-3.66c8.06-1.09,13.57-6.37,19.61-11.09c7.19-5.61,14.86-10.62,24.07-12.59c2.71-0.58,4.67,0.24,6.95,1.62
	c5.78,3.51,8.01,9.14,9.55,15.13c2.14,8.33,4.15,16.7,5.74,25.15c0.79,4.2,0.7,8.61,0.67,12.92c-0.03,3.41-2.02,5.45-4.64,5.47
	c-2.57,0.02-5.06-2.46-5.4-5.54c-0.75-6.77-1.32-13.55-2.2-20.3c-0.22-1.68-0.9-3.91-2.14-4.75c-5.49-3.71-11.04-7.43-16.98-10.31
	c-5.83-2.83-8.64-1.65-11.89,4.05c-2.2,3.88-3.94,8.04-5.71,12.14c-1.56,3.61-0.98,6.72,1.31,10.23
	c6.77,10.4,12.88,21.22,19.44,31.76c4.21,6.76,8.69,13.36,13.18,19.93c0.96,1.4,2.52,2.39,4.32,4.05c3.36-5.58,5.87-10.69,6.69-16.5
	c0.36-2.56,1.37-4.54,4.04-5c2.24-0.38,4.29,1.74,4.88,4.66c0.03,0.16,0.06,0.33,0.07,0.49c1.11,12.5,6.48,23.46,13.98,33
	c5.8,7.37,13.14,13.65,20.3,19.81c11.26,9.68,24.15,16.91,37.43,23.48c3.39,1.68,6.33,4.23,9.54,6.3
	c5.57,3.6,11.28,6.98,16.74,10.73c7.78,5.34,15.49,10.79,23.05,16.45c6.34,4.75,13.44,8,20.61,11.07
	c9.3,3.99,18.72,7.74,28.24,11.17c11.54,4.15,21.76,10.58,31.8,17.39c10.45,7.09,20.99,14.06,31.15,21.55
	c8,5.91,15.69,12.29,23.11,18.92c7.29,6.52,15.54,10.53,25.05,12.52c7.5,1.57,14.89,3.45,22.67,2.98c8.37-0.5,16.38-2.68,24.23-5.26
	c3.2-1.05,6.15-3.34,8.77-5.58c8.73-7.47,16.44-15.79,22.82-25.51c4.05-6.17,9.88-11.17,14.85-16.75c2.31-2.6,4.47-5.33,6.7-8
	c2.02-2.42,4.03-4.85,6.09-7.24c2.7-3.13,5.22-6.48,8.24-9.28c3.26-3.02,6.65-6.27,10.61-8.06c7.27-3.29,9.59-9.6,10.72-16.26
	c2.02-12,4.7-23.73,8.97-35.15c2.3-6.15,2.23-12.67,0.12-18.96c-1.02-3.03-1.24-5.73,0.5-8.56c1.82-2.97,3.22-6.19,5.11-9.11
	c3.88-5.99,4.48-13.12,7.08-19.55c0.29-0.72,0.39-1.72,0.14-2.44c-1.52-4.37,0.43-7.08,3.68-9.86c2.29-1.96,3.95-4.85,5.34-7.61
	c2.69-5.32,5.99-7.02,11.12-4.17c3.88,2.15,7.36,2.15,11.44,1.1c8.52-2.2,17.28-1.28,25.81-0.32c4.72,0.53,8.07-0.99,11.46-3.37
	c11.21-7.88,18.38-19.44,27.11-29.61c4.48-5.22,5.73-10.97,5.99-17.43c0.31-7.96-6.17-14.17-14.02-12.87
	c-3.19,0.53-6.11,0.81-9.26-0.49c-1.28-0.53-3.67,0.16-4.85,1.14c-5.11,4.24-9.97,8.79-14.9,13.25c-0.74,0.67-1.35,1.47-2.04,2.2
	c-5.27,5.62-9.22,6.07-15.69,1.76c-3.13-2.08-3.82-3.97-2.01-7.11c2.34-4.04,3.21-8.34,3.12-12.91c-0.17-8.66,0.86-17.04,3.53-25.42
	c3.27-10.25,5.93-20.75,7.88-31.33c1.62-8.78,3.33-17.63,2.92-26.73c-0.38-8.32,0.52-16.75-0.44-24.97
	c-1.22-10.47-3.42-20.81-6.25-31.08c-3.43-12.47-9.38-23.74-14.55-35.37c-3.75-8.44-8.15-16.71-13.22-24.43
	c-8.47-12.89-17.74-25.25-29.42-35.56c-2.49-2.19-4.74-4.66-6.96-7.14c-4.35-4.86-8.98-9.33-14.84-12.37
	c-1.32-0.69-2.61-1.55-3.68-2.57c-8.19-7.85-18.49-11.6-28.96-14.99c-7.11-2.3-14.21-4.82-21.49-6.42
	c-8.91-1.95-17.97-3.83-27.03-4.27c-8.58-0.42-16.84-2.09-25.16-3.67c-16.11-3.06-32.36-4.7-48.68-3.57
	c-12.24,0.85-24.34,3.24-36.42,5.67c-9.86,1.98-19.37,4.73-28.53,8.69c-9.77,4.23-19.36,8.88-29.04,13.33
	c-1.81,0.83-3.65,1.61-5.5,2.38c-10.89,4.56-21.83,9-32.67,13.69c-7.4,3.2-13.86,7.7-19.22,13.93
	c-7.47,8.69-15.11,17.27-20.68,27.32c-3.11,5.61-5.41,11.71-7.71,17.73c-5.05,13.17-10.08,26.25-19.39,37.27
	c-7.54,8.92-12.67,19.36-17.02,30.16c-0.31,0.77-0.77,1.54-0.85,2.34c-0.74,7.43-1.85,14.86-1.94,22.29
	c-0.05,4.2,1.56,8.44,2.49,12.64c1.54,6.95,3.32,13.85,4.65,20.84c1.68,8.83,3.15,17.71,2.42,26.78c-0.43,5.32-1.73,6.6-7.51,6.56
	c0,1.73-0.26,3.51,0.04,5.19c1.93,10.61,0.66,21.24,0.28,31.86c-0.05,1.31-0.3,2.74-0.92,3.85c-0.58,1.03-2.09,2.57-2.64,2.37
	c-1.2-0.43-2.72-1.71-2.92-2.86c-0.4-2.24,0.03-4.62,0.08-6.94c0.17-7.32,0.39-14.64,0.41-21.96c0-1.56-0.76-3.13-1.49-5.91
	c-1.65,1.95-2.91,2.94-3.52,4.25c-4.08,8.71-8.3,17.36-11.91,26.26c-3.86,9.53-7.01,19.29-8.3,29.63
	c-0.69,5.56-2.74,10.96-4.16,16.43c-0.5,1.93-0.79,3.93-1.48,5.79c-0.65,1.75-1.7,3.35-2.51,4.91c-3.4-1-3.69-3.3-3.48-5.41
	c0.5-4.94,0.95-9.95,2.12-14.76c2.56-10.48,5.45-20.89,8.42-31.26c1.05-3.66,2.73-7.14,4.11-10.7c1.06-2.73,1.01-5.01-0.53-7.92
	c-2.06-3.9-3.2-8.43-3.95-12.82c-0.83-4.9-1.21-9.97-1-14.93c0.31-7.28,0.76-14.63,2.16-21.76c1.82-9.25,6.53-16.93,15-21.95
	c1.52-0.9,2.92-2.86,3.35-4.58c1.24-4.98,1.95-10.1,2.87-15.16c0.06-0.33,0.19-0.65,0.19-0.98c-0.09-9.1-0.09-18.2-0.35-27.3
	c-0.09-3.25,0.62-5.29,3.76-5.89c2.97-0.57,4.59-2.28,6.07-4.63c3.27-5.19,6.59-10.35,10.08-15.4c1.79-2.58,4.25-4.71,5.92-7.35
	c3.36-5.29,6.87-10.58,9.43-16.27c3.67-8.14,6.41-16.7,9.8-24.97c3.11-7.57,7.24-14.56,12.63-20.8c4.56-5.27,8.81-10.79,13.3-16.12
	c8.55-10.14,19.79-15.96,32.21-19.85c0.79-0.25,1.58-0.49,2.34-0.82c10.53-4.52,21.13-8.91,31.57-13.64
	c10.31-4.67,20.24-10.28,30.78-14.33c7.83-3.01,16.33-4.39,24.61-6.1c8.13-1.68,16.32-3.6,24.57-4.1
	c12.6-0.76,25.32-1.14,37.89-0.29c10.89,0.74,21.63,3.58,32.49,5.16c8.72,1.27,17.57,1.76,26.27,3.15
	c8.85,1.42,17.8,2.82,26.32,5.48c10.6,3.32,21.05,7.41,31.09,12.16c6.05,2.86,11.71,7.06,16.66,11.62
	c11.1,10.23,21.73,20.98,32.39,31.69c8.85,8.9,15.98,19.18,21.82,30.2c6.43,12.12,12.05,24.68,18.01,37.06
	c1.37,2.84,3.06,5.59,3.99,8.57c3.68,11.69,7.69,23.4,8.42,35.7c0.85,14.28,1.49,28.63,0.95,42.9c-0.33,8.68-2.97,17.3-4.76,25.9
	c-1.55,7.44-3.34,14.83-5.08,22.23c-0.83,3.54-2.29,7.01-2.59,10.58c-0.69,8.09-0.84,16.22-1.16,24.34
	C589.02,472.78,589.53,473.19,590.19,474.18z M96.98,554.42c-3.89,4.24-5.5,9.79-3.31,13.2c5.44,8.47,9.88,17.71,18.02,24.23
	c1.32,1.06,2.68,2.91,2.8,4.48c0.3,3.94,3.09,5.69,5.66,7.72c1.43,1.13,3.03,2.04,4.5,3.13c10.13,7.55,20.19,15.18,30.37,22.65
	c6.82,5,14.17,9.35,20.66,14.75c13.91,11.56,27.4,23.63,41.1,35.44c8.02,6.92,15.78,14.22,24.29,20.49
	c6.9,5.08,14.7,8.97,22.19,13.22c7.06,4.01,14.24,7.81,21.37,11.71c3.47,1.9,6.88,3.93,10.41,5.71c2.82,1.42,5.73,2.69,8.69,3.77
	c4.68,1.71,9.35,3.71,14.2,4.66c7.5,1.46,15.12,2.6,22.74,3.05c11.95,0.7,23.29,3.39,34.37,7.83c7.76,3.11,15.95,3.46,24.2,2.09
	c-4.4-1.61-8.78-3.46-13.32-4.06c-12.89-1.7-23.5-7.76-33.17-16c-4.81-4.1-9.63-8.19-14.62-12.07
	c-6.53-5.09-13.15-10.08-19.87-14.92c-7.27-5.24-14.75-10.21-22.05-15.41c-14.42-10.28-31.49-14.85-47.33-22.05
	c-8.75-3.98-17.71-7.71-25.93-12.63c-12.23-7.31-23.85-15.62-35.81-23.39c-10.85-7.05-21.79-13.98-32.73-20.89
	c-2.65-1.68-5.65-2.85-8.2-4.65c-5.84-4.11-11.44-8.56-17.25-12.7c-6.96-4.96-13.2-10.72-17.98-17.75
	c-4.66-6.87-12.12-12.05-13.28-21.12C97.69,554.8,97.44,554.72,96.98,554.42z M527.22,641.62c3.21-2.21,5.97-3.78,8.35-5.8
	c10.56-8.96,22.34-16.05,34.13-23.23c6.01-3.66,11.1-8.91,16.25-13.82c2.05-1.96,3.73-4.71,1.57-8.07
	c-0.68-1.06-0.21-2.87-0.24-4.33c-0.03-1.47-0.03-2.94-0.04-4.41c-0.02-3.79-0.3-7.6,0.01-11.37c0.36-4.39,1.23-8.74,1.96-13.62
	c0.41-0.36,1.74-1.02,2.22-2.07c1.49-3.26,2.72-6.65,3.94-10.03c1.77-4.93,0.78-6.24-4.4-6.17c-2.64,0.04-5.65,0.79-7.85-0.2
	c-7.67-3.45-14.27-0.25-21.08,2.4c-2.14,0.83-2.84,2.43-3.15,4.62c-0.46,3.26-0.86,6.64-2.07,9.65c-3.86,9.62-7.01,19.63-14.32,27.5
	c-3.88,4.18-4.66,9.64-5.65,14.98c-1.19,6.49-1.22,13.21-4.04,19.39c-1.37,3.01-2.76,6.09-3.5,9.29
	C528.2,631.09,525.94,635.76,527.22,641.62z M45.98,506.95c-0.39,0.17-0.77,0.34-1.16,0.52c0,8.11,0.11,16.23-0.03,24.34
	c-0.13,7.1,2.38,13.14,7.4,17.89c6.86,6.5,14.04,12.67,21.18,18.86c2.04,1.77,4.12,0.77,5.76-0.89c1.65-1.68,4.38-3.09,2.36-6.16
	c-2.83-4.3-5.74-8.54-8.6-12.81c-6.62-9.9-13.61-19.56-18.59-30.5C52.36,513.94,49.97,509.73,45.98,506.95z M500.68,677.57
	c-0.39-0.26-0.79-0.53-1.18-0.79c-3.3,3.69-6.59,7.38-9.88,11.08c-2.54,2.85-5.04,5.74-7.6,8.57c-5.44,6.01-11.54,11.54-16.23,18.08
	c-6.12,8.53-12.32,16.82-20.43,23.61c-5.48,4.58-11.42,7.88-18.49,9.17c-3.67,0.67-7.28,1.71-11.83,2.8
	c6.25,3.12,9.86,3.13,15.73,0.35c10.93-5.18,21.56-10.45,30.34-19.45c7.72-7.91,16.43-14.75,23.32-23.65
	C491.52,698.16,495.94,687.85,500.68,677.57z M115.58,446.25c0.48,0.38,0.96,0.76,1.44,1.14c0.79-1.26,1.73-2.45,2.33-3.8
	c1.89-4.21,3.56-8.51,5.48-12.7c1.21-2.64,2.33-5.46,4.15-7.64c2.2-2.64,2.54-4.13-0.13-6.48c-4.59-4.04-6.74-8.82-5.39-15.04
	c0.41-1.9-0.05-4-0.13-6.3C113.16,399.53,109.92,429.65,115.58,446.25z M71.42,463.24c3.78,4.09,4.48,4.41,7.84,3.56
	C76.65,461.29,74.77,460.43,71.42,463.24z"/>
<path d="M389.22,604.55c8.06-1.97,14.41-9.81,14.62-17.56c0.26-9.47,1.05-18.77,4.01-27.98c2.99-9.31,4.31-19.02,3.14-29.03
	c-0.91-7.74-0.89-15.61-0.95-23.42c-0.02-2.4,0.62-5.03,1.7-7.18c6.64-13.4,15.89-24.91,26.47-35.37c1.83-1.81,4.22-3.42,6.65-4.2
	c12.21-3.97,24.64-5.27,37.33-2.21c4.34,1.05,8.82,1.56,13.13,2.7c1.82,0.48,3.4,1.9,5.04,2.97c0.96,0.63,1.7,1.83,2.71,2.09
	c3.33,0.85,5.09,3.53,7.44,5.61c6.19,5.48,9.94,12.78,14.9,19.17c3.31,4.27,2.22,12.74-1.85,15.83c-7.01,5.3-14.31,9.18-23.39,8.12
	c-1.76-0.2-3.66-0.73-5.12-1.67c-7.53-4.85-11.26-12.35-13.87-20.56c-0.05-0.16-0.15-0.36-0.09-0.48c2.67-5.93,0.85-13.46,6.56-18.3
	c0.76-0.64,1.53-1.32,2.14-2.09c1.8-2.29,1.21-4.06-1.68-4.66c-12.36-2.58-24.75-3.6-36.76,1.35c-3.58,1.47-6.98,3.79-9.92,6.34
	c-8.39,7.29-14.63,16.33-19.27,26.36c-1.63,3.52-2.7,7.54-2.92,11.39c-0.29,5.26-0.22,10.73,0.95,15.83
	c1.87,8.19,1.26,16.06-0.22,24.16c-2.02,11.04-5.89,21.76-5.11,33.31c0.62,9.05-2.83,16.32-10.78,21.54
	c-4.72,3.09-8.95,6.87-14.41,8.74c-4.54,1.55-7.83-0.18-7.42-4.78c0.54-6.08-2.69-10.89-4.54-16.07c-1.93-5.4-5.11-10.37-7.96-15.4
	c-0.96-1.7-2.44-3.18-3.91-4.5c-8.77-7.89-17.66-15.65-26.38-23.6c-2.31-2.1-4.29-4.61-6.17-7.12c-5.7-7.6-11.87-14.74-19.12-20.94
	c-3.82-3.26-8.22-4.98-13.09-5.63c-3.79-0.5-7.62-0.75-11.41-1.29c-2.29-0.32-4.78-0.51-6.76-1.56
	c-7.31-3.87-15.21-6.62-21.63-12.26c-3.29-2.9-7.6-4.69-11.58-6.73c-4.04-2.07-4.89-1.61-5.67,2.66c-1.03,5.56-1.72,11.19-3,16.69
	c-0.57,2.44-1.73,5.11-3.45,6.86c-6.14,6.26-13.31,10.51-22.61,9.46c-0.82-0.09-1.68-0.17-2.49-0.04c-6.55,1-11.22-1.54-14.49-7.23
	c-0.59-1.02-2.35-2.15-3.38-1.98c-1.99,0.32-1.25,2.13-1.14,3.65c0.22,2.95,0.06,5.93-0.31,8.97c-3.53-13-12.23-24.85-7.93-39.69
	c-3.56-1.2-6.11,0.39-8.62,1.91c-1.99,1.21-3.81,2.72-5.88,3.75c-0.82,0.41-2.1-0.12-3.18-0.23c0.14-1.05-0.1-2.44,0.49-3.09
	c3.59-4.05,6.55-8.98,12.76-9.66c1.45-0.16,2.8-1.05,4.24-1.45c2.4-0.67,3.46-2.25,3.84-4.65c0.39-2.45,1.1-4.85,1.73-7.26
	c0.47-1.81,1.56-3.01,3.57-2.72c2.03,0.3,3.38,1.54,3.54,3.62c0.11,1.48-0.21,2.99-0.23,4.48c-0.03,2.39,1,3.58,3.61,3.64
	c6.29,0.15,12.22-1.27,17.9-3.76c5.72-2.51,11.08-2.32,16.47,1.09c2.93,1.85,6.26,3.05,9.38,4.62c5.33,2.68,10.78,5.18,15.91,8.2
	c5.12,3.02,9.85,6.7,14.87,9.9c7.08,4.51,15.23,5.52,23.28,6.79c2.13,0.34,4.29,0.59,6.44,0.72c7.99,0.5,13.32,5.27,18.09,11.04
	c2.86,3.45,5.8,6.84,8.81,10.16c7.02,7.74,13.97,15.55,21.22,23.07c2.37,2.46,5.48,4.26,8.41,6.11c5.61,3.54,9.05,9.14,13.53,13.75
	c3.21,3.3,5.09,7.06,6.2,11.65c1.36,5.59,4.01,10.87,6.18,16.25C388.05,603.46,388.77,604,389.22,604.55z M220.34,521
	c-0.52-2.18-0.94-4.41-1.58-6.58c-1.31-4.42-2.6-8.86-4.18-13.19c-1.21-3.29-3.25-5.76-7.41-5.18c-2.76,0.39-5.25-0.35-7.25-2.45
	c-1.35-1.42-3.24-1.94-4.13-0.03c-1.56,3.35-3.5,6.62-1.92,10.83c1.89,5.03,5.56,8.54,8.93,12.38
	C207.5,522.15,212.96,523.52,220.34,521z M229.14,515.39c1.63-1.49,2.38-1.94,2.81-2.6c3.71-5.68,3.45-12.08,2.44-18.26
	c-0.76-4.64-6.39-6.97-10.67-5.31c-2.21,0.86-3.18,2.34-2.53,4.65c0.53,1.91,1.16,3.8,1.85,5.65
	C224.95,504.56,226.91,509.59,229.14,515.39z M502.91,504.06c5.03,1.43,13.92-3.02,15.24-7.23c0.7-2.24-1.7-5.72-4.22-5.7
	c-2.76,0.02-5.33,1.02-6.7,3.6C505.69,497.63,504.46,500.69,502.91,504.06z M492.99,496.3c4.6-4.72,4.56-6,0-9.79
	C492.99,489.75,492.99,492.52,492.99,496.3z"/>
<path d="M390.21,679.04c7.63,0.35,15.25,0.72,22.88,1.05c3.03,0.13,5.82-0.25,8.51-2.08c3.05-2.07,5.25-1.09,6.63,2.31
	c1.82,4.51-1.9,9.84-6.73,9.48c-11.58-0.87-23.16-1.82-34.74-2.74c-0.33-0.03-0.67-0.03-0.99-0.1c-2.51-0.48-4.39-1.76-4.58-4.47
	c-0.13-1.9,2.49-3.85,5.04-3.92c1.32-0.04,2.65,0.18,3.98,0.28C390.21,678.92,390.21,678.98,390.21,679.04z"/>
<path d="M87.89,444.08c-2.69-3.69-3-7.3-3.13-10.94c-0.08-2.46-0.52-4.35-3.3-5.46c-1.65-0.65-3.23-2.45-4.02-4.13
	c-2.93-6.16-1.68-12.58-0.38-18.88c0.19-0.93,1.39-1.65,3.16-2.26c0,1.63,0.14,3.28-0.03,4.89c-0.33,3.27-1,6.52-1.17,9.8
	c-0.08,1.51,0.7,3.06,1.12,4.73c1.81-0.26,3.19-0.83,4.36-0.54c1.49,0.36,3.64,1.11,4.05,2.23c2.13,5.81,3.38,11.83,1.12,17.97
	C89.4,442.24,88.76,442.84,87.89,444.08z"/>
</svg>
