<?xml version="1.0" encoding="utf-8"?>
<!-- Generator: Adobe Illustrator 24.1.0, SVG Export Plug-In . SVG Version: 6.00 Build 0)  -->
<svg version="1.1" id="_x33_1_xA0_Image_1_" xmlns="http://www.w3.org/2000/svg" xmlns:xlink="http://www.w3.org/1999/xlink"
	 x="0px" y="0px" viewBox="0 0 828 1249" style="enable-background:new 0 0 828 1249;" xml:space="preserve">
<path d="M557.11,1232.24c0.6-0.27,1.19-0.73,1.81-0.79c7.93-0.78,15.85-1.67,23.8-2.19c17.56-1.14,35.13-2.14,52.7-3.09
	c13.59-0.74,27.2-1.22,40.8-1.99c15.41-0.86,30.81-1.91,46.22-2.87c1.49-0.09,2.99-0.05,4.49-0.1c26.41-0.8,52.82-1.62,79.23-2.4
	c1.65-0.05,3.3,0.27,4.95,0.41c0,4.33,0,8.67,0,13C726.44,1232.24,641.77,1232.24,557.11,1232.24z"/>
<path d="M225.8,279.27c1.87-1.05,3.1-1.55,4.11-2.35c2.03-1.6,4.6-2.98,5.8-5.1c7.26-12.88,14.43-25.84,21.18-38.99
	c6.13-11.94,11.4-24.32,17.63-36.21c3.84-7.33,8.78-14.08,13.21-21.1c3.61-5.72,7.13-11.49,10.84-17.14
	c1.17-1.79,2.9-3.19,4.26-4.87c10.49-12.98,22.28-24.64,35.16-35.25c6.93-5.72,13.25-12.2,20.33-17.72
	c6.79-5.29,13.93-10.27,21.43-14.48c10.27-5.77,21.05-10.62,31.54-15.99c3.24-1.66,6.38-3.59,9.38-5.67
	c8.27-5.72,17.76-8.13,27.32-10.39c8.57-2.02,17.09-4.32,25.71-6.11c12.04-2.5,24.22-3.76,36.56-3.71
	c14.27,0.06,28.54-0.64,42.81,0.9c10.01,1.08,19.74,3.21,29.08,6.8c9.29,3.57,18.65,7.21,27.37,11.96c4.24,2.31,7.55,6.88,10.45,11
	c6.79,9.65,10.83,20.6,12.85,32.18c1.17,6.69,1.6,13.52,2.3,20.29c0.93,8.92,1.89,17.84,2.66,26.78c0.34,3.97,0.13,7.99,0.39,11.98
	c0.69,10.44,1.52,20.88,2.27,31.32c0.16,2.3,0.15,4.62,0.26,6.92c0.83,17.39,1.12,34.82,2.67,52.14c1.16,13.02,3.95,25.9,6,38.84
	c0.96,6.04,1.71,12.13,2.9,18.13c1.25,6.34,2.97,12.59,4.36,18.9c0.78,3.53,1.23,7.13,1.97,10.66c1.72,8.28,4.1,16.46,5.16,24.82
	c1.54,12.13,5.19,23.95,4.58,36.45c-0.4,8.38,0.93,16.84,1.25,25.28c0.14,3.63-0.35,7.29-0.53,10.94
	c-0.31,6.48-0.35,12.98-0.97,19.42c-0.96,9.9-2.33,19.77-3.48,29.65c-0.23,1.98-0.3,3.98-0.46,5.96c-0.58,7.29-1.31,14.56-1.7,21.86
	c-0.32,5.98-0.31,11.97-0.32,17.96c-0.03,20.17,0.2,40.34-0.1,60.5c-0.09,6.55-1.45,13.09-2.27,19.63
	c-1.18,9.35-2.83,18.67-3.5,28.05c-0.7,9.79-0.51,19.64-0.61,29.46c-0.02,1.61,0.46,3.23,0.72,4.88c6.54-0.74,6.25-6.24,7.63-10.35
	c3.09-9.22,4.22-19.05,8.93-27.79c0.96-1.78,0.98-4.15,1.11-6.27c0.2-3.31,2.09-4.78,5.09-5.05c2.94-0.27,4.82,1.12,5.25,4.1
	c0.33,2.3,0.8,4.64,0.66,6.92c-0.52,8.97-1.82,17.78-5.72,26.06c-2.02,4.29-3.53,8.81-5.48,13.14c-0.66,1.46-1.84,2.78-3.03,3.88
	c-2.61,2.42-3.31,5.17-2.18,8.72c4.74-3.07,9.26-6.03,13.82-8.93c4.48-2.85,8.89-5.81,13.54-8.36c2.28-1.25,4.97-1.9,7.56-2.43
	c6.96-1.44,13.97-2.64,20.95-4c3.87-0.76,7.11,1.5,7.46,6.05c0.89,11.58,1.62,23.18,2.09,34.79c0.25,6.13-3.78,10.39-8.38,13.34
	c-5.4,3.47-11.51,5.83-17.28,8.73c-4.18,2.1-7.83,4.54-10.42,8.87c-5.41,9.05-11.08,18-17.39,26.43c-4.04,5.4-9.49,9.73-14.15,14.68
	c-4.65,4.94-10.31,8.07-16.5,10.72c-3.93,1.68-8.04,4.03-7.98,9.61c0.01,1.29-1.5,2.54-1.87,3.92c-1.37,5.09-2.72,10.2-3.77,15.36
	c-1.58,7.75-2.51,15.65-4.48,23.29c-1.26,4.88-2.1,9.61-2.06,14.65c0.02,2.65-1.35,5.3-1.98,7.98c-1.77,7.55-3.5,15.11-5.18,22.67
	c-0.32,1.45-0.26,2.98-0.53,4.45c-0.5,2.74-0.97,5.49-1.68,8.18c-2.13,8.13-4.25,16.26-6.61,24.32c-1.19,4.09-2.82,8.07-4.35,12.06
	c-4.21,10.97-8.87,21.79-12.53,32.94c-1.7,5.19-4.32,9.62-7.03,14.17c-1.52,2.55-2.43,5.45-3.84,8.07
	c-2.43,4.52-5.15,8.9-7.53,13.44c-2.84,5.42-5.41,10.98-8.21,16.42c-0.98,1.91-2.34,3.62-3.44,5.46
	c-5.68,9.54-11.14,19.21-17.05,28.61c-5.47,8.7-11.03,17.31-20.82,22.21c-10.55,5.28-20.51,11.74-29.42,19.44
	c-6.1,5.27-11.1,11.84-16.48,17.91c-3.83,4.32-7.52,8.76-11.21,13.2c-5.92,7.12-11.73,14.32-17.68,21.41
	c-2.85,3.4-5.89,6.64-8.89,9.91c-10.21,11.13-20.4,22.28-30.68,33.33c-6.45,6.93-12.75,14.2-22.12,17.35
	c-2.9,0.98-6.08,1.21-9.15,1.52c-1.78,0.18-3.61-0.15-5.42-0.3c-0.81-0.07-1.88,0.04-2.38-0.42c-4.36-4.05-10.3-4.86-15.22-7.67
	c-2.37-1.35-6.34-2.14-5.15-6.63c0.1-0.37-0.65-1.23-1.18-1.48c-6.29-2.87-9.9-8.53-14.4-13.33c-2.5-2.68-6.24-4.2-9.4-6.26
	c-6.22-4.07-12.35-8.27-18.66-12.2c-4.91-3.05-10.09-5.66-15.02-8.69c-1.62-1-2.88-2.65-4.2-4.09
	c-12.11-13.2-19.29-29.36-26.88-45.23c-2.76-5.77-5.42-11.73-5.58-18.46c-0.07-2.73-0.75-5.76-2.1-8.1
	c-4.44-7.69-4.15-16.6-6.87-24.75c-2.29-6.86-3.01-14.23-4.54-21.35c-1.88-8.72-3.89-17.41-5.83-26.12
	c-0.22-0.97-0.4-1.96-0.46-2.95c-0.67-11.32-2.42-22.39-7.49-32.71c-0.28-0.58-0.42-1.28-0.45-1.93
	c-0.44-11.47-4.33-22.36-5.72-33.62c-1.6-12.89-6.27-24.68-11.01-36.51c-2.34-5.83-5.53-11.36-7.5-17.3
	c-2.4-7.24-4.01-14.75-5.77-22.18c-1.98-8.36-3.82-16.75-5.57-25.16c-0.97-4.67-1.73-9.4-2.44-14.12
	c-0.84-5.53-1.47-11.1-2.31-16.64c-0.55-3.59-1.35-7.14-1.95-10.72c-1.09-6.51-2.45-13-2.98-19.56c-0.21-2.63,0.26-5.15-1.58-7.38
	c-5.65,5.27-6.47,5.25-12.11-0.09c-0.12-0.11-0.22-0.25-0.35-0.36c-1.65-1.4-3.26-1.52-4.79,0.18c-1.56,1.73-3.3,3.33-4.65,5.21
	c-6.13,8.6-12.46,17.02-17.58,26.36c-3.31,6.05-8.22,11.23-12.42,16.78c-1.73,2.28-4.12,1.6-6.43,1.45
	c-3.6-0.24-7.2-0.49-10.81-0.52c-5.96-0.05-11.95,0.75-17.68-2.01c-1.58-0.76-3.86-0.25-5.8-0.07c-4.77,0.45-7.89-2.92-6.18-7.41
	c2.07-5.43,1.65-10.4,0.12-15.94c-1.24-4.51-0.08-9.63-0.65-14.4c-0.75-6.29-2.09-12.51-3.29-18.74c-0.62-3.22-1.61-6.38-2.2-9.6
	c-0.92-5.02-1.32-10.15-2.54-15.08c-1.22-4.94-3.21-9.69-4.78-14.55c-0.45-1.39-1.17-2.98-0.86-4.27c1.7-7.22-0.5-14.09-1.43-21.09
	c-0.46-3.44-0.73-6.94-0.77-10.41c-0.06-6.05-0.69-11.89-3.29-17.5c-2.04-4.4,0.77-8.12,5.95-8.35c12.11-0.54,24.22-1.24,36.34-1.5
	c11.56-0.25,23.14-0.01,34.71-0.02c1.77,0,3.55-0.2,5.8-0.34c-1.04-5.56-2-10.57-2.9-15.58c-0.29-1.63-0.55-3.28-0.62-4.93
	c-0.35-8.11-0.61-16.23-0.93-24.34c-0.14-3.58,1.79-5.85,5.35-5.61c1.72,0.11,3.81,0.74,4.98,1.89c4.27,4.22,9.02,7.98,11.65,13.74
	c2.76,6.04,6.54,11.61,9.29,17.65c3.36,7.38,6.13,15.03,9.14,22.57c0.12,0.31,0.26,0.63,0.29,0.95c0.75,6.71,2.14,13.44,2.03,20.14
	c-0.1,6.34,2.62,10.68,7.3,15.63c1.43-5.08,1.09-9.5,0.43-13.76c-0.87-5.69-2.08-11.37-3.65-16.91
	c-4.88-17.22-6.81-35.18-13.47-51.96c-2.5-6.3-4.38-12.89-6.11-19.45c-1.18-4.46-1.33-9.18-2.42-13.66
	c-2.61-10.77-4.4-21.8-10.94-31.27c-2.86-4.16-1.25-9.19-0.59-13.66c1.56-10.49,3.04-21.11,5.95-31.27
	c4.31-15,4.74-30.49,7.37-45.69c1.32-7.63,1.34-15.47,2.38-23.15c0.73-5.39,2.19-10.67,3.3-16.01c1.75-8.43,3.32-16.9,5.26-25.28
	c1.98-8.55,4.4-17,6.49-25.52c1.39-5.63,2.49-11.33,3.83-16.98c0.8-3.37,1.56-6.78,2.78-10c1.83-4.82,3.79-9.62,6.17-14.19
	c2.28-4.4,4.85-8.71,7.82-12.67c6.29-8.38,10.9-17.73,16.36-26.59C228.29,285.56,229.42,282.86,225.8,279.27z M304.12,1139.75
	c2.11,1.25,3.97,2.28,5.75,3.46c0.78,0.52,1.65,1.21,1.99,2.03c2.44,5.84,7.18,8.68,13.01,9.97c1.89,0.42,3.26,1.07,3.15,3.11
	c-0.22,4.25,1.89,6.45,5.82,7.48c1.04,0.28,1.84,1.39,2.83,1.98c3.52,2.12,7.04,4.27,10.64,6.26c3.84,2.12,8.17,3.33,10.73,7.49
	c2.56,4.14,6.82,6.53,11.35,7.63c5.3,1.28,8.75,4.68,11.94,8.53c3.86,4.67,6.86,5.34,11.82,1.99c7.19-4.86,13.68-10.51,19.38-17.08
	c2.94-3.39,6.19-6.51,9.26-9.79c5.44-5.82,10.96-11.57,16.22-17.55c5.05-5.74,9.74-11.81,14.71-17.62
	c6.03-7.05,12.6-13.68,18.22-21.04c9.86-12.89,20.3-25.04,34.23-33.77c4.79-3,8.99-7.1,14.04-9.48
	c12.5-5.91,20.43-15.97,27.08-27.47c3.08-5.33,6.3-10.58,9.34-15.93c6.12-10.77,12.34-21.49,18.16-32.42
	c4.44-8.33,8.13-17.05,12.51-25.41c6.28-11.97,11.53-24.31,15.19-37.33c1.61-5.73,3.23-11.45,5-17.13
	c1.76-5.66,4.14-11.16,5.48-16.91c2.56-10.98,4.63-22.07,6.77-33.14c0.69-3.58,0.86-7.26,1.43-10.87c0.49-3.1,1.12-6.18,1.85-9.23
	c1.94-8.08,4.02-16.14,5.96-24.22c1.92-8.01,3.37-16.15,5.67-24.05c2.21-7.57,3.59-14.54-0.82-22.06
	c-3.98-6.79-4.89-14.6-4.87-22.64c0.03-14.95,0.26-29.87,2.26-44.7c1.08-8.02,3.25-15.35,11.49-19.61
	c4.26-2.21,6.76-6.16,6.53-11.93c-0.5-12.98-0.4-26-0.03-38.99c0.21-7.59,1.4-15.16,2.16-22.74c0.03-0.33,0.17-0.64,0.24-0.97
	c1.99-8.24,3.7-16.49,3.53-25.06c-0.2-10.16-0.04-20.33-0.05-30.5c-0.01-8.64-0.29-17.29,0.02-25.91
	c0.45-12.57,1.32-25.12,2.05-37.68c0.07-1.16,0.4-2.3,0.51-3.45c1.16-11.9,2.46-23.79,3.41-35.7c0.8-10.06,0.07-20.17,1.74-30.24
	c0.88-5.34,0.3-10.98-0.02-16.46c-0.28-4.93-1.11-9.83-1.68-14.75c-0.64-5.44-1.17-10.89-1.93-16.31c-0.58-4.08-1.42-8.12-2.2-12.17
	c-0.84-4.38-1.75-8.75-2.63-13.12c-1.07-5.32-2.11-10.65-3.24-15.96c-0.83-3.86-1.78-7.7-2.71-11.54c-0.38-1.59-1.01-3.14-1.24-4.75
	c-1.56-10.84-2.84-21.73-4.6-32.53c-1.52-9.3-4.08-18.45-5.22-27.78c-1.3-10.68-1.79-21.49-2.16-32.26
	c-0.35-10.15,0.22-20.34-0.2-30.49c-0.41-10-2.91-19.81-2.63-29.96c0.22-8.11-0.79-16.25-1.28-24.37c-0.09-1.49-0.34-2.97-0.53-4.45
	c-1.14-8.88-2.17-17.78-3.46-26.64c-0.72-4.89-1.58-9.81-2.94-14.55c-1.22-4.26-3.14-8.32-4.84-12.43
	c-2.58-6.2-5.93-12.35-11.56-15.79c-8.04-4.91-16.73-8.91-25.51-12.37c-5.94-2.34-12.59-2.81-18.78-4.63
	c-12.83-3.76-26.02-2.91-39.08-3.3c-8.62-0.26-17.28,0.51-25.92,0.87c-1.99,0.08-3.99,0.25-5.94,0.63
	c-12.9,2.52-25.82,4.99-38.68,7.72c-12.33,2.61-23.67,7.81-34.6,13.94c-4.93,2.77-9.7,5.81-14.7,8.43
	c-11.49,6.03-23.56,11.07-33.94,19.01c-4.47,3.42-8.43,7.49-12.7,11.18c-10.87,9.42-21.8,18.72-32.09,28.84
	c-8.62,8.48-15.8,18.01-22.73,27.69c-7.7,10.75-14.63,22.12-21.09,33.66c-6.65,11.89-12.33,24.33-18.44,36.52
	c-2.15,4.29-4.45,8.51-6.48,12.86c-3.64,7.76-6.74,15.81-10.79,23.34c-3.79,7.05-8.53,13.58-12.81,20.36
	c-0.79,1.26-1.71,2.59-1.97,4c-0.58,3.14-2.49,5.6-4.38,7.77c-4.85,5.56-7.93,12.24-12.33,18.12c-7.93,10.6-11.85,23.44-14.85,36.16
	c-1.51,6.42-3.25,12.79-4.77,19.21c-3.62,15.3-6.6,30.75-10.28,46.03c-2.54,10.55-3.59,21.19-4.37,31.97
	c-0.71,9.89-2.41,19.71-3.89,29.54c-0.81,5.39-2.06,10.71-3.11,16.07c-1.72,8.74-4.84,17.24-4.41,26.36c0.08,1.78-0.56,3.6-0.89,5.4
	c-0.97,5.29-1.78,10.53,1.96,15.24c0.59,0.74,0.82,1.81,1.06,2.76c2.01,7.99,5.35,15.52,6.64,23.83c1.58,10.09,4.8,19.92,7.46,29.83
	c3.06,11.35,6.41,22.63,9.39,34c2.31,8.8,4.63,17.62,6.25,26.56c2.36,13.02,4.38,26.11,5.99,39.24c1.19,9.67,1.7,19.43,2.17,29.17
	c0.55,11.3,0.5,22.64,1.15,33.93c0.37,6.4,2.01,7.07,8.45,6.22c6.25-0.82,12.56-1.31,18.85-1.58c3.12-0.13,6.29,0.51,9.42,0.92
	c10.27,1.34,21.05-0.76,30.74,4.56c0.42,0.23,0.99,0.17,1.46,0.32c8.04,2.64,16.13,5.14,24.09,8c3.25,1.17,6.51,2.71,9.26,4.76
	c5.99,4.47,11.78,9.24,17.41,14.16c3.11,2.72,5.62,6.12,8.63,8.97c8.19,7.77,16.55,15.38,24.75,23.14c2.51,2.38,2.4,4.89,0.09,7.4
	c-0.65,0.7-1.31,1.39-2.08,2.19c2.04,2.68,3.71,5.39,5.88,7.62c5.36,5.53,10.52,10.8,12.89,18.74c2.53,8.46,4.57,16.84,5.1,25.62
	c0.07,1.16,0.32,2.3,0.46,3.46c1.16,9.49,2.45,18.96,3.4,28.47c0.4,3.96,0.06,7.99,0.06,11.99c0,20.99-0.11,41.98,0.09,62.97
	c0.04,4.71,1.24,9.41,1.76,14.13c0.27,2.48-0.15,5.08,0.4,7.47c1.03,4.48,0.49,8.56-1.95,12.26c1.54,3.03,3.2,3.13,6.09,1.68
	c3.27-1.63,5.85-3.48,7.72-6.68c0.95-1.63,2.87-2.7,4.36-4.01c0.99-0.87,2.25-1.55,2.97-2.61c5.42-7.96,10.82-15.94,16.04-24.03
	c1.23-1.9,1.55-4.37,2.61-6.41c1.34-2.57,2.43-6.02,4.64-7.26c8.08-4.53,16.88-6.8,26.17-4.16c2.8,0.79,5.82,1.88,7.95,3.74
	c9.42,8.23,14.29,18.93,15.07,31.29c0.48,7.64,0.36,15.34-0.01,22.99c-0.21,4.22-1.5,8.4-2.34,12.58c-0.48,2.41-1.07,4.8-1.56,7.21
	c-0.88,4.36-1.46,8.8-2.67,13.07c-1.14,4.03-4.82,5.57-8.48,6.05c-4.86,0.63-9.84,0.89-14.72,0.53c-1.52-0.11-2.83-2.75-4.3-4.17
	c-5.51-5.31-8.9-11.96-11.44-18.98c-1.07-2.95-2.09-5.49-4.86-7.16c-3-1.82-3.42-4.66-2.79-7.86c0.48-2.42,0.81-4.87,1.23-7.3
	c0.8-4.54,0.96-9.33,2.58-13.57c2.41-6.32,5.82-12.27,8.88-18.34c1.32-2.61,2.84-5.11,4.47-8.01c-3.43-0.7-6.32-0.13-7.37,2.47
	c-2.74,6.79-6.74,12.79-10.63,18.89c-2.35,3.68-6.79,6.16-6.47,11.38c0.01,0.2-0.4,0.49-0.68,0.63c-4.88,2.43-6.34,5.98-2.9,11.32
	c-2.1,0.46-3.65,0.8-5.19,1.16c-0.92,0.21-2,0.23-2.74,0.73c-4.09,2.83-8.03,5.87-12.14,8.66c-6.45,4.39-11.59,3.54-16.92-2.49
	c-1.54-1.74-3.22-3.37-4.95-4.93c-3.1-2.81-3.39-2.71-6.02,0.55c-1.43,1.77-2.98,3.43-4.53,5.1c-3.96,4.25-11.27,5.34-15.97,2.19
	c-8.36-5.61-13.19-13.54-13.27-23.58c-0.07-7.68-2.63-15.63,1.53-23.11c0.51-0.92,0.39-2.31,0.25-3.45
	c-0.46-3.96,1.66-5.51,5.13-6.65c5.81-1.9,11.85-3.64,17.04-6.72c4.02-2.38,7.34-2.93,11.64-1.69c4.57,1.32,6.03-0.09,6.26-4.86
	c0.27-5.47,0.74-10.94,0.94-16.42c0.22-5.95,0.28-11.91,0.31-17.87c0.01-1.46-0.68-2.94-0.58-4.38c0.5-7.57,0.71-14.96-0.16-22.69
	c-1.18-10.52-1.39-21.21-3.56-31.64c-1.21-5.81-2.43-11.72-4.6-17.21c-3.51-8.9-11.46-14.52-17.46-21.58
	c-2.02-2.37-4.3-4.69-6.89-6.36c-3.31-2.14-7.14-3.47-10.61-5.39c-4.61-2.57-9.11-5.35-13.62-8.09c-4.47-2.72-9.25-5.07-13.29-8.34
	c-10.27-8.3-21.56-14.89-33.15-21.05c-3.57-1.9-7.48-2.07-11.1-0.22c-3.53,1.81-7.05,3.79-10.18,6.22
	c-6.18,4.8-12.09,9.93-18.08,14.97c-1.27,1.07-2.34,2.36-3.59,3.45c-1.56,1.38-3.14,2.76-4.84,3.98
	c-10.4,7.44-14.61,8.66-9.73,19.84c0.06,0.15,0.06,0.33,0.09,0.49c1.4,8.44,2.78,16.89,4.22,25.33c0.19,1.13,0.67,2.21,1.07,3.3
	c0.9,2.5,2.36,4.93,2.64,7.49c1.22,11.3,5.17,21.86,8.32,32.64c0.55,1.9,1.69,3.74,1.76,5.64c0.45,11.55,3.25,22.53,7.48,33.22
	c0.42,1.05,0.61,2.27,0.59,3.4c-0.15,8.29-0.39,16.54,1.97,24.67c1.26,4.35,1.66,8.95,2.5,13.43c1.16,6.16,2.34,12.31,3.6,18.44
	c0.5,2.41,2.01,4.85,1.77,7.14c-0.81,7.52,3.64,13.68,4.83,20.71c1.54,9.14,4.87,17.98,7.46,26.94c1.37,4.73,2.61,9.51,4.25,14.14
	c1.4,3.94,3.29,7.7,4.81,11.21c1.41,0.79,4.35,1.76,4.3,2.52c-0.35,5.42,2.74,6.86,7.14,8.54c3.56,1.36,6.35,4.76,9.46,7.28
	c0.38,0.3,0.96,0.84,0.89,1.14c-1.09,4.96,3.09,7.19,5.69,9.66C305.7,1134.05,306.6,1136.34,304.12,1139.75z M80.09,685.38
	c-0.19,0.02-0.38,0.05-0.57,0.07c0.84,7.06,1.47,14.15,2.58,21.17c1.95,12.4,4.01,24.79,6.39,37.11c1.5,7.75,3.69,15.37,5.52,23.06
	c0.76,3.22,1.66,6.44,2.02,9.71c0.85,7.74,1.49,15.5,2.07,23.27c0.18,2.36,1.28,3.25,3.4,4.19c5.57,2.48,11.37,2.16,17.18,2.28
	c7.48,0.16,12.53-3.94,16.62-9.49c4.71-6.38,9.08-13.01,13.73-19.43c5.36-7.4,10.97-14.62,16.26-22.06c1.05-1.48,2.03-3.85,1.6-5.41
	c-2.93-10.52-5.55-21.22-9.64-31.3c-4.52-11.15-5.47-22.79-7.25-34.38c-0.75-4.9-2.05-9.73-3.23-14.55c-0.52-2.12-1.9-3.27-4.31-3.4
	c-6.44-0.33-12.87-1.21-19.31-1.27c-12.62-0.1-25.25,0.2-37.88,0.37c-0.99,0.01-1.98,0.26-2.97,0.39c-2.93,0.41-4.12,1.93-4.29,5.03
	c-0.13,2.41,1.58,3.8,1.93,5.66C80.5,679.3,80.09,682.38,80.09,685.38z M648.59,781.48c2.82-1.04,5.44-1.27,6.89-2.68
	c6.77-6.58,13.84-13.01,19.6-20.43c4.92-6.33,8.59-13.74,12.1-21.02c3.97-8.23,10.36-12.86,18.58-16.25
	c5.88-2.42,11.19-6.29,16.6-9.75c2.84-1.82,4.13-4.69,3.74-8.18c-0.76-6.75-1.43-13.51-2.26-20.24c-0.28-2.29-1.96-3.75-4.15-3.53
	c-5.9,0.6-12.1,0.62-17.54,2.62c-6.61,2.43-12.76,6.35-18.74,10.2c-4.37,2.82-8.54,6.21-12.06,10.03c-2.49,2.7-3.4,6.79-5.6,9.84
	c-3.25,4.5-3.88,9.23-3.42,14.62c0.42,5.03,0.77,10.39-4.3,13.97c-0.85,0.6-1.42,1.89-1.71,2.97c-2.76,10.51-5.5,21.03-8.06,31.6
	C647.87,776.87,648.42,778.74,648.59,781.48z M167.34,683.08c0.18,5.75,0.12,11.17,0.6,16.54c0.41,4.59,1.43,9.13,2.18,13.69
	c0.7,4.25,0.78,8.74,2.29,12.68c1.64,4.26,2.36,9.27,7.28,11.9c2.54,1.36,3.28,4.55,1.22,6.98c-4,4.74-2.04,9.17,0.13,13.65
	c1.01,2.1,2.36,4.03,4.08,6.93c0.55-1.88,0.91-2.49,0.88-3.08c-0.68-14.11-1.1-28.23-2.23-42.31c-0.62-7.83-2.48-15.55-3.67-23.34
	C179.39,691.97,172.32,684.28,167.34,683.08z M472.1,1038.87c0,0-0.01,0-0.01,0c0-4.5-0.19-9.01,0.06-13.49
	c0.25-4.42-1.13-8.22-3.7-11.63c-0.67-0.9-1.94-1.35-2.93-2c-0.45,1.17-1.57,2.6-1.23,3.46c1.81,4.59-0.27,9.09,0.06,13.63
	c0.32,4.38,0.21,8.79,0.18,13.19c-0.04,5.65-0.85,6.64-6.46,8.33c-4.08,1.23-5.11,2.8-4.81,6.87c0.06,0.85-0.29,2.05-0.89,2.57
	c-2.89,2.49-2.12,6.22-1.73,8.76c0.96,6.31,9.82,9.57,15.67,6.35c0.75-0.41,1.46-1.4,1.67-2.25c2.05-8.49,4.8-16.86,4.16-25.8
	C471.94,1044.21,472.1,1041.53,472.1,1038.87z M647.05,697.01c-6.99,4.35-8.52,6.42-9.35,13.01c-0.59,4.73-1.49,9.48-1.41,14.22
	c0.22,14.18-1.85,28.51,2.38,42.49c3.25-0.98,3.47-4.1,4.45-6.61C651.1,739.63,652.38,718.67,647.05,697.01z M340.92,832.9
	c-1.98-2.89-3.03-5.14-4.7-6.76c-9.52-9.22-18.51-19.06-30.23-25.72c-6.9-3.92-13.59-8.12-21.58-9.68
	c-5.65-1.11-11.16-2.89-16.8-4.09c-1.43-0.3-3.1,0.5-5.21,0.9c2.84,2.2,4.68,4.01,6.85,5.22c5.62,3.16,11.37,6.08,17.1,9.04
	c17.35,8.98,34.62,18.08,50.16,30.1C337.41,832.62,338.95,832.49,340.92,832.9z M154.71,619.25c-2.11,12.93,1.82,29.81,9.06,39.96
	c0.95,1.33,1.97,2.85,2.2,4.39c0.99,6.83,6.74,9.12,11.04,13.34C181.84,665.48,163,622.6,154.71,619.25z M359.06,1005.58
	c-0.44-0.33-0.88-0.67-1.32-1c-2.67,1.36-5.32,2.76-8.02,4.06c-2.52,1.22-3.65,3.1-3.59,5.95c0.11,5.31,0.39,10.66-0.11,15.93
	c-0.54,5.81,2.93,9.32,6.46,12.7c1.93,1.85,4.7,3.39,7.71,1.51c3.73-2.34,5.6-8.01,3.71-12.02c-0.97-2.07-2.18-4.27-3.88-5.69
	c-3.93-3.27-4.5-6.9-2.93-11.56C358.15,1012.3,358.43,1008.88,359.06,1005.58z M257.89,798.46c-4.42-4.29-16.36-5.73-20.5-2.84
	c-0.8,0.56-1.6,1.29-2.09,2.12c-2.87,4.96-6.19,9.77-8.25,15.06c-1.25,3.2-4.09,6.59-1.89,11.34
	C237.89,817.47,246.98,806.88,257.89,798.46z M231.65,784.87c-1.51-0.23-2.66-0.68-3.73-0.52c-3.78,0.54-7.52,1.34-11.3,1.96
	c-5.72,0.94-6.71,1.71-6.41,7.34c0.4,7.42,1.22,14.83,2.11,22.22c0.19,1.54,1.48,2.95,2.35,4.57c2.58-6.71,5.07-12.65,7.15-18.73
	C223.92,795.59,229.5,791.65,231.65,784.87z M194.89,731.06c-2.71,1.57-2.84,3.45-2.24,5.81c0.69,2.68,1.25,5.44,1.42,8.2
	c0.36,5.92-0.59,11.92,1.75,17.69c0.58,1.42,0.09,3.27,0.12,4.93c0.05,2.78,0.04,5.56,0.21,8.33c0.14,2.29,0.98,4.64,3.63,4.39
	c2.64-0.25,2.17-2.87,2.3-4.81c0.01-0.17,0-0.33,0-0.5c-0.02-11.1,0-22.2-0.09-33.3c-0.03-3.04-0.56-5.88-3.85-7.46
	C196.91,733.75,196.08,732.3,194.89,731.06z M443.12,1038.43c6.72-4.22,12.36-16.67,10.78-23.75c-0.22-0.98-1.07-2.31-1.88-2.53
	c-0.73-0.2-2.13,0.69-2.68,1.48c-1.41,2.03-3.09,4.15-3.64,6.47c-1.36,5.82-2.15,11.77-3.15,17.67
	C442.53,1037.88,442.75,1038.02,443.12,1038.43z M203.62,794.62c-2.96,0.71-3.73,1.99-3.08,4.44c0.66,2.47,1.15,5.01,1.54,7.54
	c0.28,1.8,0.26,3.65,0.37,5.48c0.39-0.04,0.78-0.07,1.17-0.11C203.62,806.32,203.62,800.67,203.62,794.62z M372.24,1010.65
	c1.33-1.84,2.67-3.15,3.28-4.75c0.31-0.82-0.67-2.14-1.06-3.23c-0.74,0.71-1.97,1.33-2.12,2.14
	C372.02,1006.57,372.24,1008.43,372.24,1010.65z"/>
<path d="M441.08,1108.93c-1.89,4.29-3.08,7.73-4.93,10.77c-0.68,1.12-3.05,1.98-4.46,1.76c-4.38-0.68-8.28,0.19-11.92,2.49
	c-6.8,4.29-14.3,5.94-22.21,6.37c-1.6,0.09-3.15,1.19-4.74,1.23c-3.23,0.09-6.67,0.39-9.66-0.54c-3.33-1.04-3.72-3.95-1.6-6.84
	c0.67-0.91,1.52-1.99,2.51-2.32c6.58-2.24,13.14-5.62,19.87-6.03c6.17-0.38,12.02-1.57,17.16-4.08
	C427.4,1108.65,433.63,1109.64,441.08,1108.93z"/>
</svg>
