<?xml version="1.0" encoding="utf-8"?>
<!-- Generator: Adobe Illustrator 24.1.0, SVG Export Plug-In . SVG Version: 6.00 Build 0)  -->
<svg version="1.1" id="Layer_1" xmlns="http://www.w3.org/2000/svg" xmlns:xlink="http://www.w3.org/1999/xlink" x="0px" y="0px"
	 viewBox="0 0 1224 792" style="enable-background:new 0 0 1224 792;" xml:space="preserve">
<path d="M931.59,72.23c-0.34-2.04-0.85-4.06-0.98-6.12c-1.22-19.4-2.41-38.81-3.51-58.22c-0.12-2.16,0.33-4.34,0.52-6.52
	c1.32,0,2.65,0,3.97,0C931.59,25,931.59,48.62,931.59,72.23z"/>
<path d="M229.74,1.38c-5.3,0.88-10.59,1.77-15.89,2.65c0-0.88,0-1.77,0-2.65C219.14,1.38,224.44,1.38,229.74,1.38z"/>
<path d="M755.48,783.42c-0.49-2.9-2.9-3.74-5.11-3.67c-1.19,0.04-2.44,1.92-3.44,3.15c-0.87,1.07-1.42,2.41-1.89,3.24
	c-3.1,0.71-5.91,1.38-8.73,1.98c-0.38,0.08-0.98,0-1.23-0.26c-4.18-4.35-9.24-3.12-14.03-2.97c-1.75-0.69-3.48-1.4-5.24-2.06
	c-3.77-1.41-7.55-2.78-11.32-4.18c-1.13-0.42-2.21-1.04-3.38-1.31c-4.67-1.06-9.34-2.15-14.06-2.95c-2.1-0.36-4.43,0.38-6.46-0.14
	c-9.52-2.47-19.33-4.35-28.36-8.07c-10.02-4.12-19.34-9.96-28.93-15.11c-7.55-4.05-15.17-7.99-22.53-12.37
	c-4.02-2.4-7.89-5.26-11.25-8.51c-9.02-8.7-17.9-17.55-26.48-26.68c-4.32-4.6-7.93-9.89-11.75-14.96
	c-4.42-5.86-8.78-11.76-13.03-17.73c-3.93-5.52-7.28-11.51-11.64-16.65c-3.44-4.05-8.12-7.02-12.08-10.65
	c-5.64-5.17-11.29-10.37-16.66-15.82c-7.61-7.74-14.59-16.13-22.57-23.45c-5.52-5.07-12.12-9.05-18.52-13.06
	c-8.7-5.45-17.41-11.01-26.61-15.51c-8.13-3.97-15.9-8.94-25.1-10.63c-2.15-0.4-4.26-2.55-5.83-4.37
	c-6.69-7.72-13.27-15.55-19.7-23.49c-7.6-9.39-15.14-18.83-22.42-28.47c-3.73-4.95-6.82-10.38-10.18-15.6
	c-0.22-0.35-0.4-0.85-0.35-1.24c1.24-9.2,0.91-19,4.13-27.46c5.63-14.83,17.13-19.66,32.56-11.87c8.72,4.4,17.22,9.24,26.01,13.51
	c9.68,4.7,18.73,10.33,26.61,17.59c7.09,6.54,13.62,13.69,20.41,20.56c3.46,3.51,7.72,6.51,10.27,10.59c4.87,7.78,9.1,16,13,24.32
	c5.59,11.92,10.6,24.11,15.97,36.14c3.08,6.9,6.29,13.75,9.64,20.52c1.55,3.13,3.99,5.85,5.31,9.06
	c3.72,9.01,7.19,18.13,10.53,27.29c4.68,12.84,12.31,23.34,23.27,31.61c7.01,5.29,13.54,11.21,20.31,16.82
	c5.58,4.62,11.33,9.04,16.75,13.84c5.34,4.74,10.31,9.88,15.52,14.76c1.53,1.44,3.31,2.62,4.97,3.91c0.22-0.23,0.44-0.45,0.66-0.68
	c-2.95-4.7-6.17-9.26-8.81-14.14c-5.02-9.26-9.74-18.69-14.52-28.08c-4.56-8.95-9.23-17.85-13.5-26.93
	c-3.17-6.74-5.79-13.75-8.64-20.64c-0.59-1.42-1.04-2.91-1.66-4.32c-3.69-8.41-7.22-16.9-11.18-25.18
	c-2.69-5.63-5.77-11.1-9.09-16.38c-4.42-7.04-10.09-13.41-13.63-20.83c-3.6-7.53-9.4-12.43-15.42-17.41
	c-8.14-6.72-13.76-15.34-18.61-24.52c-3.13-5.91-5.99-11.95-9.09-17.88c-1.36-2.61-0.86-4.26,1.41-6.23
	c3.79-3.3,7.19-7.05,10.62-10.74c0.55-0.59,0.56-1.81,0.56-2.74c-0.07-9.61-3.33-18.54-5.92-27.63c-1.08-3.78-1.69-7.69-2.47-11.55
	c-0.46-2.26-0.45-4.7-1.35-6.75c-0.53-1.21-2.3-2.31-3.71-2.65c-7.07-1.68-14.21-3.01-21.3-4.62c-6.87-1.56-13.79-2.98-20.51-5.03
	c-24.86-7.58-50.26-12.41-76.14-14.11c-8.33-0.55-17.03,0.61-25.2,2.51c-11.98,2.78-23.71,6.69-35.41,10.54
	c-13.12,4.32-26.29,7.41-40.22,4.94c-5.18-0.92-10.47-1.24-15.58-2.41c-1.56-0.36-2.67-2.67-3.98-4.09
	c1.34-1.23,2.51-3.21,4.06-3.57c10.82-2.52,21.81-4.32,32.55-7.1c9.33-2.41,18.3-6.2,27.62-8.67c17.36-4.6,34.94-9,53.02-8.03
	c11.01,0.59,21.91,3.4,32.85,5.24c7.68,1.29,15.32,2.83,23.03,3.89c4.74,0.65,10.51,2.26,13.06,6.44c-2.25-0.37-4.55-0.53-6.72-1.16
	c-4.01-1.15-7.66-1.82-11.74,0.57c-1.69,0.99-4.82-0.21-7.23-0.74c-6.65-1.47-13.24-3.14-19.88-4.66
	c-4.18-0.95-8.39-1.75-12.59-2.65c-8.76-1.87-17.54-1.22-26.32-0.3c-13.18,1.38-26.13,3.91-38.82,7.74
	c-11.07,3.34-22.1,6.77-33.2,10.02c-2.73,0.8-5.64,0.97-8.45,1.51c-1.22,0.24-2.41,0.68-3.61,1.03c-0.01,0.3-0.02,0.6-0.03,0.9
	c1.05,0.34,2.09,0.88,3.17,0.99c5.04,0.51,10.15,1.53,15.13,1.16c5.19-0.39,10.35-1.91,15.38-3.42c10.32-3.1,20.45-6.84,30.83-9.72
	c12.12-3.36,24.46-6.32,37.13-5.61c10.54,0.59,21.05,2.08,31.52,3.58c7.73,1.11,15.43,2.58,23.02,4.42
	c16.15,3.93,32.19,8.28,48.32,12.29c5.12,1.27,10.4,1.89,15.56,3.03c3,0.67,3.44-0.76,3.31-3.16c-0.49-8.57-0.94-17.14-1.43-25.7
	c-0.78-13.64-1.92-27.27-2.25-40.91c-0.27-11.45-0.07-22.95,0.75-34.37c1.55-21.42,3.5-42.82,5.7-64.19
	c0.66-6.41,2.69-12.68,4.1-19.01c1.08-4.84,2.09-9.69,3.27-14.5c1.97-8.11,4.22-16.16,6.05-24.3c3.56-15.84,10.07-30.64,16-45.63
	c6.2-15.68,14.33-30.31,25.29-43.23c3.48-4.1,7.43-7.82,10.79-12.01c7.13-8.89,14.28-17.78,20.93-27.03
	c9.63-13.38,20.99-24.94,33.76-35.32c13.78-11.2,29.26-19.15,45.78-25.14c8.29-3.01,16.98-4.85,25.95-2.87
	c7.72,1.71,14.24,5.57,19.89,11.05c7.73,7.5,15.76,14.71,23.15,22.51c4.19,4.43,7.39,9.8,11.03,14.75
	c4.3,5.83,8.73,11.56,12.85,17.51c3.36,4.86,6.59,9.85,9.44,15.03c3.33,6.03,6.53,12.17,9.17,18.53
	c4.41,10.63,8.59,21.38,12.38,32.25c3.21,9.22,5.89,18.64,8.52,28.04c2.25,8.04,3.89,16.25,6.21,24.27
	c2.59,8.95,5.4,17.85,8.53,26.62c4.13,11.56,8.85,22.92,12.94,34.49c1.3,3.69,1.65,7.76,2.07,11.7c1.83,17.07,3.94,34.12,5.13,51.23
	c0.98,14.16,0.57,28.42,1.23,42.61c0.58,12.53,1.75,25.04,2.73,37.56c0.59,7.47,1.22,14.94,2,22.4c0.79,7.56,1.51,15.14,2.74,22.63
	c1.66,10.09,1.75,19.91-0.6,30.04c-2.2,9.48-2.96,19.35-3.76,29.1c-1.21,14.6-1.73,29.27-2.86,43.88
	c-0.79,10.21-2.43,20.36-3.07,30.58c-0.37,5.89,0.5,11.86,0.83,17.79c0.42,7.59,0.98,15.17,1.27,22.77
	c0.34,9.25,0.34,18.53-1.56,27.64c-1.32,6.32-2.94,12.58-4.59,18.83c-2.46,9.33-5.03,18.63-7.61,27.93
	c-1.75,6.32-3.46,12.6-7.86,17.84c-6.06,7.2-9.01,15.96-11.73,24.82c-3.2,10.42-7.2,20.6-13.66,29.41
	c-3.03,4.14-7.51,7.24-11.45,10.67c-1.67,1.46-3.92,2.43-1.67,5.79c-2.73-0.53-4.58-0.89-6.44-1.25c-0.13,0.26-0.26,0.52-0.39,0.78
	c2.21,1.43,4.46,2.81,6.61,4.33c1.08,0.76,1.99,1.77,2.98,2.67c-1.27,0.4-2.55,0.8-3.82,1.21L755.48,783.42z M581.33,489.82
	c0.32,0,0.64,0,0.96,0.01c0.76-1.51,1.57-3,2.26-4.55c1.38-3.09,2.5-6.32,4.15-9.25c0.65-1.15,2.83-2.59,3.61-2.26
	c1.26,0.54,2.25,2.33,2.77,3.8c0.65,1.82,0.89,3.85,0.99,5.8c0.29,5.59,0.96,11.24,0.46,16.78c-0.53,5.83-2.47,11.52-3.36,17.34
	c-1.31,8.54-1.83,17.08,1.65,25.39c1.44,3.43,2.27,7.11,3.51,10.64c3.03,8.59,5.82,17.28,9.32,25.68c3.32,7.96,7.4,15.6,11.17,23.37
	c5.34,11.02,9.23,22.55,12.41,34.35c2.44,9.08,6.48,17.3,14.16,23.21c0.86,0.66,2.12,1.25,3.15,1.17
	c6.02-0.47,12.01-1.45,18.03-1.67c7.28-0.27,11.94-4.06,15.02-10.14c1.68-3.32,2.94-6.87,4.21-10.38c1.67-4.64,4.09-9.26,4.55-14.04
	c1.16-12.05,1.81-24.16-0.76-36.23c-1.04-4.89-1.25-10.06-1.08-15.08c0.45-13.64,1.54-27.27,1.85-40.91c0.1-4.22-0.01-8.88-3-12.54
	c-3.26-3.98-7.03-7.61-9.86-11.87c-2.64-3.97-5.86-7.67-5.33-13.39c1.02-10.86,5.33-20.43,10.84-29.38
	c4.68-7.6,6.25-15.84,7.58-24.26c1.16-7.37,1.57-14.85,2.6-22.24c0.62-4.45,2.46-8.8,2.62-13.23c0.43-12.11,0.25-24.25,0.33-36.37
	c0.05-7.65,0.44-15.43,3.89-22.28c7.3-14.49,14.63-29.04,23.12-42.85c5.42-8.81,12.9-16.38,19.55-24.42
	c3.98-4.81,8.51-9.2,12.13-14.25c3.64-5.07,6.34-10.79,9.67-16.09c2.5-3.99,5.21-7.86,8.13-11.55c0.76-0.97,2.85-1.69,3.96-1.35
	c1.08,0.33,1.95,2.08,2.45,3.39c0.54,1.4,0.55,3.01,0.79,4.53c1.08,7.06,2.9,14.1,3.03,21.18c0.14,7.75-1.23,15.54-2.02,23.3
	c-0.99,9.69-4.15,18.73-9.56,26.74c-3.47,5.14-8.36,9.33-11.87,14.45c-6.02,8.78-11.35,18.02-17.17,26.94
	c-4.92,7.53-8.39,15.7-10.39,24.37c-2.25,9.78-5.25,19.26-9.61,28.27c-3.96,8.18-7.91,16.34-14.51,22.97
	c-3.92,3.94-7.09,8.66-10.39,13.18c-0.71,0.97-0.52,2.59-0.75,3.91c1.16-0.17,2.5-0.04,3.46-0.57c4.81-2.66,9.35-5.87,14.31-8.2
	c15.96-7.5,32.87-8.44,50.1-6.49c5.26,0.6,10.51,1.23,15.75,1.98c1.93,0.28,3.97,0.63,5.69,1.48c8.13,4.06,13.68,10.83,18.48,18.28
	c0.68,1.06,1.32,2.59,1.09,3.73c-0.98,4.92,1.68,8.84,3.14,13.1c0.5,1.44,0.97,2.91,1.3,4.4c1.7,7.89,0.31,15.55-1.88,23.12
	c-0.32,1.1-1.09,2.22-1.96,2.99c-9.57,8.44-19.2,16.79-28.78,25.22c-0.83,0.73-1.78,1.8-1.89,2.8c-0.33,2.94-0.61,5.96-0.31,8.88
	c1.24,11.92,3.31,23.78,3.91,35.72c0.62,12.41,4.29,24.13,6.68,36.1c2.96,14.79,4.86,29.51,4.12,44.6
	c-0.27,5.61-2.33,10.32-5.66,14.44c-6.79,8.38-15.69,14.4-24.49,20.37c-8.66,5.88-18.73,8.5-28.77,11.04
	c-4.04,1.02-8.06,2.23-11.92,3.79c-5.88,2.38-9.99,7.12-14.07,11.71c-4.87,5.47-9.46,11.19-14.13,16.83
	c-0.73,0.88-1.27,1.92-2.22,3.38c3.07,0.49,5.64,1.38,8.14,1.2c3.46-0.26,6.84-1.45,10.3-1.97c1.14-0.17,2.66,0.18,3.57,0.87
	c2.81,2.13,4.34,5.86,8.36,6.55c0.28,0.05,0.73,1.69,0.48,1.92c-1.9,1.72-3.73,4.09-6,4.7c-3.57,0.95-4.95,3.45-7,6.01
	c0.8,0.42,1.27,0.54,1.54,0.83c0.55,0.59,1.14,1.23,1.39,1.96c0.09,0.25-0.74,1.15-1.19,1.19c-0.8,0.06-1.7-0.19-2.43-0.56
	c-0.38-0.2-0.34-1.19-0.72-1.39c-0.92-0.5-1.97-0.74-2.97-1.09c-0.13,1-0.64,2.17-0.29,2.95c0.43,0.96,1.58,1.6,2.45,2.41
	c-0.57,0-1.11-0.01-1.65,0c-2.4,0.07-3.38,1.82-3.39,3.71c-0.01,0.96,1.31,2.45,2.33,2.8c2.26,0.77,4.72,0.97,7.09,1.41
	c13.03,2.43,25.73,3.07,38.19-3.34c6.26-3.22,12.2-6.44,16.75-11.87c7.46-8.88,10.7-19.75,14.48-30.39c2.05-5.78,3.61-11.99,6.92-17
	c5.07-7.66,9.34-15.4,11.63-24.36c2.14-8.37,4.99-16.56,7.52-24.83c0.54-1.78,1.25-3.54,1.53-5.36c1.21-7.78,2.43-15.56,3.38-23.38
	c0.67-5.45,1.39-10.97,1.24-16.44c-0.26-9.89-1.17-19.77-1.75-29.65c-0.49-8.35-0.17-16.63,0.96-24.96c1.5-11,2.34-22.09,3.32-33.16
	c1.07-12.06,1.81-24.15,2.99-36.2c0.89-9.06,2.04-18.12,3.47-27.11c0.81-5.08,2.36-9.96,1.65-15.28
	c-1.34-10.04-2.29-20.13-3.3-30.22c-0.67-6.68-1.24-13.37-1.73-20.06c-1.03-14.15-2.25-28.3-2.89-42.47
	c-0.93-20.37-1.41-40.75-2.1-61.13c-0.02-0.55-0.15-1.09-0.22-1.64c-1.19-9.05-2.61-18.07-3.52-27.14
	c-1.04-10.46-3.45-20.53-7.35-30.27c-3.3-8.26-7.07-16.37-9.69-24.84c-4.39-14.14-7.96-28.53-12-42.79
	c-4.75-16.78-8.66-33.84-16.08-49.75c-5.51-11.8-11.09-23.57-16.85-35.26c-1.58-3.21-3.77-6.15-5.89-9.07
	c-4.82-6.65-9.69-13.27-14.7-19.78c-4.74-6.17-9.3-12.54-14.63-18.17c-6.11-6.46-12.74-12.49-19.59-18.17
	c-6.8-5.64-14.61-9.3-23.81-9.37c-11.06-0.09-20.93,4.22-30.74,8.33c-14.72,6.16-27.68,15.29-39.35,26.1
	c-6.26,5.8-12.13,12.08-17.75,18.52c-3.58,4.1-6.15,9.07-9.56,13.33c-10.56,13.19-21.62,25.98-31.86,39.41
	c-6.03,7.9-12.06,16.19-15.98,25.22c-7.29,16.78-14.98,33.51-19.26,51.46c-1.9,7.98-4.17,15.88-6.02,23.88
	c-1.51,6.52-2.52,13.15-3.99,19.67c-1.1,4.89-3.05,9.62-3.77,14.55c-1.68,11.44-2.98,22.94-4.19,34.44
	c-0.97,9.2-1.65,18.43-2.3,27.65c-0.59,8.34-1.52,16.71-1.31,25.04c0.44,17.41,1.51,34.8,2.38,52.19
	c0.53,10.56,1.21,21.12,1.74,31.68c0.15,3.07,1.27,4.85,4.6,5.25c3.27,0.39,6.45,1.5,9.71,1.98c12.05,1.78,23.57,5.02,34.66,10.27
	c10.76,5.1,20.8,11,28.72,20c6.69,7.6,12.71,15.68,16.42,25.23C579.56,485.24,580.45,487.53,581.33,489.82z M595.28,559.22
	c-0.42,0.12-0.83,0.25-1.25,0.37c0,1.16-0.04,2.33,0.01,3.49c0.25,6.15,0.91,12.32,0.67,18.45c-0.31,8.02-1.07,16.04-2.11,24
	c-0.63,4.84-2.11,9.58-3.29,14.34c-0.55,2.23-1.62,4.36-1.93,6.61c-1.14,8.43-0.83,16.86-0.25,25.36
	c0.43,6.31,1.61,12.96-2.17,18.97c-0.45,0.72,0.1,2.34,0.59,3.36c2.95,6.15,5.91,12.29,9.05,18.33
	c4.88,9.38,11.03,17.91,18.31,25.58c5.06,5.33,9.99,10.83,15.46,15.71c4.13,3.69,8.7,7.2,13.66,9.57
	c7.91,3.79,16.37,6.41,24.47,9.84c6.83,2.89,13.46,2.26,20.08-0.32c1.66-0.65,3.15-1.83,4.54-2.98c0.27-0.23-0.12-2.03-0.45-2.1
	c-2.31-0.56-4.72-1.33-7.03-1.16c-7.44,0.54-14.84,1.47-22.26,2.2c-3.05,0.3-5.23-1.39-5.36-3.98c-0.15-3.05,1.55-4.77,4.93-4.84
	c2.75-0.05,5.55,0.38,8.24,0c3.84-0.55,8.69-0.47,11.17-2.76c6.49-6.01,12.13-13,17.75-19.89c7.94-9.74,17.24-16.89,29.89-19.68
	c7.8-1.72,15.73-4.05,22.78-7.68c10.98-5.66,20.44-13.59,28.1-23.52c2.14-2.78,3.31-5.6,3.32-9.06c0.02-7.36,0.13-14.71,0.19-22.07
	c0.06-6.78-0.73-13.4-3.63-19.63c-0.36-0.77-0.63-1.69-0.58-2.53c0.62-11.93-3.75-23.2-4.54-34.96
	c-0.86-12.73-5.21-25.03-4.84-37.94c0.03-1.22-0.57-2.46-0.88-3.69c-1.42,0.41-3.02,0.54-4.23,1.29c-4.39,2.71-8.6,5.71-12.97,8.47
	c-8.96,5.65-18.39,7.21-27.76,1.48c-8.4-5.14-16.32-11.04-24.48-16.58c-0.68-0.46-1.6-1.05-2.27-0.91c-0.46,0.1-0.93,1.34-0.97,2.09
	c-0.34,6.6-0.44,13.21-0.89,19.8c-0.5,7.23-1.96,14.46-1.78,21.66c0.21,7.98,2.31,15.91,2.66,23.9c0.41,9.53,0.65,19.22-0.58,28.63
	c-0.92,7.05-4.43,13.74-6.53,20.67c-3.51,11.57-10.96,18.06-23.68,17.84c-4.9-0.09-10.05-0.38-14.89,1.93
	c-2.62,1.25-5.1-0.42-7.03-2.46c-1.82-1.92-3.71-3.76-5.45-5.74c-2.22-2.52-5.18-4.83-6.3-7.8c-3.52-9.32-6.01-19.01-9.48-28.35
	c-3.73-10.04-8.11-19.83-12.19-29.73c-3.67-8.94-7.31-17.89-10.97-26.83C597.18,563.72,596.22,561.47,595.28,559.22z M516.89,638.13
	c0.32-0.28,0.63-0.55,0.95-0.83c-0.11-0.85-0.09-1.74-0.37-2.53c-0.95-2.78-1.89-5.58-3.04-8.29c-3-7.07-5.93-14.17-9.22-21.1
	c-4.12-8.67-8.86-17.06-12.82-25.8c-6.78-14.99-12.97-30.25-19.79-45.23c-2.66-5.85-6.11-11.39-9.7-16.74
	c-1.64-2.44-4.8-3.8-6.71-6.12c-7.4-9-15.12-17.69-24.26-24.96c-4.28-3.4-8.89-6.39-13.37-9.54c-2.06-1.45-4.02-3.1-6.25-4.21
	c-3.92-1.94-8.17-3.25-12.01-5.32c-6.09-3.29-11.96-6.99-17.93-10.51c-11-6.49-22.55-3-26.29,8.65c-1.85,5.76-1.96,12.09-2.69,18.18
	c-0.49,4.09-0.27,8.24,2,11.79c4.31,6.73,8.57,13.51,13.39,19.86c9.89,13.03,20.06,25.86,30.3,38.62c1.86,2.32,4.3,4.61,6.98,5.74
	c8.98,3.78,18.18,7.01,27.29,10.48c0.5,0.19,0.93,0.57,1.39,0.88c7.21,4.81,14.28,9.86,21.67,14.38
	c10.43,6.39,20.66,12.98,29.1,21.96c6.32,6.72,12.36,13.7,18.87,20.22C508.21,631.54,512.7,634.68,516.89,638.13z M696,435.57
	c0.5,0.21,0.99,0.41,1.49,0.62c0.95-0.86,2.05-1.61,2.83-2.6c4.45-5.68,9.23-11.17,13.14-17.21c6.47-9.99,10.42-21.11,13.23-32.68
	c1.97-8.09,4.05-16.17,8.69-23.34c3.63-5.61,7.1-11.35,10.27-17.23c3.73-6.92,7.98-13.4,13.78-18.75
	c5.48-5.05,10.03-10.81,12.96-17.68c5.79-13.55,6.89-27.92,6.6-42.4c-0.1-4.9-1.39-9.8-2.35-14.65c-0.32-1.62-1.3-3.11-1.99-4.66
	c-0.45,0-0.91,0-1.36,0c-2.43,3.85-4.9,7.67-7.27,11.56c-3.89,6.37-7.32,13.08-11.72,19.08c-3.34,4.56-8.12,8.04-11.85,12.35
	c-5.09,5.89-10.52,11.68-14.52,18.29c-7.14,11.81-13.65,24.04-19.77,36.42c-3.02,6.12-5.67,12.83-6.52,19.52
	c-1.11,8.79-0.74,17.85-0.18,26.74c0.66,10.51,0.67,20.77-2.6,30.97C697.29,424.91,696.93,430.33,696,435.57z M735.77,451.52
	c-0.79,0.3-2.04,0.69-3.21,1.25c-12.01,5.71-24.02,11.4-35.98,17.21c-2.82,1.37-5.36,2.78-5.66,6.87
	c-1.05,14.3,1.02,28.34,2.85,42.4c0.17,1.28,1.1,2.66,2.06,3.59c8.1,7.85,17.28,14.3,27.06,19.82c5.95,3.36,12.77,4.75,19.01,1.5
	c8.63-4.49,16.78-9.93,25.02-15.15c0.72-0.46,0.97-2.36,0.76-3.46c-1.29-6.89-2.7-13.76-4.28-20.58c-0.25-1.1-1.44-2.05-2.36-2.9
	c-0.71-0.65-1.86-0.86-2.49-1.56c-7.15-7.99-13.52-16.53-16.75-26.91C739.57,466.45,737.83,459.14,735.77,451.52z M580.55,651.69
	c0.39-0.04,0.77-0.08,1.16-0.12c0.07-1.35,0.21-2.7,0.18-4.05c-0.17-8.59-0.56-17.18,1.53-25.64c1.86-7.52,5.31-14.59,5.6-22.57
	c0.29-8.12,1.81-16.22,1.73-24.32c-0.1-9.67-2.11-19.34-1.85-28.97c0.25-9.28-5.06-16.12-8.04-23.99c-0.83-2.19-2.11-2.42-4.04-0.88
	c-1.92,1.53-3.8,0.86-5.05-1.12c-1.75-2.78-3.49-5.58-5.01-8.49c-3.03-5.79-6.53-11.16-11.83-15.17c-6.44-4.86-6.54-4.85-9.27,2.39
	c-0.04,0.1-0.12,0.19-0.15,0.29c-1.45,4.91-4.1,9.57-3.12,14.99c0.33,1.84,0.82,3.66,0.95,5.51c0.72,9.74,1.37,19.49,1.98,29.25
	c0.2,3.24-0.26,6.58,0.37,9.72c0.97,4.81,2.58,9.5,3.97,14.23c1.74,5.94,4.33,11.52,4.81,17.98c0.49,6.43,2.6,12.84,4.7,19.02
	c1.24,3.63,4.01,6.71,5.81,10.18c3.98,7.68,7.81,15.44,11.64,23.2C578.03,645.92,579.25,648.83,580.55,651.69z M537.55,475.1
	c1.37-4.96,2.31-9.11,3.71-13.1c0.54-1.54,2.12-2.72,3.23-4.07c1.28,1.17,2.66,2.24,3.78,3.55c0.52,0.6,0.7,1.64,0.75,2.49
	c0.33,5.59,0.55,11.18,0.88,16.77c0.08,1.38-0.01,3.12,0.76,4.03c1.89,2.24,4.14,4.23,6.43,6.09c4.06,3.3,8.55,5.99,10.65,11.32
	c1.25,3.17,3.64,5.89,5.66,9.02c2.54-2.38,3.06-4.67,2.01-7.29c-1.18-2.94-2.48-5.82-3.64-8.76c-0.87-2.21-1.56-4.73,0.81-6.26
	c1.97-1.27,1.84-2.72,1.07-4.19c-3.12-5.9-5.9-12.09-9.75-17.49c-9.06-12.69-21.72-21.01-35.82-27.17
	c-12.12-5.3-25.15-7.23-38.04-9.56c-1.03-0.19-2.13-0.02-3.55-0.02c0.16,2.33,0.02,4.35,0.47,6.23c2.6,11,5.26,22,8.08,32.95
	c1.17,4.56,1.36,4.5,5.57,1.93c0.66-0.4,1.45-0.6,2.05-1.06c4.19-3.17,8.62-6.09,12.41-9.67c2.91-2.75,5.16-3.34,8.06-0.36
	c3.13,3.22,6.08,6.61,9.2,9.85C533.82,471.89,535.54,473.27,537.55,475.1z M758.7,441.62c-4.22,0.12-5.67,1.42-4.37,4.53
	c1.9,4.53,3.94,9,5.83,13.53c4.44,10.65,8.52,21.34,8.76,33.16c0.14,7.05,1.59,7.75,8.37,5.4c1.12-0.39,2.16-1.06,3.19-1.69
	c7.88-4.8,12.82-12.11,16.98-20.05c2.9-5.54,2.42-9.01-1.96-13.57c-3.64-3.8-7.41-7.48-11.17-11.17
	C777.38,444.95,768.81,442.11,758.7,441.62z M545.65,671.35c-0.31,0.28-0.62,0.57-0.93,0.85c1.82,2.48,3.58,5,5.47,7.43
	c4.25,5.46,8.38,11.03,12.89,16.26c4.87,5.66,10.1,11.02,15.22,16.46c10.64,11.3,22.93,20.54,36.43,28.06
	c11.62,6.47,23.53,12.41,35.36,18.49c8.3,4.27,17.15,6.92,26.41,8.03c1.03,0.12,2.19-0.89,3.3-1.38c-0.83-0.76-1.54-1.82-2.52-2.22
	c-5.48-2.25-11.03-4.36-16.57-6.49c-5.44-2.09-11.08-3.77-16.3-6.31c-10.54-5.12-18.86-13.15-26.85-21.54
	c-1.57-1.65-3.42-3.09-5.31-4.39c-5.68-3.92-12.09-7.03-17.05-11.69c-13.96-13.11-28.35-25.67-43.61-37.23
	C549.63,674.2,547.63,672.79,545.65,671.35z M529.27,547.46c-0.5-1.8-0.74-2.95-1.14-4.02c-0.97-2.56-2.16-5.05-3.02-7.64
	c-1.86-5.58-3.47-11.25-5.36-16.82c-2.19-6.44-4.26-12.95-6.96-19.18c-2.56-5.91-5.78-11.54-8.87-17.21
	c-0.73-1.34-1.83-3.01-3.94-1.77c-1.98,1.16-3.15,2.53-2.15,5.1c0.67,1.71,0.63,3.68,1.16,5.46c4.15,14,8.12,28.04,14.31,41.35
	C516.53,539.64,520.94,544.9,529.27,547.46z M536.87,491.12c0.11,0,0.22,0,0.32,0c0-2.3,0.12-4.62-0.05-6.91
	c-0.07-0.99-0.52-2.16-1.19-2.87c-3.24-3.42-6.55-6.79-9.96-10.04c-4.05-3.86-5.48-4.43-9.52-1.07c-0.99,0.82-2.33,1.22-3.48,1.84
	c-4.44,2.42-5.12,5.57-1.63,9.18c4.72,4.89,9.58,9.65,14.56,14.26c1.89,1.75,4.21,3.11,6.5,4.34c3.53,1.89,4.33,1.32,4.45-2.82
	C536.91,495.08,536.87,493.1,536.87,491.12z M803.68,478.86c-1.28,1.87-2.08,3.09-2.95,4.27c-2.32,3.18-4.29,6.73-7.07,9.44
	c-4.67,4.55-8.92,9.85-15.71,11.57c-1.92,0.49-3.93,0.7-5.76,1.42c-0.77,0.3-1.7,1.66-1.6,2.41c0.54,4.12,1.34,8.21,2.11,12.31
	c0.76,4.04,1.64,4.41,4.83,1.6c5.36-4.73,10.78-9.42,15.76-14.53c4.51-4.63,9.91-8.79,10.79-16.01
	C804.55,487.44,805.22,483.61,803.68,478.86z M761.44,496.05c0.39-0.17,0.78-0.34,1.17-0.51c0.39-7.63-0.65-15.18-2.88-22.48
	c-1.33-4.36-3.78-8.37-5.66-12.57c-1.92-4.29-3.67-8.66-5.72-12.88c-0.41-0.83-1.89-1.58-2.86-1.56c-0.77,0.02-1.74,1.15-2.2,2.01
	c-0.56,1.03-0.73,2.28-0.96,3.46c-1.72,8.71,1.85,16.44,4.97,24.08c2.08,5.1,5.3,9.78,8.36,14.42
	C757.17,492.31,759.48,494.06,761.44,496.05z M531.46,538.24c0.45-0.01,0.9-0.02,1.35-0.03c0.46-0.68,0.95-1.35,1.38-2.05
	c3.21-5.28,3.14-11.13,2.8-16.98c-0.4-6.73-0.66-13.6-8.74-16.26c-0.58-0.19-1.01-0.83-1.52-1.25c-3.08-2.54-6.17-5.08-9.26-7.62
	c-0.26,0.19-0.51,0.38-0.77,0.57C521.61,509.16,526.53,523.7,531.46,538.24z M740.8,439.15c-1.23,0-2.09-0.05-2.95,0.01
	c-8.25,0.59-16.05,2.94-23.16,7.04c-6.24,3.59-12.23,7.65-18.09,11.84c-1.15,0.82-1.21,3.17-1.78,4.81c1.65-0.12,3.49,0.22,4.9-0.42
	c10.11-4.55,20.19-9.18,30.16-14.03C734.06,446.37,738.73,444.67,740.8,439.15z M492.85,487.2c-6.12,2.72-8.02,6.46-6.51,12
	c2.96,10.82,9.13,19.92,15.64,28.79c1.64,2.24,3.98,3.97,6,5.93c0.13-0.18,0.25-0.36,0.38-0.55
	C503.21,518.07,498.07,502.75,492.85,487.2z M687.37,511.61c-0.54-13.52-1.06-26.66-1.58-39.79c-0.33-0.05-0.65-0.11-0.98-0.16
	c-0.61,0.99-1.4,1.92-1.79,2.99c-1.74,4.8-3.68,9.56-4.97,14.49C675.5,498.81,678.38,505.58,687.37,511.61z M592.29,487.33
	c-0.39-0.12-0.77-0.23-1.16-0.35c-0.43,0.64-0.95,1.23-1.28,1.91c-1.44,2.95-2.39,6.27-4.38,8.77c-1.67,2.1-2.54,4.16-2.37,6.57
	c0.3,4.26,0.75,8.54,1.55,12.73c0.42,2.18,1.71,4.19,2.6,6.28c0.4-0.1,0.81-0.19,1.21-0.29
	C589.52,511.06,593.58,499.46,592.29,487.33z M525.22,551.37c-0.27,0.32-0.53,0.64-0.8,0.96c6.4,9.71,12.79,19.41,19.19,29.12
	c0.52-0.24,1.04-0.48,1.56-0.72c-2.34-7.26-4.67-14.53-7.05-21.78c-0.12-0.38-0.5-0.75-0.86-0.95
	C533.26,555.76,529.24,553.57,525.22,551.37z M798.91,458.29c-1.62-6.96-14.55-17.38-19.14-15.46
	C787.19,446.61,791.41,453.73,798.91,458.29z"/>
<path d="M755.42,783.36c0.11,1.11,0.21,2.21,0.4,4.19c-2.2-1.17-3.63-1.93-5.06-2.7c0.05-0.32,0.1-0.63,0.15-0.95
	c1.52-0.16,3.05-0.32,4.57-0.49C755.48,783.42,755.42,783.36,755.42,783.36z"/>
</svg>
