<?xml version="1.0" encoding="utf-8"?>
<!-- Generator: Adobe Illustrator 24.1.0, SVG Export Plug-In . SVG Version: 6.00 Build 0)  -->
<svg version="1.1" id="Layer_1" xmlns="http://www.w3.org/2000/svg" xmlns:xlink="http://www.w3.org/1999/xlink" x="0px" y="0px"
	 viewBox="0 0 1224 792" style="enable-background:new 0 0 1224 792;" xml:space="preserve">
<path d="M256.49,5.83c-2.16,0.46-4.3,1.03-6.48,1.36c-8.18,1.27-16.38,2.45-24.57,3.71c-3.86,0.59-7.7,1.28-11.54,1.92
	c0-2.33,0-4.66,0-6.99C228.1,5.83,242.29,5.83,256.49,5.83z"/>
<path d="M440.12,699.57c-2.28-3.75-4.41-7.12-6.42-10.56c-4.21-7.2-8.22-14.52-12.56-21.64c-4.23-6.94-8.78-13.69-13.19-20.52
	c-5.11-7.9-10.23-15.78-15.31-23.7c-0.62-0.96-1.09-2.06-1.43-3.16c-1.76-5.76-6.25-8.76-11.26-11.23
	c-4.97-2.46-8.48-6.59-12.09-10.57c-5.68-6.25-11.09-12.77-16.9-18.9c-3.53-3.72-6.69-7.59-9.07-12.15
	c-1.12-2.15-2.67-4.07-3.92-6.16c-3.44-5.7-6.82-11.43-10.23-17.15c-0.54-0.91-1.1-1.81-1.64-2.72c-0.74-1.25-1.73-1.72-3.2-1.3
	c-4.57,1.28-9.23,2.27-13.72,3.78c-8.02,2.7-15.92,5.76-23.92,8.53c-6.09,2.11-12.43,2.34-18.8,1.95c-2.39-0.15-3.72-1.37-3.79-3.8
	c-0.2-7.04-3.06-13.35-5.38-19.81c-1.79-4.98-3.39-10.04-5.56-14.85c-2.13-4.71-4.79-9.19-7.38-13.68c-2.32-4.03-4.86-7.94-7.3-11.9
	c-2.41-3.92-1.34-5.38,3.17-6.28c5.57-1.11,11.04-2.84,16.45-4.64c6.22-2.07,12.41-4.27,18.42-6.85c3.28-1.41,6.8-2.74,8.81-6.26
	c1.48-2.6,3.92-2.32,5.84,0.25c1.95,2.6,4.03,5.12,6.11,7.62c0.42,0.51,1.1,0.81,2.24,1.62c0.32-4.19,0.92-7.84,0.79-11.46
	c-0.18-5.02,0.27-10.16-1.87-15c-0.34-0.78,0.39-2.37,1.09-3.2c0.99-1.17,2.5-0.9,3.27,0.33c1.72,2.74,3.38,5.55,4.74,8.48
	c1.24,2.67,2.07,5.52,3.04,8.31c1.07,3.1,2.07,6.22,3.16,9.32c0.37,1.06,0.92,2.05,2,3.06c0.37-1.38,0.91-2.73,1.09-4.13
	c0.87-6.93,1.72-13.86,2.4-20.8c0.2-2.08-0.21-4.21-0.24-6.31c-0.06-4.45,0.01-8.9-0.08-13.35c-0.26-11.74-0.99-23.4-3.45-34.96
	c-3.29-15.45-5.12-31.11-4.69-46.95c0.28-10.54-1.28-20.88-2.85-31.24c-0.63-4.18-1.29-8.4-1.37-12.62
	c-0.2-9.49-1.52-18.9-0.02-28.5c1.3-8.27,3.78-16.01,6.7-23.74c3.4-8.99,7.17-17.89,9.82-27.11c4.69-16.32,11.83-31.46,20.66-45.83
	c3.36-5.47,7.6-10.4,11.47-15.56c3.42-4.57,6.78-9.18,10.34-13.64c3.03-3.79,6.26-7.44,9.51-11.04c4.6-5.09,9.17-10.22,14-15.09
	c4.9-4.95,10.03-9.7,15.17-14.4c6.63-6.06,13.35-12.03,20.11-17.95c4.05-3.55,8.06-7.2,12.44-10.3c5.75-4.08,11.84-7.69,17.8-11.46
	c4.68-2.97,9.59-5.42,15.1-6.43c6.54-1.2,13.09-2.41,19.66-3.41c8.89-1.35,17.69-0.02,26.54,0.96c4.34,0.48,8.86-0.05,13.23-0.65
	c5.77-0.78,10.96-0.65,14.73,4.74c0.86,1.23,2.44,1.97,3.72,2.89c0.33,0.24,0.8,0.29,1.16,0.5c12.92,7.27,9.5,4.08,24.92,3.8
	c8.98-0.17,17.97,0.34,26.95,0.55c0.21,0,0.43,0.05,0.62,0.13c7.13,2.89,14.51,5.31,21.32,8.81c9.38,4.83,18.33,10.48,27.46,15.78
	c1.99,1.15,3.29,0.72,3.98-1.76c1.39-4.99,2.73-10.01,3.78-15.07c2.11-10.14,4.17-20.3,5.97-30.5c1.58-8.95,2.72-17.98,4.18-26.96
	c0.19-1.18,0.88-2.84,1.79-3.24c1.77-0.78,3.02,0.83,3.67,2.24c3.1,6.7,8.21,11.8,13.41,16.75c6.12,5.83,12.72,11.07,19.71,15.9
	c7.38,5.1,15.76,7.53,24.02,10.4c1.08,0.37,2.4,0.11,3.42,0.58c1.15,0.53,2.43,1.37,2.98,2.42c0.31,0.59-0.52,2.08-1.2,2.84
	c-3.89,4.34-7.39,8.85-10.03,14.15c-3.9,7.83-8.26,15.46-12.81,22.95c-4.54,7.47-9.55,14.65-14.36,21.96
	c-1.17,1.77-1.59,3.57-0.86,5.7c3.04,8.89,5.89,17.85,8.99,26.73c1.77,5.08,3.81,10.07,5.88,15.04c3.32,7.99,6.74,15.93,10.14,23.89
	c3.16,7.38,6.42,14.72,9.5,22.14c1.45,3.5,2.4,7.21,3.87,10.7c2.75,6.52,5.92,12.86,8.52,19.43c1.94,4.89,3.47,9.98,4.85,15.07
	c3.28,12.13,2.55,24.26-0.32,36.36c-0.66,2.78-0.96,5.64-1.65,8.41c-2.57,10.36-5.39,20.66-7.8,31.05
	c-0.97,4.2-1.28,8.57-1.59,12.89c-0.39,5.48-0.28,11-0.74,16.47c-0.52,6.21-1.45,12.39-2.16,18.58c-0.56,4.93-1.06,9.88-1.56,14.82
	c-0.42,4.1-0.78,8.21-1.24,12.31c-0.63,5.67-1.22,11.36-2.03,17c-0.39,2.7-1.28,5.33-1.91,8c-0.9,3.8-1.89,7.59-2.6,11.42
	c-0.36,1.91-1.06,3.38-2.69,4.43c-3.74,2.4-7.42,4.88-11.18,7.24c-7.02,4.4-11.8,10.39-13.94,18.51
	c-1.61,6.13-3.91,12.09-5.29,18.26c-0.93,4.17-0.85,8.58-1.11,12.89c-0.09,1.56,0.8,2.6,2.42,2.85c5.53,0.87,9.15,4.45,12.51,8.56
	c1.4,1.71,1.36,3.22,0.4,4.92c-1.09,1.93-1.99,4.06-3.45,5.67c-1.98,2.18-2.14,4.59-1.61,7.11c1.25,5.89,2.78,11.69,6.32,16.73
	c1.15,1.64,0.65,3.21-0.57,4.63c-3.73,4.33-7.47,8.65-11.17,13.01c-1.01,1.18-1.88,2.48-2.81,3.72c0.15,0.18,0.29,0.36,0.44,0.55
	c1.11-0.63,2.2-1.31,3.35-1.87c4.94-2.41,9.87-4.84,14.88-7.11c0.96-0.44,2.43-0.62,3.32-0.19c1.97,0.95,3.78,0.39,5.76,0.34
	c6.07-0.15,12.19-2.22,18.22,0.18c1.47,0.58,2.83,1.43,4.3,1.99c1.93,0.74,3.89,1.55,5.91,1.89c2.77,0.47,3.92,1.24,3.97,3.95
	c0.06,3.28,0.46,6.43,1.31,9.65c1.35,5.11-0.39,10-2.43,14.72c-1.33,3.08-3.08,6.08-2.3,9.69c0.08,0.38-0.1,0.83-0.2,1.24
	c-0.44,1.86-6.54,8.49-8.36,9.01c-3.75,1.08-7.56,1.96-11.27,3.18c-3.06,1.01-6.04,0.36-9.09,0.23c-9.18-0.39-18.07-1.94-26.46-5.85
	c-1.05-0.49-2.15-0.98-3.28-1.15c-3.3-0.52-4.83,1.16-3.86,4.33c2.98,9.65,3.49,19.58,2.9,29.53c-0.33,5.67-1.79,11.27-2.48,16.94
	c-0.59,4.81-0.94,9.67-1.13,14.51c-0.08,2.08-0.55,3.72-1.66,5.56c-6.64,11.05-16.18,19.82-23.53,30.3
	c-0.52,0.74-1.34,1.34-2.13,1.81c-3.79,2.28-7.62,4.5-11.43,6.75c-1.27,0.75-2.62,1.42-3.76,2.34c-1.19,0.95-2.14,2.2-3.26,3.25
	c-1.03,0.95-2.01,2.16-3.25,2.62c-2.75,1.03-5.61,1.85-8.49,2.4c-1.58,0.3-3.46,0.24-4.88-0.38c-0.93-0.41-1.82-2.16-1.73-3.23
	c0.07-0.86,1.62-2.27,2.53-2.28c9.14-0.09,15.47-6.16,22.64-10.41c2.91-1.72,5.76-3.54,8.57-5.42c1.13-0.76,2.24-1.67,3.08-2.73
	c6.23-7.88,12.45-15.77,18.55-23.74c2.65-3.47,3.64-7.47,3.68-11.91c0.04-3.99,0.89-7.97,1.3-11.97c0.47-4.62,0.37-9.35,1.4-13.83
	c1.01-4.36,0.98-8.6,0.42-12.88c-0.71-5.32-1.77-10.6-2.7-15.9c-0.28-1.61-1.49-2.12-2.83-1.81c-3.08,0.72-6.15,1.52-9.12,2.58
	c-0.74,0.26-1.4,1.61-1.54,2.54c-0.84,5.64-1.41,11.33-2.28,16.96c-0.51,3.33-1.41,6.6-2.14,9.89c-0.32,1.45-0.72,2.88-0.96,4.34
	c-0.57,3.55-2.08,5.04-5.5,6.16c-3.48,1.14-6.99,2.38-10.22,4.08c-5.79,3.04-11.52,6.24-16.99,9.81c-3.6,2.35-6.7,5.45-10,8.24
	c-0.72,0.61-1.23,1.57-2.03,1.98c-3.21,1.66-3.41,4.28-3.09,7.49c1.21,12.15,0.93,24.27-0.34,36.44
	c-0.89,8.51-2.74,16.67-5.99,24.52c-1.65,4-3.74,7.82-5.71,11.67c-0.95,1.86-2.58,2.74-4.71,2.62c-6.41-0.36-12.61,0.53-18.79,2.39
	c-2.62,0.79-5.62,0.32-8.45,0.34c-1.58,0.01-3.17-0.27-4.75-0.22c-10.56,0.31-21.11,0.58-31.42,3.35
	c-7.25,1.94-14.29,1.17-21.48-1.3c-8.32-2.86-16.03-6.79-23.01-11.91c-6.81-4.99-12.25-11.44-16.73-18.76c-2.96-4.83-7-9-10.5-13.52
	c-4-5.17-7.94-10.38-11.9-15.58c-2.03-2.67-3.18-5.79-4.66-8.73c-1.51-3-5.32-4.84-8.14-7.18c-0.95-0.79-2.22-1.38-2.83-2.37
	c-1.35-2.18-0.08-6.27,3.35-5.75C438.68,699.74,439.18,699.62,440.12,699.57z M517.32,465.41c0.84-3.89-0.43-7.03-1.52-10.19
	c-2.64-7.67-8.1-13.54-12.73-19.92c-3.72-5.13-7.79-10-11.78-14.92c-5.45-6.71-9.38-14.31-13.1-22.04
	c-2.39-4.96-5.08-9.78-7.29-14.81c-4.77-10.84-9.58-21.67-13.86-32.7c-2.67-6.88-4.78-14.04-6.41-21.23
	c-1.17-5.18-2.58-10.03-6.23-13.97c-1.43-1.54-1.89-3.25-1.68-5.24c0.13-1.26,0.33-2.52,0.43-3.78c0.33-3.96,1.45-7.89-0.59-11.82
	c-3.55-6.85-7.12-13.71-10.19-20.78c-2.05-4.72-4.19-9.74-4.58-14.76c-0.69-8.84-0.48-17.76-2.22-26.52c-0.8-4.02-1.85-8-2.86-11.98
	c-1.35-5.29-2.84-10.55-4.15-15.85c-0.68-2.76-0.84-5.69-1.74-8.36c-1.08-3.2-2.84-3.55-5.36-1.43c-4.35,3.66-8.6,7.44-12.98,11.05
	c-4.31,3.55-8.73,6.96-13.1,10.44c-6.24,4.97-13.35,8.45-20.32,12.23c-11.61,6.3-22.96,13.11-33.35,21.33
	c-5.99,4.73-10.59,10.48-13,17.96c-2.22,6.92-3.03,14.04-3.62,21.16c-1,12.01-1.55,24.06-2.27,36.1c-0.04,0.73,0.09,1.48,0.2,2.21
	c1.11,6.97,2.22,13.94,3.34,20.91c0.37,2.3,0.97,4.58,1.11,6.89c0.49,8.02,0.72,16.06,1.26,24.08c0.6,8.85,1.35,17.69,2.22,26.52
	c0.39,3.99,0.99,7.99,1.91,11.89c0.7,2.96,2.14,5.74,3.12,8.64c2.72,7.99,5.46,15.98,8.01,24.03c1.68,5.31,4.08,10.16,7.44,14.63
	c3.23,4.3,5.92,9.03,9.24,13.26c6.77,8.63,13.76,17.09,20.73,25.55c5.16,6.27,10.32,12.54,15.7,18.62
	c6.93,7.83,15.91,13.19,24.08,19.54c0.66,0.52,1.45,0.86,2.18,1.3c7.43,4.44,14.82,8.96,22.32,13.29
	c8.78,5.07,17.59,10.09,26.53,14.88c4.37,2.34,9.09,4.02,13.59,6.11c6.13,2.86,12.2,5.86,18.32,8.74c2.06,0.97,4.15,0.91,5.99-0.58
	c3.1-2.51,6.9-3.14,10.59-3.97c2.57-0.58,5.2-0.93,7.83-1.2c4.72-0.5,9.46-1.22,14.19-1.18c4.49,0.04,5.03,0.17,4.75-4.21
	c-0.57-8.86-1.27-17.71-2.28-26.53c-0.94-8.16-2.27-16.28-3.6-24.39c-0.89-5.42-2.06-10.81-3.21-16.18c-0.2-0.95-0.76-2.2-1.52-2.59
	c-2.47-1.26-2.52-3.44-2.69-5.67c-0.2-2.63-0.18-5.32-0.79-7.86c-0.36-1.5-1.49-3.14-2.76-4.03c-2.05-1.43-4.54-2.19-6.76-3.39
	c-3.22-1.75-6.39-3.6-9.52-5.51c-1.68-1.03-3.12-1.95-5.18-0.56c-2.31,1.56-3.53,1.12-5.44-0.98c-3.53-3.87-6.25-8.56-11.35-10.88
	c-1.69-0.77-1.93-3.29-0.83-4.75c1.19-1.58,2.74-2.07,4.42-0.87c1.71,1.22,3.44,2.5,4.88,4.01c3.85,4.02,4.13,4.12,8.65,0.95
	c0.26-0.18,0.49-0.41,0.76-0.58c3.77-2.37,7.7-3.42,12.06-1.58C513.81,464.5,515.44,464.84,517.32,465.41z M591.73,600.56
	c0.71-1.39,1.22-2.17,1.52-3.02c1.4-3.91,2.87-7.74,6-10.69c0.56-0.52,0.82-1.46,1.01-2.25c0.77-3.15,1.46-3.72,4.68-4.08
	c1.22-0.14,2.66-0.27,3.55-0.98c5.14-4.06,10.09-8.34,15.2-12.43c4.04-3.23,7.86-7.01,12.41-9.27c5.72-2.83,11.93-4.99,18.4-5.65
	c3.68-0.37,5.75-1.92,7.74-5.23c4.82-8.03,8.76-16.4,11.77-25.21c3.04-8.91,5.93-17.82,10.84-25.98c2.94-4.88,5.07-10.24,7.77-15.27
	c2.55-4.75,5.48-9.29,8.05-14.02c5.04-9.26,5.91-19.57,7.07-29.76c0.88-7.67,0.97-15.44,2.19-23.04c2.1-13.03,3.42-26.18,7.11-38.98
	c2.48-8.61,3.72-17.59,3.45-26.68c-0.14-4.64-0.04-9.29,0.04-13.94c0.1-5.71,0.6-11.43,0.41-17.12
	c-0.42-12.26-1.06-24.52-1.83-36.77c-0.32-5.08-1.13-10.13-4.85-14.13c-3.74-4.02-7.23-8.28-11.14-12.12
	c-7.5-7.36-14.6-15.08-20.63-23.66c-7.47-10.64-14.52-21.58-21.71-32.41c-1.16-1.76-2.35-2.35-4.1-0.81
	c-3.16,2.79-6.41,5.49-9.51,8.35c-4.59,4.23-9.28,8.37-13.57,12.89c-5.07,5.35-9.9,10.88-13.7,17.32
	c-4.39,7.46-9.57,14.45-14.06,21.85c-3.12,5.15-5.73,10.61-8.42,16.01c-0.58,1.16-0.88,2.66-0.74,3.95
	c0.62,5.78,1.22,11.58,2.26,17.3c1.49,8.21,3.57,16.32,4.98,24.54c1.84,10.69,4.18,21.3,2.62,32.39c-0.87,6.22-1.74,12.34-4.44,18
	c-2.17,4.55-4.79,8.91-7.4,13.23c-1.57,2.61-3.47,5.02-5.3,7.47c-0.95,1.27-2.11,2.37-3.06,3.64c-4.29,5.71-9.27,10.65-15.4,14.4
	c-2.34,1.43-3.78,3.47-4.39,6.3c-1.02,4.75-2.3,9.45-3.69,14.11c-1.03,3.44-2.25,6.84-3.68,10.13c-1.64,3.77-3.4,7.51-5.51,11.03
	c-1.78,2.97-3.26,5.94-3.53,9.4c-0.75,9.48-1.66,18.96-2.06,28.46c-0.17,4-0.65,8.29,2.38,11.85c1.49,1.76,2.6,3.84,3.83,5.81
	c2.05,3.32,4.22,6.58,6.04,10.03c2.36,4.47,4.37,9.12,6.64,13.63c1.23,2.45,1.03,3.99-0.97,5.14c-2.05,1.18-4.02,0.63-5.34-1.51
	c-1.31-2.11-2.27-2.52-4.3-1.01c-2.1,1.56-3.96,3.48-5.73,5.43c-3.12,3.43-3.56,7.29-1.36,11.43c1.14,2.15,2.09,4.4,3.36,6.47
	c3.37,5.48,6.54,11.12,10.42,16.22c2.3,3.02,5.86,5.07,8.76,7.66c6.16,5.51,11.85,11.46,16.46,18.38
	C589.01,598.43,590.23,599.19,591.73,600.56z M450.36,256.7c0.54-0.13,0.72-0.13,0.74-0.18c1.6-4.4,3.33-8.77,4.73-13.24
	c0.71-2.27,0.9-4.72,1.2-7.1c0.3-2.38,0.54-4.77,0.65-7.16c0.22-4.63,0.32-9.27,0.54-13.9c0.03-0.59,0.46-1.17,0.75-1.73
	c0.85-1.69,1.86-3.32,2.57-5.06c1.62-4,3.12-8.06,4.64-12.1c0.52-1.37,0.95-2.77,1.42-4.16c1.55-4.59,3.04-9.2,4.68-13.76
	c0.29-0.81,1.18-1.41,2-2.35c0.35,0.85,0.62,1.17,0.55,1.4c-0.89,3.02-1.53,6.17-2.82,9.02c-2.59,5.74-3.06,11.93-4.41,17.94
	c-1.32,5.86-2.87,11.66-4.28,17.49c-0.29,1.21-0.87,2.67-0.46,3.66c1.97,4.74-0.1,9.28-0.97,13.62c-1.53,7.63-4.31,15.02-6.55,22.51
	c-0.18,0.59-0.2,1.24-0.24,1.86c-0.56,9.22,3.67,17.47,5.43,26.23c1.2,5.98,3.5,11.73,5.11,17.63c1.5,5.5,2.77,11.07,4.09,16.63
	c0.71,3.02-0.24,4.19-3.29,4.2c-1.59,0.01-3.18-0.07-4.77-0.03c-4.69,0.12-5.72,1.11-4.69,5.54c1.18,5.04,2.52,10.08,4.37,14.9
	c2.87,7.5,6.24,14.8,9.39,22.19c1.41,3.3,2.66,6.68,4.21,9.92c2.92,6.09,6.18,12.03,8.97,18.18c3.53,7.78,8.49,14.58,13.73,21.23
	c3.14,3.98,6.29,7.96,9.51,11.87c1.47,1.79,3.12,3.43,4.69,5.13c0.6-1.96,0.83-3.47,0.56-4.87c-2.08-10.77-3.13-21.76-6.9-32.16
	c-0.17-0.47-0.12-1.04-0.09-1.56c0.28-4.33,0.42-8.67,0.93-12.97c0.51-4.29,0.98-8.66,2.21-12.77c2.39-7.99,5.91-15.65,6.18-24.19
	c0.05-1.48,0.27-2.95,0.51-4.41c0.22-1.31,0.35-2.78,2.33-3.01c1.59,2.63,1.6,5.49,1.2,8.28c-0.6,4.16-1.41,8.3-2.35,12.4
	c-1.51,6.58-3.04,13.15-4.87,19.64c-1.41,4.98-1.8,10.02-1.08,15.02c0.98,6.77,2.58,13.46,3.87,20.19c0.18,0.92,0.15,1.89,0.2,2.83
	c0.1,1.55,0.06,3.13,0.31,4.66c0.67,4.07,1.46,8.12,2.21,12.18c1.08,5.81,1.91,11.67,4.52,17.1c0.75,1.56,0.91,3.41,1.22,5.15
	c0.69,3.95,1.03,7.99,2.09,11.82c0.44,1.6,2.22,3.02,3.73,4.01c0.41,0.27,2.04-1.3,3.11-2.03c0.18-0.12,0.35-0.24,0.52-0.37
	c8.52-6.38,14.24-14.36,14.66-25.42c0.05-1.37,0.27-2.74,0.51-4.09c1.51-8.54,3.68-17.02,4.45-25.63
	c1.53-17.06,2.5-34.18,3.31-51.29c0.49-10.33,2.89-20.29,4.94-30.32c0.52-2.55,1.64-5.03,2.8-7.4c2.04-4.17,4.29-8.23,6.51-12.31
	c3.12-5.75,6.36-11.44,9.43-17.21c3.87-7.28,7.7-14.58,11.38-21.95c0.67-1.33,0.84-3.05,0.8-4.58c-0.31-13.09-1.19-26.2-0.92-39.28
	c0.17-8.19,1.56-16.44,3.23-24.49c2-9.62,5.13-19,10.03-27.6c3.4-5.96,7.15-11.74,11.03-17.4c2.67-3.9,5.86-7.46,8.76-11.2
	c1.37-1.77,1.2-3.42-0.4-5.1c-4.45-4.67-8.71-9.53-13.24-14.12c-4.68-4.75-9.24-9.72-14.48-13.78
	c-6.25-4.83-11.74-10.28-16.78-16.27c-5.78-6.87-11.51-13.79-17.28-20.68c-1.55-1.84-3.51-2.67-5.94-2.15
	c-1.35,0.28-2.72,0.46-4.05,0.78c-3.24,0.78-3.93,2.01-3.01,5.28c0.17,0.61,0.44,1.19,0.68,1.78c3.35,8.09,5.54,16.31,4.85,25.27
	c-1.07,13.77,1.23,27.43,1.97,41.14c0.43,7.92,0.87,15.94,0.11,23.79c-1.13,11.56-3.2,23.03-6.86,34.14
	c-1.02,3.1-1.65,6.33-2.71,9.42c-0.71,2.08-1.99,3.96-2.8,6.02c-5.53,14.18-7.8,29.16-10.88,43.95c-0.71,3.42-1.71,6.77-2.38,10.19
	c-1.72,8.78-3.33,17.57-5,26.36c-0.02,0.08-0.34,0.1-0.94,0.28c0.34-4.01,0.52-7.9,1.04-11.73c0.82-6.06,1.92-12.09,2.83-18.14
	c1.26-8.36,2.33-16.75,3.73-25.08c0.74-4.37,2.06-8.63,3.05-12.96c0.52-2.26,0.63-4.64,1.39-6.8c2.69-7.68,5.62-15.28,8.37-22.94
	c1-2.78,1.82-5.64,2.62-8.48c2.47-8.8,3.95-17.77,4.09-26.92c0.11-7.41,0.29-14.83-0.1-22.22c-0.64-12.03-2.9-23.94-2.28-36.08
	c0.4-7.75-0.37-15.45-3.45-22.75c-0.86-2.04-1.54-4.16-2.21-6.27c-1.47-4.62-1.86-4.89-6.78-4.28c-0.42,0.05-0.84,0.11-1.25,0.22
	c-7.18,1.77-14.38,3.47-21.52,5.4c-1.15,0.31-2.48,1.44-2.94,2.53c-2.15,5.06-4.14,10.19-5.97,15.37
	c-3.42,9.73-8.06,18.85-13.53,27.56c-0.27,0.42-0.85,0.64-1.6,1.18c4.98-14.98,12.2-28.69,15.5-43.92
	c-5.16,0.61-9.01,2.91-11.99,6.51c-5.05,6.09-11.32,11.02-15.78,17.73c-3.95,5.95-8.99,11.17-13.35,16.87
	c-3.72,4.86-7.23,9.89-10.67,14.95c-5.25,7.72-11.14,14.87-17.8,21.45c-5.25,5.2-10.07,10.85-14.93,16.42
	c-2.7,3.1-2.54,3.41,1.12,5.1c2.22,1.02,4.01,2.53,3.31,5.08c-1.41,5.12,1.6,8.9,3.44,13.05c0.3,0.67,0.75,1.28,1.06,1.95
	c6.67,14.84,13.34,29.69,20.02,44.53C449.66,255.92,450.05,256.28,450.36,256.7z M324.18,437.64c-0.39,0.06-0.78,0.11-1.17,0.17
	c-0.14,1.37-0.43,2.75-0.38,4.12c0.48,13.39-1.29,26.6-3.24,39.77c-0.85,5.76-0.44,11.38,0.47,17.03
	c1.14,7.07,4.96,12.75,9.57,17.97c8.62,9.74,17.35,19.38,25.9,29.18c4.17,4.77,7.95,9.87,12.05,14.71
	c7.17,8.47,14.51,16.79,21.65,25.28c5.16,6.14,10.2,12.39,15.14,18.7c3.44,4.4,6.83,8.86,9.87,13.53
	c3.57,5.49,6.97,11.11,10.02,16.9c3.2,6.07,6.18,12.3,8.75,18.66c2.73,6.75,4.95,13.71,7.25,20.62c2.67,8.02,5.51,16.01,7.7,24.17
	c2.06,7.68,7.35,12.08,13.94,15.33c3.35,1.66,6.97,2.78,10.49,4.08c0.88,0.32,1.86,0.35,2.78,0.57c4.6,1.11,9.37,1.78,13.74,3.49
	c3.89,1.51,7.5,3.95,10.91,6.41c1.89,1.36,3.08,3.66,4.68,5.46c0.87,0.98,1.81,2,2.93,2.61c1.95,1.05,4.08,1.75,6.1,2.68
	c4.66,2.15,9.42,3.77,14.65,3.61c2.74-0.08,5.52-0.29,8.21,0.06c8.91,1.14,17.8,2.47,26.68,3.82c2.99,0.45,5.91,0.65,8.63-0.91
	c5.21-2.98,9.45-7.03,13.05-11.82c3.84-5.09,7.44-10.34,9.31-16.49c2.29-7.55,6.11-14.16,11.77-19.58c2.37-2.27,2.69-4.48,1.81-7.39
	c-0.69-2.3-0.97-4.72-1.41-7.09c-0.24-1.27-0.45-2.55-0.64-3.66c-2.44,0.31-4.4,0.82-6.35,0.76c-5.15-0.15-10.35-1.18-15.42-0.69
	c-5.74,0.56-11.13-0.97-16.68-1.37c-0.59-0.04-1.41-0.3-1.68-0.74c-2.38-3.85-6.57-4.62-10.34-5.66c-3.81-1.06-7.91-1.61-11.85-1.45
	c-3.29,0.14-5.84,0.13-7.3-3.29c-0.31-0.74-1.04-1.33-1.65-1.91c-3.28-3.14-6.58-6.27-9.87-9.39c-6.06-5.75-12.12-11.51-18.21-17.23
	c-2.29-2.15-4.42-4.54-8.12-4.3c-0.76,0.05-1.97-1.23-2.35-2.15c-0.91-2.24-1.34-4.67-2.15-6.95c-1.89-5.38-3.86-10.74-5.83-16.09
	c-0.82-2.23-1.72-4.43-2.5-6.42c3.06-2.63,5.73-4.85,8.31-7.17c1.73-1.55,1.67-2.75-0.23-3.69c-5.47-2.73-10.96-5.41-16.48-8.01
	c-5.54-2.61-11.27-4.84-16.67-7.7c-9.14-4.85-18.17-9.95-27.1-15.19c-7.93-4.65-15.7-9.59-23.5-14.46c-2.5-1.56-4.94-3.24-7.29-5.02
	c-5.04-3.83-10.33-7.41-14.9-11.75c-5.35-5.08-10.14-10.77-14.98-16.37c-4.22-4.87-8.19-9.96-12.23-14.99
	c-3.57-4.43-7.16-8.85-10.59-13.39c-5.01-6.66-10.45-13.09-14.63-20.25c-3.42-5.85-5.3-12.6-7.8-18.98
	C326.01,443.09,325.13,440.35,324.18,437.64z M314.64,260.9c0.32,0.17,0.64,0.34,0.97,0.51c0.82-1.13,1.63-2.27,2.46-3.4
	c1.75-2.36,3.29-4.93,5.32-7.02c2.34-2.41,4.95-4.67,7.75-6.53c8.62-5.72,17.3-11.36,26.13-16.75c5.22-3.18,10.94-5.55,16.11-8.78
	c9.57-5.98,18.42-12.94,27.12-20.17c8.2-6.82,14.96-14.94,22.46-22.37c1.5-1.49,3.13-2.86,4.52-4.45
	c5.09-5.79,10.19-11.58,15.11-17.52c2.75-3.32,5.15-6.93,7.73-10.4c5.94-7.96,11.84-15.96,17.87-23.86
	c4.16-5.46,8.36-10.89,12.8-16.12c2.87-3.38,6.49-6.14,9.23-9.6c3.09-3.89,7.1-6.12,11.6-7.25c4.76-1.2,7.58-3.77,8.64-8.46
	c0.07-0.31,0.23-0.59,0.33-0.89c1.33-4.01,2.65-8.03,4.07-12.34c0.11,0.06-0.31-0.35-0.76-0.38c-7.39-0.46-14.8-1.43-22.16-1.14
	c-8.63,0.34-17.45,0.93-25.52,4.38c-7.27,3.11-14.62,6.37-21.19,10.7c-7.38,4.86-13.91,11-20.82,16.57
	c-10.71,8.63-20.7,18.02-30.11,28.06c-9.31,9.93-18.91,19.6-27.15,30.47c-7.01,9.25-14.67,17.96-20.97,27.79
	c-8.34,13.03-14.88,26.76-18.92,41.66c-2.64,9.72-6.26,19.06-10.12,28.34C315.95,254.83,314.56,257.69,314.64,260.9z M708.04,462.09
	c0.29,0.24,0.57,0.48,0.86,0.72c2.79-1.8,5.61-3.55,8.33-5.44c0.52-0.36,0.7-1.27,0.98-1.94c5.28-12.36,5.85-25.71,7.91-38.73
	c1.14-7.19,1.51-14.51,2.27-21.77c0.75-7.14,1.64-14.27,2.32-21.42c0.81-8.52,0.91-17.15,2.31-25.57c1.49-8.93,4.32-17.63,6.25-26.5
	c2.17-10.02,4.34-20.06,5.81-30.19c0.96-6.58,0.68-13.4-1.21-19.87c-2.55-8.72-6.01-17.09-11.11-24.69c-1.2-1.79-3.1-3.2-2.43-5.81
	c0.11-0.41-0.69-1-0.91-1.57c-0.47-1.19-1-2.39-1.2-3.63c-0.28-1.75,0.08-3.67-0.47-5.29c-1.33-3.88-3.04-7.62-4.59-11.42
	c-3.15-7.74-6.26-15.49-9.44-23.21c-3.75-9.09-7.79-18.06-11.28-27.25c-2.67-7-4.56-14.3-7.05-21.38c-0.89-2.53-2.33-4.94-3.89-7.14
	c-0.48-0.68-2.67-1.07-3.24-0.59c-2.32,1.95-5.3,3.93-6.22,6.54c-2.01,5.74-3.28,11.81-4.13,17.85c-0.47,3.35-0.04,7.09,1.02,10.32
	c1.03,3.14,0.56,5.03-1.99,6.77c-0.96,0.65-1.75,1.54-2.68,2.23c-3.46,2.59-6.95,5.17-10.44,7.72c-1.86,1.36-1.84,2.81-0.56,4.61
	c1.84,2.58,3.49,5.3,5.31,7.9c6.24,8.92,12.35,17.95,18.85,26.68c4.03,5.41,8.53,10.49,13.08,15.49
	c4.98,5.47,10.35,10.59,15.37,16.03c3.42,3.71,6.03,8.01,6.58,13.15c0.58,5.35,0.95,10.74,1.17,16.12
	c0.52,12.48,0.91,24.96,1.31,37.44c0.08,2.64-0.21,5.29-0.07,7.92c0.72,13.84-0.38,27.49-3.99,40.9c-0.99,3.68-2.11,7.34-2.78,11.07
	c-0.97,5.39-1.66,10.84-2.32,16.28c-1.24,10.17-2.27,20.37-3.58,30.53c-1,7.75-2.29,15.47-3.47,23.2
	C708.52,459.46,708.27,460.78,708.04,462.09z M456.91,721.15c-0.3,0.25-0.59,0.51-0.89,0.76c0.48,0.88,0.86,1.85,1.47,2.63
	c3.25,4.13,6.55,8.22,9.84,12.32c0.4,0.49,0.89,0.92,1.27,1.42c3.05,3.92,6.4,7.66,9.06,11.83c7.38,11.59,18.12,19.22,30.06,25.09
	c10.04,4.93,20.79,6.36,31.74,2.32c2.27-0.84,4.68-1.62,7.06-1.77c6.53-0.43,13.1-0.89,19.63-0.63c6.39,0.25,12.62,0.58,18.75-1.83
	c1.89-0.75,4.16-0.59,6.27-0.73c1.79-0.12,3.62,0.08,5.39-0.18c1.02-0.15,2.44-0.7,2.84-1.49c2.44-4.8,5.31-9.53,6.78-14.64
	c3.5-12.17,4.6-24.72,4.27-37.38c-0.07-2.53-0.08-5.07-0.28-7.6c-0.18-2.3-0.56-4.58-0.86-6.87c-0.41-0.08-0.82-0.16-1.23-0.24
	c-1.93,3.21-4.09,6.32-5.73,9.67c-1.67,3.4-2.49,7.24-4.3,10.54c-2.18,3.96-5.02,7.54-7.56,11.3c-1.12,1.66-2.04,3.48-3.34,4.98
	c-2.76,3.2-5.62,6.33-8.63,9.3c-1.38,1.36-3.12,2.92-4.89,3.21c-2.97,0.48-6.18,0.45-9.14-0.12c-9.35-1.8-18.58-3.85-28.25-3.62
	c-9.27,0.22-18.25-1.43-26.46-6.41c-3.1-1.88-6.76-3.26-10.34-3.83c-4.32-0.69-8.84-0.05-13.24-0.42c-3.12-0.26-6.42-0.74-9.23-2.02
	c-7.08-3.21-12.99-8.14-18.2-13.9C458.24,722.2,457.55,721.71,456.91,721.15z M728.61,70.53c-11.22-4.08-22.2-8.48-31.55-15.92
	c-9.3-7.41-18.17-15.3-26.33-24.95c-0.73,1.8-1.36,2.78-1.53,3.84c-0.75,4.69-1.21,9.44-2.08,14.11
	c-1.82,9.76-3.68,19.52-5.81,29.21c-1.65,7.53-3.68,14.98-5.68,22.43c-0.62,2.32-0.03,3.85,1.93,5.1
	c10.09,6.45,19.49,13.77,27.81,22.42c0.59,0.61,1.18,1.23,1.85,1.74c2.74,2.09,5.04,1.58,6.91-1.26c1.91-2.9,4.08-5.64,5.99-8.55
	c4.05-6.18,8.19-12.32,11.95-18.68c3.33-5.63,6.13-11.57,9.29-17.31C723.51,78.86,725.87,75.13,728.61,70.53z M243.85,488.82
	c0.74,1.79,1.34,3.45,2.1,5.05c3.37,7.15,6.97,14.2,10.13,21.45c4.26,9.78,8.68,19.53,11.05,30.01c0.58,2.56,2.13,3.78,4.69,3.85
	c1.27,0.03,2.58,0.24,3.8-0.01c4.97-1.03,10.02-1.86,14.83-3.4c10.05-3.23,19.96-6.87,29.93-10.35c2.72-0.95,2.94-1.73,2.22-4.53
	c-1.45-5.62-2.65-11.31-4.06-16.94c-0.56-2.23-0.89-4.78-2.2-6.53c-4.8-6.43-9.91-12.63-15.01-18.82c-1.53-1.86-3.3-3.42-6.21-3
	c-1.7,0.25-3.75-0.7-3.42-2.82c0.49-3.21-1.61-4.78-3.29-6.76c-1.36-1.6-2.81-1.86-4.78-1.11c-6.62,2.49-13.27,4.9-19.96,7.21
	c-5.79,1.99-11.64,3.79-17.46,5.69C245.52,488.03,244.88,488.37,243.85,488.82z M694.35,547.6c-1.56,0.9-2.82,1.43-3.86,2.25
	c-4.73,3.74-10.24,5.44-16.08,6.14c-5.66,0.67-11.39,0.92-17.03,1.74c-8.64,1.26-17.01,3.51-24.21,8.74
	c-3.58,2.6-6.94,5.53-10.38,8.32c-2.09,1.69-4.16,3.42-6.24,5.13c0.08,0.22,0.17,0.44,0.25,0.66c3.33-0.66,6.27,0.12,8.97,2.02
	c0.55,0.39,1.42,0.41,2.15,0.44c5.09,0.23,8.07,4.15,10.42,7.5c3.6,5.12,5.82,11.21,8.6,16.89c1.72,3.52,1.28,4.47-2.58,5.68
	c-4.24,1.33-8.51,2.58-12.7,4.03c-0.98,0.34-2.14,1.17-2.51,2.07c-0.88,2.14-1.38,4.43-1.93,6.69c-0.48,1.95,0.45,3.07,2.36,3.33
	c1.68,0.23,3.37,0.49,5.05,0.47c8.24-0.09,16.48-0.16,24.71-0.47c2.3-0.09,3.75-1.59,4-4.16c0.31-3.25,0.81-6.49,1.41-9.7
	c0.18-0.94,0.93-1.8,1.52-2.62c1.92-2.65,4.63-4.99,5.68-7.93c2.39-6.7,7.25-11.65,11.25-17.12c4.59-6.28,10.22-11.8,15.48-17.58
	c1.27-1.39,1.81-2.78,1.21-4.6c-1.03-3.11-2.04-6.23-3.01-9.36C696.04,553.44,695.27,550.72,694.35,547.6z M554.85,434.32
	c0.3,0.09,0.6,0.17,0.91,0.26c0.75-1.34,1.84-2.59,2.19-4.03c1.7-6.86,3.44-13.73,4.64-20.69c0.49-2.85,1.72-4.43,3.98-5.9
	c4.41-2.86,9.47-5.3,12.78-9.18c6.62-7.76,12.91-15.9,17.58-25.13c2.76-5.46,4.69-11.2,5.22-17.17c0.92-10.27-0.18-20.51-2.08-30.64
	c-2.06-11.01-4.16-22.02-6.27-33.02c-0.29-1.5-0.74-2.96-1.12-4.44c-2.35,3.28-4.1,6.63-5.88,9.98
	c-5.83,11.02-11.86,21.94-17.46,33.08c-5.47,10.87-8.71,22.52-9.54,34.65c-0.97,14.24-1.31,28.52-2.02,42.78
	c-0.2,4.11-0.68,8.21-1.1,12.31C556.12,422.88,555.47,428.6,554.85,434.32z M594.77,264.55c0.33,0.13,0.66,0.25,0.99,0.38
	c0.71-0.84,1.55-1.61,2.11-2.54c3.55-5.86,6.98-11.79,10.55-17.63c3.75-6.12,7.11-12.58,11.56-18.16
	c5.77-7.23,12.28-13.91,18.81-20.5c4.44-4.48,9.55-8.29,14.18-12.6c2.86-2.67,2.8-3.36,0.63-6.47c-3.26-4.68-6.54-9.36-9.93-13.94
	c-4.2-5.67-8.49-11.27-12.79-16.85c-2.02-2.62-2.91-2.64-5.15-0.04c-2.07,2.4-3.88,5.04-6.03,7.36c-5,5.41-8.81,11.62-12.24,18.06
	c-5.11,9.58-8.12,19.94-10.69,30.42c-1.1,4.49-2.14,9.07-2.42,13.66c-0.45,7.26-0.34,14.57-0.26,21.85
	C594.14,253.22,594.53,258.88,594.77,264.55z M497.52,600.06c-0.36-0.27-0.72-0.54-1.09-0.81c-1.44,1.58-2.91,3.14-4.27,4.78
	c-0.27,0.32-0.24,1.05-0.11,1.52c1.04,3.64,2.26,7.23,3.18,10.89c1.71,6.76,4.97,12.31,10.61,16.71
	c9.24,7.21,16.88,16.26,26.36,23.26c5.34,3.94,10.64,6.53,17.27,3.36c1-0.48,2.28-0.57,3.41-0.53c4.96,0.18,9.92,0.46,14.89,0.72
	c5.77,0.3,11.42-0.2,16.45-3.35c2.86-1.79,5.59-3.83,8.25-5.92c2.63-2.07,5.28-3.71,8.86-3.68c2.92,0.02,3.88-1.26,4.14-4.12
	c0.3-3.26,0.55-6.52,1.01-9.76c0.27-1.92-0.33-3.08-2.14-3.65c-1.11-0.35-2.23-0.66-3.35-0.98c-12.3-3.52-24.6-7.02-36.89-10.57
	c-2.35-0.68-3.01-0.45-3.59,2c-0.51,2.16-0.91,4.35-1.28,6.54c-0.55,3.21-2.56,4.68-5.65,5.04c-3.59,0.43-7.4-0.49-10.71,1.72
	c-0.15,0.1-0.41,0.04-0.63,0.05c-5.07,0.24-10.14,0.45-15.21,0.72c-1.15,0.06-2.3,0.26-3.41,0.55c-2.85,0.75-3.7,0.24-4.82-2.48
	c-0.87-2.13-1.9-4.22-3.09-6.19c-1.97-3.25-4.15-6.37-6.18-9.58c-1.7-2.68-3.31-5.42-4.99-8.12c-1.23-1.98-3.12-2.8-5.37-2.7
	c-3.14,0.13-3.36-0.03-3.57-2.94C496.39,601.51,496.96,600.79,497.52,600.06z M583.08,76.98c-5.52,0.25-10.39,0.39-15.24,0.73
	c-1.15,0.08-2.24,0.82-3.37,1.25c0.49,1.01,0.79,2.17,1.5,2.99c2.26,2.65,4.77,5.09,7,7.77c7.69,9.25,15.18,18.54,24.58,26.36
	c9.38,7.81,17.5,17.14,26.13,25.86c4.25,4.29,4.18,4.32,7.87-0.5c7.59-9.91,13.36-20.77,17.23-32.65c0.81-2.5,0.74-4.55-1.61-6.14
	c-0.96-0.65-1.81-1.46-2.8-2.04c-8.1-4.78-16.3-9.39-24.31-14.32c-6.78-4.18-14.7-5.26-21.82-8.47c-0.37-0.17-0.83-0.13-1.26-0.15
	C592.14,77.43,587.29,77.19,583.08,76.98z M631.33,149.56c0.4,0.99,0.56,1.75,0.96,2.33c2.12,3.01,4.26,6.01,6.49,8.94
	c3.26,4.27,6.67,8.42,9.88,12.72c3.08,4.14,6.01,8.4,8.96,12.63c1.11,1.6,2.14,1.97,3.88,0.64c3.18-2.43,6.47-4.75,9.87-6.85
	c2.36-1.45,2.92-3.21,2.52-5.85c-0.74-4.9-1.49-9.84-0.44-14.81c0.9-4.24,1.6-8.53,2.75-12.69c0.48-1.73,1.71-3.35,2.9-4.77
	c1.49-1.77,3.37-3.2,4.93-4.92c2-2.21,1.91-3.34-0.24-5.38c-3.83-3.64-7.52-7.46-11.59-10.8c-4.81-3.94-9.87-7.59-15.01-11.09
	c-3.13-2.13-3.94-1.57-5.28,1.88c-1.75,4.52-3.32,9.18-5.67,13.39c-3.94,7.05-8.45,13.79-12.69,20.68
	C632.74,146.9,632.04,148.29,631.33,149.56z M438.09,686.01c0.27-0.06,0.54-0.13,0.81-0.19c-0.15-0.9-0.17-1.84-0.46-2.69
	c-1.16-3.51-2.59-6.95-3.58-10.51c-6.3-22.64-17.4-42.87-31.51-61.44c-9.14-12.03-18.8-23.67-28.58-35.18
	c-4.76-5.61-10.35-10.51-15.52-15.78c-0.94-0.96-1.67-2.13-2.44-3.25c-1.96-2.85-3.66-5.93-5.89-8.54
	c-5.41-6.35-11.02-12.53-16.65-18.69c-2.21-2.41-4.01-5.32-7.52-7.04c0.09,1.02,0.05,1.63,0.2,2.18c0.91,3.25,1.8,6.5,2.82,9.72
	c0.67,2.11,1.48,4.18,2.33,6.22c2.6,6.31,6.79,11.63,10.62,17.2c1.73,2.51,2.73,5.57,4.62,7.92c5.36,6.66,10.91,13.16,16.57,19.56
	c3.42,3.86,7.16,7.44,10.79,11.12c3.11,3.15,5.97,6.6,10.14,8.51c1.92,0.88,3.74,1.97,5.65,2.88c1.7,0.81,2.46,2.05,2.64,3.96
	c0.16,1.63,0.58,3.39,1.42,4.76c5.26,8.64,10.63,17.22,16.03,25.78c7.65,12.13,15.35,24.22,23.02,36.33
	C435.12,681.22,436.6,683.62,438.09,686.01z M627.25,659.43c-1.75,1.17-3.46,2.09-2.16,3.97c0.63,0.92,1.66,1.65,2.66,2.21
	c3.21,1.83,6.48,3.57,9.76,5.27c1.91,0.99,3.87,0.9,5.8-0.06c2.17-1.08,4.37-2.11,6.53-3.22c3.28-1.67,5.51-4.2,6.32-7.88
	c1.63-7.43,3.32-14.84,4.94-22.28c0.6-2.77-0.12-3.56-2.88-3.19c-9.91,1.33-19.82,0.68-29.72-0.05c-2.26-0.17-3.17,0.59-3.26,2.69
	c-0.11,2.54-0.58,5.13-0.21,7.6C625.74,649.42,622.93,654.73,627.25,659.43z M541.69,553.24c-0.25,0.04-0.5,0.08-0.76,0.13
	c0,1.17-0.13,2.35,0.02,3.49c0.71,5.55,1.39,11.1,2.28,16.62c0.75,4.63,2.03,9.04,6.34,11.85c2.02,1.32,3.93,2.82,5.82,4.32
	c4.91,3.9,8.49,8.71,10.35,14.79c0.6,1.96,0.86,3.64-0.6,5.33c-1.45,1.67-0.71,2.91,1.02,3.76c0.76,0.37,1.55,0.7,2.36,0.93
	c9.97,2.83,19.94,5.66,29.92,8.43c1.03,0.29,2.16,0.24,3.64,0.38c-1.85-4.23-5.18-4.28-8.43-4.54c-3.83-0.3-4.5-0.91-4.2-4.67
	c0.27-3.33,0.11-6.33-3.03-8.4c-0.57-0.38-0.98-1.12-1.28-1.78c-2.94-6.46-7.31-11.82-12.68-16.4c-1.11-0.95-2.41-1.67-3.61-2.5
	c-0.21,0.21-0.42,0.43-0.64,0.64c1.04,2.02,2.03,4.07,3.13,6.06c0.93,1.69,1.06,3.23-0.54,4.55c-1.69,1.38-3.26,0.65-4.52-0.62
	c-1.26-1.26-2.54-2.62-3.34-4.18c-2.11-4.13-4.43-8.24-5.83-12.63c-2.8-8.77-8.61-15.71-13.31-23.32
	C543.28,554.64,542.41,553.99,541.69,553.24z M700.43,622.28c0.88,0.46,1.82,1.12,2.86,1.47c5.19,1.72,10.51,2.19,15.96,1.61
	c1.82-0.19,3.92-0.17,5.53,0.55c2.8,1.26,5.45,1.29,7.9-0.18c2.01-1.21,3.59-3.13,5.45-4.62c1.96-1.57,1.57-2.96,0.27-4.83
	c-3.43-4.93-6.68-9.98-9.88-15.07c-1.15-1.83-2.31-1.45-3.68-0.52c-4.46,3.02-9.07,5.85-13.32,9.15
	C707.26,613.16,702.15,615.81,700.43,622.28z M504.8,597.27c0,0.9-0.12,1.27,0.02,1.5c4.81,7.95,9.67,15.87,14.48,23.82
	c2.93,4.84,6.8,7.39,12.65,5.49c0.29-0.1,0.63-0.07,0.95-0.07c2.17,0.02,2.5-1.21,1.93-2.94c-0.53-1.6-1.18-3.17-1.72-4.77
	c-1.23-3.71-4.03-7.05-2.48-11.45c0.18-0.51-1.05-1.94-1.9-2.33c-4.99-2.29-10.03-4.51-15.14-6.54
	C510.82,598.87,507.86,598.2,504.8,597.27z M442.92,283.96c0.3,0.04,0.59,0.09,0.89,0.13c0.49-0.74,1.17-1.41,1.43-2.23
	c0.93-2.92,1.62-5.92,2.58-8.83c1.35-4.08,0.74-7.95-0.93-11.74c-4.39-9.95-8.82-19.89-13.28-29.81c-0.34-0.77-1.04-1.38-1.79-2.35
	c-0.22,0.83-0.37,1.13-0.36,1.42c0.38,6.97,1.11,13.94,1.08,20.9c-0.03,10.44,4.19,19.5,8.39,28.63
	C441.56,281.4,442.26,282.67,442.92,283.96z M690.01,603.7c0.3,0.72,0.33,1.14,0.55,1.27c2.78,1.7,5.51,3.51,8.43,4.94
	c0.77,0.38,2.28-0.16,3.18-0.72c3.78-2.32,7.48-4.77,11.15-7.26c2.97-2.02,5.87-4.14,8.75-6.27c1.16-0.86,2.02-1.95,1.16-3.52
	c-0.91-1.67-1.83-3.34-2.77-4.99c-0.72-1.27-1.76-1.53-2.9-0.62c-1.97,1.58-3.78,3.37-5.83,4.84c-1.76,1.26-3.7,2.97-5.65,3.11
	C699.02,594.99,695.34,600.64,690.01,603.7z M667.21,550.81c1.11,0.31,1.9,0.79,2.62,0.7c8.3-1,16.11-3.24,22.39-9.2
	c1.81-1.72,2.1-3.62,1.03-5.72c-1.2-2.35-2.61-4.58-3.86-6.9c-0.98-1.81-2.04-1.73-3.49-0.47c-2.37,2.06-4.89,3.97-7.31,5.98
	c-1.69,1.41-3.7,2.64-4.9,4.4C671.35,543.06,669.47,546.84,667.21,550.81z M452.93,279.34c-0.24,0.04-0.47,0.08-0.71,0.12
	c-0.67,2.5-1.43,4.99-1.96,7.52c-0.3,1.42-0.43,2.95-0.27,4.38c0.84,7.21,1.81,14.4,2.74,21.6c0.56,4.31,3.22,7.41,7.3,8.52
	c3.62,0.99,4.87-0.08,3.94-3.73c-2.42-9.52-4.91-19.01-7.53-28.47C455.5,285.9,454.11,282.65,452.93,279.34z M539.73,76.25
	c-0.39-1.4-0.65-2.31-0.91-3.22c-2.02-7.09-13.83-7.25-17.5-2.44c-2.31,3.03-4.67,5.97-5.89,9.64c-0.25,0.75-0.35,1.56-0.51,2.34
	c0.88,0.13,1.81,0.53,2.62,0.34c6.8-1.54,13.58-3.13,20.34-4.86C538.64,77.86,539.19,76.8,539.73,76.25z M742.58,610.84
	c0.38-0.01,0.75-0.02,1.13-0.03c0.86-2.42,2.02-4.79,2.53-7.29c0.8-3.97,0.89-7.98-1.43-11.64c-0.87-1.38-2.03-2.39-3.65-1.54
	c-2.69,1.41-5.31,2.98-7.83,4.68c-0.57,0.38-1.05,1.78-0.79,2.36C734.87,602.64,738.26,607.11,742.58,610.84z M632.45,676.13
	c-1.03-0.44-1.47-0.75-1.94-0.81c-5.62-0.69-11.24-1.43-16.89-1.89c-0.91-0.07-2.76,1.21-2.76,1.86c0.04,3.86,0.3,7.75,0.89,11.56
	c0.24,1.55,1.45,1.89,3.12,0.77c4.9-3.26,9.98-6.25,14.96-9.38C630.66,677.75,631.35,677.04,632.45,676.13z M603.28,591.9
	c-0.88,1.04-1.76,1.73-2.15,2.62c-1.69,3.86-3.35,7.74-4.75,11.71c-0.26,0.72,0.6,2.04,1.24,2.84c1.04,1.3,2.51,2.28,3.48,3.63
	c1.42,1.99,3.35,2.87,5.62,3.14c0.88,0.1,2.14,0.1,2.62-0.42c0.4-0.43,0.09-1.76-0.23-2.56c-1.71-4.13-3.03-8.27-3.12-12.85
	C605.93,597.39,605.85,594.49,603.28,591.9z M546.73,502.85c-0.8,5.37,0.84,25.42,2.1,26.95c2.26-1.48,4.37-3.28,6.81-4.35
	c2.32-1.02,2.96-2.33,1.88-4.37c-3.1-5.84-6.32-11.62-9.52-17.4C547.83,503.37,547.35,503.24,546.73,502.85z M511.98,593.14
	c0,0.39-0.01,0.79-0.01,1.18c2.24,0.83,4.52,1.61,6.73,2.52c3.61,1.49,7.18,3.09,10.78,4.59c1.05,0.43,2.09,0.92,3.05-0.45
	c2.92-4.12,3.49-4.16,7.01-0.55c1.32,1.36,2.18,0.91,2.96-0.44c1-1.73,0.41-3.17-2.2-3.91c-5.27-1.49-10.56-3.18-15.96-3.83
	C520.32,591.77,516.11,592.79,511.98,593.14z M502.33,474.04c5.58,4.08,11.47,6.81,18.54,9.03c-0.39-3.16-0.62-5.72-1.07-8.24
	c-0.13-0.75-0.74-1.7-1.39-2.02c-3-1.47-6-3.03-9.18-4.01c-2.07-0.64-4.19,0.02-5.09,2.56
	C503.87,472.13,503.22,472.75,502.33,474.04z M311.25,491.67c0.35-0.09,0.7-0.18,1.05-0.26c-0.08-1.5,0.12-3.09-0.3-4.49
	c-2.08-6.97-4.31-13.89-6.53-20.81c-0.1-0.3-0.51-0.5-0.95-0.9c-0.3,0.75-0.65,1.22-0.66,1.71c-0.1,4.74-0.27,9.49-0.1,14.23
	c0.04,1.18,1.19,2.38,1.97,3.47c1.26,1.77,2.64,3.47,3.98,5.19C310.21,490.44,310.74,491.05,311.25,491.67z M577.82,668.46
	c0.94,0.52,1.28,0.77,1.66,0.91c0.59,0.21,1.21,0.35,1.83,0.51c6.89,1.76,13.79-0.72,20.68,0.06c0.29,0.03,0.69-0.05,0.9-0.24
	c0.79-0.71,1.53-1.49,2.28-2.24c-0.89-0.37-1.75-0.97-2.67-1.08c-2.92-0.32-5.97-0.02-8.77-0.76
	C588.08,664.14,583.18,665.58,577.82,668.46z M678.08,609.31c-1.73,2.03-3.33,3.48-4.38,5.26c-1.64,2.79-2.99,5.76-4.28,8.74
	c-0.71,1.64,0.24,2.47,1.87,2.23c1.67-0.24,3.29-0.76,4.95-1.09c1.97-0.4,2.88-1.53,2.84-3.56c-0.06-2.86,0.05-5.72-0.06-8.57
	C678.98,611.41,678.47,610.51,678.08,609.31z M618.42,648.13c0.7-4.82,0.48-9.39,0.02-13.92c-0.06-0.58-1.57-1.28-2.47-1.41
	c-0.76-0.11-2.19,0.38-2.36,0.9c-0.95,3.08-1.7,6.23-2.32,9.4c-0.12,0.62,0.4,1.74,0.95,2.07
	C614.01,646.2,615.94,646.97,618.42,648.13z M543.7,470.46c-0.28-0.13-0.56-0.26-0.84-0.39c-1.42,1.19-2.82,2.41-4.26,3.57
	c-4.85,3.92-4.79,7.92,0.19,11.61c2.09,1.55,3.27,1.14,3.62-1.42c0.36-2.61,0.52-5.25,0.77-7.87
	C543.35,474.13,543.52,472.3,543.7,470.46z M519.95,586.32c7.57,1.64,14.56,3.15,21.67,4.69c-0.16-4.35-1.23-5.64-5.02-5.92
	C531.25,584.68,525.86,584.05,519.95,586.32z M677.74,527.66c3.21-2.49,7.25-4.32,6.44-9.42c-0.16-1.02,0.08-2.11,0.19-3.15
	c0.29-2.66,0.62-5.31,0.93-7.97c-0.22-0.06-0.43-0.11-0.65-0.17C681.73,513.6,679.15,520.38,677.74,527.66z M724.73,584.3
	c0.86,1.43,1.41,2.51,2.11,3.48c1.86,2.56,2.41,2.68,5.19,1.25c1.3-0.67,2.6-1.37,3.84-2.15c0.57-0.36,1.02-0.92,1.52-1.4
	c-0.53-0.56-0.96-1.39-1.62-1.65C732.3,582.45,728.83,582.78,724.73,584.3z M609.7,621.83c1.3,1.89,1.99,3.86,3.36,4.64
	c1.55,0.89,3.74,1.02,5.59,0.85c0.67-0.06,1.44-1.91,1.63-3.04c0.1-0.59-0.78-1.65-1.47-2.04
	C616.11,620.73,613.24,620.82,609.7,621.83z M685.91,609.87c-0.31,0.12-0.62,0.23-0.93,0.35c0,2.92-0.02,5.83,0.03,8.75
	c0.01,0.36,0.31,0.96,0.58,1.02c2.66,0.66,3.48-1.91,5.09-3.07c0.97-0.7,2.17-1.59,1.22-3.14c-0.16-0.26-0.4-0.52-0.66-0.68
	C689.47,612.01,687.69,610.95,685.91,609.87z M633.47,611.87c2.55-0.84,4.8-1.45,6.9-2.37c0.48-0.21,0.88-1.69,0.62-2.25
	c-0.35-0.73-1.42-1.6-2.15-1.58c-1.75,0.06-3.5,0.53-5.21,0.97c-1.83,0.47-2.02,2.08-1.85,3.53
	C631.85,610.81,632.89,611.32,633.47,611.87z M540.3,511.31c0.21,0,0.42,0.01,0.63,0.01c0.2-0.43,0.58-0.86,0.58-1.29
	c0-4.1-0.04-8.2-0.13-12.3c-0.02-0.83-0.05-1.81-0.47-2.45c-0.43-0.64-1.36-0.95-2.07-1.41c-0.36,0.79-1.25,1.99-1,2.31
	c1.92,2.47,0.91,5.22,1.12,7.86C539.15,506.48,539.83,508.89,540.3,511.31z M635.04,598.13c-0.07-3.2-2.22-6-4.05-5.89
	c-2.21,0.13-1.82,2.02-1.85,3.38c-0.05,2.24,2.02,4.88,3.54,4.42C633.74,599.72,634.54,598.56,635.04,598.13z M616.57,661.58
	c-0.97-1.96-1.54-3.62-2.55-4.95c-0.47-0.62-1.89-0.95-2.7-0.73c-0.58,0.16-1.14,1.41-1.22,2.23
	C609.83,660.69,611.84,661.91,616.57,661.58z M613.6,606.61c0.84-2.1,1.6-4.02,2.37-5.93c0.16-0.39,0.55-0.78,0.5-1.13
	c-0.1-0.74-0.22-1.81-0.7-2.07c-0.48-0.25-1.65,0.09-2.09,0.57C611.48,600.46,611.45,603.2,613.6,606.61z M474.03,727.03
	c2.54,3.64,7.24,5.67,10.47,4.54C481.05,729.87,478.44,727.11,474.03,727.03z M536.19,517.99c-0.18,4.52,0.5,8.59,1.94,13.06
	C539.32,528.52,537.99,520.44,536.19,517.99z M310.99,271.65c2.53-2.32,3.19-5.59,1.82-7.55
	C312.15,266.84,311.57,269.25,310.99,271.65z M539.67,540.31c2.27-3.46,1.97-4.74-0.96-5.4
	C539.05,536.8,539.36,538.56,539.67,540.31z M544.68,622.31c0.34,0.19,0.68,0.38,1.02,0.58c1.05-0.81,2.11-1.63,3.16-2.44
	c-0.1-0.26-0.21-0.53-0.31-0.79c-1.06,0-2.28-0.32-3.11,0.11C544.89,620.05,544.91,621.42,544.68,622.31z M554.81,604.57
	c-0.24,0.08-0.48,0.17-0.72,0.25c0.05,1.08-0.05,2.19,0.21,3.21c0.13,0.48,0.96,0.78,1.47,1.16c0.33-0.58,1.07-1.33,0.92-1.71
	C556.27,606.44,555.47,605.54,554.81,604.57z"/>
<path d="M669.83,780.68c1.16,1.08,1.93,1.79,2.69,2.51c-0.86,0.78-1.62,1.9-2.63,2.18c-0.48,0.13-1.76-1.24-2-2.12
	C667.76,782.73,668.92,781.85,669.83,780.68z"/>
<path d="M798.61,483.48c-0.72,0.43-1.41,1.09-2.18,1.22c-0.42,0.07-1.43-0.82-1.38-1.17c0.09-0.65,0.72-1.67,1.2-1.72
	c0.74-0.07,1.54,0.56,2.31,0.89C798.57,482.96,798.59,483.22,798.61,483.48z"/>
<path d="M520.99,329.3c-1-4.09,0.27-7.45,1.62-11.53c0,2.48,0.19,4.27-0.05,6.01C522.31,325.5,521.62,327.15,520.99,329.3z"/>
<path d="M559.89,728.04c-0.89,0.48-1.73,1.17-2.67,1.34c-0.52,0.09-1.19-0.72-1.79-1.12c0.86-0.74,1.64-1.64,2.62-2.13
	c0.34-0.17,1.19,0.66,1.8,1.03C559.87,727.46,559.88,727.75,559.89,728.04z"/>
</svg>
