<?xml version="1.0" encoding="utf-8"?>
<!-- Generator: Adobe Illustrator 24.1.0, SVG Export Plug-In . SVG Version: 6.00 Build 0)  -->
<svg version="1.1" id="Layer_1" xmlns="http://www.w3.org/2000/svg" xmlns:xlink="http://www.w3.org/1999/xlink" x="0px" y="0px"
	 viewBox="0 0 1224 792" style="enable-background:new 0 0 1224 792;" xml:space="preserve">
<path d="M959.63,435.57c-2.8,0.17-5.54-0.15-8.29-0.75c-2.7-0.59-5.52-0.62-8.26-1.08c-3.45-0.59-6.87-1.42-10.31-2.04
	c-1.79-0.32-3.63-0.41-5.84-0.64c0.53,3.36,1.06,6.26,1.44,9.18c0.77,5.85,0.75,11.72-0.21,17.54c-0.71,4.27-1.71,8.48-2.54,12.73
	c-0.66,3.41-2.37,6.08-5.24,8.06c-2.45,1.69-4.43,3.94-7.01,5.55c-3.99,2.5-8.39,3.88-12.66,5.66c-4.16,1.73-8.51,2.46-12.82,3.46
	c-5,1.16-10.08,0.82-15.13,0.63c-5.95-0.23-11.83,0.41-17.45,2.18c-6.47,2.05-12.76,4.7-19.09,7.2c-4.51,1.78-8.99,3.65-13.39,5.68
	c-4.03,1.85-8.03,3.79-11.86,6.02c-6.61,3.84-13.57,6.95-20.49,10.15c-0.19,0.09-0.38,0.17-0.56,0.26
	c-4.85,2.42-5.76,5.03-3.86,10.2c0.47,1.28,0.47,2.86,0.24,4.23c-0.41,2.48-0.34,4.88-0.08,7.38c0.35,3.38,0.23,6.81,0.28,10.22
	c0.1,6.82,0.08,13.64,0.31,20.45c0.08,2.33,0.66,4.65,1.14,6.94c0.24,1.17,1.11,1.65,2.35,1.41c0.9-0.17,1.9-0.5,2.73-0.27
	c2.26,0.61,3.7-0.52,4.6-2.2c1.85-3.44,3.74-6.91,5.09-10.56c2.1-5.7,3.74-11.56,5.63-17.34c0.58-1.76,1.23-3.51,2-5.2
	c1.55-3.42,4.5-4.86,8.13-3.86c1.26,0.34,2.57,0.94,3.55,1.79c2.65,2.29,5.1,4.74,6.92,7.86c2.6,4.45,5.48,8.74,7.5,13.51
	c0.36,0.84,0.92,1.61,1.45,2.37c3.63,5.09,3.54,11.41-0.2,16.29c-1.28,1.67-2.02,3.61-2.15,5.72c-0.25,4.12-0.6,8.25-0.61,12.37
	c0,3.32-0.98,5.95-3.4,8.3c-1.52,1.48-2.66,3.43-3.66,5.34c-2.53,4.83-6.56,7.79-11.38,10.04c-2.58,1.21-4.92,2.93-7.32,4.48
	c-2.6,1.67-5.03,3.62-8.37,3.67c-5.05,0.08-9.43-2.69-11.5-7.34c-1.22-2.72-2.63-5.36-3.77-8.12c-1.21-2.93-2.42-5.9-3.2-8.97
	c-0.44-1.73-0.18-3.7,0.05-5.53c0.19-1.49-0.12-2.56-1.45-3.66c-2.39,4.17-4.18,8.19-4.48,12.84c-0.2,3.17-0.67,6.33-1.71,9.4
	c-0.85,2.53-1.37,5.18-1.86,7.81c-1.39,7.33-4.28,14.02-8.83,19.9c-2.27,2.93-5.56,4.55-9.18,5.4c-1.7,0.4-3.39,0.93-5.11,1.17
	c-1.93,0.26-3.04,1.41-3.51,3.06c-0.76,2.66-1.48,5.37-1.79,8.1c-0.28,2.55,0.01,5.16,0.04,7.74c0.01,0.61-0.05,1.23-0.09,1.84
	c-0.27,4.01-0.48,8.03-0.83,12.03c-0.47,5.41-2.4,10.25-6.42,13.99c-1.47,1.37-3.45,2.22-5.28,3.16c-3.98,2.03-6.64,5.48-9.63,8.6
	c-3.43,3.57-6.95,7.04-10.44,10.55c-1.74,1.75-3.59,3.42-5.22,5.27c-4.28,4.86-8.28,9.98-12.77,14.63
	c-3.34,3.46-7.03,6.72-11.02,9.41c-5.53,3.73-11.57,6.38-18.62,4.93c-1.4-0.29-2.89-0.12-4.33-0.2c-4.11-0.23-8.22-0.45-12.33-0.73
	c-0.7-0.05-1.42-0.27-2.08-0.56c-1.7-0.74-3.38-1.53-5.05-2.35c-1.7-0.84-2.86-2.1-3.88-3.78c-1.92-3.16-4.06-6.23-6.5-9
	c-3.74-4.23-11.22-5.5-16.23-3.04c-4.15,2.04-8.32,4.08-12.35,6.34c-3.62,2.03-6.86-0.63-6.43-4.36c0.28-2.49-0.72-4.05-2.04-5.84
	c-2.28-3.08-4.52-6.18-7.52-8.57c-5.19-4.13-10.62-7.84-17.53-8.43c-0.41-0.04-0.84-0.06-1.22-0.19c-3.26-1.04-5.95,0.19-8.75,1.77
	c-2.72,1.53-4.22,4.11-6.29,6.19c-0.86,0.87-1.79,1.72-2.84,2.32c-2.04,1.17-3.69,0.77-4.54-1.38c-0.81-2.03-2.3-3.38-3.67-4.91
	c-2.95-3.3-5.83-6.66-8.81-9.94c-4.42-4.88-8.95-9.67-13.34-14.59c-2.19-2.45-4.23-5.05-6.2-7.68c-2.47-3.29-4.78-6.7-7.19-10.04
	c-4.04-5.6-7.99-11.26-10.43-17.79c-3.06-8.2-7.2-15.87-12.92-22.42c-4.16-4.77-7.47-10.11-11.43-14.98
	c-4.48-5.52-9.04-10.97-13.39-16.58c-1.76-2.27-3.21-4.81-4.54-7.37c-1.35-2.6-2.71-5.15-4.64-7.39c-0.43-0.51-0.32-1.52-0.37-2.31
	c-0.14-2.42-1.32-4.27-3.02-5.89c-0.58-0.55-1.02-1.26-1.52-1.88c-0.87,0-1.76,0-2.75,0c-0.22-1.33,0.79-1.95,1.25-2.78
	c0.49-0.88,1.44-1.6,0.88-2.77c-0.62-1.29-1.75-0.73-2.74-0.67c-0.19,0.01-0.38-0.11-0.72-0.21c-0.19-0.48-0.32-1.1-0.64-1.6
	c-0.77-1.19-2.4-1.28-3.54-0.41c-0.69,0.53-1.53,0.85-2.63,1.44c-0.17-1.1-0.28-1.83-0.39-2.56c1.82-0.86,3.47-1.64,5.27-2.49
	c0.42,0.14,1.04,0.51,1.68,0.54c1.22,0.05,1.66-0.53,1.44-1.76c-0.14-0.81-0.41-1.59-0.59-2.26c-0.23-0.25-0.34-0.48-0.51-0.54
	c-3.06-0.97-3.13-0.98-2.3-4c0.42-1.52,1.13-2.96,1.87-4.85c-0.23-0.4-0.74-1.28-1.32-2.27c2.33-2.48,0.88-5,0.05-7.49
	c-1.07-3.23-1.27-3.39-3.74-4.44c-1.41,1.73-2.82,3.46-4.24,5.19c-0.71,0.86-1.58,1.57-0.97,2.97c0.17,0.38-0.45,1.31-0.93,1.75
	c-3.71,3.37-4.47,7.48-3.03,12.08c1.08,3.43,2.37,6.79,3.57,10.17c0.14,0.39,0.23,0.82,0.48,1.13c1.08,1.34,2.13,2.61,1.64,4.59
	c-0.14,0.57,0.28,1.51,0.75,1.97c1.42,1.42,1.59,3.29,2.15,5.04c0.44,1.36,1.07,2.66,1.58,4.01c0.83,2.22,1.71,4.43,2.42,6.68
	c1.77,5.59,4.8,10.5,8.39,15.04c0.94,1.19,2.62,1.95,4.11,2.52c3.33,1.27,4.78,3.94,3.74,7.59c-2.63,0.92-4.74-0.47-6.86-1.72
	c-5.33-3.14-10.73-6.17-15.94-9.51c-4.77-3.05-9.32-6.45-13.98-9.68c-1.01-0.7-2.07-1.32-3.08-2.01c-1.02-0.69-2.07-1.34-2.99-2.15
	c-1.37-1.21-2.47-2.79-4.58-2.79c-0.23,0-0.65-0.33-0.65-0.52c-0.06-1.93-1.82-2-2.92-2.8c-0.62-0.45-1.21-0.99-1.67-1.59
	c-1.4-1.82-2.98-3.38-5.02-4.51c-3.42-1.89-6.77-3.91-10.15-5.87c-0.18-0.1-0.39-0.19-0.5-0.35c-2.24-3.1-5.7-4.7-8.57-7.03
	c-2.55-2.07-5.07-4.19-7.59-6.31c-0.32-0.26-0.59-0.58-0.86-0.9c-1.07-1.29-0.9-2.64-0.25-4.06c0.6-1.32,1.74-1.36,2.88-1.24
	c2.45,0.25,4.9,0.69,7.36,0.09c0.5-0.12,1.05-0.12,1.49-0.35c4.01-2.07,8.08-4.03,11.96-6.32c1.83-1.08,3.39-2.7,4.87-4.26
	c1.54-1.64,2.68-3.68,4.28-5.25c2.18-2.14,2.97-4.86,4.02-7.55c1.53-3.92,2.88-7.93,6.24-10.84c1.81-1.57,3.94-2.24,6.16-2.6
	c0.91-0.15,2.05,0.3,2.89,0.8c2.57,1.53,5.07,3.17,7.56,4.84c2.24,1.5,2.42,1.55,4.18-0.71c0.94-1.21,1.65-2.59,2.58-3.81
	c1.36-1.8,2.72-3.63,4.26-5.28c1.39-1.5,3.6-1.22,4.32,0.67c0.8,2.08,1.37,4.34,1.51,6.55c0.23,3.71,0.01,7.44,0.02,11.16
	c0,1-0.25,2.22,0.9,2.77c1.55,0.74,2.76,2.28,4.72,2.1c1.12-0.1,1.56-0.79,1.77-1.81c1.41-6.96,2.85-13.92,4.27-20.88
	c1.08-5.31,0.67-10.7,0.71-16.06c0.04-5.16-0.28-10.31,0.49-15.46c0.81-5.36-0.6-10.43-2.45-15.51c-1.9-0.28-3.71-0.62-5.54-0.79
	c-3.39-0.33-6.78-0.54-10.17-0.83c-1.85-0.16-3.68-0.43-5.53-0.57c-6.48-0.47-13.03-0.49-19.44-1.45
	c-9.56-1.43-19.24-2.22-28.54-5.3c-7.31-2.42-14.31-5.4-20.48-9.97c-4.62-3.42-8.92-7.29-13.27-11.05
	c-4.75-4.11-9.19-8.58-14.42-12.13c-2.43-1.65-2.79-3-1.84-5.87c1.03-3.14,2.11-6.26,3.18-9.38c0.55-1.58,1.11-3.15-0.7-4.56
	c3.89-3.17,4.88-7.47,5.75-11.86c0.47-2.39,2.36-3.3,4.59-2.21c2.19,1.07,4.26,2.38,6.41,3.54c3.26,1.75,6.53,3.48,9.83,5.16
	c5.7,2.89,11.39,5.82,17.17,8.56c6.98,3.31,14,6.54,21.09,9.62c2.81,1.22,5.84,1.92,8.77,2.87c3.03,0.98,6.02,2.08,9.08,2.92
	c10.54,2.92,21.1,5.74,31.66,8.6c0.18,0.05,0.4-0.03,0.99-0.08c0.05-0.79,0.21-1.66,0.14-2.51c-0.3-3.9-0.78-7.8-0.96-11.7
	c-0.13-2.65,0.24-5.32,0.19-7.98c-0.09-4.53-0.17-9.08-0.55-13.59c-0.32-3.89-0.89-7.71-0.65-11.67c0.21-3.37-0.36-6.79-0.61-10.18
	c-0.1-1.33-0.21-2.67-0.41-3.99c-0.4-2.65-0.87-5.28-1.28-7.92c-0.22-1.42-0.44-2.85-0.55-4.29c-0.43-5.55-0.82-11.11-1.21-16.66
	c-0.27-3.8-0.52-7.61-0.75-11.42c-0.14-2.29-0.19-2.37-2.46-2.69c-7.24-1.04-14.49-2.01-21.71-3.15c-3.35-0.53-6.64-1.46-9.97-2.09
	c-2.02-0.38-4.07-0.64-6.12-0.77c-9.3-0.63-18.34-2.78-27.43-4.64c-4.63-0.95-8.98-2.79-13.29-4.86
	c-6.3-3.03-11.47-7.37-16.03-12.44c-4.47-4.97-8.66-10.19-12.26-15.87c-4.87-7.66-9.8-15.28-15.81-22.14
	c-1.01-1.16-1.83-2.49-2.72-3.76c-2.59-3.71-5.18-7.44-7.76-11.16c-0.18-0.25-0.3-0.6-0.54-0.75c-3.5-2.22-3.63-5.61-3.5-9.27
	c0.19-5.27-0.03-10.55,0.14-15.81c0.24-7.64,1.19-15.22,3.19-22.61c0.5-1.84,1.53-3.61,2.61-5.22c3.89-5.78,9.01-10.18,15.47-12.86
	c1.37-0.57,3.01-0.45,4.52-0.71c6.77-1.17,13.62-1.06,20.4-0.67c10.46,0.6,19.24,4.99,26.07,13.06c0.65,0.77,1.38,1.57,2.25,2.04
	c1.72,0.93,3.36,1.89,4.85,3.23c2.06,1.85,4.35,3.45,6.57,5.12c0.9,0.67,1.83,1.35,2.85,1.8c7.37,3.23,14.81,6.23,22.6,8.39
	c4.34,1.2,8.45,3.19,12.69,4.77c3,1.12,5.97,2.4,9.07,3.13c2.78,0.66,5.71,0.73,8.58,0.95c1.17,0.09,1.5-0.84,1.62-1.86
	c0.36-3.17,1.07-6.34,1.06-9.51c-0.01-3.89,1.2-7.52,1.66-11.3c0.63-5.24,2.18-10.28,3.3-15.41c1.21-5.52,1.76-11.19,2.67-16.78
	c0.6-3.66,1.38-7.29,1.99-10.96c0.59-3.56,1.25-7.12,1.56-10.7c0.74-8.44,2.4-16.74,4.1-25.01c1.01-4.9,2.46-9.78,4.62-14.41
	c1.24-2.66,1.71-5.67,2.55-8.52c0.44-1.48,0.99-2.93,1.39-4.42c1.3-4.88,2.32-9.85,4.8-14.34c0.39-0.7,0.45-1.58,0.71-2.36
	c2.17-6.52,5.49-12.37,9.76-17.78c3.51-4.45,6.67-9.17,9.98-13.78c0.72-1.01,1.41-2.04,2.17-3.02c3.58-4.65,7.13-9.32,10.79-13.91
	c2.57-3.23,6.18-5.05,9.79-6.86c2.75-1.38,5.58-2.06,8.65-1.86c1.38,0.09,2.47-0.44,3.6-1.41c4.48-3.85,9.45-6.55,15.68-6.13
	c3.39,0.23,6.79,0.03,10.14,0.99c5.2,1.48,9.5,4.39,13.54,7.87c6.48,5.57,11.58,12.29,16.15,19.41c2.32,3.62,4.16,7.55,6.25,11.32
	c1,1.81,2.07,3.57,3.11,5.36c1.96,3.38,4.11,6.67,5.82,10.18c3.65,7.49,7.06,15.09,10.59,22.63c0.19,0.41,0.58,0.73,1.04,1.29
	c1.28-2.15,1.63-4.24,1.97-6.35c0.86-5.29,1.71-10.56,3.26-15.74c1.14-3.82,1.44-7.89,2.19-11.84c0.8-4.24,1.7-8.47,2.54-12.71
	c0.42-2.12,0.75-4.25,1.17-6.37c0.36-1.82,0.78-3.62,1.21-5.42c1.78-7.46,4.44-14.59,7.78-21.48c0.49-1.02,0.86-2.1,1.32-3.14
	c0.73-1.65,1.84-2.87,3.53-3.71c3.98-1.97,7.82-4.2,11.81-6.16c3.05-1.5,6.23-2.76,9.36-4.1c0.47-0.2,0.99-0.4,1.49-0.41
	c4.98-0.12,9.76-1.43,14.6-2.41c0.5-0.1,1.03-0.13,1.54-0.09c3.8,0.33,7.58,0.85,11.38,0.99c6.38,0.23,12.35,2.29,18.41,3.92
	c2.97,0.8,5.83,2.03,8.75,3.04c1.26,0.44,2.55,0.79,3.83,1.19c1.77,0.56,3.37,1.29,4.85,2.56c1.69,1.45,3.82,2.43,5.83,3.47
	c3.96,2.04,7.12,4.88,9.44,8.69c0.91,1.5,1.98,2.91,2.91,4.39c1.2,1.91,2.33,3.81,2.76,6.14c0.45,2.42,1.48,4.73,2.07,7.13
	c0.57,2.29,1.06,4.62,1.33,6.96c0.52,4.5,0.8,9.04,1.32,13.54c0.12,1.08,0.65,2.19,1.24,3.13c2,3.16,2.56,6.74,2.97,10.3
	c1.34,11.74,0.63,23.53,0.59,35.3c-0.03,7.21-0.33,14.41-0.63,21.62c-0.33,8.04-0.78,16.08-1.22,24.11
	c-0.36,6.49-0.64,12.99-1.27,19.45c-0.36,3.66-1.46,7.23-2.06,10.87c-1,5.99-1.92,12-2.78,18.01c-0.6,4.17-1.07,8.36-1.58,12.55
	c-0.12,1.02-0.14,2.06-0.21,3.09c-0.47,6.58-0.52,13.17-1.85,19.69c-1.48,7.26-2.48,14.62-3.97,21.88
	c-1.08,5.23-2.62,10.37-3.95,15.55c-0.74,2.89-1.46,5.78-2.19,8.68c-0.05,0.2-0.04,0.42-0.12,0.61c-2.84,7.55-2.83,15.52-3.55,23.39
	c-0.48,5.22-0.82,10.46-1.88,15.63c-1.22,5.94-2.06,11.97-3.09,17.95c-0.12,0.7-0.25,1.44-0.58,2.05
	c-2.18,3.97-3.02,8.32-3.74,12.71c-0.12,0.71-0.14,1.47-0.43,2.11c-1.47,3.32-1.56,6.8-1.46,10.34c0.09,3.31-0.24,6.64,0.07,9.92
	c0.71,7.57,0.13,15.29,2.46,22.68c1.08,3.43,2.21,6.84,3.33,10.25c0.74,2.25,1.49,4.49,2.27,6.73c0.75,2.13,1.54,4.24,2.48,6.81
	c0.76-0.98,1.24-1.57,1.7-2.18c0.97-1.31,1.82-2.74,2.91-3.93c1.21-1.32,2.3-2.63,2.75-4.4c0.12-0.49,0.34-0.98,0.6-1.41
	c2.7-4.51,5.41-9,8.12-13.5c0.37-0.62,0.94-1.2,1.07-1.87c0.56-3.06,2.75-4.86,4.77-6.97c4.47-4.68,8.73-9.5,11.39-15.63
	c1.97-4.52,2.98-9.18,3.81-13.95c0.56-3.25,1.22-6.49,1.77-9.74c0.27-1.62,0.18-3.33,0.62-4.9c1.29-4.66,2.78-9.26,4.15-13.9
	c1.46-4.93,2.99-9.86,4.28-14.83c0.57-2.18,0.76-4.48,0.89-6.73c0.34-5.56,0.39-11.15,0.86-16.7c0.8-9.6,0.63-19.2,0.45-28.8
	c-0.05-2.88-0.43-5.75-0.62-8.63c-0.23-3.4-0.42-6.79-0.61-10.19c-0.17-3.08-0.48-6.16-0.42-9.24c0.15-6.7,0.74-13.37,1.38-20.05
	c0.83-8.61,3.46-16.76,5.56-25.03c1.38-5.47,3.78-10.7,6.94-15.48c2.38-3.6,4.8-7.17,7.13-10.8c0.78-1.2,1.33-2.55,2.02-3.81
	c0.85-1.53,1.68-3.08,2.64-4.55c1.58-2.4,3.33-4.68,4.87-7.1c2.76-4.34,5.38-8.77,8.13-13.13c1.08-1.72,1.68-3.48,1.63-5.54
	c-0.12-5.07,0.3-10.19-0.32-15.18c-0.57-4.64,0.71-9.17-0.05-13.81c-0.5-3.11,1.14-4.97,3.84-5.41c0.91-0.15,1.96,0.24,2.89,0.55
	c0.95,0.31,1.81,0.97,2.77,1.21c5.36,1.33,5.44,1.15,7.02-4.16c2.45-8.21,4.74-16.49,7.75-24.5c3.23-8.61,9.07-15.45,16.93-20.3
	c1.93-1.19,4.45-1.74,6.76-1.95c4.29-0.39,8.62-0.39,12.94-0.4c1.53,0,3.07,0.38,4.58,0.71c4.74,1.03,9.48,1.85,14.35,2.22
	c6.77,0.51,13.55,1.34,20.22,2.58c4.86,0.9,9.67,2.73,13.55,5.82c2.82,2.25,5.6,4.74,7.82,7.77c1.35,1.85,2.73,3.61,3.36,5.81
	c0.59,2.06,0.9,4.21,1.46,6.28c0.75,2.76,1.65,5.48,2.45,8.23c0.43,1.48,1.04,2.97,1.1,4.47c0.1,2.54,0.99,4.83,1.7,7.19
	c1.23,4.1,1.62,8.36,0.93,12.51c-0.42,2.53-1.62,5.24-3.26,7.21c-4.4,5.29-9.22,10.22-14.39,14.83c-3.56,3.17-6.71,6.93-8.75,11.46
	c-1.64,3.64-3.67,7.11-5.45,10.69c-0.54,1.1-0.84,2.32-1.21,3.49c-2.25,7.08-4.58,14.13-6.69,21.24
	c-2.08,7.02-3.88,14.12-5.89,21.15c-1.56,5.44-2.98,10.94-4.97,16.23c-2.36,6.27-5.18,12.38-7.97,18.48
	c-2.27,4.97-4.73,9.84-7.2,14.72c-0.69,1.36-1.9,2.47-2.48,3.86c-1.77,4.27-3.34,8.62-5.02,12.94c-1.53,3.94-2.74,8.06-4.73,11.76
	c-2.23,4.16-4.97,8.09-7.84,11.85c-4.31,5.65-9.07,10.96-13.38,16.61c-2.49,3.27-4.56,6.87-6.68,10.41
	c-1.97,3.27-3.62,6.74-5.68,9.95c-1.26,1.97-3.01,3.63-4.56,5.41c-0.54,0.62-1.14,1.18-1.71,1.77c-4.76,4.86-7.8,10.81-10.73,16.84
	c-0.44,0.91-1.29,1.61-1.77,2.51c-1.12,2.09-2.23,4.19-3.18,6.36c-2.72,6.24-5.46,12.48-8.01,18.79
	c-2.24,5.54-4.46,11.12-6.24,16.82c-1.14,3.66-3,7.02-4.1,10.63c-0.97,3.17-1.99,6.35-1.66,9.93c0.34,3.71,0.27,7.65-1.86,11.1
	c-2.07,3.35-2.73,7.07-2.83,10.93c-0.03,1-0.15,2.01-0.25,3.4c1.78-0.24,3.4-0.38,4.98-0.68c1.72-0.33,3.43-0.75,5.1-1.27
	c0.74-0.23,1.46-0.72,2.04-1.25c0.75-0.7,1.43-1.51,2-2.36c4.39-6.59,10.58-11.23,16.91-15.72c0.82-0.58,1.85-0.89,2.78-1.32
	c2.54-1.16,5.07-2.31,7.61-3.47c0.19-0.09,0.36-0.22,0.56-0.27c9.13-2.61,18.24-5.46,27.94-3.38c5.24,1.13,10.46,2.45,15.75,3.24
	c4.75,0.71,9.6,1.56,14.38-0.11c0.78-0.27,1.62-0.39,2.35-0.76c5.67-2.87,11.83-4.23,17.94-5.68c3.41-0.81,5.77,0.47,7.17,3.72
	c0.69,1.61,1.42,3.25,1.76,4.95c0.34,1.7,1.43,2.16,2.79,2.43c3.54,0.7,7.15,1.17,10.64,2.08c5.84,1.51,11.92,0.9,17.77,2.28
	c1.13,0.26,2.43-0.22,3.65-0.36C959.63,432.26,959.63,433.91,959.63,435.57z M600.49,743.98c0.91-0.24,1.52-0.33,2.08-0.55
	c4.21-1.68,8.37-3.52,12.63-5.04c1.79-0.64,3.87-1.04,5.73-0.81c5.86,0.7,10.59,3.68,14.37,8.14c1.86,2.19,3.56,4.53,5.3,6.82
	c1.56,2.06,3.57,3.4,6.09,3.91c2.12,0.43,4.25,0.91,6.39,1.12c3.69,0.35,7.42,0.38,11.11,0.76c7.32,0.75,13.59-1.44,19.01-6.34
	c2.14-1.93,4.43-3.69,6.6-5.59c1.46-1.28,2.92-2.58,4.23-4c3.91-4.23,7.5-8.79,11.68-12.73c5.98-5.65,12-11.23,17.34-17.49
	c0.53-0.63,1.23-1.22,1.48-1.96c0.83-2.48,2.75-3.68,4.88-4.85c4.48-2.47,7.51-6.04,8.12-11.35c0.56-4.91,1.26-9.8,1.8-14.71
	c0.47-4.3,0.56-8.65,1.25-12.91c0.95-5.82,3.35-10.68,9.97-11.85c0.61-0.11,1.19-0.36,1.8-0.43c3.81-0.45,6.67-2.33,8.98-5.4
	c1.66-2.2,2.27-4.82,3.51-7.18c0.76-1.45,1.4-3,1.81-4.58c0.89-3.38,1.66-6.8,2.36-10.23c1.12-5.45,2.12-10.93,3.23-16.38
	c0.26-1.3,0.68-2.59,1.18-3.83c0.66-1.62,1.4-3.21,2.22-4.75c1.1-2.09,2.06-4.32,3.53-6.13c2.04-2.52,2.77-5.23,2.43-8.34
	c-0.09-0.81-0.33-1.6-0.46-2.41c-0.27-1.72-0.64-3.44-0.76-5.17c-0.34-5.02,0.63-10.06-0.05-15.09c-0.12-0.9,0.15-1.85,0.17-2.77
	c0.12-5.15,0.23-10.31,0.34-15.46c-1.41-2.95-1.02-6.03-0.67-9.11c0.1-0.92,0.16-1.86,0.36-2.76c0.27-1.22,0.02-2.23-1.1-3.21
	c-0.87,0.38-1.79,0.78-2.72,1.18c-2,0.86-3.42,0.35-4.26-1.61c-0.48-1.14-0.59-2.5-1.28-3.47c-3.4-4.79-6.88-9.54-11.16-13.61
	c-1.64-1.56-3.36-3.03-5.11-4.46c-0.75-0.61-1.51-1.53-2.83-0.79c-0.08,0.31-0.13,0.71-0.27,1.09c-1.73,4.57-3.96,8.68-9.21,10.04
	c-1.29,0.34-2.55,0.82-3.83,1.18c-1.8,0.51-3.85-0.39-4.8-1.92c-2.29-3.66-4.54-7.36-7-10.9c-0.99-1.42-1.5-2.85-1.84-4.5
	c-0.51-2.52-1.09-5.04-1.94-7.46c-0.81-2.31-2.03-4.47-3.01-6.72c-0.8-1.83-1.82-3.4-3.6-4.47c-2.56-1.53-5.06-3.17-7.51-4.87
	c-2.11-1.46-3.99-3.28-6.2-4.57c-4.28-2.5-8.73-4.69-13.06-7.09c-2.61-1.45-5.06-3.21-7.72-4.54c-5.33-2.68-10.55-5.68-16.35-7.3
	c-1.42-0.39-3.15-0.59-4.48-0.13c-2.21,0.76-4.29,2.01-6.29,3.26c-3.23,2.03-6.41,4.01-10.07,5.29c-4.55,1.6-8.88,3.81-13.37,5.63
	c-5.26,2.13-10.61,4.03-15.85,6.2c-4.22,1.75-8.54,2.84-13.07,3.53c-4.35,0.66-8.65,1.83-12.86,3.11c-3.14,0.96-6.03,2.62-9.49,2.53
	c-2.14-0.05-4.31,0.35-6.45,0.65c-6.54,0.93-13.09,1.77-19.72,1.63c-4.02-0.08-8.04-0.35-12.06-0.5c-2.17-0.08-4.35,0.06-6.51-0.14
	c-5.53-0.52-11.06-1.16-16.58-1.77c-4.71-0.51-9.41-1.09-14.13-1.54c-5.95-0.57-11.91-1.04-17.86-1.55c-4-0.35-7.99-0.7-11.99-1.07
	c-2.47-0.23-4.93-0.46-7.39-0.77c-2.06-0.26-3.38,0.58-4.1,2.48c-0.29,0.77-0.73,1.52-0.85,2.32c-0.55,3.49-0.57,7.04,0.25,10.44
	c1.06,4.35,1.38,8.74,1.62,13.16c0.08,1.44-0.06,2.92,0.18,4.33c0.57,3.34-0.23,6.56-0.67,9.81c-0.33,2.44-1.1,4.84-1.32,7.29
	c-0.21,2.35-0.04,4.75,0.13,7.12c0.06,0.83,0.63,1.62,1.06,2.62c1.84-1.38,2.88-2.76,3.67-4.55c1.38-3.14,2.47-6.33,3.04-9.69
	c0.48-2.82,0.81-5.67,1.18-8.51c0.02-0.18-0.05-0.44-0.18-0.58c-1.19-1.29-0.94-2.9-0.96-4.42c-0.03-2.21-0.52-4.25-1.46-6.27
	c-1.17-2.52-2.02-5.13-1.67-8.07c0.19-1.58-0.35-3.25-0.61-4.88c-0.14-0.91-0.49-1.8-0.56-2.72c-0.23-2.98,0.18-3.54,3.51-4.87
	c0.63,0.92,1.66,1.82,1.91,2.9c0.82,3.49,1.4,7.04,2,10.58c0.71,4.16,1.15,8.44,4.85,11.28c1.76,1.35,3.24,3,5.5,3.82
	c2.78,1.01,5.43,2.49,7.99,4.02c6.03,3.59,11.77,7.58,16.75,12.6c2.85,2.88,6.69,4.06,10.5,4.86c3.49,0.73,6.41,2.18,8.89,4.64
	c2.11,2.11,4.11,4.33,6.31,6.35c2.74,2.51,5.63,4.95,9.39,5.69c8.2,1.61,16.45,2.93,24.81,3.28c2.12,0.09,3.55,0.77,4.26,2.71
	c-1.1,3.38-3.93,5.8-4.95,9.35c1.12,0.49,1.93,0.96,2.8,1.21c5.2,1.46,10.11,3.62,14.72,6.4c3.89,2.35,7.67,4.86,10.79,8.24
	c3.59,3.89,3.78,8.55,3.08,13.37c-0.31,2.12-1.14,4.16-1.61,6.27c-0.88,4.02-2.38,7.64-5.82,10.23c-1.31,0.99-1.73,2.52-1.59,4.17
	c0.19,2.26,0.58,4.53,0.5,6.78c-0.14,4.08-0.56,8.15-0.91,12.8c1.54-0.89,2.77-1.4,3.76-2.21c1.19-0.97,2.28-2.11,3.24-3.31
	c2.86-3.62,6.31-5.14,10.85-3.44c1.15,0.43,2.37,0.79,3.59,0.95c2.26,0.29,4.1,1.36,5.71,2.86c2.11,1.96,4.36,3.81,6.17,6.02
	c2.49,3.05,2.81,6.76,2.39,10.59c-0.3,2.76-0.41,5.54-0.56,8.32c-0.07,1.24,0.05,2.49-0.07,3.72c-0.49,5.12-2.26,7-7.36,7.94
	c-0.1,0.02-0.21,0.03-0.31,0.03c-2.25,0.08-4.5,0.06-6.74,0.25c-6.58,0.56-13.17,0.51-19.76,0.38c-2.51-0.05-4.59-1.19-6.48-2.66
	c-1.87-1.46-3.5-3.21-5.38-4.66c-1.89-1.46-1.65-3.45-0.31-5.42c0.17-0.25,0.41-0.47,0.64-0.67c2.66-2.29,2.9-5.2,2.29-8.42
	c-0.2-1.05-0.31-2.56,0.27-3.21c1.54-1.74,1.42-3.72,1.73-5.75c0.86-5.6,1.64-11.19,1.08-16.88c-0.2-2.05-0.39-4.1-0.71-6.14
	c-0.08-0.49-0.63-0.91-0.91-1.3c-1.43,0.38-1.3,1.39-1.5,2.28c-0.62,2.81-1.27,5.62-1.99,8.41c-0.3,1.15-0.95,1.98-2.33,2.14
	c-3.21,0.38-4.86-1.45-4.15-4.65c0.83-3.72,1.56-7.47,2.46-11.17c0.36-1.47,0.01-2.58-0.82-3.75c-2.26-3.18-4.4-6.44-6.7-9.59
	c-5.43-7.46-9.68-15.59-13.5-23.94c-0.78-1.71-1.83-3.05-3.39-3.85c-1.57-0.8-2.52-2.08-3.51-3.4c-4.67-6.23-9.95-11.76-16.98-15.43
	c-2.92-1.52-5.77-3.26-8.4-5.23c-3.38-2.55-6.62-5.23-10.98-5.89c-1.13-0.17-2.12-0.85-2.1-1.95c0.05-2.19-1.38-3.4-2.71-4.63
	c-2.11-1.96-4.22-4.02-6.62-5.59c-4.13-2.71-8.44-5.16-12.77-7.54c-2.97-1.64-6.1-3-9.17-4.48c-2.09-1.01-3.71-0.45-4.12,1.56
	c-0.55,2.71-0.85,5.48-1.4,8.19c-0.91,4.42-1.79,8.84-4.54,12.65c-3.03,4.22-5.22,8.86-6.11,14.07c-0.38,2.22-1.58,3.98-3.75,5
	c-1.81,0.85-2.71,2.41-2.98,4.37c-0.11,0.81-0.31,1.61-0.47,2.41c-0.3,1.47-0.09,2.66,0.9,4c1.63,2.21,3.31,4.54,3.29,7.52
	c-0.01,1.54-1.21,3.25-2.48,3.56c-1.1,0.27-3.01-0.63-3.7-1.79c-0.26-0.44-0.34-0.98-0.61-1.42c-0.25-0.41-0.57-0.97-0.97-1.07
	c-1.58-0.41-1.86-1.73-2.42-2.96c-0.47-1.02-0.32-2.58-2.14-2.86c0,1.9-0.2,3.77,0.05,5.59c0.33,2.43,0.84,4.86,1.55,7.21
	c1.22,4.05,2.45,8.11,4.03,12.02c3.16,7.84,6.51,15.6,12.43,21.92c1.67,1.78,2.73,4.13,4.35,5.97c6.69,7.58,13.14,15.35,19.09,23.52
	c2.61,3.58,5.12,7.27,7.26,11.13c1.89,3.41,3.17,7.15,4.8,10.71c1.14,2.49,1.79,5.34,4.63,6.67c0.23,0.11,0.53,0.56,0.47,0.73
	c-0.59,1.68,1.23,2.19,1.64,3.42c0.41,1.24,1.29,2.33,2.01,3.46c1.71,2.69,3.33,5.45,5.2,8.03c2.3,3.17,4.56,6.43,7.3,9.19
	c3.2,3.22,6.22,6.56,8.92,10.2c0.79,1.07,1.52,2.27,2.55,3.06c3.62,2.79,6.36,6.43,9.61,9.59c1.74,1.7,3.29,3.59,5.15,5.65
	c1.35-1.09,2.46-1.97,3.54-2.88c1.72-1.46,3.26-3.2,5.16-4.35c2.65-1.6,5.65-2.8,8.8-2.27c3.54,0.59,7.09,1.42,10.48,2.6
	c2.29,0.8,4.28,2.44,6.46,3.59c3.62,1.91,6.5,4.74,9.32,7.58C594.85,735.32,598.06,739.21,600.49,743.98z M725.21,425.67
	c0.15-1.11,0.43-1.82,0.3-2.44c-0.4-1.91-0.89-3.81-1.45-5.69c-1.16-3.85-2.5-7.65-3.55-11.53c-1.21-4.47-2.21-9-3.25-13.52
	c-0.21-0.89-0.23-1.84-0.24-2.77c-0.12-8.37,0.22-16.71,1.27-25.02c0.22-1.74,0.42-3.49,0.85-5.18c1.37-5.38,2.92-10.71,4.25-16.1
	c0.74-2.99,1.21-6.05,1.74-9.09c0.37-2.13,0.64-4.28,0.94-6.42c0.67-4.8,1.77-9.58,1.9-14.4c0.21-7.39,1.85-14.53,3.24-21.68
	c1.17-6.04,3.45-11.87,5.17-17.81c1.83-6.34,3.49-12.71,4.21-19.29c0.53-4.82,0.87-9.66,2.37-14.32c0.41-1.26,0.58-2.62,0.72-3.95
	c0.73-7.06,1.37-14.14,2.12-21.2c0.43-3.99,0.98-7.97,1.54-11.95c0.71-5.1,1.43-10.21,2.25-15.3c0.73-4.58,1.88-9.11,2.34-13.72
	c0.79-7.99,1.2-16.02,1.74-24.04c0.58-8.64,1.41-17.28,1.63-25.93c0.31-11.88,0.26-23.78,0.12-35.67c-0.05-4.2-0.78-8.41-1.31-12.59
	c-0.11-0.87-0.75-1.67-1.06-2.53c-0.91-2.51-2.21-4.97-2.59-7.56c-1.06-7.13-1.58-14.31-3.02-21.41c-1.31-6.48-4.3-12-8.23-17.05
	c-3.2-4.11-7.84-6.64-12.18-9.34c-5.2-3.23-11.3-4.46-17.08-6.2c-6.37-1.92-12.85-3.81-19.59-4.28c-5.56-0.39-11.11-0.9-16.6,0.73
	c-2.15,0.64-4.42,0.92-6.62,1.39c-0.59,0.13-1.17,0.35-1.75,0.56c-1.16,0.41-2.31,0.81-3.46,1.25c-1.33,0.52-2.71,0.95-3.96,1.63
	c-2.44,1.34-4.69,3.07-7.22,4.19c-4.7,2.08-7.97,5.35-9.78,10.15c-0.5,1.33-1.18,2.59-1.78,3.88c-0.73,1.58-1.57,3.12-2.15,4.75
	c-0.47,1.35-0.42,2.9-0.97,4.2c-1.45,3.42-2.36,6.99-3.18,10.58c-0.37,1.61-0.49,3.26-0.82,4.88c-1.91,9.17-3.9,18.32-5.75,27.5
	c-1.63,8.08-3.26,16.16-4.57,24.29c-0.47,2.9-0.48,6.05,0.11,8.92c0.98,4.72,2.56,9.32,3.99,13.94c1.86,6.01,3.76,12.02,5.75,17.99
	c1.33,4,2.84,7.93,4.28,11.89c1.45,3.97,2.95,7.92,4.37,11.91c1.62,4.55,3.28,9.1,4.73,13.71c2.14,6.77,2.11,13.83,2.51,20.83
	c0.24,4.22,0.76,8.41,1.03,12.63c0.29,4.53,0.61,9.07,0.61,13.6c0.01,5.47-0.3,10.94-0.48,16.41c-0.03,0.82,0.12,1.71-0.13,2.46
	c-0.95,2.87,0.03,5.44,0.88,8.11c2.06,6.48,4.05,12.98,5.9,19.52c1.04,3.65,1.57,7.45,2.64,11.1c1.59,5.45,3.81,10.6,6.9,15.46
	c2.62,4.14,4.67,8.71,6.46,13.29c3.12,7.96,5.84,16.08,8.72,24.13c0.66,1.85,1.18,3.75,1.96,5.54c2.3,5.28,5.43,10.17,7.24,15.69
	c0.57,1.75,1.43,3.41,2.21,5.09c1.89,4.11,3.66,8.26,4.72,12.69c0.26,1.09,0.69,2.19,1.26,3.15c2.04,3.44,2.47,7.65,5.18,10.76
	c0.16,3.45,2.9,5.59,4.32,8.4c0.59,1.18,1.48,2.25,2.41,3.2c5.18,5.3,10.55,10.42,14.64,16.68
	C724.13,425.03,724.46,425.15,725.21,425.67z M635.55,347c0.05-0.6,0.11-1.01,0.11-1.42c0.15-12.79-0.35-25.59,1.24-38.34
	c0.61-4.9,0.45-9.88,1.65-14.73c0.39-1.59,0.54-3.25,0.77-4.88c0.74-5.2,1.45-10.4,2.21-15.59c0.5-3.46,1.25-6.9,1.54-10.38
	c0.25-3.07,0.33-6.19-0.71-9.21c-1.3-3.8-2.45-7.66-3.84-11.42c-1.36-3.67-2.77-7.35-4.5-10.85c-1.72-3.5-3.87-6.79-5.82-10.18
	c-0.46-0.8-0.91-1.62-1.27-2.48c-2.23-5.32-4.07-10.77-5.45-16.38c-0.24-1-0.51-2-0.69-3.01c-0.88-4.86-1.81-9.72-2.57-14.6
	c-0.71-4.58-1.46-9.17-1.79-13.79c-0.42-5.87-0.43-11.76-0.64-17.64c-0.12-3.3-0.46-6.6-0.44-9.89c0.02-4.54,0.25-9.08,0.46-13.61
	c0.13-2.88,0.49-5.75,0.54-8.63c0.05-3.05,1.04-6.13-0.22-9.18c-2.05-4.95-3.78-10.05-6.09-14.88c-3.6-7.53-6.95-15.19-11.32-22.34
	c-2.69-4.39-4.8-9.14-7.6-13.45c-3.14-4.82-5.62-10.1-9.52-14.42c-1.59-1.76-3.07-3.61-4.62-5.39c-2.93-3.37-6.28-6.34-10.06-8.62
	c-5.85-3.52-12.4-4.35-19.13-3.79c-2.41,0.2-5.05,1.66-6.37,3.45c2,0.83,3.91,1.79,6.04,1.96c4.96,0.4,5.77,1.49,4.48,6.25
	c-0.05,0.2-0.06,0.41-0.13,0.61c-3.05,7.99-6.12,15.97-9.15,23.97c-1.93,5.1-3.86,10.21-5.63,15.37c-1.2,3.49-2.5,6.94-3.48,10.54
	c-1.13,4.18-2.09,8.35-2.78,12.61c-0.79,4.88-1.52,9.78-2.63,14.59c-1.17,5.08-2.75,10.07-4.18,15.09
	c-1.1,3.85-2.27,7.69-3.37,11.54c-1.07,3.77-2.26,7.52-3.06,11.35c-0.36,1.73-0.38,3.8,0.23,5.42c2.25,5.97,4.83,11.81,7.3,17.7
	c1.31,3.12,2.67,6.23,3.95,9.36c1.52,3.72,2.84,7.53,4.52,11.18c1.67,3.63,3.46,7.22,5.2,10.81c2.78,5.75,5.68,11.41,9.01,16.84
	c2.74,4.47,5.61,8.86,8.55,13.2c3.34,4.94,6.53,10.01,10.57,14.45c2.69,2.97,5.41,5.94,7.86,9.1c3.16,4.07,6.04,8.35,9.08,12.51
	c2.73,3.74,5.46,7.48,8.29,11.14c2.25,2.92,4.65,5.73,6.97,8.61c1.09,1.36,2.01,2.88,3.23,4.11c4.98,5.02,10.02,9.97,15.1,14.89
	c2.11,2.04,3.6,4.47,4.86,7.07c2.6,5.37,5.15,10.77,7.74,16.14c0.85,1.76,2.15,3.4,2.54,5.24C632.92,344.88,633.76,346,635.55,347z
	 M701.26,441.88c-3.81-2.61-7.02-4.81-10.24-7c-0.33-0.23-0.74-0.36-1.12-0.51c-3.34-1.35-6.71-2.65-10.03-4.04
	c-4.18-1.75-8.25-3.76-12.74-4.71c-1.3-0.27-2.61-0.7-3.77-1.33c-5.43-2.96-10.88-5.89-16.18-9.06c-5.93-3.54-11.68-7.37-17.55-11
	c-2.45-1.52-4.96-2.97-7.55-4.25c-1.45-0.72-3.21-0.81-4.66-1.53c-3.6-1.78-7.12-3.75-10.66-5.67c-1.72-0.93-3.58-1.72-5.08-2.94
	c-3.04-2.46-6.03-4.93-9.38-6.98c-1.55-0.95-2.93-2.26-4.2-3.58c-5.26-5.52-10.56-11.02-15.62-16.72c-2.3-2.59-5.2-4.7-6.64-8.05
	c-0.27-0.64-1.17-1.21-1.89-1.41c-1.88-0.52-3.81-1-5.75-1.17c-5.28-0.47-10.33-1.92-15.37-3.44c-4.82-1.45-9.53-3.31-14.63-3.71
	c-1.01-0.08-2.01-0.47-2.99-0.79c-7.54-2.39-15.25-3.58-23.17-3.32c-2.88,0.09-5.75,0.33-8.63,0.49c-0.41,0.02-0.82-0.05-1.22-0.09
	c-1.43-0.13-2.86-0.4-4.28-0.37c-4.23,0.08-8.45,0.26-12.68,0.46c-1.11,0.05-2.38,0.04-3.28,0.56c-1.27,0.73-0.21,2.07-0.24,3.14
	c-0.15,5.05-0.22,10.11-0.4,15.16c-0.13,3.71-0.22,7.43-0.61,11.12c-0.32,3.06-0.92,6.1-1.64,9.09c-1.09,4.59-1,9.24-0.89,13.87
	c0.3,11.79-0.12,23.55-1.32,35.27c-0.37,3.66-0.72,7.35-2.13,10.88c-0.96,2.4-1.84,5.01-1.11,7.83c2.49,0.71,4.92,1.62,7.43,2.07
	c4.25,0.77,8.47,1.82,12.85,1.61c0.6-0.03,1.22,0.24,1.83,0.27c3.39,0.14,6.83,0.67,10.17,0.29c7.36-0.83,14.68-2.13,22.01-3.22
	c2.75-0.41,5.56-0.56,8.26-1.17c7.02-1.59,14.17-0.97,21.25-1.52c3.49-0.27,6.99-0.23,10.48-0.48c3.7-0.26,7.38-0.93,11.08-1
	c8.29-0.15,16.36-1.97,24.54-2.94c5.21-0.62,10.4-1.49,15.6-2.2c4.29-0.58,8.59-1.03,12.87-1.67c4.79-0.72,9.45-0.46,13.26,0.9
	c3.2,1.14,6.44,2.2,9.62,3.39c4.54,1.7,9.11,3.34,13.54,5.27c2.95,1.29,5.51,0.97,8.2-0.57c2.49-1.42,5.04-2.79,7.69-3.9
	c6.09-2.53,12.47-2.31,18.88-1.68C695.61,441.8,697.99,442.82,701.26,441.88z M449.39,240.21c-1.5-0.29-2.8-0.54-4.1-0.78
	c-2.83-0.53-5.72-0.82-8.47-1.63c-3.25-0.96-6.38-2.32-9.53-3.58c-3.16-1.26-6.22-2.82-9.45-3.87c-7.64-2.48-15.35-4.66-22.64-8.16
	c-3.48-1.67-6.68-3.57-9.67-5.96c-2.25-1.8-4.65-3.4-6.97-5.12c-0.82-0.61-1.72-1.19-2.36-1.96c-3.09-3.71-7.12-6.27-11.05-8.87
	c-3.75-2.48-8.22-3.36-12.65-3.54c-5.67-0.24-11.37-0.17-17.05,0.1c-3.7,0.17-7.44,0.85-10.63,2.93c-2.32,1.51-4.64,3.15-6.54,5.13
	c-2.69,2.79-4.6,6.01-5.4,10.05c-0.98,4.96-1.86,9.9-2.18,14.94c-0.17,2.67-0.69,5.34-0.69,8.01c0,3.69,0.37,7.38,0.51,11.08
	c0.08,2.06,0.82,3.76,2.1,5.36c3.66,4.59,7.09,9.35,9.93,14.51c0.34,0.62,0.91,1.12,1.35,1.69c1.25,1.63,2.51,3.26,3.74,4.91
	c1.17,1.57,2.31,3.16,3.48,4.73c1.6,2.14,3.36,4.18,4.78,6.43c1.96,3.11,3.64,6.37,5.62,9.49c3.28,5.18,7.44,9.56,11.47,14.06
	c1.63,1.82,4.09,2.91,5.62,4.78c1.8,2.2,4.02,3.47,6.49,4.57c1.22,0.54,2.39,1.2,3.62,1.74c4.15,1.84,8.4,3.29,12.96,3.91
	c3.86,0.52,7.68,1.39,11.51,2.17c2,0.41,3.96,1.14,5.97,1.41c4.88,0.67,9.85,0.53,14.68,1.86c3.01,0.82,6.37,0.5,9.28,1.54
	c2.34,0.84,4.77,0.92,7.05,1.22c2.24,0.29,4.38,0.65,6.5,1.39c0.57,0.2,1.21,0.21,1.83,0.23c1.52,0.06,3.05,0,4.56,0.12
	c2.1,0.18,2.75-0.47,2.53-2.59c-0.21-2.04-0.43-4.09-0.47-6.14c-0.07-3.82-0.07-7.65,0.01-11.47c0.15-7.12,0.34-14.23,0.58-21.35
	c0.09-2.46,0.4-4.92,0.59-7.38c0.38-5.14,0.78-10.28,1.11-15.43c0.25-3.9,0.39-7.8,0.63-11.69c0.21-3.38,0.18-6.82,0.82-10.13
	C449.4,246.13,449.66,243.43,449.39,240.21z M515.05,166.34c-0.3-0.03-0.59-0.05-0.89-0.08c-0.46,0.86-1.02,1.67-1.35,2.58
	c-1,2.81-1.68,5.77-2.91,8.47c-2.48,5.43-5.12,10.8-7.94,16.07c-1.5,2.79-3.21,5.59-5.36,7.89c-2.74,2.92-4.22,6.4-5.23,10.02
	c-1.58,5.65-2.65,11.44-3.91,17.19c-0.99,4.52-1.91,9.06-2.88,13.59c-0.69,3.22-1.42,6.44-2.08,9.66c-0.23,1.14-0.25,2.27,1.08,2.91
	c2.04,0.99,3.99,2.17,6.08,3.04c3.03,1.27,6.13,2.39,9.24,3.46c3.17,1.1,5.91,2.73,8.24,5.23c1.52,1.63,3.52,2.79,5.19,4.29
	c2.3,2.05,4.7,4.03,6.67,6.37c2.03,2.41,3.53,5.25,5.37,7.83c2.28,3.18,4.57,6.36,7.81,8.7c0.8,0.58,1.62,1.4,1.97,2.29
	c1.95,4.89,4.21,9.59,7.01,14.08c3.06,4.91,6.08,9.74,10.42,13.71c2.86,2.62,5.27,5.74,7.84,8.66c0.4,0.46,0.68,1.04,0.96,1.59
	c1.78,3.47,3.5,6.97,5.33,10.41c1.53,2.88,3.26,5.02,7.18,5.23c5.51,0.29,11.13,0.41,16.47,2.25c1.44,0.49,2.95,0.78,4.41,1.21
	c1.06,0.31,2.1,0.7,3.15,1.06c0.77,0.27,1.53,0.62,2.32,0.79c5.36,1.19,10.3,3.51,15.34,5.59c2.76,1.14,5.44,2.44,8.18,3.64
	c1.79,0.79,3.6,1.53,5.41,2.28c3.53,1.45,7.05,2.91,10.6,4.32c1.09,0.44,2.22,0.63,2.99-0.64c-0.26-2.27-1.87-3.85-2.8-5.76
	c-2.63-5.4-6.34-10.1-9.54-15.12c-1.47-2.31-3.64-4.17-4-7.1c-0.05-0.39-0.35-0.74-0.54-1.11c-2.16-4.21-4.46-8.37-6.45-12.66
	c-2.02-4.36-4.57-8.29-8.22-11.4c-3.69-3.14-7.42-6.21-9.98-10.44c-0.58-0.96-1.45-1.74-2.2-2.6c-1.02-1.16-2.12-2.26-3.05-3.49
	c-3.1-4.1-6.49-7.96-9.32-12.28c-2.98-4.56-6.38-8.86-9.61-13.26c-1.94-2.64-3.67-5.49-5.92-7.84c-3.71-3.87-7.32-7.81-10.39-12.2
	c-2.53-3.63-4.86-7.4-7.25-11.13c-1.44-2.26-2.85-4.54-4.22-6.83c-3.01-5.03-6.27-9.95-8.93-15.16c-3.5-6.87-6.3-14.1-9.81-20.96
	c-2.26-4.42-3.69-9.14-5.69-13.65c-1.67-3.76-2.97-7.68-4.57-11.47C517.98,172.44,516.47,169.41,515.05,166.34z M893.3,236.88
	c0.33-0.39,0.83-0.78,1.07-1.29c1.14-2.4,2.26-4.82,3.29-7.27c2.75-6.56,4.95-13.32,6.89-20.16c0.37-1.29,0.73-2.58,1.12-3.86
	c1.17-3.95,2.42-7.88,3.51-11.85c1.59-5.76,3.01-11.56,4.63-17.31c0.7-2.47,1.69-4.86,2.59-7.27c1.61-4.35,3.2-8.7,4.88-13.01
	c0.97-2.5,2.06-4.95,3.2-7.38c0.61-1.3,1.31-2.6,2.2-3.71c4.62-5.81,9.59-11.3,15.04-16.35c1.44-1.33,2.8-2.75,4.09-4.23
	c2.11-2.43,3.88-5.17,3.88-8.45c0.01-2.96-0.47-5.94-1.02-8.86c-0.65-3.42-1.77-6.72-3.01-10c-1.15-3.04-0.95-6.49-2.6-9.44
	c-0.24-0.42-0.18-1.01-0.25-1.52c-0.12-0.92-2.45-7.83-3-8.56c-0.62-0.81-1.34-1.55-2.05-2.29c-0.62-0.66-1.3-1.26-1.9-1.94
	c-2.88-3.25-6.02-6.18-10.13-7.79c-1.71-0.67-3.53-1.09-5.33-1.51c-3.2-0.75-6.4-1.6-9.64-2.05c-4.59-0.63-9.22-0.92-13.84-1.38
	c-2.16-0.21-4.37-0.24-6.45-0.76c-5.92-1.51-11.92-1.09-17.88-0.84c-4.23,0.18-8.38,1.13-11.31,4.71c-0.19,0.23-0.47,0.41-0.73,0.57
	c-2.83,1.69-4.9,4.13-6.52,6.91c-1.49,2.57-2.82,5.26-3.94,8.01c-2.02,4.96-4.02,9.94-5.65,15.03c-1.15,3.61-1.55,7.46-3.46,10.85
	c-0.58,1.04-0.54,2.05,0.61,2.65c1.78,0.94,2.35,2.56,2.5,4.36c0.11,1.34,0.65,2.38,1.61,3.23c3.24,2.86,6.46,5.74,9.77,8.52
	c1.01,0.85,2.2,1.71,3.45,2.01c4.6,1.12,7.74,4.67,11.75,6.75c0.42,0.22,0.7,0.74,1,1.15c1.9,2.56,3.94,5.03,5.64,7.72
	c1.68,2.66,3.45,5.34,2.37,8.88c-0.56,1.85-0.56,3.87-0.82,5.81c-0.53,4.08-1.25,8.13-1.9,12.17c-0.71,4.42-2.53,9.42,1.65,13.44
	c0.33,0.32,0.3,0.99,0.55,1.42c1.56,2.66,2.78,5.65,4.85,7.83c1.6,1.68,2.29,3.25,2.35,5.38c0.1,3.61,0.07,7.24,1.25,10.72
	c0.33,0.98,0.86,1.92,1,2.92c0.59,4.27,1.05,8.55,1.59,12.83c0.54,4.29,1.12,8.58,1.67,12.87C892,235.44,891.94,236.43,893.3,236.88
	z M782.73,354.91c0.21,0.08,0.41,0.16,0.62,0.23c1.42-1.47,2.2-3.37,3.23-5.11c1.95-3.26,3.8-6.62,6.1-9.63
	c4.69-6.14,9.58-12.14,14.53-18.08c2.31-2.77,4.74-5.5,7.45-7.85c5.92-5.13,12.03-10.05,18.14-14.96c3.13-2.52,6.49-4.76,9.66-7.23
	c3.25-2.53,6.36-5.23,9.6-7.77c2.43-1.91,5.01-3.63,7.44-5.54c3-2.35,5.9-4.84,8.89-7.2c3.82-3.01,7.41-6.25,10.55-9.97
	c1.6-1.88,3.27-3.73,4.6-5.8c1.34-2.06,2.42-4.32,3.38-6.59c1.29-3.05,2.21-6.2,1.84-9.62c-0.46-4.2-0.76-8.41-1.22-12.61
	c-0.24-2.14-0.55-4.29-1.07-6.38c-0.94-3.78-1.05-7.78-2.88-11.34c-0.09-0.17-0.07-0.4-0.08-0.61c-0.09-2.46-0.22-4.93-0.24-7.39
	c-0.03-3.42-1.16-6.43-2.96-9.3c-1.37-2.17-2.46-4.52-3.75-6.75c-1.7-2.93-2.55-6.31-4.95-8.87c-1.32-1.41-1.3-3.02-0.43-4.86
	c1.1-2.31,2.13-4.75,2.6-7.24c0.86-4.55,1.48-9.16,1.83-13.78c0.28-3.73-0.11-7.45-3.01-10.35c-0.43-0.43-0.72-1.01-1.12-1.47
	c-2.49-2.92-5.07-5.7-8.82-7.08c-1.63-0.59-3.22-1.32-4.73-2.17c-6.49-3.69-12.38-8.11-16.86-14.22c-1.31-1.78-3.28-1.24-4.14,1.05
	c-0.64,1.72-1.12,3.5-1.82,5.19c-1.86,4.46-3.53,9-6.09,13.14c-1.29,2.09-2.73,4.22-2.73,6.82c0,2.37,0.16,4.74,0.33,7.1
	c0.21,2.98,0.52,5.95,0.77,8.92c0.26,3.18,0.24,6.41,0.81,9.53c0.94,5.14,0.59,10.53,2.81,15.44c-0.18,3.59,1.08,6.88,2.11,10.23
	c0.94,3.05,1.75,6.15,2.66,9.21c1,3.35,2.23,6.65,3.05,10.05c0.92,3.81,2.48,7.17,5.45,9.8c1.56,1.38,2,3,1.33,5.02
	c-1.05,3.13-2,6.29-2.95,9.46c-2.13,7.08-6.29,12.96-10.98,18.5c-2.66,3.14-5.56,6.08-8.18,9.25c-3.41,4.13-6.65,8.41-9.95,12.62
	c-1.46,1.86-2.95,3.69-4.33,5.6c-2.04,2.84-4.07,5.7-5.97,8.64c-2.78,4.29-6.73,7.71-8.71,12.65c-2.6,6.5-5.67,12.82-8.64,19.17
	c-1.14,2.43-1.34,4.95-1.36,7.54c-0.01,1.34,0.03,2.69-0.07,4.03c-0.34,4.52-0.72,9.03-1.1,13.54c-0.09,1.02-0.26,2.04-0.36,3.06
	C782.9,352.27,782.83,353.59,782.73,354.91z M478.21,250.41c0.57-1.14,0.98-1.72,1.16-2.37c0.84-3.08,1.75-6.15,2.37-9.27
	c1.07-5.35,1.87-10.76,2.91-16.12c0.55-2.83,1.61-5.58,1.97-8.42c0.75-5.86,3.61-10.67,6.96-15.3c1.45-2,3.08-3.87,4.44-5.93
	c0.9-1.36,1.44-2.96,2.2-4.42c1.87-3.64,3.81-7.24,5.64-10.91c0.59-1.19,0.9-2.52,1.33-3.79c1.17-3.41,2.3-6.83,3.53-10.22
	c1.1-3.04,1.93-5.96,0.83-9.31c-2.52-7.63-4.39-15.42-5.88-23.34c-1.42-7.52-1.87-15.1-2.08-22.7c-0.19-7.11-0.36-14.23,1.11-21.29
	c0.88-4.23,1.07-8.62,2.53-12.7c2.83-7.9,5.01-16.04,10.08-23.06c2.04-2.82,3.85-5.81,6.23-8.4c0.75-0.81,1.5-1.65,1.39-2.89
	c-2.56-0.37-2.57-0.29-4.29,0.37c-2.75,1.05-4.3,3.42-6.22,5.39c-4.47,4.6-7.88,10.03-11.78,15.08c-1.75,2.27-3.56,4.5-5.24,6.82
	c-1.38,1.91-2.45,4.06-3.94,5.87c-3.63,4.43-6.48,9.28-8.5,14.63c-0.77,2.03-1.78,3.96-2.46,6.01c-1.46,4.38-3.39,8.65-3.34,13.44
	c0.01,1.25-0.59,2.55-1.1,3.75c-0.65,1.5-1.71,2.85-2.22,4.39c-2.12,6.44-4.83,12.71-5.84,19.5c-0.31,2.11-1.42,4.08-0.81,6.35
	c0.16,0.59-0.34,1.36-0.55,2.04c-0.46,1.47-1.18,2.91-1.35,4.42c-0.51,4.59-0.58,9.24-1.23,13.8c-0.91,6.42-2.18,12.79-3.3,19.17
	c-0.46,2.64-1.29,5.27-1.32,7.91c-0.05,3.49-0.88,6.72-1.97,9.95c-0.2,0.59-0.4,1.18-0.51,1.78c-1.22,6.89-2.55,13.77-3.59,20.69
	c-0.55,3.66-0.66,7.4-0.79,11.11c-0.09,2.51,0.44,3.03,2.69,3.89c2.12,0.8,4.28,1.55,6.32,2.53c2.86,1.38,5.64,2.84,7.84,5.34
	C473.3,246.38,475.65,248.12,478.21,250.41z M785.3,521.69c1.34-0.65,2.33-1.12,3.32-1.61c2.3-1.13,4.63-2.22,6.9-3.42
	c5.01-2.65,10.41-4.55,15.04-7.93c1.15-0.84,2.49-1.47,3.8-2.05c2.16-0.95,4.4-1.73,6.57-2.68c5.76-2.51,11.47-5.14,17.26-7.57
	c2.74-1.15,5.62-1.97,8.45-2.88c5.19-1.68,10.35-3.51,15.62-4.91c5.54-1.48,11.2-1.49,16.84-0.18c1.28,0.3,2.69,0.5,3.97,0.29
	c4.67-0.76,9.38-1.37,13.86-3.02c2.13-0.78,4.23-1.64,6.4-2.27c6.99-2.04,12.39-6.38,17.15-11.66c0.47-0.53,0.94-1.17,1.11-1.84
	c0.75-3.1,1.58-6.2,2.02-9.35c0.66-4.67,1.03-9.34,0.77-14.12c-0.26-4.7-1.07-9.2-2.41-13.65c-0.82-2.73-1.62-3.29-4.4-3.42
	c-2.77-0.13-5.53-0.25-8.3-0.41c-4.73-0.28-9.46-0.66-14.19-0.83c-1.18-0.04-2.45,0.37-3.55,0.86c-2.35,1.06-4.6,2.33-6.9,3.48
	c-6.26,3.12-12.54,6.22-18.8,9.35c-2.21,1.1-4.56,2.02-6.55,3.44c-5.33,3.81-11.57,6.47-15.53,12.05c-0.12,0.17-0.3,0.29-0.45,0.43
	c-3.96,3.77-7.88,7.58-11.89,11.29c-0.95,0.88-2.13,1.55-3.27,2.2c-3.4,1.95-6.83,3.83-10.23,5.79c-0.89,0.51-1.78,1.15-1.58,2.42
	c0.5,3.17-1.42,4.62-3.91,5.9c-1.99,1.02-3.87,2.32-5.66,3.68c-1.78,1.36-3.33,3.03-5.08,4.44c-1.17,0.94-2,1.9-2.32,3.47
	c-0.41,2.01-1.1,3.98-1.89,5.87c-1.17,2.78-3.18,5.21-6.07,5.77c-2.32,0.45-3.61,1.78-5.05,3.16c-0.54,0.51-0.97,1.39-1.01,2.12
	C785.22,516.35,785.3,518.82,785.3,521.69z M465.33,475.48c0.38,0.14,0.65,0.3,0.94,0.34c5,0.64,10,1.35,15.02,1.87
	c6.66,0.69,13.34,1.23,20.01,1.82c7.49,0.66,14.99,1.3,22.48,1.98c1.75,0.16,3.48,0.49,5.23,0.6c4.74,0.29,9.49,0.33,14.21,0.78
	c10.56,1,21.01,0.17,31.42-1.54c4.14-0.68,8.38-0.98,12.24-2.95c1.46-0.74,3.01-1.45,4.6-1.75c5.16-0.97,10.04-3.05,15.35-3.55
	c4.85-0.45,9.25-2.78,13.73-4.58c6.59-2.65,13.08-5.57,19.66-8.25c4.3-1.75,8.68-3.3,12.55-5.93c0.55-0.37,1.02-0.87,1.56-1.33
	c-0.34-0.43-0.48-0.78-0.72-0.87c-5.75-2.26-11.49-4.54-17.27-6.69c-2.62-0.98-5.38-1.44-8.22-1.23c-2.98,0.22-5.95,0.54-8.93,0.6
	c-4.96,0.1-9.9,0.32-14.75,1.51c-0.4,0.1-0.8,0.17-1.21,0.22c-5.51,0.62-11.04,1.14-16.54,1.86c-3.99,0.52-7.92,1.74-11.91,1.87
	c-7.12,0.23-14.2,0.71-21.3,1.32c-6.16,0.53-12.37,0.48-18.56,0.72c-1.23,0.05-2.47,0.21-3.69,0.41c-3.05,0.49-6.09,1.09-9.15,1.53
	c-5.4,0.78-10.81,1.46-16.21,2.2c-3.47,0.47-6.92,1.17-10.4,1.41c-6.73,0.45-13.37-0.83-20.02-1.56c-3.47-0.38-6.87-1.36-10.3-2.05
	c-1.18-0.24-2.72-1.04-3.37,0.3c-0.44,0.89,0,2.38,0.38,3.48c1.04,3.02,2.15,6.01,2.39,9.24
	C464.72,469.91,465.03,472.56,465.33,475.48z M787.29,303.72c0.19,0.03,0.37,0.05,0.56,0.08c0.28-0.38,0.62-0.73,0.83-1.14
	c1.97-3.8,5.32-6.53,7.78-9.95c2.04-2.83,4.58-5.29,6.64-8.1c3.94-5.39,7.61-10.96,11.54-16.35c3.21-4.41,6.59-8.71,10-12.98
	c1.02-1.27,2.39-2.26,3.55-3.42c1.61-1.6,3.38-3.08,4.72-4.88c3.42-4.61,5.67-9.79,6.73-15.46c0.26-1.4,0.81-2.94,0.48-4.22
	c-1.07-4.08-2.47-8.07-3.78-12.08c-0.54-1.67-1.2-3.29-1.74-4.96c-0.88-2.74-1.72-5.49-2.57-8.24c-0.24-0.79-0.56-1.56-0.72-2.37
	c-1.56-7.66-3.13-15.31-4.62-22.98c-0.37-1.91-0.44-3.88-0.7-5.82c-0.75-5.72-1.49-11.44-2.3-17.15c-0.23-1.64-0.17-3.42-1.59-5.08
	c-0.96,1.19-1.88,2.14-2.59,3.23c-2.58,3.97-5.09,7.99-7.64,11.98c-4.93,7.72-9.89,15.42-14.81,23.15
	c-2.05,3.23-3.76,6.62-4.68,10.38c-0.78,3.2-1.58,6.39-2.45,9.57c-2.36,8.58-3.64,17.34-3.96,26.2c-0.27,7.43-0.11,14.87-0.08,22.31
	c0.01,1.64,0.27,3.28,0.42,4.92c0.48,5.55,1.06,11.09,1.38,16.64c0.2,3.5,0.07,7.03-0.03,10.54c-0.12,4.43-0.38,8.86-0.53,13.29
	C787.1,301.79,787.23,302.76,787.29,303.72z M877.56,270.02c-0.76,0.52-1.35,0.86-1.87,1.29c-1.91,1.57-3.78,3.2-5.71,4.75
	c-2.57,2.05-5.19,4.03-7.76,6.07c-1.36,1.08-2.63,2.29-4.01,3.35c-4.25,3.25-8.55,6.44-12.81,9.68c-0.49,0.37-0.82,0.94-1.3,1.32
	c-2.01,1.6-4.04,3.17-6.07,4.73c-3.67,2.82-7.4,5.58-11.01,8.47c-2.49,1.99-4.87,4.13-7.2,6.3c-2.71,2.54-5.49,5.04-7.93,7.83
	c-3.66,4.19-7.05,8.63-10.55,12.96c-2.07,2.56-4.44,4.93-6.13,7.72c-4.18,6.88-8.11,13.91-12,20.96c-0.82,1.49-1.46,3.28-1.51,4.95
	c-0.27,10.09-0.54,20.13-1.73,30.2c-1.09,9.22-3.92,17.68-8.29,25.69c-1.21,2.22-1.4,4.05-0.36,6.08c2.52,4.94,3.7,10.52,7.13,15.03
	c0.45,2.73,2.58,3.53,4.82,4.14c1.77,0.48,3.58,0.85,5.63,1.33c1.79-3.09,2.76-6.23,2.99-9.68c0.25-3.69,0.49-7.43,2.2-10.82
	c1.49-2.94,2.07-6.02,1.81-9.29c-0.1-1.23,0.04-2.49-0.05-3.72c-0.21-2.76,0.56-5.33,1.49-7.85c1.83-5.01,4.93-9.54,5.67-14.99
	c0.15-1.08,0.8-2.12,1.3-3.14c1.22-2.48,2.89-4.82,3.65-7.43c1.99-6.78,5.7-12.8,8.18-19.35c0.69-1.82,1.68-3.53,2.65-5.23
	c3.27-5.73,6.65-11.4,9.88-17.15c1.07-1.92,2.31-3.58,3.9-5.13c3.45-3.38,6.88-6.84,9.15-11.19c1.66-3.2,3.25-6.41,5.36-9.37
	c3.34-4.69,6.47-9.52,10.52-13.68c1.43-1.47,2.63-3.17,3.83-4.83c2.43-3.34,4.58-6.92,7.25-10.04c2.14-2.49,3.62-5.24,4.9-8.18
	c0.78-1.8,1.72-3.54,2.35-5.39C876.58,274.45,878.06,272.65,877.56,270.02z M472.67,335.54c1.84-0.19,3.36-0.5,4.87-0.47
	c2.36,0.05,4.72,0.44,7.08,0.47c4.96,0.08,9.93,0.04,14.89-0.01c1.33-0.01,2.67-0.41,3.99-0.32c4,0.28,8.02,0.56,11.99,1.14
	c4.02,0.59,8.18,0.67,11.87,2.8c0.86,0.5,1.95,0.6,2.94,0.86c3.76,1,7.53,1.98,11.29,2.99c0.59,0.16,1.14,0.46,1.73,0.6
	c3.21,0.75,6.42,1.47,9.63,2.19c2.3,0.51,4.6,0.87,7.25-0.2c-0.5-1.16-0.88-2.18-1.38-3.14c-0.57-1.09-1.26-2.12-1.91-3.17
	c-0.75-1.22-1.4-2.52-2.29-3.63c-4.38-5.44-9.12-10.56-13.37-16.13c-3.37-4.42-5.9-9.22-8.2-14.12c-1.47-3.13-3.25-5.88-5.34-8.53
	c-2.94-3.71-6-7.35-8.78-11.18c-3.54-4.87-7.74-9.11-12.05-13.25c-1.26-1.21-2.65-2.3-3.93-3.5c-2.08-1.96-4.58-3.12-7.25-4
	c-2.24-0.73-4.5-1.45-6.69-2.31c-2.02-0.79-3.95-1.79-5.93-2.67c-2.46-1.09-3.06-0.81-3.77,1.69c-0.25,0.89-0.57,1.76-0.86,2.64
	c-1.74,5.18-3.7,10.3-5.15,15.56c-1.7,6.19-1.42,12.66-1.99,19.01c-0.23,2.5,0.3,4.99,3.56,5.8c-0.43,1.06-0.82,1.87-1.09,2.73
	c-0.47,1.45-1.32,2.97-1.19,4.38c0.37,4.09-1.8,8.08-0.34,12.17c0.09,0.25-0.13,0.6-0.15,0.9c-0.09,2.48-0.24,4.96-0.19,7.43
	C471.92,333.35,472.38,334.4,472.67,335.54z M340.94,431.92c2.02,0.85,3.03,2.35,4.15,3.84c1.15,1.54,2.63,2.85,3.99,4.23
	c0.36,0.36,0.85,0.6,1.2,0.97c2.74,2.91,5.36,5.94,8.22,8.73c1.82,1.78,3.93,3.3,6,4.81c1.41,1.03,3.18,1.62,4.42,2.79
	c3.24,3.06,7.23,4.65,11.21,6.37c2.67,1.16,5.52,1.67,8.21,2.62c5.28,1.89,10.63,3.17,16.22,3.54c0.31,0.02,0.6,0.14,0.91,0.19
	c6.72,1.1,13.45,2.11,20.29,2.15c2.05,0.01,4.11,0.24,6.16,0.46c1.73,0.18,3.45,0.52,5.18,0.73c1.02,0.12,2.13-0.1,3.08,0.22
	c3.52,1.2,7.15,0.9,10.74,1.04c3.06,0.12,3.55-0.19,3.51-3.23c-0.06-4.38,0.28-8.65,1.79-12.78c0.07-0.19,0.1-0.4,0.12-0.61
	c0.54-4.21-1.33-6.78-5.54-7.7c-2.21-0.49-4.4-1.1-6.6-1.66c-5.2-1.31-10.42-2.54-15.59-3.95c-3.98-1.08-7.89-2.38-11.84-3.56
	c-3.16-0.94-6.38-1.69-9.46-2.83c-4.73-1.75-9.35-3.83-14.06-5.66c-7.23-2.81-13.84-6.88-20.77-10.29
	c-4.33-2.13-8.49-4.65-13.18-6.02c-1.27-0.37-2.44-1.09-3.62-1.7c-2.11-1.1-4.27-1.99-6.63-1.9c-1.82,2.32-3.35,4.6-3.53,7.52
	c-0.06,1.02-0.1,2.05-0.27,3.06c-0.11,0.68-0.23,1.53-0.69,1.95C342.64,426.99,342.06,429.4,340.94,431.92z M711.92,418.88
	c0.13-0.18,0.26-0.36,0.39-0.55c-1.06-1.37-1.9-3.04-3.24-4.05c-3.56-2.7-5.84-6.37-8.07-10.05c-1.8-2.95-3.28-6.1-4.79-9.22
	c-0.85-1.76-1.56-3.59-2.18-5.45c-1.45-4.39-3.07-8.74-4.69-13.04c-1.91-5.06-3.58-10.32-6.5-15.01c-1.46-2.35-2.45-5-3.53-7.57
	c-1.38-3.29-2.77-6.59-3.93-9.97c-1.84-5.35-3.32-10.83-5.26-16.15c-2.75-7.55-5.83-14.98-10.39-21.69c-1.21-1.78-2.41-3.68-3.1-5.7
	c-1.84-5.35-3.47-10.77-5.07-16.2c-0.72-2.44-1.16-4.97-1.75-7.46c-0.4-1.71-0.81-3.41-1.26-5.11c-0.27-1.02-0.64-2-2.06-1.97
	c-1.1,6.27-2.24,12.53-3.3,18.81c-0.5,2.94-0.94,5.9-1.22,8.87c-0.35,3.58-0.48,7.19-0.74,10.78c-0.38,5.44-0.97,10.87-1.14,16.31
	c-0.19,6.19-0.02,12.4,0,18.6c0,0.62,0,1.25,0.1,1.85c0.58,3.45,1.18,6.89,1.78,10.33c0.52,2.97,1.41,5.8,3.19,8.3
	c2.33,3.27,4.72,6.51,6.84,9.92c1.92,3.08,4.31,5.47,7.69,6.83c5.83,2.34,10.89,5.85,15.22,10.34c3.55,3.68,7.85,6.36,12,9.15
	c3.28,2.2,6.26,4.61,9.12,7.27c1.48,1.38,3.2,2.51,4.81,3.75c0.49,0.38,0.97,0.75,1.45,1.14c2.4,1.93,4.76,3.89,7.2,5.76
	C710.21,418.26,711.12,418.51,711.92,418.88z M574.96,355.84c0.21,0.65,0.26,1.21,0.54,1.57c2.16,2.73,4.35,5.43,6.59,8.1
	c0.52,0.61,1.34,0.97,1.86,1.58c1.6,1.84,3.07,3.79,4.67,5.62c3.61,4.14,7.99,7.4,12.44,10.55c1.93,1.37,3.92,2.67,6,3.78
	c2.7,1.45,5.52,2.65,8.26,4.01c0.91,0.45,1.69,1.21,2.62,1.61c3.97,1.74,7.75,3.74,11.4,6.11c7.52,4.88,15.32,9.33,22.93,14.08
	c5.62,3.51,11.78,5.69,17.98,7.81c4.48,1.53,9.02,2.92,13.1,5.44c0.85,0.53,1.8,1.11,2.93,0.36c-0.06-0.28-0.02-0.65-0.19-0.84
	c-1.39-1.66-2.78-3.32-4.24-4.92c-1.67-1.83-3.52-3.51-5.1-5.41c-3.1-3.72-5.93-7.67-9.13-11.3c-4.99-5.66-9.43-11.74-13.6-17.99
	c-3.49-5.23-8.58-7.81-14.1-9.93c-3.36-1.29-6.79-2.37-10.14-3.7c-2.57-1.02-5.04-2.3-7.59-3.4c-3.79-1.64-7.59-3.24-11.4-4.83
	c-2.09-0.87-4.15-1.82-6.29-2.53c-2.93-0.97-6.01-1.51-8.86-2.66c-4.17-1.68-8.51-2.46-12.88-3.16
	C580.26,355.41,577.71,355.3,574.96,355.84z M787.17,598.43c0.2,2.17,0.33,4.1,0.56,6.02c0.52,4.37,1.09,8.74,1.64,13.11
	c0.03,0.2,0.08,0.42,0.17,0.59c1.95,3.63,3.83,7.3,5.88,10.87c1.28,2.23,3.48,2.62,5.68,1.75c1.79-0.71,3.39-1.9,5.06-2.9
	c1.58-0.95,3.11-1.98,4.72-2.88c2.26-1.26,4.61-2.34,6.82-3.66c0.92-0.55,1.76-1.42,2.33-2.34c2.31-3.66,4.52-7.37,6.7-11.1
	c0.4-0.68,0.65-1.51,0.74-2.29c0.64-5.52,1.32-11.04,1.76-16.58c0.17-2.21,0.79-3.91,2.48-5.41c1.87-1.65,2.07-3.84,1.01-6.14
	c-0.34-0.74-0.55-1.55-0.87-2.31c-0.96-2.28-1.83-4.6-2.96-6.79c-1.32-2.56-2.76-5.08-4.35-7.48c-1.64-2.48-3.39-4.92-5.36-7.14
	c-1.42-1.6-3.6-1.35-4.42,0.42c-1.69,3.63-3.56,7.27-4.59,11.1c-1.92,7.16-3.5,14.35-7.09,20.99c-1.64,3.04-3.94,5.25-6.41,7.39
	c-0.83,0.72-1.4,1.28-1.66,2.38c-0.63,2.73-2.33,3.74-5.01,3.17C789.15,599.02,788.29,598.74,787.17,598.43z M515.16,148.49
	c0.53-1.24,1.03-2.12,1.3-3.08c0.93-3.35,1.81-6.72,2.66-10.09c0.93-3.69,1.52-7.48,2.77-11.05c1.47-4.22,2.33-8.52,2.95-12.91
	c0.72-5.2,1.53-10.38,2.25-15.58c0.68-4.88,1.23-9.67,3.95-14.1c1.84-2.99,2.55-6.68,3.72-10.07c1.6-4.65,3.13-9.34,4.76-13.98
	c0.95-2.72,2.04-5.38,3.08-8.07c0.85-2.21,1.81-4.38,2.55-6.63c0.79-2.4,0.42-3.42-1.97-4.41c-3.35-1.4-6.87-0.91-10.35-0.36
	c-0.28,0.04-0.56,0.28-0.76,0.51c-3.11,3.44-6.21,6.89-9.29,10.34c-0.2,0.22-0.3,0.54-0.45,0.81c-1.78,3.23-3.75,6.37-5.31,9.7
	c-1.96,4.19-3.91,8.44-5.27,12.85c-1.32,4.31-1.77,8.88-2.82,13.28c-1.45,6.08-1.28,12.26-1.21,18.41
	c0.06,5.45,0.53,10.9,0.76,16.36c0.23,5.28,1.42,10.39,2.59,15.51c0.64,2.8,1.31,5.58,2.05,8.36
	C513.47,145.59,513.29,147.18,515.16,148.49z M791.63,459.13c-0.57,1.69-1.18,3.1-1.49,4.57c-0.17,0.82-0.03,1.84,0.33,2.61
	c0.68,1.49,1.58,2.9,2.46,4.29c1.4,2.23,3,4.14,5.94,4.4c2.25,0.2,4.54,0.45,6.7,1.08c2.85,0.83,4.99-0.18,7.12-1.85
	c1.78-1.39,3.61-2.73,5.53-3.92c2.27-1.4,4.75-2.47,6.96-3.95c5.07-3.39,9.54-7.56,13.89-11.78c7.72-7.48,16.66-13.11,26.04-18.12
	c5.26-2.81,10.77-5.17,16.14-7.77c0.66-0.32,1.21-0.87,2.33-1.69c-1.64-0.35-2.61-0.71-3.6-0.75c-5.18-0.21-10.1-1.85-15.12-2.84
	c-5.19-1.03-10.19-1.28-15.28,0.16c-1.59,0.45-3.17,0.95-4.78,1.29c-7.2,1.49-13.59,4.75-19.46,9.07c-1.73,1.27-3.36,2.75-4.8,4.34
	c-2.55,2.81-5.68,5.09-7.47,8.59c-1.72,3.37-3.71,6.61-5.49,9.96c-0.42,0.78-0.55,1.75-0.66,2.65c-0.48,3.85-3.42,5.48-6.77,3.68
	c-0.72-0.39-1.39-0.88-2.12-1.27C796.13,460.87,794.3,459.71,791.63,459.13z M465.88,336.28c0.41-1.19,0.75-1.95,0.92-2.74
	c0.15-0.7,0.13-1.44,0.14-2.16c0.02-1.45,0.02-2.89,0.02-4.34c0.03-13.82-0.53-27.67,1.29-41.42c0.47-3.56,1.01-7.18,2.08-10.59
	c1.76-5.59,3.9-11.07,6.05-16.53c0.65-1.64,0.42-2.66-0.86-3.78c-2.57-2.24-5.11-4.51-7.53-6.9c-3.36-3.32-7.57-4.91-11.93-6.26
	c-1.3-0.4-1.96,0.06-2.17,1.42c-0.47,3.05-0.97,6.11-1.21,9.18c-0.34,4.22-0.54,8.45-0.64,12.67c-0.14,6.07-1.26,12.1-0.77,18.19
	c0.04,0.5-0.1,1.02-0.14,1.54c-0.27,3.26-0.53,6.53-0.79,9.8c-0.07,0.92-0.03,1.86-0.23,2.75c-0.83,3.68-0.69,7.36-0.18,11.06
	c0.18,1.32,0.22,2.68,0.18,4.02c-0.17,5.05-0.51,10.1-0.56,15.15c-0.02,2.35,0.43,4.72,0.77,7.06c0.16,1.1,0.77,1.89,2.07,1.88
	C456.82,336.27,461.26,336.28,465.88,336.28z M436.48,616.87c-0.2-1.07-0.24-1.66-0.42-2.19c-0.38-1.07-0.81-2.12-1.27-3.16
	c-1.99-4.45-2.42-9.63-6.16-13.28c-0.24-0.23-0.14-0.78-0.23-1.18c-0.14-0.6-0.17-1.28-0.49-1.76c-1.63-2.42-2.63-5.04-3.4-7.88
	c-1.23-4.55-2.94-8.97-4.47-13.44c-0.26-0.77-0.46-1.69-1-2.23c-1.56-1.56-1.52-3.43-0.97-5.2c0.94-3.04,2.11-6.02,3.34-8.95
	c1.71-4.05,3.61-8.02,5.35-12.06c0.81-1.88,0.63-2.65-1.16-3.95c-2.17-1.57-4.45-2.99-6.74-4.36c-1.32-0.79-2.68-0.39-3.85,0.86
	c-3.49,3.72-6.15,7.88-7.77,12.78c-1.02,3.1-2.53,6.07-4.94,8.41c-1.69,1.64-3.49,3.17-5.23,4.76c-3.84,3.5-8.19,6.1-13.2,7.58
	c-1.88,0.56-3.57,1.47-5.2,3.12c0.85,0.8,1.53,1.54,2.31,2.15c1.46,1.14,3.01,2.17,4.47,3.31c2.28,1.76,4.35,3.88,6.81,5.3
	c5.67,3.28,10.49,7.61,15.58,11.64c3.14,2.49,5.91,5.43,9.54,7.34c2.26,1.19,4.28,2.84,6.4,4.3c3.3,2.28,6.57,4.61,9.89,6.86
	C434.37,616.13,435.26,616.35,436.48,616.87z M644.25,242.32c0.13-2,0.31-3.74,0.34-5.49c0.09-5.46,0.24-10.92,0.13-16.38
	c-0.08-3.6-0.68-7.18-0.86-10.78c-0.21-4.13,0.03-8.28-0.35-12.39c-0.64-7.03-2.94-13.67-5.26-20.29
	c-2.25-6.42-4.37-12.88-6.57-19.32c-0.57-1.66-1.22-3.28-1.8-4.94c-1.84-5.25-3.55-10.54-5.52-15.74
	c-1.31-3.47-1.65-7.34-4.37-11.14c-0.16,6.49-0.42,12.26-0.41,18.02c0.01,5.26,0.41,10.51,0.5,15.77
	c0.12,6.71,0.04,13.42,1.16,20.07c1.27,7.62,2.33,15.28,4.83,22.64c1.55,4.57,2.47,9.33,5.1,13.54c1.96,3.13,3.49,6.53,5.15,9.84
	c1.05,2.11,1.97,4.29,2.99,6.41C640.88,235.45,642.51,238.75,644.25,242.32z M458.01,444.89c0.61-0.94,1.12-1.52,1.41-2.2
	c2.29-5.38,3.27-11.05,3.69-16.84c0.14-1.84,0.11-3.68,0.27-5.52c0.28-3.16,0.88-6.3,0.92-9.46c0.13-8.78,0.05-17.57,0.04-26.35
	c0-3.5,0.67-6.86,1.6-10.25c0.84-3.03,1.72-6.12,1.6-9.39c-0.18-5.06-0.07-10.13-0.16-15.19c-0.04-2.52-0.26-5.03-0.41-7.73
	c-5.1-0.17-10.21-0.35-15.55-0.53c-0.22,1.41-0.57,2.61-0.55,3.81c0.04,2.47,0.32,4.93,0.44,7.39c0.39,8.33,0.77,16.66,2.04,24.92
	c0.42,2.74,0.44,5.55,0.7,8.32c0.33,3.48,0.82,6.94,1.07,10.43c0.28,3.8,0.34,7.62,0.56,11.43c0.12,2.06,0.5,4.1,0.53,6.16
	c0.09,6.1,0.08,12.19,0.07,18.29C456.29,436.32,456.67,440.4,458.01,444.89z M780.72,500.09c0.26-0.02,0.52-0.03,0.79-0.05
	c0.41-1.1,1.07-2.17,1.19-3.3c0.5-5.01,0.84-10.04,1.25-15.07c0.15-1.85,0.36-3.69,0.55-5.53c0.41-3.95,0.51-7.78-2.05-11.25
	c-2.32-3.14-4.35-6.5-6.64-9.66c-0.62-0.86-1.63-1.54-2.6-2.04c-2.4-1.22-5.06-0.76-7.61-0.84c-2.18-0.07-2.5,0.11-2.87,2.37
	c-0.52,3.14-0.77,6.33-1.04,9.5c-0.29,3.38-0.16,6.82-0.79,10.12c-0.43,2.28,0.02,3.78,1.68,5.16c0.47,0.39,0.85,0.91,1.32,1.31
	c1.55,1.31,1.76,2.95,1.24,4.78c-0.19,0.67-0.49,1.32-0.82,2.19c1.94,2.03,3.77,4.13,5.79,6.02c1.95,1.82,4.08,3.55,6.75,4.15
	C778.39,498.28,779.78,498.64,780.72,500.09z M716.6,451.38c0,3.4-0.28,6.1,0.07,8.71c0.45,3.35,1.45,6.62,2.12,9.94
	c0.51,2.52,0.79,5.09,1.37,7.59c0.24,1.02,0.88,2.04,1.6,2.83c0.75,0.82,1.79,1.38,2.74,1.99c3.09,1.98,6.21,3.93,9.3,5.91
	c4.07,2.6,8.12,5.23,12.18,7.84c0.26,0.17,0.54,0.31,0.83,0.41c1.16,0.4,2.71-0.11,3.09-1.25c1.28-3.91,2.46-7.86,3.62-11.82
	c0.4-1.36-0.42-1.95-1.6-2.53c-2.11-1.04-4.21-2.17-6.08-3.59c-2.03-1.55-3.75-3.51-5.69-5.2c-1.08-0.94-2.44-1.57-3.49-2.55
	c-5.1-4.78-10.1-9.66-15.2-14.44C720.13,453.97,718.59,452.94,716.6,451.38z M712.47,439.03c-0.15,1.67,1.06,2.35,2.23,3
	c3.77,2.11,7.38,4.42,10.53,7.45c1.53,1.47,3.49,2.52,5.34,3.61c0.6,0.35,1.49,0.23,2.74,0.38c-0.61-1.73-1.14-2.94-1.46-4.2
	c-1.35-5.32-3.68-10.21-6.88-14.61c-2.36-3.23-5.17-6.14-9.01-7.71c-3.55-1.45-6.81-3.35-9.8-5.77c-4.08-3.3-8.29-6.45-12.38-9.75
	c-4.56-3.68-8.91-7.66-14.46-9.89c-0.46-0.18-0.85-0.57-1.22-0.92c-4.13-3.85-8.23-7.74-12.4-11.55c-0.92-0.84-2.08-1.55-3.78-0.98
	c1.08,1.45,2.06,2.64,2.88,3.92c3.93,6.08,8.53,11.61,13.72,16.65c2.22,2.15,4.29,4.46,6.44,6.68c0.43,0.44,0.92,0.82,1.41,1.19
	c4.17,3.17,8.56,6.04,12.41,9.64c2.17,2.03,4.54,3.89,7.06,5.47c2.5,1.57,5.29,2.69,7.96,3.98c1.06,0.51,1.97,1.1,1.91,2.77
	C714.6,438.62,713.54,438.83,712.47,439.03z M614.33,636.78c-0.26,1.29-0.54,2.57-0.76,3.86c-0.14,0.81-0.2,1.64-0.25,2.46
	c-0.05,0.82,0.01,1.66-0.09,2.48c-0.56,4.41-2.65,6.72-7.48,5.98c-3.05-0.47-3.9-1.34-3.72-4.38c0.02-0.41-0.01-0.82,0-1.24
	c0.11-2.81,0.79-5.28,3.85-6.31c0.38-0.13,0.79-0.31,1.06-0.59c0.77-0.82,1.13-1.93,0.46-2.81c-0.35-0.46-1.56-0.68-2.16-0.45
	c-2.29,0.87-4.56,1.86-6.71,3.03c-2.25,1.23-4.4,2.66-6.51,4.12c-1.97,1.37-3.59,2.93-3.87,5.63c-0.31,2.95-0.94,5.89-1.7,8.76
	c-0.48,1.81,0.13,3.07,1.36,4.11c0.92,0.78,2.01,1.54,3.15,1.87c2.06,0.59,4.21,1.15,6.33,1.21c5.47,0.15,10.95,0.08,16.43-0.02
	c1.42-0.03,2.85-0.41,4.25-0.74c1.36-0.32,2.07-1.32,2.2-2.68c0.09-0.92,0.01-1.86,0.04-2.79c0.07-2.58,0.13-5.15,0.25-7.73
	c0.1-2.05,0.41-4.11,0.38-6.16C620.77,641.64,617.39,637.73,614.33,636.78z M759.78,399.67c-0.89,0.93-1.42,1.5-1.97,2.06
	c-3.57,3.68-5.03,8.66-8.03,12.75c-4,5.44-6.15,12.08-10.58,17.32c-0.2,0.23-0.35,0.51-0.5,0.78c-1.06,1.98-0.8,2.73,1.25,3.54
	c1.05,0.41,2.2,0.65,3.16,1.21c2.47,1.46,4.79,3.2,7.31,4.56c2.07,1.11,4.31,1.96,6.55,2.68c1.58,0.51,2.36-0.29,2.87-1.86
	c1.22-3.81,2.59-7.57,3.85-11.37c0.22-0.65,0.42-1.41,0.32-2.06c-0.79-4.76-1.52-9.53-2.55-14.24
	C760.38,410.12,759.17,405.24,759.78,399.67z M714.69,475.88c0-1.26,0.14-2.05-0.02-2.79c-0.88-4.01-1.87-8-2.74-12.01
	c-0.28-1.3-0.4-2.65-0.47-3.98c-0.2-3.76-1.09-5.19-4.61-6.35c-2.73-0.9-5.56-1.55-8.37-2.18c-4.87-1.1-9.83-0.75-14.77-0.7
	c-3.17,0.03-6.06,1.12-9.04,1.89c-0.95,0.24-1.81,0.87-3.13,1.53c0.86,0.9,1.34,1.73,2.06,2.09c2.03,1,4.19,1.73,6.23,2.72
	c2.03,0.98,3.98,2.13,5.94,3.25c3.74,2.14,7.42,4.38,11.2,6.45c3.51,1.92,7.15,3.6,10.65,5.54
	C709.84,472.57,711.91,474.08,714.69,475.88z M758.48,489.14c-0.32,0.26-0.44,0.31-0.47,0.39c-1.16,3.19-2.43,6.34-3.39,9.59
	c-0.21,0.7,0.57,1.88,1.19,2.58c1.01,1.15,2.23,2.12,3.4,3.11c1.24,1.04,2.42,2.26,3.84,2.97c2.04,1.02,3.49,2.39,4.51,4.44
	c0.51,1.03,1.47,2.33,2.42,2.53c1.83,0.38,2.28,1.47,2.65,2.94c0.66,2.64,2.6,4.42,4.5,6.14c0.57,0.52,1.89,0.79,2.53,0.49
	c0.62-0.29,0.98-1.46,1.13-2.29c0.17-1,0.1-2.07-0.06-3.08c-0.61-3.88-0.52-7.76-0.14-11.92
	C771.33,503.51,764.71,496.5,758.48,489.14z M558.35,573.73c2.26,5.34,4.84,10.33,7.98,15.07c3.08,4.67,5.83,9.56,10.09,14.12
	c1.32-3.32,1.09-6.35,1.88-9.14c0.8-2.83,1.68-5.65,2.61-8.74c-0.05-0.07-0.23-0.44-0.47-0.76c-2.64-3.4-6.23-5.71-9.74-8
	C567.14,573.95,563.22,572.21,558.35,573.73z M776.7,376.2c-1.63,2.04-2.78,3.68-4.14,5.12c-1.4,1.48-2.13,3.21-2.68,5.11
	c-0.91,3.15-1.95,6.25-2.91,9.39c-1.71,5.61-1.92,11.26-0.6,17.01c0.53,2.29,0.62,4.67,0.95,7.01c0.08,0.57,0.31,1.11,0.58,2.05
	c0.75-0.88,1.41-1.4,1.73-2.07c2.58-5.42,4.46-11.12,5.55-16.99c0.88-4.74,1.01-9.61,1.48-14.43c0.09-0.92,0.19-1.84,0.28-2.76
	C777.22,382.72,777.38,379.8,776.7,376.2z M755.2,471.37c0.2-0.03,0.4-0.06,0.6-0.1c0.12-0.67,0.27-1.34,0.37-2.01
	c0.26-1.83,0.51-3.66,0.75-5.5c0.16-1.22,0.31-2.45,0.47-3.67c0.27-2.14,0.44-4.3,0.83-6.42c0.49-2.72,0.31-3.62-2.3-4.11
	c-3.68-0.7-6.62-2.82-9.84-4.41c-1.48-0.73-2.86-1.65-4.34-2.37c-0.76-0.37-1.64-0.51-2.56-0.78c-0.12,0.67-0.28,0.99-0.2,1.25
	c2,6.46,6.61,11.54,9.4,17.62C750.1,464.62,752.89,467.88,755.2,471.37z M728.1,492.49c0.58,3.06,0.65,5.53,1.53,7.67
	c1.78,4.35,3.65,8.73,6.73,12.4c0.42,0.5,1.09,1.02,1.71,1.1c2.5,0.34,4.57-0.86,5.85-2.75c1.29-1.9,1.96-4.23,2.86-6.3
	c-1.68-2.23-9.23-7.51-15.94-11.15C730.17,493.1,729.39,492.94,728.1,492.49z M581.88,578.16c-0.14,0.16-0.28,0.33-0.42,0.49
	c1.92,2.75,4.09,5.37,5.68,8.3c1.55,2.87,2.42,6.09,3.72,9.11c1.34,3.12-0.02,6.59,1.21,9.8c1.89-1.74,1.73-4.07,2.43-6.07
	c0.93-2.68,0.96-5.44,0.93-8.22c-0.02-2.67-1.1-4.8-3.16-6.4c-2.36-1.82-4.77-3.56-7.22-5.26
	C584.06,579.22,582.94,578.74,581.88,578.16z M788.68,476.91c-0.43,0.92-0.78,1.36-0.81,1.82c-0.11,1.44-0.07,2.88-0.13,4.33
	c-0.17,3.8-0.43,7.59-0.51,11.39c-0.03,1.35,0.34,2.71,0.63,4.75c1.4-1.52,2.27-2.49,3.16-3.45c1.56-1.67,2.07-3.58,2.07-5.89
	c0-3.83-1.93-7.13-2.49-10.79C790.49,478.42,789.58,477.89,788.68,476.91z M826.5,128.17c1.55,0.18,1.68-0.79,2-1.49
	c1.4-3.09,2.82-6.18,4.11-9.32c1.81-4.43,1.8-6.62-4.5-6.23c-0.19,0.01-0.37,0.16-0.8,0.36
	C826.22,116.94,825.63,122.53,826.5,128.17z M549.82,558.17c3.87,3.71,8.42,5.97,12.99,8.06c2.23-1.62,3.39-3.29,4.27-6.31
	C561.32,558.98,555.51,558.97,549.82,558.17z M770.38,447.98c-0.16-1.7-0.04-2.84-0.41-3.79c-0.92-2.37-2.07-4.65-3.24-7.22
	c-2.22,2.68-2.78,5.63-2.45,9.09C766.12,446.64,767.85,447.19,770.38,447.98z M919.21,424.79c-0.33-1.03-0.41-2.05-0.93-2.7
	c-0.51-0.64-1.56-1.39-2.23-1.27c-3.07,0.54-6.13,1.28-8.86,3.1C911.11,424.53,914.96,425.47,919.21,424.79z M803.62,451.74
	c-0.12-0.26-0.23-0.53-0.35-0.79c-2.48,0.48-4.96,0.96-7.43,1.46c-0.2,0.04-0.45,0.1-0.55,0.24c-0.22,0.31-0.53,0.7-0.5,1.02
	c0.03,0.32,0.4,0.77,0.71,0.85c0.98,0.28,2.02,0.34,3,0.61c1.35,0.38,2.44,0.05,3.31-1C802.44,453.36,803.02,452.54,803.62,451.74z
	 M777.14,356.3c-1.23,4.08-2.22,7.45-1.7,11.2C777.8,364.75,778.66,360.01,777.14,356.3z M447.93,562.67
	c0.11-1.24,0.36-2.42,0.27-3.58c-0.07-0.84-0.37-1.92-0.96-2.38c-0.52-0.4-1.6-0.08-2.41-0.08
	C444.71,560.26,445.4,561.58,447.93,562.67z M797.5,480.47c-0.8,2.19-0.04,3.25,1.68,4.16c0.71-1.16,2.43-1.14,2.67-2.83
	C800.73,480.34,799.07,481.01,797.5,480.47z M447.71,567.55c1.11-2.23,1.11-2.23,0.34-3.84c-0.89,0.46-1.78,0.92-2.62,1.35
	C445.3,567.67,445.3,567.67,447.71,567.55z M437.77,537.19c-3.02,2.44-3.14,3.5-0.76,4.79
	C438.62,540.73,438.57,539.21,437.77,537.19z"/>
<path d="M959.63,36.56c-3.85-0.63-7.69-1.25-11.54-1.9c-1.22-0.21-2.41-0.56-3.62-0.75c-0.89-0.14-1.81-0.08-2.71-0.21
	c-0.77-0.11-1.55-0.28-2.28-0.56c-0.46-0.17-0.78-0.73-1.24-0.85c-3.25-0.88-6.51-1.73-9.79-2.5c-3.14-0.73-6.36-0.93-9.46-2
	c-2.96-1.02-6.04-1.98-9.28-1.88c-0.29,0.01-0.63-0.08-0.88-0.24c-3.58-2.18-7.72-2.43-11.65-3.41c-3.2-0.8-6.38-1.66-9.54-2.6
	c-4.15-1.23-8.27-2.55-12.4-3.86c-3.63-1.15-7.19-2.57-10.87-3.46c-8.89-2.15-17.8-4.3-26.78-6c-5.75-1.09-11.65-1.4-17.49-2.04
	c-5.53-0.61-11.06-1.2-16.6-1.77c-2.05-0.21-4.15-0.13-6.14-0.58c-3.79-0.86-7.52-1.95-11.42-2.29c-1.02-0.09-2.05-0.19-3.06-0.36
	c-0.99-0.17-1.97-0.42-2.95-0.66c-0.29-0.07-0.56-0.35-0.84-0.36c-5.99-0.07-11.45-3.46-17.58-2.77c-1.17,0.13-2.42-0.39-3.62-0.68
	c-3.8-0.9-7.59-1.86-11.4-2.74c-0.79-0.18-1.63-0.21-2.46-0.23c-1.54-0.05-2.94-0.28-4.44-0.93c-2.03-0.88-4.4-0.96-6.61-1.47
	c-4.21-0.97-8.41-1.98-12.6-3.04c-1.37-0.35-2.68-0.91-4.02-1.38c81.09,0,162.18,0,243.27,0C959.63,2.22,959.63,19.39,959.63,36.56z
	"/>
<path d="M583.57,773.77c3.09-0.62,6.18-1.22,9.26-1.87c1.08-0.23,2.13-0.59,3.21-0.85c2.19-0.53,4.37-1.25,6.6-1.5
	c3.47-0.4,6.98-0.6,10.47-0.66c5.36-0.09,10.68-0.66,16.01-1.11c4.83-0.41,9.71-0.22,14.57-0.2c4.85,0.01,9.69,0.02,14.45-1.1
	c0.4-0.09,0.85-0.15,1.23-0.05c2.23,0.6,4.46,0.26,6.7,0.16c4.94-0.21,9.89-0.33,14.84-0.48c4.31-0.13,8.61-0.34,12.92-0.35
	c2.46-0.01,4.92,0.38,7.38,0.48c2.35,0.09,4.7-0.04,7.05,0.06c2.13,0.09,4.17,0.14,6.33-0.36c2.36-0.54,4.93-0.13,7.41-0.23
	c7.31-0.3,14.61-0.9,21.92-0.87c3.64,0.01,7.29-0.21,10.98,0.06c5.62,0.41,11.32,0.61,16.98-0.29c2.38-0.38,4.87-0.06,7.41,0.43
	c-0.51,0.2-1.01,0.44-1.54,0.57c-0.39,0.09-0.82,0.02-1.24,0.03c-5.97,0.23-11.95,0.43-17.92,0.71c-1.53,0.07-3.05,0.5-4.58,0.6
	c-6.57,0.44-13.16,0.78-19.73,1.24c-4.92,0.34-9.83,0.82-14.75,1.2c-2.97,0.23-5.95,0.43-8.93,0.62c-7.7,0.48-15.42,0.54-23.08,1.72
	c-3.35,0.51-6.78,0.51-10.17,0.68c-5.46,0.27-10.92,0.47-16.38,0.76c-0.78,0.04-1.53,0.39-2.3,0.59
	C633.63,773.77,608.6,773.77,583.57,773.77z"/>
<path d="M680.12,653.06c-5.04-0.58-5.36-1.03-4.85-5.87c0.45-4.22,2.03-7.93,4.79-11.14c0.4-0.46,0.85-1.14,1.35-1.21
	c2.8-0.39,5.36-2.05,8.35-1.55c1.21,0.2,2.47,0.14,3.7,0.17c2.13,0.06,3.65-0.74,4.85-2.65c1.85-2.95,3.34-2.99,5.93-0.49
	c2.26,2.18,4.02,4.7,4.66,7.86c0.08,0.4,0.02,0.94,0.26,1.19c2.14,2.25,1.21,4.87,0.76,7.32c-0.46,2.48-0.46,4.88-0.07,7.36
	c0.15,0.96,0.06,2.06-0.24,2.98c-0.77,2.33-1.91,4.55-2.56,6.91c-1.09,3.95-3.71,5.74-7.58,6.06c-2.98,0.24-5.96,0.6-8.93,0.59
	c-1.11,0-2.29-0.76-3.31-1.38c-2.08-1.27-4-2.79-6.1-4.01c-2.13-1.24-2.98-2.92-2.34-5.4c0.46-1.79,0.98-3.57,1.43-5.37
	C680.31,654.05,680.17,653.62,680.12,653.06z M690.32,644.36c0.61,3.04-1.1,5.26-2.26,7.59c-0.99,2-1.51,4.04-1.69,6.2
	c-0.06,0.77-0.03,1.88,0.44,2.28c1.53,1.31,2.91,2.79,4.94,3.56c2.24,0.85,4.28-0.28,6.4-0.08c2.14,0.2,3.55-1.06,4.1-2.66
	c0.68-1.97,0.63-4.19,0.84-6.3c0.02-0.21-0.36-0.45-0.53-0.66c-3.31,0.45-6.04-0.96-7.02-3.57c-0.5-1.33-1.12-2.63-1.53-3.99
	C693.51,645.13,692.51,644.36,690.32,644.36z M687.68,643.38c-0.87-1.5-0.96-3.21-2.7-4.21c-0.89,1.6-1.73,2.98-2.42,4.44
	c-0.15,0.32,0.11,0.97,0.38,1.3c0.17,0.21,0.77,0.24,1.09,0.12C685.15,644.59,686.24,644.05,687.68,643.38z"/>
<path d="M662.79,717.85c0.32,1.9,0.82,3.32,0.73,4.71c-0.21,3.05-2.38,4.74-4.97,5.74c-1.68,0.65-3.45,0.92-5.42,0.37
	c-3.8-1.06-7.72-0.84-11.65-0.44c-3.36,0.34-6.77,0.23-10.15,0.2c-1.66-0.02-2.77-1.05-2.88-2.29c-0.14-1.61,1.09-3.5,2.58-3.78
	c0.91-0.17,1.86-0.23,2.78-0.17c3.27,0.23,6.56-0.04,9.8-0.17c3.33-0.14,7.13,0.34,9.89-2.57c0.32-0.34,0.92-0.51,1.41-0.58
	C657.41,718.5,659.94,718.21,662.79,717.85z"/>
</svg>
