<?xml version="1.0" encoding="utf-8"?>
<!-- Generator: Adobe Illustrator 24.1.0, SVG Export Plug-In . SVG Version: 6.00 Build 0)  -->
<svg version="1.1" id="Layer_1" xmlns="http://www.w3.org/2000/svg" xmlns:xlink="http://www.w3.org/1999/xlink" x="0px" y="0px"
	 viewBox="0 0 1224 792" style="enable-background:new 0 0 1224 792;" xml:space="preserve">
<g>
	<path d="M661.87,0.51c1.63,0.86,3.19,1.9,4.89,2.55c5.6,2.13,10.21,5.53,13.88,10.25c0.61,0.78,1.35,1.45,1.96,2.23
		c2.01,2.59,4.11,5.12,5.94,7.83c2.82,4.19,5.48,8.48,8.11,12.79c1.66,2.72,2.93,5.68,4.73,8.29c4.84,7.03,8.82,14.73,14.94,20.8
		c4.42,4.39,8.78,8.85,14.07,12.34c5.3,3.48,10.37,7.37,15.25,11.43c3.8,3.16,6.81,7.17,8.98,11.65c1.91,3.94,4.13,7.86,5.16,12.05
		c1.59,6.47,2.52,13.09,2.1,19.9c-0.44,7.14-0.77,14.28-2.27,21.29c-1.7,7.92-3.84,15.76-5.31,23.72
		c-1.78,9.61-3.25,19.29-4.47,28.98c-0.97,7.73-1.6,15.53-1.94,23.31c-0.36,8.02-0.47,16.07-0.16,24.09
		c0.27,7.01,1.22,13.99,1.94,20.98c0.62,6.01,1.24,12.01,2.03,18c0.37,2.82,1.3,5.57,1.71,8.39c0.36,2.46,0.36,4.97,0.49,7.46
		c0.22,4.38,0.35,8.77,0.65,13.15c0.27,3.81,0.68,7.61,1.12,11.4c0.19,1.63,0.45,3.28,0.95,4.83c0.81,2.49,2.37,2.78,4.1,0.91
		c5.35-5.79,10.76-11.52,15.97-17.43c0.96-1.09,1.07-2.93,1.66-4.69c1.8,0.87,3.04,0.37,4.1-1.78c0.75-1.51,2.66-2.41,3.93-3.7
		c0.91-0.93,1.61-2.05,2.4-3.1c0.26-0.35,0.43-0.84,0.77-1.05c2.48-1.5,5.1-2.8,7.48-4.45c1.75-1.22,3.24-2.83,4.74-4.36
		c0.21-0.21-0.16-0.99-0.23-1.39c3.1-1.12,6.01-2.36,9.05-3.18c1.65-0.44,3.49-0.2,5.25-0.2c5.26-0.02,10.52-0.01,15.78-0.01
		c5.72,0,11.44-0.08,17.15,0.04c1.81,0.04,3.61,0.73,5.43,0.85c3.5,0.23,7.02,0.28,10.53,0.37c5.37,0.14,10.75,0.07,16.11,0.45
		c1.98,0.14,3.9,1.27,5.82,2.03c4.31,1.71,7.33,5.11,10.44,8.32c1.03,1.06,1.99,2.47,2.33,3.88c1.72,7.03,3.33,14.08,2.9,21.42
		c-0.09,1.5,0.42,3.03,0.57,4.56c0.17,1.73,0.22,3.46,0.35,5.19c0.08,0.97,0.12,1.97,0.36,2.91c0.91,3.47,1.94,6.91,2.84,10.39
		c0.88,3.39,1.66,6.8,2.47,10.2c1.24,5.21,2.73,10.38,3.62,15.65c1.14,6.78,2.1,13.51,0.7,20.54c-1.05,5.26-3.1,10.06-6.23,13.88
		c-3.16,3.85-5.79,8.01-8.54,12.05c-3.84,5.65-7.5,11.49-9.77,18.12c-0.9,2.62-2.36,5.08-2.99,7.85c-0.92,4.01-3.84,7.37-3.55,11.83
		c0.08,1.32-1.06,2.71-1.65,4.08c-0.17,0.39-0.53,0.81-0.48,1.17c0.56,4.35-1.72,8-2.84,11.94c-0.83,2.94-1.31,5.98-1.93,8.98
		c-0.09,0.43,0.04,0.93-0.14,1.3c-3.12,6.36-2.84,13.38-4.07,20.11c-0.59,3.26-0.93,6.42-0.94,9.75c0,3.42-1.34,6.84-2.02,10.27
		c-0.72,3.64-2.06,7.21-1.01,11.04c0.19,0.68-0.1,1.52-0.27,2.25c-0.83,3.51-1.75,7-2.53,10.53c-0.91,4.14-1.72,8.3-2.56,12.45
		c-1.09,5.36-2.48,10.68-3.16,16.1c-0.49,3.86-0.32,7.88,0.1,11.77c0.48,4.4-1.39,6.47-5.78,5.9c-4.68-0.61-9.39-0.93-14.08-1.47
		c-2.05-0.24-4.1-0.62-6.1-1.14c-6.95-1.8-13.99-1.03-21.01-0.87c-2.62,0.06-5.24,0.14-7.84,0.45c-3.48,0.41-6.97,0.86-10.38,1.64
		c-8.76,2-17.49,2.77-26.39,0.8c-3.07-0.68-6.3-0.63-9.74-0.93c0.84,1.4,3.25,2.34,0.93,4.2c-0.34,0.27-0.05,1.44,0.07,2.17
		c0.91,5.75,1.57,11.56,2.9,17.21c0.79,3.37,0.44,7.07,2.59,10.12c0.32,0.46,0.32,1.3,0.18,1.9c-0.72,3.1-0.3,6.03,0.61,9.07
		c0.84,2.82,0.93,5.85,1.61,8.72c1.21,5.11,2.52,10.18,4.45,15.11c0.87,2.22,0.66,4.92,0.7,7.4c0.11,7.1,0.09,14.21,0.16,21.31
		c0.01,0.75,0.09,1.61,0.46,2.23c0.84,1.41,0.86,2.64-0.12,3.97c-0.29,0.4-0.27,1.05-0.35,1.59c-0.47,3.34-0.89,6.68-1.4,10.01
		c-0.22,1.42-2.59,3.43-4.17,3.43c-1.94-0.01-3.19,0.86-3.61,2.65c-0.42,1.8-1.85,2.55-3,3.72c-2.55,2.58-5.96,3.75-8.75,5.91
		c-1.34,1.04-3.04,1.61-4.85,2.54c0.06,0.33,0.18,1.01,0.29,1.66c-0.26,0.18-0.45,0.43-0.6,0.41c-1.61-0.21-3,0.1-4.23,1.29
		c-1.1,1.06-2.35,1.98-3.52,2.96c-1.75,1.47-3.39,2.68-6.06,2.36c-1.81-0.22-3.85,0.71-5.66,1.44c-2.7,1.09-5.19,3.06-7.96,3.5
		c-1.73,0.27-3.49,0.81-5.29,0.88c-2.67,0.11-4.73,1.51-6.75,3.1c0.33,0.61,0.57,1.05,0.81,1.48c-0.2,0.17-0.35,0.42-0.51,0.43
		c-2.62,0.16-5.25,0.21-7.86,0.44c-1.18,0.11-2.4,0.42-3.49,0.89c-3.51,1.5-6.96,3.11-10.67,4.78c0.12,0.49,0.29,1.18,0.51,2.09
		c-1.71,1.34-3.63,1.52-6.55,0.8c1.78-1.09,3-1.84,4.53-2.77c-0.73-0.29-1.26-0.7-1.75-0.66c-2.73,0.22-5.47,0.41-8.16,0.87
		c-5.94,1.02-11.8,2.53-17.91,2.49c-2.15-0.01-4.3,0.66-6.46,0.91c-1.52,0.18-3.05,0.22-4.58,0.27c-2.17,0.07-4.35-0.02-6.5,0.15
		c-4.26,0.35-8.52,0.81-12.77,1.26c-1.29,0.14-2.58,0.36-3.86,0.55c-0.1,0.02-0.22,0.17-0.29,0.14c-3.61-1.36-6.98,1.28-10.46,0.68
		c-1.9-0.33-3.9-0.18-5.54-0.55c-1.84-0.41-3.76-0.71-5.63-1.03c-2.92-0.5-5.89-0.68-8.81-1.22c-2.46-0.45-4.87-1.21-7.3-1.84
		c-2.86-0.75-5.69-1.7-8.6-2.18c-1.8-0.3-3.47-0.55-4.71-1.97c-0.82-0.94-1.62-1-2.88-0.78c-1.39,0.23-3.08-0.05-4.36-0.68
		c-3.95-1.96-7.73-4.28-11.66-6.27c-1.75-0.88-3.72-1.32-5.59-1.94c-0.93-0.31-1.96-0.45-2.81-0.91c-5.18-2.78-10.31-5.68-15.5-8.44
		c-1.53-0.81-3.21-1.38-4.88-1.87c-2.18-0.65-4.28-1.25-5.47-3.49c-0.33-0.63-1.09-1.34-1.75-1.44c-3.95-0.6-5.84-4.49-9.37-5.72
		c-1.01-0.35-1.96-0.87-2.93-1.33c-0.96-0.46-2.04-0.79-2.84-1.45c-2.87-2.38-5.55-4.92-9.33-5.99c-1.66-0.47-3.04-1.91-4.55-2.9
		c-2.67-1.76-5.35-3.52-8.02-5.29c-0.73-0.49-1.41-1.06-2.16-1.51c-7.4-4.45-14.78-8.92-22.24-13.27c-1.03-0.6-2.45-0.53-3.69-0.79
		c-0.83-0.18-2.02-0.13-2.41-0.65c-1.15-1.52-3.05-1.34-4.23-2.11c-3.92-2.55-9.04-2.81-12.27-6.53c-0.63-0.72-1.14-1.55-1.69-2.33
		c-0.48-0.69-0.9-1.42-1.42-2.08c-0.94-1.17-1.8-2.14-1.58-3.98c0.25-2.09-0.29-4.28-0.56-6.41c-0.42-3.27-0.61-6.43,0.47-9.73
		c1.53-4.65,2.49-9.48,3.76-14.22c0.25-0.94,0.66-1.86,1.15-2.71c1.3-2.27,2.62-4.54,4.04-6.74c1.15-1.77,2.15-3.5,2.22-5.74
		c0.03-0.81,1.14-1.59,1.96-2.65c-2.48-1.51-5.05-3.51-8.5-4.5c-3.05-0.87-5.69-3.13-8.53-4.75c-1.61-0.91-3.22-1.8-4.89-2.61
		c-2.44-1.18-4.84-2.53-7.41-3.33c-5.35-1.67-10.01-4.72-14.96-7.18c-2.98-1.48-5.56-3.75-8.34-5.63c-0.54-0.36-1.13-0.77-1.75-0.87
		c-1.68-0.29-2.44-1.53-3.52-2.67c-2.2-2.31-3.92-5.07-6.87-6.75c-1.9-1.08-3.27-3.09-4.87-4.7c-0.61-0.62-1.13-1.34-1.79-1.89
		c-2.83-2.38-5.79-4.61-8.54-7.09c-1.78-1.61-3.17-3.65-4.92-5.3c-8.3-7.82-16.72-15.5-24.99-23.35c-5.64-5.36-11.02-11-16.67-16.35
		c-2.37-2.24-5.22-3.97-7.72-6.08c-1.98-1.67-3.72-3.63-5.66-5.35c-3.35-2.97-6.62-6.06-10.19-8.74
		c-5.52-4.15-11.09-8.21-16.15-12.94c-3.91-3.66-8.12-7-12.22-10.45c-1-0.84-2.12-1.54-3.15-2.34c-9-7.06-17.7-14.5-24.42-23.81
		c-2.7-3.75-4.68-8.25-6.04-12.69c-1.75-5.75-2.81-11.74-3.67-17.71c-0.87-6.08-1.24-12.23-1.64-18.37
		c-0.5-7.68-0.93-15.36-1.14-23.05c-0.11-3.94,0.18-7.91,0.55-11.85c0.53-5.78,1.17-11.56,1.99-17.31
		c1.54-10.84,7.04-19.1,16.31-25.02c5.15-3.29,11.04-4.18,16.69-5.86c9.54-2.83,19.36-4.24,29.27-4.37
		c10.55-0.14,21.25-0.22,31.15,4.09c5.2,2.26,9.98,5.53,14.85,8.5c2.43,1.48,4.8,3.13,6.91,5.02c3.83,3.44,7.43,7.13,11.14,10.7
		c0.93,0.9,1.93,1.73,3.39,3.03c0-1.91,0.15-3.27-0.02-4.59c-1.44-10.67-2.85-21.35-4.44-32c-1.11-7.41-2.38-14.82-1.88-22.32
		c0.64-9.52,2.1-18.86,9.27-26.13c0.53-0.54,0.83-1.29,1.29-1.91c1.15-1.56,2.27-1.83,3.61-0.9c1.51,1.04,1.93,2.47,1.03,4
		c-0.38,0.65-0.92,1.26-1.53,1.69c-2.5,1.79-3.74,4.31-5.1,7.03c-3,5.99-2.58,12.38-3.2,18.67c-0.11,1.1,0.32,2.25,0.6,4.02
		c1.68-1.15,2.8-1.94,3.94-2.7c2.15-1.43,3.88-1.14,4.74,1.31c1.85,5.25,4.2,10.41,4.53,16.08c0.2,3.49,0.18,6.99,0.24,10.48
		c0.01,0.54,0.1,1.18-0.15,1.6c-1.48,2.43-0.55,4.62,0.46,6.88c0.3,0.68,0.46,2.1,0.18,2.26c-2.36,1.28-1.6,3.44-1.55,5.26
		c0.26,9.37,1.98,18.56,3.73,27.74c0.43,2.26,0.75,4.55,1.26,6.8c0.53,2.33,1.44,4.41,2.76,6.54c1.81,2.9,2.48,6.5,3.64,9.81
		c2.06,5.9,4.45,11.65,7.64,17.04c0.81,1.37,1.58,2.77,2.75,4.84c0.57-3.14,1.17-5.48,1.38-7.85c0.55-6.23,1.01-12.48,1.34-18.73
		c0.17-3.19-0.23-3.6-3.26-4.3c-2.35-0.55-4.75-0.95-7.14-1.29c-1.34-0.19-2.35-0.67-2.63-2.06c-0.28-1.42-0.51-2.96,0.95-3.89
		c3.3-2.1,6.26-4.8,10.49-5.14c2.23-0.18,2.81-1.29,2.82-4c0.05-8.8,0.05-17.6,0.19-26.4c0.1-5.7,0.36-11.4,0.66-17.1
		c0.23-4.47-0.34-8.66-2.56-12.69c-4.5-8.18-6.1-17.35-8.5-26.23c-0.79-2.93-0.71-6.09-1.12-9.13c-0.21-1.49-0.63-2.95-0.99-4.42
		c-0.6-2.5-1.7-4.89,0.24-7.45c0.77-1.01,0.59-2.75,0.81-4.16c0.55-3.58,0.86-7.22,1.7-10.73c0.66-2.74,1.7-5.46,3.05-7.94
		c1.82-3.36,4.09-6.48,6.17-9.7c1.02-1.57,2.35-2.4,4.36-2.45c4.12-0.1,7.1-2.54,8.95-5.87c3.43-6.19,7.62-11.81,12.11-17.2
		c4.03-4.84,8.34-9.46,12.76-13.97c1.9-1.94,3.43-4.23,5.16-6.35c0.55-0.67,1.15-1.3,1.75-1.93c2.39-2.56,4.9-5.01,7.17-7.68
		c3.41-4,6.66-8.14,9.95-12.24c3.29-4.09,6.5-8.25,9.83-12.3c2.22-2.69,4.64-5.21,6.9-7.86c3.27-3.84,6.39-7.82,9.75-11.6
		c4.59-5.17,9.32-10.2,14.01-15.28c6.19-6.69,12.37-13.38,18.6-20.04c1.56-1.67,3.3-3.18,4.94-4.78
		c6.78-6.58,13.54-13.18,20.35-19.74c2.45-2.36,5-4.63,7.54-6.9c8.52-7.6,16.96-15.3,25.61-22.74c8.82-7.58,17.81-14.96,26.83-22.3
		c2.37-1.93,5.16-3.34,7.7-5.07c7.28-4.96,15.09-8.98,22.94-12.94c1.95-0.98,4.12-1.53,6.16-2.36c1.41-0.57,2.75-1.29,4.13-1.95
		C645.58,0.51,653.73,0.51,661.87,0.51z M444.55,502.5c1.12-1.58,0.29-2.89-0.55-4.23c-2.68-4.27-5.24-8.62-8.03-12.81
		c-2.24-3.36-4.6-6.66-7.18-9.76c-1.4-1.68-3.38-2.88-5.34-4.49c-0.43,0.97-0.83,1.46-0.81,1.93c0.07,1.6,0.24,3.21,0.47,4.8
		c0.07,0.5,0.39,1.02,0.73,1.42c1.57,1.84,3.13,3.68,4.79,5.43c0.88,0.93,2.06,1.58,2.9,2.54c4.4,5.02,8.73,10.09,13.08,15.15
		c0.43,4.28,4.26,7.36,4.13,11.87c-0.02,0.75,0.78,1.53,1.21,2.29c0.93,1.61,2.09,3.13,2.75,4.84c1.09,2.86,1.95,5.75,3.97,8.2
		c1.07,1.3,1.91,2.9,2.43,4.5c1.11,3.43,3.52,5.32,6.67,6.65c1-1.64,0.18-2.9-0.46-4.15c-1.24-2.44-2.48-4.88-3.78-7.28
		c-2.39-4.39-4.84-8.75-7.23-13.14c-1.45-2.66-2.64-5.47-4.29-7.99C448.57,506.05,447.6,503.24,444.55,502.5z M355.48,485.26
		c-1.14,1.74-0.35,3.51,0.24,5.07c2.07,5.53,4.28,11.01,6.62,16.44c0.85,1.97,2.1,3.78,3.34,5.55c1.06,1.52,2.33,2.9,3.57,4.28
		c2.2,2.43,4.38,4.87,6.7,7.18c2.48,2.46,5.09,4.78,7.68,7.12c2.9,2.62,5.73,5.34,8.79,7.76c2.99,2.37,6.21,4.46,9.37,6.61
		c1.12,0.76,2.39,1.32,3.59,1.97c0.19-0.22,0.37-0.45,0.56-0.67c-1.73-2.05-3.35-4.19-5.21-6.11c-2.12-2.19-4.57-4.05-6.66-6.27
		c-6.54-6.92-12.98-13.94-19.46-20.92c-1.47-1.58-3.07-3.07-4.37-4.78c-2.48-3.27-4.76-6.68-7.18-10c-0.69-0.95-1.8-1.64-2.34-2.65
		c-1.85-3.47-3.54-7.03-5.29-10.56c-0.69-2.52-1.77-5-1.98-7.55c-0.47-5.91-0.58-11.84-0.72-17.77c-0.13-5.27,0.28-10.45,2.3-15.45
		c1.78-4.41,3.41-8.99,6.99-12.18c3.05-2.71,6.72-4.72,10.33-7.18c0.05,0.19,0-0.12-0.11-0.41c-1.85-4.55-3.76-9.08-5.56-13.65
		c-1.36-3.44-2.82-6.87-3.82-10.42c-1.39-4.96-2.37-10.04-3.57-15.06c-0.46-1.91-2.4-2.69-4.03-1.62c-0.53,0.35-0.86,1.03-1.41,1.33
		c-6.14,3.43-11.75,7.48-16.61,12.65c-3.12,3.31-4.22,6.81-3.2,11.1c0.89,3.73,1.96,7.42,2.69,11.18c0.78,3.96,1.16,7.99,1.88,11.96
		c1.63,8.96,3.26,17.92,5.09,26.84c0.84,4.06,1.71,8.23,3.42,11.96c1.49,3.27,3.15,6.44,4.39,9.84
		C352.21,482.71,352.9,484.95,355.48,485.26z M738.8,367.79c1.08-1.43,1.98-2.5,2.75-3.66c2.94-4.47,5.29-9.32,9.15-13.19
		c0.96-0.97,1.56-2.82,1.47-4.21c-0.22-3.36-1.01-6.68-1.45-10.03c-0.72-5.43-1.6-10.86-1.96-16.33c-0.62-9.2-0.18-18.45-1.7-27.62
		c-0.84-5.08-1.09-10.26-1.63-15.4c-0.77-7.42-2.07-14.83-2.21-22.27c-0.21-11.98,0.27-23.97,0.63-35.95
		c0.11-3.72,0.69-7.43,1.18-11.13c0.58-4.35,1.25-8.69,1.98-13.01c1.4-8.33,2.77-16.66,4.33-24.96c1.64-8.72,3.86-17.35,5.18-26.12
		c1.69-11.24,2.07-22.49-1.77-33.55c-3.22-9.25-8.76-16.7-16.6-22.37c-8.27-5.99-16.9-11.55-23.76-19.24
		c-3.8-4.25-7.54-8.64-10.66-13.39c-4.76-7.24-8.92-14.87-13.44-22.26c-1.13-1.86-2.71-3.44-4-5.21c-2.71-3.72-5.19-7.62-8.09-11.18
		c-2.06-2.53-4.37-5.1-7.1-6.8c-3.3-2.06-7.13-3.31-10.79-4.73c-1.73-0.67-3.59-1.13-5.44-1.33c-9.43-0.97-18.54,0.72-26.85,5.02
		c-9.71,5.02-19.55,9.95-27.97,17.15c-5.06,4.32-10.45,8.26-15.53,12.55c-9.05,7.64-18.01,15.38-26.96,23.15
		c-4.79,4.16-9.5,8.4-14.17,12.69c-2.9,2.67-5.67,5.48-8.46,8.27c-2.87,2.86-5.67,5.79-8.56,8.62c-4.84,4.75-9.82,9.37-14.55,14.22
		c-3.22,3.29-6.09,6.92-9.18,10.34c-2.49,2.75-5.06,5.43-7.62,8.12c-1.36,1.43-2.85,2.73-4.13,4.21c-2.71,3.12-5.3,6.35-7.99,9.5
		c-3.92,4.58-7.99,9.03-11.8,13.69c-4.92,6.03-9.59,12.28-14.49,18.32c-4.13,5.09-8.43,10.01-12.43,15.22
		c-3.89,5.07-7.69,10.31-12.42,14.83c-5.46,5.2-10.09,11.27-15.02,17.02c-1.63,1.91-2.95,4.09-4.63,5.95
		c-3.04,3.37-4.88,7.09-5.29,11.72c-0.33,3.75-0.31,7.41-0.07,11.15c0.53,8.33,0.68,16.68,0.98,25.03c0.09,2.41,0.08,4.83,0.23,7.23
		c0.3,5.05,0.71,10.08,1,15.13c0.55,9.43,1.03,18.86,1.56,28.29c0.34,6.02,0.69,12.05,1.09,18.07c0.37,5.59,0.74,11.19,1.24,16.77
		c0.59,6.44,1.68,12.86,1.87,19.31c0.12,4.26,2.29,6.35,5.58,8.01c0.69,0.35,1.43,0.56,2.14,0.87c7.52,3.29,15.4,5.75,22.39,10.24
		c4.51,2.9,9.21,5.5,13.71,8.43c4.96,3.23,9.8,6.64,14.64,10.04c1.6,1.13,3.03,2.5,4.59,3.7c4.61,3.53,9.24,7.02,13.88,10.51
		c0.25,0.19,0.6,0.31,0.92,0.35c2.97,0.36,5,2.39,6.79,4.37c4.32,4.8,9.79,8.13,14.88,11.9c3.42,2.53,7.07,4.67,9.91,7.95
		c2,2.32,4.23,4.44,6.39,6.62c4.08,4.12,8.2,8.21,12.26,12.36c0.42,0.43,0.81,1.15,0.78,1.72c-0.19,3.47,1.47,6.12,3.6,8.58
		c1.73,1.99,1.95,4.23,1.71,6.79c-0.29,3.03-0.4,6.13-0.07,9.14c0.55,4.9,1.69,9.74,2.26,14.64c0.51,4.44,2.02,8.18,5.4,11.24
		c8.68,7.87,17.15,15.99,27.12,22.29c2.85,1.81,5.75,3.6,8.35,5.74c4.56,3.74,9.95,5.48,15.48,6.89c3.33,0.84,6.4,0.6,8.76-2.64
		c1.22-1.67,2.96-2.89,3.01-5.24c0.01-0.59,0.47-1.23,0.86-1.74c1.39-1.83,2.94-3.56,4.26-5.44c2.75-3.91,4.67-8.37,5.06-13.01
		c0.58-6.97,0.23-14.01,0.31-21.02c0.02-1.53,0.2-3.06,0.35-4.59c0.27-2.72,0.63-5.43,0.85-8.15c0.17-2.19,0.15-4.39,0.29-6.58
		c0.31-4.69,0.87-9.37,0.97-14.07c0.14-6.6,0.03-13.2-0.12-19.8c-0.04-1.71-0.47-3.46-1.02-5.09c-1.13-3.32-2.58-6.54-3.66-9.87
		c-0.97-3.01-1.36-6.23-2.48-9.18c-2.1-5.56-2.7-11.3-2.7-17.16c0-1.2,0.27-2.4,0.47-3.59c0.55-3.24,1.12-6.48,1.72-9.71
		c0.4-2.15,0.71-4.34,1.37-6.42c1.21-3.82,3.7-6.92,5.88-10.23c2.64-4.02,6.17-5.91,10.8-6.65c2.76-0.44,5.66-1.37,7.97-2.88
		c4.63-3.02,9.05-2.82,13.71-0.48c1.87,0.94,3.66,2.06,5.61,2.77c4.83,1.78,9.74,3.34,14.6,5.04c4.87,1.7,9.89,1.51,14.92,1.36
		c0.07,0,0.14-0.34,0.37-0.97c-3.4-1.16-6.76-2.46-10.21-3.45c-4.21-1.21-8.47-2.09-12-5.03c-1.27-1.06-3.18-1.4-4.86-1.89
		c-1.26-0.37-2.6-0.42-3.89-0.68c-6.89-1.4-13.77-2.77-20.84-3.06c-5.24-0.21-10.47-0.86-15.7-1.4c-7.27-0.75-14.45-0.51-21.5,1.63
		c-1.45,0.44-2.93,0.8-4.41,1.13c-1.51,0.33-2.88,0.17-3.62-1.45c-0.68-1.49-0.83-2.83,0.42-4.25c1.3-1.47,2.22-3.26,3.43-4.82
		c3.04-3.9,6.53-6.53,12.03-5.6c4.09,0.68,8.32,0.74,12.49,0.67c12.41-0.2,24.79-1.92,37.22-0.45c7.09,0.84,14.22,1.41,21.28,2.42
		c5.32,0.76,10.53,2.29,15.86,3c5.21,0.69,10.5,0.88,15.76,1.08c2.17,0.08,4.37-0.39,6.56-0.57c2.99-0.24,5.3,0.89,7.07,3.37
		C735.77,364.67,737.22,366.02,738.8,367.79z M638.52,361.03c0.03,0.3,0.05,0.61,0.08,0.91c1,0.14,1.99,0.36,2.99,0.42
		c3.29,0.19,6.63,0.04,9.87,0.54c7.05,1.11,14.06,2.51,21.08,3.86c2.78,0.54,5.56,1.16,8.28,1.94c1.34,0.39,2.51,1.3,3.81,1.85
		c7.05,3,14.21,5.78,21.16,9.02c4.2,1.96,8.32,3.91,12.92,4.8c1.42,0.28,2.89,1.17,3.93,2.19c0.71,0.69,1.24,2.33,0.9,3.14
		c-0.43,1.02-1.76,1.78-2.85,2.34c-0.58,0.3-1.5-0.03-2.26-0.09c-4.6-0.37-9.19-0.76-13.79-1.09c-3.18-0.23-6.36-0.29-9.53-0.58
		c-7.14-0.64-14.18-1.9-20.89-4.49c-3.25-1.26-6.61-2.58-9.41-4.58c-2.84-2.03-5.41-1.95-8.36-0.95c-3.53,1.19-7.02,2.51-10.62,3.41
		c-6.68,1.69-10.71,6.28-13.23,12.2c-1.52,3.56-3.15,7.3-2.5,11.44c0.08,0.52-0.04,1.12-0.25,1.61c-2.67,6.34-1.77,12.74-0.14,19.07
		c1.01,3.91,2.36,7.73,3.63,11.57c1.34,4.06,2.86,8.06,4.12,12.15c0.57,1.84,0.89,3.82,0.98,5.75c0.1,2.18-0.28,4.37-0.31,6.57
		c-0.11,8.12,0.89,16.29-1.09,24.33c-0.18,0.73-0.25,1.57-0.09,2.3c1.23,5.62-0.32,11.16-0.37,16.74
		c-0.04,4.16-0.15,8.32-0.03,12.47c0.1,3.38,0.74,6.74-1,9.98c-0.59,1.1-0.53,2.56-0.73,3.86c-0.32,2.05-0.15,4.32-1,6.11
		c-1.96,4.13-4.37,8.04-6.68,11.99c-0.48,0.82-1.54,1.33-1.96,2.16c-1.6,3.17-3.66,5.87-6.44,8.18c-4.92,4.09-9.63,4.78-15.62,1.84
		c-1.38-0.68-2.79-1.14-4.27-0.18c0.8,1.54,1.73,2.8,2.13,4.21c0.86,3.06,1.36,6.22,2.18,9.29c0.81,3.02,1.14,5.86-1.64,8.15
		c0.36,0.82,0.64,1.52,0.97,2.21c0.74,1.52,0.52,2.95-0.93,3.74c-2.81,1.54-3.96,4.27-5.39,6.84c-2.98,5.35-12.8,6.43-16.95,1.86
		c-3.98-4.37-7.92-8.78-11.84-13.2c-0.41-0.46-0.68-1.11-0.82-1.72c-0.56-2.33-1.02-4.69-1.55-7.03
		c-1.25-5.54-4.41-10.58-4.31-16.48c0-0.31-0.19-0.63-0.28-0.94c-0.56-1.87-1.13-3.75-1.67-5.63c-0.33-1.16-0.23-2.86-0.98-3.41
		c-2.61-1.92-0.64-6.24-4.17-7.51c-0.03-0.01,0.14-0.4,0.12-0.6c-0.07-0.72-0.1-1.46-0.3-2.15c-1.06-3.68-2.15-7.35-3.28-11
		c-0.68-2.2-1.26-4.46-2.21-6.54c-1.61-3.54-2.73-7.36-5.64-10.21c-0.47-0.46-0.39-1.45-0.64-2.17c-1.8-5.18-3.46-10.42-5.49-15.51
		c-2.02-5.07-4.54-9.9-8.52-13.81c-0.57-0.56-0.76-1.54-1.06-2.36c-0.49-1.34-0.84-2.74-1.41-4.04c-1.01-2.3-2.33-4.48-3.19-6.83
		c-1.23-3.33-2.71-6.44-5.27-8.97c-4.44-4.4-8.89-8.8-13.27-13.26c-5.53-5.63-11.46-10.74-18.13-14.98
		c-1.09-0.69-2.11-1.62-2.92-2.62c-2.57-3.18-5.93-5.07-9.65-6.59c-2.19-0.9-4.15-2.34-6.26-3.46c-2.58-1.36-4.58-3.87-7.8-4.02
		c-0.3-0.01-0.66-0.19-0.88-0.4c-4.85-4.63-11.92-5.47-16.88-9.9c-0.08-0.07-0.21-0.07-0.31-0.12c-2.09-0.9-4.21-1.76-6.28-2.72
		c-5.06-2.37-10.09-4.81-15.16-7.17c-0.72-0.33-1.58-0.36-2.8-0.62c0,1.63-0.15,2.83,0.03,3.98c0.91,5.84,1.94,11.66,2.86,17.5
		c0.65,4.1,1.27,8.21,1.77,12.34c0.42,3.48,0.65,6.98,0.95,10.48c0.51,5.91,1.24,11.81,1.43,17.73c0.09,2.81,1.12,4.74,2.97,6.63
		c2.38,2.42,4.68,4.93,6.8,7.57c1.29,1.61,2.11,3.58,3.22,5.33c3.23,5.08,6.51,10.14,9.76,15.21c1.24,1.94,2.48,3.89,3.64,5.89
		c3.18,5.45,7.62,10.05,10.26,15.91c1.67,3.7,4.22,7,6.21,10.57c1.65,2.97,3.03,6.09,4.6,9.11c0.28,0.54,0.8,1.21,1.32,1.33
		c3.35,0.77,4.25,3.28,4.92,6.21c0.32,1.42,1.22,2.8,2.13,3.98c0.85,1.11,2.09,1.93,3.12,2.92c1.48,1.42,3.41,2.66,1.85,5.24
		c-0.25,0.41,0.23,1.23,0.31,1.87c0.36,3.16,2.81,5.95,1.61,9.41c-0.16,0.45,0.31,1.35,0.76,1.74c1.61,1.4,1.43,3.03,1.02,4.84
		c-0.23,1.05-0.5,2.33-0.11,3.23c1.37,3.16,1.39,6.95,4.37,9.38c1.03,0.85,1.84,1.97,2.88,3.11c-0.53,0.31-0.99,0.56-1.43,0.85
		c-1.21,0.79-1.32,1.78-0.21,2.67c2.42,1.94,5.28,3.67,2.37,7.31c1.38,2.12,0.28,4.95,2.06,7c1.18,1.36,2.13,2.95,1.07,4.79
		c-0.93,1.61-0.75,3.08-0.09,4.72c0.4,0.99,0.43,2.13,0.61,3.21c0.6,3.56,1.39,7.09,1.74,10.67c0.56,5.76,1.26,11.56,1.07,17.32
		c-0.12,3.61-1.76,7.17-2.74,10.74c-0.39,1.41-0.69,2.55,0.85,3.75c2.54,1.98,4.69,4.45,7.16,6.54c4.72,3.98,9.57,7.82,14.33,11.76
		c2.61,2.16,5.14,4.42,7.74,6.61c0.83,0.7,1.67,1.47,2.64,1.94c2.35,1.14,4.55,2.17,6.42,4.29c4.05,4.61,10.09,6.96,14.04,11.8
		c0.07,0.08,0.17,0.14,0.26,0.2c2.95,2.03,5.94,4,8.84,6.1c0.94,0.68,1.66,1.66,2.45,2.54c0.65,0.73,1.1,1.7,1.87,2.25
		c5.96,4.28,11.95,8.51,17.98,12.69c2.31,1.6,4.75,3.03,7.11,4.56c0.26,0.17,0.4,0.51,0.63,0.74c0.91,0.88,1.79,1.8,2.77,2.59
		c2.05,1.65,4.78,2.33,6.76,3.73c3.69,2.62,7.73,2.75,11.6,2.67c11.05-0.21,22.21,0.7,33.11-2.05c3.17-0.8,6.53-1.15,9.5-2.41
		c3.06-1.3,6.17-1.96,9.35-2.62c1.19-0.25,2.25-1.15,3.36-1.77c0.95-0.53,1.93-1.61,2.82-1.53c3.19,0.3,5.33-1.49,7.71-3.06
		c1.24-0.82,2.82-1.13,4.68-1.83c0.07-0.1,0.37-1.02,0.98-1.31c1.26-0.6,2.67-1.13,4.04-1.22c2.03-0.12,3.77-0.74,5.6-1.62
		c3.45-1.65,7.1-2.89,10.63-4.36c3.04-1.26,6.04-2.61,9.06-3.93c0.09-0.04,0.17-0.15,0.23-0.24c1.12-1.88,2.27-3.73,3.34-5.64
		c0.95-1.7,1.79-3.46,2.73-5.17c1.74-3.14,3.55-6.24,5.25-9.4c0.28-0.51,0.25-1.29,0.13-1.89c-0.36-1.84,0.09-3.45,0.99-5.05
		c0.46-0.83,0.68-1.85,0.77-2.81c0.37-4.36,0.62-8.72,0.99-13.08c0.4-4.79,1.5-9.49,1.24-14.38c-0.22-4.14,0.51-8.32,0.36-12.46
		c-0.31-8.71,0.81-17.32,1.6-25.95c0.33-3.59,0.91-7.18,1.66-10.71c1.48-7.01,2.78-14,2.2-21.22c-0.57-6.99-1.03-14-1.54-21
		c-0.19-2.62-0.32-5.25-0.58-7.87c-0.23-2.29-0.8-2.42-2.95-1.59c-0.98,0.38-2.25,0.21-3.34,0.03c-1.6-0.25-2.59-1.33-2.51-2.98
		c0.08-1.8,1.5-1.79,2.89-1.92c3.43-0.32,5.64-3.19,5.25-6.61c-0.2-1.74-0.52-3.5-0.48-5.24c0.12-5.26,0.42-10.51,0.6-15.77
		c0.04-1.31,0.03-2.65-0.16-3.95c-0.49-3.36-1.39-6.68-1.59-10.05c-0.31-5.24-1.45-10.43-0.44-15.77
		c0.96-5.09,0.89-10.27-0.02-15.41c-0.67-3.79-1.27-7.58-1.85-11.39c-0.48-3.15-1.12-3.53-4.08-2.3c-2.82,1.18-5.19-0.26-5.09-3.34
		c0.06-1.83,0.8-3.62,1.12-5.45c0.28-1.59,0.55-3.2,0.57-4.81c0.05-3.73-0.49-7.52,0.01-11.17c1-7.29,2.32-14.54,3.89-21.73
		c2.92-13.42,6.39-26.7,10.45-39.83c0.23-0.76,0.32-1.86-0.06-2.46c-1.1-1.76-2.28-3.57-3.81-4.94c-1.03-0.92-2.71-1.52-4.11-1.55
		c-4.28-0.09-8.57,0.32-12.85,0.23c-3.29-0.07-6.67-0.19-9.82-1.02c-7.97-2.1-15.95-4.04-24.17-4.72c-7.12-0.6-14.24-1.2-21.37-1.46
		c-5.78-0.21-11.59,0.03-17.38,0.19C640.69,360.1,639.61,360.69,638.52,361.03z M394.9,551.54c-0.96-0.98-1.71-2.02-2.71-2.71
		c-2.32-1.61-4.78-3.01-7.15-4.56c-0.52-0.34-0.85-0.96-1.3-1.43c-2.42-2.54-4.63-5.34-7.31-7.57c-5.31-4.41-9.97-9.43-14.54-14.55
		c-1.07-1.2-2.2-2.36-3.23-3.59c-0.48-0.57-1.01-1.23-1.18-1.93c-1.5-6.37-5.11-11.87-7.23-17.99c-0.5-1.44-1.23-2.79-1.77-4.22
		c-1.92-5.11-3.34-10.39-6.44-15.04c-1.23-1.84-1.62-4.27-2.2-6.48c-0.35-1.34-0.27-2.79-0.5-4.18c-0.34-2.06-0.8-4.1-1.16-6.15
		c-1.52-8.65-2.84-17.34-4.57-25.94c-1.93-9.57-4.19-19.07-6.39-28.59c-0.7-3.02-0.12-5.63,1.73-8.06
		c4.28-5.62,9.59-10.17,15.05-14.56c2.65-2.13,5.37-4.18,7.91-6.43c4.87-4.32,4.78-4.35,1.57-10.02
		c-5.34-9.45-13.03-16.75-21.39-23.41c-2.83-2.25-5.89-4.23-9-6.09c-5.01-3-10.38-5.28-16.11-6.48c-7.79-1.63-15.73-1.49-23.65-1.47
		c-2.85,0.01-5.72,0.12-8.56,0.36c-8.81,0.76-17.24,3.34-25.82,5.23c-9.67,2.14-14.7,9.33-19.52,16.9
		c-0.34,0.53-0.41,1.25-0.54,1.89c-2.4,11.55-3.12,23.29-3.39,35.04c-0.14,6.14,0.34,12.29,0.54,18.43
		c0.01,0.33,0.05,0.66,0.09,0.99c0.63,5.77,1.26,11.54,1.87,17.31c0.35,3.28,0.29,6.65,1.07,9.81c1.1,4.45,2.84,8.73,4.25,13.1
		c1.91,5.92,5.31,10.81,10.1,14.74c0.51,0.42,1.07,0.77,1.54,1.23c2.72,2.69,5.29,5.53,8.15,8.06c5.01,4.44,10.18,8.7,15.3,13.01
		c4.86,4.09,9.67,8.25,14.63,12.21c3.85,3.08,8.02,5.77,11.85,8.88c5.18,4.19,10.21,8.56,15.23,12.95
		c4.12,3.61,8.19,7.3,12.16,11.08c7.4,7.02,14.7,14.14,22.09,21.17c1.66,1.58,3.64,2.82,5.31,4.38c2.29,2.15,4.37,4.53,6.65,6.69
		c4.52,4.27,9.06,8.53,13.7,12.66c2.65,2.35,5.52,4.45,8.76,7.03c-0.05,1.04,1.02,2.11,2.44,3.15c4.4,3.23,8.69,6.62,13.04,9.93
		c0.78,0.59,1.56,1.28,2.46,1.61c6.17,2.24,12.11,4.99,17.85,8.17c1.72,0.96,3.49,1.85,5.31,2.6c3.82,1.56,7.7,2.99,11.53,4.53
		c0.69,0.28,1.38,0.74,1.88,1.28c1.64,1.77,3.57,2.7,5.99,3.05c1.27,0.19,2.81,0.97,3.52,1.98c0.99,1.42,2.1,1.73,3.61,1.73
		c3.27,0,6.23,0.14,9.04,2.74c3.59,3.32,8.01,5.73,11.98,8.65c1.84,1.35,3.38,3.12,5.23,4.44c6.45,4.59,12.98,9.06,19.63,13.68
		c3.16-6.08,2.84-12.83,1.88-19.6c-0.5-3.54-1.42-7.01-2.02-10.53c-0.35-2.05-0.32-4.17-0.72-6.2c-0.48-2.47-1.4-4.85-1.84-7.32
		c-1.42-7.94-3.76-15.58-7.81-22.58c-1.02-1.76-2.88-3.05-4.43-4.48c-0.19-0.18-0.81,0.1-1.25,0.17c1.06,3.28,0.36,3.87-3.79,3.52
		c-0.66,0.82-1.11,1.83-1.87,2.23c-1.52,0.79-3.24,1.19-4.84,1.84c-2.19,0.89-4.36,1.41-6.74,0.69c-2.51-0.76-5.04-1.74-7.61-1.9
		c-2.83-0.17-4.96-1.73-7.22-2.87c-3.47-1.74-6.63-4.1-9.88-6.27c-2.18-1.46-4.79-2.66-6.29-4.67c-2.19-2.95-5.79-3.87-8.04-6.58
		c-0.74-0.9-1.76-1.62-2.76-2.24c-6.15-3.77-12.32-7.53-18.54-11.18C397.39,552.1,395.97,551.89,394.9,551.54z M799.15,370.76
		c4.38-0.6,8.55-1.21,12.73-1.74c3.76-0.48,7.34,0.79,11,1.19c4.24,0.47,7.94,1.9,11.63,3.75c1.17,0.59,2.45,1.08,3.73,1.29
		c4.55,0.76,8.74,2.55,11.87,5.8c2.76,2.88,4.93,6.39,6.98,9.86c1.02,1.73,1.13,3.98,1.74,5.97c0.98,3.19,3.36,5.97,2.7,9.63
		c-0.05,0.28,0.24,0.61,0.3,0.93c0.72,3.5,1.55,6.99,2.08,10.53c0.45,3.03,0.6,6.12,0.78,9.18c0.22,3.71,0.42,7.43,0.46,11.14
		c0.01,1.4-0.31,2.86-0.76,4.2c-1.26,3.83-2.63,7.62-4.01,11.4c-0.21,0.59-0.65,1.14-1.11,1.58c-2.43,2.33-4.9,4.63-7.36,6.93
		c-1.27,1.19-2.69,2.25-3.8,3.57c-3.43,4.1-6.78,8.26-10.07,12.47c-2.88,3.7-5.58,7.54-8.46,11.24c-2.14,2.75-4.02,5.98-6.77,7.93
		c-5.05,3.58-9.61,7.58-13.75,12.13c-1.47,1.62-3.38,3.1-4.17,5.03c-1.61,3.9-3.5,7.79-3.65,12.17c-0.06,1.81-0.57,3.47-2.25,4.52
		c-2.7,1.68-5.32,3.49-8.1,5.04c-1.73,0.97-3.57,1.43-5.62,0.2c-1.25-0.76-2.89-0.92-4.38-1.23c-4.25-0.88-8.49-1.34-12.64-3.12
		c-3.49-1.49-7.72-1.37-11.64-1.72c-0.95-0.08-2.18,0.6-2.93,1.3c-1.67,1.55-3.2,3.27-4.63,5.05c-0.67,0.83-1.25,1.92-1.38,2.96
		c-0.84,6.5-1.35,13.02-0.22,19.54c0.77,4.43,1.44,8.88,2.41,13.27c1.23,5.58,2.72,11.09,4.09,16.64c0.55,2.22,2.05,3.22,4.22,3.56
		c3.14,0.49,6.25,1.38,9.41,1.59c5.68,0.38,11.39,0.68,17.07,0.45c3.56-0.15,7.06-1.46,10.63-2.02c4.55-0.71,9.12-1.49,13.7-1.71
		c8.21-0.4,16.44-1.14,24.65,0.59c3.85,0.81,7.83,1,11.75,1.39c0.85,0.09,1.74-0.17,2.62-0.27c3.16-0.39,3.05-0.4,3.35-3.61
		c0.52-5.68,0.93-11.39,1.88-17.01c0.88-5.18,2.51-10.23,3.61-15.38c1.55-7.29,3.09-14.6,4.33-21.95
		c1.52-8.98,2.65-18.02,4.09-27.01c0.92-5.73,2.13-11.42,3.14-17.14c0.78-4.41,1.44-8.85,2.2-13.26c0.13-0.74,0.49-1.43,0.71-2.16
		c0.44-1.43,0.89-2.86,1.27-4.3c0.25-0.94,0.29-1.93,0.57-2.86c1.51-4.92,3.13-9.82,4.6-14.76c1.21-4.07,1.76-8.39,4.94-11.63
		c0.43-0.44,0.7-1.16,0.78-1.79c0.25-1.81,0.86-3.32,2.43-4.45c0.56-0.41,0.85-1.27,1.14-1.98c1.12-2.73,2.52-5.28,3.99-7.85
		c1.22-2.14,2.23-4.31,4.1-5.98c0.38-0.34,0.43-1,0.73-1.46c2.62-3.99,4.67-8.39,8.44-11.55c0.64-0.54,1.25-1.35,1.47-2.14
		c0.87-3.16,2.21-6.36,2.2-9.55c-0.01-5.12-0.92-10.24-1.53-15.35c-0.17-1.39-0.64-2.74-0.92-4.12c-0.4-1.93-0.66-3.88-1.13-5.79
		c-1.81-7.34-3.64-14.68-5.53-22c-0.73-2.84-1.63-5.6-1.66-8.6c-0.02-2.05-0.68-4.08-0.87-6.13c-0.17-1.75-0.04-3.52-0.11-5.28
		c-0.19-4.84-0.64-9.65-2.47-14.21c-0.18-0.45-0.57-1.24-0.73-1.21c-1.73,0.36-1.8-0.84-1.92-1.96c-0.36-3.58-3.15-5.42-5.83-6.49
		c-4.68-1.86-9.85-1.83-14.85-2.15c-5.23-0.33-10.49-0.07-15.73-0.16c-1.52-0.03-3.04-0.51-4.56-0.52
		c-9.01-0.08-18.03-0.34-27.02-0.03c-5.88,0.2-11.78,0.85-17.13,4c-1.81,1.07-2.81,2.15-2.7,3.47c-1.87,1.27-3.26,2.22-4.67,3.15
		c-0.63,0.41-1.27,0.87-1.98,1.1c-3.7,1.17-6.02,4.15-8.08,6.99c-1.51,2.09-3.22,3.73-5.1,5.36c-0.88,0.77-1.98,1.63-2.26,2.65
		c-0.18,0.67,0.93,1.69,1.63,2.82c-1,0.08-1.84,0.12-2.67,0.22c-0.98,0.12-1.95,0.29-2.69,0.4c-0.68,0.95-1.13,1.83-1.81,2.48
		c-1.41,1.36-2.96,2.58-4.42,3.89c-1.44,1.28-1.9,3.56-4.14,4.03c-0.14,2.09-2.67,3.52-1.67,5.98c0.13,0.33-0.31,0.89-0.6,1.62
		c-0.89-0.74-1.52-1.27-2.12-1.78c-1.86,1.34-3.14,2.69-3.14,4.09c0.01,3.4-0.27,6.93,0.58,10.14c0.77,2.89,0.78,5.59,0.51,8.41
		c-0.33,3.5-0.67,6.99-1.07,10.48c-0.32,2.82-0.6,5.66-1.14,8.45c-0.84,4.3-1.82,8.58-2.86,12.84c-1.61,6.55,0.9,12.68,1.61,19.47
		c0.48-1.06,0.65-1.72,1.03-2.21c3.06-4.01,4.53-8.77,5.99-13.45c1.22-3.88,2.81-7.34,6.12-9.81c1.77-1.32,3.13-2.88,4.06-4.96
		c0.5-1.11,1.81-1.85,2.71-2.8c2.84-3.01,5.66-6.04,8.49-9.06c0.07-0.08,0.17-0.14,0.27-0.19c3.04-1.48,6.09-2.91,9.1-4.43
		C796.73,373.59,799.02,373.25,799.15,370.76z M784.39,494.91c-2.37-1.28-4.03-2.27-5.78-3.1c-4.29-2.04-8.45-4.24-11.47-8.08
		c-2.42-3.07-2.09-5.76,0.91-8.27c1.59-1.33,3.43-2.63,4.42-4.37c2.01-3.54,5.05-6.06,7.8-8.86c4.45-4.53,9.06-8.92,13.56-13.41
		c1.82-1.82,3.33-4.01,5.33-5.58c3.34-2.62,5.16-6.23,5.74-10.05c0.52-3.4,2.37-5.23,4.67-7.11c0.48-0.4,1.31-0.87,1.3-1.29
		c-0.06-1.68,1.14-1.85,2.24-2.38c1.04-0.5,1.92-1.33,2.9-1.95c0.79-0.5,1.62-0.93,2.45-1.37c2.67-1.41,5.92-2.26,7.88-4.34
		c3.05-3.22,6.18-1.89,9.44-1.5c0.39,0.05,0.84,0.28,1.11,0.57c1.25,1.34,2.52,2.67,3.65,4.12c1.73,2.23,3.46,4.48,4.99,6.85
		c2.07,3.22,2.16,7,2.9,10.64c1.01,4.93-0.77,9.21-2.34,13.36c-0.97,2.56-2.33,4.84-1.73,7.96c-1-0.33-1.66-0.54-2.62-0.86
		c-1.35,4.12-2.67,8.13-4.03,12.28c0.56-0.06,0.86-0.01,0.96-0.12c1.97-2.3,3.91-4.64,5.88-6.93c1-1.16,2.36-2.1,3.02-3.42
		c0.67-1.34,0.66-3.01,0.95-4.51c2.38,1.22,2.44,1.13,4.16-0.87c2.95-3.43,2.83-8.17,5.18-11.84c0.16-0.24,0.07-0.65,0.07-0.98
		c0.04-7.23,0.9-14.47,0.02-21.69c-0.27-2.26-0.62-4.63-1.57-6.65c-0.84-1.8-2.07-3.22-1.12-5.4c0.31-0.71,0.23-1.88-0.16-2.58
		c-2.36-4.23-1.64-9.87-6.06-13.14c-0.23-0.17-0.28-0.58-0.43-0.88c-1.38-2.73-3.79-4.35-6.39-5.62
		c-5.29-2.59-11.29-3.13-16.65-5.64c-1.88-0.88-4.27-0.83-6.44-0.86c-2.6-0.04-5.24,0.61-7.81,0.39c-5.6-0.49-10.01,1.41-13.22,5.45
		c-1.52,0-3.1-0.49-3.97,0.09c-2.94,1.97-5.86,4.13-6.72,7.95c-1.99-0.11-3.23,0.99-4.25,2.55c-1.68,2.58-3.66,4.72-6.38,6.47
		c-2.26,1.45-4.07,3.95-5.43,6.35c-1.87,3.31-3.16,6.96-4.64,10.48c-1.99,4.74-3.9,9.51-5.92,14.24c-1.15,2.69-1.16,5.76-3.11,8.24
		c-1.04,1.32-1.06,2.91,0.97,4.1c2.18,1.28,1.93,3.3-0.48,4c-1.92,0.56-2.45,1.5-2.29,3.3c0.09,0.97-0.19,1.99-0.06,2.95
		c0.91,7.06,1.93,14.1,2.81,21.16c0.55,4.37,0.64,8.59-1.33,12.87c-3.03,6.59-5.04,13.58-5.83,20.86c-0.17,1.58-0.09,3.01,0.87,4.33
		c0.45-0.03,0.86,0.06,1.07-0.1c3.86-2.88,7.75-5.73,11.53-8.71c3.64-2.87,7.37-5.49,11.96-6.67
		C779.18,496.77,781.38,495.91,784.39,494.91z M582.78,733.35c-2.27-2.07-4.13-3.77-6.01-5.46c-0.32-0.29-0.74-0.48-1.06-0.77
		c-3.64-3.25-9.34-3.81-11.59-8.91c-0.23-0.53-0.99-0.84-1.53-1.21c-1.99-1.33-4.15-2.45-5.97-3.98c-2.84-2.38-5.42-5.06-8.2-7.52
		c-0.79-0.7-1.84-1.38-2.84-1.5c-1.9-0.23-2.89-1.43-3.86-2.78c-0.44-0.61-0.78-1.31-1.3-1.83c-4.09-4.01-9.91-5.92-13.23-10.89
		c-0.27-0.41-0.93-0.54-1.37-0.85c-1.88-1.36-3.63-2.97-5.65-4.07c-2.64-1.43-4.6-3.44-6.37-5.77c-0.31-0.4-0.89-0.76-1.38-0.82
		c-1.94-0.24-3.05-1.55-4.25-2.87c-0.72-0.79-1.73-1.31-2.58-1.98c-0.76-0.6-1.53-1.19-2.2-1.88c-1.66-1.73-3.14-3.64-4.91-5.24
		c-2.52-2.28-3.01-2.11-5.63-0.13c-0.97,0.73-2.27,1.2-3.48,1.39c-5.21,0.85-7.35-3.87-10.82-6.18c-0.94-0.62-1.54-1.75-2.3-2.65
		c-3.24-3.82-9.22-4.39-11.34-9.55c-0.07-0.17-0.35-0.26-0.52-0.39c-4.45-3.4-9.4-6.19-12.88-10.75c-0.38-0.5-1.04-0.8-1.61-1.12
		c-1.69-0.97-3.4-1.91-5.32-2.98c-1.79,2.76-4.49,4.82-4.8,8.42c-0.1,1.13-0.71,2.32-1.37,3.29c-1.71,2.5-3.24,5.09-3.8,8.08
		c-0.9,4.82-1.86,9.65-2.36,14.52c-0.27,2.65-0.39,5.8,0.78,8.01c1.76,3.35,4.72,6.13,8.41,7.57c2.74,1.07,5.67,1.66,8.53,2.42
		c1.79,0.47,3.51,0.85,4.99,2.24c1.5,1.4,3.37,2.45,5.18,3.47c2.17,1.22,4.4,3,6.71,3.19c4.53,0.36,7.34,2.8,9.94,6.01
		c1.94,2.4,4.32,4.29,7.1,5.67c2.38,1.19,5.06,2.07,6.99,3.79c4.39,3.92,9.35,6.82,14.66,9.17c1.06,0.47,2.49,0.17,3.74,0.13
		c1.04-0.03,2.14-0.47,3.09-0.23c4.11,1.04,8.16,2.28,12.25,3.4c2.29,0.62,4.61,1.09,6.9,1.71c1.56,0.42,3.04,1.15,4.61,1.47
		c4.18,0.86,8.4,1.55,12.6,2.35c3.87,0.73,7.72,1.51,11.59,2.26c2.48,0.48,4.97,0.85,7.43,1.41c3.41,0.77,6.76,1.8,10.18,2.47
		C579.44,733.76,581.05,733.41,582.78,733.35z M672.67,739.79c-2.79-1.19-5.41-1.04-8.06,0.19c-1.54,0.72-3.24,1.1-4.9,1.54
		c-0.95,0.25-1.97,0.2-2.91,0.47c-3.4,0.96-6.76,2.03-10.15,3.01c-6.29,1.81-12.73,2.08-19.22,1.65c-0.87-0.06-1.75,0.09-2.62,0.01
		c-3.49-0.33-6.87,1.22-10.45,0.3c-1.97-0.5-4.3-1.1-6.11,0.98c-0.37,0.42-1.46,0.26-2.22,0.26c-10.11,0.05-20.19,0.11-30.12-2.46
		c-3.09-0.8-6.42-1.67-9.72-0.12c-0.62,0.29-2.21-0.08-2.39-0.53c-1.1-2.76-3.57-1.85-5.48-2.16c-1.56-0.25-3.21,0.08-4.81,0.15
		c-0.03,0.28-0.06,0.56-0.09,0.84c1.89,0.8,3.73,1.75,5.67,2.37c3.32,1.05,6.76,1.73,10.04,2.88c2.68,0.93,5.14,2.51,7.81,3.46
		c3.02,1.07,5.94,3.03,9.43,1.75c0.25-0.09,0.6,0.03,0.88,0.13c2.34,0.81,4.62,1.98,7.03,2.36c2.42,0.38,4.96-0.06,7.45-0.04
		c1.28,0.01,2.56,0.18,3.83,0.35c1.71,0.23,3.4,0.78,5.1,0.76c3.95-0.03,7.9-0.26,11.84-0.52c5.97-0.4,11.94-0.87,17.91-1.36
		c3.82-0.32,7.64-0.68,11.46-1.1c4.56-0.5,8.96-2.09,13.65-1.77c0.88,0.06,2.35-0.42,2.64-1.06c0.77-1.74,1.99-1.37,3.19-1.08
		c4.03,0.98,7.82,0.24,11.53-1.37c2.29-1,4.55-2.14,6.92-2.87c1.35-0.41,3.08,0.27,4.35-0.24c3.73-1.5,7.32-3.34,10.96-5.06
		c0.1-0.04,0.18-0.13,0.25-0.22c1.25-1.49,2.97-1.54,4.75-1.82c3.21-0.49,6.37-1.38,9.54-2.14c0.28-0.07,0.62-0.33,0.73-0.59
		c1.15-2.65,3.29-2.72,5.83-1.95c-0.09-0.89-0.15-1.5-0.17-1.76c1.69-0.56,3.75-0.65,4.72-1.73c1.07-1.19,2.27-1.57,3.51-2.18
		c1.45-0.71,2.92-1.43,4.29-2.28c1.92-1.18,3.7-2.61,5.67-3.71c2.63-1.48,3.06-2.07,2.66-4.9c-0.08-0.56-0.1-1.12-0.17-1.94
		c2.61,2.05,3.19,2.04,5.13-0.08c0.81-0.88,1.29-2.28,2.26-2.75c1.9-0.92,2.31-2.46,2.43-4.23c3.45,0.44,6.15-1.41,6.29-4.54
		c0.35-7.68,0.6-15.37,0.66-23.06c0.01-1.76-0.44-3.88-1.47-5.22c-1.38-1.79-1.06-3.08-0.24-4.78c0.5-1.04,1.13-2.39,0.86-3.37
		c-1.25-4.63-0.93-9.58-2.93-14.06c-0.48-1.07-0.58-2.34-0.73-3.53c-0.54-4.43-0.76-8.91-1.61-13.28c-0.7-3.57-0.11-7.53-2.68-10.66
		c-0.18-0.21-0.13-0.63-0.14-0.96c-0.36-8.26-2.04-16.29-4.34-24.2c-0.67-2.29-2.62-3.38-5.72-3.33c-2.19,0.03-2.96,0.74-3.54,3.5
		c-0.98,4.61-2.2,9.21-2.75,13.87c-0.64,5.43-0.96,10.95-0.83,16.41c0.08,3.59,0.71,7.14-0.53,10.65c-0.17,0.49-0.31,1.22-0.07,1.59
		c1.01,1.53,0.62,2.85-0.22,4.28c-0.28,0.49-0.36,1.4-0.08,1.86c1.69,2.8,0.05,5.85,1.09,8.83c-0.69-0.27-1.06-0.41-1.57-0.61
		c0,1.03,0.04,2.01-0.01,2.98c-0.26,5.81-0.4,11.64-0.87,17.44c-0.38,4.67-1.06,9.32-1.85,13.95c-0.61,3.62-1.56,7.19-2.44,10.76
		c-0.15,0.59-0.79,1.05-1.08,1.63c-1.68,3.39-4.77,6.02-5.42,9.98c-0.23,1.37-0.54,2.73-0.85,4.26c-4.52,0.92-8.88,1.78-13.22,2.72
		c-0.68,0.15-1.33,0.57-1.92,0.98c-1.51,1.06-2.88,2.41-5.03,1.55c-0.41-0.17-1.07,0.12-1.56,0.33c-2.9,1.26-5.97,2.26-8.65,3.9
		c-4.91,3.01-10.37,4.54-15.68,6.47C675.3,736.36,673.36,737.22,672.67,739.79z M430.45,500.18c0.13-0.31,0.26-0.63,0.38-0.94
		c-1.06-1.36-2.04-2.79-3.2-4.07c-2.72-3-5.54-5.91-8.27-8.9c-1.33-1.45-2.79-2.87-3.76-4.55c-3.15-5.47-7.24-10.24-11.9-14.31
		c-2.84-2.48-4.22-5.74-6.4-8.53c-2.03-2.61-3.12-5.94-4.75-8.89c-0.68-1.23-1.63-2.31-2.51-3.42c-1.16-1.45-2.38-2.86-3.55-4.3
		c-1.51-1.84-2.7-4.11-4.56-5.46c-3.57-2.59-7.59-3.99-11.99-1.63c-0.86,0.46-1.9,0.59-2.79,1.01c-0.66,0.31-1.33,0.75-1.82,1.29
		c-3.82,4.28-5.18,9.6-5.81,15.07c-0.54,4.69-0.56,9.43-0.73,14.16c-0.26,7.66,1.28,14.83,5.91,21.13c0.25,0.34,0.46,0.77,0.53,1.19
		c0.57,3.48,2.51,5.96,5.47,7.75c0.35,0.21,0.79,0.61,0.81,0.96c0.34,4.62,4.08,6.7,6.95,9.44c0.46,0.44,0.88,0.94,1.24,1.46
		c0.93,1.32,1.68,2.79,2.74,3.99c2.02,2.29,4.22,4.42,6.31,6.65c7.04,7.48,13.64,15.35,21.63,21.95
		c5.47,4.52,11.37,8.31,17.73,11.14c4.86,2.16,10.38,2.86,15.84,2.19c1.03-0.13,2.1-0.69,2.94-1.33c3.78-2.9,4.36-6.13,2.73-11.43
		c-1.76-5.73-3.2-11.55-4.79-17.32c-1.63-5.95-4.03-11.47-8.61-15.84c-1.14-1.09-2.23-1.27-3.82-1.18
		c-4.38,0.27-8.39,2.45-12.86,2.18c-2.29-0.14-4.62-0.02-6.9,0.23c-1.86,0.2-4.07,0.01-4.8,2.56c-0.11,0.38-0.85,0.67-1.35,0.83
		c-2.28,0.72-4.61,0.9-6.65-0.55c-1.78-1.26-3.47-2.7-5.05-4.2c-1.93-1.84-2.35-4.05-1.35-5.93c0.99-1.88,3.18-3.06,5.6-2.49
		c2.06,0.48,2.86-0.29,3.31-2.06c0.32-1.28,0.58-2.59,1.07-3.81c0.78-1.91,1.61-3.83,2.65-5.6c0.9-1.53,2.55-2.53,4.2-1.78
		c1.26,0.57,2.42,1.93,2.99,3.22c0.4,0.91-0.24,2.3-0.5,3.45c-0.45,2.02-1.03,4-1.44,6.03c-0.17,0.84-0.03,1.75-0.03,2.87
		C417.71,502.82,424.01,500.92,430.45,500.18z M802.93,492.21c5.8-0.04,11.43-1.03,16.87-2.75c4.11-1.3,6.59-4.68,7.88-8.65
		c1.45-4.45,2.47-9.04,3.71-13.56c0.17-0.63,0.54-1.2,0.75-1.83c0.71-2.06,1.38-4.14,2.07-6.2c0.69-2.07,1-4.38,2.16-6.14
		c1.36-2.07,1.98-4.1,1.88-6.47c-0.06-1.47,0.08-2.77,1.57-3.71c0.58-0.37,0.96-1.46,0.99-2.24c0.18-4.8,0.63-9.7-2.27-13.97
		c-2.2-3.24-4.85-5.95-9.17-4.25c-3.74,1.47-7.05,3.45-10.14,5.94c-3.36,2.7-6.31,5.76-8.47,9.51c-0.7,1.21-1.19,2.6-2.1,3.63
		c-2.3,2.6-4.78,5.02-7.18,7.53c-2.57,2.7-5.06,5.47-7.68,8.12c-5.13,5.2-10.4,10.27-15.45,15.55c-1.65,1.72-2.88,3.88-4.12,5.95
		c-1.3,2.18-0.95,4.01,1.13,5.06c6.04,3.07,11.73,7.06,18.75,7.74C797.05,491.74,799.99,491.96,802.93,492.21z M416.89,456.41
		c0-2.1,0.08-3.29-0.01-4.46c-0.45-5.68-0.89-11.37-1.44-17.05c-0.7-7.09-1.39-14.19-2.29-21.26c-0.83-6.52-1.98-13-2.88-19.51
		c-0.42-3.01-1.14-3.96-4.12-4.48c-2.27-0.4-4.53-0.81-6.81-1.14c-2.64-0.38-4.51,0.97-4.76,3.34c-0.26,2.49-0.51,4.98-0.73,7.48
		c-0.64,7.32-1.25,14.64-1.87,21.96c-0.18,2.18,0.16,4.16,2.06,5.57c1.57,1.16,3.03,2.51,4.71,3.48c3.01,1.74,3.59,3.52,1.74,6.4
		c-0.82,1.27-1.69,2.5-2.36,3.48C401.73,448.54,408.58,452.66,416.89,456.41z M408.91,378.23c0.25-0.84,0.5-1.26,0.47-1.65
		c-0.6-7.77-1.3-15.53-1.85-23.3c-0.71-9.96-1.32-19.93-1.98-29.89c-0.08-1.2-0.24-2.4-0.38-3.59c-0.48-4.14-1.22-8.27-1.41-12.42
		c-0.44-9.99-0.53-19.99-0.92-29.98c-0.17-4.49-0.51-8.99-1.17-13.43c-0.33-2.2-0.77-4.25-0.23-6.48c0.36-1.5,0.6-3.17-1-4.48
		c-0.42,1.7-0.54,3.39-0.6,5.08c-0.03,0.74,0.21,1.52,0.07,2.23c-0.45,2.45-1.19,4.86-1.48,7.32c-0.31,2.69-0.18,5.44-0.36,8.15
		c-0.29,4.27-0.74,8.53-1.02,12.79c-0.26,3.91-0.47,7.84-0.53,11.76c-0.1,6.48-0.2,12.97,0,19.45c0.08,2.58,1.01,5.13,1.51,7.7
		c0.18,0.94-0.1,1.57-0.73,2.49c-1.16,1.71-1.78,3.98-2,6.08c-0.33,3.15-0.1,6.36-0.16,9.54c-0.16,8.56-0.32,17.11-0.55,25.67
		c-0.04,1.52,0.72,2.15,1.97,2.61c2.47,0.91,4.9,1.93,7.37,2.83C405.53,377.28,407.18,377.71,408.91,378.23z M740.44,381.66
		c-0.37,0.57-0.79,0.97-0.92,1.45c-2.09,7.47-4.29,14.91-6.15,22.44c-1.31,5.3-2.21,10.7-3.2,16.07
		c-0.95,5.18-1.88,10.36-2.63,15.57c-0.48,3.38,0.08,6.65,1.99,10.28c0.84-1.15,1.4-1.77,1.78-2.47c2.52-4.61,5.08-9.21,7.48-13.88
		c2.43-4.75,4.86-9.51,6.96-14.41c3.03-7.07,2.12-14.42,0.77-21.69c-0.56-2.99-1.64-5.89-2.13-8.89
		C744,383.69,742.51,382.65,740.44,381.66z M792.47,498.5c-1.16,4.7-1.12,4.78-4.46,6.81c-5.81,3.53-11.19,7.66-16.51,11.88
		c-1.72,1.36-3.55,2.59-5.23,4.02c-1.88,1.6-1.7,2.64,0.5,3.56c6.88,2.89,14.04,4.18,21.51,4.19c3.87,0,6.59-1.32,7.53-6.16
		c0.62-3.23,1.42-6.33,3.33-9.15c2.39-3.54,4.23-7.44,7.51-10.34c1.51-1.34,2.81-2.91,4.61-4.8
		C804.63,498.5,798.71,498.5,792.47,498.5z M427.91,561.89c0.68,0.96,1.03,1.75,1.63,2.23c2.57,2.05,5.26,3.96,7.81,6.03
		c2.49,2.03,5.74,2.74,8.14,5.02c2.03,1.93,4.7,2.74,7.54,2.91c0.93,0.06,1.84,0.58,2.75,0.9c3.09,1.07,6.13,1.82,8.75-1.07
		c0.44-0.48,0.98-0.91,1.55-1.22c1.6-0.89,2.22-2.23,2.4-4.04c0.1-0.95,0.68-2.08,1.42-2.69c1.31-1.08,1.42-2.33,0.68-3.49
		c-1.45-2.25-1.59-5.32-4.32-6.8c-0.46-0.25-0.56-1.13-0.85-1.71c-1.29-2.6-5.72-4.5-7.49-2.69c-2.68,2.73-5.7,4.23-9.3,4.92
		c-0.1,0.02-0.2,0.1-0.28,0.17c-2.61,2.42-5.73,2.33-8.97,1.9c-3.04-0.4-6.1-0.67-9.16-0.92C429.61,561.29,429,561.61,427.91,561.89
		z M389.79,306.88c2.46-1.54,1.99-3.23,1.92-4.61c-0.67-11.68,1.23-23.24,1.51-34.87c0.01-0.33,0.08-0.65,0.12-0.98
		c0.77-6.09,1.58-12.18,2.27-18.28c0.24-2.06,0.33-4.17,0.21-6.24c-0.06-0.95-0.78-1.87-1.21-2.8c-0.84,0.56-1.98,0.94-2.46,1.72
		c-1.13,1.83-1.64,4.1-2.95,5.76c-2.27,2.88-3.19,6.06-3.87,9.59c-1.23,6.31-1.63,12.58-0.83,18.93c0.57,4.46,1.13,8.93,1.83,13.37
		c0.37,2.36,0.62,4.87,1.67,6.94c1.09,2.14,1.77,4.21,1.79,6.55C389.8,303.38,389.79,304.78,389.79,306.88z M567.56,556
		c-1.33,3.77-0.97,6.01,1.01,8.47c0.54,0.67,1.36,1.59,1.23,2.23c-0.57,2.84,0.7,5.37,1.15,8c1.09,6.43,3.26,12.37,8.82,16.47
		c0.78,0.57,1.39,1.39,2.01,2.16c1.82,2.27,4.54,2.98,6.94,1.76c1.78-0.9,4.23-5.61,3.6-7.31c-0.56-1.49-1.18-2.89-3.35-3.07
		c-4.8-0.4-6.19-2.22-6.47-6.93c-0.2-3.27-0.75-6.53-1.28-9.77c-0.13-0.79-0.63-1.67-1.23-2.21c-3.08-2.78-6.22-5.51-9.41-8.17
		C569.73,556.95,568.61,556.56,567.56,556z M738.18,491.87c0.28,0.02,0.55,0.04,0.83,0.06c0.45-1.45,0.98-2.88,1.33-4.35
		c0.66-2.76,1.14-5.57,1.82-8.33c2-8.16,4.08-16.3,6.08-24.46c0.33-1.37,0.52-2.85-1.36-3.75c-2.99,1.94-5.84,4.18-9.03,5.74
		c-2.6,1.27-3.1,3.22-3.02,5.59c0.07,1.96,0.51,3.91,0.74,5.87c0.78,6.83,2.99,13.51,1.97,20.53
		C737.4,489.75,737.95,490.83,738.18,491.87z M749.86,425.61c-5.53,7.51-9.85,15.4-13.05,23.87c-0.54,1.42,0.7,2.63,2.2,2.17
		c0.81-0.25,1.53-0.81,2.26-1.27c1.76-1.1,3.39-2.61,5.3-3.23c1.98-0.65,2.6-1.75,2.67-3.54
		C749.46,437.61,749.66,431.61,749.86,425.61z M571.31,550.91c8.2,7.55,15.95,14.69,23.68,21.8c0-0.54,0.18-1.25-0.03-1.81
		c-0.66-1.73-1.67-3.34-2.19-5.1c-2.01-6.89-7.42-10.92-12.72-14.87C577.69,549.17,574.55,549.23,571.31,550.91z M753.72,359.28
		c-1.11,0.52-1.75,0.61-2.04,0.99c-1.79,2.31-3.53,4.66-5.23,7.04c-0.5,0.7-0.86,1.52-1.26,2.29c-1.44,2.78-0.92,4.77,1.42,6.89
		c1,0.91,1.85,2.16,2.34,3.42c0.71,1.82,0.97,3.81,1.53,5.7c0.21,0.73,0.71,1.37,1.26,2.41
		C754.46,378.37,753.83,369.12,753.72,359.28z M741.31,527.59c0.33-0.03,0.66-0.06,0.99-0.09c0-1.35,0.34-2.81-0.08-4.01
		c-0.66-1.88-0.23-3.28,0.66-4.95c1-1.88,1.89-4,2.07-6.09c0.41-4.89,0.48-9.77,2.09-14.51c1.44-4.23,2.36-8.64,3.73-12.9
		c1.29-4.04,1.32-7.97-0.11-12.28c-0.93,3.4-1.86,6.42-2.58,9.5c-1.07,4.55-1.26,9.27-2.89,13.74c-0.92,2.53-1.18,5.29-1.8,7.94
		c-0.56,2.44-1.2,4.85-1.8,7.28c-0.69,2.77-1.34,5.54-0.6,8.43c0.14,0.55-0.18,1.28-0.44,1.86
		C739.52,523.75,740.09,525.71,741.31,527.59z M359.33,355.31c0.32,0.03,0.64,0.05,0.96,0.08c-0.46-12.66-0.95-25.32-2.86-37.93
		c-0.41,0.34-0.62,0.7-0.69,1.08c-1.17,6.44-0.81,12.92-0.28,19.37c0.2,2.39,0.1,5.35,1.44,6.98c1.9,2.3,1.29,4.51,1.42,6.83
		C359.38,352.91,359.33,354.11,359.33,355.31z M539.12,486.02c1.96-5.07-1.77-8.72-2.81-13c-2.29-1.38-2.89-4.89-6.96-5.34
		C531.47,474.87,534.18,480.98,539.12,486.02z M779.14,503.59c-0.17-0.17-0.33-0.34-0.5-0.51c-7.86,3.13-13.97,8.87-20.63,13.78
		c-1.02,0.75-1.84,1.85-2.55,2.93c-0.29,0.45-0.05,1.25-0.05,2.55C763.72,515.77,771.43,509.68,779.14,503.59z M569.02,542.19
		c-2.18-3.74-5.44-5.44-8.21-7.59c-1.2-0.93-2.76,0.14-2.33,1.47c0.85,2.6,2.06,5.09,3.13,7.64
		C564.21,543.17,566.33,542.74,569.02,542.19z M743.93,580.6c-0.08,6.17,0.78,9.06,3.41,10.66
		C747.48,587.2,746.31,583.84,743.93,580.6z M544.97,739.08c3.45,2.82,3.86,2.89,6.64,1.26
		C549.05,739.85,547.01,739.47,544.97,739.08z"/>
	<path d="M310.53,0.51c-2.45,0.42-4.91,0.84-7.36,1.27c-9.81,1.75-19.62,3.55-29.44,5.24c-4.85,0.83-9.76,1.34-14.6,2.23
		c-3.86,0.71-7.65,1.79-11.47,2.71c-0.74,0.18-1.48,0.41-2.23,0.54c-7.44,1.26-14.88,2.52-22.33,3.74
		c-4.11,0.68-8.25,1.21-12.34,1.96c-3.98,0.73-7.92,1.69-11.89,2.46c-1.28,0.25-2.61,0.22-3.92,0.32c0-5.5,0-11.01,0-16.51
		c6.96,0.22,13.75,1.42,20.36,3.57c7.12,2.32,14.42,3.29,21.76,1.73c7.27-1.54,14.4-3.69,21.6-5.55c2.54-0.65,5.1-1.2,7.64-1.83
		c2.42-0.6,4.82-1.26,7.23-1.89C285.87,0.51,298.2,0.51,310.53,0.51z"/>
	<path d="M676.01,777.75c-0.7,0.81-0.97,1.12-1.25,1.45c-0.27,0.32-0.53,0.63-1.09,1.29c1.27,0.4,2.24,0.7,3.61,1.14
		c-0.94,0.86-1.73,1.59-2.81,2.57c1.25,0.81,2.32,1.49,3.38,2.21c0.96,0.65,1.89,1.33,3.04,2.15c-1.48,1.45-2.57,2.47-4.52,1.72
		c-0.66-0.25-1.63,0.09-2.39,0.35c-0.85,0.29-1.63,0.81-2.61,1.31c0.41-5.3,0.77-10.14,1.18-15.46
		C673.62,776.87,674.65,777.25,676.01,777.75z"/>
	<path d="M284.02,769.53c0,1.7-2.49,4.35-3.98,4.22c-1.01-0.09-2.63-2.62-2.7-4.21c-0.06-1.46,2.07-3.34,3.87-3.41
		C282.77,766.07,284.02,767.58,284.02,769.53z"/>
	<path d="M253.29,733.36c2.1-0.39,3.45-0.64,4.32-0.8c1.52,1.3,2.67,2.32,3.86,3.3c1.08,0.89,0.99,1.95,0.28,2.89
		c-0.8,1.06-2.36,1.15-2.79,0.14c-0.8-1.87-2.56-2.18-3.86-3.21C254.56,735.25,254.21,734.57,253.29,733.36z"/>
	<path d="M345.18,240.06c1.89-4.35,5.57-7.39,8.27-11.15c0.22-0.31,0.92-0.27,1.47-0.4C354.82,231.62,349.95,237.58,345.18,240.06z"
		/>
	<path d="M310.71,639.89c-0.04,4.24-1.65,5.94-4.32,5.18c-1.42-0.4-1.86-1.36-1.83-2.69c0.03-1.39,0.63-2.35,2.07-2.47
		C307.98,639.81,309.35,639.89,310.71,639.89z"/>
	<path d="M795.74,676.89c-1.99-0.44-2.81-1.35-3.31-3.27c-0.5-1.94-2.11-3.6-3.66-6.06c0.11-0.12,0.69-0.79,1.27-1.44
		C793.59,669.51,796.04,674.25,795.74,676.89z"/>
	<path d="M778.57,752.22c2.76,2.02,2.8,8.23,0.08,11.03C777.09,758.25,777.09,758.25,778.57,752.22z"/>
	<path d="M777.86,732.66c3.63-0.28,4.62,0.98,3.39,3.82c-0.3,0.7-0.44,1.52-0.89,2.1c-0.42,0.54-1.14,0.85-1.73,1.26
		c-0.37-0.71-0.97-1.39-1.06-2.13c-0.1-0.83,0.34-1.71,0.41-2.57C778.05,734.39,777.92,733.63,777.86,732.66z"/>
	<path d="M362.74,217.5c1.22-2.5,2.29-4.66,3.5-7.14c0.65,0.36,1.66,0.64,2.2,1.3c0.41,0.51,0.59,1.85,0.24,2.23
		C367.2,215.5,365.64,217.19,362.74,217.5z"/>
	<path d="M701.07,763.88c-1.38,4.34-4.33,0.41-6.29,3.06c-0.21-1.95-0.65-3.09-0.29-3.85c0.23-0.47,1.71-0.6,2.56-0.46
		C698.37,762.85,699.64,763.42,701.07,763.88z"/>
	<path d="M767.1,727.48c0.88,3.67-3.17,2.41-3.29,4.69c-2.22-1.77-2.24-2.76-0.31-3.59C764.56,728.12,765.72,727.89,767.1,727.48z"
		/>
	<path d="M682.71,774.9c-0.28,1.66-0.48,2.79-0.78,4.57c-1.57-1.11-2.71-1.93-3.88-2.75C678.62,773.6,680.75,775.4,682.71,774.9z"/>
	<path d="M785.28,776.75c-1.48,0.8-2.29,1.51-3.18,1.64c-1.09,0.15-1.92-0.57-1.75-1.82c0.17-1.24,0.95-2.13,2.24-1.83
		C783.35,774.93,783.98,775.75,785.28,776.75z"/>
	<path d="M705.03,763.99c-1.36-1.83-1.11-3.68-1.03-5.47c0.01-0.3,0.51-0.77,0.83-0.81c0.32-0.04,0.97,0.32,1,0.57
		C706.06,760.12,706.72,762.06,705.03,763.99z"/>
	<path d="M688.16,774.88c1.65,0,3.15,0,4.94,0c0.06,1.39,0.11,2.55,0.2,4.4C691.31,777.57,689.94,776.4,688.16,774.88z"/>
	<path d="M734.72,781.56c0.53,3.59-0.02,4.01-3.8,3C731.45,782.51,733.35,782.49,734.72,781.56z"/>
	<path d="M875.03,606.52c0.75,1.81,1.5,3.61,2.26,5.44C874.5,611.24,873.67,609.67,875.03,606.52z"/>
	<path d="M662.35,586.75c-0.18,0.36-0.32,0.54-0.36,0.74c-0.66,3.51-3.65,4.89-5.5,2.13c-2.83-4.23-7.18-7.06-9.63-11.51
		c-0.16-0.29-0.34-0.57-0.45-0.88c-0.91-2.59-1.53-5.32-2.78-7.73c-1.25-2.4-3.12-4.48-4.84-6.87c1.89-2.67,4.58-3.84,7.25-5.03
		c0.37-0.17,1.01-0.26,1.27-0.05c2.5,1.95,6.06,1.94,8.24,4.58c1.02,1.24,2.43,2.27,3.84,3.07c3.8,2.16,7.67,4.22,11.58,6.17
		c2.81,1.4,4.28,3.19,4.17,6.65c-0.16,4.92,0.57,9.86,0.56,14.8c-0.01,5.9-1.18,11.56-5.05,16.33c-1.55,1.91-3.39,2.32-5.43,0.93
		c-1.39-0.95-2.7-1.63-4.5-1.7c-0.95-0.03-1.81-1.4-2.81-1.99c-4.34-2.57-8.65-5.18-13.08-7.57c-5.73-3.09-10.13-7.75-14.15-12.61
		c-1.98-2.38-2.95-5.89-3.58-9.04c-1.79-8.97,0.91-17.37,4.11-25.61c0.97-2.49,3.5-3.2,5.55-4.41c1.22-0.72,2.56-1.24,3.86-1.83
		c1.58-0.72,3.37-0.39,4.16,0.78c1.01,1.5-0.15,2.59-0.96,3.48c-1.17,1.28-2.54,2.49-4.03,3.35c-4.28,2.48-5.72,6.31-5.75,10.98
		c-0.01,1.07-0.2,2.18-0.52,3.21c-1.89,6.09-0.94,11.94,2.66,16.92c2.18,3.03,5.47,5.41,8.63,7.56c5.05,3.44,10.41,6.43,15.63,9.63
		c1.93,1.18,4.17,2.45,6.15,1.22c2.1-1.31,2.68-3.89,2.49-6.44c-0.06-0.76-0.22-1.53-0.16-2.28c0.31-4.15-0.38-5.29-4.16-6.66
		c-0.51-0.19-1.04-0.34-1.58-0.45C662.97,586.58,662.75,586.68,662.35,586.75z M664.44,576c-0.77,2.37,0.28,3.24,1.77,3.6
		c0.58,0.14,1.31-0.41,1.98-0.64c-0.26-0.65-0.33-1.54-0.81-1.88C666.63,576.55,665.62,576.4,664.44,576z"/>
	<path d="M671.31,687.53c-1.03,0.52-2.03,1.25-3.14,1.53c-2.11,0.54-3.71,1.46-5.03,3.35c-1.5,2.15-4.75,2.42-7.13,1.3
		c-1.14-0.54-2.42-0.8-3.64-1.16c-1.56-0.47-3.13-0.93-4.7-1.37c-0.52-0.15-1.26-0.51-1.56-0.29c-2.99,2.19-6.4,0.5-9.56,1.09
		c-2.57,0.48-5.23,0.53-7.86,0.62c-1.52,0.06-3.08-0.05-4.58-0.3c-4.6-0.75-7.22,0.33-9.63,4.36c-0.6,1-1.07,2.12-2.41,1.63
		c-0.85-0.31-2.02-1.03-2.14-1.72c-0.2-1.16-0.1-3.09,0.62-3.56c2.05-1.34,2.58-2.95,2.53-5.24c-0.06-2.68,2.17-4.29,4.97-3.84
		c7.97,1.29,15.95,1.01,23.95,0.28c2.94-0.27,5.93,0.06,8.89,0.02c1.34-0.02,2.83,0.85,4-0.6c0.19-0.23,0.95-0.35,1.15-0.18
		c2.36,2.08,4.79,0.73,7.21,0.25c0.32-0.07,0.63-0.18,0.96-0.26C668.27,682.48,669.47,683.14,671.31,687.53z"/>
	<path d="M696.13,743.39c-3.62,1.06-7.02,1.1-11-2.02c1.36-0.73,2.4-1.29,3.83-2.07c0.8,0.83,1.74,2.23,3.04,3.02
		C693.17,743.02,694.74,743.05,696.13,743.39z"/>
	<path d="M708.09,731.91c0.38,1.64,0.64,2.78,0.9,3.91c-1.5,0.25-2.99,0.5-4.49,0.75c-0.08-0.21-0.16-0.41-0.24-0.62
		C705.38,734.79,706.49,733.61,708.09,731.91z"/>
</g>
</svg>
