<?xml version="1.0" encoding="utf-8"?>
<!-- Generator: Adobe Illustrator 24.1.0, SVG Export Plug-In . SVG Version: 6.00 Build 0)  -->
<svg version="1.1" id="Layer_1" xmlns="http://www.w3.org/2000/svg" xmlns:xlink="http://www.w3.org/1999/xlink" x="0px" y="0px"
	 viewBox="0 0 1224 792" style="enable-background:new 0 0 1224 792;" xml:space="preserve">
<path d="M388.76,299.26c1.16-1.6,1.86-2.39,2.37-3.29c5.75-10.09,11.4-20.24,17.24-30.28c1.84-3.16,4.42-5.87,5.27-9.59
	c0.14-0.63,0.8-1.17,1.3-1.67c5.85-5.84,9.96-12.9,14.03-19.99c1.95-3.39,3.75-6.93,6.13-10c4.61-5.95,7.01-12.89,9.33-19.83
	c1.87-5.59,3.64-11.24,5.33-16.88c1.92-6.41,5.28-11.73,9.56-16.65c0.23-0.27,0.52-0.51,0.69-0.81
	c4.58-8.23,11.44-14.17,19.22-19.18c4.89-3.15,9.88-6.14,14.75-9.32c3.47-2.27,6.73-4.88,10.24-7.09c4.92-3.09,9.93-6.06,15.02-8.89
	c8.62-4.79,17.28-9.5,25.99-14.11c10.21-5.4,20.9-9.71,31.89-13.22c5.52-1.76,11.16-3.17,16.69-4.92
	c12.6-3.99,25.56-6.43,38.42-9.29c3.48-0.77,6.88-1.86,10.33-2.78c7.44-1.98,14.89-3.96,22.34-5.91c5.29-1.38,10.54-3,15.9-4.01
	c9.93-1.86,19.97-3.13,29.88-5.05c9.97-1.93,20.1-1.77,30.13-2.87c2.24-0.25,4.46-0.72,6.69-1.08c7.05-1.13,14.11-1.91,21.27-1.82
	c6.17,0.08,12.35-0.45,18.52-0.28c7.95,0.21,15.93,0.54,23.83,1.42c5.18,0.58,10.09,2.62,14.66,5.3c3.47,2.03,7.24,3.63,10.48,5.97
	c3.64,2.62,7.08,5.63,10.17,8.88c7.76,8.16,15.93,15.91,23.09,24.69c5.21,6.39,10.9,12.49,17.76,17.35c2.69,1.9,4.88,4.5,7.37,6.68
	c9.46,8.28,18.94,16.52,28.43,24.76c8.74,7.6,15.72,16.33,19.04,27.74c1.55,5.33,4.19,10.34,5.87,15.64
	c1.89,5.95,4.63,11.61,5.54,17.9c0.63,4.31,1.73,8.59,3,12.77c1.38,4.58,0.39,9.19,0.73,13.78c0.22,3.05-0.24,6.16-0.39,9.24
	c-0.17,3.56-0.47,7.12-0.46,10.68c0.01,3.68,0.26,7.37,0.51,11.04c0.7,10.31,1.26,20.64,2.24,30.93c0.91,9.61,1.38,19.21,1.11,28.85
	c-0.07,2.49-0.43,4.98-0.44,7.47c-0.02,3.2,0.21,6.39,0.29,9.59c0.14,5.59,0.18,11.18,0.41,16.76c0.32,7.82,0.92,15.63,1.12,23.45
	c0.23,8.9,0.87,17.81-0.83,26.68c-1.36,7.09-1.81,14.38-3.53,21.37c-1.95,7.95-2.12,15.97-2.8,24.01
	c-0.53,6.23-1.89,12.4-2.93,18.58c-0.51,3.07-0.54,3.09,2.41,3.97c0.46,0.14,0.91,0.41,1.36,0.4c3.69-0.09,5.97,1.39,5.81,5.72
	c1.43,0.06,2.58,0.2,3.71,0.15c1.88-0.09,3.04,0.73,4.05,2.31c2.62,4.1,5.71,7.72,10.22,10c1.33,0.67,2.46,2.13,3.22,3.48
	c1.38,2.47,4.18,4.09,4.04,7.55c-0.07,1.64,1.59,3.33,1.62,5.01c0.12,5.52,0.74,11.12-1.42,16.47c-0.21,0.53-0.3,1.17-0.25,1.74
	c0.48,6.16,1.03,12.31,0.8,18.5c-0.04,1.17,0.02,2.44,0.42,3.53c1.88,5.2,0.87,10.26-0.48,15.33c-0.61,2.29-1.18,4.48-2.79,6.45
	c-1.21,1.48-1.59,3.64-2.31,5.5c-0.98,2.52-1.9,5.07-2.92,7.57c-0.21,0.51-0.67,1.06-1.15,1.3c-4.44,2.14-8.45,4.85-13.65,5.75
	c-7.28,1.25-14.17,0.59-21.1-1.23c-2.12-0.56-4.07-1.75-6.37-2.77c-0.28,0.84-0.7,1.47-0.67,2.08c0.19,4.3-1.74,8.06-2.95,12
	c-0.2,0.66-0.67,1.25-1.09,1.82c-1.57,2.15-3.07,2.26-4.98,0.33c-0.49-0.49-0.78-1.18-1.23-1.72c-1.04-1.23-1.92-1.09-2.55,0.47
	c-1.9,4.68-3.61,9.45-5.7,14.05c-1.31,2.87-2.82,5.8-4.86,8.15c-3.13,3.6-6.11,7.37-8.09,11.6c-4.72,10.06-10.26,19.78-13.61,30.44
	c-0.74,2.35-0.52,5.03-1.37,7.32c-2.76,7.42-7.26,13.76-12.49,19.7c-3.75,4.25-7.9,6.58-13.7,6.88c-5.78,0.3-11.56,1.43-17.24,2.65
	c-4.98,1.06-9.92,2.49-14.71,4.21c-14.84,5.32-30.08,8.02-45.84,7.12c-4.25-0.24-8.44-1.42-12.69-1.72
	c-8.03-0.57-16.09-0.98-24.14-1.14c-4.5-0.08-9.02,0.38-13.52,0.79c-9.81,0.91-19.61,1.94-29.42,2.93
	c-0.35,0.04-0.71,0.09-1.05,0.19c-8.03,2.56-16.01,5.25-24.09,7.64c-4.19,1.24-8.49,2.41-12.81,2.83c-8.27,0.8-16.6,0.89-24.88,1.55
	c-9.1,0.73-18.16,1.8-27.25,2.64c-1.89,0.18-3.83,0.22-5.7-0.02c-9.1-1.18-18.25-0.67-27.35-1.14c-11.34-0.59-22.81-0.43-34-3.26
	c-3.15-0.8-6.58-0.57-9.88-0.71c-3.79-0.16-7.5-0.3-11.11-1.95c-3.74-1.7-7.77-2.79-11.67-4.15c-0.22-0.08-0.45-0.29-0.64-0.26
	c-6.67,0.94-12.08-2.71-17.88-4.9c-3.65-1.38-7.12-3.24-10.81-4.48c-3.25-1.09-5.01-3.5-6.54-6.18
	c-6.81-11.94-12.61-24.38-17.99-37.02c-2.68-6.31-4.93-12.81-7.42-19.2c-3.47-8.91-6.98-17.81-10.5-26.71
	c-0.21-0.54-0.61-1.01-0.89-1.53c-3.44-6.5-6.79-13.04-10.33-19.47c-1.88-3.42-4.04-6.69-6.17-9.96c-2.46-3.78-4.93-7.56-7.58-11.2
	c-1.3-1.79-3.07-3.23-4.54-4.9c-1.39-1.58-3.01-3.08-3.93-4.92c-2.01-4.02-3.48-8.32-5.48-12.35c-1.58-3.17-3.59-6.13-5.49-9.14
	c-0.33-0.52-1.03-0.8-1.85-1.42c-0.43,2.19-0.87,4-1.14,5.83c-0.36,2.47-1.41,4.47-3.33,6.1c-2.52,2.15-4.77,4.64-7.43,6.58
	c-1.88,1.37-4.24,2.08-6.39,3.08c-2.7,1.25-5.41,2.48-8.09,3.75c-2.36,1.13-4.69,1.15-7.27,0.57c-3.68-0.83-7.47-1.48-11.24-1.58
	c-4-0.11-6.8-1.64-8.84-4.96c-2.17-3.54-4.63-6.92-6.52-10.6c-2.6-5.07-6.39-9.07-10.32-13.07c-1.96-1.99-3.66-4.4-4.88-6.92
	c-2.16-4.45-4.38-8.89-5.43-13.85c-1.16-5.43-2.9-10.72-4.26-16.11c-0.4-1.59-0.53-3.3-0.49-4.95c0.18-7.61,1.17-15.1,2.82-22.56
	c1.22-5.52,1.52-11.25,2.21-16.88c0.13-1.06-0.08-2.21,0.24-3.19c1.66-5.09,0.57-10.12-0.07-15.18c-0.36-2.81-1.27-5.99,1.88-7.72
	c2.86-1.57,4.97,1.02,6.92,2.43c3.43,2.45,6.46,5.45,9.67,8.2c0.35,0.3,0.76,0.64,1.18,0.72c2.24,0.44,4.4,0.71,4.97,3.67
	c0.19,0.98,1.68,0.86,2.12-0.34c1.36-3.74,2.75-7.49,0.72-11.51c-0.37-0.72-0.19-1.86,0.04-2.72c0.7-2.58,0.72-5.01,0.03-7.68
	c-0.7-2.69-0.56-5.62-0.64-8.44c-0.1-3.33,0.07-6.67-0.09-10c-0.11-2.35-0.59-4.68-0.85-7.03c-0.15-1.4-0.33-2.84-0.22-4.23
	c0.24-3.07,0.56-6.14,1.03-9.18c0.78-5.03,1.77-10.04,2.57-15.07c0.52-3.27,0.96-6.57,1.29-9.87c0.69-6.89,2.61-13.49,4.38-20.15
	c0.88-3.31,1.16-6.78,1.89-10.13c0.88-4.06,1.71-8.15,2.98-12.09c2.14-6.63,4.5-13.2,6.99-19.71c1.39-3.64,2.76-7.44,5-10.55
	c4.03-5.59,4.98-11.91,5.8-18.38c0.81-6.36,1.69-12.71,2.38-19.09c0.44-4.12,0.16-8.35,0.97-12.38c1.34-6.61,3.01-13.27,9.91-16.7
	c1.64-0.82,2.85-0.24,3.58,1.18c0.91,1.79,1.88,3.65,2.25,5.59c0.97,5.13,1.93,10.29,2.32,15.49c0.41,5.48-1.83,10.48-4.19,15.3
	c-1.2,2.45-2.88,4.67-4.02,7.14c-0.82,1.78-1.53,3.8-1.56,5.72c-0.06,3.67,0.35,7.35,0.66,11.02
	C387.7,297.03,388.16,297.72,388.76,299.26z M393.99,326.55c-0.73,2.09-1.39,3.4-1.63,4.77c-0.55,3.21-2.31,6.18-1.38,9.74
	c0.34,1.32-0.61,3.2-1.44,4.53c-0.95,1.52-1.75,2.94-2.12,4.77c-0.89,4.41-2.25,8.72-3.22,13.11c-0.89,4.05-1.52,8.16-2.26,12.25
	c-0.78,4.3-1.43,8.63-2.36,12.9c-0.98,4.5-2.27,8.93-3.37,13.4c-0.67,2.75-1.1,5.57-1.87,8.29c-0.66,2.34-2.69,3.29-4.72,2.53
	c-1.8-0.67-2.44-3.05-1.41-5.12c0.68-1.37,1.56-2.7,1.94-4.15c1.29-4.92,2.19-9.95,3.63-14.83c2.28-7.7,2.75-15.68,3.45-23.55
	c0.79-8.86,0.26-17.84,0.22-26.77c-0.01-1.39-0.25-2.87-0.76-4.16c-1.93-4.85-3.64-9.75-4.52-14.91c-0.4-2.35-0.71-4.65,0.39-6.98
	c0.48-1.02,0.36-2.31,0.51-3.49c-0.78,0.2-1.02,0.45-1.17,0.74c-5.12,9.84-7.64,20.64-11.31,31.01c-1.29,3.65-1.64,7.63-2.55,11.42
	c-1.22,5.07-2.77,10.06-3.8,15.17c-0.82,4.06-1.09,8.23-1.6,12.35c-0.35,2.83-0.63,5.66-1.09,8.47c-0.75,4.54-2.11,9.04-2.33,13.6
	c-0.4,8.43-0.19,16.9-0.16,25.35c0,1.28,0.38,2.56,0.62,3.84c0.72,3.94,1.65,7.85,2.11,11.82c0.29,2.47,1.69,4.96,0.26,7.53
	c-0.14,0.24-0.03,0.78,0.16,1.02c1.33,1.66,0.99,3.6,1.01,5.47c0.01,1.59,0.44,2.8,2.3,2.88c1.07-0.73,2.1-1.44,3.14-2.15
	c0.22,0.15,0.44,0.3,0.66,0.45c-1.24,2.71-2.48,5.42-3.62,7.91c0.54-0.06,1.62-0.17,2.54-0.27c-0.16,3.28-2.35,5.93-0.6,9.29
	c1,1.93-0.65,4.73-2.37,5.42c-1.81,0.73-4.3-0.26-5.52-2.35c-0.79-1.35-1.86-2.13-3.39-2.28c-1.38-0.14-2.76-0.23-3.79-0.32
	c-0.75-1.42-1.09-3.11-2.07-3.7c-1.87-1.11-2.55-2.79-2.73-4.55c-0.18-1.79-1.26-2.18-2.53-2.44c-0.89-0.18-1.85-0.04-2.81-0.04
	c-0.6-1.29-0.92-3.23-1.74-3.47c-2.02-0.59-2.73-2.01-3.7-3.5c-0.41-0.63-1.67-1.24-2.31-1.05c-0.64,0.19-1.23,1.34-1.38,2.15
	c-0.24,1.27-0.05,2.61-0.13,3.91c-0.23,3.64,0.56,7.29-0.87,10.92c-0.74,1.88,0.11,4.38-0.64,6.24c-0.98,2.41-1.21,4.78-1.35,7.27
	c-0.06,0.94-0.23,1.9-0.54,2.78c-1.87,5.21-2.35,10.64-2.59,16.1c-0.13,2.84-0.49,5.8,0.14,8.5c1.55,6.67,3.69,13.2,5.43,19.84
	c1.42,5.4,3.96,10.13,7.83,14.11c6.22,6.41,11.04,13.88,16.05,21.19c2.31,3.37,4.9,5.59,9.34,4.98c1.57-0.22,3.28,0.35,4.88,0.72
	c3.67,0.84,7.34,1.17,10.82-0.54c3.84-1.88,7.63-3.87,11.35-5.99c6.72-3.83,10.08-11.56,8.23-18.89c-0.98-3.91-2.16-7.78-3.29-11.65
	c-0.65-2.23,0.24-4.49,2.04-5c1.79-0.51,4.47,1.22,4.67,3.43c0.49,5.6,3.59,10.04,6.47,14.47c3.73,5.73,7.98,11.08,10.3,17.68
	c1.16,3.29,2.86,6.66,5.16,9.24c5.97,6.71,10.16,14.6,15.39,21.79c0.84,1.15,1.86,2.2,2.51,3.44c3.22,6.18,6.1,12.54,9.54,18.58
	c5.3,9.31,8.8,19.38,12.88,29.2c4.4,10.59,8.37,21.37,12.92,31.9c3.38,7.82,7.35,15.39,11.09,23.05
	c3.34,6.84,8.23,11.88,15.92,13.67c0.8,0.19,1.53,0.68,2.32,0.91c5.43,1.61,10.58,4.3,16.52,3.97c1.58-0.09,3.24,0.63,4.82,1.11
	c4.38,1.32,8.53,3.41,13.18,3.86c3.07,0.3,6.17,0.52,9.18,1.15c8.41,1.74,16.85,2.92,25.47,2.5c1.06-0.05,2.13,0.18,3.19,0.27
	c4.25,0.37,8.5,0.88,12.77,1.06c4.99,0.21,9.99,0.07,14.99,0.2c5.81,0.15,11.62,0.61,17.43,0.57c6.4-0.05,12.81-0.4,19.2-0.82
	c9.24-0.6,18.46-1.38,27.69-2.1c1.53-0.12,3.06-0.43,4.59-0.5c5.68-0.25,10.82-2.58,16.17-4.12c4.33-1.24,8.81-2.09,13-3.69
	c6.32-2.43,12.9-3.16,19.51-3.87c6.73-0.72,13.47-1.35,20.22-1.79c5.92-0.38,11.86-0.66,17.79-0.59c8.44,0.1,16.8,1.25,25.18,2.3
	c5.96,0.74,12.1,0.44,18.12,0.04c5.91-0.39,11.83-1.19,17.64-2.37c5.1-1.04,10.04-2.84,15.04-4.34c1.93-0.58,3.78-1.47,5.74-1.91
	c7.88-1.74,15.8-3.35,23.7-5.02c4.68-0.99,9.27-2.19,12.46-6.2c2.14-2.69,4.5-5.24,6.38-8.1c3.43-5.22,5.65-10.88,5.63-17.31
	c-0.01-1.81,0.63-3.75,1.43-5.4c2.54-5.19,5.23-10.29,7.3-15.73c1.35-3.55,1.99-7.43,4.46-10.61c0.82-1.05,0.89-2.99,0.72-4.46
	c-0.44-3.91-0.44-4.21,2.85-6.28c-0.15-0.5-0.29-1.06-0.47-1.6c-1.68-5.04-1.4-9.33,5.98-11.99c1.11-0.4,2.59-1.4,2.81-2.37
	c0.78-3.49,3.74-5.56,5.11-8.6c0.42-0.94,0.92-1.86,1.2-2.84c0.38-1.37,0.34-2.9,0.91-4.17c2.05-4.61,1.96-9.71,3.52-14.39
	c0.7-2.1,1.88-4.09,3.14-5.94c0.82-1.21,2.2-1.59,3.82-1.2c1.79,0.42,2.8,1.58,3.86,2.91c3.24,4.07,5.44,9.18,11.35,10.55
	c3.42,0.79,6.67,2.31,10.01,3.46c0.31,0.11,0.78,0.12,1.04-0.05c2.63-1.63,5.37-0.21,7.99-0.08c2.12,0.1,3.68,0.27,4.67-1.96
	c0.25-0.57,1.09-1.31,1.58-1.26c2.63,0.3,3.82-2.14,5.87-2.96c0.87-0.35,1.46-1.77,1.86-2.82c0.82-2.19,1.2-4.55,2.15-6.67
	c2.03-4.52,4.7-8.81,3.52-14.13c-0.45-2.03-0.86-4.09-0.98-6.16c-0.17-2.97,0.06-5.96-0.11-8.92c-0.11-1.85-0.79-3.66-0.97-5.51
	c-0.19-1.97-0.38-4.02-0.06-5.94c0.52-3.15,1.86-6.19,2.12-9.34c0.28-3.49,0.09-7.12-0.52-10.57c-0.8-4.48-3.83-7.83-7.06-10.82
	c-3.28-3.04-6.79-5.81-10.11-8.63c-7.84,3.91-11.05,11.07-14.57,17.85c-1.85,3.57-4.53,6.04-7.88,7.89
	c-2.15,1.19-3.83,0.57-5.3-1.38c-1.79-2.37-1.49-4.52,0.74-7.82c1.31-1.94,2.43-4.04,3.38-6.18c0.9-2.03,1.3-4.29,2.24-6.3
	c0.81-1.73,0.74-2.65-1.02-3.76c-2.6-1.64-2.75-3.16-1.25-5.98c0.45-0.84,0.91-1.66,1.38-2.49c3.7-6.48,6.01-13.35,6.02-20.9
	c0-1.06,0.2-2.13,0.36-3.18c0.8-5.39,1.61-10.78,2.43-16.16c1.13-7.39,2-14.83,3.47-22.15c1.64-8.18,2.88-16.39,3.04-24.71
	c0.09-4.49-0.65-9-0.69-13.5c-0.09-10.58-0.68-21.12-1.31-31.68c-0.58-9.72-0.05-19.51-0.08-29.27c-0.02-7.02,0.13-14.06-0.32-21.06
	c-0.58-8.87-2.08-17.69-2.47-26.57c-0.54-12.44-1.03-24.94-0.42-37.36c0.56-11.39-1.14-22.3-4.39-32.98
	c-2.96-9.73-6.77-19.22-10.44-28.72c-1.69-4.39-3.57-8.8-6.03-12.78c-4.11-6.63-10.28-11.41-16.19-16.36
	c-4.72-3.96-9.51-7.83-14.12-11.91c-5.95-5.28-11.75-10.73-17.62-16.1c-3.67-3.35-7.58-6.48-10.97-10.09
	c-5.67-6.05-10.92-12.47-16.5-18.6c-4.07-4.47-8.36-8.76-12.62-13.06c-1.66-1.67-3.37-3.38-5.34-4.65
	c-4.59-2.95-9.31-5.68-14.04-8.41c-1.64-0.95-3.39-1.73-5.16-2.41c-7.32-2.81-15.02-3.53-22.76-3.65c-9.4-0.14-18.81-0.01-28.21-0.1
	c-8.01-0.07-15.87,1.03-23.72,2.41c-3.73,0.66-7.53,0.96-11.32,1.18c-3.79,0.23-7.65-0.19-11.39,0.31
	c-8.34,1.12-16.61,2.78-24.94,3.94c-7.99,1.11-15.89,2.62-23.69,4.63c-12.88,3.31-25.71,6.78-38.6,10.04
	c-8.75,2.21-17.56,4.17-26.35,6.25c-2.66,0.63-5.36,1.12-7.96,1.95c-9.15,2.93-18.31,5.84-27.37,9.03
	c-5.46,1.92-10.88,4.08-16.09,6.59c-6.09,2.93-11.9,6.44-17.89,9.57c-11.48,5.99-22.85,12.13-33.51,19.55
	c-6.12,4.26-12.57,8.06-18.84,12.11c-6.47,4.18-12.87,8.38-17.8,14.52c-5.77,7.18-10.04,15.25-14.08,23.41
	c-2.13,4.3-3.07,9.19-4.48,13.83c-2.47,8.08-5.36,15.95-10.47,22.84c-2.19,2.95-4.15,6.07-6.07,9.2c-1.23,2.01-1.92,4.4-3.35,6.22
	c-4.82,6.11-7.88,13.2-11.46,20c-1.26,2.4-2.15,5-3.14,7.53c-1.16,2.98-2.12,6.06-3.39,8.99c-2.99,6.85-4.31,14-4.35,21.44
	c-0.01,1.15-0.44,2.3-0.84,4.24c-1.23-1.69-1.88-2.58-3-4.12c-1.02,2.55-1.88,4.54-2.62,6.58c-0.96,2.61-0.25,3.6,2.43,3.44
	c0.82-0.05,1.66-0.23,2.45-0.48c2.95-0.92,5.85-2.03,8.83-2.82c8.02-2.14,16.07-4.18,24.12-6.22c2.19-0.55,4.4-1.09,6.63-1.41
	c2.32-0.33,3.96,0.55,4.23,2.26c0.55,3.5,1.1,7.02,1.31,10.55c0.3,5.09,0.85,10.12,2.12,15.41c1.67,0,3.19,0.01,4.72,0
	c13.18-0.08,25.35,3.27,36.34,10.65c2.17,1.45,4.53,2.66,6.52,4.33c4.28,3.58,8.44,7.31,12.54,11.09
	c8.08,7.47,14.16,16.39,19.56,25.96c3.22,5.71,5.68,12.44,12.54,15.36c0.53,0.22,0.96,0.7,1.38,1.11c4.35,4.2,8.81,8.28,11.73,13.72
	c0.83,1.55,1.9,3.12,3.24,4.21c3.56,2.88,6.22,6.42,8.64,10.25c5.36,8.49,7.53,17.75,6.07,27.58c-0.74,4.99-0.8,9.92-1.02,14.9
	c-0.18,3.9,0.52,7.58,2.13,11.07c0.74,1.61,0.49,2.92-0.17,4.41c-1.76,4.02-3.33,8.12-5.18,12.09c-0.94,2.02-1.97,4.24-3.59,5.66
	c-5.32,4.69-9,10.72-13.66,15.92c-3.71,4.14-7.81,7.95-11.9,11.72c-2.35,2.16-5.09,3.88-7.55,5.92c-2.66,2.2-5.48,3.79-9.08,3.37
	c-4.71-0.55-9.42-1.11-14.12-1.68c-3.18-0.39-6.35-1.08-9.53-1.12c-3.29-0.04-6.35-0.16-8.97-2.53c-0.85-0.77-2.04-1.27-3.15-1.63
	c-7.14-2.25-14.3-4.43-21.46-6.62c-3.06-0.93-6.1-2.05-9.23-2.68c-9.81-1.97-18.98-5.22-26.42-12.27c-0.59-0.56-1.39-0.9-2.12-1.3
	c-3.02-1.65-6.01-3.34-9.07-4.9c-5.39-2.73-6.54-7.48-5.39-12.68c1.17-5.32,1.38-10.62,1.09-15.96c-0.23-4.37,0.97-8.45,1.87-12.6
	c0.31-1.44,1.32-2.75,2.14-4.03c0.96-1.49,2.3-2.77,3.07-4.34c2.44-4.99,4.69-10.08,7.01-15.13c0.83-1.8,1.7-3.58,2.47-5.4
	c0.41-0.97,0.99-2.04,0.89-3.01c-0.16-1.63,0.14-2.95,0.88-4.41c0.49-0.98,0.67-2.5,0.26-3.47c-1-2.39-1.63-4.59-0.03-6.97
	c0.2-0.3-0.35-1.06-0.47-1.62c-0.22-1.01-0.45-2.03-0.54-3.06c-0.1-1.16,0.06-2.34-0.09-3.49c-0.31-2.46-0.57-4.84,2.18-5.86
	c-0.78-2.72-1.49-5.19-2.27-7.9c3.42,1.14,8.25,0.28,10.43-1.82c0.77-0.74,0.99-2.06,1.78-2.76c3.4-3.05,7.15-5.74,10.32-9.01
	c2.93-3.02,6.37-4.9,10.17-6.34c1.31-0.5,2.71-0.77,4.55-1.28c-0.45-1.19-0.79-2.23-1.24-3.21c-1.53-3.33-3.32-6.57-4.6-9.99
	c-0.92-2.45-2.15-4.36-4.32-5.86c-3.06-2.11-5.5-4.78-7.1-8.27c-1.51-3.3-3.46-6.4-5.33-9.78c-2.16,0.17-4.29,0.28-6.4,0.52
	c-4.48,0.51-8.95,1.23-13.44,1.62c-5.42,0.47-10.61-0.91-15.81-2.29C406.85,333.16,399.61,332.34,393.99,326.55z M556.19,456.95
	c-0.37,0.07-0.73,0.14-1.1,0.21c-0.37,2.07-0.89,4.12-1.07,6.21c-0.36,4.01-1,8.09-0.57,12.03c0.21,1.9,0.15,3.51-0.22,5.32
	c-1.35,6.6-3.98,12.62-7.61,18.26c-2.75,4.27-5.4,8.6-8.04,12.94c-0.9,1.49-2.21,2.27-3.83,2.15c-8.7-0.67-17.62-0.03-25.47-5.24
	c-3.05-2.02-5.63-4.29-7.63-7.3c-5.9-8.88-11.8-17.75-17.71-26.62c-0.92-1.38-1.55-3.12-2.8-4.07c-3.88-2.98-5.25-7.17-6.42-11.58
	c-1.03-3.88-2.84-7.68-3.13-11.6c-0.35-4.74-1.83-8.73-4.52-12.48c-0.67-0.93-1.52-2.16-1.41-3.15c0.42-3.75,0.39-7.89,2.05-11.08
	c2.72-5.23,4.21-10.83,6.15-16.26c1.06-2.97,2.54-4.93,5.18-6.33c1.31-0.7,2.49-1.63,3.99-2.63c-0.83-0.79-1.25-1.39-1.83-1.71
	c-3.07-1.69-4.19-4.76-5.41-7.7c-0.72-1.74-1.09-3.64-1.58-5.47c-0.65-2.44-1.9-3.44-4.04-2.47c-3,1.37-6.31,2.68-8.55,4.94
	c-5.74,5.8-10.95,12.13-16.41,18.21c-2.65,2.95-3.71,6.27-2.79,10.19c0.16,0.68,0.14,1.42,0.09,2.12c-0.33,4.13-0.73,8.26-1.05,12.4
	c-0.36,4.66-1.15,9.17-3.74,13.23c-1.27,1.98-2.45,4.09-3.24,6.3c-2.08,5.87-5.03,11.23-8.62,16.3c-1.95,2.74-3,5.9-2.91,9.36
	c0.08,2.97,0.21,5.95,0.12,8.92c-0.1,3.07,0.05,6.27-0.81,9.15c-1.72,5.79-0.05,8.16,4.46,10.85c4.77,2.85,9.34,6.05,14.15,8.84
	c3.68,2.13,7.44,4.33,11.44,5.66c7.77,2.58,15.76,4.5,23.62,6.85c6.12,1.83,12.35,3.5,18.2,6.01c3.57,1.53,7.03,2.71,10.85,3.04
	c2.25,0.19,4.48,0.49,6.71,0.81c4.58,0.66,9.15,1.38,13.73,2.04c2.58,0.37,4.85-0.06,6.87-2.02c2.37-2.3,5.03-4.31,7.58-6.44
	c2.36-1.98,4.99-3.71,7.06-5.95c5.22-5.66,10.1-11.65,15.31-17.32c3.1-3.38,5.54-7.09,7.31-11.28c0.65-1.53,1.18-3.14,2.02-4.55
	c1.33-2.22,1.48-4.55,0.86-6.89c-2.26-8.47-1.37-17.02-0.44-25.5c0.79-7.21,0.9-14.22-2.21-20.93c-1.37-2.95-2.72-5.96-5.97-8.33
	c-1.36,4.92-2.79,9.41-3.79,13.99c-0.47,2.13-0.52,4.53-0.04,6.65c1.09,4.82,2.64,9.54,3.95,14.32c0.61,2.23-0.02,4.3-1.33,6.06
	c-0.45,0.61-1.69,1.11-2.39,0.93c-0.68-0.17-1.32-1.2-1.62-1.98c-0.28-0.73,0.05-1.67-0.12-2.47
	C557.13,460.23,556.62,458.6,556.19,456.95z M500.86,412.23c-0.41-0.07-0.83-0.14-1.24-0.21c-0.68,1.47-1.34,2.95-2.03,4.41
	c-2.26,4.81-4.35,9.72-6.83,14.41c-3.56,6.73-7.79,13.03-12.89,18.73c-0.47,0.52-0.77,1.54-0.63,2.21c1.05,4.88,2.3,9.67,5.27,13.86
	c4.38,6.18,8.67,12.42,12.83,18.74c3.31,5.04,6.36,10.27,9.56,15.38c0.36,0.58,0.97,1.01,1.49,1.49c3.34,3.04,7.6,4.34,11.71,5.72
	c3.33,1.12,6.98,1.26,10.45,2.01c2.75,0.59,4.58-0.43,5.97-2.71c1.05-1.72,2.04-3.52,3.35-5.03c3.8-4.36,6.31-9.47,8.53-14.7
	c1.04-2.45,1.65-5.27,1.69-7.93c0.08-5.24,0.27-10.4,1.42-15.56c1.31-5.87,0.81-12.1,3.31-17.78c0.16-0.37,0.02-0.95-0.12-1.38
	c-1.11-3.35-1.95-6.85-3.48-10c-2.42-4.99-5.3-9.77-8.06-14.6c-0.27-0.47-1.08-0.63-2.24-1.27c-0.95,6.18-2.21,11.85-2.61,17.59
	c-0.43,6.16-0.28,12.37-1.6,18.44c-0.96,4.39-2.03,8.77-3.26,13.09c-0.55,1.93-2.05,3.19-4.19,3.39c-2.06,0.2-2.35-1.47-3.12-2.81
	c-1.93-3.38-3.37-3.65-6.59-1.51c-1.84,1.22-3.27,0.99-4.17-0.77c-1.44-2.83-2.86-5.68-4.22-8.55c-1.77-3.73-3.39-7.54-5.22-11.24
	c-3.4-6.85-6.62-13.66-4.41-21.7c0.75-2.73,0.95-5.61,1.31-8.43C500.98,414.45,500.86,413.33,500.86,412.23z M455.05,334.62
	c1.85,4.33,3.35,8.35,6.24,11.56c0.24-0.08,0.47-0.16,0.71-0.25c-0.04-0.76-0.07-1.52-0.11-2.28c-0.05-1.18-0.47-2.52-0.06-3.5
	c0.37-0.88,1.58-1.61,2.57-1.91c0.4-0.12,1.52,0.95,1.76,1.66c1,2.92,2.28,5.86,2.53,8.87c0.3,3.7,2.59,4.9,5.35,6.24
	c3.3,1.6,6.73,3.16,9.57,5.41c6.38,5.06,13.42,9.4,18.41,16.07c1.01,1.35,2.25,2.26,4.01,2.66c2.56,0.59,4.02,2.38,4.3,5.06
	c0.06,0.55,0.21,1.09,0.49,2.47c1.25-1.44,2.04-2.44,2.91-3.36c2.31-2.43,3.45-2.46,5.86-0.13c2.7,2.61,5.78,4.39,9.9,4.85
	c-0.5-1.34-0.8-2.48-1.33-3.5c-3.72-7.15-7.85-14.04-13-20.27c-4.7-5.7-10.33-10.41-15.99-15.11c-8.57-7.12-18.12-12.09-29-14.4
	C465.34,333.74,460.41,333.26,455.05,334.62z M443.84,306.61c-5.19,0.83-10.39,1.37-15.44,2.55c-5.07,1.19-9.97,3.1-14.98,4.54
	c-3.98,1.15-7.99,2.19-12.03,3.05c-4.09,0.87-4.87,2.28-2.55,5.82c0.79,1.21,2.02,2.41,3.32,2.97c3.26,1.4,6.62,2.68,10.06,3.55
	c4.81,1.21,9.71,2.63,14.61,2.82c5.89,0.23,11.84-0.71,17.75-1.22c2.58-0.22,3.01-0.88,2.7-3.47c-0.43-3.53-1.12-7.05-1.2-10.59
	C445.99,313.25,445.76,310.02,443.84,306.61z M507.85,441.45c0.26-0.13,0.53-0.26,0.79-0.39c-0.14-2.33-0.29-4.66-0.42-6.99
	c-0.28-5.1-0.61-10.19-0.77-15.3c-0.03-1.08,0.24-2.83,0.91-3.14c1.95-0.92,2.07-2.75,2.86-4.27c0.92-1.78,1.66-3.71,2.86-5.28
	c2.01-2.63,4.82-2.74,7.42-0.73c1.99,1.54,3.12,3.44,3.39,6c0.17,1.67,0.77,3.29,1.29,5.38c2.73-2.1,3.13-4.83,4.3-7.06
	c1.85-3.51,1.63-4.44-1.14-7.15c-4.38-4.29-9.84-6-15.74-6.73c-1.4-0.17-2.4,0.34-2.9,1.52c-1.15,2.71-2.55,5.39-3.14,8.24
	c-1.57,7.54-2.8,15.14-4.09,22.74c-0.19,1.15-0.2,2.43,0.11,3.53c0.82,2.84,1.82,5.63,2.86,8.39
	C506.63,440.72,507.37,441.03,507.85,441.45z M483.43,411.25c-0.33-0.1-0.65-0.21-0.98-0.31c-1.02,0.93-2.21,1.72-3.02,2.8
	c-5.68,7.53-4.84,16.31-4.41,24.92c0.11,2.22,2.18,2.67,3.92,1.09c0.96-0.87,1.8-1.89,2.59-2.92c5.59-7.29,9.28-15.6,12.82-23.99
	c0.05-0.11-0.19-0.35-0.52-0.91c-1.2,2.25-2.1,4.44-3.45,6.31c-0.81,1.12-2.28,2.33-3.54,2.43c-1.79,0.15-2.32-1.66-2.52-3.28
	c-0.11-0.94-0.18-1.88-0.32-2.81C483.85,413.47,483.63,412.36,483.43,411.25z M389.69,242.36c-2.02,0.45-2.89,1.57-3.56,3.28
	c-2.05,5.27-2.5,10.86-3.46,16.34c-0.15,0.88,0.24,2.33,0.89,2.78c2.17,1.5,2.62,3.53,2.6,5.9c-0.01,1,0.16,2,0.27,3.25
	C393.21,266.73,394.94,254.95,389.69,242.36z M477.64,379.22c0.67,6.02,1.76,10.8,7.35,13.75c4.07-4.21,9.49-4.8,15.29-4.71
	c-1.97-1.34-3.95-2.67-6.02-2.85c-4.52-0.4-8.47-2.11-12.39-4.12C480.73,380.71,479.58,380.17,477.64,379.22z M473.69,360.93
	c0,0.74-0.07,1,0.01,1.19c0.14,0.32,0.3,0.74,0.57,0.88c3.4,1.68,4.33,4.91,5.83,8.08c2.98,6.32,9.33,7.12,16.16,8.39
	c-1.57-4.29-4.2-6.24-7.45-7.55c-0.87-1.46-1.79-3-3.14-3.83C481.78,365.71,478.44,362.29,473.69,360.93z M482.25,401.98
	c3.02,1.92,5.59,3.55,8.05,5.11c3.05-4.11,5.93-8,8.95-12.06c-2.48-0.99-4.69-1.76-7.03-0.58
	C488.39,396.36,485.23,399.13,482.25,401.98z M523.83,445.35c-0.68,1.54-1.52,3.05-2.01,4.66c-0.51,1.68-0.76,3.44-0.98,5.19
	c-0.12,1.01-0.37,2.45,0.16,3.02c1.63,1.76,3.61,3.19,6.19,5.37c0.94-4.51,1.75-8.05,2.36-11.61c0.11-0.64-0.43-1.56-0.94-2.09
	C527.3,448.49,525.83,447.23,523.83,445.35z M534.18,415.15c-0.8,0.58-1.41,0.81-1.64,1.23c-1.74,3.21-3.46,6.42-5.08,9.69
	c-2.1,4.24-0.73,10.39,2.98,13.64c0.23-0.25,0.64-0.47,0.68-0.74c1.04-6.99,2.06-13.99,3.04-20.99
	C534.27,417.21,534.18,416.41,534.18,415.15z M401.66,288.96c-0.3-0.15-0.59-0.3-0.89-0.45c-1.09,1.92-2.19,3.83-3.25,5.77
	c-1.87,3.41-3.54,6.94-5.61,10.23c-2.17,3.45-1.92,6.95-1.43,10.93c2.56-1.39,3.83-2.91,4.22-5.43c0.35-2.3,1.36-4.49,2.11-6.73
	C398.42,298.51,400.05,293.73,401.66,288.96z M548.8,411.94c2.28,6.93,4.38,13.32,6.69,20.34c0.8-2.53,2.32-4.28,1.67-6.69
	c-0.61-2.28-1.48-4.52-1.85-6.84C554.77,415.29,552.8,413.3,548.8,411.94z M383.1,342.75c0.44,0.01,0.87,0.02,1.31,0.03
	c0.55-9.79,0.56-19.57-0.48-29.34c-0.28,0-0.55,0.01-0.83,0.01C383.1,323.22,383.1,332.99,383.1,342.75z M376.86,324.24
	c0.53-3.32,0.89-6.63-0.06-9.9C374.46,317.71,376.75,320.94,376.86,324.24z M517.88,409.43c-0.64,0.84-1.15,1.33-1.44,1.92
	c-0.55,1.16-0.13,2.14,1.01,2.57c0.67,0.25,1.5,0.08,2.25,0.1c-0.12-0.85-0.14-1.72-0.38-2.53
	C519.17,410.97,518.68,410.54,517.88,409.43z"/>
<path d="M714.59,510.93c0.93,0.2,1.82,0.39,2.72,0.58c0,0.44,0.15,0.92-0.03,1.1c-0.73,0.75-1.45,1.6-2.36,2.06
	c-2.48,1.23-4.43,0.51-4.75-2.23c-0.33-2.88-0.17-5.95,0.49-8.78c1.48-6.34,3.18-12.66,5.19-18.85
	c4.56-14.02,10.23-27.56,18.84-39.65c4.07-5.71,8.5-11.18,14.16-15.44c1.48-1.11,3.23-2.07,5-2.57c8-2.25,16.02-4.45,24.1-6.39
	c7.47-1.79,15.12-1.75,22.72-1.24c6.51,0.44,13.1,0.83,19.44,2.24c7.37,1.63,14.83,1.79,22.22,2.81c7.42,1.03,14.84,2.26,21.71,5.47
	c2.89,1.35,5.59,3.13,8.37,4.72c3.24,1.85,3.73,5.4,4.96,8.4c1.25,3.05,2,6.31,3.03,9.46c2.85,8.75,4.51,17.65,4.39,26.92
	c-0.1,7.26-2.31,13.67-6.13,19.72c-4.4,6.98-7.6,14.4-8.36,22.79c-0.38,4.24-1.62,8.39-2.18,12.62c-0.37,2.8-0.78,5.79-0.19,8.47
	c2.07,9.47,2.83,19.01,2.34,28.65c-0.1,2.06-0.92,4.16-1.76,6.09c-3.77,8.69-8.83,16.55-15.92,22.91c-1.51,1.35-3.57,2.46-5.55,2.85
	c-4.88,0.97-9.85,1.93-14.8,2.02c-4.58,0.09-9.2-0.86-13.78-1.5c-5.52-0.77-11.03-1.62-16.52-2.61c-1.29-0.23-2.76-0.9-3.62-1.85
	c-6.58-7.2-12.29-15.05-16.91-23.67c-2.85-5.31-5.9-10.52-8.69-15.87c-2.53-4.85-6.45-8.35-11.15-10.67
	c-7.2-3.56-7.72-5.77-6.49-14.93c0.96-7.15,2.49-14.22,3.81-21.31c0.76-4.07,1.62-8.12,2.42-12.19c0.14-0.7,0.19-1.41,0.27-2.12
	c0.52-4.56-0.23-8.52-3.83-11.96c-3.55-3.39-4.19-7.72-2.25-12.47c0.93-2.26,1.21-4.81,1.65-7.25c0.64-3.61,1.15-7.25,1.74-10.88
	c0.49-3.04,2.61-5.08,4.76-6.88c5.39-4.5,11.33-8.23,17.64-11.32c6.82-3.34,13.7-6.56,20.5-9.92c1.32-0.65,2.42-1.76,4.05-2.97
	c-1.34-0.38-2.1-0.71-2.88-0.8c-7.72-0.87-15.39-0.89-23.02,0.89c-5.54,1.29-11.25,1.98-16.65,3.68c-4.48,1.41-8.68,3.79-12.88,5.97
	c-1.53,0.79-2.96,2.03-2.96,4.16c0,0.42-0.57,0.9-0.96,1.25c-1.93,1.71-4.13,3.17-5.8,5.11c-5.7,6.62-9.93,14.16-13.15,22.27
	c-2.18,5.51-4.61,10.94-6.49,16.55c-2.78,8.3-5.39,16.67-6.7,25.36C714.33,509.97,714.45,510.21,714.59,510.93z M807.27,432.81
	c-2.65-0.68-4.39-0.63-6.17,0.43c-2.65,1.58-5.28,3.44-8.19,4.28c-4.44,1.29-8.1,3.79-11.84,6.24c-2.96,1.94-6.02,3.77-8.83,5.91
	c-5.36,4.08-9.22,9.21-10.24,16.1c-0.64,4.34-1.39,8.67-1.91,13.03c-0.23,1.9,0.29,3.68,1.71,5.22c3.25,3.55,5.22,7.61,4.44,12.62
	c-1.15,7.36-2.25,14.73-3.44,22.08c-1.12,6.9-2.73,13.73-2.42,20.82c0.11,2.45,0.95,4.16,3.05,5.16
	c7.92,3.78,12.04,10.8,15.67,18.25c5,10.27,10.71,20.04,18.55,28.47c2.46,2.65,5.23,4.33,8.78,4.91c6.19,1.02,12.45,1.82,18.54,3.29
	c5.02,1.21,9.8,0.8,14.81,0.15c6.11-0.79,10.78-3.67,14.37-8.29c3.18-4.1,5.98-8.52,8.71-12.94c0.96-1.56,1.21-3.56,1.77-5.37
	c1.36-4.38,1.14-8.93,1.07-13.4c-0.04-2.47,0.09-5.23-2.21-7.84c-1.5,1.95-3.05,3.55-4.11,5.43c-1.82,3.23-5.39,4-8.34,2.53
	c-5.61-2.78-11.05-5.94-16.46-9.1c-5.91-3.44-11.39-7.66-18.35-9.07c-1.87-0.38-3.81-1.5-5.23-2.81
	c-5.15-4.76-9.89-9.95-12.87-16.39c-3.33-7.2-6.57-14.45-9.52-21.81c-2.52-6.29-3.79-12.89-4.37-19.68
	c-0.6-7.06,0.02-14.02,1.05-20.93c0.71-4.77,2.4-9.38,3.56-14.09c0.66-2.71,2.1-4.76,4.56-6.02c3.26-1.67,6.59-3.21,9.86-4.86
	C804.45,434.53,805.58,433.79,807.27,432.81z M830.65,431.04c1.55,5.97,3.14,11.53,4.41,17.17c0.71,3.14,2.33,5.56,4.38,7.89
	c0.47-0.33,0.83-0.48,1.03-0.74c0.93-1.23,1.8-2.5,2.73-3.73c2.02-2.68,4.42-2.49,6.17,0.26c1.05,1.65,1.17,3.29,0.88,5.11
	c-0.41,2.58-0.87,5.15-1.08,7.75c-0.33,4.02-1.54,7.59-4.16,10.74c-1.26,1.52-2.56,3.32-2.96,5.18c-1.23,5.68-2.01,11.45-3,17.17
	c-0.57,3.27-1.84,6.16-4.8,7.97c-2.26,1.37-3.84,1.15-5.17-1.03c-1.28-2.09-2.16-4.43-3.23-6.66c-0.44-0.93-0.9-1.86-1.43-2.96
	c-1.01,0.55-1.75,0.89-2.42,1.34c-3.7,2.47-5.64,1.75-6.56-2.51c-0.4-1.86-0.61-3.76-1.1-5.6c-1.4-5.24-2.91-10.46-4.36-15.69
	c-2.08-7.52-0.62-14.83,1.29-22.14c0.74-2.84,1.98-5.26,4.11-7.31c2.13-2.06,2.5-4.62,1.57-7.62c-2.74,1.32-5.27,2.59-7.85,3.76
	c-3.13,1.43-6.32,2.73-9.45,4.18c-2.1,0.98-3.83,2.47-4.73,4.65c-1.08,2.61-2.06,5.27-3.01,7.93c-0.55,1.55-1.27,3.13-1.39,4.74
	c-0.42,5.45-0.75,10.92-0.85,16.38c-0.1,5.35,0.22,10.7,1.98,15.84c1.03,3.01,2.03,6.05,3.23,8.99c2.09,5.12,4.05,10.33,6.59,15.23
	c2.06,3.97,4.76,7.64,7.4,11.27c2.09,2.88,4.34,5.94,7.92,6.92c8.06,2.22,14.7,7.03,21.75,11.16c4.27,2.5,8.94,4.33,13.44,6.45
	c1.47,0.7,2.91,0.46,3.92-0.71c4.25-4.93,7.37-10.21,5.18-17.15c-1.22-3.88-1.67-7.86-1.28-11.97c0.91-9.7,2.32-19.36,2.04-29.15
	c-0.17-5.94-0.01-11.91-0.51-17.83c-0.5-5.9-1.46-11.77-2.57-17.59c-0.89-4.65-1.96-9.39-4.86-13.27c-2.12-2.84-4.57-5.5-7.21-7.86
	c-2.54-2.28-5.36-4.37-8.37-5.96C836.14,430.54,833.55,429.46,830.65,431.04z M845.92,430.35c1.27,1.54,1.96,2.46,2.74,3.29
	c1.79,1.91,3.62,3.77,5.43,5.65c4.06,4.22,6.52,9.29,7.8,14.94c0.7,3.11,1.23,6.26,1.75,9.41c1.58,9.61,2.73,19.25,2.48,29.02
	c-0.12,4.63-0.07,9.27-0.05,13.91c0,0.71,0.26,1.42,0.47,2.53c0.96-1.27,1.71-2.06,2.22-2.97c3.24-5.78,6.52-11.53,9.57-17.4
	c0.96-1.86,1.53-4.03,1.77-6.12c0.82-7.05-0.31-14.01-1.69-20.87c-0.91-4.5-2.69-8.83-4.05-13.24c-2.05-6.67-5.06-12.52-12.28-14.97
	C857.15,431.84,852.25,430.07,845.92,430.35z M827.57,440.82c-0.8-3.18-1.59-5.71-3.5-7.67c-1.27-1.3-2.29-0.44-3.22,0.79
	C822.76,436.26,823.55,439.39,827.57,440.82z M832.13,493.89c1.7-2.29,1.02-4.45,0.17-6.9
	C829.83,489.73,829.82,491.41,832.13,493.89z"/>
<path d="M657.67,678.97c-1.54-0.48-3.55-1.16-5.59-1.73c-3.29-0.92-6.55-2.11-9.9-2.54c-2.65-0.34-4.58-1.34-5.77-3.52
	c-1.09-1.98-2.55-3.05-4.78-3.11c-1.93-0.05-2.75-1.08-2.74-2.95c0.01-1.83,1.26-2.79,2.7-2.69c3.16,0.22,5.17-1.71,7.64-3.08
	c6.53-3.59,13.35-4.96,20.06-0.28c1.24,0.86,2.43,2,3.19,3.28c1.45,2.47,3.65,2.73,6.09,2.6c0.82-0.04,1.63-0.35,2.46-0.4
	c3.33-0.2,5.33,2.62,3.44,5.34c-1.57,2.25-3.81,4.24-6.15,5.69c-2.26,1.4-5.03,1.98-7.6,2.86
	C659.94,678.71,659.08,678.74,657.67,678.97z"/>
<path d="M644.44,590.07c1.9,2.52,3.21,4.6,4.85,6.37c2.32,2.5,4.82,4.85,7.38,7.1c0.6,0.53,1.89,0.86,2.6,0.58
	c3.92-1.51,7.79-3.17,11.61-4.91c2.65-1.21,4.88,0.14,5.17,3.3c0.19,2.09-0.9,3.58-2.14,5.08c-0.32,0.38-0.11,1.21-0.14,1.83
	c0.65-0.07,1.44,0.06,1.92-0.26c0.53-0.36,0.77-1.14,1.14-1.74c0.62-1.01,1.19-2.25,2.68-1.75c1.46,0.49,2.51,1.53,2.29,3.19
	c-0.33,2.54-1.14,4.84-3.72,6.07c-2.88,1.38-5.73,1.56-8.47-0.22c-2.12-1.38-4.11-2.22-6.88-2.06c-1.91,0.11-4.14-1.51-5.85-2.85
	c-2.6-2.03-4.88-4.46-7.28-6.74c-0.68-0.65-1.6-1.23-1.93-2.04c-1.05-2.61-2.44-4.8-5.74-5.68
	C642.77,593.58,643.47,592.1,644.44,590.07z"/>
</svg>
