<?xml version="1.0" encoding="utf-8"?>
<!-- Generator: Adobe Illustrator 24.1.0, SVG Export Plug-In . SVG Version: 6.00 Build 0)  -->
<svg version="1.1" id="Layer_1" xmlns="http://www.w3.org/2000/svg" xmlns:xlink="http://www.w3.org/1999/xlink" x="0px" y="0px"
	 viewBox="0 0 1224 792" style="enable-background:new 0 0 1224 792;" xml:space="preserve">
<path d="M1065.54,489.41c-2.15,0-4.3,0-6.71,0c1.44,2.94,1.74,5.51,0.62,8.17c-0.14,0.34-0.1,0.8-0.03,1.19
	c0.16,0.88,0.49,1.74,0.57,2.62c0.12,1.23,0.02,2.4,0.94,3.53c0.55,0.67,0.4,1.91,0.55,2.86c-1.07,0.92-1.98,1.69-3.17,2.7
	c2.19,1.05,4.04,1.93,6.45,3.08c-2.79,2.56-6.14,2.39-8.72,4.16c2.21,1.54,5.36-0.73,7.36,1.88c-2.01,3.16-5.23-0.17-7.42,1.48
	c0.31,2.68,3.53,1.18,4.52,3.31c-0.96,0.4-1.84,0.78-2.99,1.26c0.83,0.54,1.53,0.99,2.26,1.46c-1.06,1.56-2.36,0.05-3.46,0.49
	c-1.05,1.31,0.7,1.96,0.74,3.02c-0.23,2.07-1.61,2.87-3.52,2.98c-1.39,3.43-2.73,6.75-4.1,10.15c0.28,0.56,0.62,1.22,1,1.98
	c-2.34,0.95-4.48,1.82-6.86,2.78c0.42,0.86,0.84,1.7,1.23,2.5c-0.17,0.27-0.26,0.58-0.41,0.62c-1.86,0.46-3.24,1.23-3.87,3.35
	c-0.57,1.91-1.66,3.71-2.79,5.39c-1.11,1.66-2.48,3.15-3.84,4.61c-1,1.08-2.1,2.11-3.3,2.96c-3.15,2.24-6.35,4.4-9.59,6.5
	c-1.06,0.69-2.32,1.08-3.64,1.68c0.51,0.92,0.83,1.48,1.21,2.16c-2.06,1.53-4.11,2.6-6.36,1.11c-1.41,0.76-2.48,1.34-3.16,2.76
	c0.94,0.45,1.7,0.81,2.57,1.23c-0.16,0.29-0.25,0.64-0.48,0.81c-0.36,0.27-0.81,0.59-1.22,0.59c-3.87-0.01-7.27,1.59-10.78,2.9
	c-1.36,0.51-2.9,0.74-4.35,0.71c-3.15-0.08-6.29-0.48-9.44-0.63c-3.92-0.19-5.4-2.96-6.39-6.08c-1.28-4.05-1.74-8.24-1.48-12.51
	c0.13-2.16-0.07-4.33,1.04-6.36c0.29-0.54,0.04-1.37-0.23-2.1c-1.3,1.56-1.8,3.25-2.19,5.17c-0.66,3.29-1.92,6.47-3.12,9.62
	c-1.04,2.75-2.44,5.37-3.51,8.12c-1.03,2.64-1.82,5.38-2.75,8.06c-1.19,3.41-2.43,6.8-3.62,10.21c-0.48,1.39-0.76,2.85-1.31,4.2
	c-1.86,4.62-3.92,9.16-5.68,13.82c-2.12,5.63-4.03,11.33-5.99,17.02c-2.84,8.26-5.7,16.55-11.09,23.57
	c-5.61,7.31-10.71,15.07-17.83,21.12c-0.43,0.37-0.82,0.8-1.14,1.26c-2.45,3.43-4.77,6.96-7.34,10.29
	c-1.94,2.51-4.05,4.94-6.37,7.11c-2.49,2.33-3.41,5.65-5.63,8.08c-3.68,4.02-6.44,8.73-10.39,12.59c-2.76,2.7-5.36,5.55-8.49,7.84
	c-0.27,0.19-0.42,0.53-0.64,0.8c-5.19,6.61-11.7,11.8-18.32,16.83c-3.35,2.54-6.89,4.83-10.31,7.27c-2.78,1.98-5.44,4.15-8.31,5.99
	c-1.8,1.16-3.84,2.04-5.87,2.76c-2.56,0.9-4.82,2.4-7.6,2.94c-3.92,0.76-7.83,1.28-11.78,1.78c-8.68,1.09-17.36,0.45-26.04,0.51
	c-6.62,0.04-13.28-0.04-19.84-0.74c-6.07-0.65-12.11-0.57-18.15-0.42c-5.1,0.13-10.21,0.86-15.26,1.65
	c-6.86,1.07-13.65,2.54-20.5,3.66c-4.16,0.68-8.48,0.57-12.52,1.63c-5.33,1.4-10.65,1.12-16,1.2c-4.5,0.07-8.74-0.72-12.89-2.71
	c-3.82-1.83-7.65-3.5-10.8-6.4c-0.49-0.45-1.15-0.79-1.79-0.97c-4.32-1.21-7.66-4.13-11.42-6.35c-1.74-1.02-3.11-2.54-5.27-3.08
	c-1.39-0.34-2.49-1.89-3.68-2.94c-1.96-1.74-4-3.25-6.41-4.46c-2.69-1.36-4.85-3.73-7.47-5.27c-4.52-2.64-9.09-5.28-13.88-7.33
	c-2.95-1.26-6.37-1.45-9.86-2.17c-0.68-1.27-1.65-2.61-3.58-2.75c-0.4-0.03-0.78-0.45-1.14-0.72c-2.8-2.1-5.6-4.21-8.4-6.31
	c-0.09-0.07-0.22-0.07-0.32-0.12c-1.68-0.85-1.37-3.3-3.44-4c-1.77-0.6-2.69-2.12-3.37-4.02c-0.48-1.35-2.21-2.21-3.23-3.41
	c-2.55-3.03-4.95-6.18-7.54-9.19c-1.47-1.71-3.17-3.22-4.77-4.83c-0.64-0.65-1.51-1.19-1.87-1.97c-1.09-2.35-3.58-3.29-5.08-5.28
	c-0.63-0.84-1.64-1.59-2.4-2.57c-1.25-1.6-2.74-3.17-4.47-4.19c-6.22-3.68-11.41-8.7-17.27-12.82c-5.34-3.76-10.19-8.01-14.32-13.04
	c-2.59-3.15-4.85-6.53-6.41-10.38c-0.97-2.39-2.65-4.47-3.72-6.83c-2.08-4.61-3.91-9.33-5.91-13.98c-1.76-4.08-3.65-8.11-5.41-12.19
	c-1.42-3.29-2.66-6.67-4.13-9.94c-1.62-3.63-3.33-7.22-5.14-10.75c-3.3-6.46-6.63-12.9-10.1-19.26c-0.59-1.08-1.92-1.76-2.67-2.42
	c-0.75,0.18-0.99,0.19-1.18,0.3c-7.75,4.27-15.46,2.84-23.02-0.41c-6.3-2.7-11.73-6.92-17.47-10.61c-3.16-2.04-6.43-3.9-9.63-5.87
	c-0.87-0.53-1.64-1.21-2.49-1.77c-3.6-2.39-7.23-4.75-10.83-7.16c-1.97-1.32-4.05-2.55-5.8-4.13c-4.35-3.95-9.77-6.3-14.33-9.9
	c-3.2-2.53-6.9-4.38-9.81-7.33c-1.26-1.27-3-2.05-4.49-3.1c-6.7-4.72-12.99-9.92-18.7-15.79c-3.34-3.43-6.83-6.74-9.87-10.42
	c-3.89-4.72-7.42-9.73-11.05-14.66c-1-1.36-1.87-2.82-2.64-4.32c-1.17-2.27-1.68-4.71-1.46-7.29c0.09-1.02,0.11-2.07,0.02-3.09
	c-0.45-5.26,1.73-9.61,4.36-13.97c3.5-5.8,8.2-10.57,12.45-15.73c3.81-4.63,6.98-9.79,10.78-14.44c2.94-3.6,6.15-7.09,9.75-10
	c1.97-1.59,4.8-2.13,7.8-1.36c6.46,1.65,11.98,4.81,17.07,8.99c4.04,3.32,8.3,6.37,12.41,9.61c2.15,1.69,4.17,3.54,6.26,5.31
	c1.03,0.88,2.14,1.68,3.11,2.61c3.45,3.3,4.88,7.76,6.77,11.95c0.65,1.44,1.02,3.04,1.83,4.37c1.29,2.1,0.9,3.87-0.51,5.65
	c-0.42,0.53-0.76,1.11-1.13,1.66c0.44,0.74,0.83,1.4,1.35,2.29c-1.09,1.09-2.02,2.26-3.18,3.12c-1.9,1.41-3.91,0.61-4.39-1.71
	c-0.18-0.85-0.15-1.88,0.15-2.68c2.2-5.82,0.45-10.87-2.67-15.83c-3.15-5.01-7.24-8.98-12.14-12.23c-0.92-0.61-1.57-1.62-2.44-2.33
	c-3.83-3.19-7.55-6.53-11.58-9.43c-2.18-1.57-4.89-2.39-7.39-3.5c-0.61-0.27-1.43-0.17-1.97-0.52c-3.07-1.98-5.63-0.45-7.76,1.44
	c-2.87,2.56-5.38,5.53-8.02,8.34c-0.23,0.24-0.39,0.56-0.51,0.88c-1.63,4.25-4.91,7.24-7.77,10.62
	c-4.91,5.79-10.32,11.26-13.77,18.15c-1.2,2.39-1.86,4.91-2.09,7.72c-0.5,6.17,1.28,11.36,4.95,16.16
	c4.62,6.04,9.13,12.15,14.28,17.79c4.38,4.8,9.28,9.01,14.16,13.25c2.74,2.38,5.87,4.3,8.8,6.47c1.55,1.15,2.97,2.49,4.56,3.6
	c6.9,4.84,13.8,9.68,20.78,14.41c7.28,4.92,14.66,9.69,21.97,14.55c3.61,2.4,7.14,4.91,10.76,7.3c3.52,2.32,6.92,4.93,10.7,6.72
	c5.26,2.5,10.82,4.23,16.87,3.53c2.37-0.27,4.07-1.28,5.66-3.5c-0.89-1.41-1.82-2.93-2.8-4.43c-0.37-0.57-1-1.02-1.22-1.63
	c-1.86-5.3-5.91-9.15-8.97-13.64c-2.24-3.29-5.04-6.2-7.25-9.5c-3.45-5.16-6.68-10.48-9.88-15.81c-2.9-4.84-6.84-8.81-10.48-13.04
	c-0.89-1.03-1.7-2.13-2.56-3.19c-1.04-1.3-1.08-2.62-0.37-4.15c0.46-0.99,0.71-2.14,0.78-3.24c0.33-5.26,1.19-10.4,3.2-15.31
	c1.25-3.06,2.32-6.18,3.57-9.24c0.55-1.36,1.36-2.62,2.01-3.94c2.13-4.29,4.21-8.59,6.36-12.87c1.48-2.95,3.02-5.86,4.53-8.79
	c1.35-2.61,2.58-5.25,2.69-8.31c-1.38-1.08-2.62,0.18-3.91,0.21c-1.46,0.03-2.92,0.46-4.38,0.49c-1.55,0.03-2.56-0.89-2.92-2.4
	c-0.37-1.59,0.29-2.94,1.89-3.62c1.66-0.71,3.43-1.18,5.09-1.91c2.59-1.14,5.12-2.42,7.77-3.69c1.33-2.09,1.63-4.51,1.67-7.09
	c0.04-2.84,0.56-5.66,0.76-8.5c0.52-7.25,1.11-14.5,0.06-21.76c-0.15-1.01-0.07-2.06-0.12-3.08c-0.14-2.9-1.39-3.63-4-2.22
	c-2.11,1.14-4.14,2.42-6.21,3.63c-3.45,2-6.87,4.05-10.37,5.97c-2.05,1.13-4.14,1.17-6.15-0.53c0-0.99,0-1.99,0-3.42
	c8.48-4.66,17.05-9.38,25.95-14.28c0-3.05,0.1-6.23-0.06-9.4c-0.04-0.86-0.86-1.69-1.54-2.92c-1.67,1.66-2.82,3.28-4.38,4.2
	c-1.52,0.9-3.46,1.08-5.41,1.64c-0.68-0.64-1.39-1.31-2.19-2.07c2.58-5.02,7.97-5.91,12.05-9.15c0-3.69,0.11-7.79-0.03-11.87
	c-0.12-3.29-1.11-6.64-0.69-9.83c0.54-4.13,0.89-8.24,0.94-12.38c0.05-4.12-0.12-8.26,0.12-12.37c0.25-4.2,0.87-8.38,1.34-12.56
	c0.04-0.33,0.12-0.69,0.29-0.98c1.42-2.46,2.03-5.2,2.89-7.87c0.9-2.79,2.33-5.43,3.61-8.09c2.25-4.69,4.47-9.4,6.89-14
	c1.73-3.3,3.63-6.54,5.7-9.65c3.75-5.64,7.81-11.07,11.49-16.75c2.1-3.24,4.4-6.33,6.57-9.49c2.86-4.17,6.42-7.62,9.6-11.45
	c0.43-0.51,0.76-1.13,1.02-1.74c2.37-5.71,6.11-10.55,10.04-15.19c2.77-3.28,6.12-6.06,9.02-9.23c3.76-4.11,7.46-8.3,10.95-12.65
	c2.49-3.11,4.78-6.35,8-8.79c0.89-0.68,1.44-1.78,2.27-2.55c2.98-2.8,6.04-5.53,9.02-8.32c1.49-1.39,2.81-2.97,4.35-4.29
	c1.7-1.46,3.6-2.68,5.35-4.08c3.29-2.62,6.51-5.32,9.81-7.93c0.77-0.61,1.81-0.87,2.62-1.44c5.2-3.66,10.35-7.4,15.57-11.04
	c2.61-1.81,5.33-3.47,8-5.18c4.4-2.82,8.75-5.71,13.23-8.39c1.77-1.06,3.41-2.18,4.71-3.78c0.21-0.26,0.53-0.44,0.83-0.59
	c6.73-3.4,12.79-7.89,19.11-11.93c3.77-2.41,7.54-4.98,11.12-7.76c3.05-2.37,6.7-4,9.57-6.54c4.31-3.81,9.74-5.77,14.15-9.45
	c3.18-2.65,7.29-4.18,11-6.19c2.41-1.31,4.85-2.57,7.24-3.9c4.15-2.3,8.36-4.48,12.6-6.61c7.77-3.9,15.83-7.12,24.05-9.9
	c7.87-2.66,15.82-5.09,24.06-6.48c4.48-0.76,8.87-2.03,13.32-2.96c2.11-0.44,4.27-0.74,6.42-0.9c4.44-0.33,8.88-0.51,13.32-0.78
	c3.53-0.22,7.07-0.35,10.57-0.79c6.73-0.85,13.42-0.9,20.14,0.03c5.41,0.75,10.83,1.43,16.25,2.16c0.79,0.11,1.57,0.3,2.32,0.55
	c3.68,1.2,7.35,2.4,11.01,3.66c0.85,0.29,1.62,0.82,2.44,1.21c1.1,0.53,2.21,1.07,3.33,1.56c3.75,1.64,7.48,3.34,11.27,4.88
	c6.32,2.57,12.76,4.87,19.01,7.59c4.91,2.14,9.62,4.75,14.41,7.17c0.8,0.41,1.56,0.9,2.44,1.42c0.06,0.52,0.3,1.12,0.17,1.63
	c-0.92,3.7,0.7,6.56,2.69,9.48c1.58,2.32,2.63,4.99,4.07,7.42c2.11,3.58,4.01,7.26,6.82,10.46c2.37,2.7,3.94,6.1,5.9,9.17
	c0.79,1.24,1.75,2.37,2.52,3.63c2.02,3.29,4.13,6.55,5.94,9.96c2.23,4.21,4.74,8.4,6.12,12.9c1.45,4.72,3.82,8.9,5.87,13.27
	c1.45,3.09,2.87,6.17,3.81,9.49c1.55,5.45,3.66,10.74,5.23,16.18c1.24,4.3,3.26,8.21,5.2,12.18c1.59,3.25,3.63,6.4,4.56,9.84
	c1.14,4.22,4.13,7.56,4.91,11.91c0.31,1.71,1.74,3.18,2.41,4.86c1.57,3.9,2.98,7.86,4.5,11.79c0.24,0.61,0.68,1.14,1.07,1.77
	c1.34-0.34,2.12-1.15,2.49-2.24c0.61-1.78,2.04-2.39,3.63-2.78c2.34-0.59,4.25,0.84,3.99,3.21c-0.19,1.77-0.9,3.48-1.3,4.91
	c0.26,3.04,0.63,5.86,0.71,8.69c0.12,4.67,0.01,9.34,0.1,14.02c0.02,1.24,0.46,2.46,0.59,3.71c0.09,0.85,0,1.71-0.05,2.57
	c-0.02,0.32-0.32,0.69-0.22,0.93c1.95,4.77,0.68,9.87,1.55,14.77c0.69,3.91,1.14,7.89,1.29,11.86c0.11,2.89-0.17,5.88-0.82,8.69
	c-0.44,1.89-0.38,3.5,0.84,4.77c1.4,1.45,1.33,3.11,1.06,4.71c-0.41,2.45-0.14,4.76,0.56,7.09c0.29,0.97,0.4,2,0.61,3
	c0.55,2.55,1.07,5.1,1.68,7.63c0.26,1.08,0.59,2.17,1.09,3.17c0.85,1.72,1.74,3.44,2.83,5.01c2.1,3.03,3.45,5.94,1.72,9.8
	c-1.09,2.43-1.58,5.28-1.72,7.97c-0.23,4.56-1.98,8.64-3.38,12.84c-0.53,1.59-1.37,3.08-2.03,4.62c-0.13,0.3-0.14,0.67-0.16,1.01
	c-0.26,3.98-0.53,7.97-0.76,11.95c-0.41,7.05-1.03,14.1-1.1,21.16c-0.05,5.57,0.72,11.14,0.89,16.72c0.09,2.93,1.05,5.82,0.3,8.8
	c-0.2,0.81,0.32,1.77,0.36,2.67c0.13,2.74,0.33,5.49,0.23,8.22c-0.16,4.38,1.81,7.46,5.33,9.79c0.65,0.43,1.08,1.19,1.71,1.66
	c1.22,0.89,2.52,1.67,3.97,2.63c-0.16,0.25-0.55,0.89-0.94,1.52c0.18,0.13,0.44,0.38,0.49,0.35c1.59-1.17,2.96-1.33,4.92-0.26
	c1.78,0.98,3.99,1.36,6.3,0.64c3.03-0.94,6.2-1.57,9.35-1.97c1.98-0.25,4.12-0.14,6.04,0.36c2.16,0.55,4.11,1.85,6.23,2.58
	c1.24,0.42,2.69,0.69,3.95,0.46c2.11-0.38,4.08-0.28,6.06,0.42c3.22,1.14,6.59,1.98,9.61,3.51c1.9,0.96,3.93,1.92,5.6,3.32
	c0.65,0.54,1.32,1.42,1.4,2.2c0.21,1.98,1.31,3.26,2.65,4.55c3.56,3.43,3.82,5.27,1.7,9.86c-0.17,0.37-0.06,0.86-0.08,1.33
	c0.87,0.07,1.6,0.13,2.68,0.21c-0.62,0.59-1.08,0.86-1.29,1.27c-0.25,0.47-0.29,1.06-0.46,1.72c-1.57,0.11-3.02,0.21-4.43,0.31
	c0.69,1.83,1.35,3.6,2.02,5.37L1065.54,489.41z M493.79,365.72c1.47,0.49,2.78,0.27,4.24-0.37c3.13-1.37,6.29-2.96,9.6-3.55
	c5.66-1,11.24-2.85,17.2-1.73c4.8,0.9,9.73,1.08,14.58,1.74c5.3,0.73,10.59,1.55,15.85,2.5c4.36,0.79,8.7,1.73,13.01,2.76
	c2.65,0.63,5.25,1.53,7.84,2.38c1.39,0.46,2.77,0.99,4.09,1.62c4.21,2.03,8.39,4.14,13.19,4.39c0.43,0.02,0.84,0.36,1.28,0.47
	c3.1,0.73,6.19,1.49,9.3,2.12c0.69,0.14,1.47-0.17,2.86-0.36c-1.23-1.39-1.99-2.5-2.99-3.32c-4.86-3.97-9.85-7.39-16.44-8.4
	c-6.15-0.94-12.1-3.16-18.17-4.73c-7.39-1.91-14.83-3.44-22.54-3.33c-3.49,0.05-6.99-0.15-10.47-0.48
	c-5.66-0.54-11.31-1.24-16.95-1.94c-4.74-0.59-9.46-1.3-14.2-1.89c-3.41-0.42-6.82-0.65-10.02,1.87c0.25,2.8,2.55,5.43,1.19,8.46
	c-0.81,0.59-1.64,1.19-2.46,1.78c-4.7-0.35-5.77-1.54-5.56-6.18c0.05-1.21,0.16-2.41,0.28-4.09c-6.2,2.02-12,3.9-17.7,5.76
	c-0.68,4.42-0.5,9.39,0.51,12.01c1.08-0.15,2.32-0.14,3.44-0.5c5.21-1.64,10.4-3.34,15.57-5.1
	C491.59,367.21,493.17,367.28,493.79,365.72z M486.87,567.11c1.76,3.52,3.1,6.92,5.02,9.94c4.29,6.74,7.46,14.03,10.94,21.17
	c3.35,6.9,6.47,13.91,9.61,20.91c0.64,1.43,0.81,3.08,1.44,4.52c1.77,4.04,3.59,8.07,5.55,12.02c1.76,3.56,3.9,6.94,5.59,10.53
	c2.46,5.23,6.13,9.48,10.16,13.51c5.6,5.6,12.44,9.62,18.53,14.58c1.85,1.51,3.73,3.07,5.8,4.22c6.7,3.71,11.69,9.36,16.9,14.72
	c3.4,3.49,6.3,7.47,9.49,11.17c1.19,1.37,2.82,2.39,3.84,3.86c4.53,6.55,10.29,11.81,16.75,16.36c0.93,0.65,1.96,1.27,3.04,1.57
	c7.01,1.92,13.35,5.34,19.75,8.63c1.92,0.99,3.96,1.9,5.61,3.25c8.86,7.23,18.61,13.11,28.23,19.22c2.05,1.3,4.44,1.85,6.31,3.23
	c2.51,1.85,5.16,3.27,7.97,4.59c3.92,1.84,7.84,3.13,12.24,3.58c7.26,0.75,14.32,0.31,21.39-1.29c2.1-0.48,4.26-0.75,6.4-1.04
	c4.06-0.55,8.22-0.68,12.19-1.63c10.24-2.46,20.65-3.01,31.09-3.16c4.44-0.07,8.88,0.47,13.33,0.57c5.15,0.12,10.31,0.07,15.46,0.11
	c1.14,0.01,2.28,0.11,3.42,0.14c5.36,0.13,10.76,0.68,16.08,0.27c5.31-0.41,10.65-0.69,15.95-1.68c5.51-1.02,10.59-2.99,15.31-5.67
	c4.43-2.51,8.38-5.88,12.53-8.87c1.94-1.4,3.9-2.77,5.82-4.19c2.55-1.9,5.14-3.76,7.58-5.79c2.27-1.89,4.37-3.98,6.55-5.99
	c8.85-8.13,16.92-16.93,23.86-26.8c5.03-7.16,10.54-13.98,15.83-20.95c0.07-0.09,0.16-0.17,0.23-0.25
	c3.68-4.2,7.44-8.35,11.03-12.63c1.82-2.18,3.37-4.59,5.02-6.91c1.31-1.84,2.44-3.83,3.9-5.54c3.44-4.04,5.62-8.76,7.68-13.56
	c0.81-1.87,1.51-3.79,2.25-5.7c0.2-0.53,0.4-1.06,0.56-1.6c0.81-2.71,1.47-5.48,2.45-8.13c1.7-4.6,3.83-9.06,5.33-13.72
	c1.22-3.79,2.52-7.48,4.4-10.99c0.74-1.37,1.1-2.95,1.59-4.45c0.74-2.27,1.32-4.61,2.18-6.83c2.85-7.31,6.07-14.5,8.64-21.9
	c2.27-6.53,3.88-13.29,5.72-19.96c0.69-2.51,0.99-5.14,1.87-7.57c0.55-1.53,0.7-2.88,0.03-4.26c-0.82-1.69-0.53-3.2,0.74-4.39
	c2.2-2.06,2.48-4.73,2.86-7.46c0.44-3.15,0.81-6.34,1.63-9.4c0.99-3.7,2.26-7.32,2.49-11.19c0.03-0.45,0.05-0.94,0.23-1.34
	c2.04-4.5,0.93-9.23,1.03-13.87c0-0.22-0.38-0.46-0.53-0.63c-0.67,0.58-1.62,1-1.79,1.63c-0.37,1.38-0.94,2.2-2.43,2.43
	c-0.47,0.07-0.9,0.68-1.26,1.11c-1.94,2.37-4.63,2.65-7.42,2.78c-2.16,0.1-3.43-1.05-4.24-2.84c-0.97-2.16-2.07-4.3-2.7-6.57
	c-0.57-2.05-2.07-3.91-1.52-6.25c0.07-0.29-0.03-0.83-0.23-0.95c-1.93-1.14-1.23-3.51-2.67-5.01c0.8-1.49,1.53-2.9,2.31-4.28
	c0.85-1.51,0.82-3.06,0.26-4.62c-0.37-1.04-0.79-2.11-1.38-3.03c-1.91-2.98-1.01-5.57,0.79-8.15c2.65,1.26,3.19,0.99,3.69-1.67
	c0.1-0.55,0.12-1.17,0.39-1.64c3.58-6.18,4.89-13.1,6.75-19.87c0.56-2.03-0.14-3.31-1.41-4.56c-1.59-1.56-3.08-3.28-4.88-4.56
	c-1.88-1.34-3.66-3.13-6.29-3.02c-11.63,0.49-23.27-0.68-34.92,0.61c-6.79,0.76-13.69,0.49-20.54,0.78
	c-2.72,0.11-5.46,0.32-8.15,0.77c-2.79,0.47-5.49,1.54-8.29,1.86c-2.54,0.29-4.18,1.82-5.77,3.35c-4.25,4.09-8.17,8.54-12.5,12.53
	c-5.28,4.86-10.7,9.62-16.36,14.02c-6.76,5.26-12.54,11.57-19.15,16.98c-1.16,0.95-2.03,2.12-2.14,3.74
	c-0.05,0.65-0.34,1.31-0.63,1.92c-1.95,4.09-3.95,8.15-5.86,12.25c-0.29,0.62-0.22,1.4-0.38,2.65c3.28-2.68,6.11-4.96,8.89-7.3
	c1.59-1.34,3.36-1.91,5.4-1.66c1.69,0.21,3.28,1.63,3.53,3.26c0.5,3.26,0.98,6.52,1.39,9.8c0.57,4.63,0.85,9.31,1.66,13.89
	c0.79,4.41,1.14,8.81,1.19,13.27c0.02,1.69,0.37,3.4,0.74,5.06c0.11,0.51,0.77,0.91,1.46,1.66c0.94-2.14,1.65-3.94,2.5-5.66
	c0.81-1.64,0.66-3.91,3.27-4.92c0.31,0.94,0.86,1.77,0.77,2.52c-0.42,3.49-1.06,6.96-1.55,10.45c-0.5,3.54-2.52,6.79-1.82,10.58
	c0.13,0.7-0.4,1.87-1,2.28c-0.94,0.64-2.13,0.63-3.12-0.36c-0.42-0.42-1.06-0.81-1.62-0.84c-3.4-0.18-3.83-0.58-3.91-4.03
	c-0.11-4.67,0.48-9.4-1.24-13.93c-0.12-0.31-0.1-0.68-0.07-1.02c0.54-7.46-0.93-14.78-1.53-22.17c-0.24-2.92-0.96-5.8-1.62-8.67
	c-0.22-0.96-0.9-1.81-1.58-3.11c-1.66,1.09-3.2,2.01-4.63,3.06c-3.51,2.59-6.58,5.66-9.16,9.16c-2.66,3.6-6.7,6.21-7.85,10.92
	c-0.11,0.46-0.72,0.87-1.2,1.15c-1.49,0.88-2.21,2.23-2.68,3.83c-0.42,1.42-0.93,2.81-1.43,4.2c-1.33,3.66-3.68,4.29-6.88,1.57
	c0.11-1.93,0.24-4.05,0.39-6.52c-1.53-0.54-3.14-1.64-4.7-1.57c-5.44,0.24-8.92-3.06-12.39-6.37c-0.8-0.77-1.35-2.21-1.35-3.34
	c0.01-6.17,0.61-12.29,2.23-18.28c1.12-4.14,1.89-8.35,3.18-12.47c0.78-2.48,1.45-4.92,2.65-7.25c2.46-4.75,4.84-9.55,7.1-14.39
	c2.02-4.33,3.99-8.66,7.28-12.21c1.7-1.83,3.41-3.67,5.2-5.41c2.77-2.68,5.42-5.55,8.49-7.83c3.18-2.36,6.81-4.13,10.26-6.12
	c0.58-0.33,1.27-0.6,1.93-0.66c2.38-0.21,3.23-1.93,3.87-3.82c1.52-4.5,2.97-9.04,4.51-13.53c1.07-3.09,2.29-6.13,3.38-9.21
	c1.71-4.82,4.85-8.74,7.85-12.77c2.38-3.2,2.35-3.22,6.21-2.19c1.03,1.23,1.44,2.7,0.72,4.14c-1.7,3.38-2.77,6.96-3.91,10.55
	c-1.03,3.23-2.66,6.28-4.11,9.37c-0.42,0.89-0.82,1.68-0.04,2.5c0.79,0.84,1.68,0.49,2.51,0.04c2.81-1.53,5.66-3,8.41-4.63
	c6.95-4.12,14.08-7.59,22.46-7.29c0.34,0.01,0.69-0.03,1.02-0.1c6.28-1.38,12.51-0.1,18.7,0.62c3.46,0.41,6.8,1.8,10.23,2.62
	c2.55,0.6,5.15,0.94,7.72,1.47c3.9,0.8,7.8,1.64,11.69,2.5c3,0.66,6.06,1.17,8.97,2.12c4.46,1.46,8.57,3.7,12.65,6.02
	c4.14,2.36,8.36,4.67,13.43,4.15c0.21-0.02,0.43,0.13,1.16,0.36c0.81,1.56,1.87,3.43,2.77,5.38c0.47,1.02,0.87,1.89,2.31,1.44
	c1.54-3.59,3.18-7.19,4.62-10.87c0.99-2.52,1.79-5.13,2.55-7.74c0.44-1.52,0.69-3.11,0.95-4.67c0.72-4.26,2.2-8.38,1.91-12.81
	c-0.19-2.96-0.02-5.95,0.01-8.93c0.01-0.91,0.04-1.83,0.12-2.74c0.4-4.31,0.83-8.62,1.23-12.92c0.08-0.91,0.04-1.83,0.12-2.74
	c0.39-4.54,1.01-9.07,1.15-13.61c0.2-6.64-0.09-13.29,0.12-19.92c0.12-3.55-1.13-6.63-2.22-9.83c-1.38-4.07-3.49-7.93-3.41-12.41
	c0.01-0.63-0.45-1.26-0.63-1.91c-0.24-0.86-0.63-1.75-0.6-2.62c0.21-7.05-2.3-13.61-3.62-20.38c-0.45-2.32-1.22-4.57-1.92-6.83
	c-0.91-2.91-1.52-5.84-1.57-8.91c-0.02-1.44-0.28-3.12-1.04-4.27c-1.59-2.39-1.66-4.9-1.52-7.54c0.02-0.45-0.17-0.92-0.26-1.38
	c-0.72,0.74-0.87,1.48-1.09,2.19c-0.22,0.73-0.47,1.47-0.77,2.17c-0.85,1.98-2.06,3.87-2.52,5.93c-0.69,3.09-1.8,6.05-2.51,9.14
	c-0.91,3.96-2.14,7.87-2.87,11.91c-1.28,7.07-2.85,14.1-2.35,21.37c0.16,2.39,0.09,4.81,0.02,7.21c-0.19,6.28,1.75,12.11,3.73,17.93
	c0.34,1.01,0.74,1.95-0.81,2.82c-0.51-0.68-1.13-1.3-1.5-2.04c-2.4-4.93-3.8-10.14-4.19-15.62c-0.17-2.37-0.5-4.73-0.6-7.1
	c-0.08-1.94-0.07-3.9,0.15-5.82c0.52-4.4,1.46-8.77,1.75-13.19c0.37-5.75,2.01-11.2,3.44-16.7c1.49-5.72,3.16-11.4,5-17.02
	c1.37-4.18,3.13-8.22,4.71-12.33c0.24-0.63,0.55-1.26,0.62-1.92c0.36-3.3,0.25-6.58-0.61-9.82c-0.35-1.31-0.45-2.69-0.71-4.02
	c-0.27-1.44-0.43-2.93-0.93-4.3c-1.72-4.67-3.02-9.46-5.44-13.9c-2.36-4.35-3.66-9.21-6.01-13.64c-2.58-4.87-5.2-9.76-6.93-15.05
	c-0.39-1.17-0.95-2.29-1.37-3.45c-1.33-3.74-2.55-7.53-3.97-11.24c-1.26-3.28-2.83-6.44-4.07-9.73c-1.54-4.11-2.73-8.36-4.35-12.44
	c-1.47-3.69-3.41-7.19-5-10.83c-1.23-2.81-2.28-5.65-4.34-8.06c-1.3-1.52-1.98-3.54-3.13-5.21c-2.44-3.55-5.06-6.98-7.48-10.54
	c-1.96-2.89-3.55-6.04-6.3-8.35c-0.76-0.64-1.32-1.58-1.82-2.47c-2.89-5.15-6.18-10.05-9.47-14.94c-0.44-0.66-1.01-1.31-1.22-2.05
	c-1.19-4.22-4.76-6.14-8.18-7.72c-7.62-3.51-15.48-6.5-23.22-9.74c-5.89-2.47-11.73-5.08-17.64-7.5c-3.44-1.41-6.94-2.68-10.48-3.82
	c-1.71-0.55-3.57-0.67-5.37-0.94c-3.71-0.56-7.42-1.49-11.14-1.55c-6.83-0.11-13.65-0.55-20.5,0.43c-6.08,0.87-12.27,0.99-18.4,1.53
	c-2.94,0.26-5.89,0.62-8.8,1.14c-4.71,0.84-9.36,1.99-14.08,2.76c-7.23,1.18-14.26,3.11-21.13,5.57c-7.5,2.69-14.89,5.68-22.32,8.54
	c-0.21,0.08-0.4,0.22-0.6,0.33c-4.02,2.1-7.96,4.4-12.09,6.26c-11.9,5.36-22.83,12.35-33.67,19.51c-3.97,2.62-7.65,5.67-11.54,8.41
	c-3.15,2.22-6.4,4.31-9.63,6.42c-2.29,1.49-4.81,2.7-6.86,4.46c-1.88,1.61-4.01,2.76-5.99,4.18c-2.94,2.12-5.97,4.12-8.96,6.17
	c-2.72,1.86-5.27,4.06-8.2,5.46c-2.37,1.13-4.61,2.42-6.79,3.81c-5.18,3.3-10.24,6.8-15.35,10.22c-2.83,1.9-5.98,3.47-8.41,5.79
	c-1.98,1.88-4.28,3.23-6.33,4.94c-3.12,2.6-6.52,4.87-9.71,7.39c-2.13,1.68-4.05,3.62-6.16,5.33c-6.21,5.01-11.88,10.59-17.13,16.58
	c-3.6,4.1-6.82,8.53-10.39,12.66c-3.28,3.78-6.86,7.3-10.2,11.03c-3.1,3.47-6.19,6.92-8.64,10.95c-2.4,3.95-5.09,7.76-7.91,11.43
	c-2.19,2.84-5.01,5.19-6.68,8.46c-0.29,0.57-0.96,0.95-1.42,1.44c-0.46,0.5-0.95,0.98-1.32,1.55c-3.65,5.69-7.26,11.4-10.93,17.08
	c-1.29,2-2.86,3.84-4,5.91c-2.72,4.92-5.96,9.57-8.07,14.82c-2.09,5.2-5.4,9.93-6.19,15.65c-0.04,0.31-0.33,0.58-0.46,0.89
	c-1.84,4.4-3.85,8.75-3.54,13.7c0.04,0.68-0.04,1.37-0.1,2.05c-0.4,4.07-1.08,8.14-1.16,12.22c-0.17,9.62-0.05,19.24-0.04,28.86
	c0,0.57,0,1.15,0.03,1.72c0.07,1.41,0.89,2.04,2.24,2.03c0.69,0,1.4,0.07,2.05-0.1c4.52-1.21,9-2.55,13.05-5.01
	c0.16-0.1,0.19-0.39,0.43-0.93c-0.49-0.62-1.09-1.37-1.52-1.92c-1.53-0.12-2.79,1.09-3.98-0.5c0.65-1.15,1.15-2.4,0.72-3.93
	c-0.38-1.36,0.4-2.41,1.74-2.97c0.93-0.39,1.86-0.8,2.46-1.06c1.94,0.77,3.49,1.46,5.09,2c1.63,0.56,2.42,1.59,2.36,3.32
	c-0.05,1.24-0.01,2.47-0.01,3.79c1.16,0,2.06,0.07,2.94-0.01c4.45-0.43,8.9-0.7,13.23,0.7c3.73,1.21,7.51,1.89,11.44,1.81
	c0.79-0.02,1.58,0.17,2.37,0.26c5.31,0.6,10.62,1.36,15.94,1.74c6.04,0.43,12.1,0.5,18.15,0.74c0.57,0.02,1.14,0.11,1.68,0.27
	c7.97,2.34,16.32,3.38,23.94,6.95c0.49,0.23,1.11,0.2,1.67,0.29c1.69,0.26,3.42,0.33,5.05,0.79c5.63,1.58,10.81,3.85,15.4,7.8
	c3.95,3.4,6.75,7.69,10.35,11.33c1.92,1.94,0.59,4.67-2.21,4.87c-1.34,0.09-2.71-0.21-4.06-0.4c-1.43-0.21-2.85-0.57-4.39,0.17
	c0.27,0.44,0.41,0.73,0.61,0.97c6.52,7.62,12.96,15.3,18.86,23.42c2.55,3.5,5.3,6.89,7.54,10.58c2.83,4.65,5.19,9.57,7.84,14.34
	c2.43,4.37,5.01,8.67,6.39,13.54c0.46,1.62,1.06,3.21,1.67,4.78c1.53,3.93,3.15,7.82,4.63,11.77c0.3,0.8,0.53,2.12,0.11,2.6
	c-1.58,1.82-1.09,3.89-1.11,5.89c-0.04,4.01-0.76,7.9-1.55,11.51c-2.44,2-4.71,1.68-6.99,0.54c-1.22-0.61-2.37-1.34-3.6-1.93
	c-0.77-0.37-1.62-0.57-2.35-0.82c-1.07,1.43-0.24,2.41,0.06,3.47c0.63,2.26,2.26,4.18,2.08,6.72c-0.2,2.88,0.32,5.68,1.23,8.43
	c0.36,1.08,0.67,2.21,0.73,3.33c0.3,5.68,0.48,11.36,0.78,17.03c0.06,1.12,0.52,2.22,0.65,3.35c0.43,3.6,1.2,7.23,1.07,10.82
	c-0.14,3.96-1.31,7.86-3.21,11.41c-2.56,4.78-5.9,8.98-10.59,11.8c-6.73,4.05-14.53,4.36-21.99,5.73c-2.48,0.46-5.15-0.21-7.74-0.3
	c-2.18-0.07-3.97-1-5.54-2.39c-1.03-0.91-2.04-1.85-2.94-2.89c-3.99-4.64-9.21-7.34-14.73-9.69c-3.25-1.38-6.31-3.17-9.47-4.77
	c-1.42-0.71-1.95-1.98-1.84-3.4c0.11-1.34,0.39-2.73,0.91-3.97c2.19-5.2,5.48-9.66,9.67-13.42c1.26-1.13,2.91-1.89,3.95-3.17
	c2.6-3.18,6.03-4.8,9.82-5.9c5.12-1.48,10.38-1.43,15.64-1.35c0.67,0.01,1.35,0.21,1.99,0.44c4.62,1.65,7.61,5.19,10.34,9.01
	c0.26,0.36,0.45,0.81,0.53,1.24c0.57,3.08,2.01,5.77,3.62,8.39c1.71,2.77,3.75,5.31,4.46,8.66c0.89,4.15-0.75,9.94-4.17,11.89
	c-5.13,2.94-10.57,2.01-15.94,0.54c-0.1-0.03-0.16-0.17-0.25-0.23c-4.82-2.73-6.83-7.39-8.29-12.34c-0.45-1.52-0.18-3.15,1.17-4.42
	c1.16-1.09,2.11-2.4,3.21-3.56c3.57-3.76,6.66-4.08,10.02-1.91c1.22,2.62,2.3,4.96,3.41,7.35c-2.46,2.81-4.1,5.85-3.88,10.11
	c1.94-0.25,3.49-0.4,5.03-0.65c1.55-0.25,2.49-1.47,2.75-2.76c0.47-2.35,0.63-4.8-0.77-6.99c-1.46-2.28-2.99-4.52-4.41-6.82
	c-0.65-1.06-1.27-2.17-1.68-3.34c-1.37-3.99-4.01-6.82-7.69-8.79c-1.79,0.2-3.77,0.01-5.34,0.73c-1.39,0.64-2.53,0.47-3.87,0.45
	c-4.14-0.07-7.67,1.68-10.93,4.07c-0.26,0.19-0.59,0.51-0.6,0.78c-0.05,1.89-1.75,2.5-2.88,3.04c-5.18,2.52-7.07,7.42-9.66,12.06
	c0.82,0.5,1.38,0.9,1.97,1.2c4.28,2.14,8.53,4.37,12.88,6.36c2.99,1.37,5.34,3.38,7.47,5.83c1.17,1.35,2.66,2.49,4.17,3.47
	c3.75,2.44,7.97,1.7,12.03,1.33c3.72-0.34,7.21-2.17,11.08-1.92c0.62,0.04,1.31-0.37,1.92-0.67c8.35-4.07,13.59-10.41,14.47-19.92
	c0.03-0.34,0.07-0.7,0.21-1c1.37-2.78,0.37-5.42-0.8-7.85c-0.63-1.31-0.91-2.53-0.91-3.91c0-3.78,0.22-7.57-0.05-11.33
	c-0.29-4.08-0.74-8.2-1.72-12.16c-0.5-2.01-0.9-3.96-0.99-6.01c-0.17-3.71-1.51-7.21-3.28-10.29c-1.73-3-4.4-5.51-6.87-8.02
	c-2.69-2.74-5.6-5.27-8.46-7.84c-0.74-0.67-1.62-1.28-2.55-1.63c-4.36-1.64-8.77-3.16-13.15-4.75c-4.28-1.56-8.55-3.15-12.82-4.73
	c-0.64-0.24-1.27-0.53-1.93-0.7c-4.2-1.06-8.4-2.14-12.62-3.12c-1.99-0.46-4.04-1.08-6.05-1.01c-5.92,0.22-11.83-0.91-17.74-0.09
	c-4.64,0.64-9-1.02-13.47-1.76c-1.67-0.28-3.41-0.51-4.95-1.16c-2.33-0.98-4.51-2.2-7.17-1.3c-0.38,0.13-0.89-0.11-1.34-0.17
	c-2.7-0.38-5.4-0.76-8.1-1.15c-2.48-0.35-4.98-0.61-7.43-1.09c-3.58-0.7-7.11-1.6-10.68-2.33c-5.68-1.16-11.36-2.36-17.08-3.34
	c-3.67-0.63-7.4-0.9-11.23-1.35c-0.7,1.44-1.32,2.65-1.87,3.89c-1.08,2.46-2.03,4.99-3.2,7.41c-1.34,2.76-2.93,5.39-4.28,8.14
	c-0.79,1.6-1.24,3.36-2.01,4.97c-2.45,5.07-5.04,10.07-7.46,15.15c-0.96,2.02-1.6,4.18-2.39,6.28c-0.44,1.16-1.05,2.28-1.3,3.48
	c-0.63,2.99-0.96,6.05-1.66,9.02c-0.7,2.98-0.11,5.62,1.51,8.07c1,1.52,2.18,2.92,3.26,4.38c2.09,2.83,4.26,5.6,6.22,8.52
	c2.53,3.78,4.81,7.72,7.33,11.5c3.21,4.81,6.53,9.55,9.83,14.3c0.83,1.19,1.82,2.27,2.66,3.46c1.77,2.5,3.53,5,5.2,7.57
	c1.42,2.2,2.66,4.52,4.07,6.73c0.38,0.59,1.08,0.97,1.93,1.72c2.71-3.32,5.14-6.45,7.72-9.45c3.55-4.13,7.62-7.56,13-9.11
	c1.34-0.39,2.66-0.72,3.82,0.67c-0.31,0.41-0.51,0.85-0.85,1.1c-1.81,1.35-3.81,2.49-5.47,4c-2.43,2.21-4.86,4.5-6.89,7.06
	C493.31,560.42,490.82,564.24,486.87,567.11z M630.96,429.8c-1.34-4.51-3.8-8.41-6.56-12.06c-3.91-5.18-8.08-10.16-12.19-15.18
	c-3.24-3.95-6.55-7.85-9.87-11.74c-0.88-1.03-1.81-2.07-2.87-2.9c-6.47-5.01-13.48-8.96-21.81-9.7c-7.25-0.64-14.52-1-21.79-1.41
	c-5.35-0.3-10.72-0.36-16.07-0.72c-5.57-0.37-11.14-0.81-16.67-1.52c-6.01-0.78-12.01-1.38-18.07-1.29c-0.8,0.01-1.63,0.12-2.4-0.06
	c-3.65-0.84-7.28-0.05-10.85,0.33c-7.2,0.76-13.75,3.78-20.52,6.84c-0.05,1.05-0.2,2.17-0.14,3.29c0.19,3.94,0.55,7.86,0.65,11.8
	c0.12,4.69,0.12,9.39-0.01,14.08c-0.06,2.25-0.42,4.53-0.9,6.74c-0.58,2.67-0.58,7.54,0.25,9.55c1.87-0.47,3.76-0.85,5.59-1.42
	c6.07-1.9,12.12-3.86,18.17-5.8c0.76-0.24,1.53-0.45,2.3-0.66c1.97-0.53,3.94-1.08,5.92-1.59c4.39-1.14,8.6-3.22,13.34-2.61
	c0.34,0.04,0.69-0.01,1.03-0.04c6.13-0.43,12.26-1.13,18.4-1.21c6.84-0.09,13.69,0.4,20.54,0.64c0.34,0.01,0.69,0.02,1.02,0.09
	c5.26,0.98,10.45,2.21,15.9,2.1c3.15-0.06,6.31,0.91,9.48,1.07c2.67,0.14,5.44,0.73,7.97-0.32c0.93-1.65,0.34-3.05-0.06-4.48
	c-0.74-2.62-1.61-5.22-2.08-7.89c-0.5-2.85-0.37-5.79-1.27-8.61c-0.5-1.55,0.59-3.25,2.27-3.71c1.04-0.29,2.2-0.18,3.2-0.25
	C602.6,407.15,614.69,420.48,630.96,429.8z M984.55,541.1c-0.65,1.78-0.46,3.75,1.46,5.51c0.65,0.59,0.94,1.58,1.43,2.45
	c-1.17,0.84-1.98,1.43-2.91,2.1c0.08,0.94,0.07,1.85,0.26,2.72c0.96,4.38-0.43,8.57-0.88,12.84c-0.34,3.24-1.17,6.65-0.55,9.73
	c0.9,4.48,1.9,6.69,6.54,6.27c3.47-0.32,7-1.01,10.09-2.9c2.71-1.66,5.41-3.34,8.1-5.05c6.63-4.21,13.29-8.39,19.85-12.71
	c1.29-0.85,2.35-2.16,3.26-3.44c3.13-4.45,4.95-9.66,8.02-14.15c0.12-0.18,0.11-0.45,0.19-0.66c1.85-4.4,3.64-8.83,5.59-13.18
	c1.74-3.89,2.74-7.89,2.7-12.19c-0.01-1.61,0.55-3.22,0.79-4.56c-0.18-1.25-0.35-2.27-0.47-3.3c-0.15-1.35-0.48-2.73-0.31-4.03
	c0.18-1.35,0.3-2.58,0.19-4c-0.38-4.84-0.2-9.72-0.26-14.58c-0.01-0.78-0.16-1.56-0.28-2.74c-1.34-0.22-2.64-0.47-3.94-0.63
	c-1.35-0.17-2.85,0.07-4.03-0.44c-2.46-1.06-4.97-1.44-7.7-1.46c-0.64,0.73-1.3,1.47-2.09,2.36c2.08,2.58,0.33,4.59-0.9,6.66
	c1.4,1.31,2.87,1.38,4.44,0.47c1.44-0.84,2.56-0.54,3.45,0.78c-0.37,1.96-0.8,3.67-2.82,4.49c-0.52,0.21-0.93,0.93-1.2,1.5
	c-0.95,2.02-1.9,4.02-4.15,4.9c0.56,1.77,1.05,3.29,1.5,4.72c-1.16,0.85-1.95,1.44-2.71,2c0.29,0.58,0.48,0.94,0.66,1.29
	c-0.94,0.91-2.95,0.62-2.5,2.65c-0.9,0.25-1.74,0.32-2.41,0.7c-4.43,2.49-9.14,2.07-13.67,0.81c-5.55-1.54-9.28-5.74-12.09-10.46
	c-1.7-2.84-2.37-6.3-3.57-9.66c-0.76,0.57-1.47,1.09-2.33,1.74c0,1.94,0.02,3.88-0.01,5.82c-0.01,0.8,0.11,1.69-0.19,2.37
	c-1.36,3.1-2.56,6.21-2.59,9.66c-0.01,0.53-0.4,1.05-0.54,1.59c-0.28,1.08-0.65,2.16-0.73,3.26c-0.14,1.82,0.28,3.76-0.19,5.47
	c-0.63,2.34-0.3,4.49,0.16,6.72c0.48,2.36,1.59,3.18,4.03,3.06c1.31-0.06,2.63,0.02,4.32,0.05c-0.31,1.27-0.5,2.07-0.73,2.99
	c-0.99-0.42-1.69-0.71-1.72-0.72C990.11,539.03,987.7,539.93,984.55,541.1z M474.76,433.69c1.43-0.07,2.6,0.07,3.64-0.23
	c1.65-0.48,3.11-0.52,4.55,0.56c0.42,0.32,1.08,0.34,1.63,0.45c5.91,1.16,11.87,2.16,17.73,3.52c4.89,1.14,9.66,2.77,14.76,2.75
	c6.91,2.44,14.48,1.7,21.33,4.49c0.8,0.33,1.81,0.17,2.72,0.19c3.32,0.07,6.64,0.05,9.95,0.21c7.17,0.35,14.33,0.87,21.5,1.16
	c3.03,0.12,5.92,0.65,8.65,1.87c6.44,2.88,12.91,5.73,19.61,7.96c5.08,1.69,10.23,3.16,15.38,4.63c1.27,0.36,2.26,0.85,3.05,1.97
	c2.42,3.4,5.48,6.15,9.61,9.06c-0.55-1.54-0.75-2.38-1.14-3.12c-2.19-4.09-4.35-8.18-6.01-12.52c-1.33-3.47-2.84-6.88-4.39-10.27
	c-0.7-1.53-1.77-2.89-2.52-4.4c-1.7-3.44-3.22-7-5.82-9.88c-2.59-2.88-5.16-5.98-8.93-7.24c-3.1-1.04-6.42-1.41-9.67-1.97
	c-1.34-0.23-2.73-0.15-4.1-0.26c-4.54-0.35-9.09-1.1-13.61-0.96c-4.22,0.13-8.33,0.04-12.4-1.06c-0.88-0.24-1.78-0.38-2.68-0.51
	c-4.51-0.65-9.01-1.73-13.53-1.79c-6.01-0.08-12.04,0.61-18.06,1.05c-1.92,0.14-3.86,0.85-5.73,0.69
	c-4.45-0.39-8.72,0.68-12.77,1.96c-5.2,1.64-10.67,2.22-15.74,4.36c-2.05,0.87-4.44,0.92-6.59,1.6c-3.46,1.11-6.85,2.43-10.42,3.72
	C474.76,432.08,474.76,432.62,474.76,433.69z M832.67,431.89c-1.19,0-1.88-0.22-2.28,0.03c-2.78,1.77-5.62,3.47-8.21,5.5
	c-2.68,2.1-5.23,4.42-7.6,6.87c-3.39,3.51-6.75,7.08-8.91,11.56c-1.73,3.59-3.33,7.25-5.26,10.72c-1.74,3.14-2.69,6.68-4.95,9.55
	c-0.33,0.42-0.46,1.03-0.56,1.58c-0.54,2.91-1,5.83-1.58,8.73c-0.47,2.33-0.92,4.68-1.63,6.94c-1.14,3.62-1.54,7.3-1.76,11.06
	c-0.19,3.25,1.68,5.19,4.13,6.01c3.08,1.03,6.46,1.29,9.74,1.54c2.16,0.16,3.94-0.8,4.74-3.15c1.1-3.21,3.04-6.29,3.42-9.56
	c0.5-4.22,2.07-7.66,4.24-11.18c1.82-2.96,2.87-6.4,4.18-9.66c0.73-1.82,1.3-3.71,1.93-5.53c-5-2.06-5.45-4.37-2.3-8.16
	c2.16-2.61,4.16-5.41,5.86-8.34c2.72-4.68,5.23-9.5,5.8-15.04C832,438.32,832.32,435.3,832.67,431.89z M886.66,403.91
	c-5.86-1.46-10.81,1.07-15.65,3.02c-4.39,1.77-8.3,4.71-12.49,6.99c-1.84,1-2.67,2.3-2.57,4.38c0.15,3.12-0.86,5.83-3.16,8.02
	c-0.49,0.47-1.03,0.96-1.33,1.55c-2.7,5.25-5.39,10.51-7.97,15.82c-0.58,1.19-0.65,2.63-1.11,3.9c-1.09,3.02-2.26,6-3.46,9.16
	c2.03-0.3,3.46-0.87,4.42-2.36c0.36-0.55,1-0.92,1.53-1.35c3.01-2.44,6.09-4.79,9.01-7.32c5.94-5.14,11.8-10.37,17.7-15.55
	c0.94-0.82,1.97-1.54,2.93-2.34c1.31-1.09,2.65-2.14,3.86-3.33c3.71-3.61,5.12-8.51,7.29-12.99
	C886.82,409.11,887.05,406.73,886.66,403.91z M978.39,436.06c-0.94,1.39-1.85,2.15-1.99,3.02c-0.6,3.77-1.93,7.36-2.71,11.05
	c-1.06,5.03-3.79,9.75-3.06,15.14c0.05,0.4-0.23,0.86-0.43,1.26c-1.81,3.71-0.56,7.52-0.32,11.29c0.08,1.2,0.76,2.38,0.76,3.57
	c-0.01,2.06,0.33,3.91,1.43,5.29c4.21-2.09,6.27-5.87,8.34-9.66c0.65-1.19,1.55-2.24,2.3-3.38c1.8-2.75,3.63-5.48,5.34-8.28
	c0.38-0.62,0.53-1.59,0.35-2.29c-0.59-2.27-1.38-4.48-2.19-7.04c-0.03,0.06,0.1-0.25,0.25-0.54c0.16-0.3,0.5-0.6,0.49-0.88
	c-0.15-4.46,2.02-9.47-3-12.8c-0.36-0.24-0.51-0.76-0.83-1.08C981.69,439.3,980.25,437.9,978.39,436.06z M949.78,415.67
	c0.06-0.34,0.12-0.68,0.17-1.02c-1.64-0.7-3.22-1.6-4.92-2.08c-4.6-1.29-9.23-2.51-13.89-3.57c-4.77-1.09-9.56-2.16-14.4-2.85
	c-4.3-0.61-8.54-1.38-12.67-2.71c-2.93-0.94-5.85-0.6-8.66-0.45c-3.13,4.39-5.83,11.69-5.38,14.86c1.39-0.08,2.84-0.09,4.27-0.27
	c2.37-0.3,4.74-1.09,7.08-1c7.64,0.29,15.26-0.76,22.89-0.08c0.34,0.03,0.68-0.06,1.02-0.09c2.27-0.21,4.53-0.56,6.8-0.59
	c4.81-0.07,9.62,0.04,14.43,0.05C947.62,415.87,948.7,415.74,949.78,415.67z M644.79,460.82c0-1.2,0.15-1.8-0.02-2.29
	c-1.2-3.4-2.88-6.7-3.61-10.19c-0.77-3.68-2.85-6.23-5.55-8.32c-4.48-3.48-9.19-6.66-13.79-9.99c-2.4-1.74-4.87-3.4-7.14-5.3
	c-5.52-4.63-10.45-9.87-15.3-15.18c-1.1-1.2-2.05-2.72-3.98-3.32c-0.4,4.29,1.58,7.34,4.28,10.05c2.97,2.98,5.76,6.22,9.08,8.76
	c4.26,3.25,6.92,7.83,10.54,11.58c4.2,4.34,8.05,9.01,12.17,13.44c2.09,2.24,4.37,4.31,6.66,6.36
	C639.97,458.04,641.93,459.54,644.79,460.82z M646.15,467.77c-1.15-0.6-2.26-1.15-3.34-1.77c-0.89-0.51-1.82-0.98-2.57-1.66
	c-3.7-3.37-7.34-6.8-11-10.21c-0.9-0.84-1.85-1.47-3.3-1.17c0.41,0.61,1.01,1.09,0.98,1.53c-0.14,2.35,1.21,4.11,2.23,5.99
	c1.15,2.09,2.44,4.1,3.59,6.2c2.21,4.04,5.37,7.29,8.58,10.52c1.16,1.16,2.42,1.63,4.06,0.82
	C646.51,474.69,646.38,471.31,646.15,467.77z M559.44,370.8c-0.01-0.27-0.02-0.54-0.03-0.82c-3.36-0.49-6.72-0.99-10.08-1.47
	c-4.39-0.62-8.8-1.12-13.16-1.87c-6.08-1.04-12.16-1.86-18.36-1.59c-2.63,0.12-4.95,1.1-7.37,1.92c0.57,1.58,1.7,1.4,2.69,1.43
	c5.01,0.15,9.95,0.37,14.97,1.19c7.73,1.27,15.62,1.89,23.51,1.67c1.13-0.03,2.3,0.06,3.39,0.34
	C556.68,372.03,558.07,371.55,559.44,370.8z M1002.81,500.52c-0.76,1.5-0.67,2.6,0.46,3.58c0.59,0.52,1.11,1.13,1.61,1.75
	c2.63,3.29,6.1,4.65,10.19,4.05c4.05-0.6,6.23-4.37,4.75-7.72c-0.57-1.29-1.01-2.65-1.57-4.14c-1.85-0.15-3.89-0.32-6.01-0.5
	c-0.23,0.78-0.51,1.72-0.81,2.76C1008.41,499.95,1005.73,502.49,1002.81,500.52z M985.32,416.55c-3.4,3.11-3.22,7.58-5.42,10.78
	c3.36,4.38,3.81,4.73,6.06,4.79C987.35,429.03,987.07,419.61,985.32,416.55z M1027.05,467.59c0.08,1.49,0.14,2.56,0.2,3.69
	c2.73,0.45,5.4-0.04,7.75,2.31c0.19-2.38,0.33-4.13,0.48-6.01C1032.73,467.59,1030.16,467.59,1027.05,467.59z M1003.52,469.15
	c2.28-0.29,3.6-1.18,4.97-2.52C1005.54,465.95,1005.54,465.95,1003.52,469.15z M840.43,431.53c2.58-1.56,2.58-1.56,1.61-3.9
	C840.75,428.67,840.49,429.94,840.43,431.53z M1044.06,468.88c0.85-0.15,1.37-0.25,2.08-0.38c-0.33-1.28-0.61-2.34-1.05-4.06
	C1044.66,466.29,1044.41,467.41,1044.06,468.88z M1058.35,471.23c-0.28,0.01-0.56,0.02-0.85,0.03c0.06,0.67,0.12,1.35,0.18,2.02
	c0.22-0.01,0.45-0.03,0.67-0.04C1058.35,472.57,1058.35,471.9,1058.35,471.23z M1029.61,479.72c-0.86,0.76-1.29,1.13-1.92,1.68
	C1029.1,481.88,1029.7,481.72,1029.61,479.72z"/>
<path d="M1030.07,614.2c-0.11-0.44-0.2-0.58-0.16-0.66c0.5-1.05,1.46-2.11,1.41-3.13c-0.05-1.29,0.37-2.13,0.99-3.11
	c1.3-2.08,2.51-4.23,3.72-6.36c0.93-1.64,2.26-2.78,4.07-3.52c1.14,0.51,2.28,1.02,3.68,1.64c1.7-1.13,3.76-1.36,6-1.29
	c-1.26,3.66-0.6,4.33,4.62,4.7c-1.38,2.01-2.65,3.86-3.97,5.78c-1.17-0.55-2.04-0.96-2.76-1.3c-1.72,0.39-2.52,2.07-2.09,3.78
	c-1.73,0.4-3.47,0.79-5.35,1.22c0.35,1.38,0.62,2.46,0.95,3.77c3.68-3.67,6.92-1.48,10.19,0.37c0.58,1.14,0.73,2.21-0.25,3.16
	c-1.03,1-1.59,2.93-3.3,2.69c-3.39-0.47-6.1,1.33-9.08,2.25c-0.44,0.14-0.85,0.36-1.29,0.44c-2.01,0.39-2.56-0.41-1.89-2.89
	c0.71,0.17,1.43,0.34,2.78,0.67c-0.93-1.1-1.47-1.74-2.04-2.4c-0.78,0.33-1.39,0.59-2.19,0.93c0-1.66,0-3.19,0-4.7
	C1032.67,615.51,1031.27,614.8,1030.07,614.2z"/>
<path d="M1045.23,583.19c2.54-2.64,2.81-2.76,7.32-3.3c0.6-1.91,0.6-1.91-0.2-3.71c1.61-1.2,3.12-1.05,4.76,0.32
	c-0.81,1.14-1.59,2.22-2.46,3.45c0.41,0.85,0.84,1.74,1.26,2.61c-0.89,1.43-1.83,2.5-3.57,2.4c-0.22-0.01-0.47,0.04-0.67,0.14
	c-1.19,0.6-2.36,1.83-3.76,0.88C1046.86,585.28,1046.11,584.13,1045.23,583.19z"/>
<path d="M1072.25,482.16c1.94-1.71,2.79,0.15,4.41,1.05C1074.47,484.57,1073.7,482.08,1072.25,482.16z"/>
<path d="M1066.84,512.84c1.68,0.41,2.74,0.66,4.04,0.98c-0.89,1.43-2.19,1.01-3.37,1.5C1067.3,514.51,1067.14,513.94,1066.84,512.84
	z"/>
<path d="M1015.67,584.05c-0.68-0.03-1.35-0.07-2.03-0.1c-0.03-0.2-0.06-0.39-0.09-0.59c0.45-0.14,0.91-0.4,1.35-0.38
	c0.32,0.01,0.62,0.4,0.93,0.61C1015.78,583.74,1015.73,583.89,1015.67,584.05z"/>
<path d="M1065.52,489.43c0.75,0.04,1.49,0.08,2.44,0.13c-1.49,1.25-1.49,1.25-2.42-0.15L1065.52,489.43z"/>
<path d="M699.43,698.58c0.12-0.55,0.44-1.15,0.3-1.58c-0.7-2.14,0.1-3.97,0.88-5.9c1.11-2.73,2.08-5.51,2.99-8.31
	c0.77-2.36,1.38-3.09,3.84-3.03c1.91,0.05,4.03,0.14,5.67,0.97c1.76,0.9,3.43,1.07,5.25,1.07c0.67,0,1.4,0.07,2.01,0.32
	c1.44,0.58,2.66,0.44,3.69-1.11c3.62,3.03,7.5,5.05,11.91,6.04c2.66,0.6,5.27,1.45,7.9,2.19c0.22,0.06,0.44,0.12,0.66,0.18
	c2.74,0.7,4.91,2.17,6.86,4.26c4.93,5.27,11.05,8.74,17.9,10.91c1.72,0.54,3.49,0.99,5.27,1.25c3.82,0.56,5.85,4.01,3.44,6.92
	c-2,2.41-2.69,5.02-2.96,7.78c-0.31,3.22-1.91,5.57-4,7.71c-1.83,1.87-3.73,3.71-5.82,5.27c-1.51,1.13-3.37,1.81-5.09,2.66
	c-0.61,0.3-1.37,0.37-1.89,0.77c-3.25,2.44-7.1,3.51-10.84,4.85c-1.81,0.65-3.46,1.73-5.24,2.48c-5.26,2.2-10.44,4.64-15.84,6.41
	c-6.18,2.03-12.62,3.11-19.2,2.64c-0.34-0.02-0.74,0.04-1.01-0.12c-2.94-1.68-6.26-1.99-9.45-2.76c-0.83-0.2-1.51-0.96-2.31-1.36
	c-2.24-1.1-4.44-2.8-6.79-3.05c-4.53-0.5-8.24-2.65-12.05-4.67c-1.64-0.87-3.12-1.8-5.09-1.54c-0.61,0.08-1.4-0.17-1.91-0.53
	c-2.77-1.97-5.47-4-7.36-6.94c-0.66-1.03-1.64-1.85-2.48-2.75c-0.77-0.82-1.84-1.5-2.27-2.47c-2.08-4.66-4.26-9.31-3.91-14.65
	c0.12-1.89-0.2-3.8-0.11-5.69c0.22-4.73,2.76-8.57,4.91-12.56c1.47-2.73,3.25-5.15,5.52-7.29c2.01-1.89,4.09-2.83,6.82-2.04
	c0.76,0.22,1.58,0.35,2.36,0.29c4.06-0.28,7.93,0.84,11.85,1.55c2.7,0.49,4.66,2.36,6.55,4.17s3.63,3.79,5.42,5.7
	C696.77,697.58,697.71,698.56,699.43,698.58z M703.4,723.05c-1.25-0.11-1.45-0.91-1.28-1.95c0.13-0.78,0.56-1.64,0.36-2.31
	c-0.52-1.71-0.4-3.3-0.09-5.04c0.19-1.08-0.51-2.37-1.02-3.47c-0.2-0.44-0.95-0.63-1.8-1.15c0,1.55,0,2.62,0,3.75
	c-0.82,0.1-1.45,0.19-2.01,0.26c-0.75,1.34-0.23,3.46-2.68,3.61c-0.63-2.1-0.27-4.48-1.97-6.04c-1.26-1.16-1.26-2.58-1.25-4.08
	c0-1.02-0.11-2.03-0.17-3.07c-2.95-1.46-3.74-4.16-4.18-6.75c-1.47-1.15-2.8-2.05-3.95-3.14c-1.49-1.41-3.12-2.19-5.2-2.25
	c-3.62-0.12-7.24-0.48-10.86-0.56c-1.8-0.04-3.2,0.71-3.92,2.68c-0.73,1.99-1.71,3.95-2.91,5.7c-2.36,3.42-2.75,7.14-2.22,11.08
	c0.12,0.9,0.49,1.8,0.44,2.68c-0.2,3.54,1.27,6.65,2.31,9.89c0.81,2.5,3.05,4.06,3.99,6.29c1.64,3.91,5.25,5.43,8.33,7.31
	c3.53,2.16,7.79,3.1,11.57,4.91c3.4,1.62,6.8,2.48,10.17,1.74c3.29,1.71,6.27,3.28,9.28,4.81c4.36,2.2,8.98,1.24,13.47,0.81
	c3.96-0.38,7.68-1.84,11.41-3.37c4.32-1.78,8.63-3.51,12.65-5.88c2.05-1.21,3.85-3,6.03-3.81c4.37-1.64,8.41-3.86,12.44-6.12
	c3.05-1.71,5.03-4.36,6.43-8.26c-1.33,0.16-2.07,0.14-2.73,0.36c-1.08,0.36-2.07,1.16-3.15,1.29c-6.56,0.8-13.12,1.91-19.7,2.04
	c-6.68,0.13-13.38-0.74-20.07-1.22c-1.99-0.14-3.71-0.88-5-2.56c-1.08-1.41-2.35-2.69-3.71-4.23c-1.17,0.06-2.58,0.12-4.28,0.21
	c1.26,3.09,2.45,5.95,0.49,8.88c-2.62-0.99-2.94-3.49-3.92-5.95c-0.58,1.29-0.95,2.12-1.32,2.94L703.4,723.05z M762.71,713.32
	c-3.18-2.34-6.17-4.55-9.17-6.73c-1.37-1-3-1.74-4.12-2.95c-4.09-4.46-9.03-6.86-15.11-6.67c-4.3,0.14-7.97-1.59-11.55-3.65
	c-2-1.15-4.17-1.63-6.43-1.68c-1.54-0.03-3.08,0.14-4.63,0.22c-1.48,0.29-2.15,1.35-2.12,2.9c0.04,2.08-0.45,4.32,1.83,5.67
	c0.18-0.28,0.36-0.55,0.55-0.84c0.12,0.2,0.3,0.37,0.3,0.53c-0.06,2.5,1.74,3.77,3.31,5.27c1.28,1.23,2.54,1.02,4.09,0.8
	c1.16-0.17,2.5,0.28,3.63,0.76c3.23,1.37,3.78,5.23,1.13,7.49c-0.65,0.55-1.42,0.97-2.19,1.48c2.17,1.77,4.61,1.88,7.96,0.49
	c2.48,1.24,5.11,1.78,7.86,1.81c6.63,0.08,13.17-0.76,19.62-2.22C759.5,715.59,761.52,715.22,762.71,713.32z"/>
<path d="M819.69,558.05c0-1.57,0-2.9,0-4.28c2.28-0.75,4.31-1.56,6.74-0.67c0.99,0.36,2.37-0.36,3.9-0.65
	c2.86,1.79,6.07,3.71,9.17,5.78c1.01,0.67,1.75,1.75,2.64,2.63c1,0.98,2.02,1.93,3.13,3c0.69,1.64,1.25,3.65,2.32,5.33
	c1.85,2.93,2.56,6.01,2.24,9.41c-0.08,0.9-0.01,1.82-0.01,2.19c-2.18,2.7-3.91,5.08-5.9,7.22c-2.01,2.16-4.22,4.15-6.49,6.04
	c-0.82,0.68-2.05,1.03-3.14,1.16c-4.58,0.56-8.65-1.77-10.82-6c-2.06-4-4.13-7.99-6.19-11.99c-0.2-0.4-0.54-0.87-0.46-1.24
	c0.47-2.37-1.16-4.11-1.94-6.01c-0.94-2.28-1.4-4.56-1.49-6.92C813.23,558.94,815.22,557.34,819.69,558.05z"/>
<path d="M1035.2,490.1c-1.07-0.45-1.73-0.72-2.38-1c0.14-0.37,0.16-0.69,0.29-0.74C1034.18,487.94,1035.09,487.9,1035.2,490.1z"/>
<path d="M1034.38,483.94c0.69,0.61,1.21,1.07,1.77,1.57c-0.22,0.18-0.39,0.41-0.5,0.39
	C1034.38,485.64,1034.38,485.63,1034.38,483.94z"/>
<path d="M694.56,721.09c0.72-1.01,1.29-1.8,1.87-2.61c2.95,3.19,2.92,4.49-0.14,6.41C695.74,723.67,695.18,722.45,694.56,721.09z"/>
<path d="M703.38,723.06c1.13,0.99,0.73,1.94-0.06,3.23c-1.05-1.35-0.33-2.29,0.08-3.25L703.38,723.06z"/>
</svg>
