<?xml version="1.0" encoding="utf-8"?>
<!-- Generator: Adobe Illustrator 24.1.0, SVG Export Plug-In . SVG Version: 6.00 Build 0)  -->
<svg version="1.1" id="Layer_1" xmlns="http://www.w3.org/2000/svg" xmlns:xlink="http://www.w3.org/1999/xlink" x="0px" y="0px"
	 viewBox="0 0 1224 792" style="enable-background:new 0 0 1224 792;" xml:space="preserve">
<path d="M838.98,448.11c0,1.71,0,3.1,0,4.85c-1.29-0.52-2.22-0.9-3.1-1.25c-0.26,0.12-0.54,0.16-0.61,0.31
	c-0.76,1.59-1.09,3.95-2.32,4.6c-1.51,0.79-3.07,1.32-4.42,2.56c-2.19,2.01-2.77,3.83-1.62,6.63c0.15,0.36,0.2,0.76,0.29,1.13
	c-3.86,1.6-5.44,1.11-7.66-2.35c-1.99,0.49-3.75,1.05-4.86,3.25c-0.58,1.15-2.32,1.77-3.62,2.47c-3.96,2.13-5.67,1.79-9.21-1.17
	c-1.5-1.25-3.33-2.11-5.01-3.15c-4.19-2.59-6.63-6.53-8.45-10.96c-1.14-2.77-3.42-4.6-5.49-6.62c-0.85-0.83-1.5-1.87-2.2-2.85
	c-1.27-1.78-2.37-3.7-3.79-5.36c-1.46-1.7-2.64-1.39-3.37,0.75c-0.87,2.56-1.6,5.16-2.42,7.74c-0.88,2.76-1.68,5.56-2.73,8.27
	c-2.25,5.81-3.95,11.76-5.1,17.89c-0.59,3.13-1.73,6.16-2.62,9.23c-1.12,3.88-2.14,7.81-3.4,11.65c-1.36,4.13-2.97,8.17-4.42,12.28
	c-0.79,2.25-1.43,4.54-2.19,6.8c-0.95,2.86-1.85,5.73-2.93,8.54c-2.6,6.82-4.3,13.86-5.89,20.98c-1.19,5.34-2.72,10.7-5.81,15.44
	c-1.75,2.69-2.96,5.73-4.55,8.53c-3.19,5.62-6.59,11.11-9.68,16.79c-2.59,4.76-4.92,9.66-7.25,14.55
	c-3.98,8.36-8.03,16.69-11.73,25.17c-2.57,5.9-6.16,11.13-10.05,16.1c-2.92,3.74-6.58,6.96-10.21,10.06
	c-4.43,3.79-9.18,7.22-13.79,10.8c-0.33,0.26-0.7,0.48-0.97,0.79c-3.4,3.95-8.1,6.21-12.1,9.37c-0.98,0.77-1.88,1.66-2.88,2.4
	c-1.58,1.16-3.27,2.18-4.82,3.38c-1.98,1.52-3.9,3.13-5.81,4.75c-6.68,5.66-13.33,11.34-20,17.01c-3.18,2.71-6.34,5.44-9.55,8.11
	c-7.09,5.88-14.45,11.28-23.44,14.07c-4.68,1.45-9.21,3.39-13.86,4.93c-2.66,0.89-5.44,1.44-8.17,2.13
	c-5.9,1.5-11.85,2.25-17.96,1.71c-1.7-0.15-3.47,0.57-5.22,0.68c-3.02,0.19-6.05,0.19-9.08,0.32c-4.59,0.2-9.2,0.83-13.76,0.56
	c-5.79-0.35-11.69,0.81-17.37-1.08c-1.88-0.62-3.67-1.59-5.59-1.97c-4.27-0.86-8.58-1.67-12.91-2.11
	c-5.52-0.56-10.69-2.02-15.22-5.18c-2.2-1.53-3.87-3.79-5.91-5.57c-2.28-2-4.36-3.97-5.38-7.05c-0.7-2.11-2.24-3.98-3.56-5.85
	c-3.45-4.92-7.01-9.75-10.46-14.66c-1.08-1.53-1.93-3.23-2.97-4.79c-3.86-5.82-7.73-11.64-11.67-17.41
	c-0.69-1.01-1.92-1.66-2.62-2.67c-1.34-1.94-3.31-3.55-3.46-6.18c-0.03-0.47-0.43-0.94-0.72-1.37c-2.77-4.15-5.62-8.26-8.3-12.47
	c-0.81-1.28-1.09-2.88-1.72-4.28c-2.13-4.72-3.72-9.66-5.68-14.43c-3.13-7.63-4.22-15.88-7.81-23.34
	c-2.57-5.34-4.78-10.85-7.29-16.21c-4.01-8.56-8.1-17.09-12.24-25.6c-2.45-5.04-4.98-10.04-7.64-14.98
	c-1.05-1.95-1.16-3.93-1.26-6.03c-0.3-6.27-1.53-12.38-3.2-18.42c-0.44-1.6-0.47-3.32-0.93-4.91c-1.13-3.91-2.43-7.77-3.59-11.67
	c-0.44-1.47-0.64-3.02-1.05-4.5c-1.92-6.84-0.64-13.91-1.54-20.8c-0.8-6.16-2.14-12.25-3.2-18.38c-0.54-3.07-0.69-6.25-1.57-9.22
	c-1.92-6.43-0.75-13.08-1.79-19.54c-0.81-5.02-2.09-9.96-3.27-14.91c-0.18-0.75-0.8-1.47-1.37-2.04c-2.39-2.42-3.33-2.17-4.93,0.79
	c-0.82,1.52-1.96,2.94-3.22,4.13c-5.86,5.55-13.4,7.51-20.94,9.22c-2.65,0.6-5.44-0.28-7.15-2.88c-0.91-1.39-1.96-2.74-2.63-4.24
	c-2.33-5.16-6.04-9.23-10.07-13.04c-2.78-2.63-4.52-5.98-4.64-9.58c-0.26-7.51,0.23-15.04,0.23-22.56c0-3.01,0.1-6.22-0.88-8.98
	c-2.63-7.45-1-14.02,2.87-20.45c2.43-4.04,5.03-7.91,8.47-11.18c1.2-1.14,2.04-2.64,3.11-3.92c1.65-1.98,3.73-2.42,6.22-1.78
	c4.35,1.12,8.71,2.24,13.12,3.05c2.09,0.39,4.31,0.07,6.76,0.07c0.13-2.65,0.27-5.12,0.38-7.59c0.2-4.26,0.36-8.53,0.58-12.79
	c0.04-0.83,0.33-1.66,0.33-2.48c-0.01-5.67,1.37-11.14,2.32-16.67c0.84-4.9,0.25-9.78-1.19-14.55c-1.55-5.15-0.64-10.16,0.54-15.26
	c0.78-3.41,0.87-6.98,1.13-10.49c0.11-1.45-0.07-2.93-0.22-4.38c-0.23-2.16-0.64-4.3-0.81-6.46c-0.21-2.6-0.66-5.27-0.29-7.81
	c0.76-5.12,1.32-10.3,3.2-15.23c2-5.23,3.48-10.67,5.5-15.89c1.12-2.88,2.92-5.49,4.36-8.25c0.96-1.85,1.79-3.77,2.75-5.62
	c1.53-2.95,2.99-5.95,4.71-8.78c4.11-6.76,7.48-13.84,9.74-21.44c0.3-0.99,0.84-1.91,1.27-2.86c1.89-4.18,2.86-8.6,3.54-13.13
	c0.42-2.76,1.25-5.46,1.9-8.19c0.19-0.8,0.55-1.62,0.53-2.42c-0.08-2.55,1.2-4.45,2.94-5.99c2.34-2.07,4.72-4.17,7.35-5.83
	c6.42-4.07,13.02-7.86,19.5-11.86c1.67-1.03,3.1-2.42,4.71-3.57c5.43-3.87,10.95-7.61,16.3-11.58c5.26-3.9,10.41-7.97,15.5-12.09
	c2.1-1.69,3.81-3.88,5.94-5.52c4.22-3.24,8.57-6.3,12.94-9.33c2.9-2.02,5.9-3.9,8.91-5.76c4.81-2.99,9.94-5.18,15.4-6.79
	c4.5-1.32,8.75-3.46,13.19-5c6.21-2.15,12.5-4.07,18.75-6.08c2.08-0.67,4.14-1.46,6.26-1.98c10.04-2.45,20.15-4.73,30.46-5.52
	c13.98-1.07,27.98-1,41.88,1.21c1.43,0.23,2.83,0.72,4.22,1.18c8.73,2.85,17.45,5.58,26.59,7.04c5.92,0.94,11.7,3.03,17.41,5
	c7.89,2.73,15.69,5.73,23.45,8.81c5.8,2.3,11.32,5.09,16.4,8.87c5.77,4.28,11.64,8.41,18,11.89c6.01,3.29,11.43,7.63,17.26,11.26
	c6.09,3.8,10.88,9.1,16.24,13.72c3.19,2.75,5.61,6.4,8.35,9.66c0.67,0.79,1.19,1.7,1.83,2.52c6.42,8.17,11.14,17.3,14.58,27.03
	c2.39,6.75,4.17,13.73,6.09,20.64c0.66,2.39,0.98,4.88,1.37,7.34c1.05,6.66,4.25,12.27,8.24,17.56c2.95,3.91,5.77,7.92,8.54,11.95
	c2.16,3.15,3.15,6.73,3.54,10.53c0.27,2.58,0.99,5.1,1.39,7.67c0.4,2.57,0.61,5.17,0.99,7.74c0.58,3.9,1.25,7.79,1.85,11.7
	c0.65,4.21,1.29,8.43,1.88,12.65c0.26,1.86,0.3,3.75,0.56,5.61c0.33,2.38,0.85,4.73-0.25,7.06c-0.21,0.45-0.19,1.03-0.18,1.55
	c0.07,10.43-0.4,20.88,0.98,31.28c0.4,2.99,0.1,6.06,0.2,9.09c0.13,3.97,0.43,7.93,0.49,11.9c0.05,3.13-0.1,6.26-0.23,9.39
	c-0.13,3.21-0.51,6.31,0.58,9.58c0.79,2.36,0.35,5.18,0.22,7.78c-0.1,2.06-0.79,4.11-0.79,6.16c0,3.01,0.24,6.03,0.66,9.01
	c0.29,2.1,0.31,4.41,2.44,6.26c0.92-0.88,1.78-1.92,2.84-2.65c1.52-1.05,3.1-2.17,4.83-2.74c4.06-1.34,8.24-2.32,12.34-3.54
	c7.03-2.08,14.08-4.21,21.52-3.47c3.6,0.36,7.2,1.1,10.7,2.02c2.04,0.53,3.24,2.32,3.33,4.49c0.14,3.53,0.11,7.07,0.16,10.61
	c0.01,0.52-0.04,1.05,0.03,1.57c1.61,11.93,1.06,23.94,1.04,35.92c0,2.01-0.66,4.09-1.34,6.02c-1.62,4.62-3.43,9.17-5.16,13.75
	c-1.02,2.71-2.06,5.38-2.3,8.36c-0.18,2.23-0.85,4.51-3.02,5.9c-0.59,0.38-1.24,0.98-1.43,1.61
	C842.39,446.35,841.19,447.73,838.98,448.11z M490.1,370.76c-0.13,0.2-0.27,0.41-0.4,0.61c0.16,0.37,0.25,0.79,0.48,1.1
	c4.09,5.38,8.13,10.81,12.36,16.08c1.14,1.41,2.89,2.33,4.36,3.48c0.41,0.32,0.95,0.56,1.21,0.97c0.36,0.57,0.9,1.5,0.68,1.87
	c-0.34,0.59-1.29,1.22-1.92,1.17c-2.26-0.17-4.64-0.18-6.51-1.81c-3.09-2.68-5.74-5.68-7.68-9.35c-1.2-2.27-2.87-4.34-4.56-6.29
	c-2.92-3.37-5.97-6.63-9.07-9.84c-1.81-1.87-3.04-4.22-5.99-5.09c-4.27-1.26-8.32-3.28-12.47-4.96c-4.93-2-9.82-4.12-14.82-5.9
	c-2.53-0.9-5.26-1.32-7.94-1.68c-4.21-0.56-8.46-1.22-12.69-1.22c-5.42,0.01-10.84,0.56-16.24,1.05c-1.82,0.16-3.71,0.57-5.37,1.3
	c-4.32,1.88-8.1,4.62-11.97,7.32c-5.63,3.92-11.74,7.15-17.73,10.53c-3.63,2.05-7.38,3.9-11.15,5.7c-4.74,2.27-8.21,1.42-11.65-2.69
	c-0.8-0.96-1.55-1.97-2.24-3.01c-1.16-1.76-2.38-3.37-4.38-4.35c-2.94-1.44-3.89-4.15-4.19-7.21c-0.1-1.02-0.18-2.12-0.62-3.01
	c-2.23-4.57-4.65-9.04-6.81-13.64c-0.56-1.2-1.22-1.84-2.41-2.14c-3.34-0.83-6.66-1.8-10.03-2.49c-3.26-0.67-6.25-0.15-8.44,2.75
	c-0.56,0.74-1.32,1.34-1.94,2.04c-3.38,3.81-7.09,7.47-8.2,12.68c-0.62,2.88-1.89,5.73-0.66,8.84c1.72,4.37,1.57,8.99,1.43,13.57
	c-0.1,3.33-0.41,6.66-0.59,10c-0.12,2.06-0.47,4.16-0.2,6.18c0.49,3.76,0.53,7.59,3.7,10.65c4.59,4.42,8.48,9.46,11.07,15.4
	c0.92,2.11,3.44,3.23,5.76,2.68c2.32-0.55,4.54-1.58,6.88-2.03c4.56-0.87,8.02-3.44,11.05-6.71c0.64-0.7,0.88-1.82,1.16-2.79
	c0.48-1.7,0.68-3.5,1.32-5.14c0.8-2.06,3.24-3.03,4.91-1.87c2.3,1.6,4.55,3.36,6.49,5.38c3.63,3.78,5.22,8.61,6.32,13.64
	c0.95,4.32,1.43,8.67,1.17,13.07c-0.38,6.31,0.95,12.44,1.84,18.61c0.56,3.9,1.39,7.77,1.9,11.68c0.59,4.54,0.92,9.12,1.45,13.68
	c0.17,1.43,1.01,2.88,0.86,4.24c-0.66,5.91,0.22,11.73,1.89,17.24c1.27,4.17,2.64,8.3,3.59,12.56c1.24,5.54,2.61,11.06,3.78,16.61
	c0.61,2.85,0.54,5.89,1.46,8.62c1.62,4.81,3.61,9.51,5.71,14.14c2.32,5.1,5.04,10.01,7.42,15.09c2.52,5.37,4.85,10.82,7.24,16.25
	c1.42,3.23,2.81,6.47,4.16,9.73c0.79,1.91,1.45,3.88,2.24,5.8c1.77,4.33,3.7,8.6,5.37,12.97c3.06,8.03,5.93,16.14,8.98,24.18
	c2.6,6.86,7.24,12.55,11.18,18.62c3,4.61,6.7,8.76,9.8,13.31c3.57,5.25,6.76,10.75,10.26,16.05c2.4,3.64,5.1,7.08,7.57,10.68
	c3.01,4.38,5.7,8.99,8.92,13.21c3.24,4.25,6.99,8.27,12.25,9.93c4.05,1.27,8.36,1.72,12.55,2.51c3.47,0.66,7.14,0.8,10.39,2.02
	c5.79,2.18,11.67,3.15,17.79,2.95c4.59-0.15,9.18-0.46,13.78-0.59c8.36-0.24,16.72-0.4,25.08-0.62c0.83-0.02,1.67-0.15,2.48-0.33
	c9.8-2.18,19.48-4.82,28.66-8.9c4.74-2.1,9.53-4.49,13.57-7.67c9.02-7.1,17.45-14.93,26.36-22.16c9.56-7.76,19.38-15.18,29.09-22.76
	c2.06-1.6,4.13-3.19,6.16-4.82c5.86-4.7,11.87-9.23,17.5-14.19c6.63-5.85,11.7-12.91,15.28-21.11c3.87-8.87,8.15-17.56,12.3-26.31
	c1.92-4.05,3.81-8.14,5.99-12.05c3.3-5.91,6.77-11.72,10.31-17.49c3.4-5.54,6.2-11.34,8.43-17.43c0.72-1.96,1.27-3.98,1.77-6.01
	c1.12-4.54,2.05-9.13,3.29-13.63c0.8-2.91,2.06-5.69,3.05-8.55c1.77-5.11,3.28-10.33,5.28-15.35c2.98-7.46,5.39-15.09,7.39-22.85
	c1.38-5.33,3.17-10.52,3.98-16.06c0.67-4.64,3.07-9.02,4.56-13.56c0.64-1.95,0.88-4.02,1.35-6.03c0.28-1.19,0.61-2.38,1.04-3.52
	c0.29-0.77,0.95-1.41,1.22-2.18c1.37-3.92,2.67-7.86,4-11.79c0.54-1.59,2.27-3.18,3.57-3.06c1.57,0.15,2.46,1.1,3.21,2.58
	c1.45,2.87,3.27,5.54,4.9,8.32c1.39,2.37,3.35,4.18,5.34,6.04c1.47,1.38,2.67,3.21,3.5,5.06c2.25,5.02,5.01,9.55,9.53,12.92
	c3.09,2.31,4.3,2.61,7.64,0.82c1.1-0.59,2.22-1.2,3.22-1.94c5.63-4.13,11.27-8.24,16.82-12.46c5.17-3.92,9.53-8.25,11.89-14.78
	c1.89-5.22,4.5-10.27,6.54-15.5c1.72-4.39,3.08-8.79,3.02-13.63c-0.15-12.55-0.07-25.11-0.08-37.67c0-4.75-0.99-6.03-5.64-7.2
	c-5.88-1.48-11.62-0.46-17.31,1.09c-4.93,1.35-9.83,2.78-14.75,4.15c-2.87,0.8-5.42,2.16-7.46,4.37c-1.97,2.14-3.9,4.3-5.83,6.48
	c-1.27,1.43-2.85,1.79-4.55,1.16c-1.5-0.55-2.13-1.79-2.25-3.44c-0.11-1.41-0.65-2.78-0.93-4.19c-0.87-4.26-1.73-8.53-2.55-12.8
	c-0.09-0.48,0.16-1.03,0.19-1.54c0.31-5.84,0.63-11.68,0.88-17.52c0.03-0.8-0.34-1.62-0.45-2.43c-0.25-1.82-0.89-3.73-0.58-5.46
	c0.68-3.81,1.2-7.57,1.08-11.45c-0.28-9.09-0.5-18.18-0.63-27.27c-0.1-6.68,0.08-13.36-0.04-20.03c-0.12-6.58-0.45-13.15-0.7-19.72
	c-0.02-0.41-0.12-0.83-0.19-1.24c-0.72-4.49-1.53-8.97-2.14-13.47c-0.75-5.57-1.19-11.19-2.03-16.74
	c-0.62-4.11-1.34-8.25-2.59-12.19c-1.59-5.04-5.26-8.94-8.26-13.19c-2.76-3.91-5.58-7.78-8.28-11.73c-0.64-0.93-1.09-2.06-1.33-3.17
	c-0.95-4.35-1.77-8.73-2.68-13.1c-0.75-3.64-1.35-7.33-2.37-10.89c-2-6.97-3.54-14.11-7.67-20.32c-2.59-3.89-4.63-8.16-7.33-11.97
	c-3.06-4.33-6.69-8.26-9.86-12.51c-4.16-5.58-9.53-9.96-14.98-14c-7.61-5.65-15.87-10.41-23.87-15.54
	c-1.84-1.18-3.82-2.18-5.57-3.48c-6.88-5.1-13.95-9.9-21.93-13.14c-8.21-3.34-16.4-6.75-24.78-9.59c-6.9-2.34-14.06-3.93-21.13-5.75
	c-3.64-0.94-7.36-1.53-10.99-2.49c-4.43-1.17-8.72-3.09-13.21-3.76c-9.28-1.4-18.54-3.23-28.02-2.89c-4.48,0.16-8.97,0-13.46,0.13
	c-2.49,0.07-5,0.33-7.47,0.71c-4.63,0.72-9.29,1.4-13.85,2.46c-5.08,1.18-10.06,2.76-15.08,4.17c-0.9,0.25-1.8,0.52-2.7,0.78
	c-3,0.87-6.05,1.61-9,2.63c-7.1,2.45-14.15,5.02-21.21,7.58c-3.43,1.24-7.16,2.03-10.19,3.92c-7.7,4.8-15.16,9.99-22.55,15.25
	c-3.3,2.35-6.22,5.24-9.31,7.89c-4.75,4.07-9.46,8.18-14.25,12.2c-3.26,2.73-6.48,5.56-9.98,7.96c-6.79,4.65-13.79,9-20.67,13.54
	c-3.74,2.47-7.57,4.85-11.05,7.65c-4.29,3.45-7.4,7.76-8.5,13.39c-0.88,4.48-2.13,8.9-3.34,13.31c-0.49,1.81-1.28,3.53-1.94,5.29
	c-1.91,5.04-3.51,10.21-6.33,14.86c-0.97,1.6-1.88,3.25-2.7,4.94c-2.32,4.77-4.51,9.61-6.89,14.35c-1.72,3.43-4.09,6.59-5.45,10.15
	c-3.76,9.9-7.53,19.84-8.53,30.53c-0.17,1.84-0.29,3.71-0.21,5.56c0.06,1.43,0.55,2.83,0.69,4.27c0.24,2.39,0.53,4.79,0.47,7.18
	c-0.11,4.9,0.18,9.93-0.85,14.65c-1.13,5.16-0.94,10.05-0.17,15.13c0.49,3.27,0.85,6.61,0.74,9.9c-0.11,3.41-0.92,6.79-1.33,10.2
	c-0.72,6-1.41,12-2.04,18.01c-0.25,2.39-0.48,4.8-0.4,7.19c0.16,4.92,0.53,9.82,3.76,13.95c0.64,0.82,1.22,1.71,1.67,2.65
	c0.47,0.96,0.75,2,1.11,3.01c-0.21,0.17-0.43,0.33-0.64,0.5c-0.75-0.43-1.52-0.82-2.23-1.3c-0.68-0.45-1.29-1-1.94-1.5
	c0.43,4.67,2.04,8.59,4.2,12.3c0.87,1.5,2.03,1.14,3.23,0.53c3.54-1.81,6.47-4.3,8-8.05c2.64-6.44,7.65-10.81,12.86-15.01
	c0.95-0.76,2.17-1.34,3.35-1.63c4.36-1.07,8.73-2.25,13.16-2.9c10.22-1.51,20.45-2.99,30.73-3.98c5.15-0.5,10.41,0.01,15.61,0.26
	c1.84,0.09,3.38,1.25,4.17,2.98c0.79,1.73,2.09,2.93,3.71,3.66c5.72,2.55,10.17,6.94,15.08,10.59c5.68,4.23,10.96,9.05,16,14.04
	c4.53,4.48,9.85,7.41,15.69,9.38c5.53,1.86,10.38,4.89,15.28,7.87c2.29,1.4,4.55,3.04,6.38,4.99c3.98,4.25,7.75,8.72,11.48,13.2
	c3.27,3.92,6.36,8,9.57,11.97c0.72,0.89,1.57,1.68,2.41,2.46c1.29,1.2,2.71,2.28,3.94,3.55c3.91,4.04,7.59,8.32,11.67,12.17
	c3.2,3.02,5.25,6.71,6.11,10.73c1.71,7.92,3.01,15.95,3.95,24c0.81,6.94,0.97,13.95,1.25,20.94c0.33,8.25,0.46,16.51,0.71,24.76
	c0.08,2.69,0.27,5.38,0.41,8.03c0.68,0.33,1.12,0.65,1.61,0.77c1.9,0.46,2.46,1.78,2.35,3.53c-0.07,1.04-0.2,2.07-0.33,3.11
	c-0.31,2.49-0.76,4.96-0.93,7.46c-0.57,8.32-1.31,16.64-1.44,24.97c-0.08,5.16,1.33,10.12,5.74,13.58c1.69,1.32,2.83,2.87,3.52,5
	c0.59,1.82,1.87,3.48,3.11,5c2.68,3.27,4.77,6.76,5.48,11.01c0.19,1.11,0.98,2.12,1.65,3.48c3.29-2.51,5.66-5,6.99-8.44
	c0.83-2.13,1.82-4.21,2.9-6.22c1.58-2.93,3.23-5.82,5-8.64c0.64-1.02,1.65-1.85,2.62-2.61c2.29-1.78,4.66-3.43,6.21-6.01
	c0.97-1.6,2.15-3.1,3.4-4.5c2.01-2.24,3.27-4.82,4-7.69c0.47-1.82,0.86-3.66,1.32-5.48c1.11-4.43,2.45-8.82,3.32-13.3
	c1.61-8.21,3.63-16.3,7.59-23.7c4.13-7.73,8.32-15.46,13.12-22.78c3.34-5.1,3.76-10.25,2.71-15.82c-1.02-5.41-0.96-10.8-0.23-16.21
	c0.25-1.87,0.2-3.66-0.52-5.27c-2.1,1.24-3.97,2.47-5.95,3.49c-1.23,0.63-2.4,0.38-3.26-0.91c-0.93-1.4-0.33-2.38,0.73-3.24
	c2.84-2.28,5.64-4.62,8.6-6.73c1.44-1.03,2.61-2.03,2.87-3.85c1.11-7.69,1.66-15.47,3.26-23.1c0.7-3.36,1.17-6.77,1.67-10.18
	c0.83-5.7,1.5-11.4,0.38-17.15c-0.34-1.77,0.24-3.17,1.46-4.55c2.19-2.46,4.51-4.85,5.71-8.05c0.2-0.53,0.8-0.94,1.27-1.34
	c3.05-2.62,6.12-5.22,9.18-7.84c1.74-1.48,3.31-3.24,5.24-4.39c1.89-1.13,3.4-2.39,4.07-4.47c0.38-1.2,1.18-1.75,2.32-1.69
	c2.16,0.12,3.76-1.04,5.42-2.13c2.28-1.5,4.68-2.59,7.44-3.12c2.85-0.54,5.66-1.53,8.34-2.68c7.45-3.2,15.22-5.03,23.24-5.85
	c1.02-0.11,2.66,0.21,3.05,0.89c0.51,0.88,0.51,2.65-0.07,3.46c-3.19,4.4-1.83,9.48-2.28,14.24c-0.35,3.6,0.68,7.36,0.18,10.92
	c-0.36,2.6-1.58,5.81-3.52,7.32c-4.67,3.63-9.8,6.8-15.12,9.39c-2.82,1.38-4.66,3.23-6.4,5.56c-0.74,0.99-1.67,1.86-2.63,2.64
	c-1.05,0.85-1.8,0.48-2.47-0.71c-0.69-1.21-1.59-2.35-2.58-3.33c-1.24-1.24-1.38-1.98,0.05-3c0.72-0.52,1.7-0.98,2.55-0.97
	c1.73,0.03,3-0.68,4.2-1.76c3.98-3.58,7.94-7.21,13.25-8.82c0.89-0.27,1.72-0.71,2.57-1.09c2.34-1.04,4.03-2.77,4.53-5.27
	c0.36-1.81,0.34-3.72,0.27-5.58c-0.2-5.2-0.59-10.4-0.75-15.6c-0.07-2.32-0.73-3.15-2.97-2.57c-3.11,0.81-6.16,1.81-9.21,2.82
	c-1.78,0.59-3.46,1.53-5.27,1.99c-9.01,2.3-16.27,7.91-24,12.62c-2.38,1.45-4.38,3.5-6.6,5.23c-5.08,3.96-8.86,9.09-12.76,14.12
	c-1.67,2.16-3.06,4.45-2.29,7.48c0.33,1.28,0.26,2.74,0.04,4.06c-1.22,7.39-1.66,14.9-3.34,22.23c-0.8,3.53-0.99,7.19-1.49,10.79
	c-0.29,2.04-0.68,4.06-0.97,6.1c-0.1,0.75-0.02,1.52-0.02,3c2.18-0.96,3.91-1.43,5.29-2.4c2.55-1.79,5.12-3.66,7.27-5.89
	c3.6-3.72,8.09-6.65,10.5-11.48c0.3-0.6,0.98-1.09,1.58-1.46c4.4-2.66,9.07-4.65,14.19-5.44c2.48-0.38,4.77,1.43,4.82,3.74
	c0.04,1.8-1.17,3.04-2.76,2.35c-2.95-1.28-5.14-0.5-7.83,1.05c-3.94,2.27-7.44,4.88-10.52,8.18c-5.4,5.8-11.25,11.08-17.92,15.44
	c-3.47,2.27-7.22,4.56-6.34,9.76c0.05,0.29-0.1,0.61-0.17,0.92c-1.41,5.78-1.25,11.63-0.39,17.44c0.76,5.18,0.63,10.31-1.73,14.97
	c-2.99,5.93-6.42,11.65-9.8,17.38c-3.86,6.54-7.27,13.19-9.48,20.56c-1.57,5.24-1.78,10.66-3.29,15.86
	c-1.15,3.98-1.51,8.19-2.68,12.16c-1.97,6.69-5.65,12.53-10.08,17.86c-2.32,2.8-5.23,5.12-7.43,8c-2.38,3.12-4.29,6.6-6.31,9.98
	c-2.4,4.01-4.58,8.15-7.09,12.09c-0.86,1.36-2.34,2.37-3.66,3.37c-4.74,3.6-9.22,1.91-9.92-4.01c-0.65-5.48-2.68-9.99-6.88-13.59
	c-1.42-1.22-2.52-2.7-2.82-4.74c-0.24-1.6-2.81-3.32-4.48-3.35c-1.83-0.03-2,1.57-2.6,2.72c-1.14,2.19-2.65,3.08-4.42,2.54
	c-1.94-0.59-2.94-2.31-2.71-4.73c0.17-1.76,0.33-3.53,0.59-5.29c0.21-1.42,0.5-2.85,0.87-4.24c1.41-5.31,3.14-10.54,2.92-16.18
	c-0.1-2.48,0.43-4.98,0.66-7.47c0.13-1.35,0.37-2.7,0.31-4.04c-0.27-5.74-0.73-11.46-0.95-17.2c-0.25-6.79-0.27-13.58-0.48-20.37
	c-0.27-9.09-0.58-18.17-0.97-27.25c-0.16-3.64-0.46-7.29-0.93-10.9c-0.79-6-1.88-11.97-2.65-17.98c-0.49-3.8-1.27-7.44-3.82-10.41
	c-3.39-3.94-6.8-7.86-10.34-11.66c-3.97-4.27-8.49-8.09-12.05-12.66c-5.25-6.75-10.6-13.42-16.6-19.47
	c-3.93-3.96-8.69-7.15-13.28-10.4C494.52,372.07,492.18,371.6,490.1,370.76z M370.57,348.94c-0.73,1.17-1.05,2.1-1.69,2.65
	c-3.69,3.19-7.37,6.43-11.25,9.38c-2.15,1.64-3.39,3.68-3.85,6.17c-0.18,0.97,0.2,2.29,0.8,3.11c1.65,2.27,3.75,2.67,6.69,1.16
	c6.67-3.45,13.31-6.95,19.85-10.63c4.27-2.4,8.44-5.02,12.48-7.8c6.38-4.38,13-7.83,21.03-7.69c5.82,0.1,11.65-0.13,17.47-0.03
	c2.38,0.04,4.81,0.31,7.1,0.92c5.93,1.6,11.8,3.48,17.7,5.2c0.89,0.26,1.83,1.08,3.27-0.2c-1.65-1.23-3.04-2.42-4.58-3.38
	c-3.09-1.94-6.33-3.65-9.38-5.64c-3.39-2.21-6.65-4.61-9.93-6.96c-0.58-0.41-1.11-0.98-1.46-1.59c-1.12-1.92-2.84-2.65-4.94-2.79
	c-8.17-0.55-16.26,0.45-24.29,1.64c-7.53,1.11-14.97,2.76-22.43,4.29c-2.12,0.44-4.36,0.94-6.2,2c-2.42,1.39-4.56,3.3-6.7,5.12
	c-1.29,1.1-2.37,2.45-3.83,3.98C367.96,348.27,368.93,348.52,370.57,348.94z"/>
<path d="M514.39,466.87c0.18-7.74,2.12-14.9,5.96-21.55c1.19-2.06,2.31-4.2,3.76-6.07c1.51-1.95,3.47-3.31,6.25-2.44
	c0.77,0.24,1.67,0.02,2.5,0.1c2.19,0.19,4.07,0.98,5.19,3.01c0.85,1.54,1.93,2.6,3.82,2.89c1.74,0.27,2.7,1.32,3.24,3.27
	c1.47,5.28,1.31,10.74,2.2,16.08c0.43,2.56,0.5,5.2,0.6,7.8c0.29,7.89-1.01,15.24-6.15,21.71c-3.75,4.71-13.16,6.25-18.3,1.63
	c-3.97-3.57-6.48-7.9-7.34-13.1C515.38,475.78,514.96,471.31,514.39,466.87z M542.15,463.8c-1.17,1.41-2.24,2.91-3.53,4.2
	c-1.62,1.61-3.43,3.03-5.12,4.57c-2.35,2.14-5.21,1.51-5.98-1.66c-0.8-3.3-1.04-6.74-1.52-10.11c-0.04-0.3-0.03-0.65,0.06-0.93
	c1.37-4.24,2.68-8.5,4.21-12.68c0.45-1.23,1-2.23-0.12-3.81c-0.94,0.71-1.95,1.21-2.61,2c-4.37,5.24-6.08,11.5-6.52,18.15
	c-0.19,2.9,0.05,5.83-0.03,8.74c-0.14,4.91,0.97,9.36,3.79,13.51c4.78,7.04,11.77,4.54,14.64-0.07
	C543.61,478.96,543.54,471.55,542.15,463.8z"/>
<path d="M667.81,455.39c0.23-5.19,1.36-9.5,3.6-13.46c1.73-3.07,4.91-4.01,8.01-5.02c0.79-0.26,1.47-0.85,2.19-1.28
	c-0.55-0.79-1.11-1.58-1.67-2.36c-0.05-0.07-0.19-0.09-0.28-0.14c-4.65-2.63-4.92-2.65-8.74,0.94c-1.82,1.71-3.41,3.68-5.18,5.44
	c-2.21,2.19-4.5,4.32-6.79,6.43c-0.92,0.85-2.04,1.29-3.04,0.2c-1.02-1.11-0.74-2.35,0.23-3.36c1.31-1.35,2.79-2.52,4.04-3.92
	c2.64-2.95,5.18-5.99,7.77-8.99c0.34-0.4,0.73-0.75,1.05-1.16c2.76-3.44,6.45-3.22,10-2.07c2.21,0.72,4.42,2.09,6.09,3.72
	c3.43,3.33,6.51,7.03,9.71,10.6c1.8,2.01,2.93,4.24,2.68,7.09c-0.17,2.01,0.25,3.91,2.05,5.32c0.47,0.37,0.79,1.64,0.52,2.1
	c-0.97,1.63-0.76,3.24-0.33,4.85c1.85,6.87-0.36,12.43-5.24,17.28c-1.71,1.7-3.26,3.28-5.8,3.92c-2.06,0.51-3.75,0.37-5.31-0.79
	c-2.92-2.18-5.74-4.5-8.59-6.79c-2.99-2.41-4.46-5.78-5.36-9.33C668.61,461.4,668.26,458.07,667.81,455.39z M688.31,447.53
	c-0.11-0.03-0.22-0.06-0.33-0.09c0-0.52-0.03-1.04,0.01-1.56c0.22-3.02-1.37-4.71-4.37-4.29c-2.9,0.4-5.75,1.14-7.79,3.51
	c-0.53,0.62-1.16,1.27-1.4,2.02c-1.9,5.84-1.64,11.59,0.63,17.32c1.28,3.22,3.23,5.79,6.12,7.66c0.96,0.62,1.96,1.18,2.93,1.8
	c2.66,1.69,5.03,1.48,7.34-0.57c2.03-1.8,3.16-4.12,3.8-6.66c0.9-3.59-0.01-4.9-3.72-5.33c-4.59-0.54-5.74-3-4.69-7.2
	C687.39,451.94,687.83,449.73,688.31,447.53z"/>
<path d="M543.35,676.48c0.41-1.83,0.85-3.65,1.22-5.48c0.37-1.83,1.93-2.48,3.3-3.07c3.87-1.67,7.99-2.24,12.18-2.08
	c2.05,0.08,3.61,1.02,3.74,3.4c0.09,1.72,1.54,2.13,2.76,2.62c4.43,1.8,4.27,1.87,3.6,6.59c-0.96,6.71-6.47,10.26-11.46,11.23
	c-1.37,0.27-2.46,0.05-3.48-0.82c-1.03-0.88-2.03-1.81-3.11-2.62c-1.05-0.79-2.12-1.6-3.29-2.17
	C544.39,681.9,543.36,680.33,543.35,676.48z M562.05,678.82c-0.03-0.23-0.07-0.46-0.1-0.69c-1.15,0-2.32-0.11-3.44,0.06
	c-0.38,0.06-0.65,0.84-0.96,1.3c0.55,0.32,1.21,1.01,1.62,0.88C560.19,680.06,561.1,679.36,562.05,678.82z"/>
</svg>
