<?xml version="1.0" encoding="utf-8"?>
<!-- Generator: Adobe Illustrator 24.1.0, SVG Export Plug-In . SVG Version: 6.00 Build 0)  -->
<svg version="1.1" id="Layer_1" xmlns="http://www.w3.org/2000/svg" xmlns:xlink="http://www.w3.org/1999/xlink" x="0px" y="0px"
	 viewBox="0 0 1224 792" style="enable-background:new 0 0 1224 792;" xml:space="preserve">
<path d="M604.55,788.12c0.64-0.19,1.27-0.5,1.92-0.55c8.34-0.65,16.68-1.24,25.02-1.89c1.42-0.11,2.83-0.45,4.48-0.73
	c-0.27-0.64-0.33-1.05-0.57-1.29c-3.55-3.57-6.86-7.39-10.93-10.44c-2.09-1.56-3.98-3.38-5.99-5.05c-3.58-2.98-7.56-5.33-11.49-7.82
	c-5.2-3.3-10.79-5.74-16.09-8.78c-5.28-3.02-10.94-5.11-17.25-2.96c-1.45,0.49-3.06,0.86-4.58,0.81c-6.74-0.2-13,2.26-19.52,3.27
	c-5.28,0.82-10.53,1.86-15.83,2.55c-6.07,0.8-12.16,1.37-18.26,1.95c-5.02,0.48-8.93-1.74-12.61-4.97
	c-6.2-5.42-11.15-11.91-16.19-18.32c-6.6-8.38-13.18-16.8-19.32-25.51c-4.8-6.8-8.98-14.05-13.31-21.17
	c-1.02-1.68-2.16-2.36-4.13-2.61c-5.87-0.74-11.8-1.14-17.46-3.14c-5.47-1.93-10.51-4.67-15.09-8.14
	c-5.57-4.22-11.08-8.57-16.26-13.26c-4.24-3.83-8.04-8.16-11.88-12.39c-6.65-7.33-13.19-14.77-19.8-22.14
	c-0.64-0.72-1.5-1.24-2.21-1.9c-1.41-1.31-1.59-2.42-0.28-3.72c2.96-2.93,6.04-5.74,9.08-8.58c4.44-4.15,9.55-7.35,14.83-10.24
	c2.7-1.48,5.63-2.58,8.53-3.65c2.46-0.91,4.8-0.35,6.82,1.35c1.56,1.32,3.14,2.61,4.59,4.05c1.15,1.14,2.15,1.07,3.31,0.13
	c1.59-1.28,3.17-2.57,4.81-3.79c1.35-1,0.95-2.29,0.55-3.44c-1.49-4.31-3.09-8.58-4.67-12.85c-1.44-3.91-2.84-7.83-4.36-11.7
	c-1.23-3.15-2.54-6.27-3.94-9.35c-2.88-6.35-5.82-12.67-8.78-18.98c-2.1-4.47-4.26-8.91-6.4-13.37c-4.19-8.74-8.29-17.5-11.52-26.68
	c-2.55-7.26-4.69-14.58-5.77-22.17c-0.86-6.06-1.32-12.17-0.55-18.32c0.48-3.85,0.45-7.76,0.82-11.63c0.19-2.01,0.81-3.97,1.11-5.98
	c0.85-5.55,1.36-11.17,2.53-16.65c1.49-7.01,3.5-13.92,5.27-20.88c1.35-5.34,2.61-10.71,4.02-16.04c1.09-4.13,2.32-8.23,3.53-12.33
	c1.45-4.93,2.9-9.87,4.42-14.78c1.74-5.64,3.58-11.24,5.31-16.88c2.51-8.19,4.22-16.55,5.35-25.04c0.28-2.12,0.8-4.2,1.12-6.32
	c1.13-7.29,2.29-14.58,3.32-21.88c0.37-2.58,0.47-5.21,0.58-7.82c0.1-2.4,1.71-3.97,3.93-3.48c0.62,0.14,1.41,0.76,1.6,1.34
	c2.36,7.08,4.65,14.18,6.88,21.3c0.84,2.67,1.49,5.4,2.22,8.11c0.08,0.28,0.18,0.57,0.16,0.85c-0.23,3.68-0.32,7.38-0.79,11.03
	c-0.19,1.45-1.23,2.79-1.83,4.2c-0.48,1.14-0.91,2.3-1.31,3.47c-0.4,1.15-0.73,2.33-1.15,3.68c-2.09-2.11-2.72-6.07-1.37-8.53
	c1.07-1.97,1.54-3.98,1.27-6.17c-0.65-5.1-1.14-10.24-2.06-15.29c-0.59-3.23-1.81-6.34-2.78-9.5c-0.13-0.41-0.47-0.75-0.96-1.5
	c-0.62,3.05-1.18,5.65-1.66,8.27c-0.78,4.19-1.57,8.38-2.22,12.59c-0.56,3.63-0.78,7.31-1.43,10.91c-0.86,4.76-1.87,9.5-3.03,14.19
	c-1.16,4.68-2.54,9.31-3.92,13.94c-1.28,4.27-2.74,8.48-4.02,12.74c-1.85,6.13-3.7,12.26-5.4,18.43c-2.21,8.05-4.14,16.18-6.42,24.2
	c-1.99,7.01-3.9,14.02-5.05,21.22c-1.18,7.38-2.7,14.73-3.34,22.16c-0.53,6.16-1.73,12.36-0.51,18.61c0.2,1.03,0.07,2.14,0.08,3.21
	c0.01,5.88,1.3,11.52,3.22,17.04c2.15,6.2,4.12,12.48,6.5,18.59c1.72,4.42,3.97,8.63,6,12.93c4.05,8.6,8.25,17.13,12.13,25.8
	c3.2,7.15,6.15,14.41,8.99,21.71c2.74,7.05,5.21,14.21,7.74,21.34c0.86,2.43,1.59,2.89,4.04,2.44c3.43-0.63,6.88-1.12,10.54-1.7
	c-0.1-0.47-0.21-1.08-0.36-1.69c-0.91-3.76-1.85-7.52-2.74-11.28c-2.04-8.56-1.24-17.27-0.98-25.89c0.2-6.59,2.19-12.92,4.74-19.1
	c2.24-5.42,5.13-10.4,8.1-15.4c3.22-5.42,6.25-10.96,9.22-16.51c4.98-9.3,11.35-17.36,20.1-23.45c3.42-2.38,7.21-2.67,11.12-2.68
	c2.33-0.01,4.66,0.24,7,0.26c0.8,0,1.81-0.12,2.36-0.6c1.03-0.9,2.08-1.25,3.43-1.31c1.01-0.05,2.12-0.37,2.99-0.89
	c3.45-2.07,7.24-2.77,11.14-3.1c1.31-0.11,2.41,0.2,3.44,1.19c2.32,2.25,5.12,3.17,8.4,3.46c4.64,0.41,9.25,1.28,13.82,2.21
	c3.43,0.7,6.72,1.15,9.88-0.85c0.48-0.3,1.09-0.55,1.64-0.55c0.51,0,1.24,0.22,1.47,0.59c0.19,0.31-0.02,1.2-0.35,1.46
	c-2.7,2.15-5.2,4.8-9.26,3.75c-2.06-0.54-4.19-0.86-6.29-1.22c-2.39-0.41-4.79-0.79-7.2-1.1c-0.51-0.07-1.07,0.23-2.09,0.47
	c1.13,0.93,1.93,1.58,2.72,2.24c4.32,3.59,8.63,7.19,12.95,10.78c0.37,0.31,0.74,0.67,1.17,0.86c3.87,1.67,6.57,4.74,9.43,7.67
	c6.1,6.24,12.19,12.49,18.43,18.59c2.54,2.48,3.8,4.98,2.53,8.54c-0.51,1.42-0.5,3.07-0.53,4.61c-0.1,4.87-0.2,9.74-0.12,14.61
	c0.03,1.8,0.57,3.59,0.86,5.39c0.09,0.57,0.33,1.21,0.18,1.72c-1.21,3.96,1,7.42,1.62,11.1c0.36,2.16,1.22,4.25,1.91,6.35
	c1.51,4.58,3.21,9.11,4.53,13.74c1.86,6.51,4.51,12.82,5.1,19.68c0.14,1.61,0.45,3.49,1.39,4.69c1.81,2.29,2.26,5.04,2.78,7.6
	c0.66,3.25,0.34,6.74-1.14,9.85c-1.28,2.7-2.87,5.25-4.34,7.86c-1,1.77-2.59,2.8-4.39,3.68c-7.93,3.9-15.88,7.77-23.7,11.87
	c-4.03,2.11-7.77,4.78-11.72,7.05c-7.22,4.15-14.73,7.37-23.22,8.06c-5.81,0.47-11.59,1.38-17.33,2.41
	c-8.49,1.52-15.45-1.12-21.45-7.06c-6.99-6.91-13.13-14.55-19.34-22.14c-0.92-1.12-1.82-2.26-3.03-3.76
	c-1.4,2.83-2.08,4.98-2.04,7.32c0.08,5.64-0.64,11.18-2.3,16.58c-0.34,1.1-1.3,2.31-1.05,3.23c0.82,3.1-0.1,6.86,3.26,9.11
	c0.53,0.36,0.7,1.33,0.93,2.06c0.29,0.92,0.41,1.9,0.69,2.82c0.64,2.07,0.11,3.55-1.71,4.59c-2.39,1.36-2.48,1.48-1.05,3.7
	c5.57,8.64,10.93,17.42,16.85,25.81c4.91,6.97,10.42,13.52,15.8,20.15c3.79,4.66,7.87,9.08,11.73,13.69
	c3.85,4.59,9.05,5.65,14.51,5.19c8.41-0.71,16.79-1.9,25.17-2.95c2.98-0.37,5.93-0.93,9.01-1.42c0.1-1.02,0.18-1.74,0.25-2.46
	c0.49-0.2,0.99-0.39,1.6-0.64c-0.28-0.35-0.42-0.69-0.63-0.75c-1.4-0.41-2.8-0.82-4.22-1.11c-4.67-0.93-9.35-1.8-14.03-2.71
	c-0.86-0.17-1.9-0.21-2.48-0.74c-0.61-0.55-0.96-1.59-1.07-2.45c-0.13-1.12,0.82-1.41,1.76-1.47c0.58-0.04,1.17-0.06,1.75-0.07
	c9.05-0.08,18.1-0.2,27.16-0.22c2.91-0.01,5.84,0.16,8.74,0.41c1.18,0.1,2.31,0.66,3.43,1.32c-5.8,2.6-11.83,2.66-17.97,2.17
	c1.35,1.47,3.15,1.42,4.79,1.61c5.31,0.62,10.63,1.1,15.95,1.63c0.1,0.01,0.2,0.05,0.29,0.03c4.41-1.09,8.68,0.52,13.02,0.69
	c1.64,0.06,3.29-0.18,4.93-0.35c5.18-0.53,10.36-1.07,15.53-1.64c3.65-0.41,7.33-0.64,10.92-1.37c5.41-1.1,10.77-2.49,16.12-3.91
	c3.36-0.89,6.73-1.85,9.95-3.15c2.1-0.85,3.96-2.19,6.42-1.82c0.47,0.07,1.12-0.35,1.52-0.73c1.11-1.04,2.01-2.49,3.89-1.5
	c3.31-1.3,6.61-2.64,9.94-3.9c1.63-0.62,3.12-2.07,5.54-0.95c-2.18,1.94-4.2,3.41-6.83,4.31c-2.12,0.73-3.93,2.31-5.93,3.42
	c-0.88,0.49-1.94,1.13-2.82,1c-1.58-0.24-2.74,0.34-4.11,0.9c-3.66,1.5-7.43,2.73-11.17,4.02c-2.27,0.78-4.59,1.44-6.87,2.2
	c-6.93,2.29-14.02,3.84-21.26,4.79c-1.69,0.22-3.35,0.76-4.94,1.14c0.2,3.55,0.35,3.73,2.99,4.49c0.99,1.6,1.5,3.13,2.56,3.93
	c1.12,0.84,2.77,0.97,4.45,1.5c-0.6,0.77-1.16,1.49-1.84,2.36c1.59,1.4,2.17,3.71,4.54,4.57c0.8,0.29,1.17,1.66,1.84,2.45
	c1.91,2.26,3.42,4.78,5.73,6.83c2.99,2.65,5.26,6.12,7.84,9.23c0.96,1.15,2.05,1.95,3.67,2.09c2.2,0.2,4.4,1.12,6.56,0.99
	c8.73-0.51,17.45-1.3,26.17-1.99c0.68-0.05,1.36-0.25,2.03-0.21c1.76,0.08,3.19-0.25,4.12-2.02c0.36-0.68,1.27-1.23,2.05-1.52
	c4.08-1.54,8.15-3.1,12.31-4.4c3.74-1.17,7.25-2.62,10.44-4.98c2.33-1.72,4.97-3.07,7.59-4.34c4.9-2.37,9.81-4.68,15.05-6.29
	c3.11-0.96,5.96-2.83,8.87-4.39c4.16-2.24,7.61-5.33,10.72-8.88c1.06-1.21,2.54-2.08,3.88-3.02c3.18-2.21,6.65-4.07,9.52-6.62
	c3.34-2.98,5.69-6.87,7.47-11.02c1.97-4.61,3.58-9.41,5.88-13.85c2.94-5.68,6.14-11.26,9.74-16.54c3.22-4.71,7.25-8.84,10.7-13.4
	c4.38-5.79,8.36-11.9,12.84-17.61c4.25-5.41,8.68-10.74,13.52-15.62c4.43-4.47,9.52-8.27,14.3-12.39c4.87-4.19,9.4-8.74,13-14.06
	c1.38-2.03,2.1-4.56,2.88-6.94c1.9-5.77,3.61-11.61,5.49-17.39c1.55-4.78,2.89-9.61,4.19-14.47c0.86-3.25,1.17-6.5,1.39-9.75
	c0.23-3.36-0.11-6.8-0.52-10.16c-0.53-4.33-1.22-8.65-2.12-12.92c-1.22-5.77-2.6-11.51-4.1-17.21c-1.7-6.45-3.54-12.88-5.47-19.27
	c-1.17-3.88-2.72-7.65-3.9-11.54c-0.81-2.67-1.28-5.45-1.89-8.19c-1.03-4.61-2.02-9.23-3.07-13.84c-0.86-3.78-1.78-7.55-2.68-11.32
	c-1.04-4.33-2.15-8.64-3.15-12.98c-0.99-4.33-1.93-8.66-2.8-13.02c-1.5-7.52-2.97-15.05-4.36-22.59c-0.61-3.32-0.88-6.7-1.47-10.03
	c-0.5-2.85-1.25-5.65-1.82-8.48c-0.36-1.81-0.68-3.63-0.87-5.46c-0.44-4.16-1.42-8.18-2.67-12.16c-0.63-2.02-0.98-4.13-1.59-6.17
	c-0.55-1.84-1.05-3.74-1.97-5.39c-0.98-1.76-1.41-3.54-1.71-5.49c-0.45-2.86-1.25-5.66-1.85-8.5c-0.24-1.14-0.35-2.3-0.52-3.46
	c-0.73-5.11-2.24-10-4.23-14.76c-1.01-2.41-1.79-4.91-2.56-7.41c-0.34-1.1-0.56-2.29-0.53-3.43c0.07-2.81,0.21-5.63,0.5-8.42
	c0.54-5.1,1.21-10.19,1.84-15.29c0.07-0.58,0.25-1.14,0.32-1.72c1.01-9.31,1.21-18.67,0-27.93c-0.67-5.11-2.35-10.19-4.23-15.03
	c-3.61-9.32-8.03-18.33-11.46-27.71c-3.36-9.18-5.92-18.65-8.82-28c-1.72-5.55-3.43-11.1-5.11-16.66c-1.23-4.08-2.43-8.17-3.6-12.27
	c-2.05-7.17-4.27-14.3-6.05-21.53c-1.9-7.71-4.22-15.3-6.1-23.01c-0.14-0.56-0.23-1.26-0.61-1.6c-2.01-1.8-1.92-4.09-1.81-6.47
	c0.11-2.33-0.02-4.68,0.06-7.01c0.21-5.72-1.36-11.12-2.76-16.59c-1.56-6.11-4.36-11.63-7.85-16.76c-2.33-3.43-5.04-6.7-8.07-9.51
	c-2-1.85-4.88-2.73-7.36-4.06c-6.65-3.55-13.78-5.87-21.08-7.38c-5.57-1.15-10.61-3.72-16.09-5c-2.55-0.59-5.07-1.33-7.59-2.07
	c-5.68-1.68-11.39-3.3-17.01-5.16c-3.11-1.03-6.1-2.45-9.11-3.79c-4.15-1.84-8.35-3.62-12.38-5.7c-3.96-2.04-7.87-4.23-11.57-6.69
	c-6.28-4.18-12.29-8.77-18.59-12.92c-6.54-4.31-13.61-7.56-21.46-8.6c-7.24-0.96-14.06,0.49-20.5,4.05
	c-6.72,3.72-13.02,8.03-19.07,12.71c-2.75,2.13-5.21,4.65-7.75,7.06c-3.93,3.73-7.84,7.49-11.7,11.3c-3.8,3.75-7.51,7.59-11.3,11.35
	c-1.17,1.16-2.35,2.41-3.77,3.2c-4.17,2.31-6.86,5.83-9.11,9.9c-2.76,5-5.65,9.93-8.69,14.77c-6.8,10.82-13.7,21.56-20.6,32.32
	c-3.96,6.17-7.99,12.3-11.99,18.45c-0.26,0.41-0.54,0.82-0.89,1.16c-4.49,4.4-7.53,9.87-10.96,15.03
	c-5.22,7.83-10.69,15.42-17.84,21.67c-3.34,2.93-6.51,6.06-9.61,9.25c-1.26,1.3-2.18,2.95-3.16,4.5c-0.8,1.27-1.87,1.97-3.36,1.91
	c-1.72-0.08-2.96,0.77-4.07,1.94c-1.92,2.04-4.01,3.93-4.88,6.79c-0.29,0.95-1.3,1.67-1.91,2.54c-4.26,6.07-7.74,12.58-10.3,19.52
	c-2.4,6.48-2.99,13.13-0.74,19.9c1.86,5.58,3.25,11.33,5.2,16.87c1.18,3.35,3.14,6.38,5.62,9.07c1.05,1.14,1.85,2.82,2.08,4.35
	c0.51,3.49,1.96,6.35,4.19,9.05c5.02,6.09,9.13,12.73,11.71,20.28c1.81,5.3,4.03,10.47,5.87,15.77c2.7,7.77,3.21,15.96,3.99,24.05
	c0.49,5.11,0.35,10.31,0.18,15.45c-0.21,6.26,2.25,11.57,5.41,16.65c4.51,7.23,9.52,14.17,12.57,22.21
	c1.58,4.17,2.58,8.52,3.04,12.97c0.34,3.27,0.86,3.55,3.97,3.38c4.64-0.26,9.31-0.04,13.96-0.28c2.28-0.12,4.62-0.55,6.79-1.26
	c3.27-1.07,6.55-0.69,9.84-0.61c1.27,0.03,2.19,0.68,2.68,2.35c-1.08,0.21-2.06,0.56-3.04,0.56c-3.79,0.02-7.59-0.2-11.14,1.63
	c-0.63,0.33-1.53,0.16-2.3,0.18c-4.26,0.11-8.52,0.16-12.78,0.32c-1.24,0.05-2.48,0.4-3.71,0.6c-1.43,0.24-2.87,0.69-4.3,0.66
	c-2.42-0.04-3.76-1.28-3.56-3.62c0.47-5.68-1.28-11-2.61-16.34c-0.66-2.66-2.3-5.13-3.76-7.52c-3.08-5.04-6.54-9.85-9.45-14.98
	c-2.09-3.68-3.94-7.59-5.16-11.63c-0.9-2.98-0.68-6.31-0.8-9.49c-0.22-5.82,0-11.68-0.58-17.47c-0.7-7.14-1.92-14.22-4.85-20.9
	c-1.94-4.42-3.49-9.02-5.45-13.43c-2.22-4.97-5.25-9.47-8.63-13.75c-2.89-3.66-5.48-7.47-7.14-11.93c-1.13-3.06-3.12-5.79-4.53-8.77
	c-2.28-4.81-4.33-9.72-5.61-14.93c-1.04-4.23-2.51-8.36-3.52-12.6c-1.22-5.14-0.71-10.25,1.02-15.22
	c3.59-10.3,8.35-19.95,14.74-28.88c2.65-3.7,5.6-6.85,9.08-9.66c1.42-1.15,2.49-2.73,3.87-3.94c2.69-2.37,5.48-4.61,8.24-6.9
	c0.6-0.5,1.24-0.94,1.82-1.46c4.47-4.01,9.06-7.94,12.74-12.69c4.08-5.27,7.7-10.9,11.55-16.35c0.94-1.33,2.02-2.57,2.98-3.9
	c2.96-4.09,5.88-8.2,8.83-12.29c0.79-1.1,1.69-2.12,2.43-3.26c2.09-3.25,4.07-6.57,6.2-9.8c2.4-3.63,5.01-7.13,7.36-10.79
	c2.3-3.58,4.34-7.33,6.6-10.93c1.6-2.55,3.54-4.88,5.04-7.48c3.37-5.87,6.49-11.88,9.86-17.76c1.54-2.68,3.39-5.19,5.16-7.73
	c0.37-0.53,0.97-0.98,1.56-1.27c4.61-2.27,8.3-5.71,11.79-9.36c4.02-4.21,7.97-8.49,12.5-12.17c1.28-1.04,2.48-2.18,3.6-3.39
	c3.9-4.21,8.49-7.57,13.16-10.84c2.85-1.99,5.46-4.35,8.4-6.19c3.11-1.95,6.45-3.54,9.76-5.16c1.55-0.76,3.23-1.32,4.89-1.81
	c8.87-2.61,17.46-1.37,26,1.76c8.65,3.17,15.58,9.01,22.98,14.16c7.55,5.26,15.3,10.21,23.84,13.79c3.04,1.27,5.95,2.9,9.03,4.07
	c5.61,2.13,11.27,4.15,16.98,5.99c8.6,2.78,17.24,5.4,25.89,8.03c1.67,0.51,3.4,0.8,5.11,1.17c0.28,0.06,0.6,0.01,0.87,0.11
	c5.44,2.04,11.34,2.71,16.51,5.61c3.47,1.95,7.22,3.44,10.56,5.58c2.41,1.55,4.66,3.59,6.45,5.83c3.8,4.77,7.44,9.71,9.7,15.46
	c1.16,2.95,2.1,6,3.12,9c2.29,6.71,2.79,13.63,2.52,20.65c-0.12,3.07,0.91,5.87,1.95,8.68c0.6,1.63,1.16,3.3,1.49,5.01
	c1.02,5.13,2.57,10.09,4.13,15.07c1.12,3.6,1.79,7.33,2.81,10.97c2.51,8.96,5.13,17.9,7.67,26.86c0.98,3.45,1.81,6.94,2.84,10.37
	c2.16,7.22,4.41,14.41,6.6,21.63c0.98,3.24,1.79,6.54,2.87,9.75c0.8,2.37,1.88,4.65,2.86,6.96c3,7.05,6.03,14.1,9,21.16
	c1.34,3.19,2.91,6.35,3.78,9.68c2.56,9.75,3.66,19.66,2.58,29.77c-0.77,7.23-1.12,14.51-1.99,21.73c-0.99,8.12,0.6,15.72,3.18,23.37
	c1.68,4.99,3.53,9.99,4.11,15.39c0.43,3.99,1.86,7.89,2.93,11.81c1.96,7.17,4.07,14.3,5.91,21.5c0.72,2.81,0.84,5.76,1.34,8.64
	c0.59,3.42,1.33,6.82,1.95,10.24c0.57,3.15,1.04,6.32,1.63,9.47c0.58,3.04,1.32,6.04,1.88,9.09c0.62,3.43,1.01,6.91,1.68,10.33
	c0.9,4.57,1.94,9.11,2.96,13.66c0.9,3.98,1.81,7.96,2.81,11.92c0.74,2.92,1.58,5.81,2.47,8.68c0.17,0.55,0.79,0.95,1.25,1.49
	c2.17-1.61,2.5-3.98,3.05-6c1.8-6.6,8.5-9.18,13.53-8.61c5.34,0.61,10.44,2.08,15.5,3.89c5.21,1.86,10.6,3.22,15.9,4.83
	c1.48,0.45,2.92,1.05,4.39,1.55c2.81,0.97,3.6,3.91,5.55,5.73c0.76,0.72,0.31,2.09-0.7,2.8c-0.7,0.49-1.51,0.82-2.53,1.35
	c-0.36,6.13-0.69,12.33-1.14,18.52c-0.09,1.29-0.67,2.55-1.07,4.01c0.65,0.42,1.35,0.87,2.19,1.4c-1.28,1.92-2.62,3.1-5.07,2.5
	c-0.83-0.21-2.57-0.82-2.3,1.42c0.03,0.28-0.81,0.95-1.24,0.94c-3.61-0.09-6.4,2.1-9.53,3.32c-3.71,1.44-7.36,3.06-11.08,4.47
	c-4.42,1.68-8.87,2.05-13.32-0.06c-1.62-0.77-2.32-0.13-1.96,1.76c0.23,1.22,0.8,2.37,1.12,3.58c1.27,4.78,2.49,9.56,3.75,14.34
	c0.37,1.41,0.82,2.79,1.15,4.2c1.07,4.51,2.29,9,3.1,13.56c0.78,4.39,1.11,8.85,1.64,13.28c0.15,1.25,0.19,2.53,0.46,3.76
	c1.13,5.02,0.22,9.8-1.23,14.62c-0.78,2.59-1.03,5.33-1.52,8c-0.12,0.67-0.07,1.41-0.35,1.99c-2.9,6.03-4.38,12.56-6.73,18.78
	c-2.1,5.53-3.61,11.39-7.77,15.82c-3.58,3.82-7.48,7.36-11.4,10.83c-4.37,3.86-9.29,7.14-13.31,11.32
	c-5.09,5.29-9.78,11.04-14.15,16.95c-5.19,7.02-10.29,14.07-16,20.69c-3.67,4.25-7.12,8.72-10.33,13.34
	c-2.31,3.33-4.15,7.01-6.03,10.62c-0.88,1.7-1.27,3.64-2.04,5.41c-2.11,4.79-4.09,9.65-6.54,14.26c-1.58,2.97-3.88,5.55-5.89,8.28
	c-0.27,0.37-0.69,0.68-1.1,0.91c-4.5,2.52-8.65,5.42-12.34,9.11c-6.22,6.22-13.87,10.03-22.13,13.03
	c-7.35,2.67-14.77,5.47-20.99,10.54c-3.12,2.54-6.66,4.29-10.52,5.6c2.41,0,4.84,0.16,7.23-0.03c7.56-0.61,15.11-1.35,22.66-2.05
	c6.97-0.65,13.94-1.31,20.91-1.96c5.32-0.5,10.65-0.96,15.97-1.48c7.26-0.71,14.51-1.47,21.76-2.19c6.58-0.65,13.16-1.27,19.74-1.92
	c7.45-0.73,14.9-1.5,22.35-2.23c6.68-0.65,13.36-1.3,20.04-1.91c10.17-0.94,20.33-1.89,30.51-2.76c5.81-0.5,11.65-0.79,17.46-1.27
	c8.34-0.69,16.66-1.46,24.99-2.22c2.32-0.21,4.64-0.48,6.95-0.72c0,9.73,0,19.47,0,29.22C820.4,788.12,712.47,788.12,604.55,788.12z
	 M490.44,482.6c-5.05-0.26-9.46-0.44-13.13,1.95c-5.14,3.34-9.66,7.54-12.98,12.81c-3.09,4.91-6.06,9.9-9.1,14.85
	c-1.16,1.9-2.46,3.73-3.52,5.68c-2.27,4.16-4.28,8.47-6.67,12.56c-3.31,5.67-5.34,11.82-6.94,18.11c-0.66,2.6-0.41,5.42-0.89,8.09
	c-1.41,7.87-0.59,15.69,0.46,23.48c0.48,3.53,1.3,7.11,2.64,10.4c2.04,5.03,5.25,9.45,8.68,13.65c3.51,4.29,5.5,9.31,7.32,14.43
	c0.68,1.91,0.75,4.13,1.79,5.78c3.35,5.34,6.94,10.54,10.62,15.66c1.69,2.35,3.84,4.36,5.74,6.57c3.15,3.68,6.13,7.52,9.44,11.07
	c2.3,2.47,4.81,4.87,7.61,6.72c4.01,2.65,8.63,2.59,13.27,1.78c4.31-0.75,8.62-1.53,12.96-1.97c7.92-0.82,15.56-2.56,22.58-6.41
	c6.21-3.41,12.26-7.1,18.45-10.53c4.58-2.53,9.34-4.74,13.91-7.28c3.2-1.78,6.77-3.08,9.31-5.83c2.24-2.42,4.28-5.07,3.37-8.8
	c-0.73-2.99-1.27-6.03-2.03-9.01c-1.29-5.07-2.66-10.12-4.06-15.16c-0.91-3.25-2.12-6.42-2.86-9.7c-1.08-4.73-1.82-9.54-2.78-14.3
	c-1.31-6.54-2.82-13.04-3.98-19.61c-1.08-6.11-1.36-12.32-1.36-18.53c0-1.65,0.13-3.3,0.3-4.95c0.25-2.57,0.09-4.98-1.69-7.11
	c-1.99-2.37-3.73-4.97-5.79-7.28c-4.58-5.14-8.98-10.5-14.03-15.14c-5.85-5.37-12.32-10.06-18.52-15.04
	c-2.94-2.36-5.85-4.77-8.88-7.01c-0.87-0.65-2.12-1.12-3.19-1.1c-3.89,0.05-7.77,0.32-11.66,0.57c-0.6,0.04-1.19,0.43-2.01,0.75
	c0.95,1.62,1.96,2.93,2.53,4.41c1.28,3.34,2.33,6.77,3.5,10.16c3.07,8.88,6.22,17.71,11.04,25.86c2.69,4.56,5.73,8.76,9.81,12.16
	c2.39,1.99,4.82,3.92,7.2,5.91c2.3,1.92,4.55,3.92,6.87,5.81c0.49,0.4,1.38,0.87,1.8,0.68c2.55-1.16,4.06,0.41,5.59,1.94
	c5.3,5.31,10.8,10.34,17.72,13.53c0.55,0.25,1.17,1.23,1.11,1.79c-0.5,4.28-2.03,8.33-5.59,10.8c-5.43,3.76-11.58,5.89-18.3,6.02
	c-2.53,0.05-5.06,0.05-7.59,0.12c-2.31,0.07-3.4,0.88-3.87,2.81c-0.79,3.28-1.56,6.56-2.3,9.85c-0.36,1.61-0.08,3.1,1.13,4.32
	c0.48,0.48,1.16,0.88,1.4,1.46c0.34,0.81,0.75,2.01,0.4,2.57c-0.38,0.6-1.69,1.03-2.48,0.9c-4.34-0.71-7.24-4.8-6.48-9.2
	c0.43-2.48,1.23-4.89,1.85-7.33c0.31-1.22,0.72-2.44,0.85-3.69c0.05-0.51-0.47-1.5-0.81-1.54c-0.65-0.07-1.7,0.2-1.97,0.68
	c-0.5,0.88-0.6,2.01-0.77,3.05c-0.31,1.9-0.53,3.81-0.84,5.71c-0.16,0.95-0.55,1.88-0.62,2.83c-0.39,5.09-2.3,9.79-3.76,14.6
	c-0.44,1.44-1.66,1.81-2.95,2.03c-1.3,0.22-2.23-0.24-2.83-1.5c-0.95-2.01-1.86-4.06-3.02-5.94c-4.44-7.19-8.99-14.3-13.44-21.49
	c-1.12-1.81-2.11-3.71-2.98-5.65c-1.06-2.38-1.93-4.86-2.88-7.29c-1.62-4.15-3.3-8.28-4.85-12.46c-2.32-6.26-4.68-12.51-6.79-18.84
	c-1.47-4.41-2.66-8.93-3.8-13.45c-0.8-3.17-1.37-6.41-1.93-9.64c-0.36-2.1-0.38-4.26-0.82-6.33c-0.36-1.66-0.14-3.1,0.77-4.45
	c1.94-2.89,3.97-5.72,5.86-8.64c0.6-0.93,1.05-2.05,1.25-3.14c0.28-1.52,0.97-2.31,2.48-2.83
	C487.19,488.3,488.62,485.76,490.44,482.6z M448.86,678.16c-0.94-0.53-1.77-1.34-2.69-1.44c-2.57-0.28-4.81-1.3-7.17-2.23
	c-7.03-2.78-12.17-8-17.13-13.28c-3.07-3.28-5.27-7.42-7.61-11.32c-0.85-1.42-1.82-2.3-3.34-2.43c-4.04-0.36-7.68-1.98-11.45-3.28
	c-3.45-1.18-5.62-3.53-7.06-6.55c-1.48-3.09-1.5-6.74,0.06-9.57c1.23-2.24,1.69-4.64,2.76-6.87c0.89-1.87,1.64-3.69,3.52-4.81
	c0.51-0.31,0.99-0.91,1.18-1.48c0.88-2.61,0.84-2.63,4.2-2.02c0.7-0.82,1.52-1.92,2.49-2.88c0.91-0.9,0.98-1.76,0.45-2.88
	c-1.48-3.08-3.93-4.58-7.27-4.14c-3.51,0.47-6.85,1.44-9.7,3.69c-0.6,0.48-1.29,0.88-2,1.2c-5.52,2.45-9.76,6.71-14.4,10.37
	c-2.82,2.22-2.64,3.71-0.24,6.29c3.37,3.62,6.71,7.28,9.87,11.09c5.65,6.8,11.25,13.65,17.92,19.51c3.86,3.39,7.74,6.78,11.57,10.2
	c5.46,4.88,11.16,9.36,18.25,11.7c4.72,1.57,9.54,2.63,14.51,2.9C446.7,680.01,447.96,680.11,448.86,678.16z M858.83,483.49
	c-0.26,0.39-0.51,0.79-0.77,1.18c0.94,0.66,1.9,1.3,2.82,1.99c2.02,1.49,4.14,2.88,6.02,4.53c2.6,2.28,2.57,5.33,0.46,7.97
	c-1.91,2.39-4.4,3.33-7.27,3.81c-1.97,0.33-2.68,2.76-1.35,4.26c2.34,2.65,5.53,3.78,8.68,2.79c5.26-1.66,10.72-2.85,15.54-5.79
	c2.48-1.51,5.05-2.93,7.72-4.08c2.25-0.97,3.32-2.66,3.66-4.83c1.07-6.85,1-13.72,0.24-20.62c-0.27-2.46-1.43-3.35-3.5-3.9
	c-3.75-1.01-7.44-2.23-11.2-3.18c-4.89-1.23-9.81-2.42-14.76-3.35c-6.56-1.23-12.62,5.09-9.7,13.58c2.56,0,5.28-0.12,7.98,0.04
	c2.4,0.14,4.81,0.46,7.17,0.9c3.88,0.72,7.59,2.61,11.73,1.46c0.6-0.17,1.84,0.26,2.03,0.71c0.48,1.2,0.65,2.56,0.73,3.86
	c0.07,1.15-0.15,2.32-1.91,2.88c-0.33-1.99-1.68-1.98-3.29-1.91c-1.53,0.07-3.17-0.1-4.6-0.62
	C869.86,483.2,864.22,484.99,858.83,483.49z M527.5,540.55c0.25,1.46,0.3,2.19,0.5,2.87c1,3.43,2.09,6.83,3.06,10.27
	c0.78,2.78,1.23,5.66,2.16,8.39c1.35,3.96,2.71,7.84,2.55,12.15c-0.1,2.78,0.74,3.48,3.5,3.49c6.74,0.04,13.36-0.68,19.77-3.04
	c2.94-1.08,4.96-2.86,6.18-5.72c1.09-2.56,1.01-2.92-1.3-4.51c-2.8-1.93-5.63-3.83-8.28-5.95c-2.04-1.63-3.88-3.4-6.41-4.4
	c-2.68-1.06-5.32-2.41-7.71-4.01c-3.7-2.49-7.16-5.33-10.77-7.96C529.98,541.57,529.01,541.27,527.5,540.55z M489.51,507.05
	c-0.22,0.08-0.44,0.15-0.66,0.23c0.54,2.34,1.08,4.68,1.61,7.02c1.05,4.63,2.11,9.27,3.12,13.91c1.3,5.97,2.48,11.98,3.88,17.93
	c0.84,3.57,2.13,7.04,3.01,10.6c1.72,6.98,4.77,13.26,9.45,18.72c2.05,2.4,4,4.92,6.27,7.1c1.09,1.04,2.33,2.82,4.63,1.66
	c0.11-2.61-0.18-5-2.7-6.85c2.71-1.41,2.38-3.72,2.19-5.92c-0.39-4.44-0.82-8.88-1.36-13.31c-0.11-0.91-0.63-1.84-1.17-2.61
	c-1.73-2.44-3.55-4.82-5.35-7.21c-0.53-0.7-1.12-1.36-1.69-2.04c-0.26,0.09-0.52,0.19-0.78,0.28c0.11,1.49,0.08,3.01,0.35,4.47
	c0.48,2.58,1.19,5.11,1.71,7.69c0.38,1.9-0.3,3.05-1.8,3.43c-1.56,0.39-2.67-0.25-3.4-1.97c-0.15-0.35-0.24-0.74-0.33-1.11
	c-0.86-3.26-1.62-6.55-2.61-9.77c-1.84-6.01-3.82-11.98-5.74-17.96c-1.8-5.63-3.5-11.3-5.41-16.9
	C491.85,511.91,490.59,509.51,489.51,507.05z M482.82,500.91c-0.34-0.02-0.68-0.04-1.02-0.07c-0.76,2.15-1.89,4.25-2.2,6.46
	c-0.69,4.87,0.3,9.73,1.33,14.46c1.27,5.85,3.01,11.61,4.69,17.37c0.98,3.35,2.16,6.64,3.38,9.92c1.05,2.81,2.4,5.51,3.4,8.33
	c2.19,6.21,4.95,12.14,8.26,17.82c1.5,2.58,3.33,4.99,4.71,7.63c2.96,5.65,7.22,10.58,9.23,16.75c0.12,0.36,0.29,0.79,0.57,1
	c0.5,0.38,1.18,0.93,1.65,0.82c0.46-0.1,0.91-0.88,1.1-1.46c0.42-1.28,0.8-2.59,0.97-3.92c0.2-1.53,0.43-3.15,0.11-4.62
	c-0.18-0.79-1.48-1.34-2.27-2c-0.3-0.25-0.61-0.5-0.84-0.81c-2.84-3.75-6.49-6.75-9.39-10.48c-3.08-3.97-5.41-8.29-7.22-12.86
	c-2.28-5.76-4.26-11.64-5.37-17.79c-0.74-4.1-1.9-8.12-2.74-12.2c-0.96-4.65-1.66-9.36-2.7-13.99c-0.97-4.35-2.21-8.64-3.39-12.94
	C484.39,505.84,483.58,503.38,482.82,500.91z M448.5,617.3c-0.33,0.17-0.65,0.35-0.98,0.52c-0.05,1.39-0.09,2.78-0.16,4.16
	c-0.25,5.02-0.04,10.06-1.54,14.98c-0.75,2.46-1.1,5.06-1.36,7.63c-0.14,1.42-1.27,1.28-2.78,1.84c1.94,0.92,3.23,1.47,4.45,2.14
	c0.64,0.35,1.41,0.8,1.7,1.41c1.49,3.09,2.59,6.31,2.48,9.83c-0.04,1.28,0.13,2.56,0.2,3.84c0.29,0.03,0.59,0.06,0.88,0.09
	c1.54-3.98,3.44-7.84,3.56-12.3c0.03-1.16-0.14-2.45,0.28-3.46c2.25-5.39,0.68-10.92,0.75-16.38c0-0.28-0.11-0.57-0.21-0.84
	c-1.65-4.27-3.8-8.26-6.54-11.93C448.89,618.4,448.73,617.82,448.5,617.3z M440.25,635.78c0.27-1.91,0.5-3.65,2.01-5.03
	c0.49-0.45,0.69-1.4,0.73-2.13c0.13-2.31,0.26-4.63,0.14-6.94c-0.14-2.5-0.52-4.99-0.87-7.48c-0.19-1.34-0.66-2.37-2.42-2.25
	c-1.09,0.08-1.98-0.68-1.56-1.88c0.66-1.91-0.2-2.7-1.84-3.21c-0.54-0.17-1.11-0.45-1.51-0.85c-1.85-1.82-4.24-1.73-6.53-1.85
	c-1.75-0.09-2.26,0.63-1.74,2.36c0.91,3.04,1.9,6.06,2.92,9.06c0.83,2.46,1.87,4.85,2.61,7.33c0.74,2.48,2.42,4.56,2.82,7.2
	c0.1,0.65,1.06,1.45,1.78,1.66C438.83,632.38,439.76,633.75,440.25,635.78z M408.45,615.84c-1.66,1.56-3,2.51-3.95,3.77
	c-1.69,2.23-3.14,4.63-4.68,6.98c-1.21,1.85-2.38,3.74-3.6,5.58c-0.67,1.01-0.55,1.85-0.04,2.96c1.73,3.81,5.3,4.94,8.77,6.04
	c1.54,0.49,3.36,0.08,5.37,0.08c0-1.03,0.34-2.3-0.07-3.25c-1.14-2.63-0.8-5.33-0.85-8.02c-0.07-3.31-0.05-6.61-0.18-9.92
	C409.18,618.88,408.8,617.7,408.45,615.84z M507.98,511.32c0.27-0.14,0.54-0.28,0.8-0.42c-0.22-0.91-0.38-1.83-0.67-2.72
	c-0.59-1.84-1.27-3.66-1.86-5.5c-1.84-5.84-4.57-11.3-7.32-16.74c-0.87-1.72-2.11-1.97-3.56-0.76c-2.45,2.05-4.82,4.21-6.42,7.36
	c1.38,1.73,2.7,3.52,4.15,5.18c1.44,1.65,2.7,3.48,5.3,3.72c0.94,0.09,1.85,1.3,2.62,2.13
	C503.39,506.13,505.67,508.74,507.98,511.32z M431.2,642.15c2.52-3.01,1.75-7.68-1.27-12.44c-4.72-0.46-9.24-0.89-14.09-1.36
	c0.17,1.12,0.31,1.85,0.39,2.58c0.08,0.77,0.15,1.54,0.15,2.32c0.02,3.1,0.72,4.17,3.8,4.63c1.76,0.26,3.62-0.18,5.43-0.11
	c0.75,0.03,1.8,0.33,2.14,0.88c0.57,0.91,0.2,1.84-0.99,2.27c-0.36,0.13-0.62,0.55-1.35,1.25
	C427.59,642.15,429.19,642.15,431.2,642.15z M422.58,606.39c-1.15,0.83-2.05,1.37-2.83,2.05c-2.53,2.21-2.78,5.51-0.85,8.26
	c0.82,1.17,1.61,2.47,1.96,3.83c1.09,4.32,4.29,6.13,8.65,7.88C427.71,620.56,425.27,613.63,422.58,606.39z M522.26,541.67
	c-0.28,0.04-0.55,0.08-0.83,0.12c0.59,5.61,1.17,11.23,1.76,16.84c0.01,0.09,0.07,0.18,0.1,0.27c0.48,1.67,1.22,3.31,1.38,5
	c0.32,3.47,0.31,6.98,0.45,10.47c0.09,2.24,0.32,2.52,2.43,2.87c0.63,0.1,1.3,0.02,1.93,0.02c0.71-5.49,0.16-8.93-1.78-13.51
	c-1.02-2.4-1.94-4.88-2.52-7.42C524.06,551.48,523.22,546.56,522.26,541.67z M594.66,746.89c-0.09,0.28-0.19,0.55-0.28,0.83
	c3.44,1.88,6.91,3.72,10.32,5.65c3.34,1.9,6.63,3.9,10,5.89c0.79-1.93-0.07-2.87-1.34-3.89c-1.16-0.93-2.42-2.12-2.86-3.46
	c-0.72-2.19-2.56-3.34-3.77-5.05c-0.35-0.5-1.37-0.7-2.09-0.73c-1.53-0.08-3.07-0.03-4.6,0.1
	C598.24,746.38,596.46,746.67,594.66,746.89z M424.18,652.66c0.8,4.49,1.35,5.69,3.57,7.12c0.64,0.42,1.79,0.83,2.27,0.53
	c0.66-0.4,1.11-1.44,1.3-2.28c0.26-1.21,0.17-2.5,0.29-3.75c0.28-2.82-1.34-4.95-4.14-5.15c-2-0.14-4.02-0.03-5.95-0.03
	C420.85,652.18,420.85,652.18,424.18,652.66z M434.14,666.75c2.02,0.88,3.8,1.58,5.51,2.42c1.09,0.54,2.18,0.73,2.83-0.33
	c0.42-0.69,0.37-1.76,0.26-2.63c-0.09-0.73-0.44-1.5-0.88-2.11c-1.49-2.07-2.64-4.49-5.48-5.85c-0.84,2.27-4.63,2.58-3.32,6.04
	c0.71,0,1.28,0,2.12,0C434.72,665.36,434.4,666.12,434.14,666.75z M515.03,537.23c0.22-0.02,0.45-0.04,0.67-0.07
	c0-0.76,0.1-1.54-0.02-2.28c-0.35-2.19-1.03-4.35-1.15-6.54c-0.22-3.85-2.71-5.88-5.35-7.89c-0.2,0.1-0.41,0.2-0.61,0.3
	C510.72,526.24,512.88,531.74,515.03,537.23z M559.74,744.84c-1.36-0.15-2.71-0.39-4.07-0.41c-0.4-0.01-0.82,0.58-1.22,0.9
	c0.41,0.43,0.8,1.19,1.24,1.21C557.07,746.63,558.57,746.81,559.74,744.84z"/>
<path d="M708.42,401.15c2.55-1.96,4.81-3.78,7.17-5.47c2.62-1.88,4.29-1.51,6.02,1.17c0.93,1.44,1.86,2.88,2.99,4.62
	c0.27-0.03,0.91-0.12,1.55-0.16c3.88-0.25,7.76-0.76,11.62-0.63c2.57,0.09,5.11,1.09,7.65,1.73c6.7,1.68,13.19,3.96,19.43,6.92
	c6.13,2.9,12.33,5.67,18.28,8.9c6.64,3.6,13.05,7.62,19.51,11.53c2.74,1.66,5.43,3.41,8.01,5.31c1.7,1.25,3.31,2.71,4.67,4.32
	c1.41,1.68,1.1,3.2-0.72,4.41c-1.93,1.28-3.97,2.42-6.01,3.54c-2.06,1.13-2.27,1.59-0.95,3.54c1.86,2.75,2.58,5.75,2.72,9.06
	c0.25,5.89-0.71,11.57-2.14,17.24c-0.64,2.52-0.69,5.2-1.45,7.67c-1.22,4-2.52,7.94-2.37,12.22c0.02,0.68-0.6,1.4-0.98,2.06
	c-4.28,7.5-8.97,14.73-14.1,21.67c-1.84,2.49-4.09,4.69-5.86,7.24c-4.75,6.83-9.34,13.78-14,20.68c-1.74,2.57-3.55,5.09-5.25,7.69
	c-1.47,2.25-2.53,4.84-4.28,6.83c-2.94,3.33-6.2,6.42-9.5,9.41c-4.18,3.77-8.46,7.43-12.85,10.96c-3.32,2.67-6.86,5.08-10.33,7.58
	c-4.25,3.06-8.39,6.3-12.82,9.09c-4.18,2.64-8.67,4.77-13.01,7.16c-3.83,2.11-7.69,4.19-11.44,6.43c-5.31,3.17-11,4.4-17.07,3.41
	c-1.43-0.23-2.96-1.07-4.03-2.07c-5.14-4.79-8.4-10.82-10.71-17.38c-1.74-4.93-3.59-9.83-5.09-14.84
	c-2.1-7.05-3.98-14.16-5.82-21.29c-0.59-2.28-1.49-4.34-2.57-6.42c-1.2-2.3-1.95-4.84-2.8-7.31c-0.64-1.87-1.75-3.24-3.6-3.94
	c-3.9-1.48-7.83-2.9-11.72-4.44c-1.25-0.49-2.45-1.17-3.56-1.93c-8-5.49-14.26-12.83-20.9-19.75c-6.11-6.36-10.59-13.81-14.25-21.79
	c-2.14-4.66-4.37-9.28-6.37-14c-0.78-1.85-1.06-3.92-1.55-5.89c-0.14-0.57-0.06-1.3-0.39-1.69c-2.2-2.61-2.02-6.08-3.35-8.99
	c-0.48-1.04-0.91-2.2-0.94-3.31c-0.06-2.29-1.15-4.91,0.45-6.82c2.35-2.81,4.94-5.54,7.88-7.7c2.62-1.93,6.09-1.18,9.12-0.82
	c3.64,0.44,7.22,1.47,10.78,2.43c1.47,0.4,2.92,1.12,4.2,1.96c3.9,2.56,8.3,3.81,12.71,5c2.89,0.78,5.89,1.2,8.87,1.55
	c3.35,0.38,5.67-1.63,7.7-3.94c0.32-0.36,0.27-1.12,0.25-1.69c-0.06-1.85-0.27-3.69-0.25-5.53c0.02-2.51-0.06-5.08,0.4-7.52
	c0.41-2.18,1.8-3.98,4.38-3.95c1.73,0.02,2.44-0.91,2.79-2.37c0.09-0.38,0.21-0.75,0.26-1.14c0.95-7.88,6.04-12.21,13.03-14.49
	c4.96-1.62,10.15-2.56,15.23-3.83c1.88-0.47,3.89-0.71,5.6-1.56c4.65-2.3,9.65-2.87,14.68-3.28c1.92-0.16,2.9-0.94,3.75-2.61
	c1.08-2.11,2.55-4.04,3.95-5.97c0.99-1.36,3.76-1.6,5.35-0.53C707.09,399.87,707.69,400.51,708.42,401.15z M649.69,482.97
	c-0.24,0.22-0.48,0.43-0.72,0.65c0.36,1.33,0.85,2.64,1.04,4c0.7,4.98,1.2,9.96,2.35,14.9c1.04,4.5,1.19,9.25,1.34,13.91
	c0.21,6.1,0.19,12.23-0.03,18.33c-0.12,3.33-1.33,6.42-3.71,8.94c-0.8,0.84-1.39,1.89-2.24,2.67c-1.64,1.52-1.44,3.19-0.75,5.03
	c1.15,3.09,2.28,6.18,3.33,9.31c1.27,3.76,2.36,7.57,3.68,11.31c2.11,6.02,4.34,12.01,6.52,18c2.24,6.16,4.2,12.45,8.58,17.59
	c2.48,2.9,5.05,5.36,9.35,4.66c3.56-0.58,7.03-1.31,10.21-3.14c5.05-2.9,10.16-5.71,15.24-8.58c3.3-1.86,6.71-3.56,9.84-5.68
	c5.14-3.48,10.19-7.11,15.1-10.9c5.47-4.21,10.85-8.54,16.07-13.04c3.08-2.65,5.64-5.88,8.68-8.58c4.85-4.31,8.73-9.47,11.95-14.93
	c5.39-9.13,11.35-17.82,17.82-26.2c3.56-4.61,7.01-9.31,10.28-14.14c4.29-6.34,6.67-13.52,8.3-20.94c0.56-2.54,0.87-5.13,1.31-7.69
	c0.07-0.38,0.15-0.77,0.28-1.13c1.92-5.42,2.28-11.02,1.96-16.69c-0.21-3.64-1.72-6.79-4.58-9.03c-1.62-1.27-3.66-2.01-5.67-3.07
	c0.91-1.24,0.46-2.2-0.64-3.14c-3.4-2.91-6.71-5.91-10.11-8.82c-0.44-0.37-1.17-0.41-2.07-0.7c-0.84,3.86-2.1,7.41-2.29,11.01
	c-0.31,5.81,0.04,11.66,0.2,17.5c0.05,1.93,0.61,3.88,0.49,5.79c-0.36,5.33-0.75,10.67-1.55,15.95c-0.54,3.61-1.7,7.13-2.75,10.65
	c-1.49,5-3.29,9.91-4.66,14.94c-0.87,3.18-1.63,6.35-3.17,9.3c-1.11,2.15-1.87,4.47-2.95,6.64c-1.37,2.77-2.58,5.71-4.45,8.12
	c-2,2.58-4.26,4.95-6.08,7.72c-4,6.08-8.33,11.94-12.37,17.99c-1.27,1.9-2.83,2.65-4.92,2.26c-6.68-1.26-13.36-2.56-20.01-3.99
	c-1.26-0.27-2.57-0.99-3.54-1.86c-2.6-2.32-5.19-4.7-7.5-7.29c-4.57-5.12-9.12-10.29-12.41-16.38c-2.34-4.33-4.53-8.74-6.84-13.09
	c-1.04-1.96-2.27-3.82-3.32-5.77c-2.06-3.83-3.95-7.75-6.09-11.53c-2.05-3.62-4.36-7.09-6.51-10.67c-1.14-1.9-2.02-3.96-3.27-5.77
	c-0.98-1.42-2.16-2.86-3.6-3.73c-0.9-0.54-2.44,0.03-3.69-0.01C657.33,483.48,653.46,485.42,649.69,482.97z M670.32,482.68
	c1.22,1.9,2.31,3.5,3.3,5.17c2.07,3.5,4.05,7.05,6.14,10.54c1.83,3.05,3.79,6.01,5.62,9.06c2.03,3.4,3.9,6.9,5.97,10.28
	c2.12,3.44,4.62,6.67,6.57,10.2c1.85,3.33,3.68,6.58,6.52,9.19c0.77,0.71,1.5,1.59,1.9,2.54c1.58,3.77,4.41,6.59,7.19,9.39
	c2.84,2.85,6.28,5.11,10.17,6.05c4.51,1.09,9.19,1.52,13.8,2.18c1.67,0.24,3-0.41,4.05-1.79c2.05-2.7,4.31-5.25,6.24-8.03
	c2.32-3.34,4.05-7.14,6.64-10.25c4.35-5.22,7.54-11.05,10.14-17.22c1.53-3.65,2.56-7.51,3.69-11.32c2.61-8.81,6.17-17.35,7.22-26.62
	c0.55-4.85,1.01-9.65,0.53-14.53c-0.39-3.96-0.67-7.94-0.89-11.91c-0.39-6.94,0.61-13.76,2.13-20.51c0.56-2.48,0.2-4.63-1.96-6.24
	c-1.48-1.1-3.06-2.1-4.38-3.37c-4.6-4.42-9.96-7.72-15.48-10.78c-1.92-1.06-4.09-1.7-6.18-2.41c-2.7-0.92-5.47-1.15-8.33-0.78
	c-2.77,0.36-5.62,0.2-8.34,0.71c-3.77,0.71-4.75,2.6-3.83,6.36c0.32,1.32,0.82,2.62,0.93,3.96c0.26,3.15,0.34,6.31,0.5,9.72
	c2.34-0.94,4.87-1.78,7.07-3.41c1.58-1.17,3.26-1.72,5.15-0.7c1.94,1.05,3.86,2.16,5.84,3.12c3.15,1.53,5.34,4.17,7.7,6.59
	c0.55,0.56,0.9,1.6,0.86,2.4c-0.12,2.11,0.56,4.25-0.77,6.34c-0.66,1.03-0.42,2.64-0.6,3.98c-0.24,1.91-0.24,3.9-0.78,5.72
	c-1.67,5.56-2.95,11.19-4,16.89c-1.12,6.06-3.21,11.68-8.53,15.35c-3.43,2.37-7.12,4.35-10.68,6.53c-2.57,1.57-5.22,3.03-7.65,4.8
	c-3.92,2.86-7.55,6.13-11.54,8.87c-3.21,2.21-6.7,4.17-10.83,1.8c-2.69-1.55-5.42-3.03-8.18-4.46c-1.2-0.62-2.05-1.4-2.3-2.79
	c-0.46-2.56-0.89-5.14-1.5-7.67c-1.52-6.27-0.81-12.58-0.5-18.88c0.16-3.3,0.75-6.59,0.72-9.87c-0.04-3.76,0.59-7.37,1.81-10.85
	c1.28-3.64,2.92-7.15,4.42-10.71c3.94-9.35,9.76-17.38,17.01-24.43c2.5-2.44,4.97-4.91,7.46-7.36c0.77-0.76,1.17-1.58,0.48-2.58
	c-0.65-0.96-1.62-1.11-2.58-0.67c-1.64,0.75-3.23,1.62-4.91,2.48c0.88,1.43,1.55,2.53,2.21,3.62c-0.14,0.22-0.28,0.44-0.41,0.66
	c-1.28-0.24-2.55-0.54-3.83-0.69c-1.42-0.17-3.11-0.72-4.25-0.19c-5.9,2.8-12.33,4.89-15.46,11.6c-1.35,2.9-4.01,2.72-5.76,0.03
	c-0.16-0.24-0.31-0.49-0.56-0.87c-5.41,2.88-10.71,5.48-15.37,9.18c-0.83,0.66-1.81,1.14-2.64,1.8c-3.09,2.48-6.16,4.99-9.22,7.51
	c-1.06,0.88-1.18,1.97-0.53,3.14c0.41,0.75,0.91,1.45,1.49,2.36c1.16-0.35,2.24-0.76,3.36-1c1.62-0.36,3.41-0.77,4.72,0.55
	c1.28,1.29,2.5,2.76,3.34,4.37c1.36,2.59-0.35,5.2-3.27,5.28c-0.85,0.02-1.7-0.14-3.07-0.26c0.2,1.45,0.12,2.73,0.55,3.8
	c1.85,4.57,3.72,9.15,5.85,13.59C671.44,479.22,671.76,480.88,670.32,482.68z M723.11,420.27c-0.22-0.19-0.45-0.39-0.67-0.58
	c-0.58,0.29-1.3,0.44-1.73,0.88c-2.87,2.88-5.84,5.68-8.49,8.75c-6.72,7.77-11.76,16.58-15.05,26.3c-0.88,2.61-1.1,5.46-1.47,8.22
	c-0.29,2.2-0.32,4.43-0.53,6.64c-0.17,1.73-0.56,3.45-0.64,5.18c-0.14,2.8-0.15,5.61-0.13,8.42c0.03,3.68-0.08,7.38,0.27,11.04
	c0.39,4.03,1.94,7.53,6.19,9.06c0.45,0.16,0.86,0.45,1.26,0.72c2.88,1.96,5.71,1.69,8.36-0.37c2.76-2.14,5.35-4.5,8.11-6.63
	c1.82-1.41,3.74-2.75,5.74-3.89c5.9-3.36,11.97-6.38,16.9-11.27c2.89-2.86,4.27-6.28,4.55-10.08c0.19-2.62,0.34-5.09,1.32-7.61
	c1.43-3.69,2.36-7.56,2.51-11.59c0.14-3.77,0.47-7.52,0.64-11.29c0.02-0.49-0.33-1.09-0.68-1.48c-2.29-2.5-5.17-4.1-8.39-5.03
	c-0.83-0.24-1.92-0.12-2.73,0.22c-2.58,1.09-5.09,2.33-7.6,3.57c-1.36,0.67-2.39,1.59-2.57,3.27c-0.19,1.81-0.58,3.6-0.83,5.41
	c-0.49,3.63-0.9,7.27-1.42,10.9c-0.09,0.65-0.48,1.28-0.83,1.85c-1.7,2.79-2.16,5.92-2.42,9.07c-0.18,2.19-0.22,4.35,0.8,6.53
	c0.92,1.97-0.36,4.3-2.1,4.78c-1.8,0.49-3.87-0.72-4.53-2.77c-0.23-0.72-0.23-1.53-0.25-2.3c-0.05-2.34,0.07-4.68-0.13-7
	c-0.14-1.61-0.39-3.35-1.13-4.75c-1.23-2.32-1.17-4.72-0.97-7.1c0.19-2.21,0.61-4.45,1.33-6.54c1.44-4.18,1.05-8.49,0.92-12.69
	c-0.2-5.91,0.94-11.13,4.96-15.59C722.26,421.86,722.64,421.02,723.11,420.27z M584.38,471.58c0.55,2.55,0.99,4.6,1.44,6.65
	c1.87,8.6,5.31,16.61,9.84,24.07c2.96,4.86,6.5,9.42,10.18,13.77c3.25,3.84,7.1,7.17,10.64,10.76c5.16,5.22,11.46,8.49,18.32,10.8
	c1.05,0.35,2.22,0.35,3.67,0.57c-0.25-1.35-0.49-2.27-0.57-3.21c-0.22-2.45-2.12-4.08-2.97-6.2c-1.95-4.84-3.81-9.73-5.44-14.68
	c-1.15-3.49-2-7.1-2.72-10.7c-0.63-3.13-0.73-6.37-1.38-9.5c-0.45-2.17-0.1-4.03,0.93-5.87c2.64-4.73,5.32-9.43,7.92-14.19
	c0.41-0.75,0.44-1.7,0.73-2.89c-1.16,0.16-1.8,0.24-2.45,0.33c-2.97,0.43-5.93,1-8.92,1.25c-4.16,0.36-8.35,0.32-12.5,0.75
	c-4.82,0.5-9.47,0-14.13-1.23C593.11,471.05,589.13,471.24,584.38,471.58z M644.9,541.34c0.88-1.18,1.96-2.13,2.42-3.33
	c1.38-3.6,2.55-7.27,2.7-11.2c0.42-10.89-0.69-21.69-1.79-32.49c-0.26-2.6-0.44-5.22-0.88-7.8c-0.57-3.32-1.43-6.58-2.03-9.9
	c-0.48-2.68-1.56-5.06-3.1-7.75c-0.95,1.39-1.81,2.42-2.43,3.58c-2.25,4.17-4.45,8.36-6.61,12.58c-1.68,3.29-2.98,6.61-2.98,10.48
	c-0.01,6.61,1.38,12.95,3.35,19.14c2.29,7.19,4.96,14.25,7.62,21.32C641.88,537.84,642.54,539.88,644.9,541.34z M632.22,465.93
	c-0.02-0.21-0.04-0.42-0.07-0.63c-0.44-0.14-0.88-0.3-1.33-0.41c-5.08-1.25-10.27-2.09-15.01-4.53c-2.93-1.51-6.19-2.43-8.95-4.17
	c-5.73-3.62-12.02-4.18-18.49-4.13c-0.72,0.01-1.66,0.28-2.11,0.77c-1.57,1.72-3.12,3.49-4.36,5.45c-0.55,0.87-0.46,2.22-0.43,3.34
	c0.02,0.74,0.46,1.47,0.69,2.22c1.04,3.37,1.03,3.3,4.65,3.31c3.48,0.02,7.07-0.27,10.43,0.44c8.02,1.7,16.08,1.46,24.14,1.1
	C625.12,468.52,628.86,467.78,632.22,465.93z M693.07,415.45c-0.76-0.09-1.16-0.23-1.51-0.16c-6.01,1.16-12.03,2.31-18.02,3.56
	c-2.46,0.51-4.87,1.24-7.3,1.89c-3.36,0.89-6.82,1.34-9.93,3.19c-3.2,1.91-5.77,3.93-6.56,7.97c-0.78,3.96-0.07,7.22,3.06,9.82
	c1.2,1,1.98,0.98,3.22-0.09c3.24-2.78,6.56-5.5,10.05-7.96c7.16-5.03,14.61-9.61,22.52-13.41
	C690.58,419.31,692.09,417.87,693.07,415.45z M778.02,421.73c-0.14,0.31-0.29,0.62-0.43,0.94c1.9,1.76,3.96,3.37,5.67,5.3
	c5.36,6.04,11.59,11.12,17.54,16.51c1.16,1.05,2.3,1.39,3.69,0.74c1.14-0.53,2.32-1.03,3.36-1.73c2.15-1.44,2.14-3.15,0.04-4.59
	c-1.92-1.31-3.94-2.47-5.83-3.83c-6.7-4.81-13.74-9.04-21.24-12.49C779.94,422.19,778.95,422.01,778.02,421.73z M652.6,461.05
	c-4.32,1.96-4.31,1.97-3.71,6.04c0.13,0.86-0.05,1.79,0.19,2.61c0.69,2.4,1.38,4.81,2.36,7.1c0.36,0.83,1.54,1.83,2.36,1.85
	c2.57,0.04,5.15-0.35,7.86-0.59c-0.04-0.74,0.09-1.29-0.11-1.65C658.62,471.31,655.64,466.24,652.6,461.05z M640.8,445.13
	c0.03,0,0.06,0,0.09,0c0,0.68-0.13,1.38,0.03,2.02c0.26,1.1,0.39,2.58,1.14,3.12c1.19,0.87,2.82,1.21,4.32,1.52
	c0.32,0.07,1.34-1.08,1.24-1.47c-0.67-2.68-1.34-5.4-2.48-7.89c-0.34-0.76-2.12-1.04-3.28-1.13c-0.29-0.02-0.76,1.52-1.03,2.39
	C640.69,444.13,640.8,444.65,640.8,445.13z"/>
<path d="M683.29,706.73c-6.07,0.48-11.6,0.69-17.06,1.42c-5.65,0.75-11.42,1.03-16.77,3.39c-2.27,1-2.67,0.69-3.61-2.1
	c-0.56-1.66-0.08-2.71,1.94-3.11c3.71-0.74,7.45-1.32,11.21-1.77c7.41-0.89,14.85-1.53,22.24-2.53c2.76-0.38,5.43-1.44,8.11-2.31
	c3.68-1.18,7.44-1.37,11.24-1.06c2.01,0.16,3.93,0.58,5.99-0.2c1.59-0.6,3.21,0.65,3.81,2.33c0.6,1.67-0.5,2.61-1.64,3.32
	c-4.52,2.8-9.08,5.56-13.69,8.21c-1.06,0.61-2.41,0.7-3.6,1.08c-2.86,0.92-5.7,1.9-8.56,2.81c-1.34,0.43-2.57,0.61-3.64-0.82
	c-0.42-0.56-1.51-0.67-2.33-0.88c-1.25-0.32-2.11-0.99-2.27-2.31c-0.19-1.49,0.87-2.06,2.01-2.47c1.62-0.58,3.28-1.07,4.88-1.68
	C682.06,707.86,682.45,707.39,683.29,706.73z"/>
</svg>
