<?xml version="1.0" encoding="utf-8"?>
<!-- Generator: Adobe Illustrator 24.1.0, SVG Export Plug-In . SVG Version: 6.00 Build 0)  -->
<svg version="1.1" id="Layer_1" xmlns="http://www.w3.org/2000/svg" xmlns:xlink="http://www.w3.org/1999/xlink" x="0px" y="0px"
	 viewBox="0 0 1224 792" style="enable-background:new 0 0 1224 792;" xml:space="preserve">
<g>
	<path d="M911.2,789.14c0.17-0.96,0.92-0.47,1.37-0.47c6.57-0.04,13.14,0.03,19.7-0.06c1.97-0.03,4.01,0.52,5.93-0.4
		c0.81,0.84,1.85,0.41,2.77,0.41c9.85,0.04,19.7,0.02,29.55,0.02c0,0.16,0,0.33,0,0.49c-0.74,0-1.48,0-2.23,0
		C949.27,789.14,930.23,789.14,911.2,789.14z"/>
	<path d="M785.59,585.21c-0.61,0.55-1.28,1.15-1.79,1.61c-0.34,1.13-0.08,2.31-1.43,2.62c-0.27,0.06-0.65,0.42-0.68,0.68
		c-0.24,2.25-2.39,3.41-3.03,5.43c-0.06,0.19-0.53,0.24-0.89,0.39c0,0.44,0,0.92,0,1.38c-1.33,1.88-2.64,3.73-3.95,5.57
		c-0.02,1.58-1.04,2.59-2.04,3.52c-0.02,0.4,0.08,0.8-0.08,1.04c-0.76,1.18-0.75,2.5-1,3.81c-0.24,1.26-0.8,2.48-0.93,3.81
		c-0.04,0.37-0.18,0.75-0.33,1.1c-1.02,2.39-1.4,5-2.61,7.33c-0.17,0.33-0.02,0.81-0.02,1.25c-0.28,0.27-0.58,0.55-0.95,0.9
		c0,0.67,0,1.38,0,1.54c-0.8,1.66-1.37,2.83-2.01,4.17c0,0.29,0,0.78,0,1.29c-0.29,0.28-0.59,0.57-0.93,0.9
		c-0.03,2.05-1.01,3.79-2.04,5.67c0,0.67,0,1.49,0,2.36c-0.7,0.45-0.81,1.23-1.12,1.96c-0.5,1.2-1.32,2.33-2.24,3.26
		c-0.97,0.99-1.45,2.21-2.08,3.36c-1.21,2.21-2.36,4.54-4.39,6.06c-2.46,1.85-4.89,3.81-7.82,4.96c-1.34,0.53-2.59,1.31-3.91,1.89
		c-0.98,0.43-2.1,0.56-3,1.1c-0.98,0.59-1.79,1.64-2.92,1.78c-1.41,0.17-2.19,1.15-3.22,1.82c-0.19,0.12-0.43,0.2-0.65,0.21
		c-1.51,0.11-2.54,1.47-4.06,1.54c-1.26,1.28-3.04,1.42-4.57,2.1c-2.15,0.97-4.29,1.98-6.44,2.97c-0.77,0.35-1.43,0.83-2.38,0.88
		c-0.69,0.04-1.36,0.65-2.01,1.05c-0.91,0.57-2.35,1.18-3.15,1.36c-1.13,0.26-2.32,0.4-3.13,1.42c-0.19,0.24-0.47,0.44-0.76,0.54
		c-1.8,0.6-3.05,2.06-4.66,2.97c-1.62,0.91-3.32,1.86-4.59,3.17c-1.3,1.35-3.11,1.99-4.26,3.54c-0.49,0.66-1.78,0.69-2.17,1.71
		c-1.3,0.17-1.92,1.34-2.91,1.94c-2.46,1.49-4.71,3.27-7.17,4.76c-2.42,1.48-4.89,2.96-7.52,3.92c-1.74,0.63-3.33,1.66-5.05,2.1
		c-2.39,0.61-4.62,1.64-7.04,2.14c-2.95,0.61-5.8,1.6-8.82,2.01c-2.34,0.32-4.74,0.38-7,0.98c-2.34,0.63-4.81,0.46-7.07,1.41
		c-0.07,0.03-0.16,0.01-0.25,0c-3-0.17-5.92,0.76-8.95,0.54c-1.4-0.1-2.83,0.26-4.24,0.45c-1.34,0.18-2.76-0.45-4.03,0.41
		c-1.55-0.65-3.29,0.87-4.79-0.41c-0.05-0.04-0.16-0.01-0.24-0.01c-1.4,0-2.8-0.02-4.2,0.01c-1.36,0.03-2.58-0.67-4-0.55
		c-2.46,0.22-4.84-0.33-7.27-0.87c-6.09-1.37-7.74-2.02-14.27-4.98c-2.21-1.01-4.49-1.97-6.76-2.76c-2.94-1.02-5.66-2.31-8.26-3.96
		c-1.98-0.22-3.29-1.98-5.24-2.27c-0.55-0.81-1.93-0.44-2.27-1.7c-0.15-0.55-1.32,0.13-1.64-0.71c-1.28,0.15-2.14-0.81-3.19-1.26
		c-1.06-0.46-2.1-0.99-2.95-1.87c-0.5-0.52-1.29-0.88-2.01-1.05c-1.69-0.39-3.03-1.46-4.54-2.18c-1.53-0.72-2.86-1.85-4.31-2.74
		c-1.57-0.96-3.11-2.03-4.8-2.73c-2.07-0.86-3.62-2.4-5.43-3.59c-0.92-0.61-1.59-1.52-2.55-2.15c-0.82-0.55-1.7-1.21-2.36-2.12
		c-0.6-0.81-1.8-1.15-2.66-1.82c-0.71-0.55-1.59-1.16-1.86-1.93c-0.35-0.98-1.37-0.93-1.81-1.68c-0.43-0.74-1.05-1.38-1.55-2.08
		c-0.92-1.29-2.18-2.27-3.11-3.57c-0.74-1.04-1.62-1.97-2.43-2.95c-0.76-0.92-1.52-1.84-2.27-2.77c-1.55-1.93-3.08-3.86-4.78-5.98
		c-0.01-0.11-0.05-0.5-0.1-0.95c-0.23-0.05-0.45-0.09-0.79-0.16c-0.18-0.66-0.59-1.37-0.84-2.03c-0.34-0.89-1.66-1.25-1.27-2.44
		c-0.74-0.51-1.2-1.29-1.75-1.96c-0.27-0.32-0.25-0.87-0.36-1.31c-0.23-0.06-0.46-0.12-0.77-0.2c0-0.36,0-0.75,0-1.17
		c-0.36-0.12-0.64-0.22-0.86-0.3c-0.5-1.16-0.86-2.36-1.5-3.38c-0.86-1.38-1.43-2.9-2.55-4.16c-1.07-1.2-2.02-2.61-2.61-4.09
		c-0.86-2.17-2.56-3.7-3.75-5.61c-0.29-0.47-0.55-0.89-0.76-1.42c-0.27-0.72-1.07-1.23-1.89-2.09c0,0.03-0.02-0.69-0.1-0.7
		c-1-0.1-0.86-1.25-1.54-1.59c-0.72-0.36,0.17-1.68-1.18-1.78c-0.42-0.03-0.74-1.1-1.14-1.67c-0.4-0.57-0.83-1.12-1.28-1.65
		c-0.98-1.16-1.96-2.33-2.97-3.46c-0.55-0.61-1.16-1.17-1.74-1.75c-0.58-0.58-1.2-1.14-1.74-1.76c-0.45-0.52-0.72-1.48-1.22-1.6
		c-0.85-0.2-0.73-1.4-1.67-1.28c-0.43-1.62-2.1-2.14-2.99-3.4c-0.9-1.29-2.39-2.08-3.56-3.16c-1.21-1.12-2.27-2.4-3.53-3.46
		c-0.93-0.78-1.92-1.52-2.99-2.16c-1.17-0.7-2.02-1.92-3.01-2.91c-0.93-0.93-1.86-1.86-2.8-2.8c-0.99-0.99-1.98-1.98-3.1-3.1
		c-0.01-0.25-0.03-0.64-0.03-0.69c-1.36-1.72-2.55-3.23-3.92-4.96c0-0.01-0.02-0.32-0.04-0.56c-0.68-0.64-1.33-1.25-1.88-1.77
		c0-0.66,0-1.05,0-1.35c-1.44-1.42-2.82-2.73-3.23-4.71c-0.22-0.06-0.45-0.12-0.48-0.12c-0.97-1.88-1.88-3.64-2.8-5.4
		c-0.28-0.54-0.51-1.15-0.91-1.59c-0.42-0.46-0.65-0.89-0.58-1.51c0.02-0.19-1.46-2.64-1.6-2.82c-0.26-0.36-0.61-0.7-0.72-1.11
		c-0.72-2.52-2.09-4.74-3.1-7.12c-0.34-0.8-0.74-1.51-1.26-2.2c-1.2-1.6-1.66-3.67-3.15-5.13c-0.21-0.21-0.09-0.76-0.12-1.12
		c-0.31-0.08-0.53-0.14-0.78-0.2c-0.1-0.43-0.14-0.92-0.34-1.32c-0.17-0.35-0.75-0.61-0.75-0.91c0.01-1.68-1.55-2.47-2.08-3.85
		c-0.51-1.34-1.48-2.51-2.22-3.78c-1.4-2.41-2.76-4.85-4.53-7.03c-0.25-0.31-0.19-0.88-0.26-1.25c-0.34-0.07-0.57-0.12-0.81-0.18
		c0-0.39,0-0.71,0-1.15c-0.26-0.1-0.53-0.2-0.99-0.37c-0.01-0.26-0.03-0.64-0.05-1.09c-0.3-0.15-0.64-0.31-0.97-0.47
		c0-0.35,0-0.68,0-0.82c-0.94-1.18-1.71-2.31-2.64-3.29c-0.92-0.98-0.85-2.6-2.22-3.25c-0.19-1.39-1.32-2.29-1.83-3.45
		c-0.54-1.22-1.78-1.91-2.09-3.04c-0.37-1.37-1.08-2.53-1.62-3.79c-0.51-1.19-1.11-2.33-1.83-3.83c0.12,0.04-0.16-0.05-0.45-0.15
		c-0.68-1.68-1.08-3.46-2.38-4.95c-0.87-0.99-1.18-2.45-1.76-3.69c-0.23-0.49-0.53-0.94-0.96-1.69c-0.01-0.21-0.04-0.77-0.06-1.25
		c-0.36-0.36-0.65-0.65-0.95-0.95c0-0.49,0-0.98,0-1.17c-0.42-0.78-0.81-1.3-0.97-1.88c-0.55-1.99-1.77-3.74-2.04-5.85
		c-0.05-0.39-0.75-0.67-0.91-1.09c-0.16-0.42-0.04-0.96-0.04-1.39c-0.35-0.35-0.64-0.64-1.02-1.02c0.68-1.77-1.3-3.1-0.96-4.9
		c-0.59-0.68-1.18-1.35-1.88-2.16c0.24-0.15,0.64-0.39,0.77-0.47c0.6-3.12-0.8-5.32-2.12-7.54c-0.2-0.34-0.69-0.64-0.67-0.94
		c0.05-1.02-0.46-1.78-0.87-2.63c-0.23-0.47-0.15-1.09-0.22-1.66c-0.28-0.28-0.57-0.57-0.93-0.93c-0.06-1.33,0.29-2.85-0.91-3.89
		c-0.16-2.5-1.2-4.76-1.33-7.21c-0.13-2.37-0.57-4.72-0.91-7.35c-0.16-0.1-0.58-0.36-0.81-0.51c0-0.81,0.05-1.31-0.01-1.8
		c-0.14-1.1,0.33-2.25-0.32-3.33c-0.58-0.96-0.04-2.1-0.56-3.23c-0.6-1.3-0.43-2.95-0.6-4.45c-0.07-0.62,0.15-1.23-0.39-1.84
		c-0.33-0.37-0.23-1.09,0.36-1.48c-0.5-0.4-0.51-0.94-0.47-1.51c0.02-0.33,0.02-0.66,0-0.99c-0.17-3.23,0.34-6.47-0.45-9.69
		c-0.38-1.55,0.19-3.15,0.4-4.74c0.22-1.62-0.35-3.42,0.15-4.9c0.54-1.61,0.25-3.24,0.77-4.85c0.5-1.55,0.11-3.39,0.11-5.12
		c0.34-0.07,0.56-0.12,0.89-0.18c0-0.68,0-1.4,0-2.08c2.14-1.85,2.44-5.12,5.53-6.24c0.75,0.22,1.86-0.48,2.79,0.45
		c0.21,0.21,0.9,0.19,1.19,0c1.12-0.76,2.35-0.33,3.52-0.47c1.01-0.12,2.01-0.33,3.01-0.48c2.27-0.34,4.47,0.46,6.72,0.5
		c0.96,0.02,1.71,1.28,2.83,0.51c0.79,0.94,1.88,0.15,2.64,0.52c0.8-0.42,1.48-0.78,2.32-1.22c0.18-0.26,0.41-0.77,0.79-1.12
		c0.39-0.35,0.93-0.53,1.66-0.93c-0.54-0.16-0.81-0.24-1.17-0.34c0-0.52,0-1.07,0-1.68c0.31-0.16,0.72-0.37,1.19-0.61
		c0.1,0.09,0.27,0.23,0.41,0.35c0.87-0.48,1.71-1.04,2.63-1.4c0.73-0.29,1.68-0.17,2.31-0.57c0.9-0.56,1.82-0.76,2.81-1.02
		c1.15-0.31,2.14-1.2,3.27-1.89c1.91,0.09,3.86-1,5.86-0.47c1.94,0.51,3.95,0.54,5.89,1.29c1.9,0.73,3.59,1.53,4.78,2.93
		c0.6,0.2,1.03,0.34,1.47,0.48c1.39,0.43,2.59,1.28,3.96,1.8c1.3,0.49,2.49,1.52,3.86,2.01c0.81,0.3,1.27,0.99,1.78,1.47
		c1.06,1.01,2.38,1.51,3.52,2.33c0.86,0.62,1.73,1.23,2.67,1.89c-0.03,0.11-0.09,0.33-0.17,0.61c-0.23-0.2-0.4-0.35-0.58-0.51
		c-0.05,0.04-0.16,0.09-0.16,0.14c-0.01,1.54-0.01,3.08-0.01,4.62c0.29,0.11,0.57,0.21,0.87,0.32c0,0.84,0,1.66,0,2.45
		c0.38,0.45,0.74,0.86,1.23,1.43c-0.48,0.28-0.84,0.49-1.29,0.75c1.11,1.96,1.53,4.15,2.07,6.31c0.06,0.22,0.04,0.49,0.16,0.67
		c1.97,2.98,3.95,5.95,5.95,8.91c0.1,0.14,0.43,0.13,0.85,0.23c-0.51,1.36,1.43,2.72-0.6,4.42c-0.63,0.12-1.77,0.33-3.09,0.58
		c-0.59-0.81-1.26-1.5-1.64-2.32c-1.26-2.69-3.06-5.02-4.91-7.31c-0.37-0.46-0.98-0.77-1.53-1.06c-1.9-0.98-3.89-1.8-5.7-2.92
		c-1-0.61-2.11-0.71-3.09-0.85c-2.18-0.32-4.19-1.11-6.15-1.92c-1.15-0.47-2.36-0.67-3.51-1.06c-0.87-0.29-1.72-0.59-2.59-0.93
		c-1.63-0.64-3.3-1.21-5.01-1.65c-1.26-0.32-2.44-0.87-3.69-1.24c-2.04-0.59-3.99-1.54-5.89-2.47c-1.71-0.84-3.52-1.51-5.13-2.55
		c-1.31-0.85-2.86-1.06-4.28-1.61c-1.26-0.48-2.48,0.38-3.74,0.46c-0.54,1.05-1.82,0.82-2.6,1.51c-0.68,0.6-1.56,0.97-2.36,1.42
		c-1.07,0.6-2.2,1.09-3.23,1.75c-1.03,0.66-2.09,1.29-3.45,2.13c-0.06,0.09-0.33,0.56-0.65,0.99c-0.57,0.76-1.16,1.5-1.74,2.25
		c-0.55,0.71-1.46,0.97-1.93,1.87c-1.54,3.01-3.51,5.83-3.61,9.39c-0.71,0.67,0.24,1.55-0.4,2.42c-0.45,0.61-0.22,1.78-0.52,2.72
		c-0.29,0.9-0.06,1.96-0.06,2.95c0,0.91,0,1.81,0,2.72c0,0.99,0,1.98,0,2.97c0,0.99,0,1.98,0,2.97c0,0.97,0,1.94,0,3.12
		c0.36-0.28,0.52-0.41,0.83-0.65c0.07,0.48,0.13,0.89,0.2,1.33c-0.34,0.12-0.63,0.23-0.92,0.33c-0.19,3.24-0.19,3.24,0.88,5.09
		c0,0.56,0.09,1.23-0.02,1.87c-0.26,1.56,0.58,2.97,0.51,4.5c1.01,0.7,0.21,1.83,0.65,2.7c0.41,0.81,0.55,1.75,0.84,2.62
		c0.29,0.87,0.69,1.7,0.92,2.58c0.14,0.54,0.07,1.14,0.07,1.71c0,0.72-0.02,1.41,0.49,2.03c0.8,0.96,0.42,2.15,0.52,3.24
		c0.29,0.29,0.58,0.58,0.97,0.97c0.04,1.15-0.08,2.41,0.48,3.62c0.97,2.12,2.26,3.74,4.77,4.07c0.74,0.1,1.44,0.49,2.17,0.71
		c1.98,0.61,3.8,1.73,5.95,1.74c3.82,1.76,8.03,2.44,11.87,4.17c1.38,0.62,2.94,0.87,4.42,1.26c1.77,0.48,3.64,0.71,5.26,2.01
		c1.73-0.59,3.18,0.81,4.89,0.96c1.81,1.42,4.33,1.07,6.15,2.47c1.15-0.44,1.37,1.23,2.57,1.07c0.72-0.1,1.54,0.55,2.41,0.9
		c2.1-1.03,4.48-1.82,6.51-3.06c2.64-1.6,5.48-2.75,8.13-4.31c2.03-1.2,4.35-1.76,6.91-1.49c1.4,1.36,2.65,2.97,3.75,4.72
		c0.21,0.34,0.59,0.57,0.86,0.88c0.88,1.03,1.79,2.04,2.62,3.12c0.94,1.23,2.06,2.23,3.2,3.27c1.67,1.51,3.15,3.25,4.56,5.02
		c1.06,1.32,1.74,2.97,2.88,4.21c0.62,0.67,0.38,1.52,0.97,2.11c0.61,0.61,1.15,1.31,1.57,2.06c0.36,0.66,0.33,1.56,0.76,2.14
		c1.09,1.49,1.38,3.23,1.96,4.89c0.19,0.55,0.23,1.06,0.33,1.59c0.07,0.38,0.11,0.81,0.32,1.1c0.7,0.98,0.72,2.07,0.9,3.12
		c0.33,1.09,0.39,2.43,1.07,3.21c0.83,0.94,0.31,2.5,1.89,2.78c-1.89,2.2-1.89,2.2-5.2,2.26c0.41,1.32,0.8,2.59,1.19,3.86
		c0.24,0.05,0.47,0.1,0.59,0.12c0.28,0.97,0.32,2.02,0.85,2.69c0.65,0.81,0.01,1.87,0.94,2.64c0.68,0.57,0.98,1.71,1.25,2.65
		c0.26,0.9,0.63,1.71,1.03,2.55c0.35,0.74,0.04,1.66,0.87,2.39c0.5,0.43,0.29,1.54,1.1,1.98c-0.38,1.34,0.63,2.33,1.19,3.19
		c0.82,1.26,0.57,2.98,1.88,3.94c0.16,1.45,1.14,2.51,1.72,3.74c0.44,0.93,0.98,1.97,1.16,2.96c0.23,1.29,0.71,2.44,1.45,3.35
		c0.61,0.75,0.56,1.46,0.64,2.29c0.2,0.07,0.42,0.14,0.84,0.28c0.11,0.67,0.45,1.4,0.96,2.12c0.4,0.56,0.37,1.51,1.14,1.86
		c0,0.78,0,1.44,0,1.92c0.38,0.58,0.75,1.01,0.98,1.5c0.42,0.9,0.59,1.95,1.16,2.72c0.55,0.74,0.28,2.15,1.67,2.25
		c0.06,1.26,1.07,2.03,1.56,3.06c1.52,3.2,3.3,6.24,5.25,9.2c0.16,0.25,0.18,0.6,0.36,0.83c1.05,1.35,1.06,3.19,2.39,4.49
		c1.13,1.11,1.68,2.79,2.7,4.03c1.5,1.81,2.12,4.14,3.68,5.91c0.77,0.87,1.41,1.87,2.05,2.85c1.81,2.79,3.83,5.44,5.52,8.32
		c1.04,1.78,2.5,3.39,3.56,5.22c0.92,1.6,2.41,2.86,2.81,4.76c1.54,1.1,2.08,2.96,3.25,4.37c1.6,1.92,3.07,3.97,4.58,5.99
		c0.33,0.43,0.55,0.96,0.92,1.34c1.57,1.59,2.77,3.5,4.24,5.14c1.66,1.85,3.26,3.83,5.49,5.16c1.15,0.69,1.95,1.85,3.1,2.65
		c1.85,1.29,3.82,2.42,5.59,3.79c0.97,0.75,2.02,1.48,2.95,2.35c1.97,1.84,4.35,3.17,6.32,5.06c0.65,0.62,0.73,1.65,1.81,2.03
		c0.68,0.24,1,1.37,1.62,1.96c0.74,0.71,1.4,1.47,2.34,2.04c0.66,0.4,0.85,1.59,1.94,1.85c0.32,0.08,0.49,0.67,0.8,0.94
		c2.12,1.85,6.54,3.94,9.23,4.47c2.72,0.53,5.38,1.3,7.97,2.25c0.91,0.33,2-0.34,2.7,0.62c2.34,0.36,4.12,1.97,6.25,2.81
		c1.21,0.48,2.42,0.92,3.67,1.3c1.21,0.37,2.19,1.47,3.61,1.42c0.15-0.01,0.37-0.02,0.46,0.07c2.12,2.19,5.36,2.28,7.72,4.12
		c0.95,0.74,2.37,0.97,3.51,1.63c2.91,1.7,6.12,2.86,8.84,4.91c1.26-0.09,1.99,1.05,3.18,1.31c1.3,0.28,2.28,1.5,3.59,2.04
		c1.34,0.55,2.63,1.23,3.93,1.86c1.09,0.53,2.31,0.96,3.59,0.87c0.6-0.04,1.2-0.17,1.88-0.28c2.79,0.25,5.71,0.55,8.63,0.77
		c2.86,0.22,5.69-0.16,9.25-1.07c1.04-0.68,3.11-1.01,5.15-1.34c0.64-0.1,1.18-0.33,1.77-0.53c1.52-0.52,3.05-0.98,4.57-1.5
		c0.86-0.29,1.69-0.72,2.56-0.96c0.9-0.25,2.12-0.04,2.7-0.58c1.24-1.15,3.08-0.67,4.1-1.77c1.43-0.25,2.75-0.48,4.13-0.72
		c0.69-1.1,1.62-2.06,3.09-2.5c0-0.53,0-1.08,0-1.61c1.04-0.28,2-0.54,2.96-0.8c0.06-0.49,0.1-0.88,0.15-1.35c0.56,0,1.11,0,1.65,0
		c0.18-1.07,1.27-1.12,1.81-1.92c-0.31-0.62-0.65-1.3-0.96-1.9c0.18-1.02,0.36-2.02,0.47-2.63c0.85-1.13,1.51-2,2.33-3.1
		c1.05-0.65,1.6,1.79,3.12,0.81c-0.34-0.55-0.67-1.09-1.22-1.96c1.02,0.47,1.69,0.78,2.41,1.11c0.16-0.11,0.4-0.28,0.74-0.51
		c0.44,0.39,0.85,0.75,1.19,1.05c2.08,0.53,1.46-1.5,2.21-2.32c-0.31-0.88-0.65-1.87-1.04-2.98c1.37,0,2.59,0,3.91,0
		c0-1.12,0-2.16,0-3.32c-0.27-0.37-0.64-0.86-1.18-1.6c0.75-0.05,1.2-0.08,1.67-0.11c0.09,0.57,0.16,1.03,0.32,2.02
		c0.5-1.77,0.12-3.07,0.41-4.54c0.54-0.19,1.19-0.43,1.84-0.66c0-0.3,0-0.62,0-1.04c-0.6-0.55-1.26-1.16-1.96-1.8
		c0.5-0.4,0.92-0.73,1.66-1.32c-0.05,0,0.43,0,0.93,0c0.89,0.66,1.83,1.35,2.89,2.12c0.44-0.62,0.82-1.15,1.2-1.68
		c-0.04-0.04-0.34-0.32-0.68-0.65c0-0.53,0-1.08,0-1.83c1.15,0.13,2.35-0.44,3.33,0.6c0.53-0.52,0.96-0.95,1.46-1.43
		c-0.18-0.06-0.45-0.14-0.72-0.23c-0.12-1.64-0.13-1.65,1.6-1.92c0.28,0.4,0.58,0.83,0.98,1.4c1.11-0.46,1.54,1.38,2.83,1.08
		c0.24-0.31,0.43-0.82,0.76-0.94c0.7-0.25,1.03-0.59,1.1-1.36c0.06-0.57,1.73-2.39,2.35-2.76c0.06-0.4,0.13-0.85,0.2-1.34
		c0.39,0.22,0.7,0.39,1.14,0.64c0.13-0.42,0.22-0.7,0.33-1.07c0.52,0,1.08,0,1.67,0c0.32-0.5,0.62-0.95,0.97-1.49
		c0.21-0.12,0.54-0.32,0.88-0.48c0.27-0.12,0.55-0.2,0.59-0.21c-0.09-0.67-0.17-1.24-0.29-2.12c0.64,0.34,0.97,0.51,1.31,0.69
		c0.66-0.81,1.31-1.72,2.08-2.52c0.59-0.61,1.32-1.07,2.05-1.65c0-0.39,0-0.88,0-1.45c0.6-0.28,1.21-0.57,1.92-0.91
		c0-0.46,0-1.01,0-1.64c0.52-0.1,0.97-0.19,1.58-0.3c0.52-1,1.09-2.08,1.52-2.9c0.78-0.65,1.38-1.15,2.03-1.69c0-0.74,0-1.45,0-2.29
		c0.29,0.26,0.46,0.41,0.75,0.66c0.08-0.69,0.14-1.3,0.22-1.99c0.39,0,0.78,0,0.95,0c0.66-0.99,1.41-1.75,1.73-2.67
		c0.39-1.12,1.73-1.06,2.2-2.05c0-0.72,0-1.44,0-2.22c0.64-0.04,1.19-0.07,1.47-0.08c0.86-0.99,1.59-1.82,2.46-2.82
		c0-0.35,0-0.9,0-1.42c0.37-0.14,0.66-0.24,0.95-0.35c0-1.18,0-2.33,0-3.63c0.53-0.15,1.08-0.3,2.05-0.57
		c0.2-0.23,0.74-0.82,1.41-1.57c0.03-0.27,0.05-0.83,0.17-1.37c0.1-0.44,0.31-0.86,0.54-1.49c0.4-0.18,1.02-0.47,1.66-0.75
		c0.4-0.88,0.77-1.8,1.24-2.67c0.18-0.35,0.57-0.59,0.86-0.89c0-0.82,0-1.64,0-2.38c0.47-0.41,0.89-0.78,1.35-1.19
		c0.03,0.03,0.2,0.18,0.52,0.45c0.38-0.79,0.67-1.58,1.12-2.27c0.56-0.86,1.18-1.69,1.89-2.43c1.5-1.57,2.39-3.34,1.98-5.59
		c1.31-0.99,2.56-1.93,3.99-3.01c0.01-0.15,0.04-0.54,0.07-0.89c0.93-0.61,1.89-1.13,2.72-1.81c0.46-0.38,0.79-0.97,1.06-1.53
		c0.61-1.26,1.52-2.17,2.73-2.87c0.45-0.26,0.73-0.8,1.34-1.5c0.01-0.13,0.04-0.69,0.07-1.24c0.63-0.29,1.25-0.58,1.9-0.89
		c0-0.3,0-0.62,0-0.91c0.13-0.15,0.23-0.36,0.33-0.36c0.68-0.01,1.03-0.41,1.18-1c0.38-1.5,0.79-2.85,2.73-3.04
		c0.59-0.06,1.11-0.81,1.72-1.28c0-0.21,0-0.54,0-0.74c0.82-0.82,1.57-1.57,2.36-2.36c0.18,0,0.43,0,0.69,0
		c0.47-0.58,0.89-1.24,1.46-1.74c0.51-0.45,1.61-0.11,1.67-1.21c0.91,0.06,1.15-0.81,1.71-1.23c0.62-0.47,1.19-1.01,1.98-1.7
		c0,0,0.02-0.32,0.04-0.65c0.58-0.47,1.6-0.88,1.7-1.44c0.31-1.86,2.25-2.84,2.34-4.48c1-0.73,1.93-1.3,2.73-2.02
		c0.57-0.51,0.9-1.28,1.45-1.81c0.5-0.48,1.15-0.79,1.67-1.13c0-0.98,0-1.8,0-2.64c0.55-0.27,1.1-0.53,1.8-0.87
		c0.49-0.76,0.92-1.82,2.06-2.49c0-0.59,0-1.31,0-2.07c0.74-0.34,2.11-0.19,1.97-1.03c-0.2-1.22,1.03-1.14,1.27-1.97
		c0.19-0.65,0.96-1.2,0.79-2.03c0.38-0.1,0.6-0.16,0.81-0.21c0.23-0.66,0.29-1.46,0.72-1.91c0.44-0.47,0.11-1.4,1.17-1.56
		c0.48-0.07,0.83-1.06,1.25-1.64c0-0.64,0-1.3,0-1.99c0.65-0.49,0.87-1.18,1.11-1.99c0.4-1.35,0.97-2.65,0.86-4.08
		c-0.09-1.12,0.45-1.95,1.01-2.99c0.09-1.31-0.34-2.89,0.85-4.17c0.13-0.14,0.16-0.45,0.13-0.68c-0.35-3.17,0.52-6.28,0.54-9.44
		c0.01-2.32,0.4-4.63,0.55-6.96c0.14-2.19,1.04-4.32,1.58-6.48c0.19-0.76,0.29-1.54,0.42-2.19c0.32-0.54,0.65-0.99,0.87-1.49
		c0.37-0.83,0.51-1.82,1.03-2.53c2.09-2.86,1.5-3.72,0.31-7.09c-0.05-0.14-0.22-0.24-0.34-0.35c0-0.82,0-1.65,0-2.48
		c-0.83-0.75-0.94-1.73-1.02-2.8c-0.12-1.71-0.52-3.38-0.84-5.07c-0.3-1.58-0.06-3.27-0.06-5.01c-1.19-0.52-1.2-1.79-1.46-2.77
		c-0.26-0.98,0.13-2.14,0.24-3.27c1.09-0.29,1.98-0.52,2.77-0.73c0.66,0.66,1.19,1.19,1.8,1.8c0,0.63,0,1.35,0,1.74
		c2.03,3.94,5.18,6.65,7.46,10.45c0,0.19,0,0.74,0,1.21c0.38,0.38,0.67,0.67,0.98,0.98c0,0.64,0,1.29,0,1.58
		c-0.59,1.19-1.19,2.03-1.43,2.98c-0.32,1.29-0.35,2.66-0.54,3.99c-0.13,0.93-0.31,1.85-0.49,2.76c-0.14,0.69,0.17,1.22,0.5,1.78
		c0.49,0.83,0.82,1.79,1.45,2.49c1.95,2.17,4.17,4.05,6.75,5.45c1.05,0.57,2.19,0.95,3.21-0.1c0.29,0.23,0.47,0.38,0.79,0.64
		c0.78-0.37,1.57-0.57,2.67-0.15c1.05,0.4,2.56,0.55,3.92-0.92c0.71-1.02,1.88-2.4,2.71-3.97c0.77-1.48,1.07-3.2,2.23-4.84
		c0-0.26,0-0.81,0-1.28c0.38-0.38,0.67-0.67,0.92-0.92c0.07-1.25-0.07-2.53,0.27-3.66c0.35-1.12,0.15-2.34,0.78-3.38
		c0.12-0.19,0.08-0.49,0.22-0.65c0.62-0.71,1.46-1.35,1.71-2.21c0.28-0.99,1.2-1.58,1.29-2.71c0.08-0.93,0.75-1.81,1.15-2.71
		c0.15-0.35,0.29-0.7,0.53-1.27c-0.03-1.69,0.94-3.28,1.68-4.99c0.73-1.68,1.77-3.19,2.39-4.95c0.45-1.28,1.42-2.39,2.23-3.52
		c1.25-1.74,2.34-3.6,4-5.03c1.32-1.14,1.7-2.92,2.54-4.39c0.25-0.44,0.5-0.93,0.76-1.41c0.44-0.79,1.21-1.31,1.47-2.32
		c0.26-0.99,1.15-1.82,1.79-2.71c0.59-0.83,1.57-1.58,1.72-2.48c0.2-1.22,1.51-1.89,1.31-3.19c1.44-0.44,1.61-1.95,2.39-2.94
		c0.8-1.02,1.25-2.3,2.03-3.34c0.51-0.68,0.43-1.34,0.46-2.08c0.28-0.26,0.58-0.54,0.84-0.77c0.06-0.22,0.13-0.36,0.14-0.51
		c0.05-0.78-0.12-1.56,0.46-2.29c0.35-0.44,0.46-1.15,0.51-1.75c0.08-0.98,0.02-1.98,0.02-3.12c0.32-0.21,0.74-0.47,0.98-0.63
		c0-1.61,0-2.93,0-4.25c0.07,0.02,0.14,0.04,0.21,0.07c0.28-0.87,0.35-1.91,0.89-2.56c0.63-0.75,0.65-1.57,0.97-2.34
		c0.45-1.07,0.64-2.23,1.12-3.24c0.67-1.43,0.8-2.87,0.77-4.38c-0.02-0.91,0-1.81,0-2.72c0.48-0.88,1.06-1.68,1.03-2.81
		c-0.03-0.85-0.4-1.81,0.26-2.59c0.54-0.64-0.21-1.62,0.66-2.24c0.23-0.17,0.04-0.94,0.04-1.42c-1-1.13-2.12-1.82-3.74-1.79
		c-1.05,0.02-2.12-0.38-3.16-0.68c-1.1-0.33-2.06-0.17-3.2,0.08c-1.76,0.38-3.26,1.35-5,1.74c-1.06,0.24-1.96,1.21-2.93,1.85
		c-2.49,1.63-5.23,2.97-7.2,5.27c-2.03,2.37-3.8,4.96-5.43,7.63c-0.75,1.23-1.62,2.33-2.62,3.37c-1.56,1.63-3.03,3.36-4.51,5.03
		c-0.71,0-1.37,0-1.97,0c-0.62-0.6-1.21-1.17-1.96-1.89c0.34-0.71,0.55-1.61,1.11-2.17c0.58-0.6,0.94-1.36,1.61-1.89
		c0.58-0.47,0.89-1.29,1.49-1.72c0.69-0.5,0.62-1.68,1.69-1.75c0.29-1.67,2.16-2.46,2.31-4.25c0.04-0.48,0.52-0.93,0.85-1.5
		c0-0.53,0-1.19,0-1.55c-0.51-0.67-0.9-1.18-1.24-1.62c-0.32,0.1-0.51,0.1-0.6,0.19c-0.92,0.87-1.65,1.91-2.43,2.9
		c-2.38,3-4.38,6.28-6.66,9.34c-1.35,1.82-2.4,3.88-3.94,5.49c-2.61,2.73-4.93,5.82-8.24,7.81c-0.72,0.43-1.18,0.91-1.64,1.59
		c-0.66,0.97-1.4,1.91-2.58,2.43c-1,0.44-1.84,1.26-3.09,0.88c-0.1,0.28-0.19,0.49-0.29,0.77c-1.59,0.67-3.24,1.41-4.93,2.06
		c-0.86,0.33-1.79,0.71-2.67,0.67c-3.17-0.13-6.26,0.82-9.44,0.58c-1.07-0.08-2.28-0.48-3.3,0.34c-1.01-0.64-2.13-0.33-3.21-0.38
		c-1.15-0.04-2.31-0.01-3.46-0.01c-1.15,0-2.31,0.03-3.46-0.01c-0.87-0.03-1.74-0.18-2.61-0.26c-0.74-0.07-1.39,0.61-2.29-0.14
		c-0.53-0.45-1.74-0.08-2.65-0.08c-0.91,0-1.81,0-2.77,0c-0.79,1.36-2.41,1.25-3.59,1.96c-0.18,0.11-0.59,0.12-0.72,0
		c-0.91-0.92-2.03-0.26-3.1-0.54c-1.27-1.44-3.06-2.2-4.74-3.06c-0.51,0.76-0.9,1.34-1.38,2.06c0,0.3,0,0.79,0,1.27
		c-1.44,1.73-1.56,1.98-1.99,3.83c-0.61,0.55-1.22,1.09-2.14,1.91c-0.1,0.03-0.69,0.21-1.44,0.43c-0.36-0.19-1.02-0.36-1.42-0.78
		c-1.03-1.1-2.04-2.25-2.89-3.49c-0.78-1.13-1.58-2.34-1.94-3.63c-0.38-1.37-1.37-2.41-1.66-3.79c-1.26,0.21-0.54,1.68-1.37,2.15
		c-0.16,1.58-0.23,3.18-0.51,4.74c-0.63,3.46-0.43,6.95-0.5,10.43c-0.02,0.76-0.57,1.57-0.43,2.26c1.02,5.03,0.09,10.1,0.53,15.13
		c-0.35,0.31-0.66,0.58-1.02,0.89c0,0.71,0,1.43,0,2.06c-0.38,0.38-0.67,0.67-0.87,0.87c-0.56,3.05-0.68,6.01-0.75,9
		c-0.02,1.13-0.52,2.3-0.39,3.59c-1.31,0.91-2.3,2.44-4.22,2.16c-0.86-0.73-1.7-1.45-2.75-2.34c-0.64-1.12,1.51-2.6,0.16-3.82
		c0.13-0.89,0.58-1.86,0.28-2.37c-0.54-0.88-0.41-1.71-0.4-2.56c0.05-4.47-1.05-8.9-0.31-13.74c0.1-0.5,0.75-0.99,1.69-1.31
		c0.54,0.73,1.15,1.55,1.84,2.49c0.4-0.61,0.78-1.17,1.23-1.84c-0.18-1.13,0.35-2.44-0.48-3.63c-0.16-0.22-0.15-0.72,0-0.96
		c0.8-1.36,0.23-2.86,0.5-4.25c1.03-5.27,0.11-10.58,0.57-15.88c1.62-2.13,0.6-4.62,0.94-7.09c-0.93-0.18-1.75-0.4-2.58-0.5
		c-0.63-0.07-1.2-0.3-1.79-0.45c-2.04-0.52-4.08-1.1-6.25-1.09c-1.66,0.01-3.34-0.23-4.98-0.48c-1.53-0.24-3.05-0.56-4.53-0.99
		c-1.53-0.44-3.06-0.97-4.5-1.65c-0.48-0.23-0.91-0.2-1.36-0.32c-0.44-0.11-0.85-0.32-1.29-0.49c-0.47,0.24-0.95,0.48-1.44,0.74
		c0,1.97,0,3.94,0,5.92c0,1.98,0.32,4.03-0.09,5.91c-0.41,1.86-0.34,3.67-0.39,5.5c-0.05,1.98-0.01,3.96-0.01,5.93
		s-0.02,3.96,0,5.93c0.02,2.01-0.71,3.93-0.54,5.98c0.18,2.04,0.09,4.12,0.02,6.18c-0.04,1.01-0.63,1.92-0.5,3.01
		c0.12,1.01-0.18,2.01-0.38,3.02c-0.31,1.59-0.05,3.28-0.1,4.93c-0.02,0.69-0.13,1.35-0.36,2.06c-0.95,2.99-1.62,6.08-2.6,9.07
		c0.59,1.86-0.82,3.31-1.06,5.02c-0.22,1.54-1.16,2.97-1.64,4.49c-0.33,1.03-0.78,2-1.15,2.98c-0.38,1.01-1.07,1.87-1.32,2.92
		c-0.3,1.28-0.61,2.55-0.93,3.89c-0.16,0.04-0.38,0.09-0.37,0.08c-0.9,1.52-1.71,2.9-2.52,4.27c-0.75,0.38-1.51,0.75-2.35,1.17
		c-1.28-0.06-1.56-1.45-2.52-2.22c0.23-0.75-0.19-1.57,0.4-2.47c0.38-0.58,0.41-1.79,0.05-2.36c-0.61-0.96-0.4-1.88-0.4-2.81
		c-0.04-4.86-0.02-9.72-0.02-14.59c0-0.56,0-1.11,0-1.64c-0.31-0.06-0.46-0.09-0.78-0.15c-0.45,2.22-1.98,4.06-2.18,6.4
		c-1.12,1.09-0.92,2.74-1.69,4c-0.69,1.12-1.01,2.38-1.32,3.66c-0.25,1.02-0.77,2-1.34,2.89c-0.85,1.32-0.93,2.9-1.69,4.25
		c-0.94,1.67-0.87,1.87-1.09,4.26c-0.26,0.79-0.68,1.58-0.73,2.39c-0.07,1-0.27,1.86-1.04,2.61c0.4,2.71-1.54,5.16-0.93,7.84
		c-0.8,0.8-1.14,1.64-1.05,2.66c0.03,0.31,0.07,0.74-0.1,0.93c-1,1.12-0.65,2.72-1.4,3.87c-0.79,1.21-0.56,2.68-1.3,3.93
		c-0.43,0.74-0.19,1.92-0.14,2.89c0.07,1.17-0.24,2.18-1,3.13c-0.04,1.74,0.22,3.6-0.84,5.27c-0.19,0.3-0.16,0.78-0.14,1.17
		c0.1,1.84-0.16,3.61-0.91,5.32c-0.15,0.35-0.07,0.8-0.09,1.2c-0.06,1.28-0.05,1.28-1,2.85c0.07,1.08,0.05,2.18-0.66,3.14
		c-0.17,0.23-0.27,0.56-0.3,0.86c-0.13,1.09-0.41,2.14-1.01,3.04c-0.79,1.18-0.83,2.61-1.44,3.86c-0.61,1.22-1.01,2.54-1.51,3.82
		c-0.28,0.71-0.55,1.42-0.99,2.54c0,0.35,0,1.17,0,2c-0.29,0.29-0.58,0.58-0.87,0.86c-0.31,1.92-0.94,3.68-1.85,5.43
		c-0.73,1.42-1.23,2.97-2.23,4.26c-0.72,0.94-1.7,1.62-2.36,2.64c-1.21,1.87-2.43,3.78-4.43,4.97c-0.24,1.13-1.25,1.64-1.94,2.4
		c-0.24,0.27-0.65,0.39-1.04,0.61c-0.09,0.37-0.11,0.87-0.33,1.25c-0.83,1.39-1.97,2.66-2.53,4.15c-0.42,1.13-0.74,2.32-1.19,3.46
		c-0.13,0.34-0.13,0.94,0.09,1.16c0.7,0.73,0.23,1.56,0.4,2.32c-0.58,0.66-1.14,1.3-1.71,1.95c0.06,0.05,0.12,0.11,0.18,0.16
		c-0.13,0.07-0.27,0.14-0.4,0.22c-1.6,0.9-3.3,1.6-4.89,2.51c-0.72,0.41-1.33,0.99-2.15,1.29c-0.78,0.29-1.58,0.68-2.2,1.22
		c-0.73,0.63-1.49,1.09-2.39,1.43c-0.78,0.29-1.49,0.77-2.24,1.17c-0.81,0.43-1.66,0.8-2.43,1.3c-1.82,1.18-3.71,2.15-5.87,2.57
		c-0.36,0.07-0.71,0.3-1.02,0.51c-3.95,2.74-4.99,3.21-10.64,5.35c-1.21,0.46-2.25,1.37-3.63,2.24c1,0.43,1.75,0.75,2.37,1.02
		c2.87-0.5,5.2-2.36,8.22-2.39c1.48-0.02,2.98-0.82,4.54-0.89c1.56-0.07,3.14,0.11,4.69-0.05c1.34-0.15,2.47,0.66,3.76,0.53
		c1.3-0.12,2.41,0.64,3.6,0.81c1.61,0.23,2.85,1.12,4.28,1.65c1,0.37,2.06,0.6,3.04,1.01c0.98,0.41,1.9,0.98,2.86,1.46
		c1.4,0.7,3.27,2.36,4.51,3.51c1.19,1.1,2.13,2.4,3.28,3.52c1.26,1.22,2.22,2.59,2.66,4.34c0.16,0.63,0.73,1.15,1.31,2.02
		c0.58,0.45,1.59,0.54,2.64,0.46c0.88-0.07,1.69,0.14,2.53,0.46c1.02,0.39,2.16,0.4,3.23,0.59c2.9,0.5,5.82,0.22,8.7,0.52
		c1.33,0.14,2.72,0.14,3.99,0.48c1.35,0.36,2.67,0.34,4.01,0.46c0.74,0.07,1.6,0.26,2.15,0.71c0.7,0.57,1.14,1.45,1.7,2.21
		c-0.38,1.05-0.72,1.98-1.08,2.99c-2.34,0-4.55,0-6.75,0c-1.29-0.95-3-0.03-4.29-0.99c-2.33-0.08-4.6-0.72-6.97-0.52
		c-1.8,0.15-3.63,0.09-5.44,0.01c-1.19-0.05-2.16,0.31-3.09,0.98c0.07,1.04,0.76,2.06-0.01,3.06c-0.09,0.12-0.2,0.29-0.18,0.41
		c0.37,1.96-0.87,3.77-0.48,5.67c-0.34,0.34-0.63,0.63-0.96,0.96c-0.04,0.84,0.01,1.75-0.17,2.6c-0.15,0.73-0.86,1.42-0.81,2.1
		c0.08,1.09-1.23,1.07-1.23,1.95c-0.91,0.06-1.01,1.14-1.85,1.42c-0.71,0.24-1.23,1-1.92,1.32c-0.74,0.35-1.6,0.46-2.61,0.72
		c-0.28-0.09-0.79-0.36-1.3-0.4c-1.07-0.07-2.15-0.1-3.21,0c-0.92,0.09-1.93-0.04-2.46-0.58c-0.73-0.73-1.53-0.25-2.26-0.6
		c-1.78-0.86-3.64-1.55-5.47-2.31c-1.41-0.59-2.81-1.17-4.56-1.91c-1.11,0.35-2.29-0.6-3.69-1.21c-0.1-0.19-0.23-0.55-0.45-0.86
		c-0.18-0.27-0.68-0.51-0.65-0.7c0.3-2.02-1.81-3.33-1.54-5.32c0.03-0.23-0.02-0.47-0.05-0.92c-4.11-1.65-8.28-3.33-12.78-5.14
		c-0.3-0.33-0.85-0.93-1.48-1.62c-0.03-0.55-0.78-3.93-1.01-4.37c-0.25-0.48-0.53-0.95-1.03-1.86c-0.26-1.04,0.58-2.73-0.41-4.14
		c0.16-0.64,0.42-1.24,0.43-1.83c0.03-1.43-0.12-2.87,0.99-4.06c0.16-0.17,0.02-0.63,0.02-0.93c-2.28-1.2-4.66-2.01-7.09-2.7
		c-1.45-0.41-2.78-1.03-3.79-2.22c0-0.82,0-1.64,0-2.38c0.41-0.55,0.79-1.04,1.5-1.98c0.96-0.72,2.62-0.25,4.12-0.56
		c0.79-0.26,1.62-0.45,2.37-0.8c0.76-0.35,1.23-1.28,2.33-1.01c0.36,0.09,0.86-0.26,1.27-0.46c3.35-1.67,6.7-3.33,10-5.08
		c0.43-0.23,1.21-0.24,1.3-1.15c0.03-0.28,1.04-0.5,1.62-0.68c2.07-0.64,4.06-1.41,5.77-2.8c0.27-0.22,0.76-0.16,1.21-0.24
		c0.08-0.23,0.18-0.51,0.3-0.84c0.37-0.04,0.76-0.09,0.97-0.11c1.17-0.96,2.23-1.82,3.27-2.67c-0.16-0.29-0.34-0.61-0.66-1.16
		c-0.36-0.17-0.99-0.45-1.58-0.72c-0.67-1.22-1.34-2.43-2.15-3.89c-0.02-0.47,0.06-1.2-0.64-1.9c-0.86-0.87-1.7-1.93-2.06-3.07
		c-0.38-1.19-1.15-2.15-1.54-3.33c-0.53-1.58-1.51-3-2.37-4.46c-0.23-0.39-0.3-0.87-0.5-1.49c-0.5-0.49-1.14-1.13-1.78-1.75
		c0-0.26,0.1-0.58-0.02-0.75c-1.17-1.72-2.17-3.54-3.2-5.34c-0.8-1.39-2.41-2.21-3.36-3.66c-0.37,1.75-0.61,3.39,0.06,5.05
		c-0.33,0-0.49,0-0.63,0c-0.37-0.67-0.58-1.56-1.14-1.91c-0.7-0.45-0.74-1.35-1.54-1.66c0-1.47,0-2.94,0-4.47
		c0.34-0.67,0.72-1.42,1.14-2.26c0.7,0,1.51,0,2.33,0c0.45,0.49,0.93,1.03,1.23,1.35c0.78,0,1.17,0,1.49,0
		c-0.11-1.16-0.29-2.26-0.3-3.36c-0.04-3.63,0.01-7.25-0.03-10.88c-0.01-0.76,0.34-1.61-0.45-2.3c-0.2-0.18-0.13-0.82-0.01-1.19
		c0.19-0.59,0.52-1.08,0.5-1.78c-0.07-2.47,0.31-5.01-0.13-7.4c-0.38-2.03-0.22-4-0.4-5.99c-0.09-1.01,0.29-2.07-0.44-3.05
		c-0.19-0.26,0.46-1.15,0.27-1.4c-0.43-0.55-0.31-1.08-0.31-1.62c-0.02-4.37-0.03-8.74,0.01-13.1c0-0.6,0.26-1.19,0.4-1.8
		c-1.18-3.89-0.68-8.09-1.88-12.02c-0.04-0.13,0.29-0.36,0.45-0.55c-0.32-0.34-0.65-0.69-1.07-1.13c0.17-0.7,0.34-1.46,0.54-2.29
		c-0.1-0.17-0.27-0.43-0.5-0.79c0.14-0.22,0.31-0.47,0.52-0.8c-0.25-0.2-0.52-0.62-0.84-0.66c-1.82-0.22-3.65-0.33-5.48-0.53
		c-0.93-0.1-1.84-0.32-2.76-0.48c-0.84-0.14-1.81,0.39-2.51-0.49c-1.21,0.81-2.41-0.21-3.64-0.05c-0.74,0.1-1.6,0.33-2.3-0.4
		c-0.16-0.17-0.82-0.06-1.11,0.13c-0.62,0.41-1.09,0.42-1.73-0.01c-0.35-0.24-1.02-0.31-1.39-0.14c-2.54,1.19-4.95,0.06-7.4-0.3
		c-1.95-0.29-3.54-1.42-5.3-2.13c-0.94-0.38-1.54-1.06-2.24-1.6c-0.9-0.7-2.09-0.09-2.85-0.93c-0.13-0.15-0.34-0.23-0.49-0.33
		c0.4-1.63,1.88-1.66,2.96-2.11c1.25-0.52,2.38,0.46,3.22,1.05c2.43,1.72,5.03,2.44,7.94,2.38c2.31-0.04,4.62-0.07,6.92,0.01
		c2.65,0.09,5.36,0.04,7.94,0.57c1.86,0.38,3.69,0.14,5.49,0.44c1.65,0.27,3.27,0.65,5.11,0.34c0-3.41,0.02-6.85-0.01-10.29
		c-0.01-1.75,0.36-3.42,0.9-5.07c0.05-0.15,0.11-0.31,0.09-0.45c-0.28-2.19,0.34-4.31,0.51-6.47c0.16-1.99,0.42-3.97,0.67-6.2
		c0.13-0.14,0.47-0.49,0.8-0.84c0-3.55,0.04-7.1-0.01-10.64c-0.04-2.5,1.03-4.98,0.46-7.45c-0.84-3.64-0.17-7.3-0.47-10.93
		c-0.12-1.48,0.36-2.84,0.73-4.17c0.2-0.72,0.25-1.41,0.26-2.09c0.02-1.04,0.02-2.05,0.68-2.94c0.17-0.24,0.32-0.56,0.32-0.85
		c-0.04-2.47,0.05-4.9,0.95-7.27c0.34-0.9-0.1-2.07,0.55-2.99c0.14-0.2,0.3-0.37,0.48-0.6c0.11-1.43-0.34-3.01,0.84-4.3
		c0.18-0.19,0.12-0.6,0.16-0.91c0.17-1.33,0.1-2.76,0.57-3.97c0.37-0.96,0.4-1.85,0.41-2.79c0.03-2.39,0-4.78,0.01-7.17
		c0-0.92-0.16-1.86,0.37-2.71c-0.78-0.76-0.41-1.75-0.32-2.56c0.13-1.11-0.59-1.99-0.54-3.01c0.05-0.97-0.18-1.86-0.5-2.77
		c-0.66-1.86-0.86-3.79-1.09-5.76c-0.28-2.43-0.17-5.02-1.59-7.23c-0.09-0.13-0.29-0.24-0.29-0.37c-0.03-0.91-0.01-1.81-0.01-2.72
		c-1.08-2.19-2.15-4.38-3.36-6.83c-2.41-1.33-5.28-2.6-8.03-4.12c-1.4-0.77-2.75-1.66-4.18-2.41c-1.32-0.69-2.6-1.54-3.5-2.87
		c-0.42-0.61-1.21-0.97-1.87-1.4c-0.08-0.05-0.35,0.18-0.58,0.31c-0.91-0.57-1.33-1.67-2.21-2.35c-0.23-0.17-0.27-0.65-0.5-0.76
		c-1.7-0.77-2.26-2.49-3.27-3.82c-1.84-2.42-5.29-5.74-7.74-7.91c-0.73-0.65-1.79-0.97-2.2-1.66c-0.53-0.88-1.62-0.94-1.98-1.84
		c-2.34-0.69-3.43-3.22-5.81-3.89c-0.48-0.14-0.81-0.8-1.24-1.18c-1.48-1.28-2.92-2.6-4.79-3.36c-0.7-0.29-1.26-0.92-1.91-1.37
		c-1.21-0.85-2.54-1.38-4.29-1.52c1.08,1.69,1.18,3.38,1.07,5.08c0.33,0.55,0.88,1.05,0.93,1.6c0.29,2.75,1.85,5.02,2.71,7.55
		c0.33,0.98,0.07,2.32,1.31,2.91c-0.37,1.27,1.44,1.75,1.08,3.01c0.93,1.52,1.86,3.03,2.81,4.59c-0.29,1-0.75,2.09-0.88,3.21
		c-0.14,1.18,0.05,2.4-0.9,3.35c-0.05,0.05-0.14,0.14-0.13,0.19c0.47,2.06-0.74,3.84-1.09,5.75c-0.36,1.94-0.03,3.9-0.46,5.73
		c-0.74,3.08-0.19,6.15-0.47,9.17c0.98,0.72,2.04,0.91,3.18,0.79c1.38-0.14,2.53,0.73,3.8,0.93c1.26,0.19,2.16,1.13,3.53,1.16
		c1,0.03,1.91,1.45,2.97,1.63c2.3,0.39,3.72,2.57,6.07,2.71c0.68,0.94,1.82,1.18,2.75,1.72c0.32,0.19,0.74,0.22,1.44,0.42
		c0.25,0.31,0.71,0.88,1.08,1.35c0.54,0,1.01-0.14,1.18,0.02c1.26,1.23,2.94,1.67,4.43,2.46c1.16,0.62,2.21,1.46,3.27,2.25
		c0.95,0.72,1.82,1.55,2.79,2.25c0.55,0.39,1.22,0.61,1.84,0.92c0.68,0.34,1.45,0.58,2.03,1.04c1.52,1.21,3.05,2.48,4.82,3.2
		c1.18,0.48,2.15,1.19,3.19,1.74c0.13,0.76,0.24,1.44,0.42,2.5c-0.29,0.56-0.77,1.49-1.18,2.28c-1.76,0.28-3.24,0.52-5.02,0.81
		c-0.51,0.28-1.36,0.66-2.11,1.18c-0.68,0.47-1.24,1.1-1.87,1.64c-0.7,0.61-1.38,1.23-2.11,1.79c-0.36,0.27-0.8,0.43-1.22,0.62
		c-0.49,0.22-1.13,0.28-1.45,0.64c-1.52,1.69-3.7,2.24-5.57,3.31c-1.59,0.91-3.37,1.49-4.94,2.36c-1.5,0.83-3.23,1-4.65,1.97
		c-0.4,0.28-1.43-0.03-1.57,0.24c-0.43,0.81-0.83-0.07-1.32,0.13c-1.93,0.8-4.11,1.19-6.09,0.67c-2.27-0.6-4.5-0.29-6.74-0.38
		c-0.91-0.04-1.83,0.25-2.65,0.37c-1.1,3.24-0.63,6.41-0.77,9.54c-0.06,1.26-0.38,2.5-0.46,3.75c-0.08,1.31,0.27,2.72-0.09,3.93
		c-0.4,1.36-0.28,2.68-0.45,4.02c-0.15,1.25-0.68,2.45-0.47,3.75c-1.19,0.94,0.19,2.57-0.96,3.58c-0.2,0.18-0.03,0.79-0.03,1.2
		c0.02,1.59-0.45,3.08-0.87,4.58c-0.13,0.45-0.11,0.96-0.11,1.44c-0.01,1.4,0.39,2.97-0.11,4.16c-0.51,1.2,0.13,2.6-0.87,3.6
		c-0.04,0.04,0,0.16-0.01,0.24c-0.16,2.32-0.16,4.67-0.53,6.96c-0.79,4.87-0.3,9.76-0.47,14.63c-0.01,0.31-0.09,0.62-0.19,0.91
		c-1.02,3.2-0.9,4.38-0.37,8.37c0.29,2.21,0.87,4.43,0.57,6.71c-0.42,3.17,0.88,6.26,0.42,9.52c-0.48,0.39-1.05,0.84-1.61,1.3
		c-1.03,0.71-2.01,0.17-2.87-0.5c-0.97-0.76-1.49-1.8-1.4-3.12c0.07-0.98,0.08-1.98,0-2.96c-0.1-1.26-0.3-2.5-0.48-3.75
		c-0.17-1.17,0.45-2.44-0.49-3.5c0.31-1.39-0.52-2.65-0.47-4c0.05-1.25,0.37-2.5,0.45-3.75c0.08-1.23-0.3-2.58,0.1-3.68
		c0.47-1.29,0.61-2.59,0.35-3.77c-0.57-2.57-0.14-5.18-0.52-7.71c-0.25-1.68-0.13-3.38-0.49-4.98c-0.34-1.52-0.37-3-0.43-4.51
		c-0.01-0.3-0.12-0.61-0.26-0.88c-0.45-0.88-0.3-1.67,0.3-2.42c-0.91-1.15-0.17-2.57-0.58-3.73c-0.42-1.18-0.39-2.33-0.45-3.58
		c-1.5-0.74-2.34-2.19-3.39-3.34c-0.28-1.86,0.33-3.75-0.42-5.68c0.1-0.58,0.58-1.53,0.29-2.06c-0.56-1.03-0.3-2.04-0.43-3.05
		c-0.08-0.69,0.03-1.34-0.36-2.08c-0.4-0.75-0.32-1.87,0.39-2.72c-0.82-0.97-0.46-2.14-0.5-3.24c-0.04-1.23-0.12-2.49,0.02-3.7
		c0.12-1.04-0.64-2.04-0.03-3.06c-0.72-1.02,0.55-2.03-0.07-3.05c-0.78-0.97-1.94-0.87-3.03-0.78c-1.67,0.14-3.41-0.5-5.01,0.42
		c-2.12-1.24-4.54,0.16-6.78-0.85c-1.05-0.47-2.46-0.25-3.73-0.52c-2.12-0.45-4.22-1.11-6.33-1.4c-2.72-0.37-5.24-1.52-8-1.67
		c-1.36-0.08-2.84-0.36-4-1.02c-1.22-0.69-2.48-0.21-3.69-0.66c-1.08-0.4-2.4-0.31-3.6-0.23c-1.32,0.09-2.47-0.4-3.67-0.72
		c-0.29-0.08-0.58-0.29-0.86-0.29c-4.6,0.14-8.61-1.75-12.53-3.78c-1.72-0.89-3.62-1.15-5.33-2.09c-1.01-0.56-2.46-0.32-3.54-0.43
		c-1.79-1.63-1.81-1.55-4.28-2.16c-0.94-0.23-1.78-0.9-2.62-1.35c0-1.09,0-1.97,0-2.87c1.25-1.29,2.67-2.46,3-4.44
		c0.06-0.4,0.67-0.7,1.01-1.06c0.76-0.82,1.46-1.7,2.18-2.52c0.64-0.72,1.2-1.43,1.68-2.26c0.28-0.48,0.77-0.84,1.18-1.25
		c0.35-0.35,0.86-0.64,1.02-1.06c0.9-2.32,2.93-3.61,4.69-5.07c1.91-1.58,4.08-2.85,6.14-4.23c0.9-0.6,1.8-1.2,2.74-1.74
		c0.88-0.51,1.72-0.96,2.13-2.05c0.15-0.41,1.04-0.54,1.65-0.83c0.32-1.05,1.3-1.68,2.08-2.48c0.45-0.46,1.28-0.53,1.36-1.36
		c0.82,0.09,1.01-0.73,1.54-1.07c0.65-0.42,1.3-0.75,2.09-0.95c2.23-0.55,4.41-1.27,6.6-1.95c0.22-0.07,0.39-0.26,0.71-0.49
		c0.51,0,1.16,0.07,1.8-0.02c1.01-0.13,2.02,0.31,3.06-0.39c0.8-0.53,2.1,0.41,2.97-0.57c0.07-0.08,0.32-0.02,0.48-0.01
		c2.42,0.06,4.77-0.8,7.21-0.52c0.42,0.05,0.87-0.22,1.46-0.39c0.4,0.1,0.99,0.35,1.59,0.39c1.15,0.07,2.31-0.03,3.46,0.03
		c2.24,0.13,4.48,0.32,6.72,0.48c1.04,1.03,2.43,0.25,3.65,0.74c1.07,0.43,2.39,0.24,3.85,0.34c0-1.95,0-3.82,0-5.68
		c0-1.81,0-3.63,0-5.6c0.32-0.2,0.74-0.47,0.99-0.62c0-3.76,0.03-7.22-0.02-10.68c-0.01-0.84,0.35-1.76-0.44-2.55
		c-0.25-0.25-0.19-1.02-0.01-1.43c0.85-1.94,0.26-3.99,0.51-5.96c0.81-0.86,1.78-1.31,3.21-1.17c0.27,0.37,0.66,0.88,1.22,1.63
		c0.05,0.88-0.27,2.18,0.44,3.39c0.17,0.29,0.06,0.81-0.04,1.19c-0.55,2.16-0.55,2.15-0.01,4.34c0.1,0.39,0.06,0.8,0.07,1.21
		c0.01,0.82,0,1.65,0,2.47c0,2.06,0.05,4.12-0.01,6.18c-0.06,1.94,0.69,3.76,0.56,5.73c-0.17,2.57-1.02,5.09-0.44,7.65
		c0.42,1.81,2.1,2.07,3.57,2.86c0.37-0.47,0.77-0.97,1.18-1.5c0.73-2.81,1.49-5.73,2.34-8.99c0,0,0.31-0.28,0.67-0.6
		c0-0.7,0-1.42,0-2.13c0.08,0.02,0.16,0.04,0.24,0.06c0.53-1.5,1.06-3.01,1.59-4.51c0.24-1.12,0.32-2.27,0.6-3.46
		c0.25-1.06-0.28-2.3-0.48-3.52c-0.24-0.09-0.52-0.19-0.86-0.31c0-0.46,0-0.94,0-1.35c-1.16-1.57-1.76-3.31-2.55-4.97
		c-0.82-1.74-1.31-3.58-1.93-5.38c-0.61-1.73-1.85-3.28-1.49-5.18c-0.39-0.39-0.68-0.68-1-1c0-1.12,0-2.27,0-3.42
		c-1.12-0.76,0.13-2.29-0.99-3.05c0-0.98,0-1.97,0-3.02c-1.72-1.2-2.75-3.13-4.68-4.21c-0.67-0.38-0.91-1.48-1.88-1.94
		c-0.69-0.33-1.07-1.3-1.64-1.93c-0.75-0.84-1.63-1.43-2.85-1.5c-0.74-0.04-1.48-0.37-2.21-0.62c-0.72-0.25-1.4-0.65-2.13-0.81
		c-0.63-0.14-1.31-0.03-1.89-0.03c-2.32-0.98-4.49-2.07-6.95-2.54c-1.14-0.22-2.38-0.57-3.33-1.49c-0.54-0.52-1.28-0.76-2.07-0.96
		c-1.55-0.39-2.94-1.25-4.35-2.01c-1.95-1.04-4.01-1.87-5.96-2.91c-1.78-0.95-3.76-1.27-5.62-1.96c-0.71-0.27-1.43-0.53-2.39-0.89
		c-2.1-0.18-4.57-0.09-6.86-0.69c-1.71-0.45-3.35-0.3-5.01-0.36c-0.83-0.03-1.67,0.34-2.51,0.45c-0.77,0.1-1.58-0.15-2.29,0.47
		c-0.23,0.2-0.8,0.08-1.21,0.02c-2.51-0.34-4.81,0.73-7.2,1.15c-1.65,0.29-3.25,0.89-4.88,1.33c-0.82,0.22-1.81,0.16-2.45,0.61
		c-1.16,0.81-2.42-0.01-3.52,0.49c-1,0.45-1.97,0.9-3.1,0.89c-0.87-0.01-1.72-0.09-2.53,0.46c-0.48,0.32-1.15,0.43-1.76,0.51
		c-0.65,0.08-1.32-0.02-1.97,0.03c-0.69,0.05-1.37,0.16-2.04,0.37c-1.1-0.15-1.97-1.26-3.07-0.87c-1.16-0.8-2.19-1.51-3.55-2.44
		c-0.47-0.8-1.17-1.99-1.9-3.24c0-0.6,0-1.25,0-2.06c0.57-0.49,1.19-1.13,1.91-1.63c0.7-0.48,1.45-0.94,2.17-1.32
		c2.48-1.32,4.64-3.1,6.99-4.6c0.91-0.58,1.83-1.15,2.73-1.75c2.4-1.61,7.23-3.37,10.35-4.27c2.44-0.71,4.96-1.05,7.37-1.87
		c0.81-0.28,1.8-0.04,2.7-0.04c1.57,0,3.13-0.02,4.7,0.01c1.02,0.02,2.02-0.12,3.04,0.44c0.78,0.43,1.79-0.12,2.79,0.44
		c0.87,0.49,2.11,0.19,3.23,0.51c1.84,0.53,3.72,1.24,5.58,1.4c2.23,0.18,3.9,1.4,5.82,2.15c0.78,0.3,1.52,0.74,2.32,0.96
		c0.7,0.2,0.68,1.27,1.78,1.1c0.67-0.1,1.45,0.75,2.22,1.09c0.7,0.3,1.27,0.96,2.14,0.8c0.67,0.98,2.03,0.78,2.79,1.65
		c0.18,0.2,0.56,0.22,0.84,0.33c2.59,1.06,5.19,2.08,7.16,4.21c1.07,1.15,2.77,1.47,3.82,2.7c0.13,0.15,0.53,0.16,0.57,0.3
		c0.4,1.43,1.69,1.67,2.77,2.25c0.92,0.5,2.07,0.9,2.25,2.14c3.51,1.97,6.63,4.42,9.91,6.84c0.51-0.27,0.98-0.53,1.62-0.87
		c-0.42-0.66-0.65-1.42-1.15-1.72c-1.22-0.73-2.01-1.73-2.57-3.11c0.64-1.07,1.31-2.19,1.97-3.29c0.88,0,1.6,0,2.3,0
		c0.95,0.71,1.81,1.51,2.74,2.24c0.97,0.76,1.69,1.83,2.66,2.58c2.79,2.16,5.38,4.55,7.97,6.94c0.98,0.91,2.32,1.64,3.61,1.95
		c1.69,0.4,3.1,1.3,4.63,1.98c1.32,0.58,2.84,0.77,3.93,1.88c0.53,0.53,1.36-0.09,2.02,0.51c1.26,1.14,3.19,1.18,4.4,2.47
		c1.14-0.15,1.54,0.96,2.34,1.39c0.89,0.47,1.7,1.11,2.49,1.74c0.75,0.59,1.42,1.26,2.15,1.87c0.85,0.71,1.76,1.37,2.58,2.11
		c0.76,0.69,1.59,1.28,2.36,1.95c1.79,1.56,3.57,3.15,5.26,4.82c0.67,0.67,1.64,1.24,1.91,2.07c0.23,0.7,1.41,0.23,1.1,1.26
		c-0.24,0.77,0.74,0.98,0.96,1.56c0.59,1.51,1.93,2.46,2.83,3.73c0.81,1.15,1.78,2.22,2.41,3.46c0.63,1.25,1.25,2.53,2.19,3.51
		c0.57,0.59,0.28,1.23,0.62,1.73c0.24,0.06,0.47,0.12,0.71,0.19c0.11,0.44,0.15,0.92,0.35,1.32c0.17,0.35,0.71,0.59,0.74,0.92
		c0.06,0.6,0.24,1.02,0.61,1.5c0.96,1.24,1.66,2.66,2.8,3.79c1.02,1.01,2,2.1,2.77,3.3c0.48,0.74,0.69,1.74,0.75,2.64
		c0.17,2.51,0.8,4.89,1.74,7.2c0.09,0.21,0.25,0.42,0.25,0.63c-0.02,1.83,0.73,3.54,0.91,5.29c0.22,2.13,0.36,4.22,1.06,6.26
		c0.15,0.44,0.02,0.97,0.02,1.43c0.32,0.32,0.61,0.61,0.99,0.99c0,2.38,0.02,4.84-0.01,7.3c-0.02,1.15,0.07,2.23,1,3.08
		c0,0.96,0.34,2.14-0.09,2.89c-0.51,0.9-0.34,1.71-0.39,2.56c-0.06,0.98,0.25,2.07-0.07,2.95c-0.84,2.31-0.19,4.66-0.49,6.98
		c-0.28,0.28-0.57,0.57-0.88,0.88c-0.11,1.86-0.7,3.68-0.91,5.5c-0.25,2.2-1.62,4.19-1.14,6.49c0.03,0.15,0.03,0.35-0.04,0.47
		c-1.4,2.11-0.83,4.49-0.94,6.78c-0.05,1.03,0.08,2.05-0.48,3.02c-0.57,0.99-0.52,2.13-0.52,3.25c0.02,5.36,0.03,10.71-0.01,16.07
		c-0.01,0.84,0.29,1.72-0.42,2.56c-0.32,0.38-0.15,1.29-0.02,1.92c0.49,2.31,0.52,2.3-0.03,5.04c-0.02,0.08,0,0.16,0,0.25
		c-0.16,2.07-0.36,4.15-0.48,6.22c-0.07,1.21-0.03,1.22-1,2.82c0,0.97-0.06,1.96,0.01,2.95c0.11,1.46-0.77,2.75-0.54,4.25
		c0.21,1.41-0.44,2.74-0.82,4.09c-0.2,0.71,0.07,1.54,0.11,2.32c0.05,0.94,0.09,1.88,0.13,2.82c-1.37,1.26-0.9,2.73-0.36,4.12
		c0.66,1.71,0.38,3.48,0.5,5.3c0.97,0.09,2.07-0.1,2.81,0.34c0.8,0.48,1.89-0.26,2.42,0.76c2.22,0,4.46,0.11,6.67-0.04
		c1.2-0.08,2.39-0.56,3.54-0.97c0.43-0.15,0.74-0.61,1.09-0.91c0.63,0.47,1.63,0.6,1.44,2.18c-1.13,2.06-3.34,3.2-6.24,3.24
		c-0.92,0.01-1.85,0.47-2.76,0.43c-1.09-0.05-2.19,0.38-3.31-0.37c-0.8-0.53-1.98,0.25-3.01-0.51c-0.54-0.39-1.6-0.07-2.63-0.07
		c0.17,2.29-0.27,4.52,0.35,6.88c0.46,1.77,0.99,3.64,1.06,5.5c0.13,3.21,0.39,6.48-0.08,9.62c-0.38,2.52-0.22,4.99-0.36,7.48
		c-0.03,0.5,0.19,1.02,0.41,2.09c-0.02,0.15-0.98,0.76-0.15,1.59c0.14,0.14,0.22,0.43,0.22,0.64c-0.02,2.58,0.75,5.1,0.53,7.71
		c-0.15,1.88-0.03,3.79-0.03,5.68c-0.01,1.66-0.05,3.31,0.82,4.86c0.25,0.45,0,1.2-0.06,1.81c-0.06,0.62-0.43,1.36-0.22,1.85
		c0.76,1.73,0.37,3.51,0.43,5.26c0.07,1.98,0.02,3.95,0.02,6.08c0.25,0.18,0.58,0.42,1.03,0.75c-0.67,2.08,1.55,3.58,0.89,5.57
		c0.4,0.4,0.69,0.69,1.05,1.05c-0.3,1.38,0.54,2.52,1.2,3.6c1.04,1.71,2.51,3.18,2.76,5.29c1.19,1.12,1.45,2.69,1.97,4.13
		c0.05,0.14,0.04,0.35,0.13,0.43c1.75,1.41,3.16,3.33,5.46,3.66c2.24,2.01,4.4,3.95,6.69,6c0.53-0.45,1.07-0.9,1.55-1.31
		c-0.02-1.44,0.81-2.42,1.45-3.45c1.37-2.18,2.82-4.32,4.5-6.3c0.17-0.2,0.5-0.26,0.67-0.46c0.77-0.9,1.81-1.5,2.38-2.68
		c0.38-0.78,1.04-1.61,1.96-2.16c0.62-0.37,1.21-1.16,1.36-1.86c0.29-1.33,1.71-2.08,1.64-3.53c1.4-0.2,0.71-2.02,1.87-2.4
		c0.04-1.03,0.52-1.92,0.86-2.85c0.21-0.58,0.12-1.28,0.14-1.59c0.73-1.93,1.45-3.54,1.94-5.21c0.72-2.5,1.72-4.89,2.66-7.31
		c0.58-1.5,1.31-2.96,1.35-4.64c0.01-0.68,0.14-1.47,0.51-1.99c0.43-0.6,0.46-1.17,0.44-1.8c-0.02-0.73,0.03-1.42,0.5-2.02
		c0.89-1.14,0.32-2.49,0.53-3.73c0.29-0.29,0.58-0.58,0.81-0.81c0.14-1.17,0.07-2.36,0.47-3.35c0.42-1.06-0.42-2.32,0.64-3.19
		c-0.5-2.45,1.61-4.52,0.94-6.86c0.9-0.9,1.11-1.87,1.06-2.94c-0.02-0.55-0.07-1.06,0.41-1.57c0.76-0.81,0.32-2.1,1.04-3.02
		c0.74-0.94,0.41-2.14,0.53-3.24c0.16-1.46,0.88-2.78,1.17-4.23c0.12-0.6,0.18-1.23,0.3-1.83c0.21-1.06,0.19-2.28,0.72-3.15
		c0.68-1.11,0.83-2.19,0.78-2.8c0.71-2.04,1.24-3.54,1.77-5.05c0.06,0.02,0.13,0.04,0.19,0.07c0-0.82,0-1.65,0-2.03
		c0.58-1.18,1.19-1.97,1.35-2.84c0.19-1.07,0.41-2.14,0.61-3.22c0.18-1-0.01-2,0.45-3.04c0.38-0.87,0.03-1.98,0.5-3.01
		c0.34-0.75,0.07-1.78,0.07-2.69c0.84-0.75,1.04-1.72,1-2.8c-0.02-0.54,0-1.02,0.35-1.59c0.72-1.19,0.57-2.67,1.03-4.01
		c0.43-1.23,0.95-2.56,0.54-3.91c0.96-0.88,1.08-1.95,1.05-3.1c-0.04-1.81-0.15-3.64,0.03-5.43c0.18-1.81-0.67-3.46-0.53-5.24
		c-0.89-0.97-0.4-2.16-0.48-3.26c-0.09-1.13,0.26-2.46-0.23-3.36c-0.53-0.98,0.34-2.2-0.77-2.91c0.31-2.27-1.51-4.21-0.99-6.51
		c-0.93-2.26-0.53-4.8-1.48-7.05c-0.03-0.07,0-0.16,0-0.25c-0.16-2.65-0.3-5.3-0.51-7.95c-0.07-0.93-0.34-1.84-0.47-2.76
		c-0.13-0.93,0.3-1.95-0.5-2.76c0.27-1.91-0.54-3.9,0.41-5.76c0.1-0.2,0.08-0.47,0.08-0.71c0-3.98,0.79-7.91,0.54-11.91
		c-0.07-1.06-0.38-2.17,0.38-3.3c0.53-0.78-0.17-1.95,0.48-3.01c0.44-0.72,0.08-1.92,0.08-3.09c-1.64,0.07-3.09-0.3-3.78-2.05
		c-0.11-0.28-0.62-0.4-1.17-0.72c-0.04-0.71,0.22-1.81-0.87-2.35c0.29-1.13-0.92-1.59-1.18-2.44c0.32-1.58,1.74-2.4,2.15-3.92
		c0.36-1.34,1.49-2.45,2.16-3.78c0.64-1.28,1.63-2.42,2.08-3.9c-0.09-0.15-0.36-0.42-0.37-0.68c-0.04-1.89-0.05-3.79-0.01-5.69
		c0.02-0.77,0.63-1.42,0.51-2.27c-0.07-0.51-0.17-1.07,0.31-1.61c0.19-0.21-0.34-0.95-0.32-1.44c0.12-2.41,0.31-4.81,0.48-7.21
		c0.01-0.15,0.04-0.33,0.13-0.43c1.15-1.28,0.85-2.85,0.84-4.35c-0.01-1.2-0.09-2.43,0.53-3.49c0.53-0.9,0.55-1.84,0.45-2.77
		c-0.31-2.85,0.24-5.68,0.64-8.43c0.42-2.93,0.15-5.82,0.38-8.71c0.07-0.93,0.25-1.85,0.39-2.87c-0.07-0.07-0.23-0.25-0.47-0.51
		c1.29-1.36-0.07-3.27,0.95-4.76c0.16-0.23,0.11-0.62,0.11-0.94c-0.05-1.91,0.02-3.79,0.94-5.55c0.14-0.26,0.09-0.65,0.04-0.96
		c-0.19-1.15,0.09-2.27,0.56-3.23c0.46-0.94,0.38-1.84,0.45-2.76c0.75-0.71,0.88-1.6,1.02-2.57c0.17-1.19,0.46-2.51,1.15-3.45
		c0.9-1.24,0.98-2.8,1.81-3.95c1.11-1.53,0.96-3.56,2.38-4.99c0.94-0.95,0.37-2.76,1.51-3.79c-0.39-1.09,0.59-1.65,1.05-2.27
		c1.52-2.04,3.11-4.03,5.65-5.02c0.53-0.21,1.01-0.38,1.56-0.4c2.72-0.09,5.34,0.49,8.01,0.87c2.15,0.3,4.53,0.73,6.71-0.35
		c0.07-0.03,0.16-0.02,0.24-0.03c2.24-0.17,4.55-0.75,6.7-0.4c3.42,0.56,6.8,0.3,10.19,0.38c3.38,0.08,6.76,0,10.14,0.03
		c0.61,0.01,1.21-0.15,1.86,0.32c0.44,0.32,1.31,0.32,1.88,0.13c2.46-0.81,4.98-0.43,7.47-0.43c2.49,0.01,4.97,0.29,7.46,0.48
		c0.2,0.02,0.37,0.29,0.56,0.45c0.16-0.15,0.34-0.31,0.44-0.4c0.91,0.15,1.75,0.37,2.59,0.4c1.56,0.06,3.13-0.04,4.7,0.03
		c2.41,0.11,4.85,0.11,7.2,0.56c1.27,0.24,2.66,0.03,3.72,0.51c1.24,0.55,2.4,0.12,3.54,0.42c1.92,0.5,3.82,1.11,5.73,1.69
		c1.11,0.34,2.16,0.95,3.39,0.77c0.24-0.04,0.57-0.11,0.73,0.01c1.83,1.4,4.18,1.38,6.21,2.34c2.03,0.97,4.01,2.21,6.3,2.69
		c0.7,0.15,1.22,1.14,1.92,1.28c0.77,0.15,1.34,0.38,1.86,0.93c0.13,0.14,0.42,0.12,0.87,0.24c0-2.72,0-5.33,0-7.94
		c-0.88-1.3-0.49-2.88-0.9-4.31c-0.41-1.45-0.12-3.11-0.08-4.67c0.06-2.32-0.12-4.58-0.98-6.77c-0.11-0.29-0.08-0.67,0-0.98
		c0.29-1.17-0.26-2.22-0.58-3.24c-0.19-0.6-0.44-1.16-0.41-1.8c0.05-1.05,0.03-2.08-0.67-2.94c-0.72-0.88-0.09-1.9-0.33-2.67
		c-1.5-2.36-0.94-5.35-2.9-7.58c0-0.54,0-1.26,0-1.98c-0.09,0.02-0.18,0.04-0.27,0.06c-0.26-0.79-0.42-1.64-0.8-2.37
		c-0.39-0.75-1.33-1.26-0.96-2.32c-1.22-0.91-0.73-2.64-1.84-3.72c-0.7-0.68-1.11-1.79-1.49-2.81c-0.29-0.79-0.37-1.85-1.51-2.05
		c0.17-0.96-0.63-1.43-1.13-1.94c-0.61-0.64-1-1.42-1.73-2.02c-0.98-0.82-1.39-2.33-2.38-3.13c-0.85-0.69-1.62-1.49-2.4-2.22
		c-0.82-0.77-1.63-1.65-2.4-2.53c-0.92-1.07-2.11-1.91-3.2-2.83c-0.16-0.13-0.55-0.06-0.64-0.21c-0.8-1.3-2-2.24-3.06-3.29
		c-1.61-1.59-3.26-3.15-4.88-4.73c-2.51-2.43-5.24-4.65-7.24-7.59c-0.68-1-1.75-1.74-2.58-2.65c-1.13-1.25-2.53-2.24-3.38-3.78
		c-0.34-0.62-1.26-0.91-1.84-1.43c-1.77-1.63-3.32-3.47-4.79-5.38c-0.51-0.66-0.83-1.57-1.37-2.02c-0.66-0.56-0.95-1.33-1.55-1.91
		c-0.64-0.62-1.03-1.52-1.47-2.34c-0.54-1.01-0.99-2.07-1.54-3.07c-1.19-2.14-2.18-4.4-3.54-6.45c-0.09-0.13-0.23-0.24-0.38-0.38
		c-0.03-0.52-0.05-1.08-0.08-1.66c-0.28-0.06-0.51-0.11-0.75-0.16c-0.41-1.94-0.85-3.89-1.96-5.7c-0.38-1.46-1.16-3.04-1.1-4.59
		c0.07-1.71-1.12-2.9-1.16-4.54c-0.05-1.58-0.7-3.15-1.1-4.78c-0.19-0.07-0.48-0.18-0.78-0.28c0-0.68,0-1.33,0-2.09
		c-0.29-0.21-0.62-0.44-0.93-0.66c0-0.68,0-1.23,0-1.77c-1.04-0.22-1.19-1.2-1.79-1.76c-0.5-0.46-0.81-1.12-1.27-1.64
		c-0.59-0.68-1.21-1.33-1.87-1.94c-0.57-0.53-1.17-1.02-1.85-1.47c-2.02-1.34-6.08-3.78-7.82-4.33c-1.48-0.47-2.77-1.27-4.11-2.02
		c-2.73-1.54-5.54-2.94-8.31-4.4c-2.48,0.07-4.3-1.61-6.34-2.58c-1.49-0.7-2.93-1.72-4.35-2.65c-0.63-0.41-1.31-0.76-2.17-0.78
		c-0.63-0.01-1.38-0.39-1.84-0.85c-0.81-0.8-1.79-1.23-2.76-1.74c-2.06-1.09-4.06-2.29-5.84-3.81c-0.28-0.24-0.7-0.29-1.03-0.47
		c-0.48-0.26-0.94-0.56-1.61-0.96c-0.22,0-0.71,0-1,0c-1.68-1.19-3.23-2.28-4.9-3.46c-1.27,0.09-2.52-0.5-3.5-1.5
		c-0.98-1-2.59-1.12-3.09-2.48c-0.89-0.03-1.53-0.04-2.22-0.46c-1.96-1.19-4.3-1.55-6.35-2.56c-2.81-1.38-5.69-2.56-8.62-3.66
		c-0.14-0.05-0.25-0.23-0.39-0.24c-1.74-0.18-3.49-0.44-5.23-0.48c-2.96-0.08-5.93-0.01-8.9-0.02c-4.47-0.02-8.91,0.85-13.39,0.52
		c-0.41-0.03-0.85,0.3-1.18,0.43c-0.59-0.17-1.22-0.58-1.6-0.41c-2.21,0.94-4.5,0.2-6.74,0.45c-1.06-0.96-2.49-0.14-3.65-0.74
		c-0.21-0.11-0.61,0.21-0.93,0.24c-1.52,0.14-2.93-0.54-4.41-0.68c-0.54-0.05-1.07-0.3-1.6-0.28c-1.85,0.08-3.57-0.32-5.29-0.98
		c-1.1-0.42-2.28-0.58-3.49-0.54c-2.47,0.07-4.94,0.06-7.42,0.01c-2.63-0.05-5.15,0.39-7.61,1.34c-0.64,0.25-1.42,0.15-1.98,0.2
		c-0.76,0.52-1.36,1.2-2.07,1.35c-1.34,0.28-2.13,1.44-3.52,1.73c-1.19,0.25-2.19,1.42-3.29,2.16c-0.18,0.12-0.46,0.09-0.66,0.19
		c-2.92,1.47-5.58,3.28-7.38,5.38c-1.27,0.63-2.16,0.93-2.89,1.45c-2.05,1.45-4.01,3.04-6.08,4.47c-0.31,0.22-0.54,0.26-0.74,0.68
		c-0.25,0.54-0.8,1.11-1.35,1.29c-1.38,0.45-2.21,1.52-3.21,2.42c-1.01,0.91-2.15,1.68-3.07,2.67c-0.39,0.42-1.5,0.1-1.23,1.16
		c-0.93-0.12-0.77,1.2-1.43,1.18c-0.84-0.03-0.28,1.44-1.28,1.04c-1.26,1.85-3.26,2.95-4.66,4.66c-0.24,0.29-0.43,0.62-0.79,1.15
		c-0.4,0.22-1.5,0.47-1.62,0.97c-0.2,0.79-1.48,0.49-1.18,1.46c-2.61,2.33-4.7,5.2-7.65,7.19c-1.19,0.8-2.2,1.86-3.31,2.77
		c-0.67,0.55-1.37,1.06-2.07,1.58c-0.66,0.49-0.78,1.48-1.71,1.73c-0.88,0.24-0.71,1.46-1.69,1.79c-0.54,0.18-0.76,1.2-1.31,1.54
		c-0.76,0.46-1.11,1.18-1.61,1.8c-1.4,1.72-2.73,3.51-4.21,5.44c0.09,1.88-2.57,2.99-2.03,5.22c-0.36,0.36-0.65,0.65-1.03,1.03
		c0,0.47,0,1.02,0,1.19c-0.98,0.92-2.11,1.5-2.37,2.35c-0.36,1.17-1.35,1.7-1.89,2.64c-0.59,1.02-1.51,1.84-2.22,2.8
		c-0.84,1.12-1.59,2.31-2.41,3.45c-0.99,1.39-2.17,2.64-3.15,4.04c-0.1,0.14-0.43,0.13-0.76,0.21c-0.02,0.35-0.04,0.74-0.07,1.14
		c-1.25,0.36-1.88,1.34-2.36,2.5c0.25,0.26,0.57,0.61,0.89,0.95c-0.75,0.25-1.48,0.49-1.85,0.61c-0.94,1.07-1.68,1.9-2.52,2.84
		c-0.09,0.54-0.16,1.21-0.79,1.74c-0.52,0.44-1.25,1.19-1.16,1.68c0.18,1.08-1.66,0.55-1.17,1.81c0.15,0.4-0.58,1.2-1,1.74
		c-0.44,0.57-1.2,0.94-0.83,1.98c-0.32,0.09-0.6,0.17-0.66,0.18c-0.82,1.47-1.58,2.8-2.32,4.14c-0.7,1.27-1.43,2.55-2,3.87
		c-0.58,1.36-2.28,2.04-2.1,3.74c-0.29,0.08-0.51,0.13-0.77,0.2c-0.1,0.43-0.14,0.92-0.34,1.32c-0.17,0.35-0.64,0.57-0.77,0.92
		c-0.34,0.89-0.79,1.67-1.46,2.37c-0.64,0.68-0.27,1.86-1.07,2.51c-0.77,0.63-0.28,1.98-1.4,2.39c-0.26,1.49-0.93,2.75-1.89,3.93
		c-0.47,0.57-0.03,1.48-0.56,2.25c-0.4,0.56-0.67,1.01-1.55,1.13c0,0.36,0.11,0.79-0.02,1.13c-0.55,1.5-2.13,2.54-1.96,4.38
		c-1.07,1.15-1.58,2.65-2.48,3.92c-0.59,0.83-1.12,1.74-1.84,2.44c-1.51,1.44-2.42,3.28-3.6,4.94c-0.83,1.16-1.76,2.25-2.67,3.34
		c-0.58,0.7-1.18,1.39-1.85,2.01c-0.64,0.59-0.28,1.75-1.26,2.1c0.07,1.04-1.56,1.31-1.12,2.5c-0.95,0.28-0.87,1.26-1.31,1.88
		c-0.69,0.98-0.72,2.07-0.67,2.97c-1.81,2.73-2.74,5.55-3.06,8.69c-0.76,0.69-0.88,1.67-0.92,2.74c-0.04,1.01-0.07,2.14-0.53,2.97
		c-0.49,0.88-0.39,1.69-0.42,2.55c-0.04,1.03-0.05,2.02-0.46,3.03c-0.38,0.92,0.39,2.08-0.5,3.02c-0.21,0.22,0.02,0.8-0.04,1.21
		c-0.18,1.18,0.37,2.39-0.34,3.57c-0.57,0.94,0.26,2.22-0.61,3.22c-0.24,0.28-0.04,0.96-0.04,1.45c0,2.31,0.06,4.62-0.02,6.92
		c-0.06,1.67-0.37,3.32-0.46,4.99c-0.08,1.64,0.07,3.3-0.07,4.94c-0.04,0.55-0.32,0.99,0,1.6c0.15,0.3-0.19,0.85-0.36,1.48
		c0.63,1.62,0.57,3.5,0.17,5.4c-0.1,0.46-0.23,0.91-0.25,1.38c-0.04,0.9,0.29,1.98-0.09,2.68c-0.48,0.87,0.24,1.38,0.13,2.11
		c-0.17,1.17-0.52,2.27-0.93,3.34c-0.28,0.74-0.04,1.22,0.46,1.82c-0.18,0.29-0.53,0.61-0.55,0.94c-0.07,1.15,0.04,2.31-0.05,3.46
		c-0.08,1.09-0.51,2.19-0.43,3.25c0.13,1.56-0.59,2.97-0.55,4.5c0.04,1.48,0.33,3.05-0.05,4.43c-1.34,4.94-0.78,9.95-0.95,14.93
		c-0.04,1.09-0.37,2.17-0.46,3.26c-0.08,1.06,0.21,2.2-0.06,3.2c-0.97,3.71-0.19,7.46-0.45,11.18c0.63,0.93-0.07,1.87-0.02,2.81
		c0.07,1.15,0.02,2.31,0.02,3.46c0,1.07,0.02,2.14-0.02,3.21c-0.01,0.29-0.24,0.56-0.31,0.85c-0.29,1.21-0.7,2.38-0.71,3.68
		c-0.02,1.62-0.38,3.24-0.84,4.82c-0.28,0.96-0.32,1.99-0.49,3.11c0.05,0.06,0.21,0.23,0.33,0.36c-0.94,1.36-1.88,2.71-2.9,4.16
		c0,0.5,0,1.16,0,1.42c-0.54,1.08-0.92,1.83-1.31,2.61c-0.14,0.03-0.36,0.07-0.6,0.12c-0.05,0.45-0.09,0.84-0.12,1.09
		c-1.1,0.79-2.11,1.51-3.31,2.38c-0.99-0.14-2.15-0.3-3.24-0.44c-0.42-1.07-0.79-1.98-1.27-3.18c-0.38-4.04-2.14-8.19-2.06-12.58
		c-0.35-0.35-0.64-0.64-0.8-0.8c-0.22-2.38-0.22-4.66-0.74-6.82c-0.27-1.12-0.29-2.18-0.42-3.28c-0.1-0.93-0.31-1.84-0.49-2.76
		c-0.15-0.76-0.49-1.52-0.45-2.27c0.05-0.85-0.34-1.52-0.55-2.27c-0.06-0.21-0.3-0.37-0.48-0.59c0-0.94-0.08-1.94,0.02-2.91
		c0.09-0.92-0.13-1.77-0.57-2.49c-0.27-0.44-0.47-0.8-0.44-1.31c0.1-2.15-0.23-4.24-0.97-6.27c-0.13-0.36-0.03-0.82-0.02-1.23
		c0.06-1.52-0.15-2.94-0.76-4.39c-0.47-1.12-0.49-2.43-0.73-3.65c-0.34-1.67-0.58-3.38-1.13-4.97c-0.19-0.54-0.36-1.04-0.33-1.58
		c0.06-1.45-0.12-2.81-0.79-4.13c-0.27-0.53-0.23-1.25-0.2-1.89c0.08-1.76-0.22-3.45-0.87-5.09c-0.14-0.36-0.12-0.78-0.13-1.18
		c-0.04-1.11-0.06-2.17-0.44-3.28c-0.45-1.32-0.7-2.75-0.6-4.23c0.06-0.82-0.28-1.67-0.46-2.51c-0.16-0.76-0.36-1.51-0.48-2.27
		c-0.11-0.69,0.14-1.4-0.45-2.06c-0.24-0.27,0.06-1.06,0.16-1.6c0.1-0.54,0.27-1.06,0.42-1.64c-0.94-0.63-1.09-1.84-2.38-2.58
		c0.63-0.26,1.26-0.52,1.88-0.79c-0.14-0.14-0.29-0.28-0.43-0.41c0.49,0.36,0.97,0.72,1.48,1.09c0.53,0.93,1.01,1.98,1.67,2.91
		c1.04,1.45,1.64,3,1.6,4.78c-0.03,1.04-0.03,2.05,0.64,2.96c0.22,0.29,0.32,0.72,0.34,1.09c0.05,0.9,0.02,1.81,0.02,2.71
		c0.85,0.77,0.97,1.75,1.01,2.82c0.05,1.17,0.05,2.46,0.54,3.47c0.47,0.97,0.4,1.86,0.41,2.8c0.01,1.04,0,2.05,0.66,2.95
		c0.21,0.29,0.36,0.73,0.33,1.09c-0.3,2.91,0.64,5.6,1.53,8.28c0.28,0.84,0.52,1.63,0.48,2.52c-0.09,1.76,0.53,3.36,1.33,5.44
		c0.09-1.85,0.53-3.21-0.24-4.56c-0.11-0.19-0.13-0.47-0.09-0.7c0.35-2.52-0.28-5-0.6-7.45c-0.27-2.09-0.16-4.18-0.48-6.22
		c-0.18-1.1-0.17-2.32-0.74-3.38c-0.17-0.33-0.13-0.77-0.16-1.17c-0.17-1.99-0.04-4.07-0.58-5.95c-0.56-1.95-0.36-3.84-0.39-5.75
		c-0.05-3.98-0.87-7.92-0.51-11.91c0.08-0.85,0.26-1.68,0.38-2.46c0.57-0.32,1.03-0.57,1.51-0.84c0.47,0.21,0.96,0.42,1.45,0.64
		c0.03,0.14,0.1,0.29,0.1,0.44c0.01,0.82,0.02,1.65,0,2.47c-0.05,1.91,0.26,3.75,0.92,5.55c0.16,0.43,0.07,0.97,0.07,1.45
		c0.01,1.65-0.14,3.31,0.04,4.94c0.17,1.5,0.17,3.08,0.55,4.47c0.65,2.36,0.12,4.68,0.49,7.06c0.82,0.76,0.96,1.83,0.91,2.98
		c-0.04,0.9,0.05,1.82-0.02,2.72c-0.1,1.18,0.29,2.16,1,3.23c0,0.16,0.01,0.48,0,0.81c-0.14,3.27,0.4,6.41,1.88,9.36
		c-0.03,1.75,1.09,3.22,1.14,4.99c0.03,1.37,1.15,2.56,0.96,4.03c1.35,1.81,1.12,4.14,1.98,6.1c0.61,1.38,1.29,2.71,0.93,4.23
		c0.35,0.35,0.64,0.64,0.75,0.75c0.38,1.23,0.7,2.25,1.01,3.27c0.03-0.01,0.07-0.03,0.1-0.04c0.21,1.07,0.4,2.15,0.66,3.21
		c0.07,0.28,0.3,0.55,0.52,0.77c0.15,0.15,0.41,0.2,0.78,0.36c0.07-0.38,0.18-0.67,0.17-0.95c-0.14-4.97,0.87-9.9,0.5-14.88
		c0.88-2.94,0.39-5.96,0.48-8.94c0.03-1.04,0.82-1.93,0.51-3.01c0.85-1.25,0.43-2.66,0.48-4c0.06-1.89,0.02-3.79,0.02-5.68
		c0.29-0.29,0.59-0.59,0.99-0.99c0-2.01,0.12-4.15-0.05-6.26c-0.08-0.96,0.51-1.78,0.15-2.84c-0.24-0.7,0.47-1.71,0.72-2.6
		c0.11-0.38,0.16-0.77,0.17-1.16c0.02-1.24,0.06-2.47-0.01-3.71c-0.06-1.21,0.2-2.35,0.49-3.51c0.26-1.06-0.35-2.23,0.48-3.28
		c0.24-0.3,0.04-0.96,0.04-1.45c0-4.29-0.02-8.57,0.02-12.86c0.01-1.01-0.29-2.06,0.43-3.05c0.2-0.27-0.2-0.98-0.37-1.69
		c0.1-0.3,0.37-0.81,0.4-1.32c0.07-1.15-0.17-2.35,0.06-3.45c0.78-3.79,0.34-7.61,0.45-11.42c0.03-0.95,0.82-1.75,0.5-2.76
		c0.89-1.76,0.44-3.65,0.47-5.48c0.04-1.99,0.67-3.89,0.85-5.8c0.23-2.37,1.94-4.48,1.21-6.37c0.49-1.56,0.82-2.57,1.22-3.85
		c0.08-0.08,0.37-0.37,0.68-0.68c0-0.63,0-1.29,0-2.02c0.28-0.24,0.6-0.5,0.94-0.78c0-0.58,0-1.14,0-1.47
		c1.67-2.06,2.03-4.53,3.35-6.55c1.34-2.06,2.67-4.15,3.9-6.28c0.8-1.39,3.76-5.05,4.61-5.55c0-0.34,0-0.72,0-1.1
		c0.79-0.1,0.99-0.64,1.31-1.19c0.66-1.14,1.81-2.11,2.13-3.31c0.34-1.26,1.81-1.88,1.58-3.32c1.13-1.33,2.01-2.78,2.03-4.6
		c1.29-1.02,1.52-2.68,2.41-3.96c0.68-0.98,1.63-1.82,1.59-3.33c-0.02-0.85,0.93-1.71,1.41-2.59c0.26-0.46,0.44-0.97,0.81-1.81
		c0.35-0.35,0.99-0.99,1.65-1.65c0-0.31-0.12-0.86,0.02-0.93c1.18-0.65,0.85-2.17,1.86-3c0.8-0.65,1.49-1.7,1.73-2.7
		c0.41-1.67,2.11-2.53,2.37-4.23c0.02-0.16,0.53-0.24,0.9-0.39c0-0.68,0-1.4,0-2.17c0.3-0.06,0.63-0.02,0.73-0.16
		c0.73-1,1.45-2.01,2.12-3.05c0.6-0.93,0.84-2.14,2.07-2.56c0.09-1.45,1.27-2.28,1.88-3.43c0.81-1.53,2.16-2.61,2.93-4.21
		c0.74-1.53,2.22-2.73,3.41-4.03c1.54-1.69,2.74-3.64,4.2-5.39c0.78-0.93,1.55-1.85,2.44-2.9c0-0.13,0-0.45,0-0.79
		c0.66-0.27,1-0.78,1.37-1.36c0.39-0.61,1.02-1.07,1.57-1.62c0.04-0.36,0.08-0.75,0.12-1.11c0.32-0.32,0.61-0.61,0.91-0.91
		c0-0.47,0-0.96,0-1.55c0.27-0.09,0.55-0.18,0.83-0.27c0.51-1.44,1.1-2.84,1.7-4.24c0.86-2.01,2.42-3.57,3.19-5.6
		c0.14-0.36,0.2-0.75,0.34-1.29c1.04-0.19,1.72-1.22,2.81-1.82c0.03-0.33,0.06-0.72,0.09-1.16c1.01-0.69,1.54-1.9,2.56-2.62
		c0.99-0.7,1.49-1.84,2.36-2.61c1.71-1.51,3.54-2.88,5.3-4.33c1.78-1.46,3.54-2.94,5.29-4.44c0.62-0.54,1.17-1.16,1.75-1.74
		c0.52-0.52,0.97-1.33,1.59-1.51c0.95-0.26,0.87-1.23,1.52-1.61c0.46-0.27,0.89-0.59,1.35-0.9c0-0.31,0-0.64,0-0.95
		c0.36-0.19,0.7-0.35,1.04-0.54c0.74-0.4,1.51-0.77,2.2-1.24c0.67-0.45,0.76-1.5,1.68-1.72c0.65-1.57,2.05-2.3,3.36-3.18
		c0.96-0.64,1.73-1.57,2.57-2.39c0.51-0.5,1.19-0.96,1.44-1.58c0.33-0.83,1.08-0.86,1.63-1.25c0.55-0.39,1.2-0.66,1.87-1.02
		c0-0.19,0-0.52,0-0.92c0.2-0.07,0.42-0.12,0.61-0.22c1.46-0.76,2.45-2.16,3.97-2.85c0.49-0.22,0.88-0.7,1.38-0.84
		c1.18-0.34,1.89-1.32,2.86-1.94c1-0.64,1.91-1.42,3.02-2.27c0.08,0,0.41,0,0.86,0c0.5-0.54,1.05-1.15,1.63-1.73
		c0.47-0.47,1-0.88,1.49-1.33c0.11-0.1,0.12-0.35,0.23-0.39c3.13-1.09,5.4-3.83,8.76-4.54c0.85-0.18,1.54-1.01,2.37-1.42
		c1.64-0.8,3.27-1.73,5.01-2.22c2.76-0.78,5.36-2.1,8.44-1.82c3.35,0.3,6.75,0.09,10.13,0.06c1.83-0.01,3.58,0.33,5.31,0.91
		c0.52,0.17,1.13,0.12,1.69,0.08c1.61-0.12,3.11,0.34,4.61,0.81c0.29,0.09,0.61,0.14,0.91,0.18c1.02,0.15,2.09-0.31,3.08,0.33
		c0.8,0.52,1.86-0.17,2.74,0.6c0.37,0.33,1.35,0.25,1.92,0.02c2.13-0.85,4.33-0.26,6.48-0.47c0.69-0.06,1.36-0.21,2.08-0.32
		c0.58,0.06,1.24,0.17,1.9,0.16c0.36,0,0.72-0.3,1.09-0.32c3.14-0.19,6.29-0.41,9.44-0.49c3.21-0.08,6.43,0.01,9.64-0.03
		c1.46-0.02,5.11,0.93,7.01,1.58c2.46,0.83,4.79,1.98,7.18,2.97c2.19,0.91,4.35,1.83,6.62,2.53c0.93,0.28,1.66,1.19,2.59,1.49
		c1.66,0.54,2.85,1.83,4.4,2.51c0.13,0.06,0.13,0.42,0.23,0.82c1.84-0.44,3.31,0.77,4.61,1.67c1.87,1.3,3.92,2.14,5.84,3.27
		c2.31,1.37,4.41,3.1,7.01,3.97c0.85,1.56,2.66,1.58,3.97,2.37c0.84,0.51,1.74,0.97,2.57,1.54c0.82,0.56,2.04,0.35,2.66,1.33
		c1.27-0.16,1.86,1.03,2.87,1.44c0.99,0.4,1.89,1.07,2.81,1.6c0.86,0.49,2,0.69,3.01,1.05c0.87,0.3,1.32,1.37,2.56,1.09
		c0.76-0.17,1.18,1.25,2.3,0.99c0.33-0.08,0.96,0.32,1.15,0.67c0.7,1.26,2.16,1.25,3.17,2.01c0.85,0.64,1.91,1.33,3.15,1.29
		c2.18,1.61,4.92,2.18,7.05,3.87c0.84-0.2,0.26,1.23,1.29,1.08c0.39-0.06,0.92,0.85,1.39,1.31c0.47,0.47,0.93,0.93,1.4,1.4
		c0.41,0.41,0.85,0.79,1.21,1.23c0.39,0.48,0.71,1.02,1.06,1.54c0.35,0.51,0.74,1.01,1.04,1.55c0.29,0.53,0.46,1.13,0.71,1.68
		c0.69,1.53,1.44,3.03,2.08,4.58c0.44,1.05,0.27,2.34,1.23,3.19c0,1.16,0,2.32,0,3.46c0.3,0.3,0.59,0.59,0.93,0.93
		c0,0.76,0,1.57,0,2.1c0.42,0.94,0.98,1.64,0.98,2.34c0,0.87,0.36,1.57,0.76,2.17c0.53,0.8,0.09,1.59,0.35,2.4
		c0.25,0.25,0.54,0.54,0.64,0.64c0.5,1.55,0.93,2.86,1.42,4.37c0.11,0.03,0.39,0.11,0.67,0.19c0.56,1.92,1.23,3.84,2.49,5.38
		c1.06,1.29,1.38,2.98,2.58,4.14c-0.04,1.74,1.76,2.53,2.1,4.08c1.83,1.3,2.38,3.87,4.69,4.69c0.43,1.26,1.67,1.84,2.45,2.84
		c1.36,1.74,3,3.3,4.69,4.73c1.14,0.96,1.89,2.22,2.96,3.2c1.98,1.83,3.32,4.29,5.79,5.67c0.83,0.46,1.42,1.36,2.12,2.06
		c1.86,1.86,3.59,3.91,5.64,5.54c1.79,1.43,3.3,3.1,5.02,4.58c0.81,0.7,1.2,1.72,2.19,2.33c0.89,0.55,1.36,1.76,2.16,2.44
		c0.84,0.72,1.47,1.44,1.84,2.45c1.29,0.09,0.99,1.56,1.89,2.16c0.9,0.59,1.38,1.84,2.03,2.81c0.6,0.9,1.24,1.78,1.77,2.73
		c0.33,0.59,0.44,1.3,0.71,1.93c0.8,1.81,1.63,3.61,2.47,5.4c0.2,0.42,0.52,0.78,0.94,1.39c0,0.62,0,1.5,0,2.28
		c1.24,1.15,1.55,2.65,1.97,4.01c0.5,1.61,1.02,3.22,1.41,4.85c0.26,1.05,0.48,2.13,0.69,3.2c0.43,2.18,0.63,4.44,1.61,6.49
		c0.1,0.21,0.31,0.43,0.28,0.62c-0.33,1.88,0.31,3.68,0.57,5.48c0.5,3.48,0.19,6.97,0.53,10.42c0.17,1.66,0.06,3.4,0.48,4.98
		c0.44,1.69,0.34,3.34,0.42,5c0.16,0.18,0.32,0.35,0.46,0.51c-0.17,0.2-0.33,0.38-0.53,0.61c0.4,0.82,0.8,1.63,1.22,2.49
		c0.76,0.18,1.54,0.14,1.91,1.32c0.23,0.74,1.46,1.13,2.13,1.8c0.6,0.61,1.04,1.38,1.73,2.31c0,1.12,0,2.51,0,3.89
		c0,0.82-0.1,1.66,0.03,2.47c0.1,0.63,0.32,1.18,0.01,1.84c-0.11,0.23,0.25,0.69,0.41,1.03c0.23,0.48,0.48,0.94,0.66,1.28
		c-1.84,1.98-4.36,1.94-6.61,2.97c0.31,1.87-0.4,3.7,0.53,5.49c0.2,0.39,0.04,0.97,0.03,1.47c-0.05,1.75,0.37,3.42,0.89,5.07
		c0.12,0.37,0.1,0.79,0.1,1.19c0.01,1.24,0.06,2.48-0.01,3.71c-0.19,3.25,0.84,6.43,0.53,9.69c-0.03,0.33,0.3,0.69,0.46,1.01
		c-0.16,0.53-0.61,1.21-0.43,1.52c0.69,1.15,0.43,2.36,0.43,3.53c0.03,7.17-0.01,14.34,0.03,21.51c0.01,1.84-0.19,3.61-0.9,5.32
		c-0.17,0.42-0.1,0.96-0.11,1.44c-0.01,1.57-0.03,3.13,0,4.7c0.04,1.99-0.19,3.92-0.94,5.79c-0.17,0.43-0.05,0.97-0.05,1.46
		c0,2.39-0.14,4.79,0.03,7.17c0.23,3.1-0.67,6.11-0.53,9.19c-0.75,1.52-0.39,3.15-0.51,4.74c-0.06,0.85-0.36,1.67-0.46,2.52
		c-0.09,0.78,0.15,1.59-0.48,2.29c-0.16,0.18-0.02,0.64-0.03,0.97c-0.02,1.27,0.16,2.55-0.47,3.76c-0.16,0.31-0.02,0.78-0.02,1.45
		c0.59-0.28,1.01-0.41,1.34-0.66c0.76-0.57,1.41-1.34,2.24-1.78c0.87-0.47,1.52-0.94,1.91-1.91c0.4-1,1.62-1.26,2.26-2.22
		c1.22-1.85,2.75-3.49,4.14-5.22c0.4-0.5,0.81-1,1.44-1.78c0,0.02,0.04-0.37,0.09-0.82c0.23-0.05,0.45-0.09,0.79-0.16
		c0.07-0.38,0.15-0.84,0.23-1.28c0.3-0.11,0.58-0.21,0.87-0.31c0-0.37,0-0.69,0-0.68c1.27-1.77,2.4-3.28,3.47-4.85
		c0.56-0.82,1.29-1.68,1.42-2.6c0.19-1.32,1.18-2,1.76-2.99c0.32-0.55,0.91-0.95,1.32-1.36c0.86,0.14,1.67,0.27,2.79,0.45
		c1.1,1.28,2.4,2.79,3.66,4.25c1.5,0.21,2.61-0.57,3.45-1.35c1.3-1.21,2.89-1.83,4.34-2.73c1.43-0.89,2.92-1.69,4.43-2.44
		c0.61-0.3,1.35-0.32,1.99-0.55c2.87-1.03,5.81-1.61,8.86-1.27c2.07,0.23,4.04,0.92,5.98,1.65c0.51,0.19,1.05,0.29,2.02,0.55
		c0.05,0.08,0.37,0.56,0.68,1.04c1.2,2.13,0.89,4.59,0.76,6.97c-0.11,2-0.53,4.03-1.12,5.95c-0.34,1.12-0.12,2.35-0.8,3.37
		c0.33,2.19-0.64,4.28-0.56,5.92c-0.45,1.34-0.68,2.23-1.04,3.06c-0.4,0.92-0.45,2.13-0.97,2.78c-0.72,0.9-0.75,1.87-1.11,2.79
		c-0.11,0.28-0.3,0.6-0.26,0.87c0.29,1.96-0.55,3.8-0.51,5.73c0,0.16,0.06,0.36-0.01,0.49c-1.27,2.39-1.74,5.05-2.55,7.6
		c-0.33,1.03-1.61,1.59-1.4,2.88c-1.11,0.5-0.83,1.81-1.54,2.59c-0.65,0.72-0.72,1.87-1.43,2.6c-1.74,1.81-3.02,3.9-4.04,6.2
		c-0.34,0.77-1.23,1.3-1.88,1.95c0,0.32,0,0.64,0,0.95c-0.2,0.51-1.29,0.11-1.01,1.05c-1.36,2.14-2.18,4.62-3.94,6.53
		c-0.69,0.75-1.36,1.54-1.97,2.36c-0.74,1-1.4,2.06-2.11,3.08c-1.05,1.52-1.59,3.34-2.77,4.79c-0.21,0.26-0.11,0.76-0.16,1.17
		c-0.25,0.06-0.48,0.11-0.81,0.18c0,0.52,0,1.07,0,1.6c-0.37,0.33-0.68,0.6-1.04,0.9c0,0.72,0,1.43,0,2.07
		c-0.38,0.38-0.67,0.67-0.76,0.76c-0.52,1.79-0.88,3.38-1.45,4.88c-0.76,1.99-1.7,3.92-2.78,5.77c0,0.82,0,1.64,0,2.53
		c-0.27,0.09-0.55,0.19-1.03,0.36c0.52,1.9-0.88,3.48-1.05,5.38c-0.07,0.78-0.9,1.51-0.98,2.56c-0.06,0.73-1.04,1.34-1.42,2.1
		c-0.76,1.51-2.37,2.55-2.47,4.41c-1.1,1.06-1.84,2.5-3.29,3.19c-0.69,0.33-1.38,0.64-2.1,0.98c-0.66-0.2-1.2-0.91-2.13-0.2
		c-0.48,0.36-1.5,0.4-2.09,0.16c-2.07-0.86-4.33-1.01-6.38-1.9c-1.29-0.56-2.6-1-3.6-2.07c-0.59-0.64-1.25-1.17-2.02-1.64
		c-0.76-0.46-1.2-1.43-1.79-2.18c-0.83-1.06-1.66-2.11-2.6-3.31c-0.65,0.57-1.12,0.98-1.66,1.46c0,0.52,0,1.07,0,1.54
		c-0.38,0.38-0.67,0.67-0.98,0.98c0,0.64,0,1.29,0,1.95c-0.34,0.36-0.68,0.71-0.84,0.88c-0.24,1.62-0.54,3.02-0.64,4.43
		c-0.11,1.39,0.31,2.91-0.1,4.18c-0.6,1.86-0.38,3.68-0.37,5.51c0,0.85-0.48,1.61-0.15,2.59c0.23,0.7-0.49,1.7-0.73,2.59
		c-0.12,0.45-0.18,0.95-0.15,1.42c0.13,1.93-0.44,3.71-0.97,5.53c-0.46,1.56-0.68,3.22-1.12,4.74c-0.7,2.39-0.99,5-2.67,7.04
		c0.13,1.33-1.62,2.03-1.19,3.46c-0.71,1.11-1.26,2.39-2.18,3.27c-0.86,0.82-0.65,2.07-1.66,2.84c-0.89,0.68-1.4,1.85-2.1,2.8
		c-0.65,0.89-1.74,1.71-1.85,2.66c-0.11,0.95-1.29,0.48-1.23,1.5c0.04,0.6-0.8,1.29-1.32,1.88c-0.49,0.55-1.06,1.02-1.55,1.48
		c0,0.44,0,0.77,0,1.14c-0.28,0.1-0.75,0.13-0.83,0.31c-0.98,2.36-3.31,3.57-4.67,5.6c-0.57,0.85-1.27,1.62-1.91,2.43
		c-0.59,0.74-1.1,1.56-1.77,2.22c-0.73,0.72-1.61,1.28-2.39,1.95c-1.09,0.94-1.95,2.11-3.27,2.84c-0.62,0.35-1.24,0.93-1.53,1.81
		c-0.17,0.53-1.1,0.58-1.48,1.31c-0.39,0.76-1.4,1.2-1.88,1.94c-0.5,0.77-0.99,1.37-1.88,1.67c-0.35,0.12-0.69,0.5-0.87,0.85
		c-1.57,3.11-4.38,5.14-6.65,7.63c-0.64,0.7-1.18,1.48-1.75,2.24c-0.57,0.76-1.54,1.16-1.79,2.23c-0.1,0.41-0.63,0.75-1.01,1.05
		c-1.68,1.3-2.42,3.34-3.82,4.86C785.5,584.35,785.61,584.79,785.59,585.21z M432.39,542.47c0.17,0.5,0.24,1.09,0.55,1.5
		c0.79,1.06,1.38,2.2,1.96,3.39c0.5,1.03,0.57,2.21,1.47,3.13c0.71,0.72,0.81,2.02,1.49,2.79c0.76,0.86,0.59,2.18,1.64,2.8
		c0.35,2.02,1.57,3.64,2.41,5.43c0.59,1.24,1.32,2.41,1.91,3.65c0.83,1.73,2.13,3.24,3.25,4.84c0.86,1.22,1.9,2.33,2.59,3.63
		c1.71,3.23,3.21,4.4,5.34,6.88c0.92,1.08,2.04,1.88,3.02,2.86c2.88,2.88,5.89,5.62,8.86,8.42c0.18,0.17,0.33,0.47,0.53,0.5
		c1.16,0.22,1.64,1.27,2.4,1.96c0.83,0.77,1.55,1.66,2.33,2.49c0.66,0.7,1.32,1.4,1.98,2.11c0.6,0.65,1.19,1.33,1.8,1.97
		c0.63,0.66,1.47,1.19,1.87,1.95c0.38,0.73,1.35,0.93,1.42,1.83c1.36,0.6,2.19,1.67,2.98,2.91c0.76,1.2,1.94,2.12,2.79,3.27
		c1.1,1.49,2.04,3.11,3.09,4.65c0.84,1.23,1.71,2.44,2.63,3.61c0.69,0.88,1.39,1.77,2.24,2.48c0.88,0.74,0.56,2.28,1.88,2.66
		c0.13,1.52,1.39,2.4,2,3.62c0.65,1.3,2,2.06,2.48,3.38c0.57,1.57,1.68,2.77,2.52,4.15c0,0.41,0,0.82,0,1.24
		c1.34,1.44,2.67,2.88,3.07,4.91c0.53,0.75,1.34,1.46,1.54,2.31c0.22,0.94,1.82,0.9,1.32,2.14c0.92,1.15,1.86,2.29,2.22,3.78
		c1.47,0.36,1.27,2.37,2.73,2.74c0.18,1.5,2.4,1.8,2.05,3.52c0.69,0.31,1.31,0.6,1.93,0.88c0.95,1.75,2.03,3.39,3.35,4.82
		c0.77,0.83,1.28,1.94,2.38,2.45c0.15,1.33,1.43,1.72,2.21,2.47c0.93,0.91,1.55,2.11,2.63,2.85c1.34,0.91,3.04,1.5,4.01,2.7
		c1.02,1.24,2.31,1.93,3.49,2.84c2.71,2.09,5.44,4.14,8.56,5.6c2.79,1.3,5.07,3.48,8,4.57c1.35,0.5,2.78,1.05,3.86,1.95
		c1.24,1.03,2.8,1.25,4.11,2.11c1.37,0.91,2.85,1.71,4.56,2.11c1.37,0.32,2.25,1.93,3.89,1.91c1.89,1.84,4.62,2.05,6.73,3.46
		c0.51,0.34,1.04,0.93,1.57,0.94c1.48,0.02,2.6,0.96,3.9,1.39c2.74,0.9,5.28,2.38,7.99,3.36c1.21,0.44,2.33,1.13,3.67,1.33
		c1.18,0.17,2.29,0.78,3.44,1.2c1.26,0.27,2.68-0.08,3.8,1.01c0.19,0.18,0.6,0.19,0.9,0.17c5.22-0.37,10.4,0.52,15.62,0.57
		c3.99,0.04,7.93-0.64,11.91-0.58c1.58,0.02,3.19,0.26,4.76-0.43c0.67-0.29,1.5-0.07,2.28-0.48c0.58-0.31,1.46,0,2.19-0.08
		c0.76-0.09,1.54-0.51,2.26-0.42c0.76,0.09,1.43-0.22,2.11-0.29c0.89-0.09,1.81-0.18,2.72-0.27c0.93-0.09,1.85-0.3,2.76-0.48
		c1.6-0.32,3.19-0.64,4.78-1c0.44-0.1,0.85-0.46,1.28-0.46c2.46-0.02,4.52-1.75,7-1.62c2.04-1.38,4.72-1.44,6.62-3.14
		c0.16-0.14,0.43-0.16,0.65-0.21c1.87-0.39,4.63-1.57,6.1-2.59c0.44-0.31,0.88-0.68,1.37-0.86c2.34-0.83,4.4-2.06,5.87-3.93
		c0.54-0.05,0.92-0.09,1.35-0.13c-0.07-0.39-0.12-0.61-0.16-0.85c-1.28,0-2.49,0-3.65,0c-0.34,0.34-0.63,0.63-0.9,0.9
		c-2.48,0.03-4.68,1.01-7.4,1.97c-1.34-0.18-3.06,0.91-4.94,0.54c-1.35,0.76-2.62,0.48-4.07,0.1c-1.01-0.27-2.14-0.5-3.23-0.56
		c-1.81-0.1-3.63,0.05-5.44-0.05c-1.74-0.09-3.47-0.36-5.2-0.56c-0.74-0.43-1.56-0.62-2.34-0.92c-0.71-0.27-1.48-0.53-2.04-1.02
		c-1.08-0.96-2.27-1.59-3.66-1.94c-0.66-0.17-1.52-0.24-1.91-0.69c-1.15-1.3-2.76-1.74-4.15-2.58c-1.25-0.75-2.47-1.62-3.82-2.11
		c-1.25-0.45-2.41-0.95-3.5-1.72c-1-0.7-2.08-1.35-3.22-1.75c-1.34-0.48-2.69-0.83-3.27-1.72c-0.98-0.34-1.58-0.49-2.13-0.75
		c-1.38-0.65-2.68-1.65-4.12-1.95c-3.14-0.66-5.64-2.73-8.68-3.54c-0.72-0.19-1.36-0.69-2.07-0.95c-0.65-0.24-1.34-0.37-2.02-0.5
		c-0.76-0.15-1.48-0.43-2.26-0.56c-1.57-0.27-3.15-0.61-4.62-1.35c-0.57-0.29-1.24-0.53-1.97-0.64c-2.11-0.33-4.1-1.19-6.11-1.91
		c-2.68-0.96-4.87-2.73-7.03-4.48c-1.28-1.04-2.28-2.42-3.41-3.64c0.39-0.99-1.46-0.49-1.02-1.51c-0.64-0.16-1.06-0.53-1.19-1.19
		c-0.97,0.34-0.53-1.11-1.51-1.14c-0.6-0.01-1.37-0.96-1.7-1.66c-0.36-0.75-1.34-0.34-1.62-1.27c-0.15-0.51-1.38-0.61-1.8-1.15
		c-0.72-0.92-1.58-1.71-2.54-2.19c-1.09-0.54-1.84-1.55-2.89-1.97c-1.17-0.48-1.48-1.99-2.85-2.07c-1.01-1.51-3.1-1.77-3.97-3.43
		c-0.9,0.05-0.71-1.37-1.67-1.23c-2.4-1.54-4.41-3.52-5.87-5.94c-0.82-1.35-1.99-2.28-3.04-3.92c0.01,0.12-0.03-0.27-0.07-0.61
		c-0.67-0.51-1.53-0.85-1.86-1.48c-0.71-1.36-1.86-2.36-2.78-3.51c-1.08-1.35-1.92-2.88-3.16-4.14c-0.89-0.9-1.35-2.22-2.03-3.34
		c-0.29-0.47-0.92-0.88-0.93-1.33c-0.04-1.34-1.05-2.07-1.66-3.03c-0.64-1-1.42-1.91-2.29-3.05c-0.25-1.76-1.77-2.99-2.96-4.21
		c-0.06-0.5-0.05-1.07-0.15-1.09c-0.68-0.15-0.9-1.09-1.21-1.11c-1.22-0.08-0.44-1.04-0.8-1.48c-0.88-1.09-1.6-2.32-2.49-3.41
		c-0.89-1.1-1.27-2.46-2.05-3.61c-0.88-1.3-1.74-2.59-2.72-3.82c-0.65-0.82-1.02-1.87-1.51-2.82c-1.43-0.16-0.75-1.91-1.85-2.45
		c-0.53-0.26-1.06-1.13-1.05-1.72c0.03-1.14-0.84-1.76-1.34-2.41c-0.61-0.78-0.58-1.76-1.27-2.49c-0.94-1.01-2.06-2.2-2.28-3.46
		c-0.28-1.55-1.1-2.54-1.92-3.69c-0.31-0.43-0.46-0.91-1.12-1c-0.03-0.54-0.05-1.1-0.08-1.62c-0.91-1.06-1.52-2.26-1.96-3.69
		c-0.09-0.28-0.41-0.49-0.51-0.78c-0.34-1.03-1.65-1.56-1.46-2.86c-0.99-0.65-0.65-2.01-1.25-2.66c-0.7-0.76-0.53-1.81-1.3-2.48
		c-0.69-0.6-0.42-1.87-1.4-2.37c0.22-1.06-0.51-1.74-0.93-2.59c-0.6-1.21-0.59-2.75-1.24-3.92c-0.72-1.28-1.94-2.28-1.86-3.93
		c-1.44-1.38-1.29-3.42-2.1-5.06c-0.23-0.05-0.45-0.09-0.58-0.12c-0.42-1.23-0.53-2.62-1.25-3.5c-1.53-1.87-1.39-4.43-2.91-6.23
		c-0.13-2.23-1.46-4.01-2.1-5.95c-0.35-0.07-0.58-0.12-1.01-0.21c0.8-1.99-0.74-3.43-1.12-5.18c-0.37-1.73-1.67-3.25-2.67-5.06
		c0.61-1.46-0.93-2.67-1.07-4.26c-0.13-1.51-0.72-2.99-1.14-4.6c-0.19-0.19-0.48-0.48-0.77-0.77c0-1.15,0-2.3,0-3.45
		c-1.28-1.31-1.01-2.94-0.98-4.02c0.65-1.65,1.12-2.86,1.61-4.11c-0.99-1.56-1.84-3.13-2.93-4.52c-0.88-1.12-2.11-1.93-3.14-2.93
		c-1.96-1.9-3.71-3.98-5.48-6.05c-1.15-1.36-2.64-2.43-4.2-3.83c-0.2,0-0.85,0-1.06,0c-4.43,1.82-8.24,3.94-11.94,5.95
		c0.3,1.45,1.51,1.78,2.42,2.42c0.94,0.66,1.94,1.22,2.82,1.76c0.23,0.71,0.44,1.37,0.69,2.17c-0.38,0.65-0.81,1.37-1.27,2.17
		c-1.04-0.27-1.9-0.54-2.62-1.23c-0.44-0.42-0.99-0.76-1.53-1.05c-2.14-1.17-4.31-2.3-6.47-3.46c-0.54,0.44-0.92,1.01-1.4,1.1
		c-1.91,0.38-3.51,1.48-5.31,2.13c-0.99,0.35-1.78,0.38-2.71,0.16c-2.51-0.61-4.97-1.54-7.64-1.27c-0.98,0.1-1.98,0.03-2.96,0.01
		c-0.39-0.01-0.8-0.04-1.17-0.15c-1.34-0.37-5.65-0.49-6.95-0.16c-0.13,0.03-0.23,0.19-0.33,0.27c-0.19-0.15-0.36-0.38-0.57-0.44
		c-2.67-0.74-5.52-0.77-8.08-1.99c-0.07-0.03-0.16-0.01-0.25,0c-1.47,0.16-2.78-0.49-3.98-1.12c-0.84-0.44-1.45-0.37-2.36-0.21
		c0.87,1.9,1.85,3.57,2.41,5.37c0.46,1.49,1.14,2.72,2.42,3.79c-1.09,1.47,1.28,1.95,0.78,3.3c1.22,0.59,0.73,2.3,1.92,2.91
		c-0.24,1.31,1.11,1.96,1.31,3.19c0.18,1.06,1.1,2,1.77,3.12c0,0.34,0,0.82,0,1.27c0.35,0.12,0.64,0.22,1.02,0.36
		c-0.53,1.07,0.5,1.41,0.89,2.07c0.39,0.66,0.6,1.49,1.13,1.98c0.66,0.6,0.61,1.49,1.07,2.03c0.55,0.65,0.75,1.35,0.89,2.04
		c0.33,0.07,0.56,0.12,0.79,0.16c0.05,0.44,0.09,0.83,0.13,1.16c0.34,0.22,0.73,0.36,0.92,0.63c0.97,1.39,1.71,2.91,2.59,4.36
		c1.2,1.99,2.6,3.86,3.81,5.85c1.24,2.04,2.75,3.88,3.79,6.09c0.67,1.43,1.74,2.7,2.21,4.28c0.13,0.43,0.4,0.84,0.67,1.2
		c1.45,1.91,2.82,3.87,3.78,6.1c0.15,0.35,0.57,0.58,0.74,0.93c0.2,0.41,0.25,0.88,0.37,1.33
		C431.94,542.35,432.16,542.41,432.39,542.47z M809.11,297.85c-1.14,0.43-2.25,0.98-3.42,1.26c-2.79,0.67-5.07,2.48-7.78,3.3
		c-1.32,1.42-3.28,1.66-4.89,2.56c-1.29,0.72-2.77,1.26-4.1,1.99c-1.34,0.74-2.97,0.86-4.12,2.03c-0.33,0.34-1.04,0.27-1.49,0.54
		c-1.28,0.75-2.79,0.81-4.09,1.47c-2.25,1.14-4.48,2.31-6.73,3.46c-0.68,0.35-1.38,0.64-2.06,1c-2.44,1.28-5.06,2.1-7.56,3.22
		c-4.46,2-8.68,4.48-12.81,7c-0.09,0.24-0.17,0.45-0.24,0.65c-0.55,0-1.04,0-1.36,0c-0.58,0.69-1.01,1.73-1.58,1.81
		c-1.5,0.21-2.16,1.34-3.06,2.2c-0.7,0.67-1.46,1.18-2.38,1.43c-1.06,0.29-1.76,0.95-2.46,1.8c-0.45,0.56-0.6,1.45-1.46,1.66
		c-0.4,1.42-2.02,1.75-2.65,2.99c-0.29,0.56-0.92,0.93-1.36,1.42c-0.37,0.41-0.69,0.87-1.29,1.63c0,0.93,0,2.31,0,3.6
		c-0.38,0.38-0.67,0.67-1.02,1.02c0.45,2.07-1.13,3.81-1.03,5.95c0.09,1.99-1.07,3.9-0.91,5.84c0.44,0.32,0.77,0.56,1.16,0.84
		c-0.69,0.45-1.2,0.79-1.57,1.03c0,0.88,0,1.6,0,2.38c1.92,0.01,3.16-1.38,4.71-1.9c1.68-0.56,3.34-1.1,4.91-2.02
		c2.08-0.26,4.3,0.42,6.4-0.53c2.85,0.37,5.62-0.52,8.45-0.52c1.75,0,3.55,0.4,5.24-0.45c0.26-0.13,0.76-0.16,0.96,0
		c1.02,0.84,2.21,0.54,3.27,0.42c1.19-0.14,2.16,0.71,3.26,0.52c1.26-0.22,2.4,0.28,3.48,0.61c1.12,0.34,2.29,0.49,3.39,0.69
		c1.61,0.3,3.12,0.93,4.72,1.18c2.96,0.46,5.46,1.96,8.03,3.3c0.83,0.43,2.19,1.02,3.22,1.14c0.66-0.69,0.98-1.51,1.24-2.46
		c0.36-1.3,0.7-2.8,2.39-3.16c0.76-0.16,1.53-0.26,1.94-0.33c2.02,1.02,3.52,2.16,5.08,3.16c1.06,0.68,1.72,1.65,2.63,2.39
		c1.99,1.63,4.32,2.98,5.31,5.64c0.28,0.76,1.27,1.11,2.17,1.22c0.62,0.07,1.23,0.16,1.84,0.29c2.35,0.5,4.55,1.33,6.91,2.45
		c0.16,1.04,0.33,2.2,0.55,3.65c1.06,1.41,3.26,1.37,4.81,2.5c1.36-0.17,2.31,0.79,3.43,1.26c0.49,0.21,0.95,0.67,1.44,0.68
		c2.21,0.05,3.77,1.51,5.28,2.72c1.16,0.93,2.76,1.35,3.55,2.75c2.56,1.42,4.89,3.1,7.06,5.11c1.47,1.37,3.01,2.67,4.46,4.08
		c0.97-0.19,0.7,1.39,1.8,1.16c0.59-1.54,1.12-3.14,1.14-4.9c0.01-1.59-0.32-3.25,0.5-4.73c0.54-0.98,0.53-1.99,0.47-3.02
		c-0.17-2.84,0.84-5.6,0.54-8.45c-0.04-0.4,0.31-0.84,0.34-0.92c-0.17-0.84-0.3-1.35-0.37-1.88c-0.38-2.76,0.66-5.44,0.5-8.2
		c-0.06-1.15-0.4-2.52,0.08-3.41c0.68-1.22,0.19-2.47,0.67-3.69c0.48-1.21,0.16-2.73,0.23-4.11c0.07-1.42-0.05-2.82,0.41-4.27
		c0.33-1.04-0.1-2.32-0.19-3.36c0.1-0.85,0.3-1.63,0.24-2.38c-0.14-1.83,0.52-3.73-0.44-5.44c0.16-0.54,0.41-1.04,0.45-1.56
		c0.07-1.07-0.06-2.15,0.04-3.21c0.1-1.1-0.38-2.25,0.34-3.32c0.69-1.04-0.44-1.93-0.36-2.95c0.03-0.33-0.11-0.72,0.02-0.98
		c0.98-1.85,0.25-3.83,0.48-5.74c-0.7-1-0.61-2.17-0.46-3.25c0.17-1.26-0.5-2.31-0.55-3.51c-0.13-3.23,0.38-6.47-0.44-9.69
		c-0.33-1.28,0.27-2.73-0.53-3.99c0.4-2.12-0.79-4.09-0.44-6.38c-0.59-0.17-1.08-0.41-1.59-0.46c-2.01-0.17-3.99,0.14-5.98,0.45
		c-1.13,0.17-2.38-0.22-3.44,0.1c-1.19,0.36-2.2-0.23-3.32-0.12c-1.88,0.19-3.8,0.18-5.68,0.02c-1.88-0.16-3.63,0.59-5.48,0.55
		c-1.25-0.02-2.55-0.29-3.78,0.42c-0.31,0.18-0.99-0.27-1.51-0.43c-0.33,0.16-0.7,0.5-1.02,0.46c-2.36-0.31-4.51,0.71-6.76,1.04
		c-0.9,0.13-1.85,0.37-2.6,0.84C811.22,297.68,810.15,297.65,809.11,297.85z M812.63,291.37c0.19,0.09,0.46,0.31,0.74,0.34
		c1.29,0.11,2.43-0.7,3.58-0.81c2.28-0.23,4.55-0.35,6.72-1.15c5.29-0.15,10.6,0.39,15.87-0.47c0.6-0.1,1.55-0.12,1.83,0.23
		c0.64,0.8,1.18-0.57,1.83,0.13c0.31,0.33,1.41,0.35,1.86,0.05c0.77-0.51,1.53-0.35,2.3-0.45c0.84-0.11,1.68-0.46,2.52-0.45
		c1.22,0.02,2.11-0.5,3-1.28c-0.23-1.97,0.15-3.96-0.46-5.98c-0.41-1.36-0.08-2.94-0.08-4.39c-0.56-0.51-0.9-1.15-1.52-1.62
		c-1.02-0.78-2.27-0.92-3.34-1.55c-1.36-0.8-2.81-1.5-4.46-1.78c-0.92-0.16-1.68-1.06-2.58-1.48c-0.96-0.45-2-0.76-3.02-1.06
		c-3.16-0.95-6.3-1.95-9.52-2.71c-1.19-0.28-2.46-0.08-3.47-0.54c-0.82-0.37-1.55-0.25-2.31-0.39c-0.84-0.15-1.68-0.32-2.51-0.49
		c-0.76-0.16-1.51-0.45-2.27-0.47c-3.07-0.07-6.13-0.02-9.2-0.46c-2.94-0.42-5.95-0.39-8.93-0.55c-0.16-0.01-0.34,0.03-0.49-0.01
		c-3.11-0.67-4.77-0.64-8-0.02c-0.67,0.13-1.46,0-2.12-0.22c-1.03-0.34-1.97-0.25-3.01-0.03c-1.07,0.22-2.2,0.17-3.31,0.16
		c-0.44-0.01-0.88-0.35-1.32-0.35c-3.3-0.03-6.59-0.03-9.89,0c-0.36,0-0.71,0.24-1.13,0.38c-0.09-0.08-0.26-0.24-0.42-0.38
		c-0.18,0-0.37-0.05-0.5,0.01c-0.19,0.1-0.34,0.29-0.5,0.43c-1.16-0.49-1.59-0.58-2.53-0.36c-0.24,0.05-0.34,0.21-0.71,0.17
		c-2.02-0.19-4.06-0.2-6.09-0.27c-1.32,1.22-3.2-0.22-4.52,0.97c-2.09-1.05-4.33-0.2-6.48-0.47c-0.32-0.04-0.79,0.09-0.94-0.08
		c-0.61-0.7-1.38-0.29-2.07-0.43c-0.68-0.14-1.34-0.38-2.02-0.46c-0.36-0.04-0.74,0.18-1.12,0.26c-0.61,0.12-1.22,0.23-1.51,0.28
		c-0.58,0.68-0.99,1.14-1.37,1.62c-0.54,0.68-1.09,1.35-1.56,2.08c-0.24,0.37-0.19,1.02-0.49,1.25c-1,0.78-0.73,2.05-1.3,2.94
		c-0.76,1.18-0.43,2.78-1.61,3.81c-0.32,0.28-0.01,1.23-0.32,1.55c-0.78,0.79-0.85,1.82-1.17,2.75c-0.57,1.66-1.11,3.35-1.97,4.86
		c-0.74,1.3-1.23,2.7-1.45,4.08c-0.36,2.24-1.54,4.38-1.06,6.75c0.01,0.06-0.05,0.14-0.08,0.21c-0.3,0.86-0.65,1.71-0.89,2.59
		c-0.25,0.9,0.19,1.82-0.42,2.81c-0.44,0.72-0.09,1.92-0.09,2.91c0,1.81-0.1,3.63,0.02,5.44c0.3,4.32-0.85,8.57-0.48,12.84
		c-0.96,0.88-1.06,1.96-1.03,3.11c0.04,1.48,0.02,2.97,0.01,4.45c0,0.48,0.14,1.18-0.12,1.41c-0.69,0.62,0.01,1.58-0.52,2.01
		c-0.74,0.62,0.66,1.04-0.02,1.59c-0.67,0.55-0.28,1.38-0.32,2.08c-0.06,1.23-0.02,2.46-0.02,3.63c0.44,0.46,0.84,0.88,1.22,1.27
		c0.36,0,0.69,0,1.02,0c0.21-0.42,0.42-0.83,0.73-1.42c-0.56-2.09,1.35-4,1.08-5.74c1.01-3.06,1.99-5.64,2.69-8.28
		c0.35-1.3,0.19-2.74,0.24-3.76c0.39-1.01,0.89-1.72,0.9-2.43c0.03-2.23,0.05-4.44,1.03-6.51c-0.38-2.28,0.85-4.44,0.45-6.78
		c0.46-0.3,0.92-0.59,1.45-0.93c0.3-1.48,1.2-2.71,2.26-3.64c0.85,0,1.49,0,1.69,0c0.85,0.8,1.43,1.35,2,1.89c0,1.11,0,2.25,0,2.87
		c-1.21,2.17-1.65,4.14-2.4,5.97c-0.62,1.53-0.28,3.27-1.01,4.77c-0.46,0.97-0.46,1.98-0.51,3.01c-0.08,1.58-0.27,3.16-0.49,4.74
		c-0.08,0.6-0.24,1.25-0.58,1.72c-0.65,0.91-0.36,1.77-0.27,2.66c0.25,0,0.36,0.03,0.42,0c1.15-0.82,2.45-1.49,3.38-2.51
		c0.99-1.09,2.34-1.58,3.43-2.5c1.39-1.17,2.89-2.29,4.69-2.95c1.35-0.5,2.54-1.43,3.79-2.18c0.66-0.4,1.27-0.89,1.97-1.22
		c3.1-1.46,6.14-3.03,9.35-4.29c2.88-1.13,5.78-2.4,8.44-4.1c0.62-0.4,1.46-0.47,1.85-0.59c1.46-0.73,2.62-1.32,3.79-1.91
		c1.84-0.92,3.99-1.11,5.67-2.45c0.45-0.36,1.13-0.44,2.2-0.82c0.13-0.16,0.59-0.73,0.69-0.86c1.34-0.4,2.21-0.54,2.95-0.91
		c2.12-1.07,4.27-2.1,6.24-3.42c1.31-0.88,3.04-1.01,4.08-2.04c1.52-1.51,3.69-1.16,5.23-2.36c2.54-0.04,4.55-1.93,7.09-1.98
		c0.06,0,0.13-0.09,0.19-0.14c0.06-0.22,0.12-0.45,0.17-0.67C811.73,291.75,812.09,291.6,812.63,291.37z M521.02,373.55
		c-0.62,0.99-1.79,0.92-2.46,1.74c-0.45,0.54-0.9,1.16-1.64,1.53c-0.56,0.28-0.91,1.02-1.27,1.6c-0.44,0.71-0.65,1.61-1.21,2.2
		c-0.76,0.81-1.05,1.56-0.64,2.39c1.52,0.5,2.9,0.96,4.29,1.39c0.66,0.21,1.37,0.27,2,0.55c0.7,0.31,1.28,0.88,1.98,1.19
		c0.62,0.28,1.33,0.36,2.01,0.52c0.76,0.18,1.04,1.04,2.06,1.08c1.15,0.04,2.27,0.8,3.42,1.2c0.94,0.33,1.89,0.6,2.85,0.88
		c0.96,0.27,1.83,0.94,2.88,0.78c1.08-0.17,2.01,0.39,3.01,0.49c1.58,0.17,3.17-0.14,4.76,0.45c0.9,0.34,1.99,0.28,3,0.46
		c1.07,0.2,2.17,0.34,3.24,0.59c0.6,0.14,1.17,0.39,1.78,0.47c0.64,0.09,1.37-0.13,1.94,0.09c3.11,1.21,6.46,1.44,9.64,2.36
		c1.35,0.39,2.82,0.49,4.23,0.5c1.45,0.01,2.84,0.34,4.25,0.47c1.18,0.11,2.22,0.39,3.16,0.99c0.14-0.14,0.19-0.24,0.25-0.25
		c2.75-0.1,5.51-0.2,8.24-0.29c0.13-0.37-0.42-0.43-0.17-0.96c0.3-0.64,0.29-1.57,0.09-2.28c-0.45-1.6-0.92-3.16-0.83-4.85
		c0.04-0.85-0.16-1.68-0.37-2.54c-0.35-1.42-0.92-2.91-0.62-4.47c0.09-0.46,0.06-0.99-0.08-1.44c-0.53-1.65-0.91-3.32-0.89-5.07
		c0.02-1.56,0.03-3.13-0.01-4.69c-0.01-0.36-0.24-0.71-0.39-1.1c0.12-0.16,0.31-0.4,0.47-0.63c-0.24-0.43-0.42-0.76-0.62-1.13
		c0.17-0.2,0.44-0.38,0.44-0.56c0.03-2.86,0.02-5.72,0.02-8.78c-0.88-0.15-1.78-0.34-2.69-0.44c-0.68-0.08-1.42,0.14-1.99-0.44
		c-0.65,0.77-1.52,0.35-2.3,0.42c-1.99,0.18-3.97,0.03-5.99,0.4c-2.5,0.46-5.13,0.02-7.69,0.56c-1.78,0.37-3.72,0.12-5.44,0.62
		c-1.12,0.32-2.28,0.07-3.25,0.49c-1.7,0.73-3.45,1.26-5.23,1.68c-2.04,0.48-4.06,1.12-6.18,1.2c-0.71,0.03-1.4,0.32-2.03,0.4
		c-1.63,0.22-3.15,0.84-4.76,1.12c-1.11,0.2-2.41,0.48-3.16,1.2c-0.92,0.88-1.99,1.26-3.04,1.69c-1,0.4-1.77,1-2.49,1.74
		c-0.75,0.77-1.52,1.51-2.27,2.28c-0.1,0.11-0.16,0.26-0.3,0.49C521.02,372.38,521.02,373.03,521.02,373.55z M726.86,438.34
		c0.62-0.41,1-0.66,1.36-0.89c0.12-1.4-0.15-2.76,0.49-4.06c0.33-0.67,0.56-1.51,0.49-2.25c-0.29-3.26,0.53-6.44,0.56-9.68
		c0.02-1.94,1.23-3.74,0.98-5.77c-0.02-0.16,0.4-0.36,0.4-0.55c0.04-1.58,1.66-2.79,1.11-4.17c0.38-0.99,0.71-1.68,0.92-2.41
		c0.46-1.54,0.81-3.12,1.31-4.65c0.82-2.48,1.73-4.93,3.48-6.96c-0.08-1.05,1.56-1.29,1.15-2.49c1.03-0.81,0.84-2.39,2.01-3.14
		c-0.29-1.78,0.84-3.42,0.48-5.23c-0.12-0.59,0.09-1.25-0.44-1.74c0.69-0.47,0.32-1.19,0.43-1.8c0.14-0.76,0.45-1.51,0.46-2.27
		c0.05-1.95,0.6-3.64,1.86-5.18c0.97-1.18,1.77-2.54,2.44-3.92c0.59-1.21,1.44-2.03,2.62-2.57c2.29-1.04,4.39-2.43,6.91-3.01
		c2.29-0.53,4.51-1.29,6.9-1.21c0.99,0.03,1.98,0.07,2.96-0.01c0.93-0.08,1.84-0.3,2.76-0.49c0.08-0.02,0.12-0.21,0.11-0.2
		c-0.6-0.44-1.15-0.85-1.72-1.27c-1.25-0.05-2.51,0.1-3.76-0.45c-0.62-0.27-1.46-0.05-2.2-0.05c-0.66,0-1.44,0.23-1.95-0.05
		c-0.72-0.4-1.24,0.02-1.84,0.05c-2.41,0.11-4.81-0.13-7.22,0.44c-1.68,0.4-3.48,0.26-5.23,0.44c-2.06,0.21-3.86,1.42-5.96,1.21
		c-3.2,1.21-6.49,2.23-9.46,4.01c-0.33,0.2-0.68,0.35-0.98,0.51c-0.36,1.29-1.59,1.83-2.33,2.87c-0.53,0-1.08,0-1.62,0
		c-0.27,1.5,0.11,2.97-0.2,4.29c-0.4,0.1-0.62,0.15-0.89,0.22c0,1.53,0,3,0,4.48c-1.1,0.77,0.14,2.29-0.99,3.05
		c0,1.24-0.15,2.49,0.04,3.7c0.28,1.78-0.96,3.52-0.05,5.28c0.06,0.12,0.03,0.39-0.06,0.45c-0.75,0.57-0.39,1.37-0.41,2.05
		c-0.05,1.89,0.13,3.8-0.06,5.68c-0.18,1.89,0.53,3.63,0.56,5.48c0.03,1.99-0.34,4.01,0.42,5.99c0.22,0.57,0.36,1.48-0.44,2.01
		c0.33,0.35,0.67,0.7,1.01,1.06c-0.39,3.08,1.39,5.88,0.95,8.83c0.41,0.41,0.7,0.7,1.03,1.03c-0.4,1.91,0.86,3.72,0.47,5.68
		c-0.02,0.08-0.02,0.2,0.02,0.23c0.91,0.8,0.09,1.96,0.52,2.75c0.56,1.01,0.38,2.01,0.45,3.03
		C726.8,437.16,726.82,437.63,726.86,438.34z M620.89,392.58c2.69-1.2,5.18-1.95,7.48-3.16c2.34-1.23,4.57-2.62,6.63-4.24
		c2.08-1.64,4.69-2.61,6.3-4.91c-0.63-1.29-1.94-1.54-2.95-2.23c-2.52-1.73-4.83-3.74-7.41-5.39c-2.98-1.9-5.98-3.76-9.17-5.29
		c-3.02-1.45-6.18-2.72-8.97-4.55c-2.86-1.87-5.79-2.59-9.07-2.31c-0.08,0.51-0.07,0.92-0.2,1.28c-0.56,1.48-1.03,2.97-0.86,4.58
		c0.07,0.68,0.44,1.34,0.46,2.02c0.06,2.63,0.1,5.27,0,7.9c-0.1,2.57,0.05,5.12-0.36,7.72c-0.48,3.11-0.11,6.35-0.11,9.58
		c0.93,0,1.67,0,2.4,0c0.74,0,1.49,0.05,2.22-0.01c0.61-0.05,1.1,0.67,1.86,0.07c0.41-0.32,1.27-0.06,1.93-0.06
		c0.74,0,1.48,0,2.22,0c0.74,0,1.48,0,2.22,0c0.74,0,1.48,0,2.22,0C618.71,392.53,619.99,392.54,620.89,392.58z M776.97,369.35
		c-1.14,0-2.45,0.34-3.39-0.1c-0.91-0.42-1.82-0.59-2.54-0.34c-2.32,0.79-4.66,0.33-6.98,0.41c-1.05,0.03-2.02,0.19-3.01,0.52
		c-1.59,0.53-3.26,0.89-4.8,1.53c-1.12,0.47-2.19,1.05-3.31,1.54c-0.67,0.29-1.91,0.45-1.98,1.67c-1.88,1.83-2.59,4.36-4.03,6.71
		c0.11,1.51,0.21,3.2,0.38,4.89c0.17,1.62,0.41,3.24,0.59,4.56c1.32,0.73,2.31,1.31,3.33,1.83c0.47,0.24,1,0.5,1.51,0.5
		c1.92,0.01,3.58,0.91,5.34,1.44c3.68,1.1,7.42,1.8,11.25,2.04c0.78,0.05,1.51,0.02,2.3,0.43c0.85,0.45,1.97,0.41,2.97,0.55
		c0.98,0.14,1.97,0.24,2.97,0.37c0.03-0.04,0.11-0.1,0.12-0.17c0.24-2.23-0.51-4.53,0.48-6.71c0.09-0.19,0.07-0.58-0.06-0.69
		c-0.72-0.59-0.38-1.37-0.4-2.06c-0.05-1.73-0.02-3.46-0.02-5.18c0-1.15,0-2.3,0-3.46c0-1.07,0.21-2.2-0.06-3.19
		c-0.26-0.96,0.05-1.92-0.37-2.89c-0.26-0.6,0.14-1.49,0.28-2.5C777.45,370.74,777.25,370.16,776.97,369.35z M848.78,402.19
		c-1.66-2.45-4.1-4.26-6.47-6.13c-1.48-1.17-3.05-2.23-4.49-3.45c-1.91-1.62-3.96-2.99-6.26-3.98c-1.12-0.48-2.2-1.05-3.29-1.6
		c-0.39-0.2-0.9-0.39-1.1-0.74c-0.67-1.19-1.98-1.29-3-1.8c-1.15-0.57-2.42-1.17-3.9-0.66c0,1.84,0,3.71,0,5.55
		c-1.58,1.18-1.74,3.2-3.01,4.5c0.37,1.37-0.76,2.16-1.28,3.17c-0.49,0.96-1.12,1.85-1.74,2.73c-0.15,0.21-0.54,0.25-0.89,0.39
		c-0.02,0.52-0.05,1.08-0.05,1.08c-0.58,1.25-0.76,2.17-1.32,2.72c-0.78,0.78-0.74,1.51-0.52,2.4c1.69,0.25,3.34-0.05,5.03,0.48
		c1.55,0.49,3.36-0.28,4.96,0.57c0.18-0.16,0.36-0.33,0.6-0.55c1.04,0.48,2.09,0.95,3.3,0.2c0.4-0.25,1.28-0.29,1.59-0.02
		c0.61,0.53,1.23,0.39,1.84,0.36c2.4-0.12,4.84-0.13,7.19-0.56c1.09-0.2,2.4-0.01,3.2-0.51c0.88-0.55,1.82-0.16,2.69-0.79
		c0.64-0.47,1.9-0.09,2.68-0.09C846.03,404.28,847.41,403.23,848.78,402.19z M414.98,375.28c-0.32,0-0.71-0.1-0.79,0.02
		c-0.65,1-2.03,1.32-2.49,2.66c2.48,1.43,4.86,2.96,7.38,4.21c2.59,1.28,5.31,2.27,8.2,3.49c0.79-0.13,1.74,0.12,2.69,0.61
		c1.01,0.52,2.05,1.03,3.14,1.35c1.55,0.46,3.31,0.44,4.69,1.18c1.44,0.77,3.37,0.26,4.46,1.8c0.05,0.08,0.32-0.01,0.48,0.01
		c2.24,0.26,4.18,1.45,6.32,2.05c0.68,0.19,1.34,0.39,2.04,0.4c0.09,0,0.18-0.23,0.37-0.5c-0.33-0.38-0.68-0.8-1.15-1.35
		c0-0.72,0-1.6,0-2.49c-0.35-0.31-0.66-0.57-1.14-0.99c0.41-0.74,0.81-1.47,1.31-2.39c-1.01-1.69-1.47-3.83-3.45-5.16
		c-1.65,0.59-2.36-1.09-3.66-1.74c0-0.34,0-0.73,0-1.15c-2.8-1.55-5.13-4.03-8.64-3.49c-0.15-0.42-0.25-0.71-0.29-0.82
		c-0.97-0.25-1.91-0.28-2.58-0.73c-1.03-0.69-1.89-0.62-2.89-0.09c-0.26,0.14-0.61,0.12-1.07,0.2c-0.33-0.46-0.68-0.95-1.13-1.56
		c-0.44,0.04-1.04,0.08-1.53,0.12c-0.12,0.42-0.19,0.64-0.24,0.81c-0.79,0-1.51,0-2.19,0c-0.16-0.38-0.29-0.69-0.44-1.06
		C419.68,372.16,416.95,373.15,414.98,375.28z M541.32,263.07c-1.88,0.24-3.73-1.16-5.86-1.23c-0.87-0.03-1.86,0.06-2.57-0.33
		c-1.23-0.67-2.58-0.51-3.84-0.86c-1.3-0.36-2.78-0.08-4.18-0.08c-1.89,0-3.87-0.35-5.66,0.09c-2.45,0.6-4.98,0.96-7.36,1.87
		c-1.64,0.62-3.31,1.18-4.97,1.75c-1.63,0.56-2.99,1.9-4.49,2.87c-0.97,0.63-1.89,1.46-2.96,1.77c-1.17,0.35-1.56,1.55-2.65,1.87
		c-0.88,0.26-1.5,0.83-2.05,1.83c0.26,0.39,0.46,0.98,0.86,1.21c0.58,0.33,1.3,0.48,1.98,0.57c1.54,0.21,3.48-0.1,5.16-0.65
		c0.94-0.31,1.9-0.62,2.88-0.8c1.32-0.24,2.66-0.39,3.99-0.5c1.41-0.11,2.5-1.3,3.97-1.15c0.6-0.83,1.84,0.17,2.37-0.84
		c2.93-0.45,5.7-1.87,8.77-1.49c0.32,0.04,0.77,0.14,0.97-0.02c1.1-0.9,2.35-0.29,3.52-0.47c1.25-0.19,2.49-0.41,3.75-0.48
		c1.4-0.08,2.81-0.1,4.2,0.01c1.33,0.1,2.64,0.41,4.3,0.68c1.3,0.77,1.3,0.71,2.74,0.8c0.93,0.06,1.83,0.04,2.81,0.32
		c2.23,0.64,4.31,1.54,6.37,2.54c1.17-0.41,1.56,0.93,2.51,1.12c0.88,0.17,1.95,0.42,2.49,1.03c0.77,0.87,1.79,1.04,2.69,1.32
		c0.75,0.24,1.41,0.6,2.1,0.9c1.25,0.55,2.57,1.03,3.7,1.78c0.82,0.55,1.44,0.39,2.43,0.16c-0.37-0.5-0.55-0.87-0.84-1.09
		c-1.62-1.24-3.26-2.45-4.91-3.65c-1.25-0.91-2.48-1.83-3.98-2.31c-2.04-0.65-4.22-1-5.83-2.63c-0.15-0.16-0.4-0.23-0.6-0.33
		c-1.78-0.88-3.54-1.79-5.33-2.64C545.74,265.04,543.65,264.12,541.32,263.07z M759.88,625.17c1.89-0.99,2.07-1.41,1.74-3.79
		c-1.85,1.03-2.63,2.62-2.85,4.39c-1.95,0.83-2.22,3.06-3.85,3.89c0,0.44,0,0.76,0,1.08c-1.04,0.36-1.48,1.32-2.18,1.98
		c-0.89,0.85-1.7,1.81-2.44,2.73c-0.79,0.99-2.26,1.38-2.52,2.85c-0.04,0.22-0.51,0.33-0.73,0.54c-0.68,0.65-1.34,1.31-1.99,1.99
		c-0.27,0.28-0.41,0.8-0.72,0.91c-1.78,0.66-2.41,2.57-3.92,3.53c-0.35,0.22-0.35,0.97-0.49,1.39c-0.3,0.11-0.51,0.21-0.73,0.26
		c-0.85,0.19-0.97,1.09-1.54,1.54c-0.68,0.54-1.61,0.92-2,1.61c-0.38,0.69-1.37,0.28-1.57,1.29c-0.11,0.57-1.12,0.99-1.76,1.43
		c-0.9,0.61-1.97,1-2.26,2.24c-0.06,0.25-0.44,0.54-0.71,0.59c-0.63,0.13-0.88,0.5-1.14,1.06c-0.32,0.71-0.8,1.35-1.73,1.49
		c-0.42,0.07-1.03,0.35-1.15,0.69c-0.39,1.06-1.52,1.23-2.14,2.03c-0.64,0.82-1.24,1.7-2.18,2.31c-0.5,0.32-0.67,1.16-0.91,1.6
		c-1.13,1.21-3.01,1.12-3.77,2.63c0.05,0.42,0.09,0.73,0.17,1.42c0.7-1.48,2.07-1.15,2.87-1.85c2.1-1.82,5.05-1.82,7.22-3.45
		c1.88-0.2,3.35-1.45,5.1-2.01c1-0.32,1.97-0.91,2.79-1.58c0.68-0.56,1.4-0.98,2.17-1.36c0.82-0.41,1.64-0.82,2.46-1.23
		c0.82-0.41,1.61-0.9,2.46-1.22c0.84-0.32,1.37-1.08,2.08-1.44c0.81-0.4,1.4-1.02,2-1.58c1.59-1.47,3.44-2.72,4.43-4.75
		c1.16-0.46,1.02-1.75,1.5-2.6c1.23-2.18,2.76-4.22,3.41-6.74c0.32-1.23,1.11-2.34,1.89-3.92c-0.3-1.06,0.71-2.36,0.93-3.77
		c0.27-1.69,1.64-2.62,2.07-4.12C759.88,626.58,759.88,625.92,759.88,625.17z M736.41,432.89c-0.08,0.05-0.17,0.11-0.25,0.16
		c0,1.4,0.38,2.96-0.11,4.16c-0.46,1.12-0.25,2.28-0.78,3.39c-0.48,1.01-0.1,2.42-0.1,3.66c0,0.66,0.27,1.53-0.05,1.94
		c-0.86,1.08-0.24,2.22-0.44,3.3c-0.2,1.08-0.41,2.16-0.48,3.26c-0.08,1.31,0.03,2.64-0.04,3.95c-0.05,1.01,0.07,1.99-0.38,3.05
		c-0.37,0.89,0.11,2.14,0.25,3.64c-0.14,0.75-1.51,1.71-0.39,3.2c0.31,0.41,0.28,1.48-0.04,1.88c-0.57,0.7-0.43,1.4-0.37,2.08
		c0.11,1.23,0.4,2.44,0.72,4.27c2.1-3.19,2.85-6.38,4.27-9.28c0-0.72,0-1.44,0-2.23c0.33-0.25,0.65-0.5,0.94-0.72
		c-0.21-2.76,0.99-5.06,1.79-7.47c0.25-1.14,0.44-2.3,0.67-3.46c0.13-0.68,0.39-1.34,0.47-2.02c0.08-0.73-0.27-1.68,0.08-2.18
		c0.87-1.26,0.24-2.65,0.62-3.95c0.4-1.36,0.25-2.88,0.31-4.33c0.03-0.82-0.05-1.65,0.03-2.47c0.06-0.6,0.29-1.19,0.47-1.87
		c-0.83-0.41-0.71-1.46-0.42-1.87c0.51-0.71,0.41-1.37,0.41-2.07c0.02-5.27,0.01-10.54,0.01-15.8c-0.25-0.25-0.48-0.48-0.86-0.86
		c-0.29,1.04-0.55,1.98-0.85,3.06c-0.17,0.17-0.46,0.46-0.76,0.76c0,0.65,0.27,1.52-0.05,1.92c-0.79,0.99-0.77,2.17-1.17,3.25
		c-0.4,1.07-0.81,2.14-1.26,3.19c-0.58,1.33-0.9,2.75-1.46,4.09C736.84,431.27,736.66,432.09,736.41,432.89z M668.95,640.5
		c0.03,0.03,0.28,0.59,0.56,0.61c1.42,0.08,2.22,1.34,3.5,1.71c1.3,0.38,2.5,1.09,3.76,1.62c0.35,0.15,0.73,0.21,1.1,0.31
		c0.59,0.16,1.17,0.39,1.77,0.48c0.64,0.09,1.41-0.15,1.92,0.13c0.88,0.48,1.5,0.36,2.41,0.02c0.75-0.28,1.99-0.11,2.37-0.69
		c0.42-0.64,1.22-0.86,1.45-1.78c0.25-1,1.15-1.83,1.06-3c1.09-1.1,0.83-2.51,0.84-3.84c0.01-1.48,0-2.95,0-4.66
		c-0.95-0.3-1.96-0.63-2.81-0.9c-2.7,0.62-5.38,0.57-7.93,1.36c-2.45,0.76-4.98,1.24-7.48,1.84c-0.12-0.1-0.24-0.21-0.29-0.25
		c-0.91,0.47-1.79,0.93-2.66,1.39c-1.95,0.21-4.18-0.62-5.61,1.43c0.84,1.25,1.58,2.34,2.49,3.69
		C666.29,640.11,667.45,640.28,668.95,640.5z M396.11,471.46c1.07,0.75,2.15,1.3,2.94,2.12c1.57,1.61,3.55,1.88,5.59,2.06
		c0.57,0.05,1.2-0.13,1.72,0.03c2.29,0.71,4.62,1.02,7.01,0.98c0.3-0.01,0.67,0.06,0.88,0.24c0.85,0.76,1.45-0.19,2.15-0.15
		c1.59,0.37,3.19,0.7,4.81,0.88c2.23,0.24,4.48,0.35,6.71,0.51c0.16,0.01,0.36-0.04,0.47,0.04c1.35,0.96,2.77,0.27,4.27,0.43
		c-0.16-0.31-1.77-1.48-1.95-1.58c-1.6-0.95-3.39-1.38-5.16-1.86c-1.78-0.48-3.54-1.04-5.29-1.58c-0.92-0.28-1.94-0.24-2.87-0.84
		c-2.39-1.53-5.41-1.57-7.89-3c-0.25-0.14-0.65-0.02-0.98-0.02c-0.82,0-1.64,0-2.4,0c-1.31-1.15-2.96-1.38-4.39-1.83
		c-0.52,0.15-1.03,0.3-1.52,0.44c-0.48-1.15-1.25-1.58-2.36-1.59c-0.91-0.01-1.89,0.28-2.72-0.37c-0.15,0.56-0.31,1.14-0.49,1.81
		c0.4,0.26,0.89,0.58,1.48,0.96c-0.23,0.33-0.41,0.58-0.5,0.71C395.8,470.42,395.95,470.92,396.11,471.46z M643.51,332.78
		c0.07-1.01-0.87-1.33-1.3-1.97c-0.25-0.37-0.55-0.73-0.91-1c-0.66-0.5-1.48-0.83-2.02-1.42c-0.62-0.69-1.4-1.15-2.05-1.8
		c-2.06-2.07-3.93-4.35-6.42-5.94c-0.93-0.6-1.38-1.68-2.26-2.21c-0.99-0.59-1.42-1.58-2.2-2.3c-2.87-2.65-5.7-5.34-8.54-8.02
		c-0.12-0.11-0.22-0.25-0.35-0.35c-0.75-0.57-1.47-1.19-2.27-1.69c-0.74-0.46-1.41-1.02-1.97-1.63c-0.61-0.66-1.41-1.05-2.02-1.77
		c-0.58-0.69-1.2-1.62-2-2c-2.34-1.12-4.13-2.9-5.91-4.67c-1.2-1.2-2.54-2.1-4.04-2.8c-0.28-0.13-0.55-0.28-0.82-0.41
		c-0.69,0-1.41,0-2.16,0c0,1.13,0,2.17,0,3.26c1.11,0.75,2.18,1.54,3.31,2.22c1.84,1.11,3.87,1.9,5.55,3.32
		c1.37,1.16,2.91,2.1,4.36,3.16c1.33,0.97,2.65,1.97,3.96,2.97c1.43,1.09,2.85,2.19,4.28,3.29c0.95-0.29,0.53,0.82,1.06,1.01
		c0.3,0,0.62,0,0.94,0c0.65,0.65,1.19,1.57,1.96,1.86c0.92,0.35,1.28,1.16,1.96,1.68c1.44,1.07,2.68,2.44,3.87,3.8
		c1.07,1.23,2.38,2.23,3.4,3.46c1.63,1.95,3.7,3.4,5.38,5.28c0.92-0.11,0.78,1.04,1.43,1.22c1.3,0.36,2.12,1.35,3.02,2.25
		C641.5,332.29,642.35,332.8,643.51,332.78z M581.78,351.54c-0.52,0-1.35,0.23-1.57-0.04c-0.73-0.89-1.8-0.26-2.67-0.84
		c-0.74-0.49-2.07-0.06-3.14-0.12c-0.93-0.05-1.76-0.54-2.76-0.51c-3.2,0.09-6.41-0.03-9.62,0.06c-1.57,0.04-3.15,0.25-4.69,0.59
		c-1.6,0.36-3.19,0.81-4.82,0.83c-1.52,0.02-2.9,0.62-4.35,0.81c-1.35,0.18-2.42,1-3.71,1.19c-1.35,0.2-2.48,0.79-3.52,1.65
		c-0.48,0.39-0.99,0.74-1.6,1.19c0.05,0.42,0.11,0.97,0.18,1.52c0.01,0.04,0.13,0.07,0.12,0.07c1.24-0.33,2.41-0.83,3.61-0.91
		c2.12-0.15,4.12-0.68,6.11-1.36c0.87-0.3,1.8-0.64,2.69-0.62c2.1,0.05,4.1-0.87,6.21-0.54c0.23,0.04,0.58,0.05,0.69-0.08
		c0.6-0.71,1.38-0.27,2.06-0.41c0.68-0.14,1.35-0.49,2.02-0.46c3.9,0.16,7.73-0.85,11.64-0.54c1.31,0.11,2.64-0.08,3.94,0.05
		c1.25,0.12,2.19-0.6,3.31-0.7C581.87,352.02,581.84,351.87,581.78,351.54z M650.13,626.17c0.59,0.61,1.17,1.2,1.67,1.73
		c2.85,0.4,5.39,2.62,8.33,1.04c0.95,0.41,1.7,1.45,3.08,0.64c-0.84-1.17-1.93-1.17-2.95-1.14c-0.75-0.75-1.45-1.45-1.76-1.76
		c-0.59-1.14-0.94-1.82-1.46-2.82c-0.05-2.08,1.19-3.9,3.12-5.3c-1.56-1.58-3.68-1.35-5.33-2.38c-1.65-1.02-3.58-1.6-5.64-1.87
		c-0.73,0.69-1.09,1.67-1.04,2.86c0.06,1.55,0.01,3.11,0.01,4.63c1.38,0.9,0.72,2.79,1.96,3.71
		C650.23,625.58,650.13,625.97,650.13,626.17z M398.19,380.08c-1.72-0.83-3.29-0.83-4.89-0.88c-1.15-0.04-2.2,0.56-3.25,0.48
		c-2.37-0.2-4.57,0.75-6.59,0.59c-0.48,0.92-0.84,1.6-1.33,2.54c0,0.31,0,0.97,0,1.63c-0.84,0.76-1.03,1.73-0.99,2.81
		c0.07,1.68-0.82,3.27-0.49,4.98c-0.98,1.15-0.28,2.46-0.54,3.75c0.8-0.25,1.42-0.44,1.77-0.55c0.54-1.17,0.98-2.13,1.58-3.43
		c0.36-0.36,0.98-1.03,1.65-1.64c0.62-0.57,1.3-1.09,1.95-1.64c0.02-0.3,0.03-0.62,0.04-0.72c1.96-1.34,3.47-2.95,5.35-4.12
		C394.32,382.72,396.58,382.09,398.19,380.08z M670.61,612.12c0.6-0.77,1.92-0.55,2.42-1.76c-1.53-0.52-2.95-1-4.37-1.49
		c-1.6-0.33-3.28,0.01-4.92-0.66c-0.57-0.23-1.34-0.15-2.03,0.4c-0.63,0.49-1.55,0.67-2.47,0.57c-0.97-0.11-1.96-0.02-2.91-0.02
		c-0.49,0.38-0.93,0.72-1.4,1.08c1.62,1.34,3.53,1.56,5.23,2.12c1.78,0.58,3.55,1.83,5.4,1.21c0.88-0.57,1.6-1.03,2.23-1.44
		C668.8,612.12,669.7,612.12,670.61,612.12z M464.22,367.62c0,1.39-0.05,2.37,0.02,3.33c0.04,0.52,0.37,1,0.46,1.52
		c0.24,1.38,0.36,2.79,0.65,4.17c0.3,1.44,0.78,2.83,0.87,4.32c0.07,1.33,0.26,2.66,0.51,3.97c0.12,0.62,0.52,1.18,0.89,1.96
		c0.59-0.81,1.07-1.47,1.48-2.03c0.07-0.64,0.13-1.16,0.17-1.57c0.42-0.13,0.64-0.19,0.81-0.24c0-0.95,0-1.83,0-2.34
		c-0.72-1.23-1.29-2.15-1.8-3.1c-0.5-0.94-0.8-2.01-1.43-2.84c-0.7-0.94-0.33-2.16-1.01-3.03c-0.75-0.96-0.64-2.07-0.64-3.13
		C464.93,368.34,464.7,368.11,464.22,367.62z M809.89,380.91c-0.2,1.27,0.05,2.48,0.4,3.71c0.22,0.77,0.98,1.07,1.11,2.02
		c0.23,1.7,1.01,3.32,1.64,5.2c0.49-0.76,0.95-1.31,1.22-1.94c1.13-2.61,1.11-5.35,0.96-8.05c-0.81-0.57-1.52-1.06-2.21-1.54
		c-0.84,0-1.72,0-2.52,0C810.24,380.56,810.07,380.74,809.89,380.91z M618.59,302.25c-0.04,0.15-0.14,0.4-0.1,0.43
		c0.75,0.51,1.1,1.38,1.78,1.94c0.66,0.55,1.32,1.16,2.07,1.55c0.87,0.45,1.18,1.35,1.87,1.92c0.73,0.59,1.63,1.06,2.13,1.8
		c0.54,0.81,1.47,1.05,2.02,1.81c0.58,0.79,1.37,1.42,2.07,2.11c1.05,1.05,2.18,2.02,3.12,3.16c0.89,1.08,2.32,1.59,2.98,2.9
		c0.04,0.07,0.43-0.03,0.84-0.07c-0.56-1.39-1.03-2.66-2.1-3.63c-0.73-0.66-1.4-1.39-2.1-2.09c-0.7-0.7-1.47-1.34-2.07-2.11
		c-0.56-0.72-1.55-0.89-1.97-1.85c-0.23-0.54-1.3-0.7-1.57-1.24c-0.42-0.82-0.88-1.44-1.7-1.85c-0.69-0.34-1.32-0.8-1.95-1.24
		c-0.71-0.5-1.47-0.96-2.05-1.58C620.95,303.22,619.95,302.46,618.59,302.25z"/>
</g>
</svg>
