<?xml version="1.0" encoding="utf-8"?>
<!-- Generator: Adobe Illustrator 24.1.0, SVG Export Plug-In . SVG Version: 6.00 Build 0)  -->
<svg version="1.1" id="Layer_1" xmlns="http://www.w3.org/2000/svg" xmlns:xlink="http://www.w3.org/1999/xlink" x="0px" y="0px"
	 viewBox="0 0 1224 792" style="enable-background:new 0 0 1224 792;" xml:space="preserve">
<path d="M496.16,0.96c0.14,3.24,0.66,6.53,0.33,9.72c-0.54,5.17,0.12,10.06,1.25,15.1c1.12,5.02,3.61,9.51,4.69,14.49
	c0.3,1.37,0.52,2.75,0.86,4.1c1.35,5.42,1.57,10.93,1.55,16.48c0,0.98,0.05,1.96-0.01,2.94c-0.2,3.42,0.39,6.57,2.12,9.66
	c1.88,3.36,0.92,7.02-0.3,10.42c-2.74,7.66-5.44,15.28-4.68,23.64c0.17,1.94,0.01,3.82-0.85,5.72c-0.53,1.16-0.53,2.92-0.05,4.11
	c1.3,3.22,1.18,6.43,1.12,9.82c-0.15,7.92,0.28,15.86,0.48,23.79c0.15,6.19,0.53,12.39,0.39,18.58c-0.08,3.64,0.68,6.56,3.53,8.93
	c1.66,1.38,3.05,3.09,4.64,4.57c2.83,2.63,3.55,6.34,4.98,9.66c1.93,4.47,3.36,9.11,4.09,13.96c0.22,1.47,0.96,2.85,1.36,4.3
	c0.98,3.6,1.47,7.4,2.98,10.75c1.01,2.26,1.04,4.29,0.96,6.53c-0.01,0.43-0.12,0.97,0.08,1.29c1.61,2.58,0.56,5.51,1.16,8.22
	c0.33,1.53-0.19,2.85-0.92,4.31c-1.96,3.93-4.54,7.28-7.59,10.42c-2.47,2.55-4.59,5.51-6.47,8.53c-0.84,1.36-0.98,3.33-0.96,5.02
	c0.04,2.27,0.57,4.52,0.84,6.79c0.28,2.37,0.43,4.76,0.75,7.13c0.66,4.81,1.38,9.62,2.09,14.43c0.1,0.64,0.3,1.27,0.37,1.92
	c0.53,4.86,0.98,9.73,1.59,14.57c0.38,3,1.04,5.97,1.49,8.96c0.88,5.79,1.63,11.61,2.56,17.39c0.86,5.36,1.86,10.69,2.83,16.03
	c0.05,0.29,0.35,0.53,0.71,1.03c1.78-1.71,1.98-4,2.66-6.03c2.04-6.13,3.47-12.44,5.89-18.48c1.84-4.59,2.86-9.51,4.29-14.27
	c1.53-5.08,3.13-10.14,4.66-15.22c1.65-5.48,3.2-10.99,4.9-16.45c0.9-2.88,2.04-5.68,3.04-8.54c0.68-1.94,1.29-3.89,1.92-5.84
	c0.46-1.43,0.9-2.87,1.33-4.31c1.74-5.92,3.5-11.84,5.2-17.77c0.23-0.82,0.19-1.73,0.23-2.59c0.47-9.23,0.78-18.48,1.46-27.7
	c0.26-3.52,1.3-7,2.1-10.47c0.85-3.68,1.76-7.35,2.77-10.99c0.89-3.21,2.04-6.34,2.87-9.56c0.31-1.2,0.05-2.54,0.05-4.07
	c2.18-1.33,2.74-3.66,3.48-6.09c0.7-2.31,2.19-4.41,3.49-6.5c3.25-5.25,6.57-10.46,9.88-15.67c0.98-1.55,2.19-2.98,2.99-4.61
	c0.64-1.31,0.82-2.85,1.19-4.28c0.03-0.1-0.02-0.22-0.01-0.33c0.2-2.55,2.01-4.55,3.96-4.35c2.23,0.23,3.59,2.58,2.86,5.28
	c-0.5,1.86-1.29,3.65-1.93,5.48c-1.56,4.49-3.46,8.9-4.56,13.51c-0.9,3.79-3.11,7.07-3.4,11.13c-0.2,2.81-1.83,5.5-2.78,8.26
	c-1.62,4.69-3.23,9.39-4.79,14.1c-1.09,3.29-2.16,6.58-3.14,9.9c-1.62,5.5-3.12,11.03-4.77,16.52c-0.87,2.89-2.02,5.69-2.93,8.57
	c-1.27,4-2.25,8.09-3.69,12.02c-1.12,3.06-1.1,6.17-1.21,9.31c-0.03,0.84,0.11,1.68,0.18,2.68c1.6-0.25,1.73-1.52,2.07-2.42
	c2.04-5.34,4.01-10.71,5.94-16.08c1.71-4.76,3.25-9.58,5.04-14.3c1.11-2.92,2.57-5.7,3.83-8.57c2.75-6.23,5.35-12.53,8.28-18.67
	c1.63-3.4,3.76-6.56,5.75-9.78c2.95-4.78,5.86-9.6,9.01-14.25c1.99-2.94,4.25-5.74,6.66-8.36c5.97-6.5,12.51-12.37,20.35-16.55
	c4.23-2.26,8.63-3.85,13.63-3.79c6.74,0.08,12.59,6.75,9.89,14.38c-0.14,0.41-0.27,0.83-0.33,1.25c-0.48,3.41-0.87,6.84-1.46,10.24
	c-0.27,1.59-0.82,3.15-1.4,4.66c-2.69,6.95-5.3,13.92-8.2,20.78c-3.28,7.78-6.59,15.55-10.31,23.12
	c-3.43,6.98-7.47,13.66-11.15,20.53c-0.73,1.35-1.92,2.68-1.34,4.74c3.51-1.66,6.16-4.16,8.87-6.57c4.62-4.1,9.06-8.42,13.79-12.4
	c7.4-6.22,13.81-13.37,20.23-20.55c1.15-1.29,2.43-2.47,3.7-3.65c0.94-0.86,1.97-1.39,3.18-0.38c1.28,1.07,1.74,2.76,0.92,4.07
	c-0.45,0.72-1.09,1.35-1.71,1.95c-8.17,7.81-15.47,16.37-21.81,25.72c-5.28,7.78-10.14,15.84-15.59,23.5
	c-5.39,7.57-11.32,14.75-16.93,22.17c-4.43,5.86-8.72,11.82-13.09,17.72c-0.84,1.13-1.84,2.13-2.67,3.26c-0.58,0.8-1,1.72-1.5,2.59
	c0.18,0.2,0.36,0.41,0.53,0.61c0.93-0.4,1.93-0.7,2.78-1.23c7.43-4.69,14.8-9.48,22.27-14.12c5.98-3.72,12.02-7.35,18.14-10.84
	c3.29-1.88,6.77-3.46,10.24-4.99c4.76-2.1,9.52-4.22,14.41-5.95c3.57-1.26,7.31-2.24,11.05-2.74c4.51-0.6,9.21-1.27,13.62-0.6
	c3.97,0.6,7.19-0.25,10.83-1.32c8.53-2.5,17.27-4.29,25.89-6.5c7.53-1.93,13.87-5.85,19.31-11.45c5.36-5.52,9.58-11.79,12.92-18.63
	c2.35-4.81,4.79-9.56,5.69-15.08c1.14-6.97,2.35-13.87,2.34-20.95c0-2.3-0.64-3.77-2.88-4.89c-3.35-1.69-6.3-4.05-8.73-7.54
	c4.06,0.89,7.04,4.17,11.67,3.5c-0.13-2.62-0.16-5.08-0.38-7.53c-0.22-2.48-0.59-4.95-0.97-7.42c-0.32-2.03-0.77-4.05-1.16-6.07
	c-1.51-7.66-2.99-15.32-5.12-22.86c-2.53-8.96-4.84-17.98-7.07-27.01c-1.84-7.48-3.39-15.02-3.75-22.76
	c-0.25-5.32-0.67-10.63-1.11-15.93c-0.22-2.67,0.17-5.2,1.33-7.56c1.18-2.41,2.4-4.82,3.88-7.05c1.59-2.39,4.26-2.45,6.78-2.24
	c1.73,0.15,2.51,1.56,2.85,3.16c0.67,3.19,1.42,6.36,1.95,9.57c1.66,10.07,2.27,20.25,2.79,30.43c0.4,7.91,1.2,15.81,1.67,23.72
	c0.43,7.16,0.61,14.34,1.01,21.5c0.15,2.69,0.71,5.36,0.93,8.06c0.2,2.49,0.13,5,0.31,7.5c0.27,3.68,0.71,7.35,0.96,11.03
	c0.19,2.82,0.28,5.65,0.29,8.48c0.01,1.68,0.2,3.2,1.42,4.5c1.16,1.24,1.42,2.53,0.18,4.03c-1.51,1.83-1.02,4.02-0.92,6.21
	c0.35,7.61,0.44,15.23,0.69,22.85c0.07,2.17,0.35,4.33,0.53,6.49c0.25,3.03,0.49,6.06,0.74,9.09c0.32,3.79,0.75,7.58,0.93,11.38
	c0.25,5.22,0.22,10.45,0.47,15.66c0.32,6.84,0.82,13.66,1.16,20.5c0.13,2.61,0.08,5.23,0.01,7.84c-0.05,1.95,0.53,3.45,1.96,4.92
	c4.08,4.2,8.19,8.41,11.83,12.98c3.63,4.55,6.68,9.56,10.04,14.33c1.37,1.94,2.95,3.72,4.3,5.67c3.76,5.42,7.01,11.14,9.34,17.33
	c2.02,5.36,3.85,10.79,5.96,16.12c0.87,2.19,2.27,4.17,3.39,6.27c0.46,0.86,0.93,1.74,1.23,2.66c0.8,2.48-1.08,4.86-3.59,4.28
	c-6.28-1.46-12.37-3.42-16.88-8.49c-1.07-1.2-2.29-2.28-3.51-3.34c-5.06-4.42-8.56-9.97-11.75-15.79c-1.5-2.74-3.34-5.31-5.06-7.93
	c-1.4-2.13-2.84-4.23-4.57-6.79c-0.95,2.56-0.76,4.62-0.6,6.61c0.43,5.31,1.01,10.6,1.49,15.9c0.61,6.82,0.98,13.67,1.82,20.46
	c0.83,6.67,2.07,13.3,3.2,19.93c1.01,5.87,2.29,11.71,3.14,17.6c0.89,6.12,2.86,11.77,6.28,16.9c2.17,3.26,3.27,6.7,3.1,10.71
	c-0.23,5.32-0.18,10.67,0.08,15.99c0.15,3.1,0.96,6.18,1.47,9.26c0.28,1.7,0.72,3.38,0.84,5.09c0.48,6.94,0.96,13.88,1.24,20.84
	c0.17,4.33,0.34,8.66-0.84,12.97c-0.8,2.89-0.59,6.06-1.38,8.96c-1.55,5.74-3.4,11.41-5.29,17.05c-0.86,2.55-1.85,5.13-3.24,7.42
	c-3.24,5.31-4.59,11.17-5.85,17.13c-1.01,4.76-2.25,9.47-3.46,14.19c-1.94,7.54-3.94,15.06-5.91,22.58
	c-0.08,0.32-0.1,0.67-0.27,0.94c-2.88,4.5-2.68,10.01-4.87,14.74c-1.27,2.74-2.52,5.5-3.55,8.34c-1.91,5.3-3.44,10.57-2.23,16.46
	c1.43,6.99,4.38,13.31,7.15,19.76c1.66,3.86,3.43,7.71,4.68,11.71c0.96,3.05,1.51,6.31,1.68,9.5c0.28,5.31,0.03,10.64,0.17,15.96
	c0.07,2.7,0.62,5.38,0.76,8.07c0.21,4.12,0.38,8.26,0.3,12.38c-0.02,1.02-0.89,2.19-1.67,3c-3.63,3.75-7.08,7.58-9.3,12.41
	c-0.71,1.54-2.02,2.81-3.1,4.17c-4.17,5.3-8.87,9.97-14.88,13.26c-3.51,1.92-6.9,4.09-10.16,6.42c-4.12,2.95-8.78,4.69-13.39,6.6
	c-6.8,2.82-13.95,4.64-20.72,7.64c-4.99,2.21-10.65,2.94-16.03,4.28c-5.98,1.48-11.75,3.56-15.94,8.26
	c-2.27,2.55-3.98,5.66-5.64,8.68c-2.08,3.79-3.78,7.79-5.8,11.61c-0.75,1.41-1.8,2.76-2.99,3.82c-1.75,1.56-3.77,1.21-6.16,0.08
	c0.54-0.98,0.82-1.93,1.44-2.54c2.97-2.88,4.42-6.68,6.37-10.18c2.74-4.93,5.21-10.05,8.39-14.69c3.31-4.84,8.05-8.16,13.81-9.76
	c3.46-0.96,6.93-1.88,10.41-2.76c0.94-0.24,1.93-0.25,2.89-0.4c0.74-0.12,1.52-0.19,2.21-0.47c1.69-0.69,3.39-1.38,4.98-2.27
	c6.25-3.5,13.38-4.38,19.98-6.85c6.74-2.52,13.16-5.61,18.97-9.94c2.87-2.14,6.14-3.75,8.94-5.96c2.79-2.2,5.34-4.75,7.79-7.35
	c2.76-2.93,4.64-6.49,6.68-9.95c1.48-2.51,3.29-4.84,5.15-7.09c2-2.43,3.14-5.1,2.25-8.14c-1.35-4.63-0.96-9.26-0.57-13.91
	c0.75-9-0.12-17.81-3.24-26.32c-0.96-2.62-2.29-5.1-3.46-7.64c-0.32-0.69-0.69-1.37-0.94-2.08c-1.86-5.31-3.75-10.61-5.5-15.96
	c-0.39-1.2-0.26-2.58-0.35-3.88c-0.07-1.03-0.12-2.07-0.19-3.28c-0.63,0.21-1.02,0.22-1.19,0.42c-5.02,5.89-11.99,8.9-18.63,12.25
	c-8.25,4.17-16.82,7.86-25.99,9.3c-8.8,1.38-17.76,2.05-26.32-1.76c-2.97-1.32-6.05-2.41-8.94-3.89c-4.18-2.14-6.64-6.19-9.71-9.51
	c-2.62-2.84-4.77-6.12-7.12-9.21c-2.75-3.62-5.76-7.08-8.16-10.92c-2.33-3.74-4.16-7.81-5.98-11.84c-1.73-3.82-3.2-7.76-4.7-11.69
	c-0.61-1.61-0.97-3.32-1.46-4.98c-1.15-3.95-2.24-7.91-3.47-11.83c-2.23-7.12-4.87-14.11-6.2-21.51c-0.81-4.47-2.21-8.83-3.19-13.27
	c-0.82-3.7-1.39-7.46-2.1-11.19c-0.92-4.89-1.92-9.77-2.79-14.67c-0.46-2.56-0.86-5.15-1.05-7.74c-0.18-2.37-0.94-4.43-2.26-6.36
	c-3.46-5.06-6.3-10.51-7.53-16.48c-1.03-4.99-2.79-9.75-3.7-14.79c-1.03-5.68-1.49-11.39-1.92-17.07c-0.43-5.7,0.37-11.5,0.65-17.25
	c0.03-0.54,0.23-1.08,0.23-1.61c-0.01-5.22,0.67-10.35,1.34-15.53c1.27-9.69,1.76-19.49,2.87-29.2c0.44-3.85,1.64-7.62,2.6-11.4
	c1.58-6.23,3.85-12.2,7.65-17.42c2.79-3.84,5.85-7.5,8.97-11.08c2.98-3.42,7.09-4.97,11.4-5.9c2.52-0.54,4.55-1.42,5.93-3.86
	c3.2-5.65,8.97-7.75,14.66-9.53c12.16-3.79,24.69-5.02,37.38-4.34c7.49,0.4,14.99,0.93,22.42,1.86c5.13,0.64,9.03,3.59,11.13,8.45
	c0.9,2.06,0.75,4.14-0.48,6.23c-1.86,3.17-3.45,6.5-5.13,9.78c-0.19,0.37-0.19,0.83-0.33,1.5c1.97,1.07,3.96,2.12,5.92,3.2
	c6.17,3.4,11.2,8.28,16.08,13.19c5.41,5.44,10.47,11.27,15.24,17.29c5.09,6.43,9.64,13.28,14.45,19.93
	c0.66,0.92,1.47,1.73,2.47,2.46c0.08-4.08-0.33-7.98-1.25-11.83c-0.15-0.63-0.5-1.23-0.57-1.87c-1.16-9.92-2.29-19.84-3.41-29.76
	c-0.49-4.32-0.95-8.64-1.41-12.96c-0.2-1.83-0.34-3.67-0.53-5.51c-0.33-3.13-0.75-6.25-1-9.38c-0.24-2.93-0.3-5.87-0.45-8.8
	c-0.16-3.2-1.01-6.06-3.01-8.74c-3.23-4.33-6.61-8.53-9.91-12.79c-6.61-8.56-14.64-16-19.98-25.56c-1.39-2.49-3.72-3.7-6.7-3.98
	c-6.8-0.64-13.58-1.55-20.38-2.3c-1.18-0.13-2.41-0.19-3.58-0.01c-5.1,0.8-10.17,0.93-15.23-0.2c-0.64-0.14-1.33-0.17-1.9-0.44
	c-5.81-2.77-11.9-2.31-17.93-1.34c-6.55,1.05-12.87,3.18-18.91,5.84c-6.55,2.88-12.93,6.19-19.21,9.64
	c-7.41,4.07-14.72,8.36-21.92,12.8c-10.63,6.56-20.63,14.03-30.19,22.05c-3.13,2.62-5.58,6.04-8.46,8.97
	c-2.81,2.85-5.73,5.59-8.69,8.28c-0.58,0.53-1.55,0.84-2.36,0.87c-1.23,0.05-2.71,0.45-3.43-1.14c-0.58-1.28,0.07-3.23,1.5-4.3
	c1.3-0.97,2.82-1.72,3.92-2.87c5.92-6.2,12.06-12.23,17.51-18.82c7.1-8.59,13.61-17.67,20.41-26.51c3.9-5.06,7.9-10.04,11.8-15.1
	c5.67-7.35,11.25-14.77,15.74-22.94c0.94-1.7,2.11-3.27,3.06-4.97c0.44-0.78,0.6-1.72,1.03-3.04c-2.8,0.89-4.56,2.24-6.11,3.91
	c-4.44,4.8-9.86,8.44-14.85,12.61c-4.12,3.44-7.49,7.53-10.78,11.69c-6.64,8.41-13.3,16.81-19.73,25.38
	c-5.71,7.6-11.06,15.47-16.7,23.13c-3.01,4.09-6.37,7.92-9.45,11.96c-1.35,1.78-2.41,3.76-2.4,6.14c0.03,10.23-0.08,20.47,0.07,30.7
	c0.06,4.22,0.7,8.44,1.02,12.66c0.15,1.95,0.1,3.92,0.24,5.87c0.33,4.77,0.81,9.53,1.05,14.3c0.25,4.89,0.25,9.79,0.44,14.69
	c0.08,2.06,0.43,4.1,0.52,6.16c0.22,4.99,0.48,9.98,0.51,14.96c0.12,15.79,0.16,31.57,0.22,47.36c0.02,5.41-0.86,6.19-6.11,5.13
	c-2.01-0.4-3.96-1.09-5.92-1.7c-2.59-0.81-5.13-1.86-7.77-2.44c-2.13-0.46-3.97-1.09-5.34-3.88c-0.21,1.52-0.44,2.3-0.39,3.06
	c0.3,4.77,0.52,9.55,1.06,14.29c0.63,5.45,0.95,10.94,2.26,16.32c1.13,4.63,1.82,9.37,2.49,14.09c0.64,4.52,0.98,9.07,1.54,13.6
	c0.13,1.03,0.57,2.02,0.89,3.14c0.56-0.23,0.89-0.29,1.12-0.47c2.62-2.05,4.08-1.96,5.54,1.04c1.26,2.59,1.95,5.49,2.73,8.3
	c1.25,4.48,2.38,8.99,3.53,13.49c0.21,0.83,0.19,1.72,0.37,2.57c0.44,2.17,0.93,4.33,2.01,6.5c0.63-1.77,1.12-3.6,1.92-5.28
	c0.83-1.73,1.68-3.61,3.02-4.88c2.04-1.93,4.16-1.18,4.88,1.56c1.26,4.74,2.21,9.52,1.41,14.5c-0.59,3.64-1.06,7.32-1.23,10.99
	c-0.11,2.36,0.3,4.77,0.7,7.11c0.31,1.81-0.07,3.31-0.79,5c-2.12,4.96-4.45,9.87-5.45,15.25c-0.59,3.18-1.5,6.31-2.17,9.48
	c-0.27,1.27-0.31,2.58-0.43,3.88c-0.54,5.95-1.09,11.89-1.61,17.84c-0.33,3.68-0.63,7.36-0.92,11.04c-0.23,2.92-0.61,5.85-0.59,8.77
	c0.03,4.35,0.34,8.69,0.57,13.03c0.03,0.64,0.25,1.28,0.45,1.89c1.07,3.34,0.65,4.89-2.4,6.88c-1.49,0.97-1.97,2.13-2.02,3.77
	c-0.18,5.32-0.43,10.64-0.65,15.96c-0.02,0.54-0.07,1.09-0.02,1.63c0.29,3.11,0.96,5.92,4.38,7.21c3.09,1.17,4.56,3.72,5.55,6.78
	c0.79,2.46,1.98,4.8,3.14,7.12c2.02,4.06,0.27,6.91-4.23,6.8c-2.28-0.06-4.56-0.01-6.75-0.01c-1.21,3-1.07,3.62,1.41,4.71
	c4.91,2.16,8.85,5.43,11.72,9.95c0.73,1.15,1.67,1.67,2.99,1.48c1.39-0.2,2.8-0.37,4.17-0.66c2.32-0.49,4.32,0.28,4.9,1.99
	c0.56,1.64-0.54,3.86-2.52,4.79c-0.87,0.41-1.88,0.52-2.81,0.81c-3.28,1.01-3.96,1.89-4.27,5.3c-0.22,2.37-0.31,4.78-0.83,7.1
	c-0.34,1.52-1.12,3.04-2.05,4.31c-1.59,2.17-3.52,4.09-5.17,6.22c-3.22,4.15-6.19,5.05-11.02,3.18c-0.19,0.07-0.52,0.08-0.58,0.21
	c-1.65,3.51-4.75,3.29-7.83,3.01c-2.14-0.19-3.34-1.18-3.85-3.33c-0.66-2.74-2.02-4.83-4.26-6.67c-3.2-2.62-4.51-6.55-5.66-10.4
	c-0.86-2.87-1.13-3.42-2.77-3.2c-2.32,0.31-1.75,2.14-1.78,3.56c-0.04,2.28,0.02,4.57,0.14,6.85c0.14,2.55,0.49,2.93,2.88,3.63
	c0.8,0.23,1.59,0.48,2.89,0.88c-2.19,1.68-4.35,2.14-6.28,1.53c-1.83-0.58-3.17-2.34-3.43-4.38c-0.62-4.74-1.08-9.5-1.57-14.26
	c-0.08-0.75-0.08-1.53,0.04-2.28c0.41-2.63,2.01-3.75,4.62-3.28c0.64,0.12,1.25,0.42,1.89,0.49c1.64,0.18,2.65-0.42,2.68-2.06
	c0.04-3.16,1.19-5.9,2.37-8.73c1.31-3.14,0.29-6.45,0.08-9.68c-0.47-7.27-1.01-14.53-1.53-21.8c-0.08-1.19-0.03-2.4-0.25-3.56
	c-1.04-5.42-0.72-10.82,0.07-16.23c0.2-1.4,0.53-2.81,0.49-4.2c-0.16-6.72,1.92-13.05,3.08-19.55c1.29-7.22,2.88-14.4,1.76-21.94
	c-0.84-5.67-0.58-11.5-0.79-17.26c-0.13-3.8,0.18-7.66-0.4-11.39c-1.71-11.02-0.92-22.09-1.15-33.14c-0.05-2.61-0.25-5.21-0.42-7.81
	c-0.17-2.6-0.45-5.2-0.56-7.8c-0.44-10.32-1.09-20.64-1.17-30.97c-0.08-9.56,0.83-19.08,1.98-28.59c0.52-4.27,0.11-8.69-0.16-13.02
	c-0.28-4.55-0.98-9.07-1.35-13.61c-0.5-6.07-0.64-12.17-1.31-18.21c-1.13-10.16-1.81-20.34-2.21-30.55
	c-0.15-3.73-0.8-7.52-2.76-10.93c-0.56-0.98-0.87-2.26-0.84-3.4c0.15-7.77-1.21-15.35-2.55-22.95c-0.99-5.66-1.8-11.36-2.75-17.03
	c-0.43-2.57-0.91-5.14-1.54-7.67c-0.27-1.08-1.01-2.04-1.54-3.06c-0.25,0.05-0.51,0.1-0.76,0.15c0,1.43-0.15,2.89,0.03,4.3
	c0.72,5.93,1.58,11.83,2.31,17.76c0.21,1.72,0.11,3.48,0.17,5.22c0.22,6.52,0.61,13.05,0.62,19.57c0.01,5.21-0.24,10.45-0.75,15.64
	c-0.57,5.83-1.35,11.65-2.44,17.4c-1.03,5.42-2.58,10.71-6.39,15.03c-2.21,2.49-4.22,3.04-7.19,1.55c-0.29-0.15-0.57-0.33-0.83-0.52
	c-5.11-3.85-10.53-7.26-15.09-11.83c-2.72-2.72-3.99-6.21-5.61-9.46c-3.14-6.28-5.9-12.75-8.59-19.24
	c-2.1-5.07-4.07-10.22-5.72-15.46c-1.59-5.03-2.73-10.2-4-15.33c-1.62-6.52-3.19-13.06-4.75-19.59c-0.25-1.05-0.4-2.13-0.57-3.21
	c-0.63-4.06-1.22-8.12-1.88-12.18c-0.71-4.37-1.44-8.74-2.26-13.1c-0.36-1.91-0.92-3.78-1.46-5.65c-1.65-5.72-3.2-11.48-5.08-17.13
	c-0.91-2.74-2.48-5.27-3.72-7.9c-1.61-3.41-3.18-6.85-4.81-10.25c-2.43-5.05-4.94-10.07-7.35-15.13c-0.5-1.05-0.71-2.24-1-3.38
	c-0.11-0.41,0.06-0.93-0.11-1.29c-1.8-3.83-0.56-7.65-0.02-11.47c0.18-1.29,0.08-2.62,0.3-3.9c0.67-3.92,1.43-7.82,2.17-11.73
	c0.52-2.76,1-5.52,1.64-8.25c1.16-4.93,2.43-9.83,3.65-14.74c0.08-0.32,0.21-0.64,0.2-0.95c-0.19-3.92,1.97-7.17,3.03-10.73
	c1.12-3.78,1.89-7.65,3.35-11.37c1.91-4.9,3-10.11,4.56-15.15c2.01-6.47,4.11-12.9,6.22-19.33c0.64-1.94,1.48-3.82,2.22-5.73
	c0.31-0.81,0.67-1.61,0.9-2.45c1.13-4.15,2.2-8.31,3.32-12.46c0.17-0.63,0.51-1.2,0.69-1.83c1.1-3.82,2.09-7.69,3.3-11.48
	c0.95-2.96,2.23-5.82,3.22-8.77c0.78-2.33,1.31-4.74,2-7.11c1.04-3.59,2.18-7.15,3.18-10.75c1.22-4.37,3.5-8.46,3.43-13.19
	c-0.01-0.7,0.48-1.41,0.69-2.12c1.04-3.62,2.06-7.24,3.1-10.86c0.18-0.62,0.29-1.27,0.57-1.84c1.23-2.57,1.89-5.22,2.07-8.1
	c0.15-2.44,0.89-4.88,1.61-7.24c1.04-3.38,1.98-6.72,2.35-10.28c0.41-3.95,1.34-7.85,2.06-11.76c0.04-0.21,0.16-0.41,0.19-0.62
	c0.55-4.17,1.1-8.35,1.62-12.52c0.31-2.47,0.59-4.94,0.89-7.41c0.03-0.22,0.11-0.43,0.11-0.64c0.06-3.89,0.37-7.8,0.09-11.67
	c-0.24-3.21-1.23-6.35-1.8-9.55c-0.72-4.03-2.53-7.89-1.95-12.13C490.49,0.96,493.33,0.96,496.16,0.96z M718.44,362.61
	c0.45,0.08,0.7,0.2,0.87,0.14c1.01-0.37,2.02-0.77,3.01-1.2c1.15-0.51,2.21-0.77,3.31,0.21c1.94,1.71,1.8,3.77-0.64,5.34
	c-1.73,1.11-3.64,1.94-5.47,2.89c-1.81,0.94-3.27,2.02-3.13,4.45c0.05,0.83-0.57,1.86-1.17,2.55c-3.62,4.21-6.32,8.98-8.94,13.86
	c-5.17,9.63-9.48,19.64-13.94,29.59c-0.3,0.67-0.4,1.43-0.6,2.14c1.88-1.63,3.41-3.25,4.82-4.97c4.31-5.26,8.4-10.71,12.9-15.8
	c4.74-5.35,9.88-10.35,14.8-15.53c0.96-1.01,1.93-1.27,3.2-0.7c2.88,1.29,3.34,3.65,1.07,5.91c-0.92,0.92-1.98,1.7-2.87,2.65
	c-5.28,5.58-10.6,11.13-15.76,16.82c-3.42,3.77-6.67,7.71-9.84,11.7c-3.62,4.57-7.15,9.22-10.54,13.97
	c-2.88,4.05-5.52,8.26-8.22,12.44c-0.99,1.54-1.91,3.13-2.73,4.76c-2.85,5.68-5.62,11.41-8.48,17.09c-1.9,3.76-4.03,7.41-5.83,11.21
	c-2.49,5.28-5.4,10.28-8.53,15.21c-2.86,4.5-6.92,8.39-7.79,14.06c-0.2,1.33-1.01,2.67-2.77,2.81c-1.74,0.14-3.32-0.27-4.35-1.69
	c-0.54-0.75-0.88-1.8-0.91-2.72c-0.07-2.15-0.65-4.03-2.09-5.65c-1.04-1.18-0.92-2.49-0.55-3.97c0.44-1.77,0.56-3.62,0.71-5.45
	c0.12-1.41,0.03-2.83,0.1-4.24c0.24-4.89,0.65-9.77,0.69-14.65c0.01-1.65,0.2-3.72-1.89-5.11c-0.84,1.11-1.54,2.19-2.39,3.12
	c-1.51,1.65-3.55,1.94-4.93,0.82c-1.27-1.03-1.12-3.22,0.23-4.94c1.61-2.05,3.4-4.01,4.61-6.28c1.25-2.35,2.63-5.01,2.66-7.54
	c0.04-4.34-0.49-8.79-2.48-13.06c-2.28,1.58-3.46,3.7-4.47,5.97c-1.84,4.15-1.85,8.68-2.56,13.03c-0.89,5.45-0.8,11.05-1.62,16.52
	c-0.83,5.51,0.06,10.84,0.94,16.17c0.36,2.19,1.15,4.46,2.34,6.32c2.26,3.54,4.9,6.85,7.48,10.18c1.98,2.55,3.87,5.24,6.21,7.43
	c6.65,6.22,13.16,12.57,18.89,19.67c3.6,4.47,6.94,9.16,10.67,13.51c5.59,6.5,11.85,12.29,18.82,17.36
	c5.82,4.23,11.93,5.03,18.43,2.44c5.33-2.12,9.79-5.61,13.03-10.4c5.03-7.45,8.16-15.77,10.41-24.4c1.65-6.33,4.09-12.34,6.53-18.38
	c1.69-4.2,3.38-8.4,5.03-12.62c1.3-3.32,2.51-6.68,3.84-9.99c1.54-3.81,3.28-7.53,4.72-11.37c1.1-2.93,1.69-6.04,2.81-8.95
	c2.08-5.41,3.38-11.01,3.96-16.72c0.98-9.52,1.29-19.04-0.43-28.57c-0.91-5.01-1.12-10.14-1.68-15.21
	c-0.34-3.12-0.58-6.27-1.16-9.34c-1.88-9.86-4.82-19.37-10.51-27.78c-3.26-4.83-6.6-9.58-11.45-13.1c-3.24-2.35-6.14-5.16-9.24-7.72
	c-1.31-1.08-2.71-2.05-4.11-3.11c-1.98,1.51-3.68,2.8-5.29,4.04C717.05,359.61,717.72,361.06,718.44,362.61z M732.69,356.15
	c1.67,1.54,3.24,3.23,5.04,4.61c6.81,5.2,11.32,12.25,15.41,19.52c2.16,3.83,3.34,8.21,5.01,12.32c2.09,5.17,3.36,10.53,3.97,16.06
	c0.81,7.34,1.6,14.69,2.39,22.03c0.48,4.43,1.19,8.84,1.35,13.28c0.13,3.66-0.47,7.33-0.63,11.01c-0.35,8.18-2.11,16.1-4.78,23.78
	c-3.27,9.4-6.78,18.71-10.34,28.01c-2.74,7.18-5.78,14.24-8.56,21.4c-1.53,3.94-2.76,8.01-4.24,11.97
	c-1.54,4.14-3.22,8.23-4.83,12.35c-0.19,0.5-0.25,1.05-0.43,1.56c-0.48,1.31-0.8,2.73-1.52,3.9c-1.53,2.47-3.5,4.69-4.85,7.25
	c-1.17,2.21-2.69,3.87-4.7,5.25c-1.25,0.85-2.48,1.8-3.52,2.89c-1.46,1.54-3.21,2.43-5.11,3.32c-3.35,1.57-6.9,2.05-10.47,2.23
	c-1.98,0.1-4.38-0.03-5.93-1.05c-5.22-3.41-11.02-5.83-15.31-10.85c-5.26-6.16-11.43-11.54-16.3-18.1c-1.93-2.61-4.51-4.76-6.3-7.44
	c-4.52-6.78-10.65-11.99-16.5-17.46c-3.11-2.91-6.19-5.75-8.65-9.24c-0.63-0.9-1.48-1.65-2.62-2.91c-0.7,6.24,1.54,11.4,1.78,16.78
	c0.08,1.71,0.58,3.42,0.99,5.11c1.26,5.15,2.5,10.3,3.88,15.42c1.07,3.95,1.33,8.07,3.32,11.83c1.39,2.62,2.11,5.64,2.87,8.54
	c1.63,6.26,2.74,12.66,5.41,18.63c3.66,8.18,6.73,16.57,12.45,23.78c3.96,5,7.77,10.12,11.94,14.96c2.93,3.4,5.84,6.73,9.96,8.71
	c2.63,1.26,5.26,2.56,8,3.55c2.34,0.85,4.81,1.73,7.25,1.81c7.86,0.25,15.6-0.89,23.14-3.17c3.53-1.07,7.14-2.01,10.51-3.5
	c4.03-1.78,7.99-3.83,11.7-6.21c4.66-2.99,10.16-5.17,12.28-11.04c0.1-0.29,0.4-0.51,0.63-0.74c3.92-3.94,5.71-9.11,6.63-14.24
	c1.41-7.83,4.79-15.05,6-22.93c0.96-6.28,3.03-12.39,4.79-18.53c1.52-5.31,3.26-10.55,4.97-15.81c0.43-1.32,1.32-2.52,1.6-3.86
	c1.36-6.47,2.98-12.91,3.74-19.46c0.86-7.44,1.31-14.98,1.22-22.47c-0.15-11.7,1.71-23.17,3.16-34.69
	c0.67-5.33,1.95-10.59,3.05-15.86c0.54-2.61,0.53-5.15-0.12-7.75c-0.79-3.15-1.2-6.39-2.07-9.51c-1.22-4.39-2.2-8.95-4.2-12.98
	c-2.53-5.09-5.91-9.77-9.07-14.53c-3.35-5.04-6.72-10.09-10.36-14.92c-4.24-5.61-8.64-11.12-13.25-16.42
	c-2.9-3.34-6.27-6.29-9.53-9.3C739.91,360.26,736.79,357.61,732.69,356.15z M496.49,37.77c-0.35,0.03-0.69,0.05-1.04,0.08
	c-0.86,4.63-1.75,9.25-2.57,13.88c-0.55,3.09-0.91,6.2-1.51,9.28c-0.46,2.38-1.2,4.71-1.72,7.08c-0.71,3.29-1.36,6.59-1.99,9.89
	c-0.56,2.96-0.81,6-1.65,8.87c-1.9,6.51-4.17,12.9-6.11,19.4c-1.14,3.81-1.82,7.75-2.92,11.58c-1.57,5.45-3.4,10.83-5.01,16.26
	c-1.04,3.52-1.45,7.31-2.93,10.62c-2.95,6.56-3.66,13.74-6.22,20.39c-0.88,2.28-0.86,4.89-1.61,7.23c-1.27,4-2.87,7.9-4.24,11.87
	c-1.55,4.49-3.31,8.94-4.39,13.54c-1.18,5.05-2.59,9.99-4.31,14.87c-0.89,2.53-1.64,5.11-2.37,7.69c-0.72,2.56-1.31,5.16-2.02,7.72
	c-1.1,3.95-2.38,7.85-3.35,11.84c-1.45,5.99-2.44,12.11-4.12,18.03c-1.35,4.73-1,9.67-2.36,14.36c-0.39,1.34-0.46,2.77-0.67,4.16
	c-0.63,4.1-1.2,8.2,0.47,12.2c1.62,3.87,3.21,7.75,4.99,11.55c2.33,4.98,4.7,9.96,7.31,14.79c3.2,5.93,5.45,12.2,7.2,18.67
	c0.62,2.29,1.15,4.61,1.74,6.91c0.78,3,1.65,5.98,2.36,9c0.56,2.42,1.01,4.87,1.38,7.32c0.57,3.75,0.98,7.53,1.55,11.28
	c0.21,1.39,0.86,2.71,1.02,4.1c0.79,6.77,2.14,13.42,4.04,19.97c1.14,3.93,1.92,7.97,2.94,11.91c1.86,7.2,4.29,14.28,6.95,21.23
	c2.46,6.43,5.51,12.64,8.35,18.92c1.75,3.87,3.97,7.54,7.12,10.34c3.55,3.14,7.53,5.81,11.43,8.53c2.17,1.51,3.44,1.06,4.83-1.16
	c3.6-5.78,4.57-12.34,5.47-18.89c0.59-4.3,1.05-8.63,1.34-12.95c0.45-6.82,1-13.65,0.95-20.47c-0.05-6.95-0.76-13.89-1.19-20.83
	c-0.04-0.65-0.2-1.29-0.28-1.93c-0.74-5.48-1.41-10.97-2.24-16.43c-0.83-5.46-1.78-10.91-2.74-16.35c-0.24-1.38-0.76-2.71-1.04-4.09
	c-0.57-2.86-0.97-5.76-1.61-8.61c-1.16-5.15-2.39-10.29-3.71-15.41c-1.03-3.98-2.16-7.94-3.37-11.87c-0.95-3.09-2.48-6.05-3.05-9.19
	c-1.1-6.09-2.96-11.96-4.73-17.85c-1.33-4.45-2.95-8.81-4.35-13.24c-1.07-3.38-1.94-6.83-3.01-10.22
	c-1.66-5.25-3.4-10.48-5.12-15.71c-1.59-4.83-3.25-9.64-4.77-14.49c-1.55-4.93-3-9.9-4.41-14.87c-0.5-1.76-0.89-3.57-1.11-5.38
	c-0.73-5.84-0.42-11.69-0.31-17.56c0.11-6.13,2.23-11.7,3.35-17.53c0.91-4.76,2.36-9.43,3.56-14.14c1.58-6.18,3.08-12.38,4.73-18.55
	c1.03-3.84,2.36-7.58,3.73-11.33c2.32-6.37,3.97-12.98,6.27-19.35c1.71-4.74,3.83-9.36,6.11-13.86c1.6-3.15,1.67-6.25,0.76-9.44
	c-1.32-4.6-2.57-9.21-2.26-14.05c0.18-2.81-0.51-5.38-1.81-7.8c-0.62-1.16-0.95-2.47,0.03-3.29c0.9-0.75,2.26-1.12,3.47-1.28
	c0.77-0.1,1.63,0.54,2.47,0.73c1.56,0.36,2.24-0.11,2.48-1.66c0.08-0.53,0.06-1.09,0.06-1.63c0.07-7.55-1.69-14.86-2.82-22.26
	C497.76,39.33,496.97,38.58,496.49,37.77z M557.26,318.27c1.26-1.17,2.11-1.76,2.71-2.54c3.75-4.9,7.44-9.84,11.17-14.76
	c4.26-5.61,8.53-11.21,12.81-16.8c5.19-6.78,10.45-13.5,15.56-20.34c2.97-3.98,5.85-8.05,8.5-12.25
	c4.15-6.57,8.06-13.28,12.07-19.93c2.33-3.85,4.7-7.64,6.6-11.78c3.98-8.62,7.79-17.3,11.6-25.99c2.78-6.35,5.48-12.71,7.39-19.38
	c0.92-3.21,2.08-6.4,2.55-9.68c0.46-3.21,0.26-6.52,0.2-9.78c-0.05-3.12-2.32-5.75-5.36-5.92c-2.91-0.16-5.8-0.09-8.66,1.04
	c-7.77,3.08-13.92,8.42-19.78,14.06c-4.99,4.81-9,10.47-12.44,16.54c-3.19,5.64-6.9,10.99-9.93,16.7c-3.18,6-5.96,12.23-8.68,18.46
	c-2.24,5.14-4.22,10.4-6.11,15.67c-1.08,3.01-1.35,6.34-2.68,9.2c-1.74,3.75-3,7.61-4.23,11.53c-1.6,5.1-3.93,9.98-4.7,15.35
	c-0.05,0.31-0.12,0.69-0.32,0.91c-3.15,3.35-3.44,7.86-4.81,11.93c-0.42,1.23-0.97,2.47-1.1,3.74c-0.53,5.28-0.92,10.57-1.38,15.85
	c-0.11,1.3-0.33,2.58-0.48,3.88C557.27,308.41,556.6,312.82,557.26,318.27z M555.9,478.24c0.39-2.83,0.9-4.85,0.91-6.87
	c0.06-14.48,0.15-28.97-0.03-43.45c-0.1-7.93-0.66-15.86-1.1-23.78c-0.35-6.39-0.05-12.78-1.13-19.18
	c-1.05-6.18-1.17-12.55-1.37-18.85c-0.3-10-0.32-20-0.46-30c-0.02-1.36-0.22-2.4-1.83-3.02c-2.07-0.79-2.57-3.24-1.29-5.13
	c0.54-0.8,1.45-1.36,1.94-2.18c0.58-0.97,1.23-2.09,1.28-3.16c0.18-4.57,0.17-9.14,0.19-13.71c0-0.53-0.21-1.06-0.32-1.6
	c-1.55,3.05-2.58,6.1-3.64,9.13c-1.03,2.95-1.98,5.94-3.18,8.82c-2.21,5.28-4.76,10.42-6.82,15.75c-1.66,4.28-3.84,8.21-6.4,11.99
	c-2.04,3.02-3.69,6.43-8.02,6.62c0,0.59-0.08,0.93,0.01,1.22c1.41,4.59,0.51,9.5,2.07,14.12c0.89,2.63,0.88,5.56,1.28,8.36
	c1.21,8.49,2.52,16.97,2.89,25.55c0.08,1.84,0.18,3.7,0.51,5.5c0.59,3.29,1.51,6.52,1.99,9.82c0.43,2.99,0.61,5.97,1.23,8.98
	c1.41,6.89,3.14,13.79,2.92,20.93c-0.02,0.54,0.13,1.08,0.22,1.61c0.76,4.47,1.57,8.93,2.28,13.4c0.36,2.29,1.05,4.23,3.61,4.86
	c0.52,0.13,0.97,0.5,1.48,0.67C548.48,475.79,551.86,476.9,555.9,478.24z M494.59,116.95c-0.26-0.07-0.52-0.15-0.78-0.22
	c-1.67,2.01-2.33,4.41-2.26,7.02c0.06,2.52-0.6,4.66-2.39,6.52c-0.79,0.82-1.37,1.97-1.72,3.08c-0.65,2.05-0.99,4.2-1.58,6.27
	c-1.36,4.77-2.98,9.47-4.17,14.28c-1.64,6.59-2.98,13.26-4.46,19.89c-0.75,3.37-1.55,6.73-2.29,10.1c-0.76,3.5-1.72,6.97-2.15,10.51
	c-0.8,6.6-0.59,13.26,0.43,19.8c0.71,4.54,2.18,8.96,3.43,13.4c0.7,2.49,1.71,4.89,2.42,7.38c0.64,2.27,0.94,4.64,1.62,6.9
	c0.89,2.99,2.09,5.89,2.98,8.88c0.86,2.88,1.38,5.86,2.23,8.74c1.04,3.54,2.31,7.01,3.4,10.53c1.25,4.04,2.38,8.11,3.64,12.14
	c0.56,1.79,1.31,3.52,1.97,5.28c0.23-0.01,0.46-0.02,0.68-0.03c0.83-2.98,1.92-5.92,2.42-8.95c0.88-5.37,3.1-10.23,5.92-14.69
	c2.15-3.4,2.14-6.66,1.61-10.25c-0.72-4.93-1.58-9.85-2.09-14.81c-0.7-6.8-1.11-13.62-1.66-20.43c-0.03-0.43-0.14-0.86-0.17-1.29
	c-0.36-4.65-0.72-9.3-1.07-13.96c-0.07-0.87,0.1-1.8-0.16-2.59c-1.42-4.24-1.02-8.62-1.03-12.95c0-3.29,0.13-6.53-2.07-9.31
	c-0.25-0.32-0.38-0.8-0.42-1.21c-0.39-4.22-0.78-8.44-1.11-12.66c-0.25-3.23-0.19-6.49-0.66-9.68c-0.87-5.81-1.66-11.61-1.6-17.51
	c0.05-5.17-0.86-10.36,0.53-15.5C494.44,120.15,494.42,118.53,494.59,116.95z M619.48,482.56c0.29-0.01,0.58-0.03,0.88-0.04
	c0.15-0.94,0.35-1.87,0.45-2.82c0.87-7.97,1.74-15.95,2.58-23.93c0.08-0.72,0.14-1.67-0.24-2.17c-1.81-2.38-1.08-4.55,0.51-6.5
	c1.38-1.69,2-3.56,2.19-5.66c0.15-1.62,0.23-3.26,0.51-4.86c1.12-6.41,2.35-12.8,3.41-19.21c0.18-1.12-0.1-2.39-0.43-3.51
	c-1.03-3.52-2.53-6.94-3.21-10.52c-0.95-5-1.28-10.11-1.94-15.17c-0.37-2.83-0.46-5.59,0.39-8.37c1.49-4.84,2.49-9.87,4.38-14.54
	c2.85-7,6.07-13.9,12.45-18.62c1.35-1,2.14-2.37,1.46-4.54c-3.39,1.29-7.04,1.51-9.48,4.29c-5.42,6.18-10.9,12.36-13.14,20.58
	c-1.14,4.16-2.51,8.3-3.18,12.55c-0.98,6.21-1.38,12.51-2.12,18.76c-0.59,4.93-0.28,9.89-1.54,14.82
	c-1.09,4.27-1.39,8.81-1.51,13.24c-0.27,9.55-0.8,19.14,0.59,28.65c0.59,4.06,1.49,8.08,2.4,12.08c0.62,2.74,1.44,5.43,2.24,8.13
	C617.86,477.66,618.69,480.1,619.48,482.56z M734.48,257.17c1.2,1.47,2.26,2.54,3.06,3.79c2.47,3.87,5.4,7.05,10.26,7.71
	c0.42,0.06,0.81,0.3,1.22,0.45c6.68,2.44,12.76,5.99,18.51,10.13c1.35,0.97,2.63,2.19,4.94,2.26c0-1.57,0.06-2.96-0.01-4.34
	c-0.37-7.15-1.02-14.3-1.1-21.46c-0.13-11.43-0.63-22.82-1.64-34.2c-0.15-1.73-0.45-3.45-0.7-5.17c-0.26-1.75-0.54-3.49-0.82-5.23
	c-0.22-0.01-0.45-0.02-0.67-0.03c-0.71,2.01-1.33,4.05-2.13,6.02c-3.15,7.74-6.88,15.18-11.86,21.92
	c-4.6,6.23-9.67,11.98-16.52,15.89C736.05,255.46,735.32,256.41,734.48,257.17z M673.35,372.38c1.15-0.76,1.74-1.01,2.15-1.43
	c2.65-2.72,5.53-5.11,8.87-6.98c2.58-1.45,4.4-0.91,5.18,1.92c0.31,1.11,0.38,2.28,0.63,3.9c1.35-0.85,2.45-1.47,3.47-2.2
	c2.28-1.65,4.44-3.48,6.79-5.03c4.05-2.69,8.24-5.17,12.3-7.86c1.53-1.01,2.94-2.24,4.23-3.55c1.19-1.21,0.99-2.12-0.63-2.68
	c-1.73-0.6-3.56-0.98-5.38-1.18c-4.32-0.48-8.65-0.89-12.99-1.17c-5.09-0.33-10.19-0.65-15.29-0.67c-5.1-0.03-10.21,0.25-15.32,0.5
	c-6.55,0.33-12.93,1.63-19.15,3.71c-1.34,0.44-2.05,1.21-2.56,2.62c-1.57,4.24-1.2,8.78-2.23,13.1c-0.24,1,0.11,2.62,0.82,3.26
	c2.33,2.12,1.87,4.37,0.96,6.82c-0.34,0.9-0.73,1.85-0.78,2.79c-0.39,8.58-0.72,17.16-1.02,25.74c-0.03,0.99,0.25,1.99,0.38,2.98
	c1.4-3.32,2.66-6.6,3.15-9.99c0.76-5.26,1.07-10.59,1.45-15.9c0.49-6.93,0.85-13.88,1.28-20.82c0.13-2.12,1.68-3.59,3.54-3.43
	c1.71,0.14,2.39,1.55,2.1,4.04c-0.17,1.43-0.17,2.89-0.25,4.34c0.24,0.1,0.49,0.2,0.73,0.31c0.63-0.65,1.36-1.24,1.88-1.98
	c2.25-3.2,4.77-6.19,7.77-8.69c1.89-1.58,4.05-2.88,6.23-4.04c1.27-0.68,2.77-0.49,3.95,0.61c1.13,1.06,1.57,2.24,0.99,3.81
	c-0.53,1.42-0.96,2.9-1.22,4.39C674.67,363.62,674.09,367.66,673.35,372.38z M723.74,343.63c1.39-2.41,2.92-4.77,4.17-7.28
	c1.45-2.92,0.86-5.48-1.66-7.57c-0.97-0.8-2.21-1.51-3.42-1.75c-3.72-0.73-7.47-1.31-11.24-1.77c-3.88-0.48-7.78-0.79-11.67-1.1
	c-3.67-0.29-7.35-0.75-11.01-0.63c-5.95,0.2-11.94,0.41-17.68,2.4c-0.61,0.21-1.28,0.3-1.92,0.34c-5.39,0.38-9.91,2.93-14.32,5.72
	c-0.93,0.59-1.76,1.37-0.97,2.91c0.6,0.04,1.33,0.13,2.05,0.14c4.23,0.01,8.49-0.31,12.69,0.07c5.83,0.53,11.6,1.58,17.4,2.41
	c4.19,0.6,8.36,1.26,12.55,1.83c3.87,0.52,7.75,1.33,11.66,0.38c2.84-0.68,5.33-0.24,7.6,1.71
	C719.45,342.72,721.12,343.79,723.74,343.63z M816.7,360.28c-4.6-11.86-8.23-23.98-15.63-34.25c-7.31-10.14-13.18-21.49-23.37-29.82
	c-0.3,0.83-0.56,1.21-0.56,1.59c-0.01,4.65-0.35,9.27,0.27,13.95c0.41,3.05,1.41,5.48,3.2,7.88c1.93,2.58,3.41,5.49,5.19,8.19
	c4.23,6.4,8.66,12.66,12.76,19.14c3.58,5.66,8.76,9.51,14.03,13.31C813.69,361.05,815.1,361.65,816.7,360.28z M548.53,683.44
	c2.33-5.24,1.94-10.48,1.93-15.68c0-1.41,0.21-2.82,0.23-4.23c0.07-6.09,0.15-12.17,0.11-18.26c-0.01-1.39-0.36-2.82-0.82-4.15
	c-2.39-6.94-3.31-14.15-4.1-21.38c-0.44-4.1-0.41-8.26-1.02-12.33c-1.33-8.83-1.69-17.72-2.3-26.6c-0.46-6.72-0.9-13.44-1.64-20.14
	c-0.52-4.73-1.58-9.39-2.29-14.1c-0.61-4.06-1.07-8.15-1.62-12.23c-0.02-0.11-0.31-0.19-0.92-0.53c-0.58,18.34-0.05,36.4,1.48,54.59
	c2.33,0.94,2.97,2.85,2.48,5.25c-0.32,1.57-0.8,3.11-1.03,4.69c-0.19,1.27-0.39,2.64-0.1,3.84c0.65,2.73,1.5,5.43,2.47,8.06
	c0.99,2.71,1.41,5.43,1.27,8.3c-0.16,3.26-0.15,6.53-0.13,9.79c0.03,5.75,0.53,11.49-0.96,17.19c-0.46,1.75,0.14,3.87,0.55,5.75
	c0.46,2.07,0.45,3.96-0.15,6.05c-0.54,1.91-0.75,4.13-0.35,6.06c0.98,4.64,2.29,9.23,3.71,13.76
	C546.02,679.32,546.2,681.87,548.53,683.44z M507.12,271.77c-0.3-0.05-0.61-0.1-0.91-0.15c-0.57,1.11-1.33,2.17-1.67,3.35
	c-1.26,4.37-2.67,8.73-3.46,13.2c-0.7,3.93-1.09,8.03-0.8,11.99c0.34,4.7,1.38,9.38,3.61,13.66c0.3,0.57,0.5,1.21,0.66,1.83
	c1.17,4.39,2.34,8.78,3.46,13.18c1.85,7.23,5.1,14.01,6.65,21.34c0.9,4.23,2.05,8.41,3.28,12.56c0.88,2.95,2.1,5.79,3.17,8.68
	c0.55-3.48-0.16-6.72-0.68-10.04c-1.64-10.38-2.83-20.83-4.19-31.25c-0.06-0.43-0.17-0.85-0.25-1.28c-0.7-3.72-1.51-7.42-2.07-11.16
	c-1.06-7.19-1.98-14.4-2.96-21.6c-0.82-6.02-1.62-12.04-2.51-18.04C508.13,275.93,507.57,273.86,507.12,271.77z M510.02,254.49
	c2.51-3.23,4.62-5.96,6.74-8.67c1.74-2.23,2.55-4.69,2.36-7.58c-0.22-3.25-0.11-6.53-0.21-9.79c-0.04-1.3-0.16-2.62-0.43-3.88
	c-0.59-2.73-1.33-5.43-1.97-8.15c-0.49-2.09-1.12-4.18-1.35-6.31c-0.45-4.11-1.22-8.12-2.74-11.98c-1.27-3.22-2.46-6.48-3.91-9.62
	c-0.94-2.05-2.51-3.64-4.94-4.38c-0.11,0.64-0.27,1.06-0.25,1.48c0.3,6.07,0.52,12.16,0.96,18.22c0.42,5.74,1.16,11.45,1.62,17.18
	c0.6,7.47,0.99,14.95,1.62,22.41c0.24,2.79,0.87,5.55,1.4,8.31C509.08,252.53,509.53,253.28,510.02,254.49z M764.64,136.31
	c0-1.07,0.06-2.14-0.01-3.2c-0.54-8.67-1.07-17.34-1.67-26.01c-0.15-2.16-0.72-4.3-0.8-6.46c-0.21-5.62-0.56-11.21-1.08-16.82
	c-0.53-5.71-0.59-11.48-1.72-17.12c-0.47-2.37-1.28-4.79-2.49-6.88c-1.27-2.19-2.84-1.87-3.97,0.46c-2.31,4.75-2.59,9.86-2.27,14.96
	c0.3,4.76,1.01,9.5,1.67,14.23c0.79,5.65,1.59,11.3,3.13,16.82c0.98,3.52,1.76,7.1,2.7,10.63c0.83,3.13,1.51,6.34,2.75,9.31
	c0.73,1.76,1.14,3.45,1.22,5.28C762.2,133.36,762.45,135.14,764.64,136.31z M654.04,403.13c2.14-1.09,3.71-2.05,5.03-3.54
	c2.23-2.53,3.27-5.51,4.05-8.74c1.54-6.41,3.31-12.77,4.99-19.16c0.61-2.31,1.27-4.61,1.82-6.93c0.27-1.15,0.48-2.34,0.46-3.51
	c-0.01-0.77-0.48-1.54-0.74-2.31c-0.86,0.3-2,0.34-2.54,0.93c-2.71,2.95-5.52,5.87-7.79,9.15c-1.76,2.54-3.38,5.48-3.99,8.46
	c-0.99,4.86-2.13,9.77-1.67,14.85c0.22,2.48,0.02,5.01,0.06,7.51C653.72,400.77,653.89,401.69,654.04,403.13z M662.4,463.17
	c0.26,0.14,0.52,0.29,0.79,0.43c1.29-1.53,2.75-2.95,3.83-4.62c4.84-7.52,10.15-14.74,13.24-23.31c2.01-5.58,4.77-10.9,7.21-16.32
	c1.37-3.05,2.76-6.1,4.16-9.14c1.58-3.43,3.2-6.85,4.76-10.29c0.42-0.93,0.69-1.94,1.02-2.91c-0.93,0.04-1.45,0.34-1.82,0.77
	c-0.76,0.9-1.45,1.87-2.16,2.81c-2.26,3.04-5.16,5.8-6.64,9.18c-2.64,6.02-4.85,12.22-8.02,18c-0.15,0.28-0.16,0.64-0.28,0.93
	c-1.13,2.68-2.13,5.42-3.43,8.01c-3.77,7.54-7.68,15.01-11.46,22.54C663,460.45,662.79,461.86,662.4,463.17z M747.49,275.77
	c1.98,4.08,4.52,7.65,7.34,11.02c2.85,3.39,5.67,6.84,8.8,9.96c3.07,3.05,5.02,7.12,8.82,10.02c0.55-4.88,0.72-9.27,0.25-13.73
	c-0.21-2.01-0.77-3.53-2.36-4.68c-4.03-2.92-7.94-6.03-12.15-8.67C755.02,277.69,751.53,276.14,747.49,275.77z M584.06,165.51
	c-5.64,4.69-7.54,11.43-10.02,17.81c-1.4,3.62-2.5,7.38-3.38,11.16c-0.66,2.82-2.4,5.18-2.57,8.28c-0.22,4.04-1.44,8.02-2.24,12.02
	c-0.04,0.21-0.21,0.39-0.26,0.59c-0.26,1.04-0.5,2.08-0.76,3.11c-0.33,1.34-0.61,2.69-1.01,4.01c-0.33,1.07-0.49,2.05,0.35,3.23
	c0.62-0.54,1.32-0.85,1.5-1.36c1.54-4.25,3.08-8.5,4.44-12.8c1.56-4.95,2.82-10,4.43-14.93c1.77-5.42,3.96-10.7,5.64-16.15
	C581.71,175.57,582.79,170.51,584.06,165.51z M638.91,355.87c-4.95,6.6-7.43,14.37-9.89,22.03c-1.81,5.65-0.02,20.06,2.36,23.68
	c0.49-1.78,0.92-3.16,1.24-4.56c0.26-1.16,0.31-2.37,0.57-3.52c0.61-2.64,1.7-5.23,1.88-7.89c0.43-6.44,2.72-12.45,3.78-18.73
	c0.59-3.48,0.51-7.07,0.71-10.61C639.56,356.23,639.4,356.17,638.91,355.87z M790.24,518.42c7.15-12.11,7.22-44.72,3.89-56.02
	C789.68,481.02,789.95,499.51,790.24,518.42z M555.03,273.88c-4.34,8.32-20.02,58.95-19.74,63.5c1.02-1.74,1.98-3.05,2.6-4.51
	c2.01-4.79,4.12-9.55,5.76-14.46c3.5-10.44,6.83-20.95,10.03-31.49C554.97,282.71,556.04,278.39,555.03,273.88z M536.11,715.78
	c-0.42,7.54-0.07,14.19,1.52,20.76c0.26,1.09,1.06,1.53,2.19,1.53c2.06,0,2.75-0.58,2.74-3.04c-0.01-3.01,0.88-5.34,4.03-6.16
	c1.82-0.48,2.4-1.66,2.36-3.37c-0.02-0.76-0.03-1.52-0.04-2.28c-0.04-3.27-0.07-3.11-3.44-3.61
	C542.29,719.13,538.57,720.03,536.11,715.78z M554.75,586.68c0.35-0.08,0.7-0.16,1.04-0.24c-0.21-1.9-0.36-3.81-0.64-5.7
	c-0.27-1.81-0.68-3.6-1.01-5.4c-0.19-1.06-0.31-2.14-0.52-3.2c-0.66-3.39-1.37-6.77-2.02-10.16c-0.6-3.14-1.76-6.04-3.68-8.73
	c-0.46,2.67-0.84,5.32-0.61,7.91c0.42,4.74,1.14,9.46,1.85,14.16C549.83,579.71,552,583.36,554.75,586.68z M558.45,611.71
	c0.32,0.06,0.63,0.11,0.95,0.17c1.1-2.93,2.03-5.94,3.34-8.77c1.4-3,1.05-6.11,1.18-9.21c0.11-2.59-0.09-5.19,0.1-7.77
	c0.3-4.12,0.83-8.22,1.22-12.33c0.04-0.45-0.19-0.93-0.35-1.62c-1.93,2.51-4.05,7.85-3.88,11.46c0.31,6.61-1.6,12.93-2.07,19.42
	C558.74,605.95,558.62,608.83,558.45,611.71z M541.32,687.67c-0.15-0.03-0.3-0.05-0.45-0.08c0,1.02-0.33,2.19,0.06,3.02
	c1.13,2.38,0.97,4.87,1.03,7.34c0.07,2.93-0.13,5.86-0.04,8.78c0.05,1.79,0.41,3.58,0.64,5.49c2.06,0,3.72,0,5.72,0
	c-0.24-3.17,1.33-6.22-1.47-8.76c-0.4-0.36-0.36-1.21-0.52-1.83c-0.48-1.88-0.8-3.81-1.47-5.61
	C543.78,693.2,542.5,690.45,541.32,687.67z M699.33,377.69c-0.19-0.23-0.38-0.46-0.57-0.68c-1.2,0.86-2.49,1.61-3.59,2.59
	c-6.06,5.37-12.12,10.74-18.07,16.24c-1.63,1.51-2.21,3.65-1.93,6.03C683.34,393.85,691.88,386.3,699.33,377.69z M647.28,490.28
	c0.2,0.1,0.4,0.2,0.59,0.3c4.97-5.07,9.68-10.35,13.39-16.5c-2.27,1.63-4.34,3.44-6.21,5.44c-1.88,2.02-3.83,3.48-6.78,2.62
	c-0.22-0.06-0.55,0.25-0.99,0.46C647.28,485.15,647.28,487.72,647.28,490.28z M549.31,590.01c-0.23,0.08-0.46,0.16-0.68,0.24
	c-0.58,7.04,0.9,13.8,3.04,20.52c0.44-0.48,0.66-0.96,0.67-1.44c0.05-2.25-0.38-4.61,0.15-6.73c0.96-3.82-0.39-7-1.88-10.24
	C550.23,591.55,549.74,590.8,549.31,590.01z M672.62,416.45c5.76-4.81,10.53-10.07,13.48-16.85c-0.7,0.1-1.34,0.28-1.74,0.7
	c-3.94,4.18-7.85,8.38-11.75,12.6C671.71,413.88,671.52,414.98,672.62,416.45z M718.05,261.84c0.03,0.3,0.05,0.59,0.08,0.89
	c4.23,0.55,8.46,1.1,12.67,1.65c0.36-2.27-1.07-2.48-2.27-2.92C724.92,260.13,721.47,260.77,718.05,261.84z M664.56,414.95
	c2.21-2.91,2.66-6.2,3.31-9.72c-3.58,0.16-4.05,2.76-4.68,4.89C662.72,411.73,662.17,413.76,664.56,414.95z M659.72,341.23
	c-3.35-0.67-6.64-0.46-9.88,0.38c-0.53,0.14-0.87,1.01-1.36,1.62C651.33,344.33,655.92,343.58,659.72,341.23z M657.56,444.88
	c-3.79,3.81-5.45,8.76-4.2,12.33C654.87,452.76,656.22,448.82,657.56,444.88z M555.95,722.56c-1.79,2.25-1.95,4.03-0.7,5.77
	c0.39,0.55,1.39,0.9,2.09,0.88c0.34-0.01,1.03-1.24,0.88-1.69C557.7,725.95,556.87,724.5,555.95,722.56z M657.72,433.18
	c0.27,0.23,0.53,0.46,0.8,0.69c1.79-1.53,3.98-2.76,3.52-6.01C660.6,429.63,659.16,431.4,657.72,433.18z M639,415.83
	c-0.28-0.01-0.56-0.02-0.84-0.03c-0.15,2.68-0.3,5.36,0.19,8.02c0.22-0.01,0.44-0.01,0.65-0.02C639,421.14,639,418.49,639,415.83z"
	/>
<path d="M496.49,502.81c-0.4-0.93-0.8-1.48-0.87-2.06c-0.91-7.57-4.55-13.9-8.85-19.98c-2.62-3.7-5.04-7.54-7.57-11.3
	c-0.11-0.16-0.36-0.22-0.54-0.32c-0.2,0.06-0.55,0.08-0.58,0.19c-0.86,3.24-3.03,6.33-1.13,9.9c0.19,0.36,0.16,0.85,0.17,1.28
	c0.1,4.37,1.3,8.54,2.39,12.72c0.05,0.21,0.12,0.42,0.16,0.63c0.54,2.97,1.13,5.92,1.6,8.9c1.49,9.44,2.94,18.88,4.41,28.32
	c0.72,4.61,1.39,9.23,2.18,13.83c0.4,2.33,0.78,4.71,1.58,6.93c1.81,5.02,1.32,10.04,0.45,15.09c-0.68,3.95-1.44,7.89-2.25,11.82
	c-0.3,1.47-0.9,2.88-1.25,4.34c-0.9,3.79-1.74,7.59-2.61,11.38c-0.74,3.22-2.79,4.91-5.86,6.26c-6.21,2.73-12.69,3.39-19.3,4.12
	c-7.32,0.81-14.59,0.42-21.81-0.24c-4.47-0.41-8.88-2.03-13.18-3.5c-7.28-2.49-13.39-7.08-19.52-11.58
	c-4.1-3.01-8.08-6.17-12.16-9.2c-7.57-5.63-15.16-11.21-22.74-16.82c-0.35-0.26-0.64-0.75-1.01-0.8c-3.86-0.57-6.26-3.22-8.62-5.94
	c-0.35-0.4-0.98-0.59-1.25-1.02c-2.07-3.2-5.83-3.66-8.46-5.29c-0.3-1.67-0.57-3.16-0.94-5.18c-1.78,1.94-3.21,3.5-4.76,5.2
	c0.78,0.99,1.41,1.8,2.07,2.64c-1.72,1.39-2.05-0.48-3.01-1c-2.23,1.25-1.92,5.13-5.34,5.52c-0.79-2.58-0.71-4.84,0.58-7.02
	c-0.58-0.48-1.15-0.95-1.56-1.29c-0.02-5.01,4.36-7.91,5.39-12.4c-0.5-1.75-2.14-2.15-3.9-2.52c0.74-2.65,0.15-4.65-1.94-6.18
	c-0.48-0.35-0.6-1.15-0.97-1.67c-1.49-2.08-2.27-4.6-4.32-6.38c-0.88-0.77-1.06-2.31-1.65-3.45c-3.16-6.14-6.16-12.38-9.59-18.37
	c-1.92-3.35-4.47-6.36-6.9-9.39c-2.94-3.67-4.45-7.99-5.36-12.41c-0.64-3.13-0.2-6.5-0.13-9.77c0.05-2.38,0.31-4.76,0.45-7.14
	c0.24-4.24,0.34-8.48,0.72-12.71c0.22-2.36,1-4.66,1.34-7.01c0.72-5.03,1.17-10.11,2.01-15.12c0.5-2.97,1.45-5.87,2.34-8.76
	c2.18-7.14,5.68-13.71,9.12-20.29c1.39-2.65,2.13-5.39,1.95-8.43c-0.15-2.71-0.08-5.45,0.08-8.16c0.32-5.41,1.04-10.78,2.63-15.99
	c1.26-4.14,2.38-8.33,3.89-12.36c1.83-4.87,4.79-9.04,8.31-12.94c2.79-3.09,5.77-5.89,9.03-8.39c3.7-2.83,7.54-5.47,11.46-7.98
	c2.17-1.39,4.67-2.25,6.95-3.47c4.96-2.66,10.32-2.49,15.63-2.05c2.09,0.17,4.22,1.06,6.12,2.04c2.77,1.44,5.44,3.14,7.99,4.94
	c4.22,2.98,9.06,4.64,13.67,6.78c1.87,0.87,3.83,1.68,5.44,2.92c1.22,0.94,2.2,2.41,2.85,3.85c2.11,4.71,3.84,9.6,6.07,14.25
	c2.24,4.68,5.36,8.8,8.6,12.9c4.89,6.18,9.54,12.62,13.65,19.34c3.25,5.31,5.78,11.11,8.17,16.88c1.84,4.46,2.95,9.22,4.42,13.84
	c0.92,2.87,1.97,5.7,2.84,8.59c0.84,2.78,1.47,5.62,2.29,8.4c1.39,4.66,2.9,9.28,4.29,13.93c1.7,5.67,5.45,10.22,8.29,15.26
	c2.33,4.14,4.86,8.18,7.4,12.19c1.91,3.01,4.04,5.88,6,8.87c3.06,4.65,5.37,9.65,6.42,15.14
	C498.54,499.17,498.18,500.66,496.49,502.81z M414.07,348.63c-0.65-1.39-0.78-1.96-1.11-2.34c-4.42-5.04-8.81-10.11-13.35-15.04
	c-0.73-0.8-2.08-1.29-3.21-1.41c-3.67-0.4-7.36-0.71-11.05-0.73c-1.26-0.01-2.69,0.72-3.77,1.51c-3.48,2.53-6.88,5.17-10.21,7.89
	c-3.35,2.74-6.69,5.5-9.83,8.47c-2.9,2.76-5.42,5.92-8.29,8.72c-5.58,5.45-9.71,11.91-12.91,18.92c-1.94,4.25-4.12,8.29-6.69,12.18
	c-2.52,3.82-4.18,7.95-4.25,12.72c-0.03,2.14-1.18,4.32-2.09,6.36c-0.33,0.73-1.39,1.32-2.24,1.59c-1.15,0.36-1.9,0.91-2.3,2.05
	c-0.57,1.62-1.17,3.23-1.85,4.81c-2.73,6.24-3.79,12.83-4.31,19.55c-0.1,1.29-0.38,2.57-0.65,3.84c-0.65,3.05-1.73,6.06-1.96,9.13
	c-0.61,8.02-1.08,16.06-1.19,24.1c-0.08,6.23,1.94,11.92,6.13,16.7c0.64,0.73,1.16,1.57,1.64,2.42c4.3,7.6,8.47,15.27,12.89,22.8
	c2.78,4.74,5.58,9.55,8.97,13.85c4.67,5.93,9.99,11.34,14.87,17.11c4.63,5.47,9.69,10.53,15.12,15.16
	c4.45,3.79,9.33,7.08,14.03,10.58c2.7,2.01,5.41,4,8.12,5.98c4.11,3,8.26,5.97,12.35,9c4.17,3.09,8.04,6.63,12.93,8.64
	c1.3,0.54,2.75,0.84,3.92,1.57c5.09,3.15,10.76,4.01,16.54,4.18c5.63,0.16,11.28-0.37,16.89-0.02c6.09,0.38,11.62-1.26,17.11-3.43
	c1.85-0.73,3.56-1.72,4.21-3.79c0.87-2.76,1.81-5.52,2.46-8.33c0.71-3.06,1.16-6.19,1.68-9.3c0.81-4.91,1.65-9.81,2.35-14.74
	c0.25-1.8,0.41-3.69,0.13-5.47c-1.28-8.14-2.73-16.26-4.14-24.38c-0.37-2.14-1.05-4.24-1.21-6.38c-0.48-6.61-1.04-13.19-2.72-19.62
	c-0.86-3.29-1.01-6.99-4.72-8.77c-0.25-0.12-0.35-0.53-0.56-0.78c-3.04-3.66-6.07-7.34-9.14-10.97c-0.54-0.64-1.25-1.49-1.95-1.56
	c-2.74-0.28-3.85-2.08-4.76-4.31c-0.73-1.8-1.6-3.55-2.51-5.27c-0.71-1.34-1.58-2.59-2.37-3.88c-0.25,0.08-0.51,0.16-0.76,0.25
	c-0.15,1.81-0.43,3.62-0.44,5.43c-0.04,6.07-0.7,12.15,0.94,18.18c0.78,2.87,0.52,6.05-1.24,8.51c-1.55,2.16-1.82,4.33-1.71,6.75
	c0.21,4.95-0.76,9.75-2.22,14.41c-2.45,7.84-5.1,15.61-7.78,23.38c-0.8,2.33-1.56,4.76-3.88,6.23c-2.36,1.5-4.72,1.24-7.16,0.32
	c-11.17-4.2-21.97-9.07-31.54-16.38c-5.85-4.47-11.89-8.71-17.79-13.12c-0.83-0.62-1.44-1.6-2.03-2.49
	c-0.83-1.26-1.63-2.55-2.29-3.9c-1.56-3.19-3.36-6.32-4.43-9.67c-1.01-3.16-1.18-6.59-1.77-9.89c-0.69-3.84-1.71-7.65-2.08-11.52
	c-1.03-10.66,0.66-21.24,1.39-31.85c0.04-0.64,0.4-1.24,0.52-1.88c0.65-3.49,1.39-6.97,1.87-10.48c0.64-4.62,1.03-9.28,1.6-13.91
	c1.02-8.41,2.33-16.79,2.24-25.29c-0.04-3.5,0.26-6.84,1.38-10.23c1.56-4.71,2.98-9.45,5.01-14c1.93-4.34,4.22-8.43,6.96-12.33
	c3.24-4.6,6.09-9.48,9.22-14.17c0.56-0.84,1.51-1.72,2.44-1.97c3.91-1.04,7.86-1.67,11.88-0.29
	C410.64,348.43,412.05,348.38,414.07,348.63z M434.52,470.32c-1.7,4.48-2.13,13.89-1.06,18.41c0.42,1.79,0.65,3.63,0.95,5.46
	c0.24,1.49-0.27,2.66-1.76,3.06c-1.44,0.38-2.56-0.33-3.12-1.69c-0.33-0.78-0.49-1.64-0.68-2.47c-0.2-0.84-0.17-1.78-0.55-2.53
	c-1.59-3.19-2.95-6.57-5.01-9.44c-3.8-5.25-6.26-11.17-8.55-17.07c-2.78-7.13-4.91-14.56-6.66-22.02
	c-1.25-5.33-2.94-10.66-2.86-16.25c0-0.32-0.1-0.64-0.18-0.96c-1.32-4.93-2.11-9.95-2.23-15.05c-0.14-5.77-0.17-11.54-0.05-17.31
	c0.06-2.81,0.54-5.61,0.9-8.4c0.54-4.2,0.85-8.45,1.77-12.57c1.13-5.08,1.69-10.58,6.92-13.69c1.19-0.71,1-1.84-0.29-2.49
	c-0.67-0.34-1.43-0.65-2.16-0.68c-2.72-0.1-5.44-0.11-8.16-0.08c-0.5,0.01-1.12,0.21-1.49,0.55c-1.84,1.66-3.98,3.15-5.35,5.15
	c-3.3,4.8-6.25,9.85-9.31,14.82c-0.5,0.81-0.92,1.7-1.24,2.6c-1.45,4.06-3.65,7.84-4.35,12.19c-0.58,3.61-1.61,7.17-2.01,10.79
	c-0.75,6.8-1.08,13.65-1.79,20.45c-0.55,5.28-1.49,10.51-2.11,15.79c-0.28,2.37,0.08,4.84-0.38,7.16
	c-1.04,5.19-2.29,10.33-2.59,15.65c-0.21,3.68-0.88,7.34-0.98,11.02c-0.13,4.45-0.13,8.94,0.3,13.37c0.39,4.08,1.57,8.07,2.13,12.14
	c1.02,7.45,3.61,14.11,8.65,19.82c5.61,6.37,12.58,10.97,19.55,15.58c1.81,1.2,3.58,2.44,5.41,3.61c1.62,1.03,3.22,2.11,4.94,2.96
	c3.59,1.77,7.21,3.52,10.91,5.03c2.39,0.97,4.95,1.51,7.45,2.2c1.54,0.43,2.6-0.37,3.12-1.68c1.4-3.52,2.81-7.05,3.94-10.66
	c1.36-4.33,2.37-8.77,3.68-13.12c1.6-5.3,3.3-10.55,3.05-16.2c-0.08-1.95-0.05-3.93,0.15-5.87c0.17-1.7-0.15-3.14-1-4.64
	c-2.36-4.18-3.61-8.76-4.59-13.46C437.15,476.68,436.78,473.37,434.52,470.32z M329.9,379.46c0.29,0.16,0.58,0.33,0.87,0.49
	c0.27-0.47,0.53-0.93,0.8-1.4c1.91-3.38,4.04-6.66,5.68-10.16c2.99-6.36,7.15-11.87,12.01-16.81c4.86-4.94,10.04-9.56,15.12-14.28
	c1.26-1.17,2.65-2.22,4.02-3.28c2.98-2.33,6.14-4.48,8.94-7.01c2.63-2.37,5.02-4.93,9-4.96c-0.47-0.42-0.84-0.64-1.23-0.76
	c-6.78-2.2-13.18-0.6-19.25,2.34c-7.99,3.86-14.86,9.35-20.91,15.82c-2.14,2.29-4.58,4.55-5.9,7.3c-2.55,5.32-4.71,10.89-6.46,16.52
	c-1.37,4.41-1.93,9.08-2.77,13.65C329.65,377.73,329.86,378.61,329.9,379.46z M436.64,417.76c0.28-0.73,0.63-1.16,0.55-1.49
	c-0.76-3.35,0.3-6.97-1.56-10.17c-0.31-0.52-0.35-1.26-0.34-1.9c0.12-6.34-0.98-12.51-2.35-18.66c-0.56-2.52-0.97-5.07-1.52-7.59
	c-0.39-1.77-0.84-3.54-1.36-5.28c-0.39-1.32-0.84-2.65-1.43-3.89c-1.19-2.53-2.33-5.09-3.78-7.47c-0.99-1.63-2.64-2.49-4.86-1.87
	c-0.38,2.34-0.08,4.49,0.6,6.73c1.18,3.93,2.08,7.95,3.05,11.94c0.61,2.52,1.02,5.1,1.73,7.6c0.98,3.48,1.3,7.18,3.41,10.29
	c0.16,0.24,0.12,0.63,0.14,0.96c0.16,3.15,1.17,6.07,2.29,8.98c0.73,1.89,0.91,4.02,1.75,5.84
	C433.88,413.76,434.11,416.23,436.64,417.76z M451.85,438.41c-0.21,0.12-0.43,0.24-0.64,0.36c5.07,16.46,10.36,32.82,21.51,47.26
	c0.22-1.07,0.43-1.48,0.36-1.84c-0.74-3.82-1.33-7.68-2.34-11.43c-0.81-3-1.67-6.14-3.3-8.71c-4.39-6.95-8.86-13.83-12.69-21.11
	C453.91,441.36,452.82,439.92,451.85,438.41z M456.08,418.78c0.25-0.1,0.5-0.21,0.75-0.31c-0.05-0.41-0.03-0.84-0.16-1.22
	c-1.82-5.53-3.64-11.06-5.49-16.58c-2.24-6.7-5.24-13.04-9.26-18.85c-0.89-1.28-2.09-2.33-3.16-3.49c-0.2,0.11-0.4,0.22-0.6,0.33
	c0.81,7.33,1.63,14.65,2.4,21.59c0.63,0.39,0.71,0.48,0.81,0.5c0.42,0.09,0.85,0.15,1.27,0.23c4.01,0.74,7.43,2.16,8.66,6.63
	c0.6,2.18,1.55,4.28,2.45,6.37C454.44,415.61,455.29,417.18,456.08,418.78z M444.79,465.48c0.27-0.09,0.54-0.18,0.8-0.28
	c0.18-3.72,0.88-7.5-0.3-11.14c-1.43-4.41-3.23-8.71-5.05-12.98c-0.44-1.05-0.71-2.59-2.42-2.8c-1.51,1.9-1.17,3.96-0.68,5.94
	c0.57,2.3,1.36,4.55,2.07,6.82c1.23,3.92,2.42,7.85,3.76,11.73C443.33,463.77,444.18,464.59,444.79,465.48z M422.37,448.61
	c0.31-0.05,0.63-0.1,0.94-0.15c-0.82-15.04-4.72-29.57-7.75-44.24c-0.17-0.84-0.78-1.6-1.19-2.4c-0.35,8.08,1.63,15.71,2.9,23.41
	C418.57,433.09,420.64,440.82,422.37,448.61z"/>
<path d="M375.31,773.3c-1.38,2.4-2.12,4.62-0.51,7.05c-2.11,1.11-3.94,1.03-5.56,0.1c-0.8-0.45-1.51-1.57-1.7-2.5
	c-0.71-3.49-1.16-7.03-1.77-10.54c-1.25-7.28-3.4-14.32-6.03-21.2c-1.27-3.33-2.85-6.54-4.26-9.81
	c-3.38-7.85-6.71-15.72-10.13-23.55c-1.21-2.77-2.62-5.45-3.94-8.17c-1.93-3.98-3.89-7.95-5.75-11.96
	c-0.68-1.46-1.04-3.07-1.66-4.57c-4.53-10.89-9.8-21.42-15.47-31.77c-3.22-5.88-6.6-11.7-9.37-17.8
	c-3.56-7.81-8.26-14.94-12.45-22.38c-1.52-2.7-3.79-4.98-5.67-7.5c-2.12-2.85-4.48-5.59-4.61-9.45c-0.03-0.84-0.54-1.66-0.65-2.51
	c-0.36-2.78-0.63-5.57-0.95-8.35c-0.23-2.03-0.55-4.05-0.73-6.08c-0.18-2.05-0.17-4.12-0.38-6.17c-0.21-2.02-0.61-4.03-0.89-6.04
	c-0.12-0.85-0.46-1.89-0.12-2.53c1.69-3.22,0.97-6.65,0.89-9.95c-0.14-5.53-0.6-11.06-1.22-16.56c-0.26-2.34-1.1-4.65-1.93-6.88
	c-2.12-5.68-4.44-11.29-6.57-16.96c-1.55-4.13-2.89-8.35-4.42-12.49c-1.43-3.85-3.03-7.63-4.48-11.47
	c-1.54-4.08-2.71-8.25-2.79-12.67c-0.05-2.71-0.48-5.42-0.48-8.14c0-4.78,1.07-9.42,2.01-14.09c1.83-9.05,5.3-17.57,8.17-26.29
	c2.73-8.28,5.41-16.58,7.96-24.92c1.77-5.77,3.58-11.56,4.81-17.46c0.72-3.46,0.19-7.17,0.47-10.74c0.46-5.72,1.25-11.4,2.07-17.09
	c1.09-7.54,3.77-14.69,4.63-22.26c0.36-3.15,1.93-6.15,2.72-9.28c1.32-5.25,2.45-10.54,3.68-15.81c1.11-4.74,2.25-9.46,3.36-14.2
	c0.15-0.63,0.23-1.28,0.35-1.92c1.27-6.71,2.55-13.42,3.8-20.14c0.57-3.08,0.89-6.21,1.63-9.24c1.6-6.5,1.9-13.25,4.54-19.58
	c2.06-4.93,3.02-10.31,4.48-15.49c0.18-0.62,0.37-1.25,0.62-1.84c2.67-6.25,5.62-12.39,7.97-18.76c2.22-6.01,5.22-11.59,8.34-17.12
	c2.43-4.31,5.58-7.92,10.62-9.44c1.64-0.5,3.18-1.41,4.68-2.3c7.2-4.26,14.86-7.58,22.53-10.85c7.69-3.28,15.47-6.32,22.69-10.64
	c3.06-1.83,6.47-3.08,9.77-4.51c3.97-1.72,7.99-3.34,11.98-5.04c1.85-0.78,3.21-2.08,4.2-3.86c0.42-0.76,1.24-1.31,2.4-1.63
	c-0.13,0.69-0.16,1.43-0.42,2.07c-0.52,1.31-1.43,2.51-1.7,3.85c-0.54,2.75-2.46,3.89-4.75,4.83c-4.22,1.72-8.47,3.39-12.6,5.31
	c-3.43,1.59-6.63,3.65-10.05,5.24c-5.68,2.65-10.95,6.19-17.08,7.85c-1.04,0.28-2.03,0.79-3,1.27c-6.49,3.22-13,6.39-19.43,9.72
	c-3.56,1.84-7.27,3.59-10.41,6.03c-3.93,3.04-7.17,6.9-9.25,11.53c-2.02,4.5-4.08,9-5.9,13.58c-2.14,5.39-4.12,10.85-6.02,16.32
	c-2.16,6.19-4.29,12.39-6.16,18.67c-0.82,2.75-1.3,5.64-1.84,8.48c-1.03,5.36-1.07,10.91-3.17,16.1c-0.92,2.27-1.16,4.83-1.58,7.28
	c-0.97,5.54-1.75,11.12-2.81,16.65c-1.04,5.41-2.32,10.78-3.49,16.17c-0.6,2.74-1.06,5.51-1.81,8.2c-1,3.61-2.22,7.17-3.35,10.75
	c-0.16,0.51-0.4,1.02-0.45,1.55c-0.59,5.84-2.54,11.38-3.68,17.09c-0.95,4.76-1.53,9.59-2.14,14.41c-0.38,3.01-0.63,6.05-0.74,9.08
	c-0.18,4.69-0.62,9.29-2.21,13.78c-0.82,2.32-1,4.87-1.57,7.29c-0.44,1.88-1.04,3.72-1.57,5.57c-0.78,2.69-1.53,5.38-2.36,8.05
	c-1.07,3.49-2.19,6.97-3.32,10.44c-2,6.15-4.01,12.3-6.04,18.45c-0.27,0.81-0.71,1.56-0.98,2.36c-3.37,10.23-6.12,20.51-5.44,31.5
	c0.35,5.6,1.31,10.86,3.55,16.03c2.74,6.31,5.07,12.8,7.49,19.24c3.22,8.58,6.45,17.16,9.45,25.81c0.65,1.88,0.28,4.1,0.44,6.16
	c0.28,3.57,0.68,7.13,0.88,10.71c0.16,2.92,0.36,5.87,0.06,8.76c-0.79,7.64,0.04,15.15,1.3,22.66c0.14,0.85,0.16,1.73,0.16,2.6
	c0.06,6.4,1.92,12.02,6.36,16.87c2.15,2.35,3.73,5.29,5.27,8.13c5.63,10.43,11.13,20.94,16.7,31.41c3.1,5.83,6.3,11.61,9.31,17.48
	c1.97,3.86,3.72,7.83,5.51,11.78c4.06,8.97,8.1,17.96,12.11,26.95c1.8,4.03,3.46,8.11,5.26,12.14c1.11,2.47,2.4,4.86,3.54,7.31
	c1.77,3.82,3.52,7.66,5.22,11.51c2.02,4.56,4.09,9.1,5.93,13.72c1.31,3.3,2.26,6.75,3.43,10.11c1.06,3.06,2.2,6.09,3.3,9.13
	c0.15,0.4,0.48,0.83,0.43,1.19C372.17,769.75,373.07,771.81,375.31,773.3z"/>
</svg>
