<?xml version="1.0" encoding="utf-8"?>
<!-- Generator: Adobe Illustrator 24.1.0, SVG Export Plug-In . SVG Version: 6.00 Build 0)  -->
<svg version="1.1" id="Layer_1" xmlns="http://www.w3.org/2000/svg" xmlns:xlink="http://www.w3.org/1999/xlink" x="0px" y="0px"
	 viewBox="0 0 1224 792" style="enable-background:new 0 0 1224 792;" xml:space="preserve">
<path d="M703.82,768.94c2.93-4.6,5.95-9.15,8.75-13.82c0.92-1.53,1.51-3.35,1.9-5.11c2.29-10.43,4.16-20.9,4.13-31.66
	c-0.01-4.77,0.47-9.55,0.99-14.3c0.13-1.23,1.08-2.48,1.92-3.5c2.75-3.34,5.62-6.58,8.43-9.88c0.36-0.42,0.75-0.95,0.81-1.47
	c0.53-4.67,4.19-6.9,7.14-9.87c4.93-4.95,9.1-10.65,14-15.64c5.98-6.1,9.85-13.58,14.4-20.62c1.77-2.74,3.27-5.87,2.86-9.53
	c-0.14-1.2,0.52-2.7,1.26-3.74c4.36-6.15,9.11-12.03,13.22-18.34c2.81-4.31,4.81-9.15,7.1-13.78c0.27-0.55,0.13-1.3,0.23-2.58
	c-3.55,2.01-5.93,4.47-8.26,6.99c-5.43,5.89-10.03,12.34-13.97,19.34c-4.45,7.91-11.61,13.62-17.53,20.35
	c-7.21,8.19-16.72,12.6-25.86,17.77c-12.94,7.32-25.96,14.53-38.55,22.41c-8.41,5.27-16.17,11.57-24.12,17.55
	c-1.55,1.17-3.12,1.95-4.46,0.59c-0.88-0.89-1.52-2.96-1.09-4.04c1.44-3.6,2.85-7.47,5.31-10.35c3.05-3.58,6.98-6.47,10.79-9.31
	c5.38-4.01,10.88-7.89,16.57-11.45c5.35-3.35,11.05-6.13,16.51-9.3c5.67-3.28,11.25-6.74,16.88-10.09c1.43-0.85,2.85-1.78,4.39-2.39
	c6.1-2.43,10.12-7.38,14.62-11.78c4.89-4.78,9.98-9.36,14.77-14.24c1.38-1.4,2.42-3.42,2.9-5.33c0.5-2.04,1.45-3.41,2.87-4.9
	c2.79-2.92,5.6-5.97,7.63-9.43c5.54-9.43,11.83-18.29,18.88-26.62c3.89-4.59,7.9-9.08,11.99-13.49c1.89-2.04,2.96-4.11,3.21-7.03
	c0.7-8.1,1.93-16.02,5.2-23.71c4.05-9.51,7.69-19.25,9.8-29.48c0.82-4,2.52-7.8,3.6-11.76c0.39-1.44,0.24-3.05,0.17-4.58
	c-0.16-3.65,0.36-6.86,3.49-9.44c1.26-1.03,1.72-3.09,2.41-4.74c3.87-9.32,2.31-18.75,0.44-28.17c-3.65-4.56-3.05-9.96-3.24-15.29
	c-0.11-3.03-1.1-6.06-1.91-9.02c-1.33-4.86-1.21-9.75-0.6-14.67c0.03-0.28,0.12-0.56,0.13-0.84c0.51-14.48,2-28.95,0.66-43.46
	c-0.09-0.97-0.47-1.91-0.6-2.88c-0.32-2.45-0.57-4.92-0.85-7.38c0.29-0.11,0.59-0.22,0.88-0.33c0.68,0.93,1.76,1.78,1.97,2.8
	c2.3,11.12,4.73,22.2,4.33,33.71c-0.37,10.39-0.28,20.79-0.1,31.19c0.04,2.52,1.25,5.02,1.96,7.64c5.96-2.97,8.98-8.6,8.35-14.25
	c-1.45-12.98-2.63-25.99-4.23-38.96c-1.14-9.19-2.8-18.31-4.21-27.46c-0.13-0.83-0.14-1.68-0.22-2.52
	c-0.74-7.12-1.2-14.28-2.34-21.33c-0.89-5.5-2.68-10.84-3.96-16.28c-0.35-1.48-0.41-3.06-0.43-4.59
	c-0.06-5.36-0.04-10.82-2.22-15.78c-1.96-4.46-4.36-8.82-7.14-12.81c-3.6-5.16-7.69-9.99-11.73-14.83
	c-6.14-7.37-11.11-15.52-15.7-23.87c-2.89-5.26-5.08-10.91-7.52-16.41c-1.76-3.97-3.65-7.91-5.03-12.02
	c-1.87-5.56-3.41-11.24-4.91-16.92c-1.35-5.15-2.26-10.42-3.72-15.54c-1.61-5.65-5.25-10.35-9.04-14.55
	c-5.37-5.96-10.27-12.23-14.85-18.75c-2.46-3.5-4.19-7.37-4.74-11.91c-0.69-5.69-2.14-11.35-3.89-16.83
	c-1.06-3.31-3.42-6.16-6.78-7.76c-3.68-1.75-7.26-3.89-11.13-4.99c-7.1-2.02-13.66-5.37-20.6-7.75c-4.48-1.54-4.79-1.44-5.94,3.27
	c-0.45,1.83-0.83,3.67-1.24,5.5c-0.32-0.04-0.64-0.09-0.96-0.13c0-2.17,0-4.34,0-6.51c0.01-3.87-0.84-4.56-4.75-4.65
	c-3.74-0.09-6.21,2.03-8.66,4.83c-0.06-4.61,2.9-8.41,7.28-9.78c1.07-0.33,2.27-0.8,3.3-0.61c3.63,0.68,4.84-1.63,5.3-4.36
	c0.64-3.73,1.03-7.54,1.11-11.32c0.02-1.06-1.18-2.57-2.23-3.15c-2.2-1.22-4.6-2.2-7.03-2.82c-3.81-0.98-6.86-3.11-9.87-5.47
	c-1.15-0.9-2.61-1.75-4.01-1.91c-8.04-0.88-16.03-0.16-23.99,1.08c-4.58,0.71-9.18,1.73-13.78,1.77c-5.63,0.05-10.96,1.12-16.01,3.3
	c-9.67,4.16-19.41,8.24-28.73,13.09c-17.94,9.35-35.69,19.07-53.34,28.95c-7.2,4.03-14.16,8.59-20.85,13.44
	c-11,7.98-21.91,16.13-32.43,24.74c-5.61,4.59-10.32,10.28-15.42,15.49c-6.84,7-13.77,13.92-20.48,21.05
	c-9,9.58-18.87,18.31-26.96,28.81c-5.86,7.62-12.78,14.43-19.11,21.7c-1.63,1.87-2.71,4.2-4.23,6.17c-0.87,1.12-2.12,1.95-3.2,2.91
	c0,0,0.08,0.13,0.08,0.13c-1.27-4.08,1.16-7.08,3.32-9.88c4.28-5.55,8.52-11.21,13.47-16.11c4.56-4.52,8.57-9.49,12.95-14.14
	c7.3-7.74,14.65-15.43,22.05-23.07c6.11-6.32,12.36-12.51,18.48-18.82c3.5-3.61,6.97-7.24,10.26-11.04
	c4.55-5.25,10.17-9.22,15.58-13.44c6.31-4.91,12.76-9.65,19.18-14.41c3.69-2.74,7.28-5.68,11.23-7.99
	c11.26-6.57,22.69-12.85,34.04-19.28c5.49-3.12,10.91-6.37,16.41-9.48c3.78-2.14,7.61-4.18,11.45-6.2c4.84-2.55,9.61-5.28,14.6-7.52
	c9.23-4.15,18.58-8.01,27.91-11.94c0.89-0.37,1.93-0.4,2.91-0.52c11.48-1.32,22.95-2.8,34.45-3.84c4.6-0.41,9.29,0,13.92,0.34
	c4.74,0.35,4.73,0.51,5.15,5.54c3.87,1.23,7.88,2.47,11.87,3.78c2.57,0.84,4.35-0.19,5.84-3.24c1,3.97,1.95,6.97,2.49,10.05
	c0.82,4.7,1.49,9.44,1.99,14.19c0.46,4.38,2.06,7.77,6.38,9.57c6.6,2.75,13.11,5.7,19.71,8.43c6.47,2.67,11.18,6.87,12.85,13.91
	c1.07,4.49,2.06,9,3.11,13.5c1.44,6.18,3.13,12.22,8.13,16.68c0.81,0.72,1.19,1.9,1.85,2.81c1.89,2.59,3.6,5.37,5.79,7.68
	c6.35,6.68,11.79,13.85,13.92,23.03c1.46,6.33,3.22,12.64,3.96,19.07c0.57,4.95,2.81,9.12,4.55,13.5
	c3.62,9.11,7.69,18.03,11.76,26.95c1.16,2.54,2.75,4.92,4.44,7.16c7.56,10.05,15.38,19.91,22.81,30.05c5.34,7.3,9.27,15.2,9.6,24.65
	c0.18,4.97,1.64,9.9,2.48,14.85c0.28,1.66,0.42,3.34,0.64,5.01c1.31,9.89,2.58,19.78,3.94,29.66c0.82,5.96,1.94,11.88,2.6,17.85
	c0.43,3.91-0.14,7.94,0.44,11.81c1.35,9.03,3.14,17.99,4.7,26.99c0.45,2.62,1.91,3.29,5.14,1.61c-0.46,2.45-0.5,3.92-1.02,5.18
	c-1.68,4.04-1.09,7.87,0.2,11.9c2.3,7.2,6.81,13.1,10.58,19.47c3.99,6.73,7.64,13.8,10.36,21.12c1.66,4.48,1.4,9.7,1.77,14.6
	c0.22,2.85,0.67,5.53,2.22,8.03c3.23-0.83,3.34-3.21,3.49-5.62c0.41-6.88,0.73-13.77,1.35-20.63c0.29-3.19,0.66-6.56,1.96-9.42
	c1.54-3.4,1.58-6.81,1.53-10.27c-0.09-5.9-0.54-11.8-0.76-17.7c-0.03-0.79,0.44-1.59,0.83-2.89c2.44,2.17,2.33,4.48,2.26,6.61
	c-0.23,6.73-0.65,13.46-0.96,20.19c-0.46,9.98-0.91,19.96-1.31,29.95c-0.12,3.1-0.16,6.2-0.04,9.3c0.14,3.6,0.66,4.12,4.09,4.69
	c4.16,0.69,8.32,1.42,12.5,1.98c8,1.07,13.48,5.6,16.37,12.82c3.31,8.28,5.97,16.82,8.86,25.27c0.26,0.77,0.25,1.67,0.23,2.51
	c-0.17,6.05-1.41,11.86-3.25,17.66c-2.54,8.04-6.66,15.31-11.63,21.81c-7.4,9.67-15.53,18.87-25.93,25.62
	c-0.94,0.61-1.93,1.26-3,1.53c-3.18,0.81-4.67,2.9-5.02,6.01c-0.16,1.44-0.4,2.84-2.17,3.2c-1.77,0.37-3.29,0.23-4.44-1.5
	c-1-1.51-2.24-2.86-3.32-4.22c2.38-4.9,2.08-5.36-2.04-8.84c-4.82-4.07-9.46-8.36-13.98-12.76c-3.06-2.97-7.95-4.04-11.46-1.49
	c-3.19,2.33-6.23,3.07-10.22,0.58c-1.19,2.05-2.32,3.89-3.35,5.79c-3.57,6.64-6.8,13.48-10.73,19.89
	c-3.42,5.58-7.44,10.83-11.52,15.96c-5,6.28-10.91,12.02-18,15.5c-6.13,3.01-8.99,7.87-12.23,13.08
	c-5.15,8.29-9.46,17.13-16.04,24.52c-4.27,4.8-8.28,9.84-12.21,14.91c-1.13,1.46-1.61,3.43-2.41,5.15
	c-0.74,1.61-1.19,3.49-2.32,4.77c-3.33,3.79-6.91,7.36-10.43,10.98c-3.1,3.19-4.45,7.05-4.63,11.41
	c-0.54,12.52-2.2,24.81-5.44,36.99c-1.71,6.46-3.78,12.52-7.33,18.12C707.77,768.94,705.79,768.94,703.82,768.94z M687.86,674.19
	c6.53-3.45,13.06-6.9,19.78-10.45c-0.6-0.51-0.71-0.69-0.81-0.68c-7.46,0.92-12.55,6.18-18.37,10.1c-0.29,0.19-0.34,0.74-0.5,1.13
	c-1.78,0.32-3.51,0.7-4.5,2.23c0.18,0.26,0.36,0.52,0.55,0.78C685.29,676.26,686.58,675.22,687.86,674.19z M888.99,486.32
	c-7.51-0.42-8.24,0.23-8.29,6.3c-0.03,4.08,0,8.17-0.02,12.25c-0.13,25.28,1.24,50.62-3.52,75.7c-0.78,4.11,0.99,5.25,4.79,3.59
	c0.51-0.22,1.07-0.43,1.5-0.77c6.5-5.18,12.03-11.3,17.19-17.77c1.65-2.06,3.37-4.07,4.85-6.25c3.05-4.5,6.62-8.8,8.73-13.72
	c2.35-5.48,3.41-11.54,4.79-17.4c0.41-1.72,0.35-3.7-0.05-5.43c-1.34-5.73-2.56-11.53-4.55-17.04c-1.89-5.24-4.59-10.09-9.05-13.93
	C900.13,487.36,893.97,486.81,888.99,486.32z M846.51,454c1.1,3.11,1.77,5.3,2.64,7.4c1.97,4.74,5.04,8.89,6.66,13.88
	c1.08,3.32,3.56,6.28,5.79,9.09c0.75,0.95,2.72,1.38,4.05,1.23c0.71-0.08,1.56-1.82,1.75-2.92c0.31-1.77,0.3-3.64,0.13-5.44
	c-0.44-4.58-0.97-9.16-1.61-13.72c-0.61-4.39,0.34-9.05-2.3-13.12c-1.83-2.81-3.53-5.7-5.24-8.58c-3.07-5.17-6.08-10.38-9.2-15.52
	c-0.6-0.98-1.57-1.73-3.1-3.37c-0.53,2.44-0.96,3.84-1.13,5.28c-0.68,5.85-1.16,11.74-1.96,17.57
	C842.3,450.9,842.78,452.16,846.51,454z M855.16,486.78c0-2.81,0.75-5.52-0.14-7.47c-2.6-5.68-5.79-11.1-8.95-16.51
	c-0.58-1-2.6-2.26-3.16-1.95c-1.28,0.71-2.79,2.22-2.95,3.55c-1.26,10.42-2.35,20.87-3.22,31.33c-0.34,4.02,1.49,5.51,6.23,5.74
	c1.33-3.22,2.99-6.47,4.03-9.9c1.24-4.08,1.17-4.28,5.22-4.51C853.02,487.02,853.83,486.91,855.16,486.78z M865.94,531.62
	c-2.01,4-3.76,7.45-5.48,10.92c-0.36,0.74-0.41,1.69-0.9,2.3c-3.64,4.53-7.38,8.99-11.05,13.5c-1.13,1.39-2.62,2.78-1.55,4.85
	c1.04,2.03,2.97,2.75,4.99,2.24c3.53-0.89,7.19-1.73,10.42-3.34c9.43-4.7,12.65-19.88,6.21-28.22
	C868.08,533.24,867.33,532.8,865.94,531.62z M838.95,547.29c0.65,1.6,1.38,3.72,2.36,5.73c1.48,3.06,2.91,3.51,5.47,1.25
	c2.82-2.48,5.43-5.27,7.8-8.2c3.91-4.84,6.73-10.31,8.08-16.44c0.59-2.7-0.98-4.79-3.7-4.88c-1.09-0.04-2.24,0.27-3.3,0.62
	c-9.89,3.29-12.82,12.25-16.59,20.51C838.96,546.12,839.02,546.44,838.95,547.29z M824.07,505.33c-2.87,0.44-3.38,2.56-4.02,4.31
	c-3.28,9.05-6.52,18.13-9.58,27.26c-1.22,3.64-1.87,7.45-1.63,12.27c4.8-2.75,9.02-4.75,10.98-9.47c0.85-2.06,1.56-4.17,2.3-6.28
	c2.2-6.3,5.43-12.42,3.35-19.47c-0.14-0.46,0.13-1.09,0.34-1.59C826.95,509.62,825.81,507.5,824.07,505.33z M863.29,507.19
	c-0.54-1.77-1.54-4.81-2.41-7.89c-0.9-3.19-3.35-4.69-6.13-5.84c-2.77-1.14-3.82-0.89-4.99,1.9c-2.14,5.06-3.24,10.41-3.42,15.91
	c-0.07,2.02,0.93,3.32,2.67,4.4c2.75,1.7,5.35,0.73,8.1,0.2C861.49,515.03,863.34,512.99,863.29,507.19z M815.83,579.87
	c-13.32,11.74-25.03,24.33-31.28,41.22C792.7,622.01,817.12,587.2,815.83,579.87z M853.44,569.41c0.85,4.4,4.44,8.11,7.52,8.33
	c0.35,0.03,0.81-0.18,1.07-0.44c1.63-1.61,2.37-0.47,3.12,0.92c0.72,1.34,1.31,2.86,2.35,3.89c1.82,1.8,3.95,1.27,4.84-1.2
	c0.74-2.07,1.15-4.28,1.54-6.46c0.42-2.34,0.67-4.71,0.94-7.08c0.5-4.36,0.91-8.72-0.23-13.34c-2.84,7.14-9.25,10.67-14.18,15.38
	C858.12,569.41,855.95,569.41,853.44,569.41z M874.14,489.51c-0.33,0.05-0.66,0.1-1,0.15c-0.21,0.87-0.64,1.74-0.61,2.6
	c0.26,8.19-0.87,16.21-2.74,24.16c-1.23,5.23-2.51,10.49,1.58,15.21c0.43,0.5,0.42,1.35,0.78,1.93c0.9,1.43,1.9,2.79,2.87,4.17
	c0.36-0.1,0.73-0.21,1.09-0.31c0.32-2.01,0.98-4.04,0.92-6.04c-0.39-12.66-0.91-25.31-1.51-37.96
	C875.46,492.1,874.62,490.81,874.14,489.51z M712.22,659.69c0.23,0.33,0.45,0.66,0.68,1c16.79-6.66,31.85-15.85,43.61-29.95
	c2.75-3.29,5.17-6.68,6.6-10.87c-1.42,0.18-2.55,0.63-3.35,1.41c-4.82,4.67-9.59,9.4-14.33,14.16c-2.56,2.57-4.66,5.76-7.59,7.76
	c-6.92,4.74-14.23,8.93-21.36,13.39C715,657.52,713.64,658.65,712.22,659.69z M799.41,587.97c0.4,0.28,0.8,0.55,1.2,0.83
	c1.41-1.26,2.96-2.4,4.22-3.79c5.04-5.61,10.21-11.12,14.89-17.02c2.66-3.35,4.52-7.35,6.6-11.13c0.36-0.66,0.05-1.69,0.05-3.01
	c-3.9,1.74-6.07,4.55-8,7.36c-3.52,5.14-6.39,10.68-11.45,14.7c-2.23,1.78-3.89,4.38-5.48,6.82
	C800.45,584.27,800.07,586.21,799.41,587.97z M780.8,594.59c0.32,0.19,0.63,0.37,0.95,0.56c1.68-1.36,3.44-2.64,5.03-4.11
	c1.95-1.8,3.66-3.85,5.64-5.61c5.22-4.67,6.49-10.89,6.99-17.42c0.03-0.44-0.36-0.91-0.74-1.82c-1.44,1.56-2.72,2.66-3.65,4.01
	c-4.52,6.54-9.02,13.09-13.33,19.78C780.9,591.2,781.07,593.04,780.8,594.59z M824.93,536.89c0.33,0.27,0.66,0.55,0.98,0.82
	c1.82-1.07,4.65-1.75,5.26-3.3c1.49-3.79,0.86-7.92,0.26-11.87c-0.37-0.04-0.74-0.08-1.11-0.11
	C828.53,527.24,826.73,532.06,824.93,536.89z M806.71,565.73c2.7-4.06,5.19-7.29,6.05-11.93
	C807.81,555.99,806.22,559.05,806.71,565.73z M836.68,514.37c-0.56,3.92-0.6,7.5,0.06,11.13c1.39-2.54,2.46-5.08,3.25-7.71
	C840.65,515.57,839.7,514.3,836.68,514.37z M697.68,77.01c-0.83-2.74-1.29-5.14-3.92-6.36C691.69,75.5,692.3,76.57,697.68,77.01z
	 M866.79,499.18c0.39-0.03,0.79-0.07,1.18-0.1c0.2-1.67,0.58-3.34,0.52-4.99c-0.03-0.64-1.06-1.24-1.64-1.85
	c-0.57,0.69-1.69,1.47-1.6,2.07C865.5,495.96,866.24,497.56,866.79,499.18z M827.54,543.15c-4.39,0.78-5.1,1.57-5.19,5.75
	C825.03,547.77,826.49,545.83,827.54,543.15z M837.47,555.07c-2.29,3.81-2.18,4.17,1.41,5.37
	C838.44,558.76,838.09,557.4,837.47,555.07z M837.82,502.39c-1.33,2.36-0.94,3.47,0.89,3.53c0.39,0.01,0.8-0.58,1.2-0.9
	C839.22,504.15,838.52,503.27,837.82,502.39z M832.87,489.57c-0.13-0.2-0.26-0.41-0.39-0.61c-0.15,0.28-0.37,0.55-0.43,0.85
	c-0.02,0.11,0.35,0.29,0.54,0.44C832.69,490.03,832.78,489.8,832.87,489.57z M836,430.55c0.15,0.03,0.31,0.06,0.46,0.1
	c0.15-0.58,0.3-1.16,0.45-1.74c-0.22-0.04-0.44-0.09-0.66-0.13C836.17,429.37,836.08,429.96,836,430.55z"/>
<path d="M245.28,708.87c2.65,0.81,5.29,1.63,7.94,2.43c1.7,0.51,3.41,1.01,5.11,1.51c0.52,0.15,1.22,0.59,1.53,0.39
	c3.29-2.11,6.23,0.03,9.3,0.63c2.04,0.4,4.12,0.65,6.13,1.18c1.4,0.37,2.71,1.09,4.65,1.91c1.47-1.2,3.57-0.7,5.95,0.07
	c3.79,1.22,7.74,1.96,11.65,2.75c11.16,2.26,22.34,4.4,33.5,6.68c1.74,0.36,3.38,1.21,5.06,1.85c0.39,0.15,0.85,0.61,1.11,0.5
	c4.24-1.73,6.05,1.46,8.22,4.09c1.01-1.66,2.1-2.2,4.19-1.71c5.86,1.38,11.85,2.2,17.75,3.44c10.3,2.16,20.57,4.42,30.83,6.75
	c6,1.36,11.93,3.03,17.94,4.34c6.86,1.49,13.76,2.77,20.66,4.08c8.13,1.54,16.28,2.94,24.09,5.88c1.9,0.72,4.18,0.34,6.21,0.81
	c5.48,1.25,10.92,2.69,16.38,4.05c2.17,0.54,4.34,1.11,6.53,1.57c9.75,2.04,19.5,4.04,29.25,6.09c0.36,0.08,0.65,0.51,0.97,0.77
	c-64.01,0-128.03,0-192.04,0c-0.42-0.69-0.85-1.38-1.27-2.07c-0.19,0.08-0.38,0.16-0.57,0.25c0.05,0.61,0.1,1.21,0.15,1.82
	c-26.99,0-53.98,0-81.22,0C245.28,748.92,245.28,728.9,245.28,708.87z"/>
<path d="M389.92,229.28c-0.3,1.21-0.44,2.49-0.94,3.62c-1.46,3.34-3,6.65-4.62,9.91c-0.96,1.95-1.46,4.13-4.01,5.13
	c-1.04,0.41-2.09,2.51-2.01,3.78c0.19,3.2-1.01,5.55-2.73,8.11c-1.42,2.12-1.67,4.99-2.72,7.41c-0.86,2-2.15,3.82-3.21,5.74
	c-1.06,1.92-2.48,3.75-3.02,5.81c-0.9,3.45-1.89,6.68-4.23,9.52c-1.2,1.45-1.82,3.44-2.49,5.26c-1.63,4.48-3.91,8.5-7.01,12.19
	c-2.17,2.58-3.77,5.73-5.2,8.83c-4.35,9.39-8.62,18.83-12.68,28.36c-1.8,4.22-3.13,8.65-4.44,13.06c-0.93,3.14,0.61,5.16,4.01,5.45
	c2.1,0.18,4.23-0.14,6.34-0.06c1.41,0.05,2.81,0.42,4.21,0.64c-0.03,0.36-0.07,0.72-0.1,1.09c-1.86,0-3.73,0.04-5.59-0.01
	c-2.24-0.06-4.5-0.43-6.72-0.26c-3.65,0.28-5.13,2.11-5.84,5.82c-0.47,2.46-1.45,4.82-2.17,7.24c-0.32,1.05-0.8,2.13-0.79,3.19
	c0.02,2.52,1.26,3.24,3.56,2.19c4.46-2.03,8.81-4.34,13.38-6.09c4.04-1.55,8.31-2.47,12.47-3.72c1.94-0.59,3.84-1.32,6.32-2.18
	c-1.29-1.59-2.09-2.57-3.41-4.2c2.15,0.73,3.61,1.13,4.98,1.72c3.94,1.69,7.89,1.92,11.94,0.44c0.66-0.24,1.35-0.49,2.04-0.52
	c9.4-0.4,18.85-2.26,28.19-0.18c6.64,1.47,13.31,2.61,19.41,6.48c8.6,5.47,17.85,9.91,26.9,14.65c1.56,0.82,3.49,1.34,5.24,1.3
	c8.37-0.17,16.59,0.99,24.61,3.14c4.85,1.3,9.48,3.46,14.14,5.39c7.25,3,14.43,6.17,21.67,9.21c4.41,1.85,7.92,4.67,10.43,8.8
	c1.45,2.38,3.24,4.54,5.35,6.61c0.05-4.6-1.08-8.76-3.68-12.63c-2.72-4.04-6.93-6.12-10.82-8.56c-5.82-3.66-11.81-7.05-17.73-10.55
	c-0.72-0.43-1.46-0.86-2.25-1.13c-8.76-3.07-17.08-7.04-25.35-11.3c-7.03-3.62-13.85-7.73-22.01-9.28
	c-9.68-1.83-17.64-7.84-25.44-13.64c-10.81-8.03-21.49-16.23-32.26-24.32c-5.98-4.49-12.71-7.02-20.13-8.12
	c-3.97-0.59-7.81-2.05-11.65-3.11c0.59-3.62,1.46-4.3,4.37-3.69c10.76,2.26,21.15,5.31,30.61,11.33c6.37,4.06,13.52,6.89,20.1,10.64
	c4.86,2.77,9.44,6.05,14.02,9.28c8.67,6.09,17.09,12.58,25.98,18.33c3.16,2.04,7.36,2.61,11.18,3.47c2.58,0.58,5.32,0.69,7.98,0.7
	c9.47,0.01,18.83,0.82,28.07,2.95c0.35,0.08,0.78-0.15,1.57-0.33c-0.66-0.94-1.06-1.8-1.71-2.41c-4.87-4.63-9.53-9.52-14.78-13.67
	c-3-2.38-6.93-3.64-10.53-5.19c-4.78-2.05-9.58-4.09-14.5-5.78c-12.64-4.33-25.55-7.95-37.94-12.88c-6.9-2.75-14.25-3.31-21.02-5.98
	c-5.59-2.21-10.95-5.04-16.27-7.85c-6.44-3.4-12.72-7.08-20.11-8.09c-0.82-0.11-1.64-0.36-2.43-0.63c-0.39-0.13-0.72-0.44-1.09-0.67
	c0.79-2.48,2.6-2.31,4.21-2.18c7.16,0.57,14.32,1.14,21.47,1.91c6.58,0.71,13.11,1.82,19.69,2.47c10.14,1,19.19,4.93,28.12,9.5
	c10.85,5.54,21.9,10.71,32.82,16.12c8.92,4.42,17.89,8.74,26.6,13.53c4.37,2.41,8.34,5.63,12.27,8.76
	c4.99,3.96,10.33,7.12,16.32,9.38c4.84,1.82,8.24,5.78,11.68,9.48c4.66,5.01,9.31,10.04,13.68,15.3c2.75,3.31,4.98,7.06,7.44,10.61
	c1.74,2.52,3.84,4.87,5.16,7.59c5.06,10.42,8.26,21.35,9.46,32.98c0.94,9.05,2.98,17.99,4.61,26.97c0.57,3.17,1.23,6.34,2.09,9.45
	c0.73,2.65-1.82,2.76-2.81,4.01c0.73,3.44,1.31,3.94,3.91,2.63c2.87-1.46,5.51-3.37,8.33-4.94c1.09-0.61,2.41-0.81,3.63-1.19
	c0.15,0.29,0.29,0.58,0.44,0.86c-1.76,1.46-3.52,2.91-5.27,4.38c-2.04,1.72-4.09,3.43-6.08,5.19c-2.68,2.37-2.94,3.42-1.12,6.48
	c4.54,7.62,7.92,15.75,10.95,24.05c0.61,1.66,0.73,4.16,1.88,4.78c1.09,0.59,3.23-0.78,4.91-1.29c2.59-0.78,3.29-0.25,3.88,2.68
	c1.56,7.81,2.87,15.68,4.88,23.38c1.08,4.12,1.53,8.58,4.6,12.09c1.71,1.95,3.46,3.2,6.09,3.07c3.65-0.17,7.37,0.07,10.95-0.52
	c7.77-1.29,14.35,2.02,21.01,4.97c2.17,0.96,2.16,3.19,0.4,4.78c-2.4,2.16-4.91,4.2-7.18,6.49c-6.6,6.67-14.98,8.63-23.69,7.5
	c-5.41-0.7-10.81-3.42-13.17-9.31c-0.5-1.24-0.43-2.7-0.62-4.06l-0.11,0.1c1.11,0.95,2.76,1.7,3.23,2.9
	c1.74,4.48,5.37,6.48,9.53,7.48c10.73,2.6,24.06-3.68,27.79-12.69c-4.37-3.65-9.17-5.9-15.21-5.14c-4.19,0.53-8.42,0.68-12.63,1.01
	c-5.44,0.43-8.76-2.58-10.81-7.11c-2.14-4.73-4.23-9.54-3.81-14.97c0.06-0.8-0.24-1.66-0.47-2.46c-0.96-3.37-1.94-6.75-2.96-10.1
	c-0.4-1.3-0.92-2.56-1.43-3.95c-2.23,0.44-3.47,1.45-3.53,3.38c-0.29,10.06,0.92,19.86,5.44,29.01c0.86,1.74,2.13,3.28,2.99,5.02
	c0.29,0.59-0.12,1.52-0.29,2.9c-1.11-1.01-2.01-1.5-2.43-2.26c-3.64-6.53-6.95-13.15-7.25-20.9c-0.12-2.92-0.93-5.84-1.61-8.72
	c-0.99-4.22-2.06-5.15-6.61-4.17c-0.54,7.37,3.9,13.86,4.99,21.15c-3.2,0.39-4.12-1.24-4.8-3.18c-1.16-3.31-2.67-6.55-3.38-9.96
	c-2.11-10.16-9.4-16.67-16.16-23.54c-2.13-2.16-3.23-2-5.34,0.24c-6.93,7.35-13.83,14.73-20.64,22.19
	c-5.1,5.59-10.11,11.27-15.05,17.01c-3.83,4.44-7.43,9.08-11.27,13.52c-0.87,1.01-2.29,1.54-3.45,2.28
	c-0.23-0.23-0.47-0.46-0.7-0.69c0.26-0.86,0.37-1.81,0.81-2.57c6.6-11.55,13.05-23.21,21.45-33.61c0.66-0.82,1.77-1.28,2.67-1.91
	c0,0-0.1-0.11-0.1-0.11c-0.62,1.51-1.12,3.1-1.9,4.52c-1.24,2.25-2.68,4.39-4.04,6.58c0.25,0.19,0.5,0.37,0.75,0.56
	c0.66-0.59,1.39-1.13,1.98-1.78c4.15-4.54,8.24-9.14,12.4-13.67c4.9-5.34,9.9-10.59,14.75-15.97c0.75-0.83,0.96-2.16,1.42-3.26
	c-0.31-0.23-0.62-0.46-0.93-0.69c-1.25,0.77-2.56,1.45-3.73,2.33c-1.87,1.41-3.65,2.96-5.46,4.45l0.14,0.09
	c-0.15-2.43,1.68-3.7,3.02-5.31c1.28-1.54,2.36-3.26,3.67-5.08c-2.6-1.29-4.17-0.15-5.64,0.8c-9.45,6.14-17.91,13.46-26.1,21.2
	c-7.53,7.12-15.41,13.93-23.59,20.3c-10.06,7.84-20.58,15.1-30.94,22.56c-1.59,1.14-3.34,2.09-5.11,2.95
	c-0.62,0.3-1.51,0.05-3.36,0.05c1.57-1.78,2.5-3.02,3.61-4.07c3.25-3.08,6.59-6.06,9.84-9.14c0.56-0.53,0.87-1.33,1.47-2.3
	c-1.69-0.39-3.01-0.69-4.19-0.96c-1.15-2.28,0.22-3.3,1.68-4.27c6.66-4.43,13.33-8.84,19.95-13.33c0.68-0.46,1.01-1.41,1.9-2.72
	c-1.56,0-2.36-0.1-3.13,0.02c-7.09,1.08-14.14,2.59-21.27,3.2c-6.45,0.55-13.06-0.14-19.03-2.78c-2.91-1.28-5.4-3.94-7.46-6.48
	c-0.76-0.94-0.09-3.5,0.6-5.02c0.59-1.31,1.99-2.41,3.28-3.21c5.8-3.62,11.39-7.77,17.6-10.48c7.82-3.41,15.9-6.5,24.53-7.49
	c2.96-0.34,5.78-0.93,8.29-3.14c-0.46-0.68-0.71-1.54-1.2-1.7c-5.06-1.67-10.01-3.46-15.63-2.31c-5.07,1.04-10.32,1.64-15.49,1.71
	c-4.6,0.06-9.24-0.67-13.8-1.44c-5.13-0.87-10.19-2.12-15.26-3.33c-5.05-1.2-10.06-2.57-15.09-3.85
	c-6.26-1.59-12.72-2.65-18.74-4.89c-6.95-2.59-13.5-6.22-20.23-9.4c-0.88-0.42-1.76-0.83-2.65-1.23c-3.81-1.74-7.63-3.46-11.43-5.23
	c-2.97-1.39-5.55-3.75-9.81-3.9c0.52,1.53,0.75,2.69,1.3,3.68c0.88,1.59,2.03,3.03,2.94,4.61c4.03,6.97,10.32,11.72,16.31,16.78
	c1.14,0.96,2.06,2.18,3.08,3.27l0.11-0.11c-6.67-2.63-12.3-6.72-16.68-12.39c-5.39-6.96-10.66-14.02-15.92-21.08
	c-0.51-0.69-1.03-2.16-0.71-2.51c0.64-0.71,1.99-1.41,2.8-1.19c1.86,0.5,3.86,1.22,5.29,2.45c5.48,4.68,11.99,7.58,18.37,10.55
	c9.27,4.32,18.75,8.25,28.36,11.77c5.37,1.96,11.17,2.77,16.78,4.05c3.57,0.81,7.14,1.61,10.74,2.29c2.11,0.39,4.27,0.53,7.22,0.87
	c-1.07-2.55-1.61-4.26-2.46-5.79c-1.98-3.54-3.98-7.08-6.2-10.47c-4.84-7.39-7.23-15.76-9.95-24.01c-0.35-1.05-0.48-2.24-0.41-3.34
	c0.24-3.75-0.79-6.76-3.8-9.33c-1.13-0.97-1.6-3.34-1.46-4.98c0.21-2.3,1.06-4.63,2.05-6.76c0.84-1.82,2.39-3.34,4.72-2.42
	c1.99,0.78,3.8,1.82,3.45,4.6c-0.34,2.65-0.35,5.34-0.58,8.01c-0.32,3.75,0.25,4.49,3.73,6.05c3.77,1.7,7.48,0.47,11.23,0.24
	c5.89-0.36,11.78-0.63,17.67-0.87c2.67-0.11,5.34-0.06,8.02-0.06c3.16,0,5.88-1.28,7.83-3.57c2.9-3.39,6.86-4.76,10.74-6.32
	c1.6-0.65,3.19-1.08,3.4-3.72c-3.43-0.83-6.9-1.94-10.46-2.46c-3.61-0.52-7.35-0.17-10.95-0.72c-6.8-1.05-13.53-2.49-20.29-3.77
	c-11.02-2.08-21.19-6.64-31.24-11.27c-8.61-3.97-17.4-4.36-26.43-3.43c-12.13,1.25-24.2,0.42-36.3-0.41
	c-6.46-0.44-12.94-0.53-19.42-0.6c-1.45-0.02-2.9,0.68-4.88,1.19c1.01,1.75,1.75,3.03,3.03,5.24c-1.81-0.68-3.04-0.95-4.06-1.57
	c-1.06-0.66-1.83-1.75-2.85-2.49c-2.58-1.88-5.03-1.26-5.9,1.84c-0.99,3.49-1.9,7.11-2.02,10.7c-0.27,8.43,0.02,16.88-0.05,25.32
	c-0.02,2.76,0.48,5.25,1.86,7.67c1.03,1.81,1.63,3.86,2.48,5.78c0.96,2.15,1.82,4.37,3.03,6.38c1.03,1.72,1.3,3.31,0.5,5.75
	c-2.5-1.49-4.73-2.81-7.58-4.5c-0.29,2.61-0.59,4.38-0.66,6.15c-0.35,9.1,1.36,17.93,3.38,26.74c0.71,3.12,2.98,2.94,5.19,3.09
	c1.96,0.14,3.78,0.25,3.28,2.97c-6.93,3.6-6.93,3.59-11.55-2.26c-0.69-0.88-1.54-1.64-2.2-2.54c-0.4-0.54-0.92-1.31-0.82-1.87
	c1.54-8.22-0.81-16.37-0.43-24.56c0.1-2.11,0-4.24-0.24-6.33c-0.2-1.75-0.72-3.47-1.28-6.01c-1.53,1.19-2.59,1.79-3.35,2.64
	c-3.34,3.75-6.68,7.51-9.84,11.41c-1.83,2.26-3.41,4.75-4.93,7.23c-1.67,2.73-3.08,5.61-4.74,8.35c-4.21,6.96-10.43,7.32-16.44,1.89
	c-5.17-4.67-8.94-10.24-11.36-16.44c-2.39-6.13-5.14-12.17-5.71-19.11c-0.41-4.97-1.46-9.97-1.17-15c0.4-6.99,0.41-14.15,2.01-20.89
	c1.51-6.35,2.16-13.35,7.41-18.39c5.85-5.62,11.96-10.83,18.73-15.38c4-2.69,7.08-6.74,10.55-10.2c0.76-0.76,1.44-1.6,2.63-2.94
	c-0.22,1.71-0.35,2.64-0.51,3.9c0.88,0.46,1.82,1.01,2.81,1.46c4.59,2.1,9.26,4.04,13.77,6.29c4.93,2.46,7.1,1.83,8.84-3.57
	c1.85-5.72,3.55-11.51,4.86-17.37c0.97-4.38-0.58-5.8-5.01-5.05c-5.4,0.91-10.87,1.71-15.22,5.59c-0.68,0.6-1.68,0.85-3.15,1.55
	c0.97-3.03,2.81-4.85,4.81-5.52c3.79-1.28,7.29-3.4,11.58-3.46c9.26-0.12,9.03,0.16,12.15-9.49c4.49-13.88,10.16-27.22,16.96-40.08
	c6.46-12.21,13.33-24.21,19.59-36.52c3.54-6.96,6.05-14.44,9.34-21.54c3.58-7.74,7.5-15.32,11.35-22.93
	c0.53-1.04,1.47-1.87,2.33-2.92c0.55,0.76,0.88,1.21,1.21,1.66L389.92,229.28z M307.73,399.32c0.72-1.36,1.56-2.67,2.11-4.09
	c0.3-0.79,0.49-2.23,0.07-2.59c-4.17-3.54-8.37-7.43-14.49-6.12c-4.71,1.01-8.93,3.3-12.54,6.52c-2.2,1.97-1.97,3.82,0.5,5.39
	c5.94,3.77,12.1,4.76,18.76,1.85c1.73-0.76,3.8-0.74,5.72-1.08c-1.51,1.01-2.91,2.32-4.56,2.97c-7.36,2.9-14.55,2.61-21.38-1.7
	c-2.29-1.45-4.69-3.01-7.44-1.46c-5.48,3.1-9.68,7.53-12.88,12.98c-2.46,4.19-3.77,8.56-4.14,13.45
	c-0.59,7.78-1.94,15.51-2.57,23.29c-0.23,2.87,0.82,5.81,1.01,8.74c0.38,5.82,2.59,11.13,4.57,16.47c1.5,4.03,3.42,7.94,5.57,11.67
	c2.53,4.39,5.71,8.31,10.53,10.52c1.6,0.74,3.07,0.72,4.25-0.57c2.44-2.66,5.08-5.21,7.06-8.2c3.92-5.91,6.7-12.53,12.24-17.39
	c3.86-3.38,7.3-7.27,10.73-11.1c0.82-0.92,1.26-2.52,1.24-3.79c-0.08-4.64-0.39-9.28-0.69-13.92c-0.31-4.78-0.31-9.47,0.83-14.23
	c0.94-3.91,1.07-8.05,1.16-12.1c0.07-3.22-1.23-3.91-4.3-2.87c-0.66,0.22-1.28,0.57-1.93,0.84c-8.18,3.47-16.61,6.15-25.33,7.87
	c-1.62,0.32-3.3,0.85-4.68-1.54c1.43-0.76,2.66-1.65,4.03-2.08c3.47-1.09,7.06-1.79,10.5-2.97c6.38-2.2,12.68-4.63,19.02-6.95
	c3.75-1.38,5.26-3.74,4.92-7.74c-0.25-2.95-1.11-3.43-3.72-2.11C310.5,397.99,309.11,398.65,307.73,399.32z M488.65,411.96
	c-1.66-3.26-4.36-4.33-6.81-5.49c-9.77-4.61-19.59-9.13-29.46-13.51c-2.27-1.01-4.8-1.67-7.27-1.95
	c-5.03-0.57-10.13-0.59-15.16-1.15c-6.97-0.77-13.94-1.69-20.87-2.78c-8.71-1.37-16.26-6.05-24.47-8.85
	c-0.39-0.13-0.65-0.67-0.97-1.02c1.49-0.55,2.78-0.64,3.81-0.16c6.08,2.82,12.19,5.51,18.8,6.93c3.41,0.73,6.72,2.23,10.15,2.55
	c7.14,0.68,14.33,0.83,21.5,1.15c0.87,0.04,1.76-0.27,3.67-0.59c-1.93-1.65-3.02-2.9-4.38-3.69c-3.52-2.04-7.12-3.97-10.76-5.78
	c-5.14-2.55-10.18-5.47-15.58-7.3c-9.94-3.37-20.3-2.58-30.56-1.62c-1.87,0.18-3.66,1.1-6.13,1.89c2.55,1.94,4.48,3.42,6.41,4.89
	c-0.19,0.24-0.38,0.49-0.57,0.73c-3.42-1.2-6.82-2.45-10.26-3.57c-1.31-0.42-2.74-0.87-4.07-0.76c-11.47,1.02-22.41,4.1-32.69,9.22
	c-4.74,2.36-9.42,5.08-11.69,10.43c-2.01,4.74,1.88,11.98,6.7,12.18c14.91,0.62,29.82,1.24,44.74,1.77c3.23,0.11,6.47-0.1,9.71-0.27
	c14.19-0.72,28.33-2.63,42.59-1.74c3.51,0.22,7.05-0.06,10.56,0.2c3.36,0.24,6.72,0.71,10.01,1.39c4.27,0.88,8.46,2.13,12.7,3.13
	c4.24,1,8.48,2.08,12.77,2.77C476.7,411.89,482.34,413.48,488.65,411.96z M462.54,446.57c-1.43-0.24-3.13-0.68-4.86-0.81
	c-10.24-0.77-20.09,1.29-29.86,4.1c-2.11,0.61-2.67,1.72-2.5,3.64c0.57,6.25,2.72,12.07,5.75,17.43
	c3.68,6.53,6.65,13.49,11.53,19.35c2.13,2.56,4.15,5.09,7.64,5.38c9.53,0.78,19.03,1.75,28.64,0.56c4.41-0.55,8.95-0.04,13.43,0.07
	c8.56,0.2,16.92-0.24,23.7-6.53c2.53-2.35,5.17-4.59,7.69-6.95c4.02-3.77,4.63-6.76,2.35-11.69c-2.88-6.24-5.82-12.45-8.79-18.65
	c-0.38-0.78-1.07-1.42-1.61-2.12c-0.58,1.3-0.64,2.4-0.25,3.31c1.79,4.18,1.95,8.49,1.1,12.85c-1.09,5.57-3.01,10.75-7.47,14.66
	c-3.71,3.25-7.98,4.06-11.98,1.5c-2.43-1.55-4.83-2-7.54-1.86c-1.41,0.07-2.82,0.13-4.22,0.08c-10.1-0.33-17.27-4.75-21.05-14.47
	c-2.42-6.21-5.2-12.2-1.43-18.8C462.87,447.53,462.76,447.35,462.54,446.57z M522.77,385.83c0.68,1.59,1.08,2.44,1.41,3.31
	c1.27,3.35,4.07,5.72,4.85,9.6c1.11,5.5,2.38,11.01,5.71,16.04c4.45,6.71,7.71,14.2,11.54,21.33c1.99,3.69,3.51,7.87,6.29,10.85
	c5.45,5.82,10.93,11.58,15.74,17.95c0.91,1.21,2.34,2.04,4.06,3.49c0-1.63,0.09-2.32-0.01-2.98c-0.92-6.09-2.26-12.15-2.73-18.28
	c-0.76-10.04-3.15-19.56-6.74-28.94c-2.75-7.18-6.62-13.68-11.32-19.52c-5.51-6.86-11.89-13.05-18.1-19.33
	c-3.92-3.96-7.92-7.72-13.42-9.87c-4.76-1.87-9.03-5.06-13.4-7.86c-4.01-2.56-7.84-5.4-11.79-8.04c-0.61-0.41-1.45-0.46-2.18-0.68
	c-0.19,0.21-0.37,0.43-0.56,0.64c0.9,1.12,1.74,2.3,2.71,3.36c6.92,7.62,14.96,13.96,23.04,20.25c1.2,0.93,2.55,1.72,3.93,2.37
	c6.23,2.93,12.24,6.16,17.47,10.73c1.38,1.2,2.29,2.51,0.97,3.83c-0.66,0.66-2.65,0.63-3.69,0.14c-1.61-0.76-2.81-2.34-4.38-3.26
	C529.37,389.3,527.26,386.37,522.77,385.83z M544.64,505.19c-3.11-0.28-5.13,0.6-7.16,1.51c-1.53,0.68-3.06,1.63-4.67,1.82
	c-6.23,0.75-11.5,3.37-16.19,7.45c-1.13,0.99-2.58,1.8-4.02,2.19c-1.56,0.42-3.43,0.54-3.98-1.82c1.97-2.86,5.88-3.77,7.47-7.66
	c-5.75,0.37-11.03,0.79-16.32,1.05c-8.21,0.4-16.3,1.91-23.95,4.65c-9.75,3.49-19.28,7.73-26.77,15.38
	c-1.82,1.86-2.2,2.91-0.64,5.02c1.91,2.58,4.5,4.28,7.64,4.93c9.07,1.88,18.17,2.28,27.2-0.12c6.52-1.74,13.02-3.62,19.4-5.8
	c3.69-1.26,7.32-2.94,10.66-4.96c7.68-4.64,15.22-9.51,22.69-14.48c2.55-1.69,4.78-3.89,7.02-5.99
	C543.7,507.72,543.93,506.62,544.64,505.19z M524.1,441.16c0.24-0.33,0.48-0.67,0.71-1c-7.23-6.34-14.35-12.8-21.74-18.94
	c-2.29-1.91-5.2-3.29-8.04-4.27c-2.89-0.99-6.05-1.2-9.1-1.72c-10.11-1.71-20.29-3.09-30.33-5.19c-7.29-1.53-14.46-3.59-21.97-3.67
	c-4.77-0.06-9.54-0.18-14.31-0.12c-1.28,0.02-2.55,0.58-4.51,1.06c1.27,1.06,1.8,1.74,2.5,2.06c5.48,2.49,10.97,4.99,16.52,7.33
	c9.79,4.14,20.2,5.79,30.62,7.24c6.68,0.93,13.62,0.65,20.09,2.31c12.92,3.3,25.67,7.33,37.25,14.28
	C522.44,440.92,523.32,440.96,524.1,441.16z M386.4,311.57c0.69,3.66,1.61,4.76,4.84,6.16c1.8,0.78,3.58,1.6,5.41,2.29
	c5.11,1.92,10.11,4.75,15.39,5.43c7.28,0.94,13.86,3.56,20.56,6c10.47,3.8,21.16,6.75,32.06,8.96c0.8,0.16,1.69-0.09,2.54-0.15
	c-3.51-2.7-6.9-5.43-10.77-6.63c-6.71-2.08-12.23-6.2-18.29-9.37c-7.71-4.04-15.16-8.53-24.12-9.43
	C404.94,313.92,395.9,312.7,386.4,311.57z M535.27,453.83c-0.53,3.67-1.8,7.31-1.36,10.73c0.58,4.5,2.22,8.93,3.94,13.18
	c1.5,3.72,2.72,7.83,5.98,10.48c2.59,2.11,4.35,4.4,5.27,7.71c0.81,2.92,3.18,3.05,5.45,0.74c1.27-1.3,2.46-2.68,3.78-3.92
	c3.26-3.05,3.57-3.95,1.44-7.92c-3.5-6.54-7.09-13.04-10.83-19.44c-1.33-2.27-3.04-4.39-4.88-6.28
	C541.77,456.74,539.51,454.13,535.27,453.83z M526.01,402.49c0.43-0.37,0.85-0.74,1.28-1.12c-1.19-2.72-1.93-5.77-3.65-8.11
	c-5.07-6.94-10.91-12.84-19.37-16.11c-10.16-3.93-20.56-4.21-31.12-4.06c-0.49,0.01-0.97,0.4-2.18,0.93
	c1.45,1.15,2.36,2.18,3.5,2.73c5.29,2.59,10.64,5.06,15.98,7.54c0.5,0.23,1.09,0.39,1.63,0.39c3.56,0.02,6.5,1.76,9.37,3.51
	c4.19,2.55,8.13,5.52,12.35,7.99C517.76,398.49,521.94,400.4,526.01,402.49z M463.33,392.21c-0.12,0.5-0.23,0.99-0.35,1.49
	c3.57,2.13,6.98,4.63,10.75,6.3c8.23,3.65,16.25,7.58,23.61,12.81c1.76,1.25,3.9,2.3,6,2.65c5.58,0.93,11.04,2.16,16.26,4.38
	c1.71,0.73,3.55,1.17,5.33,1.74c0.19-0.3,0.37-0.59,0.56-0.89c-1.38-3.74-2.89-7.64-6.51-9.73c-3.62-2.09-7.7-3.37-11.58-5
	c-5.7-2.39-11.34-4.95-17.13-7.12c-6.05-2.26-12.18-4.36-18.4-6.09C469.19,392,466.19,392.35,463.33,392.21z M503.73,499.12
	c0.04,0.41,0.08,0.81,0.12,1.22c4.41,2.46,8.87,4.07,14.11,1.76c4.36-1.92,8.78-3.81,13.36-5.06c3.13-0.86,5.39-2.75,7.94-4.4
	c1.71-1.1,1.66-2.48,1-4c-1.32-3-2.56-6.02-4.61-8.66c-1.83-2.35-3.45-2.55-5.28-0.17c-0.6,0.77-1,1.7-1.6,2.46
	c-4.62,5.84-9.44,11.4-16.95,13.72C509.06,496.83,506.43,498.06,503.73,499.12z M589.75,527.86c-0.06-0.29-0.09-0.87-0.29-1.38
	c-1.82-4.69-3.47-9.45-5.55-14.01c-1.85-4.05-4.09-7.93-6.36-11.77c-0.79-1.33-1.84-3.19-3.97-2.13c-1.99,1-1.22,2.89-1.06,4.52
	c0.04,0.41,0.22,0.81,0.36,1.21c2.73,7.63,5.47,15.25,8.18,22.88c0.75,2.1,1.91,3.76,4.23,4.26
	C588.16,532.08,589.8,530.84,589.75,527.86z M508.26,420.57c7.8,9.71,17.7,16.43,27.99,23.46
	C534.42,431.07,518.69,417.88,508.26,420.57z M444.1,362.06c-9.22-8.67-19.26-14.73-29.34-20.72c-0.7-0.42-1.8-0.15-2.92-0.22
	C415.76,347.47,436.52,361.11,444.1,362.06z M538.52,438.46c4.86,9.21,7.85,19.73,17.93,25.31
	C551.94,454.32,547.34,444.93,538.52,438.46z M496.3,435.94c0.14,0.68,0.12,1.15,0.33,1.47c3.83,5.82,10.06,7.02,16.23,8.21
	c0.63,0.12,2.1-0.9,2.11-1.41c0.02-0.9-0.55-2.24-1.29-2.66c-2.9-1.67-5.94-3.09-8.96-4.55C502.16,435.78,499.51,435,496.3,435.94z
	 M522.05,452.22c0.62,6.9,3.93,11.62,8.14,16.09c0.57-3.68,0.7-7.25,0.48-10.81c-0.05-0.87-1.06-1.99-1.92-2.45
	C526.83,454.01,524.71,453.31,522.05,452.22z M500.14,478.35c2.79,1.6,4.99,0.69,7.09-1.35c4.32-4.21,5.8-9.32,3.98-13.95
	C507.58,468.08,503.91,473.14,500.14,478.35z M546.19,499.48c-0.51-2.46-2.02-3.19-4.28-2.19c-2.82,1.25-5.58,2.62-8.33,4
	c-1.57,0.79-2.5,2.2-1.41,3.72c0.39,0.54,2.35,0.45,3.29,0.01C538.97,503.38,542.36,501.49,546.19,499.48z M475.28,460.45
	c1.33-1.34,3.25-2.34,2.1-4.26c-1.31-2.18-3.2-4.02-5.01-6.22C470.23,454.47,470.99,457.02,475.28,460.45z M484.55,468.95
	c0.26-3.39,1.56-6.75-2.15-9.04c-2.28,1.47-3.5,3.3-2.94,5.78C479.96,467.92,481.76,468.68,484.55,468.95z M562.99,463.89
	c1.84,5.83,6,10.07,9.89,14.49C571.04,472.55,567.48,467.91,562.99,463.89z M570.64,493.54c0.13-3.98-1.65-6.88-4.76-9.05
	C566.28,488.13,567.39,491.39,570.64,493.54z M570.87,520.83c0.33-0.19,0.66-0.39,0.99-0.58c-0.37-1.73-0.52-3.54-1.19-5.14
	c-0.31-0.74-1.77-1.63-2.44-1.45c-1.3,0.34-1.95,1.68-1.03,2.96C568.29,518.12,569.63,519.43,570.87,520.83z M469.81,466.61
	c0.45-0.18,0.89-0.37,1.34-0.55c-1.38-3.09-2.77-6.18-4.15-9.27c-0.29,0.11-0.58,0.23-0.86,0.34
	C466.07,460.77,467.19,463.97,469.81,466.61z M530.03,450.82c-3.01-4.1-6.49-5.59-9.23-3.76
	C524.06,448.03,526.08,451.39,530.03,450.82z M563.53,494.03c-1.72,1.97-2.9,3.34-4.34,4.99
	C563.26,499.45,564.57,498.13,563.53,494.03z M479.12,447.21c1.04,2.24,1.78,3.35,3.43,2.3c0.39-0.25,0.34-1.2,0.49-1.82
	C481.95,447.55,480.85,447.42,479.12,447.21z"/>
<path d="M707.06,477.24c6.5-4.81,13.52-8.57,21.89-8.19c4.85,0.22,6.87-3.35,9.58-5.93c1.94-1.85,3.66-3.56,6.28-4.66
	c1.77-0.75,3.49-3.05,4.03-4.99c1.01-3.6,3.18-5.16,6.47-6.43c5.76-2.22,11.25-2.06,16.77,0.47c0.63,0.29,1.47,0.54,1.77,1.07
	c1.86,3.25,4.66,6.42,5.15,9.89c0.83,5.98,3.91,10.65,7.4,14.82c2.77,3.31,3.7,6.7,4.34,10.59c1.02,6.22,2.19,12.42,3.31,18.62
	c0.12,0.69,0.15,1.59,0.59,1.99c4.66,4.25,3.31,10.03,2.4,14.69c-0.96,4.93-2.51,10.07-7.63,13.75
	c-8.32,5.98-17.51,8.75-27.23,10.51c-4.64,0.84-8.97-0.24-12.65-3.33c-5.15-4.31-10.42-8.5-15.35-13.05
	c-9.01-8.31-10.91-18.81-8.81-30.43c0.52-2.87,1.06-5.75,1.23-8.65c0.21-3.65,0.03-7.32,0.07-10.98c0.03-3-0.75-4-3.71-3.37
	c-3.97,0.84-7.84,2.19-11.75,3.36c-1.29,0.39-2.53,0.9-3.8,1.35C707.29,477.97,707.18,477.6,707.06,477.24z M731.54,502.44
	c0.09,9.13,4.57,16.07,10.52,22.23c2.42,2.51,5.5,4.39,7.87,6.94c6.44,6.93,13.95,5.13,21.49,2.92c2.81-0.82,5.38-2.62,8.21-3.23
	c5.04-1.09,8.34-4.42,10.4-8.51c1.86-3.7,3.28-8.07,0.6-12.33c-1.64-2.61-3.72-2.9-5.79-0.64c-1.28,1.4-2.61,2.78-3.68,4.33
	c-1.15,1.67-2.37,3.21-2.23,5.63c0.17,2.97-3.88,8.99-7.65,10.12c-2.27,0.68-3.97-0.33-3.88-2.8c0.06-1.74,0.58-3.55,1.28-5.16
	c2.03-4.7,0.18-8.89-4.47-10.6c-4.85-1.79-9.59-3.92-14.3-6.06c-1.22-0.56-2.29-1.61-3.2-2.64c-2.69-3.03-5.31-6.13-7.88-9.27
	c-2.31-2.82-4.5-2.63-5.68,0.89C732.28,496.88,732.05,499.71,731.54,502.44z M772.8,479.79c-0.87,4.85-4.09,8.12-7.57,11.16
	c-3.1,2.7-7.36,3.39-10.09,1.58c-3.21-2.12-2.93-5.35-2.67-8.69c0.2-2.47,0.17-5.1-0.46-7.46c-0.41-1.54-1.88-3.4-3.29-3.86
	c-1.08-0.36-3.13,0.92-4.2,2.01c-4.32,4.43-4.98,10.27-1.46,15.42c6.41,9.38,15.25,14.53,26.85,14.31c4.1-0.08,5.06-1.14,4.91-5.32
	c-0.04-1.25-0.5-2.48-0.6-3.73c-0.25-3.06-0.52-6.05,1.36-8.9C777.85,482.88,777.32,481.84,772.8,479.79z M768.06,465.07
	c-0.32,0.33-0.65,0.66-0.97,1c2.45,2.12,4.89,4.24,7.34,6.37C774.25,467.89,770.79,466.86,768.06,465.07z"/>
<path d="M679.15,694.31c-0.41,3.58-3.79,4.26-6.01,5.98c-6.54,5.05-13.19,9.95-19.86,14.83c-2.47,1.81-5.17,3.31-7.64,5.12
	c-8.82,6.47-17.6,12.99-26.36,19.53c-3.01,2.25-5.87,4.72-8.92,6.91c-1.2,0.86-2.7,1.54-4.15,1.77c-5.91,0.92-11.82,0.63-17.55-1.14
	c-4.68-1.44-9.2-3.43-13.91-4.71c-5.69-1.54-11.48-2.8-17.29-3.78c-3.55-0.6-6.73-1.5-9.61-3.8c-7.71-6.14-16.54-9.85-26.16-12.05
	c-5.17-1.18-10.12-3.35-15.14-5.16c-8.72-3.16-17.63-5.94-26.06-9.77c-6.22-2.82-11.76-7.12-17.67-10.64c-3-1.79-5.99-3.84-9.27-4.9
	c-11.35-3.66-20.95-9.89-29.48-18.15c-6.49-6.28-12.43-13.01-17.26-20.55c-4.42-6.9-7.86-14.43-11.77-21.66
	c-2.33-4.3-4.7-8.58-7.12-12.84c-2.82-4.97-5.56-9.99-8.61-14.82c-3.88-6.14-8.24-11.98-12.04-18.17
	c-3.56-5.81-7.79-11.26-9.83-17.96c-1.16-3.82-3.14-7.38-4.51-11.14c-0.85-2.35-1.25-4.87-1.86-7.31c-0.85-3.38-1.7-6.77-2.57-10.14
	c-0.54-2.1-1.17-4.19-0.32-7.19c2.24,7.74,3.85,14.79,6.36,21.5c2.62,7.04,4.7,14.34,9.33,20.59c3.55,4.8,6.29,10.19,9.54,15.22
	c2.12,3.27,4.7,6.24,6.74,9.55c4.69,7.63,9.38,15.29,13.69,23.14c4.15,7.54,7.78,15.37,11.73,23.02c0.7,1.35,1.86,2.46,2.7,3.75
	c0.82,1.27,1.52,2.62,2.26,3.94c0.4,0.72,0.65,1.58,1.19,2.17c5.29,5.72,10.05,12.14,16.1,16.9c7.51,5.91,15.16,12,25,14.27
	c3.72,0.86,7.36,2.92,10.53,5.14c13.04,9.12,27.64,14.86,42.51,19.99c9.15,3.16,18.51,5.69,27.64,8.89
	c4.17,1.46,8.24,3.31,11.67,6.49c1.93,1.79,4.81,2.85,7.45,3.54c5.84,1.54,11.87,2.4,17.69,3.99c4.72,1.29,9.32,3.08,13.86,4.93
	c6.43,2.63,13.24,3.29,19.91,2.77c3.45-0.27,6.81-3.1,10-5.11c6.52-4.1,12.89-8.43,19.32-12.67c7.84-5.16,15.8-10.15,23.46-15.57
	c3.04-2.15,5.35-5.32,8.13-7.89c4.02-3.72,9.13-5.24,14.24-6.73L679.15,694.31z"/>
<path d="M536.91,659.96c1.91-1.04,3.32-2.15,4.91-2.62c7.83-2.27,15.74-4.29,23.57-6.56c6.06-1.76,10.94,0.22,15.59,4
	c2.67,2.17,5.65,4,8.63,5.74c3.12,1.83,5.19,3.98,5.03,7.99c-0.22,5.78-2.29,10.92-4.85,15.92c-1.82,3.56-4.77,5.29-8.92,5.1
	c-5.75-0.27-11.54,0.03-17.24-0.55c-4.14-0.42-8.33-1.47-12.2-2.99c-4.05-1.6-6.91-4.9-7.2-9.48c-0.31-4.97,2.32-7.68,7.25-10.15
	c5.64-2.83,11.47-3.44,17.59-3.34c3.8,0.06,6.8,1.17,8.88,4.56c1.61,2.62,3.53,5.05,5.32,7.55c1.21,1.7,0.79,3.13-0.6,4.49
	c-1.28,1.25-2.51,2.55-3.88,3.94c1.86,1.83,3.74,1.3,4.71,0.13c3.74-4.48,6.78-9.41,5.9-15.62c-0.2-1.43-0.92-3.09-1.95-4.04
	c-4.26-3.92-9.12-7.13-14.56-9.04c-2.21-0.78-5.05-0.49-7.42,0.07c-7.24,1.71-14.38,3.82-21.57,5.72
	C541.81,661.33,539.63,662.31,536.91,659.96z M577.92,674.87c-4.51-1.69-7.98-4.87-12.97-3.07c-3.5,1.26-4.44,2.34-3.75,5.37
	c0.87,3.83,3.35,6.21,6.28,5.45C571.59,681.55,575.37,679.73,577.92,674.87z M558.87,683.96c-0.35-4.19-1.92-7.55-3.84-10.73
	c-0.35-0.58-1.72-0.98-2.46-0.79c-3.09,0.78-4.93,5-2.99,7.4C551.78,682.55,554.81,684.2,558.87,683.96z"/>
<path d="M351.67,512.69c4.37,8.38,12.09,12.14,19.61,16.11c3.58,1.89,7.38,3.35,10.95,5.25c5.46,2.91,11.45,2.66,17.29,3.1
	c3.63,0.27,7.31-0.2,10.97-0.32c5.73-0.19,11.13-1.7,16.18-4.35c3.33-1.75,6.49-3.81,9.72-5.75c0.36-0.21,0.68-0.51,0.97-0.8
	c3.75-3.73,3.17-6.46-1.85-7.86c-3.25-0.9-6.62-1.35-9.91-2.11c-5.29-1.22-7.84-2.41-11.19-5.33c2.82,0.5,4.88,0.71,6.86,1.23
	c6.37,1.69,12.7,3.5,19.05,5.27c4.12,1.15,4.55,2.24,2.35,5.92c-3.94,6.59-10.09,10.35-16.97,13.18
	c-6.06,2.49-12.31,3.79-18.91,3.75c-5.62-0.04-11.23,0.53-16.82-0.74c-4.93-1.12-9.84-2.11-14.24-4.9
	c-3.19-2.03-6.82-3.37-10.01-5.39c-4.13-2.62-8.07-5.57-12-8.49C351.2,518.6,350.57,516.06,351.67,512.69z"/>
<path d="M732.4,85.86c-1.91-1.92-3.93-3.74-5.69-5.79c-1.55-1.8-2.75-3.89-4.19-5.79c-1.93-2.52-3.11-5.09-2.76-8.5
	c0.2-1.93-0.46-4.37-1.61-5.93c-5.12-6.98-10.52-13.75-15.92-20.53c-0.85-1.06-2.17-1.74-3.46-2.75c-1.07,0.63-2.08,1.22-3.17,1.86
	c-0.32-0.48-0.72-0.81-0.73-1.15c-0.07-4-1.77-7-5.28-8.96c-1.35-0.75-2.39-1.82-1.44-3.39c0.82-1.36,2.17-2.4,3.9-1.59
	c1.63,0.76,3.49,1.49,4.64,2.77c6.33,7.08,12.51,14.3,18.68,21.53c1.45,1.7,2.64,3.62,3.97,5.42c1.92,2.59,2.89,5.3,2.19,8.65
	c-1.01,4.86,1.73,8.65,4.2,12.39c2.17,3.27,4.62,6.34,6.88,9.55c0.33,0.47,0.33,1.18,0.48,1.77
	C732.85,85.57,732.62,85.72,732.4,85.86z"/>
<path d="M346.49,529.93c-2.76-5.2-3.92-10.95-5.33-16.59c-1.59-6.36-2.85-12.79-4.39-19.16c-1.34-5.56-2.8-11.1-4.35-16.6
	c-1.17-4.16-2.57-8.25-3.84-12.38c-0.49-1.59-0.97-3.19-1.39-4.8c-0.99-3.79-1.98-7.59-2.91-11.4c-0.48-1.98-1.63-4.04,0.64-6.23
	c5.38,2.27,8.43,7.11,12.17,11.18c-0.18,0.28-0.37,0.57-0.55,0.85c-2.03-1.18-4.06-2.36-6.75-3.93c-0.13,1.89-0.51,3.25-0.26,4.49
	c1.08,5.36,2.29,10.69,3.57,16c1.41,5.84,2.9,11.66,4.43,17.47c1.34,5.12,2.81,10.2,4.17,15.32c1.93,7.29,3.85,14.59,5.68,21.91
	c0.29,1.16,0.04,2.45,0.04,3.69C347.1,529.8,346.8,529.86,346.49,529.93z"/>
<path d="M383.02,498.31c1.38,0.19,2.85,0.13,4.11,0.62c4.95,1.93,9.83,4.02,14.72,6.09c2.96,1.25,5.89,2.56,8.83,3.85
	c-0.03,0.3-0.06,0.6-0.09,0.9c-0.96-0.04-2.01,0.15-2.85-0.17c-6.81-2.64-13.63-5.3-20.35-8.16c-1.59-0.68-2.85-2.14-4.26-3.25
	L383.02,498.31z"/>
<path d="M533.82,537.2c0.53-1.22,0.82-2.65,1.64-3.63c3.46-4.08,7.02-8.07,10.68-11.98c0.68-0.73,1.95-0.9,2.95-1.33l-0.14-0.09
	c-4.09,5.22-8.13,10.48-12.33,15.62c-0.6,0.73-1.92,0.88-2.91,1.3L533.82,537.2z"/>
<path d="M567.27,765.24c-2.39-3.13-6.16-4.46-4.47-9.32C565.32,758.67,567.84,760.59,567.27,765.24z"/>
<path d="M740.35,96.96c-4.07-1.6-3.83-6.16-6.22-8.92C737.35,90.23,739.53,93.14,740.35,96.96z"/>
<path d="M679.24,694.42c1.36-1.14,2.68-2.31,4.08-3.4c0.6-0.47,1.36-0.74,2.26-1.21c-1.01,3.78-2.21,4.57-6.43,4.49
	C679.15,694.31,679.24,694.42,679.24,694.42z"/>
<path d="M685.56,109.59c0,1.33,0,2.65,0,3.98c-0.17,0.01-0.34,0.01-0.52,0.02c0-1.35,0-2.69,0-4.04
	C685.21,109.57,685.39,109.58,685.56,109.59z"/>
<path d="M685.85,105.56c0.14-0.85,0.28-1.69,0.43-2.54c0.29,0.02,0.57,0.04,0.86,0.07c0,0.86,0,1.72,0,2.58
	C686.71,105.63,686.28,105.6,685.85,105.56z"/>
<path d="M298.6,373.79c-0.93,0.74-1.56,1.25-2.42,1.93C296.37,373.63,296.37,373.63,298.6,373.79z"/>
<path d="M351.71,364.11c-0.42-0.05-0.77-0.07-1.12-0.15c-0.02-0.01-0.02-0.54,0.08-0.58c0.22-0.09,0.54-0.1,0.75,0.01
	C351.56,363.46,351.58,363.77,351.71,364.11z"/>
<path d="M604.88,576.92c-0.54-0.64-1.08-1.28-1.62-1.92c0.32-0.16,0.64-0.33,0.96-0.49c0.18,0.84,0.37,1.67,0.55,2.51L604.88,576.92
	z"/>
<path d="M341.17,458.64c0.51,0.48,0.93,0.71,1,1c0.05,0.23-0.36,0.56-0.56,0.84c-0.2-0.17-0.52-0.32-0.57-0.53
	C340.96,459.64,341.09,459.28,341.17,458.64z"/>
</svg>
