<?xml version="1.0" encoding="utf-8"?>
<!-- Generator: Adobe Illustrator 24.1.0, SVG Export Plug-In . SVG Version: 6.00 Build 0)  -->
<svg version="1.1" id="Layer_1" xmlns="http://www.w3.org/2000/svg" xmlns:xlink="http://www.w3.org/1999/xlink" x="0px" y="0px"
	 viewBox="0 0 1224 792" style="enable-background:new 0 0 1224 792;" xml:space="preserve">
<path d="M909.92,389.78c0,1.47,0.13,2.96-0.03,4.41c-0.42,3.87,0.7,6.85,2.9,10.34c4.76,7.56,7.56,16.01,7.56,25.34
	c0,13.28-3.89,25.33-9.77,36.99c-1.47,2.91-2.92,4.66-6.41,3.38c-2.64-0.97-2.96,0.93-3.13,2.82c-0.6,6.58-1.13,13.18-1.81,19.75
	c-1.26,12.13-2.18,24.32-4.05,36.35c-1.53,9.82-4.27,19.45-6.43,29.18c-0.57,2.58-0.96,5.19-1.46,7.78
	c-1.42,7.35-2.95,14.68-4.25,22.05c-2.45,13.99-6.85,27.32-14.65,39.2c-5.14,7.83-11.36,14.94-16.93,22.5
	c-7.21,9.8-14.25,19.73-21.36,29.59c-4.36,6.05-8.85,12.01-13.08,18.15c-6.07,8.82-12.07,17.7-17.87,26.7
	c-1.97,3.05-3.32,6.5-4.84,9.82c-3.62,7.91-9.13,14.42-15.81,19.71c-11.86,9.38-24.04,18.38-36.26,27.3
	c-9.42,6.88-20.02,8.22-31.08,5.02c-11.4-3.3-23.16-5.95-33.89-10.82c-9.92-4.5-20.5-7.26-30.1-12.34
	c-18.09-9.58-34.21-21.69-47.03-37.87c-4.1-5.18-8.41-10.2-12.36-15.49c-1.81-2.43-3.14-5.26-4.43-8.04
	c-2.97-6.38-5.31-13.11-8.76-19.21c-4.75-8.4-9.07-17.13-15.59-24.44c-5.85-6.56-11.75-13.08-17.38-19.82
	c-7.63-9.11-15-18.44-22.53-27.64c-5.68-6.93-11.44-13.79-17.15-20.69c-2.94-3.55-6.48-5.2-11.27-4.45c-1.99,0.31-4.2-0.68-6.3-1.08
	c-0.92-0.18-1.85-0.36-2.77-0.55c-0.18,1.06-0.66,2.18-0.48,3.18c1.15,6.41-0.36,12.57-2.32,18.48c-1.39,4.18-4.48,5-8,2.3
	c-5.55-4.26-10.95-8.8-15.92-13.72c-5.51-5.46-10.42-11.53-15.69-17.24c-1.38-1.5-2.97-2.98-4.76-3.89
	c-6.31-3.24-8.91-8.51-9.32-15.32c-0.34-5.55-0.6-11.15-1.55-16.61c-0.98-5.6-2.24-11.27-4.35-16.52
	c-1.41-3.51-2.57-6.82-2.24-10.55c0.54-6.14,0.74-12.36,1.93-18.39c1.17-5.92,5.05-10.8,9.67-14.34c5.8-4.44,12.28-8.05,18.68-11.62
	c5.08-2.83,10.75-3.83,16.61-3.89c4.31-0.04,4.81-1.16,3.52-5.18c-3.06-9.6-6.64-19.04-7.17-29.32c-0.17-3.38-1.76-6.74-2.99-9.99
	c-1.65-4.35-3-8.98-5.54-12.78c-3.51-5.27-4.12-10.79-3.99-16.78c0.3-14.27,1.44-28.62,0.27-42.78
	c-1.28-15.46-1.45-30.86-1.22-46.29c0.12-8.05,0.93-16.15,2.13-24.12c1.72-11.42,4.43-22.69,6.05-34.12
	c1.32-9.29,2.28-18.72,2.26-28.08c-0.02-10.85,3.27-20.75,6.38-30.85c2.14-6.97,5.84-13.06,9.53-19.16
	c2.34-3.86,5.5-7.22,8.13-10.91c2.2-3.08,4.16-6.33,6.23-9.5c4.23-6.46,8.49-12.91,12.69-19.39c1.58-2.44,2.99-4.99,4.55-7.44
	c3.22-5.05,6.24-10.25,9.78-15.06c7.11-9.67,14.63-18.94,23.26-27.42c7.37-7.23,15.1-13.84,23.33-19.99
	c5.03-3.76,9.53-8.23,14.61-11.92c5.42-3.94,11.02-7.76,16.94-10.87c8.05-4.22,16.48-7.72,24.76-11.5c2-0.92,4.06-1.7,6.05-2.63
	c7.01-3.31,14.58-4.44,22.12-5.68c14.99-2.46,30.12-3.28,45.27-3.92c8.37-0.35,16.73-1.15,25.07-2.06
	c9.36-1.03,17.17,2.15,23.55,8.62c11.5,11.66,22.69,23.63,34.04,35.45c6.19,6.45,12.47,12.8,18.61,19.28
	c10.28,10.84,19.71,22.4,27.89,34.92c1.99,3.04,3.3,6.52,4.8,9.86c5.67,12.65,9.74,25.81,12.47,39.38
	c1.88,9.34,3.55,18.73,5.49,28.06c2.02,9.75,4.35,19.44,6.36,29.19c1.48,7.19,2.74,14.43,3.98,21.66
	c1.26,7.37,2.39,14.77,3.53,22.16c1.14,7.38,2.4,14.74,3.31,22.15c1.48,12.11,2.59,24.26,4.12,36.37
	c0.99,7.85,2.38,15.65,3.71,23.45c0.91,5.36,1.83,10.73,3.11,16c1.25,5.12,2.73,10.2,4.54,15.15c2.38,6.51,2.58,6.55,9.24,4.61
	c5.96-1.73,11.89-3.32,18.21-2.69c4.21,0.42,6.42,1.85,6.86,6c0.43,4.06,0.09,8.2,0.09,12.31
	C909.81,389.78,909.87,389.78,909.92,389.78z M908.67,455.97c6.86-9.43,9.2-36.67-0.35-45.96c-0.48,0.16-1.15,0.2-1.54,0.56
	c-1.19,1.11-2.58,1.94-3.82,0.57c-0.99-1.09-1.68-2.66-1.94-4.12c-0.18-1.02,0.55-2.23,0.96-3.32c2.8-7.33,2.83-14.97,2.48-22.64
	c-0.11-2.54-1.46-4.01-4.23-4.06c-11.65-0.22-17.31,3.38-17.25,15.56c0,0.74,0,1.47,0,2.21c-0.02,8.39,0.1,16.79-0.13,25.18
	c-0.09,3.18-0.82,6.39-1.62,9.48c-0.25,0.97-1.73,1.63-2.64,2.43c-0.74-0.95-1.75-1.81-2.15-2.89c-0.39-1.05-0.2-2.33-0.19-3.5
	c0.05-6.63,0.44-13.27,0.12-19.87c-0.46-9.54-0.73-19.18-2.38-28.55c-1.54-8.75-4.93-17.16-7.19-25.8
	c-1.9-7.23-3.8-14.51-4.88-21.89c-1.47-10.02-2.13-20.17-3.2-30.25c-0.36-3.36-0.87-6.7-1.39-10.04c-0.63-4.06-1.47-8.09-1.97-12.16
	c-0.98-7.86-1.76-15.74-2.7-23.61c-0.52-4.37-0.96-8.76-1.83-13.07c-1.99-9.91-4.28-19.76-6.33-29.66
	c-1.25-6.03-2.22-12.12-3.41-18.17c-1.16-5.88-2.45-11.73-3.69-17.59c-2.11-10.05-3.67-20.26-6.48-30.11
	c-2.85-9.96-6.7-19.67-10.58-29.31c-4.03-10-10.41-18.68-17.33-26.83c-7.11-8.38-14.72-16.34-22.21-24.38
	c-7.8-8.37-15.56-16.79-23.63-24.89c-7.23-7.26-14.93-14.05-22.3-21.17c-3.97-3.83-8.5-6.43-14.07-6.28
	c-9.41,0.25-18.81,0.79-28.21,1.31c-17.78,0.97-35.56,1.86-53.05,5.59c-3.58,0.76-7.35,1.06-10.69,2.42
	c-8.15,3.31-16.05,7.23-24.15,10.69c-13.31,5.68-25.79,12.62-36.32,22.71c-0.42,0.4-0.91,0.74-1.37,1.11
	c-6.38,5.11-13.04,9.91-19.09,15.39c-9.77,8.85-19.02,18.26-27,28.82c-1.76,2.33-3.54,4.66-5.12,7.12
	c-5.47,8.5-10.84,17.07-16.29,25.59c-2.75,4.31-5.67,8.52-8.36,12.86c-1.92,3.1-3.4,6.48-5.44,9.49c-2.71,3.99-5.86,7.69-8.69,11.61
	c-5.37,7.45-8.59,15.88-11.6,24.52c-2.79,8.01-4.89,15.97-4.65,24.5c0.12,4.41,0.24,8.89-0.36,13.24
	c-1.36,9.87-3.23,19.67-4.78,29.51c-0.91,5.78-1.57,11.61-2.38,17.41c-0.93,6.69-2.61,13.37-2.72,20.07
	c-0.26,14.84,0.12,29.7,0.5,44.55c0.17,6.76,1.37,13.5,1.4,20.25c0.06,10.59-0.54,21.18-0.71,31.77c-0.04,2.9-0.31,6.23,0.92,8.65
	c3.53,6.95,5.13,14.56,8.14,21.68c2.01,4.74,3.5,5.94,8.66,5.23c1.11-0.15,2.99,0.04,3.35,0.7c0.85,1.59-0.72,2.05-1.99,2.64
	c-3.48,1.61-3.82,2.31-1.91,5.7c3.23,5.73,6.8,11.27,10.09,16.98c2.35,4.08,6.02,5.38,10.38,5.45c5.59,0.08,11.19,0.28,16.77,0.07
	c5.27-0.19,10.68-0.2,15.75-1.42c11.01-2.65,21.91-5.78,33.29-6.49c4.82-0.3,9.66-0.76,14.48-0.59c15.14,0.53,30.02,4.11,45.27,3.71
	c12.69-0.33,23.85,4.64,33.97,11.76c5.86,4.13,11.02,9.24,16.6,13.79c6.13,5,12.25,10.03,18.61,14.73
	c8.84,6.53,19.02,11.23,26.77,19.24c2.83,2.93,5.58,6.1,7.62,9.6c3.09,5.3,6,10.81,8.12,16.54c3.21,8.66,1.21,18.4-8.68,22.41
	c-4.31,1.75-8.95,2.75-13.5,3.84c-4.84,1.15-5.57,2.39-4.25,7.04c2.04,7.18,0.59,10.08-4.24,13.34c-2.22,1.5-5.04,2.22-7.68,2.94
	c-2.39,0.65-4.96,0.64-7.37,1.24c-10.68,2.65-19.41-0.32-26.25-8.89c-0.5-0.62-1.01-1.68-0.82-2.33c1.22-4.1-1.7-5.75-4.23-7.75
	c-1.36-1.08-2.69-2.28-3.73-3.65c-0.51-0.68-0.76-2.04-0.44-2.79c1.92-4.42,3.8-8.76,7.3-12.42c7.29-7.63,17.27-10.97,25.63-16.84
	c1.82-1.28,3.72-0.42,4.81,1.58c0.63,1.15,1.41,2.33,1.63,3.59c1.36,7.75,7.29,12.87,11,19.25c0.51,0.87,2.26,1.75,3.19,1.53
	c5.41-1.26,10.96-2.34,16.05-4.45c7.05-2.92,9.03-8.96,6.11-15.98c-0.34-0.81-0.56-1.67-0.84-2.51
	c-4.72-13.79-13.78-24.03-25.94-31.77c-5.45-3.47-11.09-6.71-16.16-10.68c-10.39-8.15-20.48-16.7-30.65-25.14
	c-8.51-7.06-18.13-11.21-29.26-11.75c-8.38-0.41-16.77-0.81-25.11-1.58c-8.2-0.76-16.33-2.22-24.53-2.95
	c-9.46-0.84-18.75,0.79-27.98,2.77c-10.32,2.21-20.64,4.42-30.95,6.65c-1.19,0.26-2.36,0.6-3.54,0.9c-0.06,0.34-0.12,0.67-0.18,1.01
	c1.12,0.81,2.17,1.73,3.37,2.41c3.06,1.75,6.48,3.01,9.23,5.14c9.52,7.34,18.49,15.31,25.8,24.98c2.3,3.04,4.64,6.14,7.45,8.69
	c8.13,7.39,16.31,14.74,24.84,21.66c6.7,5.44,13.94,10.21,20.94,15.28c0.71,0.52,1.59,0.95,2.03,1.65c0.4,0.65,0.69,1.87,0.34,2.37
	c-0.48,0.71-1.56,1.26-2.44,1.36c-0.77,0.08-1.67-0.46-2.42-0.9c-10.01-5.96-18.97-13.31-27.7-20.97
	c-3.86-3.39-7.66-6.86-11.52-10.25c-2.33-2.05-4.83-3.75-7.6-2.77c-4.46-6.69-7.33-13.81-12.8-19.29c-2.08-2.08-4.3-4.04-6.13-6.31
	c-9.26-11.46-21.37-18.16-35.5-21.52c-1.92-0.46-3.96-0.39-5.87-0.55c-1.38,3.63,0.6,5.5,2.31,7.5c6.76,7.9,10.86,17.34,15.37,26.54
	c1.06,2.17,0,3.85-1.69,4.9c-2.16,1.35-4.58,2.29-6.56,3.25c-3.2-2.68-6.1-5.58-9.46-7.8c-4.15-2.74-8.64-4.98-13.04-7.32
	c-2.1-1.12-2.52-2.81-1.9-4.82c0.68-2.21,2.46-2.19,4.33-1.79c1.3,0.27,2.61,0.47,4.3,0.76c-0.29-1.2-0.3-1.66-0.51-2.02
	c-2.82-4.96-5.6-9.95-8.58-14.8c-0.52-0.85-1.97-1.64-2.95-1.59c-5.54,0.28-11.61-0.46-16.47,1.58c-7.6,3.19-14.56,8.08-21.46,12.73
	c-4.59,3.09-8.54,7.75-9.13,13.08c-0.9,8.09-0.08,16.37,0.14,24.57c0.03,1.1,0.83,2.18,1.22,3.29c1.12,3.17,2.71,6.27,3.19,9.53
	c0.96,6.52,1.46,13.12,1.85,19.71c0.32,5.44,3.16,9.27,6.96,12.73c4.21,3.85,8.5,7.64,12.48,11.71c6.15,6.3,11.7,13.21,19.1,18.17
	c1.57,1.05,3.46,1.62,5.55,2.56c1.67-5.3,2.12-9.64,0.56-14.2c-1.48-4.34-3.03-8.54-6.4-11.86c-1.5-1.47-1.45-3.54,0.14-4.65
	c1.03-0.72,2.91-0.44,4.36-0.24c0.75,0.11,1.31,1.17,2.09,1.55c4.97,2.44,9.84,6.34,15.01,6.82c6.84,0.63,11.66,3.49,15.91,8.06
	c4.99,5.36,9.8,10.91,14.44,16.58c4.44,5.42,8.46,11.19,12.86,16.65c11.23,13.94,24.12,26.45,34.71,40.95
	c6.44,8.81,11.77,18.15,16.06,28.17c2.42,5.65,4.8,11.44,8.17,16.52c7.61,11.48,15.97,22.39,26.44,31.59
	c8.52,7.48,17.11,14.83,27.37,19.79c7.12,3.44,14.53,6.27,21.78,9.44c5.78,2.53,11.37,5.6,17.31,7.63
	c9.02,3.07,18.2,5.77,27.46,8.01c10.74,2.6,20.99,1.47,30.13-5.65c5.32-4.15,10.9-7.97,16.5-11.74
	c8.82-5.93,16.77-12.86,24.06-20.54c2.01-2.12,4.14-4.36,5.38-6.94c7.05-14.72,15.97-28.32,25.12-41.75
	c6.75-9.91,14.2-19.34,21.28-29.02c9.07-12.39,17.8-25.04,27.22-37.15c6.82-8.77,11.17-18.47,13.69-29.11
	c1.52-6.41,2.59-12.93,3.97-19.38c0.85-4,2.03-7.93,2.84-11.94c1.37-6.76,2.5-13.57,3.85-20.33c1.35-6.75,2.97-13.46,4.24-20.23
	c0.7-3.75,0.96-7.59,1.37-11.4c0.99-9.2,2.33-18.38,2.82-27.61c0.77-14.55,0.41-29.08-3.8-43.24c-0.25-0.84-0.41-1.73-0.41-2.6
	c-0.02-3.01,1.54-4.58,4.43-3.89c3.78,0.9,7.9,1.59,8.81,6.59c0.28,1.56,1.05,3.07,1.84,4.48
	C905.78,451.72,907.11,453.56,908.67,455.97z M673.17,587.16c6.07-1.56,12.18-2.99,18.19-4.77c1.31-0.39,3.2-2.11,3.15-3.12
	c-0.14-2.64-0.75-5.51-2.07-7.74c-1.02-1.72-8.57-1.66-10.33-0.54c-3.26,2.06-4.95,2.02-7.65-0.66c-1.68-1.66-3.23-1.7-5.11-0.55
	c-2,1.22-4,2.47-6.09,3.54c-3,1.54-3.5,2.63-2.31,5.78C662.57,583.44,667.33,586.31,673.17,587.16z M665.73,552.25
	c-6.94,0.62-13.59,9.28-11.34,15.19C658.26,562.25,661.87,557.41,665.73,552.25z M468.35,444.6c-0.8,0.57-1.26,0.8-1.24,0.9
	c0.98,3.87,1.9,7.75,3.13,11.54c0.17,0.52,2.16,1.01,2.88,0.65c0.78-0.38,1.68-1.97,1.45-2.69
	C473.37,451.13,471.36,447.68,468.35,444.6z M486.33,485.76c0.75-6.49-1.74-10.35-6.33-10.67
	C479.51,480.27,484.26,482.21,486.33,485.76z M683.3,562.55c0.46-0.26,0.92-0.52,1.38-0.78c-0.39-0.75-0.73-1.52-1.22-2.2
	c-0.05-0.08-0.88,0.4-1.34,0.62C682.52,560.97,682.91,561.76,683.3,562.55z"/>
<polygon points="970.57,526.97 970.34,526.77 970.62,526.67 "/>
<path d="M774.83,585.48c-0.22,5.81,2.29,10.56,4.25,15.41c2.83,7.03,4.38,14.28,4.79,21.81c0.05,0.86,0.12,1.97-0.34,2.56
	c-3.45,4.37-2.77,9.48-2.54,14.41c0.35,7.49-4.42,12.57-9.59,15.69c-5.95,3.58-15.94,3.51-22.87-2.34
	c-5.6-4.73-10.75-9.99-17.32-13.51c-0.75-0.4-0.95-1.84-1.4-2.79c1.16-0.29,2.67-1.2,3.42-0.77c3.54,2.04,6.91,4.39,10.25,6.74
	c5.59,3.93,10.52,8.8,18.09,9.2c8.57,0.46,13.42-4.7,13.87-12.92c0.43-7.86,0.24-7.86-7.68-6.83c-6.84,0.89-13.66,1.94-20.52,2.52
	c-2.04,0.17-4.24-0.9-6.27-1.65c-3.56-1.3-7.11-2.64-10.53-4.24c-1.8-0.84-3.59-2.02-4.94-3.47c-6.22-6.69-7.44-15.07-7.56-23.75
	c-0.02-1.32,0.51-2.66,0.36-3.95c-0.37-3.13,1.26-5.02,3.67-6.44c8.44-4.96,13.24-13.12,18.27-21.01c3.94-6.19,8.31-10,16.65-9.67
	c8.56,0.34,16.1,2.93,23.7,6.05c3.42,1.4,7.78,9.05,7.56,12.67c-0.14,2.29-1.65,3.4-3.59,3.93
	C781.46,583.98,778.32,584.65,774.83,585.48z M773.84,579.53c2.65,0.98,5.03,0.73,5.5-1.59c0.32-1.58-0.75-4.46-2.07-5.18
	c-5.35-2.93-10.65-6.42-17.26-5.68c-1.75,0.2-3.53,0.54-5.28,0.42c-5.03-0.33-7.57,2.54-9.95,6.5c-2.81,4.67-6.18,9.05-9.66,13.26
	c-2.7,3.26-5.97,6.04-8.9,9.12c-0.78,0.82-1.67,1.91-1.77,2.95c-0.55,5.43-1.33,11.27,1.8,15.92c5.4,8.04,12.98,13.41,23.18,12.74
	c6.86-0.45,13.66-1.9,20.48-3.01c2.91-0.47,3.9-2.04,3.37-5.05c-0.31-1.73-0.84-3.42-1.21-5.13c-1.56-7.32-3.3-14.61-4.56-21.99
	c-0.88-5.17-1.15-10.45-1.51-15.69c-0.13-1.91,0.75-3.53,2.97-3.67c2.35-0.15,3.99,0.84,4.44,3.32
	C773.56,577.61,773.67,578.48,773.84,579.53z"/>
<path d="M825.14,560.22c-0.5,3.58,0.81,7.05-3.06,9.39c-4.85,2.93-9.85,2.79-14.29,0.4c-5.23-2.82-9.84-6.82-14.65-10.4
	c-0.64-0.48-1.17-1.43-1.29-2.23c-0.95-6.04-1.42-12.05,3.11-17.09c1.96-2.18,3.92-4.39,6.09-6.34c3.81-3.43,7.48-2.98,11.27,0.57
	c5.49,5.14,8.78,11.67,11.79,18.31C825.16,555.11,824.87,558,825.14,560.22z M805.99,563.29c1.77,0.86,3.47,2.21,5.32,2.5
	c7.53,1.16,10.84-1.38,8.9-8.7c-1.93-7.31-5.45-13.51-11.15-18.51c-3.02-2.65-4.35-2.44-6.59,1.39c4.75,3.76,4.74,3.77,6.36,11.03
	c0.16,0.71,0.48,1.38,0.77,2.06C811.96,558.55,811.55,559.7,805.99,563.29z M804.11,561.06c-1.95-4.18-3.57-7.66-5.44-11.66
	C796.26,554.69,798.21,558.69,804.11,561.06z"/>
<path d="M784.19,679.54c-0.65-2.17-1.17-3.91-1.7-5.65c0.26-0.26,0.52-0.52,0.77-0.78c0.84,0.47,1.83,0.79,2.51,1.44
	c2.19,2.1,4.17,4.44,6.43,6.46c1.53,1.37,2.91,2.59,1.86,4.79c-1.14,2.39-3.04,2.17-5.25,1.6c-3.67-0.95-7.4-1.74-11.15-2.31
	c-3.41-0.52-6.21,0.7-8.62,3.36c-3.49,3.85-9.21,5.09-13.23,2.98c-1.11-0.58-2.49-2.07-2.44-3.07c0.05-1.04,1.52-2.35,2.67-2.93
	c8.17-4.07,16.84-5.98,26-5.41C782.6,680.06,783.16,679.79,784.19,679.54z"/>
<path d="M745.07,587.15c0,2.22-2.8,4.86-4.23,4.42c-0.9-0.28-1.96-1.33-2.19-2.23c-0.46-1.77,1.86-3.65,4.15-3.38
	C743.7,586.07,744.53,586.86,745.07,587.15z"/>
<path d="M755.9,601.69c-0.07,0.54-0.14,1.08-0.2,1.62c-0.18-0.06-0.37-0.13-0.55-0.19c0.28-0.45,0.56-0.89,0.84-1.34L755.9,601.69z"
	/>
<path d="M755.98,601.78l-0.09-0.08L755.98,601.78z"/>
</svg>
