<?xml version="1.0" encoding="utf-8"?>
<!-- Generator: Adobe Illustrator 24.1.0, SVG Export Plug-In . SVG Version: 6.00 Build 0)  -->
<svg version="1.1" id="Layer_1" xmlns="http://www.w3.org/2000/svg" xmlns:xlink="http://www.w3.org/1999/xlink" x="0px" y="0px"
	 viewBox="0 0 1224 792" style="enable-background:new 0 0 1224 792;" xml:space="preserve">
<path d="M898.89,483.27c0.75-0.82,1.53-1.62,2.25-2.47c2.73-3.26,5.29-6.67,8.22-9.74c1.33-1.39,3.25-2.67,5.09-3.01
	c4.16-0.76,8.43-1.19,12.67-1.23c7.13-0.07,15.81,7.64,16.41,14.72c0.76,9.06-1.75,17.23-6.96,24.83
	c-2.85,4.16-6.39,6.33-10.94,8.06c-4.73,1.81-9.09,4.65-13.49,7.25c-3.97,2.35-6.16,2.36-9.33-1.07c-2.18-2.36-3.92-5.11-5.88-7.67
	c-0.61-0.79-1.27-1.54-2.2-2.66c-0.74,1.01-1.46,1.68-1.82,2.52c-2.26,5.23-4.67,10.42-6.6,15.78c-2.86,7.95-5.31,16.04-8.02,24.04
	c-1.31,3.86-2.45,7.84-4.3,11.45c-4.66,9.12-8.99,18.3-11.7,28.27c-1.86,6.87-4.73,13.46-7.16,20.17c-0.05,0.14-0.11,0.28-0.2,0.39
	c-6.34,7.37-7.81,17.21-12.93,25.27c-3.42,5.38-5.55,11.57-8.38,17.33c-4.05,8.24-10.37,14.86-15.92,22.03
	c-6.91,8.92-13.5,18.08-20.41,26.99c-9.35,12.06-18.86,23.91-31.55,32.87c-5.7,4.03-11.26,8.32-16.53,13.04
	c-10.98,9.82-23.19,18.1-37.5,22.43c-7.85,2.38-15.93,4.25-24.25,3.76c-2.25-0.13-4.76-0.79-6.61-2.01
	c-10.7-7.08-22.2-12.54-33.99-17.5c-4.59-1.93-8.95-4.41-13.43-6.61c-6.32-3.11-12.68-6.14-18.97-9.31
	c-1.95-0.98-3.75-2.26-5.56-3.5c-4.59-3.16-8.94-6.71-13.75-9.48c-7.25-4.18-13.21-9.56-18.35-16.14
	c-4.32-5.54-9.41-10.47-13.99-15.82c-5.25-6.12-10.24-12.4-13.54-19.92c-1.51-3.45-4.08-6.42-6.13-9.64
	c-6.93-10.87-13.67-21.83-18.35-33.93c-0.95-2.45-2.31-4.74-3.53-7.08c-5.07-9.73-9.02-19.85-12.16-30.4
	c-2.33-7.81-6.17-15.17-9.15-22.8c-6.35-16.27-16.3-30.33-26.81-44.05c-5.35-6.98-7.67-11.08-10.31-20.99
	c-0.98,0.85-2.03,1.34-2.4,2.15c-1.22,2.64-2.17,5.4-3.26,8.1c-1.98,4.85-3.9,9.73-6.05,14.51c-0.48,1.06-1.75,2.32-2.8,2.46
	c-5.92,0.82-11.8,1.9-17.89,1.33c-4.36-0.41-6.97-2.85-9.15-6.03c-3.64-5.29-6.98-10.79-10.62-16.08
	c-2.14-3.12-1.78-6.75-2.53-10.14c-0.63-2.85-0.72-5.82-1.31-8.68c-0.85-4.15-2.15-8.21-2.88-12.37c-0.8-4.55-0.03-8.32,4.32-11.49
	c5.33-3.87,10.5-7.9,16.29-11.13c2.84-1.59,5.65-2.23,8.82-2.17c6.92,0.14,13.81-0.16,20.39-2.68c0.82-0.32,1.67-0.59,2.44-1
	c4.45-2.34,4.44-2.35,8.49-1.04c1.75-3.82,2.14-7.72,1.43-11.9c-2.09-12.32-3.46-24.67-1.4-37.16c0.45-2.73,0.51-5.55,0.53-8.33
	c0.11-11.91,0.05-23.82,0.23-35.72c0.13-8.66,0.64-17.31,0.79-25.96c0.05-2.91-0.57-5.83-0.72-8.75c-0.11-2.18-1-3.68-2.52-5.31
	c-1.33-1.41-1.65-3.76-2.54-5.98c-2.85-0.24-5.35,1.65-8.14,2.87c-1.38,0.6-3.5,0.47-4.89-0.18c-1.98-0.93-1.94-3.2-1.48-5.1
	c0.5-2.05,2.08-2.92,4.17-3.34c4.16-0.83,8.26-2.01,12.41-2.89c2-0.42,2.65-1.62,2.68-3.43c0.16-11.09,2.79-21.78,5.47-32.44
	c1.03-4.1,2.85-7.99,3.92-12.08c3.12-11.98,9.05-23.18,9.8-35.8c0.1-1.61,0.17-3.23,0.17-4.84c-0.02-5.03,0.81-9.81,2.68-14.58
	c3.52-8.95,6.51-18.11,9.73-27.18c0.29-0.81,0.51-1.77,1.08-2.35c4.91-4.97,8.07-11.13,11.75-16.94c2.2-3.46,4.49-6.88,6.99-10.12
	c6.45-8.33,13.03-16.57,19.59-24.81c12.2-15.34,24.52-30.59,36.58-46.03c4.41-5.65,8.02-11.93,12.4-17.61
	c4.42-5.72,9.69-10.41,17.12-12.28c4.66-1.17,9.04-3.43,13.63-4.95c11.26-3.74,22.56-7.34,33.84-10.99
	c5.17-1.67,10.32-3.38,15.51-4.99c7.58-2.35,15.3-3.91,23.24-4.64c13.17-1.21,25.99,1.12,38.84,3.32
	c5.77,0.98,11.55,1.95,17.31,2.98c10.2,1.82,18.95,6.7,27.16,12.8c2.45,1.82,5.01,3.7,7.81,4.83c4.32,1.75,7.82,4.51,11.38,7.36
	c5.11,4.1,10.39,7.98,15.96,11.47c5.7,3.58,11.14,7.56,16.77,11.27c1.56,1.03,3.36,1.71,5.07,2.51c5.85,2.73,12.04,4.92,17.46,8.33
	c3.98,2.5,7.41,6.25,10.25,10.07c2.84,3.83,4.74,8.39,6.87,12.72c2.83,5.77,5.45,11.64,8.22,17.43
	c6.41,13.42,12.92,26.8,19.25,40.26c3.3,7,6.8,13.96,9.32,21.24c2.27,6.59,4.08,13.41,4.54,20.52c0.31,4.8,1.35,9.57,2.27,14.31
	c1.4,7.2,2.71,14.38,2.95,21.77c0.19,5.81,0.91,11.67,2.09,17.37c1.76,8.49,0.62,16.89,0.15,25.34c-0.28,5.09-0.59,10.18-0.79,15.28
	c-0.14,3.63-0.08,7.26-0.21,10.89c-0.1,2.7,0.83,4.61,3.03,6.38c2.94,2.36,5.49,5.23,8.09,7.99c3.52,3.74,6.95,7.56,10.37,11.38
	c2.06,2.3,2.39,4.75,1.04,6.76c-1.33,1.98-3.88,2.65-6.72,1.34c-2.92-1.34-5.64-3.09-8.49-4.59c-1.34-0.7-2.78-1.22-4.41-1.91
	c-0.43,1.21-0.84,1.87-0.87,2.55c-0.56,11.11-0.85,22.18-0.18,33.34c0.66,10.93-0.15,21.95-0.45,32.92
	c-0.12,4.25-0.38,8.52-0.98,12.72c-0.7,4.89-1.8,9.72-2.79,14.56c-0.7,3.42-1.43,6.85-2.3,10.23c-2.04,7.91-4.29,15.77-6.24,23.7
	c-1.14,4.62-1.87,9.35-2.79,14.02C898.11,482.96,898.5,483.11,898.89,483.27z M472.32,302.35c7.32-1.24,13.83-2.79,20.01-5.6
	c2.54-1.15,5.09-2.33,7.72-3.22c2.61-0.89,3.81,0.04,4.14,2.82c0.07,0.58,0.01,1.18,0.04,1.76c0.18,3.68,0.97,4.49,4.49,4.08
	c6-0.7,11.85-1.93,17.37-4.6c3.26-1.58,6.68-3.05,10.19-3.8c7.34-1.59,14.83-1.04,22.3-0.95c8.67,0.11,16.77,2.48,24.87,5.09
	c2.63,0.85,5.34,1.58,7.8,2.79c8.01,3.93,15.9,8.11,23.9,12.05c1.22,0.6,2.8,0.62,4.22,0.66c7.48,0.21,14.95,0.35,22.43,0.46
	c1.15,0.02,2.39-0.07,3.44-0.49c2.99-1.19,6.04-2.32,8.8-3.93c4.22-2.45,8.48-4.46,13.38-5.32c5.18-0.91,10.32-2.29,15.32-3.92
	c6.64-2.17,13.5-3.45,20.33-3.36c8.79,0.12,16.94,3.53,24.33,8.17c5.94,3.73,11.14,8.68,17.19,12.21c6.56,3.83,12,8.88,17.62,13.79
	c3.84,3.35,7.54,6.85,11.38,10.35c1.2-0.75,2.28-1.27,3.16-2.01c1.76-1.48,3.7-1.83,5.75-0.95c2.35,1,2.22,3.19,2.27,5.28
	c0.05,1.78,0.21,3.56,0.36,5.9c1.31-0.97,1.9-1.39,2.47-1.84c6.09-4.81,12.05-9.81,18.33-14.37c3.16-2.3,6.76-4.15,10.39-5.63
	c8.81-3.59,17.72-6.95,26.66-10.2c5.23-1.9,10.48-4.31,15.91-4.96c13.52-1.64,27.12-2.88,40.77-0.94c4.66,0.66,4.76,0.32,4.98-4.56
	c0.3-6.88,0.64-13.78,1.34-20.63c1-9.82,0.81-19.59-0.28-29.38c-0.49-4.37-0.78-8.76-1.21-13.13c-0.42-4.23-0.75-8.47-1.37-12.66
	c-1.16-7.83-2.77-15.6-3.69-23.45c-1.18-10.13-3.43-19.89-7.94-29.07c-2.07-4.21-4.31-8.34-6.28-12.6
	c-4-8.62-7.72-17.38-11.83-25.95c-5.01-10.42-10.75-20.51-15.36-31.1c-4.65-10.68-12.27-17.93-22.42-23.07
	c-7.54-3.82-15.18-7.2-22.17-12.36c-11.52-8.5-24.19-15.43-36.31-23.13c-3.21-2.04-6.13-4.51-9.24-6.71
	c-3.82-2.69-7.4-5.99-11.61-7.81c-7.79-3.37-15.92-5.57-24.61-6.05c-10.95-0.61-21.85-2.27-32.78-3.41
	c-2.02-0.21-4.07-0.07-6.1-0.18c-5.79-0.33-11.33,1.15-16.89,2.34c-5.15,1.1-10.58,1.71-15.31,3.82c-5.14,2.29-10.48,3.7-15.72,5.55
	c-1.65,0.59-3.22,1.42-4.88,2c-5.53,1.92-10.97,4.57-16.68,5.42c-4.81,0.71-8.94,2.62-13.31,4.24c-1.24,0.46-2.47,0.98-3.74,1.32
	c-6.65,1.79-11.76,5.65-15.86,11.16c-7.96,10.68-15.99,21.32-24.18,31.82c-7.67,9.83-15.56,19.48-23.42,29.15
	c-2.22,2.73-4.87,5.11-7,7.9c-4.45,5.81-8.8,11.69-12.97,17.7c-5.5,7.94-10.83,16-16.15,24.06c-1.16,1.76-1.96,3.77-2.92,5.66
	c0.31,0.24,0.61,0.49,0.92,0.73c1.02-0.91,1.99-1.89,3.07-2.71c3.09-2.35,6.63-0.87,7.01,3.02c0.18,1.88-0.03,3.82-0.19,5.72
	c-0.45,5.36-0.91,10.72-1.49,16.06c-0.51,4.65-1.14,9.29-1.83,13.91c-0.13,0.84-0.82,1.6-1.62,3.07c-3.26-7.74-1.17-15.21-2.3-22.39
	c-3.41-0.2-4.29,2.51-4.46,4.52c-0.29,3.42-1.82,6.11-3.35,8.94c-0.76,1.41-1.95,2.92-1.95,4.38c0,7.41-5.8,13-6.16,20.3
	c-0.07,1.43-1.54,2.76-2.26,4.18c-0.78,1.54-1.56,3.09-2.1,4.72c-0.77,2.32-1.39,4.7-1.95,7.08c-0.64,2.68-1.25,5.38-1.67,8.1
	c-0.12,0.75,0.29,1.73,0.77,2.39c1.03,1.42,2.06,2.96,3.44,3.97c3.76,2.76,7.71,5.28,11.58,7.9c1.88,1.27,2.26,2.92,1.06,4.42
	c-1.13,1.42-3.05,1.4-4.63,0.27c-3.61-2.61-7.26-5.16-11.03-7.54c-0.77-0.49-2.57-0.57-3.08-0.04c-2.09,2.12-4.83,4.29-5.56,6.93
	c-1.95,7.02-3.06,14.29-4.34,21.49C471.43,299.12,472.01,300.45,472.32,302.35z M730.34,575.37c-0.77,2.04-1.38,3.59-1.93,5.15
	c-0.67,1.92-1.12,3.93-1.96,5.77c-2.93,6.34-8.95,8-14.96,9.47c-2.09,0.51-4.11-0.04-5.32-2.16c-1.01-1.77-2.05-3.51-3.01-5.3
	c-1.93-3.59-3.86-3.96-6.87-1.21c-1.52,1.39-2.96,2.86-4.51,4.21c-2.45,2.14-4.37,2.36-7.21,0.87c-1.3-0.68-2.68-1.33-3.75-2.3
	c-4.2-3.8-8.07-7.81-7.28-14.23c0.75-6.11,1.18-12.27,2.18-18.34c1.31-7.94,3.03-15.8,4.59-23.7c1.24-6.3,2.6-12.58,3.74-18.89
	c0.91-5.03,1.4-10.13,2.38-15.14c1.71-8.77,3.59-17.5,3.11-26.53c-0.11-2.05-0.38-4.21,0.09-6.16c1.83-7.53,0.11-14.96-0.7-22.32
	c-1.02-9.34-2.36-18.6-1.49-28.02c0.07-0.72-0.06-1.46-0.11-2.2c-0.5-7.59-1-15.17-1.52-22.76c-0.09-1.31-0.24-2.61-0.46-3.9
	c-0.39-2.26-0.96-4.5-1.25-6.77c-0.67-5.22-1.08-10.48-1.89-15.68c-0.45-2.9-1.83-3.49-4.74-2.66c-0.85,0.24-1.74,0.87-2.5,0.73
	c-1.17-0.21-2.6-0.68-3.25-1.55c-0.41-0.55,0.3-2.06,0.71-3.05c0.2-0.47,0.9-0.72,1.33-1.12c2.48-2.28,2.43-4.31-0.17-6.56
	c-1.33-1.15-2.77-2.18-4.02-3.4c-5.1-4.99-10.99-8.99-17.5-11.64c-4.91-2-10.11-3.73-15.7-3.28c-6.29,0.51-12.6,0.68-18.9,1.03
	c-5.42,0.3-10.85,0.55-16.26,1c-3.21,0.27-6.43,0.69-9.57,1.38c-7.95,1.74-15.33,5.05-22.51,8.78c-7.02,3.65-14.04,7.34-20.86,11.34
	c-4.19,2.46-7.84,5.82-10.03,10.26c-4.93,9.96-9.56,20.07-14.45,30.05c-3.59,7.34-7.52,14.51-11.04,21.88
	c-3.08,6.45-5.91,13.03-8.65,19.64c-2.34,5.66-4.45,11.42-6.55,17.18c-1.4,3.84-2.98,7.7-0.79,11.87c0.34,0.64-0.22,1.75-0.39,2.83
	c-7.22-4.39-8.4-7.66-5.65-14.8c1-2.59,2.04-5.16,3.05-7.75c2.37-6.12,4.37-12.41,7.19-18.32c4.55-9.53,9.82-18.71,14.46-28.19
	c5.79-11.84,11.41-23.77,16.79-35.8c3.14-7.02,8.18-12.24,14.54-16c7.56-4.47,15.49-8.33,23.39-12.2c4.6-2.26,9.35-4.31,14.21-5.93
	c8.99-2.99,18.39-3.44,27.79-3.77c3.15-0.11,6.28-0.77,9.41-1.17c0.04-0.36,0.09-0.72,0.13-1.07c-3.64-2.17-6.73-5.5-11.54-5.3
	c-3.06,0.12-6.12,0.3-9.15,0.69c-11.49,1.47-22.96,3.06-34.45,4.57c-7.8,1.03-15.42,2.84-21.75,7.68
	c-4.27,3.27-7.96,7.31-11.85,11.06c-1.66,1.59-3.01,3.54-4.8,4.95c-6.44,5.09-13.17,9.84-19.49,15.08
	c-6.29,5.21-10.29,12.35-14.64,19.11c-2.6,4.05-5.3,8.22-6.87,12.71c-3.7,10.61-7.64,21.17-9.63,32.31
	c-0.74,4.17-2.18,8.21-2.91,12.37c-0.6,3.43-1.32,7.06-0.78,10.41c0.99,6.18,2.9,12.2,4.37,18.3c1.68,6.95,3.32,13.91,4.95,20.87
	c0.63,2.69,1.31,5.37,1.74,8.09c0.84,5.32,1.16,10.75,2.36,15.98c1.88,8.23,4.29,16.34,6.51,24.5c0.5,1.82,1.3,3.58,1.66,5.42
	c0.87,4.5,2.16,8.77,4.95,12.54c3.48,4.69,6.77,9.53,10.2,14.26c1.8,2.48,3.58,5,5.61,7.29c6.07,6.84,13.42,12.2,20.68,17.66
	c1.76,1.32,3.25,3.02,5.08,4.2c9.87,6.33,19.78,12.61,29.75,18.8c9.62,5.97,20.31,9.26,31.29,11.36
	c12.65,2.42,25.49,3.87,38.15,6.26c14.01,2.65,28,5.17,42.32,4.36c6.13-0.35,12.29-0.97,18.31-2.1
	c18.08-3.39,35.37-9.55,52.68-15.58c7.32-2.55,14.77-4.97,21.03-9.87c3.35-2.62,6.96-4.92,10.19-7.68
	c5.47-4.66,11.04-9.28,15.99-14.47c4.43-4.64,8.24-9.92,12.01-15.14c2.27-3.14,3.94-6.71,6.07-10.43c-3.17-0.63-4.76,1.17-6.44,2.38
	c-6.82,4.91-14.03,6.24-22,3.11c-4.64-1.82-9.35-3.47-14.12-4.89c-3.43-1.02-5.39-3.19-6.68-6.37c-2.95-7.29-5.9-14.58-9.08-21.77
	c-0.97-2.21-0.88-4.01,0.6-5.69c3.43-3.9,5.43-9.16,10.85-11.19c1.04-0.39,1.99-1.32,2.7-2.22c4.68-5.88,11.49-8.92,17.48-13.01
	c3.15-2.16,5.54-4.63,7.4-7.9c1.14-1.99,2.63-3.93,4.38-5.39c3.49-2.91,8.17-2.12,10.64,1.67c1.19,1.82,1.9,3.94,2.96,5.85
	c0.61,1.11,1.29,2.37,2.29,3.03c4.02,2.64,8.14,5.12,12.29,7.56c1.81,1.07,3.76,1.89,6.52,3.26c0.4-6.84,0.82-12.8,1.08-18.77
	c0.15-3.35,0.34-6.75-0.03-10.06c-0.85-7.54-1.89-15.07-3.14-22.56c-0.53-3.2-0.88-6.66-4.64-8.4c-1.06-0.49-1.9-2.37-2.06-3.71
	c-0.47-4.07-0.79-8.18-0.73-12.27c0.06-3.94-0.26-4.45-3.96-3.52c-2.96,0.74-3.74,0.06-4.43-3.04c-0.43-1.93-1.01-4.06-2.22-5.53
	c-4.19-5.07-8.59-9.97-13.1-14.75c-2.9-3.07-5.98-6.03-9.26-8.68c-2.84-2.29-6.05-4.14-9.16-6.07c-5.24-3.25-10.53-6.41-15.8-9.61
	c-1.59-0.96-3.26-1.75-4.74,0c-2.65,3.12-5.25,6.29-7.72,9.55c-0.66,0.87-0.94,2.11-1.14,3.23c-2.13,12-1.24,24.3-3.62,36.3
	c-1.22,6.14-1.38,12.49-2.34,18.69c-1.73,11.26-1.29,22.56-1,33.85c0.08,3.3,1.09,6.58,1.49,9.89c0.51,4.21,0.89,8.43,1.22,12.66
	c0.1,1.29-0.05,2.63-0.26,3.92c-1.6,9.8-0.89,19.62-0.17,29.43c0.3,4.09,0.73,8.17,0.76,12.26c0.03,3.21-0.45,6.42-0.73,9.63
	c-0.17,1.9-0.26,3.82-0.6,5.69c-1.36,7.56-10.82,11.56-17.18,7.32C734.33,578.03,732.64,576.91,730.34,575.37z M885.32,512.35
	c-4.33-4.57-4.24-4.5-0.76-9.39c1.32-1.86,2.53-4.03,3-6.22c1.29-5.99,2.12-12.08,3.22-18.11c0.58-3.17,1.04-6.4,2.07-9.43
	c1.71-5.01,3.28-9.97,3.09-15.37c-0.05-1.33,0.89-2.7,1.43-4.03c0.65-1.59,1.52-3.1,2.02-4.73c1.02-3.34,1.94-6.73,2.76-10.13
	c2.16-8.97,4.07-18.01,4.21-27.28c0.16-10.09,0.14-20.18,0.13-30.27c-0.01-12.2-0.26-24.41-0.07-36.61
	c0.07-4.28-1.62-6.51-5.48-7.78c-11.39-3.76-22.48-8.64-34.74-9.16c-1.35-0.06-3.05-0.71-3.91-1.68c-1.72-1.95-3.52-1.82-5.57-1.08
	c-8.82,3.19-17.65,6.35-26.44,9.63c-4.66,1.74-9.35,3.48-13.82,5.65c-4.06,1.97-8.12,4.14-11.65,6.9
	c-4.49,3.51-8.43,7.72-12.63,11.61c-2.67,2.47-2.78,2.93,0.01,5.51c5.25,4.88,10.75,9.51,15.9,14.5c5.04,4.88,9.85,10,14.6,15.17
	c3.56,3.88,6.77,8.07,10.28,11.99c4.26,4.75,7.51,10.12,9.62,16.08c0.69,1.95,0.53,4.39,0.13,6.48c-0.51,2.69-2.08,5.2-2.43,7.88
	c-0.48,3.73-0.67,7.61-0.23,11.33c0.61,5.05,1.92,10.02,2.97,15.01c0.48,2.27,1.36,4.5,1.57,6.79c0.53,5.83,0.76,11.68,1.14,17.52
	c0.11,1.75,0.46,3.49,0.46,5.24c0.02,6,0.29,12.04-0.21,18c-0.53,6.24-2.32,12.39-2.7,18.63c-0.45,7.4-3.87,13.7-6.16,20.43
	c-1.99,5.83-5.33,10.99-8.12,16.43c-6.62,12.88-14.79,24.65-24.58,35.21c-5.86,6.32-12.39,12.09-19.07,17.57
	c-4.38,3.6-9.33,6.72-14.44,9.17c-5.78,2.78-12.05,4.56-18.09,6.8c-17.36,6.44-35.03,11.91-53.14,15.8
	c-5.84,1.25-11.93,1.93-17.89,1.82c-7.3-0.13-14.62-1.13-21.87-2.16c-12.05-1.72-24.05-3.75-36.06-5.7
	c-5.65-0.92-11.24-2.44-16.92-2.9c-15.95-1.28-30.37-6.89-43.58-15.45c-12.54-8.13-24.63-16.97-36.85-25.58
	c-4.53-3.19-8.87-6.64-13.96-10.47c0.5,2.27,0.72,3.95,1.25,5.53c0.82,2.48,1.89,4.88,2.75,7.35c1.63,4.68,2.79,9.57,4.87,14.04
	c5.24,11.24,10.69,22.4,16.44,33.39c3.32,6.33,7.37,12.27,11.14,18.35c1.47,2.37,3.49,4.49,4.51,7.02
	c3.05,7.63,7.9,13.99,13.23,20.07c3.96,4.52,7.86,9.1,11.88,13.57c5.37,5.98,10.13,12.58,17.45,16.56
	c3.97,2.16,7.77,4.65,11.56,7.13c2.68,1.76,5.07,3.99,7.84,5.57c4.96,2.83,10.11,5.33,15.18,7.97c5.2,2.7,10.28,5.65,15.61,8.04
	c10.83,4.86,21.74,9.52,31.74,16.06c3.67,2.4,7.69,4.5,12.38,3.59c7.03-1.37,14.17-2.42,21.03-4.41
	c10.88-3.15,19.82-10.02,28.75-16.66c7.05-5.24,13.77-10.93,20.63-16.43c3.2-2.56,6.64-4.88,9.54-7.74
	c7.31-7.19,14.28-14.74,20-23.27c8.1-12.08,17.31-23.28,26.4-34.59c2.38-2.96,4.59-6.1,6.6-9.32c9.24-14.78,15.59-31.05,23.7-46.42
	c2.77-5.25,4.3-11.17,6.42-16.77c1.04-2.74,2.45-5.38,3.19-8.2c2.2-8.43,5.95-16.17,9.95-23.84c1.14-2.19,2.02-4.53,2.77-6.89
	c3.53-11,6.53-22.18,11.76-32.58C882.85,519.72,883.91,516.02,885.32,512.35z M693.16,378.9c3.73-1.26,6.57-1.96,9.18-3.16
	c6.69-3.08,13.78-3.93,21-4.23c2.71-0.11,5.11,0.82,6.31,3.23c1.14,2.29,2.85,3.44,5.58,4.02c-3.23,2.59-6.02,1.04-7.77-0.8
	c-2.64-2.75-5.17-2.83-8.27-1.53c-0.53,0.22-1.14,0.33-1.72,0.37c-7.66,0.55-14.13,4.58-21.08,7.17c-2.57,0.96-3.54,2.96-3.38,5.56
	c0.17,2.77,0.66,5.54,0.65,8.31c-0.05,8.78-0.29,17.56-0.41,26.34c-0.02,1.61,0.1,3.23,0.31,4.82c0.98,7.25,2.51,14.46,2.92,21.74
	c0.89,15.68,0.17,31.34-2.53,46.86c-1.7,9.76-3.16,19.56-5,29.29c-1.74,9.18-3.64,18.35-5.87,27.42c-1.85,7.49-2.7,14.98-2.47,22.68
	c0.11,3.54,1.84,5.75,4.59,7.45c1.78,1.1,3.6,1.32,5.16-0.45c2-2.27,3.95-4.58,5.85-6.77c-1.08-2.25-1.94-3.94-2.7-5.68
	c-0.79-1.81,0.08-2.86,1.8-3.22c3.02-0.64,8.4,3.5,8.6,6.67c0.3,4.71,2.99,8.41,5.08,12.34c0.41,0.77,2.01,1.55,2.81,1.35
	c4.17-1.09,8.3-2.44,9.53-7.39c0.59-2.41,1.13-4.83,1.68-7.24c0.43-1.86,0.62-3.8,1.3-5.56c1.13-2.92,3.73-3.54,6.36-1.82
	c3.06,2,6.12,4.01,9.23,5.93c2.28,1.4,4.33,0.6,4.99-2.16c0.57-2.41,0.9-4.93,0.91-7.41c0.05-20.13,0-40.25-0.05-60.38
	c0-1.31-0.02-2.69-0.39-3.93c-2.2-7.59-1.55-15.41-1.91-23.13c-0.2-4.23,0.3-8.49,0.63-12.73c0.37-4.81,0.88-9.61,1.36-14.41
	c0.74-7.57,2.73-14.99,2.23-22.73c-0.24-3.75,0.66-7.57,1.04-11.36c0.22-2.18,0.53-4.36,0.63-6.56c0.22-4.84,0.2-9.69,0.51-14.52
	c0.26-4.08,0.76-8.16,1.31-12.22c0.48-3.57-0.27-6.26-3.92-7.81c-1.86-0.79-3.44-2.23-5.24-3.22c-4.89-2.67-9.9-5.12-14.73-7.9
	c-8.52-4.89-16.93-10-25.43-14.91c-1.97-1.14-4.17-1.88-6.36-2.85C691.69,355.73,693.41,366.84,693.16,378.9z M599.09,313.73
	c0.03-0.3,0.06-0.6,0.09-0.9c-2.13-1.13-4.28-2.21-6.37-3.39c-7.87-4.42-16.17-7.56-25.21-8.43c-5.11-0.49-10.3-0.35-15.35-1.16
	c-7.92-1.27-15.3,0.5-22.22,3.79c-8.53,4.05-17.38,5.96-26.72,6.4c-4.37,0.21-8.83,0.54-13.03,1.65c-5.35,1.41-10.47,3.66-15.7,5.53
	c-2.05,0.73-2.93,1.94-2.77,4.31c0.41,5.85,0.73,11.72,0.65,17.58c-0.18,13.49-0.62,26.98-0.96,40.48
	c-0.27,10.71-0.52,21.41-0.8,32.12c-0.02,0.73-0.2,1.46-0.21,2.19c-0.03,2.56-0.01,5.12-0.01,7.69c2.22-4.5,3.75-9.02,5.18-13.57
	c1.31-4.18,2.15-8.55,3.85-12.56c3.02-7.14,7.13-13.7,11.29-20.27c7.02-11.09,16.04-20.02,26.62-27.66
	c4.23-3.05,7.78-7.05,11.63-10.64c2.14-1.99,4.06-4.26,6.37-6.01c11.54-8.78,24.58-13.44,39.09-14.15
	c6.88-0.34,13.73-1.06,20.59-1.73C596.46,314.83,597.77,314.15,599.09,313.73z M761.98,355.77c-2.82-3.62-5.06-6.71-7.52-9.59
	c-2.32-2.71-5.23-4.46-8.73-5.65c-3.6-1.23-7.49-2.45-10.43-6.75c2.22,0.11,3.75,0.01,5.21,0.28c6.23,1.12,11.57,4.02,16.14,8.38
	c2.44,2.32,4.89,4.63,7.38,6.89c0.5,0.45,1.23,0.65,2.1,1.09c0.89-1.06,1.68-1.99,2.55-3.01c-1.37-1.44-2.37-2.73-3.61-3.75
	c-8.92-7.34-16.66-16.03-26.65-22.16c-6.97-4.27-12.84-10.22-20.49-13.56c-9.07-3.97-18.27-4.89-27.88-2.24
	c-7.9,2.18-15.89,4.04-23.83,6.08c-2.31,0.59-4.64,1.23-6.78,3.61c7.25,2.23,14.38,1.65,21.12,3.54c-1.09,0.53-2.19,0.58-3.26,0.77
	c-0.95,0.17-2.21,0.21-2.75,0.83c-1.48,1.69-3.31,1.77-5.23,1.68c-4.68-0.22-9.37-0.45-14.04-0.79c-3.68-0.27-4.28,0.1-4.87,3.94
	c2.12,0.38,4.26,0.8,6.4,1.13c13.39,2.04,26.47,5.28,39.07,10.31c2.58,1.03,5.16,2.16,7.57,3.54c10.44,5.93,20.78,12.03,31.22,17.93
	c4.35,2.46,8.91,4.52,13.31,6.89c2.53,1.36,4.91,1.34,6.84-0.73C757.27,361.79,759.43,358.89,761.98,355.77z M459.36,488.93
	c-0.64,0.69-1.21,1.32-1.8,1.94c-2.85,3.03-3.6,3.23-6.93,0.78c-1.76-1.3-2.95-0.48-4.38,0.3c-3.41,1.87-4.7,1.6-7.04-1.44
	c-3.67-4.76-7.32-9.53-10.97-14.3c-5.23-6.82-4.45-7.9-12.77-1.15c-3.13,2.55-4.16,5.83-3.34,9.81c0.79,3.84,1.94,7.73,1.91,11.59
	c-0.04,5.68,1.62,10.62,4.41,15.37c2,3.39,4.38,6.65,5.78,10.28c1.85,4.76,5.66,6.49,9.9,6.79c4.48,0.32,9.59,0.86,12.43-4.22
	c0.77-1.38,1.32-2.9,1.95-4.36c3.87-9.01,7.53-18.11,12.48-26.62C462.13,491.76,461.73,490.11,459.36,488.93z M936.44,487.08
	c0.16-8.77-4.5-13.44-13.13-13.14c-0.88,0.03-1.77,0.04-2.64,0.13c-6.4,0.71-11.31,3.69-14.55,9.36c-0.77,1.35-1.21,2.32-0.34,3.98
	c1.6,3.04,0.85,5.14-2.01,7.14c-1.08,0.75-2.33,1.25-3.44,1.97c-3.09,2.02-3.41,3.87-1.34,6.91c1.47,2.17,2.88,4.38,4.32,6.57
	c2.54,3.86,5.46,4.63,9.7,2.53c3.68-1.83,7.47-3.48,10.99-5.59C931.48,502.47,936.26,496.16,936.44,487.08z M833.18,422.6
	c1.19-3.74,1.26-4.72-1.27-8.42c-3.3-4.82-7.21-9.23-10.44-14.09c-5.14-7.74-11.64-14.17-18.46-20.33
	c-5.19-4.69-10.57-9.17-15.9-13.71c-2.3-1.96-2.95-1.94-5.23,0.11c-0.72,0.65-1.26,1.52-1.94,2.37c4.96,5.65,9.84,11.08,14.55,16.66
	c2.44,2.89,4.47,6.13,6.85,9.08c1.89,2.35,3.71,4.94,6.11,6.65c8.24,5.86,16.38,11.79,23.12,19.43
	C831.29,421.15,832.22,421.78,833.18,422.6z M794.82,544.18c1.3,1.01,1.89,1.64,2.61,2.01c5.11,2.66,10.61,1.87,15.98,1.52
	c2.43-0.16,3.73-2.12,3.91-4.61c0.63-8.59,1.49-17.22-1.1-25.65c-0.71-2.31-1.4-5.12-3.09-6.53c-2.34-1.95-5.75-2.27-8.81-1.21
	c-1.03,0.36-2.33,1.64-2.47,2.64c-0.8,5.76,2.07,8.91,8.02,8.72c0.48,2,1.1,4.09,1.44,6.22c0.33,2.11-0.65,4.23-2.52,4.67
	c-3.61,0.84-5.14,3.45-6.84,6.17c-0.52,0.83-1.51,1.36-2.29,2.02C798.23,541.34,796.79,542.54,794.82,544.18z M814.56,557.51
	c-0.17-0.41-0.33-0.83-0.5-1.24c-1.85,0-3.7-0.06-5.55,0.01c-6.82,0.24-12.98-1.72-18.6-5.48c-1.81-1.22-3.53-2.58-5.37-3.75
	c-3.63-2.29-4.46-4.11-3.89-8.42c0.23-1.73,0.47-3.53,0.25-5.24c-0.35-2.64-2.6-3.55-4.35-1.67c-1.31,1.4-2.63,3.42-2.7,5.22
	c-0.26,5.94,1.9,11.47,3.92,16.95c0.47,1.26,1.72,2.32,2.81,3.24c4.27,3.57,9.62,4.81,14.67,6.69c3.68,1.37,7.34,1.03,10.67-0.64
	C808.97,561.64,811.69,559.42,814.56,557.51z M823.74,549.97c0.5,0.16,1.01,0.33,1.51,0.49c1.16-1.78,2.52-3.46,3.42-5.37
	c2.25-4.76,4.31-9.62,6.39-14.46c0.39-0.92,0.64-1.95,0.72-2.95c0.47-6.33-6.14-13.26-12.85-13.53c-0.21-0.01-0.42,0.33-0.58,0.46
	c0.76,3.76,1.62,7.46,2.25,11.2c0.97,5.81,1.4,11.59-0.47,17.4C823.47,545.28,823.84,547.7,823.74,549.97z M483.39,530.62
	c0.38-0.17,0.77-0.34,1.15-0.51c0.63-6.08-2.93-11.39-3.52-17.3c-0.6-6-2.08-11.92-3.24-18.16c-2.92,0.69-5.28,1.25-8.3,1.97
	c0.91,5.18,1.58,10.03,2.64,14.8c1.2,5.42,4.96,9.49,7.98,13.93C481.26,527.07,482.29,528.87,483.39,530.62z M453.5,479.1
	c-1.74-6.37-4.07-8.28-9.68-8.71c-2.46-0.19-4.9-0.8-7.33-1.31c-1.55-0.33-3.08-0.95-4.86,1.01c3.41,4.56,6.73,9.14,10.21,13.59
	c1.25,1.59,2.96,1.68,4.68,0.41C448.87,482.36,451.25,480.7,453.5,479.1z M688.74,341.81c-7.2-3.34-15.1-5.2-24.18-6.77
	c5.41,4.55,9.92,8.47,14.57,12.21c2.33,1.87,3.33,1.69,5.62-0.62C686.09,345.27,687.19,343.69,688.74,341.81z M904.03,327.05
	c2.01-5.22-1.41-7.08-4.96-7.39c-2.74-0.24-5.47-0.71-8.18-1.25c-3.03-0.6-5.8-0.08-8.6,1.88
	C889.47,322.52,896.64,324.75,904.03,327.05z M785.83,386.1c0.23-0.24,0.45-0.48,0.68-0.73c-3.27-3.87-6.54-7.75-10.2-12.09
	c-1.43,2.01-2.56,3.59-3.92,5.51C777.01,381.61,781.04,384.57,785.83,386.1z M643.52,323.61c0.2-0.32,0.4-0.65,0.6-0.97
	c-0.94-1.17-1.71-3.12-2.84-3.36c-4.19-0.88-8.49-1.73-12.75-0.25c-0.11,0.04-0.07,0.51-0.12,0.94
	C633.32,321.74,638.19,323.78,643.52,323.61z M766.86,362.87c-1.81,2.6-3.57,4.89-5.01,7.37c-0.35,0.6,0.07,2.14,0.65,2.65
	c0.54,0.47,2.07,0.53,2.64,0.09c1.36-1.05,2.52-2.42,3.58-3.8C771.29,365.83,771.25,365.8,766.86,362.87z M475.26,481.32
	c-0.35-0.16-0.69-0.33-1.04-0.49c-1.15,2.39-2.3,4.78-3.64,7.54c2.33,1.09,4.19,1.95,6.56,3.06
	C476.41,487.49,475.83,484.4,475.26,481.32z M773.6,352.59c-1.83,4.08-1.54,6.74,0.49,7.43c2.53,0.86,2.72-1.28,3.28-2.84
	C776.18,355.72,775.09,354.4,773.6,352.59z M450.8,464.26c1.1,2.76,2.93,4.21,5.35,5.86C454.34,463.6,454.34,463.6,450.8,464.26z"/>
<path d="M563.45,518.88c-2.28,1.81-3.19,4.59-5.44,2.43c-1.82-1.75-0.6-3.72,0.66-5.08c5.88-6.35,12.55-11.73,21.35-13.09
	c6.42-0.99,12.51,0.78,17.85,4.67c2.12,1.55,4.24,3.11,6.29,4.76c5.44,4.38,8.52,10.35,11.08,16.65c2.77,6.81,3.4,13.79,2.19,21.06
	c-0.52,3.12-1.86,5.7-4.07,7.59c-4.12,3.53-8.6,6.56-14.31,7.08c-4.52,0.4-9.01,1.12-13.54,1.43c-1.49,0.1-3.36-0.22-4.51-1.08
	c-3.02-2.27-5.77-4.9-8.55-7.46c-1.07-0.99-1.86-2.29-2.92-3.3c-5.33-5.05-7.6-11.24-7.26-18.53c0.19-3.95-0.13-7.9,1.47-11.72
	C564.27,523.02,563.62,521.28,563.45,518.88z M611.58,538.1c-3.15,1.09-5.56,2.1-8.07,2.71c-1.68,0.41-3.28-0.34-3.9-2.1
	c-0.6-1.68,0.49-2.64,1.79-3.58c4.6-3.3,4.65-8.78,0.25-12.53c-1.05,2.22-1.92,4.57-3.22,6.66c-1.44,2.3-2.36,4.57-2.45,7.35
	c-0.07,2.14-0.71,4.36-1.57,6.34c-1.46,3.38-3.53,4.22-7.1,3.43c-3.38-0.75-5.91-2.71-7.4-5.74c-2.68-5.46-5.08-11.03-1.8-17.06
	c-5.06-3.02-8.29-1.53-8.51,3.82c-0.17,3.96-0.35,7.95-0.02,11.89c0.19,2.22,1.07,4.57,2.27,6.46c1.96,3.08,4.22,6.03,6.76,8.64
	c1.66,1.71,3.94,3.63,6.12,3.87c6.27,0.7,12.65,0.66,18.69-1.72c4.38-1.73,7.4-4.88,8.08-9.62
	C611.91,544.08,611.58,541.13,611.58,538.1z M591.01,512.48c-4.49-5.02-16.14-3.91-19.49,1.6c3.32,0.38,6.64,0.82,9.99,1.11
	C584.98,515.49,588.03,514.24,591.01,512.48z"/>
<path d="M731.65,608.44c-1.25,2.89-3.62,4.14-6.62,4.14c-4.39-0.01-8.79-0.2-13.18-0.34c-2.18-0.07-4.37-0.24-6.55-0.24
	c-2.63,0-3.89-0.89-3.98-2.99c-0.09-2.05,1.13-3.53,3.47-3.73c3.93-0.34,7.87-0.54,11.82-0.72c3.08-0.14,6.17-0.04,9.24-0.24
	C728.95,604.11,730.91,605.29,731.65,608.44z"/>
</svg>
