<?xml version="1.0" encoding="utf-8"?>
<!-- Generator: Adobe Illustrator 24.1.0, SVG Export Plug-In . SVG Version: 6.00 Build 0)  -->
<svg version="1.1" id="Layer_1" xmlns="http://www.w3.org/2000/svg" xmlns:xlink="http://www.w3.org/1999/xlink" x="0px" y="0px"
	 viewBox="0 0 1224 792" style="enable-background:new 0 0 1224 792;" xml:space="preserve">
<path d="M750.69,790.36c0-2.47,0-4.94,0-7.56c1.58-0.12,2.65-0.21,3.88-0.3c0.91-3.19,3.41-5.82,2.75-9.46
	c-0.07-0.4,0.22-0.98,0.53-1.32c1.35-1.52,2.76-2.99,4.35-4.68c0.42,0.85,0.88,1.75,1.35,2.69c2.87-2.08,3.03-2.63,1.62-5.04
	c-1.61-2.74-1.19-4.55,1.12-7.1c0.84-0.93,1.47-2.44,1.48-3.68c0.01-2.91,0.69-5.2,3.2-7.02c0.82-0.6,1.19-2.4,1.06-3.57
	c-0.22-2.01,0.07-3.46,2.06-4.25c0,17.1,0,34.21,0,51.31c-2.26,0-4.53,0-6.79,0c-0.2-0.71-0.24-1.52-0.62-2.12
	c-1.05-1.67-2.24-3.25-3.65-5.26c-0.92,0.22-3.66,0.18-4.04,1.1c-1.36,3.3-4.61,4.14-6.78,6.28
	C751.7,790.36,751.2,790.36,750.69,790.36z M769.47,763.51c1.62,0.48,3.06,0.79,3.61-0.94c0.45-1.41-0.04-2.66-2.16-2.88
	C770.43,760.95,769.97,762.16,769.47,763.51z"/>
<path d="M277.54,779.04c10.19,2.44,20.39,4.83,30.55,7.36c4.69,1.17,9.31,2.63,13.97,3.96c-14.84,0-29.68,0-44.52,0
	C277.54,786.54,277.54,782.79,277.54,779.04z"/>
<path d="M360.06,222.49c-0.81,0.67-1.89,1.19-2.37,2.04c-3.96,6.95-8.29,13.83-7.17,22.39c0.24,1.82,0.88,3.58,1.22,5.38
	c0.21,1.13,0.2,2.31,0.3,3.56c-3.34-0.45-5.2-1.94-5.83-4.83c-1.7-7.77-0.57-15.13,3.35-22.1c4.4-7.83,8.78-15.67,12.9-23.65
	c1.1-2.13,1.32-4.76,1.7-7.2c0.92-5.93,1.63-11.9,2.57-17.83c0.58-3.7,1.35-7.38,2.18-11.03c0.46-2.01,1.29-3.99,3.88-3.85
	c2.53,0.13,2.89,2.18,3.68,4.11c2.58,6.31,0.71,12.48-0.97,18.33c-3.5,12.11-5.79,24.26-4.91,36.91c0.14,2.06,0.02,4.14,0.59,6.29
	c0.63-2.2,1.44-4.36,1.85-6.6c1.92-10.44,4.02-20.85,4.88-31.46c0.14-1.73,1.3-3.47,2.27-5.02c4.54-7.27,7.58-15.18,9.86-23.36
	c1.67-5.97,4.53-11.38,7.53-16.67c4.36-7.68,9.25-15.06,13.95-22.54c0.8-1.27,1.74-2.45,2.67-3.63
	c7.18-9.14,13.89-18.67,22.28-26.82c7.27-7.06,14.33-14.35,21.81-21.19c4.7-4.29,9.85-8.13,15.05-11.82
	c5.4-3.83,7.9-9.23,10.31-15.14c3.49-8.59,8.92-16.12,15.55-22.68c0.66-0.65,1.77-1.07,2.72-1.17c14.01-1.47,27.12-6.19,40.2-11.02
	c6.14-2.27,12.28-2.54,18.47-0.65c5.99,1.83,12.06,2.07,18.27,1.91c10.29-0.26,20.6-0.23,30.89-0.25
	c5.52-0.01,10.04,2.07,14.18,5.89c6.88,6.36,14.43,11.9,22.18,17.24c9.74,6.73,19.75,13.44,26.31,23.76
	c2.67,4.2,4.97,8.65,7.51,12.94c0.88,1.49,1.98,2.86,2.96,4.3c6.08,8.82,12.37,17.51,18.16,26.51c2.89,4.5,5.12,9.47,7.25,14.4
	c3.16,7.31,6.57,14.6,8.79,22.21c2.84,9.71,6.64,19.15,8.14,29.27c0.84,5.66,2.74,11.17,4.03,16.77c1.2,5.24,2.27,10.5,3.32,15.77
	c2.02,10.17,4.32,20.3,5.87,30.54c1.55,10.27,2.88,20.63,3.32,30.99c0.54,12.77,0.36,25.6-0.06,38.38
	c-0.28,8.51-1.51,16.99-2.33,25.48c-0.11,1.12-0.37,2.24-0.39,3.37c-0.14,10.95-1.45,21.83-3.59,32.51
	c-2.44,12.2-4.74,24.47-11.04,35.68c-5.29,9.42-9.3,19.57-13.82,29.42c-2.12,4.63-4.32,9.24-6.08,14.01
	c-3.37,9.11-6.28,18.39-9.71,27.48c-2.13,5.64-3.84,11.29-4.76,17.27c-0.55,3.55-2.44,6.87-3.07,10.42
	c-1.06,5.98-1.6,12.05-2.36,18.04c0.85,0.27,1.24,0.56,1.53,0.47c5.58-1.62,10.92,0.22,16.32,1.1c3.04,0.49,4.39,2.47,3.52,5.47
	c-1.18,4.07-2.48,8.15-4.27,11.98c-0.83,1.76-2.77,3.17-4.5,4.3c-2.05,1.35-2.97,2.9-2.51,5.32c0.54,2.82,1.12,5.65,1.46,8.5
	c0.6,5.09,1.07,10.13-0.78,15.2c-0.77,2.12-0.11,4.73-0.33,7.1c-0.18,1.94-0.69,3.85-1.06,5.77c-0.16,0.85-0.42,1.7-0.5,2.56
	c-0.44,4.84-0.09,9.91-1.45,14.48c-1.36,4.58-0.95,9.2-1.93,13.65c-0.73,3.32-2.82,6.32-4.14,9.53c-1.08,2.62-2.09,5.29-2.86,8.02
	c-2.22,7.9-4.1,15.9-6.51,23.74c-1.05,3.4-3.14,6.48-4.66,9.75c-0.52,1.12-0.7,2.39-1.16,3.54c-0.69,1.72-1.37,3.45-2.26,5.06
	c-2.75,4.99-5.96,9.72-6.92,15.56c-0.73,4.44-1.7,8.89-3.16,13.13c-1,2.88-3.11,5.36-4.61,8.08c-2.47,4.46-4.73,9.04-7.33,13.42
	c-1.59,2.67-3.62,5.08-5.51,7.57c-2.94,3.87-5.99,7.66-8.87,11.58c-1.92,2.61-4.11,5.18-5.32,8.12c-1.65,3.97-4.3,7.17-6.57,10.67
	c-0.62,0.96-0.46,2.41-0.7,3.63c-0.53,2.68-1.37,3.32-4.33,3.25c-0.86,6.39-0.61,13.35-8,16.97c-1.6-1.84-2.26-4.17-2.58-6.6
	c-0.47-3.56-0.76-3.81-4.3-2.83c-2.9,0.81-5.74,1.89-8.68,2.51c-5.14,1.07-10.33,1.97-15.52,2.77c-8.67,1.35-17.34,2.7-26.05,3.81
	c-14.66,1.87-29.07,0.08-43.34-3.34c-4.4-1.05-8.87-1.81-13.25-2.91c-3.64-0.91-7.21-2.08-10.79-3.2
	c-5.97-1.86-12.02-3.5-17.85-5.72c-4.75-1.8-9.31-4.18-13.83-6.53c-5.19-2.71-10.03-6.2-15.42-8.35c-3.9-1.56-7.01-4.05-10.49-6.1
	c-1.28-0.75-2.58-1.56-3.66-2.57c-2.53-2.37-5.18-4.39-8.84-4.51c-0.49-0.02-1.05-0.12-1.44-0.39c-4.36-3.04-9-5.79-12.95-9.3
	c-3.91-3.47-7.08-7.75-10.64-11.62c-4.06-4.42-8.19-8.77-12.28-13.16c-0.59-0.64-1.24-1.27-1.65-2.03
	c-2.61-4.82-4.93-9.82-7.77-14.49c-4.67-7.67-7.29-16.18-10.51-24.44c-3.17-8.13-5.9-16.45-9.41-24.43
	c-4.06-9.24-8.73-18.22-13.19-27.28c-3.84-7.81-6.57-15.76-6.39-24.74c0.16-8.25-0.68-16.54-1.28-24.79
	c-0.17-2.43-0.66-5.02-3.53-6.16c-1.73,1.34-3.54,2.49-5.04,3.95c-1.73,1.69-3.74,1.62-5.6,0.95c-1.95-0.71-2.38-2.62-2.49-4.66
	c-0.43-7.39-0.85-14.79-1.55-22.16c-0.83-8.74-1.85-17.47-2.99-26.18c-0.73-5.56-1.83-11.07-2.73-16.6
	c-0.14-0.86-0.26-1.77-0.18-2.63c0.81-8.72-0.91-17.28-1.61-25.91c-0.49-5.99-1.11-11.97-1.49-17.97c-0.1-1.56,0.13-3.32,0.79-4.71
	c1.63-3.39,4.56-3.82,7.29-1.17c2.96,2.87,5.78,5.88,8.66,8.82c0.53,0.54,1.05,1.1,1.66,1.53c1.44,1.01,2.66,0.81,3.2-0.98
	c0.68-2.28,1.3-4.58,1.79-6.9c0.9-4.28,1.69-8.57,2.5-12.86c1.39-7.37,2.61-14.78,4.19-22.11c1.42-6.61,3.11-13.16,4.86-19.7
	c1.77-6.63,3.81-13.19,5.59-19.81c0.74-2.77,1.08-5.66,1.65-8.48c1.6-7.83,3.14-15.68,4.89-23.47c1.77-7.89,3.94-15.69,5.63-23.59
	c1.33-6.22,2.09-12.56,3.33-18.8c1.05-5.27,2.44-10.47,3.68-15.71c0.2-0.85,0.41-1.7,0.55-2.55c0.84-5.3,1.67-10.59,2.46-15.9
	c0.2-1.35,0.33-2.73,0.29-4.09c-0.23-7.65-0.65-15.3-0.73-22.95c-0.03-3.03,0.64-6.06,0.99-9.1
	C360.71,222.78,360.39,222.63,360.06,222.49z M315.3,550.51c1.06-0.73,2.1-1.25,2.87-2.03c0.78-0.78,1.12-2.08,1.99-2.68
	c1.24-0.87,2.77-1.79,4.2-1.81c1.89-0.03,3.04,1.53,3.54,3.39c1.11,4.08,2.64,8.09,3.26,12.24c0.86,5.79,1.16,11.67,1.48,17.53
	c0.3,5.52,0.23,11.05,0.47,16.57c0.37,8.32,4.91,15.13,8.59,22.14c7.18,13.64,12.67,27.96,18.14,42.31
	c2.4,6.3,4.68,12.65,7.39,18.81c2.2,5,4.87,9.81,7.49,14.61c1.96,3.59,3.8,7.35,6.37,10.48c4.27,5.22,9.04,10.04,13.7,14.93
	c2.58,2.71,5.16,5.52,8.13,7.76c3.39,2.55,7.2,4.54,10.85,6.73c7.06,4.25,14.21,8.35,21.17,12.75
	c10.83,6.84,21.95,13.14,33.93,17.74c5.01,1.92,10.24,3.27,15.38,4.85c2.5,0.77,4.98,1.63,7.53,2.17c3.93,0.83,7.92,1.35,11.86,2.12
	c6.88,1.35,13.73,2.89,20.62,4.19c10.6,1.99,21.16,1.33,31.66-0.89c0.71-0.15,1.49,0.04,2.24,0.08c1.98,0.1,3.99,0.48,5.93,0.25
	c3.1-0.36,6.14-1.33,9.24-1.68c10.41-1.18,20.56-3.22,29.84-8.34c1.49-0.82,3.03-1.88,3.99-3.23c2.74-3.85,5.05-8.01,7.79-11.85
	c2.32-3.25,5.1-6.16,7.52-9.34c4.24-5.56,8-11.53,12.65-16.72c2.99-3.34,5.39-6.85,7.33-10.8c0.83-1.68,1.88-3.25,2.8-4.89
	c3.03-5.43,6.71-10.47,7.65-16.96c0.58-4.04,1.94-8.06,3.54-11.84c5.31-12.51,11.26-24.74,15-37.89c1.36-4.78,3.51-9.34,5.09-14.06
	c1.89-5.66,3.65-11.38,5.29-17.12c0.98-3.45,1.65-7,2.39-10.52c0.28-1.34,0.11-2.82,0.56-4.08c2.11-5.91,2.31-12.02,2.41-18.19
	c0.08-4.73,0.17-9.54,1.08-14.15c0.65-3.32,0.11-5.82-2.05-8.65c-0.73,0.67-1.59,1.09-1.85,1.75c-2.11,5.44-4.28,10.87-6.09,16.41
	c-0.95,2.93-1.18,6.1-1.8,9.15c-0.88,4.26-1.95,8.48-2.7,12.76c-0.65,3.7-0.89,7.46-1.46,11.17c-0.13,0.86-0.89,2.3-1.36,2.3
	c-1.53,0.01-3.41-0.11-4.5-0.99c-0.88-0.71-1.29-2.65-1.11-3.93c0.62-4.44,1.63-8.82,2.4-13.24c0.71-4.06,1.17-8.16,1.96-12.21
	c1.12-5.76,2.5-11.46,3.62-17.22c0.35-1.79,0.22-3.68,0.3-5.22c-2.02-1.13-3.63-2.04-5.46-3.07c-2.13,1.06-4.38,2.19-6.63,3.31
	c-1.36-2.29-0.49-2.24-0.24-6.66c0.32-5.45,1.39-9.72,5.98-13.21c2.67-2.03,4.4-5.31,6.49-8.08c0.72-0.95,1.92-2.15,1.77-3.06
	c-0.63-4.02-1.64-7.98-2.61-11.93c-0.17-0.68-0.88-1.21-1.25-1.86c-0.85-1.51-1.67-3.05-2.45-4.6c-0.62-1.22-1.01-2.57-1.76-3.7
	c-1.47-2.2-3.89-2.88-5.43-1.7c-2.47,1.89-5.05,3.65-7.34,5.73c-4.18,3.78-8.54,7.59-6.44,14.26c0.15,0.47,0.14,1.01,0.1,1.5
	c-0.4,4.21,1.36,7.4,4.31,10.3c2.16,2.11,3.86,4.69,6.52,7.99c-5.68-3.05-3.24,3.28-5.95,3.46c-0.51-0.69-0.98-1.33-1.66-2.26
	c-0.59,1.26-1.59,2.45-1.32,2.98c0.76,1.48,2.05,2.68,3.15,4.03c-1.6,3.72-1.6,3.72-5.08,3.62c-0.36,1.7-0.71,3.4-1.08,5.09
	c-0.6,2.75-3.16,1.18-4.33,2.16c-2.67,5.99-5.6,11.81-8.63,17.58c-0.36,0.7-1.21,1.14-2.1,1.95c-0.65-2.88-2.35-2.44-4-1.56
	c-2.11,1.13-3.52,0.57-4.68-1.41c-0.8-1.37-1.81-2.61-2.74-3.93c-0.97,0.44-1.7,0.77-2.4,1.08c0-3.81,0.48-7.51-0.12-11.03
	c-0.76-4.46-1.48-8.85-1.08-13.37c0.24-2.73-0.02-5.05-3.96-5.15c0.34-3.68,0.7-7.02,0.94-10.37c0.22-3.05,1.03-6.09-1.09-9.01
	c-0.84-1.16-0.9-3.11-0.8-4.67c0.19-3.1,0.76-6.18,1.14-9.27c0.3-2.42-0.07-4.41-2.79-5.44c-1.81-0.69-2.74-2.07-1.64-4.23
	c0.41-0.8,0.52-2.04,0.21-2.88c-1.1-2.96-0.84-5.97-0.37-8.92c1.17-7.5,3.13-14.58,9.84-19.41c2.35-1.69,4.56-2.29,7.32-2.03
	c2.47,0.23,4.98,0.08,7.47,0.14c1.75,0.04,3.51,0.06,5.24,0.25c2.86,0.31,5.93,1.63,8.5,0.97c5.89-1.52,11.59-3.86,17.26-6.14
	c1.93-0.77,3.38-2.77,5.32-3.45c2.45-0.86,5.16-1.14,7.78-1.29c1.01-0.06,2.46,0.65,3.03,1.47c1.41,2.04,2.37,4.38,3.62,6.53
	c0.64,1.1,1.5,2.06,2.37,3.24c0.86-0.78,1.51-1.11,1.74-1.62c1.76-3.86,3.6-7.69,5.1-11.65c2.21-5.82,4.15-11.75,6.22-17.63
	c0.79-2.23,1.48-4.51,2.49-6.63c2.56-5.39,5.28-10.71,7.91-16.07c3.35-6.82,6.87-13.56,9.97-20.49c2.43-5.44,4.68-11.02,6.39-16.72
	c1.69-5.62,2.71-11.46,3.8-17.24c0.95-5.04,1.69-10.13,2.31-15.22c0.59-4.84,0.91-9.71,1.31-14.57c0.58-7.12,1.18-14.24,1.67-21.37
	c0.51-7.51,1.05-15.02,1.28-22.54c0.2-6.65,0.32-13.34-0.11-19.97c-0.77-11.88-1.58-23.77-4.07-35.46
	c-0.55-2.57-1.03-5.16-1.47-7.75c-0.82-4.8-1.41-9.65-2.42-14.41c-2.07-9.7-4.47-19.32-6.53-29.02
	c-2.52-11.86-4.95-23.72-9.23-35.11c-3.19-8.51-5.97-17.18-9.43-25.58c-4.41-10.67-11.38-19.92-17.55-29.59
	c-4.57-7.15-9.93-13.84-14.03-21.24c-5.24-9.43-12.05-17.07-20.94-23.1c-6.72-4.55-13.23-9.41-19.77-14.21
	c-4.03-2.95-7.91-6.1-11.92-9.09c-2.95-2.2-6.15-3.92-9.98-3.94c-5.77-0.02-11.54-0.03-17.31-0.03c-3.39,0-6.78-0.11-10.15,0.07
	c-7.45,0.41-14.86,0-22.11-1.7c-5.76-1.35-11.36-1.86-16.94,0.59c-2.28,1-4.56,2.1-6.95,2.77c-8.78,2.46-17.52,5.16-26.44,6.98
	c-5.32,1.08-9.31,3.51-12.41,7.64c-3.64,4.86-7.59,9.57-9.07,15.72c-1.34,5.58-4.38,10.04-9.09,13.36
	c-2.25,1.59-4.44,3.25-6.71,4.79c-8,5.41-15.07,11.92-21.95,18.63c-3.57,3.49-7.08,7.06-10.38,10.81
	c-5.68,6.46-11.64,12.75-16.64,19.72c-7.31,10.21-14.16,20.79-20.64,31.55c-3.25,5.41-5.41,11.51-7.77,17.41
	c-1.99,4.97-3.31,10.22-5.4,15.15c-2.97,7.03-7.77,13.43-6.93,21.67c0.05,0.48-0.13,0.99-0.24,1.48
	c-1.35,6.21-2.65,12.42-4.06,18.61c-1.73,7.64-3.39,15.31-5.4,22.88c-1.17,4.43-2.34,9.06-4.65,12.92
	c-1.96,3.27-2.53,6.79-3.36,10.16c-1.68,6.75-2.39,13.74-3.53,20.63c-0.55,3.33-1.05,6.67-1.78,9.96
	c-1.24,5.6-2.68,11.16-3.95,16.76c-0.99,4.38-1.74,8.81-2.77,13.17c-0.97,4.12-2.33,8.15-3.24,12.29
	c-1.78,8.06-3.18,16.2-5.06,24.22c-2.28,9.71-4.67,19.41-7.45,28.99c-3.53,12.19-6.14,24.53-7.54,37.14
	c-0.28,2.49-0.76,4.99-1.48,7.38c-2.65,8.84-3.94,17.88-4.16,27.07c-0.2,8.15,0.15,16.34-1.42,24.4c-0.5,2.58-2.27,3.75-4.56,3.19
	c-1.98-0.49-3.22-2.88-2.75-5.06c0.37-1.69,0.76-3.4,0.83-5.12c0.21-6.03,0.38-12.06,0.39-18.1c0.01-7.47-4.88-12.03-9.73-16.65
	c-0.53,0.48-0.83,0.63-0.86,0.81c-0.11,0.86-0.17,1.73-0.18,2.6c-0.12,8.55,1.28,16.94,2.46,25.37c1.02,7.28,0.88,14.63,2.21,21.96
	c1.72,9.47,1.93,19.21,2.8,28.83c0.57,6.34,1.16,12.69,1.77,19.03C314.67,549.31,314.92,549.63,315.3,550.51z M626.08,494.9
	c0.92-1.21,1.44-2.34,2.31-2.89c0.62-0.39,2.4-0.26,2.52,0.06c1.23,3.37,4.85,3.8,7.08,5.92c2.17,2.06,4.75,0.38,7.1-0.37
	c2.02-0.64,1.4-2.36,1.49-3.8c0.05-0.74-0.03-1.72,0.4-2.17c2.42-2.54,0.88-4.2-1.06-5.93c-0.82-0.74-1.44-1.71-2.1-2.6
	c-1.68-2.27-3.44-2.15-4.89,0.21c-0.76,1.23-1.66,2.64-2.87,3.27c-2.47,1.3-5.17,2.19-7.83,3.1c-0.7,0.24-1.59-0.06-2.61-0.13
	c0.37-1.37,0.64-2.38,1.03-3.84c-2.52,0.12-4.67,0.23-6.8,0.34c-0.36,1.25-0.4,2.53-1.04,3.32c-1.51,1.85-0.5,2.79,1.04,3.43
	C621.82,493.62,623.88,494.18,626.08,494.9z M661.87,475.79c3.8,2.23,5.47,5.23,5.9,9.09c0.31,2.8,1.02,3.04,3.74,2.04
	c3.66-1.34,7.36-2.59,11.23-3.95c-0.01-2.77-0.13-5.76-2.53-7.4c-1.76-1.2-1.41-2.53-1.3-4.23c-1.73,0-3.17,0-4.58,0
	c-0.22-1.31-0.39-2.37-0.65-3.94C669.12,469.51,664.85,471.27,661.87,475.79z M626.2,513.09c-3.81-2.25-3.79-2.25-4.48,1.85
	c-0.08,0.47-0.42,0.89-0.61,1.35c-0.94,2.35-1.47,4.71-0.58,7.25c0.36,1.04,0.54,2.25,0.42,3.33c-0.45,3.9,1.29,6.88,3.67,9.59
	c1.26-8.59,2.53-17.18,3.79-25.77c-0.24-0.07-0.48-0.14-0.72-0.21C627.23,511.28,626.78,512.08,626.2,513.09z M628.39,559.28
	c0.68-1.13,1.27-2.08,1.94-3.19c0.83,0.92,1.37,1.5,2,2.19c0.93-3.4,0.93-3.4-4.43-7.53c-0.85,2.29-2.02,4.43-2.37,6.7
	c-0.34,2.17-0.32,4.69,0.52,6.63c0.42,0.97,3.03,0.99,4.67,1.4c0.18,0.05,0.44-0.17,0.81-0.33c0.35-1.18,0.72-2.45,1.14-3.85
	C631.17,560.6,629.97,560.03,628.39,559.28z M677.63,506.19c0.39-0.15,0.77-0.31,1.16-0.46c0.73-2.9,1.46-5.83,0.38-8.81
	c-0.69-1.91-2.25-2.8-4.21-2.19c-1.85,0.58-2,2.36-1.39,3.75C674.72,501.13,676.25,503.63,677.63,506.19z M681.29,545.14
	c0.44,0.16,0.87,0.31,1.31,0.47c0.94-1.73,2.23-3.39,2.65-5.24c0.15-0.67-1.74-1.82-2.71-2.75c-0.31,0.15-0.61,0.3-0.92,0.45
	C681.51,540.43,681.4,542.79,681.29,545.14z M684.02,528.06c1.54,1.26,2.7,2.21,4.3,3.52c0.72-2.5,1.24-4.31,1.79-6.23
	C687.2,524.56,686.01,526.25,684.02,528.06z"/>
<path d="M428.98,435.68c-7.33,1.18-12.49,5.93-17.69,11.23c1.01,0.85,1.91,1.59,3.1,2.58c-0.77,0.54-1.31,1.24-1.85,1.23
	c-2.13-0.03-4.29-0.09-6.37-0.5c-2.93-0.59-3.85-3.14-1.85-5.34c8.1-8.95,17.24-16.35,29.65-18.31c2.03-0.32,3.12-1.37,3.86-3.11
	c0.68-1.61,1.39-3.21,2.12-4.79c0.89-1.94,2.53-2.26,4.42-1.93c1.93,0.34,1.79,1.91,1.74,3.24c-0.08,2.26-0.21,4.53-0.61,6.75
	c-0.38,2.14-0.03,3.76,1.51,5.47c4.87,5.41,9.2,11.27,11.47,18.27c2.15,6.63,3.84,13.42,5.69,20.15c0.33,1.21,0.38,2.49,0.73,3.69
	c3.09,10.4,3.77,20.98,2.01,31.63c-0.73,4.4-2.08,8.73-3.5,12.98c-2.6,7.79-5.48,15.49-8.22,23.23c-1.12,3.16-2.35,4.01-5.58,3.22
	c-5.17-1.26-9.03-4.5-11.27-9.16c-4.26-8.86-8.01-17.96-12.2-26.85c-1.97-4.17-4.72-7.98-6.67-12.16c-1.24-2.65-2.19-5.66-2.35-8.55
	c-0.43-7.97,1.47-15.67,3.54-23.32c1.86-6.89,3.64-13.8,5.29-20.74c0.45-1.88,0.9-3.52,2.4-4.9c0.8-0.74,1.05-2.09,1.54-3.16
	C429.58,436.24,429.28,435.96,428.98,435.68z M438.1,437.24c-0.33-0.08-0.65-0.15-0.98-0.23c-3.7,4.75-6.16,10.13-7.66,15.96
	c-1.4,5.41-2.43,10.93-4,16.29c-2.06,7.07-2.91,14.22-2.33,21.54c0.09,1.1,0.32,2.29,0.85,3.23c2.16,3.81,4.46,7.55,6.7,11.31
	c0.51,0.86,1.11,1.68,1.48,2.6c3.19,7.84,6.19,15.77,9.59,23.52c0.96,2.2,2.88,4.08,4.65,5.8c1.58,1.54,3.36,1,4.56-1.03
	c0.38-0.64,0.73-1.32,0.98-2.03c2.42-6.84,4.93-13.64,7.16-20.54c1.27-3.91,2.63-7.93,2.95-11.98c0.72-9.29-0.25-18.5-2.75-27.53
	c-0.76-2.76-1.12-5.63-1.77-8.42c-0.51-2.2-1.17-4.36-1.76-6.54c-0.33,0.05-0.65,0.1-0.98,0.15c0,2.56-0.17,5.14,0.03,7.69
	c0.87,10.76,1.96,21.51,1.3,32.33c-0.12,1.94-0.74,3.84-1.06,5.77c-0.34,2.1-1.24,3.61-3.62,3.41c-2.36-0.19-3.45-1.91-4.02-3.93
	c-0.34-1.19-0.17-2.51-0.45-3.73c-1.52-6.57-3.14-13.12-4.64-19.69c-0.66-2.89-1.11-5.83-1.65-8.69c-5.58-1.17-6.47-2.75-5.21-8.55
	c0.58-2.68,1.12-5.39,1.36-8.12c0.41-4.49,0.56-9,0.84-13.51C437.77,440.63,437.95,438.94,438.1,437.24z"/>
<path d="M523.35,692.62c0.77,0.29,1.53,0.59,2.3,0.88c0,0.23,0,0.47-0.01,0.7c-1.73,0.11-3.47,0.22-5.77,0.37c0-3.75,0-7.14,0-9.8
	c-2.16-0.37-3.68-0.44-5.04-0.93c-1.14-0.41-2.29-1.15-3.11-2.04c-1.03-1.13-2.34-2.52-2.43-3.86c-0.15-2.32-1.31-3.26-3.11-4.18
	c-1.64-0.84-3.29-1.85-4.6-3.12c-1.21-1.17-1.86-3.13-0.45-4.37c0.9-0.79,2.88-1.1,4.07-0.7c8.91,3.02,17.91,3.09,27.03,1.36
	c0.71-0.14,1.49-0.07,2.22,0.02c2.6,0.31,5.21,1.04,7.79,0.93c4.1-0.19,6.83,1.57,8.33,5.1c1.21,2.84,3.45,5.54,2.35,9.49
	c-1.53-0.4-2.95-0.49-4.06-1.13c-2.77-1.6-5.36-0.9-7.83,0.42c-3.13,1.67-3.59,3.7-1.87,6.83c0.3,0.55,0.8,1,1.01,1.57
	c0.24,0.65,0.55,1.57,0.27,2.02c-0.28,0.45-1.49,0.85-1.9,0.61c-1.76-1.05-3.31-0.12-5,0.06c-2.17,0.23-4.42-0.25-6.62-0.52
	c-1.13-0.14-2.24-0.49-3.36-0.75C523.51,691.92,523.43,692.27,523.35,692.62z"/>
<path d="M625.11,247.63c-0.7,1.91-2.82,3.44-4.29,3.07c-0.53-0.13-0.88-0.94-1.31-1.44c1.24-0.87,2.42-1.87,3.77-2.55
	C623.64,246.53,624.49,247.3,625.11,247.63z"/>
</svg>
