<?xml version="1.0" encoding="utf-8"?>
<!-- Generator: Adobe Illustrator 24.1.0, SVG Export Plug-In . SVG Version: 6.00 Build 0)  -->
<svg version="1.1" id="Layer_1" xmlns="http://www.w3.org/2000/svg" xmlns:xlink="http://www.w3.org/1999/xlink" x="0px" y="0px"
	 viewBox="0 0 1224 792" style="enable-background:new 0 0 1224 792;" xml:space="preserve">
<path d="M695.99,782.97c4.4-4.14,8.55-8.59,13.25-12.37c10.11-8.13,21.68-13.88,33.36-19.38c0,10.58,0,21.16,0,31.75
	C727.07,782.97,711.53,782.97,695.99,782.97z"/>
<path d="M471.79,64.28c10.21-1.55,20.42-3.12,30.63-4.65c2.22-0.33,4.46-0.85,6.68-0.82c13.53,0.2,27.07,1.06,40.05,4.94
	c6.77,2.03,13.27,5.56,19.3,9.36c10.71,6.75,21.02,14.16,31.42,21.4c13.72,9.55,19.97,23.19,21,39.46
	c0.52,8.16,0.41,16.36,0.91,24.53c0.22,3.66,1.08,7.3,1.94,10.89c2.36,9.89,4.98,19.73,7.28,29.63c1.14,4.91,1.38,10.06,2.82,14.86
	c1.78,5.92-0.15,11.55-0.44,17.28c-0.34,6.93-1.61,13.81-2.08,20.74c-0.17,2.6,1.22,5.29,1.15,7.92c-0.13,4.57-0.6,9.16-1.39,13.66
	c-0.85,4.84-2.3,9.57-3.35,14.38c-0.25,1.15-0.06,2.44,0.14,3.63c1.6,9.49,3.18,18.98,4.93,28.43c0.94,5.05,2.25,10.02,3.34,15.05
	c0.26,1.2,0.22,2.46,0.41,3.67c1.01,6.52,1.81,13.09,3.2,19.52c0.49,2.27,2.22,4.4,3.74,6.3c7.74,9.71,11.59,21.13,14.72,32.88
	c2.7,10.11,6.53,19.74,11.56,28.93c0.96,1.75,0.98,4.02,1.36,6.06c0.78,4.18,1.28,8.42,2.32,12.53c2.44,9.65,4.96,19.28,7.77,28.83
	c2.36,8.01,5.96,15.73,7.57,23.87c1.51,7.62,3.84,15.65-0.17,23.43c-0.49,0.95-0.62,2.18-0.61,3.27c0.02,1.43,0.36,2.85,0.56,4.27
	c1.39-0.61,3.09-0.89,4.11-1.87c4.29-4.13,8.39-8.45,12.52-12.73c5.07-5.26,15.25-6.8,20.34-3.06c3.56,2.61,4.58,6.15,4.13,10.39
	c-0.22,2.1,0.01,4.24-0.15,6.35c-0.39,5.12-0.39,10.34-1.45,15.33c-1.76,8.28-3.69,16.6-6.59,24.53
	c-1.77,4.83-1.74,10.69-6.46,14.26c-1.42,1.08-2.52,2.78-4.09,3.44c-6.62,2.79-10.38,8.76-15.41,13.31c-3.23,2.92-6.44,5.92-10,8.38
	c-3.73,2.57-7.85,1.75-10.39-1.93c-3.48-5.03-8.87-8.92-10-15.36c-0.44-2.51-1.72-3.88-3.73-4.68c-0.8-0.32-2.66,0.07-2.9,0.63
	c-2.5,5.84-5.03,11.68-7.05,17.7c-3.11,9.27-3.69,19.19-8.79,28.03c-3.51,6.09-4.62,13.52-7.51,20.05
	c-3.39,7.66-4.56,16.16-9.84,23.17c-4.31,5.71-8.32,11.98-10.86,18.61c-2.59,6.77-8.08,11.41-10.86,17.84
	c-1.14,2.63-2.25,5.27-3.46,7.87c-0.61,1.3-1.2,2.69-2.14,3.74c-5.61,6.24-11.24,12.46-17.03,18.53c-1.43,1.5-3.4,2.58-5.27,3.55
	c-8.75,4.52-17.54,8.94-26.34,13.38c-6.78,3.42-13.37,7.32-20.42,10.04c-6.82,2.63-13.82,4.89-21.23,5.88
	c-5.8,0.78-11.34,3.31-17.12,4.51c-6.91,1.43-13.93,2.38-20.93,3.31c-6.04,0.81-11.54-1.03-17.19-3.23
	c-7.44-2.9-15.28-4.87-23.05-6.85c-5.29-1.35-10.79-1.87-16.13-3.08c-2.13-0.48-4.15-1.68-6.06-2.81
	c-8.11-4.77-16.68-8.7-23.88-15.08c-4.01-3.55-9.43-5.45-13.96-8.48c-8.73-5.82-17.05-12.27-25.95-17.8
	c-8.97-5.58-14.92-14.03-22.01-21.41c-1.03-1.07-1.39-2.79-2.04-4.21c-3.46-7.54-4.88-15.68-6.74-23.66
	c-1.66-7.13-2.76-14.39-4.4-21.52c-1.56-6.79-4.65-13.45-4.94-20.26c-0.31-7.31-4.25-12.8-6.52-19.08
	c-2.74-7.58-3.75-15.4-4.83-23.28c-0.9-6.54-2.26-13.01-3.45-19.5c-1.52-8.24-3.16-16.46-4.57-24.72
	c-0.63-3.69-0.92-7.44-1.17-11.18c-0.57-8.6,1.39-16.77,3.35-25.12c2.17-9.21,2.57-18.85,3.43-28.33c0.69-7.6,0.62-15.28,1.44-22.86
	c1.1-10.13,2.84-20.19,4.1-30.31c0.61-4.9,0.52-9.88,1.1-14.77c0.96-7.99,2.19-15.96,3.34-23.93c1.06-7.32,2.04-14.66,3.29-21.94
	c1.49-8.73,3.29-17.41,4.85-26.14c1.57-8.83,2.92-17.7,4.53-26.52c1.92-10.47,3.54-21.02,6.16-31.32
	c3.2-12.57,7.65-24.82,10.89-37.38c2.16-8.35,3.29-16.98,4.62-25.52c1.55-9.98,2.36-20.1,4.33-30c2.96-14.9,8.38-28.62,18.9-40.3
	c14.11-15.67,27.36-32.1,40.92-48.25c2.38-2.83,4.9-5.67,6.64-8.89c3.15-5.85,8.5-8.37,14.19-10.62c7.73-3.06,15.52-5.99,23.14-9.3
	c5.86-2.54,11.38-5.9,17.29-8.3c3.86-1.56,8.15-2.05,12.25-3.02C471.59,63.25,471.69,63.77,471.79,64.28z M625.48,333.35
	c0-5.19,0.01-9.79-0.02-14.38c0-0.42-0.2-0.88-0.43-1.25c-3.78-6.17-5.64-13.02-4.81-20.05c0.88-7.4,2.77-14.73,4.74-21.95
	c2.2-8.06,2.81-16.05,1.32-24.28c-0.35-1.92-0.11-4.01,0.17-5.98c1.02-7.1,2.55-14.15,3.13-21.28c0.36-4.38-0.49-8.9-1.11-13.31
	c-0.79-5.63-1.74-11.25-2.91-16.82c-1.69-7.99-3.19-16.06-5.63-23.83c-2.18-6.93-2.49-13.85-2.59-20.95
	c-0.09-6.71-0.49-13.43-1.12-20.12c-1.1-11.73-6.62-21.31-15.37-28.97c-4.13-3.62-8.6-6.92-13.19-9.95
	c-7.5-4.94-15.11-9.74-22.9-14.2c-5.05-2.89-10.31-5.76-15.84-7.36c-6.97-2.02-14.27-3.16-21.51-3.92
	c-7.35-0.77-14.99-1.78-22.15-0.59c-11.32,1.89-22.57,3.82-34.06,4.25c-2.87,0.11-5.87,0.63-8.52,1.68
	c-5.81,2.3-11.39,5.18-17.16,7.61c-8.29,3.48-16.76,6.54-24.94,10.25c-3.58,1.62-7.32,3.82-9.8,6.76
	c-12.73,15.07-25.03,30.5-37.58,45.71c-4.64,5.62-9.54,11.03-14.37,16.49c-10.09,11.39-14.02,25.41-16.56,39.85
	c-2.23,12.69-3.55,25.54-5.6,38.26c-1.13,6.96-2.46,13.96-4.56,20.67c-5.14,16.44-10.75,32.73-13.42,49.83
	c-1.69,10.84-3.23,21.7-4.98,32.53c-0.95,5.84-2.2,11.63-3.33,17.44c-1.09,5.6-2.75,11.16-3.16,16.82
	c-0.53,7.38-1.52,14.62-2.72,21.92c-1.96,11.95-2.87,24.06-4.15,36.12c-0.32,3-0.13,6.06-0.51,9.05
	c-1.11,8.84-2.61,17.64-3.54,26.51c-0.78,7.42-0.89,14.92-1.45,22.36c-0.45,5.91-1.01,11.81-1.78,17.68
	c-0.36,2.75-1.44,5.39-1.97,8.13c-1.04,5.36-2.67,10.74-2.67,16.12c0,6.73,1.26,13.49,2.22,20.2c1.01,7.05,2.27,14.06,3.48,21.08
	c1.13,6.57,2.37,13.13,3.52,19.69c0.99,5.61,1.59,11.32,3.02,16.81c0.81,3.12,3.14,5.81,4.42,8.84c1.67,3.94,2.41,8.31,5.71,11.44
	c0.13,0.13,0.1,0.43,0.14,0.65c0.91,6.51,1.66,13.05,2.77,19.52c0.81,4.75,2.1,9.43,3.18,14.13c0.02,0.11,0.14,0.19,0.16,0.3
	c0.68,3.03,1.45,6.03,2,9.08c0.85,4.7,1.22,9.51,2.4,14.12c2.28,8.87,6.94,16.79,13.45,22.92c6.3,5.94,13.97,10.44,21.11,15.48
	c1.25,0.89,2.92,1.19,4.21,2.03c2.95,1.93,5.73,4.14,8.71,6.03c2.22,1.41,4.81,2.28,6.94,3.79c6.04,4.28,11.85,8.89,17.93,13.11
	c3.09,2.14,6.54,3.8,9.91,5.52c3.62,1.84,7.18,4.01,11.03,5.13c9.01,2.62,18.17,4.72,27.28,6.98c2.9,0.72,6.27,0.58,8.69,2.05
	c7.94,4.84,16.51,4.75,25.16,3.95c5.25-0.49,10.45-1.13,15.31-4.05c2.9-1.74,6.9-1.77,10.45-2.29c15.28-2.22,29.67-6.9,42.95-14.9
	c3.6-2.17,7.35-4.1,11.05-6.09c5.91-3.19,12.28-5.73,17.63-9.67c5.8-4.27,10.71-9.77,15.88-14.88c1.56-1.54,2.83-3.44,3.95-5.33
	c5.36-9.03,10.67-18.1,15.93-27.2c4.77-8.25,9.73-16.41,14.04-24.89c2.47-4.85,3.97-10.23,5.61-15.47
	c3.75-11.92,10.51-22.66,12.86-35.19c1.43-7.65,4.82-14.9,6.79-22.48c1.47-5.61,4.26-10.33,7.74-14.77c1.58-2.02,3.6-2.66,6.28-2.22
	c1.52,0.25,3.21-0.73,4.85-1.02c1.56-0.28,3.46-0.98,4.66-0.39c1.22,0.6,2.46,2.55,2.48,3.93c0.04,3.3-0.7,6.6-0.96,9.92
	c-0.09,1.15-0.03,2.53,0.52,3.48c1.19,2.07,3.01,3.8,4.06,5.93c2.44,4.91,4.92,5.3,8.69,1.14c6.03-6.66,12.27-13.06,19.86-18.07
	c2.22-1.46,4.42-3.88,5.28-6.33c3.3-9.47,6.5-19.02,8.84-28.76c1.34-5.57,0.98-11.56,1.26-17.37c0.02-0.5-0.74-1.3-1.32-1.53
	c-2.05-0.85-2.01-1.58-0.34-2.96c0.79-0.65,1.48-2.14,1.28-3.06c-0.16-0.77-1.63-1.71-2.59-1.78c-4.86-0.39-9.02,1.41-12.49,4.76
	c-3.07,2.96-5.84,6.28-9.15,8.93c-4.25,3.4-8.78,6.51-13.46,9.3c-2.87,1.71-5.63-0.22-5.28-3.5c0.4-3.76,0.81-7.64,2.05-11.18
	c4.03-11.46,4.16-22.63-1.21-33.71c-1.07-2.2-1.88-4.58-2.47-6.96c-1.75-7.06-3.23-14.19-4.99-21.25
	c-1.76-7.07-4.03-14.02-5.47-21.14c-1.15-5.71-1.65-11.53-4.41-16.8c-1.29-2.47-2.87-4.85-3.76-7.47
	c-2.48-7.3-4.81-14.66-6.94-22.08c-2.94-10.25-5.72-20.55-13.37-28.55c-0.95-0.99-2.56-1.32-3.81-2.05
	c-1.46-0.86-3.65-1.52-4.14-2.79c-1.76-4.57-3.09-9.32-4.28-14.09c-1.57-6.33-7.22-9.86-13.58-9.07c-3.18,0.4-6.75-0.18-9.77-1.32
	c-3.39-1.28-5.52-0.78-7.9,1.84c-5.27,5.81-10.85,11.36-16.23,17.08c-2.49,2.65-5.24,5.19-7.1,8.24c-2.92,4.81-5.42,9.91-7.67,15.07
	c-2.48,5.69-4.59,11.55-6.67,17.41c-1.14,3.22-1.73,6.63-2.81,9.87c-2.63,7.9-5.41,15.76-8.12,23.63
	c-1.67,4.84-3.32,9.69-4.97,14.53c-0.54,1.57-1.32,3.13-1.51,4.75c-0.68,5.76-3.02,10.99-4.95,16.36c-1.15,3.22-2.47,6.39-3.5,9.66
	c-0.5,1.59,0.12,4.03-0.84,4.88c-4.06,3.6-2.63,9.3-5.59,13.28c-1.28,1.73-1.96,3.95-2.71,6.02c-2.03,5.55-3.86,11.17-5.96,16.69
	c-1.43,3.75-3.39,7.3-4.72,11.08c-1.32,3.74-1.95,7.71-3.25,11.46c-2.52,7.26-5.61,14.33-7.87,21.66
	c-1.43,4.65-1.67,9.65-2.69,14.44c-0.74,3.49-1.3,7.24-3.08,10.2c-1.17,1.94-2.01,3.65-2.5,5.84c-0.7,3.11-1.1,7.29-3.23,8.86
	c-4.47,3.3-6.18,8.09-8.99,12.3c-1.29,1.93-2.62,3.87-3.56,5.97c-1.03,2.31-1.26,5.03-2.51,7.18c-4.49,7.71-5.06,16.24-5.64,24.78
	c-0.17,2.47,0.34,5.03-0.16,7.41c-0.9,4.32-2.21,8.56-3.61,12.75c-0.33,0.99-1.6,2.1-2.64,2.35c-2.82,0.69-5.73,1.23-8.62,1.31
	c-2.83,0.08-6.79-4-6.51-6.58c0.38-3.46-1.25-6.02-3.02-8.66c-0.56-0.83-1.14-2.12-0.89-2.95c1.29-4.23-0.85-7.77-2.46-11.17
	c-1.77-3.74-2.27-7.36-1.1-11.13c1.71-5.46,2.45-10.78,0.89-16.48c-0.78-2.84-0.52-6.05-0.2-9.04c0.1-0.99,1.79-2.41,2.86-2.53
	c1.12-0.12,3.26,0.94,3.43,1.78c0.76,3.8,1.67,7.79,1.27,11.58c-0.99,9.36-2.2,18.6,0.34,27.93c1.52,5.59,2.01,11.48,5.29,16.47
	c0.62,0.94,1.67,2.39,2.36,2.31c1.1-0.13,2.53-1.16,2.98-2.18c0.84-1.89,1.36-4.03,1.52-6.1c0.58-7.8,0.96-15.61,1.42-23.41
	c0.03-0.56,0.02-1.17,0.24-1.65c2.95-6.3,6.1-12.5,8.86-18.87c2.88-6.66,5.46-13.46,8.01-20.27c0.49-1.3,0.72-3.11,0.19-4.29
	c-1.38-3.1-1.17-5.36,2.09-6.95c0.38-0.18,0.56-0.94,0.68-1.47c0.96-4.22,1.93-8.43,2.81-12.66c0.85-4.04,3.53-6.48,7.68-6.69
	c0.11-0.48,0.26-1.01,0.35-1.54c0.35-2.29-0.1-5.25,1.17-6.74c3.15-3.69,3.75-8.33,5.76-12.4c1.01-2.04,0.63-5.21,2.08-6.48
	c1.7-1.49,1.61-2.92,1.9-4.59c0.2-1.18,0.4-2.41,0.9-3.48c0.88-1.92,2.14-3.68,2.96-5.63c1.59-3.74,3.05-7.54,4.41-11.37
	c0.32-0.91-0.1-2.05,0.05-3.05c0.11-0.73,0.57-1.42,0.91-2.11c1.45-2.99,3.2-5.86,4.3-8.97c2.03-5.76,3.67-11.66,5.51-17.49
	c0.16-0.51,0.6-0.93,0.84-1.42c1.89-3.91,4.13-7.7,5.56-11.78c2.77-7.89,5.08-15.94,7.57-23.93c0.53-1.7,0.92-3.44,1.52-5.12
	c2.41-6.74,4.91-13.45,7.3-20.2c4.86-13.71,8.02-28.06,15.43-40.8c1.06-1.82,0.94-3-1.29-3.88c-2.47-0.98-2.92-3.82-1.13-5.74
	c1.6-1.71,3.19-3.43,4.9-5.03c3.82-3.55,6.6-7.5,8.05-12.76c3.78-13.7,9.9-26.3,19.64-36.91c2.16-2.35,4.42-2.63,6.35-0.52
	c1.21,1.32,2.28,2.75,3.44,4.12c2.97,3.53,3.92,7.19,1.24,11.42c-0.48,0.76-0.38,2.47,0.17,3.22c2.47,3.36,8.4,4.7,12.19,2.86
	c3.42-1.66,6.67-2.96,9.61,0.82C623.58,332.63,624.35,332.77,625.48,333.35z M593.16,317.87c-7.15,4.84-11.12,11.64-12.76,19.88
	C586.01,331.98,591.8,326.33,593.16,317.87z"/>
<path d="M673.73,188.83c-3.44,0.11-5.98-2.36-6.03-4.88c-0.05-2.4,1.25-3.75,3.53-4.12c1.54-0.25,6.46,4.64,5.78,5.97
	C676.25,187.26,674.46,188.19,673.73,188.83z"/>
<path d="M281.55,81.1c-1.39,0.58-2.24,1.26-2.77,1.07c-0.77-0.28-1.3-1.2-1.93-1.84c0.64-0.43,1.36-1.29,1.91-1.19
	C279.54,79.27,280.21,80.11,281.55,81.1z"/>
<path d="M375.25,424.75c-3.6-3.98-6.99-7.56-10.18-11.31c-1.9-2.24-3.81-3.25-6.96-2.69c-10.49,1.86-20.97,2.1-31.29-1.33
	c-5.07-1.69-6.85-3.51-6.39-8.75c0.68-7.69,1.37-15.46,3.07-22.96c1.03-4.56,3.99-8.69,6.05-13.02c2-4.21,3.88-8.5,6.01-12.65
	c0.6-1.17,1.73-2.32,2.9-2.89c3.04-1.48,3.99-3.16,3.06-6.43c-0.22-0.75-0.38-1.55-0.75-2.23c-3.07-5.57-0.66-11.72-1.81-17.5
	c-0.17-0.85,1.3-2.02,2.01-3.05c1.19,0.85,3.01,1.46,3.43,2.6c0.92,2.48,1.38,5.2,1.56,7.86c0.16,2.36,0.53,4.17,2.74,5.6
	c3.98,2.58,7.22,6.09,12.12,7.47c5.38,1.52,8.34,5.62,10.09,11.13c1.05,3.29,3.81,6.17,6.24,8.84c2.34,2.57,4.14,4.96,4.26,8.72
	c0.1,3.27,1.05,6.58,2.06,9.73c0.88,2.74,0.7,5.01-1.82,6.44c-2.53,1.44-3.77-0.65-5.12-2.37c-6.53-8.26-13.12-16.47-19.72-24.67
	c-0.7-0.87-1.56-1.63-2.44-2.31c-2.32-1.79-3.28-1.33-4.28,1.39c-0.76,2.07-1.85,4.07-3.1,5.89c-0.59,0.86-2.32,1.96-2.79,1.68
	c-0.95-0.56-1.82-1.93-1.97-3.06c-0.3-2.24-0.09-4.55-0.09-6.83c-0.39-0.1-0.79-0.19-1.18-0.29c-0.69,0.88-1.52,1.69-2.05,2.66
	c-3.14,5.74-6.23,11.5-9.29,17.29c-0.46,0.87-0.72,1.87-0.91,2.85c-0.78,4.04-1.57,8.07-2.23,12.13c-0.31,1.95-0.55,3.97-0.43,5.93
	c0.15,2.31,1.07,4.24,3.59,5.13c7.47,2.63,15.04,3.38,22.84,1.76c2.41-0.5,4.89-0.67,7.34-0.87c3.62-0.3,6.48,1.12,8.96,3.77
	c4.58,4.88,9.71,9.3,13.9,14.49c3.25,4.03,5.2,9.08,8.1,13.42c4.58,6.86,4.35,15.01,6.36,22.53c0.93,3.47,0.47,7.39,0.2,11.08
	c-0.4,5.4-9.61,14.81-14.82,14.46c-4.6-0.31-9.33-1.59-13.6-3.4c-5.17-2.19-9.79-5.59-13.08-10.33c-4.46-6.44-8.91-12.92-11.1-20.6
	c-1.19-4.2,0.07-7.81,3.03-10.71c4-3.93,7.95-8.01,12.48-11.25c2.55-1.82,6.2-2.2,9.42-2.96
	C371.36,424.7,373.18,424.86,375.25,424.75z M391.87,461.33c-1.24,0.83-1.98,1.07-2.3,1.58c-1.07,1.7-1.95,3.51-2.97,5.24
	c-2.78,4.72-11.82,6.19-14.87,1.9c-1.71-2.4-2.51-6.17-2.16-9.14c0.68-5.82,2.38-11.53,3.81-17.25c0.77-3.05,2.14-5.68,5.11-7.45
	c2.22-1.32,1.37-3.15-0.65-4.08c-1.29-0.59-2.83-0.91-4.24-0.89c-6.1,0.12-11.78,1.34-15.95,6.45c-1.34,1.64-3.13,2.9-4.58,4.46
	c-2.4,2.58-4.13,5.77-1.97,9.34c2.43,4.01,4.45,8.28,6.79,12.35c1.14,1.98,2.36,4.04,4,5.57c2.01,1.88,4.37,3.48,6.81,4.77
	c2.52,1.33,5.49,1.83,7.94,3.24c3.25,1.88,5.93,2.04,8.86-0.29C390.34,473.27,390.92,467.73,391.87,461.33z M350.86,349.83
	c3.4,2.57,6.08,4.9,9.04,6.75c2.86,1.79,3.27,6.27,7.53,7.01C364.93,352.98,360.28,347.2,350.86,349.83z M383.38,458.16
	c-1.75,0.71-3.23,1.56-4.81,1.87c-1.65,0.32-3.13,0.84-2.41,2.62c0.39,0.97,2.12,1.97,3.24,1.96
	C382.03,464.58,384.08,460.81,383.38,458.16z"/>
<path d="M576.9,516.99c3.43,0.02,5.36,2.25,6.75,6.47c1.35,4.11,3.12,8.07,4.69,12.11c0.28,0.71,0.68,1.48,0.64,2.2
	c-0.3,5.36-0.34,10.77-1.18,16.06c-0.52,3.27-1.68,6.79-3.62,9.4c-3.49,4.69-7.67,8.91-11.82,13.06c-1.26,1.26-3.31,1.85-5.11,2.42
	c-2.99,0.96-6.07,1.65-9.12,2.45c-3.8,1-7.71-1.63-8.07-5.56c-0.66-7.22-0.59-14.43,1.56-21.43c0.76-2.48,2.16-4.75,3.1-7.19
	c0.26-0.69,0.19-1.81-0.22-2.4c-2.74-4-3.15-6.22-0.42-9.87c5.48-7.31,11.65-13.94,20.64-17.06
	C575.59,517.37,576.45,517.13,576.9,516.99z M561.92,553.85c-1.52,2.12-3.06,4.19-4.5,6.34c-0.34,0.52-0.43,1.27-0.45,1.93
	c-0.09,2.92-0.1,5.84-0.15,8.76c-0.03,1.81,0.82,2.9,2.64,2.59c2.75-0.46,6.09-0.38,8.05-1.94c4.27-3.42,8.46-7.3,11.5-11.79
	c3.27-4.84,3.63-10.91,3.48-16.79c-0.01-0.59-0.32-1.18-0.61-2.17c-0.52,0.67-0.81,0.97-1.01,1.32c-2.81,4.96-4.1,10.69-8.62,14.83
	c-3.43,3.14-7.29,3.36-9.45-0.56C562.35,555.54,562.16,554.56,561.92,553.85z"/>
<path d="M453.95,725.03c5.82,0,11.67-0.32,17.44,0.21c1.56,0.14,3.62,2.63,4.15,4.43c0.77,2.63-1.66,3.63-3.92,3.91
	c-1.31,0.16-2.67-0.15-4.01-0.25c-6.99-0.54-13.97-1.15-20.97-1.55c-1.39-0.08-2.87,1.05-4.22,0.9c-1.54-0.17-3.81-0.79-4.29-1.87
	c-0.84-1.87-0.72-4.54,2.17-5.07c4.5-0.83,9.06-1.31,13.6-1.94C453.92,724.2,453.93,724.62,453.95,725.03z"/>
<path d="M370.48,715.26c-0.45-1.44-1-3.47-1.72-5.44c-1.34-3.65-2.97-7.21-4.08-10.92c-0.36-1.19,0.55-2.77,0.87-4.16
	c1.38,0.67,3.19,0.98,4.06,2.06c4.43,5.48,5.6,12.38,7.54,18.9c0.68,2.3,0.14,4.56-3.13,4.65
	C370.9,720.42,369.71,718.94,370.48,715.26z"/>
</svg>
