<?xml version="1.0" encoding="utf-8"?>
<!-- Generator: Adobe Illustrator 24.1.0, SVG Export Plug-In . SVG Version: 6.00 Build 0)  -->
<svg version="1.1" id="Layer_1" xmlns="http://www.w3.org/2000/svg" xmlns:xlink="http://www.w3.org/1999/xlink" x="0px" y="0px"
	 viewBox="0 0 1224 792" style="enable-background:new 0 0 1224 792;" xml:space="preserve">
<path d="M686.02,98.43c-9.59-0.04-18.69-2.12-27.2-6.58c-0.6-0.32-1.47-0.58-1.69-1.09c-1.15-2.72-3.65-2.91-5.95-3.13
	c-3.11-0.31-5.25-2.25-7.49-4c-1.02-0.8-1.05-2.26,0.18-2.92c1.35-0.72,2.93-1.25,4.44-1.36c3.3-0.24,6.63-0.26,9.95-0.19
	c3.91,0.08,7.82,0.58,11.72,0.48c5.43-0.15,10.8-0.18,16.05,1.45C686.02,86.87,686.02,92.65,686.02,98.43z"/>
<path d="M686.02,72.76c-1.58-1.3-3.21-2.54-4.69-3.94c-0.31-0.29-0.04-1.19-0.04-1.86c-3.53-0.43-5.82-2.35-6.67-5.71
	c-1.17-0.53-2.5-0.79-3.32-1.58c-2.14-2.04-4.04-4.34-6.1-6.47c-0.41-0.42-1.1-0.64-1.7-0.81c-2.61-0.75-4.62-2.3-6.44-4.44
	c0.94-0.66,1.7-1.2,3.19-2.25c-1.63-0.14-2.43-0.2-3.24-0.27c-1.27-0.12-2.62-0.12-2.92-1.8c10.58,0,21.16,0,31.92,0
	C686.02,53.33,686.02,63.04,686.02,72.76z"/>
<path d="M622.17,435.07c0-3.34,0.1-6.68-0.04-10.01c-0.09-2.16,0.76-3.78,2.66-4.39c4.93-1.56,8.54-4.96,12.25-8.24
	c4.48-3.97,8.93-8,14.04-11.14c4.61-2.84,9.58-4.58,15.15-3.17c2.23,0.56,3.14,1.55,3.28,3.83c0.07,1.15,0.04,2.33-0.16,3.46
	c-1.2,6.8-2.72,13.57-3.62,20.41c-0.56,4.2-0.16,8.53-0.29,12.79c-0.11,3.55-0.06,7.15-0.66,10.63c-0.38,2.17-2.17,4.07-2.74,6.25
	c-1.72,6.48-4.7,12.47-5.52,19.38c-0.8,6.75-0.66,13.53-1.56,20.26c-0.59,4.43-0.43,8.96-0.81,13.43c-0.17,2.03-0.79,4.03-1.27,6.03
	c-0.91,3.78-1.56,7.66-2.91,11.29c-1.3,3.52-3.14,6.89-5.13,10.1c-0.92,1.48-2.81,2.34-4.12,3.61c-3.84,3.71-6.3,8.39-8.93,12.95
	c-0.23,0.4-0.44,0.81-0.67,1.21c-1.67,2.89-3.72,3.35-6.55,1.6c-1.72-1.07-3.53-2-5.74-3.24c-0.31,1.43-0.61,2.26-0.66,3.11
	c-0.2,3.56-0.17,7.15-0.52,10.69c-0.31,3.07-0.89,6.14-1.6,9.15c-1.78,7.54-2.6,15.18-2.92,22.91c-0.1,2.52-0.48,5.05-0.95,7.54
	c-1.94,10.36-2.72,20.77-2.05,31.32c0.48,7.58,1.1,15.25,0.45,22.77c-0.42,4.84-1.96,9.82-5.62,13.84c-4,4.4-7.42,9.32-11.14,13.98
	c-1.87,2.34-3.93,4.52-5.76,6.88c-2.17,2.79-4.03,5.84-6.34,8.5c-1.79,2.06-4.09,3.68-6.14,5.51c-0.76,0.68-1.4,1.51-2.2,2.12
	c-0.69,0.53-1.68,1.35-2.3,1.18c-1.72-0.48-2.86,0.4-4.17,1.11c-3.44,1.87-7,3.53-10.32,5.6c-2.42,1.5-4.62,3.4-6.75,5.32
	c-6.15,5.54-12.14,11.25-18.34,16.74c-4.73,4.19-9.51,8.37-14.59,12.11c-4.25,3.13-8.96,5.62-13.48,8.38
	c-2.36,1.44-4.69,2.94-7.11,4.25c-6.92,3.76-12.65,9.18-19.12,13.56c-1.14,0.77-2.41,1.35-3.61,2.03c-2.76,1.56-5.49,1.93-8.57,0.64
	c-1.75-0.73-3.83-0.69-5.77-0.96c-7.54-1.05-15.08-2.15-22.63-3.1c-2.74-0.34-5.56-0.06-8.29-0.45c-5.59-0.8-11.16-1.74-16.69-2.87
	c-3.15-0.64-6.18-1.88-9.32-2.61c-6.06-1.42-12.16-2.65-18.23-3.99c-1.8-0.4-3.56-0.94-5.35-1.36c-1-0.24-2.02-0.52-3.04-0.54
	c-6.38-0.16-12.59-1.31-18.85-2.48c-5.95-1.11-11.47-3.21-17.1-5.27c-8.11-2.96-16.39-5.44-25.08-6.42
	c-4.55-0.52-9.01-1.89-13.51-2.86c-1.69-0.37-3.39-1-5.08-0.99c-5.78,0.03-11.04-2.3-16.57-3.38c-3.49-0.68-7-1.33-10.53-1.64
	c-4.47-0.4-9.02-0.14-13.46-0.74c-3.26-0.44-6.44-1.64-9.57-2.76c-3.69-1.33-7.54-2.5-10.84-4.53c-5.27-3.24-10.19-7.06-15.16-10.76
	c-6.64-4.95-13.25-9.94-19.75-15.08c-2.51-1.98-4.64-4.44-7.01-6.6c-5.61-5.08-10.12-10.97-13.64-17.69
	c-2.7-5.16-5.83-10.1-8.59-15.23c-2.61-4.85-4.44-9.96-5.7-15.39c-1.26-5.44-3.6-10.62-5.36-15.95c-1.87-5.64-3.61-11.31-5.4-16.98
	c-0.35-1.1-0.77-2.19-0.93-3.32c-0.2-1.47-0.65-3.16-0.16-4.42c1.4-3.55,1.08-6.92,0.02-10.42c-0.76-2.51-1.21-5.12-1.81-7.68
	c-0.1-0.45-0.14-0.98-0.41-1.31c-3.14-3.79-3.09-8.81-5.06-13.05c-1.29-2.79-2.51-5.64-3.37-8.58c-0.57-1.92-0.75-4.08-0.55-6.07
	c0.19-1.96-0.08-3.58-1.03-5.27c-1.97-3.5-4.04-6.98-5.63-10.66c-2.28-5.25-4.11-10.7-6.26-16.01c-0.86-2.12-1.87-4.21-3.14-6.11
	c-1.31-1.96-3.32-3.53-5.64-3.73c-4.81-0.42-9.71-0.83-14.32,1.33c-4.79,2.25-9.56,4.53-14.35,6.78c-0.62,0.29-1.28,0.59-1.95,0.71
	c-4.42,0.78-8.84,1.63-13.28,2.21c-2.57,0.34-5.08-0.29-7.25-1.81c-3.5-2.44-7.09-4.77-10.38-7.47c-2.55-2.1-4.63-4.76-7.05-7.03
	c-1.76-1.65-3.71-3.11-5.62-4.6c-2.79-2.19-4.65-5.01-5.8-8.33c-0.19-0.54-0.29-1.17-0.64-1.59c-2.79-3.29-3.53-7.38-4.46-11.38
	c-0.21-0.89-0.32-1.83-0.32-2.74c-0.02-3.93,0.07-7.86,0.02-11.79c-0.03-2.9,1.37-4.85,3.43-6.81c7.11-6.76,15.81-10.87,24.68-14.37
	c8.09-3.2,16.63-3.15,24.93,0.2c5.11,2.06,10.27,4,15.39,6.03c1.3,0.52,2.44,0.58,3.48-0.51c1.49-1.56,3.29-2.12,5.37-1.42
	c1.53,0.52,2.69,0.03,3.72-1.09c1.16-1.26,2.49-1.62,4.02-0.64c1.5,0.96,1.83,2.35,1.32,3.92c-0.85,2.6-0.49,5.21-0.42,7.86
	c0.07,2.5,1.25,3.74,3.29,4.7c5.24,2.47,7.44,1.17,7.7-4.68c0.12-2.77-0.03-5.56,0.23-8.32c0.52-5.5,1.09-11.01,1.94-16.46
	c1-6.37,2.22-12.7,2.16-19.2c-0.02-1.79,0.7-3.57,0.91-5.38c0.44-3.89,1.1-7.79,1.08-11.69c-0.04-8.77-0.04-17.57-0.81-26.3
	c-0.95-10.61-0.62-21.27-1.53-31.84c-0.47-5.51,0.25-10.79,0.52-16.17c0.11-2.26,0.88-4.5,1.42-6.74c0.9-3.66,1.85-7.32,2.81-10.97
	c1.2-4.56,2.32-9.14,3.65-13.65c1.39-4.7,2.96-9.35,4.5-14.01c1.73-5.24,3.35-10.52,5.32-15.67c2.21-5.8,4.8-11.46,7.15-17.21
	c1.86-4.57,3.38-9.3,5.45-13.78c3.04-6.56,6.4-12.96,9.71-19.39c0.78-1.52,1.97-2.83,2.86-4.31c5.04-8.37,9.95-16.82,15.09-25.13
	c1.98-3.21,4.45-6.12,6.7-9.16c0.34-0.46,0.77-0.88,1.04-1.39c2.96-5.66,7.68-9.96,11.53-14.92c4.93-6.34,10.09-12.48,14.22-19.46
	c3.17-5.35,7.4-9.92,12.94-13.17c4.55-2.66,8.84-5.77,13.27-8.63c0.86-0.56,1.85-0.92,2.79-1.36c0.52-0.25,1.32-0.32,1.54-0.72
	c2.19-3.84,7.01-3.82,9.82-6.86c2.73-2.95,6.11-5.29,8.91-8.18c6.33-6.53,12.51-13.19,18.67-19.88c4.29-4.65,8.4-9.46,12.66-14.13
	c2.23-2.45,5.09-4.17,8.29-4.77c4.98-0.94,10.03-1.5,15.08-2c4.02-0.4,8.2,0.08,12.08-0.84c7.77-1.84,15.58-1.48,23.38-1.23
	c8.42,0.26,16.82,1.09,25.23,1.63c2.88,0.19,5.77,0.27,8.66,0.36c7.04,0.21,13.58,2.25,19.88,5.28c1.96,0.95,4.12,1.47,6.14,2.3
	c9.85,4.07,18.27,10.14,25.42,18.03c2.7,2.98,5.59,5.79,8.31,8.74c1.25,1.35,2.31,2.87,3.45,4.31c7.66,9.68,16.21,18.52,25.16,27
	c4.16,3.94,8.04,8.17,12.16,12.16c1.97,1.9,4.16,3.57,6.3,5.29c5.62,4.52,9.8,10.28,14.01,16.05c4.34,5.94,9,11.63,13.45,17.49
	c0.87,1.15,1.42,2.54,2.07,3.85c0.66,1.33,1.19,2.74,1.91,4.03c2.13,3.79,4.29,7.53,5.69,11.71c1.26,3.76,3.13,7.32,4.37,11.09
	c1.08,3.25,1.75,6.65,2.43,10.02c1.17,5.74,2.2,11.5,3.29,17.25c0.58,3.05,0.96,6.14,1.77,9.13c0.86,3.18,1.9,6.34,3.23,9.35
	c3.18,7.24,6.62,14.35,9.84,21.58c0.88,1.97,1.43,4.12,1.92,6.23c1.99,8.51,3.8,17.07,5.88,25.56c0.73,3,1.79,5.99,3.15,8.75
	c2.75,5.55,3.27,11.7,5.16,17.47c0.82,2.5,1.62,5.07,2.89,7.36c3.24,5.84,6.2,11.77,8.49,18.07c1.51,4.16,3.74,8.04,5.43,12.14
	c2.32,5.61,4.59,11.26,6.59,16.99c1.65,4.73,2.8,9.62,4.29,14.41c0.78,2.5,2.02,4.88,2.7,7.4c1.09,3.99,1.83,8.06,2.84,12.07
	c0.32,1.25,1.03,2.4,1.57,3.59C621.46,435.27,621.82,435.17,622.17,435.07z M147.05,490.37c-0.11,0.29-0.22,0.58-0.33,0.87
	c1.4,1.3,2.81,2.47,4.88,2.77c5.05,0.75,10.09,0.58,15.14,0.04c2.52-0.27,5.04-0.58,7.57-0.8c3.91-0.35,7.83-0.54,11.73-0.98
	c6.25-0.71,12.48-0.8,18.55,1.02c3.78,1.13,7.6,1.3,11.3,0.5c7.67-1.66,15.4-1.53,23.12-1.22c5.64,0.22,11.26,1.13,16.91,1.32
	c5.56,0.19,10.71,1.59,15.62,4.04c6.5,3.25,13.09,6.34,19.42,9.88c5.31,2.97,10.83,5.92,15.34,9.92c6,5.32,12.88,9.3,19.21,14.08
	c3.82,2.88,7.32,6,10.11,9.8c4.21,5.73,8.06,11.71,12.18,17.51c3.81,5.35,7.9,10.5,11.63,15.91c1.93,2.81,3.69,5.84,4.89,9.01
	c1.24,3.29,1.69,6.88,2.54,10.32c0.82,3.34,1.59,6.7,2.62,9.97c1.21,3.84,2.79,7.56,4.01,11.39c1.67,5.23,3.19,10.51,4.71,15.79
	c0.89,3.08,1.74,6.18,2.49,9.3c0.8,3.36,1.3,6.81,2.26,10.12c0.53,1.82,1.38,3.84,2.73,5.05c1.83,1.64,2.7,3.62,3.68,5.7
	c2.63,5.59,6.21,10.47,11,14.43c2.65,2.2,5.46,4.29,7.74,6.84c2.57,2.88,5.39,4.75,9.24,5.51c8.44,1.66,15.7-0.29,21.83-6.29
	c3.15-3.08,3.32-3.97,1.48-8.22c-2.61-6.03-3.84-12.28-3.24-18.83c0.48-5.15,0.86-10.32,1.74-15.41c0.74-4.28,1.89-8.53,3.27-12.66
	c1.74-5.21,3.95-10.27,5.85-15.43c2.22-6.05,3.94-12.28,7.34-17.85c3.27-5.37,6.22-10.91,8.39-16.83c3.24-8.85,6.46-17.7,9.68-26.56
	c2.28-6.27,4.26-12.68,6.9-18.8c3.12-7.25,5.92-14.67,10.05-21.48c3.26-5.37,5.63-11.32,9.83-16.05c4.44-5,9.09-9.87,14.77-13.51
	c5.32-3.4,10.98-6.29,16.14-9.91c5.36-3.76,11.16-6.37,17.26-8.48c4.14-1.43,8.29-2.86,12.47-4.18c6.15-1.93,12.4-3.56,18.48-5.68
	c6.42-2.23,12.74-4.78,19.01-7.4c3.21-1.34,6.04-0.82,8.96,0.64c2.89,1.45,5.83,2.81,8.78,4.14c0.51,0.23,1.19,0.11,1.98,0.17
	c-1.96-6.35-3.71-12.4-5.75-18.36c-0.78-2.3-1.69-4.42-1.29-6.95c0.19-1.2-0.13-2.56-0.5-3.75c-2.13-6.89-4.66-13.67-6.44-20.65
	c-1.52-5.96-4.01-11.45-6.5-17c-2.63-5.87-5.06-11.82-7.76-17.66c-1.53-3.31-3-6.62-5.06-9.73c-2.41-3.65-4.73-7.46-5.28-12.2
	c-0.52-4.5-1.72-9.13-3.68-13.19c-1.54-3.19-2.91-6.14-2.72-9.69c0.02-0.33-0.12-0.68-0.2-1.01c-1.24-4.77-2.47-9.55-3.73-14.32
	c-0.41-1.54-0.87-3.07-1.32-4.6c-1.23-4.17-2.3-8.4-3.76-12.49c-1.11-3.13-2.72-6.08-4.11-9.11c-1.58-3.45-3.26-6.85-4.7-10.35
	c-2.9-7.05-4.65-14.42-5.83-21.93c-0.89-5.68-1.95-11.37-2.35-17.09c-0.36-5.15-2.14-9.86-3.74-14.58c-1.61-4.75-4.2-9.17-6.43-13.7
	c-2.23-4.53-4.19-9.24-6.89-13.48c-3.7-5.8-7.98-11.22-12.01-16.8c-3.58-4.95-7.22-9.84-12-13.75c-2.05-1.67-4.11-3.33-6.05-5.13
	c-4.06-3.75-8.1-7.53-12.04-11.41c-4.76-4.68-9.51-9.38-14.07-14.25c-4.71-5.03-9.15-10.31-13.75-15.44
	c-3.31-3.68-6.68-7.32-10.06-10.93c-7.5-8.01-16.11-14.46-26.31-18.66c-2.66-1.09-5.54-1.76-8.05-3.13
	c-6.77-3.7-14.18-3.71-21.54-4.19c-6.21-0.41-12.42-0.97-18.65-1.13c-7.26-0.18-14.54-0.21-21.8,0.1c-5.75,0.25-11.48,1-17.2,1.73
	c-5.82,0.75-11.72,0.34-17.53,1.93c-3.79,1.04-6.89,2.82-9.18,5.62c-4.22,5.15-9.25,9.55-13.07,15.12
	c-3.02,4.41-7.14,8.1-10.99,11.89c-5.29,5.23-10.05,11.11-16.84,14.62c-0.3,0.15-0.51,0.46-0.77,0.67
	c-3.97,3.28-7.7,6.92-12.73,8.66c-0.75,0.26-1.45,0.71-2.12,1.16c-3.53,2.38-6.94,4.97-10.59,7.14c-4.4,2.62-7.43,6.5-10.42,10.44
	c-2.5,3.29-4.67,6.83-7.11,10.17c-1.75,2.4-3.68,4.68-5.56,6.98c-1.66,2.04-3.35,4.05-5.06,6.06c-0.44,0.52-1.09,0.88-1.48,1.43
	c-3.59,4.99-7.23,9.94-10.7,15.02c-3.44,5.03-6.78,10.13-10,15.3c-3.33,5.35-6.44,10.83-9.68,16.23c-1.05,1.76-2.33,3.39-3.28,5.19
	c-1.24,2.33-2.25,4.79-3.39,7.18c-1.99,4.14-4.2,8.18-5.99,12.4c-2.99,7.07-5.73,14.24-8.56,21.38c-1.77,4.48-3.66,8.92-5.22,13.48
	c-2.19,6.39-4.15,12.86-6.14,19.31c-1.08,3.51-1.77,7.14-3.04,10.57c-1.96,5.3-2.94,10.79-3.9,16.3c-0.6,3.4-0.81,6.91-1.78,10.2
	c-0.88,3-0.84,5.92-0.68,8.91c0.29,5.52,0.77,11.03,1,16.55c0.14,3.34-0.36,6.72-0.04,10.03c0.71,7.34,0,14.71,1.23,22.09
	c0.97,5.85,0.4,11.99,0.23,18c-0.08,2.84-0.9,5.66-1.2,8.5c-0.41,3.88-0.57,7.79-0.97,11.68c-0.62,5.94-0.9,11.97-2.19,17.77
	c-1.47,6.62-1.8,13.24-1.84,19.93c-0.02,3.29,0.26,3.41,3.5,3.64c1.53,0.11,3.37,0.42,4.46,1.35c3.91,3.32,8.4,5.15,13.3,6.27
	c1.1,0.25,2.16,0.8,3.14,1.38c1.71,1.02,1.68,2.69,1.18,4.3c-0.46,1.5-1.35,2.83-3.18,2.65c-2.17-0.21-4.32-0.63-6.47-1
	C151.06,491.17,149.06,490.75,147.05,490.37z M82.62,466.46c-0.21-0.96-0.19-1.98-0.65-2.68c-0.43-0.65-1.7-1.51-2.04-1.31
	c-2.93,1.72-5.82,0.84-8.89,0.59c-3.02-0.25-6.14,0.69-9.2,1.21c-0.63,0.11-1.19,0.65-1.79,0.98c-3.01,1.7-5.87,3.75-9.06,4.99
	c-3.16,1.24-5.32,3.41-7.51,5.74c-1.33,1.41-1.99,3-2.23,4.92c-0.79,6.51-0.36,12.81,2.59,18.79c0.36,0.72,0.86,1.48,0.89,2.23
	c0.09,2.64,1.85,4.07,3.63,5.59c3.22,2.78,6.41,5.6,9.55,8.48c3.04,2.8,5.95,5.74,9.01,8.52c2.95,2.68,6.57,3.99,10.5,3.66
	c3.55-0.3,7.06-1.13,10.56-1.85c1.46-0.3,2.93-0.78,4.26-1.45c4.1-2.07,8.06-4.44,12.24-6.35c2.47-1.13,5.2-1.73,7.88-2.3
	c1.56-0.33,3.25,0.04,4.84-0.22c5.07-0.83,8.88,0.75,12.6,4.49c2.59,2.6,4.28,5.38,5.13,8.63c1.45,5.56,2.58,11.1,5.48,16.25
	c2.97,5.25,5.14,10.97,7.56,16.52c0.58,1.34,1.02,2.83,1.12,4.28c0.51,8.16,3.21,15.76,5.95,23.33c1.68,4.64,3.65,9.06,3.71,14.21
	c0.05,4.09,1.26,8.16,0.67,12.34c-0.09,0.66,0.18,1.37,0.29,2.05c0.61,3.9,2.07,7.49,3.9,10.98c0.84,1.61,1.45,3.37,1.94,5.13
	c0.62,2.2,0.94,4.48,1.54,6.68c0.99,3.65,2.08,7.28,3.17,10.91c0.75,2.5,1.51,5.01,2.39,7.47c1,2.81,1.87,5.71,3.25,8.33
	c2.5,4.77,5.32,9.38,8.04,14.03c5.29,9.04,11.97,16.83,20.38,23.16c7.27,5.48,14.52,11.01,21.45,16.9c4,3.41,8.33,6.08,13.02,8.28
	c2.19,1.03,4.47,1.87,6.72,2.77c4.93,1.98,9.89,3.84,15.37,3.37c1.37-0.12,2.78-0.03,4.16,0.09c5.15,0.47,10.35,0.3,15.37,2.08
	c2.91,1.03,6.06,1.39,9.12,1.97c6.56,1.24,13.15,2.37,19.69,3.68c3.38,0.68,6.68,1.8,10.06,2.46c8.16,1.6,16.23,3.42,24.06,6.35
	c5.17,1.93,10.53,3.47,15.93,4.6c4.72,0.98,9.61,1.12,14.41,1.69c1.6,0.19,3.2,0.46,4.77,0.8c3.82,0.82,7.64,1.67,11.45,2.57
	c5.71,1.35,11.5,2.48,17.1,4.21c7.66,2.36,15.41,3.92,23.41,4.35c4.26,0.23,8.53,0.63,12.76,1.19c5.95,0.78,11.85,1.89,17.8,2.64
	c3.31,0.42,6.78,0.83,9.92-0.67c3.32-1.58,6.79-3.14,9.6-5.44c7.26-5.95,15.65-10.08,23.34-15.33c3.24-2.21,6.56-4.29,9.74-6.58
	c4.85-3.49,8.81-8,13.6-11.63c6.58-4.99,12.56-10.78,18.78-16.24c6.25-5.49,12.87-10.47,20.08-14.67
	c5.29-3.08,10.32-6.57,14.46-11.15c3.77-4.18,7.35-8.54,11.02-12.81c2.18-2.53,4.37-5.05,6.54-7.59c1.21-1.41,2.68-2.94,2.23-4.86
	c-0.45-1.92,0.28-3.01,1.41-4.28c1.59-1.78,1.34-3.2-0.61-4.61c-0.46-0.33-1.08-0.43-1.55-0.75c-1.24-0.82-1.37-2.33-0.37-2.89
	c1.72-0.96,1.92-2.85,3.14-3.96c2.64-2.38,1.04-5.32,1.21-8c0.09-1.3-0.51-2.64-0.74-3.97c-0.14-0.79,0.1-1.8-0.3-2.36
	c-1.23-1.73-1.57-3.26-0.03-4.98c0.25-0.27,0.13-1.23-0.16-1.52c-0.29-0.28-1.11-0.32-1.53-0.12c-1.07,0.51-1.9,1.73-3.38,1.02
	c-0.3-2.13,1.24-3.03,2.51-3.87c2.89-1.9,3.87-4.34,3.02-7.7c-0.36-1.41-0.52-3.04,0.93-4.15c1.42-1.1,1.76-2.56,1.7-4.29
	c-0.04-1.01,0.36-2.02,0.52-3.04c0.4-2.6,1.28-5.24,1.04-7.78c-0.51-5.42,1.03-10.54,1.71-15.76c0.61-4.66,2.34-9.14,2.28-13.95
	c-0.01-1.1,0.6-2.2,0.76-3.32c0.2-1.34,0.81-3.39,0.21-3.91c-1.29-1.1-0.72-1.81-0.4-2.87c0.39-1.3,0.62-2.65,0.87-3.99
	c0.17-0.9,0.04-1.9,0.41-2.7c1.54-3.32,0.68-6.8,0.8-10.21c0.02-0.49-0.41-1.05-0.74-1.5c-2.21-2.93-4.44-5.85-6.67-8.77
	c-1.13-1.48-1.34-3.7-0.46-4.82c1.07-1.36,3.58-1.64,5.36-0.49c1.16,0.75,2.34,1.53,3.3,2.5c2.02,2.04,4.27,4.03,4.92,6.96
	c0.7,3.16,2.43,5.71,4.29,8.19c1.4,1.87,2.52,1.82,4.2,0.06c0.55-0.58,1-1.25,1.48-1.89c2.23-2.94,4.33-5.98,6.7-8.8
	c4.14-4.93,7.94-9.9,10.24-16.15c2.08-5.64,2.6-11.42,3.4-17.17c0.6-4.32,0.21-8.77,0.3-13.16c0.07-3.44,0.46-6.84-0.03-10.33
	c-0.38-2.68-0.05-5.43,1.08-8.13c2.08-4.93,3.78-10.02,5.59-15.06c0.58-1.61,1.2-3.25,1.42-4.93c0.69-5.23,1.22-10.49,1.78-15.74
	c0.13-1.25-0.02-2.54,0.19-3.78c0.71-4.19,1.5-8.37,2.31-12.55c0.78-4.05,1.58-8.09,2.43-12.12c0.33-1.58-0.6-2.22-1.83-2.32
	c-1.36-0.11-2.77,0.06-4.13,0.27c-5.37,0.8-9.54,3.93-13.61,7.19c-4.95,3.97-9.71,8.17-14.79,11.95c-2.3,1.72-3.41,3.69-3.4,6.38
	c0.01,6.68-0.58,13.36,0.58,20.02c0.62,3.52,2.35,5.87,5.84,6.84c0.67,0.19,1.36,0.32,1.99,0.58c3.59,1.49,4.44,3.71,2.39,7.08
	c-1.79,2.93-3.77,5.76-5.91,8.44c-3.41,4.28-6.39,8.9-10.55,12.62c-2.33,2.08-4.49,4.58-5.52,7.75c-1.65,5.07-4.82,8.98-8.68,12.65
	c-4.72,4.48-10.75,6.54-16.07,9.88c-2.72,1.7-5.58,3.22-8.13,5.15c-4.78,3.61-9.55,7.28-14.03,11.25
	c-4.73,4.19-9.19,8.67-13.61,13.18c-2.08,2.13-3.64,4.76-5.7,6.91c-7.17,7.48-15.5,13.38-24.77,18c-5.15,2.57-10.09,5.39-14.23,9.56
	c-2.99,3-6.24,5.92-9.83,8.11c-2.6,1.58-4.08,3.87-6.21,5.89c3.88,1.33,5.78,4.2,6.98,7.58c1.5,4.23,2.72,8.56,4.23,12.78
	c0.55,1.52,0.89,2.9,0.95,4.58c0.18,4.69,0.98,9.35,1.4,14.03c0.14,1.58,0.02,3.22-0.27,4.78c-0.36,1.92-1.16,3.76-1.52,5.69
	c-0.38,2.06-1.49,3.3-3.39,3.96c-4.25,1.48-8.48,3-12.76,4.4c-1.93,0.63-3.42,0.03-4.81-1.67c-3.7-4.51-5.02-9.67-5.01-15.36
	c0.01-9.58,0.01-19.16-0.16-28.73c-0.07-3.86,1.21-6.88,4.03-9.47c2.46-2.26,4.66-4.8,7.03-7.16c2.03-2.03,3.94-4.27,6.25-5.94
	c6.27-4.54,12.04-9.63,17.57-15.03c1.61-1.57,3.42-2.58,5.77-2.82c1.66-0.18,3.32-0.85,4.86-1.57c1.78-0.82,3.38-2,5.12-2.9
	c6-3.12,10.99-7.56,15.63-12.34c4.64-4.77,8.64-10.17,13.35-14.86c8.17-8.13,17.14-15.37,26.32-22.34c0.53-0.4,1.19-0.72,1.83-0.88
	c7.69-1.99,14.43-5.74,19.44-11.9c2.18-2.69,3.79-6.09,4.76-9.44c0.76-2.6,1.62-4.67,3.87-6.18c0.95-0.63,1.8-1.46,2.56-2.32
	c3.2-3.62,6.48-7.18,9.46-10.98c1.72-2.2,2.91-4.8,4.65-7.75c-2.19-0.67-3.91-1.17-5.61-1.73c-2.61-0.85-5.32-1.51-7.78-2.67
	c-3.44-1.62-6.71-3.6-10.02-5.47c-4.07-2.3-8.24-2.75-12.64-1c-4.18,1.66-8.35,3.4-12.63,4.77c-6.58,2.1-13.26,3.88-19.88,5.87
	c-3.85,1.16-7.72,2.33-11.47,3.77c-3.75,1.44-7.51,2.97-11.01,4.91c-5.24,2.9-10.38,6.02-15.32,9.4c-4.18,2.85-7.83,6.5-12.07,9.25
	c-6.92,4.47-11.66,10.72-15.58,17.7c-2.39,4.26-4.44,8.71-6.54,13.13c-2.32,4.89-4.72,9.75-6.71,14.77
	c-3.59,9.07-6.74,18.32-10.37,27.37c-1.96,4.88-2.14,10.37-5.18,14.86c-0.12,0.18-0.11,0.45-0.17,0.67
	c-1.69,5.64-4.17,10.94-7.17,15.98c-2.88,4.84-5.48,9.73-7.13,15.18c-1.88,6.24-4.31,12.31-6.51,18.46
	c-0.93,2.59-2.12,5.12-2.76,7.78c-0.91,3.8-1.54,7.67-2.07,11.55c-0.54,3.99-1.06,8.02-1.13,12.04c-0.05,3.42-0.1,6.93,1.5,10.19
	c0.96,1.95,1.8,3.98,2.48,6.04c0.65,1.98,1.01,4.06-0.19,6.03c-3.75,6.17-9.51,9.8-15.82,12.89c-3.7,1.81-7.44,1.04-11.21,1.02
	c-6.06-0.03-10.83-2.49-14.7-7.14c-1.9-2.29-4.06-4.47-6.47-6.21c-4.94-3.56-8.53-8.28-12.04-13.08c-1.93-2.64-3.56-5.5-5.73-8.89
	c-0.67,1.41-1.3,2.14-1.34,2.91c-0.29,5.47-2.1,10.53-4.25,15.46c-1.37,3.15-2.96,6.22-4.59,9.26c-0.85,1.58-2.26,2.91-4.14,2.6
	c-1.62-0.27-3.42-0.9-4.63-1.96c-4.04-3.55-5.8-8.52-7.32-13.47c-0.75-2.45-0.86-5.14-0.96-7.73c-0.09-2.24,0.34-4.49,0.35-6.74
	c0-0.65-0.66-1.31-1.09-2.08c-1.94,1.8-0.82,5.01-3.84,6.45c0.53-3.49-1.4-5.21-3.57-6.82c-0.51-0.38-1.19-1.1-1.13-1.57
	c0.49-3.82-0.8-7.82,1.59-11.46c1.9-2.9,1.56-4.04-0.79-6.7c-0.59-0.67-1.28-1.39-1.5-2.21c-0.45-1.6,0.09-2.93,1.69-3.73
	c1.6-0.8,3.6-0.6,4.55,1.11c1.19,2.13,2.32,1.53,3.95,0.76c1.41-0.66,3.01-1.09,4.56-1.21c3.65-0.27,7.05,0.92,10.41,2.2
	c1.44,0.54,2.95,0.89,5.03,1.5c-0.25-1.92-0.24-3.18-0.59-4.33c-1.17-3.84-2.37-7.67-3.72-11.45c-1.54-4.32-3.26-8.57-4.9-12.86
	c-0.2-0.54-0.42-1.08-0.54-1.63c-0.97-4.72-1.88-9.45-2.9-14.16c-0.83-3.83-1.63-7.71-4.09-10.92c-4.9-6.39-8.66-13.62-14.38-19.39
	c-0.4-0.4-0.74-0.9-0.98-1.41c-1.8-3.87-3.9-7.5-6.89-10.64c-1.96-2.06-3.49-4.51-5.32-6.7c-5.1-6.11-11.87-10.18-18.29-14.67
	c-2.16-1.51-4.65-2.69-6.47-4.54c-4.54-4.61-10.16-7.6-15.62-10.76c-6.26-3.63-12.89-6.61-19.32-9.96c-3.11-1.62-6.37-2.6-9.86-2.88
	c-6.21-0.49-12.43-0.86-18.61-1.55c-7.87-0.88-15.67-0.75-23.46,0.67c-4.81,0.88-9.52,0.82-14.37-0.47
	c-5.12-1.37-10.5-1.71-15.82-1.13c-4.8,0.53-9.61,1.15-14.35,2.06c-7.76,1.49-15.55,1.89-23.44,1.92c-3.44,0.01-5.72-1.34-7.7-3.74
	c-0.72-0.88-1.21-1.95-1.87-2.89c-2.23-3.15-4.71-5.64-8.86-6.57c-5.39-1.21-10.95-2.15-15.83-5.07c-0.15-0.09-0.44,0.05-0.67,0.08
	c-0.45,0.6-0.9,1.19-1.35,1.78c-0.21-0.06-0.43-0.12-0.64-0.18c0.21-1.47,0.43-2.93,0.66-4.57c-1.28-0.88-2.33-0.37-3.48,0.69
	c-0.48,0.45-1.4,0.43-2.12,0.62c-0.06-0.82-0.23-1.65-0.16-2.46c0.05-0.54,0.6-1.05,0.6-1.58c0-0.48-0.32-1.19-0.7-1.39
	c-0.36-0.18-1.08,0.07-1.48,0.36c-0.33,0.23-0.31,0.94-0.63,1.19c-1.59,1.21-2.35,3.57-4.94,3.81c0.82-2.15,1.54-4.01,2.25-5.88
	c-0.18-0.16-0.36-0.31-0.54-0.47c-1.87,1.46-3.73,2.92-5.94,4.65c-0.11-3.15,2.88-5.14,2-7.99c-2.97-0.3-3.83,2.69-6.48,3.87
	c0.38-1.24,0.64-1.94,0.81-2.65c0.19-0.8,0.31-1.61,0.51-2.75c-4.11,0.79-6.05,4.12-9.58,6.04c1.16-2.26,2.17-3.79,2.74-5.47
	c0.56-1.65,0.68-3.45,0.99-5.18C85.5,463.95,84.38,466.15,82.62,466.46z M360.83,649.59c-0.36-0.07-0.73-0.13-1.09-0.2
	c-0.37,0.73-1.01,1.44-1.06,2.19c-0.13,2.07-0.37,4.23,0.07,6.22c0.96,4.3,1,8.64,1.05,12.96c0.04,3.59,0.75,6.8,2.72,9.83
	c1.65,2.53,2.85,2.87,4.52,0.32c1.61-2.47,2.89-5.24,3.76-8.05c0.49-1.58,2.31-3.14,0.88-5.24c-0.65-0.06-1.32-0.15-2-0.17
	c-4.26-0.09-6.46-2.66-5.88-6.94C364.35,656.4,362.37,653.06,360.83,649.59z M486.28,623.47c-0.26,0.15-0.42,0.19-0.44,0.26
	c-1.36,5.73-0.44,11.42,0.61,17.04c0.22,1.16,1.79,2.57,3.01,2.95c3.04,0.94,6.1-0.36,8.59-1.78c1.57-0.9,2.54-3.47,3.06-5.47
	c1.09-4.12,0.06-11.58-1.75-16.09c-1.03,2.33-1.47,4.55-0.97,7.09c0.72,3.64-0.31,7.11-2.22,10.21c-1.14,1.85-2.84,2.27-4.45,1.53
	c-1.74-0.79-2.16-2.29-2-4.02c0.13-1.37,0.26-2.76,0.56-4.1C491.14,627.31,489.15,625.16,486.28,623.47z M369.42,640.62
	c-1.8-0.29-3.39-0.55-5.35-0.87c0.25,3.33,1.26,5.59,3.38,7.45C369.58,645.48,369.7,643.39,369.42,640.62z"/>
<path d="M363.36,418.41c1.7-0.1,2.59,0.91,3.08,2.53c0.52,1.72,1.11,3.42,1.71,5.11c0.79,2.24-0.31,3.62-2.67,3.35
	c-3.54-0.41-5.18-2.1-5.61-5.75c-0.04-0.34-0.08-0.69-0.13-1.03C359.26,419.58,360.29,418.35,363.36,418.41z"/>
<path d="M348.9,326.75c3.22-2.34,4.46-2.33,5.99-0.04c0.33,0.49,0.58,1.37,0.36,1.81c-0.24,0.49-1.08,0.97-1.64,0.96
	C351.69,329.44,350.05,328.73,348.9,326.75z"/>
<path d="M434.2,742.43c-6.55,0-13.1-0.02-19.65,0.01c-2.75,0.01-4.27-0.75-4.77-2.5c-0.51-1.81,0.05-2.99,1.74-4
	c2.22-1.32,4.65-1.1,7.06-1.06c4.94,0.07,9.87,0.18,14.81,0.16c0.97,0,2.03-0.36,2.87-0.86c1.17-0.68,2.15-2.13,3.64-1.37
	c1.69,0.86,3.39,1.92,4.66,3.29c0.99,1.06,2.18,2.59,0.89,4.33c-1.28,1.72-2.91,2.42-5.12,2.02c-2-0.37-4.06-0.41-6.1-0.6
	C434.23,742.04,434.21,742.24,434.2,742.43z"/>
</svg>
