<?xml version="1.0" encoding="utf-8"?>
<!-- Generator: Adobe Illustrator 24.1.0, SVG Export Plug-In . SVG Version: 6.00 Build 0)  -->
<svg version="1.1" id="Layer_1" xmlns="http://www.w3.org/2000/svg" xmlns:xlink="http://www.w3.org/1999/xlink" x="0px" y="0px"
	 viewBox="0 0 1224 792" style="enable-background:new 0 0 1224 792;" xml:space="preserve">
<path d="M451.29,209.07c-4.25,1.32-8.28,6.12-8.51,9.59c-0.19,3.01-3.25,6.82-6.06,7.25c-0.83,0.13-1.86-0.32-2.64-0.77
	c-2.41-1.37-3.78-1.21-5.66,0.87c-0.89,0.99-1.78,1.98-2.7,2.95c-0.13,0.14-0.41,0.13-0.9,0.26c1.23-4,3.04-7.24,7.1-8.69
	c2.81-1,4.77-3.15,5.96-5.63c1.13-2.37,3.01-3.72,4.82-5.3c2.8-2.44,6.3-4.12,7.9-7.85c0.32-0.75,1.77-1.51,2.61-1.42
	c0.8,0.09,1.93,1.15,2.15,1.99c0.78,2.91,1.77,5.84,0.84,8.95c-0.24,0.79-0.38,1.75-0.18,2.52c1.53,5.86-0.48,11.29-1.97,16.78
	c-2.43,8.96-3.41,18.09-3.82,27.34c-0.16,3.57-1.72,7.08-1.91,10.66c-0.41,8-3.72,15.74-2.42,23.82
	c2.31,14.25,1.33,28.63,1.82,42.93c0.53,15.53-0.38,31.1-0.64,46.66c-0.05,3.14-0.01,6.28-0.01,9.89c1.19-0.61,1.92-0.93,2.6-1.35
	c2.47-1.52,4.9-3.12,7.4-4.58c1.79-1.05,2.66-2.15,2.69-4.56c0.16-9.93,0.24-19.92,1.34-29.77c0.88-7.91,2.57-15.86,5.02-23.43
	c2.76-8.51,6.82-16.6,10.2-24.91c1-2.46,1.48-5.13,2.43-7.61c2.13-5.55,4.49-11.01,6.6-16.57c1.28-3.39,2.47-6.84,3.33-10.35
	c1.33-5.41,2.47-10.88,3.42-16.38c0.38-2.19,0.06-4.51-0.54-6.98c-1.61,3.17-3.44,6.26-4.79,9.54c-2.03,4.92-3.91,9.92-5.5,15
	c-1.41,4.49-2.26,9.15-3.5,13.7c-1.46,5.37-2.94,10.75-4.65,16.05c-2.19,6.81-4.73,13.5-6.89,20.31c-2.78,8.76-5.4,17.58-7.94,26.41
	c-1.17,4.08-1.97,8.26-3.02,12.38c-0.83,3.27-1.96,4.35-3.81,3.86c-2.01-0.53-2.35-2.21-1.38-5.54c1.57-5.45,2.92-10.97,4.55-16.41
	c2.04-6.84,4.26-13.63,6.42-20.44c4.11-12.95,8.45-25.82,12.28-38.85c4.17-14.2,8.3-28.32,15.45-41.46
	c4.81-8.85,8.08-18.38,9.41-28.56c0.94-7.19,2.68-14.3,4.49-21.33c0.93-3.59,2.39-7.19,4.31-10.36c6.16-10.14,12.66-20.07,19-30.1
	c2.59-4.1,5.09-8.25,7.64-12.37c0.58-0.93,1.06-1.96,1.81-2.72c5.98-6.04,10.05-13.69,16.52-19.32c1.7-1.48,2.92-3.53,4.22-5.42
	c3.71-5.36,8.5-9.69,13.7-13.45c4.1-2.97,8.83-5.06,13.16-7.73c2.98-1.84,5.71-4.08,8.65-6c2.01-1.32,4.17-2.41,6.3-3.56
	c2.77-1.5,5.46-3.22,8.37-4.35c3.71-1.45,7.54-3.04,11.44-3.46c13.16-1.44,26.37-2.5,39.56-0.02c0.36,0.07,0.73,0.15,1.08,0.13
	c7.42-0.5,14.45,1.38,21.47,3.45c1.72,0.51,3.6,0.48,5.35,0.9c9.88,2.35,18.5,7.48,26.55,13.28c5.75,4.14,10.44,9.74,15.62,14.67
	c5.53,5.25,11.08,10.49,16.64,15.71c6.41,6.01,13.62,10.88,21.49,14.76c6.12,3.02,10.52,8.12,15.41,12.63
	c1.34,1.24,2.62,2.54,3.89,3.84c5.08,5.22,8.61,11.29,10.57,18.34c1.32,4.75,1.61,9.39,1.04,14.32c-0.56,4.88-0.59,9.85,1.88,14.59
	c1.59,3.06,2.14,6.65,3.31,9.95c1.78,5.03,4.18,9.9,5.4,15.05c0.88,3.69,2.38,7.06,3.45,10.6c0.82,2.71,1.04,5.68,1.06,8.54
	c0.03,6.53-0.2,13.06-0.37,19.59c-0.05,1.94-0.15,3.89-0.36,5.81c-0.49,4.34-1.25,8.67-0.3,13.05c0.2,0.93,0.28,1.98,0.07,2.91
	c-1.78,8,0.01,16,0.12,23.99c0.07,4.74,0.21,9.44-0.35,14.13c-0.83,7.08-1.77,14.15-2.66,21.22c-0.08,0.6-0.19,1.22-0.13,1.82
	c0.46,4.79-0.89,9.32-1.8,13.94c-1.5,7.61-2.02,15.28-1.18,23.04c0.2,1.88,0.01,3.97-0.62,5.74c-1.98,5.61-2.13,11.36-2.31,17.21
	c-0.21,6.66-1.01,13.31-1.52,19.96c-0.18,2.3-0.38,4.61-0.38,6.91c0,1.94,0.7,3.34,2.92,3.99c6.18,1.81,12.26,3.93,18.41,5.85
	c3.35,1.05,6.76,1.93,10.12,2.92c0.4,0.12,0.73,0.5,1.85,1.3c-2.12,0.57-3.57,1.34-4.96,1.25c-2.39-0.15-4.78-0.73-7.13-1.3
	c-5.06-1.23-10.07-2.7-15.16-3.81c-2.1-0.45-4.34-0.24-6.52-0.29c-2.14-0.04-3.05,1.18-3.13,3.19c-0.05,1.09-0.02,2.2-0.14,3.28
	c-0.21,1.84,0.77,2.79,2.17,3.81c2.83,2.06,5.47,4.37,8.16,6.62c0.45,0.37,1.01,0.96,1.01,1.44c0,0.9-0.14,2-0.68,2.62
	c-0.33,0.38-1.66,0.29-2.28-0.05c-1.26-0.7-2.38-1.68-3.5-2.61c-1.69-1.4-3.5-2.15-5.86-1.4c-1.15,3.41-0.7,6.4,2.46,8.6
	c3.45,2.4,6.09,5.37,7.95,9.24c1.69,3.52,4.64,6.15,8.17,8.46c0.53-0.61,0.9-1.2,1.43-1.61c1.95-1.51,4.33-0.77,4.18,1.58
	c-0.31,4.88,2.16,8.63,4.32,12.51c3.24,5.84,3.13,11.88,1.41,18.01c-0.6,2.15-1.23,4.13-0.51,6.38c0.43,1.34,0.31,2.8-1.33,3.32
	c-1.73,0.55-2.89-0.51-3.42-1.97c-1.3-3.62-3.2-7.03-2.73-11.19c0.28-2.48-0.28-5.09-0.67-7.6c-0.1-0.65-0.86-1.4-1.51-1.69
	c-0.29-0.13-1.28,0.62-1.54,1.16c-3.57,7.51-9.34,13.54-13.85,20.42c-0.91,1.39-2.63,2.6-4.22,3.13c-2.58,0.84-3.98-0.52-3.67-3.23
	c0.29-2.53,0.81-5.03,1.24-7.54c1.62-9.3-1.09-17.52-6.23-25.14c-0.12-0.18-0.4-0.25-0.9-0.54c-0.39,0.66-0.92,1.28-1.14,1.99
	c-1.1,3.46-1.78,7.1-3.27,10.38c-1.58,3.49-3.68,6.81-5.96,9.91c-2.13,2.89-3.75,5.89-4.71,9.34c-1.89,6.77-4.38,13.4-5.75,20.26
	c-1.51,7.56-4.14,14.66-7.01,21.71c-1.45,3.57-3.47,6.92-4.84,10.52c-1.45,3.81-2.29,7.86-3.66,11.71c-1.12,3.16-2.46,6.27-4,9.25
	c-1.61,3.13-3.61,6.05-5.35,9.11c-3.48,6.1-6.84,12.27-10.36,18.34c-2.91,5.03-6.02,9.93-8.94,14.95c-1.58,2.72-2.71,5.74-4.47,8.32
	c-4.5,6.6-9.21,13.07-13.92,19.52c-2.06,2.83-4.36,5.49-6.51,8.26c-0.33,0.42-0.41,1.03-0.9,2.3c3.12-1.77,5.51-3.29,8.04-4.53
	c7.29-3.57,14.65-6.99,21.95-10.53c1.95-0.95,3.83-2.07,5.69-3.19c2.1-1.26,4.27-1.18,5.21,0.3c1.05,1.65-0.06,4.43-2.24,5.41
	c-6.99,3.15-13.35,7.29-19.33,12.08c-6.9,5.53-14.03,10.78-20.88,16.38c-6.28,5.13-13.38,8.9-20.24,13.1
	c-3.13,1.91-5.59,4.94-8.29,7.53c-2.44,2.34-4.89,4.7-7.17,7.2c-1.87,2.04-3.58,4.24-5.2,6.48c-1.56,2.15-2.7,4.61-5.63,5.38
	c-0.85,0.23-1.48,1.23-2.28,1.77c-1.44,0.97-1.89,2-0.88,3.65c0.61,0.99,0.97,2.28,1,3.44c0.03,0.96-0.33,2.36-1.01,2.79
	c-0.71,0.46-2.18,0.31-3.01-0.14c-1.13-0.61-2.09-1.66-2.92-2.69c-1.26-1.56-2.59-1.66-4.09-0.54c-3.28,2.46-6.69,4.71-8.7,8.56
	c-0.51,0.98-2.43,1.91-3.56,1.77c-9.86-1.29-20.01-0.23-29.64-3.13c-10.95-3.29-20.8-8.51-28.36-17.48
	c-2.17-2.57-5.02-4.33-8.09-5.97c-4.07-2.19-7.85-5.2-11.15-8.47c-4.98-4.93-9.44-10.39-14.09-15.65c-0.46-0.52-0.75-1.21-1.09-1.84
	c-3.17-5.97-6.17-12.05-9.56-17.9c-3.7-6.4-7.78-12.58-11.67-18.88c-2.67-4.33-5.34-8.67-7.91-13.07c-0.73-1.24-1.15-2.67-1.66-4.03
	c-1.54-4.07-3.21-8.11-4.54-12.24c-2.2-6.81-4.29-13.65-6.22-20.54c-1.46-5.24-2.61-10.56-3.87-15.86
	c-0.28-1.18-0.55-2.38-0.65-3.58c-1.23-14.04-3.46-27.92-6.37-41.71c-0.92-4.38-1.15-8.9-1.69-13.36c-0.5-4.09-1.11-8.17-1.48-12.27
	c-0.44-4.96-1-9.94-0.92-14.91c0.09-6.06,0.83-12.12,1.2-18.18c0.24-3.98,0.53-7.96,0.44-11.94c-0.14-6.06-0.67-12.11-0.86-18.17
	c-0.06-2.03-0.52-3.6-1.87-5.26c-2.59-3.19-4.74-6.74-7.13-10.1c-1.53-2.15-3.87-4-4.64-6.37c-1.82-5.62-5.53-9.86-8.86-14.46
	c-2.33-3.22-4.2-6.78-6.16-10.25c-0.39-0.68-0.2-1.66-0.38-2.48c-0.72-3.28-1.19-6.67-2.33-9.8c-0.68-1.88-0.77-3.39-0.19-5.22
	c0.51-1.59,0.87-3.3,0.88-4.96c0.08-15.93,0.08-31.86,0.1-47.78c0.02-13.01,0.12-26.02,0.03-39.03c-0.02-3.63-0.77-7.26-0.86-10.89
	c-0.1-4.34,0.11-8.69,0.27-13.03c0.08-1.94,0.41-3.86,0.58-5.8c1.02-11.48,1.97-22.96,3.07-34.43c0.29-3.01,0.96-5.99,1.55-8.97
	c0.16-0.8,0.5-1.7,1.06-2.26c3.59-3.66,3.69-8.23,3.51-12.89C451.67,214.67,451.47,212.03,451.29,209.07z M578.99,462.91
	c-0.42,1.69-0.97,2.83-0.95,3.96c0.16,7.43-2.26,14.38-4.09,21.39c-1.14,4.38-1.4,8.57-0.58,12.95c0.24,1.27,0.28,2.69-0.01,3.94
	c-1.13,4.96-2.42,9.88-3.65,14.82c-1.26,5.02-2.15,10.14-4.38,14.88c-0.44,0.93-0.7,2.24-0.4,3.17c1.15,3.58,0.86,7.17,0.65,10.81
	c-0.06,1.06,0.05,2.25,0.5,3.19c0.82,1.73,0.55,3.21-0.16,4.88c-2.69,6.36-4.3,12.77-2.37,19.8c1.69,6.17,2.59,12.56,4.14,18.78
	c1.18,4.72,4.46,5.34,8.03,1.9c4.19-4.03,8.23-8.27,12.75-11.9c7.3-5.86,12.86-13.16,18.17-20.7c3.06-4.34,6.44-8.57,8.78-13.29
	c3.15-6.39,5.86-13.07,7.95-19.87c1.51-4.92,2.09-10.22,2.4-15.4c0.3-5.06-0.25-10.17-0.48-15.25c-0.05-1.08-0.34-2.14-0.53-3.21
	c-0.35-2.01-0.86-4-1.03-6.02c-0.21-2.42-0.11-4.86-0.19-7.29c-0.34-10.42,1.61-20.59,3.87-30.65c1.19-5.29,1.63-10.54,1.82-15.87
	c0.04-0.98-0.58-2.04-1.06-2.98c-1.22-2.38-0.8-4.14,1.57-5.46c1.03-0.57,2.2-0.9,3.31-1.34c-1.34-2.92-1.45-3,0.24-5.3
	c1.92-2.6,3.79-5.34,6.18-7.47c2.07-1.85,4.6-3.97,7.77-2.94c5.96,1.94,10.72-2.36,16.2-2.78c0.31-0.02,0.61-0.38,0.88-0.62
	c1.22-1.11,2.43-2.23,4.28-3.93c-2.82,0.57-4.95,0.91-7.03,1.43c-3.75,0.94-7.45,2.12-11.23,2.94c-4.5,0.98-9.08,1.54-13.58,2.53
	c-3.91,0.86-7.84,1.8-11.58,3.2c-2.77,1.04-5.46,1.07-8.23,0.76c-1.54-0.18-3.23-0.57-3.36-2.68c-0.12-2,1.34-2.68,2.83-3.32
	c3.68-1.58,7.36-3.16,11.02-4.76c2.89-1.27,5.75-2.58,8.62-3.88c7.22-3.28,14.87-5.18,22.48-7.3c8.62-2.4,17.29-3.59,26.21-3.65
	c7.29-0.05,14.21,2.09,21.01,4.01c4.69,1.32,8.92,1.33,13.51,0.77c8.09-0.98,16.22-1.75,24.29,0.29c3.64,0.92,7.4,1.53,10.9,2.84
	c6.01,2.24,12.46,4.04,17.62,7.63c5.87,4.08,10.98,9.49,14.02,16.39c1.38,3.12,3.88,5.38,7.19,7.54c0.92-4.43,1.51-8.49,1-12.58
	c-0.45-3.6,0.16-6.98,1.05-10.42c1.3-5.05,2.55-10.07,1.68-15.43c-0.66-4.06-0.8-8.23-0.94-12.35c-0.07-2.02,0.36-4.07,0.59-6.1
	c0.73-6.25,1.5-12.49,2.17-18.75c0.1-0.93-0.31-1.91-0.41-2.88c-0.11-1.08-0.34-2.21-0.16-3.26c0.72-4.08-0.17-7.93-1.16-11.85
	c-0.62-2.44-0.83-5.01-1.06-7.53c-0.16-1.8-0.14-3.63-0.06-5.44c0.22-4.7-1.55-9.08-2.11-13.63c-1.05-8.66-1.85-17.36-2.26-26.07
	c-0.32-6.9-0.73-13.97,0.38-20.72c1.59-9.7,1.36-19.44,1.27-29.07c-0.08-8.46-2.81-16.88-4.31-25.34c-0.23-1.29-0.31-2.69-0.08-3.97
	c0.56-3.1,1.27-6.19,2.07-9.24c0.58-2.23,0.39-4.15-0.78-6.25c-2.81-5.06-5.32-10.28-7.92-15.45c-0.38-0.75-0.48-1.63-0.85-2.38
	c-1.91-3.9-3.5-8.02-5.88-11.61c-3.27-4.92-7.22-9.39-10.76-14.14c-4.73-6.34-10.33-11.84-16.7-16.45
	c-5.59-4.05-11.38-7.85-17.29-11.41c-4.44-2.66-9.11-5-13.87-7.03c-4.22-1.79-8.73-2.91-13.08-4.41c-7.11-2.45-14.21-4.91-21.27-7.5
	c-3.74-1.37-7.41-2.94-11.06-4.55c-2.65-1.16-5.09-2.99-7.84-3.69c-6.33-1.62-12.78-2.76-19.2-4.02c-1.42-0.28-2.91-0.22-4.36-0.33
	c-1.66-0.13-3.31-0.51-3.56-2.45c-0.14-1.08,0.06-2.98,0.64-3.22c1.16-0.48,2.73-0.24,4.07-0.01c3.32,0.58,6.6,1.36,9.92,1.98
	c1.91,0.35,3.96,0.21,5.75,0.84c7.08,2.52,14.11,5.21,21.12,7.93c9.71,3.78,19.35,7.73,29.08,11.44c5.08,1.94,10.29,3.54,15.45,5.26
	c0.41,0.14,0.91,0.02,2.02,0.02c-0.9-1.53-1.33-2.85-2.22-3.68c-5.06-4.71-9.91-9.73-15.45-13.8c-4.54-3.33-9.88-5.61-15-8.07
	c-2.48-1.19-5.25-1.79-7.93-2.5c-3.98-1.06-7.97-2.16-12.02-2.9c-3.78-0.7-7.63-0.98-11.46-1.38c-1.06-0.11-2.19,0.26-3.22,0.06
	c-8.17-1.55-16.42-1.77-24.68-1.49c-4.23,0.15-8.44,0.91-12.68,1.22c-4.94,0.36-9.55,1.54-13.77,4.24
	c-1.83,1.17-3.91,1.96-5.81,3.03c-3.47,1.95-6.96,3.88-10.33,6c-5.43,3.41-10.59,7.27-16.18,10.39c-5.56,3.1-9.28,8.04-13.66,12.31
	c-2.58,2.51-4.57,5.61-6.88,8.4c-4.71,5.68-9.8,11.08-14.11,17.04c-4.6,6.36-8.44,13.26-12.68,19.88
	c-2.42,3.78-4.85,7.55-7.47,11.19c-7.02,9.76-12.56,20.18-14.54,32.19c-0.59,3.59-1.2,7.24-1.15,10.85
	c0.07,4.41-0.33,8.62-1.73,12.81c-0.88,2.63-1.43,5.39-1.96,8.12c-2.42,12.62-3.05,25.57-6.9,37.93c-0.25,0.8-0.19,1.7-0.44,2.51
	c-1.26,4.15-2.39,8.35-3.92,12.4c-1.58,4.19-3.65,8.19-5.34,12.33c-2.29,5.61-4.23,11.36-6.66,16.9
	c-4.69,10.7-8.21,21.73-10.21,33.24c-1.97,11.32-1.58,22.76-1.69,34.17c0,0.45,0.24,0.89,0.48,1.72c1.98-0.41,3.85-0.77,5.71-1.2
	c5.08-1.17,10.13-2.52,15.24-3.5c3.8-0.73,7.73-0.78,11.54-1.48c8.32-1.52,16.17,0.07,23.9,3.01c3.22,1.22,6.47,2.34,10.43,3.78
	c-0.61-1.37-0.77-1.94-1.09-2.4c-2.72-3.87-5.53-7.68-8.17-11.6c-0.51-0.76-0.78-2.18-0.4-2.9c0.4-0.77,1.74-1.57,2.59-1.5
	c4.1,0.35,8.36,0.43,12.22,1.66c9.71,3.09,17.51,9.25,24.21,16.81c3.13,3.54,6.12,7.2,9.11,10.86c4.45,5.45,8.76,11.02,13.29,16.4
	c2.07,2.46,4.53,4.6,6.85,6.92c0.94-0.62,1.43-0.95,1.94-1.27c2.3-1.45,3.82-0.81,3.77,1.79c-0.02,1.26-0.64,2.54-1.12,3.75
	c-1.55,3.93-3.59,7.73-4.63,11.78c-1.26,4.9-2.17,9.96-1.71,15.13c0.1,1.15-0.47,2.36-0.67,3.55c-0.52,3.1-1.25,6.19-1.46,9.32
	c-0.43,6.41-0.57,12.84-0.84,19.27c-0.19,4.37-0.37,8.74-0.62,13.11c-0.14,2.36-1.55,4.01-3.14,3.7c-2.06-0.4-2.17-2.08-2.04-3.71
	c0.33-4.23,0.77-8.45,1.12-12.67c0.31-3.75,0.81-7.51,0.76-11.26C581.77,467.91,582.01,465.14,578.99,462.91z M479.55,463.92
	c-1.22,2.63-1.44,5.16-1.19,7.88c0.63,6.76,1.78,13.54,0.47,20.34c-2.05,10.63-0.95,21.34-0.72,32.02c0.11,4.96,0.9,9.9,1.42,14.84
	c0.16,1.56,0.4,3.12,0.7,4.66c0.96,5,1.99,9.99,2.94,15c0.86,4.53,1.7,9.06,2.46,13.6c0.86,5.14,1.55,10.3,2.41,15.44
	c1.02,6.08,2.03,12.17,3.25,18.21c0.62,3.08,1.65,6.08,2.61,9.08c1.79,5.64,3.6,11.27,5.54,16.86c0.83,2.38,2.54,4.56,2.9,6.97
	c0.4,2.64,1.3,4.88,2.66,7.04c4.71,7.46,8.71,15.34,13.83,22.58c4.89,6.91,9,14.36,13.44,21.58c0.31,0.51,0.73,1.06,0.79,1.62
	c0.32,3.14,2.47,5.21,4.29,7.45c2.06,2.55,4.22,5.02,6.42,7.45c3.5,3.87,7.15,7.51,11.59,10.43c4.43,2.92,8.43,6.5,12.53,9.9
	c2.8,2.32,5.17,5.25,8.19,7.17c8.74,5.56,18.38,8.62,28.79,9.07c3.15,0.14,6.3,0.57,9.44,0.58c3.67,0,7.21-0.39,9.79-3.74
	c1.19-1.55,3.11-2.57,4.79-3.7c3-2.03,5.79-4.07,5.37-8.35c-0.13-1.29,0.28-2.65,0.54-3.96c1.36-6.93,0.37-13.02-5.75-17.53
	c-0.84-0.62-1.69-2.08-1.55-3c0.64-4.31,1.54-8.6,2.52-12.85c0.71-3.07,1.98-6.02,2.5-9.11c0.84-5.04,1.16-10.07-2.45-14.5
	c-2.06-2.53-2.6-5.75-2.55-8.95c0.07-4.01,0.36-8.01,0.55-12.01c0.44-9.14,0.79-18.35-3.25-26.87c-3.37-7.12-2.68-14.09-0.72-21.31
	c1.33-4.91,2.26-9.92,3.31-14.9c1.42-6.73-1.23-13.88,2.1-20.42c0.1-0.19,0.02-0.48,0.01-0.72c-0.11-3.52-0.13-7.06-0.37-10.57
	c-0.12-1.74-0.66-3.45-1.01-5.18c-2.07,2.43-2.81,4.98-2.87,7.83c-0.12,5.36-0.67,10.7-2.85,15.67c-0.91,2.08-2.64,3.79-3.57,5.86
	c-3.8,8.44-10.16,13.5-19.1,15.87c-3.09,0.82-6.43,2.03-7.57,6.03c-0.44,1.56-2.27,2.73-3.5,4.05c-2.27,2.43-5.94,3.39-7.22,6.92
	c-0.19,0.52-1.15,1.07-1.76,1.08c-2.16,0.05-3.58,1.31-5.02,2.64c-1.89,1.74-3.92,2.1-6.35,0.93c-1.09-0.52-2.51-0.47-3.78-0.43
	c-1.08,0.03-2.17,0.7-3.2,0.58c-1.09-0.12-2.62-0.58-3.01-1.36c-0.33-0.66,0.61-2.05,1.16-3.01c0.28-0.47,1.01-0.65,1.46-1.06
	c1.94-1.73,3.85-3.5,5.24-4.78c-1.6-3.46-2.57-6.35-4.18-8.81c-1.74-2.65-0.79-5.44-1.25-8.14c-0.74-4.28-1.55-8.55-2.24-12.84
	c-0.71-4.39-0.58-8.65,1.49-12.8c1.44-2.87,1.51-5.97,0.23-9.47c-0.52,0.73-0.89,1.06-1.01,1.46c-2.27,7.69-4.69,15.32-3.95,23.56
	c0.31,3.37-0.2,6.81-0.11,10.21c0.09,3.5,0.37,7.01,0.8,10.49c0.09,0.75,1.11,1.41,1.75,2.05c0.47,0.47,1.03,0.84,1.58,1.29
	c-2.49,2.05-3.68,2.18-5.87,0.57c-2.68-1.97-4.26-4.62-4.51-7.99c-0.06-0.84,0.17-1.8-0.15-2.52c-1.47-3.22-0.81-6.41-0.19-9.65
	c1-5.26,2.06-10.52,0.83-15.91c-0.18-0.79,0.06-1.68,0.16-2.51c0.37-3.11,1.09-6.22,1.08-9.32c-0.03-6.79-0.06-13.63-0.81-20.37
	c-0.63-5.69,0.16-11.1,1.34-16.55c0.69-3.2,1.45-6.39,2.37-9.53c1.38-4.76,2.72-9.55,4.46-14.19c1.4-3.73,3.49-7.19,5.04-10.87
	c1.03-2.44,1.98-4.99,2.41-7.58c1.05-6.35,1.78-12.75,2.62-19.13c0.23-1.71,0.41-3.42,0.61-5.13c-0.31-0.1-0.62-0.19-0.93-0.29
	c-1.22,2.55-2.48,5.09-3.66,7.66c-2.28,4.94-4.16,10.12-8.57,13.75c-0.71,0.58-1.16,1.51-1.62,2.34c-2.15,3.92-4.03,8.01-6.45,11.75
	c-3.29,5.08-7.22,9.74-9.4,15.52c-0.52,1.38-1.77,2.57-2.9,3.62c-2.13,1.98-4.52,3.66-6.59,5.7c-1.96,1.93-3.58,4.21-5.47,6.23
	c-2.14,2.29-4.32,4.57-6.68,6.63c-0.9,0.78-2.35,1.29-3.54,1.27c-1.89-0.03-2.73-2-1.46-3.39c3.27-3.57,6.43-7.3,10.12-10.38
	c4.39-3.68,7.42-8.18,10.29-13.02c3.14-5.29,6.89-10.21,10.27-15.35c3.25-4.95,6.93-9.73,9.39-15.06
	c2.66-5.78,5.51-11.29,9.53-16.22c0.85-1.05,1.37-2.38,2.03-3.57c-0.25-0.2-0.51-0.41-0.76-0.61c-1.37,1.27-2.82,2.46-4.08,3.83
	c-1.72,1.88-3.24,3.92-4.91,5.84c-3.88,4.46-8.17,8.59-9.99,14.5c-0.45,1.45-1.62,2.68-2.46,4.01c-0.99,1.57-2.36,1.67-3.75,0.72
	c-1.38-0.94-1.2-2.29-0.39-3.53c3.59-5.48,7.24-10.91,10.8-16.4c0.87-1.35,1.49-2.86,2.23-4.3c-0.24-0.28-0.49-0.56-0.73-0.84
	c-2.84,1.19-5.71,2.32-8.52,3.6c-1.87,0.85-3.66,1.9-5.47,2.9c-3.93,2.16-8.18,3.91-11.68,6.63c-4.06,3.15-8.76,4.64-13.27,6.67
	c-0.54,0.24-1.16,0.34-1.75,0.38c-6.27,0.47-12.55,0.91-18.82,1.38c-1.41,0.1-2.58,0.11-3.17-1.63
	C485.32,466.45,482.97,464.84,479.55,463.92z M646.99,458.5c-0.11,1.68-0.49,2.67-0.15,3.17c1.06,1.56,2.2,3.19,3.66,4.34
	c2.45,1.94,5.19,3.51,7.77,5.29c5.63,3.88,9.85,8.97,12.79,15.12c0.83,1.74,1.21,3.71,2.18,5.35c3.4,5.74,7.05,11.33,10.43,17.08
	c1.96,3.34,3.61,6.87,5.33,10.34c0.73,1.48,0.53,2.89-0.97,3.81c-1.36,0.83-2.93,0.16-3.88-1.59c-0.23-0.42-0.33-0.91-0.53-1.35
	c-1.69-3.58-3.11-7.34-5.16-10.7c-3.41-5.58-7.17-10.97-10.91-16.34c-2.32-3.33-4.7-6.7-9.12-8.72c-2.31,5.15-4.57,10.08-6.74,15.07
	c-1.18,2.72-0.86,5.35,0.41,8.09c1.21,2.6,2.75,5.5,2.6,8.18c-0.27,4.83,0.86,9.39,1.25,14.08c0.4,4.85,0.37,9.6-1.44,14.34
	c-1.1,2.87-1.22,6.16-1.51,9.28c-0.61,6.74,0.86,13.3,1.95,19.89c0.33,2.02,0.74,4.07,1.44,5.99c1.28,3.52,2.94,6.9,4.2,10.43
	c1.72,4.8,3.12,9.71,4.84,14.5c3.23,9.03,5.22,18.39,7.41,27.69c0.43,1.83-0.64,3.03-2.34,2.47c-1.06-0.35-2.11-1.5-2.62-2.55
	c-0.84-1.73-1.2-3.68-1.85-5.51c-2.35-6.56-4.95-12.96-10.94-17.21c-1.89-1.34-2.01-3.18-1.44-5.21c1.46-5.27,0.27-10.05-2.42-14.67
	c-0.74-1.28-1.28-3.01-1.11-4.43c1.01-8.1-0.8-15.93-1.83-23.85c-0.34-2.6-0.16-5.28-0.13-7.92c0.03-3.03,0.34-6.07,0.16-9.08
	c-0.19-3.23-1.08-6.44-1.17-9.67c-0.11-4.15-2.68-7.01-4.39-11.09c-3.54,5.25-6.71,9.8-9.68,14.47c-0.49,0.77-0.36,2.2-0.03,3.15
	c0.59,1.7,1.6,3.25,2.35,4.91c0.49,1.08,1.22,2.24,1.16,3.33c-0.21,3.51-0.37,7.09-1.24,10.47c-1.23,4.83-0.57,9.38,0.92,13.92
	c2.21,6.71,4.23,13.47,3.96,20.62c-0.33,8.78,0.48,17.41,2.34,26.01c0.83,3.86,0.72,7.94,0.83,11.93c0.11,3.86-0.09,7.73-0.06,11.6
	c0.04,4.72,0.54,9.46,0.16,14.14c-0.46,5.68-1.5,11.27-0.83,17.03c0.28,2.37-0.04,4.87-0.47,7.24c-0.66,3.69-1.74,7.31-2.45,10.99
	c-0.38,2-0.5,4.08-0.47,6.13c0.07,3.99,0.26,7.98,0.52,11.96c0.36,5.33,0.84,10.65,1.28,16.15c2.64-1.64,4.72-2.92,6.83-4.23
	c-3.99-3.76-3.57-6.77,0.72-9.99c2.18-1.63,3.86-3.94,5.77-5.94c0.57-0.6,1.07-1.31,1.75-1.75c7.86-5.07,15.49-10.46,21.79-17.41
	c6.03-6.63,11.7-13.58,17.53-20.39c7.1-8.29,13.77-16.79,19.01-26.51c7.54-13.99,15.72-27.66,24.14-41.15
	c4.39-7.03,7.34-14.45,9.02-22.43c0.61-2.87,1.11-5.59,2.64-8.2c1.89-3.22,3.43-6.69,4.75-10.19c1.97-5.21,3.65-10.52,5.36-15.82
	c0.69-2.13,0.89-4.34-0.23-6.54c-0.92,1.36-1.72,2.73-2.07,4.21c-0.89,3.76-1.59,7.56-2.34,11.35c-0.26,1.34-0.45,2.78-2.15,2.95
	c-1.62,0.16-2.81-0.6-3.38-2.19c-0.08-0.23-0.19-0.45-0.27-0.68c-1.33-4.2-2.51-8.51-1.82-12.89c0.66-4.24-0.34-8.19-0.93-12.26
	c-1.66-11.58-0.9-22.91,3.67-33.84c0.35-0.85,0.15-1.93,0.23-3.25c-1.67,0.32-2.72,0.53-3.77,0.71c-2.61,0.45-5.2,1.13-7.82,1.28
	c-9.3,0.53-18.39-1.26-27.54-2.6c-6.08-0.89-11.9-2.39-17.3-5.28c-3.74-2-7.37-4.22-10.98-6.44c-3.12-1.91-6.19-3.78-9.97-4.14
	c-6.92-0.66-12.63-3.96-17.87-8.32C653.24,463.07,650.47,461.13,646.99,458.5z M467.29,403.11c1,6.78,1.85,12.77,2.79,18.75
	c0.43,2.74,0.92,5.49,1.58,8.18c1.18,4.83,2.56,9.61,3.74,14.43c0.81,3.3,1.3,6.68,2.17,9.96c0.28,1.06,1.13,2.13,2,2.86
	c2.14,1.78,4.35,3.52,6.72,4.98c3.41,2.1,6.7,3.89,11.14,1.68c8.23-4.11,16.74-7.65,25.15-11.39c3.32-1.48,6.68-2.84,10.02-4.27
	c4.21-1.8,8.49-3.28,12.15-6.37c4.04-3.41,8.66-6.14,13.08-9.08c1.18-0.79,2.83-1.03,2.83-2.91c0-2.28-1.92-5.95-3.51-6.34
	c-4.24-1.05-8.53-1.92-12.77-2.96c-3.16-0.78-6.37-1.46-9.38-2.66c-3.48-1.38-3.82-2.51-3.52-6.23c0.38-4.65,0.61-9.31,0.92-14.11
	C510.1,395.17,489.07,399.18,467.29,403.11z M759.56,449.64c-0.12-0.63-0.27-0.98-0.24-1.31c0.08-0.99-0.12-2.49,0.42-2.84
	c0.72-0.46,2.04-0.15,3.05,0.07c0.67,0.15,1.22,0.81,1.89,1.07c1.9,0.74,3.82,1.92,5.76,1.98c5.69,0.17,11.4-0.15,17.1-0.21
	c1.69-0.02,2.83-0.68,3.26-2.31c0.57-2.21,1.05-4.44,1.66-7.07c-1.96-0.36-3.58-0.72-5.21-0.96c-3.43-0.5-6.38-1.49-8.72-4.49
	c-2.12-2.72-4.73-5.41-7.72-7.03c-8.43-4.56-17.24-8.41-25.74-12.85c-5.32-2.78-11.33-4.31-15.79-8.73
	c-1.65-1.64-5.8-0.71-6.68,1.12c-1.84,3.84-2.16,3.92-6.39,3.34c-1.87-0.26-3.82-0.17-5.71,0.01c-1.79,0.18-3.55,0.73-5.33,1.05
	c-2.99,0.54-6.03,0.83-8.97,1.57c-5.4,1.36-10.75,2.95-16.11,4.47c-4.97,1.41-9.92,2.86-15.58,4.49c1.57,2.15,2.63,3.83,3.92,5.31
	c1.65,1.89,3.48,3.61,5.24,5.4c0.93,0.95,2.37,2.04,1.18,3.31c-0.68,0.73-2.37,0.77-3.58,0.69c-1.06-0.07-2.09-0.72-3.13-1.11
	c-0.16,0.36-0.32,0.71-0.47,1.07c0.98,0.43,1.98,0.82,2.94,1.28c4.14,2,8.82,3.34,12.28,6.17c8.56,7.01,18.74,8.17,28.86,8.12
	c8.4-0.05,16.76-2.5,25.18-3.52c5.34-0.65,10.99-1.47,14.93,3.94C754.32,451.02,756.78,450.37,759.56,449.64z M760.47,475.62
	c5.09-5.62,7.67-12.31,10.36-18.91c0.94-2.3,0.16-3.37-2.22-3.33c-5.22,0.07-10.46,0.42-15.38,2.39c-2.01,0.8-3.9,1.87-3.98,4.62
	c-0.06,2.1-1.75,2.54-3.44,2.21c-8.21-1.58-16.46-0.54-24.67-0.26c-6.16,0.21-12.28,1.25-18.43,1.89c-2.89,0.3-5.78,0.61-8.67,0.73
	c-1.61,0.07-3.78,0.41-3.72-2.21c0.05-2.29,1.98-1.96,3.53-2.13c2.89-0.32,5.8-0.57,8.65-1.13c4.75-0.94,9.46-2.11,14.19-3.18
	c1.09-0.25,2.19-0.47,3.29-0.7c-0.06-0.26-0.11-0.52-0.17-0.79c-1.78,0.24-3.55,0.55-5.33,0.7c-2.28,0.19-4.61,0.55-6.86,0.31
	c-3.6-0.38-7.2-1.01-10.72-1.86c-5.42-1.31-10.77-2.79-15.2-6.58c-3.57-3.05-7.98-4.55-12.52-5.57c-3.61-0.81-6.87-2.24-9.65-4.77
	c-0.92-0.84-2.3-1.66-3.46-1.65c-2.37,0.03-4.74,0.63-7.02,0.98c-1.41,5.81-0.69,7.87,3.78,11.06c0.59,0.42,1.2,0.83,1.8,1.24
	c4.52,3.04,9.03,6.1,13.57,9.11c3.53,2.34,7.09,4.64,10.68,6.89c3.07,1.92,6.21,3.71,9.29,5.6c3.5,2.15,6.79,4.88,11.08,5.18
	c4.59,0.32,9.22,0.57,13.81,0.35c4.59-0.21,9.14-1.02,13.71-1.6c8.19-1.04,16.37-2.09,24.56-3.17c3.4-0.45,6.6-0.57,8.11,3.42
	C759.54,474.78,759.89,475,760.47,475.62z M794.9,202.48c-0.42,1.07-0.95,1.73-0.87,2.31c0.65,4.92,0.91,9.97,2.25,14.7
	c1.49,5.23,2.08,10.38,1.56,15.73c-0.11,1.08-0.1,2.18-0.13,3.26c-0.22,6.54-0.39,13.08-0.66,19.62c-0.25,6.3-0.81,12.59-0.84,18.89
	c-0.03,5.44,0.36,10.9,0.8,16.34c0.41,4.95,1.09,9.88,1.75,14.8c0.42,3.11,1.21,6.18,1.53,9.3c0.47,4.57,0.52,9.19,1.03,13.76
	c0.39,3.47,1.21,6.89,1.84,10.32c1.54-4.39,2.64-8.7,2.39-13.26c-0.12-2.15,0.23-4.33,0.42-6.5c0.3-3.61,0.96-7.23,0.9-10.83
	c-0.13-7.15-0.98-14.3-0.91-21.44c0.09-8.72,0.82-17.43,1.26-26.14c0.06-1.21-0.05-2.42-0.02-3.63c0.1-3.99,0.34-7.98,0.33-11.97
	c-0.01-5.63,1.22-11.41-2.36-16.61c-0.99-1.44-1.66-3.4-1.71-5.14c-0.08-3.08-1.56-5.55-2.65-8.23c-0.77-1.9-1.41-3.86-2.15-5.77
	C797.49,208.98,796.29,205.97,794.9,202.48z M753.73,538.63c3.17-5.12,6.06-10.46,9.59-15.34c3.33-4.59,5.93-9.43,7.78-14.73
	c0.84-2.4,1.85-4.73,2.62-7.15c1.72-5.42,3.33-10.87,5.02-16.3c0.6-1.91-0.29-3.12-1.56-4.46c-2.49-2.62-4.74-5.47-7.12-8.2
	c-0.37-0.43-0.88-0.74-1.27-1.05c-0.39,0.21-0.69,0.27-0.8,0.45c-3.28,4.94-6.66,9.83-9.77,14.88c-1.71,2.77-3.52,5.68-4.31,8.78
	c-1.73,6.79-3.52,13.65-3.15,20.79c0.19,3.63,0.09,7.3,0.57,10.89C751.84,530.98,752.89,534.72,753.73,538.63z M637.52,669.58
	c0.27-1.37,0.57-2.46,0.7-3.58c0.2-1.69,0.14-3.42,0.46-5.07c1.08-5.53,1.13-11.03,0.47-16.64c-0.44-3.7-0.55-7.54-0.1-11.23
	c0.49-4.04,0.43-7.85-0.51-11.86c-1.18-5.05-1.71-10.26-2.25-15.44c-0.39-3.73-0.51-7.51-0.46-11.26
	c0.08-6.13-1.43-11.88-3.63-17.55c-0.52,1.44-0.74,2.86-1.02,4.28c-1.06,5.34-2.12,10.68-3.2,16.02c-0.62,3.07-1.71,6.12-1.81,9.21
	c-0.1,3.09,0.52,6.27,1.27,9.29c1.07,4.33,2.68,8.52,3.8,12.84c0.54,2.07,0.74,4.29,0.69,6.43c-0.18,7.28-0.42,14.57-0.89,21.84
	c-0.31,4.81,2.51,8.2,4.71,11.92C635.94,669.1,636.57,669.17,637.52,669.58z M793.13,469.3c-0.74,2.14-1.52,4.4-2.32,6.65
	c-0.73,2.05-1.2,4.26-2.31,6.08c-1.12,1.84-1.22,3.29-0.04,5c0.62,0.89,0.98,1.96,1.59,2.86c5.27,7.85,7.85,16.32,6.09,25.83
	c-0.38,2.04-0.64,4.11-1.03,6.69c0.97-0.93,1.69-1.41,2.14-2.08c3.56-5.2,7.17-10.37,10.55-15.7c1.55-2.44,2.78-5.13,3.82-7.84
	c1.69-4.4-0.58-7.59-3.43-10.72c-2.59-2.84-5.4-5.73-7.02-9.13C799.44,473.33,797.53,470.5,793.13,469.3z M697.97,480.06
	c1.84,2.81,4.16,3.48,6.27,3.95c4.25,0.95,8.66,1.16,12.89,2.16c7.07,1.66,14.22,1.51,21.38,1.63c4.01,0.07,7.76-0.95,11.23-2.69
	c1.98-0.99,3.6-2.76,5.26-4.31c1.37-1.28,0.99-2.87,0.37-4.41c-0.67-1.66-2.08-1.9-3.6-1.88c-0.85,0.01-1.71,0.04-2.54,0.17
	c-9,1.34-17.98,2.88-27.01,3.99c-5.75,0.71-11.58,0.8-17.38,1.14C702.74,479.94,700.64,479.97,697.97,480.06z M469.66,445.29
	c0.28-0.11,0.57-0.22,0.85-0.34c-0.33-1.63-0.6-3.27-1.01-4.87c-0.6-2.34-1.49-4.63-1.93-7c-1.58-8.68-3.06-17.38-4.49-26.09
	c-0.29-1.78-1.06-2.66-2.88-2.41c-2.51,0.35-5.06,0.56-7.51,1.18c-4.03,1.02-4.98,2.74-3.57,6.65c1.52,4.22,3.54,8.14,6.63,11.58
	c3.14,3.5,6.11,7.27,7.33,12C464.12,439.97,467.1,442.47,469.66,445.29z M570.23,402.99c0.25-0.35,0.5-0.69,0.75-1.04
	c-1.53-1.82-3.25-3.5-4.54-5.47c-3.94-6.01-8.53-11.49-14.07-16c-4.09-3.33-8.64-6.22-13.32-8.67c-2.69-1.41-5.99-2.37-9.56-0.9
	c2.97,5.98,6.68,10.83,11.42,14.92c1.62,1.4,3.5,1.32,5.49,1.29c2.77-0.03,5.56,0.14,8.31,0.48c1.54,0.19,2.11,1.46,1.94,3.01
	c-0.17,1.5-1.1,2.08-2.48,2.12c-1.13,0.03-2.25,0.01-3.38,0.01c-0.06,0.38-0.13,0.76-0.19,1.15
	C556.51,398.28,564.38,398.44,570.23,402.99z M779.4,423.33c-0.73-2.1-0.98-3.53-1.67-4.7c-4.64-7.9-12.33-11.54-20.49-14.5
	c-0.34-0.12-0.71-0.14-1.07-0.18c-3.85-0.43-7.7-0.94-11.57-1.22c-1.68-0.12-3.39,0.25-5.09,0.4c-0.04,0.36-0.08,0.73-0.12,1.09
	C752.22,410.83,764.9,417.71,779.4,423.33z M593.57,588.27c0.08,0.24,0.16,0.47,0.24,0.71c3.87-0.71,7.5-2.13,11.08-3.82
	c6.76-3.19,9.78-9.55,13.2-15.5c2.41-4.19,3.49-8.71,2.18-14.2C611.07,566.77,602.32,577.52,593.57,588.27z M553.87,418.66
	c0.99-0.54,2.54-0.87,2.77-1.62c0.28-0.88-0.29-2.39-1.01-3.15c-3.73-3.99-7.55-7.9-11.48-11.71c-1.83-1.78-6.3-1.56-7.16,0.49
	c-1.1,2.61-1.66,5.53-1.95,8.37c-0.09,0.91,1.22,2.25,2.21,2.93C542.19,417.35,548.31,416.35,553.87,418.66z M636.46,406
	c4.85,1.22,9.33-0.78,13.96-1.4c4.67-0.63,9.27-1.76,13.92-2.56c4.66-0.8,9.32-1.59,14.01-2.16c4.6-0.56,9.17-1.08,13.32-3.36
	C672.14,393.17,654.16,398.67,636.46,406z M525.2,387.42c0.13-0.34,0.26-0.67,0.39-1.01c-1.06-0.7-2.05-1.52-3.18-2.06
	c-1.64-0.78-3.33-1.49-5.07-1.99c-4.63-1.33-9.12-3.13-14.19-2.54c-9.76,1.13-19.53,2.11-28.95,5.11c-2.66,0.85-5.43,1.51-7.54,3.66
	c1.22,0.1,2.35-0.07,3.4-0.46c1.48-0.54,2.85-1.38,4.34-1.86c7.21-2.33,14.64-1.97,22.01-1.3c5.66,0.51,11.25,1.82,16.91,2.37
	C517.26,387.72,521.25,387.42,525.2,387.42z M554.19,540.84c5.15-16.35,9.84-45.1,8.08-48.92
	C556.66,502.37,551.24,524.54,554.19,540.84z M776.17,456.08c-0.71,2.94-1.28,5.53-1.96,8.1c-1.73,6.55-0.24,10.01,5.99,13.54
	c0.29-0.33,0.67-0.64,0.89-1.04c2.56-4.7,2.96-9.97,3.84-15.1c0.12-0.7-0.27-1.87-0.81-2.24
	C781.73,457.73,779.41,455.85,776.17,456.08z M503.33,391.69c-0.67-0.23-1.07-0.44-1.51-0.51c-7.3-1.34-14.67-1.73-22.02-0.78
	c-3.19,0.41-6.33,1.52-9.39,2.61c-1.93,0.68-3.18,2.12-2.15,4.62c1.06,0,2.02,0.11,2.95-0.02c8.02-1.15,16.05-2.23,24.04-3.57
	C497.89,393.58,500.85,393.9,503.33,391.69z M772.88,147.12c1.81,3.82,2.94,7.4,6.02,9.8c0.45,0.35,0.7,0.97,0.97,1.51
	c1.37,2.69,2.78,5.36,4.04,8.1c1.85,4.05,3.53,8.18,5.38,12.23c0.48,1.06,1.35,1.94,2.36,3.36
	C793.45,171.12,785.85,155.65,772.88,147.12z M627.97,493.71c5.18-9.75,6.04-22.88,1.96-29.42
	C627.21,473.89,627.43,483.55,627.97,493.71z M648.08,491.33c0.36,0.08,0.72,0.16,1.08,0.24c2.1-1.69,3.08-4.16,4.35-6.48
	c1.87-3.39,1.95-6.4-1.25-8.98c-0.68-0.55-1.59-1.13-2.37-1.09c-0.43,0.02-1.02,1.25-1.15,2c-0.41,2.39-0.79,4.8-0.9,7.21
	C647.75,486.58,647.99,488.96,648.08,491.33z M585.79,430.86c2.27-3.54,2.61-5.86,1.19-7.64c-1.56-1.98-3.75-1.96-6-1.52
	c-0.71,0.14-1.44,0.31-2.16,0.3c-2.07-0.04-3,1.27-3.7,2.94c-1.76,4.17-0.98,8.11,1.04,12.49c1.27-3.99,1.67-7.53,1.39-11.21
	c-0.06-0.79,0.45-2.1,1.05-2.35c0.83-0.35,2.12-0.18,2.95,0.25c0.77,0.4,1.26,1.4,1.75,2.22
	C584.1,427.66,584.8,429.04,585.79,430.86z M644.05,471.71c-3.56,1.5-4.32,2.61-3.77,5.65c0.89,4.89,1.49,9.76,1.12,14.77
	c-0.14,1.88,0.77,3.83,1.37,6.53c1.65-2.37,1.4-4.02,1.03-5.67c-0.95-4.29-1.32-8.53-0.26-12.92
	C644.15,477.58,643.89,474.88,644.05,471.71z M571.86,411.44c-4.25-4.04-8-7.14-14.09-7.57c1.81,4.02,3.29,7.3,4.88,10.85
	C566.56,410.21,566.56,410.21,571.86,411.44z M635.11,510.24c6.04-5.8,5.93-7.85,1.41-15.27
	C635.28,499.9,632.43,504.53,635.11,510.24z M635.92,525.53c3.25-3.37,5.3-7.38,6.32-11.84c0.2-0.9-0.92-2.1-1.62-3.56
	C636.56,515.04,636.49,520.34,635.92,525.53z M648.5,510.75c-2.38,4.16-1.6,12.59,1.34,16.14c0-4.71,0.05-9.37-0.06-14.02
	C649.77,512.2,649,511.55,648.5,510.75z M741.86,454.33c-2.95,0.13-5.43,0.26-7.49,2.42C738.68,458.41,740.55,457.87,741.86,454.33z
	 M635.18,705.03c-0.48-3.24-0.42-6.06-2.07-8.81C631.28,701.96,630.85,702.78,635.18,705.03z M454.33,398.54
	c2.58,1.84,4.49,0.59,6.31,0.6c0.4,0,0.8-0.92,1.19-1.42c-0.53-0.38-1.16-1.17-1.58-1.07C458.46,397.07,456.72,397.75,454.33,398.54
	z M661.1,606.97c-0.58-2.34-0.43-4.39-2.39-5.66C657.06,604.39,657.45,605.41,661.1,606.97z"/>
<path d="M618.09,713.74c-1.59-0.27-3.1-0.34-4.49-0.8c-2.91-0.97-5.49-1.02-7.4,1.83c-1.19,1.78-2.99,1.59-4.61,1.17
	c-3.38-0.87-6.71-1.93-10.02-3.03c-1.59-0.53-1.93-1.81-1.09-3.22c0.42-0.71,1.04-1.59,1.74-1.8c6.63-1.99,13.33-3.83,20.31-1.94
	C615.7,706.79,617.85,709.84,618.09,713.74z"/>
</svg>
