<?xml version="1.0" encoding="utf-8"?>
<!-- Generator: Adobe Illustrator 24.1.0, SVG Export Plug-In . SVG Version: 6.00 Build 0)  -->
<svg version="1.1" id="Layer_1" xmlns="http://www.w3.org/2000/svg" xmlns:xlink="http://www.w3.org/1999/xlink" x="0px" y="0px"
	 viewBox="0 0 1224 792" style="enable-background:new 0 0 1224 792;" xml:space="preserve">
<path d="M983.05,43.2c-3.88,2.56-8.15,3.88-12.78,3.62c-1.95-0.11-3.87-0.91-6.74-1.63c-1.7,0.4-4.52,1.13-7.37,1.7
	c-1.52,0.3-3.12,0.83-4.48-0.71c-0.29-0.33-1.34-0.02-2.04,0.04c-0.84,0.08-1.7,0.36-2.53,0.29c-3.2-0.29-6.39-0.74-9.59-1.01
	c-1.33-0.11-2.7,0.03-4.04,0.2c-1.94,0.24-3.87,0.62-6.33,1.02c-0.44,2.21-0.71,5.41-4.36,6.83c-0.69-3.63-3.05-5.63-6.62-6.35
	c-3.1,1.77-6.28,2.19-9.72-0.21c-0.7,1.7-1.64,2.2-3.63,1.55c-2.75-0.89-5.93-1.72-8.61-1.14c-2.52,0.54-4.79,2.77-6.86,4.61
	c-0.95,0.84-1.22,2.5-2.97,2.13c-1.84-0.4-3.59-0.95-4.2-3.09c-0.24-0.81-0.5-1.83-1.1-2.27c-0.63-0.46-2.23-0.72-2.46-0.4
	c-2,2.85-5.52,2.24-7.13,3.35c-3.06-0.76-5.33-1.38-7.63-1.86c-2.37-0.5-4.77-0.94-7.17-1.26c-2.16-0.29-4.14,0.22-5.78,1.8
	c-0.38,0.37-1.06,0.43-1.39,0.56c-0.84-1.6-1.28-3.72-2.36-4.13c-1.15-0.43-2.92,0.75-4.71,1.33c-0.24-0.99-0.49-1.96-0.77-3.13
	c-2.27-0.18-4.52,0.13-6.47-2.12c-0.95-1.09-3.93-0.4-6.47-0.55c0.48-0.92,0.77-1.48,1.22-2.36c-1.06-0.56-2.17-1.16-3.98-2.12
	c-0.28,2.06-0.41,3.55-0.71,5.01c-0.25,1.25-0.47,2.63-1.18,3.6c-0.25,0.34-2.45-0.02-2.83-0.64c-0.77-1.26-1.08-2.89-1.23-4.41
	c-0.07-0.7,0.7-1.48,1.45-2.92c-7.12-1.11-13.84-2.17-20.57-3.22c-0.06-0.24-0.12-0.48-0.18-0.72c1.05-0.29,2.1-0.85,3.15-0.84
	c5.28,0.03,10.56,0.26,15.83,0.29c2.57,0.01,5.14-0.35,7.71-0.41c14.14-0.29,28.29-0.57,42.43-0.79
	c16.74-0.26,33.49-0.43,50.23-0.71c10.83-0.19,21.65-0.53,32.48-0.78c10.83-0.25,21.66-0.47,32.48-0.7
	C983.05,34.81,983.05,39,983.05,43.2z"/>
<path d="M231.56,823.53c3.74,0.38,7.52,0.55,11.21,1.23c2.02,0.37,3.87,1.62,5.8,2.47c-5.67,0-11.34,0-17.01,0
	C231.56,825.99,231.56,824.76,231.56,823.53z"/>
<path d="M775.43,739.43c-1.8-3.09-4.09-4.38-6.7-4.52c-4.66-0.25-8.16-2.84-11.31-5.65c-1.75-1.56-2.24-4.5-3.39-6.77
	c-0.4-0.78-1.05-1.44-1.59-2.15c-0.56,0.57-1.3,1.05-1.64,1.73c-1.1,2.23-2.37,4.25-4.56,5.61c-0.54,0.34-0.87,1.09-1.19,1.7
	c-0.96,1.82-1.92,3.64-2.78,5.5c-0.54,1.15-0.91,2.38-1.46,3.86c-3.02-0.31-4.35,2.51-5.69,4.89c-3.3,5.84-8.39,9.69-14.17,12.46
	c-4.82,2.32-10.12,3.62-15.13,5.56c-2.73,1.05-5.34,2.43-7.96,3.76c-4.12,2.09-8.5,3.37-13.08,3.08c-4.77-0.3-9.49-1.2-14.25-1.74
	c-1.81-0.2-3.66-0.11-5.49-0.17c-3.57-0.12-7.13-0.28-10.7-0.35c-2.7-0.06-5.4,0.06-8.1-0.03c-1.3-0.04-3.22,0.08-3.76-0.67
	c-1.58-2.16-3.59-1.81-5.63-1.74c-6.49,0.23-12.98,0.54-19.47,0.74c-7.55,0.23-14.6-2.18-21.45-4.84c-5.67-2.2-11.01-5.26-16.41-8.1
	c-1.6-0.84-2.92-2.23-4.38-3.35c-1.36-1.04-2.6-2.45-4.14-3c-4.01-1.44-6.58-4.57-9.6-7.25c-3.39-3.02-6.89-5.97-10.67-8.46
	c-3.96-2.61-7.31-5.7-10.36-9.31c-2.36-2.79-5.34-5.05-8.07-7.52c-1.82-1.65-3.64-3.29-5.54-4.84c-0.62-0.51-1.47-0.75-2.52-1.26
	c-0.5,1.07-0.86,1.93-1.28,2.75c-1.88,3.64-4.1,4.17-6.82,1.18c-1.73-1.9-3.72-1.97-6.52-2.39c0.49,1.55,0.62,2.77,1.21,3.68
	c3.51,5.47,3.91,11.56,3.72,17.78c-0.05,1.72-0.21,3.45-0.19,5.17c0.03,2.68-0.75,4.91-2.36,7.16c-2.14,3-2.2,7.32-6.44,9.08
	c-1.31,0.54-1.69,3.01-2.94,4.05c-2.85,2.39-6.25,2.97-9.68,1.3c-2.78-1.35-5.32-1.34-8.11,0.03c-2.63,1.29-3.99,0.44-4.66-2.56
	c-0.35-1.59-1.32-3.1-0.31-4.93c0.27-0.5-0.6-2-1.31-2.61c-3.38-2.87-7.3-3.71-11.72-2.43c-0.1,0.55-0.23,1.23-0.41,2.15
	c-0.82-0.36-1.52-0.67-2.39-1.05c-2.41,4.35-5.27,8.43-4.32,13.71c0.87,4.85-2.42,7.67-5.1,10.81c-0.23,0.27-0.58,0.5-0.92,0.6
	c-2.77,0.82-5.56,1.61-8.35,2.42c-1.17-3.02-1.17-3.02,2.22-5.41c-1.62-1.88-3.09-3.53-6.03-2.98c-2.36,0.45-3.3-0.4-3.08-2.76
	c0.16-1.68-0.54-2.7-1.32-3.99c-0.9-1.49-1.24-3.33-2.01-5.55c-1.98-0.66-3.7-2.1-3.54-5.27c0.09-1.79-3.42-4.35-5.59-3.85
	c-3.35,0.77-4.13-1.09-4.77-3.54c-0.09-0.36-0.07-0.79-0.27-1.07c-0.38-0.54-0.88-1-1.32-1.49c-0.47,0.48-1.2,0.89-1.36,1.46
	c-0.62,2.19-1.46,4.12-4.58,5.43c0.39-1.75,0.56-2.94,0.92-4.06c1.01-3.14-0.09-4.5-3.89-4.09c0.94-2.47,1.82-4.77,2.7-7.08
	c-0.18-0.22-0.37-0.44-0.55-0.66c-1.63,0.61-3.25,1.23-5.08,1.92c-0.11-2.04-0.2-3.92-0.3-5.81c-0.29-0.1-0.58-0.21-0.87-0.31
	c-2.18,3.46-6.09,5.84-6.05,10.66c0.03,2.79-0.37,4.92-3.58,5.98c-1.55,0.51-2.8,2.28-3.92,3.7c-1.84,2.32-3.32,2.63-5.29,0.41
	c-0.94-1.06-2.01-0.94-3.04-1.36c-3-1.22-5.73-1.65-8.84-0.39c-1.03,0.41-2.8-0.11-3.84-0.8c-3.17-2.09-6.61-2.41-10.24-2.39
	c-0.92,0.01-2.31-0.62-2.67-1.36c-0.86-1.77-2.14-2.04-3.85-2.23c-1.36-0.16-2.68-0.88-3.96-1.49c-0.99-0.47-1.82-1.28-2.82-1.71
	c-6.17-2.65-11.13-7.01-14.95-12.27c-3.06-4.2-5.17-9.19-7.13-14.06c-2.65-6.59-5-13.32-7.01-20.13c-1.56-5.27-2.22-10.8-3.63-16.12
	c-1.85-7-3.81-13.99-6.17-20.84c-2.32-6.73-5.19-13.27-7.81-19.9c-0.22-0.57-0.39-1.17-0.5-1.77c-1.36-7.36-2.96-14.68-3.98-22.08
	c-1.44-10.48-3.18-21.07-1.85-31.61c0.69-5.47,2.76-11.03,5.33-15.96c5.61-10.79,11.79-21.29,18.06-31.71
	c1.58-2.63,4.17-4.81,6.67-6.7c6.53-4.93,14.32-7.52,21.58-11.09c7.43-3.66,15.09-6.59,23.15-8.53c3.68-0.88,7.29-2.59,10.99-2.75
	c4.74-0.2,9.55,0.68,14.31,1.27c10.17,1.27,20.22,3.19,29.53,7.61c4.94,2.34,9.59,5.3,14.28,8.14c4.58,2.77,9.03,5.75,13.9,8.87
	c0.11-0.91,0.36-1.92,0.32-2.92c-0.16-3.85,0.24-7.47,2.01-11.08c3.19-6.51,2.62-13.2,0.29-19.97c-1.75-5.1-3.05-10.37-4.26-15.63
	c-1.05-4.54-1.6-9.19-2.54-13.75c-1.03-5.02-2.16-10.03-3.47-14.99c-0.31-1.17-1.31-2.45-2.35-3.06c-2.64-1.54-5.43-2.86-8.26-4.03
	c-4.06-1.69-6.22-3.78-5.38-8.34c0.41-2.22-0.22-4.63-0.44-6.95c-0.07-0.73-0.39-1.43-0.51-2.15c-0.27-1.67-0.22-3.39,1.58-4.12
	c1.97-0.8,3.23,0.47,4.2,2.05c1.81,2.95,3.59,4.64,7.01,6.54c0.11-1.05,0.36-1.99,0.27-2.89c-0.79-8.33-1.64-16.65-2.46-24.97
	c-0.15-1.47-0.23-2.94-0.43-4.4c-0.42-3.15-0.92-6.29-1.32-9.45c-0.22-1.71-0.41-3.43-0.41-5.14c-0.01-4.44,0.07-8.87,0.19-13.31
	c0.03-1.2,0.04-2.6,0.63-3.55c1.86-3.03,1.09-5.95-0.04-8.83c-2.37-6.06-5.09-12-7.27-18.13c-1.14-3.2-1.36-6.71-2.15-10.05
	c-1.1-4.66-2.3-9.29-3.53-13.91c-1.23-4.63-2.6-9.22-3.79-13.86c-2.05-7.97-4.04-15.95-5.99-23.94c-1.54-6.29-2.64-12.72-4.57-18.89
	c-1.79-5.71-2.13-11.87-5.31-17.18c-0.69-1.16-0.52-2.86-0.64-4.32c-0.11-1.41-0.69-2.22-2.16-2.55c-1.17-0.26-2.33-0.75-3.37-1.35
	c-2.45-1.4-3.28-3.13-2.79-6.33c1.2-7.76,1.81-15.64,2.25-23.49c0.17-3.01-0.84-6.07-1.15-9.12c-0.61-5.96,0.28-11.76,1.79-17.53
	c0.68-2.59,0.83-5.34,1.08-8.03c0.57-6.08,0.44-12.3,1.7-18.23c2.36-11.13,5.39-22.12,8.36-33.11c1.7-6.28,3.72-12.34,2.84-19.12
	c-0.47-3.65,0.71-7.56,1.47-11.28c0.15-0.75,1.87-1.81,2.65-1.65c0.82,0.17,2.03,1.67,1.97,2.49c-0.61,7.46-1.49,14.89-2.22,22.34
	c-0.65,6.61-1.23,13.22-1.81,19.83c-0.05,0.57,0.17,1.17,0.41,2.67c1.41-1.67,2.54-2.7,3.29-3.96c2.84-4.75,5.45-9.63,8.35-14.34
	c2.19-3.56,4.6-6.99,7.09-10.35c6.21-8.39,12.42-16.78,18.82-25.02c3.61-4.64,7.56-9.03,11.45-13.44c1.04-1.18,2.43-2.04,3.67-3.05
	c1.43-1.16,2.87-2.3,4.3-3.46c3.52-2.85,6.84-6.02,10.63-8.44c2.4-1.53,5.51-1.92,8.28-2.89c5.56-1.95,11.06-4.06,16.66-5.89
	c3.36-1.1,6.88-1.75,10.29-2.7c4.02-1.12,7.96-2.56,12.02-3.49c5.27-1.22,10.65-1.91,15.91-3.14c3.56-0.83,7.02-2.14,10.49-3.36
	c2.89-1.01,5.63-2.51,8.58-3.24c8.96-2.22,17.95-4.38,27-6.15c4.43-0.87,9.05-0.79,13.58-1.18c12.4-1.06,24.53-3.69,36.7-6.15
	c9.26-1.88,18.57-3.66,27.94-4.71c5.31-0.59,10.79,0.37,16.19,0.66c2.82,0.15,5.65,0.38,8.47,0.54c7.61,0.44,15.23,0.88,22.84,1.3
	c1.48,0.08,2.97,0.21,4.43,0.09c8.63-0.66,16.93,0.87,25.03,3.74c5.21,1.85,10.27,4.44,15.63,5.47c6.42,1.24,10.38,6.19,15.81,8.84
	c3.9,1.9,7.52,4.61,10.78,7.51c4.03,3.59,8.39,7.03,10.14,12.6c0.53,1.67,1.97,3.05,2.95,4.59c2.54,4.02,5.23,7.96,7.55,12.1
	c2.94,5.24,5.77,10.56,8.31,16c3.38,7.23,6.33,14.65,9.7,21.89c2.17,4.66,4.48,9.29,7.21,13.63c2.14,3.4,4.86,6.49,7.64,9.42
	c3.8,4.02,5.94,9,8.64,13.67c1.28,2.21,2.89,4.24,4.4,6.31c5.5,7.56,13.14,12.9,19.96,19.08c4.02,3.64,7.07,7.73,9.26,12.67
	c4.38,9.88,8.82,19.75,13.56,29.46c1.79,3.67,4.26,6.93,7.09,10.11c5.06,5.68,8.71,12.42,8.99,20.5c0.33,9.46,0.75,18.93,1.52,28.37
	c0.47,5.74,1.73,11.42,2.5,17.14c0.66,4.88,1.42,9.77,1.59,14.67c0.09,2.75-0.77,5.59-1.5,8.31c-1.31,4.84-2.72,9.66-4.32,14.41
	c-1.98,5.88-1.22,11.98-1.65,17.97c-0.47,6.57-0.46,13.18-0.42,19.78c0.03,3.92,0.5,7.85,0.82,11.76
	c0.51,6.25-1.17,12.18-2.44,18.21c-1.87,8.88-5.09,17.51-5.19,26.75c-0.01,1.08-0.49,2.16-0.66,3.25
	c-0.71,4.48-1.75,8.95-1.99,13.46c-0.41,7.87-0.98,15.64-4.28,22.96c-0.49,1.09-0.37,2.43-0.75,3.59
	c-1.55,4.76-3.31,9.45-4.76,14.24c-1.13,3.73-1.91,7.56-2.86,11.37c0.68,0.71,1.55,1.3,1.96,2.12c0.87,1.77-0.08,3.51-2.45,3.99
	c-2.03,0.41-2.68,1.5-3.36,3.3c-1.07,2.83-2.76,5.43-4.14,8.15c-4.11,8.08-7.92,16.34-12.4,24.22c-3.47,6.09-6.15,12.52-9.38,18.68
	c-2.6,4.96-6.4,9.27-9.59,13.93c-2.55,3.74-4.97,7.56-7.45,11.35c-1.47,2.26-3.05,4.46-4.36,6.81c-0.76,1.37-1.01,3-1.61,4.47
	c-0.4,0.97-0.97,1.89-1.55,2.77c-0.45,0.68-1.18,1.2-1.53,1.91c-2.5,5.01-4.15,10.33-5.78,15.68c-0.85,2.79-2.96,5.23-4.62,7.75
	c-1.22,1.85-1.3,1.8-0.35,4.67c3.79-1.72,7.54-3.43,11.29-5.15c4.35-1.99,8.67-4.06,13.05-5.98c10.11-4.45,20.25-8.84,30.39-13.23
	c0.78-0.34,1.65-0.45,2.46-0.75c2.61-0.96,5.4-1.64,7.78-3.01c4.68-2.69,10.1-1.56,12.2,3.51c1.62,3.92,2.34,8.23,3.31,12.4
	c0.53,2.27,0.83,4.6,1.05,6.92c0.44,4.54,0.72,9.08-0.68,13.56c-0.36,1.15-0.38,2.44-0.36,3.67c0.21,11.25-1.71,22.24-4.04,33.18
	c-0.28,1.31-0.34,2.7-0.32,4.05c0.14,8.93-1.49,17.57-4.18,26.04c-0.67,2.1-1.34,4.23-2.33,6.19c-3.69,7.35-7.35,14.73-11.34,21.93
	c-2.25,4.07-5.47,7.62-7.59,11.74c-2.96,5.76-8.96,8.76-12.11,14.23c-1.46,2.53-2.76,5.15-3.98,7.8c-2.36,5.12-4.43,10.39-7,15.39
	c-1.06,2.07-2.81,4.16-4.78,5.33c-4.09,2.44-8.52,4.32-12.85,6.34c-6.11,2.85-12.28,5.57-18.35,8.49c-0.88,0.42-1.54,1.53-2.03,2.46
	c-0.8,1.53-1.96,2.09-4.14,1.93c0.44-2.37,0.63-4.68,1.36-6.8c0.33-0.96,1.6-1.84,2.64-2.28c6.8-2.84,13.7-5.45,20.47-8.35
	c3.49-1.5,6.84-3.36,10.15-5.22c4.12-2.32,4.98-6.86,6.81-10.69c1.42-2.96,2.54-6.07,3.8-9.11c2.34-5.63,5.82-10.45,10.2-14.68
	c1.32-1.27,2.48-2.76,3.46-4.3c5.42-8.47,12.24-16.05,16.01-25.59c1.52-3.86,4.36-7.24,5.62-11.16c2.06-6.41,3.61-13.02,4.81-19.66
	c1.2-6.64,1.81-13.39,2.51-20.11c0.84-8.07,1.54-16.15,2.25-24.23c0.41-4.65,0.99-9.32,0.97-13.97c-0.03-4.9-0.61-9.8-1.1-14.69
	c-0.19-1.94-0.74-3.86-1.2-5.77c-1.12-4.61-4.02-5.99-8.15-3.8c-1.29,0.68-2.42,1.66-3.67,2.43c-0.71,0.43-1.56,1.06-2.27,0.98
	c-2.92-0.34-5.13,1.17-7.58,2.3c-5,2.3-10.17,4.24-15.24,6.41c-1.8,0.77-3.44,1.9-5.25,2.64c-3.28,1.35-6.74,2.29-9.92,3.84
	c-5.39,2.63-10.59,5.65-15.94,8.39c-4.45,2.28-8.56,4.85-12.45,8.17c-3.22,2.74-5.04,6.48-8.29,9.06c-0.76,0.6-0.48,2.51-0.75,4.31
	c-2.12,2.67-7.22,4.17-6,9.52c0.3,0.18,0.59,0.36,0.89,0.54c0.45-0.9,1.3-1.82,1.26-2.69c-0.09-1.98,0.88-2.46,2.53-2.91
	c1.33-0.36,2.48-1.36,4.47-2.52c2.87,0.75,5.65-0.8,8.38-3.63c2.1-2.18,4.28-5.17,8.4-3.88c1.05,0.33,2.53-0.71,4.25-1.26
	c1,1.92,2.03,3.91,3.07,5.92c-2.22,1.96-2.22,1.96-3.54-1.97c-0.57,0.54-1.23,0.89-1.49,1.44c-2.03,4.23-4.06,8.1-9.58,8.94
	c-4.26,0.65-6.02,4.14-5,7.91c-1.86,0-3.8-0.29-5.6,0.09c-1.42,0.3-2.66,1.43-3.98,2.19c-0.72,0.41-1.43,0.85-2.17,1.23
	c-0.43,0.22-1.26,0.26-1.32,0.52c-0.74,3.19-4.24,3.85-5.72,6.38c-0.79,1.36-1.96,2.54-3.11,3.63c-2.14,2.02-4.41,3.79-4.03,7.35
	c0.1,0.96-1.21,2.47-2.25,3.07c-3.44,1.98-4.45,5.42-4.8,8.73c-0.32,3.1-1.1,5.6-2.99,8.07c-1.02,1.33-1.35,3.33-1.56,5.08
	c-0.33,2.73-1.02,5.06-4.08,6.22c1.4,2.06,0.54,3.42-1.1,4.75c-1.48,1.2-3.15,2.51-2.18,4.95c1.17-0.13,2.22-0.28,3.28-0.36
	c0.19-0.01,0.39,0.26,0.82,0.56c-0.26,0.7-0.58,1.45-0.81,2.22c-0.21,0.67-0.53,1.41-0.43,2.06c0.17,1.12,1.24,2.8,0.86,3.18
	c-1.52,1.53-3.4,2.75-5.26,3.9c-0.74,0.46-1.76,0.45-2.7,0.66c1.52,4.29,2.12,3.93,5.88,3.96c5.56,0.04,11.13,1.09,16.64,2.02
	c1,0.17,1.76,1.81,2.63,2.77c-0.92,0.68-1.75,1.71-2.78,1.98c-2.76,0.74-1.73,3.52-3.67,5.25c1.72,0.35,2.84,0.58,3.96,0.81
	c1.13,3.68,0.41,4.5-3.32,4.5c-2.49,0-5.08-0.19-7.1,2.16c-0.76,0.88-2.66,0.77-4.36,1.18c0.16,0.61,0.43,1.35,0.53,2.11
	c0.21,1.68,0.13,3.23-1.99,3.74c-0.57,0.14-1.28,0.4-1.58,0.83c-2.21,3.31-4.96,6.41-4.96,10.71c0,0.8,0.49,2.04,1.08,2.29
	c0.61,0.25,1.68-0.35,2.44-0.78c0.6-0.34,1-1.4,1.54-1.44c3.49-0.25,5.59-2.81,8.25-4.53c4.88-3.16,8.46-7.31,11.01-12.45
	c0.32-0.65,0.52-1.37,0.7-2.08c0.91-3.59,3.71-6.07,7.38-5.75c1.41,0.13,3.14,1.46,3.92,2.74c1.23,2-0.61,3.68-1.66,5.26
	c-0.42,0.63-1.4,0.88-1.97,1.22c-0.18,1.89-0.53,3.6-0.45,5.3c0.13,2.97-1.08,4.61-4.02,5.17c-0.64,0.12-1.34,0.94-1.65,1.6
	c-1.61,3.41-2.57,6.82-1.76,10.8c0.65,3.2,0.2,6.63,0.2,9.96c0,1.41-0.13,2.81-1.98,3c-1.67,0.18-3.14-1.23-3.4-3.1
	c-0.6-4.38-1.22-8.76-1.86-13.14c-0.1-0.71-0.33-1.4-0.66-2.79c-2.82,1.51-5.38,2.79-7.86,4.22c-1.7,0.98-3.23,2.26-4.96,3.19
	c-1.6,0.86-3.3,1.74-5.06,2.05c-5.73,1.02-8.54-1.38-8.28-7.18c0.11-2.38,0.84-4.78,1.55-7.08c1.01-3.26,1.99-6.57,3.49-9.61
	C766.04,746.89,769.45,742.11,775.43,739.43z M575.99,483.3c-0.86-3.56-1.2-6.4-2.24-8.96c-2.05-5.08-2.33-10.47-3.24-15.75
	c-0.93-5.41-1.63-10.88-2.85-16.23c-0.75-3.25-1.98-6.5-3.57-9.43c-2.23-4.1-2.47-8.41-2.61-12.87c-0.1-3.16-0.52-6.32-0.95-9.46
	c-0.31-2.31,1.58-4.11,3.83-3.46c2.66,0.78,4.17,3.25,3.83,6.37c-0.25,2.32-0.72,4.63-0.85,6.95c-0.36,6.57,2.22,12.08,7.11,16.2
	c1.89,1.59,3.57,3.14,4.18,5.38c1.7,6.21,5.42,11.2,8.93,16.41c1.88,2.8,3.08,6.13,4.16,9.37c1.48,4.41,2.49,8.98,3.83,13.44
	c0.81,2.69,5.9,4.46,7.78,2.45c1.92-2.05,4.23-4.1,4.16-7.5c-0.07-2.94,0.07-5.92,0.5-8.82c0.43-2.84-0.22-4.97-2.14-7.18
	c-1.78-2.04-3.49-4.56-4.07-7.12c-0.92-4.13-0.56-8.44-1.28-12.73c-1.04-6.23-0.47-12.73-0.57-19.12
	c-0.13-8.84-0.35-17.66-2.6-26.32c-0.76-2.94-1.08-6.05-1.23-9.09c-0.23-4.69-1.47-9.11-3.05-13.47c-0.28-0.78-0.89-1.44-1.33-2.17
	c-0.59-0.99-1.13-2.01-1.75-2.97c-0.44-0.68-1.01-1.28-1.48-1.94c-0.55-0.77-1.14-1.53-1.56-2.37c-0.76-1.5-1.13-3.28-2.14-4.56
	c-2.97-3.75-6.27-7.25-9.26-10.99c-1.01-1.26-1.71-2.89-2.17-4.46c-1.1-3.75,1.18-6.9,2.33-10.17c0.75-2.12,2.83-2.33,4.48-0.61
	c1.96,2.03,3.92,4.16,5.38,6.55c6.2,10.15,9.94,21.32,13.17,32.69c0.77,2.71,1.56,5.46,2.76,7.99c2.37,4.99,5.16,9.78,7.54,14.76
	c1.98,4.14,5.26,7.08,8.56,10.01c0.49,0.43,1.83,0.59,2.24,0.24c0.47-0.39,0.51-1.51,0.44-2.29c-0.09-1.07-0.53-2.1-0.66-3.17
	c-0.29-2.29-0.38-4.61-0.74-6.89c-0.82-5.16-1.88-10.29-2.6-15.46c-0.84-6-0.17-12.39-4.84-17.32c-0.4-0.42-0.71-1.05-0.79-1.63
	c-0.56-3.87-1.51-7.75-1.45-11.62c0.09-5.98-0.69-11.5-4.47-16.35c-0.67-0.86-1.06-1.94-1.52-2.94c-1.01-2.2-1.89-4.46-2.97-6.62
	c-2.88-5.8-7.22-10.75-9.56-16.92c-1.28-3.39-3.78-5.99-7.93-6.26c-2.08-0.14-4.13-0.94-6.2-0.97c-6.02-0.11-12.21-0.84-18.03,0.24
	c-9.64,1.79-19.02,4.94-28.59,7.22c-2.42,0.58-5.14,0.27-7.66-0.1c-2.08-0.3-3.46-1.76-3.51-4.13c-0.03-1.64-0.24-3.49,1.65-4.09
	c2.29-0.72,4.56-1.22,7.18-0.46c3.35,0.97,6.97,1.55,10.44,1.41c3.88-0.16,7.8-1.04,11.56-2.08c10.69-2.97,21.42-2.65,32.22-0.91
	c1.44,0.23,2.98-0.13,4.69-0.23c-2.26-6.65-4.2-12.69-6.37-18.65c-1.68-4.6-3.43-9.21-5.54-13.62c-2-4.18-4.51-8.12-6.83-12.14
	c-0.42-0.72-1.03-1.34-1.57-1.98c-1.23-1.47-2.51-2.9-3.72-4.39c-2.52-3.12-5.86-5.62-7.29-9.57c-0.08-0.21-0.37-0.33-0.51-0.53
	c-0.9-1.26-1.96-2.44-2.62-3.82c-1.07-2.21-2.09-4.49-2.72-6.84c-0.65-2.43-1.24-5.02-1.1-7.5c0.28-4.79-0.45-9.26-2.29-13.69
	c-2.45-5.89-4.34-11.96-5.2-18.35c-0.44-3.26-1.37-6.47-2.24-9.66c-1.43-5.2-3.21-10.31-4.43-15.56c-1.42-6.08-2.07-12.23-2.2-18.57
	c-0.18-8.8-1.86-17.57-2.91-26.36c-0.04-0.35-0.24-0.69-0.39-1.02c-1.93-4.32-1.22-8.87-1.01-13.33c0.04-0.92,1.55-2.25,2.57-2.47
	c0.77-0.16,2.38,1,2.68,1.89c0.84,2.54,1.42,5.21,1.7,7.87c0.55,5.12,0.36,10.35,1.34,15.37c1.26,6.43,1.68,12.89,2.29,19.37
	c0.78,8.31,1.71,16.64,3.31,24.82c1.7,8.68,4.18,17.22,6.49,25.77c1.84,6.8,4.32,13.28,9.03,18.79c2.37,2.78,4.37,5.99,5.99,9.28
	c2.39,4.84,4.38,9.88,6.38,14.9c1.86,4.68,3.48,9.44,5.23,14.16c0.85,2.3,1.55,4.68,2.69,6.83c3.49,6.61,8.46,12.37,10.71,19.7
	c1.7,5.52,4.07,10.83,5.71,16.36c1.27,4.27,3.33,7.55,7.45,9.49c4.57,2.16,8.98,4.6,12.48,8.4c1.92,2.08,4.04,3.98,6.02,6
	c4.93,5.06,8.06,11.27,9.97,17.89c2.47,8.55,3.28,17.38,1.82,26.3c-0.57,3.53,0.16,6.8,2.4,9.74c1.17,1.55,2.03,3.35,2.9,5.11
	c4.5,9.16,4.72,19.31,6.06,29.1c1.19,8.69,3.56,16.76,7.41,24.52c3.01,6.05,6.02,12.06,6.59,18.99c0.33,4.04,0.8,8.11,1.77,12.03
	c1.94,7.8,2.15,15.46,0.41,23.37c-0.87,3.97-0.33,8.25-0.34,12.39c0,0.49,0.56,0.99,1.12,1.9c0.96-1.02,1.79-1.7,2.36-2.55
	c0.82-1.21,1.29-2.69,2.21-3.82c6.67-8.23,14.48-15.03,24.53-18.89c4.89-1.88,9.77-2.08,14.01,1.37c7.74,6.31,9.93,14.81,7.02,23.8
	c-1.91,5.92-4.56,11.6-7.01,17.33c-0.97,2.28-1.53,4.43-0.05,6.65c0.99,1.5,0.81,2.86,0.08,4.5c-0.93,2.1-1.54,4.37-2.04,6.61
	c-0.64,2.85,0.48,3.86,3.14,3.1c3.3-0.93,6.35,1.05,7.11,4.44c0.21,0.94,0.78,2.09,1.54,2.56c2.59,1.62,5.29,3.09,8.05,4.41
	c1.41,0.68,3.02,1.04,4.57,1.32c1.6,0.28,2.54-0.47,2.7-2.2c0.2-2.08,0.11-4.34,0.92-6.17c1.85-4.15,1.63-8.43,1.42-12.7
	c-0.27-5.59,0.57-11.05,1.91-16.38c2.25-8.93,6.73-16.79,12.67-23.83c2.78-3.3,5.39-6.79,5.94-11.22c0.72-5.71,1.14-11.45,1.7-17.17
	c0.1-0.97,0.16-1.97,0.43-2.91c1.21-4.11,2.66-8.15,3.7-12.3c1.68-6.66,3.19-13.37,4.6-20.09c0.77-3.69,1.03-7.5,1.79-11.19
	c2.11-10.34,4.41-20.65,6.54-30.99c0.69-3.37,1.08-6.8,1.65-10.19c0.24-1.42,0.9-2.95,2.53-2.46c0.99,0.3,1.68,1.74,2.37,2.76
	c0.23,0.34,0.05,0.96,0.05,1.45c0,2.95-0.17,5.9,0.03,8.83c0.38,5.77,1.63,11.56,1.32,17.27c-0.54,9.79-1.79,19.55-3.13,29.28
	c-1.23,8.87-3,17.67-4.48,26.51c-0.34,2.03-0.22,4.14-0.71,6.12c-1.18,4.78-4.22,8.42-7.39,12.09c-2.76,3.2-5.94,6.1-7.41,10.4
	c-3.08,9.02-6.54,17.9-9.83,26.85c-0.34,0.92-0.8,1.89-0.79,2.83c0.11,6.29-2.79,11.61-5.18,17.14c-1.06,2.45-1.76,5.13-2.21,7.77
	c-0.48,2.82,0.66,4.03,3.47,3.72c1.62-0.18,3.18-1.09,4.69-1.82c0.86-0.41,1.67-1.03,2.35-1.71c1.77-1.79,3.42-3.69,5.18-5.5
	c0.78-0.8,1.91-2.21,2.51-2.04c1.1,0.3,2.33,1.42,2.77,2.5c0.89,2.18-0.2,3.98-1.85,5.56c-1.21,1.15-2.96,2.11-2.64,4.43
	c0.61,0.05,1.09,0.15,1.56,0.12c7.55-0.51,14.87-2.24,21.85-5c5.14-2.03,9.98-4.81,13.84-8.93c2.63-2.8,5.13-5.72,7.75-8.52
	c4.1-4.38,8.8-8.32,12.27-13.15c5.94-8.25,11.24-16.97,16.58-25.64c3.03-4.92,5.81-10.02,8.33-15.22c4.06-8.38,7.65-17,11.75-25.36
	c3.19-6.49,6.84-12.76,10.35-19.08c0.89-1.6,2.17-2.99,3.09-4.58c2.94-5.1,5.8-10.26,8.7-15.39c0.88-1.55,2.07-2.61,3.9-1.51
	c1.86,1.12,1.28,2.77,0.48,4.22c-2.37,4.25-4.79,8.48-7.27,12.67c-1.68,2.84-3.49,5.6-5.24,8.39c-1.7,2.69-3.66,5.25-5.04,8.1
	c-3.19,6.56-6,13.31-9.14,19.89c-3,6.28-6.03,12.55-9.39,18.64c-4.91,8.89-9.72,17.89-15.34,26.34
	c-5.15,7.75-11.27,14.86-17.06,22.18c-1.44,1.82-3.26,3.35-4.9,5.01c0.13,0.23,0.26,0.46,0.39,0.68c1.79-0.28,3.73-0.19,5.33-0.89
	c7.08-3.14,14.26-6.16,21.04-9.87c11.96-6.54,23.67-13.54,35.48-20.36c6.49-3.75,12.98-7.5,19.41-11.33c1.23-0.73,2.72-1.69,3.2-2.9
	c1.49-3.76,2.64-7.66,3.76-11.56c1.51-5.3,2.83-10.65,4.3-15.96c1.61-5.79,4.4-11.3,4.5-17.46c0.12-8.15,1.48-16.1,2.93-24.11
	c1.63-9.07,3.35-18.09,5.78-26.97c0.74-2.71,1.46-5.5,1.59-8.29c0.27-5.75,0.08-11.51,0.18-17.27c0.16-8.98,0.44-17.96,0.58-26.95
	c0.11-7.2,1.45-14.13,3.47-21.04c1.61-5.5,3.91-10.92,3.43-16.89c-0.47-5.86-0.66-11.75-1.22-17.6c-0.39-4.03-1.51-7.99-1.8-12.02
	c-0.71-9.81-1.12-19.65-1.66-29.47c-0.28-5.13-1.26-10.43-4.54-14.17c-6.75-7.7-11.74-16.17-15.34-25.7
	c-2.47-6.55-5.98-12.7-8.6-19.2c-3.2-7.92-9.71-12.87-15.71-18.23c-7.26-6.49-14.7-12.76-19.15-21.69
	c-3.15-6.32-7.64-11.66-11.95-17.19c-3.68-4.72-6.89-9.9-9.69-15.21c-3.07-5.84-5.32-12.11-8.13-18.09
	c-3.18-6.77-6.23-13.63-9.97-20.08c-4.55-7.84-9.67-15.36-14.72-22.89c-2.17-3.23-4.47-6.48-8.67-7.57
	c-0.82-0.21-1.46-1.2-2.14-1.88c-0.86-0.85-1.55-1.93-2.53-2.58c-3.45-2.29-6.91-4.62-10.55-6.59c-2.22-1.21-5.14-1.32-7.09-2.78
	c-3.18-2.39-6.77-3.49-10.4-4.6c-9.86-3.03-19.64-6.64-30.29-5.13c-0.84,0.12-1.72-0.01-2.58-0.07c-6.51-0.44-13.01-1.13-19.52-1.29
	c-12.24-0.31-24.47-2.84-36.76-0.16c-4.68,1.02-9.52,1.23-14.23,2.11c-6.77,1.26-13.49,2.77-20.23,4.2
	c-7.34,1.55-14.72,2.78-22.26,2.99c-3.92,0.11-7.88,0.35-11.72,1.04c-6.05,1.09-12.04,2.52-18.01,3.99
	c-6.32,1.56-12.74,2.79-18.61,5.88c-2.35,1.24-4.92,2.46-7.51,2.8c-13.96,1.88-27.33,6.15-40.79,9.96
	c-5.66,1.6-11.07,4.03-16.64,5.98c-6.93,2.43-13.36,5.54-17.89,11.67c-0.84,1.14-2.35,1.77-3.43,2.76
	c-1.61,1.48-3.17,3.02-4.65,4.63c-1.66,1.8-3.18,3.74-4.81,5.57c-3.85,4.31-7.97,8.41-11.53,12.94c-3.94,5.02-7.43,10.4-11.03,15.68
	c-2.76,4.04-5.43,8.14-8.04,12.28c-3.21,5.08-6.6,10.08-9.4,15.39c-2.33,4.42-4.63,9.08-5.62,13.9c-1.02,4.98-0.48,10.28-0.57,15.44
	c-0.12,6.9-0.07,13.81-0.32,20.7c-0.28,7.87-0.75,15.74-1.23,23.6c-0.34,5.64-0.89,11.28-1.24,16.92
	c-0.45,7.22-1.66,14.53,0.33,21.64c2.25,8.03,4.65,16.05,7.59,23.85c5.75,15.29,8.6,31.21,11.09,47.23
	c0.64,4.13,0.91,8.34,1.82,12.41c2.08,9.25,5.64,18.01,9.2,26.78c2.3,5.65,5.09,11.15,5.56,17.47c0.23,3.01,1.54,5.92,2.12,8.93
	c1.25,6.51,3.04,13.03,3.36,19.6c0.53,10.94,0.2,21.93-0.04,32.89c-0.09,4.04,1.67,6.59,4.63,9.03c5.6,4.61,11.79,8.88,16.16,14.51
	c5.29,6.82,12.56,10.18,19.55,13.98c4.87,2.65,9.91,4.96,14.06,8.62c6.76,5.98,14.65,9.65,23.41,10.9
	c8.13,1.16,16.41,1.29,24.63,1.87c2.45,0.17,4.91,0.31,7.36,0.52c3.43,0.28,6.88,0.96,10.29,0.78c1.85-0.1,4.47-1.15,5.24-2.58
	c1.2-2.23-1.5-3.14-3.09-4.19C575.72,483.06,575.64,482.95,575.99,483.3z M474.15,549.24c0.44,1.65,0.73,3,1.17,4.3
	c1.25,3.7,5.09,6.04,5.42,10.26c0.02,0.3,0.51,0.53,0.68,0.85c0.9,1.72,2,3.38,2.59,5.2c0.9,2.79,1.63,5.68,2.05,8.58
	c0.16,1.1-0.41,2.75-1.23,3.46c-1.63,1.39-1.97,2.79-1.04,4.52c2.96,5.5,3.95,11.76,6.92,17.28c2.97,5.5,5.45,11.26,8.23,16.87
	c1.13,2.29,2.71,4.37,3.64,6.72c1.36,3.42,2.29,7.01,3.46,10.51c2.37,7.08,4.37,14.31,7.28,21.16c3.02,7.1,4.87,14.37,5.76,21.97
	c0.15,1.28,0.99,2.49,1.52,3.72c0.34,0.78,0.94,1.52,1.03,2.32c0.92,7.93,5.7,13.94,10.86,19.2c4.71,4.8,10.14,8.92,14.44,14.21
	c0.83,1.02,2.12,1.66,3.18,2.5c4.52,3.57,9.3,6.85,13.47,10.79c5.41,5.13,12.41,7.83,18.02,12.59c0.79,0.67,2.04,0.79,3.08,1.19
	c1.14,0.44,2.42,0.71,3.4,1.4c5.61,3.98,11.94,6.14,18.46,8.08c6.32,1.88,12.57,1.68,19,1.22c5.5-0.39,11.15-0.72,16.55,0.15
	c8.16,1.31,16.26,2.47,24.54,2.51c3.54,0.02,7.06,0.76,10.6,1.08c4.73,0.43,9.35,1.4,14.2-0.25c7.09-2.41,13.26-7.05,20.82-8.28
	c1.35-0.22,2.62-1.35,3.77-2.25c2.99-2.33,5.96-4.7,8.81-7.19c1.75-1.52,3.54-3.12,4.85-5c3.85-5.51,7.37-11.25,11.23-16.75
	c2.8-4,5-8.43,8.7-11.81c1.96-1.8,4.02-3.81,5.12-6.16c1.92-4.13,6.55-6.55,7.04-11.5c0.03-0.27,0.59-0.44,0.78-0.74
	c1.23-1.95,2.39-3.95,3.65-5.89c1.12-1.72,2.03-3.77,3.58-4.96c1.74-1.34,2.39-2.96,2.23-4.74c-0.2-2.3,0.52-3.76,2.44-4.88
	c2.05-1.19,3.07-3.02,3.25-5.43c0.09-1.19,0.41-2.47,1.01-3.49c2.17-3.69,4.25-7.47,6.82-10.88c4.8-6.35,8.82-13.21,13.72-19.51
	c4.09-5.26,6.81-11.62,9.93-17.6c1.15-2.2,1.27-5.02,4.71-5.2c0.55-0.03,1.09-1.23,1.55-1.93c1.08-1.64,2.16-3.29,3.16-4.99
	c1.62-2.74,3.31-5.45,4.75-8.29c3.22-6.36,3.98-13.62,8.43-19.69c5.48-7.47,9.61-15.92,14.51-23.83c2.51-4.05,5.53-7.77,8.12-11.77
	c1.26-1.94,1.99-4.2,3.09-6.25c6.98-13.15,14-26.27,20.98-39.43c0.52-0.98,0.74-2.12,1.21-3.54c-1.23,0-1.94-0.22-2.38,0.04
	c-3.06,1.82-6.08,3.71-9.09,5.61c-2.89,1.83-5.71,3.78-8.64,5.54c-5.48,3.27-11.01,6.44-16.53,9.65c-4.23,2.46-8.38,5.06-12.7,7.35
	c-7.01,3.73-14.15,7.24-21.21,10.88c-2.72,1.4-5.49,2.76-8.04,4.44c-2.42,1.59-5.29,3.15-6.66,5.49c-1.55,2.64-3.34,3.68-6.05,3.96
	c-1.45,0.15-2.92,0.11-3.7,1.86c-0.26,0.57-1.44,0.7-2.17,1.1c-2.95,1.62-6.35,2.83-7.27,6.6c-0.8,3.29-1.39,6.63-2.14,10.29
	c-1.56,0.46-3.74,0.91-5.76,1.75c-2.13,0.88-4.22,1.97-6.13,3.26c-2.31,1.56-4.63,2.09-7.34,1.42c-1.02-0.25-2.21-0.15-3.26,0.08
	c-2.52,0.56-3.45,2.85-2.09,5.04c0.38,0.62,0.95,1.14,1.49,1.64c4.61,4.23,9,8.61,11.67,14.43c0.59,1.28,1.53,2.35,0.35,3.64
	c-1.26,1.37-2.78,1.45-4.36,0.55c-2.24-1.27-4.43-2.64-6.72-3.81c-1.12-0.58-2.41-0.81-4.04-1.34c0,5.92-0.16,11.29,0.11,16.63
	c0.07,1.35,0.91,2.86-0.59,3.5c-1.03,0.44-2.95,0.35-3.69-0.34c-1.92-1.81-3.72-3.91-4.96-6.22c-1.19-2.21-1.64-4.82-2.4-7.25
	c-1.92-6.2-3.75-12.43-5.8-18.59c-0.75-2.23-1.57-4.77-3.18-6.31c-2.41-2.3-5.52-3.93-9.27-4.17c0,1.12-0.21,2.15,0.03,3.05
	c1.21,4.51,2.54,8.98,3.82,13.47c1.54,5.39,2.99,10.8,4.62,16.15c0.93,3.04,2.87,5.95,3.04,9c0.23,3.95,2.04,6.94,3.63,10.25
	c1.63,3.41,3.15,7,3.89,10.68c1.28,6.38,1.94,12.88,2.82,19.34c0.18,1.34,0.24,2.7,0.31,4.05c0.08,1.52-0.49,3.01-2.06,2.93
	c-1.07-0.05-2.59-1.04-3.03-2.01c-1.15-2.55-2.03-5.28-2.65-8.02c-2.02-8.85-3.64-17.81-5.92-26.59c-0.98-3.78-1.14-8.2-4.79-10.85
	c-3.73-2.71-6.71-6.02-8.92-10.09c-1.76-3.23-3.83-6.29-5.64-9.49c-0.9-1.59-0.52-3.16,0.95-4.27c1.46-1.1,2.49-0.12,3.46,0.94
	c0.87,0.96,1.77,1.87,2.66,2.81c0.29-0.13,0.57-0.27,0.86-0.4c-1.51-3.48,1.28-7.81-2.79-10.81c-0.3-0.22-0.18-0.94-0.38-1.38
	c-0.62-1.41-1.3-2.79-1.94-4.19c-0.44-0.96-0.96-1.91-1.24-2.92c-0.76-2.8-1.16-5.72-2.17-8.42c-1.35-3.62-1.44-3.87,2.06-5.34
	c1.52-0.64,2.57-1.99,1.22-3.03c-2.54-1.94-2.78-4.8-3.94-7.3c-0.33-0.71-1-1.72-1.58-1.76c-3.34-0.25-4.54-3.02-6.49-4.99
	c-1.96-1.98-2.42-4.14-1.93-6.74c0.31-1.67,1.15-3.77,0.49-4.99c-1.79-3.33-0.19-5.94,0.87-8.78c0.47-1.25,0.75-2.58,1.25-3.81
	c2.09-5.18,4.05-10.43,6.42-15.49c2.57-5.49,3.7-10.99,0.86-16.59c-0.94-1.86-2.82-3.24-4.29-4.83c-4.15-4.48-4.78-4.58-10.39-1.79
	c-0.55,0.27-1.11,0.57-1.69,0.74c-8.85,2.56-14.36,9.4-20.13,15.85c-1.17,1.31-1.28,3.53-2.39,4.93c-2.72,3.45-4.04,7.14-3.48,11.56
	c0.16,1.29-0.29,2.68-0.58,3.99c-0.3,1.35-1.23,1.74-2.53,1.32c-2.76-0.88-5.04-4.33-5.28-7.35c-0.2-2.52-0.88-4.99-1.32-7.49
	c-0.17-0.93-0.42-1.88-0.37-2.81c0.41-7.41,0.98-14.82,1.3-22.23c0.14-3.2-0.03-6.44-0.41-9.63c-0.51-4.26-1.95-8.49-1.91-12.73
	c0.05-6.68-2.22-12.46-5.5-17.94c-2.05-3.42-3.72-6.9-4.47-10.83c-0.3-1.55-0.86-3.05-1.26-4.58c-0.63-2.38-1.87-4.37-3.15-6.48
	c-1.14-1.88-0.2-4.96-0.37-7.5c-0.18-2.87-0.58-5.73-0.86-8.59c-0.36-3.63-0.58-7.28-1.08-10.89c-0.22-1.58-0.97-3.09-1.48-4.64
	c-2.48,0.78-2.1,2.51-2.04,3.86c0.43,8.97,0.89,17.94,1.49,26.9c0.2,2.95,0.98,5.86,1.17,8.81c0.09,1.44-0.1,3.39-0.99,4.3
	c-1.33,1.36-3.21,0.59-4.71-0.51c-0.8-0.58-1.63-1.1-2.5-1.68c-0.72,1.99-1.32,3.42-1.76,4.91c-0.55,1.83-1.22,3.67-1.39,5.55
	c-0.61,7.08-0.42,14.26-2.8,21.12c-0.38,1.08-0.43,2.57,0,3.59c1.26,2.95,0.74,5.22-1.24,7.77c-2.52,3.24-2.22,3.7,0.23,7.3
	c2.5,3.67,3.24,7.32,1.21,11.74c-1.81,3.95-2.57,8.4-3.72,12.65c-0.67,2.48-1.02,5.06-1.8,7.5c-1.8,5.64-2.08,11.27-0.4,16.97
	c0.59,2.01,1.44,3.98,1.71,6.03c0.54,4.14,0.95,8.31,0.98,12.48c0.01,1.09-1.38,2.94-2.39,3.14c-1.81,0.36-3.12-1.07-3.54-2.98
	c-0.08-0.35,0.03-0.74-0.03-1.1c-0.65-4.01-1.18-8.04-2.03-12.01c-0.8-3.71-1.87-7.41-6.73-7.66c-0.4,1.26-0.44,3.22-1.24,3.6
	c-2.58,1.23-2.27,3.33-2.22,5.36c0.18,6.75,0.28,13.46-1.32,20.12c-0.8,3.35-2.71,4.84-6.1,3.84c-1.95-0.57-3.84-1.31-5.15-1.77
	c-1.31,0.75-2.37,1.88-3.17,1.72c-1.76-0.35-0.87-1.87-0.73-3.04c0.27-2.32-1-4.11-4.01-5.29c0.12,1.38,0.14,2.51,0.34,3.62
	c0.49,2.78,1.25,5.52,1.54,8.31c0.22,2.19-0.24,4.34-3.05,5.05c-0.86-1.8,0.08-4.59-3.02-4.41c0.22-1.39,0.4-2.49,0.57-3.59
	c-0.32-0.11-0.64-0.22-0.95-0.33c-0.55,1.16-1.1,2.32-1.72,3.63c-1.14,0.19-2.6,0.44-4.56,0.77c1.82,1.46,3.05,2.45,4.84,3.88
	c-1.8,0.37-2.75,0.5-3.66,0.77c-0.86,0.26-1.67,0.68-3.26,1.35c1.4,0.72,2.08,1.37,2.76,1.37c1.45,0,3.01-0.07,4.34-0.58
	c1.96-0.76,2.98-0.28,3.65,1.66c-0.67,0.54-1.3,0.94-1.8,1.47c-3.74,3.89-4.38,4.02-8.96,1.03c-1.51-0.99-2.75-0.74-4.07,0.13
	c-0.95,0.63-1.89,1.28-3.32,2.26c-0.94-3.95,4.35-6.13,1.28-10.06c-2.31,2.24-3.83,4.74-4.88,7.88c-3.37-2.02-6.2,1.18-9.6,1.64
	c1.47-4.31,1.47-4.31-3.08-5.11c-1.85-0.32-2.6-1.96-1.51-3.59c0.53-0.79,1.38-1.38,2.11-2.04c1.55-1.4,2.75-2.96,2.83-5.67
	c-2.47,0.62-4.56,0.9-6.45,1.66c-6.96,2.79-13.81,5.84-20.79,8.56c-1.88,0.73-4.08,0.92-6.12,0.87c-2.27-0.05-2.95-1.77-1.5-3.55
	c1.31-1.61,2.92-2.98,4.32-4.53c0.64-0.71,1.09-1.59,2.14-3.15c-2.23,0.24-3.42,0.43-4.61,0.49c-3.07,0.15-6.16,0.48-9.2,0.22
	c-1.11-0.1-2.4-1.52-2.97-2.66c-0.24-0.48,1.01-2.13,1.92-2.66c3.49-2,7.17-3.67,10.66-5.67c1.29-0.74,3.09-1.97,3.21-3.12
	c0.28-2.85,2.05-3.22,4.15-3.81c7.57-2.13,15.12-4.35,22.65-6.6c3.65-1.09,7.26-2.31,10.88-3.49c2.68-0.87,5.39-1.66,8.01-2.68
	c1.57-0.61,2.35-3.09,1.75-4.79c-0.62-1.77-2.07-1.46-3.4-1.26c-1.42,0.22-2.86,0.76-4-0.79c1-0.74,1.87-1.38,3.43-2.54
	c-5.47-1.66-10.19-2.97-14.83-4.52c-4.97-1.66-10.2-3.03-12.7-8.46c-0.14-0.31-0.5-0.54-0.81-0.74c-4.12-2.73-8.22-5.51-12.4-8.15
	c-1.32-0.83-3.17-0.98-4.28-1.98c-3.52-3.21-8.07-5.22-10.83-9.35c-0.51-0.77-1.48-1.3-2.34-1.76c-3.44-1.82-6.97-3.48-10.38-5.36
	c-4.4-2.42-8.67-5.06-13.07-7.48c-5.07-2.79-10.22-5.45-15.33-8.16c-0.3,0.2-0.6,0.4-0.9,0.59c0.17,1.87,0.1,3.81,0.57,5.61
	c1.21,4.63,2.94,9.14,3.96,13.81c1.77,8.16,3.4,16.36,2.89,24.81c-0.1,1.59,0.05,3.2,0.22,4.79c0.31,2.91,0.96,5.8,1,8.7
	c0.04,3.19,0.81,5.96,2.41,8.74c2.51,4.35,4.8,8.77,5.53,13.96c0.59,4.16,1.23,8.62,5.28,11.36c0.34,0.23,0.27,1.07,0.38,1.58
	C480.23,552.13,477.85,549.03,474.15,549.24z M461.09,580.1c-0.16-0.47-0.32-0.94-0.49-1.41c1.03-0.69,1.97-1.6,3.1-2.03
	c1.48-0.56,3.11-0.72,4.67-1.08c4.56-1.05,5.56-3.13,3.79-7.5c-0.96-2.38-1.73-4.83-2.5-7.28c-1.2-3.84-1.78-7.99-3.6-11.49
	c-2.75-5.28-5.76-10.52-10.29-14.66c-2.26-2.06-4.37-4.34-6.22-6.77c-3.36-4.4-7.45-7.75-12.51-10.02c-2.22-1-4.42-2.18-6.38-3.63
	c-6.05-4.48-12.86-7.28-20.11-8.76c-8.29-1.7-16.69-2.83-25.06-4.1c-1.69-0.26-3.54-0.42-5.15,0c-6.18,1.61-12.45,3.05-18.38,5.35
	c-8.83,3.43-17.49,7.33-26.04,11.42c-5.86,2.8-11.6,6-14.8,12.21c-1.57,3.05-3.2,6.11-5.18,8.89c-4.73,6.64-8.01,14.02-11.72,21.21
	c-4.88,9.45-5,19.43-4.26,29.49c0.56,7.56,1.92,15.07,3.12,22.57c0.84,5.21,1.58,10.5,3.15,15.51c2.23,7.12,5.36,13.95,7.77,21.02
	c2.37,6.96,4.87,13.96,6.3,21.14c1.69,8.46,3.87,16.72,6.69,24.84c1.33,3.83,2.78,7.63,4.42,11.33c2.49,5.6,4.78,11.38,9.61,15.52
	c5.7,4.89,12.16,8.21,19.62,9.57c3.62,0.66,7.26,1.48,10.73,2.69c6.4,2.23,12.9,1.47,19.39,1.16c1.76-0.09,3.07-0.93,3.85-2.88
	c1.61-4.01,3.17-7.94,2.8-12.41c-0.21-2.57-0.13-5.18-0.02-7.76c0.16-3.63,2.32-4.93,5.42-2.95c2.14,1.36,4.01,3.26,5.69,5.18
	c5.82,6.65,11.5,13.42,17.23,20.15c1.78,2.09,3.8,3.72,6.45,4.74c1.9,0.73,3.61,2.1,5.2,3.43c4.23,3.55,8.31,7.28,12.57,10.8
	c0.67,0.55,2.65,0.79,2.79,0.52c1.75-3.32,3.96-6.65,4.57-10.23c0.31-1.82,0.06-3.97,0.8-5.86c1.19-3.04,1.99-5.99,0.49-9.25
	c-0.33-0.72,0.51-2.43,1.31-3.05c0.57-0.44,2.22-0.14,2.94,0.42c1.64,1.27,3.17,2.78,4.45,4.41c2.98,3.81,6.81,6.5,11.21,8.16
	c4.03,1.52,6.33,4.86,9.32,7.49c1.91,1.68,3.91,3.27,5.99,4.71c1.61,1.12,3.29,0.94,4.63-0.62c2.57-2.96,5.31-5.81,7.64-8.95
	c4.43-5.99,3.05-13,2.56-19.62c-0.47-6.27-3.16-12.02-6.36-17.45c-1.07-1.82-0.02-3.51,2.19-3.26c1.93,0.22,3.82,0.86,5.72,1.33
	c1.86,0.46,3.71,0.92,6,1.49c0.35-2.06,1.01-3.65,0.8-5.12c-0.5-3.38-0.98-6.88-2.27-9.99c-2.15-5.2-4.56-10.24-5.98-15.75
	c-0.87-3.38-2.81-6.48-4.28-9.69c-0.66-1.45-1.44-2.86-2.03-4.34c-1.4-3.51-2.52-7.13-4.1-10.56c-2.63-5.71-4.86-11.48-5.98-17.72
	c-0.69-3.83-2.78-7.49-3.04-11.31c-0.58-8.47-4.48-15.76-7.31-23.44c-1.81-4.92-4.04-9.69-5.82-14.63c-0.6-1.67-1.35-2.64-3.06-2.49
	c-2.68,0.23-5.35,0.65-8.03,0.95C463.8,579.91,462.44,579.99,461.09,580.1z M612.83,455.5c0.8-0.98,1.52-1.45,1.62-2.03
	c1.14-6.66,2.27-13.31,3.22-20c0.77-5.47,0.85-11.09,2.11-16.43c0.68-2.88-0.13-4.08-1.91-5.91c-4.05-4.19-9.22-7.43-11.54-13.18
	c-0.57-1.42-1.66-2.63-2.98-4.67c-0.1,1.48-0.21,2.05-0.16,2.6c0.93,10.65,1.58,21.34,2.92,31.94c0.97,7.65,2.8,15.2,4.4,22.76
	C610.85,452.16,611.91,453.59,612.83,455.5z M603.98,304.66c-0.31,0.22-0.62,0.45-0.93,0.67c0.33,1.35,0.59,2.71,1,4.03
	c1.16,3.73,2.38,7.43,3.57,11.15c0.74,2.31,1.32,4.69,2.22,6.94c1.13,2.83,2.7,5.49,3.73,8.35c1.85,5.1,5.36,9.03,8.81,13
	c0.61,0.69,2.09,1.22,2.89,0.96c0.68-0.22,1.33-1.64,1.39-2.58c0.41-5.94-0.73-11.7-2.42-17.35c-2.36-7.9-7.56-13.93-13.29-19.53
	C608.82,308.23,606.31,306.53,603.98,304.66z M772.14,394.77c-0.16,0.32-0.39,0.62-0.46,0.95c-1.98,9.18-3.9,18.37-5.94,27.54
	c-1.61,7.26-2.54,14.62-5.11,21.73c-1.84,5.09-2.16,10.77-2.83,16.23c-0.23,1.88,0.5,3.88,0.86,6.23c1.69-2.07,2.97-3.55,4.16-5.1
	c1.58-2.05,2.67-4.24,2.99-6.95c0.88-7.52,1.79-15.06,3.2-22.5c1.65-8.68,3.37-17.31,2.87-26.21c-0.05-0.93,0.31-1.92,0.62-2.84
	C773.5,400.87,773.34,397.89,772.14,394.77z M569.84,500.78c2.32-2.33,2.32-3.82-0.04-4.58c-2.14-0.68-4.54-0.51-6.8-0.85
	c-3.12-0.47-6.21-1.23-9.34-1.6c-4.74-0.55-9.51-0.87-14.26-1.28c-0.85-0.07-1.72-0.19-2.56-0.08c-1.85,0.24-2.13,1.53-1.53,2.98
	c0.31,0.74,1.07,1.3,1.68,1.9c2.86,2.78,6.13,4.8,10.02,5.87c4.96,1.36,9.87,2.89,14.8,4.32c0.58,0.17,1.21,0.28,1.82,0.28
	c2.87,0,4.1-1.85,3.1-4.57c-1.26-3.4-0.85-4.85,1.74-5.7C568.87,498.43,569.27,499.42,569.84,500.78z M410.37,160.8
	c-0.39-0.07-0.79-0.14-1.18-0.2c-1.91,6.4-4.88,12.7-5.51,19.22c-1.11,11.56-0.21,23.21,3.02,34.52c0.1,0.35,0.65,0.56,0.78,0.67
	c0.39-3.11,0.83-6.14,1.13-9.17c0.31-3.05,0.52-6.1,0.71-9.16c0.11-1.71-0.11-3.47,0.16-5.15c1.53-9.52,1.36-19.09,1.23-28.67
	C410.7,162.15,410.49,161.48,410.37,160.8z M615.1,349.44c-0.2,2.61-0.89,5.18,0.83,7.18c4.47,5.21,3.91,11.53,4.54,17.69
	c0.59,5.79,1.87,11.52,2.88,17.27c0.08,0.46,0.53,0.84,0.67,1.31c0.43,1.5,1,3,1.15,4.54c0.41,4.37,0.6,8.76,0.99,13.13
	c0.06,0.64,0.69,1.23,1.06,1.85c0.59-1.66,0.67-3.1,0.58-4.52c-0.36-5.51-0.83-11.02-1.16-16.53c-0.21-3.55-0.48-7.13-0.32-10.67
	c0.19-4.29-2.42-8.6,0.11-12.88c0.19-0.33-0.01-0.99-0.2-1.42c-1.08-2.43-1.93-5.04-3.4-7.22
	C620.59,355.89,617.91,352.93,615.1,349.44z M579.09,468.32c3.02-4.41,2.95-4.7-0.4-7.72c-0.59-0.53-1.38-1.53-1.23-2.09
	c1.16-4.31-1.97-6.99-3.67-10.22c-0.61,13.54,2.98,25.86,10.45,37.14c3.04-2.83,2.87-6.04,1.67-9.32c-0.89-2.43-2-4.78-2.96-7.06
	C581.98,468.87,580.8,468.64,579.09,468.32z M462.92,494.95c0.9-10.45-5.39-35.61-10.98-43
	C454.56,467.15,457.19,481.44,462.92,494.95z M466.8,535.95c-0.45-4.47-0.74-8.28-1.24-12.06c-0.44-3.27-1.03-6.52-1.71-9.74
	c-0.48-2.27-0.86-4.7-3.16-6.18C456.56,515.59,459.7,531.29,466.8,535.95z M752.98,553.28c1.46-0.86,3.95-2.15,6.22-3.75
	c0.5-0.35,0.54-1.88,0.25-2.66c-0.2-0.53-1.44-1.13-2.05-0.99c-5.09,1.2-10.16,2.51-15.2,3.93c-0.56,0.16-1.05,1.2-1.19,1.91
	c-0.05,0.25,1.02,1.01,1.62,1.05C745.68,553.01,748.75,553.09,752.98,553.28z M522.72,553.25c0.19,0.24,0.38,0.48,0.58,0.72
	c3.73-0.07,21.44-7.93,23.76-10.61c-1.55-2.02-3.37-0.81-4.92-0.22c-4.67,1.76-9.37,3.51-13.86,5.67
	C526.2,549.82,524.56,551.74,522.72,553.25z M541.63,535.39c-0.23-0.5-0.46-1-0.69-1.5c-4.17,3.44-9.55,3.05-14.07,5.37
	c-0.32,0.17-0.63,0.37-0.97,0.51c-1.62,0.7-3.21,1.51-4.89,2.03c-2.07,0.65-4.13,1.18-5.05,3.74c3.78,1.38,7,0.11,10.07-1.29
	c3.04-1.38,5.58-3.63,8.9-4.68C537.36,538.82,539.41,536.84,541.63,535.39z M562.83,232.34c-2.61-5.85-5.19-11.72-7.87-17.53
	c-0.19-0.41-1.16-0.47-1.84-0.71C552.37,220.35,557.17,230.14,562.83,232.34z M721.79,555.09c2.68,3.28,5.05,6.3,7.54,9.21
	c1.13,1.33,3.23,0.69,3.79-1.03c0.82-2.54-0.15-4.68-2.64-5.92c-0.64-0.32-1.25-0.74-1.8-1.19
	C726.62,554.48,724.41,553.96,721.79,555.09z M609.6,498.66c2.12-5.78,4.31-11.54,6.32-17.36c0.62-1.79,0.98-3.78-1.1-6.1
	c-1.01,2.91-2.1,5.3-2.66,7.82C611.02,488.18,608.86,493.17,609.6,498.66z M735.68,578.26c2.3,5.44,0.66,11.57,5.28,15.95
	c0-3.37-0.24-6.4,0.05-9.38C741.5,579.83,741.22,579.24,735.68,578.26z M410.18,132.1c-3.28,8-4.31,14.16-3.24,18.61
	C409.55,144.4,411.77,138.58,410.18,132.1z M736.46,511.93c0.26,0.06,0.52,0.11,0.78,0.17c1.09-3.53,2.18-7.07,3.28-10.6
	c-0.28-0.08-0.56-0.16-0.84-0.24C737.87,504.59,735.48,507.73,736.46,511.93z M448.25,426.08c0.57-3.35,1.53-5.95-0.19-8.65
	C445.82,420.02,445.8,421.62,448.25,426.08z M578.38,340.49c-0.15,2.81,0.33,3.62,3.01,5.2
	C582.45,342.65,581.67,341.31,578.38,340.49z M502.77,644.9c-0.07,4.39,1.24,7.42,3.91,8.97
	C505.33,650.8,504.21,648.21,502.77,644.9z"/>
<path d="M803.03,715.17c1.54-3.39,0.65-5.23-1.69-6.67c-1.73-1.06-2.32-2.83-2.06-4.82c0.56-4.33,6.44-11.41,11.03-13.31
	c1.25,1.35,0.39,2.28-0.45,3.47c-2.04,2.89-3.95,5.88-5.72,8.94c-0.39,0.67-0.13,1.86,0.13,2.72c0.2,0.65,0.91,1.14,1.35,1.73
	C808.23,710.77,807.86,712.28,803.03,715.17z"/>
<path d="M650.23,779.97c-5.55-0.47-9.88,0.95-13.68,4.32c-0.69,0.61-2.75,0.47-3.68-0.12c-2.76-1.74-5.46-2.97-8.87-3.03
	c-1.52-0.03-2.97-1.89-4.53-2.77c-1.11-0.62-2.34-1.29-3.55-1.38c-2.32-0.16-3.19-1.16-3.36-3.45c-0.08-1.12-1.07-2.22-1.8-3.22
	c-0.83-1.14-1.96-2.08-2.72-3.26c-0.98-1.52-1.61-3.28-2.6-4.79c-0.95-1.44-0.88-2.45,0.86-3.45c1.2,1,2.28,1.72,4.32,1
	c1.84-0.65,4.28,0.34,6.43,0.7c0.71,0.12,1.34,0.64,2.05,0.79c7.77,1.56,15.53,3.17,23.33,4.58c3.07,0.56,4.2,1.5,4.94,4.48
	C648.11,773.41,649.14,776.39,650.23,779.97z"/>
<path d="M552.54,619.24c-0.59-2.12-1.15-3.58-1.39-5.09c-0.49-3.1-0.42-3.1-3.86-3.21c-0.31-0.01-0.62-0.28-0.96-0.45
	c2.27-2.28,8.92-2.89,12.95-1.06c-0.91,0.45-1.76,0.66-2.27,1.19c-0.78,0.83-2.07,2.15-1.84,2.79
	C556.08,615.91,554.65,617.17,552.54,619.24z"/>
<path d="M546.13,623.21c0.63-0.47,1.22-1.19,1.97-1.4c0.72-0.2,1.74-0.09,2.32,0.32c0.42,0.3,0.65,1.43,0.43,1.99
	c-1.13,2.91-2.4,5.77-3.7,8.61c-0.22,0.47-0.83,0.77-1.36,1.24c-1.2-2.03-2.26-3.84-3.33-5.64c0.16-0.22,0.32-0.43,0.47-0.65
	c1.13,0.46,2.26,0.93,3.39,1.39C547.91,626.77,547.91,626.77,546.13,623.21z"/>
<path d="M633.04,790.18c-1.94,1.16-3.48,0.86-4.48-0.91c-0.31-0.54-0.05-1.64,0.34-2.23c0.17-0.27,1.53-0.17,1.94,0.21
	C631.68,788.03,632.26,789.11,633.04,790.18z"/>
</svg>
