<?xml version="1.0" encoding="utf-8"?>
<!-- Generator: Adobe Illustrator 24.1.0, SVG Export Plug-In . SVG Version: 6.00 Build 0)  -->
<svg version="1.1" id="Layer_1" xmlns="http://www.w3.org/2000/svg" xmlns:xlink="http://www.w3.org/1999/xlink" x="0px" y="0px"
	 viewBox="0 0 1224 792" style="enable-background:new 0 0 1224 792;" xml:space="preserve">
<path d="M746.19,6.42c-0.26,5.1-0.48,10.2-0.8,15.3c-0.09,1.44-0.31,2.92-0.77,4.27c-1.79,5.28-3.64,10.54-5.59,15.77
	c-3,8.06-6.41,15.99-9.01,24.18c-1.17,3.7-0.83,7.88-1.13,11.85c-0.16,2.14-0.02,4.32-0.35,6.43c-0.51,3.24-1.57,6.4-1.9,9.64
	c-0.34,3.38-1.51,6.32-3.06,9.25c-2.21,4.18-4.06,8.57-6.38,12.68c-2.21,3.9-4.77,7.6-7.3,11.3c-5.68,8.31-11.46,16.55-17.14,24.86
	c-3.63,5.3-7.23,10.63-10.7,16.03c-2.81,4.38-5.43,8.89-8.1,13.36c-4.57,7.68-7.39,16.09-10.21,24.51
	c-0.85,2.53-1.84,5.02-2.95,7.43c-4.16,9.04-7.67,18.32-10.8,27.75c-1.15,3.46-2.21,6.96-3.58,10.33
	c-2.34,5.76-2.15,11.93-3.19,17.89c-0.23,1.32-0.45,2.64-0.66,3.96c-0.67,4.3-1.36,8.59-2,12.9c-1.29,8.68-3.8,17.02-6.87,25.22
	c-2.18,5.8-4.39,11.59-6.25,17.49c-1.71,5.43-2.99,11-4.43,16.52c-0.17,0.67-0.11,1.4-0.14,1.77c1.55,0.53,3.39,0.6,3.98,1.49
	c1.16,1.74-0.88,2.67-1.84,3.83c-0.44,0.53-0.77,1.16-1.24,1.89c1.44,1.07,2.51,0.43,3.77-0.06c7.43-2.9,13.64-7.79,20.07-12.29
	c2.48-1.73,4.85-3.63,7.38-5.28c2.73-1.78,5.32-3.88,8.68-4.49c0.7-0.13,1.39-0.48,1.99-0.89c7.33-4.93,15.74-6.96,24.2-8.56
	c6.24-1.18,11.67-4,17.17-6.86c2.26-1.18,1.78-2.93,1.09-4.69c-0.73-1.85-1.2-3.53,1.58-4.6c0.9,1.28,1.84,2.63,2.89,4.12
	c1.53-0.17,2.16-1.2,2.41-2.62c0.25-1.42,1.05-2.24,2.52-1.97c1.65,0.3,1.44,1.6,1.4,2.87c-0.32,8.75,0.18,17.45,1.23,26.16
	c0.98,8.14,3.61,15.55,7.67,22.6c1.87,3.24,3.22,6.78,4.85,10.16c0.9,1.85,2.18,2.48,4.42,2.05c3.67-0.7,7.44-1,11.19-1.24
	c4.27-0.28,5.18-0.84,5.78-4.95c0.98-6.74,1.27-13.49,0.85-20.32c-0.3-4.83,0.06-9.72,0.4-14.56c0.28-3.99,0.73-7.99,1.49-11.92
	c1.96-10.11,1.22-20.32,1.75-30.49c0.39-7.4-0.23-14.8,0.54-22.17c0.11-1.07-0.15-2.17-0.19-3.26c-0.18-4.12-0.23-8.25-0.52-12.36
	c-0.68-9.55,0.25-19.21-2.13-28.64c-0.32-1.27-0.45-2.69-0.27-3.98c1.07-7.59-0.43-15.33,1.44-22.9c0.63-2.53,0.3-5.3,0.4-7.96
	c0.24-5.94,0.44-11.88,0.73-17.82c0.15-3.03,0.45-6.05,0.66-9.08c0.55-7.88,1.09-15.77,1.61-23.66c0.05-0.72,0.01-1.48-0.17-2.17
	c-2.39-9.37-2.31-19.05-3.69-28.54c-0.54-3.72-1.51-7.37-2.25-11.05c-0.36-1.78-0.77-3.58-0.86-5.39c-0.05-1,0.2-2.37,0.86-2.98
	c1.53-1.42,1.28-2.86,1.04-4.64c-0.84-6.14-1.46-12.3-2.17-18.45c-0.11-0.96-0.06-2.03-0.48-2.86c-2.78-5.5-2.28-11.84-4.56-17.48
	c-0.5-1.24-1.14-3.51,0.98-4.07c2.24-0.6,2.32,1.81,2.76,3.1c2.82,8.28,4.92,16.69,5.64,25.49c0.51,6.24,2.19,12.38,3.2,18.59
	c0.95,5.87,1.88,11.74,2.51,17.65c0.74,6.88,1.31,13.79,1.64,20.7c0.24,4.98-0.09,9.98-0.09,14.96c0,5.22,0.07,10.4,1.2,15.6
	c0.99,4.6,1.06,9.41,1.53,14.12c0.67,6.77,1.33,13.54,2.02,20.31c1.84,18.03,3.62,36.07,3.43,54.24c-0.03,2.54,0.17,5.13,0.64,7.63
	c1.73,9.22,2.74,18.51,3.41,27.86c0.29,3.99,0.97,7.97,1.6,11.93c1.28,8.1,1.02,16.21,0.78,24.36c-0.32,10.56,0.09,21.13-0.11,31.69
	c-0.13,6.8-0.79,13.59-1.17,20.39c-0.16,2.79-0.27,5.59-0.34,8.38c-0.14,5.71-0.24,11.42-0.32,17.13c-0.01,0.58,0.15,1.16,0.29,2.14
	c15.75-0.45,31.36-0.89,47.33-1.35c0.78-2.88,1.9-6.1,2.5-9.41c1.39-7.65,2.43-15.36,3.82-23.01c1.09-5.96,2.65-11.82,3.72-17.78
	c1.01-5.62,1.55-11.32,2.48-16.96c1.62-9.83,3.06-19.71,5.16-29.43c2.46-11.37,5.28-22.67,8.47-33.88
	c1.72-6.04,2.59-12.36,3.35-18.61c1.26-10.37,2.09-20.79,3.19-31.18c0.27-2.53,0.83-5.04,1.33-7.54c1.4-7.04-0.36-14.06-0.1-21.09
	c0.05-1.45-0.11-2.94,0.16-4.36c1.14-6.12-0.02-12.07-0.99-18.07c-0.73-4.56-1.31-9.14-1.85-13.72c-0.77-6.52-1.4-13.06-2.2-19.57
	c-0.65-5.33-0.77-10.6-0.4-15.99c0.64-9.33,0.64-18.71,0.86-28.07c0.13-5.7-0.31-11.4,1.27-17.03c0.67-2.39,0.1-5.11,0.49-7.62
	c1.43-9.11,1.83-18.41,5.17-27.16c0.79-2.08,0.01-4.75,2.38-6.28c1.58,0.06,2.44,0.95,2.44,2.52c0,4.96,0.22,9.91-1.04,14.83
	c-1.35,5.29-1.78,10.84-3.43,16.02c-1.84,5.81-2.16,11.59-2.24,17.58c-0.14,10.32-0.88,20.64-1.4,30.96
	c-0.21,4.12-0.97,8.26-0.67,12.34c0.43,5.78,1.56,11.51,2.47,17.25c0.52,3.33,1.19,6.64,1.78,9.97c0.38,2.15,0.64,4.33,1.15,6.45
	c1.51,6.35,1.41,12.69,0.87,19.18c-0.53,6.38-0.02,12.85,0.03,19.27c0.03,3.03,0.16,6.07,0.07,9.1c-0.11,3.88-0.39,7.76-0.61,11.65
	c-0.25,4.48-0.7,8.97-0.73,13.45c-0.05,7.92,1.28,15.7,2.66,23.48c0.57,3.22,0.91,6.5,1.07,9.77c0.47,9.47,0.04,18.91-0.8,28.37
	c-0.51,5.66-0.67,11.46,0,17.08c0.72,6.11,0.78,12.08-0.11,18.14c-0.37,2.51-0.24,5.08-0.46,7.62c-0.35,3.99-0.71,7.99-1.21,11.96
	c-1.07,8.55-0.15,16.96,1.6,25.33c0.62,2.97,1.59,6.02,1.38,8.96c-0.22,3.05-1.37,6.15-2.65,8.98
	c-5.17,11.38-11.72,22.01-18.13,32.71c-3.87,6.45-8.28,12.51-13.2,18.25c-3.29,3.84-6.18,8.12-8.63,12.55
	c-1.54,2.79-2.01,6.21-2.83,9.38c-1.42,5.52-2.72,11.07-4.08,16.61c-0.2,0.82-0.57,1.61-0.73,2.43
	c-1.94,10.26-3.56,20.59-5.89,30.75c-1.21,5.27-3.73,10.22-5.53,15.37c-1.56,4.46-2.95,8.98-4.36,13.48
	c-0.8,2.54-1.44,5.13-2.29,7.65c-0.64,1.88-1.08,3.7-0.38,5.76c2.64,0.11,3.9-2.04,5.36-3.4c12.15-11.2,23.76-22.95,34.5-35.52
	c6.06-7.1,11.61-14.61,16.03-22.9c1.37-2.56,2.93-5.03,4.45-7.51c0.94-1.54,2.28-2.01,3.29-1.14c1.22,1.04,1.01,2.04,0.24,3.49
	c-2.49,4.7-4.73,9.53-6.95,14.37c-2.62,5.71-5.3,11.41-7.62,17.24c-2.32,5.81-5.49,11.09-8.85,16.31c-0.96,1.49-1.98,2.94-3.28,4.86
	c1.07,0,1.55,0.14,1.91-0.02c3.99-1.75,7.97-3.53,11.94-5.34c3.65-1.66,7.24-3.46,10.92-5.04c8.13-3.51,16.26-7,24.46-10.33
	c3.26-1.32,6.7-2.18,10.07-3.24c0.35-0.11,0.79-0.32,1.06-0.2c0.9,0.4,2.19,0.73,2.52,1.45c0.54,1.18-0.5,1.98-1.64,2.36
	c-2.18,0.73-4.51,1.17-6.54,2.2c-8.22,4.16-16.35,8.49-24.5,12.77c-5.37,2.82-10.73,5.66-16.07,8.53c-2.67,1.44-5.28,2.99-7.93,4.48
	c-7.83,4.41-15.74,8.69-23.45,13.3c-2.45,1.46-4.46,3.72-6.52,5.75c-1.42,1.4-2.58,3.04-3.86,4.58c0.14,0.23,0.28,0.47,0.42,0.7
	c0.95-0.3,1.94-0.51,2.85-0.92c2.44-1.09,4.82-2.31,7.27-3.37c0.76-0.33,1.7-0.58,2.47-0.43c0.71,0.14,1.68,0.75,1.85,1.35
	c0.16,0.54-0.43,1.67-1,1.98c-2.66,1.45-5.4,2.8-8.18,4.02c-4.55,2-9.2,3.8-13.73,5.85c-1.76,0.79-3.47,1.84-4.93,3.08
	c-3.8,3.22-7.61,6.46-11.11,10c-2.01,2.03-3.55,4.58-5.1,7.02c-5.13,8.1-9.67,16.64-15.38,24.3c-6.51,8.74-13.65,17.11-22.59,23.64
	c-0.88,0.64-1.75,1.33-2.51,2.1c-8.17,8.28-17.65,14.8-27.58,20.73c-4.26,2.54-8.52,5.05-12.24,8.46c-2.38,2.18-5.62,3.4-8.06,5.51
	c-4.95,4.28-9.57,8.96-14.47,13.31c-1.3,1.15-3.06,1.87-4.73,2.48c-2.94,1.07-6.1,1.62-8.95,2.88c-5.99,2.64-11.94,5.45-17.18,9.47
	c-1.7,1.31-3.32,2.73-4.7,4.76c1.48-0.29,2.99-0.47,4.43-0.89c7.1-2.1,14.13-4.47,21.29-6.32c4.56-1.18,9.34-1.48,13.98-2.4
	c5.95-1.19,11.85-2.6,17.77-3.93c1.67-0.37,3.34-0.81,4.93,0.76c-0.18,2.01-1.47,3.08-3.28,3.75c-10.61,3.9-21.3,7.59-31.79,11.79
	c-5.95,2.38-11.63,5.48-17.31,8.49c-6.76,3.58-13.39,7.42-20.07,11.16c-0.51,0.28-0.93,0.72-2.01,1.59c1.59,0.5,2.62,1.01,3.69,1.12
	c5.21,0.51,10.39,0.68,15.64-0.09c7.09-1.04,14.25-1.64,21.38-2.41c8.33-0.9,16.75-1.33,24.98-2.77
	c11.56-2.02,23.22-2.13,34.85-2.97c3.75-0.27,7.49-0.86,11.18-1.55c3.95-0.73,7.84-1.11,11.91-1.03c8.63,0.18,17.28-0.16,25.9-0.53
	c6.67-0.29,13.33-0.88,19.98-1.47c2.29-0.2,4.58-0.65,6.8-1.26c5.1-1.41,10.29-1.76,15.54-1.69c2.55,0.04,5.1-0.19,7.65-0.19
	c4.12-0.01,8.24,0.12,12.35,0.11c4.74-0.02,9.49,0.02,14.22-0.24c4.66-0.25,9.16-0.21,13.52,1.9c4.13,2,8.54,2.56,13.14,1.61
	c3.09-0.64,4.13,0.25,5.01,3.16c0.56,1.84,1.51,3.55,2.22,5.35c0.54,1.38,0.98,2.81,1.46,4.22c-0.23,0.22-0.45,0.44-0.68,0.66
	c-0.83-0.24-1.79-0.3-2.46-0.76c-1.19-0.82-2.56-1.69-3.23-2.89c-1.94-3.44-5.04-4.09-8.57-4.51c-2.36-0.28-4.69-1.22-6.9-2.17
	c-3.77-1.61-7.58-2.25-11.7-2.13c-6.3,0.18-12.62-0.17-18.93-0.28c-1.34-0.02-2.68-0.06-4.01,0.01c-8,0.43-16.02,0.72-24,1.4
	c-3.73,0.32-7.38,1.55-11.1,2.13c-3.83,0.6-7.7,1.21-11.57,1.32c-12.4,0.36-24.81,0.48-37.22,0.72c-2.19,0.04-4.38,0.1-6.56,0.31
	c-8.22,0.8-16.43,1.69-24.65,2.5c-5.92,0.58-11.86,1.06-17.78,1.65c-6.64,0.67-13.28,1.39-19.92,2.14
	c-7.37,0.84-14.72,1.82-22.1,2.6c-8.94,0.95-17.9,2.07-26.91,1.08c-3.37-0.37-6.68-1.22-10-1.97c-0.75-0.17-1.39-0.82-1.98-1.18
	c-0.07-2.07,1.26-2.74,2.57-3.42c4.43-2.29,8.9-4.49,13.27-6.88c8.31-4.55,16.55-9.21,24.84-13.8c1.06-0.58,2.26-0.89,3.35-1.43
	c1.67-0.84,3.3-1.77,4.95-2.66c-0.12-0.3-0.23-0.6-0.35-0.9c-2.76,0.63-5.57,1.11-8.28,1.92c-8.72,2.62-17.53,5.05-26.07,8.18
	c-5.78,2.12-11.16,5.32-16.74,8c-3.28,1.58-6.56,3.18-9.92,4.6c-3.34,1.41-6.1,3.43-8.2,6.4c-0.53,0.76-1.39,1.76-2.15,1.8
	c-3.67,0.22-5.8,2.95-8.28,4.95c-1.99,1.6-4.06,2.4-6.53,2.88c-2.69,0.53-5.28,1.64-7.86,2.65c-1.57,0.62-3.06,1.47-4.54,2.3
	c-2.56,1.43-4.87,1.36-6.81-1.31c-3.93,2.21-6.87,5.35-9.66,8.46c-3.39,3.78-6.14,8.12-9.27,12.14c-4.01,5.15-7.33,10.86-12.3,15.24
	c-1.28,1.13-1.27,1.15-3.46,0.86c-1.34-2.07,0.92-3.29,1.27-5.24c-0.95-1.15-1.99-2.42-3.19-3.88c-1.68,1.59-1.48,3.68-1.62,5.45
	c-0.26,3.17-1.88,4.82-4.79,5.65c-2.96-2.03-0.96-6.02-3.48-8.31c-0.93,0.83-1.87,1.66-3.22,2.86c-0.91-1.57-2.01-2.78-2.35-4.17
	c-1.68-6.94-3.17-13.93-4.7-20.9c-0.69-3.14-1.31-6.3-2.66-9.35c-1.01,4.57-2.39,9.1-2.94,13.73c-0.73,6.14-0.76,12.35-1.2,18.53
	c-0.23,3.17-0.01,6.25,0.92,9.28c-1.46,0-2.92,0-4.38,0c0.04-1.56,0.12-3.13,0.1-4.69c-0.07-6.02-0.21-12.05-0.26-18.07
	c-0.03-3.38-0.1-6.77,0.14-10.14c0.39-5.39-0.91-10.88,1-16.19c0.21-0.6-0.18-1.41-0.29-2.12c0.99,1.57,1.99,3.15,2.95,4.67
	c0.47-1.23,1.05-2.81,1.7-4.37c0.46-1.1,0.74-2.54,1.59-3.15c0.92-0.66,2.4-0.54,3.79-0.79c1.35-3.45,0.37-7.12,0.5-10.71
	c0.13-3.62,0.03-7.25,0.03-10.88c-1.12,0.77-1.7,1.57-2.03,2.45c-2.85,7.61-5.65,15.23-8.47,22.85c-0.86,1.13-1.84,2.2-2.57,3.41
	c-4.17,6.96-6.91,14.73-11.94,21.21c-3.43,4.42-5.55,9.36-6.38,14.89c-0.14,0.92-0.34,2.18-0.98,2.63c-3.17,2.23-3.74,5.85-5.17,9
	c-1.22,0-2.44,0-3.65,0c1.35-3.77,2.87-7.49,3.99-11.33c0.73-2.53,1.25-5.23,1.21-7.85c-0.08-5.81-0.57-11.62-0.9-17.62
	c-2.12,0.08-2.43,1.38-2.7,2.86c-0.28,1.54-0.66,3.07-1.17,4.55c-0.42,1.21-1.23,2.17-2.75,1.74c-1.51-0.42-1.62-1.67-1.55-2.93
	c0.16-3.03,0.37-6.06,0.55-9.09c0.03-0.49,0.23-1.05,0.05-1.45c-2.56-5.99,0.03-11.97,0.01-17.95c-0.01-3.27,0.51-6.53,0.69-9.81
	c0.04-0.8-0.23-1.67-0.54-2.44c-0.73-1.84-1.57-3.63-2.52-5.78c-3.14-0.79-3.73-1.32-3.79-5.27c-0.13-8.27-0.07-16.54-0.08-24.82
	c0-1.45,0-2.9,0-4.94c-2.22,2.13-2.34,4.44-2.58,6.61c-0.27,2.41-0.23,4.86-0.41,7.29c-0.1,1.33-0.31,2.65-0.57,3.95
	c-0.25,1.2-0.57,2.56-2.23,2.32c-1.44-0.21-1.4-1.47-1.41-2.58c-0.01-2.8-0.07-5.6,0.01-8.39c0.19-6.44,0.48-12.88,0.69-19.32
	c0.3-9.24,0.58-18.49,0.84-27.73c0.48-17.14,0.89-34.29,1.45-51.43c0.2-6.07,0.87-12.12,1.09-18.19c0.25-7.05,0.2-14.11,0.36-21.17
	c0.21-9.11,0.69-18.22,0.71-27.33c0.03-11.65-0.28-23.31-0.45-34.96c-0.01-0.48-0.18-1.01-0.05-1.44c2.03-6.69,0.9-13.55,0.92-20.32
	c0.03-13.87-0.61-27.74-0.62-41.62c-0.01-8.62,0.68-17.25,0.97-25.87c0.41-12.51,0.9-25.02,1.03-37.53
	c0.15-14.59,0.15-29.19-0.16-43.79c-0.17-8.13-0.91-16.27-1.72-24.37c-0.36-3.58-1.52-7.07-2.31-10.61
	c-0.27-0.06-0.55-0.12-0.82-0.19c-0.97,1.96-2.3,3.82-2.83,5.89c-2.26,8.7-4.46,17.41-6.33,26.2c-1.28,6.05-2.33,12.2-2.85,18.36
	c-0.88,10.3-1.25,20.63-1.83,30.96c-0.18,3.28-0.37,6.56-0.49,9.84c-0.31,8.5-0.8,17-0.82,25.51c-0.02,7.53,0.52,15.06,0.76,22.58
	c0.19,6.08,0.4,12.16,0.41,18.24c0.01,6.07-0.44,12.14-0.3,18.2c0.14,6.06,0.53,12.14,1.25,18.16c0.7,5.89,1.97,11.71,2.95,17.57
	c0.16,0.95,0.25,1.99,0.01,2.89c-0.18,0.67-0.93,1.2-1.43,1.79c-0.58-0.52-1.52-0.94-1.69-1.57c-0.77-2.8-1.39-5.64-1.92-8.49
	c-2.67-14.36-4.25-28.83-4.74-43.43c-0.26-7.65-0.66-15.31-1.38-22.92c-0.56-5.9-1.73-11.75-2.59-17.62
	c-0.23-1.56-0.46-3.14-0.45-4.72c0.06-11.53-0.52-23.11,2.39-34.45c0.15-0.59,0.24-1.2,0.25-1.81c0.16-8.93,2.29-17.59,3.76-26.33
	c0.97-5.74,2.49-11.39,3.64-17.11c1.15-5.71,2.39-11.42,3.14-17.19c1.28-9.93,3.83-19.55,6.52-29.14
	c2.06-7.36,4.18-14.74,6.86-21.89c3.36-8.97,7.77-17.49,12.92-25.58c3.4-5.35,5.05-11.25,6.31-17.35
	c1.13-5.47,2.35-10.92,3.47-16.39c2.23-10.86,4.25-21.72,1.49-32.81c-0.87-3.48-0.75-6.94-0.08-10.49c0.96-5.06,0.55-10.15-0.4-15.2
	c-0.16-0.83-0.44-1.73-0.27-2.51c1.66-7.7,1.69-15.71,4.76-23.16c1.28-3.1,1.68-6.55,2.68-9.77c0.74-2.41,1.85-4.72,2.7-7.1
	c1.44-3.99,2.56-8.12,4.26-11.99c2.13-4.87,4.77-9.52,7.04-14.34c0.92-1.95,1.48-4.06,2.12-6.13c0.57-1.85,0.99-3.75,1.5-5.61
	c0.89-3.25,1.37-6.71,2.81-9.7c2.97-6.19,5.02-12.83,9.31-18.42c2.61-3.4,3.8-7.59,4.51-11.82c0.17-1.02-0.22-2.14-0.31-3.21
	c-0.1-1.2-0.36-2.44-0.18-3.61c0.23-1.48,1.31-2.31,2.87-2.24c1.55,0.07,2.54,0.84,2.55,2.49c0.02,3.84,1.28,7.7-0.29,11.54
	c-0.34,0.84-0.11,1.92-0.12,2.89c-0.02,8.23-2.07,16.06-4.54,23.84c-1.31,4.15-2.26,8.41-3.38,12.62
	c-2.54,9.54-4.05,19.25-4.85,29.08c-0.21,2.63-1.03,5.22-1.63,7.82c-0.52,2.24-1.26,4.44-1.68,6.7c-1.49,8.11-3.44,16.07-6.38,23.81
	c-1.06,2.79-1.23,5.91-1.86,8.87c-1.22,5.68-2.65,11.33-3.66,17.04c-0.86,4.89-1.41,9.86-1.8,14.81c-0.75,9.34-3.41,18.04-8,26.2
	c-1.06,1.88-1.67,4.01-2.58,5.99c-1.41,3.08-2.68,6.26-4.4,9.16c-2.56,4.31-3.23,9.15-4.23,13.87c-1.47,6.89-2.57,13.86-3.7,20.82
	c-0.94,5.75-1.69,11.53-2.52,17.3c-0.45,3.13-0.72,6.29-1.37,9.37c-1.76,8.3-1.53,16.72-1.36,25.09
	c0.28,13.64-0.23,27.23-1.44,40.81c-0.7,7.86-1.71,15.7-2.19,23.57c-0.52,8.61-0.59,17.26-0.81,25.89
	c-0.18,6.93,0.17,13.9-0.55,20.77c-0.94,8.87-0.88,17.72-0.78,26.59c0.02,2.05,0.6,4.1,0.58,6.15c-0.07,9.83-0.21,19.66-0.42,29.49
	c-0.17,7.91-0.1,15.79,0.94,23.65c0.77,5.78,0.97,11.62,1.75,17.4c1.02,7.6,2.83,15.09,5.96,22.09c4.89,10.95,8.31,22.29,10.19,34.1
	c1.09,6.84,1.92,13.71,2.88,20.57c0.08,0.59,0.22,1.18,0.35,1.88c1.73,0.57,3.42,1.13,5.66,1.87c0.38-1.32,0.89-2.61,1.09-3.93
	c1.04-6.73,1.96-13.47,3-20.19c1.1-7.06,2.29-14.1,3.45-21.15c0.67-4.08,1.12-8.2,2.07-12.21c2.87-12.07,2.57-24.4,3.38-36.64
	c0.05-0.73-0.03-1.47,0.07-2.19c0.95-7.34,1.88-14.69,2.93-22.02c0.31-2.15,0.73-4.37,1.56-6.36c1.56-3.74,1.38-7.62,1.41-11.48
	c0.06-8.27-0.09-16.55,0.09-24.81c0.07-3.51,0.75-7,1.14-10.5c1.41-12.56,2.85-25.12,4.22-37.69c1.18-10.79,3.17-21.39,7.77-31.31
	c2.58-5.58,2.06-10.94,0.2-16.6c-1.47-4.46-2.13-9.19-3.14-13.8c-1.43-6.51-2.78-13.04-4.32-19.52c-0.72-3.03-0.1-5.43,1.92-5.84
	c1.87-0.38,3.54,1.3,4.09,4.14c0.66,3.46,1.28,6.93,1.99,10.37c0.22,1.05,0.6,2.1,1.09,3.06c1.1,2.19,1.89,4.39,1.99,6.92
	c0.07,1.84,0.5,3.89,2.96,5.17c0.56-1.07,1.24-2.02,1.57-3.08c2.39-7.77,4.55-15.61,7.09-23.33c1.43-4.37,3.35-8.58,5.19-12.8
	c3.23-7.44,6.53-14.85,9.9-22.23c1.05-2.31,2.46-4.45,3.62-6.71c0.37-0.72,0.47-1.57,0.89-3.04c-4.1,0.93-7.71,1.74-11.32,2.58
	c-0.83,0.19-1.62,0.6-2.45,0.7c-5.58,0.63-9.46,4.05-13.05,7.91c-4.13,4.44-8.27,8.88-12.32,13.39c-1.45,1.62-2.65,3.47-3.99,5.2
	c-0.52,0.67-0.99,1.51-1.69,1.88c-0.76,0.39-2.02,0.7-2.58,0.32c-0.57-0.39-0.89-1.72-0.7-2.5c0.23-1,1.11-1.84,1.64-2.78
	c1.15-2.03,3.43-3.4,3.87-6.94c-1.74,1.31-2.92,2.05-3.93,2.97c-5.21,4.74-10.94,9.07-15.41,14.44
	c-4.55,5.46-10.78,8.09-16.27,11.96c-0.63,0.44-2.13,0.51-2.63,0.08c-0.66-0.58-1.18-1.94-0.98-2.78c1.57-6.63,3.3-13.19,9.08-17.73
	c6.01-4.72,11.7-9.82,18.72-13.15c6.14-2.91,12-6.45,18.19-9.24c4.42-1.99,9.13-3.37,13.08-6.31c2.33-1.74,4.51-3.66,6.77-5.5
	c7.54-6.12,15.03-12.3,22.65-18.33c4.85-3.84,9.8-7.56,14.86-11.13c5.34-3.77,10.84-7.31,16.3-10.9c3.64-2.4,7.28-4.81,11.04-7.03
	c2.08-1.23,4.14-3.26,6.94-1.08c0.5,0.39,1.87,0.03,2.65-0.36c2.49-1.26,4.88-2.71,7.33-4.06c0.85-0.47,1.72-1.06,2.64-1.21
	c0.83-0.13,2.04-0.01,2.54,0.52c0.83,0.88,0.57,2.05-0.54,2.8c-1.31,0.88-2.6,1.8-3.97,2.59c-7.87,4.58-15.77,9.12-23.65,13.7
	c-4.31,2.5-8.7,4.89-12.86,7.62c-7.1,4.66-13.01,10.46-16.45,18.44c-0.71,1.64-1.71,3.15-2.98,5.46c1.75-0.37,2.73-0.56,3.7-0.8
	c4.23-1.06,8.48-2.05,12.68-3.23c5.26-1.48,10.4-3.52,15.74-4.59c5.39-1.07,9.68-3.35,13.28-7.51c1.68-1.94,4.18-3.22,6.43-4.62
	c5.97-3.73,11.88-7.57,18.03-10.98c10.52-5.84,18.69-14.24,25.92-23.58c1.93-2.49,2.7-5.92,3.87-8.96
	c3.22-8.39,6.54-16.74,9.51-25.22c2.65-7.56,4.8-15.29,7.35-22.88c2.09-6.22,4.41-12.35,6.67-18.51
	c3.72-10.14,7.46-20.28,11.22-30.4c3.42-9.2,6.91-18.37,10.28-27.58c0.74-2.04,1.05-4.23,1.63-6.33c0.67-2.45,1.42-4.87,2.11-7.31
	c0.99-3.5,1.97-7.01,2.92-10.53c1-3.74,1.99-7.47,2.89-11.23c0.28-1.17,0.27-2.41,0.4-3.61c0.12-1.08,0.11-2.2,0.4-3.24
	c0.37-1.34,0.49-3.22,2.5-3.02c2.02,0.21,1.8,2.03,1.75,3.44c-0.08,2.31-0.07,4.66-0.55,6.9c-1.35,6.29-2.84,12.54-4.45,18.77
	c-1.06,4.1-2.31,8.11-2.87,12.36c-0.53,4.06-2.06,7.98-3.09,11.98c-0.31,1.2-0.99,2.47,0.26,4.15c1.98-3.21,4.08-6.01,5.54-9.11
	c3.91-8.32,7.55-16.77,11.29-25.17c0.2-0.44,0.39-0.91,0.47-1.38c1.1-6.91,4.19-13.1,6.98-19.4c1.03-2.32,1.85-4.74,2.77-7.11
	C742.3,6.42,744.24,6.42,746.19,6.42z M649.7,698.61c0.2,0.28,0.4,0.56,0.6,0.84c0.55,0,1.17,0.17,1.64-0.03
	c5.97-2.41,11.9-4.89,17.87-7.3c3.35-1.35,6.02-3.57,8.57-6.05c3.13-3.05,6.3-6.07,9.64-8.89c4.93-4.15,9.74-8.36,13.8-13.43
	c4.47-5.59,9.04-11.13,13.85-16.43c8.66-9.54,18-18.38,27.62-26.97c10.59-9.47,20.97-19.16,32.27-27.81
	c0.92-0.7,1.41-1.97,2.11-2.97c-0.2-0.21-0.4-0.42-0.6-0.63c-0.99,0.35-2.01,0.61-2.95,1.06c-4.73,2.24-9.43,4.52-14.14,6.8
	c-3.6,1.74-7.43,3.15-10.75,5.32c-4.65,3.04-8.98,6.59-13.36,10.04c-5.33,4.2-10.54,8.55-15.85,12.78
	c-8.83,7.04-17.59,14.15-26.56,21c-6.54,5-13.34,9.67-20.09,14.39c-1.03,0.72-2.41,1.02-3.68,1.29c-0.42,0.09-1.22-0.38-1.42-0.8
	c-0.21-0.43-0.05-1.2,0.23-1.66c0.29-0.49,0.92-0.77,1.38-1.16c2.96-2.5,6.02-4.89,8.85-7.53c6.12-5.72,12.13-11.56,18.15-17.38
	c1.57-1.52,3.02-3.16,4.53-4.75c-0.18-0.19-0.36-0.39-0.55-0.58c-4.64,2.6-9.2,5.37-13.96,7.72c-2.32,1.14-5.11,2.24-7.55,1.99
	c-2.62-0.27-5.01-0.02-7.49,0.45c-0.95,0.18-1.9,0.45-2.86,0.55c-1.21,0.13-2.75,0.29-2.99-1.24c-0.12-0.78,0.7-2.01,1.45-2.56
	c3.11-2.28,6.35-4.41,9.56-6.55c2.52-1.68,5.11-3.25,7.59-4.98c1.28-0.89,2.4-2.03,3.59-3.05c-1.18-0.42-2.01-0.35-2.77-0.1
	c-5.75,1.95-11.4,4.25-17.25,5.82c-6.76,1.81-13.32,4.24-20.13,5.95c-11.83,2.97-23.7,5.31-35.86,6.14c-1.63,0.11-3.16-0.17-3.8-2.5
	c1.01-0.54,1.99-1.17,3.06-1.6c3.93-1.59,7.91-3.05,11.83-4.68c2.35-0.98,4.57-2.3,6.93-3.24c5.07-2.03,10.24-3.83,15.3-5.89
	c13.38-5.45,26.74-10.97,40.09-16.49c2.12-0.88,4.17-1.95,6.25-2.93c5.81-2.73,11.64-5.4,17.4-8.23c1.41-0.69,2.55-1.93,4.1-3.13
	c-3.03-1.11-5.13,0.03-7.29,0.77c-8.62,2.95-17.3,5.73-26.32,7.15c-2.7,0.42-5.82,0.74-8.25-0.19c-3.63-1.4-6.29-4.5-7.9-8.17
	c-1.11-2.53-1.95-5.18-3.05-8.15c-1.34,0.45-2.84,0.83-4.24,1.43c-2.11,0.9-4.11,2.09-6.25,2.93c-5.42,2.13-10.89,4.11-16.33,6.19
	c-6.34,2.42-12.62,5.03-19.03,7.23c-2.47,0.85-5.25,0.9-7.9,1.11c-1.13,0.09-2.61,0.19-3.03-1.38c-0.46-1.7,1.03-1.95,2.08-2.45
	c2.49-1.19,4.63-2.76,6.46-5.89c-2.41,0.63-4.15,1.02-5.85,1.55c-10.32,3.22-20.61,6.51-30.94,9.68c-1.48,0.46-3.12,0.57-4.68,0.55
	c-0.66-0.01-1.84-0.76-1.85-1.19c-0.02-0.77,0.48-1.85,1.11-2.28c3.52-2.37,7.16-4.57,10.72-6.88c0.75-0.49,1.34-1.21,2-1.82
	c-2.38-0.14-4.5,0.37-6.65,0.5c-0.9,0.05-1.84-0.7-2.76-1.09c0.42-0.92,0.6-2.16,1.31-2.72c3.23-2.56,6.67-4.85,9.92-7.39
	c5.64-4.4,11.24-8.86,16.77-13.41c2.04-1.68,3.81-3.69,5.71-5.56c-2.47,1.11-4.48,2.67-6.62,4.06c-3.05,1.97-6.13,3.93-9.32,5.65
	c-1.32,0.71-3.08,1.31-4.45,1.03c-1.14-0.23-2.01-1.82-3.07-2.88c-1.59,0.67-3.28,1.33-4.93,2.08c-3.56,1.63-3.55,1.65-6.08-0.97
	c-0.29,0.19-0.65,0.33-0.86,0.59c-5.27,6.34-10.55,12.67-15.77,19.05c-0.91,1.11-1.78,1.98-3.62,1.41
	c-1.08-3.79,3.26-5.83,3.21-9.62c-1.58,1.49-2.95,2.85-4.39,4.13c-1.01,0.9-2.21,1.95-3.52,0.82c-1.41-1.22-0.34-2.46,0.56-3.45
	c1.79-1.98,3.72-3.83,5.5-5.83c9.51-10.71,19.14-21.32,28.43-32.21c5.35-6.28,10.28-12.93,15.13-19.61
	c4.05-5.57,7.74-11.41,11.53-17.17c1.04-1.58,1.83-3.32,2.74-4.98c-0.2-0.15-0.4-0.3-0.59-0.45c-2.64,2.91-5.42,5.72-7.91,8.76
	c-8.39,10.24-16.59,20.64-25.06,30.82c-5.35,6.43-10.81,12.81-16.66,18.78c-4.66,4.76-9.97,8.88-15.01,13.27
	c-3.29,2.87-6.43,5.98-10.55,7.67c-0.76,0.31-2.05,0.37-2.56-0.07c-0.53-0.45-0.78-1.8-0.51-2.52c1.46-3.85,2.86-7.77,4.77-11.41
	c3.61-6.86,7.62-13.52,11.36-20.31c4.86-8.82,9.54-17.73,14.44-26.52c5.61-10.06,11.33-20.05,17.09-30.03
	c3.75-6.5,7.7-12.89,11.46-19.39c0.96-1.65,1.65-3.5,2.21-5.33c1.98-6.51,3.74-13.08,5.8-19.56c1.3-4.08,2.16-8.15,2.41-12.45
	c0.35-6.31,1.14-12.59,1.8-18.87c0.95-9.05,1.75-18.13,3.03-27.14c0.79-5.57,2.36-11.03,1.06-16.86c-0.41,0.07-0.9,0.07-1.32,0.24
	c-1.8,0.75-3.54,1.65-5.36,2.32c-2.45,0.91-3.27,0.35-3.7-2.21c-0.13-0.77-0.4-1.51-0.66-2.49c-0.95,0.48-1.67,0.7-2.2,1.14
	c-2.77,2.36-5.61,4.66-8.2,7.22c-1.78,1.76-3.6,2.21-6.03,1.5c0-0.68-0.23-1.41,0.04-1.8c1.29-1.9,2.52-3.9,4.12-5.52
	c7.4-7.53,14.92-14.94,22.38-22.41c0.95-0.95,1.88-1.55,3.22-0.57c1.15,3.86-3.53,5.17-3.96,9.04c1.31-0.57,2.26-0.92,3.15-1.38
	c1.28-0.68,2.45-1.67,3.8-2.12c2.3-0.77,3.71-2.27,4.44-4.46c1.62-4.84,3.6-9.62,4.64-14.58c1.84-8.88,5.46-17.13,8.59-25.53
	c3.34-8.95,5.73-18,6.35-27.53c0.09-1.45,0.48-2.87,0.75-4.31c0.71-3.69,1.64-7.36,2.08-11.08c0.58-4.93,1.19-9.74,2.67-14.58
	c2.2-7.2,4.55-14.32,7.38-21.29c2.92-7.19,5.92-14.35,8.83-21.55c1.75-4.33,3.65-8.63,3.55-14.04c-3.73,3.77-6.98,7.36-10.55,10.57
	c-4.15,3.73-8.39,7.41-12.95,10.59c-4.26,2.98-9,5.25-13.49,7.9c-1.77,1.04-3.35,2.43-5.18,3.34c-4.64,2.29-8.68,5.29-12.19,9.11
	c-1,1.09-2.44,2.03-3.85,2.46c-8.58,2.65-17.21,5.13-25.81,7.68c-1.74,0.52-3.47,1.09-5.19,1.68c-1.86,0.64-2.28,2.03-2.55,3.93
	c-0.68,4.78-1.26,9.68-2.77,14.23c-3.42,10.24-7.36,20.32-11.14,30.44c-2.46,6.59-5.01,13.14-7.5,19.72
	c-1.42,3.74-2.89,7.47-4.16,11.26c-2.69,8.05-5.28,16.14-7.88,24.23c-2.3,7.16-4.63,14.31-6.82,21.5
	c-1.27,4.17-2.23,8.43-3.39,12.63c-2.26,8.19-4.9,16.3-6.74,24.58c-2.21,9.95-3.74,20.05-5.54,30.09c-0.07,0.38,0.14,0.81,0.34,1.87
	c0.89-1.29,1.6-1.99,1.91-2.82c1.59-4.32,3.34-8.6,4.52-13.03c1.66-6.2,2.69-12.57,4.3-18.79c1.59-6.11,3.65-12.09,5.37-18.17
	c1.59-5.6,2.95-11.27,4.51-16.88c1.68-6.07,3.35-12.15,5.22-18.17c1.69-5.44,3.47-10.86,5.53-16.17c2.03-5.2,4.48-10.23,6.73-15.34
	c1.91-4.34,3.75-8.7,5.71-13.02c0.66-1.47,1.24-3.77,3.38-2.9c2.08,0.84,0.5,2.85,0.16,4.17c-2.25,8.82-4.7,17.58-7.04,26.38
	c-2.9,10.91-5.79,21.83-8.59,32.76c-0.24,0.93-0.1,2.36,0.48,3.01c1.52,1.71,1.38,3.5,1.07,5.47c-0.23,1.44-0.26,2.9-0.39,4.36
	c-0.53,5.8-0.81,11.64-1.65,17.4c-1.2,8.29-2.8,16.52-4.24,24.77c-0.46,2.63-0.99,5.25-1.46,7.89c-1.14,6.34-2.21,12.69-3.39,19.02
	c-1.41,7.52-2.98,15.02-4.34,22.55c-1.81,10.04-3.52,20.11-5.19,30.17c-1.57,9.47-3.13,18.94-4.52,28.44
	c-1.39,9.49-2.57,19.02-3.81,28.53c-1.26,9.65-2.51,19.29-3.7,28.95c-1.01,8.2-2.08,16.39-2.82,24.61
	c-0.68,7.5-0.67,15.07-1.51,22.55c-0.99,8.76-0.79,17.5-0.31,26.24c0.22,3.92,0.23,8.01,2.43,12.19c0.62-1.69,1.01-2.94,1.52-4.13
	c1.33-3.12,2.67-6.24,4.11-9.31c0.58-1.25,1.73-1.77,3.05-1.23c1.53,0.63,1.22,1.86,0.77,3.09c-0.52,1.42-0.99,2.85-1.47,4.25
	c4.74,1.98,5,2.92,1.81,6.23c-3.58,3.7-4.94,8.58-7.17,13c-0.2,0.4-0.22,0.97-0.14,1.43c0.53,3.17,1.11,6.33,1.67,9.49
	c0.24,0.03,0.48,0.06,0.73,0.1c0.56-1.55,1.18-3.07,1.66-4.65c1.81-6.02,3.37-12.12,5.44-18.05c1.02-2.9,2.95-5.49,4.48-8.21
	c0.12-0.21,0.29-0.5,0.47-0.53c0.99-0.16,2.17-0.64,2.95-0.28c1.13,0.52,1.05,1.72,0.37,2.84c-0.69,1.14-1.44,2.3-1.81,3.56
	c-1.44,4.87-2.91,9.73-4.03,14.68c-1.24,5.44-2.09,10.96-3.14,16.44c-0.69,3.58-1.39,7.16-2.17,10.72c-1,4.59-2.78,9-2.44,13.88
	c0.2,2.88-1.65,4.73-4.51,5.22c-0.82,0.14-1.65,0.24-2.15,0.31c-1.34,2.64-2.54,5-3.69,7.25c-1.41,0-2.45,0-4.39,0
	c3.55,9.91,2.83,20.28,6.44,29.89c0.52-1.47,0.47-2.91,0.53-4.33c0.19-4.5,0.29-9.01,0.7-13.48c0.2-2.14,0.83-4.29,1.65-6.28
	c0.39-0.93,1.76-2.08,2.58-2.01c0.83,0.07,1.63,1.48,2.26,2.43c0.77,1.16,1.1,2.71,2.07,3.61c1.21,1.13,1.6,2.25,1.55,3.83
	c-0.1,3.35-0.03,6.71-0.03,10.07c1.29-0.98,1.9-2.12,2.49-3.27c1.59-3.14,3.21-6.26,4.73-9.43c0.85-1.78,2.22-2.11,3.92-1.74
	c0.79,0.17,1.55,0.48,2.63,0.83c1.28-1.9,2.61-3.62,3.67-5.5c3-5.34,6.63-10.23,11.22-14.25c3.95-3.46,8.32-6.44,14.02-5.95
	c2.41,0.21,3.05,1.31,1.99,3.41c-2.68,5.3-5.46,10.55-8.14,15.85c-0.76,1.5-1.31,3.1-1.95,4.65c1.84-0.64,3.03-1.64,4.27-2.6
	c5.48-4.22,10.95-8.44,16.47-12.62c3.47-2.63,7.02-5.16,10.53-7.74c0.78-0.57,1.55-1.18,2.38-1.68c5.5-3.32,10.98-6.68,16.54-9.9
	c1.77-1.02,3.76-1.69,5.68-2.44c2.27-0.89,4.28-2.04,6.11-3.76c9.01-8.44,18.88-15.65,30.41-20.34c2.81-1.14,5.65-2.22,8.52-3.2
	c2.64-0.91,5.32-1.7,8-2.47c1.42-0.41,3.1-0.82,3.75,1.04c0.7,2-1.11,2.28-2.4,2.93c-2.81,1.42-5.62,2.85-8.32,4.45
	c-2.81,1.67-5.49,3.57-8.24,5.34C650.99,698,650.33,698.28,649.7,698.61z M624.31,508.03c0.23,0.2,0.46,0.4,0.69,0.6
	c0.74-0.59,1.52-1.13,2.2-1.78c2.71-2.6,5.46-5.17,8.07-7.87c8.1-8.37,16.29-16.65,24.17-25.23c9.13-9.95,18.35-19.76,29.39-27.66
	c1.19-0.85,2.69-2.66,4.08-1.06c1.35,1.57-0.48,2.78-1.62,3.84c-2.92,2.74-5.92,5.4-8.75,8.23c-9.12,9.09-18.18,18.23-27.26,27.35
	c-6.43,6.46-12.9,12.89-19.28,19.41c-7.39,7.55-14.71,15.18-22.05,22.77c-5.66,5.85-11.42,11.61-16.95,17.59
	c-4.61,4.98-8.97,10.18-13.37,15.35c-0.51,0.6-0.54,1.62-0.79,2.45c0.23,0.19,0.47,0.38,0.71,0.56c5.52-3.48,11.27-6.65,16.51-10.51
	c7.91-5.83,15.38-12.26,23.21-18.2c5.68-4.31,11.66-8.23,17.51-12.33c2.89-2.02,5.97-3.81,8.64-6.09
	c5.27-4.49,10.42-9.15,15.42-13.93c9.75-9.31,19.36-18.77,29.04-28.15c1.13-1.09,2.27-2.18,3.5-3.15c1.19-0.94,2.42-1,3.74,0.61
	c-0.64,0.91-1.27,1.9-1.99,2.82c-1.13,1.42-2.48,2.69-3.45,4.21c-3.2,5.04-6.79,9.75-10.9,14.1c-1.9,2.01-3.95,4.15-4.64,7.58
	c1.29-0.55,2.14-0.93,3.01-1.29c2.13-0.88,4.24-1.84,6.43-2.56c0.63-0.21,1.5,0.32,2.25,0.51c-0.23,0.85-0.23,1.9-0.75,2.5
	c-0.59,0.69-1.64,0.99-2.48,1.46c-1.28,0.7-2.69,1.24-3.81,2.14c-5.36,4.27-10.73,8.54-15.93,12.99
	c-4.14,3.55-8.02,7.39-12.07,11.05c-1.71,1.54-3.57,2.91-5.31,4.41c-3.35,2.91-6.67,5.86-10,8.79c0.12,0.21,0.24,0.43,0.36,0.64
	c1.43-0.53,2.87-1.04,4.3-1.59c2.26-0.88,4.52-1.76,6.77-2.68c10.01-4.06,20.11-7.92,29.99-12.28c7.21-3.19,14.11-7.07,21.15-10.62
	c3.04-1.53,6.07-3.08,9.18-4.46c3.76-1.67,7.58-3.21,11.41-4.71c1.38-0.54,3.21-0.89,3.85,0.78c0.72,1.86-1.19,2.35-2.49,2.93
	c-3.53,1.59-7.12,3.05-10.61,4.72c-9.85,4.71-19.68,9.47-29.49,14.27c-7.64,3.74-15.29,7.46-22.84,11.37
	c-11.75,6.09-23.49,12.22-35.1,18.57c-7.98,4.36-16.29,8.19-23.54,13.83c-3.92,3.05-7.99,5.91-11.96,8.89
	c-0.41,0.31-0.64,0.87-0.99,1.38c0.48,0.19,0.75,0.4,0.91,0.34c6.44-2.52,12.77-5.19,18.49-9.24c4.94-3.5,10.16-6.6,15.39-9.66
	c5.21-3.06,10.55-5.92,15.9-8.73c4.52-2.37,9.1-4.63,13.73-6.79c6.16-2.88,12.39-5.59,18.58-8.42c6.51-2.98,12.96-6.1,19.52-8.98
	c7.87-3.46,15.81-6.75,23.73-10.09c1-0.42,2.06-0.94,3.1-0.96c0.92-0.01,2.31,0.37,2.67,1.02c0.57,1.06-0.2,2.03-1.46,2.43
	c-0.93,0.29-1.81,0.71-2.72,1.06c-4.73,1.8-8.5,5.08-12.59,7.91c0.6,0.15,1.07,0.1,1.52-0.04c6.73-2.09,13.45-4.21,20.19-6.25
	c1.13-0.34,2.4-0.56,3.55-0.41c1.52,0.2,1.88,1.49,0.84,2.68c-0.45,0.52-1.11,0.9-1.73,1.23c-3.39,1.84-7.12,3.22-10.14,5.53
	c-9.15,6.99-19.57,11.62-29.78,16.66c-0.99,0.49-2.23,0.75-2.47,2.28c3.1,0.3,5.24-1.47,7.67-2.47c11-4.55,22.04-9.03,33.1-13.42
	c1.9-0.75,2.92-1.86,3.51-3.78c1.63-5.34,3.35-10.65,5.18-15.92c1.11-3.19,2.48-6.29,3.7-9.33c-3.32-3.59-3.21-4.42,0.8-6.48
	c2.26-1.16,3.93-2.81,4.84-5.2c3.12-8.17,6.31-16.3,9.36-24.49c2.03-5.46,4.26-10.8,7.5-15.68c0.87-1.3,2.17-2.6,1.71-4.67
	c-3.79,0.66-6.86,2.23-9.63,4.5c-2.91,2.39-5.8,4.81-8.85,7.02c-5.3,3.84-10.68,7.58-16.1,11.26c-5.75,3.9-11.85,7.17-18.33,9.71
	c-1.48,0.58-3,1.18-4.11-0.95c3.99-3.82,7.94-7.59,11.89-11.36c-0.16-0.2-0.31-0.4-0.47-0.6c-0.66,0.2-1.33,0.38-1.98,0.61
	c-2.52,0.9-5,1.93-7.56,2.69c-1.83,0.54-3.81,0.92-5.58-1.36c0.92-0.81,1.67-1.82,2.66-2.26c5.55-2.44,11.11-4.88,16.77-7.04
	c7.16-2.74,14.12-5.54,20.01-10.81c7.31-6.55,15.13-12.55,22.8-18.69c1.79-1.43,2.49-3.02,2.53-5.3c0.06-3.64,0.5-7.28,0.76-10.91
	c0.25-3.4,0.64-6.79,0.67-10.19c0.03-2.75-0.91-3.42-3.64-3.15c-2.78,0.28-5.57,0.55-8.33,0.98c-2.11,0.33-4.19,0.9-6.46,1.4
	c0.43,1.63,0.91,2.78,0.97,3.95c0.05,0.85-0.18,2.13-0.75,2.5c-0.61,0.39-1.93,0.22-2.65-0.2c-1.24-0.72-2.49-1.65-3.3-2.8
	c-1.1-1.56-2.18-1.97-3.99-1.36c-6.45,2.18-13,4.07-19.4,6.39c-7.54,2.74-14.93,5.86-22.43,8.7c-2.49,0.94-5.21,1.29-6.89,3.76
	c-0.36,0.53-1.2,0.81-1.87,1.04c-7.43,2.62-13.44,7.08-17.98,13.57c-2.7,3.87-5.56,7.64-8.42,11.4
	c-6.39,8.4-12.77,16.82-19.26,25.15c-6.2,7.96-12.55,15.8-18.77,23.73C626.92,504,625.66,506.05,624.31,508.03z M634.83,629.21
	c0.07,0.27,0.15,0.55,0.22,0.82c3.52-0.54,7.14-0.72,10.53-1.69c9.33-2.69,18.57-5.68,27.84-8.6c6.37-2.01,12.61-4.49,19.08-6.06
	c8.46-2.06,16.31-5.6,24.24-8.96c7.26-3.08,14.32-6.63,21.4-10.1c8.61-4.22,17.41-7.99,25.51-13.28
	c9.42-6.15,17.96-13.28,25.92-21.15c1.49-1.47,2.72-3.51,3.3-5.51c1.45-5,2.56-10.11,3.64-15.21c1.43-6.79,3.59-13.3,6.45-19.62
	c1.59-3.52,2.9-7.24,3.83-10.99c1.66-6.7,2.92-13.5,4.37-20.26c1.48-6.88,3.02-13.75,4.45-20.65c0.43-2.08,0.56-4.21,0.89-6.81
	c-0.87,0.55-1.22,0.68-1.45,0.92c-8.16,8.5-15,18.18-23.54,26.35c-0.9,0.86-1.27,2.63-1.27,3.98c-0.01,2.9-1.13,5.1-3.29,6.89
	c-4.96,4.1-9.78,8.39-14.91,12.26c-5.12,3.87-10.54,7.36-15.86,10.98c-3.47,2.37-6.99,4.68-10.49,7.02
	c2.79,3.75,2.44,4.41-1.51,5.72c-4.95,1.64-9.88,3.42-14.66,5.51c-8.79,3.84-17.46,7.95-26.18,11.94c-1.65,0.76-3.28,1.57-4.97,2.25
	c-11.83,4.76-23.68,9.45-35.49,14.25c-3.04,1.23-5.95,2.78-8.92,4.18c0.53,0.49,0.91,0.59,1.22,0.48
	c7.51-2.67,15.06-5.23,22.51-8.07c8.17-3.12,16.21-6.57,24.36-9.73c6.34-2.45,12.8-4.61,19.17-7.01c9.55-3.6,19.05-7.33,28.59-10.95
	c1.57-0.6,3.26-1.07,4.92-1.18c0.89-0.06,2.37,0.53,2.64,1.21c0.5,1.22-0.76,1.8-1.82,2.23c-5.18,2.1-10.34,4.24-15.51,6.35
	c-1.38,0.56-2.76,1.1-4.14,1.64c0.09,0.25,0.17,0.5,0.26,0.75c2.75-0.72,5.5-1.41,8.25-2.15c5.27-1.42,10.53-2.89,15.81-4.28
	c1.25-0.33,2.53-0.25,2.86,1.36c0.29,1.41-0.38,2.34-1.74,2.77c-0.92,0.29-1.9,0.46-2.75,0.89c-8.25,4.18-16.72,7.75-25.69,10.2
	c-9.83,2.68-19.56,5.76-29.32,8.7c-10.94,3.29-21.89,6.52-32.78,9.96c-5.6,1.77-6.61,4.4-4.38,10.02c0.18,0.45,0.2,0.97,0.41,1.4
	c1.73,3.64,6.41,6.35,10.4,5.69c4.07-0.67,8.15-1.46,12.11-2.59c7.94-2.28,15.81-4.78,23.68-7.27c8.74-2.76,16.99-6.5,24.12-12.42
	c2-1.66,4.31-2.85,6.97-2.83c0.79,0.01,2.06,0.68,2.23,1.3c0.24,0.86-0.17,2.05-0.64,2.91c-0.29,0.54-1.19,0.78-1.84,1.1
	c-1.84,0.91-3.77,1.64-5.51,2.71c-3.31,2.02-6.46,4.32-9.78,6.33c-4.68,2.83-9.28,5.72-13.14,9.7c-1.4,1.44-3.35,2.44-5.2,3.33
	c-9.63,4.63-19.2,9.39-28.99,13.67c-12.32,5.38-24.85,10.31-37.26,15.48C640.87,626.35,637.87,627.83,634.83,629.21z M550.47,340.41
	c-0.17-0.04-0.34-0.07-0.5-0.11c-0.22,0.27-0.54,0.51-0.64,0.82c-1.83,5.53-3.81,11.02-5.4,16.62c-2.67,9.45-4.99,19-7.65,28.45
	c-2.11,7.48-4.74,14.81-6.75,22.31c-2.24,8.31-4.08,16.72-6.02,25.1c-1.18,5.11-3.41,9.55-7.37,13.09
	c-0.74,0.66-1.46,1.74-1.55,2.68c-0.59,6.16-1.08,12.33-1.43,18.51c-0.13,2.36-0.09,4.56-2.18,6.26c-0.61,0.5-0.75,1.71-0.9,2.63
	c-1.1,6.83-2.16,13.66-3.2,20.5c-0.82,5.4-1.6,10.81-2.35,16.22c-0.83,6.02-1.71,12.03-2.35,18.07c-0.6,5.67-1.09,11.36-1.28,17.06
	c-0.21,6.3-0.02,12.62-0.01,18.93c0,4.01-0.09,8.03,0,12.04c0.05,2.34,0.82,2.74,2.97,1.88c0.96-0.39,1.93-0.78,2.89-1.16
	c0.15,0.19,0.29,0.38,0.44,0.57c-1.58,1.59-3.24,3.11-4.7,4.79c-0.64,0.74-1.22,1.82-1.25,2.76c-0.2,6.8-0.25,13.61-0.36,20.41
	c-0.25,15.2-0.52,30.4-0.74,45.6c-0.13,9-0.17,18.01-0.26,27.01c-0.01,0.97-0.09,1.94-0.11,2.92c-0.12,6.67-0.24,13.34-0.34,20.02
	c0,0.12,0.34,0.24,0.6,0.42c2.64-2.68,4.89-5.63,6.37-9.16c0.75-1.78,1.48-3.73,2.76-5.1c1.84-1.96,1.96-3.88,1.49-6.34
	c-2.43-12.81-3.93-25.72-3.24-38.78c0.22-4.11,0.83-8.2,1.13-12.31c0.63-8.73,0.87-17.5,1.83-26.19c1.6-14.48,3.65-28.9,5.48-43.36
	c0.67-5.3,1.13-10.62,1.88-15.9c1.78-12.49,3.55-24.98,5.57-37.44c2.28-14.02,4.76-28,7.29-41.98c3.03-16.74,6.28-33.44,9.27-50.19
	c0.57-3.19,1.45-6.47,0.45-9.82c-0.97,2.32-1.79,4.66-2.33,7.07c-1.63,7.34-3.18,14.7-4.68,22.07c-1.12,5.47-2.25,10.95-3.14,16.46
	c-1.68,10.43-3.11,20.9-4.8,31.32c-0.79,4.91-1.96,9.76-2.9,14.65c-2.27,11.81-4.49,23.62-6.78,35.42c-0.3,1.55-0.75,3.1-1.4,4.52
	c-0.28,0.61-1.29,1.29-1.89,1.22c-0.53-0.06-1.05-1.06-1.38-1.74c-0.19-0.38-0.04-0.96,0.04-1.43c1.59-10.2,3.14-20.41,4.79-30.6
	c0.93-5.74,2-11.47,3.07-17.19c1.62-8.59,2.73-17.34,5.1-25.72c2.36-8.35,3.14-16.93,4.92-25.35c2.01-9.5,3.16-19.18,4.99-28.73
	c1.59-8.33,3.59-16.58,5.44-24.86c1.53-6.87,2.98-13.76,4.7-20.58c1.78-7.06,3.86-14.04,5.78-21.07
	C550.15,342.64,550.27,341.52,550.47,340.41z M859.69,241.9c-0.42,0.74-0.67,1.03-0.74,1.35c-1.27,6.17-2.4,12.37-3.79,18.52
	c-1.71,7.57-3.61,15.11-5.48,22.65c-1.46,5.89-3.24,11.7-4.44,17.64c-1.37,6.78-2.29,13.64-3.33,20.48
	c-0.87,5.76-1.53,11.54-2.46,17.29c-1.1,6.83-2.37,13.64-3.6,20.46c-1.32,7.28-2.7,14.55-4.02,21.83
	c-0.62,3.41-1.17,6.83-1.78,10.42c1.52,0.42,2.56,0.7,3.59,0.98c2.22,0.62,4.46,1.2,6.67,1.88c1.2,0.36,2.55,1.01,2.04,2.46
	c-0.25,0.7-1.6,1.19-2.55,1.43c-0.91,0.23-1.93,0-2.91,0.02c-1.82,0.02-3.65,0.11-5.47,0.11c-2.06-0.01-3.2,1-3.37,3.02
	c-0.51,6.17-1.03,12.34-1.42,18.52c-0.11,1.77,0.18,3.56,0.3,5.74c2.69-0.24,4.98-0.31,7.21-0.71c1-0.18,2.11-0.82,2.79-1.59
	c1.69-1.9,3.33-3.88,4.67-6.03c3.08-4.94,5.81-10.11,8.97-15c4.42-6.85,7.78-14.23,11.33-21.52c1.84-3.77,2.45-7.74,0.77-11.99
	c-1.05-2.65-1.24-5.65-1.73-8.51c-0.31-1.79-0.55-3.6-0.68-5.42c-0.19-2.64-0.5-5.31-0.34-7.94c0.4-6.41,1.03-12.81,1.58-19.21
	c0.12-1.33,0.39-2.65,0.47-3.98c0.3-5.21,1.2-10.48,0.68-15.61c-0.93-9.1-1.37-18.16-0.16-27.2c1.12-8.38,1.31-16.71,0.32-25.06
	C862.25,252,862.25,246.94,859.69,241.9z M689.23,334.38c1.09-0.38,2.18-1.03,3.28-1.04c0.93-0.01,1.97,0.6,2.75,1.2
	c0.25,0.2,0.07,1.49-0.32,1.88c-3.39,3.47-6.57,7.23-10.39,10.17c-6.35,4.89-12.66,9.78-18.31,15.49
	c-3.42,3.45-6.65,7.16-10.46,10.13c-10.98,8.55-21.07,17.9-29.11,29.35c-3.06,4.37-6.45,8.5-9.59,12.82
	c-2.5,3.43-5.2,6.79-7.17,10.52c-4.22,8-5.04,16.91-5.92,25.74c-0.05,0.51,0.12,1.04,0.3,2.51c1.5-1.73,2.46-2.8,3.38-3.9
	c4.2-5.03,8.46-10.02,12.57-15.13c2.27-2.83,4.54-5.71,6.34-8.84c0.9-1.56,1.85-2.81,3.35-3.64c4.12-2.29,8.26-4.54,12.43-6.74
	c3.11-1.64,6.37-3.02,9.4-4.8c4.04-2.38,7.47-5.46,10.09-9.78c-2.97-0.71-5.8,1.69-8.38-1.31c0.8-0.59,1.5-1.33,2.36-1.7
	c3.23-1.38,6.56-2.55,9.77-3.97c2.51-1.12,2.8-1.91,2.09-4.18c-0.84-2.7-0.52-3.67,2.28-3.99c3.93-0.45,6.38-2.67,8.37-5.73
	c0.72-1.11,1.37-2.28,2.07-3.41c5.63-9.06,11.21-18.15,16.92-27.16c4.53-7.14,6.98-15.18,10.18-22.9c0.76-1.83,1.23-3.78,1.93-5.99
	C705.67,321.05,693.09,329.69,689.23,334.38z M469.29,730.58c0.44,0.09,0.88,0.18,1.33,0.27c0.36-1.32,0.82-2.62,1.05-3.97
	c0.3-1.79,0.4-3.62,0.61-5.43c0.97-8.32,1.96-16.64,2.94-24.96c0.38-3.25,0.87-6.49,1.16-9.74c0.37-4.11,0.76-8.23,0.81-12.35
	c0.06-4.74-0.44-9.49-0.34-14.22c0.3-15.2,0.78-30.39,1.16-45.58c0.08-3.16-0.1-6.34,0.11-9.49c0.69-10.04-1.39-19.89-1.84-29.85
	c-0.03-0.72-0.33-1.42-0.48-2.13c-0.71-3.45-1.42-6.9-2.13-10.35c-1.58-7.74-3.51-15.37-6.75-22.64c-1.97-4.43-3.77-8.94-5.35-13.52
	c-1.24-3.58-2.03-7.31-3.02-10.98c-0.29,0.04-0.59,0.09-0.88,0.13c0,1.79,0.03,3.58-0.01,5.37c-0.17,8.5-0.39,16.99-0.54,25.49
	c-0.11,5.83-0.14,11.67-0.19,17.5c-0.01,1.23,0.03,2.69,1.51,2.98c3.05,0.58,2.9,2.67,2.8,4.99c-0.31,7.66-0.57,15.31-0.73,22.97
	c-0.06,2.63-0.5,5.37,1.1,7.81c0.23,0.36,0.3,1.04,0.13,1.41c-1.41,2.93-0.45,6-0.54,8.98c-0.1,3.42-1.41,6.98,0.76,10.28
	c0.29,0.44,0.14,1.19,0.14,1.8c0.02,4.36,0.05,8.73,0.04,13.09c-0.02,6.08,0.12,12.17-0.21,18.23c-0.18,3.36,0.36,5.88,3.65,7.4
	c2.28,1.05,3.04,2.89,2.45,5.43c-0.66,2.83-1.15,5.68,0.25,8.55c0.41,0.84-0.04,2.13-0.15,3.21c-0.68,6.37-2.07,12.65-1.12,19.19
	c0.62,4.26,0.12,8.69,0.12,12.93c4.95,2.4,4.84,2.42,3.62,7.57C470.01,724.11,469.76,727.37,469.29,730.58z M753.83,396.14
	c1.86-0.23,3.52-0.42,5.17-0.64c3.25-0.43,6.49-0.95,9.74-1.28c3.1-0.31,3.54-0.59,3.72-3.7c0.2-3.52,0.33-7.04,0.48-10.56
	c0.2-4.74,0.36-9.48,0.6-14.22c0.33-6.31,0.91-12.61,1.04-18.92c0.21-9.98,0.26-19.96,0.15-29.94c-0.1-9.12-0.28-18.25-0.86-27.34
	c-0.5-7.87-1.61-15.7-2.46-23.55c-0.31-2.89-0.43-5.83-1.04-8.66c-2.28-10.56-1.62-21.31-2.37-31.97
	c-0.45-6.43-0.61-12.88-1.02-19.31c-0.28-4.24-0.75-8.48-1.19-12.71c-0.66-6.24-1.37-12.46-2.06-18.7c-0.84,0.89-1.27,1.78-1.36,2.7
	c-0.82,9.31-1.62,18.63-2.35,27.95c-0.17,2.18-0.14,4.38-0.06,6.57c0.17,4.72,0.39,9.44,0.67,14.15c0.23,3.87,0.64,7.74,0.82,11.61
	c0.29,6.07,0.48,12.14,0.69,18.21c0.27,7.77,0.73,15.55,0.7,23.33c-0.02,5.94-1.18,11.89-0.95,17.8c0.35,9.31-1.24,18.44-2.17,27.59
	c-0.55,5.43-1.01,10.84-1.15,16.29c-0.06,2.3,0.24,4.62,0.15,6.92c-0.26,6.55,0.15,13.15-1.43,19.61c1.04,3.77,0.11,7.16-1.04,10.87
	c-1.6,5.17-1.89,10.75-2.72,16.15C753.48,394.75,753.64,395.12,753.83,396.14z M517.37,29.83c-5.2,6.26-7.1,13.34-9.91,19.96
	c-0.8,1.88-1.54,3.99-1.47,5.97c0.17,5.28-2.46,9.63-4.54,14.03c-3.31,6.98-7.76,13.4-9.69,21.06c-1,3.99-2.69,7.8-3.87,11.74
	c-1.6,5.35-3.03,10.75-4.49,16.14c-0.35,1.28-0.63,2.6-0.82,3.91c-1.01,7-1.33,14.02-0.79,21.08c0.15,1.93,0.38,3.98-0.08,5.82
	c-1.49,5.98-0.43,11.81,0.33,17.74c0.79,6.14,0.92,12.35-0.41,18.49c-0.5,2.32-0.92,4.66-1.37,7c1.7-1.87,3.02-3.84,4.05-5.93
	c1.07-2.16,2.27-4.38,2.71-6.71c1.3-6.88,2.18-13.84,3.37-20.75c1.24-7.18,2.57-14.34,4.01-21.48c0.72-3.56,1.75-7.07,2.69-10.58
	c1.81-6.8,3.71-13.57,5.45-20.39c0.57-2.23,0.71-4.56,1.14-6.83c0.97-5.11,2.49-10.17,2.9-15.32c1.05-13.26,4.91-25.88,8.14-38.65
	c0.72-2.83,1.18-5.73,2.14-8.47C517.72,35.26,517.84,32.96,517.37,29.83z M479.88,706.15c-1.94,4.26-1.78,8.56-1.73,12.78
	c0.09,7.98-1.79,15.8-1.59,23.83c0.14,5.64-1.12,11.31-1.64,16.97c-0.13,1.42,0.19,2.88,0.31,4.32c0.28,0.02,0.57,0.05,0.85,0.07
	c0.72-1.5,1.63-2.94,2.14-4.51c1.96-5.99,3.58-12.11,5.73-18.03c2.73-7.51,5.88-14.87,8.8-22.32c1.02-2.58,2.42-5.16,2.74-7.84
	c0.59-4.93,0.62-9.94,0.69-14.91c0.14-9.11,0.08-18.22,0.21-27.33c0.22-15.44,0.52-30.88,0.78-46.32
	c0.14-8.02,0.36-16.04,0.36-24.06c0-2.85,0.69-5.84-0.98-8.64c-2.2-0.06-3.81,1.09-4.58,2.92c-1.02,2.43-1.99,5-2.28,7.58
	c-0.52,4.68-0.63,9.42-0.73,14.14c-0.27,12.38-0.17,24.78-0.71,37.15c-0.74,17.11-1.92,34.2-2.93,51.3
	c-0.06,1.08-0.34,2.16-0.56,3.22c-0.26,1.26-0.07,2.95-1.81,3.2c-2.03,0.29-2.08-1.62-2.67-2.87
	C480.24,706.7,480.17,706.6,479.88,706.15z M577.01,534.68c0.24,0.15,0.48,0.31,0.72,0.46c0.78-0.74,1.64-1.4,2.32-2.22
	c7.31-8.91,14.58-17.85,21.88-26.77c7.68-9.38,15.3-18.81,23.1-28.09c7.03-8.36,14.26-16.56,21.42-24.81
	c0.79-0.91,1.58-1.75,1.09-3.69c-2.19,1.13-4.32,1.83-5.95,3.15c-5.24,4.21-11.07,7.39-17.03,10.39c-0.98,0.49-2.75,0.99-3.24,0.52
	c-0.79-0.75-1.16-2.32-1.11-3.51c0.18-3.96,1.32-7.55,4.09-10.64c2.07-2.31,3.68-5.04,5.49-7.58c-0.21-0.17-0.42-0.34-0.63-0.51
	c-1.2,1-2.53,1.88-3.56,3.02c-2.35,2.6-4.48,5.4-6.85,7.98c-1.21,1.32-2.56,2.83-4.15,3.4c-2.79,1-4.35,3-5.71,5.3
	c-4.26,7.2-8.04,14.72-12.78,21.57c-4.89,7.07-6.51,15.33-9.72,22.99c-1.63,3.9-2.48,8.12-3.79,12.16
	C580.8,523.46,578.89,529.06,577.01,534.68z M741.51,14.79c-3.55,3.88-4.34,8.57-5.98,12.8c-2.53,6.51-4.34,13.31-7,19.76
	c-2.25,5.47-5.21,10.66-7.98,15.91c-1.7,3.21-3.42,6.45-5.52,9.41c-3.23,4.54-5.26,9.46-6.33,14.91c-0.82,4.16-1.84,8.32-3.23,12.32
	c-1.99,5.72-4.71,11.19-6.57,16.95c-2.4,7.41-5.58,14.41-9.04,21.37c-4.74,9.55-8.81,19.44-13.15,29.19
	c-0.38,0.86-0.67,1.76-1.01,2.64c0.22,0.1,0.44,0.19,0.66,0.29c0.79-1.18,1.59-2.36,2.38-3.55c3.61-5.46,7.1-10.99,10.85-16.36
	c5.34-7.65,10.92-15.14,16.3-22.76c5.18-7.34,9.42-15.23,13.36-23.3c2.3-4.72,4.03-9.39,4.73-14.74c0.61-4.62,1.58-9.05,1.52-13.87
	c-0.1-7.54,2.35-14.78,5.4-21.73c4.3-9.79,7.97-19.82,10.61-30.19C742.22,21.03,742.96,18.16,741.51,14.79z M668.2,434.89
	c0.15,0.18,0.3,0.36,0.46,0.54c2.64-1.16,5.27-2.36,7.92-3.48c5.6-2.36,11.22-4.67,15.97-8.62c0.63-0.52,1.48-0.81,2.27-1.11
	c5.78-2.21,11.52-4.55,17.38-6.55c7.79-2.66,15.1-6.64,23.26-8.34c2.78-0.58,5.41-1.88,8.06-2.84c-0.72-2.98-0.72-3-2.92-2.79
	c-0.85,0.08-1.7,0.2-2.52,0.4c-8.84,2.18-17.67,4.38-26.5,6.59c-4.35,1.09-8.71,2.18-13.04,3.32c-4.57,1.2-9.2,2.22-13.67,3.74
	c-10.34,3.53-20.72,6.98-30.83,11.1c-7.12,2.9-14.08,6.26-18.19,13.69c-2.5,4.52-6.28,8.33-9.41,12.51
	c-1.09,1.46-2.48,2.94-1.49,5.73c4.55-2.68,9.26-4.67,12.91-7.87c2.58-2.26,5.29-3.84,8.31-4.9c6.61-2.31,12.06-6.06,16.47-11.48
	c1.53-1.87,3.41-3.46,5.16-5.15c0.91-0.88,2.03-1.66,3.21-0.69c1.27,1.03,0.46,2.25-0.25,3.23C670,432.97,669.06,433.9,668.2,434.89
	z M644.7,426.29c0.46,0.15,0.72,0.33,0.89,0.27c1.03-0.35,2.11-0.64,3.06-1.15c7.14-3.78,15.01-5.59,22.58-8.17
	c9.05-3.08,18.27-5.69,27.43-8.47c3.02-0.92,6.04-1.87,9.1-2.59c9.8-2.31,19.62-4.51,29.42-6.8c1.02-0.24,1.97-0.75,3.3-1.27
	c-2.19-6.37-4.21-12.5-7.06-18.33c-8.66,3.65-16.99,6.98-25.17,10.65c-7.97,3.58-15.8,7.5-23.68,11.28
	c-4.7,2.26-9.52,4.31-14.05,6.89c-6.85,3.91-13.54,8.11-20.2,12.35C648.19,422.32,645.9,423.73,644.7,426.29z M711.1,328.58
	c-0.24-0.08-0.48-0.16-0.72-0.24c-0.94,1.94-1.94,3.86-2.81,5.83c-2.05,4.65-3.93,9.38-6.11,13.96c-1.14,2.39-2.79,4.55-4.18,6.82
	c-3.18,5.17-6.36,10.34-9.5,15.53c-1.57,2.59-3.11,5.21-4.56,7.87c-0.29,0.54-0.38,1.57-0.06,1.97c0.34,0.43,1.27,0.46,1.96,0.53
	c0.33,0.04,0.69-0.21,1.03-0.33c8.89-3.3,18.34-3.64,27.54-5.27c2.63-0.47,5.24-1.03,7.86-1.58c1.73-0.37,2.47-1.42,2.01-3.19
	c-0.18-0.7-0.4-1.4-0.58-2.1c-0.84-3.28-1.62-6.57-2.51-9.83c-1.7-6.26-2.03-12.85-5.34-18.75
	C713.21,336.38,712.4,332.34,711.1,328.58z M764.03,478.36c0.25,0.21,0.5,0.41,0.75,0.62c1.12-0.65,2.28-1.25,3.37-1.96
	c5.58-3.65,11.16-7.31,16.71-11.02c6.04-4.04,12.06-8.13,18.06-12.22c3.3-2.25,6.57-4.56,9.85-6.85c1.88-1.31,3.86-2.51,5.61-3.98
	c3.4-2.86,3.98-5.57,2.24-10.28c-1.08,0.22-2.24,0.36-3.34,0.71c-5.54,1.78-11.08,3.57-16.59,5.45c-8.73,2.97-17.42,6.03-26.14,9.02
	c-1.48,0.51-2.5,1.35-2.98,2.91c-1.23,4.04-2.65,8.03-3.76,12.11C766.42,467.99,765.28,473.19,764.03,478.36z M608.38,404.08
	c0.38,0.16,0.76,0.32,1.14,0.47c0.88-1.48,1.81-2.94,2.64-4.46c2.32-4.26,4.23-8.79,7-12.74c3.54-5.05,7.8-9.58,11.65-14.42
	c5.24-6.57,10.74-12.75,18.08-17.21c7.25-4.41,14.1-9.48,21.18-14.19c5.86-3.9,11.81-7.67,17.67-11.57
	c1.24-0.82,2.29-1.94,3.42-2.91c-0.14-0.29-0.28-0.57-0.42-0.86c-2.82,0.55-5.81,0.7-8.44,1.74c-7.78,3.07-15.43,6.48-23.11,9.81
	c-0.76,0.33-1.41,0.95-2.1,1.44c-3.93,2.83-7.87,5.64-11.77,8.51c-3.61,2.66-7.71,4.9-10.64,8.18c-5.4,6.03-11.6,11.06-18.04,15.77
	c-2.81,2.06-4.49,4.35-5,7.6c-0.79,5.04-1.49,10.1-2.16,15.16C609.03,397.62,608.74,400.86,608.38,404.08z M776.22,441.42
	c0.15,0.22,0.3,0.45,0.44,0.67c1.16-0.23,2.35-0.37,3.48-0.71c7.31-2.23,14.62-4.49,21.91-6.77c5.79-1.81,11.57-3.66,17.34-5.51
	c1.96-0.63,3.38-1.54,3.47-4.02c0.26-7.16,0.74-14.31,1.13-21.46c0.17-2.98-0.17-3.47-3.18-3.41c-3.27,0.07-6.53,0.36-9.8,0.6
	c-3.72,0.27-7.44,0.58-10.57,0.83c-1.93,4.07-3.56,7.5-5.53,11.66c1.63-0.45,2.55-0.58,3.36-0.96c2.52-1.17,4.98-2.47,7.49-3.65
	c1.26-0.59,2.8-0.93,3.5,0.57c0.29,0.63-0.41,1.99-1.02,2.71c-1.4,1.65-3.03,3.11-4.56,4.64c-6.28,6.28-13.2,11.79-20.54,16.73
	C779.97,435.46,778.15,438.42,776.22,441.42z M771.29,600.45c-0.88,0.53-1.64,0.84-2.23,1.35c-5.14,4.46-10.38,8.81-15.32,13.48
	c-9.45,8.93-18.91,17.85-27.98,27.15c-6,6.15-11.35,12.95-16.95,19.48c-0.47,0.55-0.71,1.29-1.25,2.29
	C728.12,655.74,767.98,615.84,771.29,600.45z M683.92,342.22c-0.16-0.27-0.31-0.55-0.47-0.82c-1.93,0.23-3.82,0.73-5.47,1.96
	c-5.94,4.42-12.08,8.61-17.73,13.37c-7.51,6.34-14.5,13.28-21.95,19.69c-6,5.16-12.08,10.24-16.77,16.64
	c-3.35,4.58-6.13,9.57-9.29,14.28c-1.04,1.56-2.5,2.84-4.16,4.68c-0.13,2.26-1.37,5.16-0.32,8.17c0.45-0.11,0.78-0.08,0.89-0.22
	c4.17-5.37,8.73-10.5,12.4-16.2c7.67-11.89,17.15-21.99,28.26-30.67c2.49-1.94,4.92-3.98,7.16-6.2c7.86-7.76,15.46-15.81,24.65-22.1
	C682.16,344.11,682.99,343.1,683.92,342.22z M459.28,318.28c0.41,0.02,0.82,0.03,1.23,0.05c0.12-3.34,0.51-6.69,0.31-10.01
	c-0.7-11.31-0.55-22.6,0.92-33.81c1.59-12.14,3.75-24.21,5.64-36.31c0.12-0.76,0.09-1.54,0.13-2.31c-1.55,1.43-2.48,3.07-3.41,4.71
	c-5.06,8.9-9,18.25-10.97,28.33c-0.34,1.72-0.32,3.62,0.04,5.33c1.1,5.33,2.67,10.57,3.61,15.92c0.98,5.59,1.55,11.27,2.08,16.93
	C459.2,310.82,459.15,314.56,459.28,318.28z M797.34,556.64c0.3,0.3,0.59,0.61,0.89,0.91c1.54-0.68,3.14-1.25,4.61-2.06
	c7.01-3.84,14.01-7.71,20.97-11.66c1.34-0.76,2.6-1.79,3.65-2.92c7.67-8.25,13.36-17.78,17.84-28.06c0.8-1.83,1.36-3.75,2.03-5.63
	c-0.2-0.13-0.41-0.26-0.61-0.39c-14.63,16.73-30.07,32.66-46.39,47.72C799.44,555.37,798.34,555.95,797.34,556.64z M623.5,571.95
	c0.04,0.26,0.08,0.52,0.13,0.77c1.71-0.47,3.45-0.87,5.13-1.42c1.27-0.41,2.45-1.07,3.71-1.53c8.09-2.91,16.29-5.54,24.26-8.76
	c11.36-4.59,22.91-8.74,33.66-14.78c5.92-3.33,12.16-6.08,18.19-9.22c1.52-0.79,2.81-2.05,4.8-3.55
	C704.78,534.76,632.91,565.72,623.5,571.95z M583.73,593.73c0.14,0.29,0.27,0.58,0.41,0.88c17.01-5.82,34.42-10.38,50.94-17.69
	c16.53-7.32,33.24-14.22,49.31-22.53c-6.19,2.06-12.24,4.41-18.29,6.78c-7.21,2.82-14.37,5.76-21.62,8.46
	c-7.61,2.83-15.31,5.39-22.94,8.16c-6.38,2.32-12.7,4.77-19.58,5.25c-1.04,0.07-2.11,0.56-3.06,1.05c-2.48,1.28-4.98,2.54-7.32,4.05
	C588.87,589.87,586.34,591.86,583.73,593.73z M538.44,573.38c0.2,0.2,0.41,0.39,0.61,0.59c0.95-0.63,1.97-1.18,2.82-1.92
	c2.29-1.98,4.6-3.96,6.73-6.11c1.24-1.25,2.3-2.73,3.22-4.24c2.63-4.34,5.21-8.7,7.68-13.13c2.41-4.32,4.7-8.71,6.93-13.13
	c0.38-0.76,0.55-2.33,0.14-2.65c-2.13-1.63-2.38-3.95-3.03-6.51C555.95,542.48,544.98,556.76,538.44,573.38z M561.74,732.11
	c-4.02,1.11-7.1,3.5-9.54,6.45c-2.76,3.33-5.03,7.07-7.48,10.65c-4.27,6.25-7.6,12.94-9.3,20.35c-0.68,2.95-2,5.84-1.17,9.11
	C545.25,764.24,554.68,748.93,561.74,732.11z M780.29,494.33c-1.15,0.19-1.87,0.21-2.53,0.43c-6.12,1.97-12.23,3.94-18.32,5.98
	c-2.62,0.88-4.67,2.37-5.75,5.16c-1.17,3.04-2.78,5.92-4.11,8.91c-0.95,2.14-1.76,4.34-2.76,6.82
	C754.41,519.99,777.26,501.34,780.29,494.33z M776.62,476.11c0.12,0.24,0.23,0.48,0.35,0.72c2.12-0.36,4.25-0.68,6.36-1.09
	c0.95-0.19,1.85-0.62,2.79-0.83c2.47-0.57,4.93-1.31,7.44-1.59c6.3-0.7,6.32-0.6,10.75-4.88c0.52-0.5,0.89-1.14,1.34-1.7
	c3.86-4.82,7.7-9.66,11.59-14.46c1.27-1.57,2.29-3.21,2.37-5.46C805.27,456.57,790.94,466.34,776.62,476.11z M566.79,250.57
	c-0.46-0.11-0.91-0.22-1.37-0.32c-0.43,1.43-0.87,2.87-1.29,4.3c-0.61,2.09-0.91,4.34-1.87,6.26c-2.08,4.11-4.55,8.03-6.75,12.08
	c-1.04,1.91-2.16,3.88-2.64,5.97c-0.84,3.65-1.1,7.43-1.83,11.11c-0.68,3.44-1.63,6.83-2.47,10.23c-1.19,4.81-2.39,9.63-3.59,14.44
	c2.86-5.56,5.31-11.2,7.5-16.95c2.97-7.83,5.76-15.73,8.56-23.63c1.46-4.11,3.03-8.22,4.08-12.44
	C566.02,258.02,566.26,254.26,566.79,250.57z M794.63,402.17c-1.79,0-3.19-0.11-4.57,0.02c-3.48,0.34-6.95,0.74-10.42,1.2
	c-1.7,0.23-2.37,1.33-2.47,3.05c-0.22,4.1-0.63,8.18-0.89,12.27c-0.14,2.22-0.49,4.47,0.19,6.64c3.68-0.39,5.11-1.93,7.58-5.54
	c3.06-4.47,5.93-9.07,8.81-13.66C793.54,405.07,793.92,403.79,794.63,402.17z M509.96,426.1c0.27,0.01,0.54,0.02,0.82,0.03
	c5.77-15.65,11.55-42.78,10.56-49.12c-1.67-0.95-3.18-1.81-5.24-2.97C514.04,391.56,512,408.83,509.96,426.1z M752.47,375.96
	c-5.24-0.4-9.98,0.61-14.68,2.64c1.46,5.64,3.04,11.07,5.83,16.11c0.85,1.53,1.55,2.69,3.51,2.43c1.82-0.23,2.32-1.47,2.59-3.02
	c0.89-5.01,1.85-10.01,2.73-15.03C752.6,378.18,752.47,377.21,752.47,375.96z M666.95,442.03c-5.12,0.89-9.08,3.15-12.16,7.06
	c-6.74,8.53-13.88,16.75-20.48,25.39c-4.23,5.54-7.78,11.59-11.63,17.41c0.27,0.2,0.54,0.39,0.81,0.59
	c7.04-8.54,13.94-17.2,21.16-25.59C651.92,458.46,659.51,450.3,666.95,442.03z M601.61,527.01c0.3,0.24,0.6,0.47,0.9,0.71
	c1.3-1.63,2.57-3.29,3.9-4.89c6.54-7.83,13.12-15.63,19.63-23.48c5.35-6.45,10.68-12.92,15.94-19.45c3.73-4.63,7.37-9.34,10.94-14.1
	c1.58-2.11,2.87-4.44,4.3-6.67c-5.45,4.98-10.53,10.19-15.21,15.74c-4.77,5.66-9.13,11.66-13.69,17.51
	c-4.47,5.74-9.08,11.37-13.38,17.23C610.63,515.5,605.7,520.95,601.61,527.01z M531.75,343.56c3-7.39,11.57-41.83,11.3-44.96
	c-3.69,6.09-10.6,21.33-12.11,27.39C529.51,331.7,529.42,337.43,531.75,343.56z M512.53,268.02c-0.09-0.22-0.18-0.45-0.27-0.67
	c-0.53,0.16-1.11,0.23-1.59,0.5c-4.02,2.23-7.96,4.62-12.05,6.71c-6.79,3.47-12.31,8.52-17.69,13.77c-0.94,0.92-1.79,2.04-2.32,3.23
	c-0.59,1.31-0.77,2.81-1.13,4.23c0.29,0.2,0.59,0.39,0.88,0.59c2.7-1.96,5.72-3.61,8.04-5.95c6.25-6.28,13.02-11.93,19.93-17.43
	C508.41,271.34,510.47,269.67,512.53,268.02z M702.1,95.71c-3.23,3.84-6.22,7.73-7.9,12.47c-2.67,7.52-5.56,14.97-8.25,22.49
	c-1.68,4.7-3.17,9.47-4.74,14.22C691.48,129.83,696.63,112.71,702.1,95.71z M726.94,605.69c-3.58,0.2-6.42,1.85-9.27,3.27
	c-3.9,1.95-7.67,4.17-11.47,6.31c-6.86,3.86-13.73,7.7-20.53,11.66c-1.45,0.85-2.62,2.19-4.46,3.77
	C687.2,630.12,723.38,610.12,726.94,605.69z M759.51,491.76c8,0.34,13.01-4.79,19.09-7.15c2.47-0.96,4.52-2.99,6.77-4.53
	c-0.1-0.25-0.21-0.49-0.31-0.74c-7.42,0.98-14.4,4.91-22.35,3.53C761.65,485.77,760.65,488.56,759.51,491.76z M599.5,727.26
	c-0.21-0.25-0.43-0.5-0.64-0.75c-7.19,4.88-14.4,9.73-21.56,14.65c-2.69,1.85-5.3,3.81-7.87,5.82c-1.04,0.81-1.87,1.89-2.79,2.85
	c0.24,0.28,0.49,0.55,0.73,0.83c1.96-1.3,3.91-2.63,5.89-3.89c0.99-0.63,2.03-1.23,3.11-1.69c1.99-0.85,4.18-1.33,5.99-2.44
	c2.89-1.78,5.71-3.75,8.23-6.01C593.78,733.75,597.45,731.24,599.5,727.26z M666.07,402.64c6.01-1.12,31.97-12.75,34.63-15.76
	c-4.27,1.38-7.92,2.53-11.56,3.74c-5.64,1.88-11.18,4.13-16.92,5.59C668.64,397.13,666.64,398.78,666.07,402.64z M620.96,591.06
	c3.43,0.17,22.19-6.77,25.29-9.22c-0.61-0.55-1.25-1.07-1.83-1.65c-0.56-0.57-1.07-1.19-1.68-1.89
	C635.27,582.31,627.31,585.07,620.96,591.06z M544.11,251.41c5.15-0.58,9.2-2.12,13.29-3.51c0.71-0.24,1.35-1.06,1.75-1.76
	c1.76-3.11,3.41-6.29,5.1-9.44C557.02,240.55,550.03,244.46,544.11,251.41z M820.5,396.62c-0.02-0.39-0.04-0.77-0.06-1.16
	c-2.62-0.09-5.25-0.32-7.87-0.25c-8.83,0.23-17.66,0.56-26.49,0.89c-1.81,0.07-3.65,0.16-5.43,0.47c-1.04,0.18-1.99,0.84-3.47,1.51
	c1,0.7,1.39,1.2,1.74,1.18C792.78,398.41,806.64,397.51,820.5,396.62z M825.17,548.01c4.8-0.63,29.9-14.5,32-17.53
	c-2.87,1.18-5.65,2.53-8.42,3.91c-6.28,3.14-12.6,6.21-18.81,9.5C828.37,544.73,827.16,546.26,825.17,548.01z M699.73,636.76
	c4.94-3.91,9.92-7.77,14.8-11.75c4.92-4,9.75-8.11,15.19-12.65C724.22,613.12,706.59,627.28,699.73,636.76z M634.19,375.48
	c7.86-6.25,15.63-12.6,22.3-20.13C646.77,359.53,639.37,366.29,634.19,375.48z M646.73,418.18c-8.11,2.03-14.53,6.21-18.59,13.48
	c-0.54,0.96-1.57,1.82-0.3,3.5C634.25,429.4,640.49,423.79,646.73,418.18z M481.01,628.44c4.57-15.59,4.8-23.58,0.87-30.23
	C481.59,608.28,481.3,618.36,481.01,628.44z M647.93,554.07c4.06,1.36,6.63-1.67,9.86-2.67c3.33-1.02,6.44-2.77,9.6-4.28
	c3.15-1.51,6.27-3.1,9.37-4.73c2.97-1.57,6.03-3.01,8.77-4.94c-0.12-0.21-0.24-0.42-0.36-0.62
	C672.75,542.58,660.34,548.33,647.93,554.07z M563.06,550.4c0.23,0.15,0.46,0.3,0.69,0.45c6.6-8.46,10.54-18.15,12.67-28.84
	c-0.63,0.07-0.73,0.54-0.93,0.97C571.35,532.12,567.2,541.26,563.06,550.4z M492.44,588.44c2.37-0.7,4.57-1.47,4.64-3.85
	c0.16-5.5-0.09-11.01-0.17-16.51C494.8,570.84,492.41,582.84,492.44,588.44z M512.9,701.28c-0.38,3.92-1.04,7.84-1.07,11.77
	c-0.03,3.97-1.41,7.96-0.35,12.35C515.14,721.08,516.12,708.15,512.9,701.28z M794.17,565.52c3.88-0.11,5.9-2.67,8.49-3.97
	c2.7-1.35,5.29-2.94,7.85-4.54c2.41-1.5,5.52-2.2,6.78-5.49C813.27,551.92,798.21,560.96,794.17,565.52z M803.81,566.34
	c-0.21-0.23-0.42-0.45-0.63-0.68c-3.55,2.04-7.09,4.12-10.67,6.11c-1.89,1.05-2.39,2.78-3.02,5.22
	C796.24,575.3,799.6,570.27,803.81,566.34z M753.58,400.81c0.58,0.37,0.87,0.73,1.13,0.71c5.19-0.41,10.38-0.82,15.55-1.36
	c0.45-0.05,0.99-0.92,1.13-1.5c0.06-0.26-0.7-0.89-1.19-1.07c-0.54-0.2-1.21-0.16-1.8-0.07c-4.19,0.64-8.38,1.28-12.56,2.02
	C755.12,399.67,754.48,400.29,753.58,400.81z M432.31,373.02c-0.12-0.06-0.24-0.12-0.36-0.19c-0.27,2.73-0.58,5.45-0.81,8.18
	c-0.23,2.66-0.47,5.32-0.53,7.98c-0.06,2.79,0.23,5.58,0.12,8.37c-0.23,5.81-0.3,5.8,1.59,8.13
	C432.31,394.3,432.31,383.66,432.31,373.02z M760.5,473.08c-4,6.95-5.95,14.34-8.61,22.1C755.33,493.08,760.26,479.84,760.5,473.08z
	 M728.11,470.72c5.86-3.48,12.11-6.32,17.24-11.73C739.84,460.07,732.41,465.11,728.11,470.72z M482.64,689.95
	c0.41-8.82,0.82-17.65,1.23-26.47C482.09,672.23,480.47,680.99,482.64,689.95z M600.29,529.36c-5.43,5.06-10.02,10.85-14.25,16.95
	C591.99,541.7,596.14,535.54,600.29,529.36z M741.44,521.5c1.36-2.28,2.46-3.97,3.4-5.75c0.9-1.71,1.67-3.48,2.41-5.27
	c0.72-1.73,2.31-3.32,1.32-5.69C746.11,506.95,741.32,517.88,741.44,521.5z M623.2,554.3c4.32-1.27,12.31-5.4,14.75-7.89
	C632.41,547.77,627.11,549.59,623.2,554.3z M554.91,265.46c2.63-3.2,4.01-6.89,4.75-10.84
	C557.01,257.79,554.53,261.02,554.91,265.46z M794.98,418.76c-4.24,1.71-7.25,4.07-9.95,7.41
	C788.79,425.46,792.69,422.56,794.98,418.76z M831.86,430.55c-5.5-0.14-6.47,0.81-5.22,5.13
	C828.95,434.54,830.62,432.9,831.86,430.55z M783.96,577.26c-2.45,0.36-2.89,2.41-4.14,3.56c-1.3,1.2-2.95,2.03-4.44,3.02
	C778.71,582.43,783.13,582.37,783.96,577.26z M788.35,483.85c-2.05,1.34-4.96,1.3-6.17,3.97
	C785.68,488.68,786.31,488.3,788.35,483.85z M708.03,73.61c-3.09,2.82-4.19,6.01-3.4,9.45C705.9,79.51,706.97,76.56,708.03,73.61z
	 M641.93,526.37c4.32-1.4,7.4-3.78,8.41-6.34C647.21,522.39,644.57,524.38,641.93,526.37z"/>
</svg>
