<?xml version="1.0" encoding="utf-8"?>
<!-- Generator: Adobe Illustrator 24.1.0, SVG Export Plug-In . SVG Version: 6.00 Build 0)  -->
<svg version="1.1" id="Layer_1" xmlns="http://www.w3.org/2000/svg" xmlns:xlink="http://www.w3.org/1999/xlink" x="0px" y="0px"
	 viewBox="0 0 1224 792" style="enable-background:new 0 0 1224 792;" xml:space="preserve">
<path d="M373.96,364.31c-0.47-0.47-0.73-0.73-1.11-1.11c0-0.67,0.04-1.47-0.01-2.27c-0.16-2.74-0.11-5.52-0.63-8.19
	c-0.29-1.49-0.34-2.94-0.47-4.42c-0.05-0.57-0.35-1.12-0.52-1.68c-0.25-0.81-0.49-1.62-0.87-2.86c-1.06-0.87-2.5-2.05-3.95-3.24
	c0-1.11,0-2.18,0-3.52c1.55-1.88,4.16-2.4,6.49-3.76c-0.29-1.42,0.34-2.96-0.49-4.55c-0.34-0.64,0.27-1.78,0.41-2.49
	c1.05-0.53,1.88-0.95,2.73-1.38c1.33,0.29,2.25,1.09,2.83,2.4c0,0.97,0,1.95,0,2.92c0.11,0.04,0.22,0.09,0.32,0.13
	c0.42-0.76,0.97-1.48,1.22-2.29c0.48-1.53,1.59-2.81,1.66-4.49c1.49-1.6,1.77-3.81,2.84-5.63c0.38-0.65,0.7-1.34,0.95-2.05
	c0.25-0.72,0.32-1.5,0.57-2.21c0.62-1.74,1.34-3.44,1.93-5.18c0.38-1.12,0.97-2.16,1.27-3.28c0.31-1.18,1.27-1.99,1.47-3.22
	c0.19-1.16,0.62-2.29,1.05-3.8c0.02-0.02,0.35-0.32,0.75-0.69c0-0.76,0-1.55,0-2.34c0.09,0.02,0.18,0.04,0.27,0.06
	c0.65-1.9,1.31-3.81,1.95-5.71c0.64-1.91,1.27-3.82,2.16-6.48c-0.04-1.27-0.01-3.36,1.1-5.24c-0.61-1.96,1.12-3.38,1.16-5.26
	c0.04-1.76,0.44-3.6,1.08-5.24c0.81-2.09,1.22-4.16,0.99-6.34c0.87-0.8,1.02-1.77,1.18-2.85c0.2-1.42,0.35-2.87,0.96-4.22
	c0.17-0.38,0.07-0.88,0.08-1.33c0.01-0.45-0.19-1.07,0.03-1.34c1.57-1.91,0.9-4.48,1.98-6.54c0.34-0.65,0.17-1.56,0.23-2.35
	c0.32-0.32,0.64-0.64,0.99-0.99c0-0.69,0-1.41,0-2.26c0.36-0.29,0.79-0.62,1.18-0.93c-0.56-2.84,1.06-5.11,1.67-7.58
	c0.23-0.94,0.35-1.85,0.46-2.92c0.27-0.22,0.62-0.5,0.72-0.58c0.72-2.49,1.36-4.69,1.99-6.88c1.12-0.65,0.13-2,1.02-2.88
	c0.6-0.59,0.42-1.83,0.69-2.68c0.74-2.37,1.08-4.81,1.76-7.17c0.2-0.7,0.14-1.39,0.36-2.02c0.25-0.71,0.84-1.31,1.02-2.02
	c0.18-0.68-0.23-1.6,0.09-2.14c1.16-1.94,0.56-4.44,1.93-6.07c0.5-2.53,0.97-4.9,1.48-7.43c0.23-0.42,0.85-1.01,0.85-1.6
	c0.01-2.73,1.45-5.23,1.1-8.02c0.33-0.3,0.67-0.6,0.88-0.78c0.47-1.81,1.1-3.42,1.28-5.09c0.18-1.73,0.96-3.32,1.07-4.99
	c0.12-1.77,2.04-3.03,1.04-4.8c0.48-0.48,0.81-0.81,0.9-0.9c0.59-1.9,1.1-3.51,1.68-5.37c0.01,0,0.32-0.11,0.64-0.22
	c0.65-2.2,1.58-4.24,2.86-6.17c1.65-2.48,2.82-5.27,4.84-7.52c0.14-1.93,1.52-3.34,2.61-4.58c1.16-1.32,1.78-3.12,3.34-4.04
	c0.68-0.4,0.39-1.42,1.47-1.63c0.71-0.14,1.37-1.05,1.56-1.99c1.08,0.07,0.92-1.07,1.48-1.54c0.64-0.54,1.06-1.35,1.57-2.05
	c0.46-0.63,0.77-1.45,1.37-1.86c2.13-1.44,2.99-3.99,4.96-5.53c0.81-0.63,1.07-1.7,2.02-2.2c0.87-0.46,1.33-1.3,1.8-2.16
	c0.49-0.91,1.79-1.24,1.9-2.48c1.42-0.61,1.86-2.18,3.03-3.07c1.03-0.79,1.57-2.17,2.55-2.91c0.92-0.69,1.54-1.53,2.3-2.27
	c0.63-0.61,1.32-1.32,2.1-1.87c0.78-0.54,1.28-1.72,2.02-2.26c0.86-0.63,1.1-1.75,2.02-2.15c0.92-0.4,1.14-1.43,1.89-1.9
	c2.37-1.47,4.17-3.63,6.56-5.13c1.87-1.18,3.34-3.01,5.55-3.74c0.06-1.6,1.77-0.95,2.51-1.83c0.7-0.82,2.03-1.1,3.1-1.6
	c0.99-0.46,1.95-1.15,2.99-1.3c2.32-0.34,4.31-1.42,6.39-2.33c0.2-0.09,0.36-0.29,0.49-0.48c0.09-0.13,0.11-0.32,0.14-0.44
	c2.1-0.47,4.2-0.86,6.25-1.41c1.49-0.4,2.92-0.94,4.51-0.97c1.01-0.02,2.09-0.19,3.01-0.59c1.82-0.77,3.67-1.29,5.61-1.58
	c0.31-0.05,0.59-0.33,0.87-0.51c0.58-0.37,1.18-1.09,1.71-1.04c1.53,0.15,2.75-0.63,3.82-1.34c1.16-0.77,2.77-0.56,3.61-1.85
	c1.92,0.13,2.94-1.95,4.98-1.88c1.11,0.04,2.45-0.81,3.33-1.64c1.13-1.06,2.48-1.46,3.77-2.12c2.34-1.21,4.53-2.72,7.09-4.3
	c1.13-0.22,2.23-1.35,3.54-2.05c0.24-0.13,0.33-0.54,0.57-0.66c2.84-1.4,5.27-3.44,8-5c1.67-0.96,3.43-1.81,5.2-2.56
	c0.7-0.29,1.16-0.73,1.71-1.12c2.63-1.87,5.57-3.16,8.41-4.66c1.79-0.95,3.75-1.57,5.33-2.96c0.63-0.55,1.75-0.55,2.91-0.87
	c0.12-0.18,0.39-0.61,0.82-1.3c2.47-0.14,4.77-1.66,7.32-2.51c1.67-0.56,3.16-1.53,4.83-2.13c1.65-0.59,3.26-1.33,4.84-2.11
	c1.14-0.57,2.44-0.5,3.58-1.25c1-0.65,2.1-1.56,3.53-1.31c0.15,0.03,0.37-0.02,0.49-0.12c2.19-1.93,5.02-2.4,7.65-3.22
	c4.02-1.25,7.69-3.43,11.84-4.28c2.31-1.93,5.34-2.03,8.01-2.98c1.96-0.7,4.07-1.26,6.24-1.41c1.95-0.14,3.92-0.54,5.79-1.12
	c0.66-0.21,1.29-0.39,1.97-0.49c0.66-0.1,1.29-0.42,1.96-0.51c0.71-0.09,1.44-0.02,2.16-0.02c0.84-0.94,1.94-0.99,3.1-1.13
	c2.29-0.28,4.61-0.61,6.83-1.24c2.52-0.72,5.09-1.24,7.62-1.96c1.48-0.42,3.02-0.61,4.54-0.88c1.44-0.26,2.86-0.61,4.28-0.9
	c1.12-0.22,2.21-0.39,3.34-0.43c1.04-0.03,1.92-0.82,3.05-0.58c0.33,0.07,0.76-0.3,1.29-0.54c0.25,0.15,0.6,0.52,0.97,0.54
	c1.04,0.07,2.03,0.14,3.06,0.51c0.93,0.34,2.06-0.09,3.04,0.57c0.38,0.25,1.07-0.01,1.61,0.05c2.72,0.3,5.47,0.52,7.83,2.11
	c0.86,0.58,2.06,0.3,2.79,1.14c2.85,0.13,4.62,2.12,6.52,3.84c1.25,1.14,2.59,2.18,3.57,3.62c0.88,1.3,2.02,2.42,3.17,3.77
	c0.03,0.22,0.08,0.65,0.1,0.81c1.12,1.22,2.09,2.28,2.88,3.15c0.72,1.51,1.49,2.75,1.9,4.09c0.45,1.47,0.41,3.09,0.86,4.55
	c0.43,1.4,1.09,2.72,0.83,4.28c0.99,0.44,0.96,1.38,1.3,2.18c0.29,0.68,0.96,1.11,0.99,2.07c0.02,0.76,0.59,1.56,1.03,2.26
	c1.35,2.15,2.08,4.6,3.02,6.92c0.49,1.21,0.82,2.56,1.33,3.8c0.26,0.63,0.62,1.21,1.08,2.09c0,0.91,0,2.18,0,2.92
	c0.87,1.8,1.74,3.11,2.13,4.54c0.67,2.44,2.24,4.61,2.22,7.25c1.13,1.02,1.23,2.58,1.97,3.82c0.43,0.71,0.2,1.79,1.28,2.21
	c0,0.99,0,1.96,0,2.84c0.42,0.42,0.74,0.74,1.08,1.08c0,0.69,0,1.41,0,2.23c0.31,0.25,0.66,0.53,1.03,0.82c0,0.67,0,1.28,0,1.79
	c0.74,0.74,1.38,1.38,2.02,2.02c0.19,0.56,0.35,1.13,0.59,1.66c0.21,0.46,0.44,0.93,0.77,1.31c1.09,1.25,2.36,2.39,2.15,4.29
	c0.85,0.6,0.85,1.68,1.36,2.41c0.84,1.21,0.81,2.46,0.81,3.76c0.01,0.91,0.05,1.82-0.01,2.72c-0.11,1.6,0.17,3.1,0.85,4.55
	c0.25,0.53,0.24,1.19,0.37,1.95c0.23,0.25,0.6,0.63,0.98,1.03c0,0.9,0,1.81,0,2.21c0.85,1.78,1.6,3.11,2.14,4.51
	c0.81,2.12,1.22,4.42,2.26,6.41c1.8,3.43,2.7,7.27,5.01,10.46c0.81,1.12,1.2,2.56,1.78,3.85c0.18,0.01,0.36,0.02,0.53,0.04
	c0.06,0.07,0.19,0.13,0.18,0.19c-0.05,1.11,0.47,1.92,1.04,2.86c0.42,0.71,0.76,1.67,1.04,2.54c0.29,0.9,0.16,1.93,0.22,2.87
	c0.35,0.35,0.67,0.67,0.96,0.96c0.08,1.19-0.21,2.55,0.32,3.44c0.63,1.07-0.37,2.42,0.84,3.2c0,1.09,0,2.17,0,3.23
	c0.35,0.35,0.67,0.67,0.99,0.99c0.47,2.37-0.68,5,1.16,7.19c-0.06,2.52,0.97,5.01,0.58,7.6c1.21,3.22,0.14,6.57,0.68,9.93
	c0.22,0.22,0.54,0.54,0.96,0.96c0,8.15-0.02,16.39,0.04,24.63c0,0.66-0.56,1.11-0.3,1.83c0.23,0.64,0.21,1.38,0.25,2.07
	c0.04,0.72,0.01,1.45,0.01,2.18c0,0.73-0.17,1.5,0.03,2.17c0.98,3.34,0.03,6.8,0.6,10.11c0.58,3.39,0.33,6.76,0.47,10.13
	c0.04,1.04,0.86,1.94,0.54,3.04c1.05,2.01,0.08,4.5,1.57,6.44c0.26,0.34,0.06,1.05,0.06,1.6c0,2.9,0,5.81,0,8.71
	c0,1.83-0.05,3.63,0.88,5.36c0.35,0.65,0.15,1.71-0.06,2.52c-0.38,1.49-0.53,2.9,0.29,4.46c-0.11,0.17-0.29,0.45-0.58,0.9
	c0.62,1.01,0.84,2.19,0.03,3.43c-0.31,0.47-0.47,1.09-0.54,1.67c-0.09,0.71-0.02,1.45-0.02,2.17c0,4.72,0.04,9.44-0.02,14.15
	c-0.02,1.83,0.34,3.69-0.47,5.51c-0.3,0.66-0.28,1.76,0.08,2.36c1.04,1.71,0.14,2.96-0.67,4.47c0,2.73,0,5.63,0,8.57
	c0.35,0.17,0.72,0.34,1.3,0.61c-0.77,0.76-1.47,1.44-2.34,2.29c0,2.21,0,4.74,0,7.45c-0.37,0.25-0.82,0.55-1.14,0.78
	c0,1.6,0,2.95,0,4.31c0,0.91,0.12,1.84-0.04,2.72c-0.14,0.81-0.63,1.55-0.87,2.35c-0.15,0.49-0.18,1.04-0.18,1.56
	c-0.01,6.98-0.01,13.96-0.01,21c0.25,0.08,0.49,0.16,0.84,0.27c0.32,0.63,0.69,1.36,1.1,2.18c0.31-1.06,0.6-2.03,0.89-3.03
	c-0.46-0.22-0.83-0.39-1.2-0.57c0-0.98,0.94-1.73,2.72-2.13c0-0.77,0-1.56,0-2.07c0.87-0.69,1.55-1.22,2.18-1.71
	c0-1.2,0-2.28,0-3.24c0.52-0.48,0.98-0.9,1.6-1.47c0.25,0,0.79,0,1.43,0c0.52-0.61,1.07-1.26,1.83-2.16
	c0.23-0.01,0.84-0.05,1.68-0.09c-0.1-0.65-0.2-1.27-0.31-2.04c1.6-1.22,1.6-1.22,6.19-1.23c0.28-0.46,0.59-0.97,0.96-1.57
	c2.24,0,4.6,0.11,6.94-0.03c2.04-0.13,3.62,0.53,4.72,1.94c1.15,0.34,2.24,0.44,3.07,0.95c1.45,0.89,2.97,1.58,4.51,2.28
	c2.47,1.12,4.84,2.53,7.68,2.48c1.37,0.99,2.93,0.48,4.4,0.51c1.17,0.02,2.23,0.19,3.2,0.85c0,0.36,0,0.73,0,1.16
	c0.3,0.1,0.61,0.21,1.03,0.35c0,0.75,0,1.55,0,2.37c0.32,0.1,0.56,0.17,1.01,0.31c0.03,0.18,0.14,0.49,0.14,0.8
	c0.01,3.99-0.04,7.98,0.03,11.97c0.02,1.29-0.49,2.68,0.5,3.87c0.13,0.16,0.13,0.63,0,0.79c-0.95,1.1-0.5,2.4-0.5,3.6
	c-0.05,5.9-0.02,11.79-0.02,17.69c0,0.62,0,1.23,0,1.86c-0.37,0.08-0.62,0.13-0.87,0.18c-0.07,0.15-0.21,0.3-0.21,0.45
	c-0.01,2.27-0.01,4.54-0.01,6.8c0,0.54-0.19,1.2,0.05,1.61c0.28,0.49,0.55,0.79-0.01,1.19c0.97,0.81-0.49,1.18-0.26,1.89
	c-0.26-0.22-0.44-0.38-0.76-0.65c0,7.64,0,15.14,0,22.64c-0.46,0.22-0.83,0.39-1.31,0.61c0.42,0.14,0.73,0.25,1.12,0.39
	c0,0.4,0,0.83,0,1.32c-0.27,0.1-0.58,0.21-1.09,0.39c0,0.97,0,2.01,0,3.2c-0.38-0.34-0.57-0.52-0.89-0.81c0,1.27,0,2.42,0,3.7
	c-0.39,0.11-0.69,0.19-1.11,0.31c0,0.27,0,0.58,0,1.05c0.3-0.24,0.48-0.38,0.71-0.56c1.15,1.6-1.3,1.96-0.78,3.45
	c-0.51-0.43-0.7-0.59-1.02-0.85c0,2.75,0,5.35,0,7.83c-0.77,0.64-1.43,1.17-2.24,1.84c0,0.59,0,1.38,0,1.76
	c-0.89,1.01-1.53,1.75-2.2,2.51c0,0.88,0,1.78,0,2.31c-0.55,1.04-0.94,1.78-1.49,2.81c0.06-0.02-0.26,0.09-0.67,0.24
	c0,1.12,0,2.27,0,3.48c-0.32,0.08-0.57,0.14-1.02,0.25c-0.04,0.85-0.1,1.8-0.15,2.89c-0.53,0.65-1.15,1.4-2.03,2.47
	c0,0.04,0,0.56,0,1.42c-0.33,0.15-0.83,0.38-0.8,0.37c-0.5,1.67-0.84,2.79-1.18,3.92c-0.11-0.02-0.22-0.05-0.33-0.07
	c0,0.97,0,1.94,0,2.93c-0.34,0.07-0.58,0.12-0.94,0.2c0,1.12,0,2.27,0,3.47c-0.39,0.13-0.7,0.24-1.2,0.41c0,0.61,0,1.28,0,1.9
	c-0.44,0.11-0.68,0.18-1.03,0.27c0,2.03,0,4.09,0,6.19c-0.32,0.09-0.56,0.17-1.03,0.3c-0.31,2.16,0.03,4.48-0.17,6.84
	c-0.25,0.06-0.5,0.11-0.89,0.2c0,0.95,0,1.99,0,3.04c0.28,0.1,0.59,0.21,0.92,0.33c0,1.49,0,2.93,0,4.55
	c-0.31,0.24-0.73,0.58-1.16,0.91c0,0.52,0,0.95,0,1.34c-0.35,0.09-0.59,0.16-0.91,0.24c0,0.95,0,1.92,0,2.79
	c0.68,0.58,1.32,1.14,2.06,1.78c0,1.09,0,2.35,0,3.83c-0.2,0.15-0.54,0.42-0.97,0.76c-0.29-0.15-0.64-0.33-1.08-0.55
	c0,0.66,0,1.26,0,1.9c-0.39,0.14-0.71,0.25-1.05,0.37c-0.11,0.92-0.21,1.84-0.35,3.08c0.99,1.13,1.44,2.81,1.32,4.67
	c-0.57,0.64-1.48,1.13-0.97,2.31c0.24,0.08,0.55,0.2,0.83,0.3c0.15,0.69,0.37,1.36,0.4,2.03c0.03,0.61-0.2,1.22-0.24,1.84
	c-0.05,0.72-0.01,1.45-0.01,2.18s0,1.45,0,2.27c-0.29,0.25-0.64,0.54-1.12,0.94c0,0.98,0,2.02,0,3.59
	c-0.42-0.86-0.58-1.21-0.75-1.57c-0.08,0.06-0.16,0.11-0.2,0.17c-0.05,0.07-0.1,0.15-0.1,0.23c0,4.16,0,8.32,0,12.45
	c-0.41,0.15-0.72,0.27-1.12,0.43c0,4.41,0,8.83,0,13.27c-0.34,0.07-0.58,0.13-0.95,0.21c0,0.92,0,1.9,0,2.94
	c-0.39,0.13-0.7,0.23-1.2,0.39c0,0.79,0,1.65,0,2.73c-0.41-0.34-0.6-0.49-0.98-0.8c-0.06,1.06-0.1,1.99-0.16,3.1
	c-0.29,0.32-0.7,0.77-1.27,1.41c0.44,0.25,0.75,0.43,1.22,0.7c0,0.26,0,0.68,0,1.24c-0.17,0.06-0.48,0.17-0.89,0.31
	c0,1.11,0,2.27,0,3.45c-0.31,0.11-0.55,0.2-1.04,0.38c-0.05,0.3-0.13,0.77-0.22,1.31c-0.28,0.28-0.6,0.6-1.01,1.01
	c0,1.06,0,2.21,0,3.18c-1.44,1.28-2.74,2.44-4.02,3.58c-0.89,0.04-1.62-0.02-2.47-0.62c-1.27-0.89-2.89-1.28-4.39-1.9
	c0-0.09,0-0.27,0-0.45c-0.15-0.09-0.3-0.24-0.45-0.25c-1.03-0.09-3.88-0.97-4.45-1.05c-0.81-0.12-0.37-1.66-1.7-1.22
	c-0.47,0.16-1.29-0.69-1.92-1.11c-0.65-0.43-1.25-0.92-1.9-1.34c-0.71-0.45-1.48-0.83-2.18-1.29c-0.78-0.51-1.51-1.09-2.28-1.62
	c-0.78-0.53-1.57-1.04-2.51-1.66c-0.15,0.08-0.45,0.23-0.82,0.42c-0.96-0.31-1.61-1.12-1.97-2.02c-0.56,0-0.92,0-1.44,0
	c-0.28,1.19-0.05,2.41-0.16,3.67c0.36,0.07,0.61,0.13,0.99,0.2c0,0.54,0,1.14,0,1.8c0.47,0.37,0.89,0.7,1.21,0.95
	c0,1.09,0,1.99,0,2.81c-0.84,0.68-1.64,1.33-2.44,1.97c-0.94-1.1-2.22-0.24-3.39-0.63c-0.65-0.44-1.4-0.95-2.14-1.45
	c-0.16,0.16-0.29,0.29-0.42,0.42c-0.1-0.12-0.3-0.23-0.29-0.35c0.05-2.19-0.23-4.28-0.97-6.4c-0.47-1.35-0.09-3-0.09-4.47
	c-0.44-0.11-0.68-0.18-0.93-0.24c-0.07-0.15-0.22-0.32-0.2-0.46c0.41-2.78-1.38-4.69-2.69-6.78c-0.18-0.29-0.45-0.54-0.57-0.85
	c-0.09-0.24-0.02-0.54-0.02-0.83c-0.44-0.43-0.9-0.87-1.31-1.27c-0.64,0-1.25,0-1.95,0c0,3.05,0,6.02,0,8.95
	c-0.41,0.16-0.72,0.28-1.06,0.42c0,3.26,0,6.52,0,9.9c-0.4,0.26-0.87,0.55-1.12,0.71c0,3.06,0,5.78,0,8.57
	c-0.3,0.1-0.61,0.21-1.02,0.35c0,3.48,0,6.99,0,10.54c-0.32,0.1-0.56,0.18-1.03,0.32c-0.07,0.59-0.16,1.33-0.26,2.16
	c-0.25-0.23-0.38-0.34-0.65-0.59c-0.92,1.45-1.72,2.96-2.77,4.27c-1.02,1.27-1.06,3.24-2.92,4.04c-0.03,0.35-0.06,0.78-0.1,1.26
	c-0.29,0.11-0.61,0.22-0.96,0.34c-0.05,0.41-0.1,0.84-0.16,1.35c-0.23,0.05-0.48,0.1-0.85,0.19c-0.08,0.41-0.17,0.91-0.24,1.24
	c-0.74,0.63-1.38,1.18-2.09,1.8c0,0.41,0,0.95,0,1.56c-0.3,0.1-0.61,0.21-1.02,0.36c0.38,1.42-1.27,2.05-1.32,3.49
	c-0.05,1.21-0.77,2.38-0.92,3.68c-0.37,0.39-0.74,0.78-1.11,1.17c0,1.26,0,2.53,0,3.73c-0.38,0.44-1.06,0.89-1.02,1.24
	c0.12,0.95-1.33,0.69-0.98,1.04c0.72,0.69-0.28,0.84-0.2,1.29c0.1,0.5,0.02,1.03,0.02,1.51c-0.43,0.11-0.67,0.18-0.97,0.25
	c-0.07,2.41-1.86,4.53-1.07,7.17c-1.98,1.26-1.76,3.49-2.21,5.31c-0.48,1.97-0.11,4.14-0.11,6.21c-0.48,0.45-0.53-0.2-0.98-0.3
	c-0.06,0.86-0.12,1.71-0.18,2.53c-0.35,0.35-0.67,0.67-1.02,1.02c0,1.14,0.39,2.53-0.1,3.44c-0.56,1.04-0.06,2.24-0.93,3.2
	c-0.36,0.39-0.06,1.39-0.06,2.07c-0.36,0.36-0.68,0.68-1.06,1.06c-0.18,1.62,0.39,3.47-1.05,4.94c-0.27,0.28-0.04,1.04-0.04,1.56
	c-0.38,0.41-0.74,0.79-1.11,1.18c0.39,0.19,0.75,0.37,1.37,0.68c-0.53,0.37-0.89,0.63-1.34,0.94c0,0.6,0,1.32,0,2.04
	c-0.64,0.77-1.25,1.51-2.14,2.58c0,0.14,0,0.75,0,1.26c-0.42,0.42-0.74,0.74-1.15,1.15c0,0.51,0,1.12,0,1.79
	c-0.33,0.07-0.58,0.12-1.03,0.21c0.28,1.71-0.93,2.75-2.17,3.83c0,0.43,0,0.85,0,1c-1.01,0.98-1.83,1.78-2.66,2.58
	c-0.06-0.05-0.25-0.22-0.55-0.49c-0.09,0.6-0.17,1.1-0.25,1.58c-0.29,0.08-0.53,0.14-0.88,0.23c0,0.4,0,0.83,0,1.19
	c-1.15,0.7-2.57,2.79-3.43,3.68c-0.97,1-1.64,2.18-2.55,3.2c-0.19,0.22-0.45,0.38-0.66,0.59c-0.65,0.65-1.3,1.31-2.15,2.17
	c0-0.02,0,0.33,0,0.67c-2,1.37-3.17,3.11-3.56,5.27c-0.19-0.17-0.38-0.34-0.7-0.63c0,0.71,0,1.31,0,2.01
	c-0.38,0.14-0.69,0.24-1.11,0.39c0,0.35,0,0.78,0,1.11c-0.77,0.62-1.43,1.14-2.23,1.79c0,0.61,0,1.4,0,2.24
	c-0.32,0.09-0.56,0.16-1.02,0.29c-0.05,0.35-0.12,0.84-0.2,1.34c-0.3,0.12-0.61,0.25-0.95,0.38c-0.05,0.42-0.09,0.85-0.15,1.33
	c-0.26,0.05-0.51,0.11-0.95,0.2c-0.02,0.35-0.05,0.77-0.08,1.33c-0.24,0.08-0.54,0.19-0.96,0.33c-0.06,0.42-0.14,0.92-0.23,1.54
	c-0.27-0.21-0.45-0.36-0.79-0.63c-0.08,0.72-0.16,1.36-0.23,2.02c-0.4,0.31-1.07,0.26-1.17,1.1c-0.04,0.32-1.17,0.26-0.95,1.18
	c0.2,0.87-1.01,0.49-0.98,0.88c0.07,0.97-0.85,0.7-1.17,1.13c0,0.35,0,0.71,0,1.06c-2.12,1.45-3.41,3.97-6.09,4.68
	c-0.31,0.08-0.56,0.41-0.82,0.63c-1.26,1.08-2.74,1.99-3.73,3.28c-1.5,1.94-3.57,3.3-4.96,5.31c-0.11,0.15-0.47,0.12-0.71,0.18
	c0,0.61,0,1.15,0,1.69c-0.44,0.27-0.84,0.64-1.3,0.77c-1.56,0.45-2.52,1.57-3.35,2.84c-0.6,0.92-1.45,1.58-2.26,2.3
	c-0.56,0.5-0.87,1.28-1.38,1.85c-0.43,0.48-1.01,0.82-1.51,1.24c-0.83,0.72-1.6,2-2.46,2.06c-1.09,0.08-0.56,1.68-1.66,1.26
	c-2.93,3.19-2.97,2.52-6.3,4.37c-0.78,0.43-1.37,1.21-2.26,1.66c-0.79,0.4-1.5,0.39-2.28,0.49c-0.51,0.84-1.14,1.55-2.26,1.62
	c-1.75,0.11-3.1,1.2-4.55,2c-0.09,0.05-0.05,0.33-0.1,0.71c-1.71-0.27-2.98,0.83-4.44,1.49c-1.44,0.65-3.01,1.02-5.21,1.74
	c-0.89,0.12-2.52,0.44-4.17,0.55c-1.62,0.11-3.36-0.33-4.88,0.1c-3.02,0.85-6.04,0.33-9.05,0.44c-3.08,0.12-6.21,0.33-9.24-0.07
	c-2.2-0.29-4.48-0.75-6.56-1.84c-2-1.05-4.06-2-6.12-2.96c-0.38-0.18-0.84-0.28-1.12-0.56c-2.27-2.2-5.24-3.06-7.96-4.44
	c-1.81-0.92-3.79-1.34-5.56-2.4c-1.62-0.97-3.61-1.34-5.45-1.93c-1.57-0.5-2.96-1.63-4.36-2.59c-1.14-0.78-2.52-0.95-3.68-1.66
	c-0.33-0.2-0.88-0.03-1.32-0.03c-0.54-1.16-1.52-1.86-2.62-2.13c-1.24-0.3-2.19-1.2-3.62-1.24c-1.17-0.03-2.35-0.81-3.58-1.15
	c-1.42-0.4-2.63-1.56-4.21-2.57c-0.4-0.01-1.1-0.03-1.87-0.49c-1.58-0.94-3.34-1.57-4.96-2.45c-0.89-0.49-1.55-1.45-2.47-1.81
	c-1.18-0.47-1.74-1.32-2.27-2.32c-0.16-0.31-0.5-0.52-0.76-0.78c-0.84-0.83-1.57-1.81-2.54-2.44c-0.98-0.64-1.26-1.68-1.92-2.44
	c-0.62-0.72-1.42-1.36-2.11-2.05c-0.16-0.16-0.33-0.33-0.53-0.44c-0.52-0.27-1.07-0.49-1.58-0.78c-0.23-0.13-0.44-0.35-0.58-0.57
	c-0.46-0.75-1.06-1.36-1.65-2c-2.06-2.21-3.94-4.6-6.57-6.2c-0.28-0.17-0.62-0.26-0.98-0.42c-0.04-0.4-0.09-0.83-0.13-1.26
	c-1.92-0.85-3.05-1.88-4.55-3.4c-1.22-1.24-2.63-2.31-4.06-3.32c-1.3-0.92-2.43-1.97-3.56-3.11c-1.51-1.52-3.1-3.07-5.05-4.12
	c-0.97-0.52-1.65-1.36-2.34-2.2c-0.62-0.76-1.35-1.44-2.02-2.16c-0.62-0.67-1.23-1.36-1.82-2.05c-0.19-0.23-0.31-0.52-0.5-0.75
	c-1.04-1.19-2.19-2.33-3.17-3.53c-0.96-1.18-1.86-2.49-2.9-3.58c-0.97-1.03-2.03-1.94-2.68-3.05c-1.22-0.93-2.26-2.07-3.55-2.62
	c-1.35-0.57-2.3-1.5-3.38-2.38c-2.15-1.74-4.32-3.49-6.65-4.98c-1.45-0.93-2.78-1.87-3.77-3.56c0-0.45,0-1.17,0-1.91
	c-1.33-0.76-0.98-2.58-2.2-3.43c0.19-1.08-0.52-1.75-0.94-2.61c-0.37-0.76-0.8-1.47-1.2-2.22c-0.86-1.62-1.55-3.35-2.18-5.08
	c-0.17-0.48-0.21-0.94-0.55-1.42c-0.84-1.16-1.73-2.36-1.66-3.93c0.04-0.95-1.47-1.16-1.09-2.27c-1.61-2.02-1.28-4.97-3.25-6.82
	c0.2-0.93-0.34-1.51-1.04-2.1c0-0.83,0-1.72,0-2.61c-0.07,0.02-0.14,0.03-0.21,0.05c-0.35-1.03-0.41-2.43-1.13-3
	c-1.13-0.89-0.59-2.16-1.26-3.08c-0.64-0.89-1.09-1.91-1.81-3.22c-0.01-0.2-0.04-0.81-0.06-1.34c-0.39-0.4-0.72-0.72-1.04-1.04
	c0-0.72,0-1.44,0-2.18c-1.41-1.07-1.7-2.82-2.07-4.29c-0.35-1.42-1.17-2.61-1.46-4.06c-0.27-1.36-1.26-2.57-1.62-3.93
	c-0.37-1.4-0.86-2.73-1.4-4.05c-0.22-0.55-0.54-1.06-1.02-1.98c0-0.41,0-1.31,0-2.19c-1.48-1.4-1.52-3.39-2.23-5.1
	c-0.16-0.39,0-0.98-0.24-1.25c-1.09-1.19-0.81-2.63-0.86-3.75c-0.8-1.56-1.86-2.85-2.08-4.27c-0.21-1.41-1.81-2.28-1.27-3.85
	c-0.77-1.18-0.85-2.56-1.17-3.87c-0.32-1.32-0.79-2.59-0.99-3.96c-0.15-1.03-0.86-1.99-1.51-3.42c-0.21-2.03-0.48-4.57-0.76-7.32
	c-0.19-0.2-0.56-0.59-0.94-0.99c0-0.9,0-1.8,0-2.2c-1.21-3.07-2.02-5.74-2.26-8.76c-0.21-0.17-0.56-0.46-1.03-0.85
	c0.53-2.22-1.17-4.03-1.14-6.2c-0.33-0.33-0.65-0.65-1.02-1.02c0.14-1.38-0.04-2.74-1.07-3.84c0.33-1.42-1.03-2.43-1.01-3.63
	c0.02-1.5-1.42-2.43-1.15-3.99c-0.56-0.47-1.15-0.97-1.8-1.52c-1.22,4.12-4.71,4.42-6.84,1.65c-0.09-2.41-0.62-4.65-1.48-5.9
	c-2.19,3.43-6.1,4.35-9.46,6.59c-0.46,0.04-1.46-0.18-1.99,0.22c-0.73,0.57-1.46-0.95-1.94,0.19c-1.29-0.51-2.82-0.29-3.91-1.38
	c-0.74-0.74-1.48-1.45-2.43-1.99c-0.73-0.41-1.17-1.29-1.87-1.89c-1.12-0.95-1.91-2.28-3.03-3.69c0-0.11,0-0.54,0-0.99
	c-0.39-0.14-0.85-0.15-1-0.37c-1.54-2.26-3-4.56-4.53-6.83c-0.92-1.37-2.44-2.13-3.51-3.35c-1.03,0.14-0.89-1.18-1.84-1.4
	c-0.85-0.19-1.53-1.08-2.3-1.65c-0.69-0.52-1.4-1.01-2.08-1.54c-0.68-0.53-1.08-1.45-2.09-1.54c-1.01-2.08-3.47-2.75-4.56-4.82
	c-0.4-0.76-1.61-1.09-2.02-1.85c-0.48-0.9-1.01-1.47-1.89-1.98c-0.76-0.44-1.21-1.4-1.82-2.11c-0.08-0.09-0.34-0.03-0.51-0.04
	c-1.04-2.92-3.72-4.46-5.54-6.68c-0.15-0.49-0.24-1-0.44-1.46c-0.77-1.74-1.29-3.5-1.36-5.43c-0.09-2.65,0.08-5.41-0.64-7.91
	c-0.72-2.5-0.8-4.96-1.06-7.47c-0.13-1.28-1.08-2.49-1-3.98c-0.31-0.27-0.65-0.56-1.04-0.89c0-0.99,0-1.96,0-2.88
	c-1.44-1.09-0.63-3.14-2.02-4.15c0.02-1.67-1.11-3-1.35-4.62c-0.22-1.48-0.85-2.91-1.36-4.51c-0.03-0.01-0.28-0.06-0.65-0.14
	c0-0.55,0-1.15,0-1.67c-0.47-0.5-0.84-0.89-1.22-1.28c0-0.9,0-1.8,0-2.42c-0.81-1.4-1.74-2.5-2.11-3.77
	c-0.69-2.36-1.96-4.46-2.84-6.73c-0.49-1.25-1.6-2.27-2.58-3.6c-0.18-0.52-0.32-1.4-0.78-2.08c-0.78-1.16-1.77-2.17-2.66-3.26
	c-0.66-0.81-1.5-1.56-1.87-2.49c-0.43-1.08-1.33-1.11-2.32-1.83c-0.01-0.06-0.05-0.48-0.11-1.01c-3.61-3.63-6.75-7.83-10.38-11.61
	c-1.13-1.17-2.57-2-3.35-3.37c-0.41,0-0.68,0-1.2,0c-1.39-1.71-3.45-2.73-5.71-3.43c0-2.49-0.07-4.93,0.03-7.37
	c0.05-1.2,0.65-2.31,0.55-3.59c-0.1-1.2-0.31-2.47,0.48-3.6c0.17-0.24-0.02-0.71,0.03-1.07c0.17-1.2-0.25-2.39,0.46-3.63
	c0.52-0.9-0.24-2.22,0.57-3.31c0.3-0.41,0.08-1.24,0.04-1.87c-0.1-1.68,0.14-3.28,0.83-4.83c0.2-0.46,0.15-1.02,0.27-1.52
	c0.44-1.83,0.32-3.77,1.08-5.54c-0.71-1.28,1.54-0.83,1.13-1.93c1.49-0.36,2.24-1.93,3.6-2.35c1.36-0.42,2.22-1.33,3.16-2.23
	c0.55,0,1.09,0,1.64,0c1.2-1.39,2.97-1.58,4.55-2.16c0.87-0.32,1.82-0.42,2.69-0.75c1.29-0.49,2.6-0.75,3.97-0.96
	c4.1-0.64,8.2-1.4,11.99-3.22c1.33-0.64,2.67-1.09,4.18-1.11c1.02-0.01,2.08-0.2,3.03-0.55c1.28-0.46,2.64-0.26,3.84-0.6
	c1.12-0.31,2.3-0.51,3.42-0.89c1.39-0.47,3.05-0.11,4.61-0.11c0.56,0.33,1.17,0.99,1.73,0.96c2.4-0.14,3.63,1.54,5.18,3.05
	c-0.19,1.35,0.94,2.21,1.66,3.22c0.7,0.99,1.39,1.86,1.75,3.11c0.32,1.09,1.37,1.96,2.05,2.96c0.62,0.91,1.07,1.95,1.77,2.79
	c0.67,0.81,0.73,1.84,1.43,2.71c2.14,2.66,3.82,5.69,5.9,8.39c0.92,1.19,2.39,1.95,3.9,3.12c0.06-0.97,0.1-1.57,0.14-2.13
	c-1.21-1.32-2.1-3.34-2.26-5.72c-0.22-0.06-0.46-0.13-0.91-0.25c-0.06-0.37-0.13-0.85-0.2-1.34c-0.31-0.13-0.62-0.26-1.03-0.42
	c0.04-0.58-0.15-1.39,0.17-1.75c0.69-0.78-0.46-1.14-0.2-1.83c0.21-0.56,0.04-1.25,0.04-1.97c-0.29-0.1-0.6-0.2-1.01-0.34
	c0-0.94,0-1.91,0-2.79c-0.42-0.42-0.74-0.74-0.87-0.87c-0.41-1.34-0.76-2.47-1.11-3.59c-0.09,0.03-0.17,0.05-0.26,0.08
	C373.96,365.77,373.96,365.03,373.96,364.31z M568.81,423.14c0,1.98,0.13,4.07-0.04,6.14c-0.15,1.86,0.22,3.67,0.39,5.48
	c0.18,1.95,0.99,3.84,0.71,5.72c1.22,1.1,1.85,2.41,3.15,3.2c1.25,0.76,2.38,1.8,3.37,2.89c0.95,1.04,1.7,2.27,2.78,2.7
	c1.7-0.15,1.7-1.74,2.73-2.3c0-0.98,0-1.88,0-2.43c0.56-0.71,0.95-1.2,1.1-1.4c1.36-0.25,2.38-0.43,3.24-0.58
	c0.69,0.65,1.39,1.31,2.09,1.96c0.06,0.54,0.13,1.1,0.18,1.52c0.6-0.13,1.03-0.23,1.63-0.37c-1.12,2.47-0.47,4.76-0.74,7.32
	c0.51-0.45,0.7-0.62,0.99-0.88c0.12,0.62,0.24,1.17,0.34,1.71c0.32-0.01,0.49-0.02,0.67-0.03c0.82-1.07-0.13-1.97-0.34-2.9
	c0.93-0.73,0.53-1.61,0.54-2.54c-0.4-0.29-0.77-0.55-1.04-0.73c0-1.44,0.01-2.71,0-3.98c-0.01-1.04,0.04-2.05-0.5-3.06
	c-0.58-1.07-0.77-2.33-0.57-3.56c0.16-0.94-0.49-1.65-0.55-2.5c-0.06-0.86-0.71-1.55-0.59-2.5c0.11-0.86,0.12-1.85-0.22-2.61
	c-0.7-1.55-0.92-3.14-0.83-4.7c-0.41-0.41-0.73-0.73-1.1-1.1c0-0.59,0-1.21,0-1.84c0-1.27-0.09-2.55,0.03-3.81
	c0.09-0.94-0.55-1.65-0.55-2.5c0-0.89-0.47-1.74-0.48-2.5c-0.03-2.56-0.56-4.99-1.16-7.44c-0.2-0.82-0.28-1.67-0.43-2.66
	c0.08-0.11,0.28-0.38,0.45-0.62c-0.43-1.36-1.18-2.54-1.12-3.98c0.05-1.54,0.01-3.08,0.01-4.61c-0.36-0.95-1.13-1.65-1.14-2.83
	c-0.01-2.74-0.06-5.47-0.37-8.23c-0.46-4.05-0.95-8.15-0.7-12.28c0.17-2.89,0.03-5.8,0.03-8.73c-0.36-0.38-0.73-0.77-1.07-1.13
	c0-1.12,0-2.21,0-3.08c0.44-0.85,0.79-1.52,1.08-2.09c-0.47-0.94-0.88-1.77-1.29-2.59c-0.66-0.3-1.34-0.61-1.96-0.9
	c0-0.46,0-0.82,0-1.21c1.86-0.28,2.03-2.27,3.25-3.21c0-1.45,0-2.9,0-4.21c0.36-0.62,0.88-1.11,0.93-1.64
	c0.12-1.51,0.04-3.03,0.04-4.47c0.5-0.21,0.81-0.33,1.12-0.46c0.1-0.31,0.21-0.62,0.23-0.68c0.86-0.31,1.49-0.54,2.02-0.73
	c0.72,0.71,1.41,1.39,2.23,2.21c0,2.85,0,5.92,0,8.98c0.35,0.14,0.66,0.27,0.97,0.4c0.07,0.86,0.14,1.71,0.21,2.55
	c0.37-0.03,0.55-0.02,0.72-0.06c0.07-0.02,0.13-0.12,0.19-0.18c0.26-3.03-0.58-6.21,1.1-8.99c-0.18-0.52-0.47-1-0.48-1.47
	c-0.01-0.74,0.89-1.43,0.09-2.22c0.86-0.73,0.42-1.71,0.38-2.54c-0.05-1.01,0.4-1.85,0.55-2.78c0.07-0.46-0.23-0.98-0.34-1.47
	c-0.12-0.49-0.22-0.99-0.3-1.37c-1.09-0.52-2.08-0.98-3.07-1.45c0-0.79,0-1.58,0-2.36c0.96-0.22,2.08-0.13,2.14-1.53
	c-0.39-0.18-0.76-0.36-1.1-0.52c0-0.78,0-1.5,0-2.03c0.83-0.66,1.55-1.25,2.23-1.79c0-0.71,0-1.24,0-1.41
	c0.9-0.79,1.59-1.4,1.92-1.69c0.54-1.89-0.91-1.81-1.46-2.49c0.02-0.35,0.04-0.7,0.06-1.09c0.92-0.32,1.79-0.62,2.75-0.95
	c0-0.77,0-1.56,0-2.39c0.38-0.31,0.72-0.59,0.76-0.62c0.55-2.53,1.02-4.71,1.33-6.18c0.68-1.04,1.02-1.57,1.25-1.92
	c0.97,0,1.68,0,2.16,0c0.8,0.56,1.42,1,2.12,1.49c0,2.1,0,4.27,0.01,6.43c0,0.07,0.11,0.13,0.16,0.19c0.21-0.19,0.4-0.36,0.77-0.69
	c0.09,1.29,0.29,2.39-0.48,3.39c-0.51,0.67-0.61,1.42-0.54,2.23c0.18,2.19,0.04,4.48,0.65,6.55c0.45,1.52,0.32,2.96,0.41,4.43
	c0.02,0.38-0.82,0.77-0.01,1.2c-0.04,2.24,0.23,4.55-0.23,6.7c-0.31,1.45-0.04,2.83-0.28,4.22c1.13,1.46,0.43,2.94,0.05,4.37
	c0.2,0.24,0.36,0.44,0.41,0.5c-0.17,0.89-0.38,1.63-0.44,2.39c-0.07,0.9-0.09,1.82,0,2.72c0.09,0.93,0.5,1.85,0.5,2.77
	c0.04,8.8,0.03,17.6,0,26.4c0,0.66-0.28,1.31-0.36,1.64c0.14,1.14,0.61,2.21,0.26,2.74c-0.53,0.8-0.44,1.54-0.4,2.29
	c0.16,3.19,0.8,6.36,0.53,9.57c-0.01,0.12,0.19,0.27,0.28,0.39c0.19,0,0.37,0,0.71,0c0.39-1.98,0.8-3.98,1.17-5.99
	c0.15-0.84,0.11-1.65,0.45-2.53c0.55-1.42,0.59-3.08,0.6-4.64c0.01-1.25,0.09-2.49,0.63-3.56c0.51-1.02,0.48-2.02,0.5-3.06
	c0.01-0.8,0-1.6,0-2.31c0.44-0.41,0.78-0.72,1.02-0.96c0.36-3.01-0.04-5.91,0.47-8.87c0.46-2.65,1.09-5.41,0.69-8.19
	c-0.04-0.27-0.12-0.66,0.01-0.8c0.72-0.75,0.43-1.66,0.54-2.51c0.12-0.93,0.48-1.84,0.51-2.77c0.09-2.93-0.15-5.86,0.55-8.76
	c0.3-1.26,0.46-2.56,0.54-3.85c0.09-1.35,0.01-2.72,0.03-4.08c0-0.24,0.15-0.48,0.2-0.73c0.3-1.51,0.76-3.01,0.83-4.54
	c0.06-1.24,0.2-2.44,0.62-3.57c0.34-0.91,0.61-1.8,0.52-2.78c-0.04-0.45-0.19-1.03,0.02-1.34c1.1-1.59,1.07-3.41,1.08-5.12
	c1.5-0.42,2.55-1.62,4.15-1.14c0.37,0.37,0.82,0.82,1.28,1.28c-0.11,2.46,0.41,5.01-0.61,7.36c-0.37,0.86-0.46,1.65-0.5,2.52
	c-0.05,0.95-0.15,1.84-0.44,2.8c-0.49,1.64-0.92,3.4-0.66,5.19c0.08,0.53-0.02,1.09,0.02,1.63c0.09,1.27-0.11,2.44-1.09,3.36
	c0,2.36,0,4.72,0,7.01c0.23,0.31,0.44,0.58,0.73,0.97c-0.68,0.68-1.3,1.3-1.82,1.82c0,0.91,0.07,1.65-0.02,2.36
	c-0.09,0.75-0.43,1.48-0.51,2.23c-0.23,2.1-0.38,4.2-0.56,6.3c-0.02,0.18,0.07,0.47-0.02,0.53c-1.12,0.78-0.13,2.05-0.74,2.97
	c-0.69,1.04-0.2,2.26-0.32,3.4c-0.03,0.27,0.1,0.6-0.02,0.81c-0.98,1.74-0.06,3.73-0.69,5.44c-0.72,1.96-0.15,3.9-0.39,5.82
	c-0.05,0.43-0.04,0.88-0.15,1.3c-0.42,1.67-0.98,3.3-0.95,5.05c0.03,1.9,0.01,3.81,0.01,5.72c0,0.54,0.22,1.3-0.05,1.59
	c-0.98,1.04,0.01,2.41-0.59,3.3c-0.77,1.14-0.33,2.26-0.42,3.37c-0.1,1.35,0.26,2.8-0.08,4.07c-0.73,2.73-1.09,5.46-1.04,8.27
	c0.05,2.99,0.04,5.99-0.01,8.98c-0.02,0.84-0.3,1.67-0.44,2.43c0.16,0.43,0.34,0.81,0.46,1.21c0.39,1.36-0.7,2.55-0.52,3.85
	c0.4,3.03-0.93,6.05-0.03,9.08c0.1,0.33,0.17,0.86-0.01,1.06c-0.82,0.94-0.49,2.03-0.5,3.06c-0.03,3.63,0,7.26-0.02,10.89
	c-0.02,3.69,0.31,7.41-1.05,10.99c-0.21,0.55-0.2,1.33,0.03,1.87c0.87,2.15,1.08,4.37,1.05,6.65c-0.02,1.14-0.14,2.29,0.18,3.71
	c0.58-0.91,0.99-1.56,1.21-1.91c0.29-1.78,0.67-3.23,0.73-4.69c0.04-1.15,0.08-2.3,0.62-3.3c0.58-1.08,0.49-2.2,0.52-3.33
	c0.03-1.26-0.14-2.56,0.14-3.76c0.44-1.85,0.99-3.66,0.95-5.59c-0.01-0.45-0.19-1.15,0.03-1.32c1.17-0.92-0.18-2.56,1.06-3.4
	c0-1.27,0-2.54,0-3.81c0-0.72,0-1.44,0-2.4c0.32-0.22,0.77-0.53,0.96-0.66c0.53-2.96-0.75-5.84,1.21-8.38
	c0.09-2.2-0.39-4.58,0.61-6.73c0.44-0.95,0.44-1.84,0.5-2.79c0.23-3.55-0.55-7.15,0.54-10.66c-0.42-2.96,0.68-5.81,0.57-8.76
	c-0.05-1.29-0.14-2.56,0.44-3.89c0.49-1.13-0.21-2.59,0.57-3.86c0.2-0.34-0.28-1.09-0.34-1.28c0.16-1.18,0.35-2.01,0.38-2.86
	c0.07-1.62-0.26-3.33,0.14-4.86c0.55-2.12,1.02-4.2,0.98-6.39c-0.04-1.89-0.01-3.78-0.01-5.56c0.43-0.43,0.75-0.75,1.18-1.18
	c-0.61-3.21,0.72-6.41,0.48-9.73c-0.19-2.74,0.91-5.43,0.52-8.21c-0.01-0.09-0.03-0.19,0-0.27c0.93-2.4,1.2-4.89,1.09-7.44
	c-0.01-0.34,0.02-0.71,0.12-1.04c0.53-1.74,0.98-3.48,0.97-5.32c-0.01-1.45,0-2.9,0-4.53c0.33-0.26,0.75-0.59,1.12-0.88
	c0-1.75,0-3.38,0-4.97c0.35-0.35,0.67-0.67,1.09-1.09c0-2.69,0-5.48,0-8.23c0.41-0.15,0.73-0.26,1.04-0.37c0-0.59,0-1.13,0-1.67
	c0.38-0.39,0.74-0.78,1.15-1.21c-0.3-1.66-0.04-3.35,0.61-4.87c0.72-1.71,1.4-3.42,1.87-5.21c0.31-1.2,0.51-2.43,0.82-3.88
	c-0.54,0.35-0.77,0.5-1.11,0.72c0-1.18,0-2.15,0-3.07c1.12-0.54,2.17-1.05,3.22-1.55c0-0.95,0-1.85,0-2.61
	c0.74-1.02,1.4-1.94,2.03-2.82c0.16-0.86,0.12-1.82,0.53-2.53c0.64-1.14,0.77-2.29,0.73-3c1-2.09,1.79-3.76,2.51-5.27
	c1.92-1.36,3.54-1.21,5.03,0.36c0,1.14,0,2.29,0,3.4c-1.39,0.94-1,2.75-2.08,3.74c0.2,0.24,0.37,0.44,0.57,0.69
	c-0.12,0.23-0.24,0.45-0.35,0.68c-0.11,0.22-0.22,0.45-0.31,0.64c0.21,0.31,0.37,0.56,0.64,0.96c-2.31,1.74-1.18,4.54-2.22,6.7
	c0.65,0.8,0.7,1.66,0.39,2.46c-0.46,0.14-0.7,0.22-0.91,0.28c-0.23,1.62,0.42,3.29-0.6,4.72c-0.49,0.7-0.55,1.44-0.54,2.23
	c0.02,0.99,0.01,1.99,0.01,3.22c-0.32,0.22-0.77,0.53-1.04,0.72c-0.14,1.45,0.11,2.67-0.57,3.84c-0.62,1.07-0.65,2.33-0.58,3.57
	c0.04,0.72,0.08,1.46-0.01,2.17c-0.07,0.57-0.22,1.21-0.55,1.66c-0.65,0.88-0.5,1.83-0.51,2.79c-0.01,0.99,0,1.98,0,3.44
	c-0.22,0.11-0.73,0.35-1.03,0.5c-0.07,1.13,0.06,2.08-0.21,2.9c-0.54,1.65-0.64,3.37-0.9,5.06c-0.16,1.02-0.03,2.1-0.6,3.03
	c-0.64,1.05-0.52,2.19-0.54,3.32c-0.02,1.67,0.07,3.31-0.5,4.96c-0.48,1.39-0.78,2.87-0.6,4.39c0.04,0.34,0.01,0.72-0.11,1.04
	c-0.73,1.8-1.08,3.65-0.98,5.59c0.03,0.51-0.03,1.06-0.18,1.55c-0.5,1.66-1.01,3.29-0.91,5.07c0.08,1.45,0.16,2.92-0.03,4.35
	c-0.15,1.15-0.82,2.22-1.01,3.37c-0.21,1.28-0.25,2.57-0.49,3.87c-0.51,2.68-0.52,5.45-0.77,8.54c-0.16,0.11-0.6,0.43-0.8,0.57
	c-0.17,1.84-0.32,3.4-0.5,5.26c0.02,0.03,0.24,0.38,0.41,0.65c-0.42,0.74-0.76,1.33-1.16,2.04c0,0.67-0.11,1.51,0.03,2.3
	c0.17,0.96-0.52,1.63-0.6,2.5c-0.07,0.75-0.42,1.48-0.5,2.23c-0.09,0.9-0.02,1.81-0.02,2.72c0,0.27,0.08,0.57-0.01,0.81
	c-0.82,2.21-1.2,4.5-1.07,6.73c-0.45,0.45-0.78,0.76-1.09,1.07c-0.05,1.68,0.3,3.41-0.57,4.95c-0.61,1.07-0.5,2.19-0.53,3.32
	c-0.02,0.9,0.31,2.13-0.15,2.62c-0.87,0.94,0.22,1.73-0.18,2.51c-0.89,1.71-0.77,3.56-0.76,5.4c0.01,6.26,0,12.52,0,18.78
	c0,0.61,0,1.22,0,2.26c1.45-2.38,0.98-4.59,1.11-6.64c0.38-0.38,0.7-0.7,1.07-1.07c0-0.67-0.27-1.57,0.06-2.06
	c0.57-0.85,0.38-1.69,0.5-2.54c0.12-0.84,0.57-1.69,0.48-2.49c-0.15-1.38,0.36-2.61,0.73-3.82c0.17-0.57,0.43-1.12,0.4-1.73
	c-0.05-1.18,0.18-2.25,1.02-3.09c0.07-1.35-0.29-2.94,0.32-3.96c0.96-1.61,0.75-3.2,0.86-4.83c1-0.92,1.13-2.11,1.09-3.37
	c-0.03-1.07-0.22-2.25,0.14-3.21c0.53-1.39,1.04-2.73,0.95-4.24c-0.01-0.25,0.01-0.58,0.16-0.74c1.29-1.41,0.84-3.15,0.93-4.77
	c0.94-0.85,1.17-1.93,1.07-3.11c-0.1-1.12,0.27-2.05,1.1-2.88c-0.02-1.17-0.1-2.39,0.71-3.46c0.24-0.31,0.38-0.81,0.35-1.2
	c-0.09-1.08,0.09-2.13,0.6-3.02c0.57-1,0.49-2.02,0.51-3.06c0.01-0.8,0-1.61,0-2.62c1.81-0.17,0.85-1.65,1.23-2.59
	c0.96-2.36,0.92-5,2.03-7.33c0.07-0.15,0.02-0.36,0.01-0.54c-0.09-1.11,0.24-2.06,1.01-2.77c0.09-1.03-0.17-2.24,0.32-2.92
	c0.99-1.37,0.79-2.82,0.86-4.24c0.36-0.36,0.68-0.68,1.02-1.02c0.06-0.95-0.16-2.05,0.23-2.86c0.76-1.61,1.02-3.27,0.91-4.97
	c0.47-0.38,0.82-0.66,1.1-0.89c0-1.11-0.13-2.13,0.04-3.1c0.14-0.8,0.76-1.51,0.94-2.32c0.21-0.94-0.14-2.1,0.28-2.88
	c1.12-2.08,0.88-4.25,0.92-6.48c1.56-1.06,0.44-3.46,2.24-4.33c0-1.77,0-3.39,0-4.95c0.38-0.38,0.7-0.7,1.12-1.12
	c0-1.06,0-2.22,0-3.34c0.34-0.09,0.59-0.15,0.93-0.24c0-0.76,0-1.55,0-2.34c0.79-1.36,1.25-2.8,1.7-4.23
	c0.48-1.53,0.88-3.09,1.33-4.63c0.42-1.44,1.65-2.61,1.45-3.93c0.55-0.71,0.94-1.2,1.45-1.86c0.79,0.44,1.48,0.83,2.16,1.21
	c0.14-0.14,0.27-0.27,0.52-0.52c0.82,0.82,1.63,1.63,2.46,2.46c-1.13,1.04-1.25,2.21-1.23,3.48c0.02,0.91-0.14,1.83-0.23,2.9
	c0.05,0.15,0.17,0.52,0.3,0.88c-0.51,0.18-0.82,0.29-1.22,0.42c0,1.36,0,2.7,0,4c-0.34,0.09-0.59,0.15-0.93,0.24
	c0,0.76,0,1.55,0,2.15c-1.87,2.45-1.49,5.61-3.36,8.03c0,0.52,0,1.25,0,1.97c-0.08-0.03-0.16-0.05-0.25-0.08
	c-0.35,1.12-0.71,2.24-1.15,3.64c-0.09,0.09-0.41,0.41-0.83,0.83c0,0.88,0,1.85,0,2.81c-0.39,0.35-0.73,0.65-1.05,0.93
	c0,0.96,0,1.86,0,3c-0.31,0.22-0.75,0.54-0.87,0.62c-0.22,0.95-0.36,1.54-0.48,2.12c-0.38,1.83-1.6,3.45-1.35,5.43
	c-1,1.02,0.08,2.97-1.68,3.51c0,1.24,0,2.32,0,3.34c-0.37,0.37-0.69,0.69-1.04,1.04c0,0.88,0.14,1.81-0.04,2.67
	c-0.17,0.8-0.7,1.52-1.04,2.28c-0.07,0.15,0,0.36-0.01,0.54c-0.18,1.97-1.52,3.72-1.11,5.81c0.03,0.17-0.42,0.39-0.45,0.61
	c-0.4,2.97-2.2,5.67-1.68,8.75c-1.39,1.29-1.09,2.94-1.11,4.37c-0.43,0.43-0.75,0.75-1.08,1.08c-0.06,1.03,0.21,2.13-0.56,3.02
	c-0.57,0.66-0.55,1.44-0.54,2.23c0.01,1.17,0,2.35,0,3.55c-0.35,0.13-0.66,0.24-1.07,0.39c0,1.12,0,2.27,0,3.13
	c-0.82,1.72-1.79,3.1-2.11,4.61c-0.35,1.62-0.08,3.38-0.08,5.02c-0.46,0.11-0.71,0.17-1.05,0.25c0,1.33,0,2.66,0,3.79
	c-2.03,2.74-0.65,5.73-1.25,8.44c-0.32,0.32-0.64,0.64-0.96,0.96c0.27,2.49-1.06,4.68-1.3,7.13c-0.23,2.29-1,4.56-0.88,6.94
	c0.06,1.27-0.1,2.45-1,3.27c0,2.15,0,4.21,0,6.8c2.06-3.84,4.23-7.07,4.33-11.13c0.32-0.32,0.64-0.64,0.85-0.85
	c0.18-0.98,0.14-1.94,0.54-2.65c0.64-1.14,0.78-2.28,0.7-3.45c1.19-1.34,1.21-3.03,1.62-4.57c0.48-1.81,0.61-3.73,1.17-5.51
	c0.34-1.09,0.39-2.44,1.7-3.06c-0.59-1.49,0.55-2.88-0.14-4.29c0.36-0.38,0.73-0.77,0.88-0.92c0.26-0.93,0.46-1.58,0.62-2.25
	c0.24-0.99,0.59-1.98,0.65-2.98c0.07-1.17,0.19-2.25,1.18-3.2c0-0.88,0-1.85,0-2.84c0.38-0.33,0.73-0.62,1.04-0.89
	c0-0.78,0-1.5,0-2.21c1.18-1.07,1.11-2.5,1.08-3.33c0.66-1.31,1.06-2.12,1.43-2.85c0.29-0.11,0.52-0.2,0.83-0.31
	c-0.14-0.66-0.38-1.27-0.38-1.88c0-0.77-0.08-1.77,0.35-2.27c0.94-1.13,0.24-2.51,0.94-3.73c0.63-1.12,0.4-2.71,0.66-4.07
	c0.29-1.5,0.55-3.03,1.12-4.43c0.46-1.12,0.51-2.2,0.48-3.33c-0.04-1.18,0.21-2.24,1.16-3.26c-0.23-1.01-0.06-2.11,0.49-3.14
	c0.55-1.04,0.58-2.16,0.56-3.31c-0.03-1.13,0.63-2.1,0.92-3.15c0.32-1.16,0.29-2.42,0.43-3.64c0.06-0.51,0.18-1.01,0.27-1.52
	c0.23-1.27,0.11-2.76,0.77-3.75c1.04-1.58,0.77-3.19,0.99-4.78c0.39-0.84,0.72-1.7,0.95-2.6c0.57-2.22,1-4.47,1.68-6.66
	c0.34-1.11,0.58-2.17,0.51-3.06c0.72-1.5,1.34-2.79,2.16-4.49c0-0.24,0-0.96,0-1.38c0.58-0.73,1.02-1.28,1.58-2
	c1.35,0.52,2.6,1,3.92,1.51c-0.17,1.9,0.37,3.79-0.58,5.53c-0.67,1.23-0.52,2.55-0.54,3.87c-0.92,0.83-1.21,1.9-1.08,3.08
	c0.18,1.7-0.43,3.24-0.86,4.82c-0.39,1.47-0.28,2.9-0.11,4.22c0.48,0.15,0.71,0.23,0.95,0.3c0,1.33,0,2.59,0,3.88
	c-0.35,0.37-0.72,0.76-1.19,1.25c0,0.69,0,1.48,0,2.22c-0.37,0.08-0.61,0.13-1,0.21c0.37,2.41-1.15,4.48-1.08,6.87
	c0.07,2.35-1.55,4.46-1.04,6.82c-0.23,0.27-0.5,0.44-0.56,0.68c-0.39,1.38-0.7,2.79-1.12,4.17c-0.36,1.18-0.64,2.34-0.54,3.59
	c0.07,0.79,0.04,1.56-0.53,2.23c-0.54,0.63-0.58,1.41-0.56,2.22c0.03,1.45,0.02,2.9,0,4.35c0,0.15-0.13,0.31-0.2,0.46
	c-0.25,0.06-0.49,0.12-0.74,0.19c-0.13,0.5-0.18,1.03-0.41,1.47c-0.23,0.44-0.63,0.79-1.05,1.29c1.65,1.79-0.36,3.45,0.28,5.16
	c-0.5,0.39-0.86,0.67-1.17,0.91c0,1.19,0,2.27,0,3.32c-0.35,0.35-0.67,0.67-1.06,1.06c0,0.65,0.06,1.37-0.02,2.08
	c-0.08,0.75-0.3,1.49-0.34,1.69c0.2,1.24,0.32,1.99,0.48,2.94c-0.41,0.29-0.86,0.6-1.24,0.86c0,1.21,0,2.29,0,3.34
	c-1.27,1.32-1.15,2.87-0.99,4.44c0.37,0.3,0.7,0.57,1.15,0.93c0.75-1.04,1.4-1.93,2.07-2.85c-0.11-1.32-0.05-2.62,1.06-3.63
	c0-0.89,0-1.8,0-2.69c0.64-0.76,1.27-1.51,2.17-2.57c0-0.33,0-1.12,0-1.84c1.54-1.25,1.96-2.97,2.13-4.65
	c0.1-0.98,0.84-1.3,1.2-2.07c0-0.81,0-1.71,0-2.46c0.41-0.53,1.08-1.05,0.99-1.34c-0.42-1.4,1.1-1.96,1.17-3.1
	c1.5-1.26,1.51-3.23,2.05-4.86c0.55-1.67,1.21-3.16,2.33-4.56c0-0.66,0-1.37,0-1.92c0.41-0.55,1.03-0.99,0.99-1.38
	c-0.12-1.34,0.93-2.23,1.1-3.37c0.19-1.3,1.73-2.09,1.23-3.59c0.81-0.56,1.08-1.32,1.02-2.31c-0.05-0.89,1.03-1.2,1.18-2.25
	c0.17-1.25,1.24-2.37,2.05-3.78c0-0.6,0-1.51,0-2.43c2.18-1.93,2.47-4.76,3.46-7.26c0.31-0.1,0.62-0.21,0.92-0.31c0-0.8,0-1.53,0-2
	c0.62-0.87,1.46-1.54,1.57-2.31c0.37-2.68,2.75-4.53,2.88-7.27c0-0.07,0.11-0.15,0.19-0.19c0.82-0.45,0.56-1.48,1.01-2.01
	c0.62-0.74,1.02-1.4,0.92-2.38c-0.02-0.26,0.37-0.56,0.57-0.84c1.48-2.07,2-4.69,3.75-6.61c-0.49-1.44,0.66-2.47,1.34-3.21
	c0.87-0.93,0.7-1.94,0.81-2.47c2.02-1.91,3.68,0.18,4.98-0.33c0.69,0.6,1.09,0.94,1.49,1.29c0,0.89,0,1.86,0,2.79
	c-1.55,0.47-2.2,1.83-3.08,2.51c-0.11,0.85-0.18,1.4-0.26,2.04c-0.34-0.27-0.52-0.42-0.93-0.74c0,0.57,0.13,0.98-0.02,1.24
	c-0.93,1.62-1.9,3.21-2.89,4.79c-0.45,0.73-1.38,1.42-1.37,2.12c0.04,1.87-1.3,3.13-1.77,4.75c-0.13,0.45-0.58,0.86-0.48,1.42
	c0.12,0.62-0.16,1.03-0.61,1.38c-0.8,0.62-0.48,1.75-1.28,2.51c-0.59,0.56-0.51,1.8-1.39,2.38c0.25,2.09-1.36,3.62-1.72,5.57
	c-0.2,1.07-0.29,2.47-1.66,3.11c0,0.83,0,1.62,0,2.36c-0.36,0.08-0.61,0.13-0.97,0.21c0,0.55,0.08,1.09-0.02,1.6
	c-0.09,0.45-0.39,0.86-0.57,1.24c0.39,0.37,0.64,0.59,0.98,0.91c0.59-1.51,1.91-2.29,3.04-3.11c1.21-0.88,1.95-2.09,2.96-3.08
	c1.03-1,1.88-2.16,3.03-3.07c1.24-0.99,2.23-2.24,3.14-3.57c0.8-1.17,2.72-1.29,2.88-3c1.67-0.25,2.55-1.4,3.53-2.38
	c1.79-1.8,3.73-3.38,5.67-4.25c0.61-0.76,0.92-1.29,1.37-1.67c0.85-0.73,1.78-1.39,2.68-2.07c0.61-0.46,1.17-1.01,1.84-1.36
	c2.92-1.51,5.47-3.51,7.84-5.61c0.76,0.64,1.4-0.18,2.09-0.15c1.66,0.05,3.15-0.62,4.49-1.6c1.73-1.26,3.52-2.34,5.67-2.75
	c0.54-0.1,0.99-0.67,1.59-1.1c0.77,0,1.97,0.37,2.51-0.07c1.19-0.96,2.74,0.3,3.74-0.89c1.18,0.37,2.37,0.74,3.45,1.09
	c0.49,1.12,0.93,2.12,1.41,3.22c-0.45,0.49-0.85,0.94-1.27,1.41c0,0.52,0,1.06,0,1.6c-0.62,0.75-0.79,1.84-1.42,2.37
	c-0.81,0.68-0.35,1.81-1.12,2.28c-1.06,0.66-0.49,1.8-0.81,2.61c-0.32,0.02-0.5,0.03-0.74,0.04c-0.41,1.42-0.98,2.78-2.42,3.52
	c-0.05,0.86,0.05,1.66-0.72,2.44c-1.01,1.02-2.07,2.25-2.45,3.58c-0.43,1.52-1.31,2.58-2.21,3.72c0.47,1.22-1.31,1.33-1.19,2.47
	c0.09,0.88-1.29,1.11-1.15,2.28c0.05,0.46-0.97,1.06-1.52,1.57c-0.73,0.68-1.49,2.03-1.65,2.96c-0.83,1.09-2.35,1.72-2.28,3.41
	c-1.42,0.67-1.93,1.97-2.28,3.37c-0.25,0.06-0.49,0.13-0.93,0.24c0,0.62,0,1.29,0,2.17c-0.4-0.36-0.59-0.53-0.89-0.81
	c0,0.63,0,1.17,0,1.71c1.09-0.63,2.04-1.25,3.25-1.06c1.39,0.21,2.5-0.47,3.56-1.09c0.71,0,1.35,0.07,1.97-0.02
	c0.66-0.1,1.34-0.58,1.95-0.48c1.31,0.22,2.4-0.47,3.56-0.73c0.54-0.12,1.11-0.36,1.72-0.41c2.01-0.17,4.02-0.36,6.03-0.54
	c0.17-0.02,0.41-0.01,0.49-0.11c0.93-1.16,1.73,0.09,2.03,0.11c2.13-0.87,3.85-0.37,5.48-0.57c0.86,0.63,1.7,1.24,2.45,1.79
	c0,1.26,0,2.35,0,3.43c-1.28,0.36-1.95,1.33-2.42,2.25c-0.81,0.41-1.48,0.76-2.24,1.15c-0.09-0.08-0.28-0.23-0.5-0.41
	c-0.99,1.65-3.15,2.28-3.76,4.26c-0.44,0.08-1.12,0.01-1.25,0.24c-0.71,1.29-2.05,1.94-2.95,3.05c-1.14,1.41-2.26,3.05-4.23,3.48
	c-0.04,0.48-0.08,0.91-0.12,1.31c-2.71,0.81-4.08,3.32-6.33,4.63c-0.4,1.83-2.11,2.09-3.4,2.85c0,0.37,0,0.73,0,1.11
	c-0.73,0.37-1.47,0.74-2.21,1.12c0,0.41,0,0.76,0,1.09c-0.47,0.24-0.93,0.47-1.4,0.7c-0.13-0.11-0.32-0.28-0.57-0.5
	c-0.08,0.31-0.15,0.55-0.24,0.88c-0.65,0.33-1.39,0.7-2.09,1.05c0,0.59,0,1.13,0,1.81c1.84,0.53,3.81,0.84,5.53,1.66
	c1.76,0.85,3.63,1.35,5.39,2.12c1.77,0.78,3.68,1.16,5.32,1.91c0.09,0.41,0.15,0.65,0.18,0.79c0.78,0.18,1.46,0.29,2.11,0.49
	c1.65,0.49,3.63-0.39,4.31-1.94c0.17-0.38,1.81-2.3,2.3-2.62c0-0.53,0-1.13,0-1.64c2.36-0.59,4.12,0.62,6.03,1.62
	c0.52-0.64,1.03-1.27,1.46-1.8c1.63,0.26,3.11-0.36,4.33,0.58c0.74-0.26,1.46-0.5,2.17-0.75c0.03-0.43,0.06-0.86,0.08-1.24
	c0.42-0.15,0.74-0.25,0.91-0.31c0.15-0.39,0.24-0.64,0.36-0.96c0.27,0.27,0.4,0.4,0.53,0.53c1.44-1.04,3.38-1.27,4.51-2.79
	c0.1-0.13,0.11-0.32,0.13-0.38c-0.23-0.62-0.43-1.18-0.67-1.84c0.58-0.5,1.12-0.95,1.68-1.44c0.27,0,0.62,0,1.09,0
	c0,0.45,0,0.87,0,1.19c0.46,0.5,0.82,0.88,1.22,1.31c-0.37,0.13-0.68,0.24-1.06,0.38c0,0.4,0,0.83,0,1.28
	c1.86,0.22,3.15,2.12,5.3,1.75c0-1.18,0-2.33,0-3.44c0.55-0.28,1-0.51,1.78-0.91c0.6,0,1.58,0,2.64,0c0-4.7,0-9.3,0-13.86
	c0.41-0.17,0.72-0.29,1.13-0.47c-0.21-1.33,0.24-2.7-0.49-4.09c-0.32-0.61-0.21-1.61,0.4-2.5c1.04-1.52,1.33-3.33,1.18-5.22
	c-0.12-1.53-0.02-3.07-0.02-4.63c-0.35-0.13-0.67-0.24-1.03-0.38c0-1.49,0-3.01,0-4.49c0.35-0.35,0.67-0.67,1.01-1.01
	c0-4.69,0-9.4,0-14.12c0.37-0.39,0.74-0.78,1.1-1.15c0-1.65,0-3.28,0-4.66c-0.47-0.96-0.84-1.71-1.14-2.35
	c0.35-0.97,0.65-1.76,0.92-2.55c0.63-1.84-0.25-3.88,0.76-5.68c0.12-0.21,0.13-0.61,0-0.79c-0.8-1.12-0.48-2.37-0.5-3.31
	c0.83-0.95,1.53-1.74,2.15-2.46c0-1.32,0-2.5,0-3.68c0-1.18,0.13-2.38-0.04-3.53c-0.15-1.05,1.55-2.06-0.11-3.16
	c0.47-0.37,0.9-0.7,1.27-0.99c0-3.92,0-7.73,0-11.19c0.45-0.78,0.88-1.27,1.01-1.83c0.09-0.39-0.46-1.09-0.29-1.29
	c0.49-0.59,0.29-1.19,0.32-1.79c0.09-1.79-0.19-3.67,0.3-5.33c0.5-1.7-0.3-3.52,0.74-5.14c0.2-0.31-0.31-1.08-0.37-1.27
	c0.19-0.93,0.4-1.5,0.4-2.06c0.03-3.81,0.1-7.62-0.01-11.43c-0.11-3.74,0.41-7.48-0.46-11.22c-0.39-1.67,0.23-3.53-0.6-5.2
	c0.33-2.59-0.26-5.13-0.59-7.66c-0.33-2.56-0.76-5.12-1.16-7.67c-0.08-0.5-0.39-0.97-0.4-1.46c-0.05-2.18,0.1-4.36-0.06-6.53
	c-0.15-2.01,0.25-3.99-0.37-6.08c-0.59-2-0.14-4.31-0.14-6.49c0-0.54,0.09-1.11-0.02-1.63c-0.7-3.36-0.73-4.91-0.06-7.08
	c-0.21-0.32-0.39-0.61-0.25-0.39c0.01-2.25,1.58-3.77,0.41-5.71c0.09-0.1,0.27-0.3,0.49-0.54c-0.85-1.25-0.82-2.77-0.49-4.06
	c0.24-0.94,0.45-1.84,0.44-2.79c-0.01-1.31-0.21-2.57-0.45-3.87c-0.48-2.59-0.48-5.27-0.62-7.92c-0.07-1.36,0-2.72-0.02-4.08
	c-0.01-0.43-0.02-0.89-0.16-1.29c-0.6-1.73-1.07-3.47-0.93-5.33c0.06-0.72,0.23-1.56-0.06-2.14c-0.96-1.96-1.09-4.01-1.01-6.11
	c0.04-1.18-0.15-2.26-0.95-2.99c-0.25-2.79-1.24-5.32-1.49-7.98c-0.11-1.17-0.47-2.33-0.85-3.45c-0.38-1.1-1.24-2.11-1.36-3.23
	c-0.2-1.8-1.26-3.13-2.01-4.63c-0.23-0.46-0.98-0.91-0.91-1.22c0.31-1.23-1.45-1.47-1.13-2.55c0.38-1.31-0.92-1.79-1.28-2.75
	c-0.82-2.19-2.1-4.21-2.98-6.38c-0.63-1.56-0.93-3.26-1.25-4.44c-1.11-2.47-2.05-4.54-2.98-6.61c-0.11,0.04-0.22,0.07-0.33,0.11
	c0-0.61,0-1.22,0-1.92c-0.36-0.27-0.72-0.54-0.99-0.75c0-3.21,0-3.21-1.09-5.14c0-0.54,0.04-1.09-0.01-1.63
	c-0.19-2.15,0.65-4.46-1.06-6.38c-0.18-0.2,0-0.71-0.03-1.07c-0.04-0.43,0-0.93-0.21-1.27c-1.39-2.23-2.23-4.77-4-6.79
	c-0.54-0.62-1.12-1.45-1.16-2.21c-0.05-1.03-0.97-1.6-1.05-2.28c-0.12-1.03-0.7-1.57-1.32-2.33c0.44-1.13-0.17-2.13-0.53-3.2
	c-0.55-1.67-1.74-3.13-1.57-5.17c-0.39-0.24-0.78-0.47-1.1-0.66c0-0.69,0-1.22,0-2.29c-0.19-0.07-0.72-0.27-1.12-0.42
	c0-0.78,0-1.31,0-1.8c-0.39-0.14-0.71-0.24-1.01-0.35c0-0.97,0-1.88,0-2.55c-0.71-1.48-1.33-2.77-1.94-4.04
	c-0.49-1.99-0.97-3.98-1.48-6.05c-1.5-1.87-1.66-4.3-2.18-6.62c-0.3-0.11-0.62-0.22-0.87-0.31c-0.09-0.5-0.07-0.98-0.26-1.34
	c-0.2-0.38-0.81-0.64-0.86-1c-0.1-0.88,0-1.71-0.82-2.42c-0.62-0.53-0.51-1.53-1.12-2.26c-0.71-0.86-1.12-2.09-1.33-3.22
	c-0.57-3.1-1.81-6.02-2.26-9.15c-0.16-1.13-0.84-2.18-1.28-3.27c-1.2,0.19-0.92-1.07-1.46-1.56c-0.59-0.52-0.8-1.46-1.21-2.19
	c-0.23-0.42-0.49-1.07-0.83-1.13c-1.08-0.19-0.4-1.02-0.72-1.43c-0.98-1.13-1.76-2.48-2.88-3.41c-1.01-0.83-1.75-2.2-3.14-2.29
	c-0.44,0.28-0.72,0.47-1.05,0.68c-0.71-0.76-1.6-1.18-1.59-2.4c0.01-0.56-0.64-0.86-1.32-1.04c-1.45-0.38-2.81-1.18-4.27-1.47
	c-1.59-0.31-3.01-1.46-4.67-1.18c-1.32,0.22-2.39-0.48-3.56-0.7c-0.52-0.1-1.1-0.45-1.71-0.41c-3.28,0.21-6.56-0.31-9.87,0.44
	c-1.99,0.45-3.94,1.09-5.98,1.43c-2.87,0.48-5.69,1.33-8.39,1.44c-0.78,0.37-1.69,1.01-1.89,0.84c-0.87-0.75-1.27,0.65-2.14,0.27
	c-0.69-0.3-1.53,0.58-2.47,0.51c-0.73-0.05-1.52,0.22-2.21,0.52c-2.23,0.93-4.64,1.05-6.95,1.64c-2.27,0.57-4.55,0.93-6.87,1.24
	c-1.94,0.26-3.95,0.95-5.91,1.38c-3.07,0.67-5.98,1.85-9.03,2.56c-1.9,0.44-3.49,1.78-5.28,2.31c-1.77,0.53-3.27,1.35-5.02,2.35
	c-1.4-0.46-3.03-0.02-4.3,0.78c-2.03,1.27-4.56,1.38-6.4,2.98c-1.8-0.29-3.02,1.03-4.5,1.63c-0.54,0.22-1.13,0.33-1.67,0.56
	c-2.7,1.15-5.64,1.66-8.21,3.21c-0.69,0.42-1.1,1.57-2.24,1.14c-1.89,1.33-4.33,1.36-6.24,2.7c-0.96,0.67-2.06,1.13-3.12,1.65
	c-1.88,0.92-3.79,1.81-5.67,2.73c-0.68,0.33-1.31,0.8-2.01,1.07c-1.66,0.64-3.29,1.33-4.71,2.46c-0.31,0.24-0.81,0.24-1.15,0.33
	c-0.94,0.68-1.78,1.6-2.8,1.92c-0.95,0.3-1.66,0.83-2.48,1.26c-0.89,0.47-1.6,1.17-2.7,1.39c-1.05,0.21-2.12,0.81-2.69,1.98
	c-0.17,0.34-0.88,0.41-1.8,0.79c-0.19,0.22-0.72,0.83-1.16,1.33c-0.76,0-1.3,0-1.94,0c-2.4,3.32-6.12,4.94-9.56,6.92
	c-2.49,1.43-5.1,2.65-7.49,4.26c-1.4-0.13-2.07,1.63-3.52,1.35c-0.6,0.83-1.77,0.45-2.5,1.3c-0.54,0.63-1.63,0.79-3.01,1.4
	c0.09,0-0.45,0-1.34,0c-0.16,0.26-0.46,0.72-0.71,1.12c-0.48,0-0.84,0-1.26,0c-0.06,0.27-0.11,0.51-0.18,0.8
	c-1.06,0.37-2.25,0.6-3.26,1.16c-2.34,1.31-4.96,1.64-7.47,2.35c-1.8,0.51-3.63,0.91-5.46,1.26c-0.65,0.12-0.99,1.38-1.89,0.51
	c-0.73,0.61-1.62,0.34-2.45,0.45c-0.57,0.08-1.18,0.25-1.67,0.54c-1.17,0.69-2.39,1.22-3.66,1.69c-1.73,0.63-3.36,1.56-5.13,2.07
	c-3.18,0.91-5.44,1.96-7.3,3.75c-1.02,0.25-1.93,0.48-2.84,0.7c-0.18,1.4-1.9,1.04-2.33,1.94c-0.46,0.96-1.49,1.02-2.05,1.81
	c-0.47,0.67-1.02,1.4-2,1.67c-0.9,0.25-1.16,1.6-2.31,1.63c-0.25,1.07-1.2,1.24-2.01,1.59c-0.15,0.06-0.26,0.2-0.41,0.32
	c0,0.35,0,0.71,0,0.98c-1.1,0.78-2.14,1.52-3.23,2.28c-0.02,0.35-0.04,0.78-0.06,1.08c-0.52,0.29-0.94,0.44-1.24,0.71
	c-1.39,1.28-2.55,2.78-3.99,4.04c-0.9,0.79-1.93,1.51-2.41,2.79c-0.41,1.09-1.89,1.34-2.44,2.48c-0.26,0.54-0.8,1.05-1.33,1.33
	c-0.64,0.34-0.28,1.27-1.25,1.51c-0.65,0.16-0.94,1.61-1.62,1.84c-1.08,0.38-1.41,1.36-1.77,2.02c-0.61,1.13-1.47,1.8-2.41,2.29
	c-0.03,0.53-0.05,0.87-0.07,1.14c-2.23,0.72-2.49,3.27-4.28,4.19c-0.03,0.51-0.05,0.94-0.06,1.2c-3.6,2.58-5.23,6.72-8.64,9.33
	c-0.03,0.31-0.07,0.74-0.11,1.13c-0.38,0.16-0.79,0.2-0.98,0.43c-1.79,2.08-3.12,4.49-4.33,6.91c-0.79,1.58-1.66,3.11-2.43,4.7
	c-0.41,0.84-0.98,1.59-1.43,2.4c-1.13,2.06-2.21,4.14-3.02,6.37c-1,2.76-2.09,5.46-1.89,8.47c-1.15,1.06-1.14,2.47-1.11,3.2
	c-0.79,2.28-1.37,3.94-1.95,5.59c-0.07-0.02-0.14-0.05-0.21-0.07c0,1.09,0,2.17,0,3.26c-0.84,0.76-1.21,1.72-1.07,2.82
	c0.17,1.32-0.55,2.3-1.02,3.21c-0.29,1.28,0.31,2.51-0.43,3.55c-0.77,1.08-0.8,2.27-0.75,3.16c-1.44,2.92-1.54,5.87-2.44,8.8
	c-0.18,0.17-0.52,0.47-0.98,0.89c0.85,2.81-0.83,5.36-1.02,8.13c-1.12,1.55-0.82,3.6-1.87,5.23c-0.49,0.77-0.38,1.93-0.59,3.21
	c-0.05,0.05-0.37,0.37-0.5,0.5c-0.3,1.14-0.4,2.12-0.83,2.92c-0.26,0.48-0.43,0.89-0.52,1.43c-0.19,1.26-0.63,2.49-0.75,3.76
	c-0.17,1.81-1.1,3.38-1.55,5.11c-0.46,1.77-0.63,3.66-1.46,5.36c-0.55,1.12-0.61,2.54-1.32,3.51c-0.72,1-0.13,2.01-0.62,3.03
	c-0.9,1.88-1.34,3.98-1.88,6.02c-0.29,1.08-0.03,2.48-0.65,3.24c-0.89,1.1,0.21,2.58-1.01,3.43c0.11,1.68-0.86,3.23-0.56,4.95
	c0.12,0.7,0.02,1.43,0.02,2.15c-0.73,1.27-1.25,2.6-1.61,3.98c-0.33,1.24-0.25,2.64-0.8,3.75c-0.86,1.74-0.87,3.52-0.85,5.26
	c-0.89,0.96-1.07,2.02-1.12,3.2c-0.06,1.36-0.6,2.63-0.95,3.93c-0.25,0.92-0.63,1.58-0.91,1.88c-0.36,1.85-0.32,3.46-0.99,4.69
	c-1,1.83-1.4,3.79-2.03,5.7c-1.03,3.1-1.96,6.27-3.82,9.32c0,0.44,0,1.16,0,1.84c-0.36,0.36-0.68,0.68-0.99,0.99
	c-0.07,0.62,0.05,1.33-0.23,1.82c-1.21,2.13-1.94,4.48-2.78,6.74c-0.96,2.6-2.75,4.87-3.06,7.72c-0.05,0.47-0.34,1.02-0.69,1.32
	c-0.75,0.65-0.89,1.4-0.98,2.35c-0.08,0.87-0.7,1.69-1.02,2.55c-0.32,0.86-0.57,1.75-0.86,2.62c-0.1-0.02-0.2-0.04-0.3-0.07
	c0,0.79,0,1.58,0,2.36c-0.39,0.35-0.73,0.65-1.02,0.9c-0.12,0.96,0.11,1.78,1.06,1.91c1.42,0.19,2.44,1.16,3.68,1.65
	c1.25,0.49,2.58,0.78,3.83,1.27c1.9,0.74,3.88,1.26,5.85,0.82c0.78-0.17,1.25-0.54,2.1-0.06c0.63,0.36,1.5,0.3,2.03,1.01
	c0.25,0.33,0.66,0.73,1.02,0.76c1.79,0.13,2.73,1.43,3.81,2.49c0.09,1.86-0.25,3.52-1.55,4.87c0,1.86,0,3.73,0,5.4
	c0.65,0.12,1.2,0.23,1.79,0.34c1.71-1.37,2.57-3.39,3.5-5.29c0.29-0.58,0.53-1.21,0.87-1.81c0.96-1.69,2.02-3.35,2.83-5.09
	c0.54-1.16,0.95-2.32,1.78-3.36c0.77-0.97,1.18-2.22,1.78-3.33c1.7-3.15,4.38-5.58,6.39-8.5c0.56-0.82,1.25-1.71,2.39-2.06
	c0.54-0.17,1.1-0.73,1.34-1.26c0.3-0.66,0.51-1.15,1.28-1.47c0.61-0.25,0.94-1.1,1.49-1.56c1.54-1.3,3.12-2.53,4.55-3.68
	c1.16-0.18,2.17-0.33,3.47-0.53c0.31,0.11,0.95,0.33,1.83,0.65c0.63,0.63,1.46,1.46,2.29,2.29c0.9,0.9,1.92,1.71,2.66,2.72
	c0.66,0.9,2.08,0.97,2.31,2.25c1.33,0.3,1.9,1.55,2.85,2.31c0.96,0.76,2.02,1.43,2.83,2.33c1.37,1.54,3.07,2.5,4.96,3.26
	c0.04,0.41,0.09,0.84,0.14,1.26c0.33,0.14,0.74,0.19,0.93,0.42c0.23,0.29,0.23,0.62,0.66,0.93c1.19,0.86,2.49,1.45,3.73,2.18
	c1.45,0.85,2.98,1.17,4.53,1.59c0.89,0.24,1.72,0.65,2.8,1.07c2.19-0.53,4.22,1.29,6.64,1.2c1.05-0.04,2.14,0.88,3.54,1.52
	c1.44,0.16,3.27,0.35,5.08,0.56c0.15,0.02,0.25,0.28,0.4,0.32c2.8,0.72,5.44,2.16,8.35,1.83c0.43,0.43,0.87,1.08,1.05,1.02
	c1.36-0.5,1.69,1.13,2.81,1.24c0.95,0.09,1.93,0.61,2.76,1.15c1.82,1.18,3.77,1.69,5.93,1.49c0.24-0.24,0.5-0.5,0.77-0.77
	c0-1.06,0-2.15,0-3.4c1.05-0.1,0.93-1.32,1.78-1.89c0.67-0.45,1.18-1.3,2.07-1.52c1-0.26,1.83,0.33,2.68,0.77c0,1.07,0,2.16,0,3.25
	c0.38,0.39,0.74,0.78,1.12,1.18c0,0.36,0,0.72,0,1.13c0.32,0.11,0.63,0.22,0.89,0.32c0.26,1.11,0.51,2.19,0.81,3.5
	c0.59,0.75,1.96,1.31,1.61,2.7c0.64,0.2,1.12,0.46,1.61,0.49c1.12,0.07,1.78,1.07,2.73,1.28c0.75,0.17,1.5,0.27,2.22,0.59
	c0.61,0.27,1.35,0.32,1.89,0.68c0.65,0.43,1.07,1.26,2.06,0.97c0.25,0.63,0.64,1.03,1.31,1.31c0.7,0.29,1.31,0.83,1.9,1.32
	c0.42,0.35,0.88,0.48,1.35,0.69c1.2,0.52,2.49,1.15,3.33,2.1c1.33,1.51,3.08,2.26,4.96,3.7c-0.28-2.02-0.49-3.6-0.72-5.28
	c-0.28-0.25-0.62-0.55-0.94-0.83c0-0.96,0-1.86,0-2.75c-0.33-0.33-0.65-0.65-0.96-0.96c-0.39-3.25-1.3-6.32-2.85-9.13
	c0.2-0.44,0.45-0.8,0.53-1.2c0.09-0.42,0.02-0.88,0.02-1.53c1.02-0.53,2.04-1.06,3.26-1.69c0.63,1.14,1.23,2.17,1.77,3.23
	c0.53,1.05,1.33,2.1,1.42,3.19c0.09,1.24,0.15,2.56,0.71,3.53c0.69,1.22,0.2,2.43,0.56,3.57c0.34,0.34,0.66,0.66,1.08,1.08
	c0,1.06,0,2.22,0,3.33c0.41,0.14,0.72,0.24,1.05,0.36c-0.31,2.14,0.42,3.97,1.27,5.71c0.31,0.06,0.56,0.11,0.71,0.15
	c0.18,2.29,0.36,4.47,0.54,6.79c1.86,0.69,1.79,3.28,3.62,3.58c0.45,0.81,0.64,1.53,1.11,1.94c0.74,0.66,1.47,1.31,2.06,2.11
	c0.61,0.81,1.27,1.58,1.91,2.36c1.81-0.39,2.71-0.46,2.92-0.19c-0.06,0.21-0.13,0.46-0.21,0.76c-0.26-0.23-0.44-0.39-0.57-0.5
	c-0.47,0.24-0.91,0.46-1.37,0.69c-0.02,0.16-0.06,0.34-0.05,0.51c0.01,0.26,0.05,0.51,0.04,0.47c3,2.76,3.9,6.52,5.82,9.27
	c2.06,0.98,3.87,1.84,5.8,2.75c-1.1,1.75-1.03,3.33-0.2,4.85c-0.2,0.3-0.36,0.55-0.54,0.82c0.42,0.15,0.74,0.26,1.13,0.39
	c0,0.64,0,1.25,0,1.81c0.54,0.23,0.97,0.4,1.38,0.58c0.16-0.16,0.29-0.29,0.46-0.46c0.22,0.27,0.45,0.55,0.88,1.08
	c-0.14,0.82-0.33,1.91-0.54,3.11c1.23,1.12,1.03,2.73,0.99,4.22C570.97,421.62,569.92,422.35,568.81,423.14z M635.22,596.34
	c-0.51,0.91-0.88,1.4-1.07,1.96c-0.42,1.19-0.78,2.4-1.09,3.63c-0.2,0.78-1.35,0.97-1.11,2c0.22,0.95-0.47,1.64-0.89,2.34
	c-0.47,0.78,0.11,1.68-0.67,2.49c-0.6,0.62-0.8,1.76-0.63,2.8c0.07,0.4-0.06,0.83-0.09,1.14c-0.45,0.11-0.69,0.16-0.99,0.23
	c0,3.23,0.02,6.39-0.01,9.56c-0.01,0.59-0.04,1.28-0.34,1.75c-0.69,1.11-0.82,2.27-0.73,3.36c-1.25,1.59-2.42,3.07-3.75,4.77
	c-1.62,0.49-3.2,1.82-5.26,2.25c-2.01,0.42-3.91,1.4-6.06,0.93c-1.2-1.67-1.74-2.92-1.12-4.03c0.46-0.82,0.36-1.54,0.38-2.3
	c0.09-4.02-0.85-7.98-0.56-12.02c0.16-2.26,0.03-4.53,0.03-6.8s0.47-4.67-0.13-6.77c-0.62-2.14,0.23-4.41-0.96-6.39
	c0.41-2.96-0.62-5.82-0.53-8.75c0.04-1.26-0.11-2.42-0.67-3.24c-1.19-0.33-2.17-0.61-3.01-0.84c-0.25-1.63-0.56-3.08-0.66-4.55
	c-0.11-1.51-0.02-3.04-0.02-4.56c-0.81,0.66-1.58,1.45-1.56,2.21c0.06,1.55-1.12,2.3-1.75,3.39c-0.38,0.66-1.18,1.07-1.79,1.6
	c0.15,0.09,0.3,0.18,0.45,0.27c-0.49,1.8-0.98,3.61-1.45,5.35c-1.51,0.96-2.92,1-4.25-0.19c0-0.18,0.05-0.38-0.01-0.54
	c-0.44-1.13-0.94-2.21-0.02-3.39c0.22-0.28,0.03-0.88,0.03-1.34c0-1.91-0.03-3.81,0.01-5.71c0.03-1.19-0.2-2.25-1.07-3.06
	c-0.32-2.71,0.86-5.28,0.55-7.97c-0.11-0.95-0.36-1.86-0.5-2.78c-0.15-0.96,0.33-2.01,0.45-3.03c0.06-0.52,0.15-1.23-0.12-1.56
	c-0.78-0.91-0.62-2.1-0.32-2.81c0.74-1.76,0.36-3.51,0.44-5.25c0.08-1.81-0.01-3.63,0.04-5.44c0.01-0.39,0.27-0.78,0.42-1.16
	c-1.25-1.73,0.48-4.05-1.04-5.68c0.43-0.78,0.84-1.29,0.39-2.25c-0.41-0.86-0.47-2.18-0.09-3.03c0.37-0.83,0.51-1.74,0.25-2.29
	c-0.78-1.65-0.35-3.32-0.47-4.98c-0.29-3.91,0.53-7.86-0.5-11.76c-0.31-1.19-0.08-2.52-0.09-3.78c-1.34-0.76,0.09-1.88-0.39-2.93
	c-0.49-1.04-0.11-2.49-0.11-3.76c0-0.36,0.15-0.84-0.03-1.07c-0.91-1.17-0.12-2.64-0.72-3.79c-0.69-1.31-0.15-2.64-0.34-3.95
	c-0.04-0.27,0.07-0.58-0.03-0.8c-0.95-2.12-1.11-4.36-1.07-6.64c0.02-1.04,0.05-2.05-0.5-3.06c-0.59-1.07-0.67-2.32-0.6-3.57
	c0.04-0.7,0.04-1.44-0.16-2.11c-0.45-1.57-1.04-3.1-0.93-4.79c0.03-0.42-0.03-0.9-0.22-1.26c-0.8-1.52-0.93-3.15-0.86-4.82
	c0.02-0.42-0.06-0.83-0.09-1.16c-0.44-0.1-0.69-0.15-1.02-0.22c0-1.57,0-3.09,0-4.56c-0.41-0.34-0.73-0.61-1.13-0.94
	c-0.74,1.22-1.38,2.29-2.06,3.43c-0.01,2.51-1.51,4.89-1.3,7.54c0,0.06-0.13,0.12-0.18,0.19c-0.75,0.96-0.78,2.08-0.75,3.23
	c0.02,0.86-0.22,1.68-0.43,2.52c-0.41,1.67-0.89,3.39-0.68,5.2c0.12,1.02-0.11,2.02-0.42,3.06c-0.5,1.64-0.77,3.4-0.67,5.19
	c0.14,2.26,0.02,4.53,0.04,6.8c0,0.52,0.02,1.07,0.17,1.56c0.24,0.8,0.73,1.54,0.87,2.35c0.16,0.88,0.04,1.81,0.04,2.72
	c0,1.72,0,3.45,0,5.17c0,0.54-0.12,1.14,0.06,1.61c0.77,1.97,1.09,4,1.03,6.11c-0.01,0.45-0.13,0.96,0.02,1.35
	c0.89,2.32,1.15,4.72,1.08,7.18c-0.01,0.43,0.04,0.88,0.17,1.29c0.26,0.8,0.73,1.54,0.87,2.35c0.15,0.88,0.08,1.81,0.02,2.71
	c-0.06,0.98,0.2,1.86,0.52,2.78c0.39,1.12,0.54,2.33,0.81,3.62c0.11,0.02,0.54-0.01,0.58,0.11c0.48,1.25,1.45,2.28,1.4,3.79
	c-0.07,1.92-0.27,3.87,0.47,5.78c0.4,1.02,0.53,2.19,0.56,3.3c0.07,3.25,0.02,6.51,0.02,9.32c-0.86,1.56-1.47,2.78-2.19,3.93
	c-1.89,3.04-4.83,5.51-7.74,6.33c-1.23,0.34-2.53,0.38-3.42,1.22c-2.48,0-4.83,0-7.12,0c-0.37-0.37-0.7-0.7-1.03-1.03
	c-0.52,0-1.09,0.11-1.6-0.02c-2.65-0.66-5.39-0.99-8.02-1.67c-2.67-0.69-5.45-1.24-7.83-2.74c-1.36-0.86-3.05-1.2-4.05-2.64
	c-0.29-0.42-0.69-0.94-1.13-1.05c-0.72-0.19-0.35-1.49-1.37-1.19c-0.62-1.56-1.25-3.11-1.83-4.68c-0.11-0.3-0.11-0.86,0.08-1.02
	c0.7-0.59,0.39-1.33,0.43-2.01c0.06-1.01-0.17-2.05,0.41-2.98c-0.81-0.95-0.19-2.08-0.44-3.06c0.41-0.43,0.78-0.82,1.15-1.21
	c0.15-1.3,0.47-2.54,1.01-3.67c1.14-2.38,2.86-4.1,5.55-4.74c1.05-0.25,2.04-0.75,3.05-1.17c2.06-0.87,4.11-1.67,6.45-1.55
	c2.53,0.13,5.08,0.03,7.35,0.03c0.9,0.43,1.59,1.05,2.27,1.03c1.35-0.03,2.59,0.33,3.85,0.62c1.71,0.4,3.4,0.93,5.21,1.43
	c0.01-0.01,0.2-0.17,0.37-0.32c0.21,0.17,0.39,0.32,0.58,0.47c0.33-0.36,0.62-0.67,0.81-0.88c-0.23-1.06-0.52-1.89-0.56-2.73
	c-0.09-1.75,0.15-3.54-0.57-5.21c-0.73-1.69-0.52-3.46-0.54-5.22c-0.01-0.89,0-1.78,0-2.57c-0.45-0.43-0.77-0.74-1.09-1.04
	c0-0.93-0.05-1.84,0.01-2.74c0.07-0.91-0.37-1.68-0.5-2.51c-0.39-2.43-0.52-4.89-0.76-7.44c-0.23-0.23-0.55-0.55-0.9-0.9
	c0.36-2.39-1.41-4.35-1.24-6.86c0.15-2.16-0.99-4.3-1.05-6.61c-0.06-2.29-0.77-4.55-1.22-6.96c-0.23-0.22-0.57-0.52-0.88-0.82
	c0-1.31,0-2.57,0-4.06c-0.32-0.23-0.75-0.55-1.08-0.8c0.01-1.66,0.2-3.19-1.03-4.36c-0.36-1.45,0.5-3.03-0.58-4.41
	c-0.89-1.15-0.12-3.03-1.7-3.8c0-1.03,0-1.93,0-2.78c-0.37-0.37-0.69-0.69-1.1-1.1c0-0.69,0-1.49,0-2.27
	c-0.39-0.35-0.73-0.64-1.04-0.92c0-0.78,0-1.5,0-1.86c-1.75-3.26-3.16-6.34-4.93-9.23c-0.51-0.05-1,0.02-1.36-0.16
	c-0.91-0.46-1.85-0.92-2.59-1.59c-0.71-0.64-2.13-0.23-2.3-1.6c-2.19-1.34-4.75-2.12-6.4-4.26c-0.04-0.06-0.15-0.09-0.23-0.1
	c-1.9-0.22-3.05-1.57-4.29-2.79c-2.08-2.06-4.11-4.17-6.45-5.96c-0.98-0.75-2.1-1.44-2.68-2.63c-1.43-0.15-1.63-1.75-2.79-2.34
	c-1.12-0.57-2.09-1.55-2.94-2.51c-0.63-0.71-1.01-1.63-1.77-2.3c-0.76-0.67-1.37-1.52-1.98-2.35c-0.97-1.31-2.32-2.56-2.69-4.03
	c-0.35-1.43-1.45-2.27-1.87-3.61c-0.41-1.32-1.72-2.35-2.62-3.49c0.13-1.73-0.96-2.9-1.66-4.26c-0.65-1.26-1.11-2.62-1.59-3.96
	c-0.51-1.43-0.93-2.88-1.4-4.36c-0.17-0.04-0.42-0.09-0.76-0.17c0-1.17,0-2.32,0-3.26c-1.93-2.69-1.26-5.85-2.41-8.52
	c-2.32-0.52-3.53-3.03-5.85-3.38c-0.91-0.63-1.78-1.21-2.61-1.82c-0.83-0.61-1.54-1.47-2.46-1.83c-1.18-0.46-1.73-1.32-2.18-2.13
	c-1.03-0.47-1.85-0.92-2.36-1.8c-1.54-0.03-2.42-1.2-3.52-2.02c-1.17-0.87-2.32-1.81-3.6-2.47c-1.32-0.68-2.33-1.71-3.54-2.5
	c-0.26-0.17-0.61-0.22-0.91-0.32c0-0.44,0-0.8,0-0.96c-0.77-0.64-1.42-1.21-2.1-1.74c-1.05-0.8-1.64-2.06-3.01-2.58
	c-0.77-0.29-1.36-1.17-1.94-1.86c-0.58-0.69-1.51-0.92-1.96-1.85c-0.33-0.68-1.44-0.98-1.8-1.67c-0.73-1.36-2.01-1.79-3.08-2.5
	c-0.98-1.25-2.04-2.45-3.25-3.47c-1.11-0.92-2.13-1.87-3.03-3.01c-1-1.28-2.27-2.34-3.09-3.15c-1.72-1.09-3.32-0.96-4.8-1.36
	c-1.56-0.42-2.83-1.74-4.42-1.29c-0.47-1.24-0.85-2.26-1.29-3.42c0.56-0.62,1.64-1.15,0.99-2.37c-1.87-0.31-2.62-2.15-4.09-3.07
	c-1.39-0.87-2.55-2.11-3.81-3.19c-1.41-1.21-2.81-2.43-4.06-3.51c-1.27-0.45-2.24,0.05-3.06,0.67c-0.58,0.44-0.83,1.28-1.36,1.8
	c-0.68,0.66-1.53,1.14-2.25,1.76c-0.68,0.59-1.33,1.24-1.92,1.92c-0.74,0.85-1.25,2.08-2.17,2.57c-1.02,0.54-1.37,1.48-1.99,2.21
	c-1.23,1.43-2.18,3.1-3.4,4.88c0.25,1.04-1.18,1.38-1.61,2.28c-0.43,0.9-0.55,1.95-0.81,2.93c-0.79,0.6-1.87,1.37-1.87,2.13
	c0.01,1.63-1.16,2.47-1.75,3.67c-0.19,0.38-0.54,0.78-0.49,1.14c0.16,1.33-1.16,1.86-1.45,2.92c-0.89-0.23-0.68,0.59-0.9,0.97
	c-0.42,0.73-0.6,1.73-1.21,2.17c-0.7,0.51-0.49,1.6-1.63,1.87c-0.56,0.13-0.4,1.52-1.15,2.17c-1.09,0.95-0.97,2.79-2.4,3.56
	c0.27,1-0.52,1.44-1.09,2.04c0,1.32,0,2.68,0,4.04c0,1.27-0.17,2.57,0.05,3.8c0.23,1.29,0.2,2.69,0.61,3.82
	c0.47,1.29,0.15,2.6,0.57,3.78c0.33,0.07,0.58,0.13,1.04,0.23c-0.19,0.48-0.36,0.9-0.4,1.01c0.18,1.01,0.31,1.76,0.44,2.53
	c0.31,0.3,0.64,0.62,0.95,0.93c0,0.56,0,1.1,0,1.65c0.84,0.76,1.07,1.72,1.11,2.82c0.04,1.04,1.52,1.51,1.2,2.76
	c1.21,0.59,0.88,1.81,0.98,2.86c0.43,0.3,0.8,0.56,1.05,0.74c0.06,1.13-0.26,2.15,0.55,2.95c-0.09,1.81,1.46,2.99,1.74,4.74
	c0.3,1.86,1.52,3.55,1.97,5.41c0.44,1.82,1.87,3.44,1.12,5.41c0.41,0.41,0.73,0.73,0.86,0.86c0.55,2.29,0.74,4.51,1.62,6.39
	c0.81,1.73,1.67,3.5,2.77,5.13c1.85,2.74,3.47,5.64,5.24,8.43c1.1,1.73,2.7,3.27,3.35,5.14c0.7,2.02,2.92,3.31,2.61,5.73
	c0.82,0.53,0.76,1.63,1.23,2.17c0.76,0.85,0.95,1.65,0.89,2.66c1.37,1.15,1.71,2.93,2.66,4.35c0.7,1.04,1.13,2.25,1.7,3.37
	c0.66,1.28,1.35,2.54,2.21,4.16c0.03,0.33-0.01,1.03,0.43,1.83c0.63,1.16,1.36,2.41,1.62,3.66c0.32,1.6,1,3.1,1.52,4.57
	c0.48,1.37,0.74,2.65,0.75,4.03c0.01,3.08,0,6.17,0,9.25c0,0.54,0.14,1.14-0.02,1.62c-0.69,2.05-1.21,4.13-1.07,5.92
	c-1.89,3-4.39,3.73-7.13,3.19c-1.26-0.56-2.46-0.87-3.38-1.55c-2.11-1.56-4.09-3.3-6.11-4.97c-0.28-0.23-0.59-0.47-0.76-0.77
	c-1.55-2.7-2.89-5.5-3.83-8.48c-0.18-0.56-0.55-1.13-0.51-1.68c0.09-1.24-0.6-2.12-1.06-2.97c-0.36-2.43,0.68-4.95-1.15-7.05
	c0-2.05,0-4.14,0-6.22c0-0.45,0.19-1.12-0.04-1.32c-0.92-0.84-0.07-2.06-0.6-2.75c-0.8-1.04-0.47-2.1-0.4-3.09
	c0.09-1.46-0.46-2.73-0.71-4.09c-0.06-0.32-0.43-0.62-0.41-0.91c0.17-1.83-1.03-3.22-1.52-4.83c-0.26-0.88-0.39-2.09-1.01-2.52
	c-1.07-0.74-0.91-2.1-1.86-2.78c0.44-1.61-1.09-2.63-1.22-4.15c-0.09-1.09-0.93-2.13-1.46-3.18c-0.68-1.35-1.39-2.68-2.13-4.12
	c-0.04-0.01-0.29-0.06-0.63-0.13c0-0.56,0.17-1.17-0.03-1.62c-0.9-2.08-2.06-4.04-2.75-6.21c-1.23-0.46-0.85-1.83-1.47-2.68
	c-0.34-0.46-0.44-1.21-0.76-1.85c-0.65-1.28-1.66-2.44-1.97-3.79c-0.25-1.08-0.87-1.56-1.6-2.17c0.11,1.58-0.5,3.12,0.37,4.68
	c0.35,0.62,0.37,1.8-0.01,2.38c-0.77,1.18-0.24,2.43-0.56,3.55c-0.94,0.45-1.85,0.89-2.56,1.23c-1.38-0.4-2.59-0.74-3.56-1.02
	c-0.68-1.04-1.04-2.22-1.82-2.64c-1.23-0.67-0.71-1.94-1.4-2.77c-0.6-0.73-0.52-1.92-1.49-2.46c0.26-0.26,0.38-0.38,0.51-0.51
	c-0.17-0.73-0.48-1.47-0.46-2.2c0.04-1.53-0.17-2.94-1.25-4.08c0.28-0.4,0.47-0.68,0.7-1c-1.16-1.66-0.24-3.61-0.68-5.39
	c-0.33-0.33-0.65-0.65-0.88-0.88c-0.41-3.06-0.62-6.07-2.67-8.46c-0.95-0.55-2.17-1-2.63-1.86c-0.63-1.17-1.84-1.46-2.6-2.39
	c-0.81-1-1.6-2.17-3-2.54c-0.23-1.37-1.61-1.83-2.29-2.91c0-0.31,0-0.67,0-0.98c-1.97-1.03-2.27-3.39-3.93-4.69
	c-1.68-1.31-1.54-4.06-3.68-5.15c0-0.54,0-1.08,0-1.68c-0.31-0.11-0.62-0.22-1.01-0.35c-0.57-2.01-1.73-3.7-3.09-4.79
	c-0.77-2.75-2.73-4-4.44-5.39c-2.9,0-5.71-0.06-8.52,0.02c-1.38,0.04-2.76,0.31-4.13,0.54c-0.31,0.05-0.57,0.47-0.87,0.5
	c-2.05,0.21-3.87,1.63-5.79,1.12c-2.33,1.34-4.72,1.85-7.02,2.07c-2.52,0.24-4.8,1.7-7.29,1.17c-1.22,1.11-2.6,1.19-3.93,1.1
	c-0.4,0.45-0.7,0.79-0.98,1.11c-0.59,0-1.13,0-1.41,0c-1.57,0.98-2.87,2-4.34,2.67c-1.43,0.65-2.16,2.25-3.8,2.41
	c0,0.83,0,1.55,0,2.61c-0.26,0.16-0.73,0.45-0.96,0.59c-0.35,1.27,0.05,2.28-0.51,3.37c-0.56,1.09-0.54,2.5-0.69,3.79
	c-0.09,0.81,0.05,1.64-0.04,2.45c-0.09,0.84-0.32,1.67-0.53,2.5c-0.14,0.57-0.49,1.12-0.51,1.68c-0.07,1.63,0.03,3.27-0.04,4.9
	c-0.07,1.58-1.15,3.14,0,4.73c0.11,0.16,0.06,0.61-0.08,0.75c-0.88,0.85-0.21,1.85-0.49,2.72c0.77,0.52,1.45,0.91,2.04,1.41
	c0.69,0.59,1.19,1.54,1.96,1.84c0.9,0.35,1.4,1.11,1.96,1.64c2.64,2.54,5.18,5.21,7.53,8.02c1.45,1.73,2.67,3.67,4.26,5.3
	c0.6,0.61,1.02,1.39,1.56,2.07c0.82,1.03,1.68,2.02,2.49,3.06c0.31,0.4,0.45,0.94,0.8,1.29c0.39,0.41,1.24,0.6,1.35,1.03
	c0.43,1.66,1.81,2.54,2.65,3.55c0.17,0.63,0.19,1.1,0.4,1.45c1.11,1.89,2.98,3.33,3.13,5.81c0.04,0.66,0.73,1.4,1.31,1.86
	c0.88,0.69,0.71,1.56,0.74,2.43c0.32,0.32,0.64,0.64,1.04,1.04c0.03,0.53,0.05,1.14,0.07,1.56c0.77,1.06,1.43,1.98,2.15,2.99
	c0,0.59,0,1.31,0,1.52c0.48,1.23,0.75,2.03,1.09,2.79c1.19,2.7,1.55,5.67,2.91,8.32c0.72,1.4,1.15,3.01,1.37,4.58
	c0.13,0.95,0.08,2.11,0.67,2.7c0.88,0.88,0.07,2.07,0.97,2.93c0.52,0.5,0.63,1.51,0.65,2.43c0.05,2.14,1.32,4.08,1.21,6.29
	c-0.01,0.21,0.22,0.45,0.38,0.65c0.52,0.66,0.58,1.43,0.55,2.23c-0.03,0.72-0.2,1.52,0.03,2.17c0.83,2.41,1.2,4.88,1.03,7.32
	c0.73,1.11,1.38,2.11,2.04,3.1c0.62,0.94,0.51,2.45,2.08,2.63c0.38,1.25,1.32,1.95,2.45,2.5c0,0.53,0,1.06,0,1.4
	c0.78,0.64,1.72,1.07,2.03,1.78c0.39,0.88,0.99,1.47,1.63,2.03c0.62,0.53,0.66,1.45,1.65,1.8c0.77,0.27,1.6,1.1,1.89,1.87
	c0.73,1.93,2.83,2.29,3.87,3.79c2.64,0.65,3.83,3.5,6.41,4.23c2.79,2.33,5.38,4.85,7.36,7.93c0.58,0.91,1.01,1.92,1.35,2.59
	c1.19,1.35,2.19,2.49,3.21,3.64c0,0.36,0,0.71,0,0.81c1.22,1.01,1.86,2.32,3.21,2.99c1.34,0.67,2.84,0.53,3.9,1.28
	c1.88-0.98,3.61-1.87,5.17-2.68c0.57-3.46,0.93-6.72,0.75-10.01c-0.06-1.18-0.01-2.36,0-3.54c0-0.17,0.07-0.33,0.05-0.23
	c0.53-0.78,0.92-1.34,1.25-1.83c0.89-0.53,1.75-1.03,2.65-1.56c-0.32-0.64-0.54-1.09-0.76-1.53c0.22-0.26,0.4-0.46,0.58-0.67
	c-0.16-0.18-0.33-0.37-0.51-0.57c0-0.89,0-1.8,0-2.53c0.89-0.94,1.7-1.79,2.67-2.82c1.23,0.25,2.57,0.51,3.37,0.68
	c0.75,0.98,1.55,1.56,1.5,2.05c-0.15,1.45,1.15,2.42,1.09,3.64c-0.07,1.52,0.97,2.53,1.28,3.88c0.56,2.42,2.26,4.47,2.98,6.91
	c0.45,1.53,1,3.04,1.62,4.9c0.04,0.04,0.36,0.36,0.77,0.77c0,0.69,0,1.49,0,2.24c0.4,0.37,0.73,0.68,0.97,0.89
	c0.21,4.11,2.12,7.6,3.36,11.27c0.18,0.55,0.7,0.98,1.11,1.53c-0.18,1.29-0.05,2.57,1.1,3.68c0,0.87,0,1.85,0,2.84
	c0.38,0.33,0.73,0.62,0.7,0.59c0.85,2.75,1.49,5.08,2.44,7.38c0.96,2.31,0.89,5,2.28,7.37c-0.6,2.83,1.52,5.45,1.02,8.37
	c0.4,0.42,0.77,0.81,1.14,1.19c-0.09,0.03-0.18,0.07-0.27,0.1c0.4,1.11,0.8,2.21,1.4,3.88c0,0.64,0,1.9,0,3.1
	c0.37,0.37,0.69,0.69,1.11,1.11c0,0.7,0,1.49,0,2.36c0.36,0.28,0.72,0.56,1.04,0.81c0,0.81,0,1.53,0,2.25
	c0.08-0.03,0.16-0.05,0.24-0.08c0.72,2.06,1.44,4.12,2.19,6.23c0.22,0.07,0.53,0.18,0.82,0.28c0,1.17,0,2.25,0,3.55
	c0.32,0.23,0.75,0.56,1.12,0.83c0,0.86,0,1.57,0,2.24c1.06,1.15,1.13,2.53,1.04,3.86c0.45,0.4,0.79,0.7,0.69,0.61
	c1.03,3.05,1.89,5.61,2.75,8.17c0.3,0.1,0.62,0.21,1.08,0.37c-0.24,0.43-0.44,0.79-0.64,1.14c0.44,0.88,0.89,1.79,1.54,3.1
	c0.03,0.37,0.1,1.21,0.16,1.93c0.46,0.14,0.7,0.21,1.02,0.31c-0.52,2.15,1.23,3.74,1.26,5.74c1.45,2.11,2.01,4.61,3.05,6.9
	c0.6,1.31,0.75,2.86,1.47,4c0.78,1.26,0.55,2.92,1.79,3.9c-0.17,1.13,0.61,1.92,0.94,2.87c0.34,0.97,0.13,2.12,1.21,2.78
	c0.08,0.05-0.01,0.35,0.03,0.52c0.17,0.74,0.32,1.5,0.56,2.22c0.49,1.43,1.57,2.6,1.91,4.11c0.34,1.51,1.49,2.6,2.06,4.05
	c0.49,1.26,1.25,2.57,1.98,3.81c0.72,1.23,1.24,2.57,1.77,3.89c0.35,0.85,1.35,1.55,1.42,2.38c0.1,1.12,0.8,1.66,1.46,2.12
	c1.73,1.19,3.44,2.37,4.91,3.88c0.37,0,0.73,0,1.2,0c0.48,0.64,1,1.33,1.61,2.14c0.45,0.19,1.09,0.41,1.67,0.74
	c0.62,0.35,1.11,1.06,1.59,1.35c0.71,0.43,1.21,1,1.8,1.5c0.62,0.52,1.33,1.05,1.7,1.74c0.38,0.73,1.7,0.32,1.57,1.48
	c1.58,0.82,2.3,2.48,3.58,3.59c1.95,1.69,2.99,4.2,5.13,5.72c1.15,2.64,3.7,4.11,5.36,6.34c1.02,1.37,2.44,2.43,3.61,3.69
	c0.97,1.04,2.13,1.87,3.11,2.92c0.96,1.03,2,2.11,3.24,2.95c1.35,0.91,2.2,2.53,4.01,2.85c0.11,0.02,0.16,0.29,0.27,0.41
	c0.78,0.86,1.49,1.85,2.6,2.26c1.1,0.41,1.6,1.25,1.99,2.11c0.3,0.11,0.56,0.16,0.77,0.3c1.75,1.12,2.96,2.82,4.43,4.23
	c0.88,0.84,1.84,1.61,2.51,2.64c1.75-0.51,1.62,1.8,2.93,1.95c0.93,1.75,2.5,2.85,3.95,4.12c0.84,0.74,2.13,1.25,2.5,2.36
	c0.22,0.66,0.52,0.72,0.99,0.93c0.4,0.17,0,1.2,0.91,0.97c1.5,1.23,2.99,2.47,4.13,3.41c1.53,0.69,2.68,1.19,3.81,1.72
	c3.49,1.66,6.89,3.52,10.47,4.94c2.53,1,5.13,1.98,7.16,3.64c2.06,1.68,4.9,1.7,6.68,3.7c0.08,0.09,0.35,0.03,0.53,0.01
	c0.93-0.13,1.65,0.39,2.39,0.81c0.99,0.56,1.99,0.98,3.16,0.83c0.08,0.36,0.13,0.61,0.23,1.08c0.36,0,0.85-0.14,1.2,0.02
	c4.66,2.15,9.39,4.18,13.68,7.05c0.91,0.61,1.87,1.16,2.87,1.6c0.44,0.19,1.05,0.03,1.54,0.03c0.57,0.6,1.07,1.12,1.42,1.49
	c1.28,0.25,2.38,0.5,3.48,0.67c1.09,0.17,2.19,0.26,3.35,0.39c0.12-0.09,0.32-0.25,0.51-0.4c0.52,0.2,1,0.56,1.45,0.53
	c1.11-0.07,2.27-0.62,3.3-0.43c1.11,0.21,2.18,0.53,3.33,0.47c0.09-0.01,0.21,0.04,0.27-0.01c1.37-0.98,2.93-0.44,4.41-0.53
	c3.1-0.18,6.21,0.22,9.31-0.49c1.61-0.37,3.09-0.87,4.55-1.63c0.13,0.11,0.32,0.29,0.46,0.41c0.53-0.32,1.03-0.65,1.56-0.92
	c0.82-0.42,1.65-0.83,2.5-1.19c0.92-0.4,1.88-1.04,2.81-1.02c1.22,0.03,1.08-1.35,2.12-1.46c1.45-0.16,2.56-1.28,3.86-1.81
	c1.74-0.71,3.35-1.59,4.92-2.58c0.65-0.41,1.33-0.83,1.88-1.36c0.51-0.49,1.56-0.45,1.52-1.49c1.01-0.09,1.34-1.17,2.1-1.5
	c0.86-0.37,1.46-0.96,2.06-1.59c0.57-0.6,0.97-1.56,1.65-1.83c1-0.4,0.95-1.41,1.59-1.95c0.42-0.35,0.72-0.86,1.17-1.13
	c0.9-0.52,1.84-0.89,2.15-2.08c0.29-1.11,1.97-1.04,2.19-2.31c2.01-1.71,4.03-3.42,6.04-5.13c0.13-0.11,0.29-0.18,0.44-0.27
	c0-0.36,0-0.72,0-0.97c2.98-2.54,5.42-5.6,8.69-7.78c0.02-0.36,0.05-0.79,0.07-1.08c1.42-0.85,2.97-1.06,3.33-3.08
	c0.2-1.14,1.48-2.09,2.32-3.09c0.12-0.15,0.48-0.11,0.82-0.17c0-0.83,0-1.62,0-2.39c1.41-0.51,2.37-1.29,2.26-2.8
	c0.43-0.15,0.74-0.25,1.13-0.39c0-0.65,0-1.26,0-1.83c0.39-0.11,0.69-0.2,1.04-0.3c-0.43-0.51-1.83-0.27-0.8-1.52
	c0.53,0,1.14,0,1.84,0c0-0.7,0-1.31,0-1.91c1.13-0.93,2.4-1.66,3.18-2.75c0.46-0.64,0.9-1.39,1.5-1.76
	c0.75-0.47,0.47-1.82,1.67-1.75c0.26-0.71,0.25-1.46,0.93-2.09c0.84-0.78,1.33-1.92,2.47-2.4c0.86-2.33,2.79-3.79,4.42-5.53
	c-0.33-0.99,0.31-1.65,0.98-2c1.43-0.76,2.18-2.12,3.16-3.26c1.08-1.25,2.2-3.85,2.42-4.82c0.87-0.74,1.52-1.29,2.24-1.89
	c0-1.71,0-3.41,0-5.09c0.73-0.04,1.34-0.07,2.04-0.1c0-0.88,0-1.67,0-2.37c0.42-0.42,0.74-0.74,0.79-0.79
	c0.36-1.13,0.49-2.01,0.9-2.72c0.49-0.87,0.51-1.8,0.55-2.78c0.42-0.3,0.79-0.56,1.1-0.77c0-1.41,0-2.67,0-3.75
	c1.56-2.53,2.3-5.12,2.15-7.86c0.51-0.14,0.81-0.23,1.28-0.35c-0.28-0.52-0.47-0.87-0.64-1.18c0.67-0.68,0.44-1.48,0.36-2.23
	c-0.35-0.13-0.67-0.24-1.02-0.37c0.59-0.39,1.14-0.75,1.57-1.03c0.27-1.81,0.52-3.44,0.79-5.18c0.18-0.06,0.49-0.18,0.85-0.31
	c0.05-1.02,0.1-2.06,0.15-3c0.45-0.1,0.7-0.15,1.02-0.23c0-1.03,0-2,0-2.88c0.42-0.42,0.74-0.74,1.15-1.15c0-0.51,0-1.12,0-1.87
	c0.34-0.24,0.71-0.5,1.03-0.72c0-1.38,0-2.64,0-3.93c0.33-0.12,0.65-0.24,0.8-0.29c0.39-1.31,0.46-2.76,1.19-3.69
	c1.08-1.39,1.34-2.79,1.26-4.41c-0.01-0.15,0.14-0.3,0.22-0.45c0.17-0.02,0.35-0.03,0.57-0.05c0.55-1.44,1.12-2.9,1.64-4.27
	c0.34-0.11,0.58-0.18,0.89-0.28c0-0.83,0-1.62,0-1.87c0.51-0.99,0.66-1.68,1.09-2c0.53-0.41,1.2-0.47,1.09-1.47
	c-0.05-0.43,0.68-0.94,1.09-1.46c0-0.52,0-1.04,0-1.54c0.38-0.13,0.7-0.25,1.09-0.38c0-0.46,0-0.88,0-1.22
	c0.79-0.36,1.47-0.67,2.22-1.02c0-0.65,0-1.25,0-1.81c0.37-0.08,0.62-0.13,0.88-0.18c0.06-0.47,0.11-0.9,0.16-1.41
	c0.24-0.05,0.48-0.1,0.67-0.14c0.35-0.68,0.67-1.36,1.03-2.02c0.21-0.38,1.47-3.69,1.48-4.01c0.06-1.93-0.27-3.9,0.55-5.76
	c-0.38-2.95,0.67-5.79,0.6-8.65c0.38-0.38,0.7-0.7,1.03-1.03c0-0.98-0.36-2.18,0.07-2.93c0.93-1.62,0.29-3.39,0.89-5.08
	c0.57-1.61,0.12-3.58,0.13-5.4c0-0.63-0.21-1.45,0.1-1.84c0.81-1.01,0.24-2.09,0.44-3.1c0.2-1.01,0.64-1.95,0.57-3.04
	c-0.11-1.72,0.04-3.45-0.05-5.17c-0.07-1.36,0.46-2.51,0.91-3.72c0.09-0.24,0.18-0.47,0.31-0.82c-0.43-0.34-0.86-0.67-1.22-0.96
	c0-0.85,0-1.56,0-2.42c-0.92-0.72-1.94-1.43-2.83-2.27c-0.57-0.55-0.94-1.31-1.4-1.98c0.84-0.64-0.36-1.1-0.14-1.78
	c0.21-0.64,0.04-1.39,0.04-2.05c1.18-0.37,1.5-1.81,2.66-1.76c1.2,0.05,2.38,0.39,3.51,0.59c2.79-2.84,2.79-2.84,5.31-2.7
	c0.83,0.69,1.54,1.13,2.02,1.74c0.51,0.65,0.63,1.68,1.22,2.17c0.9,0.73,0.18,1.74,0.68,2.44c0.29,0.08,0.54,0.14,0.82,0.22
	c0.08,0.48,0.16,0.98,0.23,1.42c0.37,0.08,0.62,0.13,0.95,0.2c0,0.83,0,1.62,0,2.41c0.11-0.02,0.21-0.05,0.32-0.07
	c0.7,2.25,1.39,4.49,2.08,6.71c0.32,0.11,0.62,0.21,0.91,0.31c0,1.38,0,2.64,0,3.94c0.33,0.12,0.64,0.23,0.96,0.35
	c0.09,0.49,0.19,0.99,0.27,1.4c0.37,0.08,0.62,0.13,0.89,0.19c0,0.42,0,0.78,0,1.24c1.07,0.93,2.17,1.88,3.33,2.89
	c0,0.26,0,0.62,0,0.99c1.54,0.46,2.65,1.42,3.43,2.88c0.57,0.03,1.18,0.05,1.55,0.07c0.67,0.81,1.12,1.85,1.8,2.05
	c1.09,0.3,1.4,1.36,2.2,1.7c0.69,0.04,1.29,0.08,1.88,0.11c0,0.56,0,0.93,0,1.29c1.53,0.85,3.72,0.43,4.65,2.43
	c0.13-0.13,0.26-0.26,0.36-0.36c0.89,0.21,1.76,0.41,2.61,0.61c0,0.42,0,0.78,0,1.04c0.71,0.37,1.36,0.77,2.06,1.05
	c0.78,0.32,1.58,0.61,2.4,0.76c0.6,0.11,1.25-0.03,1.98-0.07c0.05-0.32,0.12-0.82,0.19-1.27c0.41-0.12,0.72-0.2,1.1-0.31
	c0-0.73,0-1.33,0-1.88c0.37-0.08,0.62-0.13,1.05-0.22c0-1.6,0-3.18,0-4.92c0.38,0.34,0.57,0.52,0.78,0.71
	c0.96-3.19,2.54-6.19,2.45-9.58c0.36-0.36,0.68-0.68,1.09-1.09c0-1.6,0-3.3,0-4.96c0.41-0.14,0.73-0.25,1.04-0.36
	c0-4.77-0.02-9.49,0.02-14.21c0.01-0.92,0.29-1.84,0.46-2.86c-1.23-0.78-2.53-1.62-3.74-2.39c0-1.29,0-2.38,0-3.32
	c0.45-0.64,0.83-1.19,1.26-1.81c-0.54-0.2-0.85-0.31-1.14-0.42c-0.13-1-0.27-1.99-0.43-3.22c0.31-0.32,0.81-0.83,1.3-1.34
	c0-0.7,0-1.5,0-2.35c-0.23,0.14-0.36,0.21-0.48,0.3c-0.07,0.05-0.12,0.15-0.2,0.18c-0.04,0.02-0.12-0.05-0.25-0.12
	c0-1.66,0-3.36,0-5.09c0.3-0.11,0.62-0.23,0.76-0.29c0.38-1.22,0.73-2.35,1.08-3.47c0.1,0.02,0.21,0.04,0.31,0.06
	c-0.06-0.83-0.12-1.66-0.22-3.07c-0.55,0.7-0.71,0.95-0.92,1.14c-0.24,0.23-0.53,0.41-0.97,0.75c0-1.18,0-2.03,0-2.34
	c0.9-1.14,1.5-1.88,2.13-2.68c0-1.43,0-2.87,0-4.27c0.38-0.13,0.7-0.25,1.09-0.38c0-0.82,0-1.61,0-2.31
	c0.79-0.36,1.47-0.67,2.06-0.94c0.26-0.76,0.47-1.4,0.68-2.02c-0.86-1.66-3.09-0.56-3.93-2.15c1.17-2.02,3.26-3.32,4.48-5.56
	c0-0.36,0-0.88,0-1.38c0.33-0.09,0.58-0.15,0.87-0.23c0.79-2.92,1.48-5.87,1.21-8.86c0.42-0.42,0.74-0.74,1.15-1.15
	c0-0.88,0-1.85,0-2.8c0.4-0.36,0.73-0.66,1.05-0.94c0-0.95,0-1.86,0-2.99c0.31-0.23,0.75-0.54,1.12-0.81c0-0.87,0-1.58,0-1.81
	c0.61-1.23,1.02-2.04,1.39-2.78c0.29-0.11,0.52-0.19,0.66-0.24c0.11-1.83,1.8-3.18,1.19-4.81c0.82-1.08,1.51-1.99,2.26-2.98
	c0-1.08,0-2.24,0-3.22c1.98-0.9,1.67-3.26,3.16-4.3c0.08-1.03-0.22-2.14,0.56-3.03c0.72-0.82,0.5-1.82,0.55-2.77
	c0.01-0.15,0.14-0.3,0.21-0.43c0.26-0.06,0.51-0.11,0.81-0.17c0.05-0.82-0.16-1.75,0.18-2.38c0.96-1.76,1.05-3.63,0.95-5.47
	c0.47-0.19,0.93-0.23,1.06-0.46c1.08-1.87,1.41-3.91,1.08-5.94c0.42-0.42,0.74-0.74,1.15-1.15c0-1.06,0-2.21,0-3.27
	c0.42-0.42,0.74-0.74,0.99-0.99c0-1.59,0-3.11,0-4.6c-0.33-0.09-0.58-0.15-0.91-0.24c0-6.21,0-12.44,0-18.95
	c0.24-0.18,0.67-0.5,1.04-0.77c-0.05-0.75-0.08-1.35-0.11-1.85c-0.46-0.1-0.71-0.15-0.77-0.16c-0.29-1.23-0.74-2.32-0.74-3.4
	c0-1.17,0.41-2.35,0.67-3.65c0.27-0.22,0.63-0.49,0.91-0.71c0.11-2.11-1.01-3.54-2.05-4.91c0.39-0.62,0.71-1.37,1.24-1.9
	c0.54-0.53,1.29-0.84,1.82-1.16c0-1.37,0-2.52,0-3.7c-0.75-0.07-1.43-0.14-2-0.19c0-1.5,0-2.84,0-4.14
	c0.34-0.09,0.59-0.15,1.02-0.27c-0.71-3.08,1.69-5.78,0.89-9.48c0.55-0.27,1.29-0.64,1.98-0.99c-0.65-1.34-1.17-2.4-1.81-3.73
	c0.08-0.98-0.16-2.32,0.09-3.51c0.46-0.12,0.7-0.18,0.92-0.23c0-1.41,0-2.75,0-4.05c-0.38-0.16-0.94-0.25-0.96-0.42
	c-0.14-1.17-1.18-1.24-1.88-1.33c-1.56-0.19-3.11-0.2-4.68-0.51c-1.68-0.33-3.35-0.61-4.98-1.17c-1.37-0.48-2.69-0.96-3.3-2.49
	c-0.14-0.34-0.64-0.57-1.02-0.77c-1.26-0.67-2.53-1.33-3.83-1.93c-2.41-1.11-4.96-1-7.49-0.61c-1.5,0.23-2.95,0.76-4.45,1.16
	c-0.09,0.14-3.98,3.54-4.3,3.73c-0.04,0.41-0.09,0.84-0.11,1.04c-0.82,0.63-1.5,1.16-2.23,1.72c0,0.65,0,1.25,0,1.92
	c-0.34-0.19-0.58-0.32-0.92-0.51c-0.06,0.8-0.12,1.48-0.17,2.16c-0.34,0-0.52,0-0.66,0c-0.4,0.84-0.81,1.68-1.21,2.51
	c-0.09-0.03-0.19-0.05-0.28-0.08c0,0.79,0,1.58,0,2.34c-0.34,0.09-0.59,0.15-1.03,0.27c0,0.8,0,1.66,0,2.46
	c-0.44,0.11-0.68,0.18-1.12,0.29c0,0.61,0,1.29,0,1.92c-0.44,0.1-0.69,0.15-1.03,0.22c0,1.17,0,2.33,0,3.47
	c-0.4,0.15-0.71,0.27-0.93,0.36c-0.23,0.97-0.44,1.88-0.57,2.41c0.18,0.94,0.3,1.57,0.41,2.17c-0.52,0.18-0.83,0.28-1.22,0.42
	c0,1.92,0,3.8,0,5.65c-0.35,0.09-0.59,0.15-0.76,0.2c-0.22,0.77-0.59,1.5-0.61,2.23c-0.01,0.78,0.31,1.57,0.46,2.22
	c-0.5,0.5-0.82,0.82-1.08,1.08c0,0.86,0,1.65,0,2.63c0.74-0.18,1.34-0.33,2.02-0.49c0,1.12,0,2.28,0,3.46
	c-0.29,0.29-0.61,0.61-1.03,1.03c0,0.51,0,1.12,0,1.69c-0.41,0.15-0.73,0.26-1.05,0.38c0.21,0.31,0.4,0.57,0.58,0.84
	c-0.22,0.43-0.51,0.78-0.58,1.18c-0.1,0.5-0.02,1.03-0.02,1.48c-0.52,0.14-0.82,0.23-1.36,0.38c0.71,1.12,1.3,2.04,1.83,2.87
	c0,0.61,0,1.13,0,1.57c-0.96,0.33-1.83,0.63-2.54,0.88c0,0.79,0,1.39,0,1.94c1.62,0.53,3.12,1.02,4.69,1.54
	c0.48-0.64,1.31-0.27,2.06-0.28c1.04,1.42,1.04,1.42-0.38,3.13c0,1.38,0,2.82,0,4.23c-0.91,0.55-1.01,1.84-2.13,2.11
	c0,0.36,0,0.73,0,0.92c-0.81,0.65-1.54,1.24-2.3,1.84c0.57,2.62-0.18,4.93-1.2,7.16c-0.86,0.43-1.76,0.87-2.52,1.25
	c-1.95-0.14-2.69-1.57-3.6-2.92c-1.69,0.82-3.2,1.87-4.88,2.25c-0.92,0.21-0.48,1.15-1.37,1.26c-2.04,0.26-3.99,1.11-6.09,1.02
	c-3.74-0.18-7.47,0.28-11.23-0.42c-1.81-0.34-3.48-0.68-5.08-1.59c-1.34-0.76-2.88-1.01-4.39-1.22c-1.91-0.26-3.95-0.06-5.72-0.67
	c-1.3-0.45-2.64-0.05-3.8-0.65c-1.3-0.68-2.64-0.15-3.95-0.32c-0.26-0.04-0.65,0.08-0.78-0.06c-0.92-0.97-2.06-0.28-3.08-0.48
	c-1.01-0.2-2.02-0.38-3.04-0.54c-0.27-0.04-0.65-0.12-0.8,0.01c-1.2,1.14-2.91,0.87-4.24,1.61c-1.6,0.9-3.17,1.86-4.85,2.38
	c-0.05,0.59-0.08,1.01-0.12,1.56c-0.36-0.32-0.55-0.49-0.57-0.5c-0.88,0.98-1.74,1.95-2.58,2.89c-0.04,0.45-0.07,0.88-0.09,1.03
	c-1,0.6-2.09,0.54-2.25,1.76c-1.61,1.3-2.55,3.23-4.33,4.4c-0.85,0.55-1.36,1.6-2.08,2.37c-0.51,0.55-1.03,1.21-1.69,1.49
	c-1.26,0.54-2.24,1.39-3.08,2.39c-1.27,1.51-3.23,2.33-4.18,4.16c-1.6,0.03-1.82,2-3.42,2.3c-1.14,0.21-1.84,1.69-3.13,2.14
	c-0.47,0.16-0.74,0.9-1.1,1.37c-0.89,0.27-1.86,0.56-2.83,0.86c-0.23,1.38-1.65,1.22-2.45,1.87c-0.85,0.7-1.86,1.21-2.77,1.83
	c-1.35,0.92-2.71,1.83-3.99,2.83c-0.45,0.35-0.69,0.96-1.04,1.47c-0.88,0.38-2.07,0.55-2.65,1.23c-0.53,0.62-1.14,1.28-1.65,1.93
	c-1.28,1.63-2.76,3.17-4.42,4.4c-0.7,0.52-1.31,1.02-1.89,1.67c-0.6,0.68-1.66,1.11-1.95,1.87c-0.37,0.97-1.54,0.89-1.74,1.68
	c-0.25,0.97-0.96,1.48-1.6,2.05c-1.03,0.93-2.17,1.75-3,2.39c-4.26,1.13-6.9,3.79-9.12,7.22c0,0.7-0.37,1.9,0.08,2.45
	c0.93,1.17,0.23,2.52,0.9,3.75c0.57,1.05,0.12,2.64,0.12,3.95c1.26,1.23,1.11,2.76,1.09,4.25c-0.02,1.41-0.09,2.83,1.09,3.92
	c0,3.07,0,6.16,0.01,9.24c0,0.07,0.1,0.14,0.18,0.19c0.07,0.05,0.15,0.06,0.23,0.09c0.09,0,0.22,0.04,0.27-0.01
	c1.17-1.12,2.49-2.12,3.47-3.39c1.65-2.13,4.07-2.33,6.31-2.48c1.6-0.11,3.33,0.69,4.51,2.04c2.12,0.04,4.08,0.52,5.92,1.57
	c1.16,0.66,2.37,1.37,3.65,1.68c2.31,0.55,4.52,1.34,6.7,2.24c1.55,0.64,2.98,1.82,4.57,2.03c1.14,0.15,1.47,1.25,2.53,1.24
	c1.11-0.01,1.9,0.72,2.64,1.48c0.88,0.9,1.77,1.78,2.39,2.39c0.29,1.66,0.69,2.94,0.68,4.21c-0.01,1.26-0.44,2.52-0.73,3.97
	c-0.22,0.17-0.58,0.44-0.82,0.63c0,1.42,0,2.68,0,3.93c0.71,0.33,1.4,0.65,2.08,0.97c-0.14,1.52,1.58,0.4,1.86,1.31
	c4.32,1.92,8.16,4.52,11.14,7.9c0.18,0.64,0.25,1.07,0.41,1.46c0.71,1.76,0.33,3.52-0.72,4.84c-0.59,0.73-1.12,1.63-1.95,2.25
	c-0.94,0.7-1.81,1.55-2.5,2.49c-1.34,1.84-3.23,2.9-5.13,3.98c-1.47,0.84-3.19,1.07-4.73,1.72c-0.65,0.27-1.21,0.58-1.96,0.54
	c-1.83-0.09-3.55,0.46-5.3,0.98c-1.31,0.39-2.73,0.62-4.1,0.59c-2.67-0.05-5.25,1-7.94,0.59c-0.17-0.03-0.44-0.07-0.52,0.02
	c-0.89,1-2.17,0.09-3.03,0.57c-1.12,0.61-2.22,0.46-3.34,0.48c-1.72,0.04-3.45,0.02-5.17,0.01c-0.53,0-1.19,0.14-1.58-0.11
	c-2.16-1.4-4.77-0.58-7.24-1.76c-1.49-1.49-3.22-3.22-4.95-4.95c-0.31-1.87-1.33-3.72-3.27-5.79c0,1.97,0.06,3.77-0.01,5.56
	c-0.2,4.82,0.52,9.67-0.51,14.47c-0.47,2.19-0.49,4.5-1.2,6.59c-0.44,1.3-0.23,2.58-0.59,3.83c-0.43,1.46-0.8,2.94-1.28,4.72
	c-0.12,0.08-0.49,0.33-0.75,0.51C635.22,595.3,635.22,595.93,635.22,596.34z M650.11,449.4c-0.13-0.13-0.26-0.26-0.39-0.39
	c-0.36,0.58-1.31,1.07-1.34,1.38c-0.06,0.85-0.43,1.08-1.06,1.5c-0.57,0.38-0.81,1.26-1.3,2.1c0,0.33,0,0.85,0,1.35
	c-0.25,0.05-0.45,0.04-0.57,0.14c-0.18,0.14-0.32,0.34-0.43,0.54c-0.27,0.51-1.09,3.88-1.09,4.44c0,1.71,0,3.43,0,5.04
	c-0.92,1.08-1.16,2.22-1.1,3.49c0.06,1.45,0.03,2.9,0.01,4.35c-0.01,0.53,0.02,1.08-0.14,1.58c-0.79,2.51-1.2,5.06-0.83,7.84
	c1.11-0.89,2.06-1.77,3.13-2.46c1.06-0.68,2.07-1.55,3.35-1.74c1.85-0.27,3.5-0.75,4.29-2.68c0.03-0.08,0.12-0.14,0.19-0.19
	c0.62-0.44,1.31-0.8,1.84-1.33c0.6-0.61,1-1.41,1.57-2.05c0.66-0.75,1.4-1.42,2.1-2.13c1.12,0.46,0.56-1.57,1.66-1.12
	c0.16-0.72,0.59-1.16,1.31-1.31c-0.44-1.1,1.59-0.54,1.12-1.67c0.72-0.59,1.67-1.05,2.12-1.81c0.53-0.88,1.14-1.39,2.03-1.86
	c0.99-0.51,1.84-1.32,2.67-2.09c0.83-0.77,1.55-1.64,2.51-2.68c0.05-0.01,0.71,0.06,0.86-0.18c0.83-1.37,2.65-1.88,3.06-3.47
	c0.81-0.41,1.56-0.79,2.1-1.06c1.82-0.28,3.46-0.53,5.11-0.78c0.82-0.82,1.63-1.68,2.49-2.48c0.51-0.47,1.05-0.92,1.65-1.28
	c1.11-0.67,2.13-1.47,3.04-2.37c2.6-2.53,5.21-5.05,7.66-7.72c0.68-0.74,1.43-1.35,2.14-2.03c0.76-0.73,1.66-1.32,2.4-2.06
	c0.85-0.85,1.64-1.77,2.34-2.74c0.32-0.44,0.35-1.08,0.48-1.5c0.4-0.13,0.64-0.2,0.73-0.23c0.19-0.8,0.15-1.67,0.56-2.08
	c0.88-0.88,0.6-2.1,1.35-2.92c-1.63-0.83-3.18-0.93-4.77-0.85c-0.36,0.02-0.91,0.14-1.05-0.04c-0.65-0.82-1.51-0.36-2.26-0.51
	c-0.75-0.15-1.48-0.39-2.23-0.52c-0.34-0.06-0.83-0.1-1.03,0.09c-0.75,0.69-1.28,0.29-2.1,0.03c-1.55-0.49-3.25-0.55-4.9-0.66
	c-1.54-0.1-3.1,0.14-4.62-0.06c-1.65-0.22-3.07,0.69-4.68,0.62c-0.93-0.04-1.83,0.09-2.8,0.41c-1.71,0.56-3.62,0.5-5.45,0.64
	c-0.9,0.07-1.82,0.06-2.72,0c-0.84-0.06-1.67-0.24-2.6-0.38c-1.87,0.62-2.37,2.91-4.18,4.01c0.1,0.68,0.22,1.42,0.37,2.44
	c-0.53,2.29-3.04,3.35-4.62,5.08c-0.04,0.54-0.07,0.96-0.1,1.3c-0.44,0.09-0.69,0.14-1.02,0.21c0,1.2,0,2.36,0,3.47
	c-0.41,0.16-0.72,0.27-1.02,0.39c-0.05,0.46-0.1,0.89-0.15,1.28c-0.73,0.33-1.42,0.64-2.1,0.95c0.19,1.61-0.89,2.19-2.08,2.67
	C651.25,446.67,649.99,447.76,650.11,449.4z M515.41,404.05c1.11,2.1,2.02,3.63,2.76,5.24c2.86,6.27,6.86,11.74,11.63,16.66
	c0.78,0.81,1.75,1.43,2.65,2.13c0.66,0.51,0.45,1.75,1.65,1.82c0.95,0.06,0.64,1.6,1.73,1.61c0.22,1.18,1.66,1.14,2.08,2.06
	c0.45,0.98,1.5,1.29,2.09,2.08c0.3,0.4,0.52,0.87,0.6,1c0.96,0.68,1.8,0.76,2.32,1.77c0.35,0.69,1.73,0.77,2.31,1.42
	c1.62,1.8,3.76,2.65,5.82,3.71c0.91,0.47,1.61,0.41,2.52,0.29c-1.35-0.7-0.82-2.5-2.05-3.22c0.37-1.46-0.76-2.46-1.31-3.53
	c-0.57-1.11-1.12-2.3-1.66-3.41c-0.54-1.1-1.62-2.05-1.51-3.45c-1.43-0.41-0.96-2.28-2.18-2.86c0.12-1.39-0.96-2.31-1.32-3.43
	c-0.32-0.08-0.57-0.14-0.7-0.17c-0.18-0.78-0.18-1.54-0.51-2.1c-0.74-1.25-1.6-2.44-2.48-3.6c-1.39-1.84-2.25-4-3.65-5.84
	c-0.69-3.29-3.68-4.94-5.35-7.53c-1.46-0.32-1.96-1.74-2.94-2.61c-0.95-0.85-1.76-1.85-2.65-2.77c-0.73-0.75-1.46-1.52-2.21-2.23
	c-0.9-0.85-2.07-1.4-3.15-2.04c-0.2-0.12-0.53-0.02-0.9-0.02c-1.76-1.97-4.01-3.2-6.92-3.68c0.49,2.14,0.97,4.2,1.5,6.49
	c0.16,0.14,0.5,0.43,0.82,0.7c0,0.96,0,1.86,0,2.75c0.33,0.33,0.65,0.65,1.03,1.03C515.41,403,515.41,403.71,515.41,404.05z
	 M734.19,335.07c0-1.15,0-2.13,0-3.39c-1.55,0.39-2.95,0.69-4.32,1.12c-1.36,0.43-2.48,1.61-3.78,1.32
	c-0.93,0.63-1.65,1.11-2.36,1.59c-0.64,0.43-1.29,0.85-1.9,1.31c-0.64,0.48-0.67,1.59-1.7,1.7c0,0.36,0,0.72,0,0.77
	c-0.93,0.84-1.67,1.58-2.48,2.23c-0.71,0.56-0.87,1.53-1.85,1.97c-0.84,0.37-0.74,2-2.1,1.94c-0.3,1.5-2.11,4.27-3.35,5.17
	c-0.02,0.36-0.03,0.71-0.05,1.04c-0.37,0.15-0.68,0.27-0.99,0.39c-0.05,0.44-0.1,0.87-0.12,0.97c-1.33,1.11-2.12,2.21-2.26,3.62
	c-0.4,0.14-0.7,0.25-0.99,0.35c0,0.48,0,0.84,0,1.22c-0.33,0.12-0.65,0.24-0.96,0.35c-0.09,0.49-0.18,0.99-0.26,1.39
	c-0.39,0.09-0.63,0.15-0.86,0.2c-0.06,0.51-0.11,0.94-0.16,1.35c-0.35,0.13-0.67,0.24-0.68,0.24c-0.37,0.77-0.62,1.29-0.87,1.83
	c-0.28,0.61-0.55,1.22-0.83,1.86c-0.19,0.04-0.44,0.1-0.78,0.17c0,1.35,0,2.69,0,4.17c-1.08,0.69-2.16,1.37-3.06,1.94
	c-0.5,0.68-0.91,1.22-1.3,1.75c-0.03,0.6-0.06,1.21-0.11,2.27c-0.38-0.82-0.55-1.18-0.88-1.89c0,0.97,0,1.57,0,2.04
	c-0.52,0.49-0.91,0.86-1.11,1.04c0,0.88,0,1.49,0,2.1c1.39,0.4,2.68,0.78,3.87,1.13c0.38-0.2,0.68-0.34,0.97-0.52
	c2.52-1.53,5.4-2.35,7.71-4.31c1.09-0.93,1.72-2.32,3.06-2.97c0.23-0.11,0.49-0.34,0.57-0.57c0.5-1.42,1.65-2.22,2.79-3.04
	c0.23-0.17,0.35-0.48,0.53-0.71c1.8-2.25,3.6-4.5,5.42-6.78c0.03-0.31-0.06-0.74,0.11-1c1.25-1.85,2.5-3.7,3.84-5.49
	c1.38-1.85,1.92-4.2,3.62-5.87c0.52-0.51,0.93-1.26,1.13-1.97c0.53-1.89,2.13-3.25,2.42-5.28c0.11-0.76,1-1.37,1.39-2.13
	c0.38-0.74,0.36-1.81,0.91-2.31c0.72-0.66,0.56-1.6,0.95-2.19C733.75,335.14,733.92,335.11,734.19,335.07z M736.56,375.17
	c-0.33-0.14-0.48-0.25-0.64-0.26c-3-0.25-5.85,0.78-8.78,1.08c-1.29,1.16-3.04,0.12-4.48,1.02c-0.95,0.6-2.29,0.57-3.49,0.83
	c-0.87,1.9-2.68,1.29-3.83,1.39c-1.61,0.58-2.65,1.38-4.04,1.73c-1.84,0.47-3.54,1.48-5.26,2.34c-0.68,0.34-1.36,0.83-1.84,1.41
	c-0.43,0.52-1.34,0.16-1.58,1.15c-0.11,0.46-1.21,0.67-1.85,1c-0.37,0.19-1.03,0.37-1.06,0.61c-0.1,1.01-1.06,0.99-1.57,1.48
	c-0.54,0.52-1.24,0.87-1.83,1.34c-0.35,0.28-0.74,0.58-0.95,0.96c-0.8,1.48-2.1,2.33-3.57,2.99c-0.61,0.28-1.24,0.51-1.84,0.8
	c-0.13,0.06-0.2,0.26-0.33,0.44c0.05,0.37,0.1,0.78,0.15,1.19c0.44-0.09,0.48-0.75,0.89-0.37c0,1.03,0,2,0,2.9
	c-0.77,0.35-1.45,0.66-1.99,0.91c0,0.56,0,0.98,0,1.39c1.7,0.2,3.25,0.18,4.52-1.01c0.19,0.17,0.37,0.34,0.43,0.39
	c1.28-0.43,2.47-0.82,3.75-1.25c0-0.42,0-0.85,0-1.3c0.46,0,0.81,0,1.29,0c0.55,0.55,1.66,1.15,1.72,1.83
	c0.09,1.11,1.73,0.7,1.42,1.84c2.19,0.25,4.36,1.43,6.65,0.17c0.73-0.85,1.46-1.71,2.55-2.98c0.18-0.11,0.9-0.31,1.56-0.89
	c2.1-1.86,3.53-4.49,6.32-5.56c0.15-0.06,0.26-0.25,0.39-0.38c0.83-0.83,1.64-1.69,2.5-2.49c0.88-0.82,1.84-1.55,2.71-2.37
	c0.77-0.73,1.64-1.44,2.12-2.34c0.32-0.6,1.36-0.31,1.28-1.35c-0.03-0.4,0.81-1.21,1.28-1.23c1.07-0.05,0.59-1.2,1.29-1.42
	c2.02-0.64,2.78-2.86,4.7-3.72C735.83,377.15,736.1,375.97,736.56,375.17z M629.72,592.44c-0.42-1.77,1.39-3.37,1.69-5.37
	c-0.29-0.51-0.58-1.02-0.69-1.21c-1.12-0.48-1.96-0.84-2.81-1.2c-1.78-1.92-1.34-4.57-2.38-6.73c-1.14-2.38-1.71-4.35-3.44-6.33
	c0-0.68,0-1.47,0-2.27c-0.39-0.33-0.73-0.63-0.62-0.53c-0.83-2.56-1.5-4.61-2.16-6.66c-0.81,1.1-1.3,2.19-1.47,3.33
	c-0.18,1.15,0.03,2.36-0.06,3.53c-0.09,1.2-0.13,2.48-0.58,3.56c-0.53,1.24,0.69,2.61-0.47,3.72c-0.14,0.13-0.14,0.65,0,0.78
	c0.98,0.9,0.45,2.04,0.5,3.06c0.09,1.81-0.01,3.63,0.05,5.44c0.02,0.57,0.32,1.12,0.46,1.57c-0.18,0.66-0.44,1.22-0.46,1.79
	c-0.06,1.63,0.12,3.28-0.06,4.89c-0.22,2.03-0.4,4.15-2.14,5.66c0,1.25,0.15,2.53-0.04,3.77c-0.21,1.39,0.6,2.54,0.59,3.86
	c-0.03,3.35,0.14,6.72-0.05,10.06c-0.19,3.41,0.7,6.71,0.62,10.01c1.23,2,2.48-0.09,3.36,0.2c1.04-0.93,1.84-1.66,2.61-2.35
	c-0.13-1.68-0.06-3.23,1.06-4.4c0-2.12-0.38-4.22,0.1-6.09c0.51-1.96,0.56-3.71-0.17-5.45c1.05-1.79,1.86-3.5,2.31-5.45
	c0.32-1.35,1.27-2.55,2.14-4.19c0-0.62,0-1.7,0-2.52C628.34,595.39,628.94,594.1,629.72,592.44z M670.53,561.57
	c-1.64,0.34-3.52,0.04-5.23-0.57c-2.14-0.76-4.54-0.65-6.49-2.07c-0.63-0.46-1.62-0.46-2.46-0.57c-0.98-0.14-1.77-0.55-2.49-1.22
	c-1.56-1.46-1.98-1.89-2.83-4c-0.43-1.05-1.15-2.16-0.06-3.38c0.4-0.45,0.64-1.31,0.53-1.91c-0.27-1.54,0.46-2.92,1.24-3.82
	c0.95-1.1,0.71-2.79,1.87-3.27c0.26-1.31,0.45-2.32,0.69-3.53c-0.64-0.39-1.42-0.86-2.04-1.23c-2.03,1.12-4.07,0.17-5.93,0.71
	c-1.86,0.54-3.72,1.07-5.27,1.51c-1.35,2.1-1.48,4.16-1.4,6.27c0.06,1.81,0.01,3.62,0.01,5.4c0.47,0.28,0.91,0.52,1.34,0.8
	c2.35,1.52,2.17,4.66,4.11,6.45c1.49,3.31,1.93,3.79,4.3,5.79c0.15,0.13,0.1,0.48,0.14,0.69c2.16,0.42,4.31,0.52,6.37,1.21
	c0.57,0.19,1.46,0.29,1.85-0.02c1.08-0.84,2.24-0.41,3.35-0.47c1.44-0.08,3.06,0.37,4.3-0.14c1.1-0.45,2.07-0.24,3.09-0.42
	c1.01-0.19,2.03-0.55,3.03-0.5c1.79,0.09,3.41-0.54,5.12-0.79c0.99-0.14,1.91-0.29,2.74-0.98c2.8,0.85,5.16-1.64,7.2-1.13
	c3.69-0.71,5.34-3.21,7.41-5.16c0-0.67,0-1.46,0-2.23c-1.2-0.13-1.6-1.18-2.4-1.73c-0.25,0-0.58,0.1-0.78-0.02
	c-2.35-1.36-4.68-2.75-7.45-4.39c-0.95-0.11-1.89,0.58-2.81,1.77c-0.66,0.85-0.38,2.14-1.47,2.68c0.19,1.07-1.5,0.79-1.32,1.85
	c-0.95,0.05-1.05,0.96-1.49,1.51c-0.54,0.67-1.14,1.33-1.51,2.09c-0.31,0.64-0.63,1.13-1.35,1.3c0.06,0.99-0.82,1.35-1.37,1.86
	C672.43,560.5,671.62,560.88,670.53,561.57z M439.85,497.87c0.17-1.02,0.4-2.01,0.48-3.02c0.08-1.08-0.05-2.18,0.04-3.26
	c0.09-1.02,0.76-2.2,0.42-3c-0.43-1.02,0.41-1.7,0.13-2.59c-0.3-0.98-0.62-2.04-0.51-3.02c0.13-1.14-0.34-2.13-0.7-3
	c-0.44-1.05-0.34-2.04-0.49-3.07c-1.34-1.03-0.54-3.07-1.93-4.08c0.09-1.64-0.93-2.94-1.63-4.2c-0.75-1.35-1.51-2.63-1.89-4.01
	c-0.71-0.98-1.68-1.8-1.97-2.82c-0.31-1.09-0.84-2.02-1.26-3.02c-0.44-1.08-0.62-2.46-1.39-3.18c-0.82-0.76-0.28-2.4-1.82-2.51
	c0.22-1.36-1.16-1.88-1.36-3.04c-0.35,0.26-0.51,0.38-0.66,0.49c-0.34-0.97-0.63-1.83-0.93-2.69c-0.08,0.01-0.17,0.03-0.25,0.04
	c0,1.04,0,2.07,0,3.12c0.32,0.31,0.65,0.63,0.97,0.94c0,0.74,0,1.46,0,1.86c0.8,2.14,2.46,3.64,2.12,5.97
	c-1.22,1.02-2.44,2.04-3.69,3.08c0.15,1.73,0.31,3.55,0.48,5.37c0.01,0.07,0.12,0.13,0.15,0.21c0.62,1.72,1.09,3.46,0.94,5.32
	c-0.06,0.72-0.18,1.51,0.05,2.15c0.71,1.89,1.09,3.82,1.01,5.83c-0.05,1.12,0.28,2.05,1.17,2.95c-0.31,1.35,0.17,2.56,0.99,3.79
	c0.93,1.39,1.39,3.12,2.43,4.39c0.7,0.85,1.63,1.59,2.4,2.46c0.92,1.03,2.12,1.8,3.05,2.57
	C437.49,497.87,438.56,497.87,439.85,497.87z M521,369.28c0,0.52,0,1.12,0,1.44c0.77,0.16,1.39,0.29,2.08,0.44c0,1.8,0,3.5,0,4.72
	c0.51,0.91,0.78,1.45,1.1,1.95c0.5,0.79,0.96,1.55,1.14,2.53c0.16,0.87,1.33,1.4,1.12,2.51c1.27,0.84,1.43,2.4,1.79,3.59
	c0.4,1.3,1.92,2.19,1.4,3.79c-0.03,0.1,0.14,0.31,0.26,0.42c1.42,1.42,1.89,3.4,2.99,5.01c0.43,0.63,0.89,1.23,1.26,1.73
	c1.58,0.98,3.09,1.92,4.94,3.07c0.09,0,0.63,0,1.15,0c1.9,1.91,4.03,3.44,6.71,4.47c0-1.36,0-2.51,0-3.92
	c-0.23-0.18-0.65-0.52-1.06-0.83c0-1.17,0.26-2.34-0.06-3.31c-0.51-1.57-0.79-3.13-1.03-4.75c-0.26-1.74-1.12-3.38-1.21-5.19
	c0-0.07-0.14-0.12-0.18-0.19c-0.45-0.94-0.75-1.87-0.77-2.96c-0.02-0.98-0.31-2.05-0.81-2.9c-0.65-1.12-1.43-2.5-2.5-2.96
	c-1.37-0.59-1.83-1.88-2.9-2.65c-1.19-0.86-2.56-1.51-3.6-2.47c-2.24-2.08-4.93-3.34-7.51-4.73c-0.06-0.28-0.12-0.53-0.22-0.99
	c-1.09,0.46-1.88,0.06-2.65-0.69c-0.44-0.43-1.2-0.56-1.84-0.76c-0.21-0.07-0.49,0.07-0.72,0.11c0,0.87,0,1.66,0,2.39
	C520.2,368.48,520.46,368.74,521,369.28z M635.22,499.92c-0.86,0.34-1.49,0.4-1.76,0.74c-0.84,1.05-1.77,1.96-2.87,2.73
	c-0.34,0.24-0.51,0.7-0.82,1.01c-0.8,0.8-1.9,1.64-2.09,2.61c-0.68,3.51-3.61,5.73-4.78,8.92c-0.11,0.31-0.49,0.52-0.75,0.77
	c0,0.46,0.11,0.95-0.02,1.36c-0.73,2.34-1.09,4.72-1.07,7.17c0.01,2.81,0.01,5.62,0,8.43c0,0.54,0.16,1.19-0.09,1.59
	c-0.84,1.35-0.36,2.69-0.14,4.27c1.74-1.9,4.15-2.38,6.23-3.48c0.15-0.08,0.34-0.1,0.46-0.2c2.14-1.88,3.26-2.43,5.37-2.65
	c0.23-0.54,0.71-1.11,0.66-1.62c-0.32-3.14,0.72-6.17,0.61-9.3c-0.08-2.2-0.23-4.42,0.52-6.57c0.22-0.64,0.52-1.3,0.53-1.95
	C635.24,509.23,635.22,504.72,635.22,499.92z M769.11,411.63c-1.15-0.33-1.96-0.7-2.79-0.78c-2.64-0.25-5.28-0.44-7.93-0.55
	c-2.98-0.13-5.72,0.83-8.34,2.16c-1.94-1.49-3.3,0.28-4.62,0.7c-0.57,1.84-1.07,3.45-1.64,5.27c-0.77,0.61-1.89,0.6-3.04,0.58
	c-1.63-0.04-3.26-0.01-4.89,0c-0.15,0-0.3,0.14-0.39,0.19c-0.11,0.32-0.2,0.59-0.32,0.94c-0.25-0.25-0.38-0.38-0.51-0.51
	c-0.45,0.46-0.9,0.91-1.33,1.35c1.78,0.95,3.73,0.73,5.65,0.74c1.27,0.01,2.55-0.1,3.8,0.03c0.99,0.11,2,0.4,2.92,0.8
	c0.76,0.33,1.41,0.94,1.67,1.12c1.95,0.49,3.53-0.28,4.89,0.76c1.74-1.03,3.65-0.42,5.49-0.52c1.89-0.1,3.8-0.02,5.36-0.02
	c1.43-1.32,2.66-2.46,3.98-3.69c0-1.1,0-2.24,0-3.47c1.47,0,2.81,0,4.24,0c-0.05-0.77-0.09-1.44-0.14-2.19c-1.16,0-2.13,0-3.1,0
	c-0.01-0.08-0.03-0.17-0.04-0.25c0.91-0.34,1.81-0.67,2.64-0.98C770.08,412.67,769.46,412.01,769.11,411.63z M598.2,424.42
	c0-2.42,0-4.6,0-6.78c0-2.27-0.13-4.55,0.04-6.8c0.15-2.04-0.95-4.05-0.07-6.1c0.11-0.25-0.15-0.64-0.23-0.97
	c-0.1-0.41-0.28-0.83-0.28-1.24c-0.02-2.99-0.02-5.99,0-8.98c0-0.41,0.22-0.82,0.26-1.24c0.11-1.14,0.57-2.45,0.17-3.39
	c-0.46-1.07-0.39-2.06-0.43-3.09c-0.06-1.45-0.02-2.9-0.02-4.35c0-1.45-0.07-2.91,0.02-4.35c0.09-1.38,0.49-2.75,0.5-4.13
	c0.05-8.16,0.03-16.33,0.02-24.49c0-0.77-0.02-1.47-0.45-2.27c-0.41-0.78-0.42-2.11-0.02-2.91c0.74-1.49,0.3-2.97,0.48-4.44
	c0.17-1.38-0.36-2.53-1.21-3.74c0.15-1.28,0.31-2.66,0.49-4.16c-0.34-0.46-0.81-1.09-1.44-1.94c0,2.16,0,4.05,0,5.75
	c-1.12,1.98-1.12,1.98-1.12,7.94c-0.31,0.24-0.74,0.56-1.08,0.81c0,2.71-0.15,5.26,0.04,7.78c0.2,2.61-0.52,5.1-0.63,7.67
	c-0.22,5.03,0.57,10.01,0.59,15.02c0,1-0.05,2,0.02,2.99c0.06,0.85-0.1,1.66,0.41,2.56c0.35,0.62-0.32,1.78-0.4,2.71
	c-0.04,0.48,0.28,0.97,0.36,1.47c0.28,1.54,1.34,2.99,0.21,4.7c-0.38,0.57-0.36,1.79,0.01,2.37c0.72,1.12,0.39,2.24,0.46,3.36
	c0.07,1.08-0.04,2.18,0.03,3.26c0.07,0.94-0.12,1.83,0.41,2.83c0.38,0.72-0.27,1.96-0.41,2.98c-0.06,0.44-0.18,1.09,0.04,1.31
	c0.8,0.78,0.34,1.7,0.49,2.54c0.16,0.93,0.45,1.84,0.52,2.77c0.18,2.47-0.11,4.92,0.49,7.41c0.55,2.27,0.5,4.69,0.71,7.09
	C597.51,424.38,597.76,424.39,598.2,424.42z M691.28,360.22c-0.09,0.83-1.48-0.04-1.72,1.28c-0.1,0.56-1.19,0.88-1.69,1.44
	c-0.46,0.53-0.91,1.02-1.47,1.47c-0.66,0.53-1.09,1.34-1.63,2.02c-0.55,0.68-1.08,1.38-1.67,2.02c-0.52,0.57-1.37,0.91-1.14,1.9
	c-1.43,0.44-2.22,1.36-2.2,2.8c-0.42,0.14-0.73,0.24-1.03,0.33c0,0.46,0,0.82,0,0.98c-1.1,1.05-2.09,1.99-3.28,3.13
	c0,0.48,0,1.27,0,2.03c-0.41,0.15-0.73,0.26-1.02,0.36c-0.03,0.49-0.06,0.92-0.08,1.3c-0.43,0.15-0.75,0.26-1.14,0.39
	c0,0.65,0,1.25,0,1.77c-2,0.96-2.1,3.63-3.95,4.16c-0.36,0.71-0.63,1.23-0.88,1.75c-0.28,0.61-0.54,1.23-0.8,1.83
	c-0.22,0.05-0.47,0.1-0.8,0.17c0,1.02,0,1.99,0,3.02c-0.33,0.07-0.58,0.12-0.83,0.17c-0.38,0.98-0.77,2-1.17,3.01
	c-0.09-0.02-0.18-0.04-0.27-0.06c0,0.61,0,1.21,0,1.79c-0.34,0.09-0.59,0.15-0.83,0.22c-0.45,1.66-0.98,3.28-2.39,4.56
	c0.07,0.58,0.15,1.24,0.25,2.09c3.92-2.56,6.7-5.68,8.13-9.91c1.1-0.13,1.78-0.99,2.23-1.76c1.58-2.68,3.85-4.86,5.41-7.54
	c0.51-0.87,0.67-1.91,1.44-2.67c0.73-0.73,1.3-1.62,2.01-2.37c1.08-1.14,2.07-2.26,2.42-3.91c0.16-0.74,0.88-1.42,1.48-1.99
	c0.91-0.88,1.79-1.73,1.82-2.89c0.82-0.68,1.53-1.27,2.18-1.82c0-0.73,0-1.25,0-1.7c0.41-0.18,0.83-0.23,1.01-0.47
	c1.38-1.87,2.74-3.75,4.03-5.67c0.31-0.46,0.36-1.1,0.5-1.56c0.36-0.09,0.61-0.15,0.85-0.21c0.04-0.68,0.07-1.29,0.1-1.89
	c0.75-0.08,0.89-0.91,1.23-1.06c1.26-0.56,1.87-1.79,2.87-2.59c1.04-0.84,1.49-2.4,2.18-3.66c0.06-0.1,0.03-0.25,0.04-0.4
	c-0.64,0-1.25,0-1.84,0c-0.25,1.29-1.44,1.28-2.29,1.77c-0.04,0.41-0.09,0.84-0.13,1.25c-1.39,0.47-1.68,1.78-2.36,2.93
	c-0.55,0-1.16,0-1.76,0C692.54,358.7,692.05,359.29,691.28,360.22z M556.85,560.07c-0.15-2.28,0.41-4.42,0.98-6.63
	c0.79-3.05,1.36-4.62,5.66-6c1.35-0.43,2.66-1.02,4.02-1.54c0.89,1.02,2.14,0.2,3.01,0.46c0.63-0.33,1.09-0.56,1.55-0.79
	c0-0.35,0-0.71,0-1.1c-0.8-0.41-1.62-0.83-2.65-1.37c-0.65,0-1.79,0.35-2.4-0.07c-1.14-0.78-2.46,0.03-3.31-0.54
	c-1.24-0.83-2.44-0.35-3.63-0.44c-1.71-0.13-3.44-0.03-4.93-0.03c-0.49,0.24-0.78,0.43-1.1,0.54c-0.88,0.29-1.77,0.54-2.65,0.82
	c-1.83,0.58-3.09,1.93-4.23,3.16c-0.23,1.74-1.49,3.05-1.26,4.83c0.21,1.69,0.05,3.42,0.05,5.06c1.4,1.99,2.5,4.18,5.17,4.8
	c0.88,0.65,1.85,1.37,2.67,1.97c1.28,0,2.35,0,3.4,0c0.32-0.36,0.59-0.68,0.83-0.94C557.6,561.48,557.29,560.88,556.85,560.07z
	 M681.69,529.61c-0.37-0.12-0.88-0.22-1.33-0.45c-1.65-0.83-3.39-1.48-5.08-2.2c-1.74-0.75-3.73-1.02-5.5-1.83
	c-1.62-0.74-3.41-0.96-4.99-1.74c-1.91-0.94-3.95-1.43-5.92-2.15c-1.77-0.65-3.7,0.15-5.31-1.22c-0.88,1.47-2.94,1.52-3.26,3.37
	c-1.46,0.68-2.1,2.13-3.15,3.24c0.05,0.61,0.1,1.2,0.14,1.78c1.92,0,3.65-0.07,5.37,0.02c1.71,0.08,3.36,0.56,5,1.04
	c0.44,0.13,1.04-0.06,1.5-0.26c0.85-0.36,1.66-0.83,2.65-1.34c0.43,0,1.07,0.06,1.69-0.01c1.73-0.19,3.13,0.41,4.17,1.74
	c0.83,1.06,2.11,1.06,3.19,1.52c0.46,0.2,0.98,0.36,1.47,0.37c2.01,0.02,3.69,1.3,5.73,1.36c0.87,0.03,2.02,0.26,2.78,1.13
	c0.29,0.33,0.92,0.38,1.54,0.6c0.33-1.12,0.62-2.09,0.86-2.89C682.69,530.94,682.28,530.4,681.69,529.61z M628.96,572.49
	c0.26-0.26,0.51-0.51,0.82-0.82c0-0.76,0.01-1.57,0-2.38c-0.01-0.79-0.03-1.56,0.54-2.23c0.54-0.63,0.57-1.41,0.56-2.22
	c-0.03-1.81,0.04-3.63-0.03-5.44c-0.05-1.33,0.02-2.69,0.62-3.83c0.41-0.77,0.46-1.47,0.49-2.25c0.13-3.1-0.39-6.24,0.53-9.3
	c0.07-0.23-0.03-0.51-0.06-0.84c-0.83,0-1.62,0-2.45,0c-0.73,0.73-1.44,1.57-2.29,2.24c-0.58,0.46-1.43,0.56-2.01,1.01
	c-1.76,1.38-3.83,2.51-4.49,4.53c0.44,2.02,0.82,3.76,1.26,5.78c0.33,0.63,0.79,1.53,1.36,2.64c0.27,0.65-0.51,1.77,0.53,2.51
	c-0.22,1.17,0.26,2.06,1.09,2.82c-0.53,1.28,1.36,1.6,1.11,2.82c-0.23,1.12,0.83,1.83,1.06,2.81c0.06,0.26,0.01,0.54,0.01,0.79
	C628.06,571.6,628.51,572.04,628.96,572.49z M405.51,411.1c0-1.27,0-2.54,0-4.09c-0.28-0.19-0.73-0.5-0.86-0.59
	c-0.57-2.15-1.04-3.96-1.55-5.89c-0.22-0.22-0.54-0.54-0.92-0.92c0.55-1.47-0.68-2.61-0.87-4.03c-0.24-1.78-0.98-3.58-1.87-5.17
	c-1.33-2.38-2.98-4.58-4.57-6.98c-0.84,0.31-1.63,0.6-2.26,0.84c-0.2,0.81-0.38,1.47-0.51,2.14c-0.1,0.51-0.37,1.18-0.16,1.52
	c0.85,1.33,0.33,2.77,0.61,4.11c0.38,0.75,0.81,1.51,0.95,2.32c0.15,0.87,0.03,1.78,0.03,2.58c0.41,0.41,0.73,0.73,0.77,0.77
	c0.36,1.14,0.64,1.94,0.85,2.76c0.26,0.98,1.04,1.55,1.63,2.27c2.57,3.11,4.91,6.41,7.92,9.15
	C404.93,411.68,405.13,411.48,405.51,411.1z M505.6,377.83c-1.01-1.01-2.04-2.03-3.06-3.06c-1.01-1.02-1.83-2.21-3.03-3.06
	c-0.85-0.6-1.35-1.66-2.48-1.9c-0.06-1.44-1.95-0.87-2.23-1.97c-0.32-1.24-1.69-1.11-2.32-1.97c-0.43-0.59-1.23-0.91-1.85-1.38
	c-1.71-1.31-3.11-3.01-5.08-4.02c-0.83-0.43-1.59-1.07-2.27-1.72c-1.01-0.96-2.15-1.44-3.41-1.28c-1.64-2.66-4.55-3.2-6.82-4.6
	c-0.06-0.28-0.11-0.53-0.14-0.65c-1.1-0.25-2.07-0.48-3.31-0.76c1.52,2.06,3.67,3.19,4.62,5.33c2.22,0.81,2.99,3.25,4.92,4.39
	c0.66,0.39,1.39,0.78,1.87,1.35c1.9,2.25,4.62,3.4,6.81,5.27c0.46,0.39,0.51,1.06,1.32,1.29c0.85,0.24,1.53,1.08,2.3,1.65
	c1.8,1.34,3.43,3.01,5.35,4.06c2.59,1.42,4.82,3.27,7.07,4.92c0.62,0,1.14,0,1.73,0C505.6,379.06,505.6,378.45,505.6,377.83z
	 M509.39,374.41c2.2,3.83,5.39,6.53,8.28,9.51c1.04,0.09,1.13,1.14,1.68,1.71c0.9,0.95,1.69,2,2.51,3.03
	c0.43,0.54,0.76,1.17,1.24,1.65c0.44,0.43,1.18,0.56,1.26,1.35c0.01,0.06,0.45,0.07,0.8,0.12c0-0.67,0-1.28,0-2.15
	c-0.23-0.18-0.65-0.51-1.02-0.81c0-0.66,0-1.19,0-1.36c-0.78-1.41-1.39-2.52-2.15-3.89c0.36-0.82-0.29-1.71-0.77-2.62
	c-0.91-1.71-1.97-3.34-2.84-5.08c-0.52-1.04-0.74-2.23-1.19-3.31c-0.45-1.08-1.24-2.07-1.46-3.19c-0.21-1.1-1.4-1.85-1.26-2.7
	c0.22-1.36-0.78-1.95-1.25-2.79c-0.84-1.53-2.28-2.32-4.18-1.98c0,2.36,0,4.66,0,6.93c0.37,0.08,0.61,0.13,1.07,0.23
	c-0.17,0.94-0.33,1.84-0.52,2.85C510.41,372.62,510.07,373.47,509.39,374.41z M392.54,370.2c0.12-0.02,0.25-0.04,0.37-0.06
	c0.81,0.82,1.61,1.65,2.5,2.56c0.31-0.43,0.72-1.01,1.14-1.58c0.46-0.59,0.06-1.43,0.56-2.35c0.31-0.57-0.23-1.57-0.29-2.38
	c-0.06-0.9-0.01-1.81-0.01-2.72c0-1.63,0.05-3.26-0.02-4.89c-0.03-0.66-0.31-1.31-0.45-1.89c0.91-1.9,0.25-3.86,0.52-5.75
	c-1.05-0.27-1.94-0.61-2.86-0.69c-0.81-0.07-1.64,0.15-2.63,0.26c0.11,1.11-0.36,2.44,0.62,3.56c-0.58,1.13-1.12,2.17-1.67,3.24
	c0.15,0.5,0.63,1.19,0.45,1.6c-1.15,2.64-0.31,5.05,0.59,7.5C391.78,367.79,392.14,369,392.54,370.2z M500.43,357.48
	c-1.24,0.04-2.47-0.21-3.77-0.96c-1.18-0.69-2.51-1.33-3.87-1.74c-1.8-0.54-3.59-1.12-5.51-1.12c-0.35,0-0.7-0.28-1.14-0.47
	c0,0.7,0,1.3,0,1.84c0.45,0.29,0.89,0.55,1.3,0.84c0.7,0.5,1.38,1.02,2.08,1.53c0.62,0.45,1.66,0.8,1.8,1.36
	c0.27,1.09,1.25,1.16,1.84,1.59c0.92,0.68,1.75,1.43,2.6,2.18c0.85,0.74,1.9,1.3,2.62,2.14c1.27,1.49,3.28,2.04,4.44,3.67
	c0.27,0.38,1.01,0.42,1.56,0.63c0.58-0.76-0.66-1.39,0.14-2.15c0.36-0.35,0.06-1.38,0.06-2.11c0-0.81,0-1.63,0-2.44
	c0-0.8,0-1.61,0-2.37C503.2,359.1,501.89,358.33,500.43,357.48z M670.55,554.52c0.6-0.83,1.07-2.18,1.96-2.56
	c1.23-0.52,0.71-1.77,1.59-2.43c0.69-0.52,1.43-1.32,1.66-2.49c0.18-0.91,1.19-1.66,1.83-2.48c-0.52-1.29,1.35-1.76,1.15-3.07
	c-0.39,0.19-0.64,0.31-0.75,0.36c-0.4-0.52-0.68-1.3-1.12-1.4c-1.88-0.43-3.43-1.97-5.23-1.72c-0.69,0.58-1.17,0.98-1.63,1.38
	c0,0.79,0.26,1.66-0.05,2.2c-1.02,1.75-1.04,3.63-0.97,5.56c-0.36,0.08-0.61,0.13-0.73,0.15c-0.39,0.73-0.81,1.37-1.08,2.06
	c-0.27,0.7-0.4,1.46-0.59,2.2c-1.12-0.1-0.86,1.04-1.32,1.46c0.24,0.28,0.47,0.55,0.66,0.78
	C667.46,554.52,668.9,554.52,670.55,554.52z M572.69,456.16c-0.48,3.33,0.75,6.43,0.52,9.65c-0.12,1.62,0,3.26,0.39,4.95
	c0.6,2.63,0.47,5.43,0.66,8.16c0.01,0.15,0.14,0.3,0.24,0.49c0.23-0.03,0.48-0.05,0.7-0.08c0.42-1.71,0.62-3.39,1.11-5.03
	c0.48-1.61-0.38-3.56,1.18-4.93c0.12-1.65-0.29-3.38,0.58-4.92c0.64-1.14,0.48-2.36,0.55-3.58c0.04-0.75,0.26-1.49,0.41-2.3
	c-0.2-0.61-0.43-1.32-0.61-1.86c-0.95-0.47-1.78-0.87-2.27-1.11C574.84,455.82,573.83,455.98,572.69,456.16z M554.86,404.83
	c-1.16,1.96,0.96,3.33,0.92,5.18c0,0.25,0.58,0.78,0.71,0.73c1.37-0.56,1.72,1.04,2.77,1.28c0.64,0.15,1.16,0.66,1.86,0.25
	c0-1.9,0-3.77,0-5.26c-0.82-1.5-1.45-2.7-2.12-3.87c-0.63-1.1-1.35-2.15-1.95-3.26c-0.62-1.16-1.17-2.35-2.38-3.01
	c-0.03-0.44-0.06-0.86-0.09-1.27c-0.36,0-0.53,0-0.81,0c-0.21-1.4-0.96-2.47-2.37-3.63c-0.01,1.88-0.03,3.22,0.66,4.67
	c0.75,1.57,1.17,3.34,1.44,5.07C553.68,402.78,553.87,403.72,554.86,404.83z M635.22,449.58c-1.4,2.38-1.74,4.92-2.13,7.42
	c-0.18,1.14-0.2,2.24-1.15,3.1c0.17,2.25-0.19,4.44-1.17,6.51c0.62,0.3,1.1,0.53,1.5,0.72c0.89-2.21,1.56-4.39,2.97-6.34
	c-0.25-1.36,0.22-2.62,1.06-3.73c0.09-1.86-0.43-3.79,1.07-5.31c-0.17-1.95,0.97-3.77,0.57-5.74c-0.02-0.09-0.04-0.2,0-0.27
	c1.04-1.71,0.57-3.83,1.57-5.6c0.37-0.66,0.27-1.78-0.8-2.24c-0.31,1.13-1.61,1.8-1.53,3.14c-1.5,0.61-0.38,2.32-1.27,3.09
	c0.17,0.33,0.33,0.63,0.46,0.86c-0.47,0.46-0.86,0.83-1.16,1.11C635.22,447.49,635.22,448.48,635.22,449.58z M700.09,413.55
	c1.56,0,2.63-0.09,3.67,0.03c1.03,0.11,2.03-1.38,3.06-0.05c0.87-1,2.02-0.39,3.03-0.5c1.11-0.12,2.29,0.21,3.17-0.58
	c0.53,0.24,0.96,0.44,1.38,0.62c0.78-1.21-0.28-1.88-0.42-2.55c-1.04-0.41-1.97-0.78-3.14-1.24c-1.38,0-3.08,0-4.58,0
	c-0.6,1.47-2.01,1.24-2.94,1.8C702.32,411.68,701.44,412.5,700.09,413.55z M635,482.53c-1.46,0.56-1.98,1.64-1.91,2.88
	c0.05,0.94-0.54,1.62-0.64,2.47c-0.05,0.39-0.49,0.77-0.47,1.14c0.08,1.25-0.47,2.33-0.84,3.45c-0.41,1.23-0.93,2.43-1.48,3.82
	c1.45-0.1,2.26-0.79,3.07-1.55c0.74-0.7,1.57-1.3,2.28-1.88C636.26,489.5,635.76,486.16,635,482.53z M599.96,549.99
	c0.81,2.59,0.16,4.94,0.57,7.6c0.44-0.59,0.68-0.92,0.99-1.35c0-1.15-0.26-2.48,0.06-3.65c0.48-1.75,0.87-3.53,0.92-5.29
	c0.11-3.19,0.94-6.33,0.63-9.55c-0.04-0.43,0.38-0.91,0.63-1.44c-1.35-0.65-0.17-2.1-0.94-3.01c-1.27,2.72-0.91,5.7-1.94,8.31
	C599.77,544.4,601.13,547.42,599.96,549.99z M541.7,408.26c0.48,2.02,4.37,6.81,8.55,10.08c0-0.83,0-1.61,0-2.4
	c-1.08-1.08-1.09-2.47-1.02-3.76c-1.13-0.98-2.99-0.62-3.45-2.34C544.42,409.31,543.06,408.79,541.7,408.26z M613.54,471.52
	c-0.26,2.31,0.28,4.2-0.63,5.95c-0.54,1.03-0.6,2.15-0.56,3.3c0.05,1.81,0.01,3.62,0.01,5.2c-0.42,0.86-1,1.52-1.04,2.22
	c-0.13,1.95-0.05,3.92-0.05,5.88c0.59-1.3,1.34-2.48,1.1-3.92c-0.18-1.1,0.24-2.05,1.22-3c-1.13-3.26,1.42-6.28,1.03-9.68
	c-0.03-0.27,0.69-0.99,0.41-1.38c-0.82-1.13-0.32-2.4-0.53-3.38C614.18,472.32,613.96,472.04,613.54,471.52z M381.76,351.91
	c0.25,0.32,0.68,0.69,0.87,1.16c0.6,1.45,1.27,2.73,2.1,3.47c0.26,0.23,0.67,0.3,1.06,0.46c0.34-1.7,0.08-3.01-1.04-4.27
	c0-1.38,0-2.9,0-4.35c-1.27-0.6-2.46-1.01-3.63-0.56C381.33,349.19,381.52,350.39,381.76,351.91z M570.92,565.02
	c1.82,0.31,3.34-0.09,4.3-1.42c0-1.51,0-2.83,0-4.14c-0.16-0.09-0.31-0.17-0.47-0.26C573.37,560.99,572.84,563.44,570.92,565.02z
	 M592.85,473.87c1.28-2.67,1.41-5.33,0-8.31C592.85,468.57,592.85,471.22,592.85,473.87z M652.55,428.47
	c0.1,0.71,0.2,1.35,0.31,2.11c0.81-0.41,1.4-0.71,1.99-1.01c-0.14-1.06,0.18-1.76,1.31-1.89c0.08-0.01,0.14-0.23,0.21-0.35
	c-0.27-0.26-0.53-0.5-0.79-0.75C654.3,426.62,653.84,427.93,652.55,428.47z M686.26,413.59c0.33,1.43,1.45,1.23,1.82,1.49
	c1.5-0.26,2.64-0.46,3.82-0.66c-0.09-0.35-0.15-0.59-0.21-0.83C689.93,413.59,688.25,413.59,686.26,413.59z M577.02,550.93
	c0.74,1.42,1.48,2.63,3.01,3.12c-0.19-1.2-0.35-2.24-0.5-3.24C578.26,550.06,578.26,550.06,577.02,550.93z M664.25,538.05
	c-0.54-0.4-0.98-0.74-1.41-1.06c-0.32,0.3-0.51,0.47-0.68,0.64c-0.29-0.05-0.32-0.7-0.93-0.17c0.8,0.92,0.93,2.3,2.19,2.91
	c0.12,0.06,0.32-0.06,0.71-0.15c-0.17-0.45-0.33-0.86-0.49-1.26C663.79,538.73,663.98,538.45,664.25,538.05z"/>
<path d="M845.19,467.98c-0.68,0-1.22,0-1.66,0c-0.46-0.52-0.88-0.98-1.45-1.62c0-0.05,0-0.41,0-0.93c0.24-0.07,0.55-0.15,0.96-0.27
	c0-0.39,0-0.81,0-1.2c0.55-0.28,0.99-0.51,1.52-0.79c0.17,0.15,0.41,0.38,0.62,0.58C845.19,465.19,845.19,466.59,845.19,467.98z"/>
<path d="M762.52,387.81c0.28,2.42-1.34,3.35-2.54,4.7c-0.62-0.28-1.16-0.51-1.95-0.86C759.58,390.32,760.94,389.16,762.52,387.81z"
	/>
<path d="M637.37,687.43c0,0.97,0,1.69,0,2.39c-0.28,0.28-0.72,0.51-0.76,0.8c-0.27,1.85-1.8,2.65-3.08,3.49
	c-1.06,0.69-1.84,1.64-2.83,2.34c-0.77,0.54-0.72,1.66-1.85,1.99c-0.85,0.25-1.57,1.05-2.28,1.68c-0.51,0.45-0.9,1.01-1.72,1.96
	c-1.33,0.65-3.08,1.84-5.69,2.67c-1.36-0.17-3.34,0.24-5.38-0.42c-1.54-0.5-3.14,0.53-4.61,0.93c-1.54-0.11-2.55-1.31-4.01-1.62
	c-0.97-0.21-1.39-1.55-2.52-1.78c-0.49-0.1-0.96-0.32-1.87-0.63c-1.03-1.39-2.32-3.14-3.65-4.94c0-1.37,0-2.82,0-4.28
	c1.07-1.75,1.07-1.75,0.84-3.53c-0.2,0.18-0.39,0.35-0.55,0.5c-0.28-0.2-0.55-0.41-0.98-0.72c-0.65,0.81-1.24,1.53-1.94,2.4
	c-1.42,0.48-2.44-1.03-3.87-1.21c0-1.53,0-2.97,0-4.48c1.11-0.61,2.21-1.48,3.46-1.84c3.1-0.88,6-2.46,9.4-2.34
	c1.81,0.06,3.74,0.65,5.49-0.47c0.19-0.12,0.63-0.13,0.79,0c1.1,0.95,2.42,0.57,3.59,0.48c2.68-0.2,5.1,0.85,7.63,1.35
	c1.56,0.31,3.04,0.89,4.48,1.65c1.02,0.54,2.29,0.79,3.45,0.81c2.11,0.04,3.97,1.08,6.06,1.24
	C635.78,685.89,636.53,686.84,637.37,687.43z M617.89,697.75c2.46-0.83,4.15-2.64,6.06-3.41c0.58-0.77,0.99-1.31,1.39-1.84
	c0-0.77,0-1.56,0-2.42c-1.2-0.51-2.36-1.01-3.86-1.65c-0.86,0-2.13,0-3.22,0c-0.5-0.26-0.86-0.45-1.23-0.64
	c-0.88,1.65,0.15,2.97,0.43,4.36c0.28,1.34,1.56,2.52,0.39,4.05C617.6,696.51,617.85,697.19,617.89,697.75z"/>
<path d="M789.3,407.4c-0.27,0.6-0.5,1.12-0.77,1.72c-0.55,0-1.15,0-1.88,0c0-0.8,0-1.64,0-2.52
	C787.61,406.36,788.54,406.22,789.3,407.4z"/>
</svg>
