<?xml version="1.0" encoding="utf-8"?>
<!-- Generator: Adobe Illustrator 24.1.0, SVG Export Plug-In . SVG Version: 6.00 Build 0)  -->
<svg version="1.1" id="Layer_1" xmlns="http://www.w3.org/2000/svg" xmlns:xlink="http://www.w3.org/1999/xlink" x="0px" y="0px"
	 viewBox="0 0 1224 792" style="enable-background:new 0 0 1224 792;" xml:space="preserve">
<path d="M880.27,125.06c-4.09-7.48-8.84-14.46-15.69-19.72c-3.51-2.7-7.33-5-10.86-7.68c-4.49-3.41-9.72-5.78-13.64-10.02
	c-2.08-2.25-4.51-4.22-6.97-6.06c-3.16-2.36-6.56-4.09-10.57-5.04c-6.21-1.47-12.16-3.99-18.3-5.77
	c-5.76-1.66-10.67-5.08-16.11-7.38c-2.89-1.22-5.75-2.2-8.91-2.15c-4.2,0.07-8.35-0.01-12.47-1.25c-2.32-0.7-4.85-0.79-7.3-0.94
	c-4.92-0.29-9.85-0.57-14.78-0.59c-3.94-0.02-7.89,0.57-11.83,0.5c-7.16-0.13-14.43,0.17-21.43-1.04c-7.5-1.29-15.03-0.71-22.5-1.69
	c-2.51-0.33-5.15,0.21-7.71,0.52c-4.88,0.58-9.72,1.54-14.57,2.25c-8.33,1.22-16.37,3.55-24.47,5.58
	c-11.11,2.78-22.07,6.13-31.96,12.2c-0.63,0.39-1.28,0.77-1.97,1.02c-1.92,0.71-3.93-0.64-3.75-2.67c0.15-1.7,0.59-3.33,1.91-4.69
	c1.69-1.75,3.15-3.73,4.55-5.43c-0.19-0.64-0.18-0.99-0.33-1.09c-2.36-1.43-2.69-3.02-1.77-5.83c1.16-3.55,2.5-6.91,4.37-10.12
	c1.22-2.1,2.24-4.33,3.28-6.54c0.24-0.51,0.17-1.16,0.33-2.43c-2.34,1.71-3.87,3.34-5.19,5.2c-2.06,2.91-4.07,5.86-6.21,8.71
	c-3.17,4.22-6.59,8.26-9.64,12.56c-3.75,5.29-7.32,10.71-10.8,16.19c-2.1,3.3-3.81,6.85-5.82,10.22c-1.19,2.01-2.62,3.87-3.93,5.81
	c-7.11,10.55-12.66,21.98-18.52,33.23c-1.47,2.82-3.01,5.61-4.33,8.5c-0.9,1.99-1.43,4.15-2.2,6.21c-0.51,1.36-1.13,2.69-1.76,4.01
	c-0.32,0.66-0.89,1.23-1.12,1.91c-1.58,4.67-3.34,9.3-4.58,14.06c-1.61,6.18-2.85,12.46-4.14,18.72c-0.77,3.73-1.11,7.56-2.03,11.25
	c-0.8,3.21-2.12,6.29-3.26,9.41c-1.81,4.95-3.65,9.9-5.52,14.83c-1.3,3.43-2.72,6.83-4.01,10.26c-0.43,1.14-0.63,2.36-0.98,3.54
	c-2.22,7.54-4.53,15.05-6.65,22.61c-1.72,6.14-3.21,12.34-4.81,18.51c-1.35,5.18-2.81,10.33-4.05,15.54
	c-0.68,2.86-0.99,5.82-1.51,8.72c-1.11,6.18-1.95,12.42-3.45,18.5c-1.51,6.08-1.57,12.42-3.76,18.39c-1.2,3.28-1.25,6.97-2.01,10.43
	c-0.49,2.26-1.31,4.45-2.01,6.66c-0.18,0.58-0.75,1.18-0.66,1.68c0.51,2.85-1.11,5.25-1.51,7.88c-0.3,1.99-0.97,3.75-1.68,5.58
	c-1.59,4.11-2.91,8.32-4.37,12.47c-1.95,5.55-3.97,11.08-5.85,16.66c-1.14,3.38-2,6.85-3.12,10.24c-1.66,5.01-3.32,10.03-5.18,14.97
	c-3.5,9.31-6.22,18.84-8.29,28.56c-0.15,0.72-0.24,1.46-0.45,2.16c-0.83,2.83-0.7,3.08,1.91,4.7c1.07,0.66,2.64,0.84,2.93,2.6
	c-1.69,1.81-3.48,0.07-5.22,0.15c-1.33,1.42-2.07,3.09-1.99,5.02c0.17,3.81,0.39,7.62,0.67,11.43c0.23,3.07,0.68,6.12,0.85,9.19
	c0.18,3.19,0.13,6.38,0.22,9.57c0.01,0.47,0.16,0.99,0.4,1.38c2.48,3.93,2.24,8.5,3.04,12.82c0.79,4.23,1.4,8.52,2.63,12.62
	c1.19,3.95,3.17,7.65,4.62,11.52c1.6,4.26,2.63,8.69,4.59,12.86c0.92,1.96,1.15,4.88,0.37,6.84c-1.3,3.27-0.42,6.13,0.47,8.97
	c0.99,3.18,1.58,6.82,5.47,8.5c0.05-0.54,0.24-1.1,0.14-1.61c-0.45-2.28-0.78-4.61-1.55-6.79c-0.85-2.42-0.2-4.57,0.32-6.88
	c1.01-4.43,2.09-8.88,2.59-13.38c0.35-3.15-0.23-6.39-0.38-9.6c-0.14-3.04,0.61-5.81,2.29-8.39c2.17-3.31,3.39-7,4.39-10.84
	c2.06-7.97,2.65-16.27,5.54-24.06c0.41-1.11,0.35-2.45,0.29-3.67c-0.4-7.82,0.99-15.47,1.92-23.18c0.55-4.57,1.06-9.23,0.56-13.97
	c-0.38-3.58,0.59-7.31,1.03-10.97c0.15-1.22,0.73-2.41,0.73-3.62c0-5.14,1.6-9.93,2.84-14.84c0.9-3.56,0.9-7.35,1.78-10.92
	c1.46-5.95,1.67-11.93,1.55-17.99c-0.05-2.81,0.25-5.68,0.8-8.45c0.91-4.6,0.35-9.36,1.9-13.91c0.61-1.78,0.12-3.92,0.16-5.9
	c0.03-1.63,0.71-2.91,2.28-3.48c1.77-0.64,3.74,0.68,3.78,2.84c0.06,4.3,2.31,7.91,3.4,11.88c0.42,1.51,0.85,3.03,1.21,4.55
	c0.54,2.27,1,4.57,1.55,6.84c0.92,3.82,1.89,7.63,2.85,11.44c0.81,3.21,1.57,6.42,2.48,9.6c0.25,0.88,0.93,1.63,1.69,2.9
	c0.73-1.03,1.38-1.6,1.59-2.3c1.06-3.54,2-7.11,2.99-10.67c1.22-4.37,2.45-8.74,3.66-13.12c0.33-1.18,0.57-2.38,0.88-3.56
	c0.51-1.91,0.99-3.82,1.57-5.7c1.37-4.46,2.8-8.9,4.17-13.36c1.11-3.63,2.11-7.29,3.25-10.92c1.33-4.21,2.66-8.43,4.16-12.58
	c1.92-5.29,3.88-10.57,6.08-15.74c1.48-3.5,3.42-6.8,5.12-10.21c2.26-4.52,4.42-9.09,6.72-13.59c3.35-6.53,6.4-13.26,10.29-19.46
	c4.57-7.29,9.98-14.03,15.89-20.34c3.87-4.14,7.54-8.46,11.18-12.8c1.09-1.3,1.89-2.88,2.62-4.43c1.34-2.87,2.64-5.69,4.58-8.3
	c3.66-4.92,6.98-10.1,10.26-15.3c2.36-3.74,4.53-7.62,6.6-11.53c3.96-7.48,7.76-15.04,11.7-22.52c0.91-1.74,1.98-3.46,3.27-4.92
	c3.15-3.54,5.17-7.74,7.34-11.86c2.37-4.5,5.78-8.21,9.06-12.03c6.63-7.74,14.31-14.22,22.98-19.54
	c6.09-3.74,12.18-7.46,18.22-11.27c1.54-0.98,2.88-2.28,4.3-3.45c0.66-0.54,1.22-1.32,1.98-1.62c1-0.4,2.03-0.11,2.26,1.16
	c0.27,1.47,0.24,2.86-0.67,4.25c-3.35,5.16-6.35,10.56-10.58,15.11c-0.25,0.27-0.47,0.59-0.61,0.92
	c-2.76,6.78-7.44,12.67-9.13,19.96c-0.38,1.64-1.34,3.18-2.2,4.67c-2.82,4.91-3.58,10.44-4.9,15.8c-0.59,2.38-0.96,4.82-1.49,7.22
	c-1,4.56-1.97,9.12-3.09,13.64c-0.53,2.13-1.22,4.23-2.09,6.24c-2.18,5.04-4.41,10.07-6.78,15.02c-3,6.28-7.29,11.67-11.8,16.91
	c-1.76,2.05-3.5,4.13-5.36,6.09c-2.55,2.68-5.25,5.22-7.82,7.88c-3.37,3.48-6.08,7.36-7.89,11.94c-1.21,3.06-3.15,5.82-4.64,8.78
	c-2.25,4.5-4.65,8.95-6.52,13.61c-3.6,8.97-7.16,17.97-10.17,27.15c-2.17,6.63-4.26,13.3-6.28,19.98
	c-1.43,4.71-3.29,9.17-5.22,13.65c-1.45,3.39-2.63,6.89-3.91,10.35c-0.59,1.6-1.13,3.21-1.69,4.81c-0.68,1.96-1.26,3.95-2.04,5.87
	c-1.4,3.4-2.81,6.8-4.44,10.1c-1.51,3.07-3.47,5.93-4.93,9.02c-2.25,4.77-3.92,9.76-4.77,15.01c-0.31,1.92-1.02,3.78-1.48,5.68
	c-0.77,3.23-1.76,6.44-2.18,9.72c-0.67,5.33-2.72,10.18-4.57,15.11c-1.84,4.92-3.89,9.77-5.8,14.67c-0.43,1.1-0.66,2.27-0.4,3.89
	c0.89-0.49,1.86-0.88,2.64-1.49c1.26-0.98,2.43-2.09,3.6-3.2c8.44-7.99,18.31-13.67,28.96-18.14c7.73-3.24,15.33-6.77,23.13-9.82
	c5.03-1.97,10.26-3.49,15.49-4.88c6.54-1.73,13.18-3.08,19.75-4.67c3.84-0.92,7.64-1.99,11.47-2.96c0.82-0.21,1.71-0.51,2.5-0.38
	c0.59,0.1,1.38,0.75,1.52,1.29c0.14,0.54-0.24,1.5-0.71,1.86c-0.76,0.58-1.75,0.9-2.69,1.19c-4.94,1.54-9.9,2.99-14.82,4.58
	c-1.99,0.64-3.88,1.58-5.84,2.34c-4,1.56-8.02,3.1-12.37,4.77c3.33,0.07,6.29,0.07,9.33-0.47c6.8-1.21,13.64-2.27,20.51-2.96
	c3.5-0.35,7.1,0.14,10.65,0.42c4.79,0.38,9.57,0.9,14.35,1.38c1.59,0.16,3.17,0.41,4.76,0.56c1.47,0.14,2.95,0.33,4.42,0.29
	c2.95-0.1,5.91-0.26,8.85-0.54c6.73-0.65,13.47-1.29,20.19-2.1c8.07-0.98,16.15-1.94,24.16-3.29c6.06-1.02,12.12-2.18,17.82-4.73
	c2.22-1,4.69-1.46,7.05-2.14c6.85-1.98,13.67-4.06,20.57-5.87c6.67-1.76,13.37-3.42,20.13-4.75c2.71-0.53,5.62-0.21,8.41,0.03
	c0.9,0.08,2,0.97,2.52,1.8c0.71,1.13-0.23,2.13-1.12,2.82c-3.03,2.33-6.09,4.62-9.17,6.88c-6.33,4.65-13.85,6.47-21.22,8.39
	c-8.1,2.11-16.41,3.39-24.54,5.39c-5.13,1.26-10.12,3.13-15.13,4.84c-4.78,1.63-9.54,3.36-14.26,5.15
	c-4.96,1.87-9.83,3.97-14.81,5.76c-4.52,1.62-9.14,2.99-13.73,4.42c-5.18,1.61-10.36,3.21-15.57,4.72
	c-5.45,1.58-10.93,3.07-16.4,4.59c-1.07,0.3-2.15,0.56-3.21,0.91c-4.09,1.35-8.12,2.91-12.27,4.06c-6.43,1.78-12.55,4.33-18.67,6.92
	c-7.15,3.03-14.35,5.95-21.52,8.94c-4.09,1.71-8.15,3.47-12.24,5.17c-1.82,0.75-3.73,1.27-5.5,2.12c-1.95,0.93-3.78,2.12-6.33,3.57
	c2.56,0.63,4.38,0.93,6.09,1.52c5.13,1.79,10.3,3.51,15.3,5.62c4.42,1.86,8.62,4.27,12.98,6.29c2.55,1.18,5.18,2.25,7.86,3.08
	c6.25,1.94,12.56,3.65,18.82,5.56c1.75,0.54,3.44,1.28,3.94,3.49c0.18,0.79,1.04,1.58,1.79,2.07c4.12,2.69,8.26,5.35,12.47,7.9
	c3.37,2.04,6.73,4.16,10.31,5.78c2.3,1.05,4.97,1.3,7.49,1.84c3.13,0.67,6.29,1.21,9.41,1.89c3.49,0.77,6.97,1.61,10.44,2.49
	c0.94,0.24,1.99,0.49,2.7,1.09c4.41,3.7,9.61,6.02,14.7,8.53c5.63,2.78,11.22,5.69,17.03,8.05c4.88,1.99,8.49,5.35,11.89,9.09
	c0.94,1.04,1.42,2.5,2.13,3.75c0.91,1.6,1.99,3.12,2.72,4.8c2.41,5.58,3.66,11.42,3.78,17.53c0.06,3.18,0.48,6.4,1.14,9.51
	c0.54,2.56,0.43,4.87-0.84,7.25c-1.82,0.77-3.1-0.02-3.85-1.66c-1.83-4.01-3.68-8.02-5.27-12.13c-0.79-2.04-1.13-4.27-1.52-6.45
	c-0.49-2.72-1.48-5.14-3.26-7.3c-2.59-3.13-5.3-6.2-7.49-9.6c-4.68-7.3-11.93-11.19-19.11-15.31c-9.68-5.57-20.19-9.12-30.59-12.98
	c-2.64-0.98-5.09-2.49-7.69-3.6c-1.32-0.57-2.76-0.93-4.18-1.16c-5.58-0.93-11.3-0.99-16.74-2.74c-1.75-0.57-3.51-1.19-5.14-2.04
	c-2.33-1.2-4.67-1.35-7.34-0.86c0.11,2.26,1.33,3.71,2.6,5.17c1.21,1.39,2.39,2.82,3.46,4.33c1.43,2.01,1.42,4.08,0.16,6.25
	c-2.45,4.22-3.52,8.79-3.55,13.7c-0.03,4.49-1.08,8.69-4.68,11.87c-2.95,2.61-5.75,5.38-8.69,8c-4.28,3.81-9.54,4.98-15.04,5.16
	c-1.55,0.05-3.2-0.43-4.66-1.01c-0.95-0.38-2.08-1.26-2.36-2.15c-1.33-4.21-2.95-8.45-3.42-12.79c-0.55-5.09-0.02-10.29,0.06-15.45
	c0.01-0.99,0.27-2,0.12-2.95c-0.71-4.46,0.05-8.81,0.82-13.18c0.21-1.2,0.05-2.46,0.08-3.7c0.08-3.1,0.58-3.53,3.83-3.35
	c0.35,0.02,0.71,0.06,1.19,0.1c1.36-2.59,1.96-5.28,1.42-8.55c-1.28-0.42-2.62-1.06-4.03-1.3c-8.02-1.4-15.93-3.12-23.71-5.68
	c-6.05-1.99-12.31-3.48-18.72-4.11c-2.05-0.2-4.05-1.01-6.04-1.64c-0.55-0.17-1.06-0.65-1.46-1.09c-0.97-1.06-0.63-2.53,0.74-2.94
	c0.8-0.24,1.71-0.23,2.56-0.19c4.96,0.24,9.75,1.27,14.47,2.85c3.61,1.21,7.36,2.02,11.06,2.95c0.39,0.1,0.87-0.15,2.25-0.44
	c-1.95-1.08-3.16-1.77-4.39-2.43c-1.4-0.75-2.91-1.35-4.21-2.24c-1.2-0.82-1.65-2.19-1.14-3.58c0.44-1.2,2.18-1.51,3.81-0.67
	c4.17,2.16,8.63,2.75,13.25,2.76c1.7,0,3.7,0,5.03,0.84c2.94,1.84,6.24,1.18,9.29,2.01c0.36,0.1,0.85-0.25,1.93-0.6
	c-1.25-0.97-1.97-1.79-2.88-2.2c-6.38-2.91-12.7-6-19.25-8.47c-3.76-1.42-7.88-2.01-11.89-2.56c-4.47-0.62-8.43,1.16-12.29,3.29
	c-11.2,6.18-21.9,13.23-33.37,18.95c-2.68,1.34-4.92,3.63-7.22,5.65c-0.64,0.56-0.79,1.7-1.11,2.59c-0.41,1.14-0.58,2.43-1.21,3.42
	c-0.83,1.31-2.95,0.93-3.11-0.59c-0.22-2.06-0.44-4.35,0.24-6.22c1.2-3.31,2.93-6.47,4.7-9.53c2.79-4.81,7.3-7.98,11.51-11.4
	c1.24-1,2.68-1.77,3.86-2.83c5.13-4.58,11.48-6.04,17.96-7.19c3.65-0.65,7.29-1.05,11.03-0.34c1.21,0.23,2.78-0.18,3.86-0.83
	c7.35-4.38,15.14-7.71,23.22-10.47c4.08-1.39,8.01-3.24,11.99-4.92c6.37-2.69,12.79-5.26,19.06-8.15
	c6.53-3.02,13.37-5.06,20.24-7.08c2.96-0.87,5.84-2.14,8.85-2.69c7.55-1.35,14.64-4.21,21.92-6.39
	c13.93-4.16,27.91-8.21,41.28-14.06c4.28-1.87,8.86-3.05,13.27-4.62c4.52-1.61,9.07-3.16,13.5-5c3.73-1.55,7.71-1.38,11.55-2.05
	c5.85-1.03,11.57-2.4,17.18-4.29c3.5-1.18,6.95-2.57,10.53-3.44c4.68-1.14,7.75-4.57,11.78-7.18c-1.26-1.33-2.4-1.53-3.83-1.21
	c-7.81,1.73-15.68,3.18-23.24,5.97c-3.81,1.41-7.82,2.25-11.73,3.39c-3.79,1.1-7.59,2.15-11.32,3.42
	c-7.51,2.55-15.13,4.38-23.1,4.69c-2.57,0.1-5.12,0.72-7.68,1.09c-6.09,0.88-12.17,1.76-18.26,2.63c-1.59,0.23-3.17,0.5-4.77,0.61
	c-4.67,0.32-9.38,0.36-14.02,0.9c-6.72,0.77-13.21-0.8-19.8-1.37c-5.28-0.45-10.58-0.75-15.88-0.82c-2.81-0.04-5.65,0.46-8.44,0.89
	c-5.96,0.93-11.89,2.07-17.86,2.94c-6,0.87-11.81,2.36-17.57,4.26c-6.55,2.17-13.31,3.69-19.9,5.75c-6.23,1.94-12.37,4.2-18.54,6.34
	c-3.85,1.34-7.63,2.73-10.91,5.34c-4.1,3.27-7.28,7.22-9.92,11.69c-0.43,0.73-0.78,1.55-1.34,2.16c-3.69,3.98-6.01,8.68-7.55,13.84
	c-0.44,1.49-1.19,2.96-2.12,4.19c-0.48,0.63-1.82,1.1-2.54,0.88c-0.65-0.2-1.35-1.42-1.38-2.22c-0.05-1.16,0.17-2.58,0.82-3.49
	c2.9-4.03,3.74-8.79,4.97-13.39c1.94-7.24,4.34-14.26,7.42-21.14c2.95-6.6,5.52-13.52,7.05-20.56c1.43-6.6,3.83-12.97,4.65-19.66
	c0.78-6.4,3.54-12,6.53-17.45c3.69-6.72,6.58-13.73,9.16-20.92c2.16-6.02,4.64-11.92,6.85-17.91c2.51-6.8,5.01-13.6,7.29-20.48
	c1.74-5.24,3.07-10.61,4.73-15.87c0.63-1.99,1.72-3.82,2.53-5.76c1.51-3.63,2.87-7.31,4.44-10.91c4.59-10.49,8.95-21.06,14.51-31.12
	c2.51-4.55,5.77-8.18,9.22-11.84c4.57-4.84,9.11-9.71,13.52-14.7c2.36-2.67,4.75-5.41,6.51-8.47c3.06-5.3,6.07-10.71,8.3-16.39
	c2.41-6.16,4.06-12.63,5.73-19.05c0.99-3.79,1.19-7.79,2.08-11.62c1.31-5.6,2.64-11.19,5.06-16.49c1.98-4.35,3.35-8.97,5.3-13.33
	c1.86-4.14,4.07-8.12,6.23-12.12c1.14-2.11,2.51-4.1,4.12-6.7c-1.24,0.36-1.95,0.43-2.52,0.74c-3.44,1.9-6.82,3.91-10.27,5.79
	c-7.1,3.87-13.55,8.71-19.01,14.57c-4.34,4.66-9.13,9.03-12.43,14.6c-2,3.38-3.89,6.83-5.93,10.18c-1.53,2.51-3.45,4.79-4.83,7.38
	c-3.92,7.37-7.57,14.87-11.47,22.24c-2.3,4.34-4.84,8.57-7.37,12.79c-2.54,4.22-5.13,8.41-7.84,12.52c-1.96,2.98-4.15,5.8-6.24,8.69
	c-0.29,0.4-0.8,0.82-0.79,1.23c0.03,3.95-3.09,6.03-5.2,8.62c-4.2,5.14-8.44,10.29-13.09,15c-3.61,3.66-5.43,8.49-8.92,12.13
	c-5.06,5.27-7.46,12.1-10.98,18.28c-0.89,1.56-0.99,3.55-1.8,5.16c-2.49,4.91-5.07,9.79-7.78,14.59c-1.76,3.13-2.96,6.44-4.19,9.79
	c-1.51,4.13-3.34,8.14-5,12.23c-0.78,1.93-1.63,3.86-2.17,5.87c-2.05,7.61-5.23,14.86-6.74,22.65c-0.7,3.59-2.27,7-3.46,10.5
	c-0.24,0.7-0.71,1.37-0.76,2.07c-0.34,4.47-2.28,8.52-3.34,12.79c-1.2,4.78-2.32,9.58-3.37,14.39c-0.6,2.76,0.16,5.15,2.51,6.88
	c2.7,2,3.9,5.09,5.27,7.89c0.78,1.59,0.52,3.94,0.1,5.81c-1.04,4.65-2.61,9.18-3.63,13.83c-1.11,5.04-1.9,10.15-2.68,15.25
	c-0.22,1.43,0.15,2.93,0.14,4.4c-0.03,6.56,0.97,13.17-1.8,19.56c-1.2,2.76-1.57,5.91-2.07,8.92c-0.28,1.66-0.3,3.39,0.84,4.98
	c0.5,0.7,0.61,1.97,0.37,2.83c-0.65,2.33-1.49,4.63-2.44,6.86c-1.27,2.96-3.78,4.12-6.21,0.14c0.91-6.97,1.76-14.29,2.87-21.57
	c0.63-4.12,2.04-8.13,2.49-12.25c0.42-3.89,0.33-7.89-0.06-11.79c-0.39-4-1.51-7.93-2.11-11.92c-0.35-2.31-0.38-4.67-0.43-7.01
	c-0.13-6.19-1.07-12.25-2.5-18.27c-1.69-7.15-3.92-14.13-6.07-21.15c-0.83-2.69-1.12-5.54-1.8-8.28c-0.88-3.58-1.88-7.12-2.88-10.67
	c-0.42-1.5-0.98-2.95-2.14-4.08c-0.36,0.33-0.66,0.46-0.68,0.64c-0.57,3.39-1.26,6.77-1.59,10.19c-0.27,2.82-0.31,5.7-0.07,8.53
	c0.54,6.27-0.98,12.23-2.34,18.23c-0.14,0.6-0.41,1.2-0.4,1.8c0.02,3.23-0.57,6.31-1.59,9.4c-1.19,3.62-1.98,7.39-1.66,11.28
	c-2.21,4.66-1.18,9.72-1.72,14.58c-0.36,3.27-0.28,6.59-0.5,9.87c-0.23,3.44-0.55,6.88-0.89,10.31c-0.36,3.67-1.11,7.34-1.09,11.01
	c0.03,5.1-0.26,10.18-1.83,14.98c-1.32,4.03-1.48,8.16-2.28,12.23c-0.63,3.24-1.73,6.39-2.72,9.55c-1.13,3.62-2.49,7.13-4.79,10.22
	c-0.4,0.54-0.5,1.42-0.46,2.13c0.19,3.06-0.68,6.07-0.16,9.19c0.38,2.25,0.32,4.65-0.75,6.91c-0.45,0.94-0.38,2.17-0.41,3.27
	c-0.08,2.59-0.39,5.07-1.19,7.62c-0.95,3.04-0.7,6.28,0.29,9.46c1.49,4.79,2.71,9.66,3.96,14.52c0.2,0.77,0.25,1.77-0.07,2.46
	c-0.86,1.85-3.09,1.87-4.55,0.25c-3.29-3.64-6.64-7.23-9.93-10.87c-0.66-0.72-1.55-1.55-1.65-2.4c-0.54-4.63-3.41-8.81-2.58-13.68
	c0.14-0.85,0.02-1.76,0.26-2.57c0.79-2.75,0.39-5.44-0.53-8.01c-2.68-7.51-5.5-14.97-8.27-22.44c-0.17-0.47-0.37-0.92-0.7-1.71
	c-0.85,1.1-1.3,1.43-1.38,1.83c-0.7,3.24-1.63,6.47-1.92,9.75c-0.48,5.3-1.26,10.51-3.45,15.37c-1.68,3.72-1.55,7.55-0.66,11.22
	c1.53,6.26,4.7,11.85,8.05,17.34c1.92,3.14,3.3,6.61,4.9,9.94c0.16,0.33,0.18,0.72,0.3,1.07c0.43,1.31-0.23,2.16-1.27,2.75
	c-1.25,0.71-2.37,0.02-2.82-0.97c-2.4-5.36-7.64-8.28-10.87-12.91c-1.25-1.79-2.66-3.46-4.25-5.51c-3.44,3.35-6.76,6.32-8.8,10.24
	c-2.15,4.11-4.71,8.07-5.78,12.69c-0.19,0.84-0.61,1.67-0.6,2.49c0.05,2.98-1.46,5.46-2.51,8.06c-0.84,2.08-1.94,2.52-3.37,1.88
	c-1.65-0.74-1.97-1.95-0.96-3.97c0.94-1.88,1.82-3.74,1.24-6.56c-0.86,1.14-1.49,1.83-1.96,2.61c-1.37,2.3-1.8,5.08-3.84,7.07
	c-0.5,0.49-0.53,1.62-0.53,2.46c0.02,4.33-0.38,8.59-1.33,12.85c-0.66,2.97-0.15,6.09-1.26,9.11c-0.43,1.16,0.58,3.11,1.4,4.41
	c4.8,7.59,9.57,15.2,13.28,23.41c1.4,3.09,4.26,4,7.27,4.14c3.69,0.16,7.39-0.15,11.01,1.04c0.84,0.28,2.19-0.24,3.01-0.81
	c1.94-1.35,3.96-1.84,6.29-1.64c3.56,0.31,7.13,0.55,10.69,0.59c2.33,0.02,4.66-0.4,6.99-0.57c4.21-0.31,8.39-0.36,12.34,1.54
	c1.92,0.93,3.81,0.74,5.7-0.24c3.17-1.65,6.33-3.32,9.57-4.82c3.69-1.72,7.36-3.6,11.24-4.76c2.64-0.79,5.61-0.53,8.43-0.6
	c3.28-0.09,3.56-0.26,3.62-3.6c0.04-1.98-0.15-3.97-0.02-5.93c0.2-2.94,0.58-5.87,0.91-8.8c0.18-1.59,0.33-3.19,0.66-4.75
	c0.51-2.38,0.96-4.8,1.83-7.06c2.04-5.29,2.14-10.85,2.56-16.36c0.19-2.46-0.07-4.95,0-7.42c0.07-2.54-0.51-5.18,1.22-7.51
	c0.38-0.51,0.27-1.45,0.22-2.17c-0.29-4.18,1.14-7.91,2.6-11.74c1.49-3.89,2.26-8.06,3.3-12.12c1.12-4.38,2.2-8.77,3.26-13.02
	c3.62-0.65,4.5-0.19,4.19,2.71c-0.29,2.65-1.38,5.2-1.93,7.84c-1.2,5.77-2.84,11.48-2.82,17.42c0.02,8.15,0.59,16.3,0.31,24.43
	c-0.27,7.72,1.27,15.24,1.73,22.86c0.25,4.13,1.78,8.17,2.25,12.31c0.5,4.4,0.51,8.86,0.6,13.29c0.04,1.82-1.06,2.95-2.85,3.38
	c-0.72,0.17-1.4,0.49-2.13,0.65c-2.12,0.45-3.22,1.65-3.95,3.78c-1.13,3.3-3.52,5.75-6.23,8.04c-5.3,4.48-11.93,5.68-18.13,7.91
	c-2.14,0.77-4.67,0.94-6.96,0.72c-5.23-0.49-10.26,0.62-15.35,1.3c-7.57,1.02-15.1,2.32-22.75,2.77c-1.68,0.1-3.32,0.9-5,1.26
	c-2.87,0.62-5.75,1.39-8.66,1.64c-4.29,0.37-8.62,0.3-12.93,0.48c-1.54,0.07-2.68-0.56-3.41-1.78c-1.43-2.42-3.03-4.5-6.13-4.81
	c-0.44-0.04-1.09-0.79-1.16-1.28c-0.42-2.99-2.91-4.12-4.92-5.66c-1.47-1.12-3.09-2.04-4.62-3.08c-0.61-0.41-1.35-0.79-1.72-1.38
	c-2.11-3.35-5.23-4.93-9.01-5.62c-1.01-0.18-1.9-1.05-3.26-1.84c-0.63,0.9-1.46,1.89-2.05,3c-0.58,1.08-0.83,2.33-1.36,3.43
	c-0.6,1.26-1.42,2.43-3.08,2.16c-1.7-0.28-2.19-1.73-2.03-3.07c0.24-2.05,0.92-4.05,1.38-6.07c0.24-1.06,0.51-2.13,0.61-3.2
	c0.13-1.38-0.73-1.99-1.99-2.12c-2.29,1.26-3.45,3.28-4.5,5.59c-1.62,3.57-3.52,7.03-5.52,10.41c-3.66,6.18-5.87,12.97-8.52,19.58
	c-0.9,2.24-2.16,4.48-3.77,6.25c-1.2,1.31-2.05,2.7-2.89,4.18c-2.24,3.96-4.7,7.8-6.73,11.86c-1.75,3.5-3.01,7.25-4.49,10.89
	c-0.28,0.68-0.48,1.39-0.81,2.04c-1.95,3.72-3,7.69-3.73,11.81c-0.38,2.14-1.41,4.16-2.12,6.24c-1.2,3.49-2.38,6.99-3.56,10.48
	c-1.58,4.65-3.07,9.33-4.79,13.93c-0.5,1.34-1.46,2.65-2.54,3.6c-0.78,0.69-2.1,0.76-3.14,1.1c-1.04-1.81-1.76-3.01-0.57-4.77
	c3.43-5.07,4.88-10.96,6.39-16.79c0.03-0.12,0-0.25,0.04-0.37c1.87-5.69,2.31-11.48,1.51-17.42c-0.16-1.21,0.4-2.63,0.95-3.81
	c1.5-3.23,3.41-6.28,4.69-9.59c1.32-3.42,2.06-7.07,3.12-10.6c1.32-4.39,3.07-8.55,6.03-12.15c0.92-1.11,1.5-2.51,2.22-3.79
	c4.34-7.7,8.49-15.51,13.08-23.06c2.79-4.59,6.25-8.77,9.41-13.13c1.15-1.58,2.31-3.16,3.65-4.99c-1.96-1.18-3.6-2.49-5.48-3.22
	c-3.79-1.48-6.61-4.19-9.58-6.78c-2.03-1.76-4.33-3.22-6.28-5.06c-6.67-6.3-9.51-14.24-9.1-23.26c0.12-2.62,1.06-5.33,2.16-7.76
	c1.89-4.14,4.12-8.04,4.6-12.76c0.25-2.48,1.54-4.91,2.62-7.23c2.99-6.44,6.78-12.25,13.25-15.82c1.02-0.57,1.77-1.66,2.58-2.58
	c0.57-0.64,0.93-1.48,1.54-2.07c1.47-1.44,3.18-1.18,3.73,0.8c0.99,3.55,2,7.17,0.57,10.88c-0.22,0.57-0.51,1.15-0.58,1.75
	c-0.58,5.39-1.12,10.78-1.67,16.18c-0.2,2.02-0.39,4.05-0.66,6.87c2.03-1.41,3.59-2.19,4.75-3.38c2.84-2.9,5.49-5.99,8.22-9
	c0.25-0.27,0.59-0.54,0.67-0.87c0.8-3.07,3.14-4.69,5.79-5.83c2.4-1.03,3.36-2.83,3.32-5.23c-0.11-7.28-0.24-14.56-0.47-21.84
	c-0.21-6.41-0.58-12.81-0.88-19.22c-0.04-0.93-0.13-1.86-0.25-3.56c-1.3,1.56-2.08,2.62-2.98,3.56c-1.62,1.7-3.56,1.22-4.18-1.05
	c-0.48-1.78-0.75-3.62-1.14-5.43c-0.58-2.64-1.45-5.24-1.73-7.91c-0.4-3.8,0.33-7.55,0.8-11.35c0.65-5.35,2.47-10.32,3.77-15.41
	c1.73-6.78,1.25-13.71,2.57-20.49c0.47-2.44,1.01-4.81,1.86-7.11c0.63-1.73,0.66-3.26-0.12-4.99c-0.74-1.66-0.97-3.54-1.58-5.26
	c-0.52-1.48-1.26-2.88-1.97-4.45c-8.66,0.05-17.07,0.58-25.19,3.51c-2.77,1-5.67,1.67-8.48,2.58c-4.12,1.32-8.04,3.04-11.66,6.28
	c1.16,0.38,2.01,0.78,2.89,0.93c6.19,1.08,12.4,2.05,18.59,3.17c3.18,0.58,5.23,2.73,6.51,5.55c1.53,3.34,2.99,6.73,4.22,10.18
	c0.65,1.82,0.87,3.83,1.1,5.77c0.33,2.81,0.28,5.67,0.77,8.45c0.55,3.14,1.41,6.23,2.34,9.28c1.03,3.35,1.52,6.72,1.36,10.2
	c-0.05,1.16-0.13,2.3-1.52,2.61c-1.31,0.3-1.94-0.58-2.67-1.51c-1.1-1.39-1.28-2.92-1.18-4.54c0.14-2.25-0.39-4.29-1.02-6.47
	c-1.02-3.51-1.38-7.25-1.73-10.92c-0.27-2.82-0.06-5.71-1.62-8.24c-0.9-1.45-2.02-2.75-2.93-4.19c-1.9-3-3.62-6.12-5.61-9.07
	c-2.34-3.47-5.51-3.85-9.28-1.17c0.31,0.59,0.5,1.34,0.98,1.8c2.9,2.83,4.26,6.56,6.04,10.05c0.27,0.53,0.37,1.18,0.39,1.79
	c0.26,6.89,0.73,13.79,0.6,20.68c-0.05,2.73-1.46,5.42-2.22,8.14c-0.35,1.27-0.7,2.56-0.92,3.86c-0.39,2.33-1.31,3.23-3.77,3.09
	c-1.38-0.08-2.67-0.31-3.79,0.91c0.35,1.13,0.72,2.29,1.06,3.45c0.03,0.1-0.05,0.23-0.08,0.35c-1.73-0.11-1.73-0.11-4.28-4.16
	c-2.18,0.42-3.8,1.97-5.62,3.13c-0.83,0.53-1.58,1.19-2.44,1.65c-2.07,1.1-3.7,1.13-4.97-0.64c-1.79-2.49-4.05-2.49-6.58-2.16
	c-12.04,1.56-24.14,1.54-36.24,1.29c-1.95-0.04-3.93-0.42-5.83-0.92c-4.17-1.09-8.34-2.21-12.41-3.61c-1.8-0.62-3.43-1.84-5.03-2.94
	c-2.9-1.98-3.38-5.25-3.85-8.32c-0.51-3.38-0.9-6.88-0.6-10.26c0.43-4.76,0.45-9.53,1.3-14.32c0.98-5.54,3.58-9.61,6.97-13.86
	c2.85-3.58,5.69-6.71,9.9-8.48c1.23-0.52,2.53-0.89,3.82-1.25c5.63-1.59,11.39-2.23,17.21-1.94c4.55,0.23,9.09,0.7,13.63,1.09
	c7.82,0.68,15.59,0.66,22.97-2.46c3.17-1.34,6.14-3.16,9.28-4.61c1.66-0.76,3.47-1.2,5.21-1.78c3.15-1.03,6.28-2.15,9.48-3.05
	c3.43-0.97,6.88-1.92,10.38-2.52c3.15-0.54,6.38-0.64,9.58-0.88c3.02-0.23,3.26-0.47,3.22-3.59c-0.06-5.12-0.97-9.92-4.11-14.22
	c-2.08-2.86-3.61-6.12-5.56-9.09c-1-1.52-2.16-3.16-3.65-4.1c-6.4-4.03-11.83-9.28-17.83-13.8c-5.31-4.01-10.91-7.63-16.42-11.38
	c-0.89-0.61-1.96-0.95-3.21-1.54c-0.38,2.25,0.65,3.74,1.54,5.3c0.82,1.45,1.48,2.97,2.45,4.94c-3.18-0.85-3.88-3.31-5.12-5.25
	c-1.24-1.94-2.5-3.88-3.98-6.16c-1.57,1.04-2.82,1.88-4.14,2.75c3.86,7.97,7.52,15.58,11.23,23.18c2.11,4.32,4.34,8.58,6.4,12.92
	c2.58,5.45,6.54,9.78,10.89,13.8c1.35,1.25,2.19,2.59,2.37,4.35c-2.5,1.64-2.76,1.69-4.33-0.01c-3.5-3.81-6.96-7.65-10.36-11.54
	c-0.95-1.09-1.56-2.46-2.42-3.63c-4.32-5.83-8.67-11.63-13-17.45c-2.21-2.97-4.27-6.02-5.35-9.62c-0.8-2.65-1.04-5.32-0.26-8.03
	c0.62-2.16,0.08-3.86-1.36-5.76c-2.57-3.41-4.7-7.17-6.8-10.91c-0.42-0.76-0.15-2.19,0.29-3.07c0.54-1.08,1.67-0.73,2.62-0.25
	c6.39,3.2,13.05,5.85,19.56,8.76c5.92,2.64,10.02,7.39,15.28,10.71c1.97,1.24,3.84,2.67,5.62,4.17c2.73,2.29,5.3,4.78,8.03,7.07
	c0.96,0.81,2.2,1.29,3.71,2.14c0.24-4.81-4.51-7.66-3.38-12.07c2.67-0.62,3.44-0.41,4.31,1.41c2.13,4.42,4.07,8.94,6.31,13.3
	c1.06,2.06,2.53,3.96,4.06,5.72c0.61,0.7,1.96,1.17,2.87,1.04c0.57-0.08,1.28-1.47,1.34-2.31c0.2-2.96,0.01-5.94,0.23-8.9
	c0.13-1.68,0.69-3.34,1.2-4.96c0.39-1.24,1.55-1.79,2.66-1.38c0.77,0.29,1.61,1.2,1.84,2.01c1.23,4.22,2.27,8.5,3.41,12.75
	c0.19,0.71,0.53,1.38,0.76,2.09c1.26,3.86,2.53,7.72,3.75,11.59c0.86,2.71,1.98,5.12,3.91,7.4c2.31,2.74,4.64,5.74,4.93,9.68
	c0.12,1.54,1.53,2.51,3.12,2.54c1.41,0.03,2.4-0.81,2.48-2.65c0.09-2.04,0.61-3.8,1.62-5.58c0.57-0.99,0.85-2.44,0.61-3.55
	c-0.85-3.94,0.37-7.58,1.35-11.23c1.05-3.9,2.46-7.71,3.5-11.62c0.56-2.13,0.71-4.37,1-6.56c0.61-4.74,1.24-9.48,1.74-14.23
	c0.33-3.18,0.51-6.39,0.64-9.59c0.28-6.53,0.59-13.06,0.69-19.6c0.14-9.39,0.11-18.79,0.15-28.19c0.02-6.31,0.01-12.61,0.07-18.92
	c0.02-1.9-0.18-3.57-1.58-5.12c-1.29-1.44-2.29-3.15-2.43-5.28c-0.07-1.05-0.74-2.08-1.22-3.08c-1.82-3.82-3.29-7.83-6.33-11.5
	c1.38-0.95,2.38-1.78,3.5-2.37c1.05-0.56,2.02-0.41,2.97,0.59c1.08,1.14,2.45,2.01,3.5,2.85c1.93-0.35,2.22-1.52,2.23-2.83
	c0.05-4.06,0.04-8.11,0.13-12.17c0.04-1.84,0.25-3.68,0.36-5.52c0.09-1.48,0.32-2.97,0.18-4.43c-0.33-3.68-0.99-7.33-1.21-11
	c-0.25-4.07-0.18-8.16-0.22-12.24c-0.05-5.43-0.01-10.85-0.12-16.28c-0.04-2.08-0.52-4.15-0.62-6.24
	c-0.36-7.58,1.2-14.97,2.44-22.38c1.52-9.1,3.26-18.17,4.76-27.27c0.74-4.49,1.02-9.05,1.78-13.54c0.43-2.53,1.44-4.95,2.11-7.44
	c2.1-7.72,4.32-15.42,6.17-23.2c1.05-4.4,2.44-8.78,2.22-13.45c-0.07-1.52,0.83-3.07,1.18-4.63c1.08-4.79,2.05-9.6,3.17-14.38
	c1.24-5.26,2.63-10.48,3.89-15.73c0.72-2.98,1.27-5.99,1.97-8.97c0.42-1.79,0.99-3.54,1.51-5.3c1.27-4.37,2.59-8.74,3.8-13.13
	c0.54-1.95,0.88-3.96,1.34-6.09c-2.27-0.2-2.73,1.3-3.35,2.35c-3.04,5.19-6.12,10.36-8.94,15.67c-1.77,3.34-3.23,6.87-4.61,10.4
	c-1.74,4.44-3.33,8.95-4.87,13.47c-0.95,2.78-1.95,5.59-2.4,8.47c-0.31,2.01-0.89,3.81-1.79,5.55c-1.11,2.15-1.51,4.4-1.5,6.79
	c0,1.21-0.39,2.42-0.5,3.64c-0.26,2.94-0.45,5.88-0.68,8.81c-0.09,1.1-0.1,2.23-0.38,3.29c-1.9,7.12-3.95,14.2-5.79,21.34
	c-1.62,6.29-3.03,12.64-4.54,18.96c-0.75,3.1-1.48,6.21-2.31,9.3c-2.23,8.23-3.46,16.63-4.33,25.08c-0.35,3.43-0.53,6.88-0.78,10.31
	c-0.05,0.62,0.13,1.39-0.18,1.82c-1.57,2.22-1.12,4.74-1.21,7.18c-0.28,7.4-0.25,14.82-0.83,22.2c-0.45,5.76-1.64,11.45-2.5,17.18
	c-0.15,0.97-0.36,1.94-0.52,2.91c-0.73,4.49-1.35,9-2.23,13.45c-0.47,2.4-1.74,4.66-2.04,7.06c-0.85,6.83-2.19,13.61-2.26,20.54
	c-0.01,1.18-0.34,2.45-0.87,3.5c-3.23,6.44-5.01,13.35-6.62,20.31c-0.86,3.7-1.86,7.38-2.55,11.11c-1,5.42-1.79,10.88-2.65,16.32
	c-0.63,4.01-1.44,8-1.77,12.04c-0.39,4.8-0.64,9.64-0.43,14.44c0.17,3.81-1.21,7.28-1.55,10.96c-0.15,1.62-1.45,2.51-3.14,2.61
	c-1.73,0.1-2.57-0.47-3.14-2.47c-0.44-1.53-0.63-3.14-0.97-4.71c-1.21-5.66-2.34-11.33-3.69-16.96c-1.01-4.18-2.11-8.36-3.54-12.41
	c-1.38-3.92-3.07-7.75-4.92-11.48c-1.74-3.51-2.32-7.23-2.82-11c-0.65-4.91-2.03-9.6-3.72-14.24c-2.26-6.21-5.17-12.23-6.45-18.74
	c-1.26-6.4-1.97-12.91-3.22-19.31c-0.97-4.94-2.42-9.8-3.64-14.69c-0.89-3.57-2.27-7.02-2.29-10.79c-0.01-1.21-0.38-2.42-0.64-3.63
	c-0.18-0.84-0.56-1.65-0.66-2.5c-0.61-5.13-0.98-10.31-1.81-15.4c-0.73-4.49-1.88-8.92-2.98-13.34c-0.8-3.21-1.82-6.37-2.75-9.54
	c-1.2-4.05-2.05-8.18-4.05-12.02c-2.14-4.11-3.73-8.51-5.52-12.8c-0.37-0.9-0.72-1.88-0.76-2.83c-0.06-1.74-0.58-3.11-2.1-4.07
	c-1.2-0.76-1.14-1.92-0.48-2.92c1.47-2.23,1.04-4.35,0.17-6.66c-0.45-1.2-0.87-2.96-0.31-3.86c0.99-1.6,0.35-2.73-0.01-4.14
	c-0.23-0.9-0.3-2.09,0.1-2.87c1.62-3.18,1.85-6.53,1.85-10c0-2.7,0.45-5.39,0.65-8.09c0.06-0.86,0.28-1.92-0.12-2.56
	c-1.56-2.5-1.18-5.38-1.76-9.01c-1.39,2.67-2.51,4.49-3.32,6.44c-1.88,4.54-3.64,9.12-5.37,13.71c-1.81,4.81-3.69,9.61-5.23,14.52
	c-1.99,6.32-3.87,12.7-5.39,19.15c-0.59,2.5-0.82,5.18,0.19,7.94c0.66,1.78,0.02,4.08-0.19,6.14c-0.17,1.57-0.75,3.11-0.86,4.68
	c-0.4,5.68,0.19,11.28,0.98,16.94c0.79,5.69,0.53,11.54-0.38,17.34c-0.7,4.48-0.62,9.09-0.73,13.65c-0.09,3.56,0.05,7.12,0.08,10.68
	c0,0.37,0,0.75-0.09,1.11c-1.35,5.41-0.34,11.06-1.56,16.46c-0.8,3.55-1.64,7.1-3.39,10.4c-2.92,5.53-5.61,11.17-8.37,16.78
	c-0.93,1.89-1.64,3.82-1.4,6.03c0.21,1.94-0.94,3.28-2.45,4.27c-1.3,0.86-2.93,0.6-4.09-0.43c-1.32-1.17-0.82-2.2-0.18-3.58
	c1.39-2.99,2.7-6.07,3.58-9.24c2.14-7.71,4.73-15.23,8.01-22.54c1.4-3.12,2.64-6.33,3.75-9.57c1.92-5.61,1.7-11.46,1.32-17.25
	c-0.12-1.78-1.1-3.51-1.66-5.26c-0.79-2.46-1.58-4.91-2.32-7.39c-0.17-0.58-0.2-1.24-0.12-1.84c0.62-5.24,1.32-10.46,1.9-15.7
	c0.34-3.05,0.49-6.12,0.79-9.17c0.5-5.02,1.19-10.03,1.56-15.06c0.25-3.43-0.13-6.91,0.17-10.33c0.22-2.54,1.03-5.03,1.68-7.51
	c1.33-5,2.65-10.01,4.13-14.97c1.69-5.64,3.57-11.21,5.33-16.83c0.29-0.93,0.47-1.91,0.52-2.88c0.2-4.06-0.08-8.16,1.46-12.07
	c0.3-0.77,0.22-1.71,0.2-2.57c-0.14-5.17-0.44-10.34-0.45-15.52c-0.01-3.69,0.47-7.38,0.49-11.06c0.02-3.82-0.38-7.65-0.37-11.48
	c0.01-2.82,0.08-5.71,0.67-8.44c1.09-5.04,2.51-10.02,3.94-14.98c0.91-3.18,2.1-6.27,3.12-9.42c1.98-6.18,3.96-12.35,5.86-18.55
	c0.68-2.21,1.14-4.48,1.66-6.74c0.43-1.87,1.53-3,3.38-3.41c1.36,0.7,1.8,1.9,1.71,3.13c-0.37,4.91-0.84,9.8-1.34,14.7
	c-0.2,1.95-0.59,3.89-0.8,5.84c-0.29,2.82-0.47,5.64-0.74,8.46c-0.86,8.85-1.58,17.7,0.49,26.5c0.3,1.28,0.4,2.61,0.65,4.33
	c2.04-1.56,2.92-3.4,3.96-5.11c1.08-1.78,2.02-3.65,3.21-5.35c0.72-1.02,1.87-1.69,3.23-1c1.08,0.55,1.28,1.86,0.69,3.25
	c-2.39,5.62-4.51,11.39-7.23,16.85c-1.47,2.94-1.16,5.56-0.69,8.52c1.13,7.18,1.9,14.41,3.02,21.6c0.91,5.88,0.84,11.79,0.88,17.69
	c0.07,11.01-0.08,22.01-0.19,33.02c-0.02,1.83-0.44,3.67-0.4,5.5c0.06,3.07,0.01,6.2,0.65,9.17c0.45,2.06,1.88,3.95,3.04,5.8
	c2.55,4.07,3.33,8.7,4.1,13.27c0.49,2.89,0.3,5.93,0.18,8.89c-0.14,3.49,0,6.9,0.95,10.29c0.33,1.17,0.43,2.44,0.43,3.66
	c-0.02,2.98-0.02,5.93,1.22,8.73c0.24,0.54,0.25,1.21,0.26,1.82c0.11,5.99,2.03,11.62,3.48,17.34c0.39,1.54,0.72,3.1,1.07,4.64
	c0.17,0.72,0.22,1.49,0.51,2.16c2.44,5.61,2.93,11.7,3.73,17.61c0.8,5.95,2.67,11.47,4.56,17.05c1.58,4.65,3.43,9.21,5.01,13.86
	c0.55,1.61,0.61,3.39,0.97,5.07c1.19,5.61,1.79,11.35,4.45,16.6c1.95,3.84,3.58,7.83,5.33,11.77c0.25,0.55,0.43,1.15,0.51,1.75
	c0.18,1.34,0.06,2.76,0.43,4.04c1.34,4.6,2.84,9.16,4.54,14.55c0.47-1.64,0.87-2.49,0.94-3.37c0.29-3.93,0.68-7.82,1.31-11.73
	c0.61-3.74,1.03-7.55,1.74-11.3c1.48-7.87,2.74-15.79,4.5-23.59c1.54-6.84,3.08-13.74,5.95-20.17c1.67-3.76,1.38-7.73,2.17-11.57
	c0.84-4.1,1.29-8.28,1.81-12.43c0.79-6.24,2.57-12.26,3.87-18.38c1.1-5.17,1.39-10.53,2.68-15.65c1.69-6.72,1.06-13.5,1.45-20.26
	c0.32-5.41,0.99-10.8,1.3-16.21c0.25-4.3,0.6-8.54,1.3-12.83c1.1-6.79,2.07-13.61,3.26-20.4c0.68-3.88,1.82-7.67,2.5-11.55
	c1.48-8.38,4.21-16.45,6.11-24.73c1.63-7.05,3.44-14.06,5-21.13c0.61-2.75,0.96-5.6,1.09-8.41c0.26-5.86,1.99-11.36,3.72-16.88
	c0.29-0.93,0.61-1.87,0.83-2.82c0.73-3.08,1.1-6.28,2.18-9.22c2.4-6.52,5.12-12.92,7.75-19.36c2.42-5.92,5.67-11.42,8.93-16.88
	c2.89-4.83,6.28-9.35,9.15-14.19c3.39-5.71,6.52-11.59,9.63-17.46c1.76-3.32,2.19-4.04,5.08-5.97c0.53,0.54,1.35,1.02,1.61,1.71
	c0.28,0.74,0.28,1.78-0.03,2.5c-0.96,2.24-2.17,4.36-3.2,6.58c-1.59,3.44-3.19,6.89-4.62,10.4c-1.71,4.19-3.41,8.41-4.83,12.7
	c-1.27,3.85-2.16,7.82-3.23,11.73c-0.68,2.49-1.46,4.95-2.08,7.45c-1.88,7.51-3.68,15.04-5.56,22.56c-0.68,2.72-1.63,5.39-2.24,8.12
	c-1.62,7.21-3.45,14.4-4.6,21.69c-1.66,10.51-4.81,20.61-7.54,30.84c-2.51,9.37-4.53,18.85-5.02,28.6
	c-0.14,2.68-0.93,5.33-1.44,7.99c-0.87,4.58-1.88,9.14-2.61,13.74c-1.08,6.8-1.97,13.63-2.91,20.45c-0.06,0.47,0.05,0.99,0.19,1.45
	c1.15,3.61,0.89,7.32,0.89,11.03c-0.01,7.42,0.06,14.84,0.13,22.26c0.01,1.23,0.04,2.51,0.38,3.67c1.13,3.86,1.13,7.81,1.06,11.75
	c-0.13,6.42-0.31,12.83-0.69,19.24c-0.23,3.89,0,7.25,4.02,9.4c2.46,1.32,4.62,3.22,6.85,4.95c1.52,1.18,2.92,2.51,4.51,3.88
	c-1.55,1.62-3,1.11-3.77,0.08c-2.8-3.77-7.17-4.85-11.37-7.25c-0.34,1.28-0.84,2.28-0.84,3.28c0,2.59,0.21,5.17,0.34,7.76
	c0.03,0.61,0.19,1.24,0.14,1.84c-1.33,14.44-0.27,28.9-0.52,43.35c-0.11,5.93,0,11.87-0.26,17.8c-0.32,7.26-0.77,14.53-1.44,21.76
	c-0.55,5.99-1.25,12-2.37,17.9c-0.82,4.33-2.3,8.55-3.73,12.73c-0.86,2.51-1.29,5.03-1.21,7.63c0.13,4.19,0.34,8.38,0.6,12.57
	c0.15,2.39,1.37,3.79,3.9,4.16c1.75,0.26,3.44,1.01,5.37,1.6c0.4-1.7,0.62-3.02,1.01-4.29c0.88-2.81,2.17-3.2,4.59-1.45
	c0.39,0.28,0.75,0.6,1.51,1.21c0.78-2.04,1.77-3.79,2.09-5.65c1.08-6.35,3.36-12.32,5.46-18.36c2.33-6.72,4.42-13.52,6.69-20.26
	c2.6-7.68,5.33-15.3,7.93-22.98c2.16-6.39,4.33-12.78,6.25-19.24c0.97-3.26,1.34-6.69,2.1-10.01c0.3-1.29,1.08-2.48,1.38-3.77
	c1.42-6.12,2.82-12.25,4.08-18.4c0.79-3.86,1.24-7.78,1.94-11.65c0.39-2.18,0.96-4.33,1.48-6.48c1.39-5.84,2.88-11.66,4.17-17.52
	c0.73-3.36,0.94-6.83,1.74-10.17c1.66-6.94,3.77-13.78,5.29-20.75c0.99-4.56,3.23-8.69,3.86-13.4c0.5-3.73,2.15-7.3,3.27-10.95
	c1.33-4.32,2.58-8.67,4.01-12.95c0.98-2.92,2.24-5.74,3.32-8.62c2.25-5.98,4.68-11.91,6.63-17.99c1.23-3.83,1.81-7.89,2.55-11.87
	c0.85-4.6,1.36-9.27,2.39-13.82c0.89-3.92,2.19-7.77,3.53-11.58c2.19-6.23,4.38-12.46,6.91-18.56c1.83-4.41,4.19-8.61,6.36-12.89
	c3.01-5.93,6.02-11.86,9.09-17.77c1.25-2.41,2.88-4.64,3.93-7.12c1.8-4.24,4.87-7.61,7.25-11.45c4.61-7.43,8.97-15.03,13.89-22.25
	c5.6-8.21,11.9-15.94,17.52-24.14c4.47-6.52,9.87-12.24,14.77-18.38c3.19-4,7.13-7.41,10.69-11.12c2.47-2.57,4.91-5.18,7.28-7.83
	c2.62-2.93,5.16-5.94,7.74-8.92c1.24,0,2.47,0,3.71,0c-0.32,1.01-0.45,2.13-1,2.99c-0.92,1.44-2.11,2.71-3.19,4.04
	c-1.84,2.27-3.62,4.58-5.54,6.78c-3.15,3.6-6.33,7.15-8.6,11.43c-1.38,2.6-2.65,5.4-4.6,7.53c-4.08,4.44-6.26,10.01-9.51,14.93
	c-1.39,2.1-2.03,4.72-2.9,7.14c-0.21,0.59,0.04,1.33,0.12,2.82c1.46-1.37,2.48-2.2,3.32-3.18c0.62-0.72,0.9-1.75,1.53-2.46
	c2.29-2.56,4.59-5.13,7.05-7.53c2.65-2.58,5.44-5.01,8.24-7.42c1.23-1.06,2.63-1.83,4.45-0.98c0.29,1.52,0.65,2.84-0.78,4.08
	c-1.28,1.11-2.32,2.48-3.42,3.78c-4.29,5.07-8.56,10.16-12.83,15.25c-0.08,0.09-0.16,0.19-0.26,0.26c-3.15,2.25-5.24,5.51-7.76,8.34
	c-0.52,0.59-0.85,1.34-1.66,2.65c1.23-0.37,1.81-0.46,2.3-0.7c7.66-3.79,15.73-6.5,23.88-8.99c0.71-0.22,1.41-0.44,2.14-0.58
	c3.86-0.75,7.73-1.41,11.57-2.23c3.85-0.81,7.65-1.89,11.52-2.63c6.16-1.18,12.33-2.81,18.55-3.11c8.09-0.4,16.3-0.24,24.35,0.69
	c8.58,1,17.14,1.86,25.76,1.92c2.95,0.02,5.9-0.6,8.85-0.56c5.92,0.08,11.84,0.31,17.74,0.69c3.68,0.24,7.33,0.87,11,1.3
	c2.32,0.27,4.73,0.97,6.97,0.64c4.63-0.69,8.66,0.95,12.78,2.41c2.9,1.03,5.77,2.1,8.25,4.05c0.95,0.75,2.15,1.27,3.31,1.64
	c6.19,1.98,12.28,4.27,18.63,5.72c2.4,0.55,4.84,1.08,7.11,1.99c6.51,2.61,11.6,7.25,16.79,11.81c3.22,2.83,6.56,5.63,10.2,7.85
	c6.45,3.93,12.42,8.38,17.89,13.59c3.33,3.17,5.85,6.95,8.59,10.57C880.27,119.62,880.27,122.34,880.27,125.06z M351.41,467.46
	c-1.84-0.13-3.02-0.24-4.2-0.29c-1.36-0.06-2.72-0.01-4.08-0.11c-5.53-0.41-11.05-0.85-16.57-1.31c-5.63-0.48-11.03,0.88-16.49,1.89
	c-2.52,0.47-4.68,1.64-6.35,3.53c-1.7,1.93-3.08,4.16-4.82,6.05c-2.34,2.55-5.01,4.84-4.46,8.82c0.03,0.22-0.19,0.45-0.24,0.69
	c-0.36,1.92-0.78,3.83-1.04,5.76c-0.26,1.95-0.38,3.92-0.51,5.88c-0.09,1.35-0.16,2.72-0.08,4.07c0.15,2.7,0.6,5.4,0.57,8.09
	c-0.03,3.66,1.64,6.13,4.76,7.65c5.49,2.67,11.37,4.11,17.39,4.69c4.62,0.45,9.3,0.55,13.95,0.47c5.91-0.11,11.82-0.52,17.73-0.9
	c1.79-0.12,3.56-0.59,5.44-0.91c0.61-6.93-2.94-11.55-7.16-15.82c-0.44-0.45-1.35-0.59-2.05-0.61c-1.65-0.04-2.37-1-2.91-2.38
	c-1.14-2.89-1.56-5.76-1.36-8.96c0.46-7.59,2.5-14.48,7.21-20.48C347.57,471.46,349.24,469.84,351.41,467.46z M394.62,572.27
	c-3.56,0.98-6.47,3-8.34,5.87c-2.47,3.78-4.31,7.98-6.38,12.01c-0.27,0.53-0.39,1.19-0.41,1.79c-0.11,4.35-2,8.1-4.1,11.73
	c-4.5,7.76-2.93,18.9,2.22,25.4c2.71,3.42,6.23,5.89,9.45,8.72c3.13,2.75,6.65,4.63,10.22,6.53c1.11,0.59,2.46,0.72,4.28,1.21
	c-0.09-2.03,0.17-3.57-0.29-4.85c-1.38-3.89-3.04-7.69-4.83-12.1c-1.11,1.71-1.79,2.85-2.55,3.92c-0.65,0.93-1.45,1.8-2.74,1.46
	c-1.34-0.35-1.54-1.53-1.5-2.67c0.07-1.97,0.05-3.97,0.46-5.88c1-4.63,1.88-9.17-0.04-13.82c-0.34-0.83,0.21-2.09,0.51-3.1
	c0.61-2.12,1.67-4.17,1.92-6.31c0.73-6.36,1.11-12.77,1.72-19.15c0.17-1.8,0.66-3.57,1.02-5.35
	C395.61,575.83,395.79,574.03,394.62,572.27z M639.87,543.88c-0.31,0.05-0.62,0.09-0.92,0.14c-0.22,0.78-0.59,1.55-0.63,2.34
	c-0.25,5.13-0.44,10.27-0.63,15.4c-0.02,0.49,0.03,0.99,0.15,1.47c0.72,2.99,1.42,5.99,2.21,8.96c0.86,3.22,2.58,4.53,5.96,4.06
	c5.07-0.7,9.87-2.2,13.63-6c1.56-1.58,3.01-3.33,4.79-4.63c5.43-3.97,4.47-9.43,4.09-15.57c-3.69,3.48-7.25,6.07-9.94,9.63
	c-1.56,2.07-2.73,2.25-5.1,1.27c-2.29-0.94-3.65-2.76-3.89-5.01c-0.27-2.54-0.13-5.19,0.28-7.72c0.66-4.08,1.77-8.08,2.56-12.14
	c0.67-3.42,1.7-6.67,3.54-9.65c0.57-0.91,1.03-1.89,1.88-3.45c-4.1-0.1-7.09-3.06-11.19-1.98c-1.3,4.07-1.09,8.16-1.02,12.18
	c0.08,4.18,0.58,8.34,0.89,12.52c0.1,1.38-0.35,2.51-1.77,2.86c-1.41,0.35-2.29-0.49-2.97-1.64
	C641.18,545.88,640.51,544.89,639.87,543.88z M425.3,453.6c-1.07,3.65-2.07,7.56-3.36,11.37c-2.33,6.91-4.4,13.84-4.02,21.26
	c0.05,1.09-0.24,2.2-0.4,3.29c-1,6.81-4.31,13.14-4.2,20.18c0,0.24-0.04,0.51-0.16,0.71c-1.92,3.2-1.27,6.72-1.03,10.1
	c0.18,2.51,0.72,5.06,2.26,7.39c2.24-1.23,3.55-2.82,3.53-5.3c-0.04-5.28-0.64-10.58,0.57-15.82c0.05-0.23-0.05-0.49-0.02-0.74
	c0.27-2.55,0.52-5.09,0.82-7.64c0.18-1.53,1.31-2.13,2.62-2.01c1.18,0.11,1.96,0.96,1.96,2.3c0,1.36-0.02,2.72,0.05,4.07
	c0.06,1.1,0.56,1.87,2.09,1.67c0.74-2.88,1.47-5.83,2.25-8.77c0.44-1.66,1.15-3.26,1.4-4.94c0.58-3.87,1.02-7.76,1.37-11.65
	c0.41-4.53,0.57-9.08,1.04-13.61c0.23-2.18,0.72-4.38,1.45-6.44c0.76-2.18,0.93-4.25,0.42-6.18
	C430.82,450.74,428.31,452.42,425.3,453.6z M424.52,576.28c3.18,0.02,5.86-1.15,8.39-2.75c0.48-0.31,1.02-0.81,1.17-1.32
	c0.65-2.21,1.28-4.43,1.7-6.69c0.75-4.11,1.52-8.22,1.92-12.37c0.18-1.87-0.31-3.9-0.89-5.73c-0.66-2.09-1.82-4.01-2.63-6.06
	c-2.52-6.39-4.96-12.8-7.46-19.19c-0.29-0.75-0.82-1.4-1.51-2.55c-1.81,2.3-2.85,4.37-2.8,6.94c0.06,2.84,0.17,5.67,0.1,8.51
	c-0.19,7.77,0.43,15.48,1.11,23.21c0.37,4.25-0.17,8.58-0.34,12.88C423.2,572.87,422.91,574.6,424.52,576.28z M348.03,59.4
	c-0.37-0.05-0.75-0.09-1.12-0.14c-1.6,4.75-3.27,9.48-4.76,14.26c-0.76,2.44-0.95,5.08-1.87,7.46c-1.26,3.28-1.68,6.66-1.74,10.08
	c-0.05,2.93,0.57,5.87,0.58,8.81c0.01,4.43-0.46,8.86-0.38,13.28c0.09,5.01,0.55,10.02,0.88,15.03c0.01,0.12,0.39,0.21,1.02,0.53
	c1.65-2.77,3.45-5.5,4.76-8.51c0.58-1.33,0.84-2.8,1.19-4.22c0.41-1.66,0.51-3.44,1.19-4.97c2.31-5.19,2.27-10.59,1.53-15.99
	c-0.67-4.88-1.46-9.72-1.33-14.68c0.14-5.43,0.14-10.86,0.17-16.29C348.15,62.51,348.07,60.95,348.03,59.4z M405.12,623.77
	c2.45-1.36,3.23-3.15,3.16-5.42c-0.04-1.23-0.13-2.47-0.03-3.7c0.2-2.65,1.49-3.27,3.6-1.74c0.88,0.63,1.65,1.42,2.59,2.24
	c1.46-2.8,2.99-5.55,4.32-8.39c0.56-1.2,0.91-2.56,1.05-3.88c0.2-1.93,0.16-3.88,0.18-5.83c0.01-1.11-0.1-2.21-0.11-3.32
	c-0.03-1.7-0.19-3.42,0.02-5.09c0.2-1.55-0.19-2.59-1.51-3.41c-2.31,0.83-3.62,2.58-4.81,4.46c-2.84,4.5-6.33,8.48-10.41,11.85
	c-1.96,1.62-4.04,2.93-5.57,5.14c-1.82,2.65-2.28,3.13-0.52,5.76C399.6,616.23,402.32,619.86,405.12,623.77z M453.56,455.97
	c-2.24-0.64-4.21-1.32-6.22-1.76c-2.04-0.45-2.69,0.12-2.68,2.31c0.01,1.84,0.2,3.68,0.41,5.52c0.53,4.51,1.42,9,1.61,13.52
	c0.18,4.27-0.3,8.58-0.6,12.87c-0.3,4.36-0.81,8.71-1.08,13.08c-0.21,3.44-0.28,6.9-0.25,10.35c0.02,1.93,0.49,3.81,1.97,5.69
	c0.76-2.27,1.44-4.17,2.03-6.1c0.89-2.93,1.98-5.84,2.5-8.84c1.02-5.92,1.74-11.88,2.49-17.84c0.27-2.17,0.35-4.38,0.32-6.56
	c-0.05-3.19-0.73-6.43-0.31-9.54C454.33,464.42,453.12,460.37,453.56,455.97z M434.14,492.47c-2.02,1.44-2.24,3.44-2.67,5.34
	c-0.38,1.68-0.66,3.38-1.06,5.05c-0.76,3.1-1.62,6.18-2.36,9.29c-0.16,0.67-0.14,1.46,0.05,2.12c0.62,2.1,1.32,4.17,2.05,6.24
	c1.88,5.28,3.69,10.58,5.75,15.78c0.67,1.69,0.97,3.75,2.74,5.04c1.41-1.75,1.33-3.6,1.43-5.42c0.14-2.45,0.05-4.97,0.61-7.32
	c1.22-5.16,1.2-10.21-0.09-15.33c-0.81-3.2-1.11-6.54-2.11-9.67C437.32,499.91,437.27,495.76,434.14,492.47z M369.86,500.19
	c-1.93,0.07-2.9,1.49-4.09,2.74c-1.94,2.05-4.1,1.95-6.05-0.1c-0.66-0.69-1.26-1.43-1.48-1.69c-2.31,0.19-4.09,0.36-5.88,0.47
	c-1.95,0.13-3.04-2.43-5.65-1.84c0.66,0.99,1.1,1.68,1.58,2.35c3.44,4.85,7.79,9.17,8.25,15.67c0.15,2.1,1.45,2.89,3.67,2.77
	c2.32-0.13,4.67-0.41,6.9-1.01c3.14-0.84,4.62-3.05,4.64-6.29C371.77,508.84,371.46,504.46,369.86,500.19z M457.08,494.7
	c-0.75,2.04-1.63,3.59-1.82,5.22c-0.23,1.98-1.67,2.94-2.64,4.31c-0.31,0.44-0.4,1.17-0.33,1.73c0.59,4.67-1.36,8.94-2.44,13.25
	c-1.02,4.11-1.06,8.05-0.39,12.01c0.46,2.74,1.78,5.34,2.77,7.98c0.28,0.74,0.78,1.4,1.24,2.21c0.51-0.42,0.97-0.6,1.02-0.87
	c0.59-3.12,2.25-5.99,2.05-9.31c-0.07-1.2,0.3-2.43,0.49-3.64c0.32-2.06,0.61-4.13,0.98-6.18c0.26-1.43,0.52-2.87,0.95-4.25
	c0.77-2.45,1.78-4.75,2.06-7.41c0.46-4.44-1.77-8.08-2.74-12.09C458.06,496.78,457.59,495.95,457.08,494.7z M354.62,188.63
	c0.51-1.11,0.75-1.41,0.77-1.73c0.29-4.8,0.81-9.6,0.77-14.4c-0.08-9.85,0.48-19.69-0.31-29.58c-0.52-6.48-1.26-12.94-1.73-19.43
	c-0.17-2.3-1.12-4.33-2.11-6.59c-2.25,2.99-2.7,5.99-2.23,9.1c0.49,3.27,0.94,6.61,1.96,9.73c0.81,2.47,0.79,4.83,0.62,7.28
	c-0.14,1.96-0.43,3.91-0.54,5.88c-0.15,2.74,0.78,5.53-0.65,8.21c-0.36,0.68-0.07,1.7-0.11,2.57c-0.06,1.23-0.21,2.46-0.23,3.69
	c-0.08,4.15-0.43,8.33-0.09,12.45c0.27,3.27,1.36,6.49,2.2,9.7C353.16,186.41,353.81,187.19,354.62,188.63z M528.35,657.21
	c-0.97-0.27-1.74-0.63-2.53-0.69c-3.8-0.29-7.33,0.67-10.63,2.51c-3.34,1.85-7,3.23-9.89,6.17c0.54,0.46,0.85,0.94,1.26,1.05
	c3.43,0.94,6.86,1.89,10.33,2.67c0.76,0.17,1.75-0.1,2.48-0.48c3.6-1.85,6.06-4.92,8.23-8.21
	C528.1,659.49,528.08,658.4,528.35,657.21z M440.72,493.65c2.76-7.01,2.05-25.2-1.08-37.51c-2.17,4.32-2.34,5.23-2.5,10.21
	c-0.08,2.45-0.38,4.88-0.58,7.33c-0.2,2.44-0.67,4.89-0.52,7.31C436.3,485.38,438.82,489,440.72,493.65z M535.57,442.24
	c0.27-0.01,0.54-0.02,0.82-0.03c0.54-1.5,1.46-2.98,1.54-4.5c0.2-4.02,1.69-7.66,2.69-11.46c0.51-1.94,0.81-4.39,0.06-6.13
	c-1.87-4.35-5.73-6.98-10.11-10.1c0.3,1.9,0.4,2.99,0.66,4.04c1.25,5.12,2.74,10.18,2.65,15.55c-0.05,2.7,0.26,5.41,0.58,8.1
	C534.64,439.24,535.19,440.73,535.57,442.24z M549.05,646.18c-0.67-12.04-3.82-23.27-4.29-34.8c-0.02-0.6-0.23-1.21-0.43-1.79
	c-0.11-0.32-0.39-0.57-0.78-1.12c-1.73,4.71-1.64,9.28-1.39,13.96c0.25,4.65,0.02,9.34-0.2,14c-0.16,3.28-1.07,6.56,0.45,10.32
	C544.18,643.51,546.48,644.57,549.05,646.18z M375.7,518.37c2.32,1.05,3.09-0.24,3.58-1.69c1.14-3.37,2.32-6.67,2.24-10.39
	c-0.13-5.91,0.5-11.85-0.73-17.71c-1.05-5.02-3.75-8.93-8.39-11.93c-0.99,1.38-1.79,2.49-2.54,3.54c0.51,0.63,0.68,1.01,0.98,1.19
	c4.54,2.78,6.05,7.3,6.9,12.13c0.36,2.05,0.24,4.19,0.5,6.26c0.49,3.81,0.8,7.61-0.27,11.37
	C377.3,513.46,376.52,515.76,375.7,518.37z M560.07,507.18c10.75-4.16,19.49-10.31,28.75-15.47c1.13-0.63,2.14-1.49,3.6-2.53
	C577.92,488.36,565.19,499.06,560.07,507.18z M655.74,516.46c2.41,2,3.73,2.44,5.9,1.67c2.14-0.76,3.72-0.24,5.52,0.89
	c1.52,0.96,3.3,1.68,5.06,2.07c3.27,0.72,6.45,1.56,9.34,3.32c2.06,1.25,4.28,1.72,6.98,1.02c-0.53-0.58-0.86-1.11-1.33-1.41
	c-4.98-3.17-9.95-6.36-15-9.41c-0.87-0.53-2.16-0.77-3.16-0.61C664.58,514.71,660.17,515.62,655.74,516.46z M776.85,580.65
	c-0.36-14.46-7.83-24.87-18.94-27.64c0.13,0.54,0.11,1.07,0.36,1.37c1.22,1.52,2.56,2.94,3.77,4.46c3.19,4.04,6.47,8.03,9.46,12.22
	c1.81,2.53,4.35,4.75,4.38,8.28C775.89,579.78,776.51,580.21,776.85,580.65z M420.26,639.87c-0.89,1.91-1.79,3.27-2.14,4.76
	c-0.29,1.25-0.3,2.8,0.19,3.94c0.95,2.23,2.22,4.37,3.61,6.37c0.64,0.91,1.87,1.93,2.85,1.95c1.79,0.04,3.79,1.7,5.73-0.53
	C427.53,650.85,424.68,645.25,420.26,639.87z M448.22,557.2c1.53-2.26,2.1-4.24,1.63-6.58c-0.46-2.28-0.47-4.64-0.91-6.92
	c-0.47-2.45-1.01-4.93-2.77-7.46c-0.57,1.29-1.1,2.11-1.3,3.01c-0.58,2.5-0.99,5.04-1.52,7.55c-0.75,3.53,0.42,6.56,2.5,9.27
	C446.32,556.69,447.42,556.84,448.22,557.2z M654.21,555.81c1.67,0.9,2.46-0.13,3.35-0.99c3.45-3.31,6.92-6.6,10.36-9.92
	c1.06-1.02,2.11-2.08,3.03-3.23c1.29-1.6,1.08-2.14-1.16-3.66c-0.36,0.26-0.85,0.46-1.14,0.82c-3.52,4.48-7.69,8.25-12.6,11.16
	C653.72,551.39,653.43,553.31,654.21,555.81z M488.05,674.03c-0.68-2.29-2.34-3.25-4.18-3.35c-4.21-0.24-8.31,0.44-12.22,2.29
	c0.62,1.18,1.12,2.16,1.71,3.28C478.22,675.51,483.05,674.78,488.05,674.03z M453.58,672.36c0,1.7-0.17,3.18,0.08,4.58
	c0.11,0.63,1.01,1.53,1.62,1.6c3.91,0.4,7.73,0.03,11.48-1.92C463.23,674.47,457.42,672.55,453.58,672.36z M663.55,524.26
	c-2.37,2.02-4.38,3.9-5.16,7.23c0.76-0.25,1.17-0.43,1.59-0.51c2.2-0.41,3.05,0.31,2.79,2.43c-0.1,0.85-0.53,1.67-0.55,2.51
	c-0.01,0.59,0.42,1.18,0.81,2.15c1.95-2.1,4.48-3.95,3.8-6.28C666.11,529.36,667,525.94,663.55,524.26z M354.85,472.18
	c0.9,0,1.43,0.16,1.81-0.03c2.21-1.06,4.04-0.33,5.79,1.04c1.06,0.83,2.06,1.85,3.27,2.34c0.71,0.29,2.1,0.03,2.59-0.51
	c0.47-0.51,0.49-1.88,0.14-2.59c-0.46-0.94-1.42-1.67-2.24-2.41C362.51,466.67,357.98,467.38,354.85,472.18z M424,593.69
	c0.32,0.06,0.64,0.12,0.96,0.18c2.84-4.07,4.88-8.44,4.96-13.96c-1.81,0.8-3.43,1.37-4.88,2.23c-0.61,0.36-1.19,1.33-1.21,2.03
	C423.78,587.35,423.93,590.52,424,593.69z M661.22,510.73c-2.85-1.91-5.46-3.05-8.57-2.82c-2.54,0.19-3.48,0.92-4.65,4.22
	C652.57,513.76,656.71,512.48,661.22,510.73z M414.47,429.95c-0.07,3.65,2.55,8,6.07,10.07
	C421.18,435.15,419.02,431.57,414.47,429.95z M345.73,491.01c3.95-4.03,6.58-9.83,6.3-13.89
	C347.81,481.21,347.52,486.46,345.73,491.01z M363,498.39c1.92-1.52,3.1-4.03,3.01-6.11c-0.07-1.56-0.56-2.86-2.19-3.41
	C361.54,490.88,361.31,493.37,363,498.39z M472.47,666.67c-3.5-1.27-7.02-2.03-10.49,0.31C465.45,669.41,468.95,667.8,472.47,666.67
	z M443.49,670.56c-0.41,4.39,0.91,6.11,4.55,6.29c-0.22-1.93-0.45-3.82-0.7-6C446.06,670.76,444.9,670.67,443.49,670.56z
	 M353.78,496.51c2.43-2.33,2.14-4.89,1.21-7.72C352.19,490.47,351.89,492.55,353.78,496.51z M416.39,423.57
	c-0.26-2.62-1.14-4.64-2.65-6.72c-1.44,1.81-1.19,3.45-0.58,5.1C413.65,423.28,414.67,423.76,416.39,423.57z M441.84,567.37
	c3.61-4.55,3.62-5.1,0.37-7C441.33,562.53,441.52,564.66,441.84,567.37z"/>
<path d="M281.34,0.38c0.89,1.54,1.78,3.07,2.65,4.59c-1.16,0.29-2.24,0.62-3.35,0.83c-0.54,0.1-1.16,0.1-1.67-0.07
	c-1.01-0.33-1.96-0.85-2.95-1.23c-2.28-0.87-2.92-0.53-4.03,2.24c-1.33-1.18-1.85-3.28-4.07-3.37c-0.27-0.01-0.46-1.94-0.68-2.98
	C271.94,0.38,276.64,0.38,281.34,0.38z"/>
<path d="M875.08,784.85c0.98-3.65,1.93-7.32,2.94-10.96c0.71-2.54,1.5-5.06,2.25-7.59c0,6.18,0,12.37,0,18.55
	C878.54,784.85,876.81,784.85,875.08,784.85z"/>
<path d="M469.85,0.38c-0.6,2.21-1.3,2.9-2.97,2.9c-1.66,0-2.39-0.71-2.96-2.9C465.89,0.38,467.87,0.38,469.85,0.38z"/>
<path d="M426.5,756.61c-0.25,1.82,2.01,3.04,0.04,4.13c-1.59,0.89-2.49-0.57-3.39-1.49c-2.77-2.8-5.54-5.61-8.19-8.52
	c-1.15-1.26-2.53-1.32-4.01-1.47c-1.58-0.15-3.22-0.22-4.69-0.75c-2.08-0.75-2.77-2.32-2.21-4.05c0.58-1.79,2.04-2.78,4-2.53
	c3.36,0.41,6.74,0.77,10.05,1.43c2.51,0.5,4.91,1.51,7.4,2.16c3.8,0.99,7.59,2.22,11.46,2.71c4.99,0.64,10.05,0.87,15.09,0.89
	c6.66,0.03,13.29,0.23,19.87,1.34c0.73,0.12,1.48,0.22,2.15,0.48c1.31,0.5,1.96,1.5,1.66,2.92c-0.31,1.43-1.4,2.01-2.73,1.99
	c-0.84-0.01-1.67-0.41-2.52-0.51c-0.85-0.1-1.87-0.33-2.56,0.01c-4.27,2.11-8.7,0.27-13.03,0.64c-4.16,0.36-8.36,0.29-12.49,0.84
	c-3.6,0.48-7.09-0.5-10.65-0.24C430.06,756.72,428.34,756.61,426.5,756.61z"/>
<path d="M408.17,760.88c-2.72,3.14-5.33,2.59-7.81,2.13c-2.08-0.38-4.11-0.7-6.09-0.13c-0.46,1.26-0.71,2.43-1.31,3.38
	c-0.27,0.43-1.3,0.65-1.89,0.52c-0.4-0.08-0.86-0.91-0.91-1.44c-0.44-4.37,2.56-6.87,6.95-6.08c2.28,0.41,4.62,0.41,6.92,0.7
	C405.18,760.09,406.3,760.45,408.17,760.88z"/>
<path d="M382.14,751.58c-1.09-1.6-2.29-2.97-3.05-4.55c-1.48-3.09-2.89-6.23-3.98-9.47c-0.66-1.98-0.62-4.08,1.61-5.53
	c0.81-0.52,1.2-1.69,2.37-2.37c-0.12,0.72-0.11,1.5-0.39,2.15c-1.35,3.13-1.4,6.24,0.18,9.25c1.18,2.26,2.51,4.46,3.97,6.55
	C383.87,749.06,384.03,750.15,382.14,751.58z"/>
</svg>
