<?xml version="1.0" encoding="utf-8"?>
<!-- Generator: Adobe Illustrator 24.1.0, SVG Export Plug-In . SVG Version: 6.00 Build 0)  -->
<svg version="1.1" id="Layer_1" xmlns="http://www.w3.org/2000/svg" xmlns:xlink="http://www.w3.org/1999/xlink" x="0px" y="0px"
	 viewBox="0 0 1224 792" style="enable-background:new 0 0 1224 792;" xml:space="preserve">
<path d="M502.9,429.14c-0.54,1.2-1.12,1.97-1.21,2.79c-0.36,3.15-0.68,6.3-0.81,9.47c-0.16,3.84-0.6,7.6-1.22,11.42
	c-0.87,5.36-0.23,10.98-0.2,16.48c0.01,0.95,0.45,1.96,0.26,2.84c-1.19,5.41,0.3,10.68,0.7,16c0.15,2.04-0.13,4.13,0.17,6.14
	c1.71,11.73,2.55,23.51,2.83,35.37c0.12,5.03,1.39,10.07,2.4,15.05c1.71,8.45,1.49,16.99,1.74,25.54
	c0.28,9.35,1.08,18.68,1.76,28.01c0.11,1.47,0.91,2.87,1.27,4.34c0.72,2.91-0.39,5.61-2.32,5.86c-1.91,0.24-3.76-2.07-4.45-4.56
	c-1.2-4.35-2.62-8.66-4.28-12.86c-1.61-4.09-3.78-7.95-5.43-12.03c-0.86-2.13-1.33-4.48-1.63-6.77c-0.68-5.32-1.05-10.68-1.74-16
	c-0.24-1.83-1.05-3.59-1.61-5.39c-0.35,0-0.7-0.01-1.05-0.01c-0.17,1.06-0.48,2.13-0.48,3.19c-0.05,8.7,0.4,17.42-0.2,26.08
	c-0.53,7.6,0.94,15.04,0.73,22.59c-0.11,4.08,1.22,8.19,1.07,12.27c-0.35,9.9-0.16,19.99-2.1,29.62c-1.8,8.92,0.35,17.25,0.73,25.83
	c0.19,4.22,0.96,8.4,1.32,12.62c0.1,1.19-0.11,2.49-0.5,3.63c-0.6,1.75-1.72,3.66-3.77,3.07c-1.49-0.42-3.51-1.92-3.76-3.23
	c-0.82-4.19-2.29-8.17-3.27-12.25c-0.96-4-0.48-8.57,0.32-12.71c1.48-7.67,0.87-14.84-1.55-22.33c-1.45-4.49-2.41-9.43-2.11-14.53
	c0.4-6.71-0.35-13.48-0.33-20.23c0.01-3.42,0.63-6.83,1-10.25c0.13-1.23,0.54-2.46,0.5-3.68c-0.23-7.5,1.39-14.79,2.38-22.16
	c0.76-5.69,0.95-11.46,1.4-17.2c-0.28-0.09-0.56-0.19-0.84-0.28c-0.44,0.52-1.05,0.97-1.3,1.57c-2.16,5.22-3.66,10.61-4.74,16.18
	c-1.9,9.8-5.66,18.99-10.51,27.71c-1.36,2.44-3.27,3.09-5.11,2.1c-2.41-1.29-3.09-3.63-1.48-6.22c3.43-5.51,6.18-11.32,8.04-17.53
	c0.63-2.1,1.09-4.26,1.69-6.37c1.6-5.67,3.26-11.33,4.86-17c0.75-2.65,1.41-5.32,2.13-7.97c2.15-7.93,4.34-15.84,6.44-23.78
	c1.44-5.44,2.62-10.95,4.14-16.36c1.94-6.93,3.37-13.97,2.87-21.14c-0.5-7.26-1.68-14.48-2.59-21.71c-0.07-0.54-0.2-1.18-0.55-1.55
	c-3.13-3.34-2.34-7.76-3.26-11.7c-0.68-2.94-1.19-5.91-1.73-8.88c-0.58-3.23-1.25-6.45-1.62-9.7c-0.26-2.32-1.11-4.15-2.74-5.82
	c-3.88-3.98-4.51-12.19-1.29-16.73c0.55-0.77,1.95-1.7,2.58-1.48c1.14,0.4,2.37,1.43,2.89,2.52c1.57,3.32,1.44,3.38,4.43,5.15
	c0.77-1.06,1.56-2.15,2.35-3.24c1.29-1.78,3.01-2.36,5.06-1.63c2.01,0.72,2.78,2.62,2.8,4.82c0.06,5.36,0.37,10.71,0.57,16.06
	c0.05,1.38-0.07,2.79,0.16,4.13c0.27,1.55,0.84,3.04,2.13,4.74c0.18-0.36,0.45-0.7,0.53-1.08c1.24-5.64,2.74-11.24,3.6-16.94
	c0.71-4.73,0.93-9.57,0.88-14.36c-0.1-9.48-0.63-18.95-0.77-28.43c-0.05-3.42,0.82-6.85,0.76-10.26c-0.1-5.47-0.74-10.93-0.92-16.4
	c-0.18-5.47-0.1-10.95-0.12-16.42c0-0.41,0.24-0.9,0.09-1.22c-1.69-3.61,0.56-7.11,0.23-10.72c-0.32-3.53-0.33-7.17,0.14-10.67
	c1.21-9.11,2.87-18.17,4.15-27.28c0.93-6.65,1.55-13.35,2.31-20.03c0.84-7.51,1.69-15.01,2.51-22.52c0.28-2.6,0.58-5.2,0.74-7.81
	c0.71-11.29,2.1-22.41,6.42-33.04c4.29-10.57,8.31-21.26,12.34-31.94c0.67-1.77,0.83-3.74,1.15-5.63c0.77-4.58,1.28-9.23,2.33-13.74
	c0.48-2.07,1.83-4,3.04-5.82c3.19-4.8,4.82-10.09,5.69-15.74c0.52-3.36,1.55-6.65,2.41-9.96c0.48-1.85,1.26-3.63,1.62-5.5
	c1.14-5.89,2.07-11.83,3.22-17.72c1.43-7.29,2.92-14.56,4.58-21.8c0.26-1.12,1.39-2.6,2.39-2.86c1.64-0.43,2.43,1.04,3.16,2.56
	c2.28,4.73,0.14,9.13-0.57,13.68c-1.37,8.78-5.34,16.78-7.35,25.31c-1.33,5.65-3.47,10.97-5.01,16.48
	c-1.94,6.94-4.55,13.85-4.45,21.23c0.03,2.31,0.59,4.62,0.9,6.93c0.48,3.53,0.89,7.06,1.44,10.58c0.4,2.56,0.96,5.09,1.46,7.64
	c0.49,2.53,2.02,3.36,4.63,2.57c1.7,6.98,5.7,12.67,9.74,18.35c2.84,3.99,4.47,8.49,5.68,13.18c0.24,0.92,0.3,2.01,0.85,2.69
	c3.16,3.84,3.55,8.48,4.26,13.13c0.87,5.71,2.38,11.31,3.35,17.01c0.71,4.2,1.07,8.46,1.45,12.71c0.92,10.14,1.69,20.3,2.65,30.44
	c0.66,6.99,1.51,13.96,2.35,20.93c0.61,5.04,1.37,10.06,2,15.1c0.34,2.73,0.24,5.55,0.86,8.21c1.45,6.14,3.28,12.18,4.85,18.29
	c0.65,2.52,0.68,5.24,1.59,7.65c3.93,10.4,7.78,20.82,13.16,30.62c3.77,6.86,6.65,14.21,10.42,21.08c3.7,6.74,7.43,13.46,12.2,19.61
	c4.2,5.41,7.7,11.38,11.28,17.24c2.72,4.45,5.34,8.99,7.54,13.71c3.01,6.45,6.98,12.12,11.95,17.16c0.96,0.97,1.9,2.04,2.58,3.21
	c3.73,6.42,7.39,12.89,11.06,19.35c2.52,4.43,5.08,8.83,7.53,13.29c3.56,6.51,7.23,12.97,10.49,19.63
	c3.69,7.53,6.94,15.29,12.08,21.99c2.5,3.25,5.49,6.12,8.05,9.32c4.45,5.58,8.92,11.16,13.03,16.99c2.04,2.89,3.32,6.32,4.92,9.51
	c1.78,3.56,3.58,7.11,5.31,10.7c1.83,3.81,5.21,5.92,8.59,8.06c1.39,0.88,2.96,1.65,4.02,2.85c2.66,2.97,5.92,5.12,9.53,6.4
	c4.25,1.5,7.31,4.32,10.25,7.42c0.93,0.99,1.58,2.24,2.8,3.08c1.4-3.59,1.11-6.74,0.35-9.91c-0.39-1.6-0.8-3.19-1.08-4.8
	c-2.49-14.12-5.39-28.12-12.21-40.93c-4.13-7.76-8.01-15.7-12.78-23.05c-3.65-5.61-8.43-10.51-12.9-15.55
	c-2.65-2.98-5.71-5.59-8.53-8.43c-0.65-0.65-1.23-1.48-1.54-2.33c-2.5-6.99-5.08-13.97-7.35-21.03
	c-3.66-11.38-7.23-22.8-10.58-34.28c-1.07-3.67-1.12-7.62-2.04-11.35c-0.62-2.49-1.68-4.96-3.01-7.16
	c-2.87-4.75-5.27-9.73-6.42-15.12c-0.82-3.87-0.51-7.98-1.24-11.88c-1.15-6.2-2.82-12.3-4.13-18.47c-1.17-5.52-2.2-11.07-3.23-16.62
	c-1.03-5.53-2.12-11.06-2.95-16.62c-0.86-5.7-1.75-11.43-2.07-17.18c-0.36-6.61,0.13-13.26-0.18-19.87
	c-0.41-8.79-1.05-17.55-2.81-26.23c-1.22-6.05-1.3-12.32-2.14-18.45c-0.67-4.89-1.77-9.71-2.58-14.58
	c-0.83-5.02-1.55-10.05-2.28-15.09c-0.24-1.63-0.35-3.28-0.56-4.92c-0.19-1.48-0.06-2.83,1.63-3.33c1.73-0.51,3.07,0.17,3.66,1.81
	c1.25,3.5,2.88,6.97,3.42,10.6c1.29,8.61,3.54,16.93,6.09,25.23c2.18,7.09,3.87,14.32,5.92,21.45c1.17,4.09,2.73,8.07,3.91,12.15
	c2.09,7.21,4.66,14.28,5.99,21.71c0.58,3.24,1.65,6.4,2.7,9.54c3.1,9.35,3.52,18.89,2.46,28.59c-0.21,1.9-0.34,3.9,0.01,5.76
	c1.28,6.9,3.23,13.71,4.04,20.65c0.72,6.21,2.57,12.05,4.16,17.98c1.5,5.57,3.6,10.97,5.43,16.45c0.39,1.17,0.7,2.38,1.15,3.52
	c0.88,2.25,1.65,4.6,3.74,6.03c0.35-0.23,0.55-0.28,0.56-0.37c0.68-5.15,1.59-10.29,1.95-15.46c0.49-7.12,0.58-14.26,0.83-21.39
	c0.32-9.15-1.03-18.08-2.83-27.04c-1.48-7.39-1.93-14.98-2.89-22.48c-0.82-6.42-1.78-12.82-2.58-19.24
	c-0.86-6.82-2.17-13.65-2.29-20.49c-0.25-14.06,0.15-28.14,0.31-42.21c0.1-9.08,0.42-18.16,0.35-27.24
	c-0.16-22.19-0.61-44.37-0.66-66.56c-0.01-5.33,0.59-10.76,1.68-15.99c3.31-15.99,2.24-32.14,2.31-48.26
	c0.03-7.2,0.47-14.29,2.02-21.35c1.36-6.16,2.55-12.38,3.36-18.64c0.62-4.74,0.43-9.44-0.75-14.29c-1.65-6.76-2.82-13.76-2.26-20.85
	c0.11-1.42,0.21-2.94,1.96-3.2c1.7-0.25,2.86,0.64,3.42,2.31c3.13,9.21,6.79,18.22,6.6,28.3c-0.18,9.5,0.37,19.02,0.63,28.53
	c0.31,10.99,0.36,22.01,1.08,32.97c0.79,11.94,1.94,23.88,3.46,35.74c0.91,7.07,2.92,13.98,4.29,21c0.76,3.92,1.18,7.9,1.83,11.84
	c1.72,10.45,3.4,20.91,5.25,31.34c0.62,3.5,1.76,6.9,2.54,10.38c0.84,3.75,1.61,7.53,2.28,11.32c1.22,6.91,2.22,13.87,3.56,20.76
	c1.04,5.38,2.47,10.69,3.7,16.03c0.95,4.16,1.92,8.31,2.78,12.48c0.97,4.71,1.88,9.43,2.75,14.15c0.75,4.06,1.24,8.18,2.14,12.2
	c2.01,9.02,2.55,18.21,3.71,27.33c0.86,6.73,0.73,13.44,1.48,20.11c0.77,6.82,2.2,13.55,3.13,20.36c0.57,4.19,0.75,8.43,1.07,12.65
	c0.8,10.7,1.46,21.41,2.41,32.1c0.6,6.71,1.65,13.38,2.43,20.07c1.08,9.28,2.2,18.56,3.1,27.86c0.5,5.2,0.21,10.5,0.99,15.65
	c0.92,6.1-0.37,12.16,0.45,18.26c0.8,5.99,0.51,12.13,1.37,18.1c0.85,5.89,1.72,11.72,1.27,17.67c-0.48,6.31-1.11,12.61-1.48,18.93
	c-0.66,11.15-0.94,22.32-1.82,33.45c-0.57,7.25-1.7,14.47-2.97,21.64c-1.54,8.72-1.8,17.5-1.92,26.31
	c-0.07,5.34-1.16,10.66-0.02,16.03c0.3,1.44,0.16,3.06-0.14,4.52c-0.51,2.43-1.94,3.05-4.26,2.23c-2.25-0.8-4.28-1.76-5.04-4.33
	c-0.22-0.75-0.74-1.77-1.35-1.98c-4.12-1.37-4.58-5.02-4.93-8.35c-0.57-5.32-0.58-10.7-0.85-16.05c-0.13-2.5,0.16-4.59,3.07-5.58
	c0.8-0.27,1.8-2.07,1.58-2.88c-1.43-5.39-0.57-11.42-4.32-16.16c-1.86-2.35-3.41-5.16-5.76-6.87c-7.33-5.32-14.83-10.45-22.55-15.19
	c-3.85-2.36-7.24-4.93-9.64-8.74c-0.43-0.69-0.94-1.42-1.07-2.2c-1.5-9-6.83-16.18-11.51-23.59c-2.77-4.4-6.32-8.36-9.86-12.2
	c-8.12-8.81-14.04-18.85-18.91-29.81c-4.29-9.66-10.02-18.67-15.12-27.97c-3.64-6.63-7.26-13.27-10.93-19.87
	c-0.8-1.43-1.64-2.89-2.72-4.1c-4.56-5.13-9.27-10.14-12.6-16.21c-1.12-2.04-2.14-4.14-3.03-6.28c-3.4-8.2-8.02-15.68-13.33-22.74
	c-6.96-9.26-13.01-19.08-18.96-29.01c-2.57-4.28-6.26-7.95-9.75-11.61c-5.13-5.37-9.43-11.04-10.29-18.77
	c-0.22-1.93-1.41-3.79-2.31-5.61c-0.64-1.29-1.55-2.46-1.97-3.93c3.94,1.52,3.66,6.63,7.49,8.76c0.4-3.93-1.04-7.12-2.32-10.19
	c-3.05-7.35-6.28-14.6-10.23-21.58c-3.28-5.79-4.9-12.51-7.31-18.8c-1.77-4.62-3.56-9.23-5.48-13.79
	c-3.36-7.96-6.97-15.82-10.17-23.85c-1.26-3.15-1.84-6.6-2.5-9.96c-1.15-5.92-2.13-11.87-3.17-17.81
	c-2.02-11.48-2.07-23.18-3.63-34.68c-1.58-11.67-0.75-23.42-2.33-35.03c-0.7-5.17-1.4-10.37-2.58-15.45
	c-1.55-6.68-1.46-13.41-1.49-20.17c-0.01-1.18-0.15-2.36-0.28-4.35c-2.63,3.14-1.95,6.35-2.72,9.11c-0.62,2.21-0.86,4.55-1.62,6.71
	c-4.81,13.76-9.78,27.47-14.52,41.25c-0.84,2.43-0.6,5.21-1.28,7.72c-2.04,7.49-2.35,15.13-2.68,22.82
	c-0.19,4.37-1.25,8.71-1.6,13.08c-0.69,8.77-0.97,17.58-1.8,26.34c-0.46,4.89-1.78,9.69-2.53,14.56c-1.1,7.2-2.31,14.39-2.97,21.64
	c-0.6,6.51-1.35,13.19-0.53,19.61c0.86,6.77-0.4,13.76,2.16,20.35c0.45,1.17,0.12,2.69,0,4.03c-0.48,5.21-1.21,10.42,1.87,15.2
	c0.35,0.54,0.37,1.32,0.44,2c0.68,6.84,1.77,13.68,1.84,20.54c0.05,4.69,0.52,9.44-1.07,14.23c-1,3.04-0.07,6.79,0.3,10.19
	c0.91,8.35,1.88,16.69,3.05,25c0.71,5.02,1.87,9.91,3.89,14.67c2.19,5.17,3.48,10.71,5.3,16.05c0.7,2.07,1.44,4.25,2.7,5.98
	c5.7,7.83,9.49,16.66,13.77,25.26c1.58,3.18,3.46,6.23,5.27,9.29c2.7,4.57,4.44,9.38,4.81,14.75c0.36,5.21,1.26,10.37,1.74,15.58
	c0.18,2.01,0.33,4.23-0.32,6.07c-2.19,6.24-1.33,12.8-2.39,19.14c-1.8,10.81,0.97,21.38,1.67,32.05c0.43,6.64,2.18,13.19,3.32,19.79
	c0.89,5.15,1.71,10.31,2.6,15.45c0.91,5.28,1.91,10.55,2.77,15.85c0.81,5.01,0.88,10.23,2.36,15.03c1.71,5.57,1.4,11.13,1.68,16.73
	c0.01,0.27,0.03,0.56,0.1,0.82c2.22,8.34,4.26,16.74,6.76,25c0.8,2.65,0.6,4.64-1.28,6.34c-2.33,2.12-2.71,4.67-2.33,7.53
	c0.69,5.18,1.61,10.35,2,15.55c0.24,3.25-0.22,6.58-0.56,9.85c-0.23,2.24-2.27,2.2-3.84,2.32c-2.21,0.17-4.27-1.43-4.31-3.49
	c-0.08-3.85,0.11-7.71,0.24-11.56c0.05-1.37,0.38-2.74,0.34-4.1c-0.23-7.16-0.81-14.31-0.76-21.47c0.06-8.07-1.37-15.91-2.69-23.78
	c-0.68-4.06-0.83-8.3-2.18-12.12c-2.7-7.62-3.16-15.63-4.97-23.38c-1.06-4.55-2.42-9.03-3.65-13.54
	c-2.75-10.06-5.55-20.1-8.25-30.17c-1.53-5.7-2.99-11.43-4.35-17.17c-0.78-3.32-1.69-6.68-1.86-10.06
	c-0.33-6.38-1.73-12.5-3.18-18.68c-1.12-4.78-1.28-9.78-2.09-14.65c-1.4-8.51-2.99-17-4.45-25.5c-0.28-1.62-0.36-3.28-0.46-4.93
	c-0.61-9.8-2.11-19.4-5.97-28.55c-1.15-2.74-1.7-5.78-2.18-8.74c-0.98-5.97-1.67-11.99-2.59-17.97c-0.67-4.33-1.6-8.61-2.26-12.94
	c-0.7-4.6-1.33-9.22-1.76-13.85C505.48,434.09,504.93,431.68,502.9,429.14z M776.79,611.9c0.44-4.56,0.97-8.9,1.24-13.25
	c0.66-10.58,1.56-21.17,1.69-31.76c0.12-9.49-0.57-18.99-1.06-28.47c-0.32-6.18-0.99-12.34-1.38-18.51
	c-0.39-6.14-0.48-12.31-0.97-18.44c-0.8-9.86-1.78-19.7-2.76-29.54c-1.01-10.13-2.1-20.25-3.15-30.37
	c-0.17-1.64-0.26-3.28-0.43-4.92c-0.88-8.33-1.83-16.66-2.67-25c-0.67-6.71-1.2-13.43-1.84-20.15c-0.14-1.51-0.53-2.99-0.7-4.5
	c-0.8-6.97-1.59-13.94-2.35-20.91c-0.9-8.2-1.67-16.42-2.69-24.61c-0.59-4.78-1.43-9.53-2.35-14.26c-2-10.25-4.05-20.48-6.21-30.69
	c-1.05-4.97-2.61-9.84-3.57-14.83c-1.76-9.19-3.23-18.43-4.87-27.65c-0.55-3.09-1.25-6.15-1.85-9.24c-1.51-7.83-3.06-15.66-4.5-23.5
	c-1.33-7.31-2.59-14.63-3.78-21.96c-1.31-8.15-2.47-16.32-3.75-24.47c-0.92-5.84-2.37-11.63-2.78-17.51c-0.68-9.6-0.7-19.25-1-28.88
	c-0.28-9.22-0.49-18.45-0.88-27.67c-0.11-2.65-0.76-5.29-1.16-7.93c-3.63,7.16-4.83,14.71-5.09,22.34
	c-0.32,9.46,0.03,18.95-0.06,28.42c-0.06,6.45,0.63,12.98-1.59,19.28c-0.4,1.14-0.35,2.45-0.47,3.68c-0.65,6.54-1.4,13.07-1.9,19.62
	c-0.43,5.62-0.75,11.27-0.78,16.91c-0.02,5.06,1.61,10.03,0.71,15.18c-0.39,2.25-0.11,4.62-0.04,6.94c0.18,5.9,0.63,11.8,0.58,17.7
	c-0.14,16.54-0.5,33.08-0.74,49.62c-0.08,5.62-0.19,11.25-0.04,16.87c0.16,6.05,0.59,12.1,0.95,18.15c0.12,2.06,0.33,4.12,0.6,6.16
	c1.39,10.49,3.22,20.95,4.1,31.49c0.8,9.6,3.05,18.91,4.53,28.37c0.82,5.23,2.26,10.36,0.84,15.71c-0.27,1,0.15,2.18,0.18,3.28
	c0.04,1.37-0.05,2.73,0,4.1c0.1,2.45,0.24,4.9,0.41,7.35c0.18,2.73,0.77,5.49,0.51,8.17c-0.35,3.55-1.48,7.01-2.04,10.55
	c-0.34,2.13-0.25,4.33-0.3,6.51c-0.09,3.71-0.04,7.43-0.25,11.13c-0.29,5.19-1.4,10.42,1.07,15.42c0.3,0.6,0.39,1.34,0.42,2.02
	c0.08,1.71-0.01,3.55-2.03,4.02c-1.82,0.43-3.37-0.62-3.91-2.32c-1.07-3.39-1.91-6.87-2.71-10.34c-0.52-2.27-0.53-4.68-1.26-6.86
	c-1.03-3.11-2.64-6.03-3.75-9.12c-2.85-7.88-5.65-15.78-8.29-23.73c-1.78-5.35-3.44-10.76-4.78-16.23
	c-1.28-5.2-1.82-10.59-3.15-15.78c-2.19-8.55-2.46-17.2-1.67-25.86c0.4-4.34-0.03-8.53-0.92-12.64c-1.53-7.12-3.57-14.13-5.42-21.19
	c-1.08-4.12-2.17-8.23-3.31-12.33c-1.9-6.86-3.82-13.72-5.78-20.57c-0.62-2.18-1.38-4.32-2.08-6.48c-0.82,1.49-1.08,2.85-0.92,4.14
	c0.43,3.4,1.25,6.76,1.52,10.17c0.47,5.9,1.08,11.85,0.84,17.75c-0.66,16.08,2.35,31.75,4.68,47.51c0.56,3.8,0.88,7.64,1.36,11.45
	c0.19,1.5,0.44,3,0.82,4.47c1.73,6.79,3.66,13.54,5.23,20.37c0.98,4.27,2.01,8.66,2.01,12.99c-0.01,5.71,2.39,10.43,4.93,15.08
	c2.74,5.01,5.08,10.02,5.24,15.84c0.03,1.22,0.36,2.45,0.71,3.63c1.82,6.18,3.7,12.34,5.56,18.51c0.08,0.26,0.13,0.54,0.18,0.81
	c1.42,6.85,3.69,13.42,6.46,19.84c1.58,3.65,3.3,7.35,4.09,11.21c0.98,4.77,3.79,8.19,6.79,11.59c3.6,4.09,7.48,7.94,11.06,12.05
	c2.41,2.78,4.85,5.65,6.67,8.82c5.4,9.42,10.7,18.9,15.64,28.56c3.63,7.1,6.64,14.52,8.1,22.44c0.47,2.57,0.67,5.19,1.09,7.77
	C768.61,609.51,770.53,611.37,776.79,611.9z M576.46,332.26c0.32-0.02,0.63-0.04,0.95-0.07c-0.16-1.88-0.35-3.76-0.47-5.64
	c-0.3-4.94-0.44-9.9-0.87-14.83c-0.46-5.2-1.23-10.37-1.76-15.57c-0.47-4.64-0.73-9.31-1.21-13.96c-0.9-8.72-2.28-17.42-2.74-26.16
	c-0.68-13-3.83-25.52-6.33-38.18c-0.19-0.94-0.44-1.89-0.81-2.77c-1.86-4.42-3.64-8.87-5.69-13.2c-1.57-3.31-3.57-6.39-7.02-8.58
	c-1.86,2.74-1.61,5.26-0.78,7.96c0.71,2.32,1.32,4.73,1.46,7.13c0.12,2.12-0.67,4.28-0.72,6.43c-0.1,4.68-0.08,9.38,0.07,14.06
	c0.07,2.16,0.63,4.29,0.87,6.45c0.09,0.77-0.13,1.58-0.17,2.37c-0.2,3.82-1.11,7.79-0.36,11.41c0.73,3.52,1.32,6.96,1.41,10.54
	c0.02,0.8,0.37,1.59,0.53,2.39c0.87,4.14,1.66,8.3,2.62,12.43c0.92,3.98,1.45,8.18,3.12,11.84c5.1,11.12,10.13,22.23,13.63,33.98
	C573.4,324.35,575.03,328.27,576.46,332.26z M519.89,482.03c-0.3,0.11-0.6,0.21-0.9,0.32c0.06,1.21-0.1,2.49,0.23,3.63
	c1.23,4.19,2.63,8.33,3.96,12.49c0.29,0.91,0.62,1.82,0.79,2.75c1.63,9.03,3.31,18.05,4.81,27.11c1.25,7.58,2.17,15.21,3.44,22.79
	c1.13,6.75,1.67,13.57,3.18,20.29c2.14,9.52,3.42,19.23,5.23,28.83c0.43,2.3,1.49,4.48,2.26,6.71c0.31-0.08,0.61-0.16,0.92-0.24
	c-0.24-2.73-0.49-5.45-0.71-8.18c-0.38-4.93-0.94-9.86-1.06-14.8c-0.16-6.34,0.15-12.69,0.03-19.03c-0.08-4.21,0.62-8.25,2.07-12.15
	c1.25-3.36,1.26-6.7,0.8-10.17c-0.54-4.09-0.67-8.23-1.3-12.3c-0.5-3.22-1.07-6.54-2.36-9.48c-1.7-3.87-4.17-7.39-6.23-11.1
	c-1-1.79-2.11-3.6-2.69-5.54C529.89,495.64,524.8,488.9,519.89,482.03z M501.7,581.01c-0.35-4.54-1.16-8.77-0.91-12.94
	c0.71-11.58-2.52-22.64-3.91-33.94c-0.13-1.07-0.3-2.43-1-3.07c-1.4-1.28-0.6-2.32-0.37-3.65c0.44-2.57,1.79-5.27-0.46-8.22
	c-0.92,3.57-2.78,6.29-2.45,10.07c0.3,3.41-1.16,6.94-1.5,10.44c-0.14,1.43,0.51,2.97,0.96,4.41c0.49,1.57,1.28,3.06,1.73,4.64
	c0.76,2.63,1.61,5.27,1.99,7.96c0.78,5.44,1.13,10.95,1.95,16.38C498.16,575.92,498.8,578.83,501.7,581.01z M481.74,623.86
	c0.24-8.02,3.01-16.09-0.66-23.93C478.98,607.98,479.41,615.96,481.74,623.86z M483.54,423.22c0.58-2.2,0.95-3.78,1.43-5.33
	c0.41-1.35,0.3-2.73-1.08-3.07c-1.17-0.29-2.81-0.11-3.74,0.55c-0.59,0.42-0.69,2.34-0.25,3.2
	C480.66,420.1,482.01,421.34,483.54,423.22z"/>
<path d="M567.59,342.89c-4.6-11.45-7.05-23.51-10.36-35.33c0.34-0.16,0.69-0.31,1.03-0.47c0.41,0.82,0.95,1.6,1.2,2.47
	c1.38,4.82,2.63,9.67,4.02,14.48c1.44,5,3.01,9.97,4.47,14.97c0.36,1.24,0.5,2.54,0.74,3.81
	C568.33,342.84,567.96,342.87,567.59,342.89z"/>
</svg>
