<?xml version="1.0" encoding="utf-8"?>
<!-- Generator: Adobe Illustrator 24.1.0, SVG Export Plug-In . SVG Version: 6.00 Build 0)  -->
<svg version="1.1" id="Layer_1" xmlns="http://www.w3.org/2000/svg" xmlns:xlink="http://www.w3.org/1999/xlink" x="0px" y="0px"
	 viewBox="0 0 1224 792" style="enable-background:new 0 0 1224 792;" xml:space="preserve">
<path d="M433.15,549.16c-1.13,3.4-2.44,6.75-3.33,10.21c-0.72,2.8-2.52,4.18-4.97,2.73c-2.63-1.56-5.2-3.42-7.29-5.63
	c-1.15-1.21-1.65-3.37-1.76-5.15c-0.26-4.31-0.92-8.5-2.42-12.54c-0.76-2.06-1.75-4.03-2.66-6.03c-0.18-0.4-0.4-0.8-0.68-1.12
	c-3.45-3.89-7.21-7.42-11.83-9.91c-3.82-2.06-7.53-4.25-9.32-8.52c-0.42-1.01-0.79-2.06-1.08-3.11c-2.26-8.2-2.47-16.58-2.03-24.98
	c0.13-2.55,0.83-4.97,3.3-6.51c0.89-0.56,1.5-1.59,2.19-2.45c4.63-5.72,10.62-9.84,16.6-13.95c0.63-0.44,1.34-0.77,2.05-1.08
	c1.97-0.83,3.77-0.73,5.59,0.63c3.44,2.57,7.02,4.95,10.5,7.46c0.8,0.57,1.55,1.27,2.17,2.03c2.21,2.71,5.55,3.37,8.45,5.27
	c0.36-0.82,0.68-1.2,0.67-1.57c-0.17-4.41-0.41-8.81-0.58-13.22c-0.06-1.39-0.17-2.82,0.08-4.18c0.55-3.02,2.72-4.36,5.5-4.58
	c1.04-3.94,2.07-7.63,2.97-11.34c0.26-1.05,0.17-2.2,0.2-3.3c0.24-9.09,1.63-18.01,3.95-26.78c1.15-4.35,2.12-8.82,3.89-12.92
	c1.72-4,2.61-8.16,3.71-12.3c0.3-1.15,0.37-2.44,0.2-3.61c-0.49-3.38-1.25-6.72-1.72-10.09c-0.87-6.2-2.39-12.32-2.1-18.67
	c0.08-1.81-0.68-3.64-0.85-5.48c-0.17-1.72-0.09-3.47-0.1-5.21c-0.01-1.38,0-2.75,0-4.98c-1.19,0.97-2,1.35-2.35,1.97
	c-1.35,2.39-2.44,4.92-3.84,7.28c-1.78,3.01-3.78,5.9-5.67,8.86c-1.53,2.41-3.09,4.8-4.52,7.27c-1.79,3.08-0.98,6.46-0.98,9.75
	c-0.01,3.63-0.1,7.25-0.26,10.87c-0.07,1.47-0.95,2.48-2.47,2.67c-1.44,0.18-2.29-0.92-2.84-2.59c-1.54-4.69-1.65-9.5-1.3-14.38
	c-0.42-0.16-0.69-0.35-0.98-0.38c-2.73-0.23-3.62-1.26-2.88-3.75c0.53-1.79,1.34-3.5,2.11-5.21c0.68-1.51,1.41-3,2.22-4.45
	c1.12-1.98,1.39-3.9,1.11-6.28c-0.3-2.51,0.4-5.28,1.18-7.77c3.24-10.32,7.15-20.37,12.45-29.84c2.57-4.59,5.07-9.23,7.58-13.86
	c0.41-0.77,0.84-1.58,0.99-2.42c1.42-8.03,2.58-16.11,4.22-24.09c1.1-5.35,2.24-10.67,4.89-15.67c2.4-4.53,3.4-9.78,5.5-14.5
	c2.18-4.92,4.92-9.58,7.45-14.35c0.81-1.54,1.68-3.05,2.58-4.54c2.76-4.63,5.51-9.26,8.34-13.85c0.92-1.49,2.05-2.86,3.14-4.24
	c2.26-2.83,3.69-5.9,3.87-9.63c0.11-2.28,0.69-4.6,1.43-6.77c3.69-10.85,5.97-22.08,9.16-33.05c1.26-4.32,3.04-8.48,4.53-12.74
	c0.62-1.76,1.14-3.56,1.62-5.36c0.68-2.53,1.34-5.07,1.9-7.64c1.2-5.53,3.76-10.55,5.86-15.74c1.48-3.66,2.71-7.47,4.6-10.92
	c2.89-5.29,5.56-10.82,10.58-14.6c3.17-2.38,6.24-4.91,9.49-7.17c4.89-3.39,9.87-6.64,14.86-9.88c3.52-2.28,7.02-4.61,10.71-6.58
	c4.26-2.27,8.71-4.18,13.09-6.23c1-0.47,2.06-0.82,3.03-1.34c6.87-3.7,14.24-5.85,21.86-7.36c4-0.8,7.91-2.02,11.9-2.86
	c3.34-0.7,6.73-1.27,10.13-1.59c1.94-0.19,3.95,0.13,5.91,0.4c2.84,0.39,5.65,1.27,8.49,1.33c4.26,0.1,7.78,1.97,10.89,4.38
	c5.22,4.05,10.4,8.11,15.82,11.92c6.82,4.79,12.16,11.09,16.24,18.46c2.71,4.9,5.9,9.54,8.67,14.42c2.55,4.49,4.85,9.12,6.26,14.13
	c0.39,1.36,1.02,2.66,1.63,3.95c0.56,1.19,1.47,2.26,1.81,3.5c1.71,6.12,5,11.71,5.41,18.31c0.25,4.01,1.84,7.93,2.75,11.91
	c1.03,4.5,2.2,8.98,2.88,13.54c0.77,5.22,1.31,10.5,1.46,15.77c0.09,3.2,1.03,5.67,3.11,8.03c4.18,4.76,7.6,10.04,9.68,16.07
	c0.71,2.07,1.16,4.23,1.69,6.36c1.72,6.84,3.35,13.71,5.16,20.53c0.84,3.17,2.13,6.22,3,9.39c1.59,5.83,3.49,11.6,3.99,17.69
	c0.1,1.27,0.69,2.49,1.03,3.74c0.96,3.6,1.93,7.2,2.86,10.8c0.38,1.47,0.68,2.96,0.99,4.45c0.16,0.75,0.31,1.51,0.39,2.27
	c0.41,3.94,0.91,7.87,1.16,11.82c0.17,2.72,1.89,5.14,1.2,8.09c-0.16,0.7,1.4,2.31,2.47,2.71c6.01,2.27,9.21,7.01,11.36,12.61
	c2.8,7.28,5.35,14.66,8.05,21.99c0.84,2.28,1.6,4.62,2.74,6.74c2.08,3.89,2.51,8.18,3.5,12.35c0.33,1.38,0.68,2.76,1.02,4.14
	c0.13,0.53,0.32,1.06,0.38,1.6c0.13,1.21-0.19,2.43-1.5,2.52c-0.76,0.05-1.81-0.63-2.32-1.3c-1.05-1.39-1.74-3.06-2.75-4.49
	c-0.65-0.92-1.61-1.63-2.89-2.88c-0.54,3.2,0.19,5.42,0.87,7.67c1.51,4.93,3.46,9.76,3.29,15.06c-0.03,0.88-0.07,1.79,0.1,2.65
	c1.6,8.24,2.35,16.58,2.78,24.93c0.33,6.47,0.61,12.97-0.4,19.45c-0.33,2.13-0.06,4.36-0.02,6.54c0.07,2.95,0.05,5.88-0.86,8.74
	c-0.2,0.62-0.26,1.3-0.27,1.96c-0.05,2.99-0.03,5.97-0.08,8.96c-0.03,2.07,1.05,3.3,2.89,3.96c2.91,1.04,5.85,1.99,8.73,3.08
	c0.9,0.34,2.01,0.86,2.39,1.62c0.48,0.97,0.67,2.39,0.31,3.37c-0.44,1.2-1.8,1.52-3.12,1.17c-0.42-0.11-0.82-0.33-1.24-0.47
	c-2.34-0.79-2.52-0.81-3.27,1.6c-1.42,4.5-2.58,9.09-4.02,13.59c-0.71,2.21-1.3,4.33-1.36,6.72c-0.09,3.63,0.68,7.01,1.94,10.32
	c0.48,1.27,1.15,2.48-0.25,3.58c-1.3,1.03-2.52,0.36-3.7-0.27c-0.77-0.42-1.43-1.08-2.24-1.41c-1.02-0.42-2.13-0.61-3.25-0.91
	c-0.11,0.71-0.24,1.05-0.16,1.11c2.35,1.89,2.59,3.9,1.01,6.56c-1.13,1.91-0.73,4.24-0.2,7.04c1.59-1.18,2.97-2.02,4.11-3.11
	c2.08-1.98,4.06-3.93,6.92-4.94c2.13-0.76,3.92-2.45,5.99-3.44c3.97-1.89,5.89-0.65,5.83,3.76c-0.06,4.3-0.41,8.59-0.48,12.88
	c-0.02,1.15,0.33,2.41,0.85,3.46c1.01,2.04,1.27,3.89-0.02,5.94c-1.12,1.79-1.41,3.77-1.15,5.97c0.53,4.48-0.26,8.6-2.96,12.54
	c-2.33,3.39-3.72,7.42-5.56,11.15c-0.92,1.86-1.93,3.68-2.89,5.53c-1.01,1.94-2.06,3.77-2.6,6c-0.96,3.97-4.06,6.48-7.58,8.3
	c-3.32,1.72-6.72,3.3-10.13,4.83c-2,0.9-4.07,1.7-6.16,2.36c-2.43,0.77-4.37,1.99-5.58,4.33c-3.93,7.59-9.32,14.14-14.67,20.73
	c-4.92,6.06-9.48,12.41-14.34,18.52c-2.47,3.11-5.14,6.07-7.9,8.93c-6.27,6.53-11.68,13.75-17.17,20.92
	c-2.68,3.5-5.53,6.85-8.32,10.26c-3.61,4.42-7.45,8.68-10.28,13.68c-3.14,5.54-7.62,10-11.99,14.51c-2.74,2.84-5.61,5.79-8.98,7.73
	c-6.52,3.76-10.96,9.43-15.6,15.01c-0.63,0.76-1.28,1.61-2.11,2.06c-4.82,2.6-8.09,6.73-11.23,11.03c-1.68,2.3-3.44,4.55-5.29,6.7
	c-0.69,0.81-1.7,1.42-2.67,1.9c-4.65,2.28-9.31,4.55-14.03,6.69c-4.36,1.99-15.7,3.88-19.08,3.22c-3.68-0.72-7.33-1.61-11.01-2.34
	c-5.33-1.06-8.99-4.57-12.17-8.55c-3.51-4.38-6.58-9.1-9.99-13.56c-1.24-1.63-2.9-2.95-4.58-4.25c0.69,5.42,3.1,9.98,6.55,14.04
	c0.28,0.33,0.69,0.57,0.96,0.91c1.03,1.33,0.73,3.42-0.61,4.43c-1.48,1.11-2.53,0.16-3.4-0.86c-1.79-2.09-3.52-4.24-5.19-6.43
	c-6.1-7.95-12.2-15.9-18.23-23.9c-1.91-2.53-3.23-5.51-6.08-7.29c-1.77-1.11-3.36-2.51-5.09-3.69
	c-10.48-7.17-18.96-16.47-27.38-25.8c-5.54-6.14-10.73-12.58-16.16-18.82c-3.4-3.91-7.17-7.51-10.39-11.56
	c-4.51-5.68-8.84-11.52-12.93-17.51c-4.06-5.94-6.75-12.62-9.49-19.25c-2.5-6.05-3.63-12.41-4.43-18.85
	c-0.14-1.09-0.14-2.21-0.11-3.31c0.14-4.96,0.4-9.93,0.45-14.89c0.05-4.95-0.08-9.9-0.17-14.85c-0.01-0.37-0.36-0.73-0.56-1.1
	C433.72,549.19,433.43,549.17,433.15,549.16z M560.31,333.9c1.87,5.37,3.68,10.4,5.35,15.48c0.54,1.66,0.46,3.53,1.08,5.15
	c2.02,5.3,2.62,10.89,3.61,16.39c0.93,5.2,0.86,10.57,2.69,15.61c2.61,7.19,3.96,14.67,5.31,22.15c0.16,0.89,0.76,1.82,1.42,2.47
	c2.11,2.07,2.37,2.42,1.22,4.78c-0.84,1.73-0.79,3.34-0.44,5.13c0.22,1.13,0.05,2.38-0.14,3.55c-0.19,1.17-0.57,2.32-0.94,3.46
	c-0.47,1.46-0.73,3.11-1.58,4.32c-2.46,3.51-5.16,6.86-7.81,10.24c-0.24,0.31-0.73,0.58-1.12,0.61c-2.2,0.16-3.45,1.77-4.98,3.03
	c-1.42,1.18-3.03,2.14-4.57,3.18c-0.55,0.37-1.31,0.55-1.68,1.03c-2.44,3.22-6.32,5.12-8.09,9c-0.36,0.79-1.85,1.79-2.51,1.6
	c-2.44-0.69-3.67,0.71-5.04,2.18c-1.21,1.29-2.57,2.43-3.75,3.75c-2.42,2.69-3.92,5.64-3.98,9.5c-0.09,5.14-0.84,10.28-1.32,15.41
	c-0.04,0.43-0.2,0.86-0.33,1.28c-1.02,3.36-2.05,6.72-3.04,10.09c-0.25,0.84-0.43,1.72-0.49,2.59c-0.47,7.57-0.45,15.15-2.52,22.59
	c-1.15,4.12-1.59,8.43-3.59,12.32c-0.29,0.57-0.43,1.25-0.49,1.9c-0.61,6.2-0.32,11.92,4.94,16.61c4.35,3.88,6.78,9.29,8.08,14.92
	c1.04,4.52,2.48,8.87,4.1,13.18c0.85,2.27,2.13,4.48,2.51,6.82c1.06,6.61,3.57,13.03,2.9,19.9c-0.15,1.52,0.55,2.64,1.71,3.72
	c1.84,1.72,3.45,3.7,5.08,5.64c6.17,7.34,12.13,14.87,18.53,22.01c4.53,5.05,9,9.94,10.72,16.79c0.77,3.06,3.94,3.79,6.61,2.08
	c2.4-1.54,4.94-2.86,7.4-4.3c2.06-1.2,3.66-2.75,4.25-5.2c0.22-0.94,0.64-1.86,1.11-2.71c1.36-2.52,2.97-4.92,4.16-7.51
	c1.96-4.28,3.73-8.66,5.44-13.05c0.63-1.61,0.94-3.36,1.25-5.07c0.58-3.14,0.82-6.37,1.62-9.45c1.42-5.41,3.14-10.74,4.77-16.1
	c1.11-3.62,1.73-7.3,1.49-11.1c-0.29-4.61,0.48-9.29-1.12-13.81c-0.28-0.79-0.12-1.75-0.13-2.64c-0.07-8.43,1.31-16.68,3.11-24.88
	c0.57-2.57,0.78-5.24,1.49-7.76c0.95-3.38,2.48-6.61,1.46-10.28c-0.22-0.81-0.09-1.77,0.05-2.64c0.61-3.92,1.24-7.83,1.92-11.73
	c0.85-4.86,1.77-9.72,2.64-14.58c0.5-2.82,0.66-5.75,1.51-8.46c1.4-4.48,1.17-8.9,0.63-13.43c-0.17-1.42,0.42-2.97,0.86-4.4
	c0.61-1.98,1.61-3.85,2.08-5.85c0.49-2.13,0.48-4.38,0.83-6.55c0.54-3.36,1.33-6.67,1.78-10.04c0.44-3.28,0.54-6.44-1.46-9.55
	c-2.13-3.31-3.69-7.01-5.29-10.63c-0.44-0.99-0.38-2.36-0.13-3.47c0.6-2.67,2.25-4.77,4.28-6.55c1.81-1.58,3.02-3.46,3.38-5.87
	c0.69-4.68,1.44-9.35,2.12-14.03c0.41-2.81,0.4-5.73,1.18-8.42c1.89-6.54,4.66-12.86,4.29-19.88c-0.01-0.11,0.06-0.21,0.07-0.32
	c0.37-4.06,0.75-8.11,1.08-12.17c0.12-1.43,0.03-2.88,0.2-4.3c0.38-3.17,0.95-6.32,1.28-9.49c0.16-1.52-0.08-3.08-0.07-4.62
	c0.01-1.49,1-2.16,2.31-2.35c1.13-0.17,1.87,0.37,2.22,1.51c0.16,0.53,0.55,1,0.88,1.58c2.38-2.74,2.39-2.74,2.42-5.41
	c0.02-1.44,0.07-2.88,0-4.31c-0.19-3.92,1.34-7.04,4.16-9.69c1.51-1.42,3.1-2.92,4.07-4.7c2.72-5.01,5.16-10.17,7.67-15.29
	c1.12-2.27,2.05-4.63,3.23-6.87c2.01-3.79,4.09-7.54,6.23-11.26c2.9-5.04,5.05-10.55,9.18-14.81c2.99-3.09,6.03-6.13,9.04-9.2
	c2.55-2.6,4.87-5.49,7.71-7.71c1.82-1.43,2.44-2.82,2.5-4.97c0.15-5.41,0.47-10.81,0.75-16.21c0.03-0.65,0.3-1.29,0.39-1.94
	c0.28-1.95,0.78-3.92,0.76-5.87c-0.13-13.7-0.37-27.39-0.59-41.09c-0.01-0.77-0.13-1.54-0.26-2.3c-0.77-4.24-2.42-8.15-4.14-12.09
	c-2.71-6.19-6.58-11.14-12.52-14.43c-4-2.22-7.25-5.33-10.48-8.53c-1.85-1.84-4.07-3.39-6.33-4.71c-3.32-1.94-6.83-3.59-10.27-5.32
	c-1.18-0.6-2.37-1.25-3.63-1.58c-0.88-0.22-2.19-0.28-2.78,0.21c-1.99,1.67-4.82,2.24-6.08,4.9c-0.64,1.36-1.88,1.2-3.16,0.22
	c0.23-0.56,0.31-1.16,0.65-1.5c1.7-1.72,3.47-3.37,5.23-5.04c3.5-3.33,7.24-3.2,11.16-0.81c0.75,0.46,1.51,0.91,2.29,1.33
	c2.72,1.45,5.51,2.78,8.17,4.34c2.07,1.22,4.12,2.55,5.95,4.1c2.18,1.85,3.95,4.19,6.18,5.95c2.42,1.91,5.15,3.42,7.79,5.04
	c0.49,0.3,1.19,0.24,2.1,0.39c-0.13-0.81-0.07-1.4-0.32-1.79c-1.59-2.5-3.34-4.9-4.87-7.44c-4.48-7.46-8.71-15.08-14.2-21.87
	c-1.31-1.62-2.57-3.46-4.26-4.57c-3.58-2.36-7.43-4.32-11.18-6.4c-1.25-0.69-2.54-1.32-3.84-1.91c-4.71-2.15-9.28-4.83-14.21-6.23
	c-3.72-1.05-7.3-2.34-10.91-3.63c-0.41-0.15-0.85-0.24-1.29-0.28c-5.09-0.5-9.85,0.62-14.39,2.87c-1.48,0.73-2.95,1.52-4.46,2.2
	c-2.8,1.27-5.65,2.43-8.43,3.73c-2.48,1.16-4.9,2.44-7.32,3.71c-1.07,0.56-2.08,1.25-3.12,1.86c-1.71,1-3.42,2.01-5.16,2.96
	c-4.44,2.43-8.93,4.79-13.35,7.26c-3.35,1.87-6.62,3.89-9.95,5.8c-2.01,1.15-3.97,2.45-6.1,3.31c-4.04,1.62-7.72,3.79-10.92,6.71
	c-2.59,2.36-4.94,4.99-7.56,7.33c-3.79,3.39-6.95,7.27-9.88,11.41c-3.51,4.96-7.48,9.53-12.26,13.38c-3.6,2.9-7.07,5.96-10.56,9
	c-0.46,0.4-0.72,1.05-1,1.62c-2.96,5.98-3.86,12.55-5.3,18.95c-0.8,3.55-1.35,7.15-1.95,10.74c-0.69,4.12-1.38,8.24-1.97,12.37
	c-0.55,3.9-0.98,7.83-1.46,11.74c-0.01,0.11-0.02,0.23-0.07,0.32c-1.58,3.68-2.29,7.5-2.68,11.5c-0.8,8.21-2.02,16.39-3.04,24.58
	c-0.25,2.02,0.26,2.89,2.15,3.56c5.39,1.9,10.03,5.14,14.3,8.77c2.29,1.94,4.41,2.85,7.36,2.83c6.58-0.05,11.69,3.46,16.43,7.53
	c1.99,1.72,3.83,3.64,5.61,5.58c2.29,2.5,4.7,4.96,6.63,7.73c3.15,4.52,5.84,9.36,8.98,13.89c1.07,1.55,2.79,2.74,4.4,3.79
	c2.84,1.85,6.02,3.23,8.69,5.29c1.75,1.35,3.16,3.38,4.2,5.37c2.55,4.88,4.46,10,5.73,15.42c0.99,4.23,1.56,8.43,1.56,12.73
	c0,6.49-0.28,12.99-0.11,19.48c0.1,3.72,0.1,7.74,1.52,11.04c1.27,2.96,2.01,5.89,2.75,8.9c-1.46,1.23-2.32,0.25-3.05-0.75
	c-0.51-0.7-0.64-1.72-1.22-2.32c-2.3-2.38-2.97-5.33-3.25-8.46c-0.23-2.63-0.53-5.27-0.63-7.91c-0.23-5.94-0.86-11.93-0.36-17.82
	c0.44-5.19,0.03-10.17-1.3-15.04c-1.15-4.22-3.12-8.2-4.68-12.31C568.15,337.23,564.37,335.6,560.31,333.9z M693.22,605.18
	c0.7-0.97,1.43-1.77,1.93-2.71c2.2-4.07,4.37-8.15,6.47-12.26c2.41-4.7,4.48-9.59,7.18-14.1c1.77-2.95,2.67-6.14,3.2-9.29
	c0.95-5.59,2.71-10.8,4.97-15.94c1.19-2.69,1.95-5.6,2.65-8.47c0.69-2.82,0.52-2.89-1.98-4c-1.72-0.76-3.43-1.54-5.12-2.36
	c-2.77-1.34-5.49-2.77-8.28-4.06c-2.28-1.06-4.64-1.37-7.06-0.28c-0.9,0.4-1.88,0.68-2.85,0.89c-2.58,0.56-5.26,1.77-7.73,1.44
	c-7.08-0.95-14.09-2.52-21.11-3.89c-0.62-0.12-1.19-0.55-1.77-0.85c-2.35-1.2-4.64-2.53-7.06-3.58c-1.65-0.72-3-1.72-3.29-3.42
	c-0.54-3.22-2.55-5.47-4.43-7.91c-1.73-2.25-3.09-4.78-4.66-7.16c-2.75-4.19-5.34-8.52-9.88-11.94c-0.18,1.36-0.37,2.39-0.45,3.44
	c-0.1,1.21,0.2,2.54-0.22,3.62c-1.52,3.93-2.36,7.98-2.89,12.15c-0.51,4.02-1.77,7.96-2.06,11.99c-0.34,4.72-0.02,9.44-1.4,14.11
	c-0.92,3.13-0.67,6.63-1.73,9.7c-1.35,3.91-2.28,7.86-2.63,11.92c-0.44,5.03-1.26,10.06-0.26,15.14c0.36,1.83,0.5,3.71,0.58,5.57
	c0.09,2.1-0.19,4.22,0.03,6.3c0.47,4.34,0.15,8.54-1.33,12.67c-0.59,1.65-0.85,3.43-1.3,5.14c-0.78,2.97-1.58,5.94-2.39,8.9
	c-0.49,1.79-1.34,3.56-1.44,5.37c-0.17,3.1-0.25,6.18-1.38,9.12c-2,5.21-2.99,10.82-6.34,15.52c-1.19,1.67-2,3.67-2.7,5.63
	c-0.53,1.48-0.95,3.15,0.3,4.75c0.74-0.31,1.32-0.59,1.93-0.8c2.52-0.87,4.41,0.75,4.02,3.37c-0.22,1.5-1.39,1.88-2.48,2.38
	c-3.34,1.52-6.53,3.23-9.07,5.98c-2.02,2.18-4.2,4.22-6.09,6.5c-1.82,2.19-3.65,4.48-3.68,7.58c-0.02,2.07-0.08,4.14-0.03,6.2
	c0.05,1.69-0.89,3.26-2.35,3.51c-1.69,0.29-2.25-1.08-2.89-2.21c-0.21-0.37-0.22-0.85-0.38-1.27c-1.4-3.71-2.78-7.42-4.25-11.1
	c-0.31-0.77-0.95-1.4-1.32-1.94c-3.02,0.45-5.76,0.72-8.45,1.3c-1.82,0.39-2.79-0.33-3.94-1.59c-3.03-3.35-5.24-7.01-5.58-11.63
	c-0.05-0.73-0.47-1.45-0.79-2.14c-0.73-1.59-1.56-3.14-2.23-4.75c-0.44-1.07-0.52-2.3,0.68-2.92c1.22-0.63,2.58-0.71,3.67,0.39
	c0.46,0.47,0.78,1.08,1.22,1.56c2.8,3.05,6.18,5.09,10.55,6.04c-0.49-3.38-2.04-5.77-4.11-7.99c-3.97-4.28-7.87-8.63-11.7-13.04
	c-5.13-5.91-10.15-11.91-15.26-17.85c-2.22-2.58-3.78-5.31-3.46-8.94c0.62-6.97-1.4-13.53-3.68-19.99
	c-1.54-4.35-3.25-8.64-4.86-12.96c-0.27-0.72-0.44-1.47-0.63-2.22c-0.51-2.01-0.73-4.16-1.59-6.02c-1.44-3.13-2.66-6.54-6.43-8.75
	c0,1.53-0.21,2.73,0.04,3.82c0.86,3.87,1.8,7.72,2.85,11.54c1.34,4.85,2.36,9.77,4.98,14.26c1.33,2.28,1.63,5.23,2.09,7.93
	c0.39,2.31-1.4,3.57-3.53,2.57c-4.02-1.89-6.66-4.99-7.73-9.36c-0.52-2.14-1.07-4.28-1.62-6.41c-0.3-1.16-0.79-2.29-0.96-3.47
	c-0.58-4.02-0.74-8.07-2.45-11.92c-0.96-2.17-1.32-4.7-1.47-7.1c-0.25-3.96-0.08-7.93-1.35-11.8c-0.52-1.6-0.41-3.39,1.56-4.22
	c1.33-0.56,1.32-1.55,1.18-2.73c-0.91-7.56,0.39-14.96,1.78-22.33c0.81-4.28,0.91-8.53,0.26-12.84c-0.36-2.39-0.74-4.84-0.58-7.22
	c0.13-1.95-0.15-3.66-0.79-5.35c-3.39-0.2-4.14-1.04-3.33-4.04c0.78-2.87,1.56-5.79,2.78-8.48c2.8-6.19,5.91-12.25,8.79-18.41
	c0.39-0.83,0.18-1.94,0.24-2.92c-1.11,0.41-1.66,0.93-2.04,1.56c-2.38,3.95-4.66,7.96-7.09,11.87c-3.88,6.23-9.16,10.9-15.8,14.1
	c-3.86,1.86-6.27,5.11-7.46,9.19c-0.66,2.23-1.18,2.91-3.37,2.5c-2.8-0.52-5.55-1.33-8.32-2.06c-1.04-0.28-2.04-0.68-3.18-1.07
	c-0.22,0.67-0.38,1.07-0.49,1.48c-1.97,7.65-1.55,15.55-2.35,23.32c-1.44,13.91,0.82,27.76,2.74,41.5
	c1.06,7.55,0.52,15.18,2.16,22.7c1.57,7.18,1.85,14.63,3.06,21.9c1.05,6.3,2.58,12.52,3.95,18.77c0.54,2.46,1.01,4.97,1.85,7.33
	c1.04,2.9,2.37,5.71,3.72,8.49c1.05,2.17,2.04,4.47,3.53,6.31c2.98,3.68,6.2,7.18,9.51,10.57c2.94,3.01,4.89,6.5,6.16,10.45
	c0.24,0.73,0.34,1.53,0.69,2.2c2.55,4.99,5.14,9.97,7.75,14.93c0.3,0.57,0.75,1.1,1.23,1.54c2.83,2.62,5.61,5.3,8.59,7.74
	c0.9,0.73,2.49,1.2,3.6,0.98c2.01-0.41,3.36,0.03,4.66,1.56c5.67,6.7,13.19,10.58,21.25,13.54c2.67,0.98,5.49,1.57,8.27,2.27
	c5.78,1.44,11.56,2.89,17.36,4.21c1.78,0.4,3.67,0.58,5.49,0.52c6.36-0.21,12.26-2.63,18.4-3.93c2.04-0.43,4.03-1.12,6.05-1.68
	c6.14-1.72,11.2-5.67,16.92-8.27c1.67-0.76,3.45-1.59,4.71-2.85c2.33-2.32,4.54-4.83,6.4-7.53c3.86-5.6,8.6-10.67,10.93-17.26
	c0.14-0.4,0.52-0.71,0.75-1.09c2.81-4.58,5.66-9.14,8.4-13.76c2.3-3.88,4.48-7.84,6.73-11.75c1.04-1.81,2.19-3.56,3.16-5.41
	c1.94-3.7,4.03-7.35,5.6-11.21c1.11-2.71,1.55-5.71,2.12-8.62c0.83-4.19,1.68-8.39,2.19-12.63c0.46-3.86,1.26-7.59,2.78-11.15
	c0.24-0.57,0.77-1.04,1.25-1.47C690.13,602.66,691.54,604.25,693.22,605.18z M517.24,171.41c1.11-0.62,1.58-0.85,2.03-1.14
	c5.59-3.64,9.09-9.12,12.96-14.35c2.47-3.33,5.49-6.26,8.3-9.33c0.89-0.97,1.88-1.86,2.88-2.73c3.56-3.1,6.8-6.73,10.78-9.16
	c7.9-4.82,16.2-8.99,24.34-13.42c2.13-1.16,4.29-2.27,6.4-3.46c5.95-3.37,11.77-6.98,17.85-10.09c6.77-3.47,13.68-6.7,20.68-9.65
	c5.7-2.4,11.57-2.81,17.23,0.53c1.12,0.66,2.4,1.21,3.67,1.46c6.46,1.27,12.31,4.12,18.19,6.88c2.19,1.02,4.41,2.03,6.44,3.33
	c5.02,3.23,10.86,5.22,14.5,10.53c3.8,5.54,8.06,10.75,11.21,16.74c1.32,2.51,3.19,4.72,4.59,7.2c1.78,3.15,3.98,6.27,4.79,9.69
	c0.74,3.13,2.38,5.41,4.15,7.89c-0.44-4.96-1.06-9.85-2.01-14.68c-0.98-4.96-2.12-9.89-3.48-14.75c-1.31-4.65-2.87-9.24-4.55-13.77
	c-1.41-3.8-3.13-7.48-4.75-11.19c-1.46-3.33-2.65-6.83-4.53-9.91c-3.15-5.15-6.76-10.02-10.18-15.01c-0.31-0.45-0.68-0.91-0.84-1.42
	c-2.16-6.79-8.24-10.16-12.88-14.79c-0.22-0.22-0.63-0.24-0.89-0.42c-3.61-2.51-7.21-5.02-10.81-7.54c-2.79-1.95-5.42-4.19-8.4-5.75
	c-1.96-1.03-4.41-1.3-6.69-1.52c-4.71-0.46-9.54-1.38-14.16-0.82c-7.41,0.89-14.74,2.65-22.03,4.37c-3.92,0.93-7.68,2.57-11.52,3.83
	c-4.93,1.62-9.48,3.96-14.02,6.47c-4.99,2.77-10.24,4.99-14.97,8.32c-5.12,3.6-10.74,6.49-16.06,9.82
	c-2.78,1.74-5.39,3.74-8.07,5.64c-1.07,0.76-2.16,1.52-3.16,2.36c-5.07,4.26-7.45,10.34-10.38,15.97
	c-2.33,4.48-3.95,9.33-5.82,14.04c-1.17,2.95-2.49,5.88-3.28,8.94c-1.74,6.7-3.51,13.38-5.98,19.86c-1.21,3.18-2.47,6.37-3.37,9.65
	c-1.78,6.48-3.28,13.05-5,19.55c-0.79,2.98-1.87,5.89-2.73,8.86c-0.41,1.43-0.71,2.94,0.21,4.59c0.74-0.46,1.46-0.67,1.78-1.14
	c1.96-2.91,4.1-5.75,5.65-8.87c2.78-5.58,5.03-11.43,7.82-17.01c2.01-4.02,4.2-8.05,6.94-11.58c3.18-4.1,6.35-8.09,8.4-12.92
	c0.85-1.99,2.11-3.84,3.4-5.6c2.7-3.7,5.54-7.31,8.34-10.95c1.07-1.39,3.34-1.91,4.44-1.06c1.11,0.85,1.38,2.73,0.35,4.22
	c-1.43,2.07-3.05,4.01-4.6,5.99c-2.24,2.87-5.11,5.44-6.57,8.66c-2.17,4.78-5.49,8.75-8,13.25c-0.53,0.95-1.23,1.8-1.81,2.73
	c-2.15,3.46-4.29,6.91-6.38,10.4C517.36,169.55,517.43,170.15,517.24,171.41z M542.9,419.4c-0.17-1.17-0.56-1.98-0.33-2.55
	c1.15-2.85,2.08-5.9,3.78-8.4c5.91-8.66,7.77-18.36,7.83-28.53c0.02-3.05-0.93-6.09-1.18-9.16c-0.58-6.95-2.32-13.66-4.1-20.35
	c-1.12-4.23-1.93-8.64-4.88-12.17c-0.2-0.24-0.27-0.6-0.39-0.91c-1.12-2.85-1.82-5.96-3.43-8.49c-3.76-5.91-7.07-12.13-12.6-16.83
	c-4.38-3.73-8.86-6.96-14.66-7.72c-3.81-0.5-7.67-0.78-11.51-0.88c-2.58-0.07-4.96,0.72-6.79,2.83c-0.92,1.06-2.14,1.9-3.3,2.72
	c-1.13,0.81-1.76,1.74-2.08,3.17c-1.02,4.57-1.33,9.16-1.25,13.83c0.17,10.7,0.2,21.41-1.42,32.03c-1.4,9.15-2.99,18.28-3.41,27.55
	c-0.31,6.83-0.61,13.67-0.58,20.5c0.02,6.51,0.47,13.02,0.73,19.53c0.02,0.55-0.06,1.13,0.07,1.65c1.05,4.36-0.63,8.52-0.98,12.77
	c-0.39,4.8-1.97,9.51-2.22,14.3c-0.41,7.72-0.17,15.47-0.16,23.21c0,2.17,0.62,3.01,2.72,2.79c2.36-0.24,4.81-0.81,6.92-1.85
	c2.03-0.99,4.14-2.01,6.01-3.17c6.36-3.93,12.85-7.95,15.47-15.66c0.45-1.32,1.49-2.31,2.69-1.99c2.34,0.63,3.14-0.88,4.2-2.29
	c0.86-1.15,1.83-2.2,2.7-3.34c2.21-2.88,4.4-5.79,6.56-8.71c0.15-0.2,0.02-0.59,0.02-1.14c-1.86,0.23-3.58,0.45-5.3,0.67
	c-0.11-0.27-0.21-0.54-0.32-0.8c1.12-0.98,2.28-1.92,3.35-2.95c1.49-1.43,3.27-2.72,4.3-4.44c1.91-3.18,3.29-6.67,5.02-9.97
	c0.9-1.73,1.85-3.52,3.17-4.91c1.49-1.57,3.1-1.11,3.88,0.87c1.06,2.72,1.51,5.52,0.75,8.43c-0.55,2.13-1.06,4.29-1.43,6.46
	c-0.14,0.81,0.16,1.69,0.26,2.55c0.25-0.01,0.51-0.01,0.76-0.02c3.36-7.97,6.78-15.93,7.22-24.82
	C547.03,415.11,546.06,417.81,542.9,419.4z M513.15,685.08c-2.21-5.02-4.23-9.73-6.35-14.39c-0.54-1.18-1.3-2.29-2.15-3.28
	c-3.59-4.18-7.28-8.29-10.87-12.47c-0.85-0.99-1.7-2.09-2.19-3.28c-3.07-7.5-6.56-14.72-8.13-22.91
	c-1.84-9.62-3.25-19.31-5.12-28.91c-0.9-4.64-1.37-9.36-1.89-14.06c-0.36-3.29-0.38-6.61-0.73-9.9c-0.77-7.11-1.69-14.21-2.48-21.32
	c-0.44-3.94-0.94-7.9-1.03-11.86c-0.15-6.84-0.32-13.71,0.09-20.53c0.37-6.24,1.55-12.42,2.28-18.64c0.51-4.29-0.61-5.56-5.09-6.35
	c-0.93-0.17-1.97-0.48-2.68-1.07c-2.38-1.96-4.65-4.06-6.92-6.14c-1.18-1.08-1.61-2.48-0.79-3.9c1.81-3.12,0.32-5.82-1.08-8.4
	c-2.46-4.53-5.15-8.94-7.8-13.36c-0.89-1.47-1.66-3.14-4.09-4.07c0.35,1.36,0.51,2.18,0.78,2.95c0.72,2.07,1.64,4.08,2.21,6.18
	c1.47,5.43,2.8,10.89,4.15,16.34c0.21,0.85,0.3,1.74,0.31,2.62c0.02,3.02-1.64,4.26-4.47,3.22c-1-0.37-1.83-1.19-2.74-1.79
	c-0.68-0.44-1.38-0.86-2.84-1.77c0.35,2.51,0.26,4.31,0.87,5.83c1.61,4,1.33,8.21,1.75,12.34c0.21,2.06-1,3.28-2.76,3.42
	c-1.81,0.14-3.17-1.2-3.32-3.29c-0.11-1.54-0.11-3.09-0.34-4.61c-0.72-4.78-1.8-9.52-2.19-14.33c-0.21-2.54-1-4.1-3.22-5.17
	c-2.08-1-4.26-1.92-6.07-3.3c-3.68-2.79-7.1-5.91-10.7-8.8c-1.37-1.1-2.86-2.1-4.43-2.86c-2.13-1.03-4.2-0.99-6.1,0.85
	c-1.41,1.37-2.96,2.76-4.7,3.62c-4.02,1.97-6.51,5.55-9.44,8.63c-1.1,1.15-1.63,3.2-1.73,4.88c-0.32,5.24-1.57,10.5,0,15.77
	c0.6,2,0.98,4.08,1.25,6.15c0.25,1.86,1.09,3.25,2.33,4.62c2.57,2.86,5.94,4.54,9.09,6.54c5.81,3.69,11.72,7.26,13.01,14.89
	c0.05,0.31,0.3,0.59,0.44,0.89c2.38,4.78,3.91,9.81,4.31,15.16c0.17,2.28,1.17,3.91,3.44,4.88c0.47-0.58,1.08-1.02,1.24-1.58
	c0.71-2.53,1.4-5.08,1.88-7.66c0.6-3.24,0.97-6.52,1.48-9.78c0.08-0.53,0.34-1.05,0.56-1.55c0.68-1.6,1.64-3.03,3.55-3.03
	c1.99-0.01,2.97,1.6,3.41,3.16c1.17,4.11,2.39,8.25,2.99,12.46c0.6,4.22,0.64,8.54,0.63,12.82c-0.01,6.71-0.29,13.42-0.42,20.13
	c-0.02,1.32,0.1,2.65,0.26,3.96c1.2,9.73,4.67,18.76,8.65,27.61c2.03,4.53,4.38,8.85,7.76,12.63c3.66,4.1,6.77,8.67,10.23,12.95
	c3.33,4.11,6.78,8.12,10.21,12.15c4.86,5.7,9.69,11.43,14.63,17.05c2.19,2.48,4.58,4.8,6.98,7.07
	C503.54,676.69,506.74,682.27,513.15,685.08z M705.32,494.93c1.57-3.86,2.55-7.78,3.49-11.7c0.07-0.31,0.1-0.7-0.02-0.99
	c-0.82-2.03,0.24-3.52,1.2-5.19c1.3-2.27,2.69-4.65,3.22-7.16c0.58-2.75,0.32-5.69,0.28-8.55c-0.08-6.23,1.08-12.29,2.67-18.24
	c1.72-6.45,2.3-13.01,2.69-19.62c0.23-3.85-1.24-6.85-3.84-9.47c-2.55-2.58-5.09-5.17-7.64-7.76c-2.24-2.28-4.61-4.45-6.71-6.86
	c-2.79-3.21-5.96-5.94-9.71-7.89c-1.49-0.78-3.35-0.95-5.07-1.19c-1.36-0.19-2.31,0.37-3.26,1.65c-2.09,2.82-4.48,5.39-7.55,7.3
	c-3.09,1.91-6.08,4.01-8.93,6.27c-3.01,2.39-5.8,5.05-8.69,7.6c-1.11,0.97-2.42,0.79-3.36,0.05c-0.75-0.6-1.63-1.95-1.43-2.67
	c0.84-2.92,1.69-5.97,3.25-8.53c3.86-6.33,9.56-11.13,14.77-16.75c-2.92,0.59-5.59,1.59-8.23,1.54c-2.74-0.04-5.45-1.09-8.28-1.73
	c-0.02,0.05-0.2,0.34-0.23,0.65c-0.97,9.77-2.36,19.47-4.37,29.09c-0.24,1.14-0.13,2.41,0.06,3.58c0.67,4.07,2.31,7.76,4.22,11.43
	c3.52,6.76,4,14.37,5.16,21.71c0.61,3.88,0.86,7.85,1.33,11.77c0.37,3.1,1.01,6.03,1.94,8.95c0.43,1.36,0.85,2.73,1.16,4.11
	c0.92,4.2,1.22,8.63,2.79,12.57c2.07,5.18,4.66,10.24,8.69,14.35c1.77,1.81,3.5,3.68,5.07,5.66c2.38,3.01,5.76,2.92,9.03,3.13
	c0.59,0.04,1.33-0.67,1.81-1.2c0.59-0.64,0.96-1.47,1.46-2.19c2.88-4.16,6.33-7.93,8.07-12.82c0.55-1.56,1.71-2.28,3.41-1.4
	C704.18,494.62,704.61,494.7,705.32,494.93z M709.4,302.56c-3.15,0.26-5.87,0.64-8.59,0.66c-2.07,0.01-3.59,0.84-5.01,2.14
	c-5.03,4.58-8.93,10.08-12.23,15.94c-1.65,2.93-3.7,5.38-5.91,7.85c-2.47,2.77-4.73,5.8-6.62,9c-3.68,6.24-6.42,13.05-11.27,18.58
	c-4.59,5.23-5.22,11.28-4.03,17.52c1.41-1.22,2.85-2.41,4.23-3.68c3.03-2.8,7.03-3.87,10.46-2.54c6.24,2.41,12.52,5.46,13.46,13.48
	c0.2,1.72,1.01,2.78,3,2.81c1.29,0.02,2.78,0.21,3.83,0.88c3.51,2.26,7.21,4.39,10.18,7.26c4.75,4.59,8.95,9.75,13.45,14.61
	c1.08,1.17,2.42,2.09,3.99,3.42c1.67-3.51,2.15-6.72,1.38-9.75c-0.78-3.07-0.86-6.08-0.94-9.17c-0.05-2.08-0.12-4.25-0.71-6.22
	c-0.71-2.39-0.84-4.67-0.66-7.14c0.2-2.61-0.26-5.27-0.32-7.91c-0.11-5.39-0.15-10.79-2.07-15.92c-1.09-2.93-1.84-5.86-1.55-9.02
	c0.07-0.74-0.17-1.52-0.3-2.28c-0.75-4.66-1.52-9.32-2.24-13.99c-0.4-2.61-0.58-5.25-1.05-7.84c-0.7-3.81-1.34-7.55-0.56-11.48
	C709.74,307.69,709.4,305.44,709.4,302.56z M786.36,501.68c-2.66,1.67-5.07,2.97-7.25,4.58c-7.26,5.37-12.48,12.63-18.06,19.58
	c-1.43,1.78-2.68,3.49-2.41,5.91c0.03,0.3-0.12,0.66-0.27,0.94c-1.64,3.09-3.22,6.22-4.97,9.25c-0.87,1.51-2.12,2.79-3.03,4.28
	c-3.19,5.2-6.87,9.98-11.55,13.92c-2.65,2.23-4.68,4.92-6.56,7.78c-0.48,0.73-1.1,1.38-1.64,2.07c-3.25,4.19-6.37,8.56-8.16,13.52
	c-1.32,3.67-3.67,6.7-5.12,10.23c-0.2,0.5-0.61,0.92-0.97,1.34c-2.49,2.92-5.07,5.76-7.47,8.76c-2.61,3.26-5.31,6.49-7.49,10.03
	c-2.58,4.21-7.02,7.09-8.51,12.06c-0.16,0.54-0.95,0.88-1.4,1.36c-0.53,0.55-1.06,1.11-1.53,1.72c-3.54,4.56-5.53,9.99-7.8,15.16
	c-3.34,7.61-7.99,14.43-11.9,21.68c-3.3,6.11-6.85,12.08-10.23,18.15c-0.47,0.84-0.58,1.87-0.85,2.81c0.23,0.11,0.46,0.22,0.69,0.33
	c1.04-0.95,2.22-1.78,3.09-2.87c3.35-4.21,6.56-8.53,9.9-12.74c2.19-2.76,4.61-5.33,6.79-8.09c3.4-4.31,6.59-8.8,10.06-13.06
	c5.22-6.4,10.59-12.69,15.95-18.98c2.72-3.19,5.63-6.21,8.33-9.42c1.34-1.59,2.35-3.45,3.61-5.11c2.54-3.33,5.18-6.58,7.72-9.91
	c0.44-0.58,0.68-1.37,0.82-2.1c0.5-2.59,0.9-5.19,1.37-7.79c0.38-2.1,1.33-3.81,2.81-5.46c1.85-2.07,3.93-4.14,4.03-7.37
	c0.03-0.94,1.16-2.32,2.09-2.66c3.05-1.12,5.12-3.37,7.35-5.49c1.35-1.29,2.67-2.81,4.3-3.57c2.87-1.33,4.75-3.44,6.4-6
	c2.3-3.55,4.16-3.82,7.65-1.39c3.79,2.64,6.49,1.96,8.52-2.13c1.79-3.62,4.49-6.69,5.87-10.62c1-2.83,3.49-5.1,4.75-7.87
	c1.34-2.96,3.71-5.47,3.98-8.92c0.37-4.83,0.84-9.65,1.19-14.48c0.16-2.2,0.07-4.42,0.17-6.62c0.15-3.3,0.41-6.59,0.5-9.89
	C787.18,503.81,786.73,502.99,786.36,501.68z M732.28,424.84c0.51-1.05,1-1.62,1.03-2.22c0.15-2.75,0.52-5.41,1.38-8.07
	c1.38-4.27,2.48-8.63,3.64-12.96c1.05-3.91,2.66-7.79,2.94-11.76c0.71-10.17-0.78-20.25-2.5-30.26c-0.6-3.51-0.82-6.97-0.23-10.53
	c0.82-4.99,0.12-9.65-3.81-13.39c-3.43-3.28-6.77-6.65-10.11-10.02c-1.01-1.02-2.05-2.07-2.75-3.29c-0.32-0.55-0.09-2.04,0.33-2.26
	c0.85-0.45,2.8-0.63,2.9-0.37c0.89,2.28,3.25,2.93,4.67,4.55c2.03,2.33,4.06,4.65,6.12,6.94c0.31,0.34,0.82,0.49,1.47,0.88
	c0.5-11.88-0.38-23.35-0.92-34.75c-6.72-0.35-12.77,0.46-18.67,2.67c-2.51,0.94-3.83,2.48-3.97,5.08c-0.15,2.75-0.36,5.5-0.36,8.26
	c0,2.31,0.2,4.62,0.45,6.92c0.26,2.39,0.72,4.75,1.04,7.13c0.14,1.09,0.08,2.21,0.24,3.3c0.82,5.55,1.67,11.1,2.53,16.64
	c0.08,0.54,0.22,1.08,0.38,1.61c2.56,8.53,3.59,17.26,3.56,26.14c-0.01,2.65-0.37,5.42,0.29,7.92c0.84,3.18,0.85,6.31,0.95,9.51
	c0.07,2.08,0.34,4.17,0.7,6.23c0.59,3.4,0.92,6.74-0.03,10.16c-0.49,1.78-0.58,3.72-0.56,5.58c0.01,1.16,0.24,2.63,0.96,3.4
	C726.33,420.41,728.91,422.78,732.28,424.84z M730.79,531.33c0.42-1.26,0.52-2.43,1.12-3.23c3.05-4.03,6.18-8.01,9.38-11.93
	c3.2-3.92,6.37-7.89,9.84-11.56c2.11-2.23,2.95-5.43,5.87-7.04c2.2-1.22,2.14-2.42,0.18-4.71c-0.28,0.06-0.63,0.06-0.9,0.21
	c-1.6,0.92-3.18,1.07-4.55-0.33c-1.33-1.37-1.24-3.01-0.45-4.61c0.63-1.28,1.44-2.48,2.06-3.76c1.04-2.14,2.51-4.24,2.86-6.5
	c0.36-2.3-0.01-4.92-0.79-7.14c-1.32-3.77-2.08-7.63-2.9-11.5c-0.57-2.68-1.43-5.33-1.75-8.04c-0.23-1.93-0.96-3.27-2.38-4.49
	c-1.58-1.36-3.22-2.75-4.42-4.43c-2.23-3.11-5.19-5.19-8.69-7.39c-0.44,1.43-0.99,2.53-1.08,3.67c-0.49,6.03-0.88,12.06-1.26,18.09
	c-0.08,1.19,0.09,2.4,0.03,3.6c-0.14,2.95-0.35,5.9-0.5,8.86c-0.03,0.54,0.13,1.1,0.09,1.64c-0.36,4.83-0.67,9.67-1.15,14.5
	c-0.16,1.62-0.77,3.19-1.21,4.77c-0.17,0.63-0.55,1.22-0.62,1.86c-0.47,3.82-0.85,7.66-1.33,11.48c-0.16,1.29-0.53,2.56-0.81,3.84
	c-1.28,5.78-3.31,11.37-3.25,17.48C724.26,528.9,726.39,531.52,730.79,531.33z M457.99,288.26c1-0.67,1.46-0.91,1.85-1.24
	c1.07-0.91,2.1-1.88,3.18-2.79c3.77-3.15,8.52-3.98,12.99-5.49c3.24-1.09,6.41-2.29,9.96-2.04c3.35,0.23,4.25-0.8,4.54-4.12
	c0.26-3.07,0.7-6.12,1.07-9.18c0.53-4.36,1.22-8.71,1.55-13.09c0.43-5.59,2.03-11.08,1.48-16.75c-0.04-0.41,0.18-0.86,0.3-1.28
	c1.9-7.04,0.07-13.76-1.8-20.45c-0.33-1.19-1.15-2.24-1.98-3.81c-1.35,1.63-2.45,2.71-3.26,3.98c-1.52,2.41-2.86,4.94-4.3,7.41
	c-3.81,6.56-7.63,13.11-11.42,19.68c-0.55,0.95-0.96,1.98-1.35,3.01c-2.22,5.84-4.09,11.84-6.73,17.48
	c-2.29,4.89-2.94,10.06-4.06,15.17c-0.73,3.33-1.49,6.65-2.12,9.99C457.7,285.71,457.93,286.74,457.99,288.26z M716.27,198.56
	c-0.31,0.01-0.62,0.01-0.93,0.02c-0.13,1.27-0.39,2.54-0.36,3.81c0.12,7.04,0.6,14.08,0.07,21.13c-0.36,4.83-0.59,9.67-0.93,14.51
	c-0.55,7.91-1.47,15.8-1.64,23.71c-0.18,8.37,0.3,16.76,0.58,25.13c0.07,2.19,0.4,4.39,0.72,6.56c0.12,0.81,0.54,1.58,0.92,2.65
	c4.67-1.28,8.9-3.29,13.62-3.13c1.75,0.06,3.51-0.25,5.27-0.42c1.14-0.11,2.31-0.35,2.48-1.72c0.29-2.29,0.87-4.66,0.57-6.89
	c-0.67-5-1.82-9.95-2.76-14.91c-0.63-3.33-1.29-6.66-1.86-10.01c-0.83-4.88-1.44-9.81-2.41-14.66c-0.77-3.87-1.92-7.66-2.93-11.48
	c-1.18-4.46-2.29-8.94-3.6-13.36c-1.47-4.95-3.11-9.86-4.71-14.77C717.7,202.67,716.97,200.62,716.27,198.56z M772.46,349.14
	c-0.05-1.1,0.03-1.54-0.11-1.92c-0.92-2.59-1.93-5.14-2.82-7.74c-1.36-3.96-2.51-8-4.01-11.91c-2.19-5.66-4.55-11.25-6.96-16.81
	c-1.32-3.05-3.49-5.38-6.74-6.43c-0.63-0.21-1.39-0.03-1.69-0.03c0,2.92-0.17,5.57,0.04,8.19c0.26,3.29,0.83,6.55,1.27,9.82
	c0.68,5.13,1.53,10.24,1.96,15.39c0.36,4.37,0.09,8.78,0.35,13.16c0.33,5.38,1.49,10.63,2.72,15.87c0.65,2.78,1.03,5.63,1.56,8.44
	c0.64,3.45,1.28,6.91,1.97,10.35c0.38,1.92,1.08,3.81,1.26,5.75c0.41,4.47,0.04,8.93,1.33,13.41c0.95,3.31,0.53,7.01,0.77,10.53
	c0.3,4.4,0.61,8.79,0.98,13.18c0.4,4.67,2.46,9.21,1.13,14.02c-0.08,0.31-0.03,0.66,0.01,0.99c0.3,2.22,2.04,3.55,4.94,3.55
	c0.12-2.04-0.01-4.15,0.42-6.15c1.07-5.02,1.14-10.08,1.06-15.17c-0.03-1.97,0.37-3.95,0.48-5.93c0.27-4.83,0.49-9.66,0.71-14.49
	c0.02-0.43-0.15-0.87-0.2-1.31c-0.76-7.68-1.41-15.37-2.32-23.03c-0.53-4.47-1.34-8.92-2.3-13.32c-0.91-4.19-2.1-8.33-3.31-12.44
	c-1.24-4.21-2.58-8.39-4.01-12.54c-0.75-2.18-1.83-4.24-2.66-6.39c-0.44-1.13-0.29-2.29,0.97-2.8c1.2-0.49,2.07,0.12,2.77,1.17
	c2.67,4.03,5.36,8.03,8.09,12.01C770.66,347.33,771.39,347.97,772.46,349.14z M723.17,424.2c-0.34,2.74-0.57,4.91-0.88,7.07
	c-0.48,3.37-0.92,6.75-1.55,10.09c-0.97,5.17-2.22,10.29-3.06,15.49c-0.4,2.48-0.25,5.08-0.1,7.61c0.26,4.24-1.06,8-2.95,11.67
	c-0.49,0.94-0.82,2-1.03,3.04c-0.93,4.53-1.61,9.12-2.75,13.59c-0.65,2.51-2.09,4.81-3.07,7.25c-1.13,2.81-2.95,5.29-3.08,8.56
	c-0.16,4.18-1.74,7.89-5.2,10.57c-0.1,0.08-0.01,0.4-0.01,0.96c2.92,0.37,5.8-0.44,8.66-0.8c3.86-0.48,7.7-2.12,11.4,0.74
	c0.75-3.15,1.22-5.98,2.1-8.66c1.2-3.67,2.36-7.36,2.38-11.23c0.02-4.01,0.86-7.73,2.09-11.56c1.25-3.91,1.51-8.2,1.74-12.36
	c0.49-9.02,0.56-18.07,1.06-27.09c0.26-4.71,1.1-9.38,1.6-14.07c0.16-1.51,0.67-3.49-0.04-4.5
	C728.73,428.12,726.59,425.87,723.17,424.2z M466.95,416.62c0.3-0.04,0.6-0.07,0.9-0.11c0.47-2.09,0.95-4.18,1.4-6.28
	c0.56-2.58,0.95-5.21,1.65-7.76c1.66-6.03,3.51-12,5.17-18.02c0.59-2.12,0.69-4.38,1.3-6.49c1.54-5.31,2.57-10.68,2.6-16.22
	c0.02-3.47,0.76-6.76,2.16-9.94c0.98-2.21,0.66-3.72-1.14-5.33c-0.9-0.8-1.87-1.59-2.94-2.14c-3.9-2.04-7.82-4.04-11.8-5.92
	c-0.64-0.3-1.75-0.23-2.35,0.14c-1.55,0.95-2.57,2.27-2.45,4.35c0.12,2.08-0.07,4.2-0.25,6.29c-0.53,6.18-0.26,12.29,1.16,18.34
	c0.23,0.96,0.39,1.97,0.36,2.95c-0.24,6.57,0.67,13.21-1.07,19.7c-0.06,0.21-0.07,0.44-0.06,0.66c0.16,5.37,0.17,10.76,0.53,16.12
	C462.38,410.82,464.79,413.7,466.95,416.62z M695.69,611.7c0.26,0.14,0.52,0.28,0.79,0.42c0.47-0.42,1-0.78,1.39-1.26
	c3.53-4.23,6.93-8.56,10.58-12.68c3.67-4.15,6.53-8.78,9.06-13.66c1.71-3.31,3.2-6.75,5.05-9.99c1.74-3.04,3.75-5.93,5.77-8.8
	c1.64-2.32,3.41-4.55,5.24-6.72c0.92-1.09,2.19-1.86,3.14-2.93c2.62-2.95,5.27-5.89,7.68-9.01c1.4-1.82,2.2-4.1,3.57-5.95
	c3.44-4.68,5.35-10.1,7.62-15.34c0.9-2.09,1.24-4.43,1.72-6.68c0.12-0.57-0.17-1.22-0.33-2.17c-7.34,5.26-14.4,10.32-21.61,15.49
	c0.93,0.42,1.68,0.62,2.26,1.04c1.19,0.87,2.34,1.96,1.59,3.59c-0.67,1.48-2.02,1.65-3.62,1.6c-3.06-0.09-6.13,0.13-9.2,0.29
	c-1.54,0.08-1.96,1.22-2.08,2.53c-0.12,1.31,0.04,2.73-0.39,3.92c-1.39,3.83-3.07,7.55-4.5,11.36c-1.47,3.9-3.11,7.73-3.27,12.05
	c-0.08,2.01-0.92,4.09-1.8,5.96c-2.37,5.07-4.95,10.04-7.44,15.05c-1.66,3.34-3.26,6.71-4.99,10.01c-1.54,2.93-3.25,5.76-4.82,8.67
	C696.54,609.53,696.15,610.64,695.69,611.7z M707.69,264.28c-0.26-0.05-0.51-0.11-0.77-0.16c-1.57,1.98-3.18,3.91-4.69,5.94
	c-3.55,4.77-7.04,9.58-10.56,14.37c-2.86,3.9-5.84,7.73-8.57,11.72c-2.92,4.27-5.68,8.66-8.35,13.09c-1,1.66-1.61,3.56-2.28,5.4
	c-0.82,2.26-1.44,4.52-2.82,6.63c-1.98,3.02-3.4,6.41-4.98,9.69c-1.29,2.67-2.44,5.4-3.67,8.09c-1.21,2.64-1.98,5.39-1.82,8.32
	c0.04,0.66,0.29,1.32,0.62,2.77c1.79-3.33,3.16-5.95,4.6-8.54c2.77-5,5.43-10.02,9.38-14.3c2.75-2.98,4.96-6.46,7.31-9.79
	c1.2-1.69,2.1-3.6,3.3-5.29c3.35-4.7,7.52-8.64,11.79-12.49c1.42-1.28,2.87-1.9,4.76-1.81c1.98,0.1,3.98,0.06,5.96-0.01
	c1.67-0.06,2.69-0.85,2.64-2.69c-0.04-1.66,0.03-3.32-0.06-4.97c-0.4-7.37-0.83-14.74-1.28-22.11
	C708.13,266.85,707.87,265.57,707.69,264.28z M556.86,721.94c2.73,5.95,6.25,10.44,10.58,14.11c2.73,2.32,6.35,3.33,9.93,4.29
	c8.22,2.22,16.25,0.87,24-1.45c4.65-1.39,8.98-4.2,13.06-6.97c2.67-1.81,4.7-4.62,6.87-7.1c0.65-0.74,0.82-1.89,1.2-2.85
	c-0.17-0.17-0.35-0.33-0.52-0.5c-2.64,1.02-5.22,2.28-7.93,3c-5.84,1.57-11.75,2.92-17.65,4.26c-4.48,1.02-8.95,1.19-13.35-0.54
	c-1.02-0.4-2.14-0.54-3.21-0.8c-6.09-1.51-12.18-3.04-18.28-4.53C560.23,722.54,558.87,722.33,556.86,721.94z M465.24,475.11
	c-0.04-0.53-0.01-1.09-0.13-1.6c-0.88-3.64-1.81-7.26-2.71-10.9c-2.16-8.81-1.42-17.5,1.07-26.12c0.64-2.2,1.82-4.55,1.53-6.65
	c-0.66-4.76-1.91-9.45-4.09-13.85c-1.05-2.13-1.64-4.51-2.3-6.82c-0.58-2.04-0.96-4.13-1.43-6.2c-1.58,3.65-2.83,7.28-3.72,10.99
	c-0.89,3.74-1.64,7.54-2.03,11.35c-0.45,4.39-0.29,8.83-0.67,13.23c-0.32,3.72-0.8,7.47-1.67,11.09c-0.78,3.23-0.34,5.01,2.44,6.86
	c1.05,0.7,2.08,1.65,2.71,2.72c1.88,3.23,3.67,6.53,5.26,9.91C460.73,471.72,462.74,473.48,465.24,475.11z M743.47,345.34
	c-0.28,0.95-0.55,1.54-0.62,2.16c-0.93,7.88,1.02,15.59,1.76,23.35c0.28,2.91,0.94,5.84,0.96,8.82c0.02,4.2,0,8.4-0.04,12.59
	c-0.01,0.98-0.01,2.04-0.35,2.93c-2.59,6.79-4.87,13.66-6.79,20.7c-1.07,3.95-0.32,7.92-1.4,11.76c-0.1,0.36,0.18,0.85,0.33,1.26
	c0.87,2.24,5.25,5.75,8.19,6.39c-0.24-1.18-0.56-2.22-0.64-3.28c-0.28-3.62-0.63-7.24-0.63-10.86c0-1.82,1.02-3.63,1.06-5.46
	c0.15-5.77,1.12-11.37,2.61-16.94c1.16-4.35,2.19-8.76,2.92-13.21c0.71-4.32,0.51-8.79,2.23-12.95c0.19-0.46,0.08-1.1-0.04-1.62
	c-1.5-6.77-3.01-13.53-4.56-20.29C747.88,348.15,746.35,346.41,743.47,345.34z M478.17,398.35c-0.27-0.05-0.54-0.09-0.8-0.14
	c-1.28,2.73-3,5.26-3.49,8.34c-0.35,2.16-0.54,4.34-0.86,6.5c-0.75,5-1.86,9.98-2.22,15c-0.26,3.68-0.44,7.39-0.12,11.16
	c0.46,5.37,0.07,10.81-0.04,16.22c-0.04,1.87-0.46,3.73-0.44,5.59c0.05,5.68,0.29,11.36,0.29,17.04c0,1.28,0.49,1.85,1.5,2.19
	c2.13,0.72,3.62-0.24,3.78-2.78c0.23-3.63,0.15-7.28,0.18-10.93c0.04-4.86-0.27-9.75,0.19-14.57c0.59-6.21,2.09-12.34,2.61-18.55
	c0.46-5.44,0.2-10.94,0.09-16.42c-0.08-3.85-0.48-7.69-0.64-11.54C478.09,403.1,478.17,400.72,478.17,398.35z M456.47,315.93
	c0.26,0.04,0.52,0.08,0.78,0.12c0.48-0.84,0.97-1.68,1.45-2.53c1.03-1.82,1.89-3.75,3.09-5.44c3.67-5.19,8.67-8.66,14.61-10.83
	c2.68-0.98,5.35-2,7.98-3.12c0.76-0.32,1.81-0.93,1.96-1.58c0.69-2.99,1.16-6.03,1.6-9.07c0.24-1.67-0.83-2.59-2.33-2.55
	c-2.61,0.06-5.22-0.01-7.74,1.17c-2.38,1.12-4.98,1.75-7.42,2.72c-1.5,0.6-3.14,1.18-4.3,2.23c-2.84,2.58-5.51,5.36-8.11,8.18
	c-1.19,1.29-1.97,2.84-1.97,4.76c-0.01,2.72-0.44,5.45-0.39,8.17C455.75,310.77,456.2,313.35,456.47,315.93z M755.29,386.86
	c-0.24,1.64-0.35,2.55-0.51,3.45c-0.19,1.08-0.15,2.31-0.68,3.19c-2.3,3.81-2.29,8.23-3.18,12.35c-1.33,6.09-1.75,12.38-2.67,18.56
	c-0.68,4.55,0.57,8.84,2.27,12.84c1.87,4.39,6.57,4.84,10.69,6.46c0.89-5.43-0.1-10.34-0.13-15.25c0-0.21-0.1-0.43-0.16-0.64
	c-0.99-4.24-2.36-8.42-1.67-12.9c0.14-0.95-0.16-1.97-0.27-2.95c-0.32-2.96-0.71-5.91-0.94-8.87
	C757.63,397.88,757.54,392.63,755.29,386.86z M435.09,345.32c0.47-0.34,0.78-0.47,0.96-0.7c5.22-6.53,10.47-13.06,15.61-19.65
	c0.61-0.78,0.97-2.01,0.93-3.01c-0.14-3.83-0.45-7.66-0.78-11.48c-0.07-0.79-0.52-1.54-0.94-2.75c-1.02,1.2-1.89,1.92-2.37,2.84
	c-2.42,4.68-4.74,9.41-7.07,14.14c-0.83,1.68-1.69,3.35-2.35,5.1c-1.23,3.28-2.26,6.64-3.5,9.92
	C434.89,341.52,434.68,343.25,435.09,345.32z M483.6,317.81c-0.27-0.07-0.53-0.15-0.8-0.22c-0.71,0.65-1.48,1.25-2.13,1.96
	c-2.12,2.35-4.18,4.77-6.3,7.12c-1.47,1.64-3.06,3.17-4.48,4.84c-0.94,1.11-1.24,2.42,0.08,3.5c3.37,2.75,7.35,4.38,11.36,5.89
	c1.39,0.53,2.35-0.23,2.49-1.77c0.06-0.66,0.07-1.32,0.07-1.98c0.01-5.51,0.03-11.03,0.01-16.54
	C483.89,319.68,483.7,318.75,483.6,317.81z M748.99,343.38c1.17-7.1-0.49-13.3-1.4-19.4c-0.96-6.4-1.93-12.76-2.21-19.23
	c-0.04-0.98-0.1-2.01-0.44-2.91c-0.24-0.63-1.03-1.52-1.5-1.47c-0.73,0.07-1.84,0.72-1.99,1.33c-0.39,1.56-0.83,3.38-0.37,4.82
	c1.15,3.56,1.03,7.16,1.05,10.78c0.03,4.17-0.06,8.34,0.01,12.51c0.03,1.97,0.22,3.96,0.52,5.91
	C743.19,339.29,745.88,341.09,748.99,343.38z M546.05,453.06c-2.27-1.44-2.75-3.22-1.78-5.51c1.63-3.84,3.09-7.76,4.73-11.6
	c1.68-3.94,3.61-7.77,5.18-11.75c1.56-3.97,2.7-8.1,4.23-12.08c1.06-2.77,1.65-7.57,0.83-11.25c-0.98,1.22-2.07,2.09-2.51,3.21
	c-0.96,2.43-1.62,4.98-2.34,7.51c-1.26,4.42-2.41,8.88-3.73,13.28c-0.85,2.84-1.89,5.63-2.85,8.44c-0.89,2.6-1.57,5.3-2.74,7.77
	c-2.25,4.76-4.84,9.37-7.19,14.09c-1.24,2.5-2.7,5.01-1.75,8.38C539.94,460.49,543.23,457.32,546.05,453.06z M565.21,410.87
	c1.29,3.71,2.22,7.07-0.61,10.39c-1.08,1.27-1.52,3.13-2.12,4.76c-0.27,0.72-0.23,1.55-0.4,2.84c2.48-1.11,4.07-2.35,5.38-3.94
	c2.3-2.8,4.48-5.69,6.83-8.45c1.05-1.23,1.31-2.5,0.97-3.97c-1.33-5.89-2.67-11.77-4.04-17.65c-0.23-0.99-0.66-1.93-0.99-2.9
	c-0.26,0.02-0.52,0.04-0.78,0.05c-0.34,1.95-1.09,3.66-0.86,5.91c0.34,3.36,0.09,6.83-0.38,10.18
	C568.04,409.1,566.31,409.89,565.21,410.87z M548.92,320.99c-3.27-5.56-6.16-10.63-10.52-14.65c-2.35-2.17-4.67-4.37-7.09-6.47
	c-1.33-1.15-2.78-2.19-4.28-3.12c-1.67-1.04-3.47-1.82-6.22-1.61c1.04,1.6,1.7,2.94,2.65,4.04c4.1,4.76,8.1,9.64,12.51,14.11
	C539.39,316.75,542.89,320.45,548.92,320.99z M678.02,382.73c0.27,0.12,0.55,0.24,0.82,0.36c0-1.01,0.33-2.18-0.05-3.02
	c-2.06-4.48-5.97-6.21-10.6-6.79c-3.71-0.47-6.47,1.14-8.33,4.15c-0.75,1.21-1.33,3.06-0.95,4.29c0.54,1.75,2.79,1.83,4.29,1.64
	c3.37-0.41,6.7-1.04,10.13-0.71C674.89,382.81,676.46,382.71,678.02,382.73z M655.83,467.36c0.19-0.08,0.38-0.15,0.56-0.23
	c-0.15-1.28-0.26-2.56-0.46-3.84c-0.45-2.93-1.08-5.83-1.37-8.77c-0.64-6.58-1.57-13.11-3.67-19.39c-0.66-1.97-0.97-4.36-3.77-5.52
	c-0.32,0.83-0.85,1.57-0.85,2.31c0.06,4.82,0.34,5.36,3.81,8.48c-0.18,0.25-0.31,0.58-0.56,0.75c-2.48,1.76-2.41,1.74-1.66,4.47
	c0.58,2.11,0.96,4.28,1.39,6.43c0.5,2.47,0.53,5.13,1.53,7.36C652.06,462.23,654.11,464.72,655.83,467.36z M561.91,352.25
	c-3.53,0.81-3.92,1.32-3.51,4.42c0.07,0.54,0.22,1.08,0.37,1.61c2.07,7.4,4.45,14.73,5.12,22.46c0.11,1.26,0.71,2.47,1.12,3.81
	c1.12-0.23,1.94-0.4,2.73-0.57C566.88,369,564.38,356.57,561.91,352.25z M492.23,292.13c4.97-0.88,9.59-1.7,14.22-2.52
	c0.05-0.31,0.09-0.61,0.14-0.92c-4.07-2.79-7.68-6.44-13.21-6.75C491.71,285.19,491.72,288.37,492.23,292.13z M657.8,505.05
	c-0.16-1.4-0.2-2.91-0.53-4.36c-0.89-3.97-3.66-6.94-5.71-10.29c-0.78-1.27-1.66-2.47-2.52-3.76c-1.85,1.13-2.05,2.57-1.5,3.96
	c1.71,4.38,3.45,8.75,5.44,13.01C653.75,505.25,655.32,506.26,657.8,505.05z M737.52,261.77c0.09,1.85,0.01,3.24,0.24,4.59
	c0.67,3.99,1.31,8.01,2.25,11.94c0.82,3.43,1.93,6.75,0.88,10.34c-0.26,0.89-0.05,2,0.2,2.94c0.33,1.24,0.84,2.49,2.4,2.78
	C744.95,289.24,740.84,265.84,737.52,261.77z M552.79,332.2c-1.15,2.9-1.26,2.99,0.16,4.73c1.06,1.3,1.49,2.64,1.35,4.26
	c-0.26,3.05,1.26,5.55,2.68,8.03c0.32,0.57,1.41,0.99,2.13,0.97c1.04-0.04,1.89-0.79,1.78-1.99c-0.11-1.18-0.19-2.45-0.67-3.5
	c-1.59-3.45-3.3-6.86-5.11-10.21C554.63,333.61,553.64,333.02,552.79,332.2z M759.44,468.01c1.88-1.89,1.89-4.08,1.88-6.31
	c0-2.19,0.24-4.38-1.33-6.27c-0.39-0.46-0.4-1.24-0.57-1.88c-0.66-2.41-1.19-2.81-4.17-3.17
	C754.75,452.65,757.39,463.88,759.44,468.01z M527.55,486.23c-1.45,1.79-2.62,3.11-3.63,4.53c-0.56,0.78-1.18,1.71-1.24,2.61
	c-0.3,4.53-0.43,9.08,0.94,13.56C525.49,500.26,528.57,493.85,527.55,486.23z M677.91,390.27c-2.04-1.02-3.52-0.59-4.71,0.47
	c-3.59,3.21-7.12,6.5-10.59,9.85c-0.61,0.59-0.86,1.56-1.36,2.52c0.73,0,0.99,0.08,1.14-0.01c4.82-3.21,9.92-6.03,14.08-10.15
	C677.14,392.29,677.41,391.23,677.91,390.27z M641.77,455.67c-1.62,1.49-2.17,3.11-2.38,5.09c-0.51,4.82,0.99,9.34,1.76,13.97
	c0.02,0.12,0.31,0.19,0.68,0.41c0.18-2.03,0.23-3.98,0.56-5.89c0.33-1.92,1.37-3.81,1.32-5.7
	C643.63,460.92,643.69,458.07,641.77,455.67z M498.32,210.94c0.97-4.54,1.83-8.56,2.73-12.76c-3.18-0.05-4.1,2.45-4.78,4.18
	C495.18,205.11,495.28,208.17,498.32,210.94z M577.81,669.11c-3.24-1.69-5.77-4.62-9.86-4.58
	C568.4,671.07,573.8,672.68,577.81,669.11z M746.96,517.06c0.89-0.51,1.27-0.65,1.56-0.9c3.09-2.64,6.22-5.24,9.2-8.01
	c0.59-0.55,0.72-1.77,0.71-2.68c0-0.3-1.07-0.7-1.7-0.83c-0.25-0.05-0.66,0.51-0.93,0.84c-2.66,3.2-4.84,6.79-7.96,9.62
	C747.5,515.42,747.42,516.01,746.96,517.06z M467.17,309.98c3.5-0.65,5.38-3.9,8.4-5.28c3.11-1.42,6.31-2.63,9.57-3.98
	c-0.97-1.03-2.22-0.86-3.3-0.48C476.14,302.24,470.83,304.87,467.17,309.98z M666.65,519.9c-0.06,3.48,0.08,3.91,1.8,4.72
	c2.71,1.28,5.05,0.22,7.98-1.46C672.89,521.97,669.93,520.98,666.65,519.9z M637.22,426.12c-4.63,2.68-4.84,7.08-0.66,10.09
	C636.2,432.81,638.66,429.83,637.22,426.12z M713.3,526.67c2.5,1.78,3.81,2.12,6.86,1.71c-0.09-1.61-0.19-3.25-0.29-4.99
	C716.3,524.33,715.08,524.95,713.3,526.67z M516.81,300.23c-4.78-5.73-6.34-5.96-9.55-1.7
	C510.32,299.08,513.31,299.61,516.81,300.23z M770.62,478.29c-1.76,1.69-3.52,3.39-5.51,5.3c0.98,1.08,1.65,1.81,2.25,2.47
	C770.04,484.08,770.86,481.56,770.62,478.29z M498.69,297.19c-2.34-1.49-5.93-0.62-7.72,1.79
	C493.76,299.37,496.37,299.91,498.69,297.19z M490.36,484.86c-2.95-0.66-5.25-0.33-7.57,1.11
	C485.81,487.75,487.23,487.57,490.36,484.86z M558.71,393.3c2.32-3.13,2.32-3.3,0.03-6.87C558.05,388.82,556.91,390.84,558.71,393.3
	z M444.81,475.68c-0.27,0-0.55,0-0.82-0.01c-0.21,1-0.46,1.99-0.61,3c-0.32,2.25-0.1,2.41,2.85,1.86
	C445.74,478.89,445.27,477.28,444.81,475.68z M572.93,430.75c-2.35,0.98-3.56,2.32-3.88,4.6
	C572.57,434.49,572.72,434.33,572.93,430.75z M684.53,528.18c2.44,0.69,4.95,1.6,7.54-0.75
	C689.22,526.41,686.92,527.81,684.53,528.18z M472.14,488.36c-2.38-2.9-3.12-3.36-5.03-3.1
	C469.1,488.32,469.93,488.83,472.14,488.36z"/>
</svg>
