<?xml version="1.0" encoding="utf-8"?>
<!-- Generator: Adobe Illustrator 24.1.0, SVG Export Plug-In . SVG Version: 6.00 Build 0)  -->
<svg version="1.1" id="Layer_1" xmlns="http://www.w3.org/2000/svg" xmlns:xlink="http://www.w3.org/1999/xlink" x="0px" y="0px"
	 viewBox="0 0 1224 792" style="enable-background:new 0 0 1224 792;" xml:space="preserve">
<path d="M666.04,450.41c4.95-5.69,6.34-5.84,10.25-0.32c4.11,5.81,10.17,7.8,16.5,8.92c5.43,0.96,11.05,0.91,16.6,1.19
	c1.79,0.09,3.63,0,5.38-0.33c1.82-0.34,3.32-0.36,4.08,1.64c0.86,2.23,0.03,3.76-2.03,4.79c-3.08,1.54-6.15,3.12-9.21,4.71
	c-1.86,0.96-3.83,1.78-5.52,3c-2.23,1.6-1.94,3.03,0.38,4.33c10.84,6.09,21.63,12.26,32.45,18.38c9.58,5.42,19.53,10.01,30.23,12.74
	c2.44,0.62,5.08,0.36,7.62,0.66c7.16,0.84,14.09,2.45,21.04,4.53c10.32,3.08,20.93,5.35,31.55,7.14c5.51,0.92,11.26,0.38,16.99-0.41
	c8.29-1.14,16.76-1.17,25.16-1.34c5.73-0.12,11.43-0.05,16.95-1.88c0.56-0.19,1.3,0.01,1.77-0.28c8.83-5.4,19.61-5.21,28.66-10.38
	c7-4,14.89-6.53,20.76-12.33c7.95-7.86,17.2-14.66,22.01-25.2c1.97-4.32,2.91-9.1,4.82-13.45c1.03-2.36,3.1-4.27,4.75-6.34
	c1.58-1.98,3.26-3.87,4.83-5.85c3.36-4.27,7.67-7.49,11.99-10.66c5.07-3.71,10.34-7.14,15.38-10.89c1.77-1.32,3.08-3.24,4.65-4.83
	c1.36-1.37,2.67-2.84,4.22-3.97c2.93-2.14,4.27-2,6.18,0.26c1.34,1.58,1.41,5.18-0.63,6.47c-4.84,3.06-7.63,7.96-11.46,11.89
	c-5.31,5.44-10.02,11.47-15,17.24c-0.78,0.91-1.71,1.68-2.5,2.59c-4,4.65-8.11,9.2-11.91,14.01c-7.26,9.19-14.44,18.41-23.03,26.46
	c-5.91,5.54-11.22,11.75-17.33,17.04c-7.33,6.34-14.39,13.12-23.4,17.35c-2.87,1.35-5.21,4.02-7.51,6.36
	c-1.74,1.76-3.45,2.92-6,3.51c-4.2,0.97-8.16,2.96-12.33,4.12c-4.32,1.21-8.84,1.71-13.15,2.95c-3.28,0.94-6.32,2.67-9.54,3.83
	c-2.05,0.74-4.24,1.52-6.37,1.5c-7.65-0.08-15.3-0.44-22.95-0.78c-6.29-0.28-12.58-0.67-18.87-1.04c-0.59-0.03-1.21-0.19-1.73-0.45
	c-6.95-3.52-14.38-3.65-21.96-3.56c-7.91,0.09-15.89,0.6-23.72-1.19c-2.02-0.46-3.97-1.22-5.98-1.71
	c-4.49-1.11-8.96-2.37-13.51-3.14c-5.03-0.86-10.14-1.22-15.2-1.86c-7.57-0.95-15.12-2.1-22.71-2.88
	c-5.51-0.56-9.99-3.25-14.13-6.47c-5.17-4.02-11.55-4.89-17.3-7.39c-0.59-0.25-1.43,0.09-2.49,0.18c0,1-0.32,2.03,0.05,2.64
	c2.13,3.44,4.36,6.82,6.72,10.1c0.65,0.9,1.81,1.61,2.88,1.97c10.47,3.53,19.34,9.44,26.94,17.43c4.02,4.23,8.04,8.62,12.73,12.02
	c6.89,4.99,13.71,10.29,21.96,13.06c0.71,0.24,1.53,0.32,2.11,0.74c1.64,1.17,4.01,1.9,3.7,4.57c-0.17,1.49-3.66,4.09-5.59,3.92
	c-2.05-0.19-4.16-0.68-6.04-1.51c-4.03-1.77-8.04-3.11-12.57-2.77c-7.89,0.58-14.97-2.8-22.25-5.03c-3.28-1.01-6.38-2.6-9.6-3.84
	c-1.33-0.51-2.74-0.8-4.99-1.43c0.52,1.78,0.54,2.84,1.07,3.51c8.03,10.22,18.24,16.54,31.31,18.55c7.99,1.23,15.76,3.89,23.72,5.41
	c6.48,1.23,13.09,1.71,19.65,2.52c0.89,0.11,1.81,0.11,2.68,0.31c1.56,0.35,2.79,1.04,2.81,2.97c0.02,1.91-0.73,3.29-2.58,3.72
	c-1.44,0.34-3.01,0.59-4.46,0.38c-5.65-0.79-11.31-1.56-16.88-2.72c-11.9-2.48-23.76-5.19-35.63-7.84
	c-8.14-1.81-14.29-6.91-19.83-12.68c-3.4-3.54-6.16-7.7-9.2-11.59c-0.55-0.7-0.94-1.59-1.62-2.13c-2.39-1.88-2.66-4.27-1.76-6.88
	c0.61-1.77,0.63-3.15-1.16-4.26c-6.1-3.81-12.16-7.69-18.26-11.5c-0.47-0.29-1.12-0.28-2.07-0.49c-0.76,3.95-1.53,7.72-2.19,11.5
	c-0.72,4.13-1.29,8.28-2.06,12.4c-0.18,0.99-0.82,1.92-1.36,2.82c-1.48,2.49-3.54,2.66-5.26,0.29c-0.95-1.31-1.56-2.88-2.21-4.38
	c-0.88-2.03-1.65-4.11-2.55-6.37c-2.3,1.35-2.57,3.22-2.62,5.18c-0.13,4.51-0.13,9.03-0.39,13.53c-0.32,5.53-0.53,11.05,0.37,16.54
	c0.55,3.38,1.25,6.73,1.73,10.12c0.9,6.36,1.72,12.74,2.54,19.11c0.96,7.42,1.85,14.85,2.85,22.26c0.28,2.05,0.88,4.06,1.3,6.09
	c0.18,0.87,0.39,1.77,0.39,2.65c0.05,6.59,0.08,13.18,0.04,19.77c-0.01,2.19,0.25,4.2,2.06,5.69c2.07,1.7,2.17,4.07,1.4,6.21
	c-1.68,4.68-1.4,9.48-1.41,14.28c-0.03,7.69-1.61,15.14-3.25,22.62c-0.63,2.84-0.61,6.03-0.02,8.88c0.65,3.15,0.2,5.71-1.9,7.91
	c-6.87,7.23-14.28,13.53-24.14,16.65c-5.39,1.71-10.37,4.71-15.5,7.18c-2.87,1.38-5.72,2.58-9.04,2.38
	c-1.13-0.07-2.31,0.53-3.46,0.83c-4.06,1.03-8.15,1.96-12.17,3.12c-2.14,0.61-4.22,1.52-6.25,2.45c-2.84,1.3-5.53,2.47-8.19-0.47
	c-0.57-0.63-1.98-1.01-2.84-0.81c-6.52,1.51-13.01,3.18-19.73,4.86c0.16,1.34,0.29,2.18,0.35,3.03c0.28,3.6-0.83,5.15-4.34,5.29
	c-9.59,0.38-19.19,0.59-28.79,0.83c-0.89,0.02-1.85-0.04-2.67-0.36c-7.24-2.81-14.9-4.63-21.28-9.44c-1.39-1.05-3.19-1.61-4.88-2.18
	c-5.31-1.78-10.17-4.27-14.58-7.8c-5.28-4.22-10.98-7.59-17.47-10.01c-10.08-3.76-19.75-8.63-29.65-12.91
	c-2.45-1.06-5.05-1.88-7.66-2.4c-3.28-0.66-6.28-1.55-9.1-3.57c-3.37-2.42-7.49-3.74-10.37-6.95c-1.08-1.2-2.27-2.29-3.39-3.4
	c3.39-3.66,3.51-3.64,6.02-0.12c0.61,0.85,1.25,1.87,2.13,2.28c3.46,1.64,7.01,3.07,11.01,4.79c0.1-1.62,0.27-2.47,0.18-3.28
	c-0.4-3.55-1.11-7.08-1.27-10.64c-0.24-5.54-0.57-11.14-0.06-16.64c0.79-8.63,2.18-17.21,3.42-25.8c1.18-8.15,2.65-16.26,3.69-24.43
	c1.12-8.79,2.02-17.6,2.73-26.43c0.26-3.25-0.56-6.58-0.47-9.86c0.18-6.26-0.58-12.26-3.62-17.85c-0.27-0.5-0.22-1.17-0.33-1.76
	c-0.95-5.03-0.95-5.03,3.42-7.36c0.11-0.39,0.29-0.81,0.34-1.25c1.03-10.59,2.04-21.19,3.04-31.79c0.08-0.89,0.21-1.83,0.02-2.68
	c-1.61-7.02-0.51-14.03,0.08-21.02c0.55-6.42,1.38-12.82,2.02-19.23c0.14-1.4,0.02-2.83-0.32-4.25c-2.96,6.58-5.35,13.18-6.99,20.19
	c-1.72,7.35-1.14,14.63-1.63,21.93c-0.39,5.81-0.95,11.61-1.53,17.41c-0.67,6.72-1.54,13.42-2.14,20.14
	c-0.65,7.33-1.05,14.69-1.66,22.03c-0.17,2.06-0.65,4.1-1.09,6.13c-1.42,6.6-2.88,13.18-4.32,19.77c-0.19,0.88-0.04,2.03-0.56,2.58
	c-0.72,0.77-1.92,1.45-2.92,1.47c-0.65,0.01-1.7-1.14-1.92-1.95c-2.59-9.57-1.91-19.34-1.51-29.07c0.31-7.48,0.9-14.96,1.5-22.42
	c1.02-12.72,1.9-25.46,3.31-38.14c1.58-14.17,3.65-28.29,5.56-42.43c1.2-8.89,2.5-17.77,3.78-26.78c-0.7-0.16-1.22-0.45-1.48-0.3
	c-3.59,2.1-7.1,4.35-10.75,6.35c-1.19,0.66-3,1.38-4.02,0.93c-2.65-1.18-5.08-0.67-7.42,0.26c-3.75,1.49-7.39,3.28-11.03,5.03
	c-5.94,2.87-11.85,5.79-17.75,8.75c-2.41,1.21-4.7,2.66-7.12,3.85c-2.35,1.16-4.77,1.88-7.26,0.15c-0.57-0.4-1.44-0.75-2.06-0.61
	c-4.08,0.92-8.24,1.68-12.16,3.09c-4.35,1.56-8.52,3.68-12.7,5.7c-5.17,2.49-10.76,2.67-16.28,3.06
	c-8.24,0.59-16.49,1.08-24.74,1.28c-8.68,0.21-17.34,1.04-26.07-0.13c-5.9-0.79-12.02,0.19-17.96-0.4
	c-9.21-0.92-18.57,0.15-27.67-2.96c-4.87-1.66-10.34-1.8-15.57-2.1c-6.45-0.37-12.95,0.12-19.4-0.31
	c-13.51-0.91-26.74-2.91-39.35-8.53c-7.36-3.28-15.3-5.33-23.1-7.48c-4.3-1.18-8.86-1.34-13.29-2.08c-1.77-0.3-3.49-0.9-5.22-1.41
	c-2.09-0.62-2.86-2.12-2.49-4.17c0.33-1.85,1.6-3.16,3.41-3.02c7.16,0.54,14.32,1.13,21.43,2.08c2.92,0.39,5.59,2.09,8.32-0.79
	c0.78-0.83,2.85-0.59,4.34-0.6c12.33-0.11,24.68,0.1,37-0.33c6.1-0.22,12.16-1.66,18.25-2.43c12.07-1.52,24.16-2.93,36.23-4.46
	c2.06-0.26,4.08-0.89,6.12-1.36c14.04-3.26,28.03-6.78,42.14-9.71c13.57-2.82,26.89-6.31,39.81-11.37
	c5.42-2.12,11.16-3.44,16.69-5.29c7.11-2.37,14.28-4.65,21.22-7.46c4.98-2.02,9.73-4.69,14.41-7.36c1.88-1.07,4.03-2.87,3.24-5.36
	c-0.71-2.26-3.28-1.67-5.16-1.71c-5.71-0.12-11.44-0.33-17.14-0.1c-4.18,0.17-8.31,1.08-12.49,1.49c-3.13,0.31-6.3,0.52-9.44,0.43
	c-1.1-0.03-2.77-0.86-3.13-1.75c-0.66-1.62,0.64-2.86,2.21-3.32c2.3-0.68,4.67-1.11,7-1.7c6.11-1.54,12.29-2.86,18.31-4.71
	c6.59-2.03,13.15-4.27,19.48-6.99c4.77-2.05,6.78-6.84,9.52-11.41c-3.89-1.41-7.29-1.14-10.64-0.73c-2.37,0.29-4.77,0.83-7.01,1.64
	c-8.05,2.91-16.03,5.98-24.05,8.98c-6.04,2.26-12.03,4.66-18.15,6.68c-2.77,0.92-5.86,1.73-8.53-0.88c0.13-2.4,1.73-3.37,3.72-3.87
	c10.83-2.73,20.8-7.71,31.14-11.73c7.41-2.88,14.83-5.78,22.39-8.22c4.39-1.41,9.08-1.88,13.62-2.86c2-0.43,3.94-1.11,6.85-1.94
	c-1.55-1.52-2.31-2.62-3.35-3.22c-6.11-3.52-12.26-6.95-18.45-10.32c-0.88-0.48-2-0.66-3.03-0.72c-10.95-0.64-21.92-1.01-32.84-1.95
	c-4.58-0.39-9.14-1.72-13.57-3.07c-3.72-1.14-7.22-2.95-10.84-4.42c-2.63-1.06-5.33-1.96-7.92-3.1c-1.42-0.62-2.7-1.58-4.1-2.42
	c1.17-3.31,3.51-3.75,5.97-3.7c6.75,0.13,13.51,0.63,20.25,0.5c9.22-0.18,17.82,2.21,26.27,5.48c5.18,2.01,10.29,4.17,15.49,6.13
	c4.75,1.8,9.58,1.25,14.39,0.67c0.17-0.37,0.33-0.73,0.5-1.1c-3.48-3.2-6.81-6.57-10.47-9.55c-7.52-6.13-14.75-12.64-23.31-17.46
	c-3.46-1.95-6.13-5.24-9.41-7.56c-2.65-1.87-5.64-3.3-8.58-4.71c-1.54-0.74-3.34-1.2-3.07-3.28c0.29-2.17,2.1-2.92,4.02-2.77
	c4.93,0.37,9.84,1.03,14.77,1.39c2.75,0.2,5.53,0.04,8.73-0.78c-1.11-1.09-2.05-2.51-3.36-3.23c-6.44-3.53-12.72-7.59-19.56-10.09
	c-8.32-3.05-17.25-4.03-26.19-3.43c-4.44,0.3-8.94,0.69-13.24,1.74c-7.52,1.82-13.67,5.58-17.3,13c-1.86,3.81-4.87,7.07-7.45,10.51
	c-0.48,0.64-1.38,0.96-2.48,1.67c-0.18-1.18-0.56-1.97-0.34-2.52c3.43-8.65,6.77-17.47,14.74-23.13c2.63-1.87,5.88-2.92,8.95-4.06
	c2.94-1.09,5.98-1.91,9.03-2.67c8.89-2.22,17.64-0.62,26.31,1.3c5.39,1.19,10.92,2.28,15.95,4.44c5.46,2.34,10.42,5.86,15.6,8.87
	c2.59,1.51,5.19,3.01,7.78,4.52c4.39,2.56,8.66,5.33,13.17,7.65c8.68,4.45,17.21,9.17,24.69,15.47c4.27,3.6,8.91,6.47,13.67,9.34
	c3.36,2.03,6.02,5.35,8.64,8.39c0.67,0.77,0.4,2.95-0.23,4c-0.35,0.59-2.64,0.72-3.52,0.18c-2.54-1.56-4.79-3.57-7.17-5.39
	c-7.39-5.64-14.75-11.31-22.21-16.85c-1.29-0.96-3.04-1.26-4.52-1.98c-3.1-1.5-6.46-2.67-9.19-4.69
	c-4.95-3.67-10.44-5.23-16.41-5.48c-3.87-0.16-7.75-0.03-12.38-0.03c0.95,1.09,1.63,2.09,2.52,2.83c4.71,3.92,9.58,7.66,14.2,11.69
	c7.35,6.41,14.7,12.83,21.76,19.55c4.17,3.98,8.83,5.16,14.38,4.86c6.43-0.34,12.9-0.4,19.34-0.15c7.55,0.29,14.95,1.71,21.79,5.1
	c3.16,1.57,6.38,1.55,9.68,1.27c2.94-0.25,4.85-1.86,6.21-4.52c3.96-7.74,7.89-15.51,12.26-23.02c2.77-4.77,5.99-9.36,9.53-13.58
	c5.34-6.38,4.32-10.85,0.03-16.92c-1.17-1.66-2.13-3.15-1.97-5.29c0.53-7.17,0.86-14.35,1.41-21.52c0.7-8.98,1.63-17.95,2.31-26.93
	c0.75-9.87,1.21-19.77,2.04-29.64c0.32-3.87,1.34-7.69,1.93-11.54c0.55-3.55,1.22-7.1,1.37-10.67c0.46-11.41,0.88-22.87-0.84-34.18
	c-1.23-8.11-0.3-16.19-0.87-24.27c-0.27-3.85-0.2-7.75,0.04-11.61c0.1-1.57,0.91-3.17,1.69-4.59c0.32-0.59,1.57-1.2,2.12-1.01
	c0.61,0.21,1.3,1.35,1.27,2.05c-0.13,2.69-0.66,5.37-0.78,8.06c-0.08,1.73,0.3,3.48,0.46,5.22c0.23,2.53,0.63,5.06,0.66,7.59
	c0.15,10.82,1.04,21.57,2.32,32.32c0.48,3.98-0.2,8.09-0.32,12.14c-0.05,1.58-0.01,3.15-0.01,4.73c0.38,0.05,0.77,0.1,1.15,0.15
	c1.29-4.18,2.87-8.3,3.81-12.56c2.95-13.34,7.42-26.2,12.02-39.03c2.18-6.07,3.99-12.28,6.37-18.26
	c6.17-15.45,12.52-30.84,18.91-46.2c4.37-10.5,8.97-20.9,13.4-31.38c3.33-7.87,6.6-15.77,9.82-23.69c3.26-8.03,6.49-16.08,9.6-24.18
	c0.91-2.37,1.38-4.91,2.05-7.37c0.23-0.87,0.4-1.76,0.67-2.62c0.52-1.64,1.25-3.37,3.34-2.9c1.98,0.44,2.36,2.17,1.93,3.96
	c-0.7,2.91-1.36,5.85-2.3,8.69c-2.5,7.53-5.16,14.97-8.55,22.19c-3.5,7.43-6.29,15.2-9.36,22.84c-2.52,6.25-5.13,12.48-7.47,18.8
	c-1.75,4.74-2.97,9.69-4.73,14.42c-1.5,4.03-3.54,7.86-5.19,11.84c-2.69,6.47-5.47,12.92-7.85,19.51
	c-3.86,10.69-4.75,22.16-9.34,32.8c-3.38,7.83-7.34,15.37-10.66,23.19c-3.2,7.54-6.6,15.19-8.3,23.14
	c-2.52,11.82-5.25,23.65-6,35.83c-0.65,10.63-2.3,21.2-3.12,31.82c-0.93,12.13-1.41,24.29-2.12,36.44c-0.25,4.2-0.61,8.4-0.95,12.59
	c-0.28,3.53,0.75,6.41,3.54,8.79c3.54,3.01,6.69,6.51,10.37,9.33c2.18,1.67,4.98,3.12,7.65,3.47c6.3,0.82,11.12,4.04,15.97,7.74
	c3.65,2.79,7.87,4.84,11.78,7.3c2.66,1.67,5.21,3.51,7.84,5.24c2.87,1.88,5.67,3.88,8.67,5.52c7.16,3.89,14.31,7.91,19.38,14.41
	c2.84,3.64,5.26,6.4,10.47,6.78c3.42,0.25,6.69,3.07,9.96,4.87c5.12,2.81,10.17,5.75,15.27,8.59c1.62,0.9,3.32,1.66,5.39,2.24
	c-2.64-5.77,1.89-8.93,4.08-12.69c1.24-2.14,3.72-2,5.99-0.58c1.01,0.63,2.02,1.26,3.06,1.83c0.9,0.49,1.85,0.9,3.39,1.63
	c1.1-4.74,2.64-9.02,1.95-13.73c-0.17-1.17-0.35-2.44-0.07-3.55c0.48-1.94,1.75-3.12,3.98-2.73c2.02,0.36,2.75,1.66,2.64,3.56
	c-0.15,2.55-0.5,5.1-0.47,7.64c0.06,4.59,0.15,4.58,5.7,5.25c0.39-2.6,0.86-5.21,1.14-7.84c0.38-3.58,0.71-7.17,0.84-10.77
	c0.04-1.09-0.52-2.3-1.06-3.31c-1.51-2.8-0.88-7.02,1.63-8.8c0.69-0.49,1.98-0.63,2.79-0.35c2.93,1.03,4.33,3.59,4,7.28
	c-0.59,6.57-1.43,13.13-1.95,19.71c-0.32,4.04-0.31,8.11-0.32,12.16c0,0.82,0.53,1.68,0.92,2.46c4,8.05,7.45,16.31,9.93,24.98
	c0.49,1.72,1.8,3.75,3.31,4.52c2.85,1.46,4.13,3.76,5.25,6.44C657.28,445.1,661.01,448.31,666.04,450.41z M637.47,741.77
	c-0.94-1.4-1.82-2.44-2.38-3.62c-1.16-2.41-2.8-4.84-3.09-7.38c-1.27-11.29,0.64-22.03,6.5-31.96c1.84-3.12,2.74-6.58,2.65-10.33
	c-0.15-6.92,0.08-13.85-0.09-20.76c-0.11-4.49-0.45-9-1.01-13.46c-0.73-5.79-1.9-11.53-2.69-17.32c-0.87-6.39-1.26-12.86-2.31-19.22
	c-1.69-10.23-3.39-20.44-3.42-30.86c0-1.43-0.55-2.87-0.85-4.26c-5.29,0.66-6.24,0.17-7.11-4.62c-0.77-4.28-1.31-8.63-1.53-12.98
	c-0.51-9.9-0.65-19.81-1.13-29.71c-0.48-9.9-1.18-19.79-1.79-29.68c-0.27,0.14-0.53,0.28-0.8,0.42c-1.49-1.91-3.9-3.64-4.3-5.75
	c-1.14-6.01-1.93-12.17-1.94-18.27c-0.01-4.64-1.66-7.72-5.31-10.13c-0.75-0.49-1.4-1.13-2.11-1.68
	c-15.51-11.97-22.93-29.29-30.47-46.47c-2.81-6.41-4.64-13.27-7.64-19.59c-2.03-4.27-4.62-8.14-10.31-9.42
	c-9.93-2.22-19.62-5.52-29.39-8.42c-0.99-0.29-2.07-0.7-2.8-1.39c-3.53-3.31-7.39-2.63-11.38-1.19c-1.54,0.55-3.11,1.42-4.67,1.42
	c-8.64,0.04-17.35,1.77-26.06-1.11c-1.33,1.49-2.38,3.35-3.96,4.3c-4.14,2.49-4.41,6.54-4.89,10.56c-0.25,2.09-0.06,4.25-0.47,6.29
	c-1.54,7.61-3.4,15.17-4.87,22.79c-1.67,8.64-2.85,17.38-5.81,25.74c-1.94,5.48-3.41,11.18-5.89,16.41
	c-1.88,3.96-2.85,7.9-2.77,12.13c0.09,5.25,0.53,10.5,0.69,15.75c0.34,11.21-0.15,22.45,0.88,33.64c0.07,0.75-0.01,1.5,0.01,2.26
	c0.05,1.85-0.52,3.33-2.52,3.7c-1.86,0.34-2.79-0.8-3.17-2.44c-1.72-7.43-3.77-14.81-5.01-22.32c-1.4-8.43-2.01-17-3.09-25.49
	c-0.28-2.18-0.96-4.35-3.88-5.82c-0.78,5.29-1.54,10.26-2.23,15.24c-0.78,5.63-1.43,11.29-2.28,16.91
	c-0.83,5.48-2.24,10.9-2.69,16.4c-0.91,11.06-2.43,22.03-3.67,33.04c-1.22,10.88-1.57,21.87-2.15,32.81
	c-0.39,7.31,0.01,14.67,0.2,21.94c0.42,16.06-3.14,31.67-4,47.55c-0.24,4.47-1.16,8.91-1.9,13.34c-0.92,5.47-2.07,10.91-2.95,16.39
	c-0.76,4.72-1.67,9.47-1.81,14.22c-0.28,9.86-0.08,19.74-0.08,29.64c1.91,1.08,3.4,2.1,5.03,2.83c5.61,2.52,11.24,5,16.91,7.37
	c7.18,3,14.25,6.47,21.69,8.61c5.02,1.45,9.63,3.4,13.65,6.42c4.74,3.56,10,5.3,15.62,6.55c3.94,0.88,7.88,1.88,11.65,3.3
	c4.19,1.58,8.14,3.77,12.27,5.53c1.17,0.5,2.64,0.74,3.89,0.55c5.05-0.75,10.08-1.62,15.08-2.62c13.05-2.6,25.98-5.82,39.08-8.17
	c6.5-1.17,12.98-2.46,19.46-3.74c2.05-0.4,4.2-0.65,6.1-1.45c7.58-3.22,15.08-6.63,22.61-9.97c0.68-0.3,1.31-0.78,2.02-0.99
	C625.91,751.14,631.78,747.12,637.47,741.77z M429.81,399.19c-0.27-0.23-0.55-0.45-0.82-0.68c-2.6,1.68-5.27,3.28-7.79,5.07
	c-3.64,2.59-7.5,4.99-10.66,8.1c-3.27,3.22-5.69,7.29-8.69,10.8c-3.87,4.54-7.98,8.87-11.92,13.34c-2.45,2.79-5.8,5.32-6.98,8.6
	c-3.67,10.19-9.32,18.98-16.53,26.9c-0.8,0.88-1.63,1.85-2.66,2.37c-0.8,0.4-2.3,0.57-2.8,0.11c-0.7-0.65-1.21-2.09-1.01-3.02
	c2.03-9.35,4.24-18.66,6.33-28c0.13-0.6-0.29-1.32-0.54-2.32c-1.09,0.48-2.07,0.63-2.61,1.2c-2.44,2.62-5.03,5.16-7.05,8.09
	c-5.42,7.89-10.57,15.95-15.8,23.97c-0.52,0.8-0.8,1.77-1.47,3.3c4.32,1.17,8.23,2.1,12.04,3.32c3.11,1,5.77,0.2,8.68-0.91
	c9.62-3.67,17.2-10.28,24.84-16.8c4.21-3.59,7.94-7.8,12.37-11.07c5.4-3.99,11.35-7.23,16.99-10.92c4.11-2.69,7.19-6.3,8.51-11.12
	c2.37-8.64,4.65-17.3,6.91-25.97C429.52,402.14,429.6,400.65,429.81,399.19z M326.99,481.48c-1.83-0.52-3.29-1.24-4.78-1.32
	c-8.24-0.44-16.46-1.27-24.72,0.07c-5.92,0.96-12.05,0.89-17.82,2.34c-13.66,3.44-27.16,7.51-40.72,11.38
	c-0.76,0.22-1.41,0.83-2.69,1.62c1.49,0.66,2.38,1.39,3.27,1.4c5.24,0.08,10.55,0.56,15.69-0.16c13.41-1.86,27.04-0.2,40.4-2.96
	c5.56-1.15,11.36-1.11,17-1.97C318.81,490.94,323.87,488.1,326.99,481.48z M400.19,624.98c0.2,0.12,0.4,0.24,0.6,0.36
	c0.55-1,1.42-1.95,1.58-3.01c0.71-4.74,1.36-9.5,1.75-14.27c0.87-10.61,0.98-21.33,2.55-31.83c1.01-6.75,1.29-13.41,1.38-20.16
	c0.08-6.44,0.36-12.81,1.47-19.22c1.12-6.42,3.16-12.44,5.36-18.5c4.27-11.77,8.25-23.64,12.3-35.48c1.43-4.2,2.72-8.44,4.21-13.1
	c-1.41-0.11-2.53-0.53-3.33-0.2c-2.06,0.86-4.18,1.81-5.92,3.17c-3.97,3.09-7.5,6.55-6.92,12.3c0.08,0.84-0.39,1.73-0.56,2.61
	c-1.01,5.44-2.09,10.86-2.99,16.31c-0.9,5.44-1.58,10.92-2.46,16.37c-0.91,5.61-2.09,11.19-2.89,16.81
	c-0.95,6.68-1.67,13.4-2.4,20.11c-0.89,8.2-1.87,16.4-2.47,24.62c-0.63,8.67-0.96,17.36-1.24,26.04
	C400.04,613.6,400.19,619.29,400.19,624.98z M611.73,467.08c0-8.4,0.01-15.72-0.03-23.04c0-0.56-0.35-1.14-0.6-1.69
	c-4.26-9.2-10.44-16.75-19.23-21.93c-3.48-2.05-7.16-3.76-10.77-5.58c-0.86-0.43-1.81-0.68-3.36-1.25c0.34,1.74,0.38,2.92,0.8,3.95
	c1.79,4.43,3.72,8.8,5.53,13.22c1.24,3.04,2.01,6.35,3.63,9.16c3.06,5.31,6.32,10.54,9.99,15.44c2.67,3.56,6.03,6.63,9.27,9.71
	C607.92,465.98,609.55,466.2,611.73,467.08z M348.28,452.35c-0.26-0.26-0.51-0.51-0.77-0.77c-0.68,0.24-1.38,0.43-2.04,0.72
	c-9.02,3.93-18.09,7.71-27.51,10.6c-11.88,3.65-23.74,7.33-35.59,11.05c-0.83,0.26-1.52,0.95-2.28,1.44
	c3.8,0.42,7.31,0.01,10.82-0.2c8.21-0.48,16.43-1.03,24.65-1.22c4.33-0.1,8.68,0.43,13.01,0.8c2.56,0.22,4.16-0.8,5.54-2.94
	c1.7-2.63,3.85-4.95,5.7-7.49C342.69,460.37,345.47,456.35,348.28,452.35z M648.01,562.63c0.86-1.57,1.29-2.04,1.37-2.55
	c0.78-5.19,1.59-10.37,2.14-15.58c0.1-0.99-0.75-2.19-1.41-3.12c-0.78-1.09-1.9-1.92-2.75-2.96c-2.27-2.79-1.69-5.71,1.79-6.63
	c3.19-0.84,3.98-2.79,4.19-5.51c0.27-3.59,0.71-7.18,0.7-10.78c-0.01-2.81,0.29-6.21-1.12-8.29c-2.4-3.54-6.08-6.17-10.24-7.77
	c-1.74-0.67-3.01-0.04-3.29,1.85c-0.17,1.17-0.25,2.45,0.04,3.58c1.41,5.49,3.04,10.92,4.41,16.42c0.29,1.16,0.26,3.01-0.45,3.69
	c-3.02,2.93-2.56,6.55-2.47,10.1c0.1,3.89-0.19,7.94,0.77,11.63c1.23,4.72,3.53,9.15,5.38,13.71
	C647.29,560.97,647.54,561.53,648.01,562.63z M804.08,529c-0.49-4.03-3.42-4.58-6.22-5.12c-9.12-1.76-18.28-3.33-27.38-5.2
	c-3.95-0.81-7.81-2.11-11.67-3.3c-5-1.53-9.97-3.18-14.96-4.77c-1.51-0.48-3.04-0.92-5.35-1.61c1.82,3.69,4.35,5.02,7.09,6.15
	c7.35,3.03,14.88,5.71,21.94,9.31c4.75,2.42,9.42,3.52,14.66,3.57C789.36,528.11,796.53,528.65,804.08,529z M434.29,459.21
	c-0.1,0.21,0.29-0.43,0.52-1.13c2.07-6.14,2-12.64,3.14-18.93c0.59-3.25,0.34-6.14-1.89-9.17c-8.31,10.45-16.37,20.81-16.39,35.15
	C424.19,463.3,428.66,461.49,434.29,459.21z M709.12,569.63c0.18-0.4,0.37-0.8,0.55-1.2c-3.33-2.52-6.88-4.8-9.95-7.61
	c-6.96-6.36-13.74-12.93-20.49-19.52c-3.55-3.47-7.36-5.55-12.37-3.84c-1.5,5.81-0.98,7.36,3.12,10.17c2.45,1.68,4.75,3.61,7.3,5.12
	c3.21,1.9,6.68,3.36,9.9,5.23c4.41,2.55,8.61,5.47,13.06,7.92C703.05,567.43,706.16,568.41,709.12,569.63z M181.08,494.17
	c-0.07,0.44-0.15,0.88-0.22,1.32c0.87,0.4,1.71,1.03,2.62,1.16c3.71,0.53,7.43,1.1,11.16,1.29c7.62,0.38,15.32,1.29,22.41-2.95
	c1.76-1.05,3.97-1.35,5.96-2.03c3.55-1.21,7.11-2.39,10.62-3.68c2.95-1.08,5.79-2.49,8.78-3.4c3.98-1.22,8.08-2.04,12.1-3.14
	c1.53-0.42,2.99-1.13,4.48-1.71c-1.33-0.61-2.49-0.59-3.57-0.31c-4.91,1.27-9.72,3.08-14.7,3.85c-11.52,1.79-22.7,5.78-34.53,5.6
	c-0.44-0.01-0.89,0.15-1.33,0.21c-5.63,0.78-11.27,1.51-16.89,2.36C185.66,493.08,183.38,493.68,181.08,494.17z M282.89,505.84
	c-0.08-0.34-0.16-0.69-0.24-1.03c-3.23,0.22-6.47,0.69-9.7,0.62c-17.28-0.37-34.46,0.71-51.56,3.06c-3.17,0.44-6.26,1.46-9.39,2.21
	c4.01,3.32,8.6,3.35,12.95,3.74c5.35,0.48,10.63-0.15,15.99-1.48c10.45-2.6,21.07-4.5,31.91-4.95
	C276.24,507.85,279.89,507.87,282.89,505.84z M699.06,514.16c0.17,0.77,0.12,1.6,0.51,2.09c3.18,3.93,6.98,6.99,12.07,8.08
	c2.49,0.53,5.01,0.96,7.47,1.6c8.37,2.18,16.9,2.28,25.46,1.98c1.08-0.04,2.14-0.49,3.55-0.83c-0.65-0.78-0.87-1.32-1.21-1.41
	c-15.43-4.07-31.23-6.66-46.37-11.88C700.21,513.68,699.73,513.99,699.06,514.16z M386.43,426.3c2.91-3,5.06-5.41,7.42-7.6
	c5.64-5.23,12.84-8.95,15.83-16.69c0.1-0.27,0.41-0.45,0.54-0.72c1.32-2.6,2.79-5.15,2.86-8.79c-4.16,0.93-7.91,1.77-11.87,2.65
	c1.48,3.57,6.48,2.34,6.42,7.15c-0.82,0.62-1.95,1.82-3.34,2.48c-4.16,1.96-8.45,3.64-12.62,5.59c-1.48,0.69-3.01,1.6-4.03,2.82
	c-0.96,1.14-1.7,2.8-1.79,4.27C385.68,419.95,386.13,422.48,386.43,426.3z M512.29,378c-1.64-1.35-2.22-2.09-2.98-2.41
	c-5.27-2.19-10.16-4.83-14.21-9.06c-2.02-2.11-4.22-1.19-5.35,1.97c-0.9,2.52-1.54,5.15-2.07,7.78c-0.6,2.98,0.19,4.1,3.07,4.08
	c5.37-0.04,10.74-0.24,16.09-0.59C508.36,379.67,509.83,378.83,512.29,378z M494.73,357.24c1.07,1.16,1.97,2.6,3.27,3.46
	c6.22,4.13,12.55,8.1,18.85,12.11c0.37,0.24,0.82,0.37,1.25,0.51c2.19,0.68,3.9-0.23,5.07-1.93c1.33-1.94,0.05-3.47-1.41-4.6
	c-1.15-0.89-2.57-1.44-3.9-2.08c-1.2-0.57-2.5-0.96-3.65-1.61c-4.54-2.55-8.99-5.26-13.59-7.71
	C498.5,354.27,496.3,354.21,494.73,357.24z M358.33,491.67c-2.18-0.16-3.13-0.47-3.92-0.24c-4.59,1.32-9.3,2.39-13.65,4.28
	c-4.33,1.88-8.82,2.69-13.36,3.53c-0.88,0.16-1.93,0.06-2.61,0.51c-1.14,0.76-2.89,1.87-2.88,2.82c0.03,2.19,2.14,2.03,3.79,1.95
	c1.19-0.06,2.38-0.22,3.56-0.42c4.11-0.7,8.22-2.03,12.32-2.01c5.7,0.03,9.45-3.14,13.32-6.4
	C355.96,494.79,356.75,493.55,358.33,491.67z M466.5,342.94c-1.18,0.49-1.74,0.54-1.95,0.84c-3.57,4.93-7.14,9.85-10.56,14.88
	c-0.46,0.68-0.46,2.45,0.02,2.84c2.45,1.97,2.85,4.71,3.19,8.38c1.36-1.77,2.39-2.82,3.09-4.06c1.98-3.49,3.65-7.17,5.76-10.57
	C468.53,351.24,467.67,347.38,466.5,342.94z M384.08,378.74c-0.18,0.38-0.36,0.76-0.53,1.15c1.16,1.5,2.22,3.11,3.51,4.49
	c2.53,2.72,5.27,3.63,9.12,2.09c3.96-1.59,8.32-2.16,12.49-3.26c1.37-0.36,2.66-0.99,3.99-1.5
	C403.22,377.28,393.6,378.68,384.08,378.74z M630.07,569.9c0.44-0.07,0.89-0.14,1.33-0.21c0.63-5.15,1.19-10.3,1.9-15.44
	c1.38-9.99-0.36-19.49-4.75-29.59c0,2.36-0.04,3.79,0.01,5.21c0.19,5.23,0.51,10.45,0.59,15.67c0.1,6.14-0.08,12.29,0.02,18.43
	C629.21,565.96,629.76,567.93,630.07,569.9z M372.46,420.45c-3.96-1.56-7.26,0.83-10.43,1.71c-4.08,1.13-8.69,1.79-12.84,5.48
	c1.98,0.41,3.08,0.63,4.18,0.86c1.59,0.33,3.29,0.4,4.76,1.02C366.02,432.86,371.57,427.35,372.46,420.45z M459.35,436.76
	c3.44-11.61,6.15-23.29,7.01-35.7c-4.1,3.76-4.81,5.02-5.66,9.6c-0.33,1.76-0.74,3.5-1.11,5.25
	C458.12,422.83,458.46,429.79,459.35,436.76z M474.05,337.48c-2.13,5.15-1.22,17.02,1.59,20.46c2.8-3.83,5.53-7.57,8.51-11.64
	C480.75,343.33,477.48,340.47,474.05,337.48z M368.63,458.56c0.36,0.12,0.73,0.24,1.09,0.35c1.59-2.94,3.22-5.86,4.74-8.82
	c0.32-0.63,0.64-1.64,0.36-2.14c-1.66-3.02,0.09-5.04,1.72-7.28c2.88-3.96,3.25-8.35,1.89-13.94c-1.84,2.41-3.84,3.95-4.38,5.9
	c-2.06,7.46-3.68,15.04-5.39,22.6C368.43,456.29,368.63,457.45,368.63,458.56z M905.93,520.06c-0.19-0.38-0.38-0.76-0.58-1.14
	c-5.55,1.65-11.14,3.18-16.63,5.01c-3.4,1.13-6.65,2.5-10.36,2.54c-3.51,0.04-7.01,0.62-10.52,0.97c0.53,0.74,1.16,1.12,1.83,1.2
	c3.72,0.43,7.44,0.94,11.18,1.13c2.36,0.12,4.91,0.2,7.08-0.56c4.08-1.42,7.99-3.35,11.87-5.28
	C901.94,522.85,903.89,521.36,905.93,520.06z M823.58,538.04c0.1,0.53,0.21,1.07,0.31,1.6c1.67,0.33,3.34,0.92,5.02,0.94
	c5.21,0.07,10.42-0.09,15.63-0.11c3.89-0.01,7.78,0.13,11.67,0.05c0.98-0.02,1.94-0.61,2.91-0.93c-0.04-0.31-0.09-0.61-0.13-0.92
	c-1.11-0.25-2.21-0.65-3.33-0.73c-8.19-0.61-16.39-1.18-24.59-1.72c-1.49-0.1-3.04-0.26-4.47,0.04
	C825.52,536.49,824.58,537.42,823.58,538.04z M305.81,366.9c5.46,4.84,22.52,6.9,28.14,3.94
	C325.13,367.53,316.27,364.64,305.81,366.9z M548.13,385.8c0.11-0.28,0.22-0.56,0.32-0.84c-0.41-0.55-0.72-1.24-1.25-1.63
	c-2.75-2.02-5.43-4.18-8.38-5.85c-2.44-1.39-5.16-2.38-7.87-3.11c-0.98-0.26-2.3,0.77-3.46,1.21c0.55,0.93,0.87,2.25,1.68,2.71
	c4.01,2.27,8.06,4.52,12.28,6.36C543.47,385.52,545.89,385.45,548.13,385.8z M639.57,470.82c-0.4,0.08-0.79,0.16-1.19,0.24
	c-0.2,0.82-0.58,1.64-0.58,2.46c0.02,3.71,0.22,7.41,0.23,11.12c0.01,2.77,0.91,3.83,3.61,3.44c1.54-0.22,3.01-0.91,4.7-1.45
	c-1.14-3.11-1.99-5.77-3.09-8.33C642.17,475.75,640.81,473.31,639.57,470.82z M441.56,388.79c-1.12,0.69-2.09,0.95-2.45,1.57
	c-0.89,1.53-1.52,3.22-2.23,4.86c-2.52,5.86-2.67,12.48-5.78,18.17c-0.37,0.68-0.23,1.65-0.35,2.8
	C435.54,412.4,442.43,395.2,441.56,388.79z M684.23,462.69c1.59,5.23,4.94,7.7,9.17,8.3c3.68,0.52,6.66-1.59,9.13-5.47
	C696.31,464.56,690.67,463.69,684.23,462.69z M579.88,404.28c-0.19,0.36-0.37,0.72-0.56,1.08c3.25,4.56,8.71,5.83,13.18,8.6
	c4.46,2.76,8.53,6.16,13.36,9.72c-0.53-4.76-2.97-7.77-6.37-9.13c-5.5-2.2-10.15-5.67-15.2-8.54
	C582.93,405.23,581.36,404.84,579.88,404.28z M664.6,497.49c-1.5,1.97-1.56,5.59,0.52,7.57c2.57,2.45,5.7,4.33,8.71,6.28
	c0.65,0.42,1.79,0.06,3.25,0.06C674.2,504.93,669.29,501.34,664.6,497.49z M383.75,390.21c0.22-0.17,0.45-0.33,0.67-0.5
	c-0.32-0.75-0.46-1.71-1.01-2.22c-2.41-2.19-4.75-4.56-7.49-6.27c-2.57-1.6-5.49-3.64-9.12-1.07
	C372.65,383.64,378.2,386.92,383.75,390.21z M662.51,520.03c0.17,2.89,0.1,4.82,0.44,6.68c0.69,3.83,2.46,4.48,6.41,2.45
	C667.56,526.21,666.64,522.67,662.51,520.03z M460.03,379.18c-0.31-0.13-0.62-0.25-0.93-0.38c-1.91,4.29-3.82,8.58-6.08,13.67
	C459.23,389.1,460.85,385.68,460.03,379.18z M639.31,725.16c2.13-4.14,2.42-8.53,1.54-13.07
	C638.57,716.19,638.02,720.53,639.31,725.16z M706.29,556.15c-2.16-3.44-4.43-6.76-8.95-7.36
	C699.74,551.94,702.38,554.8,706.29,556.15z M421.44,396c3.37-0.48,4.7-2.76,6.31-5.05C421.27,390.27,420.28,391.03,421.44,396z
	 M332.55,487.36c5.43-0.24,7.64-1.24,8.6-3.68C336.81,483.15,335.83,483.53,332.55,487.36z M651.83,463.87
	c0.32-0.17,0.63-0.34,0.95-0.51c-1.51-2.92-3.01-5.84-4.81-9.33C646.61,458.25,647.76,460.75,651.83,463.87z M287.74,504.39
	c6.34,1.72,8.61,1.19,10.61-2.51C294.53,502.78,291.13,503.58,287.74,504.39z M484.06,367.68c-0.48-0.31-0.95-0.62-1.43-0.93
	c-1.15,1.33-2.43,2.57-3.37,4.03c-0.3,0.46,0.13,1.6,0.55,2.21c0.14,0.21,1.61,0,1.85-0.39
	C482.58,371.04,483.27,369.34,484.06,367.68z M377.29,407.78c-5.64,0.89-6.23,1.43-6.13,5.61
	C373.49,411.26,375.39,409.52,377.29,407.78z"/>
<path d="M1017.14,193.75c-1.39,7.49-2.91,13.91-3.68,20.42c-0.53,4.43-0.15,8.99,0.08,13.48c0.29,5.69,0.93,11.37,1.2,17.06
	c0.1,2.07-0.14,4.24-0.7,6.23c-1.85,6.62,0.13,13.13,0.4,19.68c0.04,0.91,0.68,2.11,1.42,2.64c6.46,4.62,8.87,11.59,8.73,18.74
	c-0.13,6.9,1.62,12.66,5.21,18.19c2.71,4.17,3.05,9.05,4.14,13.71c0.69,2.92,1.51,5.8,2.15,8.73c0.64,2.94,0.71,5.9-0.15,9.13
	c-1.68-0.19-3.09-0.34-4.65-0.51c0.08,0.82-0.05,1.66,0.27,2.25c3.5,6.43,6.66,13.04,11.63,18.58c2.49,2.77,4.47,6.01,6.68,9.04
	c1.32,1.8,0.24,3.14-0.96,4.33c-1.23,1.22-2.77,1.35-4.08,0.24c-1-0.85-1.77-2-2.53-3.1c-2.29-3.32-4.14-7.03-6.84-9.97
	c-6.43-6.99-12.09-14.5-17.15-22.52c-3.82-6.06-8.39-11.7-11.64-18.03c-3.4-6.62-5.68-13.81-8.35-20.8
	c-1.12-2.94-1.87-6.02-2.98-8.96c-2.49-6.56-5.05-13.1-7.7-19.6c-1.06-2.61-2.42-2.75-4.14-0.64c-0.57,0.69-1.14,1.44-1.5,2.25
	c-1.69,3.84-4.7,5.87-8.57,7.35c-5.3,2.03-10.26,4.98-15.57,7c-7.98,3.03-16.12,5.63-24.22,8.32c-1.01,0.34-2.19,0.19-3.91,0.31
	c1.07-2.98,3.2-3.44,5.02-4.22c9.1-3.95,18.24-7.79,27.3-11.84c3.14-1.4,6.04-3.33,9.08-4.96c5.04-2.71,7.74-7.46,10.4-12.15
	c0.59-1.05,0.24-2.89-0.18-4.21c-1.13-3.55-2.58-7-3.81-10.51c-0.69-1.98,0.06-3.64,1.8-4.61c1.86-1.04,3.52-0.4,4.7,1.3
	c3.78,5.45,7.04,11.17,8.92,17.59c0.59,2,1.39,3.94,1.94,5.95c2.47,9.16,8.46,16.49,12.74,24.71c1.87,3.59,3.83,7.13,5.82,10.66
	c0.57,1.02,1.35,1.91,2.51,3.52c1.53-3.67,2.27-6.53,0.62-9.83c-1.94-3.89-3.36-8.04-5.36-11.88c-2.47-4.73-1.94-9.96-2.8-14.93
	c-1.25-7.26-1.55-14.62-0.02-21.97c0.42-2,0.19-4.16,0.12-6.24c-0.32-10.36-0.87-20.72-0.93-31.08c-0.02-3.22,1.37-6.43,1.89-9.69
	c0.27-1.72,0.09-3.52,0.05-5.29c-0.08-3.6-0.43-7.22-0.26-10.81c0.3-6.55-0.78-12.84-2.7-19.06c-0.44-1.42-0.7-2.94-0.77-4.42
	c-0.4-9.53-2.76-18.56-6.37-27.36c-2.09-5.11-3.64-10.46-5.26-15.75c-1.53-5.01-5-8.42-8.94-11.53c-3.88-3.06-7.69-6.21-11.61-9.21
	c-1.86-1.42-3.75-2.43-6.37-2.82c-3.02-0.45-6.02-2.42-8.55-4.35c-2.3-1.75-1.83-3.28,1.24-6.63c3.76,2.25,7.8,4.26,11.4,6.89
	c9.33,6.82,18.48,13.89,27.63,20.96c0.81,0.63,1.04,2,1.58,3.01c1.17,2.21,2.31,4.44,3.58,6.6c0.76,1.29,1.85,2.37,2.59,3.67
	c4.27,7.53,8.75,14.95,12.64,22.68c3.76,7.47,7.04,15.19,10.26,22.91c2.71,6.5,5.11,13.13,7.51,19.75c0.76,2.09,1.03,4.35,1.61,6.51
	c1.2,4.47,2.59,8.9,3.66,13.41c0.65,2.75,1.2,5.61,1.18,8.42c-0.06,8.86-0.57,17.72-0.56,26.58c0,3.72,0.68,7.47,1.35,11.15
	c1.05,5.75,2.4,11.44,3.53,17.17c0.23,1.15,0.31,2.49-0.07,3.54c-0.35,0.97-1.45,2.37-2.18,2.35c-1.1-0.03-2.23-1.05-3.2-1.83
	c-0.38-0.31-0.47-1.1-0.51-1.68c-0.41-7.76-3.34-14.81-5.72-22.08c-3.27-9.98-6.54-20.06-8.43-30.35
	c-1.73-9.38-4.91-18.14-8.1-26.99C1019.21,196.99,1018.3,195.8,1017.14,193.75z M1011.52,146.86c-0.49,3.93-0.57,6.77,0.33,9.67
	c0.57,1.85,0.95,3.78,1.17,5.71c0.93,8.09,2.35,16.01,6.45,23.25c1.62,2.85,2.85,5.94,4.11,8.98c4.54,10.91,8.97,21.84,10.29,33.76
	c0.28,2.54,1.67,4.97,2.74,7.98c0.76-1.04,1.23-1.4,1.22-1.73c-0.31-7.32,0.29-14.85-1.28-21.9c-2.01-8.99-3.83-18.08-7.21-26.82
	c-4.48-11.56-9.44-22.88-14.59-34.13C1014.11,150.21,1012.99,149,1011.52,146.86z"/>
<path d="M164.44,283.82c1.73,0.17,2.69,0.53,3.46,0.3c6.45-1.92,13.28-2.2,19.53-5.2c5.38-2.58,11.21-4.28,16.93-6.06
	c1.67-0.52,4.14-0.66,5.42,0.23c1.98,1.36,2,3.87,0.66,6.11c8.04,1.15,15.99,2.28,23.94,3.41c0.04,0.19,0.08,0.39,0.12,0.58
	c-1.35,0.34-2.68,0.82-4.04,0.99c-2.22,0.26-2.99,1.33-3.05,3.58c-0.11,3.86-0.36,3.91-4.46,4.74c-1.16,0.23-2.72,0.39-3.3,1.18
	c-1.97,2.68-4.73,2.94-7.59,3.11c-1.55,0.09-2.88,0.17-3.74,1.88c-0.33,0.66-1.69,1.05-2.6,1.1c-1.94,0.11-3.9-0.15-5.86-0.14
	c-1.97,0-3.74,0.26-5.25,1.99c-0.85,0.98-2.56,1.5-3.95,1.68c-3.77,0.48-7.46,0.9-10.27,3.92c-0.56,0.61-1.56,0.94-2.42,1.13
	c-4.94,1.11-9.5,3.23-14.2,5.03c-3.31,1.27-6.89,1.7-9.82,4.07c-2.63,2.13-5.24,4.38-9.06,4.27c-0.75-0.02-1.75,1.4-2.26,2.35
	c-0.46,0.87-0.4,2.01-0.56,2.95c-2.66,1.44-4.91,1.73-6.97-0.8c-1.48-1.82-3.85-1.99-5.15-0.39c-2.05,2.52-5.02,3.12-7.48,4.73
	c-2.71,1.77-5.85,3.07-7.2,6.5c-0.27,0.7-1.98,1.42-2.76,1.2c-1.45-0.4-2.7-1.59-2.1-3.42c0.37-1.12,1.03-2.17,1.72-3.14
	c2.09-2.96,2.46-5.94,0.83-9.3c-1.54-3.18-0.75-4.99,2.48-6.35c4.69-1.98,9.44-3.85,14.15-5.8c0.68-0.28,1.29-0.72,1.93-1.1
	c3.05-1.85,6.05-3.79,9.17-5.52c5.57-3.09,11.21-6.05,16.81-9.06c-0.08-0.4-0.16-0.8-0.24-1.2c-1.38,0-2.78-0.19-4.12,0.04
	c-3.39,0.56-6.74,1.33-10.12,1.98c-10.61,2.02-21.29,3.76-31.83,6.13c-7.14,1.61-14.28,3.59-21.04,6.35
	c-5.2,2.12-9.87,5.6-13.8,10.11c1.19,1.89,2.27,3.6,3.36,5.33c-3.76,2.05-3.75,2.04-6.27-0.89c-0.48-0.56-1.17-0.95-1.68-1.49
	c-2.02-2.1-2.13-4.98,0.1-6.66c6.91-5.2,13.29-11.28,21.81-13.92c2.83-0.88,5.77-1.42,8.56-2.09c0.25-2.21,0.36-4.14,0.7-6.02
	c0.46-2.52,1.94-3.59,4.35-3.37c2.13,0.19,2.77,1.24,2,3.33c-0.3,0.8-0.63,1.59-1.19,3.01c1.59,0.28,2.92,0.9,4.03,0.63
	c8.07-1.92,16.74-0.91,25.79-5.27c-1.98-0.92-3.23-1.5-4.82-2.25c1.91-1.5,3.11-2.17,3.93-3.16c1.34-1.62,2.77-1.98,4.77-1.43
	c3.38,0.92,6.22,0.24,7.93-3.25c1.4-2.87,4.37-2.76,6.93-3.44c2.43-0.64,4.93-1.17,7.24-2.13c8.95-3.72,17.87-7.52,26.74-11.43
	c4.67-2.05,9.12-4.61,13.84-6.53c5.96-2.42,12.09-4.39,18.14-6.6c7.18-2.62,14.28-5.5,21.55-7.85c10.41-3.37,20.82-6.75,30.65-11.61
	c3.85-1.91,7.46-4.32,11.13-6.58c3.19-1.97,6.29-4.07,9.46-6.07c6.59-4.15,13.05-8.55,19.85-12.32c8.65-4.79,17.52-9.2,26.42-13.5
	c7.67-3.7,15.51-7.02,23.29-10.5c0.54-0.24,1.13-0.44,1.72-0.51c4.43-0.51,8.26-2.61,12.19-4.48c3.37-1.61,6.9-2.9,10.24-4.59
	c1.69-0.86,3.21-2.15,4.62-3.45c1.75-1.6,3.52-2.38,6.03-2.35c2.58,0.03,5.16-0.92,7.95-1.48c1.09,1.51,2.47,3.4,4.12,5.68
	c-1.55,2.98-2.3,7.11-7.78,8.15c1.41,0.85,2.24,1.13,2.74,1.71c0.5,0.58,0.68,1.44,0.99,2.18c-0.78,0.28-1.61,0.89-2.32,0.77
	c-0.97-0.16-1.88-0.81-2.76-1.35c-2.42-1.47-4.9-1.72-6.99,0.3c-1.86,1.8-3.95,1.96-5.75,0.79c-4.73-3.08-8.74-0.85-12.54,1.53
	c-3.22,2.02-6.15,4.22-10.29,3.63c-1.08-0.15-2.6,0.25-3.4,0.98c-3.22,2.93-8.18,2.92-10.93,6.67c-0.58,0.79-2.2,1.35-3.22,1.21
	c-6.11-0.85-10.39,3.26-15.37,5.43c-0.81,0.35-1.48,1.36-2.26,1.4c-8.11,0.47-10.7,7.27-14.55,12.59c-1.31,1.81-2.41,3.76-3.74,5.87
	c-2.08-1.25-3.85-1.01-5.26,0.73c-2.8,3.46-6.4,4.78-10.96,3.79c-0.94,3.54-3.55,5.14-6.57,5.3c-2.68,0.14-4.09,1.36-5.37,3.35
	c-0.64,1-1.32,2.09-2.26,2.76c-1.58,1.14-3.2,2-5.33,0.57c-2.46-1.65-5.05-1.33-7.9-0.13c-5.08,2.14-10.41,3.7-15.66,5.45
	c-6.11,2.05-12.25,4.04-18.36,6.09c-4.98,1.67-9.94,3.4-14.92,5.07c-9.4,3.15-18.47,7.04-27.14,11.87
	c-6.94,3.87-14.06,7.4-21.05,11.19C170.29,280.04,167.85,281.72,164.44,283.82z M123.39,318.11c0.07,0.39,0.14,0.78,0.21,1.17
	c1.28,0,2.61,0.2,3.84-0.04c2.49-0.49,4.97-1.11,7.4-1.87c4.13-1.29,8.12-3.43,12.33-3.96c6.87-0.86,12.25-5.2,18.67-6.96
	c0.81-0.22,1.39-1.14,2.17-1.56c2.83-1.55,5.56-3.42,8.58-4.43c4.66-1.56,9.48-2.75,14.31-3.65c7.55-1.4,13.72-6.38,21.22-7.81
	c0.05-0.01,0.06-0.25,0.09-0.39c-0.18-0.21-0.32-0.55-0.54-0.6c-11.45-2.65-22.66-0.32-33.89,1.66c-0.44,0.08-0.91,0.16-1.3,0.36
	c-6.88,3.67-13.78,7.31-20.63,11.05c-6.03,3.29-11.96,6.78-18.03,9.99C133.1,313.56,128.21,315.77,123.39,318.11z"/>
<path d="M874.25,313.61c-1.03-1.2-1.55-2.26-2.39-2.7c-2.02-1.06-1.86-2.54-1.78-4.51c0.15-3.7-0.33-7.43-0.38-11.15
	c-0.02-1.57,0.01-3.36,0.7-4.69c1.37-2.59,4.69-2.77,6.29-0.34c2.06,3.13,3.7,6.61,2.41,10.5
	C877.71,304.91,876,308.99,874.25,313.61z"/>
<path d="M93.08,360.85c-1.04,2.85-2.96,3.89-5.24,4.21c-0.84,0.12-1.79-0.5-2.7-0.78c0.39-1.15,0.44-2.75,1.24-3.36
	C88.3,359.44,90.55,360.05,93.08,360.85z"/>
</svg>
