<?xml version="1.0" encoding="utf-8"?>
<!-- Generator: Adobe Illustrator 24.1.0, SVG Export Plug-In . SVG Version: 6.00 Build 0)  -->
<svg version="1.1" id="Layer_1" xmlns="http://www.w3.org/2000/svg" xmlns:xlink="http://www.w3.org/1999/xlink" x="0px" y="0px"
	 viewBox="0 0 1224 792" style="enable-background:new 0 0 1224 792;" xml:space="preserve">
<path d="M855.86,784.22c-0.23-1.12-0.45-2.23-0.73-3.6c1.18,0,2.34,0,3.58,0c0-1.08,0-1.9,0-2.86c-1.05,0-2.12,0-3.25,0
	c-0.18-0.53-0.32-0.95-0.51-1.5c-0.53,0-1.11,0-1.72,0c-0.19-0.53-0.33-0.96-0.48-1.38c-0.22-0.06-0.44-0.19-0.65-0.18
	c-3.67,0.08-7.28-0.08-10.78-1.43c-0.74-0.29-1.69-0.04-2.55-0.04c-9.04,0-18.09,0-27.36,0c-0.34-0.45-0.78-1.03-1.21-1.6
	c-0.43,0.39-0.69,0.63-0.78,0.71c-1.53-0.21-2.89-0.5-4.27-0.56c-3.05-0.12-6.16,0.38-8.99-1.35c-0.54-0.33-1.41-0.13-2.13-0.14
	c-4.16-0.01-8.31-0.04-12.47,0.01c-1.71,0.02-3.3-0.13-4.53-1.48c-1.95,0-3.91,0-5.86,0c-1.25-1.28-2.8-1.5-4.53-1.49
	c-7.82,0.05-15.64,0.03-23.47,0.02c-1.4,0-2.75,0.03-4.12-0.68c-2.42-1.26-5.14-0.66-7.74-0.8c-1.37-0.07-2.74-0.34-4.3-0.55
	c-0.07,0.07-0.34,0.31-0.63,0.58c-0.16-0.17-0.3-0.48-0.49-0.5c-2.43-0.35-4.86-0.91-7.3-0.93c-11.61-0.1-23.22-0.14-34.83,0.03
	c-2.67,0.04-5.13-1-7.76-0.8c-1.32-1.26-2.97-0.73-4.46-0.69c-1.75,0.05-3.2-0.46-4.66-1.51c-2.56,0-5.24,0-7.94,0
	c-0.42-0.43-0.85-0.87-1.45-1.47c-6.29,0-12.82,0.59-19.18-0.15c-7.27-0.84-14.49-0.21-21.71-0.59c-2.87-0.15-5.58,1.09-8.5,0.8
	c-2.78-0.27-5.62-0.17-8.42,0c-1.07,0.06-2.11,0.76-3.77,1.41c-0.64,0-1.99,0.06-3.33-0.01c-2.62-0.14-5.09,0.39-7.55,1.26
	c-0.98,0.34-2.14,0.18-3.21,0.22c-1.4,0.05-2.76-0.03-4.12,0.68c-1.44,0.75-3.11,0.91-4.8,0.82c-2.07-0.11-4.15-0.04-6.23-0.02
	c-1.52,0.01-2.99,0-4.49,0.66c-1.34,0.59-3.09-0.59-4.48,0.75c-0.31,0.31-1.18,0.04-1.79,0.04c-2.81,0-5.63,0.09-8.43-0.04
	c-1.64-0.08-3.32,0.51-4.94-0.46c-1.42-0.85-3.3,0.4-4.77-0.92c-0.41-0.36-1.42-0.06-2.15-0.06c-3.3,0-6.6-0.06-9.9,0.02
	c-2.26,0.06-4.39-0.3-6.52-1.1c-1.07-0.4-2.33-0.3-3.51-0.39c-2.66-0.2-5.54,0.74-7.83-1.47c-1.26,0.4-2.49-0.53-3.91-0.42
	c-0.03-0.09-0.2-0.51-0.41-1.05c-1.16,0-2.36,0.01-3.57,0c-1.52-0.02-3.03,0.1-4.48-0.7c-1.34-0.73-2.88-0.86-4.45-0.8
	c-1.63,0.06-3.3,0.35-4.87-0.64c-0.38-0.24-1.24,0.27-1.99,0.46c-0.27-0.27-0.71-0.71-1.19-1.19c-2.13,0-4.31,0-6.7,0
	c-0.37-0.5-0.8-1.09-1.12-1.52c-3.21,0-6.14-0.01-9.07,0.01c-1.65,0.01-3.24,0-4.75-0.96c-0.72-0.46-1.8-0.48-2.71-0.49
	c-6.97-0.04-13.93-0.02-20.82-0.02c-1.09-0.51-2.08-1.08-3.14-1.44c-0.96-0.33-2-0.44-3.13-0.67c-0.14,0.13-0.41,0.37-0.68,0.61
	c-1.28-1.13-2.77-1.56-4.51-1.47c-1.24,0.07-2.58,0.38-3.7-0.57c-0.02-0.01-0.33,0.32-0.67,0.67c-0.29-0.67-0.59-1.34-0.67-1.53
	c-8.29,0-15.86,0-23.47,0c-0.41-0.43-0.83-0.87-1.31-1.38c-1.39,0-2.84,0-3.93,0c-1.37-0.35-1.68-1.64-3.04-1.62
	c-2.02,0.03-3.75-1.11-5.18-2.46c-1.83-1.73-3.44-3.69-5.24-5.44c-2.55-2.47-3.57-5.8-5.1-8.84c-0.77-1.52-1.82-2.99-1.56-4.87
	c0.03-0.23-0.45-0.52-0.69-0.78c0.09-1.1,1.28-1.87,0.45-3.27c-0.72-1.22-0.66-2.89-1.2-4.26c-0.72-1.83-0.25-3.93-1.4-5.62
	c1.6-0.92-0.03-1.81-0.04-2.71c-0.01-1.1,0.33-2.35-0.09-3.26c-0.42-0.9,0.17-1.8-0.39-2.53c-0.68-0.9,0.23-2.11-0.74-3.01
	c-0.8-0.74,0.27-2.11-0.76-3c-0.32-0.28-0.28-1.15-0.19-1.71c0.46-3.02-0.7-5.89-0.84-8.86c-0.08-1.75-0.94-3.49-1.62-5.16
	c-1.59-3.93-2.52-8.04-3.41-12.15c-0.39-1.79-1.52-3.35-1.49-5.25c-2.05-2.53-1.74-5.86-2.88-8.71c-0.59-1.47-0.32-3.37-1.11-4.65
	c-0.88-1.42-0.09-2.91-0.97-4.41c-0.84-1.43,0.22-3.73-0.9-5.47c0.53-3.5-0.75-6.86-0.75-10.33c0.03-14.54,0.02-29.09,0-43.63
	c0-1.51,0.18-3-0.65-4.5c-0.64-1.16,0.49-2.81-0.72-4.12c-0.37-0.4-0.14-1.41-0.07-2.14c0.37-3.71-1.06-7.11-1.82-10.62
	c-0.53-2.45-1.21-4.87-1.87-7.29c-0.27-0.98-0.67-1.93-0.96-2.9c-0.29-0.98-0.41-2.03-0.82-2.96c-0.41-0.94-1.09-1.77-1.89-3.02
	c-0.01-1.28-0.17-2.88-1.1-4.55c-2.05-3.67-3.17-7.75-4.04-11.88c-0.23-1.11-0.52-2.23-0.99-3.25c-1.68-3.61-2.03-7.5-2.77-11.34
	c-0.64-3.34-1.23-6.75-2.39-9.98c-0.11-0.32-0.38-0.61-0.41-0.92c-0.27-2.58-0.46-5.18-0.77-7.76c-0.11-0.89-0.63-1.75-0.68-2.63
	c-0.11-1.88-0.87-3.61-0.89-5.56c-0.02-1.69-0.3-3.53-0.71-5.17c-0.82-3.22-0.45-6.42-0.66-9.62c-0.08-1.25-0.54-2.48-0.68-3.73
	c-0.14-1.15,0.19-2.34-0.71-3.4c-0.3-0.36-0.03-1.18-0.05-1.79c-0.06-1.4,0.11-2.75-0.66-4.14c-0.64-1.17,0.58-2.88-0.76-4.09
	c-0.13-0.11-0.08-0.47-0.04-0.7c0.56-3.74-0.95-7.33-0.79-11.07c0.07-1.6-0.53-3.21-0.65-4.83c-0.12-1.58,0.37-3.31-0.12-4.73
	c-0.74-2.12-0.51-4.21-0.66-6.33c-0.1-1.38-0.93-2.61-0.75-4.1c0.15-1.26-0.26-2.49-0.57-3.76c-0.48-1.96-0.13-4.12-0.13-6.2
	c0-0.98,0-1.96,0-2.93s0.4-2.37-0.09-2.84c-0.86-0.84,0.33-1.74-0.56-2.57c-0.49-0.45-0.18-1.87-0.06-2.84
	c0.1-0.79-1.3-1.44-0.18-2.27c-0.66-0.54-0.78-1.03-0.2-1.82c0.23-0.31-0.37-1.14-0.37-1.73c-0.03-6.36,0-12.71-0.05-19.07
	c-0.01-0.78,1.03-1.36,0.12-2.4c-0.48-0.55-0.09-1.88-0.09-2.86s0-1.96,0-2.93c0-1.1,0-2.2,0-3.3c0-0.98,0-1.96,0-2.93
	s0-1.96,0-2.93c0-0.98,0.25-2.04-0.04-2.92c-1.18-3.53-0.51-7.14-0.68-10.71c-0.11-2.13,1.18-4.1,0.74-6.3
	c-0.32-1.6-0.48-3.22-0.75-4.83c-0.27-1.61,0.52-3.28-0.65-4.89c-0.47-0.64-0.05-1.9-0.08-2.88c-0.07-1.8,0.25-3.77-0.39-5.34
	c-0.69-1.69,0.51-3.67-1.06-5.07c-0.06-0.05-0.02-0.24-0.01-0.36c0.4-3.24-0.75-6.23-1.45-9.3c-0.45-2-2.3-6.17-3.64-7.74
	c-0.04-0.76-0.08-1.59-0.08-1.76c-0.96-1.19-2.12-1.99-2.05-2.66c0.23-2.04-1.12-3.3-1.99-4.72c-0.66-1.08-1.36-2.09-1.82-3.29
	c-0.44-1.16-0.89-2.77-1.8-3.19c-1.44-0.67-1.38-1.9-1.99-2.88c-0.68-1.08-1.59-2.02-2.29-3.09c-0.68-1.04-1.19-2.2-1.84-3.26
	c-0.53-0.87-1.08-1.77-1.8-2.47c-0.34-0.33-1.11-0.23-1.7-0.32c-0.33-0.69-0.68-1.4-1.02-2.1c0.3-1.98,2.26-2.39,3.07-3.32
	c0.92,0.06,1.6,0.1,2.27,0.14c0.01-0.12,0.02-0.24,0.03-0.36c0.78,0.4,1.55,0.8,2.57,1.32c0.69,0,1.66,0,2.63,0
	c0.53,0.51,1.06,1,1.56,1.49c2.47,0,4.92,0.1,7.36-0.03c2.17-0.12,4.16,0.38,6.16,1.09c0.75,0.27,1.6,0.39,2.4,0.39
	c5.74,0.03,11.49,0.07,17.23-0.02c1.49-0.02,2.98-0.43,4.46-0.71c1.37-0.26,2.82,0.55,4.17-0.62c0.49-0.43,1.64-0.1,2.49-0.1
	c9.53,0,19.07,0.02,28.6-0.03c1.52-0.01,3.13,0.5,4.57-0.45c1.37-0.89,3.14,0.52,4.44-0.78c1.77,0.99,3.39-0.41,5.18-0.3
	c4.51,0.28,9.04,0,13.56,0.13c2.52,0.07,5.06-0.01,7.37-0.86c1.77-0.65,3.47-0.62,5.23-0.64c3.06-0.03,6.11-0.01,9.18-0.01
	c0.51-0.49,1.04-0.99,1.57-1.49c3.18,0,6.35,0,9.49,0c1.28-1.34,2.87-1.5,4.58-1.46c2.57,0.06,5.13,0.02,7.97,0.02
	c0.27-0.47,0.64-1.11,0.9-1.56c4.92,0,9.41,0,13.86,0c0.12-0.46,0.21-0.79,0.29-1.12c0.21-0.08,0.42-0.23,0.63-0.24
	c1.83-0.02,3.67-0.08,5.5,0.01c1.56,0.07,3.04-0.11,4.46-0.75c0.41-0.19,0.85-0.59,1.23-0.54c3.85,0.48,7.3-1.73,11.06-1.64
	c1.73,0.04,3.26-0.25,4.53-1.49c1.59,0,3.18-0.03,4.77,0.01c1.31,0.03,2.55-0.04,3.74-0.72c0.68-0.38,1.48-0.63,2.25-0.73
	c0.96-0.12,1.95-0.03,2.93-0.03c3.53,0,7.06,0,10.68,0c0.09-0.42,0.16-0.75,0.3-1.45c1.4-0.01,2.94-0.02,4.48-0.02
	c1.47,0,2.93,0,4.64,0c0.33-0.45,0.76-1.03,1.07-1.46c1.75,0,3.22,0,4.73,0c0.39-0.43,0.81-0.87,1.16-1.26
	c0.31-0.09,0.53-0.21,0.75-0.21c1.34-0.02,2.69,0,4.03-0.01c1.4-0.01,2.77,0.07,4.12-0.69c2.06-1.16,4.4-0.8,6.64-0.75
	c1.72,0.04,3.27-0.23,4.6-1.51c1.6,0.1,3.11-0.18,4.68-0.92c1.33-0.62,3-0.52,5-0.81c1.78-1.92,4.69-0.94,7.36-1.27
	c0.09-0.4,0.16-0.74,0.29-1.36c2.24,0.16,4.36-0.65,6.56-1.36c2.1-0.68,4.59-0.15,6.88-0.15c1.59-1.75,3.67-1.46,5.95-1.46
	c0.3-0.43,0.71-1.03,1.01-1.47c1.9,0,3.49-0.04,5.07,0.01c1.55,0.05,3.08,0.04,4.35-1c1.3-1.06,2.82-0.14,4.26-0.58
	c0.54-1.22,0.2-2.32-0.41-3.56c-0.49-0.98-0.2-2.18-0.67-3.38c-1.32-3.37-3.2-6.65-3.06-10.47c-1.15-1.73-0.65-3.69-0.72-5.56
	c-0.03-0.85-0.49-1.58-0.63-2.29c-0.35-1.7-1.13-3.32-0.9-5.18c0.23-1.93,0.13-3.91,0.03-5.86c-0.17-3.45-1.13-6.84-0.72-10.33
	c-0.97-1.24-0.77-2.7-0.71-4.1c0.04-1.03-0.08-1.99,0.55-3.08c0.74-1.3-0.42-2.94-0.48-4.38c-0.22-5.25-0.1-10.51-0.06-15.76
	c0-0.4,0.42-0.8,0.63-1.17c-0.22-0.98-0.68-2-0.62-2.98c0.27-4.62-0.33-9.2-0.89-13.74c-0.24-1.98-0.04-4.19-0.77-5.88
	c-0.89-2.09,0.01-4.11-0.63-5.98c-1.46-4.27-2.17-8.68-2.89-13.1c-2.07-3.07-1.94-6.78-3.04-10.12c-0.59-1.78-1.51-3.53-2.08-5.36
	c-1.27-4.12-2.39-8.29-3.72-12.4c-0.48-1.48-0.34-3.11-0.84-4.42c-0.49-1.27-1.23-2.38-1.38-3.84c-0.1-0.96-0.79-1.87-1.33-3.04
	c-0.01-4.88-1.76-9.41-5.26-13.21c0.38-0.8,0.73-1.51,1.07-2.23c1.55,0,3.11,0,4.69,0c0.09,0.41,0.17,0.74,0.27,1.23
	c0.53,0,1.1,0,1.53,0c0.9,1.13,1.49,2.46,2.5,3.02c2.8,1.54,4.81,3.8,6.78,6.19c1,1.21,2.37,2.03,3.37,3.29
	c0.91,1.15,2.49,1.76,3.43,2.9c0.9,1.09,1.93,0.8,3.3,0.94c0.63,0.78,1.42,1.76,2.31,2.87c0.24,0,0.73,0,0.93,0
	c1.09,1.08,2.08,1.97,2.96,2.96c0.82,0.92,1.89,1.57,2.42,2.8c0.58,1.37,2.62,1.43,3.05,3.07c0.48,0,0.97,0,1.53,0
	c0.1,0.31,0.21,0.63,0.41,1.26c1.4,0.01,2.53,0.91,3.6,2.06c0.86,0.93,2.24,1.42,2.97,2.41c0.63,0.87,1.52,1.43,2.11,2.34
	c1.88,2.9,3.87,5.74,5.85,8.58c0.59,0.85,1.15,1.76,1.9,2.44c2.91,2.65,4.54,6.1,6.15,9.56c0.7,1.5,2.2,2.45,2.8,3.91
	c0.69,1.68,1.54,3.14,3.08,4.39c0,0.61-0.28,1.5,0.04,2c2.16,3.39,2.46,7.56,4.69,10.9c0.77,1.15,1.49,2.41,1.03,4.15
	c0.78,0.63,1.63,1.31,2.33,1.87c0,1.51,0,2.73,0,3.58c1.98,3.95,3.8,7.6,5.82,11.62c-0.28,2.23,0.67,4.56,1.99,6.78
	c1.28,2.15,1.72,4.76,3.61,6.58c0.21,0.2,0.33,0.67,0.26,0.97c-0.28,1.29,0.85,1.89,1.22,2.81c0.48,1.19,2.35,1.53,1.86,3.2
	c1.05,0.97,1.42,2.37,2.16,3.48c1.84,2.78,2.72,6.08,4.99,8.61c0.55,0.62,2.02,0.55,1.66,2.24c-0.17,0.79,1.18,1.86,1.76,2.86
	c0.5,0.88,1,1.8,1.29,2.76c0.59,1.99,1.18,3.94,2.75,5.66c0,0.92,0,1.99,0,3.04c0.46,0.11,0.79,0.19,1.12,0.27
	c0.1,0.2,0.23,0.4,0.27,0.62c0.05,0.23,0.04,0.49,0.01,0.73c-0.47,3.9,0.76,7.28,2.74,10.62c0.96,1.62,2.39,2.63,3.43,4.09
	c9.68,0,19.33,0.03,28.98-0.03c1.37-0.01,2.73-0.48,4.1-0.7c1.25-0.2,2.64,0.49,3.77-0.7c0.23-0.24,0.95,0.03,1.43-0.05
	c1.63-0.27,3.29,0.48,4.93-0.5c1.39-0.83,3.28,0.38,4.78-0.9c0.43-0.36,1.42-0.08,2.15-0.05c2.37,0.1,4.67-0.05,6.87-1.14
	c0.69-0.34,1.61-0.32,2.43-0.32c6.23-0.02,12.47,0.01,18.7-0.04c1.01-0.01,2.02-0.34,2.98-0.52c0.99,0.18,2,0.51,3.01,0.52
	c5.38,0.05,10.76,0,16.13,0.04c1.39,0.01,2.87-0.46,4.11,0.7c0.88,0.83,1.6-1.06,2.79-0.17c0.55,0.41,1.91-0.26,3.03-0.47
	c0.1,0.3,0.25,0.72,0.44,1.26c1.26,0,2.57,0,4.3,0c0.18-0.26,0.57-0.84,1.15-1.7c0.16,0.77,0.24,1.1,0.36,1.66
	c0.32,0.04,0.76,0.15,1.2,0.15c3.06,0.01,6.12,0.17,9.16-0.03c4.71-0.31,9.43,0.1,13.97,0.93c4.73,0.87,9.37,0.06,14.26,0.76
	c0.21,0.23,0.61,0.69,0.93,1.04c0.36,0.11,0.58,0.23,0.8,0.23c1.71,0.02,3.43,0.08,5.13-0.01c1.68-0.09,3.33,0.05,4.82,0.78
	c2.05,1.02,4.2,0.6,6.56,0.72c0.32,0.43,0.75,1.01,1.06,1.44c2.24,0,4.19,0,6.19,0c0.4,0.43,0.81,0.87,1.17,1.26
	c0.31,0.09,0.53,0.22,0.74,0.21c2.84-0.12,5.61,0.16,8.25,1.34c0.51,0.23,1.18,0.16,1.78,0.12c2.14-0.13,4.11,0.38,6.14,1.11
	c1.63,0.59,3.55,0.36,5.48,0.5c1.66,1.78,4.01,1.28,6.63,1.34c0.22,0.37,0.59,1,0.76,1.29c4.61,0.62,8.88-0.63,12.99,0.9
	c0.25-0.23,0.51-0.47,0.85-0.78c0.15,0.45,0.29,0.87,0.48,1.42c4.93,0,9.91,0,14.75,0c0.56,0.56,0.99,0.99,1.49,1.49
	c1.62,0,3.31,0,4.85,0c1.29,0.89,2.44,1.68,3.81,2.63c-0.28,0.93-0.57,1.89-0.88,2.89c0.21,0.23,0.45,0.5,0.6,0.67
	c-0.22,0.56-0.56,1.08-0.59,1.6c-0.16,2.95,0.02,5.86,1.25,8.64c0.16,0.36-0.4,0.99-0.39,1.49c0,0.37,0.6,0.78,0.55,1.11
	c-0.48,3.03,0.98,5.87,0.79,8.87c-0.1,1.52,1.04,2.82,0.77,4.47c-0.24,1.48,0.06,2.96,0.59,4.48c0.7,2.04-0.03,4.28-0.72,6.24
	c-0.67,1.88-0.83,3.74-0.61,5.59c0.38,3.16-0.81,6.13-0.84,9.23c-0.02,1.44-1.75,2.47-1.44,4.15c-0.91,0.55-0.73,1.45-0.69,2.28
	c0.13,2.73-0.26,5.34-1.33,7.89c-0.35,0.83-0.03,1.92-0.17,2.87c-0.13,0.89-0.5,1.75-0.7,2.63c-0.37,1.59-0.54,3.25-0.89,4.8
	c-0.33,1.49-0.06,3.3-1.32,4.56c0.31,2.28-0.34,4.46-0.74,6.66c-0.33,1.84-1.07,3.63-0.73,5.56c-1.76,1.4,0.32,3.87-1.47,5.26
	c0.5,3.84-1.38,7.33-1.64,11.11c-0.23,3.32,0.01,6.75-0.68,9.95c-0.94,4.34-0.45,8.63-0.53,12.93c-0.03,1.59-0.6,2.97-0.83,4.46
	c-0.21,1.37,0.61,2.86-0.66,4.15c-0.37,0.37-0.06,1.41-0.06,2.15c0,7.58,0,15.16,0,22.73c0,0.61-0.25,1.42,0.04,1.8
	c1.24,1.57,0.25,3.49,0.98,5.11c0.41,0.92,0.71,1.9,1.11,3c-0.18,0.56-0.59,1.31-0.63,2.08c-0.1,1.83-0.2,3.69,0.01,5.49
	c0.27,2.32-0.68,4.43-0.89,6.66c-0.06,0.64-0.6,1.42-0.63,2.27c-0.11,2.72,0.34,5.45-0.63,8.16c-0.39,1.08-0.5,2.63,0.47,3.53
	c-0.45,2.26-1.16,4.39-1.23,6.53c-0.17,5.49,0,11-0.09,16.5c-0.03,1.98,0.22,3.93-0.55,5.99c-0.48,1.29-0.43,3.11,0.43,4.85
	c0.7,1.4,0.33,3.4,0.81,5.14c0.56,2.01,0.66,4.17,0.78,6.28c0.12,2.19-0.11,4.41,0.06,6.6c0.24,3.21,0.72,6.42,2.19,9.35
	c0.67,1.33,1.81,2.47,1.51,4.14c1.36,0.7-0.19,1.28-0.11,1.99c0.17,1.57-0.03,3.18,0.07,4.76c0.14,2.39-0.61,4.59-1.16,6.85
	c-0.33,1.37-0.32,2.85-0.3,4.27c0.02,1.56,0.02,3.12-1.06,4.33c-1.23,1.39-1.19,3-1.17,4.66c0.03,2.93,0.05,5.87-0.02,8.8
	c-0.03,1.02,0.16,2.01-0.49,3.11c-0.48,0.81,0.07,2.24,0.2,3.38c0.07,0.69,0.15,1.39,0.33,2.06c0.36,1.4-1.92,2.78-0.01,4.16
	c0,1.47-0.09,2.94,0.03,4.4c0.1,1.13,0.46,2.24,0.7,3.37c0.22,1.01-0.3,2.05,0.51,3.12c0.48,0.63,0.1,1.87,0.25,2.81
	c0.14,0.89,0.58,1.74,0.69,2.64c0.38,2.92,0.66,5.85,0.99,8.83c0.54,0.06,1.11,0.13,1.68,0.2c0.38,0.82,0.76,1.64,1.24,2.68
	c-1.06,0-1.87,0-2.67,0c-1.53,2.35-1.63,4.65-0.73,7.2c-0.43,0.91-0.7,2.64-1.54,2.98c-1.42,0.58-1.26,2.22-2.62,2.66
	c0,1.57,0,3.13,0,4.63c-0.55,0.21-0.97,0.37-1.49,0.57c0.18,3.66-0.37,7.22-1.4,10.74c-0.3,1.01-0.05,2.19-0.05,3.29
	c-1.57,1.45-1.52,3.35-1.47,5.26c0.05,2.01,0.21,4.05-1.49,5.77c0.31,5.62-0.69,11.41,1,17.13c0.8,0,1.62,0,2.42,0
	c0.19-0.46,0.36-0.88,0.72-1.76c0.2,1.37,0.34,2.32,0.49,3.28c0.23-0.2,0.51-0.34,0.51-0.48c0.05-1.76-0.23-3.57,1.04-5.23
	c0.91-0.24,2.57-0.03,2.57-1.56c0-1.34,1-1.79,1.35-2.42c-0.19-0.78-0.34-1.37-0.59-2.39c0.67,0.6,0.92,0.84,1.43,1.29
	c0.05-0.79,0.08-1.36,0.12-1.95c1.11-0.72,2.25-1.45,3.65-2.37c0.77-2.39,1.64-5.09,2.64-8.19c0.95-0.89,2.29-2.15,3.87-3.65
	c-0.58-2.94,2.61-4.87,3.25-8.11c1.6-1.35,3.1-3.13,2.58-6.23c0.61,0.45,0.83,0.61,1.12,0.83c0.57-0.73,1.33-1.42,1.7-2.27
	c0.35-0.81,0.28-1.81,0.41-2.84c0.41,0.37,0.67,0.6,1.02,0.91c0.82-3.2,1.23-6.55,3.92-8.86c0,58.67,0,117.35,0,176.02
	c-8.07,0-16.14,0-24.2,0c0.49-1.56,1.83-0.52,2.73-0.84c4.26-1.52,8.53-3.05,12.9-4.21c1.88-0.5,3.04-1.56,4.48-2.96
	c-0.52-1.07-0.87-2.2-1.54-3.07c-2.66-3.47-3.85-7.72-5.97-11.48c-1.28-2.28-1.9-5.05-3.07-7.5c-0.4-0.83-0.86-1.58-0.78-2.63
	c0.11-1.51-0.4-3.03-1.33-4.18c-1.81-2.24-2.23-4.98-2.96-7.57c-0.84-2.97-1.19-6.07-1.8-9.38c-0.37,0.77-0.59,1.25-0.89,1.88
	c-0.21-0.58-0.36-1.01-0.58-1.61c-0.61,0.04-1.27,0.09-2.05,0.14c0,1.06,0,1.87,0,2.66c-0.46,0.12-0.79,0.21-1.38,0.36
	c0,0.84,0,1.74,0,2.44c-0.91,0.44-1.52,0.73-2.13,1.02c-0.67-0.26-1.35-0.52-2.17-0.84c-0.06,1.19-0.09,2.01-0.14,2.96
	c-1.88,0-3.68,0-5.3,0c-0.57,0.83-1.1,1.46-1.45,2.17c-0.35,0.7-0.54,1.48-0.78,2.19c-0.43,0.15-0.84,0.29-1.32,0.46
	c0.36,0.86,0.65,1.56,1.03,2.47c-1.43,0-2.58,0-3.68,0c-0.54-1.37-0.96-1.63-1.72-0.88c0.21,0.43,0.46,0.92,0.51,1.02
	c-0.17,1.12-0.3,1.96-0.44,2.81c1.59,0.28,3.37-0.44,3.74,1.99c-1.39,0.77-2.85,1.58-4.47,2.47c-0.61,0.05-1.41,0.12-2.06,0.17
	c-0.15,0.62-0.23,0.95-0.34,1.4c-0.97-0.09-1.86-0.17-2.57-0.23c-0.19-0.62-0.29-0.95-0.37-1.18c-0.93,0-1.75,0-2.53,0
	c-0.18,0.53-0.33,0.96-0.44,1.28c-0.46,0.09-0.8,0.16-1.1,0.22c-0.11,1.01-0.2,1.92-0.27,2.64c-1.09,0-1.9,0-2.66,0
	c-0.13-0.78-0.22-1.4-0.3-1.86c-2.2,0.5-0.76,2.36-1.71,3.25c-0.4,0.39-0.8,0.79-1.4,1.38c1.13,0.26,1.86,0.42,2.7,0.61
	c-0.2,0.55-0.32,0.87-0.48,1.29c-0.61,0-1.18,0-1.8,0c0.08,1.27-0.32,2.19-1.23,2.91c-0.23,0.18-0.26,0.61-0.4,0.97
	c0.58,0.27,1.08,0.51,1.43,0.67c0,0.94,0,1.75,0,2.71c-1.04-0.09-1.93-0.16-2.98-0.24c0.33-0.82,0.55-1.37,1.09-2.69
	c-1.29,0.96-1.9,1.41-2.31,1.72c0.33,1.41,0.59,2.53,1,4.29c0.33,0.27,1.18,0.96,1.83,1.49c0,1.5,0,2.71,0,3.92
	c-0.46,0.18-0.88,0.35-1.3,0.52c-0.14,0.42-0.29,0.83-0.37,1.07c-0.97,0-1.79,0-2.15,0c-0.7-0.68-1.1-1.07-1.57-1.53
	c-0.36,0.77-0.59,1.25-0.9,1.89c-0.53-0.31-0.92-0.55-1.24-0.74c-0.91,0.3-1.82,0.6-2.71,0.89c0.05,0.37,0.08,0.6,0.15,1.09
	c0.87,0,1.78,0,2.59,0c0.24,0.67,0.38,1.09,0.47,1.34c0.73,0,1.3,0,1.78,0c0.19-0.56,0.34-0.97,0.4-1.16c2.27,0,4.3,0,6.4,0
	c-0.07,0.5-0.12,0.84-0.19,1.3c-1.63,0-3.21-0.04-4.77,0.03c-0.33,0.02-0.63,0.46-0.95,0.7
	C878.84,784.22,867.35,784.22,855.86,784.22z M804.16,765.88c1.27,1.39,2.88,1.49,4.58,1.48c8.56-0.03,17.11-0.02,25.67-0.01
	c0.96,0,2.2-0.27,2.81,0.21c0.76,0.6,1.53-0.61,2.26,0.44c0.31,0.46,1.86-0.02,2.82,0.1c1.04,0.13,2.05,0.55,3.09,0.68
	c0.96,0.12,1.95,0.03,2.93,0.03c2.19,0,4.37,0,6.51,0c0.22,0.52,0.39,0.94,0.57,1.39c2.03,0,4.07,0,6.37,0c0-0.98,0-1.89,0-2.07
	c2.03-2.15,3.58-3.79,5.18-5.48c0-1.34,0-2.65,0-3.93c0.8-0.15,1.47-0.28,2.11-0.4c0-0.87,0-1.6,0-2.34
	c1.75-1.58,3.69-3.01,5.18-4.8c1.35-1.62,1.87-3.86,3.5-5.35c0.07-0.07,0.08-0.21,0.04-0.1c0.09-1.24,0.16-2.27,0.27-3.75
	c0.46,0.94,0.68,1.4,1.25,2.56c0-2.37,0-4.02,0-5.62c2.33-0.33,2.28-2.18,3.32-3.84c-1.62,0-2.77,0-3.84,0
	c-0.22-0.67-0.35-1.09-0.48-1.49c-6,0-11.86,0-17.7,0c-1.27-1.36-2.87-1.46-4.57-1.46c-14.3,0.03-28.6,0.04-42.9-0.01
	c-1.86-0.01-3.83,0.57-5.58-0.68c-0.24-0.17-0.87-0.18-1.06,0c-1.35,1.3-3,0.66-4.49,0.68c-5.71,0.08-11.43,0.03-17.07,0.03
	c-0.22,0.65-0.36,1.07-0.47,1.39c-3.32,0.4-6.5,0.12-9.75,0.64c-4.08,0.65-8.28,1.38-12.5,0.93c-1.39-0.15-2.76,0.02-4.12-0.7
	c-1.44-0.76-3.12-0.84-4.8-0.82c-2.36,0.03-4.78,0.44-7.03-0.7c-4.08,0.17-8.08-1.33-12.16-0.7c-2.34,0.36-4.49-0.45-6.64-0.9
	c-1.25-0.27-2.49-0.68-3.76-0.57c-1.87,0.16-3.4-0.55-4.95-1.59c-2.61,0-5.27,0-7.9,0c-0.48-0.51-0.9-0.95-1.16-1.23
	c-1.49,0-2.8,0-4.06,0c-0.12,0.47-0.21,0.8-0.2,0.75c-1.73,0.96-3.21,1.78-4.62,2.56c-2.12,0.32-4.19,0.77-6.29,0.92
	c-2.31,0.16-4.64,0.04-6.96,0.04c-1.1,0-2.2-0.01-3.3,0.01c-0.21,0-0.42,0.15-0.63,0.23c-0.09,0.33-0.17,0.66-0.32,1.23
	c-1.73,0-3.54,0-5.34,0c-1.22,0-2.45,0.1-3.66-0.03c-1.26-0.13-2.49-0.44-3.73-0.72c-0.89-0.2-1.75-0.65-2.63-0.69
	c-2.3-0.1-4.61-0.03-6.81-0.03c-0.55,0.55-0.98,0.98-1.54,1.54c-1.67,0-3.47,0-5.24,0c-0.48,0.53-0.89,0.99-1.24,1.38
	c-3.51,0-6.93,0-10.35,0c-1.41-1.64-3.35-1.47-4.97-1.45c-0.79-1.16-1.42-2.09-1.88-2.76c0.33-1.14,0.58-2.01,0.85-2.91
	c1.5-0.44,2.4-1.7,4.21-2.95c-1.65-0.13-2.57-0.21-3.39-0.27c-0.52-0.52-0.95-0.95-1.38-1.39c-1.71,0-3.42,0-5.04,0
	c-1.45-1.12-2.84-2.19-4.09-3.16c0-0.97,0-1.69,0-2.06c0.72-0.87,1.26-1.53,1.62-1.96c1.31,0,2.37,0,3.29,0
	c0.22,0.58,0.36,0.98,0.6,1.62c2.36-2.44,4.5,0.34,6.59-0.34c0.59,0.63,1.01,1.07,1.41,1.5c1.25,0,2.47,0,3.64,0
	c1.66,1.49,3.51,1.74,5.63,0.98c-3.19-0.61-5.01-3.68-8.17-4.29c-2.1-2.41-5.89-2.44-7.76-5.43c-0.42-0.05-1-0.12-1.55-0.18
	c-0.17-0.47-0.32-0.9-0.46-1.29c-0.65-0.05-1.23-0.09-1.75-0.13c-0.19-0.56-0.34-0.99-0.52-1.52c-0.62,0-1.19,0-1.73,0
	c-0.12-0.46-0.21-0.79-0.34-1.3c-0.52-0.03-1.1-0.05-1.69-0.08c-0.53-2.16-3.5-1.9-4.05-4.06c-1.25-0.31-2.37-0.74-3.37-1.7
	c-0.42-0.41-1.56-0.07-2.05-0.07c-0.44-0.73-0.57-1.29-0.89-1.44c-2.2-0.99-4.04-2.46-5.54-4.29c-1.76-2.14-3.12-4.57-4.89-6.73
	c-1.42-1.73-2.22-3.95-3.4-5.9c-2.57-4.25-5-8.61-8.26-12.1c-0.75-2.88-1.36-5.53-3.36-7.68c-1.08-1.16-2.16-2.57-2.56-4.04
	c-1.19-4.38-3.43-8.17-5.96-11.85c-0.52-0.75-1.49-1.63-1.37-2.31c0.3-1.82-1.94-2.15-1.82-3.7c-1.6-0.65-1.26-2.43-1.96-3.61
	c-1.26-2.1-3.48-3.86-3.03-6.28c-2.59-1.5-2.49-4.08-3.55-5.95c-1.17-2.06-2.25-4.18-3.39-6.3c-1.68,0-3.39,0-5.13,0
	c-1.68-2.22-4.69-2.47-6.61-4.4c-0.95,0-1.92,0-2.87,0c-0.45-0.45-0.89-0.89-1.47-1.47c-1.49,0.14-3.14-0.19-4.74,0.2
	c0,1.93,0,3.64,0,5.09c0.79,1.51,1.48,2.82,2.11,4.03c0,1.3,0,2.5,0,3.82c-0.65,0.05-1.25,0.01-1.8,0.17
	c-0.5,0.14-0.93,0.51-1.23,0.68c-2.71-1.82-3.43-4.67-4.95-7.17c0-0.55,0-1.29,0-2.07c-2.34-1.51-1.91-4.61-3.56-6.5
	c-0.11-1.09-0.09-2.18-0.35-3.2c-0.55-2.2-2.19-4.06-2.05-6.48c-2.22-3.22-3.17-7-4.4-10.19c-0.83-0.47-1.32-0.74-1.52-0.85
	c-1.86,0.89-3.72,0.27-5.44,0.58c-0.43,0.43-0.86,0.86-1.43,1.43c-0.94,0-2,0-3.02,0c-0.2,0.55-0.35,0.98-0.49,1.38
	c-0.65,0.04-1.23,0.08-1.54,0.1c-1.43,0.87-1.12,3.04-3.07,2.97c-0.79,1.15-1.58,2.3-2.54,3.68c0,0.41,0,1.13,0,1.51
	c-1.69,1.44-2.83,2.87-3.09,4.87c-0.36,0.09-0.69,0.18-1.04,0.27c-0.37,1.14-0.14,2.52-1.98,2.9c-0.78,0.16-1.54,1.24-1.98,2.35
	c-0.7,1.78-1.91,3.36-2.92,5.06c0.25,0.29,0.72,0.73,0.68,0.8c-1.73,2.44,0.11,4.77,0.56,6.94c0.45,2.15,1.11,4.24,1.05,5.64
	c1.15,3.19,1.85,5.73,2.97,8.06c1.16,2.4,0.77,5.13,1.66,7.38c1.01,2.55,0.98,5.16,1.4,7.51c0.63,0.21,0.95,0.31,1.28,0.42
	c0,1.78-0.18,3.52,0.06,5.19c0.17,1.19,1.12,2.25,1.35,3.45c0.25,1.29,0.06,2.66,0.06,3.94c0.49,0.49,0.92,0.92,1.44,1.44
	c0.18,2.2-0.56,4.72,1.37,6.51c0,2.38,0,4.66,0,6.79c-0.99,1.34-2.18,1.07-3.3,0.91c-0.23-0.23-0.44-0.38-0.57-0.58
	c-3.28-5.24-3.96-11.55-6.95-16.93c-0.69-1.24-0.37-3-0.85-4.41c-0.47-1.38-1.62-2.54-1.98-3.93c-0.36-1.37-0.2-2.86-1.63-3.74
	c0.72-1.77-1.62-2.26-1.56-3.76c-1.87-1.47-2.07-3.77-2.85-5.79c-0.16-0.42-0.36-0.83-0.52-1.25c-1.2-3.24-2.49-6.38-2.54-10
	c-0.03-2.18-0.63-4.4-0.66-6.66c-0.01-0.79-0.71-1.56-1.06-2.28c-0.68,0.04-1.15,0.07-1.37,0.08c-2.13,2.79-1.91,6.06-2.53,9.04
	c-0.74,3.59-0.7,7.35-0.82,11.04c-0.12,3.79,0.1,7.58-0.06,11.37c-0.25,6.04,1.26,11.99,0.8,18.04c-0.05,0.61,0.45,1.26,0.7,1.91
	c-0.32,0.76-1.43,1.5-0.12,2.35c-1.27,2.61-0.37,5.39-0.6,8.09c-0.11,1.33-0.12,2.7,0.01,4.03c0.13,1.38,0.24,2.82,0.76,4.08
	c0.9,2.2,0.65,4.44,0.68,6.68c0.03,1.83-0.03,3.67,0.02,5.5c0.02,0.8,0.13,1.55,0.43,2.38c0.61,1.69,0.2,3.72,1.65,5.19
	c0.03,0.03-0.03,0.17-0.05,0.25c-0.06-0.02-0.12-0.03-0.18-0.05c-0.2,0.76-0.4,1.53-0.64,2.44c-0.75,0.43-1.6,0.92-2.26,1.3
	c-0.94-0.63-1.71-1.14-2.58-1.72c-0.64-1.75-1.43-3.63-1.99-5.59c-0.24-0.83-0.24-1.9,0.08-2.69c0.76-1.91,0.48-3.65-0.11-4.91
	c0.21-1.47,0.82-2.77,0.4-3.43c-0.81-1.28-0.76-2.57-0.57-3.78c0.25-1.54-0.79-2.68-0.82-4.11c-0.07-3.45-0.05-6.87-0.58-10.35
	c-0.69-4.47,0.02-9.06-0.75-13.63c-0.57-3.33-0.16-6.83-0.08-10.25c0.02-0.89,0.42-1.76,0.59-2.44c-0.23-0.79-0.57-1.44-0.59-2.09
	c-0.07-2.08-0.16-4.17,0.01-6.23c0.16-1.95-0.53-3.68-1.02-5.47c-0.26-0.97-0.98-1.83-1.17-2.8c-0.21-1.06-0.03-2.19-0.06-3.29
	c-0.01-0.2-0.19-0.4-0.27-0.56c-0.6,0-1.17,0-1.6,0c-1.09,2.16-2.12,4.19-3.26,6.44c0.31,4.16-1.26,8.49-0.8,12.77
	c-0.89,1.24-1.69,2.37-2.5,3.5c-1.78-0.65-3.32-1.38-4.21-3.22c1.51-2.43,0.74-5.12,0.91-7.71c0.1-1.54,0.03-3.03-0.9-4.4
	c-0.36-0.54-0.64-1.35-0.51-1.95c0.22-0.97,0.94-1.82,1.18-2.79c0.26-1.02,0.15-2.13,0.33-3.18c0.07-0.39,0.51-0.72,0.5-0.7
	c-0.27-1.22-0.83-2.23-0.53-2.72c1.23-2.06,0.35-4.18,0.8-6.66c-1.33,0.55-2.3-0.13-3.36,0.8c-1.03,0.9-2.09-0.74-3.26-0.55
	c-0.22,0.04-0.44,0.11-0.66,0.18c-2.32,0.84-4.65,1.57-7.12,1.25c-0.48,0.48-0.91,0.91-1.24,1.24c-2.17,0.39-4.33,0.47-6.24,1.21
	c-2.29,0.89-4.52,0.83-6.38-0.34c-1.16-0.73-2.35-0.18-2.97-0.6c-1.47-2.21-3.42-2.66-5.36-3.1c-0.59-2.04-2.98-3.01-3.15-5.3
	c-1.91-1.14-2.9-3.06-4.09-4.82c-1.68,0.44-2.3-1-3.37-1.96c0.15-1.15,0.31-2.39,0.5-3.88c-1.52-1.25-3.36-2.76-5.35-4.4
	c-0.23,0-0.72,0-1.2,0c-0.3-1.6-1.92-1.84-2.88-2.74c-1.85-1.76-3.14-4.05-5.34-5.47c-0.91-0.59-1.74-1.27-2.33-2.25
	c-0.59-0.97-1.43-1.79-2.27-2.79c-0.28,0-0.76,0-1.29,0c-0.16-0.44-0.31-0.86-0.48-1.33c-0.56-0.06-1.13-0.13-1.56-0.18
	c-1.16-1.8-2.73-2.75-4.68-3.11c-0.15-0.42-0.29-0.84-0.48-1.37c-0.63,0-1.2,0-1.68,0c-0.19-0.56-0.34-0.97-0.47-1.36
	c-0.89,0-1.61,0-2.69,0c-0.27-0.42-0.66-1.03-0.86-1.35c-2.34,0-4.28,0-6.13,0c-0.51,0.51-0.94,0.94-1.38,1.38
	c-0.73,0-1.46,0-2.37,0c-0.19,1.81-2.32,1.05-3.27,2.44c-0.76,1.12-2.72,1.42-4.12,2.08c-1.05-0.69-2.01-1.32-2.98-1.96
	c0-0.75,0-1.56,0-2.14c1.69-1.03,2.49-2.73,4.08-3.59c0.55-0.3,0.66-1.38,1.08-2.33c-0.79-0.59-1.69-1.13-2.43-1.84
	c-0.79-0.76-1.42-1.68-2-2.4c0.4-0.78,0.71-1.38,1.02-1.98c1.48,0,2.94,0,4.67,0c0.33,0.43,0.77,1.01,1.08,1.41c0.98,0,1.7,0,2.41,0
	c0.19-0.46,0.36-0.88,0.54-1.33c0.56-0.06,1.14-0.13,1.13-0.13c1.49-1.37,2.67-2.35,3.72-3.45c1.15-1.2,2.18-2.51,3.25-3.78
	c1-1.19,1.67-2.71,3.28-3.28c0.26-1.8,2.48-1.74,3.11-3.42c0.5-1.34,2.37-1.9,2.98-3.4c2.03-0.13,2.19-2.45,3.75-3.19
	c1.49-0.7,2.04-2.71,3.9-2.99c0.62-1.82,2.38-2.23,3.8-3.07c0.09-0.33,0.12-0.69,0.27-0.99c0.44-0.9,5.76-6.9,6.61-7.6
	c0.83-0.68,1.63-1.42,2.4-2.17c0.77-0.75,1.84-1.06,2.39-2.18c0.35-0.72,1.59-0.95,2.11-1.64c1.29-1.73,2.4-3.61,3.4-5.15
	c0.98-0.85,1.89-1.43,2.53-2.23c1.3-1.63,2.49-3.35,3.64-5.09c1.07-1.62,2.88-2.73,3.36-4.78c0.03-0.12,0.52-0.09,0.6-0.23
	c0.95-1.62,3.39-1.89,3.69-4.09c1.9-0.64,1.93-2.98,3.58-3.93c0.87-0.5,0.35-2.37,1.99-2.38c0.24-1.27,1.3-1.92,2.07-2.82
	c1.63-1.9,3.96-3.18,4.94-5.65c2.07-0.3,1.45-3.24,3.5-3.56c0.23-1.67,2.09-1.85,2.76-2.85c2.31-3.49,5.65-5.93,8.42-8.94
	c1-1.09,2.97-1.7,3.34-2.89c0.59-1.9,2.85-1.96,3.24-3.75c2.03-0.85,2.65-3.18,4.37-4.24c1.01-0.62,1.56-1.66,2.67-2.19
	c0.81-0.38,1.26-1.56,1.8-2.42c0.69-1.08,1.91-1.53,2.77-2.44c1.61-1.7,3.22-3.43,4.94-4.99c2.75-2.49,5.82-4.63,8.82-6.84
	c0.61-0.45,1.48-0.55,2.23-0.81c0.14-0.41,0.29-0.83,0.43-1.23c0.59,0,1.07,0,1.28,0c1.54-1.24,2.97-2.27,4.26-3.45
	c0.75-0.68,1.13-1.97,1.95-2.31c1.08-0.43,1.37-2.21,2.93-1.67c0.02,0.01,0.12-0.46,0.28-0.58c0.99-0.72,1.75-1.7,2.65-2.51
	c0.87-0.78,2.57-0.82,2.63-2.46c1.38-0.04,2.26-1.03,3.37-1.63c2-1.08,3.59-2.8,5.94-3.39c1.04-0.26,1.84-1.47,3.03-2.5
	c0.36-0.02,1.18-0.07,1.96-0.11c0.19-0.54,0.34-0.96,0.33-0.93c1.06-0.52,1.79-0.82,2.47-1.22c1.18-0.69,2.26-1.67,3.52-2.12
	c1.82-0.65,5.74-2.69,7.1-4.09c0-0.73,0-1.47,0-1.93c-1.42-2.1-2.56-4.18-4.86-5.2c-0.51-0.23-0.71-1.13-1.06-1.72
	c-0.33-0.56-1.03-0.37-1.51-1.12c-2.08-3.24-2.61-4.25-7.1-6.84c-1.64-0.95-3.19-1.34-5.04-1.06c-0.15,0.4-0.36,1.2-0.47,1.19
	c-1.31-0.17-0.99,1.53-1.86,1.62c-1.33,0.14-0.84,1.49-1.55,2.06c-0.52,0.41-0.74,1.16-1.19,1.68c-3.08,3.57-5.99,7.28-9.17,10.78
	c-1.48,1.63-2.26,3.9-3.43,6c-1.84,0.52-2.08,2.6-3.11,4.02c-1.11,1.52-2.28,3-3.44,4.52c-0.38,0.99-0.53,2.71-1.23,2.97
	c-1.67,0.62-1.47,2.15-2.24,3.15c-0.85,1.12-2.18,2.1-2.5,3.35c-0.81,3.12-3.91,4.83-4.51,7.98c-2,0.86-2.14,2.95-3.04,4.54
	c-0.41,0.72-1.1,1.29-1.5,1.74c-1.28,0-2.25,0-3.58,0c-0.27-0.41-0.68-1.01-1.01-1.51c-1.21,0-2.17,0-3.05,0
	c-0.51-0.51-0.94-0.94-1.5-1.5c-0.45,0-1.02,0-1.17,0c-1.9-1.52-3.56-2.68-5.02-4.05c-1-0.93-1.72-2.16-2.58-3.25
	c-0.94-1.2-2.34-2.26-2.73-3.62c-0.42-1.47-1.6-2.21-2.18-3.45c-1.95-4.21-3.58-8.36-3.62-13.24c-0.03-3.65,1.38-6.65,2.81-9.53
	c1.24-2.5,2.74-5.02,4.58-7.33c2.78-3.47,5.34-7.12,8.45-10.33c2.64-2.72,5.37-5.35,8.02-8.06c0.81-0.83,1.52-1.79,2.23-2.68
	c0.6-0.76,2.21-1.25,2.55-2.23c0.31-0.88,0.75-0.94,1.35-1.24c0.52-0.26,0.01-1.61,1.23-1.3c1.63-1.62,3.26-3.25,4.89-4.87
	c-0.25-1.3,1.58-0.86,1.74-2.2c0.09-0.79,2.23-1.23,2.53-2.13c0.4-1.19,1.34-1.65,1.97-2.49c0.15-0.2,0.64-0.13,0.92-0.17
	c0.22-0.52,0.36-0.96,0.57-1.36c0.74-1.44,1.91-2.47,3.28-3.29c0.85-3.56,4.05-5.81,5.17-9.23c0.13-0.4,0.8-0.63,1.03-0.79
	c0.58-1.76,1.12-3.37,1.77-5.34c0-1.01,0-2.45,0-3.89c-1.12-0.77-2.18-1.5-3.45-2.37c0.18,0.02,0.06-0.01-0.05-0.01
	c-4.03,0-8.08,0.15-12.1-0.07c-1.86-0.1-3.51,0.54-5.16,0.95c-0.86,0.21-1.73,0.57-2.67,0.58c-1.34,0.02-2.68,0.01-3.7,0.01
	c-1.18,0.61-2.08,1.08-2.95,1.52c-0.46-0.31-0.84-0.57-1.04-0.7c-1.29,0.3-2.41,0.56-3.85,0.9c-0.25,0.24-0.78,0.74-1.26,1.2
	c-2.01,0-3.95,0-5.87,0c-0.93-0.67-1.83-1.32-3.06-2.2c1.26-0.88,2.17-1.52,3.07-2.16c0.26,0.23,0.51,0.46,0.61,0.54
	c1-0.33,1.85-0.6,2.48-0.8c0.81-1.75,1.38-3.4,3.1-4.16c2.34,0.45,4.59,0.89,6.4,1.24c2.86-0.45,5.35-1.1,7.87-1.18
	c5.5-0.17,11,0.04,16.5-0.1c2.32-0.06,4.12,1.4,6.34,1.66c0.89,0.1,1.81,1.42,2.14,2.67c0.06,0.22,0.78,0.27,0.98,0.34
	c0.19,1.05,0.33,1.85,0.48,2.66c0.13,0.68,0.59,1.49,0.37,2c-0.79,1.77-0.58,3.85-1.82,5.49c-0.74,0.98-1.29,2.14-1.77,3.29
	c-0.9,2.19-0.85,2.21-2.89,4.25c-0.05,0.81-0.09,1.64-0.14,2.4c-0.53,0.22-1.26,0.33-1.32,0.58c-0.51,2.4-2.46,3.69-3.92,5.36
	c-1.17,1.34-2.64,2.35-3.58,4c-0.72,1.26-2.33,1.92-3.16,3.33c-0.48,0.82-1.73,1.15-2.45,1.88c-0.73,0.73-1.14,1.77-1.87,2.49
	c-0.71,0.71-1.74,1.11-2.45,1.82c-0.71,0.71-1.09,1.76-1.82,2.45c-1.75,1.65-3.12,3.63-5.02,5.19c-2.4,1.98-4.9,3.96-6.7,6.59
	c-0.38,0.56-0.63,1.58-1.07,1.65c-1.81,0.31-2.01,2.09-3.11,3.01c-1.22,1.02-2.02,2.41-3.06,3.57c-0.41,0.46-0.89,0.86-1.57,1.51
	c0,0.48,0,1.3,0,2.14c-0.7,0.08-1.28,0.14-1.73,0.19c-0.6,1.09-0.94,2.3-1.73,3.03c-1.69,1.58-2.41,3.66-3.3,5.63
	c-1.18,2.62-1.54,5.47-1.11,8.29c0.13,0.83,0.71,1.68,0.64,2.64c-0.12,1.6,0.22,3.04,1.46,4.16c0,0.74,0,1.47,0,1.78
	c2.88,4.51,5.99,8.42,9.45,12.52c0.4,0,1.22,0,1.91,0c0.56,0.56,0.99,0.99,1.23,1.23c1.7,0.32,3.18,0.6,4.88,0.93
	c0.3-0.56,0.52-1.67,1.09-1.89c1.56-0.62,1.98-2.18,2.96-3.22c1.04-1.1,1.43-2.79,2.16-4.2c0.37-0.71,0.72-1.52,1.31-2
	c1.58-1.3,2.24-3.26,3.48-4.8c1.39-1.73,2.19-4.02,3.8-5.71c0.49-0.51,1.23-0.94,1.42-1.54c0.8-2.47,2.74-4.22,3.9-6.45
	c0.37-0.7,1.56-1.03,1.24-2.03c-0.49-1.52,1.72-0.66,1.56-1.91c-0.03-0.23,0.94-0.47,1.21-0.87c2.06-2.97,3.7-6.23,6.46-8.71
	c0.7-0.62,0.9-1.8,1.31-2.68c2.74-0.59,2.73-3.83,4.54-4.64c0.48-1.67,0.86-2.99,1.15-4.01c1.52-0.73,2.74-1.31,3.84-1.84
	c1.86,0.42,3.16,2.04,5.08,1.55c1.45,1.38,3.63,1.21,5.19,2.64c0.89,0.81,1.82,1.74,2.88,2.47c1.21,0.83,2.46,1.86,2.96,3.49
	c0.14,0.46,1.45,0.05,1.29,1.26c-0.06,0.47,0.45,1.01,0.68,1.52c0.29,0.64,1.43,0.01,1.52,1.16c0.08,0.97,1.65,0.81,1.86,2.11
	c0.14,0.9,1.09,1.71,1.78,2.47c0.54,0.6,1.24,1.06,2.23,1.89c0.75,0,2.06,0,3.35,0c0.19-0.47,0.35-0.88,0.54-1.35
	c0.82-0.04,1.64-0.08,1.72-0.08c2.88-1.69,5.16-3.02,7.61-4.45c0.52,0,1.23,0,1.91,0c0.18-0.51,0.33-0.93,0.48-1.34
	c2.02,0.07,3.16-1.44,4.6-2.33c1.36-0.85,2.69-1.76,4.07-2.58c1.47-0.87,3.27-1.37,4.39-2.54c1.11-1.16,2.83-0.93,3.8-2.53
	c0.81-1.33,2.67-2.16,4.21-2.88c1.59-0.75,2.49-2.21,3.85-3.12c1.38-0.92,2.97-1.51,3.84-3.24c0.51,0,1.09,0,1.62,0
	c0.19-0.55,0.34-0.97,0.48-1.37c0.58,0,1.07,0,1.63,0c0.15-0.42,0.29-0.84,0.46-1.31c0.65-0.11,1.32-0.22,1.99-0.33
	c-0.12-1.3,0.13-2.22,1.33-2.78c0.72-0.34,1.5-0.82,1.95-1.45c2.05-2.91,5.17-4.71,7.51-7.31c0.19-0.21,0.64-0.18,0.69-0.2
	c0.31-0.87,0.37-1.68,0.8-2.12c1.23-1.26,1.3-3.38,3.14-4.16c1.97-4.05,3.79-8.13,3.68-12.78c-0.04-1.76-0.17-3.51,0.67-5.22
	c0.49-1,0.64-2.21,0.76-3.34c0.31-3.07,0.51-6.15,0.75-9.23c0.02-0.24-0.1-0.62,0.02-0.71c1.29-1.06,0.51-2.5,0.72-3.75
	c0.23-1.37,0.68-2.73,0.7-4.1c0.08-5.74,0.04-11.49,0.03-17.23c0-0.72,0.19-1.58-0.12-2.14c-1.01-1.79-1.05-3.74-1.46-5.66
	c-0.43-2-0.58-3.95-0.63-5.95c-0.01-0.58,0.08-1.37-0.24-1.71c-0.94-0.99-0.25-2.1-0.48-3.12c-0.25-1.12-0.61-2.23-0.71-3.36
	c-0.3-3.44,0.45-6.92-0.7-10.35c-0.59-1.76,0.26-3.71-0.58-5.63c-0.78-1.77,0-3.91-0.86-5.88c-0.64-1.46,0.55-3.46-0.56-4.88
	c-1.08-1.39-0.89-3.06-1.43-4.55c-0.96-2.68-1.42-5.55-2.02-8.05c-0.64-0.76-1.17-1.39-1.8-2.14c-0.95,0.5-1.95,1.03-2.72,1.44
	c-3.8,0.7-7.69-1.06-11.23,1.73c-0.57,0-1.39,0-2.33,0c-0.37,0.49-0.74,0.97-1.06,1.39c-3.08,0-6,0-8.88,0
	c-0.47,0.47-0.9,0.9-1.34,1.34c-1.55,0.09-3.3-0.25-4.62,0.35c-2.36,1.07-4.72,1.33-7.41,1.16c-0.38,0.48-0.83,1.05-1.22,1.55
	c-1.86,0-3.56,0-5.22,0c-0.48,0.48-0.91,0.91-1.44,1.44c-1.81-0.12-3.68-0.06-5.13,1.45c-1.47,0-2.94-0.1-4.4,0.03
	c-1.5,0.13-3.08,0.21-4.44,0.77c-1.97,0.8-3.95,0.64-5.95,0.67c-0.48,0.01-0.95,0-1.79,0c-0.27,0.46-0.65,1.09-0.93,1.56
	c-2.03,0-3.71,0-5.36,0c-0.48,0.51-0.9,0.95-1.3,1.38c-1.38,0-2.73-0.1-4.07,0.03c-1.38,0.13-2.74,0.44-4.1,0.71
	c-1.01,0.2-1.99,0.61-3,0.7c-2.11,0.19-4.18,0.17-6.32,0.63c-3.34,0.72-6.86,0.66-10.3,0.84c-1.95,0.1-3.91-0.02-5.87,0.04
	c-0.68,0.02-1.46,0.1-1.99,0.46c-1.47,1-3.07,1.07-4.61,0.97c-3.25,2.64-7.04,0.93-10.47,1.59c-0.43,0.43-0.86,0.86-1.24,1.24
	c-3.23,0.5-6.53-0.57-9.62,0.85c-4.2-0.12-8.31,1.26-12.53,0.74c-0.24-0.03-0.48,0-0.62,0c-3.25,2.62-7.03,0.92-10.46,1.58
	c-0.43,0.43-0.86,0.86-1.35,1.35c-2.14,0-4.33-0.09-6.52,0.03c-1.98,0.11-4.05,0.17-5.91,0.78c-2.12,0.69-4.46,0.03-6.25,0.82
	c-2.03,0.89-4.35-0.34-5.61,1.08c-1.43-0.21-2.73-0.82-3.39-0.41c-1.39,0.88-2.77,0.58-4.16,0.62c-2.44,0.07-4.89,0-7.33,0.03
	c-1.19,0.02-2.52-0.18-3.55,0.27c-1.55,0.68-3.02,0.63-4.45,0.13c-0.54-0.19-0.71,0.06-1.07,0.09c-2.98,0.26-5.89,1.04-8.91,0.99
	c-6.35-0.09-12.71,0.01-19.07-0.05c-1.93-0.02-3.58,0.68-5.09,1.32c-0.64-0.21-1.16-0.44-1.71-0.56c-2.05-0.43-3.94,0.7-5.93,0.7
	c-13.08,0.04-26.16,0.04-39.24,0c-1.01,0-2.01-0.38-3.16-0.6c-0.12,0.11-0.35,0.44-0.66,0.57c-0.32,0.13-0.72,0.03-1.07,0.07
	c-1,0.12-2.15-0.15-2.88-0.45c-1.47-0.6-2.22-0.19-2.89,0.68c0.33,0.97,0.38,2.15,0.97,2.59c1.11,0.83,0.57,2.5,1.56,2.96
	c1.35,0.64,1.39,1.89,1.96,2.9c0.56,0.98,1.03,2.02,1.57,3.02c0.32,0.6,0.6,1.27,1.05,1.76c2.53,2.77,3.69,6.28,5.19,9.59
	c1.02,2.26,1.87,4.6,2.99,7.4c0.07,0.96-0.1,2.41,0.63,3.94c1.27,2.68,1.88,5.66,2.19,8.6c0.14,1.33,1.1,2.76,0.09,4.15
	c1.16,2.87,1.56,5.85,1.5,8.93c-0.01,0.52,0.37,1.04,0.59,1.61c0.01-0.01-0.09,0.08-0.16,0.17c-0.15,0.18-0.43,0.36-0.43,0.55
	c-0.02,4.89-0.04,9.78,0,14.67c0.01,1.27-0.42,2.66,0.71,3.74c0.06,0.06,0.01,0.24,0.01,0.36c-0.42,0.85-0.61,1.73-0.73,2.63
	c-0.53,3.86,0.73,7.6,0.73,11.43c0,10.39-0.01,20.78,0.01,31.17c0,0.92-0.34,1.98,0.71,2.64c-0.87,1.78-0.88,1.78-0.43,3.24
	c0.13,0.43,0.41,0.85,0.42,1.28c0.04,2.08-0.08,4.16,0.05,6.23c0.12,2.11,0.66,4.2,0.66,6.3c0,3.23,1.31,6.34,0.79,9.6
	c-0.03,0.21,0.02,0.54,0.16,0.65c0.98,0.76,0.16,1.98,0.62,2.67c0.63,0.93,0.99,1.57-0.03,2.35c1.6,3.23,0.27,6.66,0.69,9.98
	c0.1,0.83-0.27,1.95,0.15,2.48c1.07,1.36,0,3.01,0.67,4.13c0.85,1.4,0.54,2.76,0.65,4.15c0.26,3.44,0.49,6.89,0.74,10.33
	c0.01,0.12-0.04,0.33,0.01,0.35c1.5,0.8,0.37,2.42,1.13,3.6c0.62,0.96,0.19,2.57,0.35,3.87c0.15,1.25,0.57,2.48,0.69,3.73
	c0.12,1.33-0.01,2.69,0.04,4.03c0.11,2.84,1.18,5.6,0.73,8.5c-0.02,0.12-0.05,0.28,0,0.36c1.86,2.86,0.8,6.4,2.19,9.36
	c-0.08,4.36,1.5,8.43,2.23,12.65c0.47,2.73,1.49,5.37,1.44,8.2c1.21,1.42,0.66,3.36,1.47,4.89c0.87,1.65,1.13,3.46,1.59,5.23
	c0.43,1.63,0.52,3.43,1.37,4.91c1.44,2.5,1.2,5.54,2.85,8.01c1.11,1.67,1.74,3.67,2.27,5.65c0.12,0.43,0.25,0.93,0.55,1.23
	c1.13,1.15,1.22,2.69,1.62,4.1c0.41,1.43,0.48,2.97,0.99,4.36c1.37,3.8,1.79,7.82,2.65,11.73c0.35,1.57,0.09,3.21,0.7,4.85
	c0.55,1.48-0.13,3.21,0.73,4.85c0.5,0.96,0.03,2.4,0.11,3.62c0.08,1.21,0.6,2.48,0.38,3.61c-0.23,1.18,0.41,2.08,0.4,3.18
	c-0.11,9.9-0.06,19.8-0.07,29.7c0,0.72,0.2,1.6-0.12,2.14c-1.11,1.83-0.5,3.62-0.48,5.33c0.61,0.14,0.94,0.22,1.38,0.32
	c-0.22,1.69,0.22,3.29-0.67,4.92c-0.36,0.66,0.55,1.93,0.6,2.94c0.11,2.07,0.03,4.15,0.03,6.23c2.2,2.12,1.22,4.91,1.52,7.3
	c0.27,0.39,0.44,0.71,0.69,0.95c1.5,1.48,0.44,3.55,1.34,5.33c1.11,2.18,1.31,4.83,1.9,7.25c0.34,0.07,0.67,0.14,0.82,0.18
	c0.62,3.32,0.97,6.57,1.88,9.67c0.69,2.36,1.25,4.84,2.77,6.93c0.17,0.24,0.77,0.79,0.52,1.7c-0.33,1.19,0.42,2.65,0.22,3.92
	c-0.24,1.55,0.81,2.68,0.84,4.11c0.02,0.88,0.55,1.74,0.67,2.63c0.45,3.35,0.95,6.7,1.36,10.04c0.41,3.37,1.31,6.52,2.32,9.56
	c-0.34,0.47-0.6,0.85-0.8,1.13c0.32,0.69,0.75,1.19,0.77,1.71c0.11,2.48-0.08,4.96,0.73,7.41c0.75,2.27,1.21,4.64,1.74,6.98
	c0.26,1.16,1.43,1.5,2,2.4c1.01,1.57,2.04,3.26,3.46,4.4c2.01,1.61,3.53,3.78,5.95,5.05c2.21,0.08,4.68-0.5,6.34,1.47
	c2.58,0,5.08-0.53,7.16,0.17c1.59,0.53,3.14,0.05,4.49,0.63c1.62,0.68,3.21,0.66,4.86,0.67c3.3,0.01,6.59,0,9.89,0
	c1.08,0.7,2.27,1.43,3.44,1.39c2.18-0.08,4.31,0.26,6.27,0.91c1.65,0.55,3.22,0.55,4.86,0.65c0.68,0.04,1.36,0.23,2,0.46
	c1.54,0.54,2.98,0.37,4.44-0.52c0.34,0.25,0.72,0.76,1.08,0.74c3.12-0.17,6.08,1.08,9.24,0.83c3.16-0.25,6.35-0.08,9.53-0.04
	c1.39,0.02,2.73,0.2,4.13,0.59c2.1,0.57,4.32,1.32,6.63,0.89c0.68-0.13,1.41-0.02,2.04-0.02c0.22,0.64,0.36,1.06,0.5,1.47
	c2.17,0,4.24-0.02,6.32,0.01c0.7,0.01,1.42,0.06,2.09,0.26c2.24,0.66,4.45,1.38,6.84,1.21c1.22-0.09,2.45,0.05,3.66-0.03
	c1.72-0.11,3.25,0.24,4.76,1.53c1.6,0,3.4,0,5.09,0c0.55,0.56,0.98,0.99,1.4,1.42c1.47,0,2.94,0,4.66,0
	c0.34,0.43,0.79,1.01,1.14,1.47c7.11,0,7.11,0,9.66,1.47c6.09,0,12.31,0,18.53,0c0.86,0,1.99-0.35,2.51,0.07
	c1.46,1.17,3.45-0.06,4.43,0.77c1.83,1.57,3.26,0.02,4.58-0.27c2.01-0.43,3.96-0.56,5.96-0.57c4.77-0.02,9.54-0.08,14.3,0.03
	c1.86,0.04,3.4-0.55,4.67-1.41c1.67-0.1,3.18,0.05,4.53-0.34c2.37-0.69,4.68-1.41,7.19-1.24c1.21,0.08,2.44,0.01,3.64,0.01
	c0.45-0.45,0.88-0.88,1.47-1.47c3.49,0,7.14-0.1,10.78,0.04c1.82,0.07,3.59-0.22,5.16-0.88c1.05-0.44,1.99-0.63,3.04-0.63
	c8.92-0.01,17.85,0,26.77,0c0.61,0,1.54-0.26,1.78,0.04c1.25,1.54,3.44-0.22,4.58,1.42c1.71,0,3.42,0,5.13,0c2.93,0,5.86,0,8.77,0
	c1.26,1.36,2.85,1.51,4.55,1.49c1.29-0.01,2.65,0.01,3.87,0.39c2.02,0.64,4,1.31,6.16,1.05c1.74-0.21,3.24,0.3,4.53,1.47
	c5.26,0,10.52,0.12,15.77-0.03c5.16-0.15,10.29,0.09,15.49-0.51c5.18-0.6,10.53,0.3,15.81,0.55c0.23,0.01,0.58-0.01,0.67,0.12
	c0.61,0.91,1.57,0.72,2.32,0.55c0.71-0.16,0.86,1.21,1.78,0.4c0.33-0.29,1.37,0.31,2.09,0.37c0.85,0.08,1.71,0.02,2.57,0.02
	c1.71,0,3.41,0,5.42,0c0.31,0.44,0.74,1.03,1.06,1.47c9.3,0,18.35,0.05,27.39-0.04c1.98-0.02,3.67,0.45,4.98,1.4
	c3.59,0.47,7.01-0.6,10.24,0.84c4.83-0.54,9.55,0.95,14.36,0.74C801.02,765.82,802.61,765.88,804.16,765.88z M858.42,240.74
	c-1.6,0-3.19-0.04-4.79,0.01c-2.02,0.06-4.11,0.2-5.9-0.8c-1.14-0.65-2.23-0.66-3.4-0.67c-4.14-0.01-8.28-0.01-12.4-0.01
	c-0.21-0.52-0.38-0.93-0.59-1.47c-9.35,0-18.74-0.07-28.14,0.07c-1.4,0.02-2.77-1.08-4.18-0.11c-0.03,0.02-0.16-0.15-0.25-0.19
	c-1.05-0.42-2.07-1.02-3.16-1.19c-1.31-0.21-2.68-0.05-4.03-0.05c-4.03,0-8.07,0.04-12.1-0.02c-1.6-0.02-3.2-0.28-4.96-0.45
	c-0.06,0.04-0.29,0.23-0.42,0.33c-0.86-0.46-1.56-0.83-2.49-1.33c-1.44,0-3.53-0.62-4.76,0.15c-1.61,1.01-2.6,0-3.57-0.19
	c-0.64,0.41-1.02,0.66-1.12,0.72c-0.97-0.29-1.61-0.64-2.26-0.66c-1.88-0.04-3.71,0.22-5.59,0.59c-3.6,0.7-7.34,0.7-11.41,1.03
	c-0.21,0.27-0.66,0.84-1.04,1.33c-3.35,0-6.51,0-9.62,0c-1.34,1.29-2.91,1.51-4.62,1.45c-1.83-0.07-3.67,0.04-5.5-0.03
	c-1.71-0.06-3.3,0.13-4.36,1.29c-0.76-0.2-1.42-0.53-2.06-0.51c-1.69,0.04-3.41,0.54-5.05,0.31c-4.74-0.66-9.38-0.6-14.1,0.75
	c0.81,1.76,1.15,4,2.43,4.89c1.52,1.05,1.36,3.36,3.36,3.72c0.44,2.03,2.56,3.19,2.98,4.97c0.36,1.52,1.59,2.23,2.04,3.59
	c0.42,1.26,1.55,2.33,2.52,3.33c1,1.03,1.74,2.16,2.19,3.51c0.57,1.74,2.61,2.74,2.26,4.8c0.52,0.14,0.85,0.22,0.91,0.24
	c1.45,2.78,3.32,5.26,4.02,8.03c0.75,2.95,3.06,5.07,3.32,7.82c0.56,0.26,0.86,0.39,1.27,0.58c-0.44,0.4-0.62,0.56-0.8,0.72
	c2.21,2.14,1.22,4.93,1.54,7.39c0.98,1.61,1.83,3.24,2.89,4.72c1.27,1.77,1.45,3.72,1.45,5.77c-0.01,5.26-0.01,10.51,0,15.77
	c0,1.52-0.14,3.05,0.71,4.47c0.81,1.36,0.78,2.91,0.76,4.45c-0.04,4.03-0.02,8.07-0.01,12.1c0.01,2.49-0.08,4.96,0.69,7.41
	c0.82,2.6,1.28,5.3,2.43,7.8c0.67,1.46,1.47,2.92,1.26,4.6c-0.25,2.06,0.43,3.92,1.08,5.8c0.15,0.43,0.41,0.88,0.38,1.3
	c-0.28,3.95,1.49,7.43,2.5,11.08c0.72,2.59,0.75,5.08-0.28,7.57c1.03,1.62,0.73,3.26,0.44,5.05c-0.27,1.74,0.21,3.6,0.28,5.4
	c0.06,1.81,0.01,3.61,0.01,5.33c0.84,0.33,1.48,0.58,2.7,1.06c-0.62-1.07-0.89-1.54-1.21-2.09c0.36-0.09,0.69-0.17,1.3-0.32
	c0.5-1.65,0.76-3.64,1.67-5.28c1.61-2.92,2.36-6.12,3.59-9.16c1.06-2.62,1.84-5.35,2.99-7.93c1.15-2.58,1.95-5.35,3.66-7.64
	c0.73-0.97,0.67-1.97,0.72-3.02c0.01-0.2,0.22-0.39,0.34-0.59c0.24,0,0.49,0,0.9,0c0.62-1.76,1.26-3.57,1.9-5.39
	c-0.14-0.1-0.29-0.19-0.43-0.29c0.85-0.68,1.7-1.36,2.17-1.75c0.44-1.57,0.76-2.67,1.05-3.72c0.89-1.24,1.9-2.41,2.63-3.73
	c0.98-1.78,1.79-3.65,2.61-5.51c0.84-1.89,2.26-3.41,3.27-5.22c1.49-2.68,2.61-5.56,4.1-7.89c0.83-0.41,1.44-0.71,2.01-1
	c0.56,0.26,1.1,0.46,1.57,0.76c0.49,0.31,0.92,0.72,1.38,1.09c-0.21,3.36-3.55,5.55-2.98,8.96c-0.56,0.15-0.89,0.23-1.56,0.41
	c0.51,1.65-0.58,2.94-1.16,4.43c-1.7,4.31-4.91,7.96-5.55,12.75c-0.1,0.72-0.82,1.36-1.25,2.04c-0.25,0.39-0.68,0.75-0.73,1.16
	c-0.32,2.8-2.46,4.8-3.09,7.55c-0.59,2.58-2.35,4.87-3.41,7.36c-1.11,2.6-1.97,5.34-3.17,7.85c-1.66,3.47-2.69,7.4-5.58,9.7
	c-0.54,4.29-3.19,7.21-4.73,11.37c-0.3,0.64,0.86,2.24-0.28,3.2c1.15,2.42,2.26,4.77,3.37,7.12c0,6.1-0.02,12.21,0.02,18.32
	c0.01,1.04,0.32,2.07,0.41,3.12c0.07,0.86-1.14,1.87,0.3,2.57c-0.11,1.3,0.02,2.68-0.39,3.88c-0.37,1.09-0.43,2-0.08,3.03
	c1.36-1.08,3.05-1.88,3.81-3.21c0.59-1.04,1.51-1.26,2.18-1.93c0.82-0.83,1.84-1.46,2.73-2.23c2.99-2.6,6.07-5.1,8.48-8.3
	c0.63-0.83,1.19-1.71,1.82-2.54c0.61-0.8,1.16-1.68,1.91-2.33c1.24-1.09,1.81-2.94,3.7-3.28c-0.06-1.32,1.22-1.69,1.81-2.55
	c1.45,0.52,0.75-2.1,2.24-1.53c2.06-1.81,4.28-3.47,6.12-5.49c1.07-1.17,2.16-2.81,3.43-3.08c1.29-0.28,0.63-2.07,2.22-1.82
	c0.74,0.12,1.71-1.05,2.51-1.72c0.2-0.16,0.13-0.65,0.14-0.74c2.48-0.75,4.76-1.45,7.13-2.17c0.1-0.29,0.25-0.72,0.42-1.23
	c1.49,0.27,2.8-0.18,4.18-0.52c1.73-0.43,3.65-0.01,5.47-0.13c1.74-0.12,3.46-0.62,5.2-0.67c3.54-0.11,7.09,0.05,10.63-0.07
	c1.86-0.06,3.41,0.53,4.94,1.59c4.33,0,8.7,0,13.02,0c0.49,0.51,0.92,0.95,1.33,1.38c1.49,0,2.95,0,4.68,0
	c0.33,0.43,0.77,1.01,1.16,1.51c0.9,0,1.74-0.23,2.24,0.05c1.08,0.59,1.93,1.43,2.91,2.06c0.99,0.64,1.85,1.4,2.69,2.22
	c0.72,0.71,1.19,1.91,2.57,1.59c0.64,1.89,2.57,2.5,3.8,3.8c1.25,1.32,2.54,2.61,3.79,3.93c0.27,0.29,0.44,0.68,0.72,0.96
	c2.2,2.16,4.77,4.05,6.49,6.53c1.21,1.74,3.45,2.64,3.94,4.94c0.05,0.25,0.88,0.26,1.19,0.55c1.48,1.36,2.84,2.82,3.82,4.64
	c1.13,2.1,2.99,3.85,2.95,6.49c0,0.09,0.15,0.24,0.25,0.25c1.78,0.24,1.39,2.12,2.22,2.95c0.42,0.09,0.75,0.17,1.1,0.25
	c0.04,0.92,0.08,1.74,0.12,2.52c1.06,0.43,1.69,0.87,2.24,2.02c1.48,3.14,1.65,6.48,2.05,9.78c0.28,2.29,0.05,4.64,0.05,6.96
	c1.95,2.63-0.13,5.16-0.21,7.74c-1.62,1.64-1.21,3.73-1.25,5.71c-0.02,0.97,0.36,2.26-0.12,2.85c-1.12,1.38-0.04,2.97-0.68,4.14
	c-0.84,1.5-0.65,2.99-0.65,4.5c-0.03,10.39,0,20.78-0.04,31.17c0,1.14,0.28,2.27-0.55,3.45c-0.79,1.11,0.47,2.42,0.53,3.64
	c0.17,3.69-0.31,7.43,1.12,11.32c0.49,0.72,1.2,1.77,1.92,2.82c-0.31,3.26,0.2,6.35,1.38,9.04c-1.31,4.11-4.92,4.38-7.96,5.4
	c-0.08,0.4-0.15,0.73-0.21,1.03c-0.76,0.15-1.43,0.27-1.97,0.38c-0.11,0.51-0.19,0.84-0.29,1.28c-1.14,0-2.21,0-3.14,0
	c-0.56,0.56-0.99,0.99-1.43,1.43c-1.71,0-3.42,0-5.13,0c-1.45,1.51-3.32,1.57-5.55,1.43c-0.31,0.5-0.69,1.12-0.99,1.59
	c-6.16,0-12.01,0-18.08,0c-0.82,1.32-1.67,2.69-2.09,3.38c-1.54,1.54-2.56,2.56-3.86,3.86c-0.05,0-0.63,0.03-1.07,0.06
	c-0.51,1.11-0.93,2.02-1.27,2.78c-0.52,0.15-0.85,0.24-1.11,0.32c0,0.93,0,1.75,0,2.69c1.16,0,2.23,0,2.75,0
	c1.26,1.11,2.17,1.91,3.19,2.81c-0.31,0.88-0.61,1.73-0.7,2.01c0.22,2.98,3.02,1.92,4.03,3.48c0,0.91,0,1.81,0,2.8
	c-1.12,0.55-2.13,1.04-2.73,1.34c-1.94-0.35-3.41-0.62-5.04-0.92c-0.3-0.3-0.73-0.73-1.29-1.29c-1.18,0-2.49,0-3.75,0
	c-0.5-0.54-0.91-0.99-1.3-1.41c-1.52,0-2.98,0-4.73,0c-0.31-0.42-0.74-1.01-1.11-1.51c-0.92,0-1.64,0-2.3,0
	c-0.49-0.49-0.92-0.92-1.41-1.41c-9.71,0-19.48,0.01-29.25,0c-2.93,0-5.96,0.45-8.66-2.23c-0.17-0.8-0.45-2.11-0.72-3.4
	c0.68-0.18,1.01-0.26,1.29-0.34c0.34-0.87,0.67-1.69,0.97-2.52c0.02-0.05-0.16-0.17-0.38-0.38c-0.94,0-2,0-3.02,0
	c-0.19-0.56-0.34-0.98-0.48-1.39c-0.57,0-1.06,0-1.11,0c-1.83-1.51-3.39-2.8-5.31-4.39c-0.03,0-0.61-0.07-1.16-0.14
	c-0.17-0.47-0.32-0.9-0.51-1.43c-0.85,0-1.67,0-2.44,0c-0.19-0.56-0.34-0.98-0.52-1.51c-0.87,0-1.69,0-2.47,0
	c-0.12-0.46-0.21-0.79-0.33-1.25c-0.78,0-1.61,0-2.43,0c0.03-0.13,0.07-0.25,0.1-0.38c-1.12-0.54-2.23-1.08-3.31-1.59
	c-0.08-0.33-0.16-0.66-0.26-1.1c-1.14,0-2.2,0-3.15,0c-0.55-0.56-0.98-0.99-1.54-1.55c-0.45,0-1.03,0-1.56,0
	c-0.17-0.55-0.3-0.96-0.49-1.54c-0.96,0.47-1.77,0.87-2.58,1.26c0,0.51,0,1,0,1.58c0.39,0.14,0.9,0.18,1.21,0.46
	c0.38,0.34,0.52,0.94,0.89,1.29c1.86,1.77,3.05,4.37,5.97,4.83c0.29,1.6,2.06,1.63,2.91,2.74c0.9,1.18,1.85,2.54,3.52,2.9
	c0.26,1.58,1.79,2.17,2.58,3.34c1.75,2.6,4.14,4.71,5.68,7.48c0.4,0.71,0.91,1.61,1.57,1.86c1.4,0.53,1.64,1.69,2.04,2.64
	c-0.27,0.65-0.6,1.16-0.68,1.7c-0.45,3.12,0.94,5.99,1.67,8.86c0.86,3.43,3.24,6.29,6.3,7.85c0,1.62,0,2.82,0,4.12
	c-2.12,0-4.16,0-6.6,0c-0.23-0.33-0.64-0.93-0.98-1.43c-2.17,0-4.11,0-6.36,0c-0.68-1.23-1.43-2.51-2.11-3.84
	c-0.46-0.9-0.69-1.94-1.24-2.78c-1.45-2.27-2.96-4.46-4.81-6.5c-1.48-1.63-3.21-3.06-4.44-4.95c-2.04-3.11-4.32-6.01-7.3-8.36
	c-0.79-0.63-1.84-1.21-2.36-2.13c-0.54-0.97-1-2.1-1.1-3.19c-0.35-3.68-0.54-7.37-0.77-11.06c-0.05-0.82-0.01-1.65-0.01-1.61
	c-1-1.32-1.46-2.01-2.01-2.62c-0.74-0.81-1.5-1.62-2.34-2.33c-0.79-0.67-1.69-1.73-2.53-1.72c-1.41,0.02-0.84-2.08-2.23-1.66
	c-1.09-1.7-3.42-1.41-4.68-2.91c-0.64-0.77-1.54-1.33-2.34-1.99c0.19-2.32,2.42-2.7,3.35-3.77c1.99,0.65,3.61,1.18,5.34,1.74
	c0.08,0.22,0.23,0.65,0.42,1.22c0.3-0.64,0.53-1.14,0.72-1.53c0.43-0.1,0.77-0.18,1.08-0.26c-0.22-2.68,0.03-5.41-0.78-7.79
	c-0.91-2.66-0.24-5.23-0.53-6.96c-1.42-3.36-2.85-5.83-4.32-8.28c-1.47-2.45-2.33-5.37-3.8-8.17c-0.04-3.53-0.66-5.96-2.36-8.52
	c-0.91,1.67-2.37,2.69-3.06,4.5c-0.73,1.91-2.28,3.5-1.95,5.8c-2.13,1.37-2.95,3.71-3.54,5.84c-0.67,2.41-1.51,4.79-1.83,7.36
	c-0.4,3.15-1.88,6.12-2.02,9.42c-0.07,1.65-0.86,3.28-1.3,4.86c0.4,1.13,0.8,2.26,1.2,3.38c-1.12,1-0.93,2.72-0.46,3.37
	c1.8,2.5-0.92,3.75-1.18,5.62c-1.61-0.08-1.22,1.74-2.25,2.35c-1.1,0.64-1.4,2.02-1.93,3.19c-0.4,0.89-1.39,1.63-1.99,2.44
	c-1,1.35-1.46,2.9-3.18,3.89c-1.53,0.88-2.48,2.76-3.76,4.13c-0.27,0.29-0.82,0.32-1.32,0.49c-0.95,3.29-2.04,6.54-2.71,9.86
	c-0.15,0.74-1.55,1.75-0.14,2.66c-1.05,0.66-0.33,1.92-0.78,2.59c-0.67,1.01-0.28,2.21-0.75,2.99c-0.63,1.03-0.39,2.07-0.7,3.03
	c-0.45,1.39-1.25,2.66-2.16,4.52c0,0.33,0,1.3,0,2.27c-0.73,1.19-1.14,2.48-1.57,3.75c-0.39,1.14-1.6,1.63-2.11,2.73
	c-0.56,1.19-1.3,2.32-2.09,3.38c-0.73,0.98-1.65,1.82-2.44,2.76c-0.81,0.96-1.58,1.98-2.43,3.05c-0.44,0.05-1.02,0.12-1.78,0.2
	c-0.82,0.9-1.73,1.88-2.61,2.84c-0.81,0-1.53,0-2.3,0c-0.16,0.44-0.31,0.86-0.57,1.55c-1.9-1.33-2.25,1.4-3.99,1.5
	c-1.26,0.08-2.62,1.22-3.93,1.88c-1.33,0.66-2.6,1.42-4.41,2.42c-1.47,0.26-3.67-0.64-5.7,0.63c-0.53,0.33-1.62,0.33-2.13,0
	c-1.55-1.03-3.23-0.53-4.79-0.71c-0.65-0.63-1.26-1.22-2-1.92c0-0.73,0-1.54,0-2.37c-1.45,0-2.76,0-3.98,0
	c-0.52,0.52-0.95,0.95-1.38,1.38c-2.2,0-4.4,0-6.6,0c-1.24,1.33-2.81,1.53-4.53,1.49c-3.05-0.07-6.11-0.02-9.17-0.02
	c-0.36,0-0.71,0.03-1.03,0.05c-0.47,0.47-0.9,0.9-1.33,1.33c-1.8,0-3.6,0-5.14,0c-0.88-1.05-1.61-1.92-2.39-2.85
	c-2.58,0-5.27,0-7.11,0c-1.87-0.82-3.68-1.06-3.99-1.87c-0.64-1.69-2.2-1.44-3.22-2.16c-0.98-0.7-2.52-0.56-3.1-1.81
	c-3.33,0-6.5,0-10.22,0c-0.17,0.32-0.51,0.98-0.88,1.68c-2.43-0.79-4.22,0.75-6.19,1.06c-2.14,0.34-3.7,1.95-5.75,1.82
	c-0.54,1.63,0.29,2.85,0.88,4.09c0.36,0.75,0.7,1.46,1.68,1.91c0.62,0.29,0.51,1.91,1,2.78c0.97,1.7,2.08,3.31,3.22,4.9
	c0.82,1.14,1.77,2.18,2.71,3.33c0,1.08,0,2.14,0,3.21c1.23,1.47,2.04,3.1,2.84,4.74c0.49,1.02,0.77,2.21,1.49,3.03
	c1.02,1.16,1.69,2.44,2.32,3.82c0.8,1.75,1.57,3.68,2.9,4.99c1.38,1.35,1.44,3.68,3.5,4.4c-0.25,2.21,1.7,3.44,2.46,5.21
	c0.97,2.27,1.97,4.67,3.98,6.46c1.07,0.95,1.55,2.53,2.45,3.71c1.14,1.49,2.39,2.9,3.66,4.29c0.84,0.92,2.48,0.47,3.21,1.84
	c0.2,0.37,1.27,0.29,1.82,0.39c0.11,0.51,0.18,0.84,0.26,1.21c0.57,0,1.05,0,1.66,0c1.43,2.01,3.92,2.73,5.68,4.44
	c0.64,0.63,0.79,2.08,2.25,1.48c1.38,1.48,3.43,1.8,5.07,2.85c0.7,0.45,0.16,1.91,1.48,1.55c0.91,1.39,2.7,1.19,3.88,2.17
	c1.6,1.33,3.25,2.73,5.12,3.56c1.31,0.58,2.27,2.35,4.1,1.6c1.17,1.04,2.51,1.65,4.1,1.62c0.08,0,0.2,0.15,0.25,0.25
	c0.81,1.53,3.09,0.66,3.8,2.33c1.66-0.38,2.34,1.63,3.71,1.61c1.39-0.02,2.14,1.11,3.11,1.35c1.26,0.31,2.15,0.83,2.93,1.64
	c1.91,0,3.84-0.34,5.54,0.13c0.98,0.27,1.58-0.04,2.36-0.11c0.97-0.08,2.21,0.36,2.88-0.1c1.49-1.02,3.07-0.3,4.5-0.7
	c1.48-0.41,2.92-0.86,4.48-0.69c0.85,0.09,1.53-0.16,2.31-0.66c1.04-0.66,2.35-0.81,3.68-0.86c3.08-0.12,6.23,0.73,9.25-0.62
	c0.52-0.23,1.34,0.19,2.02,0.32c0.91,0.18,1.81,0.37,2.76,0.56c0.39,0.39,0.82,0.82,1.26,1.26c1.21,0,2.43,0,3.88,0
	c0.35,0.45,0.8,1.02,1.19,1.51c2.61,0,5.04,0,7.45,0c1.99,2.2,5.02,0.75,7.19,2.2c0.29-0.27,0.56-0.51,0.69-0.63
	c2.07,0.59,3.98,1.38,6.12,1.34c2.19-0.04,4.54-0.45,6.53,0.18c2.86,0.92,5.67,1.35,8.63,1.28c1.52-0.04,3.04-0.14,4.48,0.69
	c1.35,0.78,2.89,0.81,4.45,0.78c3.42-0.07,6.84-0.02,10.27-0.02c2.78,0,5.56,0,8.24,0c0.23-0.67,0.37-1.09,0.5-1.49
	c1.34,0,2.55,0,3.77,0c-0.03-0.11-0.07-0.22-0.1-0.34c1.51-0.47,3.03-0.95,4.87-1.52c0.15-0.15,0.58-0.58,1.22-1.22
	c1.44,0.28,3.03,0.91,4.6,0.84c3.44-0.17,6.96,0.84,10.35-0.62c0.55-0.24,1.58-0.09,2.01,0.3c1.31,1.17,2.17-0.19,3.2-0.21
	c0.87,0.29,1.77,0.61,2.65,0.56c4.91-0.26,9.8,0.15,14.75-0.54c5.4-0.74,10.98-0.19,16.48-0.14c0.64,0.01,1.27,0.45,1.9,0.69
	c1.34-1.11,2.94-0.67,4.46-0.71c1.58-0.04,3.36-0.43,4.69,0.17c1.22,0.55,2.31,0.36,3.44,0.56c1.25,0.22,2.49,0.68,3.73,0.69
	c8.17,0.06,16.34,0.03,24.46,0.03c0.2-0.56,0.36-0.98,0.51-1.4c0.88-0.05,1.7-0.09,2.79-0.15c-0.15-1.44-0.3-2.76-0.46-4.31
	c0.08-0.08,0.42-0.4,0.74-0.7c0.29,0.24,0.54,0.45,0.8,0.67c0.23-0.52,0.41-0.95,0.7-1.6c0.26,0.73,0.41,1.16,0.58,1.64
	c0.83-1.26,1.6-2.44,2.3-3.5c0.51,0.23,1,0.45,1.46,0.65c0.61-2.18,1.16-4.15,1.62-5.8c-0.26-1.59-0.48-2.95-0.67-4.18
	c-0.91-0.78-1.77-1.53-2.55-2.2c0.29-0.83,0.61-1.74,1.12-3.18c0.58,0.95,0.9,1.47,1.25,2.04c0.41,0,0.89,0,1.39,0
	c1.54-2.13,2.78-4.41,2.71-7.13c0.81-0.16,1.48-0.28,2.21-0.42c-0.33-0.37-0.56-0.62-0.7-0.78c1.53-2.88,2.28-5.87,2.08-8.98
	c0.62-0.22,1.05-0.37,1.58-0.55c0-1.35,0-2.66,0-4.1c1.23,0.1,1.73-0.51,2.13-1.53c1.45-3.68,2.45-7.55,4.41-11
	c0.95-1.66,0.86-3.04-0.14-4.41c1.69-2.02,0.27-4.36,1-6.35c0.45-0.16,0.88-0.3,1.08-0.38c0.33-2.39,0.68-4.6,0.94-6.81
	c0.27-2.34-0.57-4.8,0.66-6.92c-0.23-0.72-0.81-1.57-0.58-1.97c1.05-1.9,0.44-3.96,0.63-5.09c1.05-1.35,1.64-2.1,2.24-2.88
	c0-1.92,0-3.87,0-5.82c2.04-2.32,2.23-2.68,2.19-5.33c-0.03-1.81-0.03-3.56,1.56-5.03c0-1.19,0-2.5,0-3
	c0.69-1.42,1.12-2.11,1.37-2.86c0.8-2.41,1-5.01,1.76-7.35c0.82-2.53,1.21-4.96,1.22-7.56c0-1.01,0.34-2.02,0.58-3.34
	c-0.09-0.18-0.55-0.67-0.57-1.19c-0.11-2.12,0.2-4.28-0.77-6.29c0.54-3.98-0.61-7.85-0.77-11.79c-0.33-8.11,0.63-16.17,0.76-24.26
	c0.03-1.59-0.46-3.37,0.1-4.73c1.17-2.81,0.75-5.95,2.1-8.66c-0.3-3.97,0.99-7.81,0.81-11.8c-0.16-3.6-1.52-6.67-2.96-10.31
	c0.48-2.37-1-5.05-0.87-7.97c0.15-3.55-0.39-7.13-0.64-10.69c-0.02-0.23-0.03-0.48-0.1-0.69c-0.85-2.43-1.3-4.97-1.3-7.5
	c-0.01-3.08,0.53-6.15,0.65-9.23c0.12-3.42,0.09-6.85,0.01-10.27c-0.09-3.47,1.27-6.83,0.79-10.34c-0.06-0.46,0.59-1,0.59-1.5
	c0-0.52-0.53-1.02-0.6-1.56c-0.09-0.7-0.25-1.71,0.13-2.1c0.94-0.99,0.37-2.08,0.58-3.09c0.21-1.01,0.66-1.99,0.7-3
	c0.19-4.67-0.21-9.34,0.67-14.01c0.43-2.26,0.1-4.66-0.53-7.04c-0.55-2.06-0.3-4.39-0.06-6.56c0.26-2.33-0.78-4.41-0.83-6.67
	c-0.04-1.93,0.43-3.72,0.74-5.57c0.2-1.19,0.04-2.44,0.04-3.66c0-1.22,0-2.44,0-3.67c0-1.22-0.5-2.9,0.11-3.56
	c1.04-1.13-0.14-2.03,0.28-3c0.19-0.44-0.53-1.51-0.32-1.69c1.08-0.9,0.47-2.05,0.67-3.06c0.2-1.01,0.66-1.99,0.69-3
	c0.11-3.7-0.05-7.39,0.69-11.08c0.42-2.12,0.02-4.39,0.1-6.58c0.06-1.75,0.03-3.44,0.56-5.24c0.55-1.83,0.17-3.93,1.57-5.62
	c0.3-0.36,0.04-1.19,0.04-1.8c0-0.61-0.16-1.29,0.06-1.81c1.06-2.52,1.45-5.14,1.41-7.85c-0.01-0.49-0.14-1.03,0.02-1.46
	c1.03-2.77,1.07-5.7,1.42-8.57c0.09-0.73,0.29-1.28,0.68-1.94c0.64-1.07,0.99-2.32,0.84-3.69c-0.15-1.45-0.03-2.92-0.03-4.36
	c1.27-1.15,1.6-2.61,1.46-4.19c-0.13-1.51,0.37-2.76,1.47-3.89c0-2-0.51-4.24,0.11-6.1c1.12-3.33,1-6.87,2.16-10.1
	c0.72-2,0.65-3.95,0.66-5.95c0.02-5.62,0.09-11.25-0.02-16.87c-0.07-3.32-0.32-6.66-0.82-9.95c-0.1-0.63,0.21-1.44-0.17-1.84
	c-0.84-0.87-0.08-1.93-0.5-2.75c-1.68-3.28-1.92-6.86-2.27-10.26c-1.56-0.63-3.02-1.22-4.49-1.81c-0.37,0.26-0.75,0.53-0.83,0.59
	c-3.83-1.1-7.46-0.31-11.09-0.65c-1.2-1.18-2.73-1.48-4.46-1.43c-3.3,0.08-6.6,0.02-9.9,0.02c-0.36,0-0.71,0-1,0
	c-0.5-0.5-0.93-0.93-1.5-1.5c-1.91,0-3.96,0-5.87,0c-0.56-0.56-0.99-0.99-1.43-1.43c-1.7,0-3.41,0-5.35,0
	c-0.35-0.44-0.8-1.02-1.19-1.51c-2.61,0-5.04,0-7.35,0c-3.46-2.81-7.71-0.37-10.95-1.84c-0.75,0.2-1.24,0.33-2.02,0.54
	c0.38-0.7,0.56-1.03,0.67-1.23c-1.45-0.61-2.8-1.17-4.57-1.91c-0.99,0-2.43,0-3.79,0C859.29,241.61,858.86,241.17,858.42,240.74z
	 M686.83,242.21c-7.11,0-14.08,0.02-21.04-0.03c-1.02-0.01-2.16,0.49-3.1-0.53c-0.15-0.16-1.25,0.58-1.41,0.42
	c-0.79-0.81-1.33,0.09-1.97,0.13c-0.98,0.05-1.96,0.01-2.93,0.01c-4.28,0-8.56-0.09-12.83,0.03c-4.3,0.12-8.62-0.51-12.91,0.63
	c-1.71,0.46-3.9-0.45-5.4,0.26c-1.74,0.82-3.3,0.35-4.92,0.51c-1.81,0.18-3.64,0.09-5.47,0.12c-0.56,1.45-1.61,2.64-0.58,4.55
	c0.76,1.42,0.55,3.38,1.82,4.66c-0.32,2.49,0.35,4.74,1.17,6.92c0.95,2.51,1.81,4.99,1.72,7.72c-0.05,1.34-0.51,3.01,0.1,3.97
	c1.21,1.92,0.29,3.94,0.9,5.87c0.59,1.88,0.37,4.02,0.45,6.05c0.05,1.22-0.01,2.44,0.02,3.67c0.01,0.59-0.13,1.41,0.2,1.72
	c0.98,0.97,0.31,2.09,0.53,3.11c0.24,1.12,0.74,2.25,0.69,3.36c-0.2,4.06,0.67,7.98,1.62,11.84c0.49,2.02,0.61,3.96,0.62,5.96
	c0.03,4.77-0.01,9.53,0.02,14.3c0.02,2.5-1.23,4.86-0.74,7.4c-1.54,1.1-0.42,2.88-1.08,4.32c-0.65,1.41-0.31,3.29-0.38,4.97
	c-0.03,0.61,0.26,1.49-0.05,1.79c-1.31,1.27-0.13,2.93-0.76,4.11c-0.74,1.38-0.76,2.74-0.63,4.13c0.16,1.78-0.7,3.12-1.49,4.51
	c-0.07,1.77,0.33,3.62-0.98,5.11c-0.8,0.92-1.83,1.66-2.55,2.63c-0.74,0.99-1.2,2.19-1.86,3.25c-0.6,0.98-1.75,1.86-1.86,2.87
	c-0.18,1.61-2.26,1.22-2.3,2.68c-2.57,2.6-5.14,5.2-7.72,7.8c-1.85,0.11-2.17,1.86-3.03,2.91c-0.56,0.03-1.03,0.05-1.39,0.07
	c-1.21,2.87-3.73,3.77-6.15,4.7c-0.07,0.37-0.14,0.7-0.21,1.02c-0.68,0.08-1.26,0.14-1.82,0.21c-0.5,2.12-2.86,2.17-4,3.73
	c-1.09,1.5-3.03,2.4-4.67,3.44c-0.41,0.26-1.13,0.04-1.61,0.04c-0.24,0.68-0.38,1.09-0.52,1.49c-0.59,0-1.07,0-1.63,0
	c-0.15,0.42-0.3,0.84-0.47,1.34c-0.54,0.06-1.12,0.12-1.77,0.19c-0.14,0.4-0.3,0.82-0.37,1.03c-1.76,0.8-3.38,1.54-4.87,2.21
	c-0.17,0.46-0.29,0.78-0.4,1.07c-0.57,0-1.06,0-1.54,0c-0.41,1.65-2.37,1.65-2.87,2.85c-1.06,0.08-1.86,0.15-2.52,0.2
	c-0.15,0.62-0.23,0.95-0.33,1.39c-1.14,0-2.2,0-3.32,0c-0.38,1.4-2.48,1-2.5,2.68c-1.49-0.41-0.94,1.9-2.55,1.8
	c-1.01-0.06-2.08,1.11-2.99,1.65c1.76,2.06,2.09,4.63,2.69,7.04c0.19,0.76-0.19,2.23-0.75,2.51c-1.99,1.01-2.09,3.05-3.03,4.62
	c-0.41,0.69-0.76,1.46-1.32,2.01c-1.04,1-1.64,2.21-2.2,3.5c-0.63,1.45-1.43,2.83-2.18,4.23c-0.76,1.4-1.46,2.85-2.36,4.15
	c-0.94,1.34-1.51,2.89-2.95,3.98c-1.12,0.85-1.4,2.54-2.71,3.5c-1.1,0.8-1.76,2.18-2.76,3.14c-1.08,1.04-2.33,1.9-3.52,2.83
	c-0.36,0.28-0.85,0.77-1.15,0.69c-1.61-0.45-2.35,0.87-3.45,1.5c-1.96,1.14-3.98,2.18-5.94,3.24c-0.35,1.71-2,2.96-1.59,4.9
	c0.05,0.24-0.32,0.59-0.53,0.86c-1.08,1.43-1.72,3.02-1.63,4.82c0.08,1.6-0.25,3.03-1.45,4.13c-0.19,1.9,0.3,3.79-0.69,5.64
	c-0.37,0.68-0.05,1.9,0.27,2.75c0.58,1.52,0.52,2.95,0.06,4.47c-0.24,0.77-0.67,1.88-0.33,2.35c1.14,1.58,0.57,3.26,0.63,4.88
	c0.07,1.66,0.22,3.14,1.17,4.68c0.99,1.6,1.77,3.37,1.96,5.46c0.12,1.31,0.08,2.98,0.7,4.04c0.68,1.16,0.14,2.44,0.83,3.34
	c1.72,2.25,2.52,4.83,2.95,7.46c0.48,0.1,0.82,0.17,0.93,0.19c0.72,2.73,1.38,5.27,2.12,8.1c0.26,0.21,0.74,0.59,1.15,0.92
	c0,1.84,0,3.54,0,5.18c1.18,1.23,1.44,2.66,1.47,4.25c0.02,1,0.18,2.2,0.75,2.96c1.14,1.53,1.28,3.4,2.13,5
	c0.26,0.49,0.28,1.16,0.62,1.57c2.3,2.76,3.53,6.12,5.23,9.21c1.26,2.29,3.23,4.95,5.09,6.25c0.72,0.5,1.41,0.8,1.83,1.76
	c0.54,1.22,1.86,1.63,3.2,1.9c0.73,0.15,1.41,0.76,2.03,1.26c0.55,0.44,0.31,1.53,1.52,1.6c0.38,0.02,0.61,1.37,1.05,2.02
	c0.39,0.58,1.06,0.97,1.42,1.56c0.62,1.01,1.77,1.81,2.11,2.72c0.73,1.96,1.43,3.84,2.83,5.45c0.49,0.57,0.79,1.4,0.93,2.16
	c0.38,2.06,0.62,4.15,0.92,6.23c0.43,0.43,0.86,0.86,1.35,1.35c-0.68,3.65,2.26,6.04,3.14,9.09c1.6,0.29,2.95,1.16,4.16,2.27
	c1.23,1.13,2.42,2.42,4.24,2.26c0.16,0.59,0.28,1.01,0.39,1.4c0.69,0,1.17,0,1.71,0c0.16,0.44,0.31,0.86,0.52,1.41
	c0.77,0,1.59,0,2.28,0c0.48,0.48,0.76,0.96,1.18,1.14c1.35,0.58,2.76,0.96,4.06,1.73c0.72,0.43,1.9,0.08,2.85,0.08
	c0.46,0.46,0.89,0.89,1.46,1.46c0.93,0,2,0,3.01,0c0.13,0.34,0.21,0.55,0.3,0.76c0.09,0.21,0.18,0.41,0.35,0.8
	c1.92-0.9,3.86,2.05,5.89-0.07c0.26,0.24,0.52,0.48,0.71,0.66c4.42-1.09,8.7-1.18,13,0.79c4.14,0,8.42,0,12.94,0
	c0.34-0.44,0.79-1.01,1.14-1.45c3-0.18,5.98,0.7,8.16-1.39c1.68-0.1,3.35,0.25,4.52-0.36c2.58-1.36,5.25-1.15,7.98-1.2
	c0.93-1.92,1.87-3.85,2.81-5.79c1.42,0.46,0.83-1.62,2.22-1.7c0.74-0.04,1.42-1.68,2.09-2.63c0.56-0.79,1.43-1.46,1.86-2.13
	c0.66-1.04,1.38-1.76,2.34-2.46c0.78-0.58,1.32-1.49,1.94-2.28c0.71-0.92,1.21-2.13,2.11-2.75c2.34-1.6,3.87-3.92,5.81-5.87
	c2.93-2.94,5.77-5.94,7.87-9.47c1.31-0.25,2.48-0.38,3.44,0.9c0,0.93,0,2,0,2.85c-0.85,1.68-1.62,3.2-2.42,4.78
	c-1.25,0.3-2.13,1.14-2.64,2.44c-0.29,0.73-0.56,1.74-1.14,2.03c-2.12,1.05-2.76,3.19-3.97,4.9c-0.19,0.26-0.11,0.8-0.33,0.94
	c-2.91,1.86-4.34,5.14-7.07,7.21c-1.12,0.84-1.9,2.17-2.97,3.17c-1.04,0.96-1.97,2.02-3.02,2.97c-0.68,0.61-1.06,1.72-1.21,2.67
	c-0.08,0.53,0.6,1.17,0.88,1.66c4.11,0,8.02,0,12.24,0c0.3-0.42,0.71-1.01,1.07-1.51c0.94,0,1.65,0,2.34,0
	c0.18-0.49,0.34-0.91,0.5-1.31c0.62-0.07,1.2-0.14,1.24-0.15c1.36-1.16,2.31-2.67,3.37-2.75c2.64-0.2,3.26-3,5.43-3.59
	c0.35-2.03,2.55-2.33,3.57-3.82c0.96-1.4,2.6-2.31,3.73-3.62c0.86-1,0.86-2.38,0.8-3.7c-0.01-0.29,0.38-0.59,0.43-0.91
	c0.24-1.61,1.32-2.91,1.7-4.43c1.04-4.14,3.38-7.66,5.17-11.61c0-1.9,0.1-3.98-0.03-6.05c-0.12-2.11-0.5-4.2-0.7-6.3
	c-0.31-3.32,0.32-6.63-0.62-10c-0.63-2.27-0.03-4.86-0.15-7.3c-0.12-2.47-0.5-4.93-0.7-7.4c-0.38-4.7,1.27-9.29,0.73-14
	c-0.04-0.36,0-0.73-0.01-1.1c-0.05-2.59,0.87-4.94,1.58-6.93c0.99-0.49,1.59-0.79,2.29-1.14c1.19,0.86,2.4,1.73,3.23,2.33
	c0.6,2.86,0.86,5.25,2.14,7.4c0.71,1.2,1.26,2.47,1.05,3.98c-0.13,0.96-0.03,1.94-0.03,2.89c1.64,1.44,2.27,3.37,2.14,5.36
	c-0.16,2.42,0.91,4.49,1.02,6.91c0.62-0.23,0.94-0.34,1.14-0.42c0.49-3.18-0.63-6.36,0.82-9.35c0.14-0.3,0.16-0.8,0-1.08
	c-1.15-2.02-0.39-3.95-0.06-6.02c0.42-2.67-0.18-5.45,0.77-8.13c0.31-0.87,0.05-1.94,0.05-2.92c0-1.1,0-2.2,0-3.3
	c0-0.98-0.02-1.96,0.01-2.93c0.03-1.08-0.3-2.53,0.26-3.15c0.93-1.02-1.04-1.57-0.02-2.4c1-0.81,0.4-2.04,0.47-3.08
	c0.09-1.33,0.02-2.68,0.02-3.87c-1.13-1.47-1.64-2.96-1.48-4.69c0.1-1.09,0.43-2.46-0.07-3.24c-1.12-1.74-0.22-3.57-0.7-5.24
	c-0.5-1.73-0.78-3.42-0.7-5.21c0.06-1.34,0.09-2.69-0.02-4.03c-0.06-0.77-0.42-1.52-0.63-2.23c0.22-0.78,0.47-1.53,0.65-2.3
	c0.15-0.68,0.21-1.38,0.32-2.07c0.13-0.8,0.45-1.61,0.39-2.39c-0.16-1.87,0.54-3.41,1.5-4.81c0-13.77-0.05-27.46,0.03-41.15
	c0.02-3.2,0.45-6.4,0.71-9.6c0.02-0.22,0.1-0.46,0.23-0.63c0.99-1.31,0.85-3.08,0.34-4.12c-0.61-1.22-0.4-2.31-0.57-3.44
	c-0.51-3.5,0.75-6.87,0.74-10.33c-0.02-6.6-0.02-13.2,0.01-19.8c0-0.86,0.28-1.72,0.42-2.49c-0.17-0.51-0.34-1.01-0.5-1.5
	c0.68-0.24,1.11-0.39,1.7-0.59c-0.34-0.69-0.63-1.29-0.97-1.99c1.33-1.18,0.89-2.44,0.2-3.26c0.26-1.17,0.51-1.93,0.57-2.71
	c0.08-1.09-0.07-2.21,0.05-3.3c0.13-1.13,0.3-2.31,0.74-3.35c0.91-2.18,0.68-4.43,0.7-6.68c0.02-1.8,0-3.61,0-5.54
	c0.91-0.34,1.65-0.63,2.22-0.84c1.04,1.04,1.9,1.9,2.92,2.92c0,1.43,0.1,3.14-0.03,4.84c-0.13,1.74-0.63,3.46-0.67,5.2
	c-0.1,4.4-0.03,8.8-0.03,13.06c-0.53,0.89-1.32,1.64-1.41,2.47c-0.38,3.43-0.55,6.88-0.79,10.32c1.18,2.12,0.64,4.43,0.73,6.66
	c0.16,3.95-1.14,7.81-0.78,11.8c0.12,1.34-0.33,2.73-0.53,4.21c0.17,0.22,0.44,0.59,0.49,0.65c-0.26,1.25-0.6,2.14-0.61,3.03
	c-0.06,3.79,0.02,7.58-0.05,11.37c-0.02,1.02,0.52,2.21-0.58,3.05c0,3.02,0.01,6.04,0.01,9.06c1.21,1.1,0.89,2.78,0.49,3.74
	c-1,2.37-0.5,4.73-0.59,7.08c-0.11,2.93,0.02,5.87-0.06,8.8c-0.02,0.89-0.38,1.77-0.64,2.85c0.15,0.3,0.61,0.8,0.63,1.31
	c0.08,2.2-0.06,4.4,0.06,6.6c0.12,2.23,0.64,4.44,0.67,6.67c0.09,6.84,0.03,13.69,0.03,20.54c0,0.35-0.04,0.71-0.05,1.02
	c-0.47,0.47-0.91,0.91-1.38,1.38c-0.24,1.69,0.2,3.2,1.43,4.46c0,2.44,0.13,4.9-0.04,7.33c-0.16,2.37,0.73,4.82-0.5,7.12
	c1,2.25,0.38,4.63,0.52,6.95c0.09,1.4-0.04,2.76,0.69,4.12c0.78,1.44,0.84,3.13,0.81,4.8c-0.08,4.03-0.03,8.07-0.03,12.1
	c0,0.73-0.29,1.65,0.05,2.17c1.79,2.81,1.39,5.9,1.41,8.96c-1.91,1.61-1.36,3.88-1.46,5.87c-2.14,2.27-1.87,5.44-3.42,7.88
	c-0.64,1.01-0.83,2.39-0.93,3.62c-0.15,1.81-0.04,3.63-0.04,5.35c0.45,0.42,0.78,0.74,1.15,1.09c0.15-1.11,1.47-1.36,1.67-1.88
	c1.13-2.91,3.29-5.2,4.63-7.98c0.65-1.35,0.97-2.78,0.45-3.69c-0.62-1.1-0.51-2.06-0.54-3.09c-0.07-2.68-0.02-5.35-0.02-7.6
	c1.61-3.15,2.25-6.16,2.91-9.15c0.39-1.79,0.72-3.56,1.46-5.27c1.12-2.59,2-5.28,2.96-7.94c0.39-1.06,0.71-2.15,1.06-3.23
	c2.09,0.12,0.39-2.55,2.03-2.76c1.34-3.34,4.82-6.08,2.82-10.36c-0.23-0.5-0.03-1.21-0.03-1.82c0-1.83,0.07-3.67-0.03-5.5
	c-0.05-0.89-0.43-1.76-0.67-2.7c0.2-0.21,0.64-0.46,0.66-0.74c0.07-1.58-0.05-3.18,0.07-4.76c0.12-1.5,0.66-2.98,0.67-4.47
	c0.06-10.14,0.03-20.28,0.03-29.75c-1.4-2.53-2.5-4.54-3.67-6.65c0-0.7,0-1.56,0-2.41c0-0.86-0.03-1.71,0.01-2.57
	c0.04-0.85,0.07-1.67-0.7-2.25c0.82-0.64,0.88-1.18,0.17-2.09c-0.28-0.36,0.37-1.4,0.51-2.15c0.28-1.48,0.43-2.99,0.76-4.46
	c0.33-1.44,0.82-2.83,1.23-4.25c0.57-1.97,1.06-3.95,1.7-5.9c0.66-2.04,1.46-4.09,2.32-6c1.35-3.01,1.75-6.36,3.55-9.21
	c-1.17-2.31-2.35-4.63-3.59-7.1c-0.26-2.39-0.67-4.96-0.8-7.55c-0.14-2.8-0.14-5.63,0-8.43c0.13-2.59-0.72-5.29,0.63-7.65
	c-1.08-3.67-1.77-7.38-3.51-10.79c0.16-0.18,0.4-0.44,0.73-0.8c-1.38-2.99-1.79-6.21-1.99-9.43c-0.44-1.52-0.88-3.04-1.42-4.88
	c-0.21-0.18-0.67-0.57-1.1-0.94c0-1.05,0-2.03,0-2.85c-1.04-1.49-1.51-2.95-1.48-4.69c0.09-5.99,0.04-11.98,0.03-17.97
	c0-0.84,0.13-1.76-0.16-2.5c-1.02-2.55-1.38-5.16-1.32-7.9c0.09-4.52,0.03-9.05,0.02-13.57c0-1.41-0.83-3.72-1.77-5.14
	c-0.38-0.57-0.94-1.16-0.99-1.77c-0.13-1.41-0.53-2.69-1.07-3.97c-0.52-1.25-1.15-2.55-1.23-3.86c-0.08-1.35-0.68-2.42-1.1-3.6
	c-1.1-3.1-2.14-6.21-3.9-9.02c-0.17-0.27-0.23-0.68-0.2-1.01c0.12-1.4-0.63-2.42-1.37-3.48c-1.52-2.18-2.97-4.41-4.53-6.55
	c-1.49-2.05-2.05-4.58-3.97-6.47c-1.76-1.74-2.42-4.37-3.98-6.42c-0.72-0.94-2.31-0.86-2.43-2.6c-0.07-1.09-1.37-2.07-2.07-3.14
	c-0.76-1.14-1.24-2.64-2.27-3.39c-0.96-0.7-1.86-1.51-2.04-2.44c-0.25-1.3-2.27-0.93-1.8-2.47c-0.61,0-1.1,0-1.61,0
	C687.84,241.17,687.42,241.6,686.83,242.21z M746.07,460.91c-0.34,2.41-0.78,4.61-0.92,6.83c-0.16,2.43-0.04,4.89-0.04,7.33
	c0,3.18-0.18,6.37,0.05,9.53c0.28,3.92-1.06,7.28-2.98,10.52c0,3.18,0.19,6.37-0.05,9.53c-0.34,4.6,1.13,9.06,0.79,13.63
	c-0.02,0.33,0.05,0.72,0.21,1c1.57,2.78,1.87,6.05,3.41,8.86c0.43,0.78,0.26,2,0.83,2.54c0.63,0.61,0.17,1.94,1.61,2.08
	c0.43,0.04,0.64,1.54,1.11,2.27c0.7,1.07,1.56,2.04,2.35,3.04c0,3.34-0.03,6.63,0.02,9.92c0.01,0.79,0.22,1.6,0.47,2.36
	c0.96,2.89,1.98,5.76,2.86,8.29c1.16,0.64,2.14,1.19,3.48,1.93c0.77,0,1.98,0,3.18,0c-0.03,0.12-0.06,0.25-0.09,0.37
	c1.52,0.44,3.04,0.89,4.62,1.34c0.11,0.32,0.26,0.75,0.4,1.15c0.82,0,1.55,0,1.68,0c1.6,0.81,2.71,1.37,3.87,1.95
	c0.04,0.2,0.11,0.54,0.2,0.98c1.13,0,2.19,0,3.26,0c3.28,1.46,5.73,4.33,9.33,5.15c0.25-0.22,0.52-0.45,0.65-0.57
	c2.13,0.89,4.21,1.76,6.57,2.75c0.88,0,2.1,0.01,3.32,0c1.29-0.02,2.58-0.07,3.89-0.1c-0.24-1.53-1.36-3.33-2.23-4.32
	c-0.73-0.83-1.52-1.78-2.3-2.34c-0.96-0.69-2.09-1.27-3.03-2.05c-0.47-0.39-0.69-1.14-1.2-1.42c-1.46-0.79-3.47-2.04-4.15-3.04
	c-0.3-0.45-0.3-1.1-0.55-2.18c-0.46-0.37-1.31-1.05-1.82-1.46c0-1.98,0-3.53,0-5.07c1.39,0,2.6,0,4.14,0
	c0.83,1.29,1.76,2.74,2.67,4.16c0.81,0.56,1.65,1.15,2.61,1.81c0.61,0,1.31,0,1.98,0c0.12,0.45,0.2,0.78,0.21,0.82
	c2.29,1.18,4.4,2.27,6.92,3.56c0.74,0,1.94,0,3.13,0c0.45,0.5,0.86,0.95,1.24,1.38c2.01,0,3.96,0,5.87,0
	c1.31,1.26,2.86,1.49,4.57,1.48c8.43-0.05,16.86-0.04,25.3-0.01c3.05,0.01,6.18-0.48,8.96,1.37c0.26,0.17,0.7,0.08,1.06,0.08
	c4.37,0,8.75,0,13,0c0.57-0.61,0.98-1.05,1.38-1.48c1.51,0,2.97,0,4.43,0c1.88-2.08,4.42-1.25,6.45-1.48
	c0.76-0.58,1.39-1.45,1.87-1.37c2.1,0.36,3.11-1.45,4.67-2.1c0.94-0.39,1.82-0.91,2.41-1.21c0.71-0.95,1.26-1.69,1.82-2.45
	c0-1.05,0-2.15,0-3.25c0-1.09,0-2.17,0-2.86c-2.17-4.01-2.78-8.09-2.85-12.06c-0.23-13.19-0.09-26.39-0.09-39.59
	c0-0.73-0.31-1.76,0.06-2.15c1.17-1.24,0.6-2.88,1.29-4.27c0.58-1.18-0.31-3.06,0.23-4.29c0.68-1.54,0.71-3.02,0.58-4.51
	c-0.16-1.83,0.29-3.58,0.89-5.16c0.39-1.04,0.55-1.99,0.63-3.04c0.41-4.94-0.41-9.83-0.84-14.72c-0.15-1.7-0.9-3.46-1.93-5.04
	c-1.99-3.06-4.37-5.9-5.73-9.35c-0.35-0.88-0.76-1.6-1.78-1.77c0-0.73,0-1.46,0-2.19c-1.48-0.39-1.69-2.05-2.81-2.82
	c-1.04-0.72-2.48-1.32-2.92-2.33c-0.63-1.44-1.87-2.15-2.7-3.28c-0.84-1.13-2.1-1.82-2.68-3.29c-0.49-1.21-1.77-2.11-3-3.47
	c-0.1,0-0.67,0-1.06,0c-0.46-1.01-0.83-1.83-1.2-2.66c-1.62-0.21-2.21-1.74-3.32-2.59c-1.12-0.85-2.12-1.92-3.36-2.53
	c-1.2-0.6-1.66-1.89-2.96-2.43c-1.16-0.47-2.02-1.66-3.37-2.85c-0.29,0-1.11,0-1.88,0c-0.2-0.55-0.36-0.98-0.55-1.51
	c-1.57,0-3.13,0-4.63,0c-0.49-0.54-0.91-0.98-1.29-1.41c-2.5,0-4.94,0.01-7.39,0c-2.24-0.01-4.48,0.16-6.68-0.69
	c-1.27-0.49-2.7-0.62-4.08-0.76c-6.04-0.6-11.99,1.01-18.03,0.78c-0.76-0.03-1.55,0.74-2.32-0.06c-1.72,1.24-3.7,0.55-5.57,0.77
	c-0.42,0.42-0.82,1.18-1.29,1.22c-1.47,0.14-1.98,2.28-3.72,1.68c-0.7,1.16-1.75,1.99-2.68,2.94c-0.43,0.44-0.85,1.43-1.16,1.38
	c-1.7-0.25-2.29,1.14-3.26,1.96c-1.54,1.29-3.02,2.69-4.66,3.83c-0.55,0.38-1.34,0.34-1.21,1.3c-1.81,0.51-2.63,2.27-3.93,3.38
	c-2.6,2.25-5.06,4.85-6.89,7.74c-1.08,1.7-2.99,2.95-3.2,5.12c-1.19,0.64-4.93,3.82-5.54,4.76c-0.48,0-1.04,0-1.47,0
	c-0.22,0.58-0.36,0.98-0.51,1.36c-0.66,0-1.13,0-1.6,0c-0.59,1.97-2.42,2.96-3.69,4.18c-1.32,1.27-2.7,2.48-3.98,3.85
	c-1.3,1.39-2.28,2.86-2.9,4.63C746.45,460.59,746.13,460.84,746.07,460.91z M446.91,611.84c0.53,0.51,1.06,1.01,1.59,1.51
	c1.22,0,2.44,0,3.58,0c2.51,2.23,5.46,1.18,7.76,1.44c4.48-2.99,8.94-5.36,11.04-10.25c1.2,0,2.27,0,3.29,0
	c0.23-0.55,0.4-0.96,0.58-1.4c0.57-0.07,1.15-0.13,1.67-0.19c0.74-0.74,1.43-1.43,2.12-2.12c0.69-0.69,1.34-1.43,2.09-2.06
	c0.69-0.59,1.57-1.59,2.19-1.47c1.54,0.28,0.87-1.39,1.9-1.64c2.67-0.65,3.51-4.07,6.43-4.53c0.1-0.02,0.07-0.52,0.21-0.61
	c2.37-1.38,3.1-4.5,5.84-5.5c0.16-0.06,0.13-0.63,0.18-0.94c1.42,0,2.73,0,3.7,0c2.32,1.23,1.1,2.74,0.45,3.75
	c-0.71,1.09-2,1.84-3.11,2.63c-1.36,0.97-1.33,2.87-2.7,3.8c-0.08,0.06-0.32-0.03-0.35,0.02c-0.77,1.63-3.1,2.41-2.57,4.51
	c1.09,0.88,2.08,1.67,2.93,2.35c0.04,3.25,0.51,4.45,2.49,6.45c0.51-1.04,0.78-2.59,1.53-2.89c1.52-0.59,1.46-1.85,1.98-2.88
	c0.49-0.96,1.41-1.56,2.06-2.38c0.74-0.92,1.51-1.81,2.19-2.76c0.6-0.84,0.43-2.01,1.83-2.57c1.02-0.41,1.62-1.92,2.38-2.95
	c0.69-0.93,1.34-1.88,2.08-2.91c0.83,0,1.65,0,2.42,0c0.11-0.49,0.18-0.82,0.28-1.27c1.07,0,2.14,0,3.21,0
	c-0.03-0.15-0.06-0.3-0.1-0.45c1.52-0.45,3.04-0.91,4.79-1.43c0.23-0.24,0.66-0.67,1.21-1.23c0.95,0,2.02,0,3.35,0
	c-0.31-3.33-0.6-6.51-0.92-9.69c-0.02-0.19-0.4-0.35-0.43-0.55c-0.48-3.32-2.2-6.41-1.77-9.51c-0.79-1.53-1.41-2.74-2.19-4.25
	c0-1.48,0.1-3.32-0.03-5.14c-0.12-1.86-0.36-3.73-0.74-5.56c-0.34-1.66-0.71-3.4-1.52-4.86c-0.58-1.04-0.63-1.99-0.65-3.04
	c-0.04-1.9,0.06-3.81-0.05-5.55c-0.7-0.16-1.03-0.24-1.45-0.34c0.26-3.78-0.89-7.09-2.69-10.29c-0.94-1.67-1.8-3.5-1.67-5.53
	c0.24-3.7-1.24-7.05-1.9-10.56c-0.37-1.97-1.43-3.6-1.81-5.52c-0.24-1.21-0.74-2.36-1.12-3.54c-0.11,0.03-0.21,0.06-0.32,0.1
	c0-2.44,0-4.88,0-7.32c-1.22-0.41,0.06-1.39-0.49-2.15c-0.47-0.65-0.23-1.85-0.23-2.81c-0.01-1.09-0.35-2.52,0.2-3.17
	c0.67-0.8-0.85-1.81,0.5-2.16c-0.2-2.85,0.49-5.48,1.4-8.21c1.72-5.16,3.03-10.46,5.62-14.95c2.12-2.01,4.51-1.22,6.78-1.49
	c0.07-0.35,0.15-0.68,0.26-1.19c0.55-0.1,1.26-0.14,1.88-0.37c1.4-0.52,2.82-2,4.67-3.7c1.67-1.54,3.25-3.1,4.71-4.84
	c0.74-0.88,1.2-1.7,1.25-2.8c1.41,0.05,1.95-1.54,1.9-2.02c-0.16-1.48,1.85-0.72,1.63-1.89c-0.32-1.7,1.48-2.24,1.92-3.62
	c0.4-1.27,1.53-2.32,2.5-3.68c0-0.41,0-1.14,0-1.91c2.73-2.11,2.38-5.58,3.61-8.38c0.55-1.24-0.48-2.43-0.97-3.59
	c-1.06,0-2.13,0-3.16,0c-0.18,0.51-0.33,0.94-0.39,1.11c-0.85,0.3-1.68,0.35-2.11,0.78c-1.18,1.2-3.14,0.99-4.15,2.42
	c-3.28,0.78-5.91,2.86-8.86,4.3c-0.88,0.43-0.6,1.42-1.15,1.44c-1.18,0.04-1.95,0.58-2.79,1.32c-0.84,0.73-2.05,1.77-2.91,1.61
	c-1.63-0.3-1.35,1.28-2.21,1.74c-1.15,0.61-2.57,0.98-3.49,1.92c-1.03,1.05-2.36,1.64-3.37,2.55c-0.95,0.85-1.72,1.94-2.8,2.75
	c-1.45,1.1-2.85,2.28-4.16,3.57c-1.85,1.81-3.91,3.38-6.44,4.02c-0.16,0.44-0.3,0.84-0.44,1.22c-0.65,0-1.13,0-1.64,0
	c-0.17,0.45-0.33,0.87-0.5,1.33c-0.56,0.06-1.14,0.12-1.81,0.2c-0.06,0.35,0.01,0.83-0.18,0.99c-0.89,0.75-2.04,1.26-2.74,2.14
	c-0.77,0.98-2.47,0.94-2.6,2.51c-2.3,1.07-3.24,3.7-5.53,4.79c0.18,1.19-1.1,0.97-1.48,1.54c-0.49,0.74-0.72,1.65-0.93,2.16
	c-1.9,1.43-3.58,2.68-5.23,3.95c-0.38,0.3-0.98,0.67-0.99,1.03c-0.06,1.41-1.35,1.57-2.12,1.95c-1.08,0.53-0.48,2.25-1.91,2.3
	c-1.17,1.87-3.44,2.68-4.56,4.45c-0.6,0.96-1.35,1.45-2.15,1.93c-1.01,0.61-1.32,1.73-2.14,2.51c-1.62,1.55-3.22,3.13-4.87,4.67
	c-1.14,1.06-1.78,2.65-2.65,4c-2.1-0.01-1.99,2.72-3.8,3.07c-0.38,1.43-1.99,1.92-2.49,3.31c-0.5,1.4-2.36,1.98-2.29,3.13
	c-1.16,1.25-2.05,2.11-2.81,3.07c-0.86,1.09-1.58,2.28-2.39,3.4c-0.75,1.04-1.36,2.57-2.37,2.95c-1.65,0.62-1.26,2.26-2.23,3.07
	c-0.25-0.22-0.51-0.44-0.84-0.73c-1.13,1.68-2.05,3.48-3.37,4.9c-1.3,1.4-2.32,2.9-3.06,4.62c-1.65,0.05-1.51,1.84-2.5,2.61
	c-0.98,0.75-2.22,1.52-2.38,3.01c-1.65,0.53-1.86,2.55-3.37,3.23c-1.06,0.48-1.49,1.66-2.44,2.23c-1.62,0.96-1.87,3.41-4.08,3.7
	c-1.06,2.21-3.88,3.11-4.18,5.71c-2.32,1.27-4.83,3.76-6.08,5.98c-0.48,0-0.96,0-1.26,0c-2.27,2.65-4.99,4.69-7.19,7.17
	c-2.11,2.38-4.39,4.58-6.59,6.86c-2.34,2.43-4.94,4.6-6.76,7.7c1.48,0.27,2.65,0.65,3.82,0.64c1.39-0.02,2.78-0.38,4.33-0.61
	c0.29-0.29,0.72-0.72,1.29-1.29c0.94,0,2,0,3.02,0c0.19-0.56,0.34-0.98,0.53-1.51c1.35,0,2.66,0,3.92,0
	c0.19-0.55,0.33-0.98,0.47-1.37c1.32,0,2.54,0,3.75,0c1.7-1.76,3.83-1.57,5.42-1.42c1.62,0.7,2.76,1.19,4.68,2.01
	c0.24,0.3,1.02,1.29,1.87,2.38c0.32,0,0.8,0,1.48,0c1.35,1.41,2.77,2.91,4.2,4.4c0.52,0,1,0,0.91,0c2.73,2.25,5.12,4.22,7.45,6.15
	c0,0.81,0,1.54,0,2.41c-0.82,0.52-1.7,1.08-2.44,1.55c-0.94,0-1.76,0-2.8,0c-0.31-0.45-0.65-0.95-1.04-1.51
	c-3.38,0.71-6.81-0.65-10.06,0.87c-0.47,0.22-1.24,0.1-1.75-0.12c-2.77-1.23-5.54-0.39-8.32-0.42c0.02,2.42,2.41,2.44,3.29,4
	c0.65,1.15,2.15,2.08,3.18,3.16c0.5,0.03,0.96,0.06,1.44,0.1c0.13,0.78,0.25,1.45,0.33,1.96c1.11,0.82,2.05,1.52,2.98,2.21
	c0.94,0.69,1.84,1.42,2.82,2.06c0.91,0.6,1.98,0.99,2.82,1.67c0.78,0.63,1.41,2.21,2,2.16c1.54-0.13,2,1.22,3.44,1.81
	c1.4-0.27,3.32-1.24,4.77-0.77c1.73,0.56,3.49,0.25,5.1,0.72c0.11,0.47,0.19,0.81,0.28,1.21c0.58,0.06,1.16,0.12,2.02,0.21
	c1.27,1.34,2.69,2.84,4.12,4.34c0.89,0.05,1.55,0.47,2.26,0.81c0.8,0.38,1.64,0.69,2.34,0.98c0.13,0.44,0.23,0.76,0.33,1.08
	C445.45,611.84,446.18,611.84,446.91,611.84z M640.56,136.59c-0.6-1.81-1.2-3.64-1.8-5.47c-2.19-0.85-2.42-3.11-3.23-4.83
	c-0.86-1.84-2.26-3.18-3.41-4.75c-0.42-0.58-1.18-1-1.39-1.62c-1.16-3.39-4.33-5.35-5.88-8.5c-0.81-1.65-2.25-3.04-3.58-4.37
	c-1.42-1.42-2.98-2.72-4.62-3.88c-1.28-0.9-2.77-1.51-3.78-2.05c-4.3-5.17-9.17-8.99-15.44-12.17c-2.48-2.33-5.48-5.15-8.65-8.13
	c-0.52,0.04-1.32,0.1-2.44,0.18c0.52,1.85,0.79,3.47,1.44,4.91c0.66,1.44,0.58,2.99,1.05,4.45c0.48,1.53,0.13,3.46,0.91,4.74
	c0.96,1.55,0.87,3.37,1.76,4.78c0.91,1.44,0.86,3.06,1.45,4.54c0.63,1.57,0.93,3.28,1.47,5.31c0.21,0.15,0.7,0.49,0.94,0.66
	c0.36,1.81-0.43,3.47,0.85,4.78c-0.54,1.94,1.27,3.17,1.47,4.89c0.45,3.9,1.78,7.61,2.39,11.52c0.67,4.34,1.57,8.66,2.01,13.05
	c0.04,0.36-0.14,0.95,0.03,1.07c1.6,1.1,0.27,2.91,1.12,4.35c0.7,1.19,0.26,3.05,0.32,4.61c0.03,0.72-0.15,1.52,0.09,2.16
	c1.08,2.78,1.41,5.64,1.39,8.59c-0.04,6.11-0.01,12.22-0.02,18.33c0,0.84,0.19,2.22-0.18,2.41c-1.23,0.63,0.87,1.51-0.3,1.91
	c-0.08,2.04-0.16,4.08-0.24,6.12c1.17,0.77,0.55,1.98,0.74,3c0.19,1.01,0.62,1.99,0.67,3c0.03,0.62-0.45,1.26-0.62,1.68
	c1.61,3.19,0.16,6.5,1,9.65c0.81,3.03,1.09,6.23,1.23,9.44c0.13,3.09,1.1,6.14,1.77,9.57c0.12,0.12,0.55,0.55,1.11,1.11
	c0,0.94,0,2,0,2.96c0.56,0.54,0.99,0.97,1.42,1.39c0,0.75,0,1.48,0,2.21c0.35,0.35,0.69,0.69,1.09,1.09c2.13,0,4.52,0.54,6.45-0.17
	c1.6-0.58,3.3,0.09,4.46-0.66c1.67-1.09,3.29-0.57,4.89-0.59c7.33-0.1,14.66-0.08,21.99-0.02c1.79,0.02,3.62-0.01,5.16-0.83
	c1.15-0.61,2.24-0.56,3.4-0.68c4.22-0.44,8.34,0.61,12.53,0.76c1.75,0.06,3.51-0.36,5.24,0.64c0.68,0.4,2.14,0.31,2.76-0.18
	c1.62-1.26,3.46-1.22,5.44-1.22c-0.1-0.85,0.05-1.65-0.27-1.95c-0.99-0.91-1.44-2.09-1.99-3.24c-0.54-1.12-0.97-2.29-1.48-3.42
	c-0.54-1.19-0.75-2.4-0.78-3.73c-0.02-1.25-0.77-2.53-0.61-3.72c0.28-2.18-0.99-3.78-1.61-5.61c-0.28-0.84-1.42-1.65-1.31-2.34
	c0.34-2.11-1.19-3.3-2.1-4.66c-1.22-1.82-1.8-4.14-3.82-5.4c-0.13-1.95-2.09-2.7-2.8-4.27c-0.56-1.23-1.03-2.51-1.66-3.71
	c-0.95-1.81-1.82-3.71-3.07-5.31c-0.94-1.21-1.83-2.41-2.24-3.85c-0.42-1.47-1.72-2.29-2.16-3.9c-0.58-2.13-1.54-4.25-2.41-6.31
	c-1.53-3.63-1.53-7.98-4.77-10.86c-0.06-0.05-0.03-0.24,0-0.36c0.36-1.78-0.9-3.05-1.48-4.52c-0.79-2-2.49-3.63-2.24-6.06
	c0.06-0.55-0.47-1.48-0.98-1.72c-1.5-0.71-0.71-2.5-1.79-3.34c0.06-2.81-1.78-4.88-2.83-7.26c-0.5-1.14-1.31-2.24-0.98-3.64
	c0.04-0.16-0.22-0.38-0.34-0.58C641.09,136.59,640.84,136.59,640.56,136.59z M668.05,629.46c1.96-1.12,3.52-2.7,5.15-2.77
	c2.09-0.09,3.38-1.49,5.06-2.11c1.65-0.61,3.37-1.85,4.26-3.9c0.62-1.44,2.25-2.41,3.16-3.77c2.29-3.43,4.41-6.97,6.65-10.43
	c0.32-0.5,1.14-0.69,1.41-1.2c0.86-1.59,1.53-3.28,2.35-4.89c0.82-1.62,2.24-3.14,2.44-4.81c0.23-1.96,1.74-3.25,1.87-5.14
	c0.06-0.77,0.74-1.55,0.65-2.26c-0.23-1.75,0.84-3.14,1.01-4.75c0.05-0.55,0.49-1.07,0.49-1.61c0.04-4.03,0.14-8.07-0.01-12.1
	c-0.15-3.93,0.76-7.94-0.7-11.8c0.52-4.46-0.91-8.8-0.79-13.21c-1.48-2.56-2.04-4.71-2.35-9.04c-0.57,0-1.14,0-1.72,0
	c-0.26,1-0.62,1.98-0.75,2.99c-0.17,1.3-0.65,2.89-0.1,3.85c0.63,1.1,0.57,2.06,0.55,3.08c-0.07,2.73,0.61,5.27,1.28,7.9
	c0.59,2.33,0.72,4.96-0.51,7.27c0.26,0.44,0.7,0.83,0.7,1.22c0.06,2.93,0.26,5.89-0.03,8.79c-0.29,2.92,1.34,5.6,0.86,7.9
	c-0.44,1.06-0.67,1.58-0.87,2.1c-0.88,2.32-1.6,4.7-2.82,6.9c-1.04,1.87-2.01,3.84-2.55,5.89c-0.55,2.1-2.37,3.81-1.89,6.2
	c-1.6,1.26-1.38,3.57-3.22,4.94c-1.36,1.01-2.67,2.22-4.11,3.2c0.41,1.37-1.19,0.74-1.51,1.51c-0.3,0.71-1.12,1.22-1.38,1.93
	c-0.29,0.83-1.66,0.14-1.59,1.52c0.06,1.16-1.83-0.31-2.2,1.14c-0.15,0.58-1.04,1.03-1.68,1.42c-0.85,0.52-2.46,0.84-2.52,1.37
	c-0.17,1.6-1.91,0.76-2.37,1.93c-0.22,0.58-1.57,0.71-2.4,1.08c-0.91,0.41-1.8,0.87-2.7,1.32c1.21,3.13,1.09,3.26-1.37,5.75
	c-1.01,1.02-1.66,2.4-2.67,3.92c1.59,0,2.74,0,3.97,0c0.39-0.46,0.78-0.92,1.12-1.32C666.95,629.46,667.56,629.46,668.05,629.46z
	 M534.02,590.49c1.03,2.1,2.22,4.5,3.37,6.92c0.34,0.71,0.85,1.46,0.84,2.19c-0.01,2.25,1.18,3.69,2.8,4.99c1.72,0,3.41,0,5.02,0
	c0.5,0.5,0.93,0.93,1.4,1.4c0.57,0,1.26-0.19,1.76,0.04c1.44,0.66,2.83,1.43,4.18,2.26c1.47,0.9,1.44,0.95,3.06-0.4
	c-0.91-1.23-2-2.36-2.67-3.7c-1.21-2.42-2.18-4.94-3.54-7.31c-0.71-1.23-2.22-2.2-2.27-3.31c-0.08-1.71-2.01-2.1-1.91-3.65
	c-0.82-0.05-1.64-0.09-2.37-0.13c-0.52-0.54-0.95-0.97-1.24-1.27c-2.42,0-4.7,0-6.64,0C535.2,589.18,534.81,589.62,534.02,590.49z
	 M818.65,578.12c4.08,0,7.97,0,11.87,0c0.52-0.5,1.04-0.99,1.1-1.05c2.41-0.75,4.27-1.24,6.07-1.91c1.93-0.72,3.45-2.11,4.98-3.47
	c-0.02-0.46-0.04-0.93-0.07-1.44c-1.67-0.13-3.05-1.02-4.78-0.99c-8.15,0.12-16.3,0.05-24.45,0.06c-0.52,0-1.04,0.15-2.12,0.32
	c1.67,1.77,3.2,2.99,4.2,4.56C816.35,575.6,818.06,576.22,818.65,578.12z M779.45,602.66c-1.14-0.97-0.57-2.38-0.58-3.63
	c-0.03-3.16-1.26-5.88-3.17-8.22c-3.46-4.23-6.89-8.53-11.51-11.64c-0.19-0.13-0.13-0.64-0.18-0.95c-0.69-0.08-1.27-0.15-1.82-0.22
	c-0.17-0.47-0.32-0.9-0.53-1.48c-0.3,0.64-0.53,1.13-0.79,1.68c-0.27-0.57-0.5-1.07-0.73-1.55c-0.3,0.02-0.54,0.03-0.78,0.05
	c-1.12,1.24,0.22,2.19,0.46,3.22c0.57,2.48,1.41,4.85,3.51,6.64c0.9,0.76,1.31,2.1,2.02,3.31c1.66,0.91,1.66,0.91,2.49,2.42
	c1.09,1.98,2.42,3.71,4.4,4.94c0.84,0.52,1.48,1.38,2.2,2.1c0.74,0.74,0.48,2.06,1.94,2.54c0.85,0.28,1.29,1.8,1.99,2.88
	C778.81,603.9,779.13,603.29,779.45,602.66z M741.83,424.12c-0.74,2.96-1.29,5.16-1.86,7.37c-0.2,0.76-0.65,1.5-0.7,2.26
	c-0.15,2.59-0.17,5.15-0.64,7.77c-0.62,3.48,0.04,7.1-0.77,10.67c-0.49,2.19-0.09,4.58-0.09,6.97c1.29,0,2.44,0,3.49,0
	c0.35-0.89,0.71-1.61,0.9-2.37c0.91-3.56,0.94-7.3,2.17-10.81c0.26-0.74,0.33-1.96-0.1-2.46c-0.95-1.13-0.53-2.3-0.57-3.44
	c-0.08-2.19,0.37-4.48-0.12-6.56C742.89,430.7,742.53,427.85,741.83,424.12z M647.94,623.59c-1.48,0-2.94,0-3.95,0
	c-3.79,1.7-7.58,2.88-9.03,7.22c2.32,0,4.36,0,6.48,0c2.04-2.09,4.83-1.09,7.29-1.42c1.53-1.41,3.39-1.5,5.12-1.39
	c0.58-0.61,1-1.06,1.52-1.61c0.73,0,1.55,0,2.55,0c0.29-0.81,0.56-1.55,0.7-1.93c-0.81-1.01-1.4-1.76-1.79-2.24
	c-2.79,0-5.21,0-7.55,0C648.79,622.73,648.36,623.17,647.94,623.59z M416.79,578.25c-2.43-1.76-4.68-3.66-7.18-5.15
	c-4.03-2.39-5.65-2.14-9.83,0.67c-1.12,0-2.33,0-3.53,0c0.03,0.11,0.06,0.22,0.09,0.34c-1.59,0.5-3.19,1-4.76,1.5
	c0.03,0.28,0.05,0.52,0.1,1.01c1.12,0,2.27,0,3.31,0c0.57,0.65,0.97,1.1,1.33,1.52c2.52,0,4.95,0,7.65,0
	c0.33,0.43,0.76,1.01,1.08,1.42c3.65,0,7.05,0,10.38,0C415.84,579.16,416.19,578.83,416.79,578.25z M532.83,582.52
	c1.67,0,3.37,0,5.05,0c1.39,1.28,2.94,1.81,5.25,1.14c-2.14-2.84-2.62-6.33-5.32-8.57c-0.52-3.49-3.34-5.67-5.09-8.71
	c-0.73,0.04-1.63,0.09-2.67,0.15C530.93,571.95,531.03,577.21,532.83,582.52z M584.45,622.73c-0.37-0.75-0.66-1.35-0.96-1.96
	c-0.64-0.1-1.3-0.21-1.82-0.29c-0.14-0.56-0.22-0.89-0.29-1.19c-1-0.1-1.89-0.18-2.62-0.26c-0.18-0.62-0.27-0.95-0.39-1.37
	c-1.36,0-2.67,0-3.92,0c-0.19-0.54-0.34-0.97-0.49-1.41c-0.54,0-1.02-0.01-1.5,0.01c-0.1,0-0.19,0.13-0.48,0.35
	c0.15,3.67,2.49,6.57,3.96,9.84c1.32,0,2.62,0,3.82,0C581.41,625.14,582.98,623.89,584.45,622.73z M737.13,492.26
	c0.81-0.4,1.47-0.73,2.15-1.06c-0.7-1.05,0.83-1.86,0.1-3.16c-0.45-0.8,0.18-2.52,0.8-3.53c0.88-1.4,0.29-2.8,0.53-4.17
	c-1.51-0.87-0.27-2.63-1.36-3.86c-0.98-1.11,0.69-2.56,0.64-3.98c-0.06-1.94-0.01-3.89-0.03-5.83c0-0.21-0.15-0.42-0.38-1.01
	c-0.61-0.16-1.44-0.37-2.82-0.73c0.82,1.91-0.76,3.32,0.28,4.84c-0.26,0.38-0.51,0.76-0.75,1.11c0.53,1.41,1.05,2.78,1.55,4.11
	c-0.3,0.33-0.54,0.59-0.78,0.85c1.22,0.91,0.64,2.22,0.68,3.35c0.04,1.17-0.19,2.35-0.26,3.52c-0.06,1-0.02,2.01-0.09,3.01
	c-0.08,1.17-0.63,2.49-0.25,3.46C737.59,490.27,737.02,491.19,737.13,492.26z M481.94,617.51c0.15-0.19,1.18-0.91,1.24-1.69
	c0.12-1.56,1.99-0.76,2.17-2c0.45-3.14,2.53-5.55,3.76-8.33c0.42-0.94,0.45-2.05,0.82-3.84c-2.01,1.95-3.43,3.33-4.85,4.71
	c-0.89,0.87-0.72,2.58-2.45,2.85c0.37,1.36-1.63,0.89-1.52,1.85c0.14,1.26-1.91,0.37-1.6,1.92c0.13,0.64-0.85,1.49-1.27,2.16
	C479.07,616.24,479.13,618.15,481.94,617.51z M501.06,646.16c1.49-3.12-1.12-4.71-1-6.96c0.05-0.99-0.86-2.03-1.38-3.15
	c-0.02-1.52,0.34-3.29-0.76-4.66c-1.1-1.37-0.44-3.19-1.46-4.51c-0.1-0.13-0.33-0.15-0.48-0.22c-0.28,0.28-0.54,0.54-0.8,0.8
	c1.23,2.45,0.18,5.09,0.59,7.19c2.03,3.07,3,6.07,2.98,9.27c0.58,0.25,1.07,0.34,1.38,0.62
	C500.45,644.85,500.6,645.34,501.06,646.16z M435.68,619.27c0.25,0.37,0.65,0.97,0.89,1.33c2.5,0,4.67,0,6.58,0
	c0.55-0.43,0.91-0.72,1.62-1.27c-1.3-0.09-2.21-0.16-3.95-0.28c-0.04-0.15-0.26-0.91-0.41-1.45c-1.1,0-1.8,0-2.45,0
	c-0.18-0.54-0.32-0.96-0.41-1.23c-2.42,0-4.7,0-7.39,0c1.17,0.98,2.02,1.7,3.3,2.78C433.67,619.16,434.49,619.21,435.68,619.27z
	 M612.71,625.21c2.31,1.66,4.23,3.04,7.25,2.81c0.21,0.47,0.52,1.14,1.23,2.67c0.55-1.45,0.77-2.03,0.99-2.62
	c0.12,0.12,0.24,0.25,0.36,0.37c0-1.06,0-2.12,0-3.23C619.35,625.21,616.26,625.21,612.71,625.21z"/>
<path d="M266.91,777.61c3.05,0,6.11,0,9.16,0c2.93,0,5.88,0.21,8.79-0.06c3.04-0.28,5.88,0.86,8.87,0.8
	c2.93-0.06,5.86-0.01,8.8-0.01c2.93,0,5.95-0.44,8.78,0.1c4.2,0.81,8.36,0.54,12.55,0.61c4.15,0.07,8.37-0.42,12.45,0.11
	c9.07,1.18,18.18-0.08,27.18,0.8c5.06,0.49,10.07,0.43,15.11,0.55c5.01,0.12,10.02,0.04,15.03,0.02c3.58-0.02,7.06,1.07,10.7,0.8
	c3.65-0.27,7.33-0.1,10.99-0.02c0.76,0.02,1.5,0.47,2.26,0.72c0.28-0.26,0.54-0.5,0.81-0.75c0.65,1.04,1.7,0.72,2.62,0.72
	c7.82,0.02,15.64-0.05,23.46,0.04c2.83,0.04,5.66,0.55,8.49,0.67c2.93,0.12,5.86,0.03,8.8,0.03c2.93,0,5.96-0.46,8.78,0.1
	c5.05,1,10.08,0.49,15.11,0.61c5.13,0.12,10.26,0,15.39,0.06c0.67,0.01,1.79-0.73,2.05,0.7c-78.72,0-157.44,0-236.17,0
	C266.91,782.02,266.91,779.82,266.91,777.61z"/>
</svg>
