<?xml version="1.0" encoding="utf-8"?>
<!-- Generator: Adobe Illustrator 24.1.0, SVG Export Plug-In . SVG Version: 6.00 Build 0)  -->
<svg version="1.1" id="Layer_1" xmlns="http://www.w3.org/2000/svg" xmlns:xlink="http://www.w3.org/1999/xlink" x="0px" y="0px"
	 viewBox="0 0 1224 792" style="enable-background:new 0 0 1224 792;" xml:space="preserve">
<path d="M264.05,746.19c1.08,0.43,1.34,1.55,1.35,2.38c0.01,1.3,0.67,2.42,0.71,3.59c0.04,1.29,0.65,2.41,0.72,3.59
	c0.05,0.98,0.31,1.79,0.81,2.51c0.62,0.91,0.57,1.89,0.72,2.9c0.37,2.45,0.9,4.88,1.41,7.3c0.06,0.3,0.41,0.54,0.69,0.89
	c0,0.48,0,1.06,0,1.65c0.01,1.93-0.28,3.92,1.4,5.44c0.18,0.16,0.02,0.68,0.02,1.03c-2.61,0-5.22,0-7.82,0
	C264.05,767.06,264.05,756.63,264.05,746.19z"/>
<path d="M771.25,708.16c-0.14,1.52,0.07,3.06-0.63,4.67c-0.55,1.26,0.16,2.94-0.18,4.48c-0.77,0.53-1.55,1.05-2.6,1.77
	c-0.68,0-1.71,0-2.75,0c-0.25-0.25-0.5-0.5-1.02-1.01c0.39-2.81-0.59-5.9,0.67-8.98c0.37-0.9-0.18-2.17-0.38-3.92
	c-0.03,0.07,0.43-0.54,0.42-1.15c-0.07-5.37,1.21-10.67,0.78-16.07c-0.18-2.24-0.11-4.51-0.01-6.75c0.18-4.53,0.15-9.1,0.83-13.56
	c0.33-2.17-0.05-4.52,0.74-6.42c0.89-2.14,0.18-4.15,0.56-6.17c0.2-1.09,0.48-2.17,0.7-3.26c0.25-1.2,0.5-2.41,0.71-3.62
	c0.19-1.1,0-2.16,0.55-3.34c0.67-1.46,0.22-3.29,0.78-5c0.66-2.02,0.66-4.27,0.78-6.43c0.12-2.12,0.03-4.26,0.03-6.33
	c-0.87-1.1-1.7-2.15-2.56-3.23c-0.42,0-0.9,0-1.45,0c-0.1-0.29-0.21-0.6-0.34-0.96c-1.18-0.6-2.37-1.48-3.7-1.81
	c-1.53-0.38-2.54-1.44-3.67-2.28c-0.98-0.73-2.35-0.59-3.13-2c-0.66-1.2-2.25-1.88-3.61-2.92c-0.2,0-0.67,0-1.21,0
	c-0.14-0.4-0.29-0.82-0.46-1.31c-0.52-0.06-1.09-0.11-1.74-0.18c-0.07-0.29-0.16-0.61-0.27-1.06c-1.64-0.54-3.06-2.13-5.31-1.65
	c0.01-1.75-2.1-1.42-2.53-2.85c-1.12,0-2.15,0-3.12,0c-0.69-1.48-1.38-2.48-3.09-3.01c-1.84-0.57-3.4-2.04-5.08-3.12
	c-0.02-1.47-1.56-1.49-2.33-2.11c-0.95-0.75-1.69-1.69-2.64-2.42c-0.23-0.18-0.45-0.76-0.48-0.74c-1.57,0.74-1.54-1.2-2.53-1.56
	c-0.7-0.26-1.4-1.19-1.9-1.85c-0.95-1.27-2.5-2-3.13-3.67c-0.51-0.04-1.07-0.09-1.63-0.13c-0.56-1.76-1.91-3.15-3.33-3.87
	c-1.88-0.95-2.66-2.73-4.06-3.99c-1.02-0.91-1.89-2.03-2.92-2.88c-1.11-0.92-1.56-2.49-2.83-3.03c-1.84-0.78-2.87-2.18-3.46-3.88
	c-0.27-0.78-0.93-0.57-1.16-0.9c-0.49-0.7-0.51-1.87-1.11-2.32c-0.7-0.53-1.53-0.77-1.66-1.81c-0.47,0-0.93,0-1.22,0
	c-1.32-1.4-2.54-2.7-3.97-4.21c-0.22-0.03-0.78-0.09-1.33-0.16c-0.38-0.8-0.75-1.59-1.22-2.59c-1.12-0.59-2.47-1.31-4.01-2.13
	c-0.01-0.05-0.1-0.37-0.22-0.83c-0.75-0.04-1.55-0.07-2.44-0.12c-0.09-0.29-0.18-0.6-0.29-0.97c-1.41-0.66-2.88-1.35-4.44-2.08
	c-1.93,2.83-4.04,5.28-4.83,8.56c-2.25,0.58-2.9,2.55-3.74,4.45c-0.44,0-0.9,0-1.27,0c-1.09,1.64-2.13,3.21-3.36,5.05
	c-0.44,2.01-1.19,4.39-1.44,6.82c-0.27,2.57-0.06,5.2-0.06,7.74c-1.39,1.44-1.42,1.41-3.13,1.84c-0.55-0.82-1.87-1.13-1.86-2.56
	c-1.3,0.13-1.16-1.42-2.35-1.92c-0.2,0.45-0.38,0.89-0.58,1.32c-0.43,0.89-0.78,1.84-1.35,2.63c-0.45,0.62-1.19,1.04-2.18,1.86
	c0.01,0-0.55,0.06-1.35,0.15c0.24,1.24-0.35,2.13-1.24,2.97c-0.72,0.68-1.3,1.57-1.77,2.45c-1.01,1.93-2.11,3.74-3.77,5.21
	c-0.73,0.65-1.28,1.58-1.73,2.47c-0.84,1.66-1.55,3.38-2.37,5.19c-0.5,0.04-1.07,0.09-1.74,0.15c-0.52,1.63-0.99,3.32-1.62,4.96
	c-0.62,1.64-1.39,3.22-2.12,4.81c-0.36,0.8-0.74,1.6-1.18,2.35c-0.72,1.25-1.77,2.38-2.17,3.72c-0.34,1.15-0.61,2.17-1.58,2.93
	c-0.12,0.09,0.06,0.53-0.06,0.67c-1.25,1.51-0.8,3.61-2.03,5.24c-1,1.33-1.22,3.26-1.8,4.99c-0.22,0.06-0.54,0.14-1.15,0.3
	c0.44,2.49-0.5,4.74-1.72,6.92c-1.06,1.9-0.69,4.54-3.11,6.05c-0.39,4.66-3.05,8.95-3.89,13.75c-0.32,0.08-0.64,0.17-1.22,0.32
	c0.19,0.28,0.32,0.49,0.47,0.71c-0.9,2.31-1.87,4.61-1.92,7.18c-0.01,0.42-0.25,0.84-0.4,1.25c-1.42,3.8-3.03,7.54-4.18,11.42
	c-0.46,1.56-1.8,2.25-2.33,3.61c-0.52,1.33-1.01,2.7-1.78,3.88c-1.63,2.52-2.27,5.62-4.7,7.69c-0.77,0.66-1.04,1.91-1.53,2.89
	c-1.18,2.36-2.52,4.65-3.47,7.1c-0.46,1.18-1.62,1.52-2.1,2.63c-0.42,0.98-0.29,2.43-1.9,2.78c-0.44,0.1-0.77,1.04-1.01,1.65
	c-0.78,2-1.6,3.94-3.26,5.42c-0.47,0.42-0.92,1.1-0.99,1.7c-0.26,2.18-2.87,2.91-3.01,5.1c-1.67,0.15-1.84,1.79-2.75,2.7
	c-0.84,0.84-1.87,1.5-2.81,2.24c0.17,0.17,0.34,0.34,0.7,0.7c-0.41,0.17-0.72,0.3-1.19,0.5c-0.5,1.65-1.79,2.95-3.28,4.09
	c-0.18,0.13-0.5,0.23-0.52,0.38c-0.27,1.81-1.71,2.75-2.86,3.89c-1.2,1.18-2.34,2.46-4.04,2.98c0.05,1.36-1.38,1.24-1.98,1.96
	c-0.66,0.8-2.02,0.91-2.23,2.18c-1.31-0.35-0.84,1.55-2.15,1.64c-0.8,0.06-1.5,1.4-2.28,2.12c-0.31,0.28-0.74,0.44-1.4,0.82
	c-0.26,0.57-0.67,1.47-1.13,2.5c-0.96,0-1.99,0-2.9,0c-0.54,0.54-0.96,0.96-1.42,1.42c-0.67,0-1.37,0-2.23,0
	c-0.13,0.38-0.27,0.78-0.46,1.32c-0.46,0-1.02,0-1.44,0c-0.65,0.62-1.16,1.1-1.67,1.59c-1.43,0-2.84,0-4.31,0
	c-0.15,0.42-0.3,0.83-0.46,1.29c-0.54,0.06-1.1,0.13-1.66,0.19c-0.17,0.42-0.34,0.83-0.56,1.36c-1.22,0-2.49,0-3.81,0
	c-0.09,0.43-0.16,0.76-0.19,0.93c-1.14,0.58-2.22,1.12-3.58,1.81c-1.68-1.01-3.73-0.96-6,0.2c-0.35-0.52-0.74-1.11-1.01-1.51
	c-2.95,0-5.55,0-8.11,0c-1.77-1.47-3.38-3.15-6.01-2.95c-0.07-0.34-0.14-0.67-0.25-1.24c-0.44-0.04-0.99-0.09-1.91-0.17
	c-0.47-0.71-1.04-1.66-1.69-2.56c-0.79-1.09-1.83-2.03-2.41-3.21c-0.63-1.28-1.8-2-2.58-3.12c-0.45-0.64-1.46-0.88-2.65-1.55
	c-0.13-1.25,0.21-3.41-2.16-4.12c-0.33-1.64-1.22-2.96-2.58-3.85c-1.2-0.78-2.11-1.76-2.96-2.86c-0.1-0.13-0.59-0.06-0.61-0.15
	c-0.42-1.45-1.64-2.37-2.32-3.61c-0.66-1.21-1.92-1.89-2.41-3.2c-0.23-0.61-0.76-1.11-0.97-1.73c-0.92-2.76-2.12-5.41-4.11-7.51
	c-0.7-0.74,0.51-2.46-1.37-2.3c-0.51-0.96-0.98-1.94-1.55-2.87c-0.53-0.86-1.25-1.61-1.7-2.5c-0.22-0.44-0.04-1.1-0.04-1.7
	c-0.72,0-1.18,0-1.6,0c-2.04-2.17-1.13-5.87-4.08-7.63c0-0.57,0-1.28,0-1.72c-1.05-1.05-1.95-1.96-2.86-2.88
	c0.59-2.03-2.34-1.61-2.28-3.26c-1.79-0.31-1.68-2.11-2.43-3.21c-0.79-1.16-0.88-3.04-1.89-3.75c-1.38-0.97-1.88-2-1.97-3.55
	c-1.26-1.51-3.17-2.63-3.53-4.86c-1.85-1.19-2.75-3.23-4.23-4.76c-0.27-0.28-0.56-0.55-0.74-0.89c-0.71-1.39-1.9-2.34-2.99-3.39
	c-0.36-0.35-0.62-0.84-0.82-1.31c-0.6-1.47-1.41-2.98-2.66-3.75c-1.65-1.03-1.83-2.87-3.02-4.11c-1.25-1.3-2.26-2.83-3.32-4.3
	c-1.1-1.52-2.15-3.09-3.45-4.97c-1.79-0.69-3.22-2.51-4.96-4.29c-0.21,0-0.68,0-1.37,0c0.17-2-2.86-2.32-2.32-4.62
	c-1.13-1.37-0.9-3.4-2.76-4.58c-1.1-0.69-1.39-2.66-2.21-4.39c0-0.77,0-1.95,0-2.76c-0.98-2.58-2.73-4.4-2.95-7.01
	c-0.06-0.77-0.1-2.39-1.78-2.42c-0.18,0-0.34-0.76-0.52-1.19c-0.78,0-1.58,0-2.43,0c-0.08,0.38-0.15,0.71-0.22,1.06
	c-1.37,1.01-2.54-0.21-3.74-0.49c-0.32,0.29-0.58,0.52-0.83,0.75c-0.42-0.42-0.84-0.84-1.33-1.33c-2.62,0-5.31,0-7.96,0
	c-0.46,0.46-0.88,0.88-1.35,1.35c-0.41,0-0.88,0-1.35,0c-4.39,0-8.77-0.07-13.16,0.03c-2.16,0.05-4.35-0.43-6.51,0.59
	c-0.7,0.33-1.9-0.57-2.86-0.57c-0.97,0-2.05,0.83-2.89,0.59c-3.84-1.09-7.72-0.5-11.61-0.58c-0.48-0.01-1,0.89-1.48,1.34
	c-5.01,0-9.99,0-15.03,0c-0.14-0.41-0.29-0.82-0.48-1.36c-1.7,0-3.44,0-5.25,0c-0.1-0.42-0.18-0.75-0.27-1.1
	c-1.49-0.46-3.05-0.95-4.83-1.5c0.04-0.04-0.21,0.19-0.38,0.34c-1.49-0.28-2.92-0.56-4.53-0.86c-0.03-0.1-0.13-0.42-0.31-1.04
	c-1.17-0.07-2.51-0.16-3.89-0.24c-0.15-0.39-0.31-0.8-0.55-1.44c-0.27,0.59-0.47,1.02-0.74,1.61c-0.44-0.96-0.84-1.81-1.3-2.81
	c-0.44,0-1,0-1.53,0c-0.31-1.49-1.81-1.64-2.5-2.6c0-0.47,0-0.94,0-1.55c-0.63-0.12-1.27-0.24-2.17-0.42
	c0.3-2.19,0.6-4.39,0.86-6.27c-1.19-1.07-2.56-1.72-2.86-2.7c-0.66-2.15-3.77-3.02-2.79-6.05c-0.95-0.55-1.24-1.9-2.7-1.89
	c-0.91-1.86-1.83-3.73-2.76-5.64c-0.45,0-0.92,0-1.36,0c-1.53-1.98-1.65-4.99-4.57-5.98c-0.29-0.7-0.47-1.64-1.01-2.28
	c-0.43-0.51-1.17-0.6-1.52-1.47c-0.24-0.59-0.25-1.85-1.62-1.84c-0.4,0-0.79-1.02-1.44-1.93c-0.4-1.19-0.87-2.9-1.6-4.49
	c-0.19-0.42-1.18-0.48-2.13-0.83c-0.27-0.92-0.65-2.19-1.13-3.83c-0.01,0-0.41-0.12-0.95-0.26c0-0.75,0-1.54,0-1.67
	c-1.47-2.21-2.59-3.9-3.66-5.52c0-1.28,0-2.46,0-3.81c-0.38-0.11-0.78-0.23-1.19-0.35c-0.82-2.56-0.74-5.3-1.62-7.86
	c-0.25-0.73,0.22-1.71,0.4-2.78c-0.12-0.82-0.43-1.91-0.43-3.01c-0.05-5.69-0.2-11.39,0.04-17.07c0.18-4.11-0.82-8.09-0.78-12.16
	c0.04-4.15,0.54-8.39-0.13-12.42c-0.84-5.04-0.41-10.02-0.52-15.02c-0.05-2.38-0.62-4.86,0.6-7.2c0.25-0.49-0.3-1.34-0.3-2.03
	c0.01-0.78,0.32-1.55,0.33-2.33c0.04-3.2,0.01-6.4,0.02-9.6c0-2.74-1.29-5.19-1.74-7.84c-0.1-0.6-0.41-1.28-0.38-1.94
	c0.21-5.24,0.32-10.49,0.76-15.7c0.18-2.06,1.37-3.99,1.39-6.17c0-0.5,0.58-0.97,0.65-1.49c0.11-0.94,0.03-1.89,0.03-3.25
	c0.32-0.26,1.33-0.68,1.34-1.13c0.06-2.27,1.76-3.8,2.44-5.78c0.2-0.57,0.25-1.99,1.63-1.75c0.51-1.24,1.56-2.34,0.87-3.65
	c0.91-0.66,1.91-1.03,2.31-1.74c0.94-1.67,2.28-3.03,3.25-4.63c0.8-1.31,1.12-2.97,2.11-4.07c0.92-1.03,1.95-2.12,2.77-3.15
	c1.07-1.35,2.34-3.1,1.69-5.27c0.52-0.11,0.84-0.17,1.18-0.24c0.63-3.44,3.04-7,5.95-8.75c0-1.27,0-2.54,0-3.9c-0.64,0-1.2,0-1.44,0
	c-0.76,0.69-1.37,1.24-2.03,1.84c0,0.55,0,1.27,0,2.07c-0.29,0.08-0.6,0.19-0.92,0.26c-0.86,0.18-1.72,0.35-2.93,0.59
	c0.05,0.03-0.22-0.17-0.51-0.31c-0.29-0.15-0.61-0.24-1.02-0.4c-0.3-0.55-0.66-1.23-1.14-2.11c0.88-1.15,2.03-2.27,2.69-3.64
	c0.74-1.52,2.26-2.19,3.16-3.53c0.82-1.2,2.13-2.05,3.59-3.4c0.92,0,2.43,0,4.01,0c0.09-0.43,0.15-0.76,0.27-1.33
	c0.44-0.04,0.99-0.09,1.6-0.14c0.96-0.85,0.65-2.81,2.46-3.06c0.1-1.54,1.38-2.27,2.26-3.27c0.89-1.01,2.04-1.81,2.18-3.31
	c2.21-0.67,2.99-2.54,3.75-4.47c0.54-0.06,1.1-0.12,1.21-0.13c1.26-1.1,2.22-1.94,3.2-2.81c0.69,0,1.4,0,2.2,0
	c0.14-0.39,0.28-0.81,0.45-1.32c0.65,0,1.33,0,2.19,0c0.78-0.92,1.83-1.4,3.07-1.77c0.97-0.29,1.54-1.76,2.89-1.11
	c0.16-0.61,0.24-0.93,0.36-1.38c0.99,0,2.03,0,3.06,0c0.45-1,0.86-1.9,1.33-2.93c2.15,0,4.37,0,6.66,0
	c0.09-0.43,0.16-0.75,0.27-1.29c0.77-0.08,1.66-0.17,2.52-0.25c0.17-0.46,0.32-0.87,0.5-1.38c1.29,0,2.56,0,3.79,0
	c0.12-0.45,0.2-0.77,0.34-1.33c0.27,0.16,0.49,0.29,0.72,0.43c1-0.21,2.04-0.42,3.25-0.67c0.28-0.28,0.7-0.7,1.24-1.24
	c0.91,0,1.94,0,2.92,0c0.19-0.54,0.34-0.95,0.53-1.47c1.77,0,3.51,0,5.22,0c0.12-0.45,0.2-0.77,0.32-1.22c2.17,0,4.39,0,6.52,0
	c0.52-0.54,0.92-0.97,1.48-1.56c4.11,0,8.36,0,12.6,0c0.35,0,0.77-0.08,1.02,0.09c2.59,1.72,5.5,1.32,8.34,1.33
	c4.74,0.02,9.48,0,14.43,0c0.3,0.48,0.68,1.09,0.89,1.42c2.83,0,5.2,0,7.66,0c0.13,0.39,0.27,0.8,0.45,1.34c1.93,0,3.92,0,5.77,0
	c0.54,0.54,0.96,0.96,1.51,1.51c1.62,0,3.36,0,4.98,0c0.54,0.54,0.96,0.96,1.51,1.51c1.15,0,2.42,0,3.65,0
	c0.12,0.45,0.2,0.77,0.32,1.22c1.22,0,2.5,0,3.82,0c0.18,0.51,0.32,0.93,0.5,1.46c1.93,0,3.92,0,5.77,0
	c0.54,0.54,0.96,0.96,1.51,1.51c1.38,0,2.89,0,4.46,0c0.09,0.43,0.16,0.76,0.28,1.36c2.62-0.67,4.49,2.53,7.2,1.33
	c0.57,0.57,0.99,0.99,1.42,1.42c3.07,0.62,6.15,1.25,9.82,2c0.02,0.02,0.45,0.58,0.79,1.01c1.88,0,3.54,0,5.19,0
	c0.42,0.42,0.84,0.84,1.36,1.36c0.7,0.03,1.49,0.07,2.24,0.1c0.47,0.47,0.89,0.89,1.34,1.34c0.67,0,1.37,0,2.23,0
	c0.13,0.38,0.27,0.78,0.35,1.03c1.07,0.5,2.06,0.97,3.79,1.79c0.42,0,1.7,0,2.98,0c0.19,0.52,0.34,0.93,0.51,1.41
	c0.66,0,1.35,0,2.3,0c0.21,0.41,0.48,0.95,0.75,1.49c1.21,0.5,2.69-0.61,3.46,0.7c0.69,1.17,1.89,0.6,2.88,0.76
	c0.42,0.42,0.84,0.84,1.33,1.33c1.09,0,2.26,0,3.67,0c0.33,0.48,0.72,1.07,0.95,1.41c0.94,0.07,1.5,0.12,2.02,0.16
	c0.12,0.44,0.2,0.76,0.32,1.22c0.98,0,2.02,0,2.96,0c0.52,0.54,0.93,0.97,1.36,1.41c1.48,0.53,3.11-0.25,4.67,0.76
	c1.13,0.74,3.17,0.23,4.11,1.07c1.25,1.11,3.17,0.87,4.06,2.49c1.13,0,2.3,0,3.57,0c1.84,1.98,4.36,1.42,6.71,1.52
	c0.1,0.47,0.18,0.79,0.28,1.26c0.75,0,1.54,0,2.2,0c0.65,0.62,1.16,1.1,1.67,1.59c1.42,0,2.84,0,4.23,0
	c0.44,0.44,0.86,0.86,1.41,1.41c0.67,0,1.46,0,2.32,0c0.09,0.43,0.16,0.76,0.26,1.25c0.71,0,1.49,0,1.53,0
	c1.94,1.02,3.2,1.69,4.47,2.35c1.17,0.61,2.35,1.21,3.89,1.99c0.34,0,1.14,0,1.95,0c-0.25-1.73-0.49-3.38-0.83-5.72
	c-0.49-1.16-2.11-2.63-1.9-4.86c0.04-0.47-0.44-0.98-0.67-1.48c-0.64-1.41-1.39-2.7-1.55-4.38c-0.12-1.31-1.53-2.44-1.33-4.05
	c0.03-0.27-0.32-0.57-0.43-0.87c-0.83-2.26-2.42-4.18-2.62-6.77c-0.09-1.2-1.19-2.33-1.91-3.62c0-1.01,0-2.19,0-3.13
	c-1.66-3.23-3.3-6.2-4.3-9.5c-0.77-2.54-2.11-4.9-2.13-7.66c0-0.5-0.31-1.25-0.7-1.44c-2.72-1.33-1.9-4.18-2.81-6.28
	c-0.31-0.7-0.34-1.55-0.75-2.17c-1.32-2.02-1.65-4.32-2.13-6.6c-0.37-1.72-0.97-3.39-1.47-5.08c-2.5-1.17-2.03-3.86-3.05-5.78
	c-0.5-0.95-0.26-1.8-0.43-2.65c-2.97-1.8-2.9-5.51-4.98-7.85c0.17-0.17,0.34-0.34,0.5-0.5c-0.64-2.52-1.31-5.04-1.92-7.57
	c-0.29-1.19-0.45-2.42-0.73-3.61c-0.28-1.18-1.95-1.77-1.47-3.3c-2.18-0.55-1.82-2.84-2.56-4.23c-0.79-1.49-1.82-3.16-2.06-4.79
	c-0.37-2.53-1.6-4.63-2.74-6.71c-0.64-1.16,0.11-2.46-1.04-3.55c-0.76-0.71-0.73-2.26-1.09-3.58c-2.13-0.7-1.71-3.46-3.07-4.66
	c-0.38-2.32-0.72-4.45-1.07-6.58c-0.05,0.02-0.1,0.04-0.15,0.06c-0.37-1.14-0.85-2.26-1.09-3.43c-0.37-1.85-1.55-3.38-1.74-5.36
	c-0.18-1.84-1.08-3.61-1.16-5.55c-0.05-1.21-0.36-2.43-0.69-3.61c-0.76-2.72-1.25-5.46-1.52-8.3c-0.15-1.56-0.25-3.39-1.34-4.74
	c-1.24-1.54-0.55-3.45-1.29-5.17c-0.94-2.21-1.25-4.76-1.48-7.19c-0.18-1.93-0.75-3.72-1.24-5.55c-0.06-0.21-0.25-0.42-0.23-0.61
	c0.52-4.69-1.07-9.26-0.7-13.93c0.04-0.52,0.41-1.01,0.7-1.68c-0.45-1.05-0.85-2.1-0.44-3.65c0.85-3.2,1.86-6.38,2.5-9.64
	c0.23-1.14,0.54-2.21,1.17-3.07c0.73-1,0.29-2.12,0.84-3.23c1.55-3.12,2.62-6.5,3.7-9.84c0.38-1.18,0.58-2.13,1.86-2.8
	c0.79-0.41,1.08-1.76,1.65-2.65c0.15-0.23,0.71-0.26,0.77-0.48c0.88-2.87,3.2-4.85,4.53-7.38c0.87-1.66,2.27-2.96,2.87-4.79
	c0.41-1.23,1.09-2.51,2.02-3.39c0.85-0.81,1.03-2.1,2.37-2.64c0.77-0.31,0.89-2.24,1.66-2.55c1.29-0.52,0.92-1.66,1.48-2.4
	c0.66-0.86,1.07-1.91,1.32-2.36c1.23-1.34,2.36-2.17,2.92-3.28c0.99-1.99,2.69-3.35,4.17-4.78c1.71-1.64,3.06-3.33,3.82-5.53
	c2.65-0.77,3.49-3.55,5.57-5.05c1.85-1.33,3.22-3.43,4.86-5.13c1.66-1.74,3.81-3.04,4.6-5.64c0.51-0.04,1.07-0.09,1.65-0.14
	c0.37-0.78,0.75-1.57,1.19-2.49c1.87-0.57,2.69-2.27,3.43-4.13c2.55-1.31,4-3.8,6.15-6.07c0.44-0.02,1.24-0.07,2.1-0.12
	c0.15-0.4,0.29-0.81,0.49-1.35c0.75,0,1.54,0,2.41,0c0.09-0.43,0.15-0.75,0.27-1.33c0.44-0.04,0.99-0.09,1.77-0.15
	c0.61-0.7,1.34-1.53,2.07-2.37c0.5-0.7,1.55-0.13,2.25-1.17c0.41-0.6,1.53-0.72,2.35-1.07c0-0.23,0-0.46,0-0.73
	c0.97-0.24,2.23-0.19,2.83-0.79c0.84-0.86,1.84-0.81,2.74-1.12c0.1-0.39,0.18-0.71,0.3-1.15c0.76,0,1.56,0,2.38,0
	c0.18-0.52,0.33-0.93,0.51-1.42c0.66,0,1.35,0,2.33,0c0.24-0.52,0.55-1.18,0.68-1.47c1.31,0,2.01,0,2.88,0
	c0.35-0.5,0.76-1.07,1.13-1.59c1.03,0,1.82,0,2.81,0c-0.34-0.41-0.54-0.66-0.94-1.13c1.48-0.09,2.8-0.17,4.23-0.26
	c0.07-0.3,0.14-0.63,0.26-1.17c0.76-0.08,1.65-0.18,2.5-0.27c0.45-0.45,0.87-0.87,1.42-1.42c0.91,0,1.95,0,2.94,0
	c0.12-0.45,0.2-0.77,0.32-1.21c1.23,0,2.5,0,3.81,0c0.18-0.51,0.32-0.93,0.51-1.47c1.93,0,3.92,0,5.77,0
	c0.54-0.54,0.96-0.96,1.4-1.4c2.63-0.44,5.59,0.76,7.9-1.5c3.31,0,6.62,0,9.98,0c0.39-0.41,0.79-0.85,1.28-1.37
	c5.24,0,10.54,0,15.72,0c0.54-0.54,0.96-0.96,1.43-1.43c1.36,0,2.77,0,4.37,0c0.32-0.51,0.7-1.12,0.92-1.47c2.09,0,3.75,0,5.5,0
	c0.13-0.39,0.27-0.8,0.45-1.33c1.7,0,3.44,0,4.56,0c2-1.11,3.46-1.91,5.28-2.92c0.73,0,1.9,0,3.19,0c0.33-0.42,0.7-0.88,1.18-1.48
	c0.32,0.23,0.54,0.39,0.77,0.56c0.56-0.17,1.15-0.5,1.74-0.5c3.56-0.05,7.11-0.07,10.67,0c1.58,0.03,3.01,0.91,4.69,0.75
	c1.55-0.14,3.11-0.14,4.73,0.54c1.31,0.55,3.04,0.11,4.6,0.11c0.49,0.47,1,0.95,1.52,1.44c1.89,0,3.78,0,5.65,0
	c0.44,0.44,0.86,0.86,1.4,1.4c5.17,0,10.48,0,15.73,0c0.2,0.54,0.35,0.95,0.5,1.35c2.7,0.4,5.66-0.77,7.96,1.5c2.84,0,5.69,0,8.62,0
	c0.13,0.39,0.28,0.8,0.46,1.34c0.99,0,2.02,0,2.92,0c1.44,1.4,2.9,2.33,4.65,2.99c1.47,0.55,2.23,2.18,3.52,3.16
	c1.36,1.04,3.51,1.44,3.81,3.78c0.78,0,1.57,0,2.31,0c0.97,2.01,2.68,3.2,4.31,4.22c1.62,1.02,2.66,2.42,3.96,3.68
	c2.88,2.8,5.32,6.13,9.09,8.21c0.18,1.95,2.52,2.82,3.02,4.87c0.16,0.65,1.31,0.56,1.53,1.83c0.23,1.32,0.49,2.64,0.56,4.04
	c2.27,1.68,3,4.37,4.25,6.73c0.47,0.89,1.31,1.9,2.14,2.39c-0.04,1.69-0.17,3.59,2.08,4.27c1.07,3.34,3.67,6.12,3.63,9.89
	c-0.01,0.42,0.16,0.9,0.41,1.24c1.62,2.18,1.46,5.07,2.95,7.33c0.39,0.59,0.1,1.6,0.18,2.4c0.16,1.44,0.37,2.87,0.56,4.35
	c1.11,0.06,1.9,0.11,2.71,0.15c0.42,0.9,0.83,1.79,1.31,2.81c1.21,0,2.48,0,3.79,0c0.09,0.44,0.16,0.76,0.26,1.24
	c0.73,0,1.52,0,2.32,0c0.44,0.53,0.82,0.99,1.23,1.48c1.07,0,2.11,0,3.02,0c0.54,0.54,0.96,0.96,1.51,1.51c0.67,0,1.46,0,2.13,0
	c0.54,0.54,0.96,0.96,1.41,1.41c1.15,0,2.33,0,3.22,0c2.65,1.55,5.01,3.06,8.26,2.86c0.3,0.43,0.71,1.01,0.99,1.42
	c1.26,0,2.2,0,3.27,0c0.13,0.39,0.26,0.79,0.44,1.32c0.75,0,1.55,0,2.37,0c0.15,0.41,0.27,0.72,0.41,1.1
	c2.35,1.15,4.78,2.35,7.21,3.55c0.05-0.1,0.1-0.19,0.15-0.29c0.9,0.94,1.8,1.88,2.66,2.78c0.65,0.07,1.21,0.13,1.46,0.16
	c1.8,1.98,3.22,3.97,5.9,4.33c1.34,2.54,4.01,3.13,6.3,4.26c1.58,1.38,3.15,2.77,4.73,4.15c1.42,1.25,2.56,2.95,4.97,3
	c-0.24,0.33-0.41,0.55-0.73,0.99c0.62,0.12,1.17,0.23,1.89,0.38c0.1,0.28,0.24,0.69,0.37,1.1c2.69,0.78,4.89,2.28,6.75,4.49
	c0.34,0,0.81,0,1.28,0c0.5,2.12,2.47,2.99,3.88,4.19c2.02,1.73,4.02,3.4,5.38,5.75c0.44,0,0.91,0,1.35,0
	c1.55,1.92,2.98,3.91,4.68,5.63c0.41,0.41,0.57,0.78,0.83,1.22c1.29,2.24,3.02,4.12,4.8,5.98c1.66,1.73,3.77,3.07,4.63,5.53
	c0.23,0.67,0.38,1.87,1.66,1.74c1.14,2.23,3.57,3.49,4.48,5.91c2.67,0.95,2.67,3.87,4.14,5.73c1.39,1.75,1.96,4.14,2.97,6.2
	c1.06,2.17,2.06,4.36,3.03,6.57c1.77,4.04,2.53,8.22,3.44,12.46c1.1,5.13,0.29,10.26,0.65,15.37c0.15,2.16,0.55,4.3,0.66,6.47
	c0.07,1.46,0.2,2.91-0.61,4.37c-0.63,1.13,0.53,2.75-0.7,3.99c-0.3,0.31-0.08,1.13-0.08,1.72c-0.01,0.59,0.22,1.33-0.04,1.75
	c-0.74,1.16-1.46,2.24-1.39,3.71c0.07,1.41,0.01,2.83,0.01,4.19c-1.08,1.07-1.33,2.32-1.49,3.75c-0.2,1.73-0.49,3.52-1.35,5.11
	c-0.26,0.48-0.59,0.96-0.69,1.49c-0.3,1.43-0.53,2.88-0.72,4.33c-0.4,2.99-1.35,5.83-2.16,8.71c-0.09,0.3-0.43,0.54-0.6,0.75
	c-0.34,4.54-1.27,8.9-2.51,13.24c-1.03,3.62-2.48,7.14-2.65,11.04c-0.1,2.26-1.11,4.49-1.69,6.73c-0.84,3.21-1.67,6.42-2.48,9.64
	c-0.3,1.19-0.35,2.47-0.82,3.57c-1.16,2.7-1.75,5.48-2.12,8.4c-0.28,2.24-1.37,4.38-2.06,6.44c-0.77,0.46-1.43,0.87-2.18,1.32
	c0.45,2.6-0.77,4.6-2.09,6.6c-0.6,0.9-1.16,1.93-1.36,2.98c-0.45,2.41-0.99,4.7-2.06,6.99c-0.88,1.87-0.72,4.22-1.06,6.64
	c-0.36,0.02-0.91,0.04-1.53,0.07c-0.53,1.03-1.08,2.09-1.76,3.42c0,0.87,0,2.04,0,3.38c-0.38,0.13-0.77,0.27-1.18,0.41
	c-0.28,1.97-2.21,6.2-3.46,8.49c-0.77,1.42-1.94,2.75-1.83,4.59c0.03,0.48-0.38,1.03-0.68,1.47c-1.62,2.38-1.9,5.48-4.06,7.58
	c-0.2,0.19-0.09,0.66-0.21,0.97c-0.57,1.43-0.89,2.9-1.99,4.19c-0.85,1-0.99,2.65-1.32,4.03c-0.32,1.34-1.87,1.65-2.25,2.92
	c-0.32,1.06,0.25,2.32-0.82,3.22c-0.77,0.65-0.27,2.11-1.86,2.48c-0.69,0.16-1.03,1.82-1.55,2.79c-0.26,0.49-0.67,0.91-0.86,1.42
	c-0.93,2.49-2.07,3.83-4.09,5.73c-2.05,1.93-3.66,4.27-4.81,6.88c-0.24,0-0.47,0-0.96,0c-0.04,0.77,0.03,1.58-0.15,2.33
	c-0.15,0.62-0.59,1.17-0.92,1.78c-2.2,0.54-4.08,1.62-5.46,3.56c-0.79,1.1-1.69,2.13-2.62,3.11c-0.36,0.38-0.94,0.55-1.47,0.84
	c-0.31,0.74-0.65,1.55-1.04,2.48c-1.94-0.57-2.77,2.49-4.8,1.49c-1.06,1.11-2.03,2.12-2.79,2.91c-1.39,0-2.34,0-3.36,0
	c-0.14,0.4-0.28,0.81-0.42,1.2c-1.2,0.26-2.38,0.52-3.73,0.82c-0.29-0.17-0.75-0.46-1.41-0.86c-0.22,0.57-0.37,0.95-0.52,1.34
	c-0.74,0.33-1.75,0.49-2.3,1.08c-0.81,0.86-1.74,0.48-2.57,0.74c-0.82,0.25-1.57,0.83-2.25,1.39c-0.6,0.49-1.06,1.16-2,2.22
	c0,0.72,0.07,2.12-0.01,3.52c-0.2,3.46,0,7.03-0.82,10.34c-0.87,3.52-0.44,6.95-0.51,10.41c-0.04,1.61,0.66,3.25,1.08,4.86
	c0.27,1.02,0.31,1.01-0.38,2.33c0.23,1.18,0.57,2.27,0.64,3.37c0.29,4.76,0.14,9.58,0.86,14.27c0.45,2.9,1.02,5.85,0.46,8.59
	c-1.13,5.62-0.93,11.28-0.4,16.78c0.54,5.63,0.17,11.21,0.53,16.79c0.15,2.33,0,4.69-0.83,6.78c-0.64,1.61-0.42,3.15-0.71,5
	c-1.39,2.2-3.33,4.48-4.36,7.12c-0.87,2.24-2.17,4.34-2.64,6.73c-0.09,0.46-0.01,0.95-0.01,1.52c-0.38,0.13-0.79,0.27-0.94,0.32
	c-0.62,1.23-1.15,2.28-1.69,3.37c0.07,0.07,0.24,0.24,0.47,0.47c-0.7,0.73-1.41,1.47-2.11,2.2c0.41,2.31-1.28,3.99-1.85,6.01
	c-0.57,1.98-1.54,3.86-2.43,5.74c-0.89,1.89-2.15,3.64-2.76,5.61c-0.62,2.01-2.32,3.59-2.21,5.85c-1.24,1.09-1.92,2.7-2.02,4.1
	c-0.15,2.1-1.05,3.91-1.67,5.76c-0.56,1.65-1.17,3.3-1.69,4.98c-0.03,0.1-0.24,0.18-0.23,0.25c0.41,2.88-1.14,5.17-2.16,7.65
	c-0.59,1.43-0.69,3.05-1.11,5.03c-1.58,2.64-3.38,5.68-2.26,9.47c-0.55,0.18-0.86,0.29-1.47,0.49c0.48,2.62-2.17,4.23-2.56,6.8
	c-0.14,0.94-0.92,1.77-1.14,2.71c-0.2,0.9-0.04,1.88-0.04,2.67c-0.91,1.04-1.72,1.98-2.8,3.22c-0.76,0-2.03,0-3.38,0
	c-0.13-0.36-0.28-0.77-0.45-1.25c-0.53,0-1.09,0-1.45,0c-1.33,2.31-2.59,4.51-3.99,6.95c0.66,1.94-0.48,3.91-1.62,5.44
	c-1.44,1.94-1.61,4.4-3.17,6.19c0.13,2.49-1.66,4.3-2.35,6.5C771.83,707.63,771.5,707.86,771.25,708.16z M577.75,525.56
	c1.39,0,2.78,0,4.15,0c0.08-0.86,0.22-1.35,1.21-1.41c0.53-0.03,0.21-1.68,1.5-1.32c1.17,0.32,0.74-0.89,1.19-1.27
	c0.52-0.44,1.1-0.8,2.19-1.58c-0.1,0.02,0.54-0.08,1.01-0.15c0.16-0.59,0.25-0.91,0.34-1.26c1.34,0.01,2.5,0.04,3.54-1.11
	c0.5-0.56,1.09-1.34,1.69-1.66c2.6-1.41,4.46-3.55,6.43-5.76c0.34,0,0.81,0,1.29,0c0.25-0.47,0.41-1.26,0.78-1.37
	c1.72-0.51,2.73-1.92,3.59-3.17c0.81-1.17,2.84-1.8,2.22-3.91c-1.04,0-2.07,0-3.13,0c-0.4,0.87-0.82,1.76-1.24,2.67
	c-0.55,0.06-1.11,0.13-1.36,0.15c-1.4,1.49-2.62,2.79-3.95,4.2c-0.26,0-0.73,0-1.17,0c-1.02,1.69-2.44,2.74-4.21,2.95
	c-1.06,1.45-2.04,2.79-3.07,4.18c-0.62,0-1.32,0-2.17,0c-0.63,0.85-1.31,1.75-2.07,2.77c-0.35,0.04-0.91,0.11-1.14,0.13
	c-1.41,1.49-2.63,2.79-4.08,4.33c-0.47,0-1.26,0-1.73,0c-0.74,1.05-1.31,1.86-1.82,2.7c-0.62,0.07-1.4-0.29-1.49,0.9
	c-0.03,0.38-0.91,0.7-1.56,1.16c0.32,0.36,0.57,0.65,1.03,1.17C576.52,527.68,578.01,527.32,577.75,525.56z M689.8,465.91
	c-0.96,1.98-4.39,1.07-4.65,3.8c1.18,0.59,2.26,1.14,3.81,1.92c1.32,0,3.21,0,5.36,0c0.32,0.42,0.74,0.98,1.12,1.47
	c1.11,0,2.05,0,3.37,0c0.23,0.4,0.59,1.01,0.84,1.43c2.94-0.25,5.73,0.67,7.81-1.34c4.73,0,9.32,0,13.86,0
	c0.66,2.44,1.83,4.2,4.24,4.36c0.2,0.58,0.31,0.89,0.42,1.19c3.51,0,6.95-0.01,10.38,0.01c0.68,0,1.39,0.05,2.03,0.24
	c4.63,1.38,9.23,2.86,14.01,2.61c0.56,0.56,0.98,0.98,1.29,1.29c8.5,0,16.88,0,25.44,0c0.32-0.44,0.66-0.93,0.93-1.3
	c8.48,0,16.78,0.01,25.07,0c2.5,0,3.85-0.37,5.57-1.41c0.25,0.23,0.5,0.45,0.54,0.49c3.3-0.77,6.44-1.5,9.56-2.23
	c0.71-0.48,1.45-0.98,2.2-1.48c0.27-0.52,0.78-1.09,0.83-1.69c0.12-1.53,0.1-3.08,0.03-4.62c-0.08-1.62,0.8-3.02,0.81-4.69
	c0.01-3.69-0.33-7.37,0.49-11.12c0.65-2.97,0.35-6.18,0.74-9.29c0.44-3.5,0.14-7.1,0.07-10.66c-0.02-0.86-0.4-1.71-0.49-2.07
	c0.22-1.3,0.49-2.17,0.5-3.03c0.05-3.44,0.01-6.88,0.03-10.31c0-0.57-0.07-1.54,0.18-1.65c1.32-0.57-0.55-1.11,0.18-1.68
	c0.09-0.15,0.25-0.44,0.4-0.7c-1.15-1.38-1.05-3.03-0.7-4.38c0.87-3.33,1.46-6.66,1.34-10.1c-0.05-1.45,0.36-2.68,1.32-3.58
	c0.45-1.53-0.5-3.08,0.75-4.49c0.41-0.46,0.38-1.79,0.01-2.4c-1.09-1.77-0.6-3.63-0.61-5.43c-0.01-1.33-0.22-2.65,0.42-4.08
	c0.45-1.02-0.36-2.55-0.43-3.87c-0.04-0.69,0.6-1.5,0.41-2.09c-1.03-3.12-1.11-6.59-3.25-9.1c0.25-1.04,0.68-1.91,0.64-2.75
	c-0.18-3.58,0.05-7.13-0.51-10.76c-0.69-4.4-0.16-8.98-0.16-13.49c0-0.23-0.07-0.51,0.03-0.7c1.57-3.13,0.24-6.47,0.68-9.68
	c-1.32-3.85-1.51-7.83-1.43-11.86c0.06-3.2,0.02-6.4-0.01-9.6c0-0.17-0.26-0.34-0.44-0.55c-0.29,0.08-0.61,0.17-0.96,0.26
	c0.25,0.38,0.44,0.69,0.65,1.02c-0.59,0.21-1,0.35-1.4,0.49c0,0.32,0.08,0.6-0.01,0.78c-0.92,1.87-1.76,3.8-2.84,5.58
	c-1.08,1.8-2.69,3.26-3.53,5.24c-0.45,1.07-0.7,2.3-2.09,2.63c0.33,1.45-1.51,1.17-1.82,2.4c-0.42,1.66-1.59,3.12-2.41,4.68
	c-0.76,1.45-2.29,2.36-2.5,3.96c-0.75,0.04-1.2,0.07-1.32,0.07c-1.37,2.22-2.6,4.2-4.1,6.64c0-0.14,0,0.33,0,0.94
	c-0.6,0.38-1.25,0.8-2.01,1.29c-0.34,0.74-0.74,1.63-1.14,2.49c-0.57,0-1.04,0-1.31,0c-1.15,1.38-2.6,2.4-2.81,4.15
	c-0.68,0.08-1.24,0.15-1.65,0.2c-1.58,2.63-4.76,3.81-5.51,6.92c-0.59,0.06-1.15,0.13-1.71,0.19c-0.71,1.4-1.4,2.77-1.85,3.66
	c-1.65,1.3-3.17,2.15-4.2,3.41c-1.09,1.34-2.85,2.25-2.91,4.23c-0.65,0-1.12,0-1.59,0c-1.02,1.95-2.96,2.91-4.42,4.35
	c-0.79,0-1.47,0-2.12,0c-0.18,0.51-0.32,0.92-0.5,1.43c-0.59,0-1.15,0-1.67,0c-0.18,0.53-0.32,0.94-0.45,1.33c-0.82,0-1.52,0-2.51,0
	c-0.3,0.41-0.72,0.98-1.04,1.41c-0.71,0-1.32-0.19-1.63,0.03c-1.44,1.07-3.39,1.2-4.63,2.59c-0.08,0.08-0.17,0.15-0.43,0.36
	c-0.87,0-1.9,0-2.88,0c-0.11,0.46-0.18,0.79-0.26,1.13c-0.67,0.11-1.32,0.22-1.88,0.32c-0.1,0.49-0.17,0.81-0.24,1.18
	c-2.36,0.22-4.7-0.12-6.86,0.2c-0.13,0.58-0.2,0.9-0.29,1.3c-6.71,0-13.33-0.02-19.96,0.01c-1.44,0.01-2.69-0.34-3.79-1.55
	c-1.64,0-3.39,0-5.09,0c-0.12-0.45-0.2-0.77-0.35-1.34c-0.81,0-1.69,0-2.52,0c-0.12-0.58-0.19-0.9-0.28-1.34c-1.06,0-2.09,0-3.07,0
	c-1.54-1.43-2.98-2.77-4.65-4.31c-0.07,0-0.54,0-1.09,0c-0.37-2.32-2.9-3.34-3.41-5.61c-1.78-0.33-1.71-1.75-1.88-3.08
	c-0.07-0.53-0.41-1.01-0.59-1.53c-1.52-4.45-2.77-10.92-2.95-15.14c-0.02-0.46,0.1-1-0.1-1.38c-2.02-3.89-1.48-8.24-1.88-12.33
	c-0.6-6.23-0.3-12.56-0.12-18.83c0.18-6.3-0.81-12.66,0.67-18.91c-0.37-6.33,0.48-12.61,0.71-18.91c0.04-1.02,0.38-1.98,0.59-2.93
	c0.48-2.2,1.2-4.44,0.87-6.8c-0.14-1.02-0.2-2.19,0.15-3.12c0.9-2.4,1.17-4.95,1.83-7.4c0.77-2.84,0.61-5.93,0.83-8.92
	c0.06-0.83-0.3-1.86,0.07-2.45c0.97-1.54,0.73-3.17,0.59-4.72c-0.16-1.69,0.72-3.11,0.75-4.69c0.06-2.94,0.02-5.89,0.02-8.7
	c-0.39-0.39-0.64-0.64-1.02-1.02c-1.85,0-3.84,0-5.66,0c-1.52-1.99-1.48-3.84-0.18-5.55c1.08-0.52,2.05-1,3.06-1.49
	c0.17,0.15,0.43,0.38,0.53,0.46c1.68-0.32,3.19-0.6,4.72-0.89c-0.27-0.31-0.48-0.55-0.42-0.48c0.16-1.05,0.46-1.83,0.37-2.56
	c-0.46-3.87,0.55-7.63,0.87-11.43c0.11-1.27,0.48-2.63,0.61-3.98c0.13-1.33,0.68-2.66,0.64-3.97c-0.11-3.5,1.28-6.86,0.79-10.38
	c-0.05-0.37,0.44-0.78,0.48-1.2c0.33-2.97,1.97-5.9,0.23-8.96c-0.26-0.45-0.28-1.37,0.01-1.72c1.24-1.48,0.43-3.16,0.66-4.72
	c0.2-1.32,0.37-2.65,0.57-4.1c-0.16-0.2-0.42-0.56-0.4-0.52c0.47-2.62,1.31-4.85,1.16-7c-0.32-4.45,1.28-8.86,0.11-13.29
	c-0.15-0.55-0.26-1.37,0.02-1.74c1.05-1.33,0.86-2.99,1.28-4.45c0.44-1.53,0.09-3.29,0.1-4.95c0-0.71-0.18-1.5,0.08-2.1
	c1.04-2.45,0.84-5.1,1.28-7.63c0.34-1.99-0.12-4.02,1.36-5.89c0.74-0.93,0.77-2.57,0.78-3.89c0-1.15,0.62-1.98,1.13-2.74
	c1.13-1.71,2.57-3.23,3.94-4.89c0-0.37,0-0.84,0-1.28c0.95-0.95,1.87-1.87,2.87-2.87c-0.44-1.39,0.1-3.15,1.01-3.61
	c1-0.5,0.99-1.37,1.61-1.91c0.65-0.58,0.93-1.64,1.63-2.12c1.15-0.8,1.94-2.08,3.54-2.35c1.16-0.19,2.14-0.58,3.19,0.37
	c0.33,0.3,1.14,0.05,1.72,0.09c0.21,0.01,0.41,0.14,0.62,0.21c0.08,0.32,0.17,0.64,0.18,0.71c1.23,0.63,2.31,1.18,3.85,1.97
	c0.62,0,1.79,0,2.78,0c0.68,0.53,1.18,1.23,1.78,1.32c1.79,0.28,3.13,1.52,4.96,1.86c2.32,0.43,4.1,2.72,6.78,2.47
	c0.09-0.01,0.18,0.12,0.28,0.18c0.14,0.41,0.29,0.83,0.42,1.22c0.55,0,1.02,0,1.03,0c1.9,1.27,3.48,2.33,5.09,3.4
	c0.06,0.21,0.15,0.53,0.27,0.95c1.56,0,3.07,0,3.98,0c1.98,1.06,3.43,1.84,5.28,2.83c0.25,0,0.95,0,1.73,0
	c0.08,0.37,0.14,0.69,0.24,1.17c0.95,0.27,2,0.44,2.9,1.31c1.78,1.73,4.4,1.92,6.56,3.03c1.11,0.57,2.5,1.15,3.65,1.36
	c1.28,0.23,0.87,2.56,2.52,1.6c1.02,0.69,2.3,1.18,2.99,2.11c0.75,1,1.76,0.45,2.49,0.92c0.15,0.44,0.29,0.85,0.42,1.24
	c0.57,0,1.04,0,1.6,0c0.14,0.39,0.28,0.81,0.51,1.47c0.79,0,1.67,0,2.47,0c0.12,0.58,0.19,0.9,0.29,1.39
	c0.6-0.04,1.15-0.07,1.71-0.13c0.09-0.01,0.17-0.16,0.26-0.25c-0.3-1.74-1.43-3.24-1.45-5.09c-0.02-1.97-0.88-3.66-2.11-5.16
	c0.82-2.14-2.24-2.94-1.48-4.91c-0.57-0.12-0.89-0.19-1.29-0.28c-0.04-0.83-0.08-1.62-0.13-2.51c-0.33-0.08-0.65-0.15-1.24-0.29
	c-0.25-0.88-0.51-1.94-0.84-2.98c-0.27-0.83-0.4-2.11-0.96-2.37c-1.32-0.6-1.44-1.7-1.96-2.76c-1.75-3.55-3.75-6.98-5.44-10.56
	c-0.53-1.11-1.21-1.89-2.13-2.56c-0.92-0.67-3.51-3.28-4.14-4.26c-0.48-0.02-0.95-0.03-1.41-0.08c-0.09-0.01-0.17-0.16-0.22-0.21
	c-0.42-2.13-2.09-3.2-3.57-4.43c0.17-0.17,0.34-0.34,0.5-0.5c-0.59-0.62-1.18-1.24-1.85-1.95c-0.33,0-0.8,0-1.07,0
	c-0.82-0.95-1.54-1.79-2.38-2.75c-0.35-0.04-0.91-0.1-1.45-0.16c-0.17-0.45-0.32-0.86-0.46-1.25c-0.62-0.06-1.19-0.11-1.7-0.16
	c-0.18-0.51-0.32-0.92-0.5-1.44c-0.59,0-1.15,0-1.68,0c-0.12-0.45-0.2-0.77-0.32-1.24c-1.96,0.12-3.01-1.1-3.64-2.82
	c-0.64-0.1-1.28-0.19-1.75-0.26c-0.17-0.59-0.26-0.91-0.34-1.2c-0.89-0.05-1.69-0.09-2.44-0.13c-0.19-0.54-0.33-0.95-0.51-1.46
	c-1.79,0-3.53,0-5.24,0c-0.12-0.45-0.2-0.77-0.32-1.21c-0.99,0-2.03,0-3.48,0c-0.26-0.44-0.62-1.06-0.93-1.58c-3.05,0-5.88,0-8.65,0
	c-0.48-0.48-0.9-0.9-1.44-1.44c-3.52,0-7.16,0-10.75,0c-0.19-0.54-0.33-0.95-0.5-1.47c-4.16,0-8.27,0-12.35,0
	c-0.12-0.45-0.2-0.77-0.35-1.34c-0.81,0-1.69,0-2.71,0c-0.37-0.56-0.69-1.05-0.91-1.39c-4.89,0-9.51-0.01-14.13,0.01
	c-0.81,0-1.71-0.13-2.42,0.15c-2.47,1-5,1.4-7.66,1.28c-1.89-0.08-3.79-0.02-5.71-0.02c-0.49,0.47-1,0.95-1.52,1.44
	c-0.94,0-1.89,0-2.8,0c-0.99,0.87-1.96,1.71-3.28,2.87c-1.92,0-4.38,0-6.73,0c-0.52,0.54-0.94,0.96-1.34,1.38c-1.2,0-2.39,0-3.82,0
	c-0.32,0.42-0.75,0.98-1.13,1.47c-3.95,0-7.73,0-11.51,0c-0.18,0.45-0.34,0.85-0.53,1.34c-4.63,0.19-9.31-0.18-13.83,0.18
	c-0.15,0.59-0.24,0.91-0.35,1.33c-2.28,0-4.5,0-6.67,0c-0.19,0.54-0.33,0.95-0.51,1.47c-2.49,0-4.95,0-7.36,0
	c-0.18,0.54-0.32,0.95-0.49,1.46c-1.33,0-2.6,0-3.82,0c-0.12,0.45-0.2,0.77-0.32,1.22c-1.47,0-2.98,0-4.36,0
	c-0.54,0.54-0.96,0.96-1.39,1.39c-0.63,0.1-1.27,0.2-1.76,0.27c-0.16,0.58-0.24,0.9-0.32,1.19c-0.89,0.05-1.69,0.1-2.44,0.14
	c-0.18,0.53-0.33,0.94-0.51,1.45c-1.07,0-2.11,0-3.1,0c-0.12,0.45-0.2,0.77-0.35,1.34c-0.81,0-1.69,0-2.49,0
	c-0.18,0.65-0.29,1.05-0.4,1.43c-0.91,0-1.61,0-2.9,0c-0.14,0.29-0.46,0.94-0.63,1.3c-1.36,0.1-2.37,0.18-3.21,0.25
	c-0.17,0.6-0.26,0.92-0.38,1.34c-1.09,0-2.12,0-2.62,0c-0.89,0.83-1.44,1.34-1.96,1.83c0.17,0.23,0.34,0.45,0.64,0.85
	c-1.14,0.08-2.02,0.15-2.81,0.2c-0.11,0.55-0.18,0.88-0.27,1.31c-0.86,0-1.65,0-2.4,0c-0.21,0.53-0.37,0.94-0.54,1.38
	c-0.81,0.04-1.6,0.08-2.34,0.11c-0.45,1-0.86,1.9-1.26,2.78c-0.53,0-1.01,0-1.52,0c-0.22,0.48-0.45,0.96-0.62,1.32
	c-0.68,0.15-1.2,0.27-1.8,0.4c0.33,0.46,0.48,0.67,0.72,1.01c-0.83,0.09-1.39,0.15-1.73,0.19c-0.84,0.98-1.56,1.81-2.37,2.75
	c-0.38,0.02-0.94,0.06-1.45,0.09c-0.12,0.48-0.11,0.97-0.31,1.09c-0.65,0.37-1.33,0.53-1.51,1.49c-0.08,0.45-1.37,0.02-1.26,1.21
	c0.07,0.73-1.66,0.1-1.44,1.49c0.09,0.56-1.74,0.14-1.38,1.46c-1.82,0.97-3.04,2.44-3.69,4.39c-0.03,0.09-0.17,0.14-0.3,0.23
	c-0.43,0-0.9,0-1.39,0c-0.42,0.91-0.82,1.81-1.25,2.73c-0.54,0.06-1.11,0.12-1.1,0.12c-1.45,1.33-3.06,2.15-3.5,3.38
	c-0.58,1.64-2.22,2.24-2.75,3.79c-0.49,1.42-1.68,2.52-2.76,3.36c-1.35,1.05-2.24,2.42-3.37,3.6c-1.04,1.09-1.71,2.54-3.36,3.2
	c0.18,1.44,0.07,3.04-1.18,3.93c-1.98,1.41-3.13,3.26-3.89,5.47c-0.21,0.61-0.66,1.13-1.01,1.7c-0.46,0-0.93,0-1.56,0
	c-0.36,1.25-0.72,2.52-1.23,4.28c-2.65,1.96-4.92,4.88-6.39,8.46c-0.63,1.54-1.34,3.09-2.71,4.23c-0.48,0.4-0.83,1.08-1,1.7
	c-0.63,2.23-1.16,4.5-1.53,5.99c-1.07,1.13-2.1,1.74-2.11,2.36c-0.02,0.86-1.2,1.68-0.19,2.58c-1.54,1.42-2.69,2.91-2.87,5.24
	c-0.14,1.9-1.18,3.73-2.03,6.23c0,0.48,0.09,1.67-0.03,2.84c-0.11,1.1-0.62,2.17-0.65,3.27c-0.1,2.96-0.02,5.93-0.04,8.89
	c0,0.72-0.03,1.42,0.69,1.85c-0.77,0.56-1.06,1.65-0.61,2.12c0.94,0.96,0.65,1.99,0.6,2.97c-0.13,2.56,0.8,4.97,0.9,7.53
	c0.07,1.72,0.7,3.69,1.49,5.37c1.16,2.46,1.9,4.42,1.91,6.33c0.01,2.36,0,4.72,0,6.53c2.21,4.53,2.38,8.93,3.01,13.45
	c0.07,0.08,0.39,0.3,0.53,0.6c1.86,3.93,2.44,8.24,3.55,12.4c0.75,2.81,1,5.81,3.58,7.47c0,0.78-0.17,1.35,0.03,1.71
	c1.67,2.99,2,6.52,3.93,9.41c0.72,1.08,1.37,2.3,1.7,3.55c0.92,3.52,1.64,4.96,4.04,7.89c0.53,0.64,0.79,1.59,0.94,2.43
	c0.16,0.91,0.04,1.87,0.04,2.71c1.16,1.99,2.1,4.47,2.13,5.64c0.03,1.48-0.26,3.06,0.74,4.31c1.06,1.31,0.63,3.01,1.44,4.4
	c1.04,1.8,1.86,3.73,2.81,5.59c1,1.95,0.98,4.4,2.84,5.94c-0.21,1.49,1.19,2.4,1.37,3.69c0.14,1.02,0.27,1.97,0.73,2.91
	c0.39,0.81,0.47,1.78,0.75,2.65c0.55,1.67,1.15,3.32,1.75,5.03c0.32,0.1,0.72,0.23,0.98,0.31c0.27,2.2,0.63,4.18,1.54,5.99
	c1.27,2.5,1.93,5.17,2.27,7.87c0.51,0.15,0.92,0.27,0.97,0.29c0.41,1.41,0.66,2.49,1.03,3.53c0.41,1.13,1.04,2.19,1.39,3.33
	c1.26,4.11,2.88,8.06,4.99,12.08c0,0.91,0,2.09,0,3.27c0.49,0.52,0.98,1.02,1.47,1.54c0,0.96,0,1.9,0,2.21
	c0.7,2.24,1.89,3.56,2.19,5.44c0.25,1.56,1.39,2.96,2.02,4.47c0.68,1.61,1.23,3.28,2.04,5.47c-0.02-0.02,0.4,0.4,0.82,0.82
	c0,1.18,0,2.37,0,3.48c1.72,1.94,2.93,4.04,2.98,6.27c0.7,0.7,1.18,1.2,1.95,1.97c0.58,0,1.62,0,2.13,0c1.32,1.16,2.29,2,3.4,2.97
	c0.88,0,1.92,0,3.03,0c0.38,0.48,0.74,0.94,1.06,1.35c0.84,0,1.54,0,2.21,0c0.46,0.46,0.87,0.87,1.31,1.3
	c0.55,0.06,1.11,0.13,1.72,0.2c0.07,0.35,0.14,0.67,0.29,1.34c1.45-0.64,2.06,0.84,3.15,1.29c0.99,0.41,2.15,0.1,3.15,1.07
	c0.8,0.79,2.14,1.03,3.24,1.52c-0.04,0.14-0.08,0.28-0.12,0.43c0.8,0,1.59,0,2.18,0c0.83,1.04,1.51,1.9,2.32,2.91
	c0.67,0,1.46,0,1.9,0c2.47,2.91,6.29,3.76,7.78,6.79c1.49,0,2.76,0,3.63,0c0.92-3.82,1.65-7.43,2.68-10.96
	c0.6-2.06,1.31-4.05,1.27-6.23c-0.05-2.96-0.08-5.93,0.01-8.89c0.09-3.02-1.02-5.89-0.79-8.96c0.26-3.54,0.06-7.11,0.06-10.61
	c0.85-0.88,1.68-1.72,2.47-2.54c0.76,0,1.47,0,2.12,0c1.83,1.51,2.76,3.32,2.56,5.75c-0.17,2-0.01,4.03-0.05,6.04
	c-0.01,0.57-0.49,1.24-0.31,1.68c0.87,2.16-0.37,4.63,1.02,6.69c0.11,0.16,0.12,0.57,0,0.69c-1.3,1.29-0.65,2.9-0.66,4.35
	c-0.07,7.71-0.01,15.41-0.06,23.12c-0.01,1.33-0.34,2.65-0.55,4.13c0.5,0.09,1.15,0.21,1.79,0.32c0.15,0.43,0.3,0.84,0.44,1.23
	c0.87,0.04,1.67,0.08,2.41,0.12c0.19,0.55,0.33,0.96,0.42,1.24c1.16,0,2.2,0,3.3,0c-0.51-0.89,1.47-1.52,0.06-2.34
	c0.96-0.65,0.48-1.69,0.74-2.53c0.25-0.82,0.97-1.48,1.35-2.28c0.38-0.79,0.39-1.84,0.93-2.43c0.8-0.87,0.25-1.82,0.55-2.64
	c0.3-0.81,0.87-1.52,1.32-2.26c-0.18-0.23-0.6-0.57-0.54-0.74c0.79-2.28,1.79-4.49,2.44-6.81c0.7-2.45,2.5-4.65,1.73-7.13
	c2.2-3.89,3.52-7.74,3.65-11.86c0.52-0.11,0.84-0.19,1-0.22c0.48-1.59,0.92-3.06,1.36-4.53c0.14,0.03,0.29,0.06,0.43,0.09
	c0-1.03,0-2.07,0-3.12c0.44-0.09,0.76-0.16,0.94-0.2c0.58-1.28,1.15-2.46,1.66-3.68c1.31-3.15,3.47-6.01,3.07-9.66
	c0.57-0.47,1.02-0.85,1.31-1.09c0.34-1.31-0.17-2.39,0.56-3.59c0.71-1.17,0.93-2.8,0.89-4.21c-0.06-1.83,0.64-3.32,1.52-4.73
	c0.83-1.32,1.35-2.77,2.09-4.12c0.15-0.28,0.19-0.62,0.27-0.91c1.05,0,2,0,2.94,0c0.34,0.34,0.67,0.67,1.08,1.08
	c-0.14,2.33,0.34,4.75-0.69,7.09c-0.44,1-0.6,2.15-0.73,3.25c-0.32,2.67-1.19,5.2-2.21,7.62c-1.08,2.58-1.84,5.2-2.24,7.75
	c-2.74,1.36-1.54,5.04-3.68,5.98c-0.7,2.19-1.26,3.97-1.84,5.75c-0.58,1.77-1.18,3.54-1.83,5.47c-0.18,0.06-0.59,0.21-1.02,0.36
	c0,0.77,0.29,1.7-0.05,2.14c-1.14,1.48-0.73,3.41-1.8,4.99c-0.78,1.15-0.86,2.87-1.49,4.33c-0.59,1.36-0.54,3-1.56,4.35
	c-0.31,0.41,0.19,1.43,0.29,2.02c-0.5,1.56-0.99,3.12-1.46,4.6c-0.35,0.1-0.67,0.18-0.93,0.25c-0.1,1.38,0.2,2.87-0.37,3.87
	c-1.31,2.3-1.47,4.86-2.1,7.24c-0.41,0.09-0.73,0.15-1.11,0.23c-0.27,1.96-0.52,3.86-0.79,5.76c-0.17,1.18,0,5.1,0.44,5.18
	c0.47,0.51,0.94,1.01,1.55,1.68c0.28,0.03,0.84,0.09,1.41,0.15c0.26,2.11,2.13,2.69,3.51,3.47c1.61,0.91,2.03,2.93,3.36,3.45
	c0.89,0.1,1.33,0.15,1.7,0.19c0.16,0.57,0.27,0.97,0.36,1.29c1.87,0,3.52,0,5.23,0c0.15-0.42,0.3-0.83,0.45-1.25
	c2.08-0.37,3.69-1.57,5.02-2.85c1.42,0,2.69,0,3.52,0c0.84,0.83,1.39,1.37,1.85,1.82c-0.39,3.25-3.94,3.84-5.03,6.26
	c-1.23,0.37-2.38,0.72-3.43,1.03c0,1.32,0,2.26,0,3.35c0.83,0.63,1.73,1.32,2.76,2.1c0.07,0.64,0.16,1.52,0.25,2.38
	c0.71,0,1.18,0,1.66,0c0.24,0.49,0.48,0.96,0.7,1.4c1.27,0,2.46,0.05,3.64-0.02c0.96-0.05,1.91-0.24,3.17-0.41
	c0.16-0.16,0.57-0.58,1.1-1.13c1.4,0,2.91,0,4.37,0c0.12-0.45,0.2-0.77,0.32-1.22c1.23,0,2.5,0,3.65,0
	c2.19-2.23,4.91-1.21,7.23-1.85c0.99-0.48,1.98-0.95,3.1-1.5c0.07-0.2,0.21-0.61,0.34-1c1.28,0,2.47,0,4.12,0
	c0.2-0.33,0.58-0.94,0.9-1.47c1.11,0,2.05,0,2.97,0c0.18-0.45,0.35-0.86,0.56-1.39c0.74,0,1.54,0,1.81,0
	c2.71-1.7,5.15-2.67,7.76-3.07c0.08-0.4,0.15-0.73,0.23-1.09c0.4-0.03,0.74-0.04,1.07-0.1c0.32-0.06,0.63-0.17,0.84-0.23
	c0.09-0.45,0.16-0.78,0.26-1.25c2.69,0.5,4.35-1.11,5.88-2.82c0.55,0,1.01,0,1.54,0c0.15-0.43,0.3-0.84,0.44-1.25
	c1.97-0.24,3.4-1.28,4.49-3.1c0.7,0,1.5,0,2.26,0c0.12-0.45,0.2-0.77,0.31-1.2c0.52-0.04,1.22,0.1,1.61-0.18
	c0.54-0.39,0.86-1.09,1.04-1.34c1.14,0,1.73,0,2.55,0c0.52,1.23,2.4,1.25,2.82,2.89c2.26-0.34,4.58,0.44,6.84-0.69
	c1.17-0.58,2.36,0.41,3.35,0.93c0,1.09,0,2.13,0,3.11c-1.12,0.78-2.14,1.49-3.3,2.31c-0.74,0-1.69,0-2.88,0
	c-0.32,0.42-0.76,0.98-1.13,1.47c-1.34,0-2.51,0-3.64,0c-0.47,0.47-0.88,0.88-1.32,1.32c-0.78,0.04-1.58,0.09-2.31,0.13
	c-0.49,0.51-0.9,0.94-1.42,1.48c-1.42,0-2.93,0-3.85,0c-1.23,1.14-2,2.06-2.96,2.68c-1.22,0.79-2.01,1.9-2.5,3.13
	c-0.37,0.93-0.26,2.36-1.36,2.5c-1.2,0.15-0.89,2.32-2.57,1.59c-0.29-0.13-1.04,0.8-1.78,1.41c-0.79,0-1.82,0-2.78,0
	c-0.73,1.28-2.53,1.25-2.74,2.81c-1.02,0-1.96,0-2.69,0c-1.2,1.01-2.16,2.45-3.36,2.68c-1.69,0.33-2.68,2.4-4.71,1.7
	c-0.25-0.08-0.81,0.77-1.27,1.22c-0.76,0.04-1.56,0.08-2.32,0.12c-0.18,0.51-0.33,0.92-0.47,1.33
	C691.26,465.91,690.55,465.91,689.8,465.91z M411.43,546.2c-1.15,1.85-0.97,3.43-0.47,5.17c0.55,1.93,1.1,3.87,1.12,5.97
	c0.02,3.81,0.41,7.62,0.65,11.43c0.01,0.23-0.07,0.57,0.05,0.68c1.3,1.17,0.1,2.84,0.73,3.97c0.81,1.46,0.55,2.9,0.64,4.37
	c0.34,5.35-0.54,10.72,0.63,16.08c0.68,3.12,0.55,6.42,0.8,9.65c0.01,0.09,0.13,0.18,0.2,0.27c0.41,0.14,0.83,0.28,1.14,0.39
	c0.43,2.61-0.62,5.24,0.82,7.72c-1.49,1.82-0.41,3.97-0.8,5.98c0.53,0.2,0.94,0.36,1.35,0.52c0.14,0.4,0.27,0.79,0.43,1.24
	c1.28-1.38,2.82-1.5,4.48-1.49c7.57,0.04,15.14,0.02,23.38,0.02c0.12-0.31,0.38-1,0.58-1.52c2.26,0.34,4.27-0.44,6.12,0.77
	c0.41,0.27,1.44,0.29,1.7,0c0.99-1.12,2.21-0.59,3.31-0.64c2.01-0.09,4.02-0.03,6-0.03c2.34-2.28,5.31-1.05,7.94-1.53
	c0.43-0.43,0.85-0.85,1.29-1.29c0.68,0,1.39,0,2.1,0c0.52-0.49,1.02-0.97,1.54-1.47c2.84,0,5.68,0,9.03,0
	c0.18-0.32,0.52-0.95,0.77-1.4c0.99,0,1.7,0,2.41,0c0.69,0,1.39,0,1.95,0c0.55-0.55,0.97-0.97,1.38-1.38
	c3.47-0.05,3.47-0.05,5.84-1.48c3.51,0,7.06,0,10.67,0c0.15-0.42,0.3-0.83,0.49-1.36c3.12,0,6.29,0,9.33,0
	c0.55-0.54,0.96-0.96,1.37-1.37c0.89-0.1,1.75-0.19,2.55-0.28c-0.5-2.08-0.86-3.93-1.42-5.72c-0.42-1.35-0.91-2.75-1.69-3.91
	c-0.97-1.45-3.99-5.59-3.93-6.48c0.14-1.98-1.22-3.31-1.77-4.98c-0.53-1.62-1.04-3.26-1.58-4.93c0.1-0.14,0.25-0.35,0.44-0.61
	c-0.62-0.21-1.03-0.35-1.17-0.4c-0.45-1.96-0.96-3.69-1.22-5.45c-0.28-1.9-1.61-3.4-2.03-5.57c-0.55-0.48-1.34-1.18-1.69-1.49
	c-0.41-1.9-0.93-3.21-0.94-4.52c-0.01-1.97-0.87-3.71-1.15-5.59c-0.49-3.21-2.17-6.21-1.7-9.6c-2.8-1.94-2.9-5.55-5.01-7.9
	c-0.06-0.07-0.02-0.23,0-0.35c0.26-1.61-0.57-2.89-1.47-4c-1-1.24-0.66-2.76-1.26-4.12c-1.14-2.59-3.19-4.88-3.14-7.94
	c-1.51-1.99-1.92-4.46-2.56-6.75c-0.4-1.43-1.2-1.75-2.06-2.18c-0.24-1.13-0.45-2.18-0.68-3.26c0.14-0.12,0.31-0.28,0.34-0.3
	c-0.48-1.08-0.67-2.56-1.44-2.98c-1.67-0.92-1.76-2.25-2.09-3.79c-0.15-0.69,0.02-2.03-1.46-2.35c-0.7-0.15-0.97-1.53-1.98-1.77
	c0.43-1.35-0.76-1.98-1.42-2.77c0.31-0.31,0.47-0.47,0.83-0.83c-0.82-0.63-1.64-1.26-2.34-1.8c0.64-3.21-2.58-5.04-2.1-7.96
	c0.07-0.44-0.32-1.08-0.69-1.46c-2.36-2.46-2.22-5.75-3.03-8.75c-0.37-0.13-0.78-0.28-1.21-0.43c0.53-2.58-2.14-4.28-1.43-6.73
	c-0.61-0.13-0.94-0.19-1.18-0.24c-0.65-2.54-0.75-5.16-2.34-7.44c0.12-5.15-2.3-9.81-3.59-14.74c0.26-0.36,0.53-0.71,0.65-0.88
	c-1.2-2.79-0.5-5.5-0.62-8.14c-0.12-2.72-0.03-5.45-0.03-8.19c1.91-1.54,1.3-3.76,1.42-5.42c1.09-0.91,2.06-1.54,2.79-2.38
	c0.64-0.73,0.95-1.74,1.49-2.57c1.31-2.03,2.72-3.99,4.58-5.57c1.31,0.34,0.83-1.12,1.47-1.46c0.47,0,0.95,0,1.48,0
	c0.4-0.88,0.81-1.78,1.12-2.48c1.22-0.8,2.29-1.5,3.35-2.2c-0.2-0.25-0.39-0.48-0.83-1.03c1.44,0,2.55,0,3.6,0
	c0.15-0.57,0.23-0.89,0.35-1.33c0.52-0.04,1.08-0.09,1.04-0.09c1.71-1.32,3.02-2.33,4.31-3.33c-0.14-0.17-0.32-0.41-0.76-0.96
	c1.2,0,2.08,0,2.55,0c0.95-1.09,1.6-1.83,2.45-2.81c0.48,0,1.27,0,1.94,0c0.54-0.54,0.96-0.96,1.38-1.38
	c0.56-0.05,1.12-0.09,1.63-0.13c0.18-0.53,0.33-0.94,0.5-1.46c0.83,0,1.63,0,2.39,0c0.12-0.45,0.2-0.77,0.32-1.21
	c0.76,0,1.56,0,2.23,0c0.54-0.54,0.96-0.96,1.51-1.51c0.67,0,1.46,0,1.74,0c1.32-1.15,2.28-2,3.32-2.9
	c1.44,0.32,2.67-0.13,3.44-1.38c1.7,0,3.28,0.22,4.77-0.06c1.91-0.36,3.75-1.12,5.67-1.73c-0.13-0.41-0.22-0.73-0.35-1.14
	c-1.79,0-3.54,0-5.25,0c-0.12-0.45-0.2-0.77-0.32-1.21c-0.6-0.09-1.25-0.18-2.14-0.31c-0.27-0.39-0.6-0.88-0.88-1.29
	c-1.58,0-2.99,0-4.42,0c-0.17-0.44-0.32-0.85-0.53-1.38c-0.75,0-1.54,0-2.29,0c-0.2-0.54-0.35-0.95-0.49-1.33
	c-0.62-0.07-1.18-0.13-1.71-0.19c-0.17-0.48-0.31-0.89-0.49-1.4c-1.07,0-2.1,0-3.16,0c-0.42-0.5-0.8-0.95-1.25-1.48
	c-0.8,0-1.58,0-2.31,0c-0.1-0.48-0.17-0.8-0.26-1.24c-1.31,0-2.58,0-3.82,0c-0.21-0.53-0.37-0.93-0.58-1.47c-1.22,0-2.49,0-3.71,0
	c-0.19-0.54-0.34-0.95-0.48-1.35c-0.86-0.05-1.66-0.09-2.41-0.14c-0.18-0.52-0.33-0.93-0.51-1.45c-1.07,0-2.11,0-3.1,0
	c-0.12-0.45-0.2-0.77-0.35-1.34c-0.81,0-1.69,0-2.5,0c-0.18-0.65-0.3-1.05-0.44-1.56c-1.19,0-2.21,0-3.17,0
	c-0.1-0.48-0.17-0.81-0.26-1.24c-1.55,0-3.06,0-4.44,0c-0.54-0.54-0.96-0.96-1.47-1.47c-3.73,0.47-7.22-1.23-10.89-1.55
	c-0.11-0.44-0.19-0.76-0.31-1.21c-1,0-2.04,0-2.94,0c-0.54-0.54-0.96-0.96-1.51-1.51c-1.62,0-3.36,0-5.06,0
	c-0.19-0.54-0.34-0.95-0.53-1.47c-1.29,0-2.57,0-3.8,0c-0.12-0.45-0.19-0.77-0.29-1.09c-0.03-0.1-0.16-0.17-0.25-0.26
	c-2.13,0-4.26,0-6.02,0c-1.83-1.03-3.38-1.9-5.08-2.85c-1.58,0-3.36,0.01-5.14-0.02c-0.16,0-0.32-0.27-0.4-0.34
	c-0.12-0.41-0.21-0.72-0.34-1.14c-1.8,0-3.54,0-5.24,0c-0.19-0.54-0.33-0.95-0.5-1.47c-3.21,0-6.38,0-9.51,0
	c-0.12-0.45-0.2-0.77-0.32-1.21c-6.69,0-13.41,0-20.02,0c-1.32-1.43-2.87-1.55-4.52-1.53c-3.32,0.05-6.64,0.01-9.96,0.02
	c-0.54,0-1.08,0.09-1.49,0.13c-0.14,0.58-0.21,0.91-0.31,1.33c-2.53,0-4.98,0-7.31,0c-0.54,0.54-0.96,0.96-1.48,1.48
	c-3.32-0.71-6.37,0.64-9.43,1.61c-0.08,0.38-0.15,0.71-0.24,1.17c-3.58-0.33-6.93,0-9.46,2.84c-0.99,0-1.93,0-2.42,0
	c-1.82,1.01-3.28,1.81-5.28,2.92c-0.16,0-0.96,0-1.81,0c-0.4,0.49-0.78,0.95-1.21,1.48c-1.04,0-2.07,0-3.03,0
	c-0.1,0.48-0.17,0.81-0.23,1.11c-0.72,0.14-1.38,0.26-1.92,0.36c-0.1,0.48-0.16,0.81-0.25,1.24c-1.35,0-2.62,0-3.84,0
	c-0.2,0.54-0.35,0.95-0.49,1.34c-0.86,0.05-1.66,0.09-2.4,0.14c-0.34,0.82-0.54,1.59-0.96,2.22c-0.26,0.39-1.25,0.58-1.24,0.83
	c0.05,1.19-1.15,0.92-1.5,1.49c-0.4,0.64-0.42,1.51-0.83,2.13c-0.26,0.39-0.92,0.51-1.23,0.66c0,0.93,0,1.72,0,2.62
	c1.72-0.24,3.39,0.4,4.88-0.82c1.96,1.51,4.16,0.44,6.2,0.82c0.15-0.66,0.23-0.98,0.32-1.38c0.8,0,1.6,0,1.85,0
	c2.39,1.2,4.36,2.19,6.5,3.26c0.05,0.15,0.19,0.55,0.32,0.94c2.48,0,4.84,0,7.11,0c0.61,0.89,1.18,1.73,1.83,2.68
	c0.17,1.45-0.01,3.01-0.54,3.73c-1.32,1-2.03,1.53-2.8,2.11c-1.72,0.1-3.49-0.05-5.34,0.62c-2.23,0.81-4.69,0.91-7.14,0.84
	c-4.37-0.13-8.74-0.04-12.97-0.04c-0.55,0.55-0.97,0.97-1.51,1.51c-1.62,0-3.37,0-5.06,0c-0.18,0.54-0.32,0.95-0.5,1.46
	c-0.61,0-1.17,0-1.71,0c-0.25,2.42-3.03,3.18-3.07,5.47c-0.73,0.08-1.29,0.13-1.77,0.18c-0.45,0.99-0.86,1.89-1.21,2.67
	c-0.46,0.11-0.78,0.18-1.07,0.25c-0.19,2.61-0.84,3.77-2.4,5.56c-0.81,0.93-1.24,2.19-1.84,3.3c1.14,0.93-0.31,1.46-0.38,2.22
	c-0.09,0.98-0.2,2.14-0.77,2.85c-1.31,1.63-1.09,3.44-1.11,5.25c-0.02,2.48,0,4.95,0,6.55c1.22,3.26,2.14,5.72,3.06,8.17
	c0.61,0.07,1.17,0.14,1.4,0.17c1.42,1.5,2.64,2.8,4.09,4.34c0.49,0,1.27,0,1.85,0c1.21,2.14,3.63,2.45,4.98,4.25c0.96,0,2,0,2.89,0
	c0.48,1.03,0.89,1.9,1.3,2.76c0.58,0,1.05,0,1.07,0c1.24,1.08,2.2,1.92,3.19,2.78c4.24,0,8.5,0,12.8,0c0.48-0.46,0.99-0.94,1.5-1.43
	c0.95,0,1.89,0,2.82,0c1.21-1.95,4.74-1.15,4.77-4.25c0.67,0,1.14,0,1.64,0c0.49-0.88,1.87-1.14,1.73-2.48
	c1.25,0.06,1.22-1.36,1.93-1.75c0.57-0.04,1.02-0.07,1.31-0.09c0.57-1.15,1.07-2.13,1.34-2.68c1.68-1.15,3.35-1.78,4.14-2.98
	c0.63-0.96,1.54-1.67,2.21-2.5c0.98-1.22,1.59-2.93,3.17-3.55c-0.17-0.28-0.35-0.57-0.64-1.04c0.88,0,1.36,0,1.83,0
	c0.98-1.84,1.96-3.68,3-5.64c0.33-0.04,0.89-0.1,1.41-0.17c0.33-0.76,0.44-1.71,0.97-2.13c1.92-1.52,3.13-3.64,4.96-5.21
	c-0.25-0.25-0.42-0.42-0.77-0.77c1.28-0.49,2.59-1.02,2.22-2.43c1.39-2.05,2.95-3.78,3.84-5.81c0.88-1.99,3.03-3.48,2.58-5.77
	c1.01-0.84,2.41-1.42,2.64-2.31c0.72-2.71,3.17-4.26,4.04-6.7c0.39-0.1,0.71-0.18,1.08-0.28c0-1.37-0.36-2.81,0.09-3.92
	c0.57-1.38-0.32-2.47-0.13-3.72c0.36-2.25,0.55-4.54,0.74-6.81c0.27-3.34,0.48-6.68,0.72-10.02c0.02-0.22,0.02-0.47,0.11-0.67
	c0.95-2.09,1.32-4.27,1.36-6.57c0.02-1.18,0.56-2.36,0.86-3.51c0.36-0.09,0.68-0.18,1-0.26c0.15-0.41,0.31-0.82,0.45-1.21
	c2.74,0,5.43,0,7.55,0c1.11,0.89,1.9,1.4,2.52,2.07c0.68,0.74,1.19,1.63,1.79,2.46c0,2.12,0,4.25,0,5.6
	c-1.05,2.96-1.86,5.22-2.82,7.93c0.18,2.26-0.25,4.78-2.82,6.42c0.17,0.17,0.34,0.34,0.57,0.57c-1.55,1.68-1.95,3.82-2.17,5.98
	c-0.4,0.1-0.92,0.1-1.01,0.29c-0.7,1.61-1.6,3.18-1.69,4.98c-0.08,1.54-0.03,3.08-0.01,4.62c0.02,1.65,0.05,3.3,0.08,4.94
	c1.8,1.4-0.6,2.7-0.1,4.07c0.08,0.21-0.09,0.57,0.03,0.69c0.62,0.63,0.9,1.38,0.67,2.21c-0.21,0.78,1.2,1.47,0.07,2.24
	c1.31,1.15,0.09,2.84,0.73,3.95c0.85,1.46,0.61,2.91,0.61,4.37c0.01,1.45,0.34,2.69,1.47,3.73c-0.41,5.1,1.26,10.15,0.69,15.3
	c-0.04,0.35-0.11,0.77,0.03,1.05c2.26,4.57,1.76,9.68,2.83,14.48c0.46,2.03,0.69,4.14,1.89,5.98c0.52,0.8,0.71,1.85,0.92,2.81
	c0.52,2.4,0.94,4.82,1.45,7.23c0.16,0.75,0.67,1.47,0.67,2.2c-0.01,4.19,1.08,8.28,0.8,12.51c-0.25,3.78-0.15,7.59-0.02,11.38
	c0.08,2.51,0.46,5,0.78,7.5c0.05,0.37,0.5,0.7,0.34,0.49c-0.19,1.86-0.79,3.32-0.32,4.23c0.66,1.27,0.43,2.46,0.61,3.68
	c0.18,1.21,0.63,2.41,0.67,3.62c0.36,9.26-0.67,18.56,0.72,27.8c0.36,2.37,0.52,4.76,0.83,7.14
	C410.73,545.6,411.11,545.84,411.43,546.2z M396.08,457.52c0.06-1.32,0.16-2.05,0.09-2.77c-0.05-0.53-0.37-1.03-0.52-1.55
	c-0.71-2.44-0.31-5.17-1.95-7.38c-0.18-0.24-0.18-0.65-0.18-0.98c0.08-3.36-1.19-6.62-0.76-10.02c0.07-0.59-0.45-1.23-0.57-1.87
	c-0.52-2.75-1.09-5.51-1.45-8.27c-0.43-3.31,0.04-6.67-0.66-10.04c-0.4-1.95-0.41-4.07-0.85-6.08c-0.16-0.75-0.56-1.45-0.68-2.2
	c-0.3-1.79-0.41-3.61-0.77-5.38c-0.14-0.69-0.74-1.29-1.17-2.01c-0.83,0.42-1.6,0.8-2.04,1.02c-0.49,1.32-0.87,2.35-1.23,3.34
	c-0.6,0-1.08,0-1.44,0c-1.73,3.24-3.24,6.52-4.2,9.93c-1.55,0.02-1.82,1.24-2.68,1.8c0.38,0.41,0.53,0.57,0.64,0.69
	c-1.34,1.55-2.67,3.09-4.01,4.64c-0.51,0.04-1.06,0.08-1.5,0.12c-0.12,0.57-0.18,0.9-0.24,1.17c-0.51,0.17-0.92,0.31-1.3,0.44
	c0.05,1.81,0.02,3.49-1.98,4.2c0.04,1.01-1.12,0.99-1.4,1.5c-0.84,1.56-1.39,3.1-3.2,4.09c-1.22,0.67-1.99,2.28-3.24,3.17
	c0.21,0.29,0.37,0.51,0.62,0.85c-0.79,0.09-1.35,0.16-1.62,0.19c-0.86,1.04-1.48,2.04-2.33,2.74c-2.18,1.8-2.32,1.88-3.22,3.9
	c-0.08,0.18-0.32,0.29-0.55,0.48c-0.4,0-0.86,0-1,0c-1.41,1.49-2.64,2.79-4.08,4.32c-0.24,0-0.8,0-1.31,0
	c-0.18,0.53-0.32,0.94-0.49,1.45c-0.62,0-1.17,0-1.69,0c-0.15,0.54-0.26,0.94-0.38,1.38c-1.66-0.45-2.99,0.15-3.97,1.02
	c-1.45,1.28-3.01,1.94-4.95,1.7c-0.44,0.6-0.79,1.07-1.1,1.49c-1.31,0-2.49,0-3.63,0c-1.34,1.19-1.34,1.19-2.97,1.23
	c-0.42-0.42-0.84-0.84-1.38-1.38c-2.33,0-4.79,0-7.12,0c-0.48-1.03-0.88-1.91-1.34-2.89c-0.85,0-1.64,0-2.35,0
	c-0.1-0.49-0.17-0.82-0.23-1.11c-0.74-0.14-1.38-0.26-1.92-0.37c-0.11-0.49-0.18-0.82-0.24-1.09c-0.75-0.11-1.38-0.2-1.84-0.27
	c-0.18-0.61-0.27-0.93-0.38-1.28c-1.35,0.03-2.41-0.16-3.57-1.07c-0.77-0.6-1.11-2.07-2.73-1.86c-0.97,0.12-1.49-1.85-2.95-1.33
	c-0.26-1.18-1.88-1.3-2-2.59c-1.6-0.38-1.61-2.55-2.99-2.9c-1.5-0.38-1.3-2.05-2.45-2.54c-1.21-4.16-3.09-8.16-3-12.63
	c0-0.2-0.17-0.4-0.26-0.59c-0.57,0-1.12,0-1.52,0c-0.78,1.48-1.2,3.15-2.27,4.09c-1.01,0.88-1.54,1.74-1.59,2.93
	c-0.04,0.74-0.33,1.24-0.7,1.86c-1.25,2.09-1.77,4.39-1.48,6.86c0.19,1.64-0.08,3.19-1.36,4.41c-0.35,2.02,0.14,4.03-0.63,6.13
	c-0.67,1.82,0.14,4.1-0.82,6.07c-0.14,0.29-0.17,0.82,0,1.04c1.15,1.43,0.47,3.13,0.76,4.65c1.56,1.41,1.99,3.28,2.04,5.21
	c0.08,3.08,0.08,6.16,0,9.24c-0.03,1.33-0.34,2.66-0.54,4.09c0.16,0.21,0.43,0.56,0.72,0.95c-0.34,0.47-0.86,0.87-0.82,1.19
	c0.39,2.82-0.85,5.48-0.74,8.24c0.19,4.76-0.12,9.51,0.58,14.3c0.81,5.63-0.55,11.45,0.84,17.11c0.29,10.69-0.72,21.4,0.82,32.11
	c1.48,2.11,1.71,4.69,2.15,7.2l1.3,1.18c1.23,1.22,0.51,3.04,1.4,4.41c0.84,1.28,1.17,3.02,2.24,3.99c1.15,1.06,1.59,2.49,2.57,3.52
	c1.11,1.17,0.64,3.21,1.77,3.84c1.93,1.07,1.88,3.07,2.95,4.54c0.53,0.06,1.09,0.12,1.73,0.19c0.32,1.86,1.82,2.88,2.95,4.2
	c1.28,1.48,2.33,3.17,3.63,4.98c0,0.4,0,1.11,0,1.89c0.32,0.09,0.64,0.18,1.11,0.31c0.84,1.73,1.31,4.1,2.75,5.34
	c1.82,1.57,2.06,3.7,3.22,5.44c0.12,0.18,0.25,0.44,0.42,0.49c1.3,0.34,1.68,1.48,1.64,2.48c-0.05,1.27,0.68,2.12,1.06,3.15
	c0.62,1.71,1.97,2.92,2.92,4.24c0.64,0.15,1.19,0.28,1.73,0.41c-0.05,0.08-0.09,0.17-0.14,0.25c-0.17,0.17-0.34,0.34-0.68,0.68
	c1.03,0.11,1.91,0.2,2.76,0.29c0.45,0.45,0.87,0.87,1.41,1.41c1.15,0,2.42,0,3.64,0c0.18,0.54,0.32,0.95,0.49,1.46
	c1.56,0,3.07,0,4.53,0c0.12,0.45,0.2,0.77,0.32,1.22c0.99,0,2.03,0,2.94,0c0.54,0.54,0.96,0.96,1.49,1.49c13.15,0,26.41,0,39.67,0
	c0.57,0,1.15,0,1.59,0c0.55-0.55,0.97-0.97,1.51-1.51c10.39,0,20.91,0,31.5,0c-0.93-1.5,1.18-3.26-0.64-4.51
	c0.24-0.26,0.47-0.52,0.65-0.71c-0.23-1.03-0.55-1.99-0.63-2.97c-0.15-1.81,0.11-3.62-0.67-5.42c-0.56-1.3-0.63-2.85-0.75-4.3
	c-0.18-2.16,0.02-4.3-0.62-6.49c-0.54-1.86-0.16-4-0.1-6.01c0.05-1.96-0.95-3.72-0.8-5.76c0.15-2.13,0-4.28-0.47-6.49
	c-0.61-2.87-0.33-5.94-0.78-8.93c-0.38-2.56,0.11-5.26-1.4-7.63c-0.16-0.26-0.12-0.68-0.11-1.02c0.16-4.5-0.37-8.89-1.34-13.3
	c-0.5-2.26,0-4.73-0.11-7.09c-0.12-2.4-0.57-4.78-0.66-7.18c-0.12-3.43,0.05-6.88-0.05-10.31c-0.17-5.83-0.44-11.66-0.72-17.48
	c-0.03-0.62-0.45-1.23-0.67-1.77c0.25-0.55,0.64-1.04,0.66-1.55c0.06-1.47-0.31-2.9-0.57-4.35c-0.59-3.28-0.58-6.66-0.83-10
	c-0.07-1,0.21-1.99-0.62-2.98c-0.33-0.4,0.33-1.64,0.49-2.26c-0.22-0.91-0.53-1.66-0.55-2.41c-0.06-2.61,0.1-5.22-0.06-7.82
	c-0.15-2.49-0.58-4.97-0.88-7.42C397.33,461.58,397.34,458.95,396.08,457.52z M833.21,330.19c-1.42,1.7-0.63,3.53-0.77,5.21
	c-0.14,1.7-0.05,3.37-0.67,5.06c-0.57,1.55,0.53,3.44-0.58,4.84c0.62,1.78,1.32,3.38,1.26,5.28c-0.12,3.67,0.04,7.35-0.06,11.02
	c-0.06,2.21,0.62,4.21,1.19,6.27c0.71,2.54,1.62,5.24,0.84,7.74c-0.59,1.87-0.44,3.63-0.57,5.44c-0.29,4.19,1.24,8.29,0.71,12.51
	c-0.1,0.8,0.1,1.69-0.17,2.42c-0.74,2.03-1.55,4.08-1.17,6.22c0.15,0.84-1.29,1.11-0.36,2.07c0.27,0.28-0.33,1.33-0.42,2.05
	c-0.1,0.81,0,1.65-0.14,2.44c-0.07,0.38-0.48,0.71-0.54,0.77c0.29,0.98,0.48,1.61,0.66,2.23c0.45,1.55-0.63,2.87-0.7,4.33
	c-0.19,4.17,0.22,8.34-0.63,12.52c-0.49,2.42,0.2,5.01,0.48,7.52c0.35,3.16,0.73,6.5-0.57,9.65c0.49,5.39-0.78,10.7-0.7,16.06
	c0.03,2.29-0.81,4.38-1.43,6.52c0.71,1.42,0.71,1.42,1.13,3.92c0.22,0.57,0.44,1.15,0.6,1.55c2.44-0.66,4.51-1.53,6.46-2.41
	c2.21-1.01,4.96-0.64,6.73-2.65c1.17,0.32,1.57-0.82,2.35-1.19c0.77-0.36,1.75-0.28,2.86-0.43c-1.2-1.82,1.92-0.78,1.21-2.31
	c0.31-0.11,0.63-0.35,0.92-0.32c0.9,0.1,1.3-0.26,1.25-1.15c1.37,0.22,1.12-1.57,2.41-1.83c1.34-0.26,1.6-2.2,2.95-2.95
	c0.6-0.33,0.71-1.54,1.06-2.35c0.04-0.1,0.16-0.17,0.25-0.25c2.01-1.37,3.83-2.94,5.37-4.83c0.58-0.72,0.33-1.84,1.46-2.4
	c0.79-0.39,1.21-1.49,1.89-2.19c0.81-0.82,1.2-2.03,2.34-2.53c-0.54-1.48,0.97-1.97,1.46-2.95c0.51-1,1.35-1.82,2.09-2.78
	c0-0.27-0.15-0.74,0.02-0.97c2.59-3.49,3.98-7.61,6.08-11.36c0.66-1.17,1.39-2.37,1.07-3.41c1.05-2.36,2.71-3.88,3.6-6.03
	c0.82-2,0.91-4.11,1.6-6.08c0.27-0.02,0.65,0.04,0.71-0.06c0.89-1.75,2.01-3.44,2.53-5.3c1.23-4.46,2.82-8.83,4.69-13
	c1.62-3.62,3.04-7.31,4.28-11.02c0.83-2.5,2.86-4.6,2.63-7.45c1.25-1.75,1.47-3.95,2.39-5.76c0.79-1.55,2.01-3.17,2.27-4.72
	c0.31-1.83,2.45-2.99,1.63-5.06c1.76-1.6,1.34-3.76,1.37-5.13c0.65-1.49,1.15-2.37,1.41-3.31c0.55-1.92,0.83-3.92,1.48-5.79
	c0.66-1.9,1.59-3.66,1.58-5.77c0-0.77,1.1-1.51,1.17-2.31c0.29-3.04,1.62-5.9,1.51-9.01c-0.02-0.63,0.31-1.28,0.52-1.9
	c1.3-3.78,2.31-7.66,2.9-11.57c0.44-2.9,1.16-5.75,1.78-8.57c0.75-3.42,1.86-6.81,2.62-10.27c0.42-1.91,1.24-3.73,1.99-5.92
	c0.24-1.66,0.57-3.68,0.8-5.72c0.12-1.12,0.29-2.17,0.64-3.29c1.32-4.2,2.17-8.54,2.17-12.96c0-3.7,0.05-7.37-0.51-11.11
	c-0.69-4.56,0.11-9.29-0.8-13.92c-0.18-0.9-0.41-1.71-0.76-2.55c-0.82-1.96-1.8-3.9-1.45-5.83c-0.8-1.53-1.65-2.74-2.09-4.08
	c-1.15-3.51-2.6-6.79-4.91-9.73c-0.44-0.56-0.81-1.34-1.35-1.89c-0.57-0.58,0.59-2.16-1.18-1.98c-1.63-2.89-4.03-5.16-6.14-7.66
	c-1.2-1.42-1.94-3.41-4.02-3.9c-0.41-0.91-0.82-1.81-1.22-2.68c-0.56,0-1.03,0-1.61,0c-0.57-2.32-2.35-3.93-3.57-5.9
	c-0.81-1.31-2.41-2.11-2.52-3.86c-1.52,0.54-0.81-1.92-2.11-1.6c-1.21,0.3-1.12-1.19-1.54-1.24c-1.1-0.12-1.02-1.01-1.42-1.52
	c-0.65-0.11-1.24-0.2-1.93-0.32c0.35-0.45,0.54-0.68,0.83-1.05c-0.5-0.08-1.06-0.06-1.11-0.2c-0.28-0.91-0.82-1.5-1.76-1.7
	c0.17-1.69-1.28-0.81-1.91-1.23c-0.15-0.1-0.12-0.5-0.26-0.58c-1.13-0.59-1.44-2.04-3.09-2.28c-1.16-0.17-2.12-1.65-3.54-2.87
	c-0.29,0-1.08,0-1.79,0c-0.1-0.49-0.17-0.82-0.24-1.15c-0.64-0.07-1.2-0.13-1.74-0.19c-0.17-0.44-0.33-0.85-0.49-1.25
	c-0.58-0.07-1.14-0.14-1.46-0.17c-0.85-1-1.57-1.84-2.44-2.88c-0.32,0-0.88,0-0.84,0c-2.17-2.15-4.82-3.1-6.08-5.65
	c-0.72,0-1.51,0-2.26,0c-0.18-0.54-0.33-0.95-0.5-1.47c-0.85,0-1.64,0-2.18,0c-0.86-1.04-1.55-1.88-2.28-2.76c-0.43,0-0.89,0-1.33,0
	c-0.44-0.94-0.86-1.83-1.28-2.72c-2.12,0.15-2.87-1.44-3.78-3.08c-0.95,0-1.98,0-2.88,0c-0.2-0.56-0.35-0.95-0.45-1.23
	c-0.76-0.06-1.31-0.11-1.75-0.14c-0.12-0.57-0.18-0.9-0.27-1.33c-0.86,0-1.66,0-2.33,0c-0.54-0.54-0.96-0.96-1.51-1.51
	c-1.15,0-2.42,0-3.48,0c-0.82-1.03-1.51-1.89-2.22-2.78c-1.16,0-2.33,0-3.49,0c-0.44-0.44-0.86-0.86-1.41-1.41
	c-1.62,0-3.36,0-5.17,0c-0.09-0.43-0.16-0.76-0.23-1.11c-0.68-0.23-1.44-0.41-2.13-0.75c-0.67-0.33-1.27-0.83-1.83-1.2
	c-2.56,1.42-3.17,3.84-4.07,5.92c-1.34,3.09-1.4,6.43-1.09,9.27c1.27,1.29,2.23,2.27,3.49,3.55c0.33,0,1.12,0,1.64,0
	c1.36,1.58,2.53,2.95,3.51,4.09c1.31,0,2.33,0,3.29,0c0.1-0.49,0.17-0.81,0.25-1.18c1.18-0.07,2.31-0.13,3.31-0.19
	c0.12-0.58,0.18-0.9,0.27-1.33c1.11,0,2.15,0,3.05,0c0.54-0.54,0.96-0.96,1.39-1.39c0.7,0,1.41,0,2.13,0
	c0.08,0.07,0.17,0.14,0.25,0.22c0.5,0.5,1.01,1.01,1.51,1.51c-0.04,2.51-0.82,3.57-2.3,5.43c-1.28,1.6-3.64,2.25-3.87,4.62
	c0.15,0.43,0.47,0.93,0.49,1.45c0.03,0.75,0.71,0.74,0.96,1.05c1.66,2.06,3.97,3.65,4.78,6.36c0.44,1.47,1.31,2.72,1.53,4.38
	c0.23,1.69,0.72,3.48,1.39,5.08c0.37,0.89,0.64,1.68,0.61,2.59c-0.06,1.63,0.45,3,1.16,4.51c1.49,3.16,3.73,6.03,4.13,9.67
	c0.03,0.29,0.33,0.56,0.26,0.45c-0.23,1.39-0.85,2.65-0.46,3.29c0.84,1.35,0.59,2.69,0.59,4.03c0,1.55,0.23,2.95,1.44,4.04
	c-0.23,0.25-0.45,0.5-0.66,0.74c0.23,0.27,0.69,0.64,0.63,0.79c-0.55,1.36,0.06,3.12-1.38,4.17c0,1.9,0.46,3.96-0.16,5.63
	c-0.43,1.17-0.09,2.38-0.62,3.28c-0.71,1.22-0.35,2.49-0.7,3.64c-0.77,2.54-1,5.2-2.05,7.68c-1.1,2.62-1.94,5.36-2.88,8.05
	c-0.25,0.73-0.66,1.46-0.68,2.19c-0.04,1.44-0.39,2.68-1.46,3.68c0,1.66,0,3.32,0,4.81c1.4,2.18,2.44,4.4,3.88,6.43
	c1.48,2.07,2.95,4.2,4.41,6.31c1.34,1.94,2.69,3.86,4.2,5.68c1.57,1.9,2.7,4.15,4.48,5.85c0,1.07,0,2.1,0,2.31
	c-1.52,1.53-2.59,2.6-3.78,3.79c-0.2-0.35-0.51-0.87-0.82-1.41c-0.47,0-0.93,0-1.07,0c-0.78-0.73-1.36-1.29-2.06-1.94
	c0-0.51,0-1.22,0-1.92c-1.59-1.63-3.09-3.32-4.29-5.28c-1.21-1.98-3.89-2.64-4.67-5.19c-0.52,0-1.07,0-1.59,0
	c-0.15-0.54-0.27-0.94-0.32-1.14c-1.27,0-2.3,0-3.04,0c-0.9,1.68-2.1,3.06-2.36,4.6c-0.41,2.45-1.35,4.66-2.13,6.96
	c-0.54,1.58-0.56,3.33-0.81,5c1.25,0.87,0.63,2.16,0.69,3.26c0.09,1.77,0.07,3.56,0.01,5.33c-0.05,1.52-0.34,3.03-0.33,4.55
	c0.01,1.73,0.29,3.45,0.33,5.18c0.06,2.37-0.08,4.75,0.04,7.11c0.11,2.28,0.41,4.55,0.71,6.81
	C832.5,329.03,832.88,329.51,833.21,330.19z M619.76,533.19c1.07-0.84,2.04-1.59,2.98-2.37c0.36-0.3,0.87-0.61,0.98-1.01
	c0.61-2.23,2.85-3.4,3.55-5.59c0.19-0.6,0.25-1.68,1.42-1.48c0.76-2.07,3.5-2.65,3.83-5.03c-0.38-0.68-0.75-1.34-1.1-1.97
	c-1.84-0.17-3.61,0.02-5.46-0.64c-1.87-0.67-3.97-1.15-6.07-0.83c-0.21,0.03-0.44-0.08-0.66-0.12c-0.42-0.42-0.84-0.84-1.37-1.37
	c-2.18,1.11-3.11-2.01-5.19-1.47c-0.05-0.97-0.09-1.76-0.14-2.63c-0.91,0-1.71,0-2.62,0c-0.25,2.24-2.67,2.59-3.72,4.19
	c-1.05,1.61-2.63,2.73-4.23,4.24c-0.16,0.02-0.72,0.07-1.2,0.12c-0.45,1-0.86,1.89-1.26,2.77c-2.14-0.24-2.87,1.19-3.56,2.85
	c-0.74,0-1.54,0-1.84,0c-1.59,1.13-2.77,2.01-4.01,2.81c-0.83,0.54-1.8,1.44-2.59,1.33c-1.58-0.21-1.02,2.15-2.48,1.72
	c-0.88,1.86-2.59,2.49-4.35,2.89c-0.09,0.42-0.15,0.74-0.24,1.17c-0.85,0-1.64,0-2.39,0c-0.47,1.02-0.88,1.92-1.34,2.93
	c-1.01,0-2.04,0-2.84,0c-0.84,1.05-1.53,1.91-2.33,2.91c-0.44,0-0.99,0-1.39,0c-0.98,0.98-1.82,1.82-2.66,2.66
	c-0.56,0.04-1.12,0.08-1.63,0.11c-0.19,0.55-0.33,0.96-0.47,1.35c-0.79,0-1.51,0-2.38,0c-0.68,0.9-1.42,1.88-2.16,2.85
	c-0.35,0-0.86-0.15-1.04,0.03c-0.85,0.84-1.61,1.78-2.6,2.9c-0.97,0-2.24,0-3.48,0c-0.12,0.45-0.2,0.77-0.37,1.43
	c-1.54-0.86-2.04,1.03-3.15,1.24c-1.28,0.24-2.58,0.09-3.31,1.56c-1.06,0-2.1,0-3.08,0c-0.19,0.54-0.34,0.95-0.52,1.46
	c-0.83,0-1.62,0-2.37,0c-0.18,0.54-0.32,0.95-0.5,1.46c-0.84,0-1.64,0-2.39,0c-0.17,0.53-0.3,0.93-0.41,1.27c-0.62,0-1.09,0-1.23,0
	c-0.78-0.74-1.36-1.29-1.94-1.84c0-1.17,0-2.44,0-3.21c1.26-1.31,2.21-2.31,3.4-3.55c0.45,0,1.24,0,1.99,0
	c0.18-0.54,0.32-0.95,0.45-1.34c0.8,0,1.51,0,2.37,0c0.64-0.83,1.33-1.72,2.12-2.74c1.83,0.08,2.75-1.3,3.34-2.71
	c0.79-0.29,1.48-0.42,2.01-0.78c1.02-0.7,2.33-1.34,2.81-2.35c0.74-1.55,2.45-1.18,3.37-2.27c0.42-0.5,1.4-0.55,2.04-0.77
	c0.44-0.93,0.85-1.8,1.26-2.66c0.58,0,1.04,0,1.61,0c0.05-0.36,0.07-0.96,0.15-0.97c1.32-0.12,1.32-1.98,2.67-2.01
	c0.07-1.58,1.69-1.9,2.54-2.33c1.27-0.64,1.34-1.98,2.38-2.64c1.71-1.08,3.37-2.25,4.93-3.52c0.86-0.7,1.46-1.7,2.29-2.7
	c0.22,0,0.69,0,1.26,0c0.75-2.13,3.14-2.55,4.51-4.2c0.85-1.03,3.88-3.03,4.8-4.49c0.46,0,1.02,0,1.53,0
	c0.1-0.47,0.17-0.79,0.15-0.7c1.6-0.93,3.22-1.43,4.13-2.52c0.83-0.99,2.6-1.69,2.04-3.77c-0.64,0.54-1.19,1.01-1.78,1.51
	c-1.16,0-2.33,0-3.47,0c-0.18,0.48-0.33,0.89-0.47,1.27c-0.62,0.07-1.18,0.14-1.71,0.2c-0.17,0.47-0.31,0.88-0.43,1.2
	c-2.08,0-4.06,0-5.97,0c-0.26-0.93-0.49-1.74-0.69-2.43c0.49-1.04,0.97-2.03,1.35-2.84c0.83-0.35,1.55-0.63,2.24-0.95
	c0.5-0.23,1.03-0.45,1.44-0.8c0.45-0.39,0.76-1.32,1.15-1.34c1.91-0.06,2.41-1.48,3.09-2.83c0.54-0.06,1.1-0.12,1.16-0.13
	c2.28-2.25,4.27-4.2,6.25-6.15c-0.22-0.22-0.39-0.39-0.53-0.53c0.27-0.36,0.54-0.71,0.79-1.05c-1.23-1.22-2.36-2.35-3.77-3.75
	c-0.37,0-1.16,0-1.91,0c-0.12-0.46-0.2-0.78-0.3-1.15c-0.63-0.1-1.28-0.21-1.85-0.3c-0.1-0.49-0.17-0.81-0.26-1.24
	c-0.85,0-1.64,0-2.38,0c-0.47-1.02-0.88-1.92-1.13-2.45c-2.75-1.32-5.22-2.5-7.68-3.68c-0.06-0.28-0.13-0.6-0.19-0.89
	c-0.75-0.11-1.38-0.2-1.85-0.27c-0.17-0.6-0.26-0.92-0.35-1.22c-3.36,0.13-5.06-2.38-7.91-4.32c0.18,0.02-0.38-0.04-0.91-0.11
	c-0.16-0.46-0.31-0.87-0.45-1.26c-0.87-0.04-1.67-0.08-2.41-0.12c-0.19-0.55-0.33-0.96-0.51-1.47c-0.61,0-1.16,0-1.67,0
	c-0.18-0.53-0.32-0.93-0.46-1.32c-0.57,0-1.04,0-1.58,0c-0.14-0.41-0.29-0.82-0.44-1.25c-0.8-0.33-1.68-0.11-2.49-0.92
	c-0.97-0.96-1.94-2.05-3.55-2.4c-0.84-0.18-1.51-1.36-2.7-1.14c-0.21-1.22-1.65-1.46-2.02-2.66c-0.36-1.19-2-1.29-2.57-2.42
	c-0.1-0.2-0.24-0.38-0.44-0.69c-0.72,0-1.51,0-2.27,0c-0.12-0.45-0.2-0.77-0.28-1.09c-1.93-0.31-3.41-1.28-4.6-3.1
	c-0.83,0-1.86,0-2.85,0c-0.19-0.54-0.34-0.95-0.47-1.34c-0.64-0.03-1.2-0.06-1.62-0.08c-0.49-1.08-0.9-1.96-1.29-2.83
	c-0.82,0-1.52,0-1.72,0c-1.86-0.83-2.74-2.19-4.25-2.87c-1.51-0.68-2.83-1.78-4.46-2.84c-0.65,0-1.59,0-2.47,0
	c-0.47-0.47-0.89-0.89-1.33-1.33c-1.63,0.57-2.15-1.15-3.01-1.81c-0.86-0.67-1.47-2.28-0.57-3.51c0.48-0.67,0.95-1.34,1.25-1.75
	c2,0,3.64,0,4.54,0c1.9,0.72,3.13,1.19,4.41,1.67c0.06,0.23,0.14,0.55,0.27,1.03c0.51,0.03,1.2-0.13,1.6,0.14
	c0.55,0.37,0.88,1.07,1.23,1.53c1.38,0,2.4,0,3.32,0c0.11,0.51,0.17,0.84,0.26,1.27c1.11,0,2.15,0,3.05,0
	c0.54,0.54,0.96,0.96,1.51,1.51c0.43,0,0.99,0,1.5,0c0.19,0.53,0.33,0.94,0.51,1.45c1.08,0,2.12,0,2.82,0
	c0.86,0.98,1.51,1.72,2.36,2.69c0.95,0,2.22,0,3.5,0c0.95,1,1.85,1.95,2.73,2.88c1.22,0,2.4,0,3.57,0c0.43,0.43,0.85,0.85,1.4,1.4
	c0.67,0,1.46,0,2.13,0c0.54,0.54,0.96,0.96,1.41,1.41c1.39,0,2.81,0,4.23,0c0.51,0.49,1.02,0.97,1.67,1.59c0.9,0,1.93,0,2.91,0
	c0.1,0.47,0.17,0.79,0.26,1.19c2,0,3.98,0,5.97,0c1.13-2.52,2.92-4.81,2.47-7.89c-0.09-0.6,0.68-1.32,1.05-2c0.47,0,0.94,0,1.47,0
	c0.14-0.41,0.29-0.82,0.48-1.36c0.99,0,2.02,0,2.86,0c1.02-0.68,1.86-1.23,2.61-1.73c-0.36-3.29-3.28-5.18-3.8-8.16
	c-0.43-0.15-0.83-0.28-0.62-0.21c-1.4-2.71-0.49-5.77-3.4-7.43c0-0.6,0.28-1.48-0.05-1.97c-2.09-3.17-3-6.83-4.44-10.26
	c-0.55-1.31-1.43-2.5-1.88-3.84c-0.5-1.49-2.06-2.06-2.65-3.59c-0.76,0-1.54,0-2.3,0c-0.04-0.27-0.02-0.39-0.07-0.49
	c-0.72-1.41-2.5-1.15-3.42-2.29c-1.91,0-3.78,0-5.62,0c-0.18-0.51-0.32-0.92-0.5-1.43c-1.31,0-2.58,0-3.81,0
	c-0.12-0.45-0.2-0.77-0.31-1.18c-0.61-0.09-1.27-0.19-2.09-0.31c-0.3-0.43-0.63-0.91-0.91-1.3c-3.5,0-6.8,0-10.09,0
	c-0.19-0.45-0.35-0.86-0.54-1.31c-2.64-0.36-5.58,0.76-7.95-1.52c-2.2,0.34-4.59-0.59-6.86,0.81c-1.78-1.58-3.95-0.4-5.98-0.84
	c-0.19,0.52-0.34,0.93-0.5,1.39c-0.86,0.08-1.75,0.17-2.52,0.25c-0.11,0.54-0.18,0.87-0.26,1.29c-1.35,0-2.62,0-3.98,0
	c-0.89,0.97-1.77,1.93-2.62,2.86c-1.26,0-2.43,0-3.66,0c-0.16,0.43-0.31,0.84-0.5,1.37c-0.75,0-1.54,0-1.9,0
	c-2.5,1.97-4.66,3.68-7.21,5.69c-0.22,0.01-1.01,0.05-1.77,0.08c-0.18,0.51-0.33,0.92-0.47,1.3c-0.63,0.05-1.19,0.09-1.7,0.13
	c-0.19,0.54-0.33,0.96-0.47,1.35c-0.44,0-0.85-0.12-1.13,0.02c-1.37,0.71-2.85,1.31-4.02,2.27c-1.8,1.49-3.1,3.54-5,4.97
	c-0.29,0.22-0.33,0.79-0.47,1.18c-0.61,0.07-1.17,0.14-1.78,0.21c-0.07,0.36-0.02,0.86-0.22,0.98c-1.59,1.03-2.74,2.31-3.58,4.1
	c-0.5,1.07-1,2.26-1.66,3.21c-1.77,2.56-2.49,3.83-2.5,6.03c-0.01,3.91-0.01,7.82,0,11.73c0,0.69-0.04,1.42,0.17,2.06
	c1.13,3.56,2.05,7.15,1.97,10.92c0,0.2,0.17,0.4,0.27,0.6c0.32,0.08,0.65,0.15,1.09,0.26c0,1.26,0,2.53,0,3.02
	c1.15,3.2,3.16,5.2,2.98,8.17c-0.06,0.98,0.72,2.04,1.18,3.03c0.74,1.59,1.87,3.09,2.23,4.75c0.75,3.44,2.26,6.57,3.45,9.79
	c-0.17,0.23-0.33,0.45-0.52,0.72c0.61,0.21,1.02,0.35,1.53,0.52c0,1.32,0,2.59,0,3.82c0.45,0.12,0.77,0.2,1.09,0.28
	c0.31,1.92,1.28,3.41,3.01,4.55c0,0.55,0,1.25,0,2.04c1.57,1.47,3.15,3,2.9,5.49c-0.02,0.18,0.18,0.4,0.33,0.56
	c1.37,1.54,1.65,3.59,2.51,5.36c0.29,0.6,0.57,1.54,1.02,1.65c1.62,0.39,1.49,1.72,1.8,2.81c0.49,1.7,0.55,3.52,1.44,5.09
	c1.08,1.92,1.82,3.9,1.34,6.2c0.42,0.12,0.74,0.21,1.31,0.37c1.06,3.59,4.49,6.53,3.79,10.4c0.67,2.19,2.04,3.46,2.15,5.39
	c0.05,0.88,0.56,1.99,1.23,2.52c1.39,1.1,1.83,2.6,2.25,4.13c0.68,2.45,1.18,4.96,1.92,7.39c0.39,1.28,1.01,2.43,1,3.87
	c-0.02,1.77,0.67,3.45,1.34,5.11c0.45,1.12,0.68,2.33,1.03,3.59c0.28,0.1,0.69,0.25,0.81,0.29c0.55,2.05,0.84,3.95,1.58,5.67
	c1.06,2.46,1.98,4.9,2.34,7.58c0.17,1.29,0.43,2.78,1.21,3.73c1,1.23,0.61,3.25,1.74,3.85c2.32,1.25,1.92,3.26,2.01,5.26
	c3.2,1.71,3.45,5.1,4.48,7.88c2.82,0,5.42,0,7.99,0c0.45-0.45,0.87-0.87,1.39-1.39c1.78,0,3.7,0.23,5.54-0.07
	c1.71-0.27,3.33-1.1,4.99-1.68c0.08,0.15,0.17,0.3,0.25,0.45c0.44-0.55,0.87-1.11,1.35-1.71c0.87,0,1.65,0,2.36,0
	c0.1-0.49,0.17-0.82,0.26-1.25c1.09,0,2.12,0,2.91,0c2.34-1.9,4.46-3.63,7-5.68c0.05-0.01,0.7-0.13,1.23-0.23
	c0.11-0.5,0.18-0.82,0.26-1.16c0.55,0,1.01,0,1.45,0c1.62-1.69,3.21-3.33,4.78-4.99c1.82-1.93,3.4-4.17,5.48-5.73
	c2.17-1.62,4.03-3.5,5.91-5.38c1.11-1.11,2.24-2.24,2.99-3.67c1.09-2.07,2.98-3.63,3.81-5.89c0.18-0.5,0.73-0.98,1.24-1.24
	c1.37-0.72,2.18-2,3.25-3.02c1.22-1.17,2.43-2.34,3.65-3.5c0.28-0.27,0.62-0.48,0.85-0.78c0.32-0.4,0.58-0.86,0.89-1.34
	c0.49-0.06,1.05-0.12,1.67-0.19c0.07-0.34,0.14-0.67,0.21-1c2.32-0.6,4.57-2.3,5.86-4.47c0.53-0.06,1.09-0.12,1.76-0.19
	c0.16-1.81,1.87-2.67,2.68-4.29c0.5,0,1.06,0,1.67,0c-0.45-1.49,1.54-1.01,1.54-2.27c0-1.14,2.35,0.43,2.08-1.48
	c1.14-0.08,1.3-1.25,2-1.82c0.69-0.56,1.34-1.16,2.22-1.94C619.7,534.65,619.73,533.85,619.76,533.19z M545.32,753.37
	c1.07-0.23,2.16,0.1,3.2-0.93c1.08-1.07,2.73-1.58,3.16-3.3c2.59-0.69,3.63-3.15,5.45-4.73c0.43-0.37,0.92-0.68,1.33-1.07
	c0.44-0.41,0.83-0.88,1.43-1.53c0.26,0,0.82,0,1.19,0c1.6-2.34,4.06-3.66,5.26-6.02c1.31-2.57,5.13-3.1,5.06-6.1
	c0.97-0.78,1.85-1.14,2.12-1.77c0.53-1.2,1.78-1.68,2.34-2.88c0.56-1.2,1.7-2.12,2.43-3.27c0.66-1.05,0.96-2.19,2.17-3.03
	c0.91-0.63,1.04-2.34,1.6-3.52c0.38-0.8,1.06-1.47,1.33-2.29c0.43-1.27,1.99-1.99,1.67-3.58c1.55-0.04,1.22-1.61,1.92-2.35
	c0.7-0.74,1.55-1.37,2.01-2.31c1.02-2.07,1.65-4.44,3.07-6.16c1.53-1.86,2.61-3.83,3.48-6c0.12-0.3,0.54-0.48,0.7-0.78
	c1.53-2.82,2.72-5.81,4.74-8.37c0.56-0.72,0.33-1.94,1.29-2.67c0.99-0.74,0.35-2.07,0.9-3.18c1.15-2.33,1.73-4.99,2.27-7.57
	c0.43-2.07,0.87-4.11,1.61-6.1c0.73-1.95,1.18-4.01,2.26-5.82c0.22-0.37,0.32-0.82,0.43-1.24c0.38-1.51,0.69-3.03,1.1-4.53
	c0.44-1.59,1.45-2.91,1.91-4.56c0.37-1.35,2.08-2.36,1.97-4.14c-0.1-1.66,1.8-2.65,1.43-4.39c1.47-0.76,0.21-2.39,1.15-3.47
	c0.66-0.75,0.57-2.11,1.01-3.11c0.49-1.1,1.3-2.07,1.79-3.17c0.4-0.9,0.38-1.99,0.82-2.86c0.98-1.98,0.93-4.31,2.28-6.19
	c0.35-0.48-0.04-1.5-0.13-2.84c-1.28,1.32-2.17,2.24-3.33,3.44c-0.35,0-1.14,0-2.12,0c0.23,2.25-2.04,2.36-2.97,3.72
	c-0.92,1.35-3.13,1.48-3.77,3.34c-0.79,0.04-1.59,0.09-2.34,0.13c-0.18,0.51-0.33,0.93-0.47,1.33c-0.54,0-1.01,0-1.47,0
	c-0.52,0.49-1.03,0.98-1.67,1.59c-0.68,0-1.46,0-2.19,0c-0.1,0.48-0.17,0.8-0.25,1.17c-0.93,0.08-1.82,0.16-2.6,0.23
	c-0.11,0.54-0.18,0.87-0.27,1.3c-1.11,0-2.14,0-3.13,0c-0.19,0.54-0.34,0.95-0.48,1.35c-0.86,0.05-1.66,0.09-2.4,0.14
	c-0.49,0.51-0.89,0.94-1.41,1.48c-1.9,0-3.88,0-5.81,0c-0.12,0.45-0.2,0.78-0.3,1.13c-3.13,0.72-6.45-0.69-9.53,0.77
	c-2.44-1.3-5.1-0.71-7.56-0.49c-2.8,0.25-5.01-1.35-7.59-1.6c-0.9-0.09-1.94-0.75-2.54-1.46c-0.89-1.04-1.98-1.42-3.05-1.48
	c-0.17-0.6-0.26-0.91-0.38-1.33c-1.09,0-2.12,0-3.12,0c-0.12-0.45-0.2-0.77-0.32-1.22c-0.6-0.09-1.25-0.18-2.1-0.31
	c-0.29-0.39-0.64-0.87-0.94-1.29c-1.08,0-2.02,0-3.01,0c-0.15-0.43-0.3-0.84-0.46-1.29c-0.54-0.06-1.1-0.12-1.65-0.18
	c-0.17-0.44-0.33-0.84-0.5-1.25c-0.58-0.07-1.14-0.13-1.37-0.16c-1.41-1.5-2.64-2.8-3.97-4.21c-0.27,0-0.74,0-1.31,0
	c-0.07-0.32-0.05-0.82-0.24-0.92c-1.23-0.65-1.93-1.64-2.13-2.99c-1.68-0.4-1.71-2.08-2.45-3.2c-0.73-1.1-1.77-1.88-2.63-2.84
	c-0.34-0.38-0.59-0.84-0.94-1.35c-1.64,0-3.38,0-5.06,0c-0.48,0.48-0.9,0.9-1.45,1.45c-2.09,0-4.31,0-6.49,0
	c-0.18,0.54-0.32,0.95-0.5,1.46c-4.16,0-8.28,0-12.36,0c-0.12,0.45-0.2,0.77-0.32,1.22c-2.66,0-5.35,0-7.92,0
	c-0.54,0.54-0.96,0.96-1.5,1.5c-0.46,0-1.04-0.02-1.61,0.01c-0.54,0.02-1.08,0.1-1.47,0.14c-0.15,0.59-0.23,0.91-0.3,1.2
	c-3.32,0.29-6.58-0.22-9.62,0.25c-0.2,0.61-0.3,0.92-0.43,1.34c-1.31,0-2.59,0-3.81,0c-0.18,0.54-0.32,0.95-0.5,1.46
	c-2.51,0-4.97,0-7.38,0c-0.12,0.45-0.2,0.77-0.32,1.22c-2.89,0-5.82,0-8.62,0c-1.36,1.38-2.9,1.52-4.55,1.51
	c-7.23-0.04-14.46,0-21.69-0.03c-1.65-0.01-3.2,0.11-4.52,1.54c-2.1,0-4.32,0-6.5,0c-0.18,0.53-0.32,0.94-0.42,1.24
	c-0.47,0.11-0.79,0.18-1.09,0.25c-0.01,2.07,0.13,2.01,1.04,4.22c0.92,2.22,2.78,4.11,2.48,6.74c0.49,0.18,0.9,0.33,1.41,0.52
	c-0.48,3.33,2.5,5.34,2.97,8.38c0.74,0,1.3,0,1.84,0c0.11,1,0.21,1.88,0.31,2.75c0.93,0,1.63,0,2.39,0
	c0.54,2.16,2.17,3.44,3.51,4.44c0.47,1.58,0.84,2.85,1.17,3.96c0.79,0.15,1.36,0.26,2.07,0.4c-0.38,0.38-0.55,0.55-0.84,0.84
	c0.96,0.76,1.9,1.5,2.91,2.31c0.13,1.25,1.53,1.86,2.01,2.88c0.57,1.21,1.53,1.93,2.26,2.9c0.83,1.11,1.76,2.15,2.78,3.38
	c0.04,0.32,0.1,0.88,0.15,1.31c0.51,0.37,1.18,0.6,1.28,0.98c0.53,2.04,2.83,2.92,3.22,5.02c1.45-0.58,0.72,2.07,2.18,1.47
	c0.35,0.8,0.53,1.77,1.1,2.36c0.64,0.66,0.53,1.83,1.84,2.16c0.6,0.15,0.84,1.67,1.3,2.55c0.56,1.08,1.17,2.13,1.75,3.19
	c0,0,2.89,2.95,2.91,2.97c0,0.68,0,1.39,0,2.12c2.19,0.4,2.79,2.57,4.18,3.86c0.7,0.65,0.71,2.05,1.09,3.31
	c0.63,0.89,1.4,2.01,2.21,3.1c0.8,1.08,1.84,2.03,2.4,3.22c1.05,2.2,1.6,4.71,4.42,5.65c0,1.01,0,2.05,0,2.59
	c1.31,2.24,2.61,3.92,3.84,5.65c1.35,1.89,1.48,4.42,3.22,6.21c0,0.64,0,1.33,0,2.12c0.36,0.07,0.69,0.14,1.11,0.23
	c0.34,2.26,2.88,3.27,3.4,5.55c0.01,0.04,0.25,0.01,0.31,0.07c1.49,1.73,3.63,2.83,4.46,5.24c0.35,1.01,1.73,1.65,2.89,2.68
	c0.64,1.14,0.32,3.37,2.67,3.78c0.02,1.39,1.35,1.81,2.01,2.72c0.58,0.81,1.04,1.73,1.74,2.41c1.65,1.59,2.73,3.81,5.16,4.56
	c0.36,0.11,0.5,0.91,0.74,1.39c1.23,0,2.41,0,3.65,0c0.15,0.41,0.29,0.82,0.48,1.36c1.22,0,2.49,0,3.71,0
	c0.15,0.32,0.24,0.52,0.33,0.72c0.08,0.2,0.15,0.41,0.25,0.68c2.2,0,4.41,0,6.57,0c0.48-0.48,0.9-0.9,1.45-1.45
	c0.91,0,1.94,0,3.12,0c0.33-0.45,0.67-0.91,0.93-1.26c1.43,0.84,2.57-0.72,4.08,0.19c0.38-0.73,0.7-1.37,0.93-1.8
	c1.09,0,1.77,0,2.42,0c0.11-0.43,0.2-0.75,0.35-1.32c0.49,0,1.18,0.21,1.58-0.05c0.56-0.36,0.89-1.06,1.16-1.41
	c1.35,0,2.29,0,3.17,0C544.4,754.3,544.73,753.96,545.32,753.37z M709.86,500.12c0.62,1.49,1.24,3,1.8,4.37
	c-1.87,2.13-4.15,2.5-6.21,1.82c-1.15-0.38-2.21-0.48-3.32-0.52c-2-0.08-4.01-0.02-6.76-0.02c-0.06-0.18-0.28-0.86-0.58-1.78
	c-0.33,0.92-0.48,1.33-0.63,1.76c-0.4-0.28-0.75-0.53-1.28-0.91c-0.36,0.35-0.86,0.6-0.96,0.97c-0.45,1.71-1.29,3.33-1.68,4.98
	c-0.86,3.69-2.2,7.28-2.33,11.18c-0.06,1.89-1.13,3.75-1.74,5.62c-0.1-0.03-0.21-0.07-0.31-0.1c0,1.66,0,3.32,0,4.48
	c-0.6,1.17-1.19,1.92-1.38,2.76c-0.62,2.7-1.53,5.37-2.99,7.63c-1.18,1.82-1.33,3.58-1.29,5.52c0,0.19,0.22,0.38,0.42,0.69
	c0.72,0,1.51,0,2.06,0c0.86,1.04,1.55,1.88,2.28,2.76c0.66,0,1.36,0,2.16,0c0.06,0.35,0.01,0.86,0.19,0.97
	c2.65,1.59,4.74,3.87,7.1,5.81c0.47,0.38,1.13,0.17,1.53,1.06c0.53,1.16,1.76,2.13,2.8,2.94c1.25,0.97,2.17,2.25,3.41,3.24
	c1.31,1.05,2.78,2.34,3.63,3.97c1.33,2.52,3.39,4.37,5.51,6.15c1.63,1.36,2.39,2.14,3.38,4.29c0.22,0,0.53-0.1,0.68,0.02
	c0.86,0.66,1.85,1.25,2.49,2.1c0.62,0.82,1.61,1.25,2,2.3c0.39,1.05,1.59,1.43,2.38,2.1c1.64,1.38,2.83,3.61,5.39,3.58
	c0.42,0.93,0.83,1.83,1.23,2.71c0.53,0,1,0,1.47,0c0.7,1.96,2.47,2.95,3.66,4.37c0.9,0,1.58,0,1.76,0c1.16,1.25,1.67,2.37,3.23,2.82
	c1.55,0.44,2.97,1.42,4.37,2.28c1.71,1.05,3.35,2.22,5.02,3.33c1.76-0.71,2.61,1.12,4,1.53c0.56,0.16,0.49,1.55,1.88,1.4
	c1.03-0.11,1.48,1.89,2.96,1.34c0.54,0.98,1.31,1.6,2.48,1.6c-0.05,1.36,1.4,1.22,1.98,1.96c0.64,0.83,1.35,1.62,1.67,2
	c1.19,0.16,1.72,0.23,2.11,0.28c0.15,0.59,0.23,0.9,0.31,1.21c0.89,0.05,1.69,0.1,2.44,0.14c0.18,0.52,0.33,0.93,0.51,1.44
	c0.83,0,1.62,0,2.38,0c0.18,0.54,0.32,0.95,0.45,1.33c0.81,0,1.52,0,2.1,0c2.14,1.94,5.56,1.94,6.87,4.91
	c0.21,1.38-0.53,2.51-1.14,3.73c-1.92,3.84-3.11,7.89-3.11,12.21c0,2.42-1.16,4.71-0.77,7.18c0.05,0.3-0.5,0.69-0.74,1
	c0.96,1.46,1.2,2.71,0.11,4.17c-1.27,1.7-1.31,3.94-2.11,5.87c-0.2,0.48,0.28,1.24,0.47,1.99c-0.07,0.07-0.45,0.31-0.51,0.6
	c-0.61,3.22-1.25,6.43-1.45,9.72c-0.28,4.64,0.48,9.3-0.62,13.95c-0.53,2.22-0.09,4.68-0.09,7.11c0.73,0,1.29,0,1.93,0
	c1.2-3.7,4.14-6.75,4.66-11.17c1.27-0.89,2.09-2.44,2.86-4.14c0.55-1.21,0.79-2.64,1.51-3.62c3.7-5.05,5.32-11.1,8.14-16.57
	c1.13-2.2,2.23-4.51,3.15-6.86c0.1-0.27,0.78-0.31,1.17-0.45c0.07-2.79,0.16-2.76,1.45-5.87c0.79-1.91,1.28-3.95,2.15-6.7
	c0.02-0.32-0.08-1.53,0.22-2.63c0.28-1.03,1-1.94,1.55-2.96c1.76-0.28,2.33-1.9,3.09-3.23c0.48-0.84,0.96-1.98,0.76-2.83
	c-0.36-1.53,2.15-0.76,1.51-2.21c1.62-1.79,1.3-4.46,2.85-6.29c-0.58-1.43,1.31-0.87,1.44-1.84c0.45-3.23,2.51-5.83,3.58-8.83
	c0.4-1.13,1.3-2.08,2.11-3.32c0-0.66,0-1.6,0-2.56c0.95-1.27,1.89-2.53,2.82-3.77c0.1-1.38,1.53-5.01,2.21-6.23
	c1.23-2.21,2.66-4.38,3.41-6.75c1.2-3.81,0.93-7.89,1.43-11.84c0.57-4.51-1.14-9-0.65-13.56c0.07-0.7,0.1-1.43-0.01-2.13
	c-0.14-0.87-0.43-1.71-0.57-2.2c0.26-0.95,0.56-1.57,0.57-2.19c0.04-4.15-0.01-8.3,0.05-12.44c0.01-0.86,0.39-1.71,0.59-2.54
	c-0.2-0.61-0.56-1.22-0.59-1.85c-0.24-5,0.34-10.01-0.66-15.01c-0.49-2.44,0.3-5.14-0.84-7.49c-0.86-1.75-0.17-3.69-0.93-5.3
	c-0.77-1.63-0.82-3.51-0.27-4.72c0.66-1.45,0.29-2.73,0.53-4.05c0.27-1.44,0.63-2.88,0.69-4.33c0.11-2.84,0.04-5.69,0.02-8.53
	c0-0.19-0.21-0.38-0.26-0.47c-1.1,0-2.14,0-3.12,0c-0.18,0.52-0.32,0.93-0.53,1.53c-0.92-0.33-1.75-0.63-2.29-0.83
	c-0.99,0.24-1.73,0.55-2.48,0.58c-2.13,0.07-4.27,0.07-6.4,0.01c-1.65-0.05-3.19,0.13-4.42,1.38c-0.34-0.24-0.69-0.49-0.75-0.53
	c-1.3,0.24-2.27,0.56-3.25,0.57c-5.21,0.05-10.43,0.02-15.64,0.04c-0.2,0-0.4,0.17-0.6,0.27c-0.08,0.32-0.16,0.64-0.26,1.05
	c-10.03,0-20.07,0-30.19,0c-0.13-0.36-0.28-0.77-0.47-1.31c-1.85-0.14-3.81,0.24-5.66-0.7c-1.42-0.72-3.04-0.87-4.67-0.77
	c-1.39,0.09-2.8,0.02-4.12,0.02c-0.21-0.6-0.35-1.01-0.5-1.42c-0.66,0-1.26,0.05-1.84-0.01c-3.03-0.28-6.29,0.92-9.04-1.38
	c-0.28-0.23-0.92-0.03-1.4-0.03c-1.18,0-2.35,0-3.57,0c-0.16-0.45-0.31-0.86-0.49-1.35c-4.09,0-8.2,0-12.29,0
	c-0.45,0.45-0.86,0.86-1.41,1.41c-1.38,0-2.89,0-4.33,0c-0.49,0.53-0.9,0.96-1.4,1.5c-1.91,0-3.89,0-5.72,0
	c-0.3,0.3-0.51,0.44-0.63,0.64c-1.3,2.19-0.83,4.79-1.62,7.14c-0.53,1.59-0.1,3.51-0.1,5.26c0.61,0.32,1.21,0.62,2.01,1.04
	c2.35,0,4.95,0,7.56,0C704.64,500.72,707.31,499.9,709.86,500.12z M795.9,256.8c-1.81-0.79-3.12-1.04-3.95-1.82
	c-0.99-0.92-2.02-0.85-3.14-1.11c-1.07-0.25-1.66-2.08-2.86-1.32c-1.99,2.24-3.72,4.19-3.38,6.87c-1.29,1.21-2.38,2.24-3.48,3.27
	c-1.05-1.32-1.95-2.45-2.81-3.53c0-1.2,0-2.37,0-3.54c0.1,0.03,0.21,0.06,0.31,0.08c0.58-1.77,1.15-3.53,1.75-5.36
	c-0.3-0.63-0.64-1.32-0.97-2.01c-0.56-0.06-1.12-0.12-1.65-0.18c-0.17-0.49-0.32-0.9-0.5-1.41c-1.07,0-2.1,0-3.09,0
	c-0.18-0.54-0.32-0.95-0.49-1.46c-0.61,0-1.17,0-1.69,0c-0.16-0.53-0.27-0.94-0.33-1.14c-1.26,0-2.28,0-2.92,0
	c-0.91,1.01-1.57,1.74-2.37,2.63c-0.37,0.06-1.01,0.17-1.51,0.25c-0.14,0.55-0.22,0.87-0.3,1.18c-0.89,0.05-1.69,0.1-2.44,0.14
	c-0.72,1.77-2.32,2.31-3.59,3c-0.41,0.91-0.78,1.71-1.15,2.53c-0.54,0.06-1.1,0.12-1.64,0.18c-0.57,1.76-2.66,2.22-3.21,3.93
	c-2.03,0.19-3.36,2.3-4.94,1.88c-2.6,2.04-4.76,3.73-6.93,5.42c-0.5,0.07-1.04,0.15-1.4,0.2c-0.16,0.59-0.25,0.91-0.33,1.19
	c-0.66,0.06-1.22,0.11-1.73,0.16c-0.18,0.51-0.32,0.93-0.5,1.44c-0.59,0-1.15,0-1.67,0c-0.18,0.53-0.32,0.94-0.45,1.33
	c-0.58,0-1.05,0-1.36,0c-0.86,1.01-1.64,1.92-2.39,2.8c-0.59,0.06-1.14,0.12-1.56,0.16c-0.12,0.57-0.18,0.9-0.27,1.32
	c-1.11,0-2.15,0-3.01,0c-0.41,0.58-0.68,1.01-1.01,1.4c-0.39,0.46-0.82,0.87-1.35,1.42c-0.72,0-1.67,0-2.71,0
	c-0.53,0.55-1.46,1.08-1.6,1.76c-0.35,1.69-2.1,1.47-2.92,2.48c-0.4,0.49-2.91,2.29-3.36,3.02c-0.47,0-1.02,0-1.54,0
	c-0.11,0.46-0.19,0.78-0.28,1.14c-0.65,0.11-1.3,0.21-1.96,0.32c0.07,1.99-1.93,2.54-2.44,4.04c-0.56,0.05-1.12,0.09-1.62,0.13
	c-0.24,0.57-0.42,1.02-0.72,1.75c-0.96-0.85-1.61-1.43-2.21-1.96c-1.99,0.9-1.99,2.77-2.15,4.13c-0.34,2.92-0.3,5.93-0.05,8.87
	c0.26,3.06-0.79,5.95-0.77,8.95c0.03,4.03-0.06,8.06,0.03,12.09c0.08,3.94-0.17,7.85,0.59,11.81c0.71,3.72,0.57,7.6,0.82,11.42
	c0.02,0.34,0.03,0.7,0.17,0.99c1.23,2.67,1.42,5.49,1.21,8.31c1.57,1.66,1.52,3.68,1.89,6.03c1.2,0.7,0.86,2.68,1.76,4.02
	c0.99,1.48,2.17,2.83,3.52,4.56c1.35,0.28,2.25,2.09,3.86,2.9c1.77,0.89,3.49,1.88,5.37,2.91c1.02,0,2.19,0,3.27,0
	c0.5,0.5,0.91,0.91,1.23,1.23c8.01,0,15.91,0,23.78,0c0.18-0.52,0.31-0.93,0.44-1.32c1.53,0,2.94,0,3.95,0
	c1.87-1.04,3.42-1.9,5.27-2.93c0.59,0,1.51,0,2.4,0c0.18-0.51,0.32-0.92,0.46-1.32c1.02,0,1.97,0,2.34,0
	c1.54-0.78,2.62-1.33,3.77-1.91c0.04-0.17,0.1-0.5,0.19-0.93c0.84,0,1.64,0,2.39,0c0.22-0.53,0.38-0.94,0.56-1.36
	c0.56-0.06,1.12-0.13,1.65-0.19c0.16-0.45,0.31-0.87,0.45-1.25c0.63-0.05,1.19-0.1,1.16-0.1c1.72-1.65,3.05-2.95,4.4-4.23
	c1.61-1.54,3.22-3.08,4.86-4.59c1.45-1.34,2.2-3.39,4.18-4.19c0.51-2.26,2.92-2.85,4.04-4.65c1.14-1.84,3.41-2.83,4.21-5.02
	c0.56-0.03,1.12-0.07,1.59-0.1c0.74-1.55,2.38-2.33,2.49-4.02c1.88-0.66,3.54-2.51,4.79-4.76c1.02-1.82,1.96-3.69,2.91-5.55
	c0.73-1.44,2.34-2.09,2.97-3.75c0.62-1.63,1.64-3.38,3-4.37c1.59-1.16,1.84-2.79,2.66-4.24c0.23-0.4,0.72-0.64,0.98-1.02
	c1.32-1.94,2.94-3.75,3.82-5.88c1.23-2.97,3.11-5.56,4.4-8.49c0.85-1.92,2.17-3.63,3.59-5.93c0.24-1.04-0.63-2.81,0.57-4.45
	c0.39-0.54,0.39-1.86,0-2.4c-0.96-1.31-0.53-2.67-0.64-4.02c-0.05-0.59,0.24-1.43-0.05-1.73c-1.14-1.18-0.66-2.78-1.26-4.13
	c-0.57-1.29-0.12-3.03-0.12-3.78c-1.27-2.72-2.23-4.8-3.16-6.79c-1.08,0-2.02,0-2.92,0c-1,0.88-1.96,1.73-3.17,2.79
	c-0.16,0.01-0.72,0.06-1.23,0.09c-0.19,0.54-0.33,0.95-0.46,1.34c-1.26,0-2.45,0-3.63,0c-1.56,0.86-3.46,1.09-4.8,2.09
	c-1.61,1.2-3.95,0.32-5.11,2.18c-1.72,0-3.37,0-5.06,0c-0.56-0.58-1.14-1.17-1.74-1.78c-0.13-1.12,0.24-2.14,0.61-3.24
	c0.73-2.18,3.05-1.78,4.32-3.04c0.54-0.53,1.69-0.45,3.1-0.78c0.09-0.15,0.47-0.75,0.75-1.21c1,0,1.68,0,2.34,0
	c0.18-0.49,0.32-0.91,0.32-0.9c2.34-0.81,4.36-1.51,7.22-2.5c-1.54-0.57-2.28-0.84-2.98-1.1c-0.07-0.34-0.14-0.67-0.23-1.1
	c-1.33,0-2.6,0-3.83,0c-0.2-0.53-0.36-0.94-0.5-1.32c-0.69-0.1-1.32-0.2-1.77-0.26c-0.19-0.62-0.28-0.93-0.41-1.35
	c-1.08,0-2.12,0-3.1,0c-0.18-0.54-0.33-0.95-0.46-1.34C796.61,256.8,796.02,256.8,795.9,256.8z M742.07,210.2
	c0-0.71-0.23-1.52,0.04-2.12c0.9-1.98,1.17-4.08,1.36-6.19c0.17-1.93,1.18-3.75,0.73-5.75c1.24-1.28,0.12-3.12,0.81-4.27
	c0.97-1.62,0.36-3.18,0.61-4.74c0.07-0.44,0.08-0.91,0.22-1.33c0.72-2.15,1.37-4.29,1.22-6.61c-0.1-1.53-0.02-3.07-0.02-4.36
	c-1.09-1.83-1.99-3.49-3.22-5c-1.69-2.08-1.48-4.61-0.06-6.82c1.57,0,3.08,0,4.55,0c0.11,0.44,0.1,0.96,0.29,1.05
	c2.03,0.97,3.03,2.82,3.88,4.7c0.55,1.21,1.48,1.87,2.36,2.74c1.71,1.68,3.97,2.98,4.47,5.32c1.22,0.78,2.24,1.43,3.35,2.14
	c0.95,2.25,0.95,2.25,2.68,3.76c0.8,0,1.48,0,2.32,0c0-2.56-0.01-5.03,0-7.5c0-0.7-0.14-1.48,0.12-2.08c0.9-2.11,0.76-4.4,1.26-6.58
	c0.22-0.97-0.01-2.02,0.72-2.92c0.44-0.53,1.45-5.21,1.45-5.79c0-2.01,0-4.02,0-5.97c3.06-3.67,3.18-4.13,7.21-3.94
	c4.16,0.2,8.27,1.07,12.88,0.81c0.21,0.36,0.56,0.98,0.7,1.24c1.62,0,2.79,0,3.48,0c0.78-0.76,1.28-1.24,2.05-1.98
	c0-0.37,0-1.16,0-1.38c1.83-3.15,3.26-5.79,2.8-9.02c-0.84-1.07-1.66-2.12-2.59-3.31c-0.45,0-1,0-1.47,0
	c-0.19-0.54-0.33-0.94-0.43-1.25c-0.74-0.05-1.29-0.08-1.99-0.13c0.38-0.52,0.59-0.81,0.99-1.36c-1.44,0-2.47,0-3.22,0
	c-0.9-1.05-1.61-1.89-2.5-2.93c-0.79,0-1.83,0-2.62,0c-0.84-1.03-1.53-1.88-2.36-2.89c-0.66,0-1.44,0-2.15,0
	c-0.1-0.49-0.17-0.82-0.24-1.14c-0.96-0.1-1.85-0.2-2.61-0.28c-0.12-0.54-0.19-0.86-0.26-1.21c-0.89-0.04-1.69-0.08-2.53-0.12
	c-0.08-0.4-0.15-0.72-0.21-0.99c-0.82-0.36-1.62-0.71-2.42-1.07c-0.8-0.35-1.6-0.71-2.45-1.09c-0.05-0.24-0.13-0.56-0.26-1.13
	c-1.08,0-2.21,0-3.24,0c-0.12-0.58-0.19-0.91-0.28-1.34c-1.09,0-2.12,0-3.23,0c-0.09-0.43-0.15-0.75-0.2-0.99
	c-1.08-0.54-2.18-1.08-4-1.98c-0.19,0-1.23,0-2.21,0c-0.18-0.53-0.32-0.93-0.5-1.45c-0.61,0-1.17,0-1.63,0
	c-0.19-0.55-0.33-0.94-0.51-1.44c-0.9,0-1.69,0-2.4,0c-0.1-0.49-0.17-0.82-0.23-1.11c-0.74-0.14-1.38-0.26-1.92-0.37
	c-0.11-0.49-0.18-0.81-0.27-1.24c-1.11,0-2.14,0-3.05,0c-0.54-0.54-0.96-0.96-1.51-1.51c-0.68,0-1.47,0-2.22,0
	c-0.18-0.53-0.32-0.93-0.5-1.45c-1.09,0-2.12,0-3.11,0c-0.1-0.47-0.18-0.79-0.27-1.2c-0.89-0.07-1.78-0.13-2.57-0.19
	c-0.11-0.55-0.18-0.87-0.27-1.31c-1.57,0-3.07,0-4.45,0c-0.54-0.54-0.96-0.96-1.33-1.33c-0.61,0-1.16,0-1.69,0
	c-0.18,0.51-0.32,0.93-0.5,1.44c-1.08,0-2.12,0-3.07,0c-0.39,0.94-0.52,2-1.11,2.51c-1.88,1.61-2.54,3.92-3.62,5.72
	c-0.49,0.22-0.79,0.35-1.17,0.52c0.38,0.38,0.55,0.55,0.7,0.7c-1.63,1.41-3.47,2.51-3.6,5.16c-0.1,1.93-0.99,3.83-1.52,5.74
	c-0.42,1.49-0.97,2.95-1.19,4.47c-0.2,1.39,0.27,2.94-0.13,4.23c-0.39,1.27,0.31,2.65-0.62,3.77c0.39,4.09-0.46,8.1-0.73,12.15
	c-0.22,3.34,0.47,6.69-0.6,10.05c-0.55,1.72-0.28,3.79-0.04,5.65c0.25,1.92-0.86,3.54-0.79,5.4c0.09,2.37,0.14,4.75-0.01,7.11
	c-0.14,2.18,0.44,4.36-0.42,6.57c-0.81,2.11-0.42,4.48-0.79,6.74c-0.39,2.36-1.63,4.66-1.11,7.17c-1.43,4-1.52,8.21-1.89,12.36
	c-0.17,1.88,0.49,3.99-0.16,5.63c-0.84,2.11-0.28,4.08-0.65,6.19c1.32,0,2.43,0,3.12,0c0.67-0.66,1.05-1.04,1.57-1.55
	c0.27,0.73,0.42,1.14,0.63,1.72c3.41-0.43,7.11,1.05,10.34-1.55c5.63,0,11.29,0,17.22,0c0.56-2.77,1.11-5.49,1.72-8.48
	C741.15,211.13,741.48,210.79,742.07,210.2z M591.98,565.66c0,0.42,0.09,0.71-0.01,0.87c-1.82,2.78-4.04,5.32-4.99,8.6
	c-0.03,0.1-0.15,0.23-0.25,0.24c-1.73,0.35-1.92,2.59-3.64,2.94c-0.61,1.93-2.08,2.79-3.93,3.25c-0.39,0.1-0.71,0.61-1.01,0.98
	c-0.77,0.98-1.74,1.88-2.22,2.99c-0.66,1.56-2.54,1.74-3.19,3.24c-0.44,1.01-1.52,1.5-2.18,2.34c-0.38,0.47-0.66,1.12-1.15,1.38
	c-0.6,0.31-1.8-0.4-1.63,1.09c-1.48,0.19-2.08,2.27-3.86,1.8c-0.51,1.48-2.1,1.81-3.03,2.84c-0.05,0.06-0.23,0.03-0.35,0
	c-1.19-0.26-1.53,1.13-2.3,1.27c-1.09,0.2-1.89,0.56-2.69,1.31c-0.72,0.67-1.68,1.07-2.78,1.74c-0.63,0-1.57,0-2.45,0
	c-0.47,0.47-0.89,0.89-1.43,1.43c-1.38,0-2.89,0-4.32,0c-0.5,0.53-0.91,0.96-1.3,1.37c-0.98,0-1.93,0-3.14,0
	c-0.31,0.42-0.74,0.98-1.2,1.59c-1.11,0-2.13,0-3.14,0c0,1.83,0,3.49,0,5.29c0.81,0.64,1.7,1.34,2.82,2.21
	c0.61,2.07,2.24,3.74,4.25,5.14c0.48,0.33,0.78,0.92,1.29,1.54c0.41,0,0.96,0,1.47,0c0.15,0.54,0.26,0.94,0.36,1.32
	c0.91,0,1.61,0,1.87,0c1.31,1.12,2.36,2.02,3.4,2.91c1.26,0,2.42,0,3.54,0c0.18,0.51,0.32,0.92,0.5,1.43c0.84,0,1.63,0,2.41,0
	c0.4,3.08,3.86,2.2,4.8,4.26c0.92,0,1.61,0,2.26,0c0.18,0.51,0.32,0.92,0.46,1.33c0.79,0,1.5-0.01,2.2,0
	c2.15,0.04,4.28-0.24,6.3,1.15c0.9,0.62,2.47,0.26,3.62,0.33c0.55-0.55,0.96-0.96,1.48-1.48c2.02,0,4.14,0.03,6.26-0.02
	c0.66-0.02,1.41-0.09,1.95-0.42c1.29-0.77,2.65-1.15,4.03-0.97c0.23-0.66,0.37-1.07,0.51-1.45c1.28,0,2.46,0,3.01,0
	c1.61-0.78,2.7-1.31,3.76-1.83c0.06-0.28,0.13-0.6,0.22-1.03c1.11,0,2.14,0,3.13,0c0.19-0.54,0.34-0.95,0.48-1.33
	c0.63-0.05,1.19-0.1,1.7-0.14c0.18-0.53,0.33-0.95,0.48-1.38c3.18,0.7,4.5-2.99,7.33-2.97c0.41-0.91,0.82-1.81,1.22-2.69
	c0.53,0,1,0,1.57,0c0.13-0.39,0.27-0.8,0.4-1.19c0.74-0.26,1.49-0.45,2.17-0.79c0.69-0.34,1.31-0.83,1.73-1.1
	c0.48-0.99,0.85-1.78,1.23-2.56c0.82-0.04,1.62-0.08,2.37-0.11c0.12-0.46,0.23-1.06,0.28-1.06c1.35,0.14,1.08-1.95,2.43-1.76
	c-0.32-1.45,1.97-1.03,1.74-2.42c1.59-0.56,1.79-2.81,3.22-3.14c2.1-0.49,2.18-2.51,3.44-3.59c1.4-1.2,2.14-2.89,2.55-4.61
	c0.75-3.12,2.58-5.81,3.33-8.95c0.45-1.88,1.57-3.58,2.01-5.57c0.35-1.56,0.3-3.38,1.65-4.65c0.19-0.18,0.12-0.65,0.16-0.99
	c0.31-2.84,0.63-5.68,0.94-8.56c0.33-0.12,0.75-0.27,1.03-0.37c0.64-3.07,1.16-6.05,1.9-8.97c0.37-1.47,1.13-2.84,1.81-4.49
	c0.14-3.17-0.55-6.48-1.32-9.83c-0.37-1.61-0.48-3.35-0.72-5.03c-0.26-1.79-0.44-3.6-0.69-5.4c-0.29-2.14-0.47-4.18-1.36-6.22
	c-0.7-1.6-0.74-3.48-0.97-4.72c-1.27-1.32-2.23-2.31-3.32-3.44c-0.28,0-0.83,0-1.22,0c-0.41,0.54-0.69,0.96-1.02,1.33
	c-1.33,1.48-3.19,2.5-4.02,4.38c-0.65,1.49-2.03,2.13-3.05,3.15c0.19,0.24,0.38,0.48,0.78,0.97c-2.39-0.23-2.4,2.17-3.89,2.93
	c-0.49,0.25-0.78,1-1.06,1.57c-0.39,0.78-0.62,1.65-1.04,2.41c-0.42,0.78-0.93,1.54-1.51,2.22c-0.69,0.81-1.53,2.18-2.24,2.14
	c-1.44-0.08-0.64,1.71-1.84,1.66c-0.35-0.02-0.66,1.03-1.15,1.31c-0.58,0.32-1.71-0.47-1.71,1.05c0,0.71-1.83,0.1-1.38,1.48
	c-1.36-0.17-1.15,1.79-2.4,1.78c-1.82-0.01-1.85,1.34-1.93,2.09c-1.29,1.28-2.28,2.27-3.58,3.58c-0.01,0-0.57,0.07-0.89,0.1
	c-0.85,0.99-1.57,1.83-2.45,2.87c-0.3,0-0.86,0-1.39,0c-0.12,0.45-0.2,0.77-0.21,0.79c-1.55,0.82-2.9,1.54-3.94,2.1
	c-0.51,1.07-0.89,1.86-1.26,2.64c-0.58,0.05-1.14,0.09-1.31,0.1c-1.09,1.54-1.91,2.85-2.9,4.01
	C593.61,565.63,592.82,565.52,591.98,565.66z M820.8,214.12c-2.33,2.23-0.29,5.4-1.85,7.83c-0.38,0.59-0.16,1.64-0.03,2.45
	c0.12,0.74,0.49,1.44,0.7,2.03c-0.35,0.48-0.6,0.84-0.58,0.81c0.24,1.43,0.5,2.4,0.54,3.39c0.1,2.64-0.24,5.32,0.73,7.88
	c0.47,1.23,1.28,2.43,1.36,3.68c0.33,4.83,4.4,7.65,6.08,11.74c0.46,0,0.93,0,1.31,0c1.03,1.4,2.01,2.74,3.09,4.22
	c0.34,0.04,0.9,0.1,1.44,0.16c0.16,0.45,0.31,0.87,0.44,1.23c0.88,0,1.67,0,2.36,0c0.37-0.7,0.79-1.25,0.96-1.87
	c0.18-0.66-0.17-1.69,0.2-2.02c2.36-2.13,1.35-5.66,3.39-7.87c-0.3-2.22,1.24-3.75,2.05-5.77c0.25-2.27,0.82-4.78,0.71-7.27
	c-0.09-2.14,0.41-4.19,0.97-6.05c0.89-2.93,0.83-5.87,0.29-8.59c-0.53-2.67-1.28-5.25-1.19-8.01c0.02-0.69,0.08-1.45-0.18-2.05
	c-1.28-2.91-2.67-5.77-4.05-8.71c0.11-5.94-2.16-11.24-5.03-16.32c-0.57-1.01-1.59-1.77-2.72-2.98c0.26-1.36-1.98-1.76-2.43-3.4
	c-1.01,0-2.04,0-3.09,0c-0.95,0.84-1.91,1.68-3.1,2.74c-0.17,0.01-0.73,0.05-1.23,0.09c-0.19,0.55-0.33,0.96-0.47,1.36
	c-0.56,0-1.03,0-1.52,0c-0.48,0.96-0.97,1.92-1.42,2.81c-0.66,0.05-1.21,0.09-1.84,0.14c0.41,3.41,2.12,6.01,3.69,9.24
	c0,3.6,0,7.71,0,11.26c1.15,1.36,1.97,2.33,2.99,3.54c-0.32,1.34-0.69,2.85-1.04,4.31C821.62,214.12,821.15,214.12,820.8,214.12z
	 M721.27,243.99c-1.85,0-3.5,0-5.4,0c-0.33,0.42-0.77,0.98-1.09,1.38c-0.92,0-1.62,0-2.3,0c-0.83-1.98-2.32-3.73-1.75-5.65
	c1.02-1.16,1.8-2.04,2.54-2.88c1.76,0,3.41,0,5.01,0c0.46-0.46,0.88-0.88,1.42-1.42c0.91,0,1.94,0,2.87,0
	c0.53-0.54,0.94-0.96,1.48-1.5c1.4,0,2.91,0,4.37,0c0.12-0.45,0.2-0.77,0.35-1.34c1.28,0,2.64,0,3.93,0c0.13-0.58,0.2-0.9,0.29-1.34
	c1.06,0,2.09,0,3.07,0c0.58-1.44,1.62-2.67,0.75-4.31c-5.43,0-10.87,0-16.31,0.02c-0.16,0-0.32,0.27-0.39,0.34
	c-0.12,0.41-0.22,0.73-0.35,1.14c-4.64,0-9.23,0-13.95,0c-0.07,1.91-0.49,3.74-0.58,5.46c-0.24,4.24-0.69,8.39-1.45,12.58
	c-0.5,2.78-1.32,5.64-0.85,8.58c0.1,0.64-0.23,1.3-0.39,1.94c-0.75,2.92-1.28,5.91-1.68,8.91c-0.38,2.84-0.5,5.72-0.75,8.59
	c-0.02,0.22-0.04,0.5-0.18,0.63c-1.44,1.35,0.47,3.56-1.24,4.83c0,1.75,0,3.49,0,5.5c1.76-1.42,3.13-2.76,4.72-3.76
	c1.65-1.05,2.66-2.74,4.34-3.77c1.75-1.07,3.25-2.55,5.03-3.99c0.3-0.02,0.86-0.06,0.82-0.06c1.73-1.67,3.2-2.85,4.37-4.28
	c0.78-0.95,2.26-1.16,2.62-1.85c0.4-0.76,1.13-0.73,1.32-1.15c0.34-0.76,1.22-1.04,1.43-1.48c0.69-1.43,2.62-1.57,3.02-2.94
	c0.97-3.28,2.6-6.29,3.6-9.53c0.4-1.27,0.14-2.87,0.81-3.92c1.49-2.35,1.64-5.03,2.33-7.48c0.42-0.08,0.74-0.15,1.5-0.3
	c-0.67-0.54-1.09-0.88-1.42-1.15c-1.53,0-2.94,0-4.3,0c-1.01,0.89-1.97,1.74-3.26,2.89c-1.02,0-2.53,0-4,0
	C721.5,243.1,721.42,243.42,721.27,243.99z M752.6,181.43c-1.37,1.25-1.33,2.74-1.29,4.23c0.02,0.71,0.27,1.6-0.05,2.1
	c-0.9,1.4-0.6,2.89-0.66,4.36c-1.7,1.01,0.24,2.59-0.54,3.82c-0.1,0.16,0.48,0.86-0.12,1.5c-0.48,0.51-0.69,1.41-0.73,2.15
	c-0.07,1.37-0.1,2.67-0.69,3.99c-0.49,1.09-0.54,2.38-0.76,3.59c-0.26,1.44-0.13,3.07-0.79,4.29c-1.44,2.67-1.5,5.39-1.24,8.35
	c5.32,0,10.52,0,15.71,0c1.05,0,2.1,0,2.94,0c2.23-3.56,2.79-7.3,2.59-11.22c-0.09-1.77-0.03-3.55-0.01-5.33
	c0.01-0.57-0.13-1.31,0.16-1.69c1.07-1.4,0.33-2.95,0.54-4.41c0.25-1.76-1.22-2.54-2.11-3.69c-1.62-2.09-3.11-4.3-5.6-5.28
	c-0.74-2.95-4.16-3.91-4.63-6.77C754.2,181.43,753.26,181.43,752.6,181.43z M677.72,538.96c0.69-2.08,1.19-3.53,1.65-4.99
	c0.59-1.9,1.73-3.64,1.56-5.76c-0.03-0.39,0.21-0.87,0.46-1.21c0.96-1.28,1-2.73,0.94-4.23c-0.03-0.82-0.25-1.78,0.09-2.44
	c0.99-1.92,0.99-4.07,1.69-6.05c0.73-2.07,1.32-4.19,2.02-6.26c0.92-2.74,0.82-3.09-1.53-5.33c-0.28-0.27-0.3-0.8-0.48-1.31
	c-2.02,0-4,0-5.94,0c-0.12-0.45-0.2-0.77-0.3-1.15c-4.42,0-8.85,0-12.68,0c-0.93,0.81-1.45,1.25-2.02,1.74
	c-0.09,0.67,0.1,1.83-0.35,2.17c-0.91,0.7,0.48,0.98,0.03,1.62c-0.41,0.59-0.38,1.5-0.45,2.28c-0.07,0.7-0.01,1.42-0.01,2.13
	c0,0.82,0,1.63,0,2.54c0.92,0.67,1.83,1.34,2.59,1.9c1.7,2.19,0.96,5.47,3.8,7.33c-0.49,2.41,1.27,4.62,1.63,7.15
	c1.99,1.74,2.02,4.37,2.94,6.42c0.44,0.17,0.76,0.29,1.17,0.45c-0.36,0.36-0.53,0.53-0.75,0.75
	C675.02,537.41,676.21,538.1,677.72,538.96z M612.56,427.82c-0.43-0.43-0.89-0.97-1.43-1.41c-0.4-0.33-1.32-0.59-1.29-0.79
	c0.15-1.21-1.21-0.68-1.33-1.19c-0.29-1.25-1.13-2.19-2.12-2.51c-1.02-0.33-0.95-2.31-2.51-1.51c-0.78-0.91-1.57-1.83-2.53-2.94
	c-0.77,0-1.8,0-2.79,0c-0.12-0.44-0.2-0.76-0.35-1.33c-0.81,0-1.69,0-2.5,0c-0.15-0.57-0.23-0.89-0.39-1.48
	c-2.02,1.17-2.47-2.28-4.51-1.3c-0.99-1.04-1.88-1.98-2.76-2.91c-1.69,0-3.34,0-4.99,0c-0.49-1.52-2.23-1.67-2.77-2.76
	c-1.2,0-2.12,0-3.39,0c0.36,1.95,0.7,3.78,1.06,5.71c0.67,0,1.22,0,1.71,0c0.39,1.88,0.74,3.63,1.11,5.4
	c0.37,0.13,0.78,0.28,1.17,0.42c0.05,0.86,0.09,1.66,0.13,2.42c0.44,0.11,0.76,0.2,1.08,0.28c0.93,4.79,3.56,8.75,6.54,12.88
	c3.46-0.28,6.9-2.31,10.63-1.56c0.16-0.61,0.24-0.93,0.39-1.5c3.65,0,7.38,0,10.88,0C611.94,430.39,612.2,429.31,612.56,427.82z
	 M789.59,168.55c1.27-3.25,2.43-6.21,3.6-9.22c0-1.07,0-2.23,0-3.32c-1.16-0.24-2.21-0.45-3.2-0.65c-0.46,0.16-0.94,0.33-1.41,0.5
	c-0.23-0.65-0.38-1.07-0.66-1.87c-0.6,0.73-1.02,1.25-1.37,1.67c-1.07,0-2.1,0-3.09,0c-0.12-0.45-0.2-0.77-0.31-1.19
	c-1,0-2.04,0-2.9,0c-0.93,0.62-1.76,1.19-2.52,1.69c-0.13,0.59-0.22,1.15-0.38,1.69c-0.36,1.15-1.07,2.3-1.07,3.44
	c0.02,2.55-0.87,4.87-1.56,7.21c-0.36,1.22-0.72,2.38-0.63,3.64c0.24,3.46-0.03,6.9,0.53,10.4c0.55,3.45-0.31,7.13-0.53,10.7
	c-0.02,0.31,0.15,0.63,0.2,0.83c0.92,0,1.71,0,2.38,0c0.57-1.18,1.06-2.22,1.55-3.24c-0.24-0.23-0.41-0.4-0.7-0.68
	c0.76-0.14,1.41-0.26,2.2-0.41c0.36-1.33,0.74-2.71,1.11-4.09c0.23,0,0.47,0,0.71,0c0.56-1.08,1.11-2.15,1.7-3.3
	c0.32-2.97,0.66-6.06,1.04-9.57c0.53-1.63,3.36-1.88,3.56-4.25C788.53,168.55,788.99,168.55,789.59,168.55z M796.95,202.49
	c-0.74,0.14-1.38,0.26-2.17,0.41c-1.5,4.46-1.23,9.24-2.39,13.93c1.42,0,2.54,0,3.61,0c0.12-0.46,0.2-0.78,0.36-1.39
	c4.46,1,8.58-1.54,12.86-1.4c0.68-0.51,1.24-1.31,1.76-1.28c2.37,0.12,2.83-1.92,3.49-3.27c0.71-1.44,0.69-3.28,0.83-4.96
	c0.12-1.41,0.14-2.84-0.01-4.25c-0.14-1.44-0.53-2.86-0.94-4.89c-0.36-0.3-1.16-0.97-1.8-1.51c-0.08-1.01-0.15-1.78-0.2-2.4
	c-1.06,0-1.85,0-2.6,0c-0.15,0.54-0.26,0.94-0.37,1.32c-0.66,0-1.13,0-1.65,0c-0.15,0.42-0.29,0.83-0.47,1.33
	c-0.75,0.04-1.55,0.08-2.28,0.11c-0.32,0.5-0.63,1.33-0.87,1.31c-1.21-0.12-0.61,1.16-1.17,1.38c-0.71,0.28-1.45,0.17-2.21,0.71
	c-1.7,1.21-2.86,2.91-4.56,4.09C796.51,202.05,796.68,202.21,796.95,202.49z M818.87,258.21c0.25-3.86-0.86-6.98-2.49-9.97
	c-0.5,0-0.97,0-1.37,0c-1.26-1.88-2.49-3.72-3.77-5.63c-1.56-0.19-1.93-1.81-2.81-2.87c-0.47-0.02-0.93-0.04-1.35-0.06
	c-0.44-0.97-0.85-1.86-1.24-2.72c-1.39-0.76-4.78-4.15-5.7-5.69c-0.55-0.06-1.1-0.13-1.72-0.2c-0.23-2.22-2.39-2.56-3.71-3.7
	c-0.58-0.5-1.68-0.41-2.51-0.58c-0.25,0.62-0.42,1.03-0.58,1.43c-0.4,0.14-0.81,0.28-0.96,0.33c-0.36,1.54-0.66,2.84-0.98,4.24
	c0.46,1.24,2.47,1.08,2.52,2.68c0.56,0,1.03,0,1.49,0c0.26,1.2,1.79,1.45,1.97,2.7c1.42-0.35,2.17,0.91,2.76,1.62
	c0.78,0.94,1.84,1.42,2.63,2.35c0,0.98,0,2.01,0,2.33c-0.78,1.15-1.25,1.83-1.56,2.28c-1.1,0.07-1.88,0.13-2.63,0.18
	c0,0.73,0,1.2,0,1.82c3.27,1.67,6.6,3.36,10.35,5.28c0.2,0,0.88,0,1.53,0c0.18,0.51,0.32,0.92,0.46,1.32c0.78,0,1.49,0,1.75,0
	C813.65,256.72,815.81,258.34,818.87,258.21z M609.04,456.4c-1.86-0.79-3.45-1.47-4.81-2.05c-0.2-0.6-0.3-0.91-0.44-1.32
	c-1.31,0-2.58,0-3.81,0c-0.11-0.44-0.2-0.76-0.25-0.95c-4.71-1.58-6.92-5.91-10.52-8.79c-1.73,0-3.7,0-5.06,0
	c-2.44,1.7-3.03,4.05-4.23,6.02c-0.48,0.78,1.72,6.09,2.58,6.69c0.43,0,0.89,0,1.41,0c0.15,0.42,0.3,0.83,0.46,1.28
	c0.54,0.06,1.1,0.13,2.07,0.24c0.19,0.32,0.56,0.92,0.83,1.38c1.01,0,1.7,0,2.35,0c0.17,0.5,0.32,0.91,0.5,1.42
	c1.54,0,3.04,0,4.51,0c0.11,0.44,0.2,0.76,0.22,0.84c1.22,0.62,2.29,1.17,3.49,1.78c3.16,0,6.55,0,9.76,0
	c0.33-0.67,0.58-1.17,0.93-1.89C609.04,459.68,609.04,458.03,609.04,456.4z M604.29,482.97c2.16-1.61,4.02-3.26,5.54-5.72
	c-1.11,0-1.98,0-2.78,0c-0.12-0.58-0.19-0.9-0.26-1.25c-0.62-0.07-1.18-0.14-1.75-0.2c-0.17-0.41-0.33-0.82-0.51-1.25
	c-0.54-0.06-1.1-0.12-1.64-0.18c-0.21-0.5-0.4-0.97-0.68-1.64c-0.62,0.44-0.98,0.69-1.35,0.95c-1.25-0.92-2.67-1.77-3.42-3.42
	c-0.75-0.04-1.55-0.08-1.63-0.08c-1.68-0.82-3.22-1.07-3.71-1.92c-0.68-1.2-2.29-1.03-2.54-2.48c-1.63,0-3.13,0-4.58,0
	c-0.1-0.47-0.18-0.79-0.26-1.19c-0.9-0.07-1.79-0.14-2.58-0.2c-0.11-0.55-0.18-0.87-0.24-1.16c-0.74-0.14-1.39-0.26-1.91-0.36
	c-0.11-0.5-0.19-0.82-0.26-1.16c-0.89-0.04-1.68-0.08-2.21-0.11c-0.89-1.04-1.6-1.88-2.47-2.91c-0.55,0-1.35,0-2.1,0
	c-0.18-0.53-0.32-0.93-0.5-1.44c-2.27,0-4.48,0-6.65,0c-0.12-0.46-0.2-0.78-0.35-1.35c-0.82,0-1.7,0-2.5,0
	c-0.12-0.58-0.19-0.9-0.25-1.18c-1.2,0-2.32,0-3.68,0c0.49,1.03,0.86,1.82,1.24,2.6c0.57,0.06,1.13,0.11,1.65,0.17
	c0.17,0.5,0.32,0.91,0.5,1.42c0.59,0,1.15,0,1.66,0c0.18,0.53,0.32,0.95,0.45,1.33c0.81,0,1.52,0,1.82,0
	c1.66,1.54,3.1,2.89,4.64,4.31c0.98,0,2.01,0,2.93,0c0.53,0.54,0.94,0.96,1.48,1.5c0.45,0,1.01,0,1.52,0
	c0.17,0.53,0.3,0.93,0.42,1.32c0.6,0,1.07,0,1.58,0c0.66,2.11,3.35,2.2,4.19,4.33c0.99,0,2.02,0,3,0c0.18,0.54,0.33,0.95,0.46,1.34
	c0.56,0,1.03,0,1.52,0c0.48,0.96,0.97,1.92,1.45,2.88c1.24,0,2.41,0,3.68,0c0.26,1.91,2.65,2.11,3.08,3.92
	c1.91,0.53,3.65,1.3,4.65,3.12C602.14,482.97,603.31,482.97,604.29,482.97z M669.9,539.91c-0.19-1.37-0.38-2.73-0.58-4.16
	c-0.39-0.37-0.82-0.77-1.24-1.16c0-0.98,0-1.92,0-2.19c-0.63-1.61-0.99-2.63-1.42-3.64c-0.84-1.97-0.95-4.11-1.35-6.17
	c-0.23-1.18-0.96-1.81-1.56-3.32c-1.73,3.73-2.07,7.02-2.1,9.76c-1.08,2.54-2.26,4.48-2.72,6.58c-0.61,2.82,0.41,5.67,0.95,8.44
	c0.73,3.75,1.86,7.42,1.81,11.3c-0.02,1.6-0.1,3.2,0.99,4.33c0.93,0,1.72,0,2.19,0c0.89-1.54,1.48-2.96,2.42-4.09
	c1.32-1.57,3.34-2.63,2.99-5.19c-0.06-0.42,0.52-0.92,0.75-1.29c-0.77-0.77-1.41-1.41-2.06-2.05c-0.5-0.05-1.05-0.1-1.35-0.12
	c-0.37-1.6-0.66-2.9-0.96-4.21c0.61-0.93,1.21-1.86,1.82-2.8C668.92,539.91,669.4,539.91,669.9,539.91z M801.35,223.53
	c0.27,2.2,2.26,3.06,3.51,4.4c1.33,1.43,2.89,2.64,4.21,4.22c1.3,1.55,2.69,3.04,3.74,4.59c0.65,0,1.2,0,2.02,0
	c-0.32-2.3-0.42-4.47-0.96-6.52c-0.59-2.23,1.93-4.33,0.12-6.56c0.18-0.19,0.41-0.44,0.66-0.7c-0.35-1.04-0.69-2.07-1.04-3.13
	c-0.46,0-0.93,0-1.45,0c-0.46,0.44-0.97,0.92-1.6,1.53c-1.37,0-2.87,0-4.33,0c-0.12,0.45-0.2,0.77-0.34,1.3
	C804.27,222.58,802.57,222.6,801.35,223.53z M741.14,255.25c1.1,0,1.9,0,2.83,0c0.83-0.73,1.8-1.57,3.06-2.68
	c0.18-0.03,0.82-0.15,1.18-0.22c0.3-0.63,0.47-0.99,0.58-1.21c0.72-0.05,1.18-0.07,1.6-0.1c0.33-1.44,1.43-2,2.35-2.85
	c1.54-1.41,3.27-2.72,4.26-4.66c0.14-0.28,0.15-0.63,0.25-1.06c1.11,0,2.14,0,3.1,0c0.36-0.84,0.66-1.54,0.95-2.21
	c-0.7-1.64-2.21-2.39-3.27-3.32c-1.11,0-2.04,0-3,0c-0.37,2.27-2.75,3.27-3.18,5.44c-1.52-0.55-0.82,1.86-2.12,1.59l-2.67,2.22
	c-0.87,1.59-2.04,2.97-3.3,4.25C742.46,251.78,742.04,253.48,741.14,255.25z M598.9,443.26c-0.05,0.53-0.28,1.13-0.08,1.34
	c0.53,0.56,1.2,1.01,1.87,1.4c0.85,0.49,1.76,0.88,3.08,1.52c0.19,0,0.87,0,1.47,0c0.5,0.5,0.92,0.92,1.22,1.22c0.91,0,1.7,0,2.32,0
	c0.86-1.72,1.64-3.28,2.42-4.83c-1.01-1.6-1.01-3.25-0.12-4.95c-4.74,0-9.31,0-13.85,0c-0.19,0.46-0.26,0.97-0.55,1.24
	c-0.32,0.31-0.84,0.4-1.38,0.64c0.87,0.9,1.49,1.54,2.33,2.41C597.84,443.26,598.4,443.26,598.9,443.26z M679.12,488.69
	c-0.52,0.52-0.94,0.94-1.33,1.33c-0.89,0.1-1.75,0.2-2.93,0.33c0.91,1.05,1.55,1.8,2.26,2.61c0.6,0,1.31,0,2.26,0
	c0.32,0.42,0.75,0.98,1.13,1.46c0.87,0,1.56,0,2.98,0c0.09,0.22,0.36,0.91,0.51,1.29c1.27,0,2.19,0,3.08,0
	c1.36-2.91,1.39-5.7-0.03-8.44c-0.87,0-1.57,0-2.56,0c-0.3,0.41-0.72,0.98-1.03,1.41C681.93,488.69,680.62,488.69,679.12,488.69z
	 M654.32,511.33c0.69,0,1.48,0,2.22,0c1.68-3.67,0.51-7.4,0.92-11.16c-2.5,0.22-4.86-2.25-7.15,0.47c0.19,0.51,0.72,1.25,0.65,1.94
	c-0.16,1.67,0.71,3.03,1.05,4.54c0.17,0.76,0.27,1.54,0.43,2.3c0.04,0.2,0.2,0.38,0.31,0.58c0.06-0.05,0.12-0.11,0.18-0.16
	C653.33,510.25,653.71,510.67,654.32,511.33z M681.5,478.7c0.32-2.18-1.95-2.57-2.29-4.18c-2.43,0-4.87,0-7.28,0
	c-1.11,1.74-3.78,1.24-4.6,3.48c0.06,0.64,0.12,1.41,0.19,2.15c2.25,0,4.26,0,6.26,0c0.82,0,1.94,0.34,2.42-0.06
	C677.79,478.75,679.67,478.67,681.5,478.7z M643.97,461.63c1.29,0.12,2.41-0.34,3.17,0.71c0.75-1.13,1.91-0.59,2.9-0.66
	c1.02-0.08,2.04-0.02,2.46-0.02c1-0.98,1.56-1.51,2.1-2.05c-0.59-1.21-1.16-2.39-1.74-3.58c-2.19,0-4.39,0-6.07,0
	c-0.93,0.79-1.52,1.28-2.09,1.77c0.19,0.23,0.39,0.47,0.62,0.75c-0.48,0.18-0.89,0.34-1.35,0.52
	C643.97,459.84,643.97,460.63,643.97,461.63z M794.43,177.08c0.64-0.72,2.24-1.09,1-2.6c0.36-0.09,0.68-0.17,1.24-0.31
	c0.32-1.65,1.99-3,1.64-5.13c-0.07-0.44,0.33-1.08,0.69-1.44c0.56-0.56,1.65-0.44,1.5-1.86c-0.08-0.79,0.76-1.84,1.43-2.52
	c1.29-1.32,0.68-2.99,1.44-4.51c-1.39,0-2.42,0-3.39,0c-1.04,1.1-0.42,2.67-1.52,3.88c-0.73,0.81-0.67,2.45-1.54,3.58
	c-0.31,0.4,0.18,1.43,0.34,2.36C794.85,170.57,793.88,173.53,794.43,177.08z M639.48,507.11c0.52-1.5,1.16-3.01,1.55-4.58
	c0.46-1.84-0.52-3.49-0.96-5.22c-0.55,0-1.11,0-1.55,0c-0.87,1.16-1.65,2.22-2.44,3.27c-0.78,1.04-1.57,2.07-2.34,3.1
	c0.41,0.45,0.7,0.67,0.84,0.97c0.18,0.36,0.23,0.78,0.32,1.09c0.77,0.05,1.32,0.08,1.78,0.1c0.12,0.57,0.18,0.89,0.26,1.28
	C637.78,507.11,638.57,507.11,639.48,507.11z M740.35,244.21c2.17-1.02,2.62-2.85,3.43-4.41c0.56-0.06,1.12-0.12,1.6-0.17
	c0.45-0.99,0.85-1.88,1.15-2.53c0.58-0.25,0.95-0.41,1.44-0.63c-0.57-1-1.02-1.8-1.76-3.09c-0.42,1.02-0.61,1.48-0.81,1.98
	c-0.54,0.06-1.1,0.12-1.65,0.18c-0.17,0.42-0.34,0.83-0.55,1.35c-0.74,0-1.53,0-2.27,0c-0.65,1.41-1.25,2.7-1.77,3.83
	C739.58,241.96,739.93,242.99,740.35,244.21z M627.7,502.92c1.33-2.17,2.61-4.24,4.12-6.7c-0.01-0.27-0.05-1.06-0.08-1.72
	c-1.31,0-2.34,0-2.92,0c-1.8,1.79-3.33,3.31-4.95,4.92c0.27,0.36,0.54,0.7,0.79,1.03c-0.21,0.25-0.42,0.49-0.76,0.88
	c0.79,0.12,1.44,0.22,2.06,0.31c0.16,0.49,0.3,0.9,0.44,1.28C626.95,502.92,627.43,502.92,627.7,502.92z M819.07,171.03
	c-0.29-0.51-0.55-0.97-0.82-1.43c0.18-0.21,0.39-0.45,0.73-0.84c-0.79-0.12-1.43-0.21-1.36-0.2c-1.93-1.39-2.84-3.16-5.08-2.73
	c0,2.64,0,5.07,0,7.59c0.55,0.34,1.1,0.67,1.75,1.06c0.22-0.63,0.36-1.03,0.58-1.68c1.03,0,2.14,0,3.5,0
	c-0.45-0.51-0.66-0.75-0.91-1.03C817.95,171.55,818.43,171.33,819.07,171.03z M650.9,566.13c-0.47,1.58-1.36,2.32-1.31,3.66
	c0.04,1.3,0.5,2.93-0.1,3.83c-1.11,1.64-0.25,3.1-0.62,4.6c0.52,0.06,0.75,0.08,1.06,0.12c0.47-0.94,0.96-1.9,1.41-2.8
	c0.38-0.08,0.7-0.14,1.04-0.21C652.59,572.38,652.48,569.59,650.9,566.13z M624.75,480.37c2.17-0.63,4.25,0.7,5.6-1.3
	c-0.24-0.27-0.46-0.53-0.74-0.84c0.45-1.2,1.48-2.39,0.52-3.65c-1.13,0-2.16,0-3.07,0c-0.47,1.02-0.87,1.9-1.24,2.71
	c-0.69,0.03-1.24,0.05-2.15,0.09C624.08,478.51,624.37,479.32,624.75,480.37z M637.54,440.33c-1.01,0.16-2.4-0.32-3.67,0.33
	c0.44,1.24,0.8,2.24,1.2,3.38c0.78-0.22,1.49-0.43,2.01-0.58c0.94,0.82,1.89,1.65,2.97,2.59c0.99-0.06,2.08-0.13,3.17-0.2
	c-0.04-0.5-0.06-0.73-0.09-1.1c-0.62-0.1-1.26-0.2-1.46-0.23C640.24,443.06,639.08,441.89,637.54,440.33z M616.04,485.62
	c0-1.41,0-2.68,0-3.91c-0.34-0.06-0.69-0.2-0.76-0.12c-0.32,0.4-0.57,0.86-0.86,1.33c-0.51,0.06-1.06,0.12-1.69,0.19
	c-0.06,0.34-0.03,0.9-0.18,0.95c-2.02,0.69-2.12,2.33-2.07,4.04c0.01,0.19,0.21,0.38,0.33,0.56c0.5-0.48,1-0.95,1.5-1.43
	c0.72,0,1.42,0,2.05,0C615,486.63,615.59,486.06,616.04,485.62z M808.63,141.58c-1.61,2.58,1.73,3.49,1.09,5.61
	c0.72,0,1.28,0,1.77,0c0.6-1.25,1.17-2.43,1.82-3.8c-0.67-0.55-1.37-1.14-2.18-1.81C810.41,141.58,809.47,141.58,808.63,141.58z
	 M828.16,272.59c0.26,1.29,0.35,2.41,0.73,3.44c0.38,1.02,1.03,1.94,1.62,2.99c1.05-1.65,1.55-3.2,1.13-4.68
	C830.41,273.73,829.37,273.2,828.16,272.59z M654.22,474.34c2.04,0,3.62,0,5.16,0c0-0.97,0-1.84,0-2.62c-1.2,0-2.22,0-2.97,0
	C655.62,472.68,655.05,473.36,654.22,474.34z M654.98,555.64c-0.16,1.03-0.29,1.84-0.42,2.63c0.61,0.14,0.93,0.21,1.49,0.34
	c0,0.83,0,1.72,0,2.83c0.67-0.23,1.05-0.35,1.26-0.43c-0.54-2.91-1.04-5.6-1.56-8.38C654.49,553.7,653.97,554.71,654.98,555.64z
	 M641.78,474.2c-1.06-1.74-2.58-1.01-3.87-1.14c-0.12-0.01-0.27,0.31-0.54,0.65c0.43,0.52,0.88,1.08,1.38,1.69
	C639.86,474.96,640.75,474.61,641.78,474.2z M682.5,462.99c1.97-0.3,2.97-1.66,4.49-1.42c0.06,0.01,0.23-0.71,0.4-1.25
	c-1.07,0-1.87,0-2.78,0C684.04,461.04,683.43,461.81,682.5,462.99z M699.42,456.23c-2.17-0.35-3.59-0.36-5.1-0.09
	c0.11,0.53,0.17,0.85,0.23,1.14C697.48,457.4,697.48,457.4,699.42,456.23z M395.61,360.61c0.09,1.1,0.16,2.01,0.23,2.92
	c0.2,0.05,0.4,0.1,0.61,0.14c0.5-0.86,1-1.71,1.67-2.87C397.16,360.73,396.53,360.68,395.61,360.61z M680.12,463.21
	c-0.88,0.06-2.12-0.81-2.06,1.17c0.75,0,1.38,0,2.06,0C680.12,463.94,680.12,463.63,680.12,463.21z M791.38,189.7
	c-0.48-0.98-0.87-1.77-1.53-3.11c0,1.5,0,2.36,0,3.4C790.39,189.88,790.78,189.81,791.38,189.7z M632.52,454.73
	c-0.71,0-1.42,0-2.22,0c0.1,0.51,0.17,0.83,0.26,1.27c0.72-0.06,1.35-0.12,1.96-0.17C632.52,455.37,632.52,455.14,632.52,454.73z
	 M777.9,237.96c-0.14,0.71-0.21,1.1-0.32,1.64c0.8,0,1.43,0,2.55,0C779.21,238.93,778.67,238.53,777.9,237.96z"/>
<path d="M815.11,453.33c0.35,0.7,0.64,1.28,1.04,2.08c-0.54,0.72-1.14,1.52-2.13,2.83c0,0.09,0,0.88,0,1.88
	c0.77,0.07,1.65,0.14,2.82,0.25c0.25,0.75,0.53,1.56,0.88,2.59c-1.35,0-2.38,0-3.28,0c-0.64,0.61-1.14,1.09-1.63,1.55
	c-1.91,0-3.8,0-5.85,0c0-1.24,0-2.5,0-4.11c0.26-0.19,0.82-0.61,1.32-0.99c-1.5-3.11-0.38-6.18,2.43-6.96
	c0.49-0.14,1.11,0.1,1.66,0.22C813.25,452.85,814.11,453.08,815.11,453.33z"/>
<path d="M713.08,430.03c0.82,0.52,1.36,0.86,2.1,1.34c-0.7,0.5-1.25,0.9-2.1,1.5C713.08,431.77,713.08,431.07,713.08,430.03z"/>
</svg>
