<?xml version="1.0" encoding="utf-8"?>
<!-- Generator: Adobe Illustrator 24.1.0, SVG Export Plug-In . SVG Version: 6.00 Build 0)  -->
<svg version="1.1" id="Layer_1" xmlns="http://www.w3.org/2000/svg" xmlns:xlink="http://www.w3.org/1999/xlink" x="0px" y="0px"
	 viewBox="0 0 1224 792" style="enable-background:new 0 0 1224 792;" xml:space="preserve">
<path d="M758.77,664.68c-6.04,0.73-9.17,7.02-13.75,11.21c-4.5,4.12-9.51,7.22-14.86,9.81c-9.64,4.68-19.37,9.2-29.18,13.52
	c-12.7,5.59-25.71,10-39.64,11.72c-9.91,1.23-19.73,3.41-29.47,5.7c-11.6,2.73-22.99,6.33-34.6,9c-8.13,1.87-16.48,2.83-24.74,4.15
	c-10.51,1.68-20.99,3.82-31.57,4.85c-17.44,1.69-34.51-0.13-50.93-6.98c-10.4-4.34-20.02-9.95-29.46-15.99
	c-9.95-6.37-20.8-10.8-31.99-14.56c-7.41-2.49-14.59-5.68-21.89-8.49c-3.74-1.44-7.53-2.74-11.3-4.09
	c-6.23-2.23-11.46-6.12-16.09-10.61c-5.74-5.56-11.19-11.47-16.26-17.64c-3.67-4.47-6.52-9.6-9.71-14.45
	c-3.4-5.17-6.99-10.22-10.1-15.56c-3.79-6.5-7.32-13.18-10.7-19.91c-3.79-7.55-7.36-15.2-10.88-22.88
	c-3.03-6.62-6.04-13.26-8.72-20.02c-4.14-10.46-8.19-20.96-11.9-31.58c-2.66-7.63-4.8-15.45-6.99-23.23
	c-1.08-3.84-1.79-7.79-2.58-11.71c-0.59-2.96-2.1-3.67-4.58-1.99c-2.26,1.53-4.61,2.96-6.71,4.69c-0.81,0.67-1.7,2.33-1.39,3
	c0.43,0.93,1.95,1.37,3.03,1.97c0.19,0.11,0.53-0.04,0.8-0.09c7.07-1.26,6.98,1.53,8.64,6.92c0.76,2.46-1.2,3.9-3.85,3.02
	c-2.5-0.83-4.85-2.08-7.34-2.95c-1.92-0.68-4-1.64-5.92-1.47c-11.46,1.03-20.15-4.47-28.17-11.59c-0.88-0.78-1.56-2.3-1.55-3.48
	c0.05-10.23-1.42-20.3-2.9-30.37c-0.74-5.08-0.6-6.57,3.96-9.15c3.64-2.06,7.22-3.22,11.4-2.93c5.18,0.36,10.39,0.34,15.57,0.68
	c2.13,0.14,4.22,0.8,6.93,1.35c-0.94-4.36-1.98-8.48-2.7-12.65c-1.4-8.06-2.7-16.14-3.92-24.24c-1.71-11.34-3.57-22.66-4.88-34.05
	c-1.06-9.21-1.38-18.51-2.07-27.77c-0.78-10.54-1.79-21.06-2.36-31.6c-0.49-8.99-0.85-18.02-0.59-27.01
	c0.22-7.69,3.14-14.78,6.08-21.9c6.79-16.44,13.69-32.87,18.12-50.16c1.13-4.39,1.69-8.94,2.36-13.44c0.27-1.83,0.81-3,2.62-4.02
	c3.22-1.82,5.99-4.44,9.17-6.35c7.75-4.66,14.29-10.67,19.88-17.68c2.46-3.08,5.47-5.04,8.88-6.91c3.27-1.79,6.01-4.63,8.83-7.19
	c4.09-3.71,8.22-7.42,12-11.43c2.79-2.96,5.12-6.35,7.54-9.64c3.44-4.68,7.5-9.1,9.97-14.26c2.69-5.64,7.51-8.02,12.38-10.34
	c5.26-2.51,9.68-5.93,13.84-9.85c6.35-5.98,12.86-11.79,19.04-17.93c4.76-4.73,8.88-10.12,13.73-14.75
	c5.77-5.51,11.99-10.55,18.06-15.74c5.27-4.5,11.81-5.67,18.32-7.12c6.11-1.36,12.11-3.25,18.13-5.04
	c5.92-1.76,11.83-3.6,17.68-5.58c3.35-1.13,6.57-2.64,9.87-3.92c8.54-3.31,17.13-6.49,25.62-9.92c5.81-2.35,11.42-5.21,17.24-7.56
	c8.44-3.4,17.34-4.98,26.37-5.26c15.38-0.48,30.78-0.92,46.16-0.65c8.42,0.15,16.87,1.4,25.2,2.81c8.86,1.51,17.71,3.38,26.34,5.85
	c9.09,2.6,18.12,5.64,26.81,9.35c8.14,3.48,15.89,7.75,22.38,14.26c4.24,4.25,10.3,6.67,14.66,10.83
	c7.19,6.87,16.05,11.32,23.58,17.61c6.4,5.34,11.24,11.97,14.4,19.59c3.12,7.52,5.69,15.28,8.26,23.02
	c2.7,8.11,7.3,14.9,13.91,20.15c4.03,3.2,6.67,7.12,8.47,11.77c2.65,6.86,5.69,13.61,7.79,20.63c2.66,8.87,4.76,17.92,6.7,26.98
	c1.82,8.51,2.99,17.16,4.74,25.69c0.55,2.69,2.28,5.12,3.1,7.78c0.86,2.77,1.22,5.69,1.9,8.51c0.27,1.14,0.62,2.35,1.28,3.28
	c1.18,1.67,3.36,3.08,0.23,4.94c-0.25,0.15-0.1,1.03-0.06,1.57c0.23,2.88,0.43,5.77,0.74,8.64c0.36,3.31,0.82,6.61,1.26,9.91
	c0.35,2.61,0.62,5.23,1.13,7.81c0.96,4.88,1.99,9.74,3.11,14.58c1.87,8.05,3.81,16.08,5.77,24.11c0.82,3.34,1.96,6.6,2.62,9.96
	c0.52,2.65,0.7,5.4,0.73,8.11c0.04,5.62,1.06,10.99,3.45,16.09c0.28,0.6,0.13,1.4,0.28,2.08c0.25,1.14,0.22,2.83,0.95,3.28
	c2.45,1.56,2.57,4.41,4.1,6.43c0.51,0.68,0.92,1.76,0.77,2.54c-1.06,5.27,2.93,8.98,4.13,13.54c0.17,0.64,1.72,1.07,2.7,1.3
	c2.12,0.49,4.35,0.59,6.42,1.22c2.51,0.76,3.64,4.13,1.73,5.61c-2.47,1.91-2.22,4.26-1.94,6.59c0.85,6.93-0.56,13.52-2.38,20.12
	c-0.69,2.51-1.05,5.14-1.26,7.74c-0.2,2.46-1.67,4.83-3.4,4.5c-2.42-0.46-2.97-2.3-2.89-4.55c0.2-5.99,0.68-12,0.34-17.97
	c-0.28-5.04-1.53-10.03-2.39-15.03c-0.32-1.87-1.48-2.79-3.4-2.92c-1.91-0.13-3.82-0.34-5.69-0.71c-2.34-0.45-3.28,0.64-3.29,2.75
	c-0.03,8.28-0.22,16.57,0.1,24.84c0.24,6.17,1.25,12.3,1.76,18.46c0.16,1.88-0.3,3.8-0.29,5.7c0.01,1.79,0.81,2.27,2.44,1.2
	c2.05-1.34,4.19-2.54,6.28-3.82c5.03-3.08,9.91-2.15,11.5,3.36c2.4,8.29,5.16,16.75,2.84,25.68c-1.78,6.85-5.65,12.47-10.85,16.95
	c-1.6,1.38-5,1.09-7.5,0.85c-2.07-0.2-2.4-2.36-2.65-4.28c-0.13-0.98-0.86-1.88-1.32-2.82c-0.79,0.53-1.72,0.94-2.35,1.62
	c-2.46,2.61-5.24,4.6-8.61,5.97c-1.14,0.47-2.4,2.41-2.37,3.65c0.09,3.52,1.07,7,1.23,10.52c0.11,2.57-0.15,5.29-0.91,7.73
	c-2.56,8.31-5.51,16.5-8.14,24.79c-2.91,9.18-5.48,18.48-8.49,27.62c-2.01,6.11-4.36,12.12-6.86,18.05
	c-2.43,5.77-4.81,11.63-7.98,17c-4.27,7.24-9.27,14.06-13.96,21.05c-2.13,3.17-4.31,6.31-6.34,9.54c-0.49,0.79-0.63,1.89-0.66,2.86
	c-0.11,3.16-0.36,6.03-3.38,8.19c-1.12,0.8-1.32,3.09-1.62,4.76c-0.47,2.62-2.55,4.01-4.5,4.48c-3.07,0.74-2.87,3.1-3.44,5.09
	c-0.34,1.21,0.35,3.23-0.3,3.72c-1.29,0.97-3.23,1.65-4.82,1.5c-2.13-0.2-2.9,0.8-3.76,2.3
	C761.88,659.73,760.52,661.84,758.77,664.68z M564.28,509.61c2.19-1.56,3.69-3.12,5.53-3.87c5.54-2.24,7.79-6.05,6.35-11.77
	c-0.69-2.74-0.26-5.07,1.32-7.43c1.89-2.82,3.25-6.01,5.22-8.78c2.34-3.29,2.59-7.5,5.33-10.68c2.31-2.69,1.31-6.17,0.52-9.38
	c-0.38-1.55-0.88-3.2-0.7-4.74c0.29-2.55,1.03-5.05,1.67-7.55c0.45-1.74,1.29-3.4,1.58-5.16c0.52-3.17,0.35-6.31,1.67-9.53
	c1.32-3.22,0.95-7.13,1.32-10.74c0.07-0.72-0.08-1.59,0.27-2.12c3.11-4.69,2.08-10.87,5.57-15.41c0.1-0.13,0.06-0.35,0.1-0.53
	c0.57-2.72,1.12-5.44,1.72-8.15c0.83-3.74,1.6-7.49,2.59-11.18c0.26-0.95,1.22-1.73,1.95-2.51c0.54-0.58,1.49-0.92,1.79-1.58
	c1.03-2.33,0.95-4.97,2.59-7.25c1.12-1.55,1.08-3.92,1.63-5.89c0.6-2.14,0.73-4.77,2.09-6.24c1.64-1.77,2.55-3.78,3.84-5.64
	c3.33-4.82,7.35-9.17,11-13.77c1.73-2.18,3.79-3.12,6.45-2.23c2.66,0.89,3.06,3.09,2.86,5.53c-0.01,0.18,0.04,0.36,0.08,0.54
	c1.46,8.06,1.51,16.04-1.17,23.91c-0.31,0.92-0.16,2.86,0.25,3.01c1.16,0.41,2.7,0.49,3.86,0.07c2.11-0.77,4.07-1.98,6.07-3.04
	c5.67-3.01,11.64-5.05,18.04-5.76c1.81-0.2,3.64-0.37,5.41-0.78c6.12-1.39,12.22-2.24,18.55-1.57c4.59,0.49,9.25,0.28,13.88,0.39
	c4.45,0.1,8.92-0.01,13.35,0.37c4.42,0.38,8.77,1.38,13.18,1.89c11.38,1.34,22.79,2.35,34.14,3.93c5.27,0.73,10.39,2.49,15.59,3.75
	c2.99,0.73,6.15,1.02,8.97,2.15c6.92,2.77,13.73,5.49,21.35,6.05c11.07,0.8,22.09,2.24,33.13,3.42c3.25,0.35,6.49,0.78,9.74,1.07
	c0.73,0.06,1.49-0.33,2.24-0.51c-0.23-0.61-0.49-1.22-0.7-1.84c-0.25-0.74-0.48-1.48-0.71-2.23c-0.69-2.23-1.26-4.5-2.08-6.68
	c-0.85-2.29-2.18-4.43-2.86-6.76c-1.81-6.24-3.93-12.32-4.27-19.03c-0.4-8.11-1.94-16.2-3.41-24.22
	c-1.34-7.29-1.79-14.84-5.77-21.48c-0.85-1.41-1.02-3.27-1.31-4.95c-0.46-2.69-0.77-5.41-1.14-8.12c-0.86-6.2-1.85-12.38-2.53-18.6
	c-0.57-5.23-0.88-10.49-1.14-15.74c-0.33-6.88-1.64-13.43-4.61-19.76c-1.75-3.73-2.67-7.95-3.42-12.04
	c-1-5.44-1.21-11.04-2.23-16.47c-1.56-8.29-3.23-16.59-5.41-24.74c-1.54-5.77-4.2-11.24-6-16.96c-2.27-7.23-6.8-12.59-12.34-17.58
	c-4.69-4.22-8.92-8.99-10.79-15.44c-2.19-7.57-4.69-15.06-7.34-22.48c-3.91-10.95-10.88-19.64-20.41-26.27
	c-4.78-3.33-9.65-6.51-14.37-9.92c-3.67-2.65-7.16-5.56-10.76-8.33c-3.38-2.61-7.13-4.84-10.11-7.84
	c-4.67-4.7-10.33-7.87-16.12-10.56c-7.49-3.48-15.53-5.73-23.18-8.9c-12.85-5.33-26.46-7.34-40.04-9.26
	c-7.91-1.12-15.96-1.49-23.97-1.73c-8.28-0.25-16.58-0.15-24.86,0.18c-6.62,0.26-13.21,1.1-19.82,1.67
	c-8.29,0.71-16.31,2.49-23.89,6.02c-1.48,0.69-2.9,1.51-4.41,2.11c-4.97,1.99-9.98,3.86-14.95,5.85
	c-9.62,3.84-19.09,8.07-28.85,11.5c-9.92,3.49-20.15,6.09-30.15,9.34c-8.2,2.67-17.3,2.92-24.2,9.18c-5.5,5-11.47,9.49-16.76,14.69
	c-6.99,6.88-13.36,14.38-20.3,21.31c-5.5,5.5-11.4,10.6-17.26,15.74c-1.82,1.6-4.08,2.71-6.12,4.07c-4.21,2.8-8.67,5.3-12.49,8.55
	c-2.17,1.85-3.1,5.08-4.9,7.44c-5.16,6.76-10.22,13.61-15.82,19.99c-3.88,4.42-8.49,8.22-12.95,12.09
	c-5.05,4.39-10.61,8.23-15.38,12.88c-8.11,7.9-16.49,15.34-26.24,21.2c-2.84,1.7-5.61,3.83-6.32,7.48c-0.28,1.42-0.36,2.89-0.67,4.3
	c-2.65,12.2-6.47,24.05-11.06,35.66c-2.71,6.83-5.52,13.63-8.23,20.46c-0.8,2.02-1.46,4.1-2.14,6.17
	c-2.17,6.6-3.91,13.34-3.59,20.33c0.52,11.37,1.24,22.73,2.1,34.08c1.42,18.69,2.83,37.39,4.6,56.05
	c1.01,10.67,2.67,21.28,4.17,31.9c0.67,4.77,1.54,9.52,2.56,14.23c1,4.62,2.42,9.14,3.43,13.76c1.75,8.07,1.68,8.09,10.02,8.7
	c0.18,0.01,0.37,0,0.55,0.04c2.96,0.69,6.05,1.14,7.71,4.16c-3.42-0.27-6.72-0.69-10.04-0.77c-4.68-0.11-4.68,0-3.97,4.42
	c0.06,0.36,0.03,0.73,0.08,1.09c0.29,2.06,1.23,3.48,3.4,4.11c1.55,0.45,3.04,1.22,4.44,2.05c2.72,1.61,3.15,3.07,1.86,5.93
	c-0.48,1.07-0.97,2.24-1.78,3.04c-2.04,2.01-2.07,4.27-1.42,6.81c2.06,8.11,3.85,16.29,6.12,24.33c2.51,8.92,5.04,17.88,8.26,26.56
	c4.17,11.24,8.85,22.31,13.64,33.31c3.77,8.67,8.05,17.12,12.09,25.67c1.67,3.54,3.06,7.23,4.99,10.61
	c3.56,6.21,7.35,12.28,11.18,18.33c4.22,6.68,8.35,13.45,12.98,19.85c3.11,4.29,6.8,8.23,10.61,11.94
	c4.16,4.05,8.38,8.26,13.25,11.32c5.72,3.58,12.08,6.2,18.32,8.87c7.69,3.29,15.45,6.45,23.35,9.2
	c11.92,4.15,23.51,9.03,34.11,15.84c11.45,7.36,23.13,14.19,36.28,17.97c5.74,1.65,11.73,2.42,17.61,3.61
	c8.81,1.78,17.63,0.72,26.39-0.19c6.86-0.72,13.64-2.28,20.47-3.36c10.25-1.63,20.6-2.76,30.74-4.87
	c8.62-1.79,16.96-4.89,25.52-7.01c10.34-2.56,20.75-4.82,31.18-6.97c7.66-1.58,15.62-2.05,23.05-4.32
	c10.58-3.24,20.87-7.47,31.12-11.66c7.14-2.92,13.91-6.75,21.04-9.7c6.63-2.74,11.44-7.54,16.2-12.56c0.74-0.78,2.11-1.19,2.48-2.07
	c0.89-2.15,1.38-4.45,4.49-4.15c0.2,0.02,0.5-0.48,0.68-0.79c1.1-1.96,2.13-3.92,4.56-4.63c0.49-0.14,0.81-0.94,1.17-1.46
	c1.67-2.37,3.2-4.85,5.03-7.09c3.47-4.24,7.37-8.15,10.61-12.55c6.24-8.48,12.49-16.99,18.09-25.89
	c6.03-9.58,12.98-18.65,17.04-29.42c2.08-5.51,4.96-10.73,7.06-16.23c2.36-6.19,4.37-12.53,6.32-18.86
	c2.59-8.41,4.95-16.9,7.45-25.34c0.87-2.94,1.5-6.03,2.89-8.7c1.9-3.65,2.51-7.37,2.24-11.34c-0.33-4.8-0.78-9.59-1.06-14.39
	c-0.12-1.99-0.23-4.05,0.18-5.97c1.17-5.46,2.62-10.86,3.94-16.28c1.15-4.75,2.4-9.49,3.39-14.28c1.21-5.87,2.72-11.74,3.15-17.68
	c0.41-5.68-0.53-11.44-0.65-17.17c-0.16-7.73-0.09-15.46-0.17-23.19c-0.04-3.66-0.35-3.74-4.06-4.07
	c-8.22-0.72-16.44-0.81-24.67-2.35c-11.96-2.23-23.49-5.82-35.13-9.07c-12.21-3.41-24.37-6.7-37.19-6.86
	c-6.09-0.08-12.18-0.77-18.27-1.07c-0.77-0.04-1.55,0.73-2.37,0.92c-0.64,0.15-1.68,0.26-1.99-0.09c-1.83-2.1-4.18-2.35-6.72-2.33
	c-4.9,0.03-9.87,0.54-14.67-0.14c-8-1.13-15.86-0.36-23.7,0.77c-5.17,0.75-10.17,2.66-15.33,3.5c-7.59,1.24-13.5,5.89-19.69,9.65
	c-4.73,2.87-9.1,6.71-11.46,12.55c-2.96,7.31-6.93,14.23-10.82,21.13c-2.25,3.98-5.23,7.55-7.77,11.37
	c-0.62,0.94-1.14,2.13-1.2,3.23c-0.57,10.32-2.77,20.33-5.55,30.24c-0.88,3.13-1.3,6.38-2.3,9.47c-0.33,1.02-1.76,1.71-2.73,2.5
	c-0.97,0.8-2.29,1.34-2.92,2.34c-1.8,2.88-3.52,5.85-4.92,8.95c-1.83,4.02-3.5,8.14-4.91,12.33c-0.74,2.21-0.81,4.65-1.15,6.99
	c-0.56,3.87-2.26,6.93-5.49,9.34c-1.22,0.91-2.13,2.82-2.35,4.39c-1.09,7.83-1.91,15.69-2.82,23.55c-0.06,0.54-0.07,1.1-0.23,1.62
	c-2,6.7-2.8,13.47-1.33,20.4c0.16,0.75-0.05,1.61-0.2,2.4c-0.49,2.44-1.12,4.86-1.53,7.31c-0.32,1.9,0.46,3.18,2.3,4.14
	c4.18,2.19,5.35,7.53,2.84,11.5c-1.34,2.12-2.43,4.39-3.69,6.56c-0.54,0.94-1.04,2.07-1.88,2.63c-1.85,1.23-1.87,2.77-1.69,4.73
	c0.63,7.23,1.09,14.47,1.57,21.71c0.36,5.44,0.56,10.9,0.98,16.33c0.31,3.95-1.56,6.78-5.36,7.99c-1.81,0.58-3.57,1.37-5.27,2.23
	c-3.15,1.59-13.97-0.67-16.09-3.45c-0.05-0.07-0.09-0.16-0.14-0.24c-1.95-3.12-3.45-6.28-3.32-10.19
	c0.21-5.94-0.45-11.82-2.86-17.39c-0.31-0.73-0.36-1.59-0.43-2.4c-1.17-13.04,0.38-25.99,1.36-38.96
	c0.52-6.88,1.62-13.84,1.06-20.65c-1.04-12.59-3.14-25.09-4.73-37.64c-0.25-2-1.13-2.95-3.14-2.86c-2.08,0.09-4.27,0.6-6.23,0.15
	c-5.93-1.35-11.83-2.91-16.63-7.08c-2.68-2.33-6.03-2.81-9.5-2.73c-1.54,0.03-3.13,0.07-4.61-0.26c-2.25-0.49-3.4-2.34-3.4-4.42
	c0-2.02,1.56-3.16,3.62-3.43c0.38-0.05,0.75-0.24,1.78-0.59c-1.46-0.71-2.28-1.22-3.18-1.53c-5.48-1.89-9.41-5.26-11.33-10.93
	c-0.78-2.29-2.31-4.32-3.36-6.54c-1.15-2.45-2.54-4.89-3.09-7.49c-0.92-4.33-1.17-8.79-1.86-13.18c-0.71-4.58-2.02-9.1-2.31-13.69
	c-0.47-7.51-3.32-13.84-7.87-19.65c-4.43-5.65-10.05-9.95-15.73-14.2c-0.88-0.66-2.06-0.91-3.1-1.35
	c3.28,4.66,6.73,8.73,10.23,12.77c3.51,4.05,6.28,8.46,7.26,13.85c0.5,2.77,1.37,5.49,1.8,8.27c0.37,2.4,0.69,4.91-1,7.58
	c-0.93-3.42-1.91-6.26-2.47-9.19c-1.22-6.38-3.78-12.15-7.86-17.14c-2.09-2.55-4.66-4.77-7.25-6.83c-2-1.6-4.59-2.47-6.54-4.12
	c-2.28-1.92-4.09-4.38-6.23-6.48c-0.72-0.71-1.81-1.03-2.73-1.53c-0.21,0.2-0.42,0.41-0.63,0.61c2.47,3.56,2.98,7.45,2.29,11.54
	c-0.26,1.53-0.74,3.04-0.79,4.57c-0.06,1.92-0.63,3.25-2.42,4.22c-0.63,0.34-1.11,1.63-1.06,2.45c0.71,12.27,1.5,24.53,2.29,36.79
	c0.8,12.44,1.56,24.89,2.47,37.32c0.39,5.35,1.01,10.68,1.68,16c0.3,2.39,1.56,3.17,4.05,2.09c5.67-2.44,11.12-0.75,16.36,1.55
	c1.28,0.56,2.39,1.99,3.11,3.28c3.23,5.79,4.91,12.06,5.21,18.69c0.04,0.89-0.12,1.8-0.29,2.68c-0.95,4.91-1.94,9.81-2.91,14.71
	c-1.11,5.6-4.1,10.04-8.69,13.31c-3.02,2.15-5.6,1.53-7.6-1.59c-1.1-1.72-2.42-2.48-4.49-2.98c-2.41-0.58-5.07-1.86-6.66-3.68
	c-2.28-2.61-3.6-6.04-5.48-9.03c-4.03-6.4-3.09-13.36-2.07-20.18c0.42-2.81,2.26-5.41,3.49-8.08c0.77-1.68,2.36-3.36,2.29-4.99
	c-0.22-5.62-1.14-11.22-1.55-16.84c-1.08-14.61-1.99-29.24-3.07-43.85c-0.85-11.53-1.87-23.05-2.78-34.58
	c-0.15-1.87-0.76-3.11-2.71-3.93c-2.99-1.25-5.94-2.74-8.63-4.54c-4.15-2.77-7.99-6.02-12.13-8.8c-2.32-1.56-4.87-3.05-7.53-3.78
	c-10.6-2.91-21.24-5.65-31.94-8.18c-8.59-2.03-17.28-3.66-25.91-5.5c-1.81-0.39-3.78-0.87-3.55-3.33c0.21-2.28,1.89-2.82,3.93-2.88
	c3.36-0.1,6.82,0.16,10.05-0.58c10.44-2.39,21.01-3.48,31.68-4.03c7.64-0.39,15.13,0.2,22.31,2.91c5.62,2.12,11.14,4.47,16.69,6.77
	c1.52,0.63,2.37,0.39,2.73-1.37c0.67-3.29,1.36-6.58,2.32-9.79c0.27-0.89,1.42-1.93,2.31-2.09c0.73-0.13,2.2,0.81,2.42,1.55
	c0.8,2.75,1.31,5.6,1.74,8.43c0.45,2.99,3.71,5,6.36,3.65c1.92-0.98,3.52-0.76,4.92,0.79c4.01,4.43,8.72,7.95,13.84,10.98
	c1.7,1.01,3.21,2.38,4.7,3.71c2.85,2.53,5.43,5.39,9.4,6.27c0.72,0.16,1.52,0.78,1.94,1.42c2.07,3.2,4.2,6.38,5.99,9.73
	c2.49,4.67,5.09,9.19,9.11,12.77c1.12,1,2.2,2.37,2.57,3.77c0.31,1.18-0.03,3.21-0.85,3.8c-0.83,0.6-2.64,0.03-3.94-0.32
	c-0.73-0.2-1.29-0.99-1.93-1.52c-0.21,0.12-0.42,0.23-0.63,0.35c0.11,1.41,0.13,2.84,0.33,4.24c0.79,5.47,1.58,10.94,2.49,16.39
	c1.37,8.2,4.92,15.45,10.83,21.2c2.3,2.24,5.82,3.26,8.82,4.74c2.36,1.16,4.79,3.04,7.2,3.06c3.62,0.04,5.18,2.17,7.39,4.24
	c2.95,2.76,6.32,5.15,9.77,7.26c1.66,1.02,3.92,1.19,5.94,1.46c2.29,0.31,2.86-0.71,2.06-2.93c-0.32-0.9-0.08-2.6,0.55-3.07
	c0.68-0.51,2.28-0.33,3.19,0.13c0.98,0.49,1.56,1.72,2.43,2.49c0.67,0.59,1.48,1.08,2.31,1.44c1.7,0.75,3.41,1.5,5.18,2.02
	c1.19,0.35,3.15,0.88,3.64,0.33c3.47-3.91,7.2-7.75,9.77-12.24c2.85-4.98,4.39-10.7,6.87-15.92c0.76-1.59,2.56-3.07,4.23-3.73
	c2-0.79,3.4,1.06,2.86,3.21c-0.7,2.78-1.23,5.61-2.06,8.34c-1.9,6.24-3.99,12.43-5.9,18.67
	C564.03,506.9,564.28,508.01,564.28,509.61z M556.42,510.98c-0.36-0.13-0.71-0.27-1.07-0.4c-0.66,0.84-1.44,1.62-1.95,2.55
	c-2.23,4.06-4.67,4.75-8.65,2.37c-0.63-0.37-1.21-0.82-1.87-1.13c-3.59-1.73-5.02-0.89-4.61,3.03c0.87,8.22,1.67,16.47,3.02,24.62
	c2.24,13.52,1.93,26.98,0.18,40.5c-1.1,8.47-2.06,17.01-0.97,25.56c1.08,8.46,2.68,16.86,3.7,25.32c0.95,7.91,4.21,8.59,10.71,8.43
	c5.64-0.14,8.07-3.25,7.92-8.82c-0.26-9.97,0.87-19.98-0.98-29.9c-0.58-3.12-0.81-6.3-1.38-9.42c-0.11-0.62-0.91-1.3-1.55-1.61
	c-3.81-1.83-7.74-3.42-11.48-5.38c-2.95-1.54-3.13-3.36-0.56-5.5c2.43-2.03,5.4-3.46,7.62-5.66c1.63-1.61,3.19-2.24,5.29-1.98
	c2.65,0.34,3.75-0.79,3.96-3.47c1.11-14.21,2.37-28.42,3.53-42.63c0.22-2.76,0.32-5.55,0.27-8.32c-0.03-1.88-1.03-2.24-2.76-1.4
	c-1.78,0.86-3.67,1.77-5.59,1.99c-1.28,0.15-3.23-0.48-3.91-1.44c-0.66-0.94-0.22-2.77,0-4.16
	C555.46,513.05,556.03,512.03,556.42,510.98z M263.37,457.25c0-0.12,0-0.25,0-0.37c-2.73,0-5.53-0.39-8.17,0.11
	c-2.67,0.5-5.23,1.77-7.73,2.93c-0.62,0.29-1.2,1.47-1.18,2.22c0.13,3.81,0.4,7.62,0.73,11.41c0.57,6.52,1.15,13.03,1.89,19.53
	c0.14,1.22,0.81,2.61,1.69,3.46c1.62,1.57,3.68,2.68,5.35,4.2c4.43,4.03,9.84,4.8,15.47,5c1.75,0.06,2.19-0.7,2.29-2.48
	c0.26-4.59,0.39-9.29,1.48-13.72c1.32-5.35,3.58-10.51,7.52-14.57c1.5-1.55,1.9-2.97,1.25-4.88c-0.35-1.04-0.66-2.08-0.96-3.14
	c-1.89-6.62-5.28-9.35-12.27-9.69C268.29,457.14,265.82,457.25,263.37,457.25z M345.39,391.62c1.29,0.59,1.88,0.99,2.53,1.14
	c10.46,2.44,20.95,4.75,31.38,7.29c4.32,1.05,8.79,2.03,12.71,4.01c8.23,4.15,16.13,8.97,24.2,13.45c0.89,0.49,1.97,0.62,2.97,0.91
	c0.2-0.94,0.56-1.89,0.56-2.83c0-3.28-0.08-6.55-0.22-9.83c-0.15-3.63-1.68-6.5-5.04-8.12c-2.78-1.34-5.58-2.72-8.49-3.72
	c-6.61-2.26-13.16-5.35-19.97-6.21c-12.7-1.61-25.43-0.12-37.94,2.74C347.37,390.63,346.71,391.04,345.39,391.62z M608.9,410.29
	c0.34,0.09,0.67,0.17,1.01,0.26c2.56-1.9,3.68-4.83,4.97-7.66c2.12-4.64,4-9.42,6.53-13.82c2.32-4.04,5.37-7.67,8.09-11.49
	c0.26-0.37,0.53-0.76,0.65-1.19c1.22-4.46,2.93-8.87,3.47-13.41c0.54-4.49,1.71-9.14,0.01-13.68c-0.94-2.51-1.52-2.67-3.23-0.72
	c-2.85,3.26-5.72,6.5-8.34,9.93c-3.22,4.2-4.69,9.02-4.58,14.38c0.03,1.61-0.56,3.36-1.3,4.82c-1.35,2.64-3.71,4.94-4.43,7.7
	c-1.39,5.32-2.08,10.84-2.77,16.31C608.61,404.54,608.9,407.43,608.9,410.29z M848.82,456.21c0.82,0.08,1.43,0.16,2.04,0.19
	c2.91,0.13,3.93,1.25,4.23,4.19c0.46,4.59,1.02,9.17,1.69,13.73c0.14,0.96,0.83,2.5,1.43,2.58c1.11,0.15,2.68-0.23,3.48-0.99
	c3.18-3.04,5.56-6.78,6.24-11.12c1.09-6.95,0.27-13.8-2.93-20.18c-0.38-0.76-1.85-1.53-2.7-1.42
	C857.56,443.8,850.08,451.01,848.82,456.21z M430.18,533.79c-0.31-0.01-0.62-0.03-0.93-0.04c-0.52,0.68-1.31,1.28-1.53,2.04
	c-1.4,5.02-2.53,10.12-0.59,15.24c0.56,1.47,1.7,2.73,2.61,4.07c0.93,1.37,2.06,2.64,2.81,4.1c0.96,1.88,1.67,3.85,4.72,3.67
	C434.87,553.05,432.52,543.42,430.18,533.79z M434.93,527.15c3.35,1.29,5.88,2.48,8.54,3.23c6.57,1.86,7.69,3.76,5.74,10.1
	c-0.29,0.94-0.36,2.54,0.17,2.99c0.95,0.8,2.55,1.44,3.66,1.19c0.75-0.17,1.61-2.01,1.57-3.07c-0.09-2.53-0.56-5.06-1.09-7.55
	c-1.33-6.24-2.99-7.83-9.3-8.92C441.13,524.59,438.29,525.42,434.93,527.15z M445.95,568.49c0.87-0.6,1.79-0.96,2.32-1.63
	c3.84-4.81,5.22-10.44,5.1-16.48c-0.01-0.68-0.77-1.78-1.36-1.92c-0.81-0.19-2.12,0.06-2.62,0.64c-0.71,0.82-1.26,2.13-1.23,3.2
	c0.18,5.3-0.13,10.47-2.64,15.29C445.51,567.65,445.6,567.76,445.95,568.49z M847.78,458.82c-1.16,0.43-2.14,0.91-3.16,1.16
	c-2.02,0.48-4.11,3.75-3.59,5.81c0.67,2.68,1.38,5.34,2.04,7.92C847.44,471.54,850.95,464.45,847.78,458.82z M285.24,479.47
	c-0.51,0.46-1.05,0.75-1.27,1.19c-1.46,2.92-2.97,5.83-4.19,8.86c-0.37,0.92,0.16,2.2,0.27,3.32c0.97-0.29,1.94-0.57,2.91-0.89
	c0.34-0.11,0.66-0.3,0.99-0.46C289.22,488.88,289.85,483.92,285.24,479.47z M441.23,558.18c0.33-0.06,0.66-0.12,0.99-0.18
	c0.17-0.95,0.44-1.9,0.48-2.86c0.11-2.63,0.32-5.28,0.07-7.88c-0.11-1.21-0.95-2.59-1.89-3.41c-0.63-0.55-2.01-0.24-3.05-0.31
	c-0.07,1.48-0.48,3.05-0.14,4.43c0.62,2.52,1.68,4.94,2.55,7.4C440.57,556.31,440.9,557.25,441.23,558.18z M551.28,583.2
	c3.45,1.33,4.91,0.35,5.42-3.56C555.09,580.7,553.48,581.75,551.28,583.2z"/>
<path d="M875.39,608.76c-0.19-1.11-0.66-2.02-0.4-2.62c2.08-4.97,4.28-9.89,6.47-14.82c0.18-0.41,0.42-0.95,0.77-1.08
	c0.69-0.28,1.48-0.31,2.23-0.45c-0.2,0.65-0.34,1.33-0.63,1.94c-0.13,0.27-0.83,0.49-0.8,0.58c1.31,3.83-3.12,5.77-3.02,9.46
	c0.05,2-2.11,4.06-3.31,6.07C876.53,608.1,876.14,608.24,875.39,608.76z"/>
<path d="M859.8,645.39c-1.61,0-3.25,0.21-4.82-0.05c-1.94-0.33-1.98-1.96-1.01-3.08c1.34-1.55,3.04-2.84,4.75-4
	c0.54-0.36,1.62,0.08,2.45,0.15c-0.16,0.8-0.26,1.61-0.49,2.39c-0.36,1.24-0.8,2.46-1.21,3.68
	C859.59,644.79,859.69,645.09,859.8,645.39z"/>
<path d="M868.59,617.04c0.2,0.95,0.7,1.95,0.55,2.83c-0.34,1.98-1.58,3.31-4.33,3.88c1.08-2.43,1.96-4.42,2.85-6.41
	C867.96,617.24,868.28,617.14,868.59,617.04z"/>
<path d="M320.76,624.29c-1.24-1.26-2.02-2.05-2.81-2.84c0.91-0.53,1.82-1.45,2.73-1.45c0.68,0,1.62,1.11,1.91,1.92
	C322.74,622.32,321.68,623.15,320.76,624.29z"/>
<path d="M886.61,579.33c1.28-0.88,2.26-1.6,3.29-2.21c0.1-0.06,0.57,0.51,0.86,0.78c-0.88,0.83-1.72,1.69-2.66,2.44
	C887.99,580.42,887.36,579.85,886.61,579.33z"/>
<path d="M699.35,566.66c-0.88,5.08-1.68,10.17-2.67,15.23c-1.49,7.58-3.13,15.14-4.66,22.71c-0.86,4.22-2.78,5.86-6.68,4.25
	c-3.95-1.64-7.9-3.86-11.06-6.7c-5.73-5.16-4.94-12.16-3.61-18.87c0.8-4.04,2.02-8.04,3.5-11.88c0.83-2.16,2.06-4.5,5.17-4.52
	c0.87-0.01,2.24-0.55,2.53-1.22c0.99-2.32,2.95-2.97,5.01-3.82c1.82-0.74,3.36-2.13,5.17-2.93c1.49-0.66,3.43-1.53,4.71-1.06
	c1.02,0.38,1.58,2.59,1.9,4.08c0.31,1.48,0.07,3.08,0.07,4.62C698.93,566.59,699.14,566.62,699.35,566.66z M689.69,588.76
	c-2.43-0.73-4.32-1.49-6.28-1.83c-2.15-0.37-4.36-0.41-6.55-0.43c-0.52,0-1.48,0.62-1.5,1.01c-0.27,4.28-0.77,8.73,3.47,11.63
	c1.95,1.33,4,2.55,6.13,3.54c0.67,0.31,2.38-0.04,2.55-0.49C689.24,597.69,690.31,593.05,689.69,588.76z"/>
<path d="M564.5,677.99c-1.76,0.33-3.52,0.69-5.29,0.98c-0.88,0.14-1.82,0.32-2.68,0.18c-8.31-1.4-16.61-2.83-24.9-4.34
	c-1.31-0.24-2.66-0.71-3.77-1.42c-0.62-0.4-1.18-1.57-1.06-2.27c0.12-0.67,1.13-1.21,1.81-1.73c0.26-0.2,0.7-0.25,1.05-0.23
	c5.03,0.36,10.06,0.74,15.09,1.13c1.99,0.16,3.97,0.42,5.96,0.53c1.93,0.11,2.75-0.78,2.01-2.7c-0.62-1.61-1.69-3.7,0.37-4.52
	c2.06-0.82,2.76,1.46,3.41,3.04c1.33,3.21,3.5,4.92,7.17,4.48c1.23-0.15,2.54,0.13,3.77,0.38c2.17,0.43,3.48,1.86,3.22,4.05
	c-0.27,2.3-2.04,3.04-4.21,2.89c-0.64-0.04-1.27-0.09-1.91-0.14C564.54,678.19,564.52,678.09,564.5,677.99z"/>
</svg>
