<?xml version="1.0" encoding="utf-8"?>
<!-- Generator: Adobe Illustrator 24.1.0, SVG Export Plug-In . SVG Version: 6.00 Build 0)  -->
<svg version="1.1" id="Layer_1" xmlns="http://www.w3.org/2000/svg" xmlns:xlink="http://www.w3.org/1999/xlink" x="0px" y="0px"
	 viewBox="0 0 1224 792" style="enable-background:new 0 0 1224 792;" xml:space="preserve">
<path d="M863.98,297.03c-2.71,3.07-3.33,6.38-4.39,9.44c-1.61,4.62-1.94,9.53-2.85,14.3c-1.02,5.38,0.55,10.11,1.86,15
	c1.54,5.76,3.26,11.42,3.59,17.48c0.24,4.31,1.44,8.56,2.11,12.85c0.38,2.42,0.61,4.86,0.81,7.3c0.05,0.6-0.12,1.36-0.47,1.82
	c-0.47,0.62-1.26,1.47-1.85,1.43c-0.78-0.06-1.94-0.75-2.16-1.42c-0.61-1.91-1.14-3.95-1.12-5.93c0.04-3.1-0.87-5.95-2.01-8.65
	c-1.93-4.59-4.61-8.87-6.41-13.5c-1.88-4.84-3.09-9.94-4.59-14.92c-1.3-4.33-1.61-8.94-4.3-12.88c-0.91-1.33-0.83-3.46-0.89-5.24
	c-0.1-3.63,0.04-7.27,0.02-10.9c0-0.95,0.02-2.01-0.38-2.82c-1.01-2.08-0.14-3.64,1.33-4.79c2.2-1.7,2.4-4.18,2.82-6.5
	c0.44-2.49-0.45-3.33-2.96-3.43c-5.97-0.24-11.93-0.45-17.9-0.65c-4.89-0.17-9.8-0.62-14.68-0.41c-7.35,0.3-14.7,0.84-22,1.69
	c-9.32,1.09-18.61,2.53-27.89,3.94c-4.96,0.75-9.88,1.72-14.81,2.67c-6.38,1.23-12.85,2.18-19.09,3.95
	c-4.26,1.21-8.25,3.46-12.23,5.5c-5.21,2.67-10.31,5.56-15.43,8.4c-2.23,1.24-4.57,2.37-6.56,3.93c-4.46,3.47-9.08,6.66-13.78,9.81
	c-7.95,5.33-16.75,8.32-25.8,10.79c-5.14,1.41-10.37,2.53-15.58,3.63c-2.61,0.55-3.92,1.85-4.53,4.55
	c-1.56,6.94-3.6,13.77-5.18,20.7c-1.5,6.6-1.71,13.33-1.12,20.06c0.14,1.57,0.43,3.08,2,4.14c1.55,1.05,2,2.66,1.29,4.54
	c-0.72,1.89-1.34,3.82-1.94,5.75c-0.56,1.83-1.07,3.67-1.54,5.53c-0.73,2.88-1.33,5.79-2.13,8.65c-1.69,6.08-1.02,12.3-1.24,18.48
	c-0.11,3.07-0.6,6.12-0.85,9.19c-0.16,1.91-0.11,3.85-0.28,5.76c-0.42,4.88-0.57,9.82-1.49,14.61c-0.82,4.25-2.15,8.49-5.63,11.6
	c-1.02,0.91-1.75,2.15-2.67,3.19c-2.18,2.46-4.48,4.58-7.5,6.24c-4.54,2.49-8.58,5.9-12.72,9.06c-0.84,0.65-1.26,1.92-1.74,2.97
	c-1.27,2.79-2.91,3.71-5.83,3.1c-3.52-0.74-6.51-2.03-8.73-5.29c-4.24-6.24-9.04-12.11-13.38-18.29c-1.16-1.65-2.17-3.63-1.72-5.97
	c0.21-1.1,0.05-2.36-0.24-3.47c-1.67-6.37-1.39-12.92-1.91-19.4c-0.22-2.74,0.1-5.57-0.41-8.24c-1.32-6.98-2.21-14.07-4.62-20.81
	c-0.29-0.8-0.47-1.66-0.54-2.5c-0.48-5.53-1.19-11.05-1.29-16.59c-0.1-5.68-1.67-10.9-3.51-16.16c-1.33-3.8-2.92-7.37-5.94-10.05
	c-1.22-1.08-2.84-2.01-4.42-2.32c-6.45-1.27-12.55-3.59-18.46-6.28c-6.57-3-12.8-6.75-19.26-10.01
	c-7.99-4.04-16.03-7.97-24.11-11.82c-1.9-0.91-4.08-1.23-6.06-2.01c-1.06-0.42-2.09-1.09-2.92-1.88c-1.47-1.41-1.89-3.44-1.19-4.65
	c0.71-1.22,2.65-1.73,4.66-0.97c2.59,0.97,5.2,1.97,7.66,3.23c6.01,3.1,12.24,5.48,18.88,6.89c3.2,0.68,6.25,2.1,9.36,3.22
	c2.51,0.9,4.98,1.88,7.5,2.77c0.96,0.34,1.98,0.5,2.97,0.74c0.12-0.19,0.24-0.38,0.36-0.57c-0.69-0.71-1.35-1.46-2.08-2.14
	c-4.21-3.88-9.32-6.37-14.21-9.19c-7.12-4.11-13.83-8.68-19.94-14.26c-4.11-3.75-8.67-7.16-14.06-9.22
	c-3.07-1.17-5.83-3.14-8.88-4.37c-2.64-1.06-5.44-1.93-8.25-2.29c-6.56-0.83-13.16-1.52-19.76-1.86c-4.77-0.24-9.59-0.02-14.36,0.32
	c-7.45,0.53-14.89,1.27-22.32,2.06c-4.67,0.5-9.32,1.18-13.95,1.91c-2.21,0.35-3.76,1.76-5.04,3.62c-2.29,3.33-4.73,6.56-7.13,9.81
	c-0.31,0.43-0.66,0.96-1.1,1.13c-0.74,0.27-1.75,0.59-2.3,0.28c-0.41-0.23-0.41-1.43-0.37-2.19c0.03-0.58,0.39-1.15,0.59-1.7
	c-1.16-1.06-1.85-0.33-2.54,0.36c-2.41,2.38-4.84,4.73-7.23,7.13c-2.05,2.05-4.37,1.66-5.55-1.04c-1.45-3.32-2.61-6.77-4.3-9.96
	c-1.59-3-3.59-5.81-5.64-8.52c-0.61-0.8-2.01-1.06-3.09-1.44c-2.01-0.71-4.13-1.14-6.06-2.02c-2.16-0.99-2.78-2.51-2.07-5.2
	c-1.62,1.81-2.89,3-3.89,4.39c-2.92,4.06-5.75,8.19-8.58,12.31c-1.62,2.36-2.95,4.97-4.86,7.07c-2.83,3.13-5.84,6.18-9.16,8.78
	c-4.38,3.44-9.45,2.65-14.41,1.24c-0.92-0.26-1.79-0.67-2.69-1.01c-2.22-0.84-3.19-2.96-2.21-5.13c0.39-0.85,1.02-1.63,1.67-2.32
	c5.46-5.82,10.98-11.59,16.42-17.43c4.72-5.07,9.22-10.37,14.11-15.28c2.28-2.29,5.15-4.09,7.98-5.71c1.38-0.79,3.28-0.84,4.96-0.87
	c2-0.04,3.25-0.65,4.39-2.47c3.26-5.21,6.73-10.29,10.3-15.3c2.23-3.14,5.18-5.52,8.41-7.73c7.19-4.92,15.41-6.67,23.6-8.58
	c4.34-1.01,8.79-1.54,13.2-2.27c0.51-0.08,1.22-0.21,1.54,0.05c1.73,1.39,3.6,1.38,5.69,1.15c1.5-0.17,7.29,5.1,7.3,6.6
	c0.04,3.73,0.06,7.48-0.38,11.17c-0.43,3.67-1.01,7.43-2.26,10.88c-2.15,5.93-3.77,12.39-9.81,15.9c-2.27,1.32-3.25,2.84-2.55,5.39
	c0.1,0.38-0.02,0.83-0.06,1.66c3.27-0.3,6.41-0.6,9.55-0.86c3.61-0.3,7.23-0.56,10.84-0.87c2.44-0.21,4.89-0.41,7.32-0.74
	c8.54-1.15,17.05-0.29,25.57,0.31c3.72,0.26,7.42,0.74,11.14,1.01c4.46,0.33,8.58,1.78,12.49,3.77c5.79,2.94,11.58,5.92,17.17,9.22
	c2.52,1.49,4.59,3.78,6.81,5.77c5.52,4.95,12.02,8.37,18.42,11.98c10.06,5.67,19.12,12.71,27.76,20.35
	c5.27,4.66,10.6,9.32,17.4,11.71c2.21,0.78,4.49,1.34,6.75,1.95c1.13,0.31,2.3,0.47,3.44,0.78c1.6,0.44,2.7,1.47,2.62,3.19
	c-0.08,1.7-0.84,3.15-2.65,3.6c-1.01,0.25-2.09,0.24-3.14,0.28c-1.04,0.04-2.08,0.01-3.46,0.01c0,1.22-0.17,2.17,0.03,3.05
	c1.06,4.55,2.21,9.07,3.32,13.61c0.08,0.31,0.09,0.63,0.12,0.95c0.45,5.95,0.82,11.91,1.38,17.86c0.24,2.54,0.82,5.05,1.31,7.56
	c0.65,3.33,1.58,6.62,1.99,9.97c0.67,5.58,2.45,11.01,2.06,16.76c-0.25,3.72-0.37,7.52,0.08,11.21c0.65,5.34,1.26,10.61,4.09,15.6
	c3.09,5.45,6.19,10.88,9.69,16.07c0.3,0.44,0.57,0.91,0.92,1.3c3.81,4.22,5.37,4.35,9.22,0.12c0.69-0.76,1.66-1.28,2.43-1.98
	c1.17-1.07,3.01-2.04,3.28-3.32c1.23-5.76,5.57-9.75,7.94-14.82c1.53-3.27,2.99-6.58,4.4-9.91c0.54-1.26,0.78-2.65,1.29-3.92
	c0.93-2.31,1.48-4.66,1.33-7.17c-0.08-1.28,0.1-2.57-0.03-3.85c-0.67-6.98,2.23-12.78,5.65-18.56c1.64-2.77,3.14-5.75,3.41-9.17
	c0.17-2.21,0.8-4.38,1.24-6.57c1.39-6.93,2.08-13.86,1.49-20.97c-0.53-6.37-0.01-12.81,1.29-19.07c1.02-4.89,2.78-9.61,4.11-14.43
	c0.73-2.66,1.33-5.37,1.81-8.08c0.15-0.82-0.3-1.74-0.53-2.9c-1.07,0.44-1.72,0.73-2.39,0.96c-0.8,0.27-1.61,0.64-2.43,0.71
	c-2.01,0.16-3.55-0.8-3.81-2.19c-0.29-1.54,0.75-3.43,2.41-4.05c3.88-1.45,7.79-2.81,11.68-4.21c4.18-1.5,7.67-4.11,11.04-6.89
	c5.1-4.2,10.02-8.64,15.3-12.59c3.13-2.34,6.73-4.15,10.28-5.84c7.6-3.63,15.31-7.03,22.99-10.51c4.56-2.07,9.09-4.22,13.72-6.11
	c2.55-1.04,5.31-1.56,7.93-2.46c3.02-1.04,5.97-2.29,9-3.32c0.96-0.33,2.08-0.39,3.1-0.29c1.11,0.11,2.24,0.72,2.05,2
	c-0.14,0.92-0.69,2.13-1.43,2.55c-2.13,1.2-4.5,1.95-6.66,3.11c-2.01,1.08-3.87,2.44-5.8,3.68c0.13,0.26,0.27,0.53,0.4,0.79
	c1.61-0.59,3.24-1.12,4.81-1.79c5.94-2.52,12.19-3.92,18.51-4.99c8.41-1.44,16.84-2.75,25.27-4.08c10.01-1.59,20.02-3.19,30.04-4.68
	c2.21-0.33,4.48-0.3,6.72-0.31c8.11-0.04,16.22-0.1,24.32,0c5.87,0.07,11.73,0.36,17.6,0.61c1.87,0.08,3.61-0.08,5.19-1.21
	c1.26-0.9,2.67-0.88,3.93-0.09c4.36,2.73,9.31,2.69,14.17,3.31c4.75,0.6,9.46,1.58,12.64,5.83c1.09,1.46,1.33,2.84,0.51,4.44
	c-0.81,1.59-2.3,1.24-3.65,1.34c-1.2,0.09-2.64-1.43-3.52,0.03c-0.59,0.98-0.49,2.45-0.51,3.7c-0.07,4.7,0.11,9.42-0.13,14.11
	c-0.43,8.53,1.46,16.75,2.93,25.03c1.08,6.09,2.35,12.11,1.16,18.35c-0.34,1.76-0.15,3.62-0.23,5.44
	c-0.18,4.03-0.23,8.03-0.94,12.08c-1.04,5.95-1.13,12.07-1.56,18.12c-0.12,1.7,0.08,3.43-0.03,5.13c-0.28,4.07,1.02,7.8,2.47,11.46
	c0.72,1.81,2.08,3.38,3.3,5.29c1.56,0.56,2.81-0.69,3.97-1.67c1.7-1.43,3.29-3.04,4.74-4.73c2.8-3.23,6.74-4.79,10.16-7.1
	c2.46-1.67,5.11-3.11,7.81-4.39c5.02-2.38,10.33-3.18,15.86-2.35c1.95,0.29,3.41,1.33,4.35,2.95c1.6,2.76,3.19,5.54,4.52,8.43
	c1.16,2.53,0.7,4.7-1.39,6.95c-3.42,3.69-6.9,7.25-11.04,10.11c-2.87,1.99-5.75,3.99-8.71,5.85c-3.36,2.11-4.81,5.57-6.62,8.8
	c-0.72,1.28-1.43,2.64-2.44,3.68c-3.96,4.05-5.92,8.88-6.54,14.48c-0.39,3.57-1.41,7.07-2.15,10.6c-0.04,0.21-0.11,0.44-0.24,0.59
	c-3.56,4.21-5.18,9.85-9.74,13.31c-3.46,2.62-7.16,4.64-11.74,4.21c-0.74-0.07-1.5-0.05-2.24-0.04c-2.7,0.03-2.52,0.09-3.46,2.65
	c-1.35,3.69-2.95,7.3-4.52,10.91c-1.44,3.31-2.93,6.59-4.52,9.84c-0.55,1.13-1.36,2.16-2.19,3.13c-3.43,4.04-6.72,8.11-11.08,11.39
	c-4.28,3.22-7.69,7.61-11.37,11.59c-2.91,3.15-6.09,5.91-9.8,8.09c-2.56,1.51-4.95,3.29-7.45,4.89c-4.65,2.97-9.15,6.24-14.04,8.74
	c-5.65,2.88-9.92,7.33-14.52,11.39c-3.89,3.44-7.21,7.52-10.81,11.3c-1.1,1.15-2.24,2.27-3.45,3.31
	c-9.95,8.58-20.65,16.16-31.49,23.54c-3.07,2.09-6.03,4.33-9.08,6.45c-2.1,1.45-4.3,2.76-6.4,4.21
	c-6.91,4.77-13.49,10.13-20.78,14.23c-8.63,4.85-17.84,8.65-26.83,12.86c-2.7,1.27-5.43,2.54-8.25,3.49
	c-2.81,0.95-5.73,1.99-8.64,2.12c-7.42,0.32-14.54,2.21-21.76,3.56c-6.17,1.16-12.36,2.18-18.6,2.96
	c-13.55,1.71-27.15,3.07-40.54,5.99c-6.94,1.51-14.08,2.07-21.14,3.02c-3.59,0.49-7.18,0.99-10.79,1.32
	c-6.42,0.58-12.76,0.12-19.03-1.54c-9.99-2.64-20-5.16-30.04-7.61c-6.73-1.64-13.53-2.99-20.26-4.61c-2.17-0.52-4.25-1.43-6.32-2.28
	c-3.54-1.45-7.11-2.86-10.53-4.55c-3.43-1.7-6.78-3.6-10.01-5.65c-4.58-2.91-9-6.08-13.55-9.04c-1.42-0.92-3.01-1.65-4.6-2.23
	c-6.97-2.54-13.13-6.6-19.54-10.2c-3.15-1.77-6.43-3.34-9.52-5.21c-6.64-4.02-13.2-8.18-19.8-12.27
	c-6.65-4.13-12.4-9.32-17.91-14.86c-5.18-5.21-10.88-9.92-16-15.19c-5.12-5.27-9.86-10.93-14.67-16.49
	c-2.37-2.74-4.59-5.61-6.78-8.49c-2.06-2.7-3.96-5.52-6-8.23c-2.24-2.98-4.37-6.07-6.89-8.79c-2.37-2.57-5.1-4.83-7.83-7.03
	c-7.71-6.23-15.53-12.33-21.52-20.36c-1.08-1.45-2.18-2.91-3.02-4.5c-1.55-2.93-4.04-4.86-6.48-6.96c-3.06-2.63-5.73-5.72-8.55-8.62
	c-0.45-0.46-0.77-1.09-1.28-1.42c-0.65-0.42-1.59-0.99-2.15-0.79c-0.59,0.22-1.07,1.22-1.27,1.96c-0.46,1.73-0.76,3.5-1.06,5.27
	c-0.41,2.35-2.11,3.04-4.14,3.29c-1.8,0.22-3.6,0.43-5.41,0.56c-1.18,0.08-1.76,0.63-2.42,1.67c-2.25,3.55-2.62,7.64-3.44,11.54
	c-1.4,6.67-2.46,13.42-3.41,20.17c-0.52,3.68-0.5,7.43-0.77,11.14c-0.14,1.91-0.39,3.82-0.56,5.73c-0.36,4.04-0.46,8.11-1.11,12.1
	c-1.3,7.98-4.52,15.32-8.77,22.11c-4.43,7.07-9.73,7.01-16.03,2.39c-6.76-4.95-10.57-12.24-12.97-20.14
	c-1.86-6.12-2.68-12.45-2.76-18.89c-0.09-6.63-1.01-13.09-3.42-19.42c-1.49-3.92-1.26-8.48-2.59-12.5
	c-1.69-5.13-1.87-10.28-1.52-15.48c0.26-3.91,0.96-7.81,1.69-11.67c1.02-5.45,2.21-10.86,3.39-16.28c0.61-2.79,1.42-5.54,2.04-8.34
	c0.28-1.24,0.41-2.53,0.42-3.8c0.04-4.81,0.08-9.62-0.03-14.43c-0.04-1.87,0.49-3.31,1.88-4.53c1.92-1.69,3.79-3.42,5.67-5.17
	c3.03-2.83,6.5-2.67,10.21-1.71c3.27,0.84,6.62,1.39,10.43,2.17c0.25-4.3,0.49-8.09,0.69-11.89c0.41-7.67,0.93-15.33,1.14-23
	c0.13-4.47-0.23-8.96-0.41-13.43c-0.12-2.86-0.04-5.69-1.06-8.52c-0.62-1.72-0.2-3.8-0.27-5.72c-0.34-8.95,1.37-17.62,3.48-26.25
	c1.56-6.41,2.83-12.89,4.3-19.32c0.85-3.72,1.88-7.41,2.78-11.12c0.82-3.38,1.46-6.8,2.38-10.16c1.29-4.71,2.74-9.37,4.15-14.05
	c0.49-1.63,1.16-3.22,1.55-4.87c1.47-6.25,4.12-12.07,6.41-18.03c2.17-5.64,4.53-11.21,6.61-16.89c3.18-8.68,6.95-17.11,10.85-25.48
	c3.76-8.07,7.52-16.15,11.28-24.23c2.28-4.9,4.65-9.76,6.79-14.73c1.75-4.08,3.19-8.29,4.82-12.42c2.57-6.52,5.08-13.06,7.82-19.51
	c2.33-5.48,4.75-10.94,7.49-16.23c2.54-4.9,5.52-9.58,8.36-14.33c3.12-5.21,6.17-10.47,9.48-15.56c4.24-6.5,8.68-12.86,13.09-19.24
	c3.85-5.58,7.73-11.14,11.68-16.65c2.42-3.38,5.18-6.52,7.51-9.96c6.55-9.7,14.9-17.73,23.44-25.6c1.87-1.72,4.1-3.06,6.16-4.57
	c6.36-4.69,13.17-8.67,20.17-12.27c2.61-1.34,5.6-2.17,8.51-2.63c7.18-1.13,14.43-1.9,21.67-0.55c2.72,0.51,5.42,1.26,8.01,2.23
	c5.66,2.12,11.21,4.45,16.62,7.24c5.95,3.07,12.42,4.99,19.12,6.14c10.78,1.85,21.43,1.58,32.11-0.74
	c5.63-1.22,11.31-2.55,17.02-2.91c7.86-0.5,15.71-1.28,23.67-0.48c8.35,0.84,16.38,2.73,24.44,4.87c8.14,2.16,16.46,3.63,24.71,5.38
	c3.44,0.73,6.86,1.64,10.34,2.07c6.46,0.79,12.95,1.27,19.42,1.92c2.33,0.24,4.65,0.63,6.98,0.9c5.08,0.58,10.15,1.36,15.25,1.63
	c8.42,0.44,16.86,0.55,25.29,0.8c7.9,0.23,15.81,0.19,23.68,0.78c5.08,0.38,10.06,2.02,15.13,2.51c8.73,0.85,15.76,5.73,23.37,9.25
	c3.86,1.78,7.61,3.81,11.41,5.71c6,3,11.94,6.14,18.04,8.94c5.71,2.62,11.55,4.94,17.39,7.26c6.92,2.75,13.89,5.37,20.85,8.03
	c0.79,0.3,1.62,0.52,2.45,0.73c6.6,1.7,13.22,3.32,19.79,5.11c7.1,1.94,14.23,3.8,21.19,6.17c3.46,1.18,6.69,3.21,9.78,5.23
	c3.55,2.32,7.07,4.81,10.16,7.7c2.61,2.44,4.81,5.4,6.78,8.4c1.11,1.69,1.31,3.96,2.07,5.92c0.65,1.67,1.43,3.3,2.35,4.84
	c0.37,0.63,1.27,0.93,1.88,1.44c0.62,0.52,1.65,1.07,1.68,1.67c0.18,2.83,0.89,5.76-0.56,8.46c-0.61,1.15-0.51,1.87,0.51,2.74
	c2.07,1.75,3.11,3.92,1.98,6.68c-0.16,0.38-0.31,0.86-0.22,1.24c0.57,2.67,1.2,5.32,1.89,8.34c-1.16,1.65-2.56,3.49-3.8,5.43
	c-1.7,2.65-0.97,5.55-0.57,8.37c0.22,1.54,0.89,3.05,0.9,4.58c0.02,5.02,0.65,9.86,2.29,14.68c1.11,3.26,1.16,6.87,1.72,10.31
	c0.66,4.06,1.39,8.1,2.03,12.16c0.22,1.36,0.3,2.75,0.37,4.13c0.17,3.61,0.17,7.17,1.01,10.78c0.82,3.49,0.67,7.21,0.9,10.83
	c0.27,4.34,0.07,8.76,0.84,13.01c1.46,8.09,0.4,16.38,2.23,24.42c0.3,1.33,0.07,2.78,0.21,4.16c0.31,3.17,0.82,6.32,1.03,9.49
	c0.26,3.94,0.12,7.92,0.45,11.85c0.87,10.32,1.03,20.65,1.31,30.99c0.08,2.86,0.6,5.72,1.01,8.57c0.12,0.8,0.51,1.6,0.92,2.31
	c1.36,2.36-0.21,7.25-2.81,8.19c-0.63,0.22-1.73-0.12-2.28-0.59c-1.68-1.47-2.66-3.32-2.15-5.68c1.06-4.98,0.61-9.95,0.18-14.97
	c-0.41-4.78,0.01-9.63-0.36-14.42c-0.51-6.57-1.41-13.11-2.15-19.66c-0.02-0.21-0.1-0.42-0.11-0.63
	c-0.48-5.41-0.98-10.81-1.42-16.22c-0.48-5.95-0.8-11.92-1.37-17.86c-0.72-7.65-1.23-15.29-1.51-22.97
	c-0.19-5.27-1.4-10.5-2.13-15.76c-0.1-0.74-0.04-1.5-0.13-2.24c-0.78-6.44-1.43-12.9-2.4-19.31c-0.81-5.36-2.07-10.65-2.96-16
	c-0.95-5.76-1.7-11.54-2.54-17.32c-0.09-0.63-0.13-1.29-0.34-1.89c-1.63-4.68-1.79-9.54-2.07-14.42c-0.28-4.88-0.94-9.74-1.46-14.61
	c-0.04-0.41-0.15-0.9-0.4-1.2c-2.32-2.84-1.65-6.23-1.96-9.49c-0.27-2.9-1.28-5.73-1.76-8.63c-0.71-4.3-3.8-6.68-6.9-9.18
	c-4.86-3.92-10.02-7.25-16.08-8.97c-3.88-1.1-7.81-2.02-11.68-3.15c-3.07-0.9-6.07-2.07-9.14-2.97c-3.78-1.1-7.6-2.04-11.41-3.03
	c-6.39-1.66-12.78-3.26-18.77-6.21c-3.03-1.49-6.49-2.07-9.61-3.42c-9.29-4.01-18.56-8.04-27.71-12.34
	c-6.64-3.12-13.08-6.67-19.57-10.08c-3.77-1.98-7.45-4.14-11.24-6.08c-4.61-2.36-9.59-3.58-14.65-4.49
	c-2.41-0.44-4.82-0.93-7.25-1.23c-8.99-1.1-18-2.39-27.07-1.81c-10.92,0.7-21.74-0.65-32.61-0.97c-2.76-0.08-5.5-0.76-8.26-1.05
	c-6.98-0.73-13.99-1.21-20.94-2.12c-5.71-0.75-11.38-1.84-17.03-2.99c-7.63-1.56-15.23-3.27-22.81-5.04
	c-4.36-1.02-8.66-2.31-13.01-3.41c-1.86-0.47-3.75-0.94-5.65-1.06c-5.97-0.35-11.95-0.79-17.91-0.68
	c-5.21,0.09-10.43,0.67-15.6,1.37c-7.19,0.98-14.3,2.54-21.5,3.38c-6.99,0.82-14.08,1.07-21.05-0.11
	c-5.45-0.93-10.94-2.03-16.18-3.75c-5.24-1.72-10.17-4.34-15.27-6.5c-3.33-1.41-6.7-2.7-10.06-4.04c-0.29-0.12-0.64-0.1-0.93-0.22
	c-10.08-4.33-20.29-3.01-30.43-0.43c-2.62,0.67-5.03,2.29-7.43,3.66c-9.08,5.14-17.7,10.97-25.35,18.08
	c-3.97,3.69-7.87,7.52-11.29,11.71c-4.83,5.91-9.18,12.21-13.76,18.32c-2.16,2.89-4.52,5.64-6.54,8.63
	c-4.32,6.41-8.43,12.96-12.72,19.4c-2.24,3.36-4.69,6.57-7.02,9.87c-0.97,1.38-1.93,2.77-2.77,4.23
	c-3.09,5.33-6.17,10.67-9.17,16.05c-3.31,5.94-6.75,11.82-9.72,17.92c-2.55,5.26-4.57,10.78-6.72,16.23
	c-1.95,4.95-3.68,9.98-5.66,14.91c-1.97,4.93-4.07,9.82-6.21,14.68c-1.25,2.82-2.75,5.53-4.04,8.33
	c-3.15,6.85-6.22,13.73-9.37,20.58c-1.6,3.48-3.46,6.84-4.9,10.38c-4.21,10.34-8.27,20.74-12.4,31.11
	c-1.6,4.02-3.45,7.96-4.83,12.06c-1.94,5.73-3.72,11.53-5.25,17.38c-1.94,7.4-3.6,14.88-5.34,22.34
	c-1.18,5.05-2.34,10.11-3.38,15.19c-0.68,3.33-0.97,6.75-1.74,10.06c-0.55,2.35-1.83,4.53-2.44,6.87
	c-1.81,6.97-2.38,14.02-1.56,21.25c0.72,6.34,1.13,12.76,1.15,19.14c0.02,6.61-0.59,13.21-0.91,19.82
	c-0.22,4.48-0.55,8.95-0.56,13.43c-0.01,3.51,0.28,7.03,0.7,10.52c0.09,0.78,1.2,1.74,2.05,2.06c6.39,2.4,12.8,4.74,19.27,6.91
	c2.29,0.77,4.73,1.16,7.14,1.42c1.92,0.2,3.7,0.41,5.53,1.23c2,0.89,4.31,1.17,6.52,1.51c3.87,0.6,4.82,1.68,4.16,5.56
	c-0.59,3.46-1.44,6.88-2.11,10.33c-0.22,1.14-0.25,2.32-0.3,3.49c-0.12,2.76-1.39,4.01-4.08,3.48c-8.57-1.7-17.32-2.9-25.37-6.4
	c-6.33-2.75-11.54-7.1-14.74-13.55c-1.25-2.51-2.43-4.96-2.61-7.78c-0.12-1.85-0.91-2.81-2.95-3.03c-4.34-0.46-8.62-1.56-12.96-1.75
	c-5.75-0.24-9.9,5.53-8.61,11.19c0.32,1.4,0.31,2.96,0.08,4.38c-0.81,5.04-1.78,10.06-2.69,15.08c-0.17,0.94-0.51,1.9-0.44,2.83
	c0.39,5.5-1.92,10.4-3.34,15.49c-2.2,7.88-2.51,15.75-0.05,23.64c0.25,0.8,0.56,1.63,0.6,2.46c0.24,4.86,1.97,9.34,3.46,13.88
	c0.4,1.21,0.86,2.44,0.97,3.69c0.39,4.36,0.84,8.73,0.89,13.09c0.06,6.67,0.89,13.28,2.77,19.59c1.93,6.47,5.56,12.24,10.81,16.69
	c1.3,1.11,3.24,1.64,4.97,2c0.85,0.18,2.28-0.35,2.8-1.05c1.58-2.11,3.05-4.35,4.19-6.72c1.51-3.14,2.78-6.4,3.95-9.69
	c2.26-6.33,2.45-12.96,2.5-19.59c0.04-5.54,0.64-10.98,1.71-16.43c0.96-4.9,1.13-9.96,2-14.88c1.2-6.82,2.65-13.6,4.12-20.38
	c0.55-2.54,1.67-3.31,4.34-3.42c1.71-0.07,3.42,0.01,5.13,0c1.79-0.01,2.95-0.97,3-2.68c0.08-2.64,0.08-5.32-0.33-7.91
	c-0.4-2.51-0.07-4.41,1.64-5.34c1.69-0.92,4.19-0.11,5.6,1.82c4.62,6.29,9.68,12.14,16.16,16.62c3.67,2.54,5.31,6.63,7.63,10.15
	c2.01,3.05,3.97,6.01,6.71,8.48c4.58,4.14,8.92,8.48,13.94,12.2c4.64,3.43,8.71,7.68,12.29,12.46c6.71,8.95,13.99,17.47,21.12,26.11
	c3.18,3.85,6.48,7.62,9.88,11.27c3.49,3.75,6.88,7.67,10.82,10.89c7.75,6.33,14.18,14.23,22.91,19.38
	c7.04,4.16,14.07,8.35,21.19,12.38c6.04,3.41,12.2,6.6,18.3,9.88c0.19,0.1,0.36,0.25,0.56,0.32c9.61,3.63,17.39,10.32,26.03,15.57
	c6.12,3.72,12.43,7.14,19.22,9.34c7.39,2.39,14.91,4.38,22.68,5.4c5.59,0.74,11.07,2.32,16.56,3.67c4.53,1.12,9.09,2.22,13.48,3.75
	c6.74,2.35,13.63,2.23,20.58,1.94c1.37-0.06,2.75,0.08,4.13,0.1c1.17,0.02,2.44,0.31,3.48-0.06c3.4-1.21,6.92-0.9,10.4-1.24
	c3.81-0.37,7.71-0.6,11.34-1.66c3.08-0.9,6.08-1.45,9.27-1.85c6.12-0.76,12.2-1.93,18.38-2.39c2.51-0.19,4.94-1.29,7.45-1.59
	c6.44-0.78,12.94-1.15,19.36-2.05c6.22-0.88,12.36-2.27,18.55-3.33c5.15-0.88,10.33-1.57,15.48-2.41c1.67-0.27,3.4-0.56,4.94-1.21
	c6.89-2.89,13.76-5.84,20.56-8.92c4.85-2.2,9.75-4.36,14.32-7.06c4.47-2.63,8.54-5.93,12.8-8.92c4.01-2.81,8.03-5.62,12.06-8.4
	c3.43-2.36,6.82-4.77,10.35-6.98c5.51-3.45,10.94-6.96,15.84-11.31c3-2.66,6.57-4.69,9.73-7.19c5.51-4.37,10.47-9.3,14.75-14.93
	c1.6-2.11,3.59-3.95,5.53-5.77c3.42-3.21,6.89-6.36,10.43-9.43c1.11-0.96,2.44-1.72,3.77-2.37c4.5-2.2,9.05-4.31,13.57-6.46
	c0.29-0.14,0.61-0.26,0.83-0.47c4.58-4.61,11.17-6.69,15.14-12.08c0.94-1.28,2.13-2.36,3.16-3.57c4.21-4.94,8.17-10.09,13.84-13.59
	c3.69-2.28,5.71-6.19,7.5-9.81c3.03-6.15,5.15-12.74,7.65-19.14c0.11-0.29,0.15-0.63,0.15-0.95c-0.07-4.36-0.14-8.71-0.23-13.07
	c0-0.21-0.1-0.42-0.12-0.63c-0.28-2.66,0.7-4.39,2.69-4.74c2.07-0.37,3.68,0.77,4.46,3.2c0.82,2.54,1.68,5.06,2.39,7.63
	c0.48,1.71,1.56,2.31,3.22,2.58c4.14,0.68,9.79-3.11,11.78-7.36c1.44-3.07,3.03-6.13,3.97-9.36c1.21-4.18,2.1-8.49,2.64-12.8
	c0.35-2.8,1.11-5.26,3.02-7.22c4.13-4.24,6.73-9.52,10.06-14.3c2.16-3.1,4.86-5.37,8.09-7.41c4.27-2.69,8.94-4.94,12.25-9.06
	c1.59-1.98,1.63-3.62,0.54-5.82c-2.29-4.6-5.52-5.2-9.82-3.7c-2.68,0.93-5.1,2.37-8,2.94c-2.1,0.41-3.89,2.42-5.8,3.74
	c-1.05,0.72-1.98,1.66-3.09,2.24c-3.54,1.84-6.37,4.44-8.84,7.54c-1.65,2.08-3.63,3.89-5.47,5.82c-1.37,1.44-2.88,2.28-5.05,2.18
	c-2.68-0.12-2.96,0.34-2.93,2.95c0.01,0.96,0.15,1.91,0.25,2.87c0.06,0.64,0.23,1.27,0.22,1.9c-0.05,2.6-1.21,4.26-2.93,4.28
	c-1.9,0.03-3.73-2.15-3.65-4.52c0.11-3.19,0.38-6.38,0.51-9.57c0.16-3.92,0.63-7.81-0.75-11.72c-0.53-1.52,0.22-3.5,0.45-5.27
	c0.09-0.72,0.55-1.44,0.5-2.14c-0.22-3.72-0.56-7.43-0.83-11.14c-0.08-1.05-0.2-2.13-0.07-3.17c0.75-6,1.75-11.97,2.33-17.99
	c0.63-6.47,0.79-12.99,1.36-19.46c0.46-5.3-0.68-10.36-1.61-15.49c-0.9-4.91-1.82-9.84-2.28-14.8c-0.68-7.32-1.68-14.64-1.28-22.04
	C864.61,298.6,864.32,298.11,863.98,297.03z M364.84,293.46c0.03,0.15,0.05,0.3,0.08,0.44c3.34-0.6,6.7-1.09,10.01-1.81
	c4.71-1.03,9.12-2.49,12.57-6.34c1.77-1.98,2.76-3.92,3.02-6.43c0.09-0.83,0.11-1.75,0.5-2.44c1.81-3.21,2.02-6.79,2.52-10.29
	c0.25-1.77,0.06-3.6,0.1-5.4c0.06-2.77-1.43-5.15-4.05-5.79c-2.36-0.58-4.83-1.13-7.24-1.07c-10.7,0.24-20.9,2.49-30.15,8.16
	c-4.88,2.99-8.84,6.78-11.4,12.04c-1.33,2.73-2.63,5.62-5.38,7.41c-0.6,0.39-1.04,1.08-1.42,1.71c-0.99,1.64-0.76,3.27,0.59,4.61
	c1.2,1.2,2.47,2.34,3.62,3.59c1.15,1.25,2.42,1.4,4.05,1.16c2.4-0.35,4.86-0.55,7.28-0.46
	C354.63,292.73,359.74,293.14,364.84,293.46z M233.41,433.77c-0.2,0.28-0.4,0.55-0.6,0.83c0.9,2.13,1.42,4.53,2.75,6.34
	c5.79,7.92,13.84,11.93,23.52,12.88c1.16,0.11,2.32,0.29,3.45,0.57c6.87,1.71,8.35,0.44,8.78-6.91c0.01-0.21-0.01-0.43-0.01-0.64
	c0.01-1.89-0.91-2.91-2.8-3.26c-3.35-0.61-6.7-1.25-10-2.06c-2.88-0.71-5.72-1.61-8.52-2.56c-3.82-1.3-7.58-2.81-11.41-4.08
	C236.91,434.32,235.13,434.13,233.41,433.77z M323.85,291.62c-2.44,0.2-4.12,0.43-5.54,1.82c-3.89,3.78-8.02,7.33-11.74,11.26
	c-5.63,5.95-11.01,12.13-16.44,18.27c-1.48,1.67-0.78,3.55,1.48,3.49c2.15-0.06,4.62-0.45,6.33-1.6c3.7-2.49,7.03-5.53,9.66-9.24
	c4.79-6.78,9.65-13.53,14.42-20.32C322.7,294.31,323.1,293.13,323.85,291.62z M656.03,322.67c1.04-0.27,2.16-0.47,3.22-0.84
	c2.61-0.91,5.19-1.89,7.79-2.86c2.58-0.96,5.2-1.8,7.71-2.9c5.36-2.35,10.61-4.98,16.02-7.19c3.15-1.28,5.78-3.14,8.18-5.43
	c1.85-1.76,3.66-3.57,5.41-5.43c0.5-0.53,0.72-1.31,1.08-1.97c-0.16-0.18-0.31-0.37-0.47-0.55c-1.4,0.36-2.85,0.58-4.17,1.13
	c-2.16,0.9-4.22,2.02-6.32,3.05c-5.63,2.76-11.26,5.53-16.89,8.3c-3.72,1.83-7.43,3.67-11.17,5.46c-3.37,1.62-6.67,3.33-9.32,6.03
	C656.35,320.23,655.08,320.88,656.03,322.67z M860.63,288.97c-3.14-0.01-5.87-0.12-8.57,0.04c-0.57,0.03-1.37,0.95-1.59,1.61
	c-1.71,5.19-2.3,10.61-2.34,16.01c-0.04,4.55,0.72,9.11,1.11,13.66c0.12,1.4,0.5,2.61,2.31,3.79c0.5-2.54,0.98-4.67,1.33-6.81
	c0.62-3.76,0.79-7.64,1.83-11.28C856.28,300.5,858.43,295.17,860.63,288.97z M370.38,300.02c-0.99-0.11-1.8-0.23-2.62-0.3
	c-2.85-0.24-5.82-0.03-8.52-0.79c-3.72-1.04-7.35-0.69-11.02-0.35c-1.58,0.15-3.13,0.69-4.69,1.05c0.62,0.89,1.16,1.19,1.75,1.36
	c7.51,2.29,15.22,1.01,22.85,1.25C369.1,302.28,370.28,301.98,370.38,300.02z M361.27,309.5c-4.06-1.67-11.44-1.44-14.28,0.36
	c1.51,2.67,2.51,5.69,5.88,7.23C355.73,314.69,358.93,312.85,361.27,309.5z M658.36,328.29c0.12,0.31,0.25,0.62,0.37,0.94
	c4.12-1.57,8.23-3.14,12.35-4.71c-0.1-0.28-0.21-0.55-0.31-0.83C666.02,323.57,662.21,325.99,658.36,328.29z M615.15,445.27
	c-0.65,3.31-2.08,6.54-0.66,9.9C615.3,451.89,617.2,448.69,615.15,445.27z M331.69,295.25c0.04-0.28,0.08-0.57,0.12-0.85
	c-0.65-0.45-1.25-1.02-1.96-1.31c-1-0.41-1.6,0.22-1.83,1.15c-0.27,1.11,0.37,1.63,1.36,1.58
	C330.15,295.78,330.92,295.45,331.69,295.25z"/>
<path d="M737.96,424.69c4.59,0.88,7.86-0.71,10.72-4.01c2.5-2.88,6.7-2.9,10.53-0.09c2.6,1.91,5.09,3.26,8.47,2.97
	c2.14-0.19,3.83,1.55,4.32,4.01c0.84,4.21,2.2,8.15,4.59,11.78c0.96,1.46,1.44,3.29,1.86,5.02c0.42,1.72,0.12,3.35-1.38,4.64
	c-4.81,4.13-9.81,7.84-16.08,9.56c-2.86,0.79-5.53,2.22-8.33,3.25c-3.54,1.3-6.41,0.23-8.85-2.57c-2.54-2.92-4.26-6.11-5.67-9.8
	c-1.47-3.85-1.16-7.33-0.56-11.02c0.16-0.98,0.76-1.92,1.27-2.81c0.47-0.82,1.16-1.51,1.62-2.33c1.21-2.14,0.59-3.25-1.87-3.01
	c-3.39,0.33-6.76,0.95-10.14,1.38c-1.48,0.19-2.98,0.37-4.46,0.33c-1.85-0.06-3.04-1.14-3.17-2.58c-0.17-1.82,1.22-2.42,2.51-2.85
	c1.19-0.4,2.5-0.5,3.77-0.65C730.79,425.48,734.5,425.08,737.96,424.69z M748.54,453.86c-0.16-2.38-0.52-3.87-0.3-5.27
	c0.55-3.56,1.36-7.08,2.09-10.61c0.39-1.87,0.89-3.71,1.2-5.59c0.09-0.52-0.18-1.46-0.54-1.62c-0.55-0.24-1.64-0.24-1.95,0.13
	c-0.93,1.09-1.68,2.37-2.35,3.66c-0.48,0.93-0.52,2.12-1.11,2.96c-2.21,3.15-2.12,6.65-1.54,10.13
	C744.45,450.13,746.16,451.93,748.54,453.86z M766.68,435.54c-0.27,0.05-0.53,0.1-0.8,0.15c-0.83,2.36-2.27,4.71-2.33,7.09
	c-0.08,2.98-1.2,4.74-3.54,6.2c-1.39,0.86-2.75,1.9-2.91,3.94c0.56,0.08,1.01,0.29,1.36,0.18c4.3-1.33,8.21-3.38,11.48-6.51
	c1.09-1.04,0.91-2.28,0.39-3.54c-0.69-1.66-1.32-3.34-2.08-4.96C767.83,437.19,767.21,436.39,766.68,435.54z"/>
<path d="M497.55,446.03c0,1.17,0.07,2.35-0.01,3.52c-0.18,2.47,0.4,4.44,2.37,6.24c1.87,1.72,2.98,4.13,2.96,6.83
	c-0.05,6.93-0.01,13.87-0.24,20.8c-0.08,2.51-0.62,5.06-1.32,7.49c-0.81,2.8-3.3,4.35-5.78,5.1c-6.27,1.89-10.88,2.18-15.93-2.92
	c-3.15-3.17-5.64-6.9-7.53-10.99c-2.86-6.2-5.08-12.59-5.75-19.45c-0.15-1.58-0.58-3.14-0.78-4.72c-0.25-2,0.36-3.69,2.43-4.32
	c1.66-0.5,2.05-1.58,2.14-3.11c0.08-1.38,0.28-2.76,0.57-4.11c0.7-3.23,2.7-5.65,6.6-4.4c2.73,0.87,5.46,1.44,7.95,3.11
	c1.47,0.99,3.62,1.03,5.49,1.35c1.17,0.2,1.74-0.6,1.87-1.7c0.22-1.9,0.36-3.81,0.64-5.69c0.2-1.35-0.43-3.6,1.6-3.49
	c0.98,0.05,2.39,2.12,2.65,3.47c0.44,2.26,0.12,4.67,0.12,7.01C497.59,446.03,497.57,446.03,497.55,446.03z M496.53,460.63
	c-0.63,1.08-1.14,1.62-1.28,2.24c-0.98,4.47-1.94,8.95-2.81,13.44c-0.58,3.02-2.12,4.7-4.48,4.4c-2.48-0.32-3.51-2.37-4.22-4.34
	c-1.78-4.89-5.53-8.19-9.01-11.73c-0.2-0.2-0.56-0.23-0.88-0.36c-1.23,1.26-2.1,2.64-0.89,4.22c1.32,1.74,1.56,3.64,1.39,5.68
	c-0.24,2.82,1.81,4.71,2.85,7c1.5,3.32,3.49,6.3,6.12,8.9c2.87,2.83,6.22,2.71,9.55,1.73c3.46-1.02,4.79-3.66,4.83-7.36
	c0.07-5.41,0.61-10.81,1-16.21C498.89,465.72,498.26,463.44,496.53,460.63z M480.72,461.16c1.5-1.38,1.07-3.18,0.83-4.76
	c-0.26-1.73-0.43-3.32,0.48-4.9c0.79-1.37,0.38-2.38-1.03-3.12c-2.13-1.12-3.63-1.14-4.64,0.06c-1.67,1.97-1.44,5.25,0.32,7.2
	c0.74,0.82,1.33,1.88,1.66,2.93C478.74,459.86,479.06,461.02,480.72,461.16z"/>
<path d="M627.95,590.21c0.75,0.06,1.51,0.04,2.23,0.2c1.89,0.43,3.24,2.34,2.88,3.97c-0.56,2.53-1.98,3.88-4.14,3.44
	c-7.02-1.42-13.71,0.63-20.51,1.68c-1.57,0.24-3.14,0.64-4.72,0.68c-0.67,0.02-1.76-0.56-1.94-1.1c-0.19-0.55,0.32-1.62,0.86-2.08
	c2.67-2.31,6.07-3.03,9.36-3.82c4.23-1.02,8.54-1.72,12.83-2.53C625.83,590.45,626.89,590.35,627.95,590.21z"/>
<path d="M339.56,368.06c-1.28,1.4-2.68,1.02-4.01,0.73c-1.56-0.34-3.07-1.01-4.64-1.15c-1.51-0.13-3.14-0.02-4.57,0.44
	c-1.36,0.43-2.33,0.57-3.47-0.46c-1.09-0.99-2.42-1.7-3.63-2.56c-1.31-0.93-1.94-3.4-1.2-4.54c0.83-1.27,3.07-1.59,4.6-0.94
	c4.15,1.75,8.32,3.5,12.56,5.01C337.81,365.51,338.25,365.59,339.56,368.06z"/>
<path d="M622.16,609.14c1.1,2.31-0.43,3.47-1.63,4.54c-1.26,1.13-2.81,2.07-4.63,1.59c-0.59-0.16-1.4-0.92-1.41-1.41
	c-0.01-0.67,0.48-1.7,1.05-1.98C617.61,610.86,619.79,610.1,622.16,609.14z"/>
</svg>
