<?xml version="1.0" encoding="utf-8"?>
<!-- Generator: Adobe Illustrator 24.1.0, SVG Export Plug-In . SVG Version: 6.00 Build 0)  -->
<svg version="1.1" id="Layer_1" xmlns="http://www.w3.org/2000/svg" xmlns:xlink="http://www.w3.org/1999/xlink" x="0px" y="0px"
	 viewBox="0 0 1224 792" style="enable-background:new 0 0 1224 792;" xml:space="preserve">
<path d="M354.2,0.73c0,260.61,0.01,521.22,0.01,781.83c0,1.01-0.01,2.02-0.01,3.04c-0.18,0-0.53,0-0.53,0
	c-0.02-0.83-0.02-1.66-0.02-2.48c0-259.96,0-519.93,0-779.89c0-0.83,0-1.66,0.02-2.48C353.67,0.72,354.02,0.73,354.2,0.73z"/>
<path d="M954.98,112.98c0.11,0.83,0.2,1.54,0.32,2.42c2.13,0.23,2.12,2.36,3.07,3.68c1.76,2.44,3.26,5.08,4.86,7.64
	c0.24,0.38,0.53,0.74,0.71,1.15c0.6,1.43,0.58,1.44,2.13,2.43c0.02,1.37,0.51,2.62,1.63,3.74c0.86,0.86,1.27,2.17,1.92,3.25
	c1.33,2.24,2.64,4.5,4.05,6.7c1.98,3.07,3.87,6.22,5.42,9.5c0.74,1.57,1.89,3.25,1.54,5.32c-0.14,0.83,0.3,1.76,0.5,2.64
	c0.16,0.71,0.38,1.4,0.54,2.1c0.08,0.36-0.09,0.89,0.11,1.07c1.72,1.65,1.11,3.7,0.99,5.63c-0.25,4.03,0.44,7.96,0.93,11.92
	c0.31,2.44,0.35,4.91,1.25,7.25c0.47,1.22,0.91,2.48,1.09,3.76c0.19,1.35-0.1,2.78,0.11,4.13c0.19,1.24,0.55,2.59,1.25,3.58
	c0.77,1.09,0.91,2.14,0.89,3.35c-0.03,1.65,0.44,3.22,0.74,4.81c0.45,2.38,1.96,4.55,1.5,7.11c-0.08,0.43-0.04,0.99,0.18,1.34
	c1.14,1.75,0.85,3.7,0.92,5.62c0.16,4.94,0.34,9.89,0.56,14.83c0.07,1.58,0.32,3.16,0.47,4.74c0.03,0.36,0.14,0.85-0.04,1.08
	c-1.54,1.94-0.16,4.02-0.33,6.03c-0.11,1.33,0.37,2.7,0.41,4.05c0.07,2.76,0.03,5.52,0.01,8.28c-0.01,1.35,0.29,2.79-0.89,3.88
	c0.18,2.2-1.74,3.94-1.34,6.22c0.28,1.63-1.2,2.71-1.5,4.23c-0.45,2.34-2.03,4.4-1.81,6.94c-1.2,1.48-1.04,3.38-1.56,5.07
	c-0.9,2.93-1.77,5.87-2.21,8.91c-0.11,0.79,0.07,1.62,0.13,2.68c-1.25,1.12-1.85,2.69-1.94,4.67c-0.07,1.67-0.65,3.4-1.35,4.94
	c-0.27,0.6-0.31,1.1-0.38,1.68c-0.21,1.7-1.19,3.16-1.76,4.72c-0.57,1.56-0.8,3.05-0.82,4.6c-0.07,5.31-0.02,10.62-0.04,15.93
	c0,0.79,0.07,1.54-0.62,2.28c-0.46,0.49-0.43,1.52-0.46,2.32c-0.06,1.65,0.15,3.32-0.86,4.8c-0.15,0.21-0.23,0.53-0.21,0.78
	c0.15,2.62-0.09,5.1-2.03,7.15c-0.3,0.32-0.12,1.06-0.22,1.6c-0.22,1.15-0.48,2.3-0.72,3.45c-0.13,0.62-0.36,1.24-0.36,1.86
	c-0.01,1.57-0.04,3.08-0.85,4.53c-0.33,0.59-0.21,1.43-0.27,2.15c-0.13,1.49,0.41,3.08-0.97,4.37c-0.34,0.32-0.14,1.24-0.14,1.88
	c0,3.41-0.03,6.81,0.04,10.22c0.02,0.74-0.57,1.85,0.89,2.16c0.18,0.04,0.16,1.19,0.17,1.82c0.03,1.46,0.28,2.84,0.68,4.29
	c0.54,1.95,0.56,4.12,0.38,6.16c-0.11,1.26-0.15,2.43-0.05,3.7c0.24,2.93,0.31,5.91-0.02,8.82c-0.15,1.29-0.61,2.44,0.05,3.69
	c0.14,0.26,0.05,0.88-0.15,1.02c-1.44,1.05-0.68,2.25-0.35,3.46c0.58,2.13,1.33,4.26,1.59,6.43c0.28,2.27,0.06,4.6,0.07,6.9
	c0,1.1,0,2.21,0.02,3.31c0.01,0.45-0.09,1.16,0.15,1.32c1.68,1.14,0.92,2.77,0.93,4.22c0.03,2.76-0.01,5.52,0.04,8.28
	c0.01,0.6-0.48,1.6,0.84,1.58c0.07,0,0.22,0.3,0.21,0.45c-0.24,3.72,0.77,7.53-0.78,11.08c0.28,0.91,0.83,1.81,0.75,2.64
	c-0.27,2.53,0.54,4.83,1.21,7.16c0.23,0.81,1.38,1.13,1.11,2.33c-0.22,0.96-0.03,2.02-0.05,3.03c-0.01,0.89,0.15,1.79-0.74,2.51
	c-0.32,0.26-0.4,1.03-0.33,1.53c0.22,1.52-0.73,2.31-1.73,3.13c-1.84,1.49-4.04,2.51-5.09,4.95c-0.36,0.84-1.89,1.26-2.96,1.69
	c-0.65,0.26-1.43,0.19-2.29,0.29c-1.09-0.63-1.43-1.48-0.78-2.88c0.85-1.83,0.96-3.72,0.44-5.81c-0.38-1.56,0.18-3.38,0.44-5.07
	c0.05-0.31,0.63-0.65,1.02-0.77c0.59-0.19,1.23-0.19,2.04-0.3c-0.38-2.11,0.91-4.11-0.11-6.19c-0.58,0.32-1.03,0.57-1.77,0.97
	c0-1.02,0-1.82,0-2.67c-0.31-0.02-0.61-0.13-0.82-0.05c-0.79,0.31-0.58,1.72-1.92,1.61c-0.75-0.06-1.54,0.46-2.5,0.78
	c0.16,0.66,0.37,1.23,0.44,1.82c0.07,0.62,0.02,1.26,0.02,1.96c-1.04,0-1.99,0-2.92,0c-0.31,0.55-0.62,1.08-1,1.76
	c0.42,0.46,0.94,1.03,1.51,1.66c-0.64,1.39-1.3,2.82-2.15,4.67c0.01,0.7,0.79,1.97-0.56,3.03c-0.32,0.25-0.29,1.02-0.3,1.55
	c-0.04,1.75,0,3.5-0.03,5.25c-0.02,0.88,0.27,1.86-0.73,2.49c-0.19,0.12-0.31,0.47-0.32,0.72c-0.17,3.31-1.64,6.47-1.15,9.85
	c0.05,0.36,0.13,0.85-0.05,1.08c-1.75,2.2-0.61,4.57-0.52,6.89c0.03,0.9,0.06,1.89-0.25,2.71c-0.57,1.5-0.06,2.41,1.09,3.31
	c1.16,0.92,2.33,1.72,3.87,1.76c0.28,0.01,0.62-0.06,0.81,0.08c2.49,1.82,5.35,1.03,8,0.94c1.93-0.07,3.88-0.94,5.73-1.67
	c0.65-0.26,1.04-1.18,1.73-2.02c1.72-0.11,3.68-0.28,5.65-0.35c1.33-0.05,2.65,1.17,2.63,2.61c-0.02,1.36,0.24,2.51,1.26,3.41
	c0.95,0.84,0.85,2.46,2.28,2.94c0.32,0.11,0.79,0.44,0.79,0.67c0.02,1.63,1.39,2.26,2.28,3.23c1.24,1.34,2.14,2.68,2.45,4.68
	c0.26,1.63,1.18,3.23,0.89,4.98c-0.22,1.31-0.83,2.56-1.03,3.87c-0.21,1.33-0.22,2.58-0.8,3.93c-0.66,1.56-0.98,3.25-2.12,4.62
	c-1.03,1.24-1.94,2.59-3,3.8c-0.47,0.53-1.15,1-1.82,1.2c-2.87,0.84-5.78,1.51-8.64,2.38c-1.36,0.41-2.62,1.14-3.95,1.69
	c-1.34,0.55-2.68,1.14-4.08,1.53c-1.02,0.28-1.81,0.67-2.43,1.59c-0.75,1.12-1.9,1.64-3.27,1.76c-1.96,0.18-3.07,1.35-3.06,3.21
	c0.01,1.4-0.25,2.66-0.79,3.99c-1.04,2.53-1.71,5.22-2.63,7.79c-0.6,1.67-2.02,3.05-3.09,4.56c-0.47,0.66-1.22,1.23-1.43,1.96
	c-0.45,1.59-1.01,3.09-1.93,4.49c-0.45,0.68-1.79,2.54-2.38,3.06c-2.04,1.78-4.14,3.51-5.46,5.96c-0.24,0.44-0.66,0.81-1.07,1.13
	c-2.14,1.69-4.31,3.36-6.46,5.03c-0.5,0.39-0.98,0.79-1.48,1.18c-0.77,0.61-1.54,1.21-2.33,1.8c-0.36,0.27-0.73,0.59-1.15,0.72
	c-2.17,0.68-3.58,2.37-5.26,3.75c-1.08,0.88-2.09,1.91-3.6,2.27c-1.98,0.46-2.99,2.28-4.17,3.7c-0.71,0.86-1.45,1.54-2.3,2.23
	c-1.31,1.07-2.71,2.04-3.68,3.58c-1.05,1.65-2.5,3.13-4.01,4.4c-3.35,2.82-6.43,5.88-9.14,9.33c-0.72,0.91-1.97,1.31-2.81,2.24
	c-1.07,1.18-2.37,2.15-3.62,3.15c-1.19,0.96-2.47,1.82-3.65,2.79c-1.75,1.44-3.47,2.92-5.16,4.44c-0.38,0.34-0.54,0.93-0.86,1.36
	c-0.42,0.57-0.79,1.31-1.38,1.62c-2.13,1.14-3.62,2.94-5.25,4.63c-1.53,1.59-3.33,2.93-4.87,4.52c-1.99,2.05-3.94,4.16-5.71,6.39
	c-1.19,1.51-2.4,2.85-4.13,3.78c-1.17,0.63-2.14,1.64-3.24,2.43c-0.43,0.31-0.96,0.46-1.44,0.71c-0.64,0.35-1.51,0.57-1.86,1.11
	c-0.74,1.15-1.89,1.66-2.97,2.27c-3.44,1.93-6.17,4.77-9.32,7.07c-2.53,1.85-4.31,4.46-6.93,6.16c-0.15,0.1-0.25,0.27-0.36,0.41
	c-1.87,2.48-4.15,4.53-6.61,6.4c-0.21,0.16-0.43,0.39-0.52,0.63c-0.36,0.98-1.08,1.37-2.02,1.8c-1.11,0.51-2,1.54-2.93,2.41
	c-1.85,1.74-3.8,3.32-6.07,4.52c-0.77,0.41-1.41,1.13-1.99,1.81c-1.93,2.26-4.06,4.21-7.01,5.06c-0.51,0.15-1.07,0.36-1.44,0.72
	c-2.03,1.96-4.64,3.45-6.27,5.6c-1.91,2.52-4.66,3.7-6.82,5.72c-0.81,0.76-1.99,1.11-2.96,1.71c-3.86,2.37-7.58,4.95-11.14,7.75
	c-0.64,0.5-1.46,0.77-2.19,1.15c-0.8,0.41-1.71,0.65-1.86,1.81c-0.04,0.34-0.57,0.78-0.95,0.88c-2.5,0.63-4.28,2.4-6.27,3.83
	c-0.59,0.43-1.23,0.79-1.88,1.13c-0.4,0.21-0.95,0.19-1.27,0.47c-1.83,1.61-3.64,3.22-6.2,3.56c-2.09,1.94-4.76,2.65-7.38,3.41
	c-3.92,1.14-7.86,2.31-12.01,2.26c-0.35,0-0.72,0.04-1.05,0.15c-2.79,0.97-5.76,0.81-8.62,1.34c-2.81,0.52-5.68-0.02-8.5,0.93
	c-1.85,0.63-3.96,0.48-5.96,0.69c-3.53,0.37-7.07,0.73-10.59,1.14c-0.53,0.06-1.03,0.34-1.55,0.51c-0.51,0.17-1.08,0.57-1.53,0.47
	c-1.67-0.37-2.94,0.2-4.19,1.23c-0.93,0.76-2.07,0.62-3.29,0.24c-1.09,1.37-2.42,2.12-4.38,1.49c-0.96-0.31-2.04-0.37-2.92,0.81
	c-0.85,1.14-2.38,1.2-3.72,0.92c-1.27-0.27-2.14-0.17-3.1,0.94c-0.71,0.82-2.06,1.08-3.25,1.66c-1.18-0.92-2.54-1.1-4.04-1.19
	c-2.01-0.13-2.12,1.81-3.52,2.62c-2.1-1.14-4.31-0.41-6.66-0.08c-3.41,0.49-6.88,0.66-10.28,1.34c-1.44,0.29-2.72-0.41-4.03-1.24
	c-1.73-1.1-3.69-2.15-5.67-2.46c-2.32-0.36-3.73-1.69-5.27-3.11c-0.39-0.36-0.99-0.5-1.57-0.78c-0.96-1.43-2.38-2.91-3.04-4.68
	c-1.04-2.79-3.52-3.17-5.68-4.18c-0.41-0.19-0.92-0.22-1.26-0.49c-2.97-2.32-6.54-3.48-9.85-5.13c-1.37-0.68-2.64-1.58-4.02-2.26
	c-3.01-1.48-6.08-2.84-9.09-4.32c-1.13-0.56-2.32-1.14-3.2-2.01c-1.3-1.28-2.81-1.97-4.49-2.47c-0.17-0.05-0.45-0.06-0.5-0.18
	c-0.83-1.66-2.73-1.98-3.94-3.18c-0.9-0.88-1.69-1.82-3-2.33c-0.99-0.39-1.32-1.95-2.7-2.15c-0.23-0.03-0.41-0.52-0.59-0.82
	c-0.19-0.31-0.27-0.72-0.53-0.94c-1.94-1.66-4.02-3.17-5.85-4.95c-1.75-1.69-3.95-2.7-5.78-4.24c-1.8-1.52-3.56-3.07-5.33-4.62
	c-0.2-0.18-0.5-0.39-0.52-0.61c-0.23-2.23-2.22-2.93-3.58-4.17c-1.53-1.4-2.84-3.04-4.66-4.13c-0.04-2.33-2.33-2.59-3.6-3.72
	c-1.32-1.18-3.01-2.07-4.69-2.71c-2.22-0.86-2.97-2.72-3.84-4.59c-1.05,0.52-2.11,1.03-3.2,1.57c-1.88-1.88-1.83-4.7-3.09-6.93
	c-0.49-0.87-0.64-1.93-1.16-2.77c-0.66-1.06-1.4-2.17-2.38-2.89c-0.73-0.54-1.59-0.73-1.57-1.88c0.01-0.3-0.29-0.77-0.56-0.88
	c-1.68-0.65-1.71-2.22-2.11-3.6c-0.1-0.35-0.07-0.88-0.29-1.03c-2.51-1.65-3.8-5.02-7.43-5.13c-0.68-0.02-1.59-0.63-1.96-1.23
	c-1.09-1.8-2.1-3.71-1.9-5.92c0.19-2.11-0.51-3.77-2.11-5.11c-0.35-0.29-0.69-0.63-0.93-1.01c-0.5-0.77-2.41-2.93-2.92-3.42
	c-1.27-1.22-2.54-1.31-3.92-0.2c-0.2,0.16-0.48,0.22-0.89,0.39c-0.19-0.4-0.53-0.78-0.5-1.11c0.13-1.16,0.38-2.31,0.63-3.69
	c-0.46,0.03-0.87,0.05-1.43,0.08c-0.53-1.77-1.26-3.49-2.43-5.02c-0.72-0.94-0.48-2.05-0.1-3.16c0.35-1-0.32-1.28-1.21-1.22
	c-0.98-1.52,1.05-4-1.49-4.99c-1.02,0.55-1.96,1.06-3.06,1.65c-0.43-0.7-0.75-1.21-1.07-1.72c-1.15-0.38-2.09-0.06-3.04,0.69
	c-1.35,1.07-2.96,1.15-4.38,0.24c-0.93-0.6-2.21-1.57-2.27-2.45c-0.13-1.88-1.71-3.63-0.62-5.67c1.62-0.33,2.27,0.75,2.81,1.92
	c1.94,0.33,3.73,0.26,5.15-1.25c0.47-0.5,0.97-0.89,0.99-1.82c0.03-1.06,0.73-2.01,2.44-1.34c-0.65-2.18-0.39-4.15-1.37-6.03
	c-0.52-0.99-0.36-2.51-0.09-3.7c0.28-1.22,0.26-2.13-0.68-2.98c-0.27-0.24-0.53-0.56-0.62-0.89c-0.45-1.64-0.8-3.3-1.27-4.93
	c-0.42-1.47-0.68-3.03-1.72-4.25c-0.6-0.71-0.88-1.5-1.05-2.46c-0.22-1.28-0.64-2.52-1.3-3.76c-1.27-2.36-2.9-4.58-3.67-7.2
	c-0.07-0.24-0.28-0.46-0.48-0.63c-3.15-2.67-5.09-6.11-6.75-9.85c-0.91-2.03-1.32-4.37-3.06-6.04c-0.46-0.44-0.67-1.35-0.66-2.04
	c0.04-2.18-1.06-4.04-1.51-6.06c-0.55-2.47-2.57-4.57-1.89-7.33c-0.91-1.44-1.8-2.9-2.73-4.32c-0.29-0.43-0.93-0.72-1.03-1.16
	c-0.5-2.06-1.88-3.27-3.67-4.15c-3-1.47-4.88-4.26-7.39-6.32c-3.35-2.74-6.89-5.02-11.27-5.78c-2.78-0.48-5.54-1.12-8.26-1.83
	c-1.03-0.27-2.01-0.86-2.92-1.44c-2.65-1.69-5.25-3.46-7.88-5.19c-0.3-0.2-0.65-0.33-1-0.41c-1.68-0.37-3.36-0.9-5.06-1
	c-1.31-0.08-2.56,0.34-3.38,1.75c-1.67,2.85-4.62,4.41-7.27,6.05c-2.36,1.46-5.31,1.91-8.16,2.03c-1.75,0.08-3.52-0.16-5.24,0.05
	c-3.44,0.42-6.56-0.63-9.55-1.97c-2.25-1-4.08-2.39-4.2-5.49c-0.09-2.34-0.43-4.86-1.93-7.03c-0.6-0.86-0.56-2.27-0.52-3.43
	c0.06-1.87-0.02-3.71-0.12-5.58c-0.12-2.29-0.03-4.6-0.03-6.9c-0.01-2.2-0.49-4.24-1.35-6.32c-0.82-1.98-0.96-4.24-1.4-6.37
	c-0.71-3.47-1.07-6.98-2.01-10.44c-0.99-3.66-1.26-7.54-1.55-11.35c-0.12-1.64,0.39-3.15,2.15-4.33c4.13-2.78,8.56-4.83,13.21-6.49
	c1.02-0.36,2.12-0.51,3.52-0.84c0.19-0.61,0.54-1.44,0.71-2.3c0.63-3.11,0.94-6.24,0.56-9.42c-0.12-1-0.07-2.02-0.03-3.04
	c0.1-3.12-0.66-6.16-0.93-9.22c-0.29-3.31-0.91-6.76,0.62-10.04c0.33-0.7,0.26-1.61,0.3-2.43c0.06-1.09-0.11-2.16,0.75-3.12
	c0.35-0.39,0.35-1.22,0.32-1.83c-0.19-3.48,1.22-6.62,2.12-9.85c0.62-2.21,1.3-4.37,1.22-6.68c-0.1-2.67,0.63-5.25,0.87-7.86
	c0.33-3.62,1.89-6.85,2.5-10.35c0.25-1.42,1.11-2.75,1.25-4.16c0.26-2.67,0.76-5.13,2.94-6.95c0.43-1.86,0.96-3.71,1.26-5.59
	c0.37-2.29,0.66-4.54,2.92-5.9c0.42-0.25,0.62-0.89,0.87-1.37c0.25-0.48,0.28-1.19,0.66-1.46c1.6-1.14,1.74-2.93,2.19-4.58
	c0.44-1.58,0.71-3.21,1.28-4.74c0.27-0.73,0.3-1.83,1.66-1.91c0.35-0.02,0.71-1.31,0.89-2.06c0.17-0.69,0.11-1.44,0.15-2.14
	c0.92-0.43,1.82-0.7,2.55-1.21c0.65-0.46,1.54-1.15,1.6-1.8c0.17-1.91,1.41-3.12,2.38-4.55c0.85-1.26,1.72-2.33,3.48-2.28
	c0.48,0.01,1.04-0.6,1.48-1.01c1.77-1.66,3.5-3.35,5.37-5.14c0.24-1.16,0.53-2.57,0.8-3.91c0.65-0.29,1.19-0.44,1.62-0.75
	c1.64-1.18,1.91-2.05,1.33-4.04c-0.23-0.79-0.5-1.56-0.74-2.29c0.13-0.22,0.21-0.5,0.32-0.51c2.03-0.21,3.04-2.15,4.79-2.82
	c0.16-0.06,0.39-0.19,0.42-0.33c0.75-2.88,3.8-5.2,2.16-8.68c-0.1-0.22,0.02-0.54,0.05-0.98c0.53-0.18,1.1-0.38,1.8-0.62
	c0.42-0.97,0.88-2.04,1.38-3.18c-0.64-0.41-1.24-0.8-1.83-1.18c0.62-0.73,0.9-1.07,1.24-1.47c-0.68-1.46-2.26-2.74-1.16-4.95
	c0.85,0.06,1.99-0.17,2.75,0.26c1.25,0.7,1.51-1.73,2.52-0.54c0.43-0.92,0.73-1.76,1.19-2.51c0.88-1.42,1.13-2.86,0.57-4.46
	c-0.51-1.46-0.43-2.88,0.63-4.28c1.02-0.07,2.1-0.14,3.33-0.21c0.07-0.72,0.18-1.33,0.19-1.94c0.03-1.3,0.73-2.12,1.93-2.3
	c0.84-0.13,1.26-0.48,1.69-1.15c0.41-0.64,1.08-1.11,1.81-1.81c-1.15-1.86,0-3.65,0.97-5.32c1.49-2.55,2.33-5.34,3.28-8.08
	c0.53-1.55,0.15-3.4,0.27-5.1c0.08-1.17,0.31-2.34,0.48-3.5c0.3-2.04,1.07-4.01,0.67-6.17c-0.12-0.65,0.47-1.43,0.78-2.31
	c-0.21-0.16-0.59-0.39-0.91-0.69c-1.22-1.14-1.2-1.25-0.53-2.85c0.45-1.09,0.79-2.22,1.22-3.33c0.13-0.33,0.31-0.7,0.59-0.89
	c1.37-0.92,1.36-2.27,1.03-3.6c-0.61-2.47-1.22-4.95-2.08-7.34c-1-2.78-0.7-5.56-0.61-8.35c2.45-0.28,2.45-0.28,3.8,3.11
	c0.12-0.79,0.03-1.45,0.32-1.85c1.12-1.6,0.73-3.22-0.04-4.68c-0.89-1.68-1.12-3.24-0.36-4.99c0.2-0.46,0.12-1.05,0.18-1.66
	c0.49-0.08,0.83-0.16,1.18-0.19c2.68-0.23,3.17-0.66,3.06-3.41c-0.08-2.19,0.23-4,2.46-5.01c0.91-0.41,0.97-1.27,0.79-2.14
	c-0.07-0.35-0.41-0.71-0.35-1.02c0.1-0.64,0.69-1.35,0.52-1.84c-0.2-0.56-1.09-0.83-1.52-1.36c-0.57-0.69-0.1-1.79,1-2.62
	c0.08,0.02,0.2,0.02,0.23,0.07c0.57,0.94,1.39,1.72,2.45,1.14c0.89-0.48,1.15-1.44,0.86-2.62c-0.27-1.12,0.2-2.4-1.14-3.2
	c-0.26-0.15-0.1-1-0.12-1.33c0.71-2.35,3.35,0.03,4.15-2.01c-0.35-0.68-0.71-1.39-1.16-2.25c1.25-0.95,2.42-1.71,3.98-1.71
	c1.46,0,2.82-0.2,2.85-2.15c0-0.24,0.19-0.6,0.39-0.69c3.5-1.61,3.11-5.82,5.78-7.94c-1.06-1.31-1.95-2.3-2.69-3.39
	c-0.25-0.37-0.11-1.01-0.17-1.82c0.99,0.08,1.79,0.05,2.55,0.22c2.68,0.59,2.92,0.5,3.96-1.94c0.1-0.25,0.18-0.51,0.27-0.77
	c1.62-0.28,3.25-0.45,4.82-0.87c1.57-0.42,2.53-1.63,3.12-3.35c3.21,0.7,5.9-0.66,8.36-2.44c3.01-2.17,6.75-2.63,9.86-4.56
	c1.99-1.24,4.15-2.21,6.26-3.24c2.12-1.03,4.27-1.99,6.41-2.98c0.25-0.11,0.53-0.18,0.74-0.34c3.01-2.27,6.62-3.4,9.86-5.22
	c1.59-0.89,3.09-1.94,4.7-2.79c3.07-1.63,5.89-3.6,8.69-5.64c1.82-1.33,4.04-2.11,6.04-3.19c0.88-0.47,1.73-1.02,2.5-1.65
	c1.48-1.22,2.96-2.46,4.33-3.81c1.02-1,2.21-1.83,2.69-3.39c0.25-0.79,1.34-1.51,2.21-1.88c3.85-1.67,7.73-3.29,11.66-4.76
	c4.44-1.66,9.02-3.02,13.09-5.5c2.41-1.47,5.17-2.25,7.4-4.11c1.29-1.08,3.1-1.52,4.57-2.41c2.09-1.27,4.05-2.74,6.12-4.03
	c2.63-1.65,5.31-3.22,7.98-4.81c0.39-0.23,0.93-0.3,1.19-0.61c1.91-2.29,4.69-3.16,7.18-4.5c1.12-0.61,2.18-1.34,3.27-2
	c0.38-0.23,0.78-0.45,1.2-0.61c1.01-0.4,2.07-0.7,3.05-1.17c2.45-1.17,4.93-2.31,7.29-3.65c5.15-2.91,10.26-5.89,15.87-7.86
	c2.49-0.88,4.95-1.86,7.47-2.66c2.69-0.86,5.44-1.54,8.15-2.33c0.96-0.28,1.87-0.77,2.84-0.95c3.84-0.71,7.5-2.26,11.47-2.42
	c1.36-0.06,2.7-0.4,4.05-0.56c1.72-0.2,3.45-0.3,5.16-0.53c2.62-0.35,5.24-0.66,7.82-1.2c3.83-0.79,7.66-1.6,11.41-2.7
	c3.58-1.04,7.24-1.81,10.88-2.44c3.41-0.58,6.81-1.2,10.18-1.94c1.51-0.34,3-0.81,4.52-1.08c1.52-0.28,3.07-0.4,4.6-0.57
	c3.08-0.35,6.15-0.71,9.23-1.03c2.27-0.24,4.54-0.55,6.81-0.59c2.94-0.06,5.81-0.43,8.67-1.07c0.27-0.06,0.55-0.05,0.82-0.06
	c5.4-0.3,10.79-0.71,16.21-0.6c2.26,0.04,4.54-0.38,6.81-0.62c1.17-0.12,2.34-0.4,3.51-0.42c3.4-0.06,6.81,0.05,10.22-0.05
	c2.68-0.07,5.27,0.41,7.86,0.94c0.45,0.09,0.91,0.2,1.35,0.17c3.82-0.29,7.34,1.34,11.05,1.73c2.44,1.75,5.38,2.21,8.18,2.83
	c4.55,1.01,8.75,3.04,13.23,4.24c2.61,0.7,5.05,2.02,7.63,2.86c1.63,0.53,3.37,0.7,5.06,1.05c2.05,0.43,4.11,0.81,6.13,1.34
	c2.29,0.59,4.55,1.28,6.8,2c0.86,0.27,1.82,0.54,2.45,1.13c1.77,1.67,3.99,2.79,5.4,4.94c0.84,1.28,2.37,2.09,3.47,3.23
	c1.05,1.1,2.02,2.17,3.46,2.86c1.28,0.62,2.38,1.65,3.51,2.55c1.21,0.96,2.27,2.16,3.58,2.95c3.67,2.22,6.81,5.19,10.61,7.26
	c2.38,1.3,4.67,2.8,7.1,4.05c0.87,0.45,1.54,1.28,2.32,1.92c2.18,1.78,4.36,3.56,6.55,5.33c0.7,0.57,1.64,0.95,2.13,1.66
	c1.01,1.44,3.03,1.39,3.92,3.22c0.7,1.45,2.43,2.41,3.72,3.57c1.29,1.15,2.71,2.16,3.88,3.42
	C952.12,111.35,953.06,112.78,954.98,112.98z M874,64.35c-0.86-0.68-1.36-1.34-2.01-1.55c-1.72-0.55-3.51-0.87-5.26-1.34
	c-0.96-0.26-1.92-0.57-2.83-0.96c-2.56-1.12-4.97-2.49-7.93-2.57c-1.45-0.04-3.02-0.4-4.31-1.45c-0.92-0.74-2.06-1.21-3.34-1.07
	c-1.45,0.16-2.63-0.23-3.72-1.32c-0.68-0.68-1.73-1.18-2.68-1.33c-3.14-0.51-6.32-0.82-9.48-1.21c-3.61-0.44-7.22-0.96-10.84-1.3
	c-1.88-0.18-3.8-0.05-5.7-0.06c-0.53,0-1.06,0.02-1.58-0.02c-0.82-0.06-1.63-0.29-2.44-0.24c-2,0.12-4.03,0.18-5.99,0.57
	c-3.19,0.64-6.33,0.73-9.51,0.03c-0.76-0.17-1.66-0.03-2.44,0.18c-2.38,0.67-4.8,0.77-7.25,0.87c-2.92,0.11-5.92,0.02-8.73,0.67
	c-5.31,1.23-10.72,0.92-16.06,1.52c-0.81,0.09-1.63,0.18-2.43,0.33c-2.14,0.42-4.27,1.21-6.42,1.23c-4.07,0.05-7.72,2.46-11.85,1.88
	c-0.16-0.02-0.33,0.15-0.51,0.2c-1.77,0.44-3.53,0.9-5.3,1.31c-5.67,1.32-11.34,2.67-17.03,3.91c-3.92,0.85-7.83,1.75-11.89,1.66
	c-0.8-0.02-1.6,0.27-2.41,0.38c-1.8,0.25-3.62,0.41-5.41,0.72c-1.52,0.25-3.04,0.56-4.51,1c-3.29,1.01-6.54,2.14-9.83,3.17
	c-0.95,0.3-1.95,0.43-2.92,0.66c-6.25,1.49-11.87,4.57-17.77,6.95c-4.01,1.62-6.98,4.94-11,6.57c-2.1,0.85-3.98,2.34-6.12,3.01
	c-3.54,1.09-6.42,3.31-9.56,5.06c-4.28,2.38-8.27,5.28-12.38,7.95c-1.13,0.74-2.47,1.28-3.37,2.23c-1.51,1.61-3.31,2.59-5.35,3.2
	c-2.81,0.85-4.82,3.14-7.7,3.96c-2.39,0.68-4.53,2.17-6.83,3.19c-1.4,0.62-2.91,0.95-4.33,1.52c-2.27,0.92-4.44,2.14-6.76,2.85
	c-3.9,1.18-7.01,3.48-9.91,6.19c-1.12,1.05-2.16,2.23-3.41,3.11c-1.85,1.3-3.85,2.4-5.81,3.55c-1.88,1.11-3.81,2.13-5.67,3.26
	c-2.03,1.23-4,2.55-6.02,3.8c-0.76,0.47-1.6,0.83-2.37,1.3c-2.24,1.39-4.4,2.93-6.72,4.18c-3.94,2.11-8,3.99-11.97,6.06
	c-2.83,1.47-5.69,2.9-8.52,4.34c-2.15,1.08-4.05,2.74-6.55,3.23c-1.13,0.22-2.29,0.84-3.19,1.59c-3.31,2.74-7.26,4.65-10.22,7.85
	c-0.19,0.2-0.39,0.41-0.64,0.52c-2.35,1.02-4.07,2.67-5.77,4.63c-1.73,1.99-3.37,4.02-4.92,6.15c-0.64,0.88-1.38,1.69-2.06,2.55
	c-1.69,2.13-3.51,4.18-5.02,6.43c-1.44,2.14-2.42,4.59-3.92,6.68c-0.58,0.81-0.4,1.91-1.06,2.39c-1.62,1.19-1.62,2.92-1.91,4.58
	c-0.05,0.27-0.08,0.55-0.18,0.8c-1.2,3.02-2.51,6-3.56,9.08c-0.62,1.79-1.01,3.71-1.16,5.6c-0.16,2.04-0.73,3.91-1.26,5.85
	c-0.72,2.61-0.62,5.41-1.5,8.01c-0.05,0.16,0.02,0.36,0.05,0.54c0.52,3.42,0.44,4.5-0.26,7.4c-0.4,1.67-0.64,3.39-0.95,5.08
	c-0.32,1.79-0.79,3.57-0.9,5.37c-0.16,2.39-0.8,4.66-1.24,6.98c-0.54,2.85-0.67,5.78-1.87,8.49c-0.15,0.33-0.32,0.68-0.35,1.03
	c-0.23,2.74-1.15,5.27-2.24,7.77c-1.27,2.91-2.26,5.98-3.8,8.74c-1.38,2.47-2.6,5.02-3.96,7.5c-0.3,0.54-1.01,1.01-1.02,1.52
	c-0.02,1.58-0.85,2.8-1.49,4.1c-2.38,4.82-4.82,9.61-7.15,14.45c-0.78,1.63-1.43,3.37-1.87,5.12c-0.53,2.11-1.11,4.14-2.53,5.86
	c-0.51,0.62-0.95,1.42-1.11,2.2c-0.48,2.35-2.52,4.02-2.66,6.55c-0.04,0.65-0.84,1.52-1.51,1.83c-1.72,0.81-2.54,2.42-3.51,3.79
	c-1.45,2.04-3.1,3.88-5.05,5.34c-1.72,1.29-3.08,2.81-4.4,4.44c-0.86,1.07-1.69,2.16-2.6,3.19c-3.38,3.8-5.77,8.24-7.76,12.83
	c-0.9,2.06-1.75,4.16-2.79,6.14c-0.49,0.94-1.27,1.81-1.41,2.86c-0.18,1.35-0.81,2.39-1.56,3.45c-1.71,2.39-2.71,5.14-3.44,7.94
	c-0.55,2.13-1.09,4.18-2.17,6.13c-0.68,1.23-0.85,2.76-1.2,4.17c-0.15,0.61-0.06,1.31-0.3,1.87c-1.15,2.6-1.7,5.33-1.91,8.15
	c-0.12,1.6-0.16,3.21-0.2,4.79c-0.05,1.96-0.3,3.99-0.39,5.99c-0.02,0.44-0.15,0.95-0.41,1.28c-1.01,1.27-1.16,2.82-1.56,4.3
	c-0.7,2.6-0.77,5.3-1.6,7.92c-0.61,1.92-0.25,4.15-0.25,6.24c0,2.11-0.18,4.15-0.78,6.22c-0.62,2.15-0.89,4.5,0.73,6.55
	c0.44,0.56,1.01,1.44,0.85,1.97c-0.76,2.52,0.84,4.87,0.32,7.35c-0.12,0.58,0.15,1.25,0.31,1.87c0.67,2.58,0.87,5.12,0.53,7.84
	c-0.21,1.64-0.94,3.55,0.12,5.29c0.14,0.23-0.01,0.73-0.16,1.04c-0.45,0.93-0.2,1.75,0.13,2.65c0.31,0.84,0.8,2,0.46,2.61
	c-0.86,1.55-0.41,3.07-0.26,4.53c0.28,2.74-1.37,4.25-3.18,5.62c-1.42,1.08-3.16,1.09-4.67,0.09c-1.7-1.13-3.12-2.48-3.3-4.79
	c-0.21-2.69-2.39-4.18-4.04-5.95c-0.25-0.26-0.86-0.23-1.31-0.25c-2.54-0.07-6.17,3.44-6.21,5.97c0,0.28-0.07,0.58,0.03,0.82
	c0.76,1.85,0.45,3.8,0.56,5.71c0.04,0.71,0.2,1.44,0.41,2.13c0.75,2.43,1.77,4.78,1.82,7.41c0.02,0.97,0.53,1.92,0.82,2.88
	c0.29,0.96,0.6,1.91,0.89,2.86c0.93,3.04,0.95,6.33,2.56,9.19c0.2,0.36-0.01,0.93,0.11,1.36c0.73,2.78,1.68,5.55,0.58,8.45
	c0.85,1.94,0.37,3.99,0.53,5.99c0.06,0.72,0.22,1.43,0.4,2.13c0.3,1.13,0.66,2.25,1,3.39c2.89,1.48,3.26,1.53,6.26,1.1
	c0.42-0.06,0.88-0.05,1.3,0.04c4.53,0.94,8.22-1.14,11.76-3.44c1.93-1.25,3.13-3.31,4.03-5.4c0.49-1.14,1.2-1.84,2.25-2.23
	c1.73-0.64,3.51-0.61,4.96,0.57c0.95,0.78,2,1.23,3.06,1.73c2.31,1.1,4.59,2.26,6.87,3.41c1.44,0.73,2.84,1.55,4.31,2.2
	c1.07,0.47,2.24,0.69,3.34,1.1c2.9,1.07,5.65,2.67,8.95,2.28c0.65-0.08,1.45,0.23,2.02,0.61c3.27,2.16,6.45,4.47,9.76,6.56
	c3.08,1.95,6.1,4.03,9.51,5.42c0.71,0.29,1.55,0.93,1.78,1.59c0.81,2.41,2.38,4.43,3.82,6.34c1.44,1.91,1.93,3.98,2.67,6.04
	c1.13,3.15,1.91,6.42,3.6,9.38c0.75,1.31,0.97,2.9,1.48,4.36c0.8,2.31,1.77,4.57,2.4,6.92c0.74,2.74,2.16,5.01,4.03,7.07
	c2.62,0.38,2.77,2.96,3.56,4.6c0.88,1.83,1.13,3.99,2.51,5.65c0.17,0.2,0.27,0.47,0.36,0.73c1.22,3.78,3.25,7.19,5.08,10.68
	c1.11,2.12,2.7,3.95,3.09,6.47c0.35,2.24,0.88,4.49,1.7,6.59c0.55,1.44,1.52,2.69,1.29,4.36c-0.04,0.3,0.16,0.74,0.4,0.96
	c2.41,2.29,2.16,5.49,2.78,8.35c0.27,1.26,0.47,2.47,1.04,3.64c0.51,1.06,1.09,2.18,1.17,3.32c0.09,1.19,0.59,2.05,1.15,3
	c1.6,2.67,3.8,4.96,5.07,7.82c1.36,3.06,3.43,5.63,5.44,8.25c0.47,0.61,0.53,1.62,1.09,2.06c1.92,1.53,3.4,3.36,4.71,5.44
	c1,1.6,2.34,3.12,3.84,4.25c2.04,1.54,3.23,3.82,5.22,5.38c0.58,0.45,0.92,1.41,1.07,2.19c0.16,0.86,0.58,1.43,1.08,2.11
	c0.87,1.19,1.8,2.26,2.94,3.21c0.62,0.51,1.36,1.19,1.5,1.89c0.4,2.01,2.01,3.2,3.07,4.69c1.61,2.26,4.24,3.66,5.91,5.96
	c0.24,0.34,0.77,0.49,1.18,0.68c1.44,0.65,2.52,1.67,3.64,2.8c1.9,1.9,3.62,4.05,6.04,5.4c0.45,0.25,1.01,0.75,1.07,1.2
	c0.12,1.02,0.93,1.29,1.51,1.83c1.21,1.11,2.43,2.2,3.61,3.34c1.5,1.45,2.95,2.95,4.45,4.4c1.44,1.39,2.72,3.08,4.42,4.03
	c1.96,1.09,2.97,2.73,4.03,4.47c0.13,0.22,0.46,0.33,0.61,0.54c0.92,1.3,2.48,1.81,3.56,2.85c1.86,1.78,3.7,3.53,5.95,4.83
	c1.8,1.04,3.36,2.56,5.23,3.42c1.87,0.86,3.17,2.92,5.58,2.65c0.21-0.02,0.47,0.27,0.67,0.44c2.72,2.33,3.2,2.54,7.34,3.37
	c0.34,0.07,0.73,0.24,0.95,0.49c2.55,2.85,6.14,3.92,9.42,5.52c0.32,0.16,0.8,0.23,0.95,0.49c0.79,1.42,2.27,1.82,3.57,2.42
	c3.24,1.48,6.53,2.86,9.79,4.27c0.08,0.04,0.18,0.03,0.27,0.06c1.77,0.58,3.61,1.03,5.29,1.81c0.92,0.42,1.78,0.74,2.77,0.99
	c2.37,0.6,4.87,0.86,7.04,2.16c0.83,0.5,1.68,0.67,2.63,0.28c0.3-0.13,0.69-0.09,1.04-0.06c3.49,0.28,6.98,0.65,10.48,0.84
	c4.68,0.25,9.32-0.09,13.91-1.09c2.04-0.45,4.26-0.46,6.12-1.28c1.83-0.81,3.98-0.62,5.61-2.03c0.48-0.42,1.37-0.42,2.08-0.54
	c0.63-0.11,1.42,0.1,1.88-0.21c1.65-1.1,3.55-0.77,5.32-1.13c0.59-0.12,1.33,0.27,1.85,0.05c3.11-1.29,6.43-1.1,9.65-1.56
	c2.62-0.38,5.2-0.59,7.84-0.53c0.79,0.02,1.59-0.37,2.38-0.61c1.64-0.52,3.33-0.78,5.04-0.63c1.82,0.16,3.56,0.14,5.38-0.3
	c2.79-0.69,5.38-1.66,7.52-3.59c0.66-0.6,1.32-0.9,2.21-0.89c2.45,0.04,4.9,0.01,7.22,0.01c2.38-2.38,4.72-4.36,8.15-4.68
	c1.83-0.17,3.39-1.26,4.69-2.64c0.56-0.59,1.15-1.19,1.83-1.62c1.75-1.1,1.74-3.16,2.69-4.68c0.55-0.87-0.08-1.33-0.42-1.95
	c-0.1-0.18,0-0.55,0.14-0.74c0.95-1.38,0.56-2.6-0.39-3.76c-1.02-1.23-0.96-2.78-0.37-3.9c0.74-1.4,2.06-2.5,2.3-4.21
	c1.67-0.88,1.63-2.67,2.09-4.16c2.52,0.53,2.55,0.49,4.71,2.23c0.86,0.69,1.62,1.2,2.85,0.31c-0.27-0.42-0.47-0.89-0.82-1.2
	c-1.82-1.67-1.97-2.82-0.61-4.98c0.24-0.39,0.53-0.76,0.7-1.18c0.73-1.82,1.64-3.21,3.99-2.41c0.37,0.13,0.94-0.35,1.6-0.62
	c0.34,1.34,0.63,2.46,0.89,3.46c1.81,1.59,3.96,0.96,5.76,1.31c1.91-2.11,3.67-4.06,5.35-5.93c2.6-0.12,2.58-0.08,5.13,0.94
	c1.66,0.66,3.32,1.15,4.69-0.72c0.39-0.53,1.15-0.78,1.83-1.21c-0.71-0.76-1.33-1.42-1.72-1.85c-0.08-1.16,0.17-2.3-0.28-2.79
	c-0.71-0.77-1.62-1.73-3.06-1.16c-0.51,0.2-1.21-0.08-1.84-0.15c0.5-1.97,0.8-2.09,4.35-1.88c0.79,1.21,0.79,1.21,1.94,1.31
	c-0.6-1.49-1.28-2.94-1.21-4.36c3.41-0.23,6.84,1.54,9.7-1.39c0.22-0.23,0.71-0.17,1.03-0.34c0.39-0.21,0.97-0.46,1.05-0.8
	c0.26-1.1,1.09-1.35,1.95-1.7c0.48-0.19,1.13-0.44,1.31-0.85c0.7-1.56,1.89-1.49,3.24-1.24c0.36,0.07,0.75-0.06,1.8-0.17
	c-1.94-1.54-3.38-2.69-4.83-3.84c2.35-0.44,4.04-2.46,6.42-1.87c0.21-1.27,0.38-2.32,0.54-3.28c-0.97-0.55-1.83-1.04-2.7-1.53
	c-2.93-1.66-3.42-2.7-2.94-6.18c0.49-0.37,0.93-0.71,1.5-1.15c-0.5-0.38-0.79-0.78-1.07-0.78c-1.38,0.02-2.09-0.97-2.9-1.81
	c-1.48-1.54-1.51-2.95-0.17-4.73c0.49-0.66,0.95-1.35,1.35-2.07c0.62-1.12,1.53-1.39,2.75-1.11c0.13,0.2,0.31,0.41,0.43,0.65
	c1.26,2.53,2.13,2.95,4.9,2.41c0.45-0.09,0.93-0.17,1.37-0.09c1.97,0.36,3.91,0.88,5.92,0.04c0.39-0.16,1.02,0.3,1.56,0.39
	c1.34,0.22,2.77,0.77,4.02,0.51c1.87-0.4,3.59-0.15,5.29,0.36c2,0.59,3.75-0.1,5.47-0.84c0.93-0.4,2.21-0.9,1.87-2.35
	c-0.27-1.18-1.39-1.17-2.34-1.49c-1.49-0.5-2.76-1.43-3.7-2.96c0.85-0.23,1.44-0.4,2.07-0.57c-0.06-0.93-1.46-1.38-0.7-2.46
	c0.49-0.7,0.18-1.93,1.59-2.15c0.39,0.34,0.85,0.75,1.31,1.15c-0.26,0.49-0.46,0.88-0.66,1.26c1.7,0.99,3.55,0.8,5.38,0.83
	c1.35,0.02,2.7-0.21,3.93,0.82c0.71,0.59,1.72,0.47,2.32-0.42c-1.58-1.77-3.53-2.69-5.71-3.23c-0.59-0.15-1.21-0.5-1.65-0.92
	c-1.77-1.69-3.48-3.44-5.19-5.2c-0.22-0.22-0.43-0.78-0.32-0.92c0.25-0.29,0.69-0.56,1.07-0.57c0.42-0.02,0.86,0.26,1.29,0.37
	c2.48,0.66,4.77,2.44,7.56,1.26c0.21-0.09,0.53,0.12,0.8,0.14c2.49,0.2,4.98,0.38,7.45,0.57c0.75-2.48,0.7-3.81-0.63-4.18
	c-1.98-0.54-3.37-2.18-5.36-2.53c-1.55-0.27-2.06-1.21-2.23-2.82c2.01,0.04,3.89-0.58,5.64,0.81c0.64,0.51,1.58,0.4,2.25-0.45
	c-0.18-0.43-0.37-0.87-0.63-1.49c0.53,0,0.92-0.09,1.24,0.02c1.41,0.47,2.77,0.94,4.15-0.22c0.21-0.17,1,0.35,1.58,0.57
	c-0.41,0.55-0.65,0.87-1.15,1.54c1.68,0.28,3.02,0.51,4.47,0.75c0.39-0.88,0.71-1.59,1.02-2.29c-0.72-0.47-1.28-0.83-1.84-1.2
	c1.71,0.39,3-0.03,4-1.47c-4.89-1.85-4.89-1.85-3.81-5.56c2.98,0.89,5.96,1.78,9.47,2.83c-0.51-1.13-0.78-1.72-1.05-2.31
	c0.56-0.37,1.05-0.68,1.53-1c-1.55-0.51-2.73-0.48-3.92-0.52c-1.16-0.04-1.99,1.43-3.39,0.72c0-0.88,0-1.74,0-2.57
	c-1.73-0.81-1.73-0.81-2.38-2.33c0.52-0.17,1.11-0.6,1.53-0.47c2.6,0.82,5.45,0.36,7.95,1.74c1.6,0.89,3.35,1.38,5.23,0.26
	c-0.05-0.93-0.09-1.82-0.13-2.5c-1.82-1.33-3.85-1.81-5.08-3.55c-0.3-0.42-1.1-0.51-1.7-0.67c-0.59-0.15-1.21-0.19-1.75-0.26
	c-0.29-1.02,0.15-1.6,0.89-1.35c1.23,0.4,2.04-0.23,3.01-0.67c0.63-0.29,1.68-0.65,2.04-0.35c1.82,1.44,3.88,0.77,5.83,0.97
	c1.77,0.18,3.19-0.52,4.77-1.7c-0.38-0.53-0.61-1.21-1.07-1.43c-0.8-0.39-1.73-0.66-2.62-0.7c-1.38-0.07-1.99-0.61-2.03-2.01
	c-0.02-0.56-0.38-1.54-0.71-1.6c-2-0.34-3.12-1.85-4.27-3.17c-1.25-1.43-3.2-1.2-4.53-2.39c-1.32-1.19-2.89-2.1-4.34-3.13
	c-0.07-0.05-0.12-0.13-0.18-0.2c1.29-2.42,1.15-3.77-0.59-5.66c-0.29-0.32-0.68-0.66-0.75-1.04c-0.24-1.22-0.35-2.47-0.53-3.89
	c1.05,1.11,1.68,2.55,3.23,1.97c0.29-1.15,0.54-2.16,0.85-3.43c1.38,0.3,2.61,0.35,3.61,0.85c0.95,0.47,1.57,1.58,2.51,2.1
	c0.97,0.54,2.16,0.71,3.31,1.06c-0.58,0.47-1.04,0.84-1.45,1.18c1.43,2.13,2.42,0.12,3.41,0.1c1.31,1.24-0.87,1.88-0.31,3.18
	c1.83-0.87,3.78,0.67,5.76-0.41c-0.43-2.46-2.45-2.12-4.07-2.5c-0.75-1.84-3.02-3.4-1.03-5.87c0.77,0.32,1.5,0.61,2.16,0.88
	c0.28-0.29,0.46-0.4,0.52-0.55c0.32-0.83,0.35-1.87,1.56-1.99c0.99-0.1,1.99-0.3,2.97-0.22c0.35,0.03,0.98,0.86,0.89,1.15
	c-0.43,1.39,0.6,1.77,1.4,2.33c0.45,0.31,1.24,0.46,1.37,0.85c0.65,2.03,3.71,1.14,4.07,3.44c0.01,0.04,0.16,0.06,0.22,0.08
	c0.75,0,1.48,0,2.15,0c0.55-0.81,1.37-1.51,1.45-2.28c0.09-0.88-0.48-1.84-0.77-2.82c0.44-0.77,0.92-1.62,1.35-2.37
	c2.31-0.95,3.87,1.43,6.58,1.27c-0.97-0.7-1.47-1.06-1.96-1.41c1.41-2.07-0.28-4.37,0.72-6.3c2.45-1.33,4.77-0.93,7.1,0.23
	c2.47,1.23,5.96,1.44,9.19,0.62c-0.29-0.38-0.54-0.71-0.8-1.05c0.47-0.91,1.22-1.23,2.23-1.34c0.78-0.09,1.73-0.29,1.88-1.32
	c0.36-2.4,2.23-2.68,4.14-3.01c0.65-1.9,1.31-3.82,1.91-5.58c-1.83-1.81-4.43-1.63-6.12-3.4c0.33-0.52,0.6-0.93,0.84-1.31
	c-1.76-1.3-3.39-2.82-5.29-3.83c-2.57-1.36-3.33-3.47-3.58-6.31c1.09,0,2-0.09,2.89,0.03c0.79,0.11,1.5,0.39,1.97,1.26
	c0.93,1.73,1.02,1.69,3.08,0.95c-0.48-0.71-1.27-1.38-1.37-2.15c-0.22-1.75-1.28-2.6-2.74-3.07c-1.29-0.41-1.96-1.22-2.73-2.33
	c-0.82-1.18-0.6-1.93-0.15-2.97c0.52-1.2,1.52-1.19,2.54-1.13c0.45,0.03,0.89,0.17,1.34,0.26c2.22,0.42,4.24,1.77,6.63,1.45
	c1.49,1.13,3.01-0.29,4.67,0.06c0.28,1.27,1.15,2.05,2.39,2.62c2.14,0.99,4.21,2.15,5.92,3.04c2.18-0.07,4.08-0.5,5.78-0.1
	c2.12,0.5,4.2,0.29,6.29,0.35c0.69,0.02,1.44-0.25,2.08-0.56c1.73-0.81,3.42-1.72,4.65-2.34c1.31,0.28,2.16,0.49,3.02,0.61
	c0.22,0.03,0.49-0.21,0.76-0.34c-0.58-0.94-0.98-1.58-1.35-2.19c1.88-1.81,3.27-3.88,5.59-4.94c0.28-0.13,0.4-0.77,0.46-1.2
	c0.07-0.51-0.07-1.05,0-1.56c0.12-0.87-0.23-1.36-0.98-1.75c-0.61-0.31-1.37-0.65-1.67-1.19c-0.92-1.66-2.28-2.77-3.95-3.51
	c-0.84-0.38-1.53-0.81-2.13-1.55c-0.4-0.5-1.21-0.88-1.86-0.92c-2.01-0.12-4.03-0.04-5.92-0.04c-0.45,0.68-0.78,1.18-1.09,1.67
	c-4.85,0-9.55-0.03-14.24,0.02c-1.08,0.01-2.16,0.37-3.24,0.38c-2.37,0.01-5.03,1.13-6.74-1.64c-0.09-0.14-0.28-0.25-0.45-0.31
	c-2.31-0.83-3.95-2.56-5.67-4.2c-0.92-0.88-1.97-1.63-2.95-2.45c-0.55-0.46-1.16-0.89-1.59-1.46c-0.65-0.85-1.36-1.42-2.49-1.52
	c-0.28-0.02-0.5-0.68-0.97-1.37c2.5-0.06,3.9-1.25,4.98-2.95c0.24-0.38,0.61-0.7,0.95-0.99c1.23-1.04,3.39-0.97,4.06,0.45
	c0.58,1.22,1.57,1.41,2.51,1.96c2.32-1.62,4.63-3.23,6.91-4.81c-0.58-0.8-1.35-1.39-1.44-2.08c-0.18-1.35-0.07-2.75,0.07-4.12
	c0.26-2.62,0.75-5.23,0.9-7.85c0.08-1.35,0.19-2.63,1.21-3.5c0.97-0.84,1.07-1.81,1.06-2.93c-0.02-3.22-0.02-6.44,0.01-9.67
	c0.01-0.87,0.14-1.63,0.64-2.52c2.28-4.07,2.84-8.49,1.84-13.09c-0.58-2.68-0.67-5.28,1.39-7.45c1.06-1.12,2.13-2.25,3.28-3.27
	c1.17-1.03,1.94-2.17,1.72-3.69c4.05-3.19,4.05-3.19,7.97-1.29c0.74-0.62,1.48-1.24,2.4-2.03c-0.71-1.03-0.62-2.09,0.44-3.23
	c0.43-0.46,0.13-1.59,0.19-2.41c0.11-1.35,0.33-2.69,0.34-4.03c0.01-1.08-0.26-2.16-0.34-3.25c-0.1-1.53,0.31-3.13-0.92-4.45
	c-0.25-0.27-0.11-0.88-0.2-1.33c-0.19-0.97-0.43-1.94-0.59-2.92c-0.1-0.59-0.09-1.19-0.11-1.79c-0.01-0.54,0.06-1.09,0.01-1.62
	c-0.11-1.17-0.36-2.34-0.39-3.52c-0.07-2.58,0.22-5.19-0.11-7.72c-0.34-2.67,0.05-5.19,0.54-7.77c0.82-4.26,0.66-8.58,0.62-12.89
	c0-0.27-0.08-0.55-0.17-0.8c-0.78-2.19-1.02-4.44-0.93-6.75c0.02-0.62-0.18-1.26-0.32-1.88c-1.1-4.98-1.07-9.97-0.09-14.97
	c0.21-1.07,0.04-2.45,0.65-3.15c1.01-1.15,0.82-2.34,0.91-3.58c0.03-0.45,0.14-0.9,0.25-1.34c0.78-2.98,2.32-5.79,1.97-9.02
	c-0.04-0.33,0.13-0.73,0.32-1.03c0.71-1.15,0.74-2.42,0.78-3.72c0.03-0.99,0.29-1.97,0.5-2.94c0.54-2.42,1.36-4.81,1.6-7.26
	c0.28-2.83,0.16-5.71,0.03-8.55c-0.06-1.16-0.07-2.28-0.01-3.44c0.09-1.77,0.47-3.61-0.81-5.3c-0.42-0.55-0.37-2.04,0.09-2.56
	c0.95-1.08,0.81-2.12,0.71-3.13c-0.92-0.86-1.71-1.59-2.79-2.6c1.9-0.12,3.39-0.22,4.69-0.31c0.41-1.35,0.41-2.8,1.13-3.49
	c1.97-1.89,2.66-4.31,3.03-6.73c0.52-3.39,0.57-6.86,2.32-9.96c0.22-0.39,0.43-0.86,0.44-1.29c0.1-3.33,1.4-6.4,2.18-9.57
	c1.23-5.05,2.74-10.03,4.18-15.02c0.85-2.94,1.41-5.86,0.47-8.88c-0.11-0.34-0.18-0.78-0.04-1.08c1.14-2.58,0-5.02-0.4-7.51
	c-0.22-1.41-0.89-3.12-0.36-4.21c0.96-1.97,0.8-4.01,0.89-5.92c0.21-4.67-0.1-9.36-0.22-14.04c-0.02-0.64,0.13-1.47-0.21-1.87
	c-1.09-1.28-0.78-2.75-0.9-4.19c-0.1-1.26-0.36-2.52-0.59-3.77c-0.12-0.62-0.36-1.22-0.49-1.85c-0.5-2.59-0.78-5.24-1.5-7.76
	c-1.25-4.38-1.96-8.87-3.09-13.26c-0.57-2.23-0.62-4.54-1.19-6.71c-0.7-2.71-0.91-5.39-0.87-8.15c0.03-2.02-0.02-4.05,0.01-6.08
	c0.02-1.3-0.19-2.5-0.73-3.73c-0.51-1.14-0.85-2.44-0.88-3.69c-0.06-2.53-1.12-4.79-1.75-7.15c-0.22-0.82-1.17-1.43-1.42-2.25
	c-0.7-2.29-1.82-4.28-3.46-6.03c-0.49-0.52-0.81-1.22-1.12-1.88c-1.55-3.27-3.21-6.46-5.58-9.24c-0.28-0.32-0.44-0.8-0.51-1.23
	c-0.26-1.54-1.2-2.67-2.29-3.63c-0.59-0.52-1.02-0.91-1.1-1.74c-0.05-0.49-0.47-0.96-0.78-1.4c-1.92-2.75-3.85-5.5-5.8-8.24
	c-0.94-1.31-1.72-2.84-2.93-3.82c-1.67-1.35-2.96-3.05-4.61-4.44c-2.47-2.07-4.63-4.54-7.22-6.53c-2.23-1.71-4.49-3.38-6.72-5.09
	c-0.26-0.2-0.43-0.55-0.6-0.85c-0.73-1.35-1.65-2.32-3.4-1.98c-0.28,0.05-0.69-0.4-0.99-0.66c-0.46-0.4-0.83-0.91-1.33-1.26
	c-1.11-0.8-2.27-1.52-3.41-2.28c-0.81-0.54-1.42-1.29-2.57-1.37c-0.7-0.05-1.45-0.74-1.99-1.32c-1.31-1.41-2.56-2.76-4.63-3.07
	c-0.67-0.1-1.34-0.61-1.89-1.07c-1.55-1.28-3.02-2.66-4.56-3.96c-1.23-1.04-2.51-2.01-3.76-3.01c-1.02,0.56-1.73-0.34-1.99-0.86
	c-0.69-1.4-1.95-2.11-3.01-3.08c-0.93-0.86-2.17-1.56-2.72-2.61c-0.83-1.57-2.41-2.42-3.23-3.96c-0.29-0.55-1.16-0.91-1.84-1.11
	c-2.78-0.81-5.45-2.04-8.38-2.33c-0.36-0.04-0.77-0.08-1.05-0.27C877.38,63.44,875.71,63.5,874,64.35z"/>
<path d="M480.12,615.98c1.44,0.85,2.75,1.64,3.95,2.35c-0.15,1.04-0.29,2.02-0.44,3.02c-1.86,0.74-2.46-0.89-3.44-1.96
	c-2.54,0.02-5.25-0.82-7.49,1.92c-0.1-1.56-0.18-2.67-0.26-3.89C475.03,616.64,477.89,617.93,480.12,615.98z"/>
<path d="M985.52,120.23c-0.72,0.61-1.37,1.18-2.04,1.75c-1.03-0.67-1.59-1.48-1-2.87C983.66,118.86,984.84,118.55,985.52,120.23z"/>
<path d="M657.25,626.25c-2.1,1.64-3.02,4.77-2.48,8.58c0.61-0.19,1.21-0.51,1.82-0.55c2.36-0.16,2.79,0.62,1.83,2.85
	c-0.37,0.86-0.36,1.87-0.53,2.87c-0.53,0.21-1.03,0.4-1.54,0.59c-0.43,0.16-0.86,0.31-1.36,0.48c-0.3,0.69-0.63,1.44-1.03,2.35
	c-0.86-0.6-1.99-0.99-2.38-1.75c-0.78-1.54-2.08-3.14-0.91-5.08c-0.73-1.73,0.51-2.89,1.17-4.24c0.52-1.05,0.87-2.19,1.27-3.29
	c0.09-0.24,0.2-0.56,0.12-0.77c-1.1-2.93-1.14-5.95-1.13-9.03c0.01-1.58-0.68-3.16-0.97-4.76c-0.19-1.07-0.38-2.18-0.31-3.25
	c0.1-1.47,0.97-2.87-0.47-4.3c-0.54-0.53-0.1-1.7,0.61-2.48c0.45-0.5,0.93-1.29,0.87-1.89c-0.24-2.37,0.53-4.5,1.17-6.68
	c0.41-1.4,0.72-2.82,1.11-4.23c0.12-0.43,0.24-1.1,0.52-1.19c1.94-0.64,1.7-2.48,2.14-3.86c0.68-2.16,0.86-4.45,2.17-6.42
	c0.39-0.58,0.73-1.51,0.11-2.32c-2.12-2.78-1.64-5.23,1.11-7.4c-0.32-0.8-0.62-1.55-0.99-2.47c0.14-0.16,0.49-0.39,0.55-0.68
	c0.21-0.96,0.52-1.96,0.41-2.9c-0.27-2.47,0.47-4.13,3.07-4.63c0.17-0.03,0.33-0.17,0.48-0.27c0.07-0.05,0.11-0.14,0.34-0.44
	c-0.05-0.67-0.12-1.56-0.15-1.98c0.73-1.76,1.3-3.16,1.88-4.56c0.35-0.84,0.69-1.68,1.05-2.51c0.14-0.33,0.49-0.66,0.47-0.96
	c-0.25-3.21,2.13-5.1,3.66-7.69c3.05,0.58,6.06,1.16,9.08,1.73c0.27,0.05,0.61,0.01,0.8,0.16c2.11,1.74,4.62,1.54,7.09,1.5
	c3.94-0.06,7.83,0.33,11.71,1.04c1.7,0.31,3.43,0.54,5.16,0.58c1.41,0.03,2.62,0.2,3.73,1.21c1.02,0.93,2.79,0.12,3.77,1.37
	c2.31,0.25,3.75,2.15,5.7,3.07c0.58,0.27,1.11,0.63,1.76,1.01c0.56-0.25,1.13-0.53,1.71-0.76c1.15-0.47,2.3-0.53,3.44,0.08
	c2.69,1.44,5.55,2.23,8.6,2.42c0.65,0.04,1.73,0.48,1.82,0.91c0.3,1.42,1.43,1.72,2.42,2.17c1.08,0.49,1.55,1.2,1.45,2.36
	c-0.04,0.55-0.15,1.2,0.08,1.64c0.7,1.32,0.15,2.65-0.69,3.22c-1.78,1.19-2.26,3.51-4.18,4.28c-0.41,1.89-0.29,3.76-2.07,5.02
	c-0.7,0.49-1.04,1.62-1.34,2.53c-0.77,2.37-3.56,4.24-1.88,7.24c-0.8,1.88-0.16,3.75-0.08,5.65c0.11,2.54-0.24,5.1-0.33,7.66
	c-0.08,2.29-0.08,4.55,0.88,6.75c0.38,0.86,0.18,1.99,0.22,2.99c0.03,0.74-0.15,1.52,0.04,2.2c0.44,1.57,0.75,3.04-0.87,4.16
	c-0.13,0.09-0.24,0.33-0.22,0.48c0.37,2.36-1.68,3.48-2.61,5.17c-0.25,0.45-0.58,0.88-0.76,1.36c-0.88,2.44-2.54,3.74-5.09,3.77
	c-1.54,0.02-3.14,0.29-4.56-0.64c-0.31-0.2-0.81-0.27-0.94-0.54c-1.33-2.66-3.75-2.14-6-2.1c-0.18,0-0.36,0.05-0.7,0.09
	c-0.23,0.48-0.44,1.07-0.77,1.59c-1.98,3.13-5.1,4.34-8.54,4.89c-1.76,0.28-3.21,0.69-4.35,2.35c-0.68,0.99-2.21,1.69-3.46,1.88
	c-0.81,0.12-1.51,0.4-2.27,0.58c-1.32,0.31-2.67,0.51-4.01,0.74c-1.1,0.19-2.21,0.38-3.4,0.58c0.26-0.96,0.58-2.01,0.82-3.08
	c0.04-0.18-0.27-0.44-0.46-0.74c-0.99,1.98-0.99,1.98-2.84,2.95c-0.38-0.58-0.69-1.21-1.14-1.73c-1.25-1.44-1.24-1.84,0.17-3.26
	c0.23-0.23,0.38-0.55,0.8-1.18c-1.15,0.28-1.91,0.47-2.85,0.7c-2.06-1.5-1.37-4.64-3.35-6.17c0.18-0.74,0.33-1.34,0.49-2.01
	c-1.11,0.29-1.7,1.52-3.14,0.99c0.07-0.35,0.15-0.74,0.21-1.14c0.04-0.34,0.04-0.69,0.07-1.06c-1.9-1.06-2.62,1.41-4.25,1.45
	c0.95,0.41,1.9,0.81,2.97,1.27c0.62,1.02,0.22,1.77-0.94,2.22c-0.51,0.2-1.03,0.38-1.56,0.51c-1.56,0.38-2.89,1.11-3.86,2.65
	c0,0.94,0,2.04,0,3.04c-0.19,0.25-0.26,0.44-0.4,0.54c-2.84,2.01-3.39,1.81-4.32-1.61C657.51,627.5,657.39,626.89,657.25,626.25z
	 M707.84,610.54c2.62,1.57,3.53,1.41,6.11-0.43c1.16-0.82,2.61-1.22,3.91-1.85c0.46-0.23,1.22-0.57,1.23-0.88
	c0.08-1.74,0.95-3.54,0.03-4.83c0.28-1.55,0.61-2.75,0.7-3.97c0.2-2.64-0.09-5.27,0.46-7.94c0.36-1.71-0.05-3.63-0.38-5.41
	c-0.62-3.35-0.71-3.36-0.06-5.65c0.15-0.51,0.43-0.98,0.61-1.49c0.54-1.51,1.26-3,1.52-4.56c0.19-1.2,0.46-2.23,1.11-3.28
	c1.22-1.97,0.79-4.1-0.92-5.72c-0.33-0.31-0.95-0.51-1.03-0.86c-0.48-2.13-2.22-2.94-3.84-3.91c-0.54-0.33-1.04-0.73-1.52-1.15
	c-0.82-0.71-1.54-1.54-2.42-2.16c-2.28-1.6-4.98-2.17-7.58-3.01c-3.75-1.21-7.53-2.15-11.5-2.02c-0.99,0.03-2.09,0.57-2.93,0.28
	c-2.74-0.98-5.35-0.35-8,0.17c-0.43,0.08-1.02,0.12-1.33-0.1c-1.28-0.95-2.64-0.37-3.96-0.34c-2,0.04-3.86,1.45-3.97,3.42
	c-0.15,2.69-1.47,5.27-0.71,8.04c0.09,0.33-0.23,0.84-0.48,1.18c-0.96,1.33-1.46,2.66-0.72,4.32c0.27,0.62,0.24,1.49,0.06,2.17
	c-0.21,0.76-0.18,1.77-1.67,1.67c-0.78-0.05-1.5,1.01-1.58,2.18c-0.13,2.04,0.61,4.21-0.89,6.12c-0.29,0.37,0.24,1.37,0.37,2.08
	c0.11,0.6,0.48,1.45,0.22,1.78c-1.34,1.68-0.62,3.5-0.73,5.25c0.77,0.51,1.45,0.96,2.38,1.58c-0.32,1.39-0.67,2.77-0.95,4.18
	c-0.18,0.89-0.35,1.79-0.37,2.69c-0.05,2.09-0.02,4.19-0.02,6.29c0.34,0.7,0.72,1.5,1.12,2.29c0.2,0.38,0.37,0.93,0.69,1.06
	c1.05,0.42,1.39,1.29,1.88,2.19c0.51,0.93,1.26,1.71,2.31,2.26c0.73,0.38,1.32,1.2,1.73,1.96c0.91,1.66,1.63,3.4,3.35,4.48
	c0.48,0.3,0.99,1,1,1.53c0.01,1.06,0.77,1.37,1.37,1.89c0.83,0.71,1.64,1.44,2.44,2.19c1.53,1.42,2.43,1.54,4.02,0.26
	c0.78-0.62,1.69-1.35,2-2.22c0.51-1.42,1.5-1.55,2.69-1.89c1.53-0.43,3.15-1,4.34-1.98c0.92-0.76,2.1-1.16,2.85-2.09
	c0.8-0.99,1.49-2.07,2.28-3.08c0.21-0.27,0.59-0.42,0.91-0.59C705.29,611.93,706.57,611.23,707.84,610.54z"/>
<path d="M894.08,544.29c-1.27,0.57-2.31,1.07-3.37,1.51c-1.49,0.61-2.89,1.48-4.68,0.77c-0.8-0.32-1.82-0.04-2.74-0.12
	c-1.72-0.15-3.46-0.25-5.15-0.6c-1.36-0.29-2.84-0.4-3.77-1.84c-0.39-0.6-1.38-0.91-2.15-1.15c-2.38-0.72-4.67-1.62-6.72-3.02
	c-2.82-1.92-6.06-3.13-8.16-6.23c-1.76-2.6-3.64-5.09-5.16-7.86c-0.9-1.65-2.13-3.17-3.43-4.54c-0.59-0.62-0.79-1.16-0.78-1.9
	c0.07-3.92,0.21-7.8,2.07-11.42c0.54-1.04,0.25-2.62,0.95-3.43c0.9-1.04,1.17-2.24,1.71-3.37c0.47-0.98,0.95-1.96,1.47-2.91
	c0.87-1.6,1.62-3.13,1.72-5.09c0.06-1.13,0.63-2.87,2.57-3.27c-0.66-1.41-1.84-2.77-0.29-4.33c0.56,0.05,1.27,0.22,1.96,0.16
	c1.01-0.09,1.9-0.34,2.31-1.56c0.23-0.69,1-1.25,1.63-1.73c0.91-0.69,1.85-0.72,2.67,0.25c0.29,0.35,0.63,0.67,0.98,0.96
	c0.74,0.62,1.51,0.9,2.51,0.48c1.73-0.72,3.53-0.83,5.37-0.34c0.37,0.1,0.88,0.01,1.24-0.17c1.88-0.93,3.72-1.96,5.94-1.76
	c0.34,0.03,0.86-0.07,1.01-0.3c0.92-1.35,2.65-1.57,3.66-2.7c0.64-0.72,1.29-1.06,2.14-0.69c0.92,0.4,2.28,0.37,2.26,2.07
	c-1.06,0.96-4.05,0.62-2.78,3.51c1.92,1.15,4.62,0.04,6.55,2.1c-1.29,0.45-2.28,0.8-3.48,1.23c1.63,1.61,4.29,0.06,5.25,2.79
	c-0.27,3.04,3.27,3.51,4.81,5.77c1.38-1.02,2.52-2.42,4.35-2.11c0.55,0.09,1.05,0.48,2.13,1c-1.36,0.48-2.15,0.76-3.02,1.07
	c0.05,0.94,0.31,1.77,1.1,2.12c1.3,0.57,1.84,1.74,2.57,2.77c0.51,0.71,1.02,1.31,0.38,2.42c-0.4,0.69,0.11,1.9,0.23,3.04
	c1.33-0.24,2.17,0.3,2.73,1.5c0.51,1.1,0.69,1.96-0.34,2.95c-0.39,0.38-0.23,1.34-0.33,2.1c0.98,0.45,1.8,0.83,2.76,1.28
	c-0.35,0.72-0.69,1.42-1.02,2.09c-2.01-0.55-2.01-0.55-2.59-2.5c-0.1,0.96-0.34,1.57-0.19,2.04c0.39,1.22-1.11,1.46-1.1,2.32
	c0.02,1.08-0.68,1.52-1.26,2.22c-0.72,0.87-1.05,2.06-1.54,3.12c-0.37,0.81-0.72,1.63-1.09,2.43c-0.18,0.39-0.5,0.76-0.56,1.17
	c-0.9,6.17-4.8,10.68-8.51,15.27C896.12,542.89,894.9,543.61,894.08,544.29z M899.92,512.17c-0.28-0.36-0.44-0.74-0.62-0.76
	c-0.59-0.06-1.21,0.08-1.8,0.02c-0.39-0.04-1.01-0.22-1.08-0.46c-0.1-0.34,0.16-0.84,0.38-1.2c0.11-0.19,0.47-0.22,0.72-0.32
	c1.4-0.59,1.94-1.25,1.63-1.99c-0.33-0.79-1.35-0.96-2.68-0.43c-0.17,0.07-0.34,0.15-0.5,0.23c-1.64,0.83-3.27,1.67-4.91,2.49
	c-0.38,0.19-0.88,0.54-1.16,0.42c-1.62-0.65-2.34,0.48-3.25,1.56c0.51,2.6-0.84,4.74-2.22,6.82c-0.72,1.09-1.24,2.13-1.12,3.49
	c0.08,0.86,0.22,1.76-0.7,2.49c-1.25,0.99-1.94,2.8-3.78,2.86c-1.03,0.03-2.36-0.09-3.05-0.71c-2.55-2.28-4.6-4.94-4.23-8.68
	c-1.01-0.37-1.94-0.72-2.87-1.06c0.21-0.84,0.4-1.61,0.56-2.3c0.86,0.05,1.58,0.21,2.26,0.09c0.27-0.05,0.45-0.68,0.67-1.04
	c-0.35-0.2-0.67-0.47-1.05-0.57c-0.23-0.07-0.52,0.16-0.79,0.18c-2.17,0.15-4.19-0.04-5.5-2.16c-0.23-0.37-0.73-0.58-1.29-1
	c0,1.13,0,1.94,0,2.48c0.81,0.75,1.69,1.22,2.01,1.94c0.35,0.78-0.17,2.23,0.31,2.62c1.28,1.04-0.38,1.72-0.03,2.59
	c0.44,1.1-0.56,1.44-1.26,1.73c-0.56,0.23-1.24,0.16-1.76,0.21c-0.44,0.63-0.76,1.17-1.17,1.63c-0.74,0.83-0.99,1.65-0.47,2.73
	c0.61,1.27,0.86,2.75,1.65,3.87c0.76,1.07,2.01,1.79,3.04,2.67c1.71-0.66,2.72,0.43,3.75,1.5c1.97,2.03,4.23,3.47,7.18,3.56
	c0.6,0.02,1.38,0.27,1.73,0.7c0.89,1.09,1.78,0.97,2.91,0.53c1.25-0.49,2.56-0.52,3.72,0.35c0.85-1.97,1.92-3.59,3.72-4.31
	c1.18-0.47,2.26-0.69,2.29-2.23c0-0.2,0.31-0.43,0.52-0.58c1.32-0.98,1.46-2.44,1.58-3.9c0.08-1,0.11-2.01,0.17-3.01
	c0.06-0.87,0.14-1.73,0.23-2.68c0.5-0.59,1.24-1.28,1.75-2.11c0.55-0.91,0.8-2,1.33-2.93C897.75,515.65,898.87,513.9,899.92,512.17z
	"/>
<path d="M515.27,453.41c-0.41,3.02-1.89,5.26-2.16,7.96c-0.13,1.34-1.23,2.62-2,3.85c-1.09,1.74-2.23,3.46-3.48,5.07
	c-0.4,0.51-1.23,0.94-1.88,0.96c-1.96,0.09-3.87,0.36-5.6-1.39c-1.83-1.85-2.7-1.48-4.86,0.2c-0.94,0.73-2.3,0.92-3.35,1.31
	c-1.81-0.95-2.7-2.17-2.43-4.09c0.16-1.15-0.38-2.17-1.41-2.41c-2.88-0.69-4.07-3.01-5.19-5.25c-1.92-3.82-3.61-7.75-5.31-11.67
	c-0.65-1.5,0.74-3.75,2.7-4.35c2.17-0.67,4.39-1.16,6.76-1.77c-2.22-3.09-4.74-5.93-6.46-9.2c-1.49-2.83-3.54-5.24-5.04-8.02
	c-0.83-1.54-2.04-2.56-4.06-2.71c-2.26,1.65-4.62,3.47-5.99,6.26c-0.93,1.91-2.64,3.2-3.95,4.81c-0.13,0.16-0.49,0.12-0.94,0.21
	c-0.13-0.54-0.41-1.06-0.33-1.51c0.5-2.84,1.24-5.61,2.81-8.07c0.2-0.31,0.41-0.64,0.7-0.84c1.95-1.33,2.58-3.56,3.42-5.5
	c0.44-1.01,1.09-1.82,1.53-2.77c0.69-1.5,1.98-1.93,3.42-1.69c1.51,0.26,3.34,0.13,4.01,2.09c2.39,1.33,3.97,3.73,6.59,4.81
	c1.22,0.5,2.17,1.62,3.3,2.38c0.96,0.65,1.96,1.28,3.02,1.73c1.99,0.84,3.44,2.39,5.11,3.66c2.57,1.94,5.23,3.83,8.06,5.36
	c1.3,0.7,0.61,2.33,1.96,2.74c1.05,0.31,1.8,0.85,2.29,2.02c0.44,1.05,1.07,2.2,2.71,2.41c0.71,0.09,1.29,1.55,1.82,2.46
	c0.25,0.44,0.07,1.35,0.37,1.52c1.78,0.95,1.57,2.67,1.85,4.22c0.17,0.94-0.26,1.94,0.69,2.82
	C514.62,451.64,514.9,452.71,515.27,453.41z M492.39,459.91c1.76-6.56,2.67-12.19,2.22-14.02c-2.52,0.61-5.04,1.18-7.54,1.87
	c-0.46,0.13-0.91,0.64-1.17,1.09c-0.98,1.69-0.76,3.18,0.5,4.73c0.56,0.69,1.11,1.42,1.48,2.22c0.49,1.07,0.82,2.14,2.34,2.14
	c0.34,0,0.65,0.75,1.01,1.11C491.51,459.31,491.86,459.51,492.39,459.91z M499.07,462.79c0.75,0.38,1.45,0.83,2.22,1.11
	c1.65,0.62,3.22,0.3,3.94-0.93c0.77-1.33,1.59-2.72,1.89-4.19c0.49-2.39,0.57-4.87,0.81-7.2c-1.14-1.09-2.07-1.97-3.19-3.04
	c-0.24,1.2-0.23,2.08-0.58,2.77c-1.1,2.17-2.42,4.24-3.5,6.42C499.91,459.23,498.56,460.55,499.07,462.79z"/>
<path d="M676.19,690.25c-2.1-2.02-1.84-3.31-1.82-6.02c-2.74-1.81-5.56-1.98-8.49-0.34c-0.95,0.53-2.01,1.17-2.8-0.28
	c1.53-3.95,4.85-5.75,8.89-4.82c1.77,0.41,3.52,0.89,5.3,1.21c0.89,0.16,1.9,0.26,2.73,0c2.9-0.88,5.88-0.62,8.74-0.34
	c2.93,0.29,5.72,1.45,8.02,3.58c1.41,1.31,2.82,2.58,3.73,4.3c0.21,0.4,0.55,0.82,0.53,1.22c-0.07,2.55,0.91,4.77,2.02,6.97
	c0.08,0.16,0.2,0.36,0.17,0.51c-0.49,2.47,0.16,4.99-0.39,7.45c-0.27,1.24-0.34,2.53-0.66,3.75c-0.63,2.35-1.41,4.69-3.53,6.16
	c-1.46,1.01-3.21,1.25-4.65,0.18c-2.16-1.61-4.53-1.66-7.02-1.68c-1.72-0.02-3.44-0.34-5.15-0.58c-0.33-0.05-0.63-0.35-0.94-0.53
	c-1.23-0.71-2.47-1.41-3.99-2.29c-0.03-0.13-0.17-0.65-0.32-1.25c-0.66-0.19-1.37-0.33-2.02-0.61c-0.39-0.17-0.92-0.52-0.97-0.85
	c-0.22-1.56-1.21-2.25-2.53-2.86c-1.38-0.64-1.57-1.35-1.26-2.94c0.07-0.34,0.2-0.67,0.2-0.67c-0.86-1.43-1.4-2.71-2.27-3.7
	c-1.2-1.38-0.91-2.94-0.85-4.45c0.1-2.45,3.15-4.04,5.01-2.49C673.2,689.99,674.57,690.05,676.19,690.25z M692.09,692.12
	c1.41-1.84,1.57-2.37,0.77-3.3c-0.62-0.73-1.23-1.87-2.41-1.42c-1.43,0.54-1.77,1.86-1.79,3.42
	C689.83,691.25,690.91,691.67,692.09,692.12z"/>
<path d="M658.88,722.28c1.24-0.98,1.63-2.27,3.13-2.17c0.44,0.03,0.97-0.69,1.37-1.13c0.53-0.59,0.98-1.26,1.49-1.92
	c1.67,0.64,2.84,1.82,4.43,2.23c0.6,0.15,0.99,1.11,1.45,1.66c1.51-0.18,1.19-1.69,2.08-2.53c-0.01,1.76,0.48,3.42-1.15,4.8
	c-1.33-0.57-2.61-1.44-4.27-1.16c-2.22,0.38-4.48,0.6-6.72,0.8C660.23,722.9,659.72,722.56,658.88,722.28z"/>
<path d="M936.22,501.66c-1.95,2.86-4.31,3.18-6.45,0.85C931.88,500.22,933.8,499.97,936.22,501.66z"/>
<path d="M923.66,505.5c1.87,0.61,3.18,1.08,2.55,3.14c-0.77,0.24-1.62,0.66-2.48,0.72c-0.51,0.03-1.22-0.4-1.52-0.84
	c-0.2-0.29,0.07-1.02,0.3-1.46C922.79,506.49,923.26,506.02,923.66,505.5z"/>
</svg>
