<?xml version="1.0" encoding="utf-8"?>
<!-- Generator: Adobe Illustrator 24.1.0, SVG Export Plug-In . SVG Version: 6.00 Build 0)  -->
<svg version="1.1" id="Layer_1" xmlns="http://www.w3.org/2000/svg" xmlns:xlink="http://www.w3.org/1999/xlink" x="0px" y="0px"
	 viewBox="0 0 1224 792" style="enable-background:new 0 0 1224 792;" xml:space="preserve">
<path d="M1218.04,313.86c-3.04-0.81-6.14-1.46-9.11-2.49c-3.31-1.14-3.76-0.89-4.22,2.5c-0.25,1.84-1.01,3.62-1.66,5.39
	c-0.33,0.89-1.29,1.68-1.32,2.53c-0.28,7.46-5.88,12.1-9.46,17.76c-1.63,2.59-2.72,5.06-2.41,8.08c0.23,2.23,0.22,4.37-0.98,6.42
	c-0.46,0.79-0.64,1.87-0.61,2.8c0.17,5.2-1.38,10.01-3.01,14.86c-0.95,2.83-1.33,5.85-2.11,8.75c-0.38,1.41-1.11,2.73-1.65,4.1
	c-0.34,0.85-0.67,1.72-0.92,2.6c-0.32,1.15-0.38,2.4-0.85,3.48c-1.44,3.25-4.44,4.65-7.38,3.61c-3.15-1.11-4.95-4.81-3.88-8.15
	c0.67-2.1,1.48-4.15,2.19-6.24c0.72-2.13,0.81-4.11,0.07-6.43c-0.81-2.53-0.73-5.39-0.77-8.12c-0.13-8.01,0.41-16.07-0.34-24.01
	c-0.63-6.66-0.71-13.46-2.73-19.98c-0.51-1.66-0.24-3.56-0.35-5.36c-0.2-3.41,0.09-6.77-1.28-10.17c-0.92-2.29-0.35-5.19-0.41-7.81
	c-0.11-4.88-1.28-5.72-5.78-4.1c-0.52,0.19-1.01,0.45-1.54,0.63c-3.95,1.32-6.37,4.51-5.51,8.62c2.2,10.44,1.15,20.94,1.16,31.42
	c0,2.01-0.76,4.01-1.03,6.03c-0.25,1.91-0.35,3.83-0.46,5.75c-0.08,1.44,0.18,2.93-0.1,4.31c-1.46,7.11-2.37,14.33-3.67,21.44
	c-1.21,6.63-0.14,13.32-1.54,19.69c-1.82,8.25-0.89,16.5-1.66,24.71c-0.28,2.97-1.34,5.86-1.97,8.8c-0.43,2.01-0.96,4.03-1.08,6.06
	c-0.25,4.4-0.16,8.82-0.44,13.22c-0.11,1.66-0.81,3.3-1.32,4.92c-1.39,4.44-2.24,9.02-4.81,13.09c-1.58,2.5-2.38,5.49-3.53,8.26
	c-1.42,3.41-2.62,6.94-4.34,10.2c-1.39,2.64-2.39,5.18-2.24,8.23c0.2,4.01,0.02,7.92-2.77,11.36c-1.13,1.39-1.34,3.55-1.9,5.38
	c-0.64,2.09-1.24,4.19-1.78,6.31c-1,3.9,1.27,6.11,5.52,5.71c6.15-0.59,12.32-1.37,18.48-1.36c5.77,0.01,11.54,1.03,17.32,1.43
	c2.32,0.16,3.82,1.3,5.19,2.97c3.58,4.39,7.37,8.61,10.75,13.14c3.05,4.09,5.69,8.51,6.08,13.82c0.49,6.66-2.21,11.77-7.18,16.18
	c-3.57,3.17-6.6,6.97-9.62,10.71c-3.66,4.53-6.03,9.73-6.99,15.54c-0.13,0.77-0.67,1.49-1.05,2.21c-1.85,3.54-3.47,7.23-5.64,10.56
	c-1.63,2.5-4,4.5-5.97,6.78c-1.52,1.76-2.92,3.64-4.41,5.43c-0.53,0.64-1.04,1.44-1.75,1.74c-3.99,1.68-5.33,5.69-7.94,8.57
	c-1.93,2.13-4.87,3.43-7.52,4.78c-1.83,0.92-3.87,1.25-4.77,3.52c-0.29,0.72-1.47,1.28-2.34,1.53c-2.37,0.66-4.86,0.9-7.18,1.68
	c-5.36,1.79-10.61,1.35-15.81-0.45c-6.06-2.1-11.5-0.07-17.05,2.04c-4.25,1.62-8.4,3.22-11.05,7.21c-5.72,0.73-8.72,6.29-14.26,7.82
	c-3.45,0.95-6.19,4.44-9.28,6.74c-4.29,3.2-8.71,6.23-12.89,9.56c-4.62,3.68-8.96,7.72-13.56,11.43c-4.07,3.28-8.46,6.16-12.5,9.48
	c-3.62,2.97-8.06,5.7-10.14,9.6c-3.55,6.63-10.26,10.83-12.82,18.1c-0.62,1.76-2.82,2.91-4.09,4.51
	c-5.62,7.1-12.27,12.98-19.92,17.84c-3,1.9-5.65,4.39-8.37,6.71c-3.78,3.23-7.33,6.76-11.26,9.79c-3.26,2.5-6.76,4.81-10.45,6.6
	c-6.81,3.29-14.04,5.75-20.71,9.28c-6.89,3.65-14.47,4.09-21.74,5.96c-9.77,2.51-19.56,4.95-29.38,7.24
	c-3.48,0.81-7.07,1.4-10.64,1.52c-7.18,0.25-14.37,0.32-21.55,0.08c-9.1-0.3-18.19-1.19-27.29-1.42c-4.52-0.11-9.07,0.62-13.59,1.07
	c-12.95,1.3-25.93,1.66-38.91,0.82c-4.22-0.27-8.38-1.57-12.57-2.4c-0.54-0.11-1.06-0.35-1.61-0.39
	c-6.88-0.54-13.76-1.35-20.66-1.49c-7.87-0.16-15.77,0.09-23.63,0.54c-9.92,0.56-19.82,1.56-29.73,2.24
	c-3.84,0.26-7.71,0.13-11.57,0.27c-5.25,0.19-10.49,0.68-15.74,0.65c-6.62-0.03-13.24-0.47-19.87-0.71
	c-1.24-0.05-2.53-0.23-3.73,0.02c-5.5,1.13-10.65-0.78-15.92-1.69c-0.14-0.02-0.3-0.01-0.41-0.08c-7.87-4.81-17.31-3.65-25.71-6.88
	c-8.19-3.15-17.02-4.59-25.43-7.23c-6.56-2.06-12.9-4.79-19.34-7.23c-0.52-0.2-1-0.62-1.52-0.65c-9.13-0.51-16.69-5.93-25.3-8.16
	c-6.23-1.61-12.12-4.58-18.13-7.01c-5.5-2.21-11.02-4.38-16.43-6.78c-8.8-3.91-17.9-7.25-25.75-13.02
	c-2.67-1.96-5.15-4.17-7.85-6.08c-4.27-3.03-8.9-5.61-12.92-8.93c-3.69-3.04-6.73-6.85-10.16-10.21c-1.95-1.91-4.05-3.71-6.22-5.37
	c-6.27-4.8-12.32-9.68-15.51-17.34c-1.25-2.99-3.58-5.54-5.47-8.25c-2.51-3.61-4.93-7.31-7.65-10.76
	c-3.33-4.22-6.88-8.26-10.42-12.3c-2.63-3-5.58-5.74-8.06-8.85c-2.74-3.44-5.15-7.15-7.65-10.78c-1.24-1.8-2.32-3.7-3.57-5.49
	c-5.81-8.34-9.1-17.89-13.27-27.04c-3.81-8.37-8.48-16.36-12.49-24.65c-2.21-4.57-3.98-9.37-5.68-14.17
	c-2.6-7.36-3.37-15.4-8.82-21.68c-1.22-1.41-1.51-3.83-1.74-5.85c-0.64-5.5-1.31-10.95-3.74-16.04c-0.51-1.06-0.33-2.44-0.59-3.64
	c-0.85-4.03-1.79-8.04-2.61-12.07c-0.85-4.17-1.56-8.38-2.39-12.55c-0.49-2.44-0.95-4.9-1.67-7.27c-0.64-2.11-1.76-2.37-3.18-0.71
	c-2.33,2.71-4.39,5.64-6.71,8.36c-2.39,2.81-4.69,5.78-7.48,8.14c-4.19,3.54-8.19,2.91-12.06-0.91c-2.04-2.01-4.5-3.59-6.75-5.38
	c-0.75-0.6-1.62-1.12-2.18-1.86c-5.55-7.4-11.01-14.86-16.56-22.25c-6.77-9-6.11-18.72-2.85-28.68c0.81-2.47,2.1-4.8,2.86-7.28
	c0.8-2.6,1.45-5.29,1.75-7.99c0.48-4.25,0.5-8.54,0.91-12.79c0.45-4.65,6.07-9.44,10.98-9.53c4.29-0.08,8.63,0.28,12.86-0.28
	c6-0.79,11.91-2.25,18.21-3.5c0.77-15.15,2.59-29.98,8.78-43.94c-0.22-0.24-0.45-0.49-0.67-0.73c-1.56,0.62-3.15,1.18-4.69,1.86
	c-4.75,2.12-8.33,0.26-8.86-4.95c-0.32-3.13-0.2-6.32-0.05-9.48c0.77-16.99,4.13-33.47,11-49.04c1.97-4.47,3.77-8.15,1.62-13.16
	c-1.12-2.6,0.36-5.85,0.93-8.84c1.4-7.34,4.68-13.84,8.26-20.1c3.06-5.34,7.16-10.16,11.2-14.86c6.92-8.06,14.22-15.79,21.22-23.78
	c1.96-2.23,3.51-4.84,5.09-7.37c3.79-6.06,7.47-12.19,11.23-18.27c3.98-6.45,7.97-12.9,12-19.33c2.12-3.39,4.23-6.8,6.51-10.09
	c6.51-9.41,13.08-18.78,19.69-28.12c3.82-5.4,7.72-10.75,11.66-16.07c4.3-5.81,7.29-12.28,9.71-19.02c1-2.8-0.44-4.2-3.38-3.6
	c-1.08,0.22-2.2,0.45-3.18,0.92c-7.12,3.36-14.15,6.89-21.32,10.14c-5.78,2.62-11.71,4.9-17.57,7.35c-2.16,0.9-4.27,1.92-6.44,2.82
	c-3.15,1.3-5.4,0.41-6.79-2.61c-1.06-2.31-0.87-3.63,1.4-4.87c3.01-1.65,6.25-2.89,9.35-4.38c10.45-5.02,20.48-10.72,30.01-17.38
	c8.24-5.77,16.84-11.03,25.3-16.49c3.77-2.43,6.76-5.17,8.46-9.72c2.06-5.51,5.2-10.65,8.14-15.79c3.62-6.33,7.26-12.67,11.37-18.67
	c2.79-4.08,6.39-7.62,9.67-11.36c1.39-1.59,3.07-2.46,5.12-1.25c1.81,1.06,2.41,3.76,1.07,5.92c-1.66,2.69-3.37,5.43-5.53,7.71
	c-4.27,4.5-7.04,9.84-9.74,15.3c-1.45,2.93-3.29,5.67-4.81,8.57c-0.66,1.26-0.93,2.71-1.04,4.25c4.08-2.14,8.04-3.78,10.6-8.06
	c6.16-10.3,12.83-20.31,19.5-30.3c3.6-5.39,7.52-10.56,11.48-15.7c7.67-9.95,15.51-19.77,23.2-29.71
	c7.77-10.05,15.64-20.02,24.86-28.81c1.38-1.31,2.99-2.44,4.66-3.36c1.42-0.79,2.97-0.65,4.11,0.78c1.08,1.35,1.99,2.77,0.72,4.48
	c-1.29,1.74-2.34,3.82-4.01,5.08c-6.67,5.05-11.89,11.5-17.3,17.71c-5.86,6.74-11.07,14.06-16.61,21.08
	c-3.32,4.2-6.95,8.18-10.09,12.51c-5.64,7.78-10.99,15.76-16.52,23.62c-1.48,2.1-3.33,3.95-4.73,6.11
	c-2.29,3.54-4.33,7.23-6.42,10.74c1.24,1.7,2.31,1.09,3.47,0.51c5.54-2.74,11.14-5.34,16.65-8.14c5.88-2.99,11.74-6.05,17.51-9.26
	c7.35-4.09,14.62-8.33,21.88-12.57c7.02-4.09,13.81-8.62,21.03-12.3c10.39-5.3,20.42-11.24,31.1-16.1
	c10.09-4.59,20.39-8.37,30.79-12.03c4.81-1.69,9.7-3.15,14.5-4.87c2.7-0.97,5.22-2.56,7.97-3.29c1.55-0.41,3.62-0.06,5.07,0.69
	c2.13,1.11,3.98,0.9,5.92-0.01c5.08-2.37,10.14-4.75,15.18-7.2c2.45-1.19,4.82-2.54,7.23-3.82c0.24-0.13,0.51-0.22,0.77-0.31
	c2.76-0.96,6.04-1.38,7.72,0.92c1.17,1.6,0.39,4.65,0.39,7.06c0,0.48-0.4,0.97-0.99,2.27c1.98-0.34,3.47-0.3,4.66-0.87
	c2.36-1.13,4.63-2.49,6.8-3.96c1.42-0.97,2.52-2.4,3.91-3.43c2.77-2.04,5.66-3.89,8.46-5.89c4.24-3.04,9.33-4.74,13.14-8.47
	c0.74-0.73,1.9-1.06,2.89-1.52c0.62-0.29,1.41-0.35,1.91-0.76c2.35-1.98,4.63-4.05,7.56-6.65c-4.53,0-8.32,0-12.11,0
	c-12.88-0.02-25.76-0.26-38.63,0.03c-7.16,0.16-14.29,1.2-21.44,1.88c-4.12,0.39-8.24,0.81-12.35,1.28c-4.11,0.47-8.22,1-12.32,1.54
	c-3.05,0.4-3.25,0.25-4.34-2.79c-0.3-0.84-0.89-1.65-1.53-2.29c-2.52-2.51-1.71-5.83,1.8-6.88c0.9-0.27,1.92-0.2,2.88-0.25
	c5.93-0.27,11.88-0.9,17.8-0.7c8.61,0.29,17.05-1.17,25.57-1.64c5.76-0.32,11.58,0.55,17.38,0.58c3.99,0.02,8-0.78,11.98-0.68
	c6.07,0.15,12.12,0.82,18.18,1.16c3.3,0.19,6.62,0.16,9.92,0.2c1.91,0.02,3.81-0.04,5.72-0.03c0.69,0,1.38,0.18,2.07,0.15
	c1.77-0.08,4.1,0.19,4.4-2.09c0.33-2.53-2.28-2.06-3.67-2.23c-4.1-0.51-8.25-0.69-12.38-0.94c-3.16-0.19-6.33-0.2-9.49-0.45
	c-3.83-0.31-7.45-3.92-7.42-7.09c0.02-1.97,0.88-3.18,2.8-3.5c1.08-0.18,2.22-0.27,3.31-0.18c10.91,0.9,21.78-0.23,32.67-0.44
	c3.86-0.07,7.73,0.3,11.6,0.35c3.44,0.04,6.79-0.43,10.22-1.11c3.78-0.75,7.88,0.19,11.85,0.37c1.61,0.07,3.25,0.3,4.82,0.08
	c3.53-0.49,7.02-1.21,10.53-1.87c0.51-0.1,1-0.35,1.77-0.62c-0.43-1.21-0.8-2.28-1.27-3.59c10.17,2.46,20,0.2,30.17,0.71
	c-0.58-1.01-0.93-1.63-1.37-2.4c1.78,0.1,3.34,0.41,4.85,0.22c1.46-0.18,2.87-0.85,5.25-1.61c-3.11-1.01-5.45-1.76-8.13-2.63
	c3.22-3.74,6.49-3.47,10.18-1.4c0.94-2.21,2.11-3.79,4.65-3.89c0.89-0.03,1.69-1.32,2.62-1.9c1.86-1.17,3.78-2.24,5.82-3.44
	c-1.01-0.7-2.59-1.59-3.94-2.76c-1.43-1.24-2.65-2.73-4.42-4.6c0.52-0.71,1.12-1.86,2.03-2.67c0.91-0.81,2.09-1.34,3.21-1.88
	c1.65-0.79,4.19-0.79,3.66-3.57c-0.3-1.57-1.17-3.03-1.96-4.96c0.13-0.16,0.64-0.77,1.18-1.42c2.44,3.67,2.67,3.53,5.82,0.81
	c1.75-1.51,4.11-2.3,6.44-3.55c-2.1-2.73-5.79-2.41-8.55-4.05c0.46-2.69,2.42-3.37,4.45-3.76c1.54-0.3,2.68-0.79,2.63-2.56
	c-0.06-1.99,0.54-4.03-1.77-5.53c-2.68-1.74-5.11-3.9-7.52-6.03c-1.07-0.94-0.37-2.65,1.47-3.04c2.67-0.56,5.44-0.97,8.15-0.89
	c2.41,0.07,4.09-0.29,4.69-2.85c19.94,0,39.88,0,59.82,0c0.16,0.38,0.21,0.95,0.49,1.11c4.5,2.53,6.65,6.82,8.62,11.28
	c0.55,1.23,1.13,2.65,2.12,3.46c6.3,5.13,10.15,12.17,14.78,18.6c1.67,2.33,3.28,4.74,5.25,6.8c1.88,1.95,3.27,3.95,3.72,6.68
	c0.17,1.06,0.97,2.13,1.74,2.95c1.41,1.49,3.67,2.51,4.38,4.23c0.99,2.38,2.77,3.71,4.42,5.32c0.78,0.77,1.64,1.49,2.28,2.37
	c2.46,3.43,4.7,7.01,7.29,10.34c1.84,2.36,3.75,4.46,1.6,7.57c-0.08,0.11,0.2,0.47,0.45,1.02c0.85-0.52,1.68-1.03,2.77-1.69
	c0,1.42,0,2.49,0,3.57c4.1,3.52,8.13,7.09,11.02,11.42c6.06,9.06,11.48,18.53,17.24,27.79c2.69,4.33,5.55,8.56,8.36,12.81
	c2.2,3.33,4.45,6.62,6.7,9.92c1.85,2.73,3.72,5.45,5.59,8.16c2.28,3.29,4.85,6.42,6.78,9.91c2.47,4.44,4.74,8.95,8.42,12.57
	c0.86,0.85,1.71,2.03,1.9,3.16c0.61,3.61,3.36,5.89,5.15,8.74c2.08,3.32,4.75,6.28,6.98,9.52c1.78,2.59,3.1,5.52,4.97,8.03
	c2.3,3.08,5,5.86,7.46,8.82c1.32,1.59,2.63,3.22,3.76,4.95c3.91,5.96,7.66,12.04,11.64,17.95c2.75,4.08,5.78,7.96,8.71,11.92
	c2.17,2.94,3.86,6.15,6.14,9.08c9.22,11.88,17.96,24.14,26.85,36.29c12.32,16.83,24.63,33.66,36.91,50.52
	c4.38,6.01,8.54,12.19,13.04,18.12c3,3.95,6.11,7.92,9.71,11.29c3.59,3.36,3.36,7.98,5.08,11.93c0.25,0.57-0.38,1.53-0.62,2.3
	c-0.23,0.74-0.47,1.47-0.73,2.29c4.76,0.03,5.9,0.93,5.92,4.54c-0.82,0-1.65,0-2.91,0c1.31,3.32,1.9,6.66,3.75,9.01
	c1.89,2.39,1.75,5.37,3.43,7.61c1.84,2.45,3.84,4.79,5.97,7.43c1.47-0.13,2.25-0.96,1.48-2.98c-0.47-1.24-0.7-2.58-0.94-3.9
	c-0.04-0.24,0.42-0.57,0.67-0.89c0.62,0.79,1.14,1.46,1.97,2.53c1.1-2.6,1.99-4.68,3.09-7.27c6.1,6.87,12.02,12.93,12.71,22.75
	c0.38,5.38,3.19,10.62,3.63,16.27c0.35,4.47,2.2,9.16,1.31,13.31c-1.04,4.83,1.5,8.74,1.33,13.15c-0.01,0.29,1.1,0.63,1.68,0.95
	C1218.04,301.12,1218.04,307.49,1218.04,313.86z M987.06,313.05c-1.73,0.19-3.64-0.03-5.15,0.65c-4.17,1.88-8.17,4.14-12.85,6.56
	c2.03,0.8,3.49,1.38,4.96,1.96c1.79,0.71,3.28,0.19,4.31-1.34c1.77-2.63,4.19-3.65,7.32-3.82c2.8-0.16,3.11-1.38,1.38-4.04
	c1.29,0.39,2.59,0.77,3.88,1.17c2.07,0.65,2.79-0.09,2.39-2.36C991.08,312.08,988.46,308.92,987.06,313.05z M1041.87,300.55
	c3.65,1.36,6.29-0.15,8.23-3.2c1.38,0.56,2.5,1.01,3.35,1.35c1.54-0.87,2.75-1.7,4.08-2.26c1.39-0.58,2.95-0.76,4.32-1.36
	c6.64-2.9,13.27-5.83,19.84-8.88c1.02-0.47,1.73-1.62,2.58-2.45c-2.03-0.27-3.59-0.16-4.95,0.42c-4.38,1.87-8.63,3.91-13.29,5.26
	c-7.07,2.05-13.82,5.22-20.76,7.76c-1.78,0.65-3.5,1-3.38,3.39c-5.64-0.56-10.3,1.58-15.05,4.83c1.95,1.55,3.77,2.61,4.7,0.62
	c1.53-3.28,3.77-2.87,6.49-2.37C1040.98,304.2,1041.27,303.83,1041.87,300.55z M900.65,301.42c-2.54-0.37-5.08-0.74-7.94-1.15
	c0.99-0.93,1.79-1.69,2.99-2.82c-1.27-0.35-2.01-0.75-2.73-0.73c-4.55,0.12-9.1,0.51-13.65,0.47c-5.29-0.04-10.5,0.19-15.58,1.81
	c-2.89,0.92-5.87,1.59-8.72,2.62c-4.43,1.6-8.77,3.47-11.89,7.22c-4.56,5.48-9.09,10.98-13.54,16.55c-0.94,1.18-1.48,2.68-2.49,4.55
	c3.16-0.14,4.63,1.06,5.22,3.29c0.61,2.29-0.17,3.92-2.19,5.28c-1.34,0.9-2.36,2.32-3.4,3.6c-3.28,4.04-6.51,8.12-9.73,12.21
	c-0.5,0.64-0.84,1.41-1.26,2.11c-1.13,1.85-2.5,3.6-3.36,5.56c-1.59,3.65-4.7,6.69-4.04,11.3c0.25,1.74-0.48,3.86-1.36,5.48
	c-1.86,3.43-0.96,6.74-0.74,10.99c1.43-1.07,2.21-1.52,2.82-2.15c2.01-2.06,3.96-4.2,5.94-6.29c0.66-0.7,1.61-1.22,2.03-2.04
	c3.23-6.29,9.71-9.59,13.82-15.09c1.8-2.4,4.37-4.22,6.25-6.58c4.81-6.02,9.42-12.2,14.12-18.3c0.5-0.65,1.13-1.22,1.7-1.81
	c2.09-2.16,4.38-4.17,6.26-6.5c6.06-7.56,12.59-14.62,20.84-19.84c2.3-1.45,5.01-2.24,7.4-3.56c2.65-1.46,5.14-3,8.29-3.47
	c1.73-0.26,3.26-1.79,4.88-2.75c1.2,0.03,2.43,0.26,3.58,0.04c3.52-0.68,6.99-1.63,10.52-2.29c2.2-0.41,4.78-0.65,5.68,2.01
	c1,2.98,2.88,2.91,5.22,2.32c6.27-1.57,12.54-3.12,18.81-4.7c2.53-0.64,4.94-1.22,7.02-3.21c1.38-1.32,3.72-1.68,5.66-2.36
	c2.06-0.72,4.24-1.14,6.25-1.98c3.56-1.49,7.08-3.11,10.52-4.86c1.33-0.67,2.42-1.83,3.62-2.76c-0.16-0.26-0.31-0.53-0.47-0.79
	c-2.91,0.49-5.82,0.97-8.72,1.49c-7.17,1.28-14.34,2.55-21.5,3.91c-2.97,0.56-6,2.18-8.83,1.86c-6.56-0.74-12.13,2.89-18.4,3.28
	c-2.67,0.16-5.31,1.45-7.86,2.48c-1.31,0.53-2.03,0.49-3.26-0.36c-2.01-1.39-5.14-0.95-5.93,0.63
	C901.69,297.74,901.26,299.62,900.65,301.42z M659.36,435.54c-0.21,2.28,0.28,4.59-0.66,5.73c-2.08,2.51-7.35,1.76-8.98-1.15
	c-1.4-2.49-2.42-5.23-3.26-7.97c-0.79-2.58-1.25-5.28-1.64-7.96c-0.8-5.41-4.28-9.37-7.06-13.74c-1.16-1.82-2.82-3.87-2.8-5.81
	c0.05-5.22-3-9.15-5.06-13.35c-3.31-6.75-7.83-12.9-11.29-19.59c-4.8-9.27-9.26-18.73-13.54-28.26c-3.15-7.02-5.79-14.27-8.65-21.43
	c-1.47-3.66-2.7-7.38-4.5-10.96c-2.18-4.34-2.83-9.42-4.47-14.06c-2.7-7.66-5.6-15.26-8.53-22.83c-1.14-2.94-2.66-5.73-3.88-8.64
	c-2.08-4.94-3.92-9.96-7.12-14.38c-1.33-1.84-2.86-4.3-2.66-6.31c0.4-4.09-1.66-6.83-3.59-9.83c-0.9-1.39-1.61-2.91-2.6-4.24
	c-1.8-2.41-3.56-4.91-5.68-7.03c-2.69-2.7-5.66-5.12-8.62-7.53c-1.47-1.21-3.04-2.49-4.8-3.12c-4.93-1.76-9.98-3.2-14.99-4.76
	c-4.47-1.39-8.96-2.72-13.41-4.19c-1.82-0.6-3.48-1.73-5.32-2.22c-5.33-1.42-10.71-2.64-16.06-3.95
	c-5.89-1.44-11.78-2.91-17.68-4.31c-0.93-0.22-1.93-0.12-2.89-0.24c-2.05-0.26-4.11-0.48-6.14-0.88c-5.13-1-10.21-2.34-15.38-3.09
	c-11.06-1.6-22.17-2.94-33.26-4.34c-2.6-0.33-5.22-0.48-7.84-0.69c-2.56-0.2-4.87,0.24-7.02,1.88c-2.93,2.24-6.1,4.16-9.08,6.34
	c-8.11,5.94-16.27,11.81-24.22,17.96c-4.46,3.45-8.37,7.61-12.87,11.01c-2.79,2.1-4.72,4.6-6.04,7.67
	c-2.11,4.92-3.94,9.96-6.16,14.84c-4.84,10.64-9.69,21.29-14.85,31.79c-3.81,7.76-8.47,15.06-11.85,23.07
	c-1.92,4.54-4.78,8.69-7.23,13.01c-1.7,2.99-3.4,5.98-5.11,8.96c-2.18,3.79-5.23,7.35-6.34,11.43c-1.43,5.28-4.09,9.88-6.1,14.81
	c-0.93,2.29-1.71,4.71-3.03,6.77c-2.73,4.28-4.54,8.88-5.3,13.84c-1,6.54-2.07,13.1-2.51,19.69c-0.25,3.71,0.94,7.36,4.39,9.73
	c0.78,0.54,1.42,1.32,1.98,2.1c2.15,2.97,0.68,6.77-2.93,7.04c-2.1,0.15-4.71,0.03-6.32-1.09c-4.51-3.12-8.94-1.99-13.45-0.66
	c-6.64,1.96-13.27,3.85-20.26,4.02c-4.29,0.11-4.66,0.5-5.24,4.61c-0.64,4.51-0.74,9.23-2.26,13.43c-1.67,4.62-3.73,9.06-5.09,13.87
	c-1.67,5.92-0.46,11.37,1.81,16.43c2.1,4.7,5.25,9.09,8.63,13.01c4.49,5.21,9.58,9.91,14.56,14.67c2.78,2.66,5.41,2.25,7.67-0.95
	c2.15-3.05,4.03-6.29,6.28-9.26c3.33-4.39,6.79-8.7,10.38-12.88c1.79-2.08,4.04-2.18,6.41-0.93c2.27,1.19,2.52,3.07,2,5.3
	c-1.05,4.52,0.04,8.78,1.64,12.98c0.44,1.15,1.01,2.3,1.14,3.5c0.89,8.24,1.82,16.46,4.66,24.32c0.23,0.64,0.29,1.35,0.46,2.02
	c2.02,7.57,3.92,15.17,6.15,22.68c0.85,2.86,2.69,5.41,3.63,8.24c1.42,4.28,2.42,8.71,3.66,13.05c0.72,2.52,1.24,5.16,2.37,7.49
	c2.47,5.08,5.33,9.98,7.93,15c2.01,3.89,3.91,7.84,5.77,11.8c1.28,2.72,2.79,5.42,3.51,8.3c1.81,7.19,5.72,13.4,8.96,19.89
	c2.31,4.64,5.38,8.93,8.37,13.2c2.2,3.14,4.74,6.06,7.27,8.96c5.88,6.73,12.84,12.52,17.54,20.27c1,1.65,2.2,3.18,3.31,4.76
	c3.72,5.28,7.68,10.41,11.07,15.9c2.01,3.26,4.4,5.96,7.28,8.35c2.96,2.46,6.15,4.71,8.74,7.51c6.07,6.56,12.75,12.35,20.05,17.47
	c2.48,1.74,5.28,3.14,7.44,5.2c3.36,3.21,7.13,5.6,11.32,7.46c4.02,1.79,8.06,3.55,12,5.49c9.91,4.89,19.97,9.42,30.52,12.78
	c1.7,0.54,3.78,0.44,5.14,1.4c5.82,4.1,12.85,4.9,19.24,7.42c5.13,2.02,10.46,3.53,15.71,5.27c4.59,1.52,9.14,3.14,13.77,4.52
	c2.36,0.7,4.87,0.91,7.29,1.43c7.81,1.68,14.81,5.95,22.8,7.1c3.26,0.47,6.59,0.85,9.7,1.84c6.02,1.91,12.25,1.91,18.4,2.67
	c2.31,0.29,4.6,0.79,6.88,1.28c1.21,0.26,2.36,0.96,3.56,1.01c4.69,0.2,9.31,0.97,13.96,1.48c6.81,0.75,13.78,0.37,20.66,0.12
	c6.48-0.23,12.94-1.06,19.41-1.37c9.08-0.43,18.18-0.74,27.27-0.88c9.25-0.14,18.51-0.29,27.74,0.07
	c7.43,0.29,14.84,1.37,22.26,2.06c7.42,0.68,14.84,1.57,22.28,1.87c5.07,0.2,10.18-0.49,15.28-0.73c5.39-0.26,10.59-1.06,15.52-3.56
	c2.22-1.13,4.89-1.37,7.3-1.99c1.8,4.76,1.92,4.82,6.42,4.19c0.95-0.13,1.93-0.17,2.89-0.13c12.14,0.48,24.27,1.01,36.41,1.45
	c1.49,0.05,3.02-0.26,4.51-0.54c7.05-1.33,13.39-5.09,20.71-5.73c5.16-0.45,10.29-1.68,15.35-2.9c4.12-1,8.15-2.43,12.18-3.79
	c2.19-0.74,4.26-2.33,6.45-2.47c4.91-0.32,9.13-2.27,13.21-4.61c4.16-2.38,8.07-5.17,12.13-7.73c1.73-1.09,3.61-1.94,5.33-3.05
	c2.06-1.34,4.11-2.75,6-4.32c1.89-1.58,3.48-3.53,5.4-5.07c4.06-3.26,8.29-6.31,12.38-9.55c2.05-1.62,3.85-3.55,5.89-5.19
	c3.25-2.61,6.15-5.49,8.38-9.07c1.67-2.69,3.35-5.44,5.42-7.81c4.33-4.96,8.01-10.42,12.49-15.3c4.46-4.87,9.81-8.43,14.7-12.64
	c5.72-4.94,11.66-9.62,17.3-14.64c4.73-4.2,9.17-8.73,13.75-13.11c0.3-0.28,0.67-0.48,1.02-0.71c6.71-4.31,13.77-8.1,19.75-13.49
	c1.62-1.46,3.63-2.56,5.04-4.18c2.41-2.78,4.34-5.98,6.75-8.77c3.41-3.96,2.93-8.47,2.37-13.07c-0.25-2.03-0.57-4.06-0.69-6.1
	c-0.13-2.08,0.85-3.48,3-3.78c2.06-0.28,4.14,0.13,4.98,2.12c1.01,2.37,1.89,4.96,2.01,7.49c0.17,3.36,1.53,6.07,3.07,8.87
	c1.67,3.02,4.59,4.05,7.37,3.55c5.56-0.99,11.37-0.05,16.75-2.32c2.17-0.91,4.14-0.61,6.24,0.8c1.14,0.77,3.49,1.02,4.57,0.35
	c3.6-2.24,7.06-4.8,10.22-7.63c3.61-3.25,6.72-7.05,10.26-10.39c4.17-3.93,8.04-7.89,8.21-14.13c0.02-0.67,0.76-1.33,1.2-1.97
	c0.55-0.79,1.36-1.48,1.66-2.35c1.64-4.79,3.86-9.22,6.3-13.69c2.33-4.27,5.24-7.67,8.51-10.97c1.32-1.34,3-2.31,4.37-3.6
	c3.15-2.96,2.62-7.4,4.24-10.98c0.2-0.43,0.06-1.15-0.17-1.61c-1.35-2.68-2.44-5.59-4.26-7.92c-2.6-3.32-5.64-6.34-8.74-9.2
	c-1.43-1.32-3.37-2.52-5.24-2.83c-7.82-1.29-15.67-1.4-23.49,0.35c-2.27,0.51-5.05-0.19-6.9,0.88c-3.65,2.1-7.3,1.44-10.9,0.99
	c-5.95-0.74-8.33-6.52-5.07-11.48c0.74-1.13,1.31-2.41,1.75-3.7c1.14-3.36,2.16-6.75,3.23-10.13c0.62-1.96,1.46-3.89,1.81-5.89
	c1.65-9.54,4.8-18.57,8.89-27.32c1.27-2.72,1.57-6.09,3.37-8.3c2.36-2.89,2.93-6.2,3.83-9.45c0.69-2.5,1.26-5.22-0.29-7.81
	c-0.48,0.32-0.78,0.42-0.92,0.63c-1.08,1.6-2.14,3.22-3.19,4.84c-1.57,2.41-4.8,4.13-6.91,3.69c-4.59-0.96-6.53-5.34-3.53-9.16
	c2.96-3.77,4.84-7.92,6.07-12.4c0.72-2.62,0.75-5.42,1.3-8.1c0.92-4.56,2.01-9.08,3.02-13.62c0.76-3.47,1.43-6.95,2.26-10.4
	c1.15-4.79,2.97-9.45,2.78-14.5c-0.03-0.82,0.02-1.67,0.18-2.48c0.98-4.93,2.15-9.83,2.94-14.79c0.41-2.55-0.37-5.07-0.92-7.64
	c-0.51-2.36,1.69-5.2,1.54-7.75c-0.44-7.18-0.98-14.23,1.03-21.35c1.21-4.3,1.28-8.91,1.93-13.38c0.12-0.79,0.65-1.51,0.86-2.29
	c1.04-3.73,1.09-7.44,0.02-11.58c-2.88,1.17-5.33,2.03-7.66,3.14c-7.97,3.77-15.83,7.8-24.28,10.46c-1.84,0.58-3.7,1.15-5.48,1.88
	c-8.79,3.57-17.57,7.17-26.34,10.81c-4.04,1.68-8.08,3.38-12.04,5.23c-2.09,0.97-2.18,3.62-0.13,4.56c3.11,1.43,6.26,3.24,9.56,3.68
	c5.19,0.69,8.72,4.48,13.43,6.03c3.69,1.21,6.93,3.75,10.4,5.64c2.9,1.58,5.88,3.01,8.77,4.6c1.71,0.94,3.09,3.96,2.43,5.25
	c-0.99,1.95-2.66,2.15-4.61,1.68c-1.07-0.26-2.23-0.14-3.28-0.44c-4.16-1.19-8.58-1.55-11.87-5.09c-1.63-1.75-4.02-2.9-6.25-3.95
	c-4.24-1.99-8.59-3.75-12.93-5.53c-3.7-1.52-7.38-3.12-11.19-4.32c-3.01-0.95-6.18-1.41-9.3-2c-5-0.95-9.96-2.45-15.11-0.68
	c-2.66,0.92-5.17,0.1-7.61-1.02c-1.63-0.75-3.26-1.9-4.95-2.03c-7.45-0.58-14.87-0.47-22.17,1.69c-8.05,2.38-16.01,5.32-24.65,4.66
	c-2.06-0.16-4.17-0.16-6.23,0.05c-4.8,0.49-9.63,0.88-14.35,1.83c-4.89,0.98-9.9,0.66-14.76,1.76c-1.04,0.24-2.29-0.19-3.24,0.19
	c-3.39,1.35-6.74,2.51-10.45,1.47c-0.24-0.07-0.55,0.06-0.8,0.16c-4.59,1.83-9.24,3.53-13.75,5.55c-3.12,1.4-6.03,3.29-9.06,4.91
	c-5.71,3.05-11.49,5.99-17.15,9.14c-4.1,2.28-8.05,4.83-12.05,7.28c-4.57,2.8-9.14,5.62-13.69,8.46c-0.33,0.21-0.56,0.6-0.82,0.92
	c-3.29,4.04-6.51,8.14-9.89,12.1c-1.5,1.76-3.37,3.21-4.97,4.89c-2.51,2.64-2.43,3.22,0.24,5.64c0.55,0.5,0.92,1.19,1.37,1.79
	c-0.11,0.32-0.22,0.64-0.32,0.95c-4.89-0.34-10.08,2.06-14.51-2.59c-3.06,2.44-5.95,4.77-8.87,7.06c-1.4,1.1-2.69,2.71-4.28,3.11
	c-5.94,1.48-8.15,7.09-12.04,10.72c-4.57,4.28-8.07,9.7-12,14.65c-0.5,0.63-1.05,1.35-1.22,2.11c-1.29,5.97-4.17,11.29-6.54,16.84
	c-3.07,7.19-5.64,14.59-8.52,21.85c-0.91,2.29-2.37,4.37-3.22,6.68c-3.02,8.23-5.75,16.58-8.85,24.78
	c-4.86,12.9-10.72,25.34-17.47,37.36c-0.81,1.44-1.37,3.01-2.05,4.51c-1.7,3.74-3.23,7.58-5.17,11.19
	c-2.58,4.83-5.67,9.39-8.2,14.24c-2.85,5.49-5.93,11.04-6.35,17.33c-0.25,3.7-1.97,6.57-3.58,9.57c-1.67,3.11-4.03,3.75-7.3,2.84
	c-2.09-0.58-4.33-1.03-6.47-0.91c-3.25,0.18-5.19-1.44-5.89-4.14c-1.38-5.31-3.74-10.43-3.62-16.08c0.04-1.98-0.58-3.45-2.46-4.38
	c-1.36-0.67-2.52-1.75-3.9-2.35c-1.18-0.52-2.57-0.94-3.83-0.84c-4.27,0.33-5.69-1.05-4.87-5.18c0.18-0.93,0.64-1.81,0.99-2.7
	c0.83-2.07,1.17-4.12,0.03-6.51c-2.07,1.73-3.69,3.49-5.67,4.63c-2.92,1.69-5.28,0.11-5.2-3.25c0.02-0.93,0.32-1.91,0.72-2.76
	c1.6-3.37,3.37-6.66,4.9-10.06c0.9-1.98,2.08-4.12,2.06-6.17c-0.04-4.53-0.66-9.08-1.29-13.58c-0.15-1.05-1.1-2.33-2.04-2.85
	c-3.35-1.85-4.47-4.77-4.36-8.28c0.22-7.31,0.57-14.61,0.9-21.91c0.2-4.28,0.65-8.55,0.67-12.82c0.06-16.48-0.25-32.96,0.11-49.43
	c0.13-6.19-1.56-11.96-2.34-17.93c-0.3-2.31-0.98-4.58-1.54-6.85c-1.49-5.96-3.07-11.89-4.5-17.87c-2.01-8.43-3.83-16.91-5.87-25.33
	c-1.85-7.61-3.92-15.16-5.85-22.75c-0.84-3.31-1.37-6.72-2.44-9.96c-2.6-7.84-5.29-15.66-8.24-23.37c-1.36-3.56-2.99-7.2-5.31-10.17
	c-2.43-3.11-5.78-5.54-8.84-8.12c-1.16-0.98-2.65-1.57-4.22-2.47c-0.24,1.04-0.47,1.46-0.4,1.81c0.94,4.99,2.4,9.93,2.77,14.96
	c0.5,6.8,4.02,12.96,3.77,19.85c-0.02,0.52,0.28,1.07,0.5,1.57c2.22,5.17,4.21,10.45,6.74,15.46c4.28,8.49,9.04,16.73,13.32,25.21
	c3.16,6.27,6.52,12.56,8.61,19.21c1.97,6.25,5.36,12.03,5.91,18.82c0.31,3.83,2.2,7.52,3.07,11.34c0.74,3.27-1.38,5.65-4.76,5.65
	C661.92,435.97,660.45,435.66,659.36,435.54z M803.8,182.32c-3.78,0.15-3.72,0.05-7.06-2.09c-4.25-2.72-8.77-4.64-14.03-4.39
	c-2.66,0.13-5.56,0.75-7.63-1.96c-0.36-0.47-1.55-0.38-2.37-0.44c-8.23-0.59-16.47-1.14-24.7-1.76c-2.96-0.23-5.73-0.95-7.6-3.6
	c-1.03-1.46-1.04-2.65,0.24-4.05c2.06-2.23,4.52-3.39,7.62-3.48c-1.22-0.55-2.4-0.93-3.6-1.12c-11.04-1.69-22.06-3.62-33.14-4.94
	c-11.01-1.31-21.77-3.66-32.5-6.31c-2.13-0.53-4.36-0.68-6.49-1.23c-5.06-1.3-10.09-2.74-15.14-4.1c-0.39-0.11-0.82-0.08-1.24-0.1
	c-7.32-0.3-14.64-0.7-21.96-0.85c-6.78-0.14-13.57-0.13-20.35,0.06c-4.55,0.13-9.16,0.28-13.6,1.13
	c-6.35,1.22-12.93,0.98-19.08,3.54c-4.01,1.67-8.36,2.52-12.55,3.75c-2.51,0.73-5.03,1.46-7.54,2.23
	c-4.59,1.41-9.22,2.73-13.74,4.34c-3.9,1.38-7.61,3.26-11.51,4.64c-8.81,3.12-17.49,6.5-25.77,11.59c0.47,0.61,0.81,1.5,1.39,1.7
	c1.42,0.5,2.94,0.8,4.44,0.98c9.98,1.15,19.94,2.47,29.95,3.31c11.55,0.97,23.13,1.53,34.7,2.25c6.88,0.43,13.75,0.84,20.63,1.24
	c1.91,0.11,3.87-0.07,5.74,0.25c10.82,1.8,21.72,2.19,32.66,2.14c2.08-0.01,4.16,0,6.22,0.17c8.95,0.72,17.88,1.81,26.83,2.19
	c13.23,0.56,26.47,0.79,39.71,0.86c8.7,0.05,17.4-0.53,26.11-0.66c9.25-0.14,18.5-0.01,27.75-0.17c6.48-0.11,12.95-0.53,19.43-0.8
	c2.19-0.09,4.39-0.22,6.58-0.19c3,0.04,6,0.17,8.99,0.37c1.26,0.08,2.51,0.45,4.05,0.75C804.67,185.49,804.27,184.04,803.8,182.32z
	 M546.06,188.99c1.31,1.44,1.96,2.2,2.65,2.92c5.65,5.85,11.85,11.27,16.78,17.67c3.38,4.38,7.44,6.91,12.27,8.56
	c12.42,4.22,25.02,7.9,37.35,12.36c9.73,3.52,19.18,7.81,28.7,11.88c3.92,1.67,7.71,3.64,11.54,5.51
	c8.06,3.94,16.11,7.91,24.17,11.85c1.31,0.64,2.68,1.17,4.46,1.94c0.2-4.02,2.77-5.58,5.33-7.26c4.49-2.94,9.04-5.84,13.31-9.08
	c9.83-7.45,20.31-13.71,31.63-18.61c2.03-0.88,3.93-2.08,5.89-3.13c-0.06-0.3-0.12-0.61-0.19-0.91c-0.83-0.28-1.74-0.92-2.48-0.77
	c-4.35,0.92-8.69,1.49-13.12,0.69c-0.38-0.07-0.81,0.16-1.22,0.18c-2.75,0.15-5.51,0.46-8.26,0.37c-9.94-0.3-19.87-0.95-29.81-1.07
	c-11.04-0.12-22.09,0.3-33.13,0.28c-4.97-0.01-9.94-0.43-14.89-0.8c-4.07-0.3-5.9-2.54-5.6-6.14c0.24-2.95,2.76-3.9,4.59-4.02
	c3.8-0.26,6.92-2.23,10.42-3.07c4.38-1.04,7.52-5.11,12.36-4.92c0.1,0,0.2-0.19,0.32-0.25c1.47-0.69,2.93-1.39,4.41-2.04
	c1.49-0.65,4.3,0.11,3.96-2.49c-0.28-2.16-2.74-1.86-4.51-1.89c-3.04-0.06-6.09-0.01-9.13-0.05c-1.52-0.02-3.04-0.07-4.56-0.17
	c-7.43-0.49-14.86-1.07-22.3-1.48c-3.59-0.2-7.23,0.18-10.79-0.22c-12.64-1.41-25.26-2.85-38.01-2.31
	c-4.03,0.17-8.01,0.2-11.75-1.76c-0.93-0.49-2.14-0.51-3.23-0.63c-4.79-0.54-9.58-1.04-14.38-1.52
	C548.33,188.57,547.8,188.75,546.06,188.99z M830.76,273.41c-4.11-0.43-8.14-0.12-12.08,1.24c-1.53,0.53-3.21,0.82-4.83,0.89
	c-9.65,0.43-19.31,0.71-28.96,1.14c-3.17,0.14-6.39,0.23-9.47,0.89c-9.94,2.12-20,2.12-30.07,2.2c-3.46,0.03-6.93,0.13-10.38-0.05
	c-3.53-0.18-6.54-2.34-6.78-4.53c-0.21-1.93,2.04-4.74,5.06-5.9c8.34-3.2,16.72-6.28,26.02-9.76c-3.78,0.19-6.69,0.22-9.58,0.5
	c-10.02,0.99-20.01,2.27-30.04,3.06c-7.98,0.63-16.01,0.69-24.02,1.01c-1.64,0.07-3.39-0.03-4.3,2.42c1.53,1.14,3.14,2.35,4.77,3.55
	c2.33,1.72,4.86,3.21,6.93,5.19c2.09,2.01,3.76,3.8,7.12,2.55c2.12-0.79,4.62,0.73,4.58,2.34c-0.1,4.4-0.41,8.81-0.77,13.2
	c-0.13,1.61-0.86,3.17-0.97,4.77c-0.68,9.22-1.25,18.44-1.9,27.66c-0.06,0.81-0.29,1.64-0.62,2.38c-1.32,2.92-0.99,5.88-0.58,9.09
	c0.87-0.11,1.6-0.04,2.18-0.3c5.99-2.73,11.97-5.48,17.91-8.31c1.49-0.71,2.95-1.58,4.2-2.63c1.42-1.19,3.04-2.47,3.78-4.08
	c1.84-3.99,3.14-8.22,4.81-12.29c1.35-3.28,2.72-6.58,4.5-9.63c0.93-1.6,2.85-2.16,4.75-0.99c1.85,1.13,2.62,3.33,1.74,5.36
	c-1.23,2.86-2.56,5.67-3.77,8.53c-0.3,0.72-0.31,1.56-0.45,2.32c0.34,0.12,0.46,0.18,0.59,0.2c3.46,0.4,5.94-2.02,8.74-3.29
	c6.48-2.94,12.79-6.28,19.11-9.57c3.79-1.97,7.42-4.23,11.2-6.24c5.09-2.71,10.33-5.15,15.37-7.95
	C813.34,283.49,822.03,278.41,830.76,273.41z M419.16,172.64c1.53,0.36,2.44,0.75,3.37,0.77c11.89,0.29,23.8,0.25,35.52-1.99
	c10.17-1.94,20.23-4.43,30.35-6.68c3.91-0.87,7.88-1.49,11.72-2.61c9.41-2.76,18.74-5.77,28.12-8.61c4.09-1.24,8.33-2.01,12.33-3.47
	c6.99-2.56,13.85-5.47,20.76-8.26c5.22-2.11,10.44-4.22,15.62-6.4c1.35-0.57,3.53-1.33,2.68-3.03c-1.09-2.16-0.21-5.66-3.62-6.38
	c-2.69-0.57-5.49-0.68-8.18-1.27c-8.9-1.93-17.74-1.65-26.66,0c-9.61,1.78-19.27,3.33-28.95,4.73c-7.1,1.03-14.23,2.1-21.38,2.33
	c-5.12,0.17-9.88,1.01-14.4,3.23c-1.57,0.77-2.89,2.06-4.41,2.94c-4.64,2.7-9.35,5.26-13.97,7.97
	c-8.89,5.22-17.82,10.39-26.58,15.84c-3.71,2.31-7.05,5.24-10.48,7.99C420.28,170.32,419.96,171.35,419.16,172.64z M702.4,253.87
	c1.58,0.46,1.98,0.68,2.36,0.66c7.97-0.37,15.94-0.65,23.9-1.21c5.64-0.4,11.26-1.19,16.88-1.78c9.75-1.02,19.49-2.06,29.24-2.99
	c7.84-0.75,15.68-1.59,23.54-1.92c7.75-0.33,15.45-0.68,23-2.66c1.59-0.42,3.27-0.53,4.91-0.71c5.81-0.64,11.79,0.04,17.42-2.16
	c0.75-0.29,1.65-0.38,2.45-0.3c2.8,0.25,5.15-0.49,6.48-2.56c2.46,0.44,4.53,1.07,6.61,1.09c2.05,0.02,4.11-0.59,5.99-0.89
	c-0.36-2.33-0.67-4.38-1.07-6.99c-2.34-0.1-5.18-0.23-8.03-0.34c-3.56-0.13-7.12-0.16-10.66-0.4c-0.86-0.06-2.04-0.55-2.44-1.23
	c-0.9-1.5-2.27-1.65-3.67-2.24c-2.72-1.14-5.33-2.03-8.33-1.57c-0.6,0.09-1.37-0.27-1.92-0.64c-4.89-3.28-10.5-3.02-15.97-3.17
	c-3.71-0.1-7.44,0.42-11.16,0.63c-3.17,0.18-6.36,0.14-9.52,0.47c-9.04,0.96-18.04,2.5-27.1,2.96c-7.73,0.39-14.88,2.6-22.08,4.9
	c-1.56,0.5-2.97,1.44-4.52,1.99c-6.14,2.17-11.94,4.98-17.39,8.56c-3.57,2.35-7.25,4.53-10.83,6.87
	C708,249.88,705.58,251.66,702.4,253.87z M1152.61,240.8c-1.51,0.84-2.5,1.58-3.62,1.96c-1.14,0.39-2.41,0.37-3.6,0.63
	c-2.62,0.57-3.11,0.21-4.26-2.77c-0.25-0.64-1.05-1.22-1.74-1.5c-2.67-1.11-5.7-1.65-8.02-3.24c-3.57-2.44-7.54-3.27-11.55-4.24
	c-1.05-0.25-2.45-0.29-3.05-0.98c-2.41-2.8-5.71-3.94-8.98-4.86c-6.15-1.72-12.15-2.09-17.43,2.83c-1.84,1.71-4.4,2.8-6.81,3.69
	c-2.07,0.77-3.81,1.55-4.02,3.06c-2.19,0.84-3.82,1.27-5.26,2.06c-2.05,1.12-3.94,2.55-5.95,3.76c-1.85,1.12-3.79,2.1-5.67,3.17
	c-1.68,0.95-3.36,1.89-4.98,2.93c-4.26,2.7-9,4.77-12.12,9.02c-0.37,0.51-0.92,0.99-1.5,1.22c-2.39,0.98-4.92,1.66-7.21,2.82
	c-2.67,1.34-5.12,3.14-7.73,4.61c-2.38,1.34-4.95,2.35-7.27,3.77c-4.19,2.56-8.27,5.32-12.56,8.11c1.77,1.59,3.53,1.19,5.32,1.1
	c2.72-0.13,5.46,0.04,8.19-0.02c3.29-0.08,6.63,0.03,9.86-0.5c4.06-0.68,8.11-1.7,12.03-2.98c10.56-3.45,21.55-5.36,32.03-9.14
	c5.29-1.9,10.8-3.41,16.34-4.31c5.06-0.82,9.27-4.49,14.67-3.96c0.67,0.07,1.42-0.76,2.14-1.16c0.83-0.46,1.62-1.13,2.51-1.33
	c5.03-1.13,10.07-2.21,15.13-3.19c2.84-0.55,5.71-0.95,8.59-1.29c5.97-0.72,11.73-3.22,17.94-2.05c0.97,0.18,2.08-0.43,3.59-0.79
	c-0.68-1-1.24-2.38-1.66-2.34C1153.22,245.12,1153.32,242.95,1152.61,240.8z M570,77.63c2.33-0.35,4.35-0.77,6.4-0.94
	c4.51-0.37,9.06-0.43,13.56-0.94c6.58-0.74,13.11-1.94,19.69-2.62c6.01-0.62,12.08-0.6,18.08-1.25c10.69-1.15,21.35-2.53,32.01-3.94
	c6.7-0.89,13.37-1.97,20.05-3.02c6.24-0.98,12.46-2.1,18.71-3.04c5.71-0.86,11.45-1.55,17.17-2.35c1.87-0.26,2.79-2.09,1.5-2.69
	c-2.91-1.37-3.94-4.92-7.16-5.7c-2.52-0.61-5.05-1.19-7.6-1.61c-7.21-1.18-14.45-2.2-21.65-3.45c-1.84-0.32-4.25-0.79-5.2-2.07
	c-2.99-4.03-7.17-4.48-11.53-5.17c-7.21-1.14-14.63-0.57-21.7-3.02c-2.84-0.98-5.63,0.13-8.15,1.94c-3.53,2.53-7.2,4.86-10.86,7.2
	c-4.17,2.67-8.42,5.22-12.6,7.88c-2.9,1.85-5.52,4.36-8.65,5.56c-5.47,2.1-9.96,5.78-15.02,8.51c-4.93,2.66-9.28,6.4-14.97,7.59
	C570.55,74.8,569.57,75.57,570,77.63z M513.19,103.93c1.81,1.86,3.46,2.13,5.32,1.74c1.35-0.28,2.74-0.86,4.06-0.75
	c6.44,0.52,12.64-0.67,18.81-2.23c3.88-0.98,7.7-2.23,11.62-3.01c6.9-1.36,13.86-2.47,20.8-3.62c1.2-0.2,2.46,0.03,3.68-0.1
	c3.69-0.39,7.76-0.01,10.96-1.49c4.39-2.03,8.58-2.67,13.17-1.92c2.64,0.43,5.02,0.14,7.61-0.96c2.8-1.19,5.88-3.98,9.18-0.7
	c0.16,0.16,0.53,0.16,0.8,0.17c5.52,0.11,11.03,0.26,16.55,0.28c6.23,0.03,12.46-0.15,18.68-0.07c6.87,0.08,13.74,0.46,20.61,0.51
	c4.8,0.03,9.61-0.52,14.4-0.36c2.58,0.09,4.24-0.99,4.83-3.01c1.57-5.41,5.59-6.31,10.32-6.36c2.07-0.02,4.34,0.28,6.16-0.46
	c5.25-2.14,10.6-2.64,16.14-2.06c2.58,0.27,4.58-0.52,5.95-2.86c0.44-0.75,1.31-1.26,2.19-2.06c2.93,3.41,6.07,2.81,9.5,1.3
	c1.27-0.56,2.96-0.14,4.46-0.24c1.08-0.07,2.16-0.26,4.04-0.5c-3.06-2.97-6.03-3.18-8.98-3.49c-1.46-0.16-3.22-0.13-4.28-0.93
	c-1.54-1.17-2.98-1.1-4.66-0.98c-5.1,0.39-10.38,1.61-15.27,0.73c-4.17-0.75-8.15-0.82-12.24-0.64c-2.2,0.1-4.4,0.32-6.59,0.55
	c-7.41,0.75-14.87,1.2-22.21,2.35c-12.01,1.89-23.95,4.18-36.15,4.37c-0.82,0.01-1.73-0.02-2.45,0.31
	c-7.94,3.56-16.72,1.28-24.87,3.62c-2.12,0.61-4.07,0.52-3.98,3.54c-1.55-0.16-2.97,0.08-3.95-0.46c-3.96-2.2-8.09-1.21-12.17-0.9
	c-4.4,0.33-8.77,0.94-13.17,1.33c-4.54,0.4-9.15,0.32-13.63,1.09c-9.79,1.68-19.53,3.72-29.27,5.71c-2.16,0.44-4.35,1.02-6.32,1.97
	c-5.59,2.7-11.07,5.6-16.57,8.47C515.26,102.35,514.37,103.11,513.19,103.93z M897.02,172.92c-2.02-0.79-3.85-1.37-5.54-2.22
	c-0.88-0.44-1.88-1.24-2.2-2.1c-1.32-3.58-4.16-5.13-7.54-3.45c-2,0.99-3.67,2.65-5.95,4.35c-0.41-0.48-1.07-1.21-1.68-1.98
	c-0.73-0.92-1.21-2.24-2.15-2.75c-3.4-1.87-7.07-3.04-11.03-2.58c-2.83,0.32-5.41,0.02-7.82-2.79c-0.75,1.59-1.93,2.92-1.65,3.77
	c0.36,1.08,1.78,2.02,2.96,2.57c0.93,0.44,2.17,0.25,3.27,0.26c2.91,0.03,5.82-0.04,8.72,0.07c0.79,0.03,1.56,0.57,3.08,1.16
	c-4.6,2.39-9.38,0.3-13.7,3.22c1.51,0.28,2.29,0.44,3.08,0.57c4.14,0.71,8.22,2.8,12.53,0.35c0.41-0.24,2.12,0.77,2.4,1.51
	c1.22,3.28,4.04,3.88,6.86,4.53c4.25,0.98,8.52,1.87,12.79,2.78c0.39,0.08,0.8,0.07,1.27,0.11c0.58-0.77,1.14-1.51,1.88-2.51
	c1.34,0.84,3.18,0.79,3.68,2.99c-1.4,0.32-2.59,0.59-4.08,0.92c3.37,2.54,5.2-1.03,7.92-1.37c0.09,1.24,0.17,2.28,0.22,2.94
	c2.56,2.68,4.38,0.61,5.72-0.28c2.4,0.86,4.28,1.53,6.98,2.5c0.51,1.9,1.56,4.48,1.82,7.14c0.31,3.13-0.92,3.97-3.97,3.47
	c-0.82-0.13-1.62-0.51-2.43-0.52c-3.7-0.03-7.46-0.53-11.18,1.1c1.32,1.39,2.66,2.81,4.22,3.09c1.58,0.29,2.96,0.89,4.36,1.28
	c3.06,0.85,6.41,0.8,9.52,1.83c0.2,0.07,0.61-0.1,0.73-0.29c1.77-2.8,4.13-0.92,6.65-1c-0.91,0.85-1.52,1.42-2.77,2.6
	c7.08,0.93,13.35,1.72,19.6,2.6c1.07,0.15,2.08,0.67,3.12,1.02c1.42,0.48,2.8,1.22,4.25,1.42c4.64,0.65,9.31,1,13.95,1.66
	c2.42,0.34,4.8,1.04,7.18,1.65c1.86,0.48,3.72,0.99,5.53,1.62c5.05,1.77,10.54-0.29,15.53,1.84c0.11,0.05,0.27-0.01,0.41-0.03
	c3.12-0.48,6.17-1.06,8.61-3.39c0.69-0.66,1.88-0.88,2.89-1.12c3.12-0.75,6.26-1.41,9.38-2.1c-2.34-1.99-4.94-2.91-5.27-6.16
	c0.98-0.45,1.99-0.91,3.88-1.78c-6.66-1.76-12.32-3.24-17.96-4.76c-0.79-0.21-1.66-0.45-2.27-0.95c-2.58-2.14-5.02-1.8-7.52,0.12
	c-1.43,1.1-2.93,1.22-4.66-0.01c1.02-1.17,1.87-2.15,2.78-3.19c-2.28-2.41-4.37-1.38-6.59-0.43c-2.88,1.24-3.79,0.68-4.63-2.43
	c-0.1-0.37-0.26-0.73-0.49-1.33c-1.39,0.08-2.81-0.05-4.1,0.28c-3.05,0.79-5.71-0.13-8.33-1.48c-0.84-0.43-1.67-0.92-2.56-1.25
	c-2.95-1.09-5.91-2.14-8.89-3.16c-4.09-1.39-8.19-2.74-12.8-4.28c0.68,2.1,1.16,3.58,1.76,5.43c-3.88-1.32-7.14-0.72-10.3,1.01
	c-1.81,0.99-3.35,0.86-4.18-1.61c3.26-1.41,6.29-2.73,9.9-4.29c-3.72-1.78-6.39-4.22-10.24-4.34c-2.93-0.09-6.22,0.1-8.66-1.15
	c-2.75-1.42-5.68-1.63-8.39-2.74c-2.5-1.02-4.49-0.31-6.48,1.07C897.93,172.29,897.37,172.68,897.02,172.92z M638.24,288.97
	c1.71,5.45,3.43,10.73,7.41,14.96c2.95,3.13,4.89,6.57,4.11,11.16c-0.79,4.65,0.9,8.94,2.41,13.24c2,5.68,3.98,11.36,5.76,17.11
	c1.25,4.05,2.15,8.2,3.2,12.31c1.19,4.66,2.39,9.32,3.58,13.98c0.78,3.05,1.11,6.32,2.45,9.1c1.79,3.72,2.68,7.42,2.63,11.51
	c-0.01,1.22,0.62,2.9,1.54,3.58c1.69,1.25,1.76,2.68,1.42,4.35c-0.41,1.97-0.14,3.72,1.68,6.26c0.48-2.09,0.88-3.29,1.02-4.53
	c0.82-6.85,1.54-13.71,2.38-20.55c0.5-4.08,1.29-8.13,1.73-12.22c0.7-6.42,1.21-12.87,1.81-19.3c0.03-0.27,0.1-0.54,0.16-0.81
	c0.97-4.26,2.22-8.47,2.84-12.78c0.87-5.99,1.25-12.04,1.9-18.07c0.13-1.22,0.54-2.41,0.82-3.61c1.48-6.4,0.8-12.81,0.53-19.32
	c-15.08,1.09-29.3-0.53-42.82-6.64C642.83,287.8,640.61,287.56,638.24,288.97z M388.95,152.52c0.29,0.27,0.57,0.55,0.86,0.82
	c1.71-1.33,3.59-2.48,5.08-4.01c6.15-6.32,12.56-12.45,18.19-19.22c9.07-10.92,17.67-22.23,26.33-33.47
	c8.25-10.71,16.24-21.63,24.55-32.29c2.87-3.67,6.37-6.85,9.59-10.25c0.83-0.88,1.94-1.66,0.91-3.24c-0.54,0.14-1.1,0.19-1.56,0.43
	c-4.1,2.18-8.08,4.64-12.3,6.56c-8.39,3.8-16.93,7.27-25.36,10.97c-3.97,1.74-8.41,2.71-10.5,7.4c-2.23,5.01-5.06,9.75-7.35,14.73
	c-3.36,7.33-6.4,14.81-9.7,22.17c-2.81,6.27-5.78,12.48-8.73,18.7c-1.83,3.86-3.79,7.67-5.65,11.52
	C391.83,146.39,390.4,149.46,388.95,152.52z M642.55,21.61c-0.03-0.36-0.06-0.71-0.09-1.07c-1.14-0.07-2.28-0.27-3.41-0.19
	c-4.4,0.32-8.8,0.8-13.2,1.06c-2.02,0.12-3.79-0.4-4.53-2.75c-1.17-3.78,0.87-6.81,5.23-6.82c11.55-0.03,22.7-2.48,33.8-5.22
	c1.66-0.41,3.28-1.33,4.71-2.32c3.48-2.42,5.53-6.74,10.27-7.58c0.8-0.14,1.39-1.29,2.15-1.88c1.19-0.91,2.45-1.73,3.66-2.62
	c2.89-2.12,5.81-4.19,8.6-6.42c0.7-0.56,0.96-1.69,1.92-3.47c-4.78,0-8.6-0.05-12.41,0.01c-4.28,0.07-8.58,0.56-12.83,0.31
	c-9.83-0.57-19.62-0.76-29.29,1.48c-1.41,0.33-2.94,0.94-4,1.88c-6.57,5.81-13.09,11.68-19.49,17.68c-2.52,2.36-4.71,5.17-5.22,8.69
	c-0.35,2.44-1.64,3.56-3.65,4.51c-2.15,1.01-4.17,2.3-6.25,3.46c1.23,1.21,2.21,1.72,3.24,1.86c7.92,1.12,15.84,2.18,23.77,3.23
	c2.32,0.31,4.74,0.26,6.96,0.9c3.07,0.89,5.38,0.18,7.4-2.16C640.69,23.24,641.66,22.46,642.55,21.61z M616.89,239.82
	c-0.3,0.32-0.6,0.63-0.9,0.95c0.77,1.39,1.49,2.8,2.31,4.16c2.19,3.65,4.44,7.26,6.63,10.91c0.71,1.18,1.13,2.61,2.05,3.57
	c1.72,1.8,2.14,4.03,2.94,6.24c1.19,3.29,2.41,7.02,4.83,9.29c2.79,2.63,6.71,4.47,10.45,5.6c8.17,2.47,16.45,4.83,24.85,6.18
	c5.61,0.9,11.56,0.35,17.27-0.32c2.82-0.33,5.54-2.23,8.08-3.79c1.42-0.87,1.07-2.58-0.23-3.51c-3.81-2.73-7.7-5.37-11.63-7.93
	c-1.11-0.72-2.51-0.96-3.71-1.56c-1.42-0.72-2.76-1.61-4.14-2.4c-0.71-0.41-1.72-0.59-2.12-1.19c-1.97-2.93-5.06-4.14-8.04-5.54
	c-4.83-2.26-9.5-4.99-14.52-6.69c-4.41-1.49-8.43-3.76-12.76-5.39C631.08,245.7,624.01,242.7,616.89,239.82z M792.83,143.31
	c-1.45-2.45-2.55-3.68-4.55-3.91c-2.73-0.31-5.47-0.6-8.17-1.06c-1.02-0.17-2.43-0.5-2.85-1.23c-1.82-3.15-4.3-3.44-7.44-2.45
	c-0.98,0.31-2.15,0.05-3.09,0.05c-1.86-3.81-5.63-4.15-8.74-5.07c-4.18-1.23-8.63-1.56-12.94-2.38
	c-10.75-2.03-21.61-2.77-32.52-2.83c-4.12-0.02-8.26,0.85-12.38,0.71c-11.23-0.39-21.83,2.88-32.61,5.12
	c-0.87,0.18-1.62,0.94-2.97,1.77c1.37,0.7,1.93,1.16,2.56,1.27c8.1,1.38,16.32,1.7,24.46,3.22c6.8,1.27,13.97,0.59,20.96,1.9
	c8.52,1.6,17.22,2.19,25.77,3.64c9.89,1.67,19.7,3.84,29.57,5.68c3.23,0.6,6.59,0.56,9.76,1.35c3.82,0.95,7.47,2.54,11.24,3.67
	c0.93,0.28,2.13,0.02,3.11-0.3c2.34-0.75,4.6-1.8,6.95-2.51c1.67-0.5,3.14-0.99,3.3-2.6c-1.15-1.63-2.43-2.82-2.91-4.27
	c-0.74-2.24-2.14-2.18-4.03-1.82c-0.62,2.39-2.77,4.06-2.68,6.98c0.06,2.17-1.81,2.77-3.92,1.78c-2.98-1.39-3.29-2.46-1.9-7.02
	C788.45,143.1,790.16,143.18,792.83,143.31z M523.77,85.99c1.3,0,2.44,0.27,3.39-0.05c4.84-1.59,9.66-3.22,14.41-5.05
	c2.57-0.99,4.99-2.36,7.44-3.63c1.81-0.94,3.56-1.98,5.33-3.01c1.63-0.95,3.18-2.08,4.88-2.88c2.36-1.1,4.87-1.87,7.24-2.95
	c2.07-0.95,4-2.21,6.05-3.21c4.07-1.98,8.26-3.74,12.26-5.85c4.51-2.38,8.87-5.03,13.29-7.59c7.28-4.21,14.57-8.39,21.8-12.7
	c1.79-1.07,3.32-2.57,5.32-4.16c-1.31-0.79-1.94-1.4-2.67-1.57c-4.55-1.07-9.06-2.36-13.85-2.09c-2.3,0.13-4.66-0.33-6.97-0.72
	c-3.09-0.52-6.17-1.16-9.22-1.9c-1.94-0.47-3.17,0.23-4.82,1.28c-2.93,1.85-5.34,3.98-7.75,6.48c-6.06,6.29-12.36,12.43-19.16,17.89
	c-6.82,5.48-11.42,13.44-19.65,17.26c-0.37,0.17-0.72,0.41-1.03,0.68c-3.01,2.63-5.97,5.3-9.01,7.89
	C528.78,82.04,526.43,83.85,523.77,85.99z M663.21,210c2.88,1.91,4.99,3.07,7.89,2.95c7.99-0.32,16-0.24,24.01-0.3
	c1.93-0.02,3.87-0.05,5.8,0.04c2.62,0.13,5.23,0.57,7.84,0.53c11.33-0.17,22.68-0.9,33.99-0.61c15.56,0.4,30.86-1.81,46.23-3.54
	c1.54-0.17,3-0.99,5.33-1.8c-1.57-0.6-2.19-0.98-2.83-1.06c-5.45-0.64-10.72-2.69-16.36-2.03c-1.33,0.15-2.73-0.25-4.09-0.47
	c-4.06-0.66-8.1-1.65-12.19-1.98c-8.52-0.69-17.05-1.14-25.59-1.48c-4.43-0.18-8.73-1.34-13.06-1.67c-9.52-0.73-19,0.32-28.26,2.92
	c-2.79,0.78-5.7,1.12-8.5,1.87c-2.92,0.79-5.82,1.7-8.64,2.81c-2.48,0.98-4.48,3.1-7.6,2.46C666.19,208.44,664.95,209.37,663.21,210
	z M683.46,4.45c0.76,0,1.17,0.02,1.57,0c4.21-0.29,8.3-1.26,12.65-0.66c3.92,0.55,8.03,0.26,11.99-0.21
	c3.54-0.42,6.96-1.41,10.62-0.6c1.69,0.37,3.57-0.03,5.35-0.21c3.7-0.39,7.45-0.61,11.08-1.35c6.12-1.26,12.14-2.66,18.5-1.94
	c2.69,0.31,5.5-0.22,8.23-0.57c5.87-0.75,11.72-1.63,17.58-2.48c0.54-0.08,1.17-0.18,1.56-0.51c0.57-0.49,1.2-1.15,1.32-1.83
	c0.07-0.43-0.63-1.29-1.16-1.48c-1.41-0.5-2.9-0.93-4.39-1.06c-4.81-0.41-9.65-0.49-14.44-1.02c-9.71-1.07-19.51-1.8-29.07-3.72
	c-8.99-1.8-17.91-0.74-26.85-1.1c-1.1-0.04-2.61,0.38-3.29,1.15c-5.51,6.24-12.76,9.93-19.93,13.69
	C682.95,1.53,682.77,2.49,683.46,4.45z M1007.89,260.26c-1.24-1.17-1.8-2.16-2.56-2.34c-3.47-0.86-7.02-2.16-10.5-2.06
	c-7.2,0.19-14.31,1.7-21,4.38c-4.94,1.98-10.34,2.26-15.09,5.16c-3.66,2.23-8.2,3.05-12.39,4.37c-4.59,1.44-9.22,2.73-13.84,4.07
	c-0.39,0.11-0.86,0.18-1.23,0.06c-3.76-1.23-7.04-0.04-10.21,1.89c-0.46,0.28-1.04,0.54-1.56,0.52c-4.03-0.17-7.85,0.64-11.8,1.49
	c-4.89,1.05-10.06,0.78-15.1,1.26c-1.42,0.13-3.17,0.49-4.1,1.41c-2.18,2.19-4.36,3.17-7.51,1.11c0.38,2.2,0.65,3.81,0.98,5.74
	c5.81-0.47,11.67-0.73,17.47-1.47c4.46-0.57,8.83-2.02,13.37-1.8c3.37,0.17,5.88-0.85,7.12-4.17c0.8,0.21,1.35,0.27,1.83,0.48
	c4.53,2,9.31,1.59,13.76,0.39c2.63-0.71,5.31-1.18,7.9-1.91c5.42-1.54,11.41-0.32,16.45-3.53c0.22-0.14,0.63-0.3,0.78-0.2
	c2.59,1.8,5-0.27,7.49-0.31c4.87-0.08,8.83-3.71,13.77-3.53c0.25,0.01,0.57-0.14,0.75-0.33c4.17-4.34,10.42-3.9,15.31-6.66
	C1000.88,262.65,1004.18,261.73,1007.89,260.26z M817.28,25.01c-1.95,0.63-3.68,1.04-4.78-0.96c-0.23-0.41-0.91-0.85-1.35-0.83
	c-3.61,0.21-7.1,0.14-9.79-2.84c-0.19-0.21-0.81,0.01-1.21-0.06c-4.16-0.72-8.29-1.62-12.48-2.13c-3.67-0.45-7.49-1.09-11.07-0.53
	c-3.86,0.61-7.3,0.75-10.95-0.87c-2.27-1.01-4.52-2.2-7.43-1.75c-2.9,0.45-6.03,0.04-8.96-0.51c-2.79-0.53-5.43-0.12-8.17-0.01
	c-4.47,0.18-8.98,0.88-13.52-0.77c-1.9-0.69-4.56,0.26-6.7,0.97c-0.7,0.23-1.26,2.08-1.17,3.14c0.06,0.77,1.19,1.61,2.03,2.11
	c1.13,0.68,2.73,0.76,3.62,1.63c2.78,2.7,6.3,3.26,9.83,3.92c1.19,0.23,2.74,0.18,3.48,0.91c1.73,1.7,3.73,1.74,5.78,1.58
	c11.31-0.89,22.52,1.31,33.83,0.95c7.52-0.24,15.07,0.41,22.61,0.72c3.49,0.14,7.23-0.28,10.41,0.83c3.94,1.38,6.89-1.04,10.36-1.36
	c-1.57-0.47-3.13-0.94-4.68-1.41C817.06,26.93,817.14,26.18,817.28,25.01z M737.23-66.39c-0.94-0.35-1.97-1.11-2.91-1.01
	c-5.7,0.59-10.49-1.19-14.74-4.94c-1.63-1.44-3.51-1.26-5.32,0.05c-0.87,0.63-1.96,0.97-2.94,1.46c-2.55,1.27-5.35,2.21-7.56,3.92
	c-2.97,2.3-5.26,5.29-8.96,6.89c-3.75,1.62-7.23,4.04-10.51,6.52c-3.17,2.39-5.93,5.32-9.32,8.42c10.65,0.3,20.64,2.06,30.91,1.91
	c6.86-0.1,12.16-2.87,17.6-5.92c2.19-1.22,3.79-3.5,5.63-5.32C732.5-57.79,736.01-61.1,737.23-66.39z M539.78,199.81
	c-2.11-1.81-4.15-3.43-6.04-5.22c-2.09-1.97-3.71-4.69-6.12-5.99c-3.19-1.72-6.91-3.17-10.47-3.34c-6.99-0.33-13.68-1.83-20.38-3.51
	c-3.37-0.84-6-2.74-7.69-5.84c-0.44-0.81-1-1.56-1.43-2.23c-0.69,0-1.11-0.07-1.51,0.01c-10.81,2.15-21.62,4.29-32.42,6.52
	c-0.53,0.11-0.92,0.95-1.94,2.07c4.78,0.92,8.82,1.63,12.84,2.47c5.68,1.18,11.36,2.35,16.99,3.72c9.8,2.39,19.6,4.76,29.31,7.49
	c7.43,2.09,14.69,4.76,22.07,7.05C535.77,203.87,538.19,203.28,539.78,199.81z M648.36,27.79c1.18,0.45,1.79,0.81,2.43,0.9
	c8.18,1.17,16.35,2.36,24.54,3.41c3.68,0.47,7.43,1.03,11.11,0.82c8.94-0.51,17.89-1.19,26.48-4.05c0.84-0.28,1.62-0.72,3.39-1.51
	c-2.05-0.83-3.21-1.36-4.42-1.76c-0.62-0.2-1.61,0.08-1.92-0.28c-2.62-3.13-6.32-4.58-9.72-6.52c-0.91-0.52-1.93-1.27-2.34-2.17
	c-1.14-2.52-3.17-2.87-5.5-2.67c-2.61,0.22-5.2,0.59-7.81,0.77c-4.95,0.36-9.92,0.44-14.84,1.02c-2.97,0.35-6.23,0.8-8.68,2.31
	C656.7,20.76,652.83,24.3,648.36,27.79z M703.5,392.84c1.26-0.86,2.28-1.31,2.99-2.06c4.56-4.81,9.22-9.47,14.83-13.11
	c0.83-0.54,1.49-1.65,1.79-2.63c2.04-6.64,4.13-13.28,5.86-20c0.98-3.79,1.31-7.75,1.89-11.64c0.03-0.21-0.26-0.46-0.57-0.98
	c-0.76,0.08-1.7,0.04-2.56,0.29c-3.96,1.18-7.85,2.6-11.85,3.62c-4.75,1.21-8.41,3.34-9.03,8.71c-0.14,1.21-0.22,2.43-0.28,3.64
	c-0.05,1.03,0.18,2.12-0.05,3.1c-1.19,4.95-2.42,9.85-2.07,15.03c0.1,1.45-0.66,2.95-0.87,4.44
	C703.08,384.87,701.44,388.45,703.5,392.84z M444.7,100.28c0.24,0.25,0.48,0.5,0.72,0.75c0.61-0.22,1.38-0.27,1.79-0.68
	c27.84-28.16,57.02-54.93,85.6-82.54c-1.19-0.25-2.31-0.3-3.13,0.17c-5.95,3.43-11.94,6.81-17.72,10.53
	c-2.49,1.6-4.52,3.94-6.74,5.96c-1.73,1.58-3.36,3.27-5.15,4.78c-5.26,4.42-10.88,8.47-15.81,13.24
	c-5.93,5.73-11.4,11.96-16.87,18.15c-4.19,4.75-8.14,9.71-12.05,14.7c-3.13,4.01-6.04,8.19-9.02,12.31
	C445.73,98.48,445.24,99.4,444.7,100.28z M785.48-53.56c-0.01-0.33-0.02-0.65-0.03-0.98c2.19,0,4.38,0,6.58,0
	c0.05-0.43,0.09-0.87,0.14-1.3c-1.89-0.57-3.76-1.21-5.68-1.68c-1.46-0.36-3.1-0.21-4.43-0.81c-5.54-2.5-11.37-3.26-17.35-3.41
	c-1.23-0.03-2.68,0.07-3.64-0.52c-4.07-2.48-8.48-1.84-12.46-1.98c-2.08,3.11-4.18,5.76-5.73,8.71c-1.58,3.02-4.89,5.08-5.44,9.17
	c4.27,0.69,8.07,0.48,11.92,0.08c2.59-0.27,5.22-0.21,7.82-0.17c3.56,0.06,7.25,0.94,10.63,0.24c6.59-1.36,13.08-2.58,19.88-2.4
	c3.23,0.09,6.49-1.17,9.74-1.86c0.81-0.17,1.68-0.33,2.35-0.77c0.47-0.31,0.94-1.15,0.83-1.63c-0.11-0.49-0.86-1.02-1.43-1.18
	c-0.62-0.17-1.42-0.09-2.02,0.16C793.24-52.22,789.36-53.73,785.48-53.56z M717.24,391.13c-3.05,2.68-5.76,5.19-8.61,7.52
	c-2.25,1.85-3.98,3.9-5.08,6.71c-1.12,2.87-2.44,5.47-0.51,8.46c0.33,0.51,0.25,1.29,0.4,2.17c-1.33,0.33-2.48,0.62-3.25,0.81
	c-0.74,3.98-1.62,7.6-2.05,11.27c-0.77,6.71-1.26,13.45-1.89,20.17c-0.13,1.37-0.4,2.73-0.56,4.09c-0.46,3.94-0.85,7.88,1.69,12.1
	c1.26-1.38,2.56-2.29,3.11-3.53c0.99-2.24,1.89-4.64,2.2-7.05c0.78-6.01,3.43-11.52,3.92-17.68c0.44-5.65,2.47-11.18,3.8-16.76
	c0.26-1.08,0.48-2.16,0.78-3.22c2.15-7.63,4.34-15.25,6.43-22.89C717.8,392.65,717.37,391.82,717.24,391.13z M1121.43,274.58
	c-0.11,0.27-0.22,0.53-0.33,0.8c-2.67-2.17-4.64-1.06-6.71,0.73c-1.89,1.65-4.09,2.94-6.87,4.9c2.64-0.49,4.96-0.27,6.27-1.32
	c2.63-2.1,5.42-2.46,8.51-2.41c1.22,0.02,2.47-0.22,3.67-0.51c4.68-1.15,4.67-1.18,6.81,3.56c-0.75,0.83-1.4,2.12-2.41,2.55
	c-3.3,1.38-6.69,2.54-10.11,3.59c-3.55,1.09-6.64,2.96-10.12,4.77c2.8,1.84,2.81,1.85,4.9,1.43c2.98-0.6,5.93-1.36,8.93-1.78
	c3.4-0.48,6.78-0.94,10.01,1.17c2.04,1.33,7.05-0.9,7.41-3.17c0.69-4.31,2.45-8.46,1.89-12.98c-0.13-1.05,0.2-2.18,0.44-3.25
	c0.88-4.1,1.87-8.18,2.67-12.3c0.16-0.82-0.34-1.77-0.57-2.81c-0.94,0.07-1.67-0.03-2.27,0.2c-3.56,1.41-7.11,2.82-10.61,4.38
	c-2.61,1.17-4.82,2.75-4.7,6.12c0.05,1.48-0.8,2.18-2.28,2.41c-1.84,0.28-3.65,0.77-5.52,1.18
	C1120.89,273.09,1121.16,273.83,1121.43,274.58z M753.44,324.98c0.06,0.3,0.13,0.61,0.19,0.91c0.76,0,1.57,0.18,2.27-0.03
	c8.85-2.56,17.4-6.02,26.47-8.03c7.49-1.65,14.71-4.61,21.93-7.33c2.77-1.04,5.75-2.51,7.66-4.65c3.08-3.45,5.46-7.57,7.94-11.52
	c1.21-1.93,0.24-3.73-2.05-3.61c-1.95,0.11-4.11,0.7-5.74,1.75c-6.02,3.87-12.14,7.51-18.87,10.04c-1.28,0.48-2.5,1.16-3.71,1.82
	c-6.9,3.75-13.64,7.82-20.71,11.18C763.29,318.13,758.31,321.42,753.44,324.98z M1173.14,274.8c0,1.72,0.09,3.22-0.01,4.71
	c-0.83,12.02,1.52,23.87,1.86,35.83c0.02,0.55-0.03,1.21,0.24,1.62c1.72,2.63,1.32,5.58,1.36,8.46c0.04,2.4,0.6,4.5,2.38,6.09
	c0.87-0.91,1.65-1.62,2.29-2.43c0.66-0.83,1.48-1.69,1.71-2.65c1.16-4.93,2.12-9.92,3.23-14.86c0.51-2.26,1.54-4.45,1.72-6.72
	c0.31-3.85,0.28-7.74,0.11-11.61c-0.05-1.24-0.82-2.55-1.55-3.63c-2.75-4.1-5.71-8.06-8.38-12.21
	C1177.02,275.72,1175.94,274.59,1173.14,274.8z M483.5,79.25c1.14-0.3,1.71-0.31,2.1-0.58c8.07-5.52,16.09-11.11,24.17-16.61
	c3.75-2.55,7.54-5.05,11.43-7.38c3.64-2.17,7.44-4.07,11.15-6.12c5.55-3.07,7.61-8.88,10.69-13.86c0.27-0.43-0.06-1.23-0.14-2.26
	c-4.62,2.67-8.92,5.07-13.14,7.61c-4.9,2.94-9.84,5.83-14.55,9.05c-5.99,4.1-11.97,8.23-17.01,13.57
	c-4.43,4.69-9.19,9.08-13.72,13.68C483.95,76.88,483.93,77.92,483.5,79.25z M1063.02,234.29c-1.43-2.73-3.22-2.93-5.26-2.26
	c-2.1,0.69-4.18,1.45-6.28,2.14c-3.62,1.19-7.38,2.07-10.84,3.61c-3.94,1.75-7.62,4.09-11.46,6.2c-0.53-0.32-1.36-1.21-1.85-1.06
	c-5.2,1.66-10.43,3.3-15.23,6.29c1.79,4.06,5.55,5.03,8.87,6.5c1.46,0.65,3.31,1.52,4.64,1.13c2.7-0.8,5.24-2.28,7.72-3.69
	c1.51-0.86,2.69-2.33,4.22-3.13c5.95-3.14,12.02-6.04,17.96-9.21c1.41-0.75,3.14-1.99,3.53-3.34
	C1059.64,235.37,1060.9,234.67,1063.02,234.29z M298.01,312.98c0.26-0.06,0.57-0.05,0.76-0.19c2.15-1.64,3.26-3.88,4.36-6.35
	c1.33-2.99,3.76-5.48,5.29-8.41c4.14-7.94,8.14-15.95,12.03-24.01c4.49-9.31,8.84-18.69,13.17-28.07c0.6-1.3,0.8-2.77,1.43-5.02
	c-1.46,0.77-2.06,1-2.55,1.37c-3.98,2.98-6.16,7.4-8.54,11.51c-4.69,8.09-8.81,16.51-13.24,24.76c-2.86,5.33-6.15,10.44-8.73,15.9
	c-2.7,5.72-4.05,11.9-4.27,18.27C297.73,312.81,297.91,312.89,298.01,312.98z M579.74,228.44c7.93,12.6,19.13,21.42,30.76,30.36
	c2.15-4.73,0.17-8.24-1.84-11.78c0.8-1.94,1.59-3.84,2.37-5.74c0.82-1.97,0.46-3.59-1.61-4.45c-3.04-1.26-6.1-2.48-9.19-3.59
	c-4.27-1.53-8.56-3-12.88-4.38C585.09,228.15,582.81,226.82,579.74,228.44z M753.6,465.99c-1.34,2.04-2.68,4.07-4.01,6.12
	c-1.18,1.83-2.41,3.64-3.5,5.52c-2.26,3.91-4.53,7.82-6.62,11.82c-1.87,3.59-1.95,7.78-4.07,11.4c-2.19,3.74-3.62,7.93-5.19,12
	c-0.78,2.02-0.95,4.27-1.68,6.32c-1.6,4.53-3.46,8.97-5.05,13.5c-0.85,2.42-1.17,4.96,0.2,8.19c1.08-1.76,1.96-2.82,2.45-4.04
	c1.43-3.57,2.57-7.26,4.06-10.8c2.08-4.91,4.43-9.7,6.57-14.59c2.15-4.92,3.92-10.01,6.31-14.8c3.86-7.76,8.13-15.32,12.16-22.99
	C756.77,470.75,756.18,467.8,753.6,465.99z M628.54,371.5c0.31-0.14,0.63-0.28,0.94-0.42c-0.13-1.11-0.09-2.28-0.42-3.33
	c-1.32-4.17-3.1-8.23-4.07-12.47c-2.28-9.93-6.82-18.82-11.85-27.54c-1.1-1.9-2.38-3.7-3.5-5.59c-2.79-4.75-5.5-9.54-8.33-14.26
	c-0.45-0.76-1.34-1.25-2.03-1.87c-0.23,0.22-0.46,0.43-0.69,0.65c2.53,6.65,4.96,13.34,7.62,19.93c3.59,8.9,7.17,17.81,11.1,26.55
	c2.31,5.14,5.21,10.02,8.01,14.92C626.1,369.38,627.46,370.36,628.54,371.5z M589.92,265.03c0,1.75-0.39,3.1,0.07,4.05
	c1.94,4.08,3.95,8.14,6.27,12.01c3.32,5.52,7.11,10.76,10.38,16.3c3.07,5.19,5.69,10.65,8.59,15.95c0.81,1.48,1.45,3.37,3.8,3.16
	c0.19-0.48,0.52-0.88,0.46-1.22c-1.05-6.77-2.1-13.54-3.27-20.29c-0.15-0.89-0.78-1.78-1.4-2.48c-3.44-3.94-6.92-7.85-10.44-11.73
	C599.79,275.71,595.14,270.71,589.92,265.03z M1046.74,213.74c-3.62,1.61-7.01,2.03-9.08-1.54c-4.33,1.4-8.32,2.69-12.3,3.99
	c-2.52,0.82-5.67,0.52-6.15,4.54c-0.13,1.07-2.42,1.88-3.66,2.77c0.15,0.46,0.16,0.85,0.34,0.95c3.27,1.83,9.06,0.4,10.98-2.68
	c1.66-2.67,3.14-3.26,6.18-2.57c1.22,3.83-5.15,0.13-4.06,4.31c0.96-0.19,1.77-0.25,2.51-0.51c5.75-2.03,11.76-2.48,17.75-2.97
	c1.64-0.14,3.46-0.32,4.93,0.22c4.61,1.69,8.27-0.99,12.29-1.64c-0.04-0.85,0.04-1.3-0.08-1.37c-2.44-1.35-4.89-2.72-7.39-3.96
	c-1.09-0.54-2.28-0.9-3.46-1.21c-1.53-0.41-3.09-0.82-4.66-0.99c-1.6-0.17-3.24-0.01-4.86-0.07c-1.4-0.05-2.97-0.68-4.07,1.63
	C1043.74,213.06,1045.24,213.4,1046.74,213.74z M334.2,208.57c-1.47,0.38-2.21,0.36-2.65,0.71c-5.28,4.13-9.01,9.54-12.4,15.21
	c-0.98,1.64-1.5,3.56-2.45,5.22c-1.98,3.46-4.23,6.77-6.15,10.25c-3.92,7.09-7.69,14.26-11.52,21.4c-0.91,1.7-1.94,3.37-2.6,5.17
	c-0.24,0.66,0.24,1.86,0.79,2.42c0.36,0.37,1.67,0.34,2.15-0.04c1.28-1,2.65-2.12,3.43-3.5c1.82-3.23,3.16-6.74,4.99-9.96
	c1.82-3.2,4.21-6.09,6-9.31c5.55-10,10.92-20.1,16.37-30.16C331.35,213.75,332.59,211.53,334.2,208.57z M448.42,51.37
	c3.41,1.05,5.67-0.08,7.81-1.01c3.91-1.71,7.76-3.61,11.54-5.59c5.37-2.81,10.71-5.68,15.97-8.68c6.21-3.55,12.34-7.24,18.49-10.91
	c1.99-1.19,3.77-2.92,5.9-3.64c2.5-0.85,3.69-2.67,5.04-4.62c-14.85,5.3-29.24,11.52-42.64,19.78
	C463.21,41.19,456.19,46.18,448.42,51.37z M787.53,408.5c-3.23,2.04-4.9,4.78-6.16,7.86c-0.41,1.01-0.7,2.1-1.29,3
	c-5.25,8.08-9.74,16.56-13.48,25.44c-0.46,1.08-0.27,2.44-0.39,3.67c0.32,0.11,0.65,0.23,0.97,0.34c1.52-1.51,3.09-2.96,4.54-4.53
	c4.76-5.16,9.54-10.32,14.15-15.61c0.91-1.04,1.26-2.65,1.61-4.06c0.62-2.5,1.13-5.04,1.48-7.59c0.18-1.32,0.03-2.72-0.19-4.05
	C788.55,411.66,788.07,410.39,787.53,408.5z M736.4,363.11c4.26-2.7,8.17-5.15,12.04-7.67c0.79-0.51,1.71-1.15,2.08-1.95
	c2.37-5.1,4.66-10.23,6.85-15.41c0.64-1.51-0.29-2.7-1.71-2.41c-3.48,0.71-6.94,1.51-10.4,2.31c-2.13,0.5-3.51,1.71-4.13,3.95
	c-1.48,5.41-3.22,10.74-4.66,16.16C736.07,359.57,736.4,361.24,736.4,363.11z M821.84,150.92c-1.14,1.39-2.12,2.52-3.02,3.72
	c-0.51,0.68-0.89,1.47-1.32,2.21c0.75,0.39,1.47,0.99,2.26,1.11c2.08,0.33,4,0.58,5.06,2.89c0.34,0.74,1.94,1.55,2.7,1.35
	c3.04-0.79,5.19,0.76,7.59,2.09c3,1.66,6.11,2.61,9.06-0.43c0.69-0.71,2.01-0.81,3.23-1.27c0.12,6.98,1.77,8.48,6.44,5.77
	c-5.97-2.82-5.03-10.35-10.15-14.05c-0.94,1.24-1.72,2.27-2.59,3.42c-3.58-0.94-4.87-5.13-8.61-5.46
	C828.95,151.95,825.44,151.38,821.84,150.92z M275.74,318.57c-2.64,7.59-1.97,15.38-3.09,23.77c7.55-1.56,11.63-6.59,14.96-11.7
	c2.97-4.56,1.47-10.11,0.76-16.1c-1.61,1.48-2.54,2.24-3.37,3.11C281.67,321.17,280.35,321.36,275.74,318.57z M522.92,3.2
	c0.1,0.45,0.21,0.9,0.31,1.36c1.16,0,2.36,0.16,3.49-0.03c2.97-0.5,5.96-1.02,8.87-1.8c2.63-0.7,5.39-1.38,7.69-2.75
	c3.75-2.24,7.12-5.13,10.76-7.58c4.11-2.76,8.36-5.3,12.5-8.01c2.02-1.33,3.95-2.81,5.3-6.14c-1.84,0.41-2.96,0.49-3.93,0.92
	c-1.12,0.49-2.05,1.39-3.16,1.93c-7.74,3.75-15.62,7.25-23.23,11.23c-4.85,2.54-9.31,5.82-14,8.69
	C526.07,1.89,524.46,2.48,522.92,3.2z M750.55,519.08c-3.74,7.18-7.3,14.26-11.08,21.22c-2.94,5.42-5.39,11.38-9.42,15.87
	c-5.05,5.61-3.66,11.53-3.85,18.39c1.08-0.88,1.62-1.12,1.85-1.53c2.59-4.55,5.32-9.04,7.63-13.73c2.29-4.66,4.13-9.54,6.2-14.31
	c3.17-7.3,6.27-14.63,9.64-21.84C752.48,521.11,751.59,520.22,750.55,519.08z M1123.12,207.13c0.71,0.82,1.65,1.62,2.19,2.63
	c0.7,1.29,1.07,2.75,1.7,4.45c-1.29,1.18-3.03,2.76-5.07,4.62c3.49,1.71,6.64,3.39,9.91,4.79c1.2,0.51,2.7,0.48,4.06,0.46
	c2.01-0.04,2.99-1.14,2.75-3.23c-0.17-1.5-0.35-3.01-0.38-4.51c-0.09-4.47-1.94-6.17-5.83-8.36c-4.79-2.69-10.45-2.73-15.05-5.72
	c-1.36-0.88-2.46,0.05-3.1,1.14c-0.41,0.7-0.67,2.26-0.34,2.49c1.67,1.15,3.47,2.26,5.39,2.82
	C1120.2,208.95,1121.45,207.87,1123.12,207.13z M756.13,381.82c0.32,0.17,0.63,0.34,0.95,0.51c2.32-2.77,4.83-5.4,6.93-8.33
	c4.01-5.57,7.65-11.42,11.74-16.92c1.64-2.2,2.42-4.17,1.52-6.79c-0.66-0.15-1.19-0.37-1.72-0.37c-0.53,0-1.08,0.16-1.58,0.35
	c-4.89,1.89-8.47,5.51-11.89,9.27c-0.58,0.64-0.67,1.75-0.9,2.66c-1.02,3.96-2.01,7.93-3.02,11.89
	C757.49,376.66,756.81,379.24,756.13,381.82z M1156.75,250c0.49,1.92,1.39,3.85,1.36,5.76c-0.02,1.97-0.95,3.93-1.44,5.9
	c-0.1,0.39,0,0.83-0.06,1.24c-0.61,4.33-0.41,9-2.07,12.88c-1.77,4.15-0.31,7.03,1.2,10.48c3.16-0.22,6.07-0.68,8.08-2.44
	c-0.23-4.3-0.39-8.14-0.66-11.97c-0.17-2.44-0.75-4.86-0.76-7.29C1162.39,259.02,1162.47,253.51,1156.75,250z M405,99.94
	c-2.77,2.79-5.24,5.15-7.54,7.66c-0.79,0.86-1.27,2.05-1.74,3.15c-1.02,2.39-1.93,4.82-2.93,7.22c-0.84,2.01-1.81,3.97-2.59,6
	c-3.01,7.8-5.95,15.63-8.97,23.43c-0.59,1.53-0.99,2.94-0.11,4.72c5.43-7.7,21.94-43.77,24.12-50.46
	C405.37,101.21,405.1,100.64,405,99.94z M1059.79,321.84c-0.14-0.3-0.28-0.59-0.42-0.89c-3.65,0-7.31-0.12-10.95,0.05
	c-2.18,0.1-4.66,0.08-6.43,1.11c-3.92,2.27-8.31,2.8-12.44,4.22c-2.9,1-5.81,1.95-8.72,2.92c2.48,1.49,4.84,2.08,7.17,2.78
	c2.38,0.71,5.01-1.45,7.29,0.69c0.18,0.17,1.04-0.23,1.46-0.53c4.7-3.37,10.29-4.53,15.59-6.46
	C1054.94,324.78,1057.31,323.16,1059.79,321.84z M1178.26,257.99c3.4,6.15,6.91,12.48,10.38,18.76c4.67-1.11,5.52-2.49,3.55-6.18
	c-2.57-4.8-4.43-9.89-7.65-14.46c-3.09-4.39-4.74-9.8-6.97-14.65c-1.65,0-3.19,0-4.72,0c-0.04,0.2-0.09,0.41-0.13,0.61
	c1.14,0.5,2.28,1.01,3.97,1.76c-1.7,3.4-1.54,6.76,0.89,10.04c1.03-0.18,2.16-0.38,3.36-0.59
	C1181.93,255.77,1179.3,255.89,1178.26,257.99z M766.74,343.1c5.47-1.85,9.78-4.88,13.94-8.19c4.15-3.29,9.26-5.4,13.02-10.24
	c-1.67,0.09-2.65-0.01-3.56,0.21c-4.68,1.15-9.4,2.22-14,3.63C769.02,330.69,765.78,335.55,766.74,343.1z M617.94-11.02
	c-4.64-0.94-8.04,1.61-11.81,2.7c-5.41,1.56-8.57,5.75-11.95,9.72c-0.27,0.31-0.54,0.66-0.68,1.03c-0.68,1.81,0.16,3.01,2.11,2.9
	c1.93-0.11,3.85-0.51,5.77-0.5c1.97,0.01,3.42-0.73,4.72-2.14c3.2-3.44,6.5-6.78,9.66-10.25C616.63-8.52,617.17-9.78,617.94-11.02z
	 M880.7,349.3c0.24,0.25,0.47,0.5,0.71,0.76c7.96-4.51,15.91-9.03,23.89-13.56c-0.12-1.3-0.69-2.69-0.26-3.61
	c1.32-2.83-0.54-4.32-1.99-6.34c-0.73,0.41-1.65,0.62-1.8,1.08c-0.85,2.59-2.5,3.48-5.2,3.76c-1.66,0.17-4.04,0.85-4.38,3.21
	c-0.7,4.84-4.35,7.46-7.5,10.52C882.88,346.38,881.85,347.9,880.7,349.3z M898.27,212.63c1.14,1.89,1.69,3.07,2.48,4.04
	c0.73,0.89,1.62,1.97,2.63,2.24c3.46,0.93,6.98,1.93,10.52,2.16c3.21,0.21,6.85,0.89,9.22-2.75c0.57-0.88,2.32-0.98,3.4-1.39
	c1.06,1.53,1.81,2.61,2.65,3.8c1.69-2.9,1.63-3.3-0.72-4.69c-4.56-2.71-9.95-1.85-14.79-3.37c-0.23-0.07-0.59,0.02-0.79,0.18
	c-2.73,2.07-5.52,0.79-8.35,0.28C902.57,212.79,900.56,212.8,898.27,212.63z M691.77,401.21c0.38-0.03,0.77-0.05,1.15-0.08
	c0-1.76-0.02-3.51,0.01-5.27c0.01-1.1-0.32-2.51,0.22-3.24c1.11-1.48,1.1-2.71,0.82-4.48c-0.22-1.38,1.22-2.94,1.43-4.48
	c1.16-8.29,2.21-16.6,3.18-24.92c0.19-1.65,0.66-3.62-1.84-4.9c-0.66,0.84-1.61,1.56-1.87,2.48c-0.73,2.63-1.43,5.32-1.69,8.02
	c-0.76,7.89-1.29,15.8-1.94,23.69c-0.15,1.78-0.34,3.56-0.58,5.33C690.32,396.1,690.07,398.81,691.77,401.21z M936.49,316.25
	c9.82,2.82,18.02-1.81,26.67-5.96c-0.89-0.8-1.56-1.4-2.16-1.93c1.23-1.01,2.39-1.97,3.56-2.92c-0.18-0.31-0.37-0.61-0.55-0.92
	c-2.11,0.5-4.43,0.62-6.27,1.61c-1.93,1.04-3.4,2.92-5.31,4.65c-0.71-0.15-1.87-0.4-3.21-0.69c-0.45,1.58-0.84,2.92-1.31,4.55
	c-1.82-3.2-3.51-4.12-6.38-3c-4.17,1.64-8.2,3.64-12.56,5.62c1.28,0.66,2.35,0.99,3.11,1.66c2.13,1.86,2.36,1.86,3.49-0.75
	C935.79,317.67,936.04,317.19,936.49,316.25z M727.56,421.4c0.31,0.16,0.62,0.32,0.93,0.48c6.64-4.01,10.3-10.18,12.35-17.39
	c0.93-3.27,1.36-6.69,1.8-10.06c0.09-0.67-0.87-1.46-1.35-2.2c-0.61,0.61-1.43,1.12-1.78,1.85c-1.53,3.18-2.95,6.42-4.35,9.66
	C732.6,409.62,730.09,415.51,727.56,421.4z M737.12,379.1c-4.94-0.29-6.63,0.92-7.61,5.2c-0.27,1.19-0.74,2.34-1.09,3.52
	c-1.24,4.2-2.95,8.3-2.6,12.83c0.04,0.53,0.09,1.33-0.21,1.57c-3.01,2.37-2.29,6.33-3.99,9.25c-0.3,0.51-0.04,1.35-0.04,2.04
	c5.09-8.98,9.83-17.97,14.13-27.17C736.65,384.31,738.61,382.08,737.12,379.1z M715.6,554.23c-3.36,4.64-6.12,8.51-8.96,12.33
	c-0.55,0.75-1.31,1.43-2.12,1.88c-3.29,1.8-3.94,2.63-3.11,5.86c0.33,1.28,1.42,2.65,2.56,3.32c0.52,0.3,2.3-0.76,2.96-1.62
	c2.65-3.5,4.89-7.32,7.66-10.71C717.37,561.88,716.13,558.48,715.6,554.23z M277.53,307.63c0.29,0.3,0.57,0.59,0.86,0.89
	c0.9-0.66,2.08-1.13,2.65-2c2.95-4.48,5.78-9.04,8.56-13.63c1.43-2.35,2.76-4.78,3.93-7.27c0.34-0.73,0.31-2.12-0.17-2.6
	c-0.46-0.47-1.77-0.38-2.6-0.14c-0.89,0.25-1.87,0.79-2.42,1.51c-1.14,1.5-1.87,3.31-3.03,4.79
	C281,294.64,280.14,301.48,277.53,307.63z M710.34,599.52c3.54-1.52,6.68-5.66,6.51-8.51c-0.16-2.74-0.41-5.48-0.68-8.21
	c-0.09-0.86-0.39-1.69-0.64-2.74c-0.92,0.61-1.53,0.94-2.06,1.37c-7.63,6.27-9.91,6.86-3.96,16.83
	C709.72,598.62,709.96,598.95,710.34,599.52z M493.44,93.68c0.13,0.38,0.25,0.76,0.38,1.14c1.18,0.05,2.49,0.47,3.51,0.1
	c3.44-1.26,7.19-1.89,9.86-4.86c1.36-1.52,3.1-2.71,4.74-3.97c3.5-2.68,4.02-4.65,2.21-9.37C507.2,82.4,500.32,88.04,493.44,93.68z
	 M1078.66,192.82c1.01,0.82,1.96,1.39,2.65,2.19c2.88,3.36,3.73,3.53,7.47,1.54c2.15-1.14,4.21-2.65,6.98-1.55
	c0.5,0.2,1.56-1.01,2.36-1.57c-0.54-0.7-0.98-1.88-1.63-2.01c-2.91-0.59-5.88-0.88-9.13-1.32c-4.62-4.78-7.21-5.66-10.46-2.85
	c1.58,0.7,2.95,1.3,4.46,1.97C1080.39,190.51,1079.58,191.59,1078.66,192.82z M618.71,121.37c0.01,0.42,0.02,0.84,0.04,1.26
	c7.85,4.25,16.26,5.55,25.04,4.3c-0.33-3.88-3.41-4.56-6.42-4.93c-4.77-0.59-9.58-0.95-14.38-1.24
	C621.58,120.68,620.13,121.15,618.71,121.37z M341.2,191.15c3.19,0.07,4.48-2.1,5.7-4.52c1.72-3.43,3.6-6.78,5.41-10.16
	c1.43-2.67,2.95-5.3,4.25-8.03c0.35-0.74,0.03-1.81,0.01-3.48c-1.31,1.01-1.98,1.31-2.32,1.82c-4.22,6.42-8.38,12.87-12.57,19.3
	C340.63,187.68,340.14,189.29,341.2,191.15z M1091.32,199.35c1.71,1.79,2.86,2.68,3.62,3.84c1.95,2.97,4.01,5.74,7.8,6.42
	c2.72,0.49,5.51-1.86,5.5-4.59c0-1.67-1.65-3.69-3.11-3.89c-3.24-0.44-6.47-0.93-9.71-1.37
	C1094.26,199.59,1093.1,199.52,1091.32,199.35z M820.33,149.06c-0.84-0.42-1.27-0.77-1.74-0.84c-3.22-0.47-6.44-0.94-9.68-1.28
	c-0.75-0.08-1.75,0.1-2.29,0.56c-2.41,2.07-4.68,4.28-7.06,6.49c0.23,0.36,0.39,0.94,0.66,0.99c2.21,0.47,4.44,1.15,6.65,1.1
	c1.05-0.02,2.02-1.55,3.1-2.29c0.9-0.62,1.87-1.15,2.87-1.59C815.18,151.17,817.55,150.22,820.33,149.06z M930.27,162.4
	c0.88,1.56,1.31,3.52,2.42,4.06c3.02,1.47,6.33,2.35,9.54,3.43c1,0.33,2.08,0.45,3.07,0.8c2.91,1.04,5.92,0.05,8.6-3.36
	c-1.92-0.14-3.49-0.54-4.95-0.3c-1.6,0.26-2.83,0.28-4.18-0.83c-2.34-1.92-4.87-2.54-7.38-0.1c-0.22,0.21-0.76,0.08-1.35,0.13
	c-0.38-1.7-0.75-3.34-1.15-5.16C933.18,161.57,931.9,161.94,930.27,162.4z M568.53,9.87c6.55,1.02,14.75-5.56,14.41-11.21
	C575.38-1.17,572.17,4.42,568.53,9.87z M860.79,289.58c2.07,1.68,3.95,0.68,5-0.44c3.24-3.45,7.05-2.84,11-2.25
	c0.7,0.11,1.45-0.14,2.49-0.25c-2.62-2.11-2.62-2.11-2.38-7.15c-1.29,0-2.55,0-3.82,0c-0.07,0.24-0.14,0.47-0.21,0.71
	c0.79,0.38,1.58,0.75,2.37,1.13c-0.15,0.33-0.3,0.67-0.45,1C868.33,281.4,864.46,285.03,860.79,289.58z M420.42,157.37
	c0.27,0.26,0.54,0.52,0.81,0.78c7.92-2.07,11.96-9.4,18.06-13.94c0.83-0.61,1.13-1.93,1.68-2.91c-0.25-0.21-0.51-0.43-0.76-0.64
	c-6.3,4.87-12.62,9.72-18.87,14.65C420.81,155.71,420.71,156.67,420.42,157.37z M743.19-22.05c-0.83-1.54-1.03-2.57-1.54-2.75
	c-1.54-0.56-3.18-1-4.81-1.12c-4.77-0.37-9.55-0.6-14.32-0.8c-1.56-0.06-3.28-0.19-4.35,2.27C726.4-23.67,734.24-22.91,743.19-22.05
	z M893.68,191.76c-3.93-0.7-7.31-1.31-10.7-1.85c-0.23-0.04-0.51,0.6-0.83,0.84c-1.4,1.05-2.08,0.55-2.6-1.02
	c-0.61-1.83-5.09-2.92-6.38-1.56c-0.4,0.42-0.48,1.63-0.17,2.15c1.34,2.22,7.37,3.91,9.94,3.24c1.64-0.42,3.44-0.42,5.16-0.34
	C889.87,193.29,891.63,193.66,893.68,191.76z M869.86,147.78c-0.1,0.39-0.19,0.78-0.29,1.17c4.22,1.36,8.49,2.59,12.64,4.13
	c3.74,1.39,6.92,0.57,10.64-2.08c-1.18-0.68-1.97-1.49-2.79-1.53c-1.76-0.09-3.86-0.3-5.21,0.53c-1.4,0.85-2.07,0.32-3.26,0.04
	C877.71,149.13,873.77,148.51,869.86,147.78z M371.34,185.44c-4.69,5.26-6.96,9.29-6.91,12.2c3.94-0.22,5.98-2.05,8.19-6.67
	C373.69,188.75,373.58,187.09,371.34,185.44z M776.82,405.53c5.99-4.95,7.7-11.66,10.77-17.85c-1.76-0.63-2.47-0.17-3.02,1.03
	c-1.67,3.7-3.65,7.2-6.36,10.27C776.86,400.51,775.5,402.16,776.82,405.53z M960.42,336.36c0.05,0.37,0.09,0.74,0.14,1.12
	c5.9,3.4,10.81-1.43,16.82-1.8c-1.77-3.33-3.94-2.74-6.03-2.25c-2.65,0.63-5.29,1.33-7.92,2.02
	C962.42,335.72,961.42,336.06,960.42,336.36z M859.18,102.12c5.49,3.54,11.9,3.66,12.62-0.01c-0.46-0.62-1.01-1.37-1.54-2.1
	c-1.04,0.34-1.92,0.63-2.84,0.93c-0.58-0.95-1.05-1.73-1.4-2.3C863.62,99.86,861.39,100.99,859.18,102.12z M552.48,47.76
	c-0.18-0.2-0.36-0.4-0.55-0.61c-0.78,0.22-1.72,0.24-2.3,0.7c-3.11,2.44-6.19,4.93-9.1,7.59c-0.48,0.44-0.07,1.85-0.07,3.5
	C545.97,56.02,549.32,51.99,552.48,47.76z M684.6,540.79c2.86-0.23,3.07-0.23,3.09-1.48c0.06-3.3,0.1-6.62-0.26-9.89
	c-0.13-1.16-1.47-2.19-2.26-3.28c-0.19,0.15-0.38,0.29-0.57,0.44C684.6,531.3,684.6,536.02,684.6,540.79z M536.8,25.03
	c1.11,1.96,2.27,2.27,4.04,1.01c2.88-2.05,5.9-3.92,8.82-5.92c0.36-0.25,0.51-0.82,1.22-2.04c-2.42,0.19-4.42-0.21-5.7,0.57
	C542.22,20.45,539.62,22.82,536.8,25.03z M345.95,209.82c4.62-3.72,6.68-8.13,7.87-13.64C349.4,197.85,345.23,205.11,345.95,209.82z
	 M976.77,154.61c-3.98,3.26-4.42,2.64-7.53-1.72c-1.75,0.65-3.58,1.34-6.32,2.36c2.34,0.73,3.6,1.16,4.88,1.51
	c3.1,0.83,6.17,1.79,9.32,2.31c1.11,0.18,2.4-0.81,3.61-1.26c0.03-0.32,0.05-0.63,0.08-0.95
	C979.44,156.09,978.07,155.33,976.77,154.61z M773.65,407.68c-2.31,3.57-4.42,6.88-6.56,10.16c-0.93,1.42-1.51,2.81-0.3,4.4
	C771.32,419.16,774.66,412.14,773.65,407.68z M698.79,306.97c1.38-4.15,2.66-7.63,3.62-11.2c0.15-0.57-0.98-2.02-1.72-2.19
	c-1.59-0.38-2.58,0.67-2.72,2.33c-0.15,1.79,0.25,3.84-0.5,5.31C696.32,303.45,697.28,304.82,698.79,306.97z M813.39,44.69
	c2.83,0.22,5.49,0.58,8.14,0.53c0.78-0.02,1.84-1.08,2.19-1.91c0.21-0.5-0.51-1.81-1.15-2.18
	C819.41,39.27,815.26,40.79,813.39,44.69z M995.1,311.87c3.71-2.07,7.86-2.47,9.96-7.05c-4.68,1.01-8.72,1.87-12.65,4.31
	C993.42,310.16,994.18,310.93,995.1,311.87z M840.63-170.88c1.73,4.12,4.64,5.59,7.35,4.16c0.8-0.42,1.64-1.7,1.58-2.53
	c-0.05-0.72-1.29-1.88-2.08-1.94C845.38-171.36,843.23-171.04,840.63-170.88z M903.31,351.82c-2.17-1.99-2.23-2.1-3.83-1.16
	c-2.11,1.24-4.15,2.61-6.13,4.04c-0.97,0.7-1.4,1.68,0.04,2.89C896.82,356.05,900.52,354.82,903.31,351.82z M825.8,94.15
	c4.14,1.48,4.14,1.48,6.53-2.73c-0.91-1.38-1.83-2.88-2.87-4.3c-1.68-2.26-2.14-2.23-4.56,0.03
	C829.93,89.38,830.87,90.77,825.8,94.15z M708.81,518.59c-1.65,4.64-5.25,7.24-4.36,11.71c4.57-1.27,4.6-5.53,5.97-8.79
	C710.61,521.04,709.68,520.1,708.81,518.59z M1098.84,199.15c2.55,1.42,4.46,0.39,6.17-0.58c1.71-0.97,2.95-0.91,4.44,0.36
	c0.9,0.77,2.16,1.12,3.26,1.67C1110.35,195.3,1104.48,194.82,1098.84,199.15z M1190.18,243.26c-0.97,2.33,0.77,3.71,1.82,5.15
	c0.45,0.62,2.32,1.04,2.72,0.67c0.73-0.68,1.19-2.04,1.12-3.08c-0.07-0.98-0.95-1.91-1.42-2.75
	C1193.02,243.26,1191.74,243.26,1190.18,243.26z M1094.73,177.88c-0.32,0.51-0.64,1.02-0.96,1.54c0.61,0.33,1.19,0.78,1.84,0.99
	c3.39,1.08,6.8,2.14,10.22,3.13c0.66,0.19,1.42,0.03,2.13,0.03c0.06-0.3,0.11-0.6,0.17-0.9
	C1103.86,180.5,1099.43,178.81,1094.73,177.88z M800.68,39.87c-0.14-0.2-0.29-0.41-0.43-0.61c-2.86,0-5.71,0-8.65,0
	c0.58,2.96,2.47,4.42,4.68,4C797.9,42.95,799.22,41.05,800.68,39.87z M778.26,84.85c2.03,0,3.61,0,5.59,0
	c-3.06-6.05,2.99-4.36,5.25-6.57C783.66,77.65,780.45,79.62,778.26,84.85z M1001.56,179.49c-3.93-1.35-7.91-2.07-12-1.92
	c-0.2,0.01-0.36,1.18-0.44,1.44c2.49,0.56,4.56,1.02,6.63,1.5C997.75,180.97,999.73,181.36,1001.56,179.49z M483.68,120.3
	c4.39,0.76,8.62-1,9.98-4.08C488.86,114.07,487.13,118.63,483.68,120.3z M892.75,155.98c1.9,0.56,3.29,0.97,4.67,1.38
	c-0.03-0.31-0.05-0.62-0.08-0.93c1.92-0.81,3.83-1.61,6.66-2.81c-3-0.68-5.08-1.16-7.1-1.62
	C895.6,153.26,894.43,154.37,892.75,155.98z M612.54,279.14c0.21-2.63,0.26-2.68-3.11-5.89c-1.02-0.97-1.81-2.89-3.92-1.82
	C607.3,275.57,609.89,278.37,612.54,279.14z M914.03,162.05c2.9,0.69,5.41,2.49,8.48,0.43
	C917.93,158.77,916.47,158.64,914.03,162.05z M983.11,180.69c0.12-0.36,0.24-0.71,0.36-1.07c-0.87-0.61-1.69-1.62-2.63-1.75
	c-1.54-0.21-3.23-0.08-4.72,0.38c-1,0.31-0.52,2.23,0.76,2.38C978.93,180.86,981.03,180.69,983.11,180.69z M1023.04,205.24
	c-2.45-0.97-4.66-1.84-6.86-2.71c-1.01,2.58-1.15,4.1-0.18,4.33c1.18,0.28,2.57-0.08,3.81-0.37
	C1020.93,206.22,1021.97,205.66,1023.04,205.24z M956.98,335.92c-2.5-0.44-4.2-0.87-5.92-0.99c-0.63-0.04-1.85,0.61-1.86,0.97
	c-0.02,0.8,0.35,2.05,0.93,2.32c0.85,0.4,2.11,0.37,3.05,0.06C954.28,337.91,955.22,337.05,956.98,335.92z M1037.2,197.58
	c0.44-0.26,0.88-0.53,1.32-0.79c-0.37-1.13-0.41-2.65-1.18-3.3c-1.35-1.13-3.15-1.33-5.34-0.07
	C1033.97,195,1035.58,196.29,1037.2,197.58z M823.94,131.85c-3.38-1.05-6.26-1.94-9.61-2.98c0.21,1.15,0.29,2.28,0.44,2.29
	C817.65,131.33,820.23,134.13,823.94,131.85z M629.76-28.99c6.38,0.35,8-0.54,7.61-4.45C634.88-31.99,632.64-30.67,629.76-28.99z
	 M835.37,137.85c-0.06-1.28-0.04-2.59-0.25-3.86c-0.06-0.37-0.81-0.77-1.3-0.87c-0.73-0.15-1.52-0.04-2.35-0.04
	C833.06,138.15,833.06,138.15,835.37,137.85z M700.82,340.53c0-3.3,0-6.6,0-9.9C699.17,334.23,699.06,338.43,700.82,340.53z
	 M756.52,504.94c3.26-2.24,3.54-3.25,1.88-6.9C756.64,500.09,755.34,502.13,756.52,504.94z M869.78,236.76
	c3.79-0.08,7.54,2.02,11.28,0C877.25,237.59,873.56,234.49,869.78,236.76z M815.17-16.02c0.44-3.89-1.16-4.77-6.14-3.35
	C811.37-18.1,813.17-17.12,815.17-16.02z M1129.83,189.17c-0.4-0.07-0.8-0.14-1.21-0.21c-0.63,1.32-1.41,2.59-1.79,3.98
	c-0.13,0.47,0.77,1.21,1.19,1.83c0.6-0.43,1.63-0.79,1.72-1.31C1129.99,192.07,1129.83,190.6,1129.83,189.17z"/>
<path d="M913.1-178.86c101.65,0,203.29,0,304.94,0c0,99.15,0,198.31,0,297.46c-1.39-1.33-2.79-2.64-4.17-3.98
	c-14.97-14.56-29.94-29.12-44.89-43.69c-6.04-5.88-12.06-11.77-18.04-17.71c-9.22-9.16-18.34-18.41-27.59-27.54
	c-13.58-13.39-27.25-26.69-40.85-40.06c-7.88-7.75-15.72-15.55-23.54-23.36c-8.98-8.97-18.83-17.01-27.61-26.21
	c-7.05-7.38-14.58-14.3-21.92-21.39c-15.31-14.79-30.64-29.57-45.96-44.35c-8.25-7.97-16.49-15.95-24.76-23.9
	c-4.67-4.49-9.47-8.84-14.09-13.39C920.69-170.84,916.93-174.89,913.1-178.86z"/>
<path d="M798.65-127.87c-2.09,2.22-3.36-0.22-5.14-0.67c-1.08,4.3-2.11,8.45-3.15,12.6c-1.32-4.71-5.1-7.37-7.29-11.28
	c1.5-0.74,3.15-1.25,4.42-2.26c1.25-0.99,2.2-2.41,3.08-3.78c0.41-0.63,0.33-1.58,0.47-2.39c-0.74,0.04-1.79-0.22-2.17,0.17
	c-1.66,1.71-3.6,2.36-5.93,2.49c-0.69,0.04-1.43,1.04-1.96,1.74c-0.65,0.87-0.97,2-1.68,2.81c-1.23,1.39-2.22,1.13-3.19-0.45
	c-0.8-1.3-1.78-2.49-3.09-4.28c0.52-0.57,1.31-1.61,2.26-2.46c2.17-1.93,4.46-3.7,6.62-5.64c2.46-2.21,4.32-2.53,6.3-0.13
	c1.77,2.14,3.97,3.14,6.27,4.41c1.5,0.83,2.2,3.27,3.04,5.08C798.08-130.7,798.26-129.31,798.65-127.87z"/>
<path d="M1192.94,227.41c-2.37-1.44-3.96-2.22-5.29-3.31c-0.55-0.45-0.53-1.6-0.77-2.43c0.74-0.2,1.68-0.79,2.17-0.53
	c1.5,0.83,2.99,1.82,4.14,3.07C1193.62,224.68,1193.08,226.02,1192.94,227.41z"/>
<path d="M877.23,458.28c-3.24-0.96-5.32,1.26-7.4,2.35c-15.71,8.19-26.95,16.73-30.01,22.41c1.04,0.62,2.15,1.17,3.12,1.91
	c1.4,1.06,1.21,2.61-0.46,3.11c-1.16,0.34-2.45,0.3-3.69,0.29c-5.07-0.01-9.45,1.64-13.16,5.13c-0.8,0.75-1.69,1.49-2.68,1.93
	c-2.84,1.25-5.43-0.35-5.42-3.42c0.01-3.55,0.94-6.45,4.24-8.83c6.36-4.59,12.2-9.91,18.41-14.72c3.27-2.53,6.79-4.76,10.34-6.87
	c7.58-4.5,15.43-8.56,22.81-13.34c4.61-2.99,9.62-4.69,14.63-6.59c0.77-0.29,1.7-0.57,2.16-1.17c2.76-3.57,6.95-4.2,10.84-5.47
	c1.96-0.64,3.82-1.61,5.78-2.27c6.13-2.05,12.3-3.99,18.43-6.02c5.2-1.72,10.3-3.81,15.58-5.2c8.65-2.26,17.3-3,25.93,0.78
	c7.39,3.24,15.05,5.85,22.95,7.63c2.01,0.45,4.1,0.72,6.16,0.77c7.51,0.16,13.14,4.59,19.02,8.33c5.33,3.39,10.39,7.19,15.57,10.81
	c0.34,0.24,0.73,0.42,1.01,0.71c5.86,5.99,11.73,11.99,17.56,18.01c2.46,2.55,5.06,5.01,7.2,7.81c1.37,1.8,1.86,4.23,2.98,6.25
	c3.04,5.48,3.43,11.46,2.47,17.32c-0.46,2.84-2.77,5.53-4.66,7.96c-7.24,9.3-16.95,16.12-25.15,24.48
	c-3.15,3.21-7.09,5.65-10.62,8.51c-1.07,0.86-1.91,1.99-2.94,2.91c-2.25,2.03-4.54,4.01-6.85,5.98
	c-6.23,5.34-13.36,9.26-20.61,12.95c-8.02,4.09-16.39,7.13-25.34,8.79c-9.4,1.74-18.88,2.45-28.35,3.49
	c-9.03,0.99-17.69-0.23-26.19-2.71c-9.25-2.7-18.33-6-27.48-9.05c-2.1-0.7-4.14-1.67-6.29-2.08c-5.28-1-8.61-4.7-12.13-8.2
	c-1.07-1.06-2.1-2.2-3.32-3.07c-6.25-4.44-11.19-10.1-15.02-16.65c-1.78-3.05-2.78-6.55-4.2-9.82c-0.43-0.99-0.89-2.1-1.67-2.77
	c-2.06-1.75-1.86-3.94-1.39-6.11c0.89-4.15,1.93-8.27,2.99-12.38c0.3-1.17,0.67-2.4,1.34-3.37c1.28-1.84,2.55-3.61,2.39-6.02
	c-0.03-0.49,0.26-1.09,0.59-1.5c2.89-3.66,5.78-7.32,8.75-10.91c3.96-4.78,7.94-9.55,12.01-14.23c0.85-0.98,2.09-1.65,3.24-2.32
	C873.17,462.41,875.95,461.45,877.23,458.28z M1002.82,442.78c-2.1,1.75-1.34,3.37-1.23,5c0.16,2.45,0.45,5.04-0.14,7.37
	c-1.09,4.36-1.17,9.08-4.02,12.91c-0.23,0.3-0.19,0.8-0.3,1.2c-1.31,5.19-2.18,10.54-4.04,15.53c-3.02,8.09-5.19,16.32-6.13,24.89
	c-0.09,0.8-0.43,1.59-0.78,2.33c-5.25,10.99-15.1,16.58-25.57,21.1c-5.02,2.16-10.66,2.81-15.88,4.57
	c-6.42,2.17-12.8,1.63-19.23,0.52c-1.32-0.23-2.61-0.89-3.82-1.53c-8.6-4.53-14.23-12.09-19.47-19.84
	c-4.48-6.63-5.67-14.69-8.37-22.1c-1.52-4.19-1.43-8.37-1.53-12.63c-0.04-1.65-0.29-3.3-0.37-4.95c-0.06-1.3-0.3-2.68,0.03-3.9
	c0.91-3.4,2.08-6.74,3.4-10.88c-2.82,1.33-4.93,2.23-6.95,3.29c-3.61,1.89-7.52,3.43-10.66,5.91c-4.3,3.4-8.3,7.29-11.88,11.44
	c-5.23,6.06-9.48,12.89-13.02,20.07c-2.63,5.33-3.5,11.22-1.65,16.92c2.47,7.61,7.35,13.82,13.02,19.4
	c1.57,1.55,3.46,2.82,4.83,4.52c4.25,5.28,9.83,8.2,16.22,10.03c4.63,1.33,9.12,3.13,13.69,4.66c4.7,1.58,9.37,3.33,14.16,4.6
	c5.85,1.55,11.63,3.76,17.88,3.22c10.04-0.88,20.11-1.47,30.1-2.74c5.72-0.73,11.59-1.85,16.86-4.08c7.86-3.32,15.33-7.62,22.8-11.8
	c3.22-1.81,6.13-4.24,8.97-6.63c3.23-2.73,6.25-5.71,9.31-8.63c3.79-3.61,7.58-7.22,11.27-10.93c4.25-4.27,8.15-8.95,12.69-12.87
	c2.49-2.15,4.43-4.36,5.62-7.35c0.3-0.76,0.66-1.52,1.1-2.21c2.96-4.6,3.13-9.22,0.24-13.92c-0.43-0.69-0.86-1.51-0.9-2.29
	c-0.11-2.46-1.58-4.03-3.22-5.59c-5.97-5.67-11.92-11.35-17.85-17.05c-2.18-2.1-4.27-4.29-6.46-6.37c-0.89-0.84-1.9-1.58-2.94-2.24
	c-2.9-1.83-5.8-3.66-8.77-5.36C1007.47,445.04,1005.02,443.9,1002.82,442.78z M968.81,436.7c0,2.55,0.27,4.78-0.07,6.91
	c-0.44,2.81-0.69,6.02-2.23,8.2c-1.84,2.59-2.57,5.39-3.7,8.15c-0.64,1.57-1.98,2.84-2.93,4.28c-1.42,2.15-3.02,4.23-4.1,6.54
	c-1.5,3.23-2.3,6.81-3.97,9.94c-1.03,1.93-2.87,3.85-4.82,4.78c-2.42,1.16-5.31,1.52-8.04,1.85c-5.63,0.68-11.81-4.98-11.74-10.68
	c0.04-4.14,0.55-8.3,0.33-12.42c-0.17-3.2,0.48-5.87,2.2-8.53c0.86-1.33,1.02-3.1,1.7-5.34c-2.34,1.15-3.8,1.87-5.25,2.59
	c-4.33,2.16-8.38,4.71-11.77,8.22c-2.49,2.57-5.29,4.88-7.55,7.64c-2.61,3.19-4.77,6.62-4.59,11.18c0.19,4.84,0.24,9.61,1.64,14.33
	c1.63,5.51,2.62,11.22,6.16,15.98c1.8,2.43,3.71,4.8,5.3,7.36c4.56,7.34,11.05,11.6,19.7,11.53c6.18-0.05,12.35-0.88,18.29-3.01
	c6.4-2.29,12.54-4.72,17.73-9.49c5.36-4.92,9.03-10.43,9.17-17.76c0.08-3.84,0.85-7.42,2.36-10.85c3.93-8.96,5.97-18.3,6.18-28.08
	c0.03-1.46,0.62-2.93,1.08-4.35c1.9-5.77,0.39-9.77-4.85-12.63c-0.35-0.19-0.76-0.34-1.05-0.61
	C979.88,438.75,975.12,436.76,968.81,436.7z M945.07,467.64c-1.78,0-3.26-0.15-4.7,0.04c-2.07,0.28-3.04,1.67-2.98,3.74
	c0.06,1.91,1.4,2.55,2.99,2.73c1.89,0.22,3.15-0.48,3.47-2.55C944.01,470.55,944.47,469.54,945.07,467.64z"/>
<path d="M521.56,342.29c-0.67-0.93-1.16-1.44-1.46-2.04c-2.1-4.17,0.08-8.01,4.75-8.07c8.48-0.11,16.72-1.9,25-3.43
	c2.71-0.5,5.3-1.64,8.01-2.12c3.24-0.58,6.55-1.09,9.82-1.06c4.01,0.04,6.94,2.38,9.21,5.6c1.01,1.44,2.16,2.77,3.11,3.97
	c2.65-0.31,3.01-1.87,3.17-3.62c0.54-5.63,1.01-11.26,1.7-16.87c0.22-1.74,0.99-3.43,1.68-5.07c0.2-0.48,1.12-1.07,1.51-0.96
	c0.65,0.2,1.6,0.92,1.61,1.44c0.08,2.61-0.19,5.23-0.16,7.85c0.03,2.3-0.28,4.86,0.61,6.84c1.25,2.79,1.51,5.53,1.5,8.43
	c-0.02,3.56,0,7.13,0,10.13c0.63,0.65,0.7,0.81,0.82,0.84c6.33,2.18,7,3.93,4.99,10.52c-1.32,4.31-3.71,7.55-7.23,10.26
	c-2.91,2.24-5.27,0.15-7.77-0.6c-2.21-0.66-2.65-2.59-2.57-4.69c0.06-1.38-0.17-2.8,0.07-4.15c1.11-6.15-1.88-10.53-6.01-14.46
	c-0.2-0.19-0.42-0.37-0.56-0.61c-4.2-7-10.46-6.35-17.15-4.88c-6.04,1.32-12.18,2.2-18.28,3.26c-0.54,0.09-1.11,0.05-1.65,0.16
	c-3.08,0.63-4.1,2.46-2.43,5.07c1.38,2.17,3.01,4.41,5.06,5.88c4.95,3.55,8.88,7.8,11.59,13.28c0.96,1.95,3.05,3.42,3.76,5.41
	c3.14,8.77,8.97,16.1,12.89,24.39c3.39,7.18,5.67,14.9,8.21,22.46c0.97,2.89-0.1,4.68-2.38,5.27c-2.3,0.6-4.81-1.22-5.46-3.86
	c-1.8-7.4-4.61-14.42-8.35-21.03c-2.31-4.08-4.94-7.98-7.45-11.95c-0.52-0.81-1.07-1.65-1.76-2.29
	c-6.05-5.62-9.46-13.03-13.73-19.88c-1.66-2.66-3.98-4.93-6.14-7.25c-0.61-0.66-1.68-1.19-2.57-1.24
	c-6.47-0.4-12.94-0.67-19.42-0.95c-0.21-0.01-0.43,0.3-0.87,0.64c0.23,0.4,0.39,1.05,0.75,1.2c3.68,1.53,6.47,4.19,9.14,7.02
	c2.39,2.53,5.16,4.31,8.45,5.67c4.57,1.88,9.04,4.23,13.11,7.02c4.64,3.2,7.37,8.19,9.57,13.26c1.23,2.84,2.62,5.39,4.88,7.52
	c3.18,3.01,5.83,6.32,5.32,11.12c-0.04,0.4,0.03,0.84,0.17,1.23c2.1,5.8,4.46,11.51,6.26,17.4c1.25,4.07,1.77,8.36,2.56,12.56
	c1.12,5.9,1.37,11.79-0.24,17.67c-0.25,0.92-0.37,1.94-0.25,2.88c0.78,5.85-2.63,10.29-5.28,14.83c-1.7,2.91-4.42,5.24-6.78,7.74
	c-0.51,0.54-1.45,0.9-2.21,0.92c-3.96,0.09-7.91,0.99-11.91-0.18c-2.77-0.81-5.77-0.82-8.54-1.62c-4.74-1.37-9.54-2.74-14.03-4.74
	c-6.14-2.73-12.36-5.19-17.93-9.33c-4.22-3.14-9.76-4.48-14.61-6.83c-5.3-2.57-10.6-5.18-15.69-8.14
	c-6.78-3.94-13.33-8.26-20.02-12.35c-2.24-1.37-4.48-2.84-6.92-3.72c-6.14-2.19-10.81-6.48-15.96-10.18
	c-3.62-2.6-8.09-4.02-12.15-6.01c-3.71-1.83-7.59-3.42-11.01-5.69c-2.32-1.55-4.69-2.2-7.28-2.64c-6.11-1.04-12.22-2.03-18.31-3.16
	c-6.32-1.18-11.5-4.67-16.24-8.75c-1.13-0.97-1.99-2.8-2.1-4.3c-0.53-7.16-0.88-14.34-1.01-21.51c-0.03-1.47,0.83-3.2,1.8-4.39
	c2.7-3.31,5.88-6.24,8.48-9.62c5.64-7.34,13.54-11.16,21.75-14.52c7.72-3.16,15.74-4.9,24.11-5.51c3.61-0.26,7.15-1.95,10.66-3.14
	c6.91-2.34,14.16-2.63,21.28-2.94c3.52-0.15,7.37,1.44,10.64,3.09c4.32,2.18,8.87,3,13.49,3.82c8.02,1.41,16.01,3.11,24.08,4.04
	c7.12,0.82,14.34,0.84,21.52,1C518.29,343.64,519.84,342.79,521.56,342.29z M555.7,423.29c-3.91,1.21-7.73,1.97-11.17,3.56
	c-3.89,1.8-7.72,3.5-12,4.11c-4.63,0.67-9.26,2.1-13.87,2.02c-4.87-0.08-9.6-0.2-14.35,1.12c-3.98,1.11-8.1,0.67-11.79-0.95
	c-2.56-1.12-5.16-2.92-6.82-5.12c-2.8-3.71-5.01-7.89-7.19-12.02c-1.86-3.52-3.92-7.11-4.81-10.92c-1.15-4.93-1.43-10.1-1.72-15.19
	c-0.46-8.05-0.65-16.12-0.91-24.18c-0.05-1.51,0.12-3.04,0.19-4.55c0.18-3.86,0.35-7.72,0.54-11.58c0.1-2.01-0.83-2.94-2.81-3.37
	c-3.24-0.7-6.53-1.38-9.59-2.62c-12.48-5.05-24.91-3.59-37.41-0.2c-3.85,1.04-7.73,2.48-11.64,2.65
	c-7.86,0.35-14.63,3.75-21.66,6.53c-7.4,2.93-12.95,8.18-18.23,13.98c-2.84,3.12-4.12,6.4-4.11,10.42c0.01,3.6,0.16,7.2-0.05,10.79
	c-0.2,3.45,1.16,5.9,4.02,7.59c6.06,3.6,12.86,5.03,19.67,6.11c3.91,0.62,7.97,0.21,11.94,0.57c1.57,0.14,3.12,1.03,4.59,1.75
	c4.56,2.24,9.04,4.64,13.63,6.83c5.61,2.69,11.33,5.08,15.58,9.99c1.37,1.59,3.5,2.8,5.52,3.48c6.5,2.19,11.99,6.16,17.67,9.75
	c5.23,3.31,9.64,7.77,15.39,10.45c14.74,6.88,29.42,13.9,43.97,21.18c7.52,3.76,15.4,6.24,23.6,7.37
	c6.21,0.86,11.23-0.66,14.11-6.85c2.52-5.4,3.63-11.08,3.98-17.03C560.47,440.14,559.37,431.67,555.7,423.29z M516.59,372.83
	c-2.55-5.03-6.66-8.63-11.13-11.05c-5.63-3.05-11.94-4.98-18.14-6.8c-8.3-2.43-8.64,1.08-8.8,7.15
	c-0.32,12.87,0.71,25.66,1.86,38.43c0.36,3.95,1.82,7.77,4.44,10.96c2.53,3.08,5.42,5.92,7.55,9.25c2.63,4.12,6.17,4.99,10.62,4.58
	c5.35-0.49,10.73-1.08,16.08-0.99c9.09,0.15,17.48-2.18,25.55-6.07c5.71-2.75,7.38-9.7,3.32-14.56c-3.09-3.7-6.47-7.17-9.88-10.58
	c-0.96-0.95-2.48-1.34-3.81-2.03c-0.93,1.83-2.01,3.12-2.2,4.53c-0.44,3.15-2.41,5.25-4.41,7.31c-3.42,3.52-8.47,3.1-10.87-1.15
	c-2.01-3.57-3.5-7.46-4.98-11.3c-1.5-3.88-0.57-7.6,1.31-11.15C514.24,377.17,515.42,375.01,516.59,372.83z"/>
<path d="M655.63,719.11c-2.56,0-4.59,0.15-6.58-0.05c-1.28-0.13-2.58-0.62-3.72-1.23c-0.93-0.49-1.63-1.41-2.71-2.38
	c-0.71,1.24-1.28,2.24-1.92,3.36c-1.24-0.42-2.5-0.85-3.74-1.27c-0.64,1.36-1.21,2.57-2.02,4.27c-3.47-3.45-5.29-7.39-7.17-11.3
	c-0.71-1.48-1.42-2.96-2.15-4.43c-0.24-0.49-0.72-0.96-0.73-1.45c-0.02-6.53-1.59-13.35,3.42-19c1.26-1.42,2.29-3.06,3.53-4.5
	c3.71-4.32,13.31-4.31,18.1-1.08c5.2,3.51,8.02,8.49,9.52,14.04c0.98,3.64,2.85,5.88,5.99,6.58c8.44,1.9,16.41,6,25.4,5.43
	c2.87-0.18,7.56,3.63,8.09,6.73c0.51,2.97-0.73,5.74-3.06,7.7c-0.76,0.64-2.26,0.83-3.3,0.62c-1.45-0.3-2.94-0.95-4.13-1.84
	c-2.73-2.03-5.9-2.1-9.02-2.49c-2.04-0.25-3.32,0.97-4.61,2.29c-5.44,5.58-6.33,5.57-11.41,0.02
	C660.64,716.11,659.24,716.18,655.63,719.11z"/>
</svg>
